# MagicaVoxel @ Ephtracy

# group
o 

# material
mtllib beer_barrel_c.mtl
usemtl palette

# normals
vn -1 0 0
vn 1 0 0
vn 0 0 1
vn 0 0 -1
vn 0 -1 0
vn 0 1 0

# texcoords
vt 0.787109 0.5
vt 0.791016 0.5

# verts
v -0.3 0.4 0.4
v -0.3 0.4 0.2
v -0.3 0.4 0.1
v -0.3 0.4 -0.3
v -0.3 0.4 -0.4
v -0.3 0.4 -0.5
v -0.3 0.4 -0.6
v -0.3 0.7 0.4
v -0.3 0.7 0.2
v -0.3 0.7 0.1
v -0.3 0.7 -0.3
v -0.3 0.7 -0.4
v -0.3 0.7 -0.5
v -0.3 0.7 -0.6
v -0.2 0 0.2
v -0.2 0 0.1
v -0.2 0 -0.3
v -0.2 0 -0.4
v -0.2 0.1 0.2
v -0.2 0.1 0.1
v -0.2 0.1 -0.3
v -0.2 0.1 -0.4
v -0.2 0.3 0.4
v -0.2 0.3 0.2
v -0.2 0.3 0.1
v -0.2 0.3 -0.3
v -0.2 0.3 -0.4
v -0.2 0.3 -0.5
v -0.2 0.3 -0.6
v -0.2 0.4 0.4
v -0.2 0.4 0.2
v -0.2 0.4 0.1
v -0.2 0.4 -0.3
v -0.2 0.4 -0.4
v -0.2 0.4 -0.5
v -0.2 0.4 -0.6
v -0.2 0.7 0.4
v -0.2 0.7 0.2
v -0.2 0.7 0.1
v -0.2 0.7 -0.3
v -0.2 0.7 -0.4
v -0.2 0.7 -0.5
v -0.2 0.7 -0.6
v -0.2 0.8 0.4
v -0.2 0.8 0.2
v -0.2 0.8 0.1
v -0.2 0.8 -0.3
v -0.2 0.8 -0.4
v -0.2 0.8 -0.5
v -0.2 0.8 -0.6
v -0.1 0.1 0.2
v -0.1 0.1 0.1
v -0.1 0.1 -0.3
v -0.1 0.1 -0.4
v -0.1 0.2 0.4
v -0.1 0.2 0.2
v -0.1 0.2 0.1
v -0.1 0.2 -0.3
v -0.1 0.2 -0.4
v -0.1 0.2 -0.5
v -0.1 0.2 -0.6
v -0.1 0.3 0.4
v -0.1 0.3 0.2
v -0.1 0.3 0.1
v -0.1 0.3 -0.3
v -0.1 0.3 -0.4
v -0.1 0.3 -0.5
v -0.1 0.3 -0.6
v -0.1 0.8 0.4
v -0.1 0.8 0.2
v -0.1 0.8 0.1
v -0.1 0.8 -0.3
v -0.1 0.8 -0.4
v -0.1 0.8 -0.5
v -0.1 0.8 -0.6
v -0.1 0.9 0.4
v -0.1 0.9 0.2
v -0.1 0.9 0.1
v -0.1 0.9 -0.3
v -0.1 0.9 -0.4
v -0.1 0.9 -0.5
v -0.1 0.9 -0.6
v 0 0.4 0.6
v 0 0.4 0.5
v 0 0.5 0.5
v 0 0.5 0.3
v 0 0.6 0.6
v 0 0.6 0.5
v 0 0.6 0.4
v 0 0.6 0.3
v 0 0.7 0.5
v 0 0.7 0.4
v 0.2 0.3 0.4
v 0.2 0.3 0.3
v 0.2 0.4 0.4
v 0.2 0.4 0.3
v 0.2 0.7 0.4
v 0.2 0.7 0.3
v 0.2 0.8 0.4
v 0.2 0.8 0.3
v 0.3 0.4 0.4
v 0.3 0.4 0.3
v 0.3 0.7 0.4
v 0.3 0.7 0.3
v -0.2 0.4 0.4
v -0.2 0.4 0.3
v -0.2 0.7 0.4
v -0.2 0.7 0.3
v -0.1 0.3 0.4
v -0.1 0.3 0.3
v -0.1 0.4 0.4
v -0.1 0.4 0.3
v -0.1 0.7 0.4
v -0.1 0.7 0.3
v -0.1 0.8 0.4
v -0.1 0.8 0.3
v 0.1 0.4 0.6
v 0.1 0.4 0.5
v 0.1 0.5 0.5
v 0.1 0.5 0.3
v 0.1 0.6 0.6
v 0.1 0.6 0.5
v 0.1 0.6 0.4
v 0.1 0.6 0.3
v 0.1 0.7 0.5
v 0.1 0.7 0.4
v 0.2 0.1 0.2
v 0.2 0.1 0.1
v 0.2 0.1 -0.3
v 0.2 0.1 -0.4
v 0.2 0.2 0.4
v 0.2 0.2 0.2
v 0.2 0.2 0.1
v 0.2 0.2 -0.3
v 0.2 0.2 -0.4
v 0.2 0.2 -0.5
v 0.2 0.2 -0.6
v 0.2 0.3 0.4
v 0.2 0.3 0.2
v 0.2 0.3 0.1
v 0.2 0.3 -0.3
v 0.2 0.3 -0.4
v 0.2 0.3 -0.5
v 0.2 0.3 -0.6
v 0.2 0.8 0.4
v 0.2 0.8 0.2
v 0.2 0.8 0.1
v 0.2 0.8 -0.3
v 0.2 0.8 -0.4
v 0.2 0.8 -0.5
v 0.2 0.8 -0.6
v 0.2 0.9 0.4
v 0.2 0.9 0.2
v 0.2 0.9 0.1
v 0.2 0.9 -0.3
v 0.2 0.9 -0.4
v 0.2 0.9 -0.5
v 0.2 0.9 -0.6
v 0.3 0 0.2
v 0.3 0 0.1
v 0.3 0 -0.3
v 0.3 0 -0.4
v 0.3 0.1 0.2
v 0.3 0.1 0.1
v 0.3 0.1 -0.3
v 0.3 0.1 -0.4
v 0.3 0.3 0.4
v 0.3 0.3 0.2
v 0.3 0.3 0.1
v 0.3 0.3 -0.3
v 0.3 0.3 -0.4
v 0.3 0.3 -0.5
v 0.3 0.3 -0.6
v 0.3 0.4 0.4
v 0.3 0.4 0.2
v 0.3 0.4 0.1
v 0.3 0.4 -0.3
v 0.3 0.4 -0.4
v 0.3 0.4 -0.5
v 0.3 0.4 -0.6
v 0.3 0.7 0.4
v 0.3 0.7 0.2
v 0.3 0.7 0.1
v 0.3 0.7 -0.3
v 0.3 0.7 -0.4
v 0.3 0.7 -0.5
v 0.3 0.7 -0.6
v 0.3 0.8 0.4
v 0.3 0.8 0.2
v 0.3 0.8 0.1
v 0.3 0.8 -0.3
v 0.3 0.8 -0.4
v 0.3 0.8 -0.5
v 0.3 0.8 -0.6
v 0.4 0.4 0.4
v 0.4 0.4 0.2
v 0.4 0.4 0.1
v 0.4 0.4 -0.3
v 0.4 0.4 -0.4
v 0.4 0.4 -0.5
v 0.4 0.4 -0.6
v 0.4 0.7 0.4
v 0.4 0.7 0.2
v 0.4 0.7 0.1
v 0.4 0.7 -0.3
v 0.4 0.7 -0.4
v 0.4 0.7 -0.5
v 0.4 0.7 -0.6
v 0 0.4 0.6
v 0 0.6 0.6
v 0.1 0.4 0.6
v 0.1 0.6 0.6
v 0 0.6 0.5
v 0 0.7 0.5
v 0.1 0.6 0.5
v 0.1 0.7 0.5
v -0.3 0.4 0.4
v -0.3 0.7 0.4
v -0.2 0.3 0.4
v -0.2 0.4 0.4
v -0.2 0.7 0.4
v -0.2 0.8 0.4
v -0.1 0.2 0.4
v -0.1 0.3 0.4
v -0.1 0.4 0.4
v -0.1 0.7 0.4
v -0.1 0.8 0.4
v -0.1 0.9 0.4
v 0.2 0.2 0.4
v 0.2 0.3 0.4
v 0.2 0.4 0.4
v 0.2 0.7 0.4
v 0.2 0.8 0.4
v 0.2 0.9 0.4
v 0.3 0.3 0.4
v 0.3 0.4 0.4
v 0.3 0.7 0.4
v 0.3 0.8 0.4
v 0.4 0.4 0.4
v 0.4 0.7 0.4
v -0.2 0.4 0.3
v -0.2 0.7 0.3
v -0.1 0.3 0.3
v -0.1 0.4 0.3
v -0.1 0.7 0.3
v -0.1 0.8 0.3
v 0 0.5 0.3
v 0 0.6 0.3
v 0.1 0.5 0.3
v 0.1 0.6 0.3
v 0.2 0.3 0.3
v 0.2 0.4 0.3
v 0.2 0.7 0.3
v 0.2 0.8 0.3
v 0.3 0.4 0.3
v 0.3 0.7 0.3
v -0.2 0 0.2
v -0.2 0.1 0.2
v -0.1 0.1 0.2
v -0.1 0.2 0.2
v 0.2 0.1 0.2
v 0.2 0.2 0.2
v 0.3 0 0.2
v 0.3 0.1 0.2
v -0.2 0 -0.3
v -0.2 0.1 -0.3
v -0.1 0.1 -0.3
v -0.1 0.2 -0.3
v 0.2 0.1 -0.3
v 0.2 0.2 -0.3
v 0.3 0 -0.3
v 0.3 0.1 -0.3
v 0 0.4 0.5
v 0 0.5 0.5
v 0.1 0.4 0.5
v 0.1 0.5 0.5
v 0 0.6 0.4
v 0 0.7 0.4
v 0.1 0.6 0.4
v 0.1 0.7 0.4
v -0.2 0 0.1
v -0.2 0.1 0.1
v -0.1 0.1 0.1
v -0.1 0.2 0.1
v 0.2 0.1 0.1
v 0.2 0.2 0.1
v 0.3 0 0.1
v 0.3 0.1 0.1
v -0.2 0 -0.4
v -0.2 0.1 -0.4
v -0.1 0.1 -0.4
v -0.1 0.2 -0.4
v 0.2 0.1 -0.4
v 0.2 0.2 -0.4
v 0.3 0 -0.4
v 0.3 0.1 -0.4
v -0.3 0.4 -0.6
v -0.3 0.7 -0.6
v -0.2 0.3 -0.6
v -0.2 0.4 -0.6
v -0.2 0.7 -0.6
v -0.2 0.8 -0.6
v -0.1 0.2 -0.6
v -0.1 0.3 -0.6
v -0.1 0.8 -0.6
v -0.1 0.9 -0.6
v 0.2 0.2 -0.6
v 0.2 0.3 -0.6
v 0.2 0.8 -0.6
v 0.2 0.9 -0.6
v 0.3 0.3 -0.6
v 0.3 0.4 -0.6
v 0.3 0.7 -0.6
v 0.3 0.8 -0.6
v 0.4 0.4 -0.6
v 0.4 0.7 -0.6
v -0.2 0 0.2
v 0.3 0 0.2
v -0.2 0 0.1
v 0.3 0 0.1
v -0.2 0 -0.3
v 0.3 0 -0.3
v -0.2 0 -0.4
v 0.3 0 -0.4
v -0.1 0.2 0.4
v 0.2 0.2 0.4
v -0.1 0.2 0.2
v 0.2 0.2 0.2
v -0.1 0.2 0.1
v 0.2 0.2 0.1
v -0.1 0.2 -0.3
v 0.2 0.2 -0.3
v -0.1 0.2 -0.4
v 0.2 0.2 -0.4
v -0.1 0.2 -0.5
v 0.2 0.2 -0.5
v -0.1 0.2 -0.6
v 0.2 0.2 -0.6
v -0.2 0.3 0.4
v -0.1 0.3 0.4
v 0.2 0.3 0.4
v 0.3 0.3 0.4
v -0.2 0.3 0.2
v -0.1 0.3 0.2
v 0.2 0.3 0.2
v 0.3 0.3 0.2
v -0.2 0.3 0.1
v -0.1 0.3 0.1
v 0.2 0.3 0.1
v 0.3 0.3 0.1
v -0.2 0.3 -0.3
v -0.1 0.3 -0.3
v 0.2 0.3 -0.3
v 0.3 0.3 -0.3
v -0.2 0.3 -0.4
v -0.1 0.3 -0.4
v 0.2 0.3 -0.4
v 0.3 0.3 -0.4
v -0.2 0.3 -0.5
v -0.1 0.3 -0.5
v 0.2 0.3 -0.5
v 0.3 0.3 -0.5
v -0.2 0.3 -0.6
v -0.1 0.3 -0.6
v 0.2 0.3 -0.6
v 0.3 0.3 -0.6
v 0 0.4 0.6
v 0.1 0.4 0.6
v 0 0.4 0.5
v 0.1 0.4 0.5
v -0.3 0.4 0.4
v -0.2 0.4 0.4
v 0.3 0.4 0.4
v 0.4 0.4 0.4
v -0.3 0.4 0.2
v -0.2 0.4 0.2
v 0.3 0.4 0.2
v 0.4 0.4 0.2
v -0.3 0.4 0.1
v -0.2 0.4 0.1
v 0.3 0.4 0.1
v 0.4 0.4 0.1
v -0.3 0.4 -0.3
v -0.2 0.4 -0.3
v 0.3 0.4 -0.3
v 0.4 0.4 -0.3
v -0.3 0.4 -0.4
v -0.2 0.4 -0.4
v 0.3 0.4 -0.4
v 0.4 0.4 -0.4
v -0.3 0.4 -0.5
v -0.2 0.4 -0.5
v 0.3 0.4 -0.5
v 0.4 0.4 -0.5
v -0.3 0.4 -0.6
v -0.2 0.4 -0.6
v 0.3 0.4 -0.6
v 0.4 0.4 -0.6
v 0 0.5 0.5
v 0.1 0.5 0.5
v 0 0.5 0.3
v 0.1 0.5 0.3
v -0.2 0.7 0.4
v -0.1 0.7 0.4
v 0.2 0.7 0.4
v 0.3 0.7 0.4
v -0.2 0.7 0.3
v -0.1 0.7 0.3
v 0.2 0.7 0.3
v 0.3 0.7 0.3
v -0.1 0.8 0.4
v 0.2 0.8 0.4
v -0.1 0.8 0.3
v 0.2 0.8 0.3
v -0.2 0.1 0.2
v -0.1 0.1 0.2
v 0.2 0.1 0.2
v 0.3 0.1 0.2
v -0.2 0.1 0.1
v -0.1 0.1 0.1
v 0.2 0.1 0.1
v 0.3 0.1 0.1
v -0.2 0.1 -0.3
v -0.1 0.1 -0.3
v 0.2 0.1 -0.3
v 0.3 0.1 -0.3
v -0.2 0.1 -0.4
v -0.1 0.1 -0.4
v 0.2 0.1 -0.4
v 0.3 0.1 -0.4
v -0.1 0.3 0.4
v 0.2 0.3 0.4
v -0.1 0.3 0.3
v 0.2 0.3 0.3
v -0.2 0.4 0.4
v -0.1 0.4 0.4
v 0.2 0.4 0.4
v 0.3 0.4 0.4
v -0.2 0.4 0.3
v -0.1 0.4 0.3
v 0.2 0.4 0.3
v 0.3 0.4 0.3
v 0 0.6 0.6
v 0.1 0.6 0.6
v 0 0.6 0.5
v 0.1 0.6 0.5
v 0 0.6 0.4
v 0.1 0.6 0.4
v 0 0.6 0.3
v 0.1 0.6 0.3
v 0 0.7 0.5
v 0.1 0.7 0.5
v -0.3 0.7 0.4
v -0.2 0.7 0.4
v 0 0.7 0.4
v 0.1 0.7 0.4
v 0.3 0.7 0.4
v 0.4 0.7 0.4
v -0.3 0.7 0.2
v -0.2 0.7 0.2
v 0.3 0.7 0.2
v 0.4 0.7 0.2
v -0.3 0.7 0.1
v -0.2 0.7 0.1
v 0.3 0.7 0.1
v 0.4 0.7 0.1
v -0.3 0.7 -0.3
v -0.2 0.7 -0.3
v 0.3 0.7 -0.3
v 0.4 0.7 -0.3
v -0.3 0.7 -0.4
v -0.2 0.7 -0.4
v 0.3 0.7 -0.4
v 0.4 0.7 -0.4
v -0.3 0.7 -0.5
v -0.2 0.7 -0.5
v 0.3 0.7 -0.5
v 0.4 0.7 -0.5
v -0.3 0.7 -0.6
v -0.2 0.7 -0.6
v 0.3 0.7 -0.6
v 0.4 0.7 -0.6
v -0.2 0.8 0.4
v -0.1 0.8 0.4
v 0.2 0.8 0.4
v 0.3 0.8 0.4
v -0.2 0.8 0.2
v -0.1 0.8 0.2
v 0.2 0.8 0.2
v 0.3 0.8 0.2
v -0.2 0.8 0.1
v -0.1 0.8 0.1
v 0.2 0.8 0.1
v 0.3 0.8 0.1
v -0.2 0.8 -0.3
v -0.1 0.8 -0.3
v 0.2 0.8 -0.3
v 0.3 0.8 -0.3
v -0.2 0.8 -0.4
v -0.1 0.8 -0.4
v 0.2 0.8 -0.4
v 0.3 0.8 -0.4
v -0.2 0.8 -0.5
v -0.1 0.8 -0.5
v 0.2 0.8 -0.5
v 0.3 0.8 -0.5
v -0.2 0.8 -0.6
v -0.1 0.8 -0.6
v 0.2 0.8 -0.6
v 0.3 0.8 -0.6
v -0.1 0.9 0.4
v 0.2 0.9 0.4
v -0.1 0.9 0.2
v 0.2 0.9 0.2
v -0.1 0.9 0.1
v 0.2 0.9 0.1
v -0.1 0.9 -0.3
v 0.2 0.9 -0.3
v -0.1 0.9 -0.4
v 0.2 0.9 -0.4
v -0.1 0.9 -0.5
v 0.2 0.9 -0.5
v -0.1 0.9 -0.6
v 0.2 0.9 -0.6

# faces
f 8/1/1 2/1/1 1/1/1
f 9/2/1 3/2/1 2/2/1
f 9/1/1 2/1/1 8/1/1
f 10/1/1 4/1/1 3/1/1
f 10/2/1 3/2/1 9/2/1
f 11/2/1 5/2/1 4/2/1
f 11/1/1 4/1/1 10/1/1
f 12/1/1 6/1/1 5/1/1
f 12/2/1 5/2/1 11/2/1
f 13/2/1 7/2/1 6/2/1
f 13/1/1 6/1/1 12/1/1
f 14/2/1 7/2/1 13/2/1
f 19/1/1 16/1/1 15/1/1
f 20/1/1 16/1/1 19/1/1
f 21/1/1 18/1/1 17/1/1
f 22/1/1 18/1/1 21/1/1
f 30/1/1 24/1/1 23/1/1
f 31/2/1 25/2/1 24/2/1
f 31/1/1 24/1/1 30/1/1
f 32/1/1 26/1/1 25/1/1
f 32/2/1 25/2/1 31/2/1
f 33/2/1 27/2/1 26/2/1
f 33/1/1 26/1/1 32/1/1
f 34/1/1 28/1/1 27/1/1
f 34/2/1 27/2/1 33/2/1
f 35/2/1 29/2/1 28/2/1
f 35/1/1 28/1/1 34/1/1
f 36/2/1 29/2/1 35/2/1
f 44/1/1 38/1/1 37/1/1
f 45/2/1 39/2/1 38/2/1
f 45/1/1 38/1/1 44/1/1
f 46/1/1 40/1/1 39/1/1
f 46/2/1 39/2/1 45/2/1
f 47/2/1 41/2/1 40/2/1
f 47/1/1 40/1/1 46/1/1
f 48/1/1 42/1/1 41/1/1
f 48/2/1 41/2/1 47/2/1
f 49/2/1 43/2/1 42/2/1
f 49/1/1 42/1/1 48/1/1
f 50/2/1 43/2/1 49/2/1
f 56/1/1 52/1/1 51/1/1
f 57/1/1 52/1/1 56/1/1
f 58/1/1 54/1/1 53/1/1
f 59/1/1 54/1/1 58/1/1
f 62/1/1 56/1/1 55/1/1
f 63/2/1 57/2/1 56/2/1
f 63/1/1 56/1/1 62/1/1
f 64/1/1 58/1/1 57/1/1
f 64/2/1 57/2/1 63/2/1
f 65/2/1 59/2/1 58/2/1
f 65/1/1 58/1/1 64/1/1
f 66/1/1 60/1/1 59/1/1
f 66/2/1 59/2/1 65/2/1
f 67/2/1 61/2/1 60/2/1
f 67/1/1 60/1/1 66/1/1
f 68/2/1 61/2/1 67/2/1
f 76/1/1 70/1/1 69/1/1
f 77/2/1 71/2/1 70/2/1
f 77/1/1 70/1/1 76/1/1
f 78/1/1 72/1/1 71/1/1
f 78/2/1 71/2/1 77/2/1
f 79/2/1 73/2/1 72/2/1
f 79/1/1 72/1/1 78/1/1
f 80/1/1 74/1/1 73/1/1
f 80/2/1 73/2/1 79/2/1
f 81/2/1 75/2/1 74/2/1
f 81/1/1 74/1/1 80/1/1
f 82/2/1 75/2/1 81/2/1
f 85/2/1 84/2/1 83/2/1
f 87/2/1 85/2/1 83/2/1
f 87/2/1 86/2/1 85/2/1
f 88/2/1 86/2/1 87/2/1
f 89/2/1 86/2/1 88/2/1
f 90/2/1 86/2/1 89/2/1
f 91/2/1 89/2/1 88/2/1
f 92/2/1 89/2/1 91/2/1
f 95/1/1 94/1/1 93/1/1
f 96/1/1 94/1/1 95/1/1
f 99/1/1 98/1/1 97/1/1
f 100/1/1 98/1/1 99/1/1
f 103/1/1 102/1/1 101/1/1
f 104/1/1 102/1/1 103/1/1
f 105/1/2 106/1/2 107/1/2
f 107/1/2 106/1/2 108/1/2
f 109/1/2 110/1/2 111/1/2
f 111/1/2 110/1/2 112/1/2
f 113/1/2 114/1/2 115/1/2
f 115/1/2 114/1/2 116/1/2
f 117/2/2 118/2/2 119/2/2
f 117/2/2 119/2/2 121/2/2
f 119/2/2 120/2/2 121/2/2
f 121/2/2 120/2/2 122/2/2
f 122/2/2 120/2/2 123/2/2
f 123/2/2 120/2/2 124/2/2
f 122/2/2 123/2/2 125/2/2
f 125/2/2 123/2/2 126/2/2
f 127/1/2 128/1/2 132/1/2
f 132/1/2 128/1/2 133/1/2
f 129/1/2 130/1/2 134/1/2
f 134/1/2 130/1/2 135/1/2
f 131/1/2 132/1/2 138/1/2
f 132/2/2 133/2/2 139/2/2
f 138/1/2 132/1/2 139/1/2
f 133/1/2 134/1/2 140/1/2
f 139/2/2 133/2/2 140/2/2
f 134/2/2 135/2/2 141/2/2
f 140/1/2 134/1/2 141/1/2
f 135/1/2 136/1/2 142/1/2
f 141/2/2 135/2/2 142/2/2
f 136/2/2 137/2/2 143/2/2
f 142/1/2 136/1/2 143/1/2
f 143/2/2 137/2/2 144/2/2
f 145/1/2 146/1/2 152/1/2
f 146/2/2 147/2/2 153/2/2
f 152/1/2 146/1/2 153/1/2
f 147/1/2 148/1/2 154/1/2
f 153/2/2 147/2/2 154/2/2
f 148/2/2 149/2/2 155/2/2
f 154/1/2 148/1/2 155/1/2
f 149/1/2 150/1/2 156/1/2
f 155/2/2 149/2/2 156/2/2
f 150/2/2 151/2/2 157/2/2
f 156/1/2 150/1/2 157/1/2
f 157/2/2 151/2/2 158/2/2
f 159/1/2 160/1/2 163/1/2
f 163/1/2 160/1/2 164/1/2
f 161/1/2 162/1/2 165/1/2
f 165/1/2 162/1/2 166/1/2
f 167/1/2 168/1/2 174/1/2
f 168/2/2 169/2/2 175/2/2
f 174/1/2 168/1/2 175/1/2
f 169/1/2 170/1/2 176/1/2
f 175/2/2 169/2/2 176/2/2
f 170/2/2 171/2/2 177/2/2
f 176/1/2 170/1/2 177/1/2
f 171/1/2 172/1/2 178/1/2
f 177/2/2 171/2/2 178/2/2
f 172/2/2 173/2/2 179/2/2
f 178/1/2 172/1/2 179/1/2
f 179/2/2 173/2/2 180/2/2
f 181/1/2 182/1/2 188/1/2
f 182/2/2 183/2/2 189/2/2
f 188/1/2 182/1/2 189/1/2
f 183/1/2 184/1/2 190/1/2
f 189/2/2 183/2/2 190/2/2
f 184/2/2 185/2/2 191/2/2
f 190/1/2 184/1/2 191/1/2
f 185/1/2 186/1/2 192/1/2
f 191/2/2 185/2/2 192/2/2
f 186/2/2 187/2/2 193/2/2
f 192/1/2 186/1/2 193/1/2
f 193/2/2 187/2/2 194/2/2
f 195/1/2 196/1/2 202/1/2
f 196/2/2 197/2/2 203/2/2
f 202/1/2 196/1/2 203/1/2
f 197/1/2 198/1/2 204/1/2
f 203/2/2 197/2/2 204/2/2
f 198/2/2 199/2/2 205/2/2
f 204/1/2 198/1/2 205/1/2
f 199/1/2 200/1/2 206/1/2
f 205/2/2 199/2/2 206/2/2
f 200/2/2 201/2/2 207/2/2
f 206/1/2 200/1/2 207/1/2
f 207/2/2 201/2/2 208/2/2
f 211/2/3 210/2/3 209/2/3
f 212/2/3 210/2/3 211/2/3
f 215/2/3 214/2/3 213/2/3
f 216/2/3 214/2/3 215/2/3
f 220/1/3 218/1/3 217/1/3
f 221/1/3 218/1/3 220/1/3
f 224/1/3 220/1/3 219/1/3
f 225/1/3 220/1/3 224/1/3
f 226/1/3 222/1/3 221/1/3
f 227/1/3 222/1/3 226/1/3
f 229/1/3 224/1/3 223/1/3
f 230/1/3 224/1/3 229/1/3
f 233/1/3 228/1/3 227/1/3
f 234/1/3 228/1/3 233/1/3
f 235/1/3 231/1/3 230/1/3
f 236/1/3 231/1/3 235/1/3
f 237/1/3 233/1/3 232/1/3
f 238/1/3 233/1/3 237/1/3
f 239/1/3 237/1/3 236/1/3
f 240/1/3 237/1/3 239/1/3
f 244/1/3 242/1/3 241/1/3
f 245/1/3 242/1/3 244/1/3
f 247/1/3 244/1/3 243/1/3
f 247/1/3 246/1/3 245/1/3
f 247/1/3 245/1/3 244/1/3
f 248/1/3 246/1/3 247/1/3
f 249/1/3 247/1/3 243/1/3
f 250/1/3 246/1/3 248/1/3
f 251/1/3 249/1/3 243/1/3
f 251/1/3 250/1/3 249/1/3
f 252/1/3 250/1/3 251/1/3
f 253/1/3 246/1/3 250/1/3
f 253/1/3 250/1/3 252/1/3
f 254/1/3 246/1/3 253/1/3
f 255/1/3 253/1/3 252/1/3
f 256/1/3 253/1/3 255/1/3
f 259/1/3 258/1/3 257/1/3
f 261/1/3 259/1/3 257/1/3
f 261/1/3 260/1/3 259/1/3
f 262/1/3 260/1/3 261/1/3
f 263/1/3 261/1/3 257/1/3
f 264/1/3 261/1/3 263/1/3
f 267/1/3 266/1/3 265/1/3
f 269/1/3 267/1/3 265/1/3
f 269/1/3 268/1/3 267/1/3
f 270/1/3 268/1/3 269/1/3
f 271/1/3 269/1/3 265/1/3
f 272/1/3 269/1/3 271/1/3
f 273/2/4 274/2/4 275/2/4
f 275/2/4 274/2/4 276/2/4
f 277/2/4 278/2/4 279/2/4
f 279/2/4 278/2/4 280/2/4
f 281/1/4 282/1/4 283/1/4
f 281/1/4 283/1/4 285/1/4
f 283/1/4 284/1/4 285/1/4
f 285/1/4 284/1/4 286/1/4
f 281/1/4 285/1/4 287/1/4
f 287/1/4 285/1/4 288/1/4
f 289/1/4 290/1/4 291/1/4
f 289/1/4 291/1/4 293/1/4
f 291/1/4 292/1/4 293/1/4
f 293/1/4 292/1/4 294/1/4
f 289/1/4 293/1/4 295/1/4
f 295/1/4 293/1/4 296/1/4
f 297/2/4 298/2/4 300/2/4
f 300/2/4 298/2/4 301/2/4
f 299/2/4 300/2/4 304/2/4
f 301/2/4 302/2/4 304/2/4
f 300/2/4 301/2/4 304/2/4
f 304/2/4 302/2/4 305/2/4
f 303/2/4 304/2/4 307/2/4
f 305/2/4 306/2/4 307/2/4
f 304/2/4 305/2/4 307/2/4
f 307/2/4 306/2/4 308/2/4
f 308/2/4 306/2/4 309/2/4
f 309/2/4 306/2/4 310/2/4
f 308/2/4 309/2/4 311/2/4
f 311/2/4 309/2/4 312/2/4
f 312/2/4 309/2/4 313/2/4
f 313/2/4 309/2/4 314/2/4
f 312/2/4 313/2/4 315/2/4
f 315/2/4 313/2/4 316/2/4
f 319/1/5 318/1/5 317/1/5
f 320/1/5 318/1/5 319/1/5
f 323/1/5 322/1/5 321/1/5
f 324/1/5 322/1/5 323/1/5
f 327/1/5 326/1/5 325/1/5
f 328/1/5 326/1/5 327/1/5
f 331/1/5 330/1/5 329/1/5
f 332/1/5 330/1/5 331/1/5
f 335/1/5 334/1/5 333/1/5
f 336/1/5 334/1/5 335/1/5
f 337/2/5 336/2/5 335/2/5
f 338/2/5 336/2/5 337/2/5
f 343/1/5 340/1/5 339/1/5
f 344/1/5 340/1/5 343/1/5
f 345/1/5 342/1/5 341/1/5
f 346/1/5 342/1/5 345/1/5
f 347/2/5 344/2/5 343/2/5
f 348/2/5 344/2/5 347/2/5
f 349/2/5 346/2/5 345/2/5
f 350/2/5 346/2/5 349/2/5
f 351/1/5 348/1/5 347/1/5
f 352/1/5 348/1/5 351/1/5
f 353/1/5 350/1/5 349/1/5
f 354/1/5 350/1/5 353/1/5
f 355/2/5 352/2/5 351/2/5
f 356/2/5 352/2/5 355/2/5
f 357/2/5 354/2/5 353/2/5
f 358/2/5 354/2/5 357/2/5
f 359/1/5 356/1/5 355/1/5
f 360/1/5 356/1/5 359/1/5
f 361/1/5 358/1/5 357/1/5
f 362/1/5 358/1/5 361/1/5
f 363/2/5 360/2/5 359/2/5
f 364/2/5 360/2/5 363/2/5
f 365/2/5 362/2/5 361/2/5
f 366/2/5 362/2/5 365/2/5
f 369/2/5 368/2/5 367/2/5
f 370/2/5 368/2/5 369/2/5
f 375/1/5 372/1/5 371/1/5
f 376/1/5 372/1/5 375/1/5
f 377/1/5 374/1/5 373/1/5
f 378/1/5 374/1/5 377/1/5
f 379/2/5 376/2/5 375/2/5
f 380/2/5 376/2/5 379/2/5
f 381/2/5 378/2/5 377/2/5
f 382/2/5 378/2/5 381/2/5
f 383/1/5 380/1/5 379/1/5
f 384/1/5 380/1/5 383/1/5
f 385/1/5 382/1/5 381/1/5
f 386/1/5 382/1/5 385/1/5
f 387/2/5 384/2/5 383/2/5
f 388/2/5 384/2/5 387/2/5
f 389/2/5 386/2/5 385/2/5
f 390/2/5 386/2/5 389/2/5
f 391/1/5 388/1/5 387/1/5
f 392/1/5 388/1/5 391/1/5
f 393/1/5 390/1/5 389/1/5
f 394/1/5 390/1/5 393/1/5
f 395/2/5 392/2/5 391/2/5
f 396/2/5 392/2/5 395/2/5
f 397/2/5 394/2/5 393/2/5
f 398/2/5 394/2/5 397/2/5
f 401/2/5 400/2/5 399/2/5
f 402/2/5 400/2/5 401/2/5
f 407/1/5 404/1/5 403/1/5
f 408/1/5 404/1/5 407/1/5
f 409/1/5 406/1/5 405/1/5
f 410/1/5 406/1/5 409/1/5
f 413/1/5 412/1/5 411/1/5
f 414/1/5 412/1/5 413/1/5
f 415/1/6 416/1/6 419/1/6
f 419/1/6 416/1/6 420/1/6
f 417/1/6 418/1/6 421/1/6
f 421/1/6 418/1/6 422/1/6
f 423/1/6 424/1/6 427/1/6
f 427/1/6 424/1/6 428/1/6
f 425/1/6 426/1/6 429/1/6
f 429/1/6 426/1/6 430/1/6
f 431/1/6 432/1/6 433/1/6
f 433/1/6 432/1/6 434/1/6
f 435/1/6 436/1/6 439/1/6
f 439/1/6 436/1/6 440/1/6
f 437/1/6 438/1/6 441/1/6
f 441/1/6 438/1/6 442/1/6
f 443/2/6 444/2/6 445/2/6
f 445/2/6 444/2/6 446/2/6
f 447/2/6 448/2/6 449/2/6
f 449/2/6 448/2/6 450/2/6
f 451/2/6 452/2/6 455/2/6
f 455/2/6 452/2/6 456/2/6
f 453/1/6 454/1/6 459/1/6
f 459/1/6 454/1/6 460/1/6
f 457/1/6 458/1/6 461/1/6
f 461/1/6 458/1/6 462/1/6
f 459/2/6 460/2/6 463/2/6
f 463/2/6 460/2/6 464/2/6
f 461/2/6 462/2/6 465/2/6
f 465/2/6 462/2/6 466/2/6
f 463/1/6 464/1/6 467/1/6
f 467/1/6 464/1/6 468/1/6
f 465/1/6 466/1/6 469/1/6
f 469/1/6 466/1/6 470/1/6
f 467/2/6 468/2/6 471/2/6
f 471/2/6 468/2/6 472/2/6
f 469/2/6 470/2/6 473/2/6
f 473/2/6 470/2/6 474/2/6
f 471/1/6 472/1/6 475/1/6
f 475/1/6 472/1/6 476/1/6
f 473/1/6 474/1/6 477/1/6
f 477/1/6 474/1/6 478/1/6
f 475/2/6 476/2/6 479/2/6
f 479/2/6 476/2/6 480/2/6
f 477/2/6 478/2/6 481/2/6
f 481/2/6 478/2/6 482/2/6
f 483/1/6 484/1/6 487/1/6
f 487/1/6 484/1/6 488/1/6
f 485/1/6 486/1/6 489/1/6
f 489/1/6 486/1/6 490/1/6
f 487/2/6 488/2/6 491/2/6
f 491/2/6 488/2/6 492/2/6
f 489/2/6 490/2/6 493/2/6
f 493/2/6 490/2/6 494/2/6
f 491/1/6 492/1/6 495/1/6
f 495/1/6 492/1/6 496/1/6
f 493/1/6 494/1/6 497/1/6
f 497/1/6 494/1/6 498/1/6
f 495/2/6 496/2/6 499/2/6
f 499/2/6 496/2/6 500/2/6
f 497/2/6 498/2/6 501/2/6
f 501/2/6 498/2/6 502/2/6
f 499/1/6 500/1/6 503/1/6
f 503/1/6 500/1/6 504/1/6
f 501/1/6 502/1/6 505/1/6
f 505/1/6 502/1/6 506/1/6
f 503/2/6 504/2/6 507/2/6
f 507/2/6 504/2/6 508/2/6
f 505/2/6 506/2/6 509/2/6
f 509/2/6 506/2/6 510/2/6
f 511/1/6 512/1/6 513/1/6
f 513/1/6 512/1/6 514/1/6
f 513/2/6 514/2/6 515/2/6
f 515/2/6 514/2/6 516/2/6
f 515/1/6 516/1/6 517/1/6
f 517/1/6 516/1/6 518/1/6
f 517/2/6 518/2/6 519/2/6
f 519/2/6 518/2/6 520/2/6
f 519/1/6 520/1/6 521/1/6
f 521/1/6 520/1/6 522/1/6
f 521/2/6 522/2/6 523/2/6
f 523/2/6 522/2/6 524/2/6
