# MagicaVoxel @ Ephtracy

# group
o 

# material
mtllib mimic_e_idle_0.mtl
usemtl palette

# normals
vn -1 0 0
vn 1 0 0
vn 0 0 1
vn 0 0 -1
vn 0 -1 0
vn 0 1 0

# texcoords
vt 0.724609 0.5
vt 0.822266 0.5
vt 0.880859 0.5
vt 0.947266 0.5
vt 0.970703 0.5

# verts
v -0.4 0 0.3
v -0.4 0 -0.4
v -0.4 0.1 0.2
v -0.4 0.1 -0.3
v -0.4 0.4 0.2
v -0.4 0.4 -0.3
v -0.4 0.5 0.3
v -0.4 0.5 0.2
v -0.4 0.5 0.1
v -0.4 0.5 0
v -0.4 0.5 -0.1
v -0.4 0.5 -0.2
v -0.4 0.5 -0.3
v -0.4 0.6 0.2
v -0.4 0.6 0.1
v -0.4 0.6 0
v -0.4 0.6 -0.1
v -0.4 0.6 -0.2
v -0.4 0.6 -0.3
v -0.4 0.7 0.3
v -0.4 0.7 0.2
v -0.4 0.7 0.1
v -0.4 0.7 0
v -0.4 0.7 -0.1
v -0.4 0.7 -0.2
v -0.4 0.7 -0.3
v -0.4 0.8 0.3
v -0.4 0.8 0.2
v -0.4 0.8 0.1
v -0.4 0.8 0
v -0.4 0.8 -0.2
v -0.4 0.8 -0.3
v -0.4 0.8 -0.4
v -0.4 0.9 0.3
v -0.4 0.9 0.2
v -0.4 0.9 0
v -0.4 0.9 -0.2
v -0.4 0.9 -0.3
v -0.4 1 0.2
v -0.4 1 -0.2
v -0.3 0.5 0.3
v -0.3 0.5 0.2
v -0.3 0.5 0.1
v -0.3 0.5 0
v -0.3 0.5 -0.1
v -0.3 0.5 -0.2
v -0.3 0.6 0.3
v -0.3 0.6 0.2
v -0.3 0.6 0.1
v -0.3 0.6 0
v -0.3 0.6 -0.1
v -0.3 0.6 -0.2
v -0.2 0.7 0.3
v -0.2 0.7 0.2
v -0.2 0.8 0.3
v -0.2 0.8 0.2
v -0.1 0.2 0.4
v -0.1 0.2 0.3
v -0.1 0.4 0.3
v -0.1 0.5 0.3
v -0.1 0.5 0.2
v -0.1 0.6 0.4
v -0.1 0.6 0.2
v 0 0.7 0.3
v 0 0.7 0.2
v 0 0.8 0.3
v 0 0.8 0.2
v 0.2 0.7 0.3
v 0.2 0.7 0.2
v 0.2 0.8 0.3
v 0.2 0.8 0.2
v 0.3 0.5 0.3
v 0.3 0.5 0.2
v 0.3 0.6 0.3
v 0.3 0.6 0.2
v 0.4 0.6 -0.1
v 0.4 0.6 -0.2
v 0.4 0.7 0.3
v 0.4 0.7 0.2
v 0.4 0.7 0.1
v 0.4 0.7 0
v 0.4 0.7 -0.1
v 0.4 0.7 -0.2
v 0.4 0.8 0.3
v 0.4 0.8 0.2
v 0.4 0.8 0.1
v 0.4 0.8 0
v -0.3 0.6 -0.1
v -0.3 0.6 -0.2
v -0.3 0.7 0.3
v -0.3 0.7 0.2
v -0.3 0.7 0.1
v -0.3 0.7 0
v -0.3 0.7 -0.1
v -0.3 0.7 -0.2
v -0.3 0.8 0.3
v -0.3 0.8 0.2
v -0.3 0.8 0.1
v -0.3 0.8 0
v -0.2 0.5 0.3
v -0.2 0.5 0.2
v -0.2 0.6 0.3
v -0.2 0.6 0.2
v -0.1 0.7 0.3
v -0.1 0.7 0.2
v -0.1 0.8 0.3
v -0.1 0.8 0.2
v 0.1 0.7 0.3
v 0.1 0.7 0.2
v 0.1 0.8 0.3
v 0.1 0.8 0.2
v 0.2 0.2 0.4
v 0.2 0.2 0.3
v 0.2 0.4 0.3
v 0.2 0.5 0.3
v 0.2 0.5 0.2
v 0.2 0.6 0.4
v 0.2 0.6 0.2
v 0.3 0.7 0.3
v 0.3 0.7 0.2
v 0.3 0.8 0.3
v 0.3 0.8 0.2
v 0.4 0.5 0.3
v 0.4 0.5 0.2
v 0.4 0.5 0.1
v 0.4 0.5 0
v 0.4 0.5 -0.1
v 0.4 0.5 -0.2
v 0.4 0.6 0.3
v 0.4 0.6 0.2
v 0.4 0.6 0.1
v 0.4 0.6 0
v 0.4 0.6 -0.1
v 0.4 0.6 -0.2
v 0.5 0 0.3
v 0.5 0 -0.4
v 0.5 0.1 0.2
v 0.5 0.1 -0.3
v 0.5 0.4 0.2
v 0.5 0.4 -0.3
v 0.5 0.5 0.3
v 0.5 0.5 0.2
v 0.5 0.5 0.1
v 0.5 0.5 0
v 0.5 0.5 -0.1
v 0.5 0.5 -0.2
v 0.5 0.5 -0.3
v 0.5 0.6 0.2
v 0.5 0.6 0.1
v 0.5 0.6 0
v 0.5 0.6 -0.1
v 0.5 0.6 -0.2
v 0.5 0.6 -0.3
v 0.5 0.7 0.3
v 0.5 0.7 0.2
v 0.5 0.7 0.1
v 0.5 0.7 0
v 0.5 0.7 -0.1
v 0.5 0.7 -0.2
v 0.5 0.7 -0.3
v 0.5 0.8 0.3
v 0.5 0.8 0.2
v 0.5 0.8 0.1
v 0.5 0.8 0
v 0.5 0.8 -0.2
v 0.5 0.8 -0.3
v 0.5 0.8 -0.4
v 0.5 0.9 0.3
v 0.5 0.9 0.2
v 0.5 0.9 0
v 0.5 0.9 -0.2
v 0.5 0.9 -0.3
v 0.5 1 0.2
v 0.5 1 -0.2
v -0.1 0.2 0.4
v -0.1 0.6 0.4
v 0.2 0.2 0.4
v 0.2 0.6 0.4
v -0.4 0 0.3
v -0.4 0.5 0.3
v -0.4 0.7 0.3
v -0.4 0.8 0.3
v -0.4 0.9 0.3
v -0.3 0.1 0.3
v -0.3 0.4 0.3
v -0.3 0.5 0.3
v -0.3 0.6 0.3
v -0.3 0.7 0.3
v -0.3 0.8 0.3
v -0.3 0.9 0.3
v -0.2 0.5 0.3
v -0.2 0.6 0.3
v -0.2 0.7 0.3
v -0.2 0.8 0.3
v -0.2 0.9 0.3
v -0.1 0.2 0.3
v -0.1 0.4 0.3
v -0.1 0.5 0.3
v -0.1 0.7 0.3
v -0.1 0.8 0.3
v -0.1 0.9 0.3
v 0 0.7 0.3
v 0 0.8 0.3
v 0.1 0.7 0.3
v 0.1 0.8 0.3
v 0.2 0.2 0.3
v 0.2 0.4 0.3
v 0.2 0.5 0.3
v 0.2 0.7 0.3
v 0.2 0.8 0.3
v 0.2 0.9 0.3
v 0.3 0.5 0.3
v 0.3 0.6 0.3
v 0.3 0.7 0.3
v 0.3 0.8 0.3
v 0.3 0.9 0.3
v 0.4 0.1 0.3
v 0.4 0.4 0.3
v 0.4 0.5 0.3
v 0.4 0.6 0.3
v 0.4 0.7 0.3
v 0.4 0.8 0.3
v 0.4 0.9 0.3
v 0.5 0 0.3
v 0.5 0.5 0.3
v 0.5 0.7 0.3
v 0.5 0.8 0.3
v 0.5 0.9 0.3
v -0.4 0.5 0.2
v -0.4 0.6 0.2
v -0.4 0.9 0.2
v -0.4 1 0.2
v -0.3 0.5 0.2
v -0.3 0.6 0.2
v -0.3 0.9 0.2
v -0.3 1 0.2
v -0.2 0.5 0.2
v -0.2 0.6 0.2
v -0.2 0.9 0.2
v -0.2 1 0.2
v -0.1 0.5 0.2
v -0.1 0.6 0.2
v -0.1 0.9 0.2
v -0.1 1 0.2
v 0.2 0.5 0.2
v 0.2 0.6 0.2
v 0.2 0.9 0.2
v 0.2 1 0.2
v 0.3 0.5 0.2
v 0.3 0.6 0.2
v 0.3 0.9 0.2
v 0.3 1 0.2
v 0.4 0.5 0.2
v 0.4 0.6 0.2
v 0.4 0.9 0.2
v 0.4 1 0.2
v 0.5 0.5 0.2
v 0.5 0.6 0.2
v 0.5 0.9 0.2
v 0.5 1 0.2
v -0.4 0.7 0.1
v -0.4 0.8 0.1
v -0.3 0.7 0.1
v -0.3 0.8 0.1
v 0.4 0.7 0.1
v 0.4 0.8 0.1
v 0.5 0.7 0.1
v 0.5 0.8 0.1
v -0.4 0.5 0
v -0.4 0.6 0
v -0.3 0.5 0
v -0.3 0.6 0
v -0.3 0.7 0
v -0.3 0.8 0
v 0.4 0.5 0
v 0.4 0.6 0
v 0.4 0.7 0
v 0.4 0.8 0
v 0.5 0.5 0
v 0.5 0.6 0
v -0.4 0.6 -0.1
v -0.4 0.7 -0.1
v -0.3 0.6 -0.1
v -0.3 0.7 -0.1
v 0.4 0.6 -0.1
v 0.4 0.7 -0.1
v 0.5 0.6 -0.1
v 0.5 0.7 -0.1
v -0.4 0.5 -0.2
v -0.4 0.6 -0.2
v -0.3 0.5 -0.2
v -0.3 0.6 -0.2
v -0.3 0.7 -0.2
v 0.4 0.5 -0.2
v 0.4 0.6 -0.2
v 0.4 0.7 -0.2
v 0.5 0.5 -0.2
v 0.5 0.6 -0.2
v -0.4 0.7 0.2
v -0.4 0.8 0.2
v -0.3 0.7 0.2
v -0.3 0.8 0.2
v -0.2 0.7 0.2
v -0.2 0.8 0.2
v -0.1 0.7 0.2
v -0.1 0.8 0.2
v 0 0.7 0.2
v 0 0.8 0.2
v 0.1 0.7 0.2
v 0.1 0.8 0.2
v 0.2 0.7 0.2
v 0.2 0.8 0.2
v 0.3 0.7 0.2
v 0.3 0.8 0.2
v 0.4 0.7 0.2
v 0.4 0.8 0.2
v 0.5 0.7 0.2
v 0.5 0.8 0.2
v -0.4 0.5 0.1
v -0.4 0.6 0.1
v -0.3 0.5 0.1
v -0.3 0.6 0.1
v 0.4 0.5 0.1
v 0.4 0.6 0.1
v 0.5 0.5 0.1
v 0.5 0.6 0.1
v -0.4 0.5 -0.1
v -0.4 0.6 -0.1
v -0.3 0.5 -0.1
v -0.3 0.6 -0.1
v 0.4 0.5 -0.1
v 0.4 0.6 -0.1
v 0.5 0.5 -0.1
v 0.5 0.6 -0.1
v -0.4 0.9 -0.2
v -0.4 1 -0.2
v -0.3 0.9 -0.2
v -0.3 1 -0.2
v -0.2 0.9 -0.2
v -0.2 1 -0.2
v -0.1 0.9 -0.2
v -0.1 1 -0.2
v 0.2 0.9 -0.2
v 0.2 1 -0.2
v 0.3 0.9 -0.2
v 0.3 1 -0.2
v 0.4 0.9 -0.2
v 0.4 1 -0.2
v 0.5 0.9 -0.2
v 0.5 1 -0.2
v -0.4 0.8 -0.3
v -0.4 0.9 -0.3
v -0.3 0.8 -0.3
v -0.3 0.9 -0.3
v -0.2 0.8 -0.3
v -0.2 0.9 -0.3
v -0.1 0.8 -0.3
v -0.1 0.9 -0.3
v 0.2 0.8 -0.3
v 0.2 0.9 -0.3
v 0.3 0.8 -0.3
v 0.3 0.9 -0.3
v 0.4 0.8 -0.3
v 0.4 0.9 -0.3
v 0.5 0.8 -0.3
v 0.5 0.9 -0.3
v -0.4 0 -0.4
v -0.4 0.8 -0.4
v -0.3 0.1 -0.4
v -0.3 0.4 -0.4
v -0.3 0.6 -0.4
v -0.3 0.8 -0.4
v -0.2 0.6 -0.4
v -0.2 0.8 -0.4
v -0.1 0.6 -0.4
v -0.1 0.8 -0.4
v 0.2 0.6 -0.4
v 0.2 0.8 -0.4
v 0.3 0.6 -0.4
v 0.3 0.8 -0.4
v 0.4 0.1 -0.4
v 0.4 0.4 -0.4
v 0.4 0.6 -0.4
v 0.4 0.8 -0.4
v 0.5 0 -0.4
v 0.5 0.8 -0.4
v -0.4 0 0.3
v 0.5 0 0.3
v -0.4 0 -0.4
v 0.5 0 -0.4
v -0.1 0.2 0.4
v 0.2 0.2 0.4
v -0.1 0.2 0.3
v 0.2 0.2 0.3
v -0.4 0.6 -0.1
v -0.3 0.6 -0.1
v 0.4 0.6 -0.1
v 0.5 0.6 -0.1
v -0.4 0.6 -0.2
v -0.3 0.6 -0.2
v 0.4 0.6 -0.2
v 0.5 0.6 -0.2
v -0.4 0.7 0.3
v -0.3 0.7 0.3
v -0.2 0.7 0.3
v -0.1 0.7 0.3
v 0 0.7 0.3
v 0.1 0.7 0.3
v 0.2 0.7 0.3
v 0.3 0.7 0.3
v 0.4 0.7 0.3
v 0.5 0.7 0.3
v -0.4 0.7 0.2
v -0.3 0.7 0.2
v -0.2 0.7 0.2
v -0.1 0.7 0.2
v 0 0.7 0.2
v 0.1 0.7 0.2
v 0.2 0.7 0.2
v 0.3 0.7 0.2
v 0.4 0.7 0.2
v 0.5 0.7 0.2
v -0.4 0.7 0.1
v -0.3 0.7 0.1
v 0.4 0.7 0.1
v 0.5 0.7 0.1
v -0.4 0.7 0
v -0.3 0.7 0
v 0.4 0.7 0
v 0.5 0.7 0
v -0.4 0.7 -0.1
v -0.3 0.7 -0.1
v 0.4 0.7 -0.1
v 0.5 0.7 -0.1
v -0.3 0.7 -0.2
v 0.4 0.7 -0.2
v -0.3 0.8 0.3
v -0.2 0.8 0.3
v -0.1 0.8 0.3
v 0 0.8 0.3
v 0.1 0.8 0.3
v 0.2 0.8 0.3
v 0.3 0.8 0.3
v 0.4 0.8 0.3
v -0.4 0.8 0.2
v -0.3 0.8 0.2
v -0.2 0.8 0.2
v -0.1 0.8 0.2
v 0 0.8 0.2
v 0.1 0.8 0.2
v 0.2 0.8 0.2
v 0.3 0.8 0.2
v 0.4 0.8 0.2
v 0.5 0.8 0.2
v -0.4 0.8 0.1
v -0.3 0.8 0.1
v 0.4 0.8 0.1
v 0.5 0.8 0.1
v -0.3 0.8 0
v 0.4 0.8 0
v -0.4 0.5 0.3
v -0.3 0.5 0.3
v -0.2 0.5 0.3
v -0.1 0.5 0.3
v 0.2 0.5 0.3
v 0.3 0.5 0.3
v 0.4 0.5 0.3
v 0.5 0.5 0.3
v -0.4 0.5 0.2
v -0.3 0.5 0.2
v -0.2 0.5 0.2
v -0.1 0.5 0.2
v 0.2 0.5 0.2
v 0.3 0.5 0.2
v 0.4 0.5 0.2
v 0.5 0.5 0.2
v -0.4 0.5 0.1
v -0.3 0.5 0.1
v 0.4 0.5 0.1
v 0.5 0.5 0.1
v -0.4 0.5 0
v -0.3 0.5 0
v 0.4 0.5 0
v 0.5 0.5 0
v -0.4 0.5 -0.1
v -0.3 0.5 -0.1
v 0.4 0.5 -0.1
v 0.5 0.5 -0.1
v -0.4 0.5 -0.2
v -0.3 0.5 -0.2
v 0.4 0.5 -0.2
v 0.5 0.5 -0.2
v -0.1 0.6 0.4
v 0.2 0.6 0.4
v -0.3 0.6 0.3
v -0.2 0.6 0.3
v 0.3 0.6 0.3
v 0.4 0.6 0.3
v -0.4 0.6 0.2
v -0.3 0.6 0.2
v -0.2 0.6 0.2
v -0.1 0.6 0.2
v 0.2 0.6 0.2
v 0.3 0.6 0.2
v 0.4 0.6 0.2
v 0.5 0.6 0.2
v -0.4 0.6 0.1
v -0.3 0.6 0.1
v -0.1 0.6 0.1
v 0.2 0.6 0.1
v 0.4 0.6 0.1
v 0.5 0.6 0.1
v -0.4 0.6 0
v -0.3 0.6 0
v 0.4 0.6 0
v 0.5 0.6 0
v -0.4 0.6 -0.1
v -0.3 0.6 -0.1
v 0.4 0.6 -0.1
v 0.5 0.6 -0.1
v -0.3 0.6 -0.2
v 0.4 0.6 -0.2
v -0.4 0.8 -0.3
v -0.3 0.8 -0.3
v -0.2 0.8 -0.3
v -0.1 0.8 -0.3
v 0.2 0.8 -0.3
v 0.3 0.8 -0.3
v 0.4 0.8 -0.3
v 0.5 0.8 -0.3
v -0.4 0.8 -0.4
v -0.3 0.8 -0.4
v -0.2 0.8 -0.4
v -0.1 0.8 -0.4
v 0.2 0.8 -0.4
v 0.3 0.8 -0.4
v 0.4 0.8 -0.4
v 0.5 0.8 -0.4
v -0.4 0.9 0.3
v -0.3 0.9 0.3
v -0.2 0.9 0.3
v -0.1 0.9 0.3
v 0.2 0.9 0.3
v 0.3 0.9 0.3
v 0.4 0.9 0.3
v 0.5 0.9 0.3
v -0.4 0.9 0.2
v -0.3 0.9 0.2
v -0.2 0.9 0.2
v -0.1 0.9 0.2
v 0.2 0.9 0.2
v 0.3 0.9 0.2
v 0.4 0.9 0.2
v 0.5 0.9 0.2
v -0.4 0.9 -0.2
v -0.3 0.9 -0.2
v -0.2 0.9 -0.2
v -0.1 0.9 -0.2
v 0.2 0.9 -0.2
v 0.3 0.9 -0.2
v 0.4 0.9 -0.2
v 0.5 0.9 -0.2
v -0.4 0.9 -0.3
v -0.3 0.9 -0.3
v -0.2 0.9 -0.3
v -0.1 0.9 -0.3
v 0.2 0.9 -0.3
v 0.3 0.9 -0.3
v 0.4 0.9 -0.3
v 0.5 0.9 -0.3
v -0.4 1 0.2
v -0.3 1 0.2
v -0.2 1 0.2
v -0.1 1 0.2
v 0.2 1 0.2
v 0.3 1 0.2
v 0.4 1 0.2
v 0.5 1 0.2
v -0.4 1 -0.2
v -0.3 1 -0.2
v -0.2 1 -0.2
v -0.1 1 -0.2
v 0.2 1 -0.2
v 0.3 1 -0.2
v 0.4 1 -0.2
v 0.5 1 -0.2

# faces
f 3/2/1 2/2/1 1/2/1
f 4/2/1 2/2/1 3/2/1
f 5/2/1 3/2/1 1/2/1
f 5/1/1 4/1/1 3/1/1
f 6/2/1 2/2/1 4/2/1
f 6/1/1 4/1/1 5/1/1
f 7/2/1 5/2/1 1/2/1
f 7/2/1 6/2/1 5/2/1
f 8/2/1 6/2/1 7/2/1
f 9/2/1 6/2/1 8/2/1
f 10/2/1 6/2/1 9/2/1
f 11/2/1 6/2/1 10/2/1
f 12/2/1 6/2/1 11/2/1
f 13/2/1 2/2/1 6/2/1
f 13/2/1 6/2/1 12/2/1
f 14/4/1 9/4/1 8/4/1
f 15/4/1 9/4/1 14/4/1
f 16/4/1 11/4/1 10/4/1
f 17/4/1 11/4/1 16/4/1
f 18/4/1 13/4/1 12/4/1
f 19/2/1 2/2/1 13/2/1
f 19/4/1 13/4/1 18/4/1
f 24/4/1 18/4/1 17/4/1
f 25/2/1 19/2/1 18/2/1
f 25/4/1 18/4/1 24/4/1
f 26/2/1 2/2/1 19/2/1
f 26/2/1 19/2/1 25/2/1
f 27/4/1 21/4/1 20/4/1
f 28/4/1 21/4/1 27/4/1
f 29/4/1 23/4/1 22/4/1
f 30/2/1 25/2/1 24/2/1
f 30/2/1 24/2/1 23/2/1
f 30/4/1 23/4/1 29/4/1
f 31/1/1 26/1/1 25/1/1
f 31/2/1 25/2/1 30/2/1
f 32/2/1 2/2/1 26/2/1
f 32/1/1 26/1/1 31/1/1
f 33/2/1 2/2/1 32/2/1
f 34/2/1 28/2/1 27/2/1
f 34/2/1 29/2/1 28/2/1
f 34/2/1 30/2/1 29/2/1
f 35/2/1 30/2/1 34/2/1
f 36/1/1 31/1/1 30/1/1
f 36/2/1 30/2/1 35/2/1
f 37/2/1 32/2/1 31/2/1
f 37/1/1 31/1/1 36/1/1
f 38/2/1 32/2/1 37/2/1
f 39/2/1 36/2/1 35/2/1
f 39/2/1 37/2/1 36/2/1
f 40/2/1 37/2/1 39/2/1
f 47/4/1 42/4/1 41/4/1
f 48/4/1 42/4/1 47/4/1
f 49/5/1 44/5/1 43/5/1
f 50/5/1 44/5/1 49/5/1
f 51/5/1 46/5/1 45/5/1
f 52/5/1 46/5/1 51/5/1
f 55/4/1 54/4/1 53/4/1
f 56/4/1 54/4/1 55/4/1
f 59/3/1 58/3/1 57/3/1
f 60/3/1 59/3/1 57/3/1
f 62/3/1 60/3/1 57/3/1
f 62/3/1 61/3/1 60/3/1
f 63/3/1 61/3/1 62/3/1
f 66/4/1 65/4/1 64/4/1
f 67/4/1 65/4/1 66/4/1
f 70/4/1 69/4/1 68/4/1
f 71/4/1 69/4/1 70/4/1
f 74/4/1 73/4/1 72/4/1
f 75/4/1 73/4/1 74/4/1
f 82/4/1 77/4/1 76/4/1
f 83/4/1 77/4/1 82/4/1
f 84/4/1 79/4/1 78/4/1
f 85/4/1 79/4/1 84/4/1
f 86/4/1 81/4/1 80/4/1
f 87/4/1 81/4/1 86/4/1
f 88/4/2 89/4/2 94/4/2
f 94/4/2 89/4/2 95/4/2
f 90/4/2 91/4/2 96/4/2
f 96/4/2 91/4/2 97/4/2
f 92/4/2 93/4/2 98/4/2
f 98/4/2 93/4/2 99/4/2
f 100/4/2 101/4/2 102/4/2
f 102/4/2 101/4/2 103/4/2
f 104/4/2 105/4/2 106/4/2
f 106/4/2 105/4/2 107/4/2
f 108/4/2 109/4/2 110/4/2
f 110/4/2 109/4/2 111/4/2
f 112/3/2 113/3/2 114/3/2
f 112/3/2 114/3/2 115/3/2
f 112/3/2 115/3/2 117/3/2
f 115/3/2 116/3/2 117/3/2
f 117/3/2 116/3/2 118/3/2
f 119/4/2 120/4/2 121/4/2
f 121/4/2 120/4/2 122/4/2
f 123/4/2 124/4/2 129/4/2
f 129/4/2 124/4/2 130/4/2
f 125/5/2 126/5/2 131/5/2
f 131/5/2 126/5/2 132/5/2
f 127/5/2 128/5/2 133/5/2
f 133/5/2 128/5/2 134/5/2
f 135/2/2 136/2/2 137/2/2
f 137/2/2 136/2/2 138/2/2
f 135/2/2 137/2/2 139/2/2
f 137/1/2 138/1/2 139/1/2
f 138/2/2 136/2/2 140/2/2
f 139/1/2 138/1/2 140/1/2
f 135/2/2 139/2/2 141/2/2
f 139/2/2 140/2/2 141/2/2
f 141/2/2 140/2/2 142/2/2
f 142/2/2 140/2/2 143/2/2
f 143/2/2 140/2/2 144/2/2
f 144/2/2 140/2/2 145/2/2
f 145/2/2 140/2/2 146/2/2
f 140/2/2 136/2/2 147/2/2
f 146/2/2 140/2/2 147/2/2
f 142/4/2 143/4/2 148/4/2
f 148/4/2 143/4/2 149/4/2
f 144/4/2 145/4/2 150/4/2
f 150/4/2 145/4/2 151/4/2
f 146/4/2 147/4/2 152/4/2
f 147/2/2 136/2/2 153/2/2
f 152/4/2 147/4/2 153/4/2
f 151/4/2 152/4/2 158/4/2
f 152/2/2 153/2/2 159/2/2
f 158/4/2 152/4/2 159/4/2
f 153/2/2 136/2/2 160/2/2
f 159/2/2 153/2/2 160/2/2
f 154/4/2 155/4/2 161/4/2
f 161/4/2 155/4/2 162/4/2
f 156/4/2 157/4/2 163/4/2
f 158/2/2 159/2/2 164/2/2
f 157/2/2 158/2/2 164/2/2
f 163/4/2 157/4/2 164/4/2
f 159/1/2 160/1/2 165/1/2
f 164/2/2 159/2/2 165/2/2
f 160/2/2 136/2/2 166/2/2
f 165/1/2 160/1/2 166/1/2
f 166/2/2 136/2/2 167/2/2
f 161/2/2 162/2/2 168/2/2
f 162/2/2 163/2/2 168/2/2
f 163/2/2 164/2/2 168/2/2
f 168/2/2 164/2/2 169/2/2
f 164/1/2 165/1/2 170/1/2
f 169/2/2 164/2/2 170/2/2
f 165/2/2 166/2/2 171/2/2
f 170/1/2 165/1/2 171/1/2
f 171/2/2 166/2/2 172/2/2
f 169/2/2 170/2/2 173/2/2
f 170/2/2 171/2/2 173/2/2
f 173/2/2 171/2/2 174/2/2
f 177/3/3 176/3/3 175/3/3
f 178/3/3 176/3/3 177/3/3
f 184/2/3 180/2/3 179/2/3
f 185/2/3 180/2/3 184/2/3
f 186/2/3 180/2/3 185/2/3
f 188/4/3 182/4/3 181/4/3
f 189/2/3 183/2/3 182/2/3
f 189/4/3 182/4/3 188/4/3
f 190/2/3 183/2/3 189/2/3
f 191/4/3 187/4/3 186/4/3
f 191/2/3 186/2/3 185/2/3
f 192/4/3 187/4/3 191/4/3
f 194/1/3 190/1/3 189/1/3
f 195/1/3 190/1/3 194/1/3
f 196/1/3 185/1/3 184/1/3
f 197/2/3 191/2/3 185/2/3
f 197/1/3 185/1/3 196/1/3
f 198/2/3 191/2/3 197/2/3
f 199/4/3 194/4/3 193/4/3
f 200/2/3 195/2/3 194/2/3
f 200/4/3 194/4/3 199/4/3
f 201/2/3 195/2/3 200/2/3
f 203/1/3 201/1/3 200/1/3
f 204/4/3 203/4/3 202/4/3
f 205/1/3 201/1/3 203/1/3
f 205/4/3 203/4/3 204/4/3
f 206/1/3 196/1/3 184/1/3
f 210/1/3 201/1/3 205/1/3
f 211/1/3 201/1/3 210/1/3
f 212/2/3 208/2/3 207/2/3
f 214/4/3 210/4/3 209/4/3
f 215/2/3 211/2/3 210/2/3
f 215/4/3 210/4/3 214/4/3
f 216/2/3 211/2/3 215/2/3
f 217/2/3 184/2/3 179/2/3
f 217/1/3 206/1/3 184/1/3
f 217/1/3 207/1/3 206/1/3
f 218/2/3 212/2/3 207/2/3
f 218/1/3 207/1/3 217/1/3
f 219/4/3 213/4/3 212/4/3
f 219/2/3 212/2/3 218/2/3
f 220/4/3 213/4/3 219/4/3
f 222/1/3 216/1/3 215/1/3
f 223/1/3 216/1/3 222/1/3
f 224/2/3 217/2/3 179/2/3
f 224/2/3 218/2/3 217/2/3
f 224/2/3 219/2/3 218/2/3
f 225/2/3 219/2/3 224/2/3
f 226/4/3 222/4/3 221/4/3
f 227/2/3 223/2/3 222/2/3
f 227/4/3 222/4/3 226/4/3
f 228/2/3 223/2/3 227/2/3
f 233/4/3 230/4/3 229/4/3
f 234/4/3 230/4/3 233/4/3
f 235/2/3 232/2/3 231/2/3
f 236/2/3 232/2/3 235/2/3
f 239/1/3 236/1/3 235/1/3
f 240/1/3 236/1/3 239/1/3
f 241/5/3 238/5/3 237/5/3
f 242/5/3 238/5/3 241/5/3
f 243/2/3 240/2/3 239/2/3
f 244/2/3 240/2/3 243/2/3
f 247/1/3 244/1/3 243/1/3
f 248/1/3 244/1/3 247/1/3
f 249/5/3 246/5/3 245/5/3
f 250/5/3 246/5/3 249/5/3
f 251/2/3 248/2/3 247/2/3
f 252/2/3 248/2/3 251/2/3
f 255/1/3 252/1/3 251/1/3
f 256/1/3 252/1/3 255/1/3
f 257/4/3 254/4/3 253/4/3
f 258/4/3 254/4/3 257/4/3
f 259/2/3 256/2/3 255/2/3
f 260/2/3 256/2/3 259/2/3
f 263/4/3 262/4/3 261/4/3
f 264/4/3 262/4/3 263/4/3
f 267/4/3 266/4/3 265/4/3
f 268/4/3 266/4/3 267/4/3
f 271/4/3 270/4/3 269/4/3
f 272/4/3 270/4/3 271/4/3
f 277/5/3 274/5/3 273/5/3
f 278/5/3 274/5/3 277/5/3
f 279/4/3 276/4/3 275/4/3
f 280/4/3 276/4/3 279/4/3
f 283/4/3 282/4/3 281/4/3
f 284/4/3 282/4/3 283/4/3
f 287/4/3 286/4/3 285/4/3
f 288/4/3 286/4/3 287/4/3
f 291/4/3 290/4/3 289/4/3
f 292/4/3 290/4/3 291/4/3
f 295/5/3 293/5/3 292/5/3
f 296/5/3 293/5/3 295/5/3
f 297/4/3 295/4/3 294/4/3
f 298/4/3 295/4/3 297/4/3
f 299/4/4 300/4/4 301/4/4
f 301/4/4 300/4/4 302/4/4
f 303/4/4 304/4/4 305/4/4
f 305/4/4 304/4/4 306/4/4
f 307/4/4 308/4/4 309/4/4
f 309/4/4 308/4/4 310/4/4
f 311/4/4 312/4/4 313/4/4
f 313/4/4 312/4/4 314/4/4
f 315/4/4 316/4/4 317/4/4
f 317/4/4 316/4/4 318/4/4
f 319/4/4 320/4/4 321/4/4
f 321/4/4 320/4/4 322/4/4
f 323/4/4 324/4/4 325/4/4
f 325/4/4 324/4/4 326/4/4
f 327/4/4 328/4/4 329/4/4
f 329/4/4 328/4/4 330/4/4
f 331/4/4 332/4/4 333/4/4
f 333/4/4 332/4/4 334/4/4
f 335/2/4 336/2/4 337/2/4
f 337/2/4 336/2/4 338/2/4
f 337/1/4 338/1/4 339/1/4
f 339/1/4 338/1/4 340/1/4
f 339/2/4 340/2/4 341/2/4
f 341/2/4 340/2/4 342/2/4
f 341/1/4 342/1/4 343/1/4
f 343/1/4 342/1/4 344/1/4
f 343/2/4 344/2/4 345/2/4
f 345/2/4 344/2/4 346/2/4
f 345/1/4 346/1/4 347/1/4
f 347/1/4 346/1/4 348/1/4
f 347/2/4 348/2/4 349/2/4
f 349/2/4 348/2/4 350/2/4
f 351/2/4 352/2/4 353/2/4
f 353/2/4 352/2/4 354/2/4
f 353/1/4 354/1/4 355/1/4
f 355/1/4 354/1/4 356/1/4
f 355/2/4 356/2/4 357/2/4
f 357/2/4 356/2/4 358/2/4
f 357/1/4 358/1/4 359/1/4
f 359/1/4 358/1/4 360/1/4
f 359/2/4 360/2/4 361/2/4
f 361/2/4 360/2/4 362/2/4
f 361/1/4 362/1/4 363/1/4
f 363/1/4 362/1/4 364/1/4
f 363/2/4 364/2/4 365/2/4
f 365/2/4 364/2/4 366/2/4
f 367/2/4 368/2/4 369/2/4
f 369/2/4 368/2/4 370/2/4
f 370/2/4 368/2/4 371/2/4
f 371/2/4 368/2/4 372/2/4
f 370/2/4 371/2/4 373/2/4
f 371/1/4 372/1/4 373/1/4
f 373/1/4 372/1/4 374/1/4
f 370/2/4 373/2/4 375/2/4
f 373/2/4 374/2/4 375/2/4
f 375/2/4 374/2/4 376/2/4
f 370/2/4 375/2/4 377/2/4
f 375/1/4 376/1/4 377/1/4
f 377/1/4 376/1/4 378/1/4
f 370/2/4 377/2/4 379/2/4
f 377/2/4 378/2/4 379/2/4
f 379/2/4 378/2/4 380/2/4
f 367/2/4 369/2/4 381/2/4
f 369/1/4 370/1/4 381/1/4
f 370/2/4 379/2/4 382/2/4
f 381/1/4 370/1/4 382/1/4
f 379/1/4 380/1/4 383/1/4
f 382/2/4 379/2/4 383/2/4
f 383/1/4 380/1/4 384/1/4
f 381/2/4 382/2/4 385/2/4
f 367/2/4 381/2/4 385/2/4
f 383/2/4 384/2/4 385/2/4
f 382/2/4 383/2/4 385/2/4
f 385/2/4 384/2/4 386/2/4
f 389/2/5 388/2/5 387/2/5
f 390/2/5 388/2/5 389/2/5
f 393/3/5 392/3/5 391/3/5
f 394/3/5 392/3/5 393/3/5
f 399/4/5 396/4/5 395/4/5
f 400/4/5 396/4/5 399/4/5
f 401/4/5 398/4/5 397/4/5
f 402/4/5 398/4/5 401/4/5
f 413/4/5 404/4/5 403/4/5
f 414/4/5 404/4/5 413/4/5
f 415/4/5 406/4/5 405/4/5
f 416/4/5 406/4/5 415/4/5
f 417/4/5 408/4/5 407/4/5
f 418/4/5 408/4/5 417/4/5
f 419/4/5 410/4/5 409/4/5
f 420/4/5 410/4/5 419/4/5
f 421/4/5 412/4/5 411/4/5
f 422/4/5 412/4/5 421/4/5
f 427/4/5 424/4/5 423/4/5
f 428/4/5 424/4/5 427/4/5
f 429/4/5 426/4/5 425/4/5
f 430/4/5 426/4/5 429/4/5
f 431/2/5 428/2/5 427/2/5
f 432/5/5 429/5/5 428/5/5
f 432/2/5 428/2/5 431/2/5
f 433/2/5 430/2/5 429/2/5
f 433/5/5 429/5/5 432/5/5
f 434/2/5 430/2/5 433/2/5
f 435/5/5 433/5/5 432/5/5
f 436/5/5 433/5/5 435/5/5
f 446/1/5 438/1/5 437/1/5
f 447/1/5 438/1/5 446/1/5
f 448/1/5 440/1/5 439/1/5
f 449/1/5 440/1/5 448/1/5
f 450/1/5 442/1/5 441/1/5
f 451/1/5 442/1/5 450/1/5
f 452/1/5 444/1/5 443/1/5
f 453/1/5 444/1/5 452/1/5
f 455/2/5 446/2/5 445/2/5
f 456/5/5 451/5/5 450/5/5
f 456/2/5 446/2/5 455/2/5
f 456/5/5 447/5/5 446/5/5
f 456/5/5 453/5/5 452/5/5
f 456/5/5 452/5/5 451/5/5
f 456/5/5 449/5/5 448/5/5
f 456/5/5 450/5/5 449/5/5
f 456/5/5 448/5/5 447/5/5
f 457/2/5 454/2/5 453/2/5
f 457/5/5 453/5/5 456/5/5
f 458/2/5 454/2/5 457/2/5
f 459/5/5 457/5/5 456/5/5
f 460/5/5 457/5/5 459/5/5
f 461/2/6 462/2/6 469/2/6
f 469/2/6 462/2/6 470/2/6
f 463/2/6 464/2/6 471/2/6
f 471/2/6 464/2/6 472/2/6
f 465/2/6 466/2/6 473/2/6
f 473/2/6 466/2/6 474/2/6
f 467/2/6 468/2/6 475/2/6
f 475/2/6 468/2/6 476/2/6
f 477/2/6 478/2/6 481/2/6
f 481/2/6 478/2/6 482/2/6
f 479/2/6 480/2/6 483/2/6
f 483/2/6 480/2/6 484/2/6
f 485/2/6 486/2/6 489/2/6
f 489/2/6 486/2/6 490/2/6
f 487/2/6 488/2/6 491/2/6
f 491/2/6 488/2/6 492/2/6
f 495/4/6 496/4/6 500/4/6
f 500/4/6 496/4/6 501/4/6
f 493/3/6 494/3/6 502/3/6
f 502/3/6 494/3/6 503/3/6
f 497/4/6 498/4/6 504/4/6
f 504/4/6 498/4/6 505/4/6
f 499/4/6 500/4/6 507/4/6
f 500/5/6 501/5/6 508/5/6
f 507/4/6 500/4/6 508/4/6
f 501/5/6 502/5/6 508/5/6
f 502/3/6 503/3/6 509/3/6
f 508/5/6 502/5/6 509/5/6
f 504/5/6 505/5/6 510/5/6
f 509/3/6 503/3/6 510/3/6
f 503/5/6 504/5/6 510/5/6
f 505/4/6 506/4/6 511/4/6
f 510/5/6 505/5/6 511/5/6
f 511/4/6 506/4/6 512/4/6
f 509/5/6 510/5/6 514/5/6
f 510/5/6 511/5/6 514/5/6
f 508/5/6 509/5/6 514/5/6
f 514/5/6 511/5/6 515/5/6
f 513/4/6 514/4/6 517/4/6
f 514/5/6 515/5/6 518/5/6
f 517/4/6 514/4/6 518/4/6
f 515/4/6 516/4/6 519/4/6
f 518/5/6 515/5/6 519/5/6
f 519/4/6 516/4/6 520/4/6
f 518/5/6 519/5/6 521/5/6
f 521/5/6 519/5/6 522/5/6
f 523/2/6 524/2/6 531/2/6
f 524/1/6 525/1/6 532/1/6
f 531/2/6 524/2/6 532/2/6
f 525/2/6 526/2/6 533/2/6
f 532/1/6 525/1/6 533/1/6
f 526/1/6 527/1/6 534/1/6
f 533/2/6 526/2/6 534/2/6
f 527/2/6 528/2/6 535/2/6
f 534/1/6 527/1/6 535/1/6
f 528/1/6 529/1/6 536/1/6
f 535/2/6 528/2/6 536/2/6
f 529/2/6 530/2/6 537/2/6
f 536/1/6 529/1/6 537/1/6
f 537/2/6 530/2/6 538/2/6
f 539/2/6 540/2/6 547/2/6
f 540/1/6 541/1/6 548/1/6
f 547/2/6 540/2/6 548/2/6
f 541/2/6 542/2/6 549/2/6
f 548/1/6 541/1/6 549/1/6
f 542/1/6 543/1/6 550/1/6
f 549/2/6 542/2/6 550/2/6
f 543/2/6 544/2/6 551/2/6
f 550/1/6 543/1/6 551/1/6
f 544/1/6 545/1/6 552/1/6
f 551/2/6 544/2/6 552/2/6
f 545/2/6 546/2/6 553/2/6
f 552/1/6 545/1/6 553/1/6
f 553/2/6 546/2/6 554/2/6
f 555/2/6 556/2/6 563/2/6
f 556/1/6 557/1/6 564/1/6
f 563/2/6 556/2/6 564/2/6
f 557/2/6 558/2/6 565/2/6
f 564/1/6 557/1/6 565/1/6
f 558/1/6 559/1/6 566/1/6
f 565/2/6 558/2/6 566/2/6
f 559/2/6 560/2/6 567/2/6
f 566/1/6 559/1/6 567/1/6
f 560/1/6 561/1/6 568/1/6
f 567/2/6 560/2/6 568/2/6
f 561/2/6 562/2/6 569/2/6
f 568/1/6 561/1/6 569/1/6
f 569/2/6 562/2/6 570/2/6
f 571/2/6 572/2/6 579/2/6
f 572/1/6 573/1/6 580/1/6
f 579/2/6 572/2/6 580/2/6
f 573/2/6 574/2/6 581/2/6
f 580/1/6 573/1/6 581/1/6
f 574/1/6 575/1/6 582/1/6
f 581/2/6 574/2/6 582/2/6
f 575/2/6 576/2/6 583/2/6
f 582/1/6 575/1/6 583/1/6
f 576/1/6 577/1/6 584/1/6
f 583/2/6 576/2/6 584/2/6
f 577/2/6 578/2/6 585/2/6
f 584/1/6 577/1/6 585/1/6
f 585/2/6 578/2/6 586/2/6
