# MagicaVoxel @ Ephtracy

# group
o 

# material
mtllib mimic_e_action_1.mtl
usemtl palette

# normals
vn -1 0 0
vn 1 0 0
vn 0 0 1
vn 0 0 -1
vn 0 -1 0
vn 0 1 0

# texcoords
vt 0.724609 0.5
vt 0.822266 0.5
vt 0.947266 0.5
vt 0.970703 0.5

# verts
v -0.5 0 0.4
v -0.5 0 -0.5
v -0.5 0.1 0.3
v -0.5 0.1 -0.4
v -0.5 0.2 0.3
v -0.5 0.2 -0.4
v -0.5 0.3 0.4
v -0.5 0.3 0.3
v -0.5 0.3 0.2
v -0.5 0.3 0.1
v -0.5 0.3 0
v -0.5 0.3 -0.1
v -0.5 0.3 -0.2
v -0.5 0.3 -0.3
v -0.5 0.3 -0.4
v -0.5 0.4 0.4
v -0.5 0.4 0.3
v -0.5 0.4 0.2
v -0.5 0.4 0.1
v -0.5 0.4 0
v -0.5 0.4 -0.1
v -0.5 0.4 -0.2
v -0.5 0.4 -0.3
v -0.5 0.4 -0.4
v -0.5 0.5 0.4
v -0.5 0.5 0.3
v -0.5 0.5 0.1
v -0.5 0.5 -0.2
v -0.5 0.5 -0.4
v -0.5 0.5 -0.5
v -0.5 0.6 0.3
v -0.5 0.6 0.1
v -0.5 0.6 -0.2
v -0.5 0.6 -0.4
v -0.5 0.7 0.1
v -0.5 0.7 -0.2
v -0.4 0.3 0.4
v -0.4 0.3 0.3
v -0.4 0.3 0.2
v -0.4 0.3 0.1
v -0.4 0.3 0
v -0.4 0.3 -0.1
v -0.4 0.3 -0.2
v -0.4 0.3 -0.3
v -0.4 0.4 0.4
v -0.4 0.4 0.3
v -0.4 0.4 0.2
v -0.4 0.4 0.1
v -0.4 0.4 0
v -0.4 0.4 -0.1
v -0.4 0.4 -0.2
v -0.4 0.4 -0.3
v -0.2 0.3 0.4
v -0.2 0.3 0.3
v -0.2 0.4 0.4
v -0.2 0.4 0.3
v 5.96046e-08 0.3 0.4
v 5.96046e-08 0.3 0.3
v 5.96046e-08 0.4 0.4
v 5.96046e-08 0.4 0.3
v 0.2 0.3 0.4
v 0.2 0.3 0.3
v 0.2 0.4 0.4
v 0.2 0.4 0.3
v 0.4 0.3 0.4
v 0.4 0.3 0.3
v 0.4 0.4 0.4
v 0.4 0.4 0.3
v -0.3 0.3 0.4
v -0.3 0.3 0.3
v -0.3 0.4 0.4
v -0.3 0.4 0.3
v -0.1 0.3 0.4
v -0.1 0.3 0.3
v -0.1 0.4 0.4
v -0.1 0.4 0.3
v 0.1 0.3 0.4
v 0.1 0.3 0.3
v 0.1 0.4 0.4
v 0.1 0.4 0.3
v 0.3 0.3 0.4
v 0.3 0.3 0.3
v 0.3 0.4 0.4
v 0.3 0.4 0.3
v 0.5 0.3 0.4
v 0.5 0.3 0.3
v 0.5 0.3 0.2
v 0.5 0.3 0.1
v 0.5 0.3 0
v 0.5 0.3 -0.1
v 0.5 0.3 -0.2
v 0.5 0.3 -0.3
v 0.5 0.4 0.4
v 0.5 0.4 0.3
v 0.5 0.4 0.2
v 0.5 0.4 0.1
v 0.5 0.4 0
v 0.5 0.4 -0.1
v 0.5 0.4 -0.2
v 0.5 0.4 -0.3
v 0.6 0 0.4
v 0.6 0 -0.5
v 0.6 0.1 0.3
v 0.6 0.1 -0.4
v 0.6 0.2 0.3
v 0.6 0.2 -0.4
v 0.6 0.3 0.4
v 0.6 0.3 0.3
v 0.6 0.3 0.2
v 0.6 0.3 0.1
v 0.6 0.3 0
v 0.6 0.3 -0.1
v 0.6 0.3 -0.2
v 0.6 0.3 -0.3
v 0.6 0.3 -0.4
v 0.6 0.4 0.4
v 0.6 0.4 0.3
v 0.6 0.4 0.2
v 0.6 0.4 0.1
v 0.6 0.4 0
v 0.6 0.4 -0.1
v 0.6 0.4 -0.2
v 0.6 0.4 -0.3
v 0.6 0.4 -0.4
v 0.6 0.5 0.4
v 0.6 0.5 0.3
v 0.6 0.5 0.1
v 0.6 0.5 -0.2
v 0.6 0.5 -0.4
v 0.6 0.5 -0.5
v 0.6 0.6 0.3
v 0.6 0.6 0.1
v 0.6 0.6 -0.2
v 0.6 0.6 -0.4
v 0.6 0.7 0.1
v 0.6 0.7 -0.2
v -0.5 0 0.4
v -0.5 0.3 0.4
v -0.5 0.4 0.4
v -0.5 0.5 0.4
v -0.4 0.1 0.4
v -0.4 0.2 0.4
v -0.4 0.3 0.4
v -0.4 0.4 0.4
v -0.4 0.5 0.4
v -0.3 0.3 0.4
v -0.3 0.4 0.4
v -0.3 0.5 0.4
v -0.2 0.3 0.4
v -0.2 0.4 0.4
v -0.2 0.5 0.4
v -0.1 0.3 0.4
v -0.1 0.4 0.4
v 5.96046e-08 0.3 0.4
v 5.96046e-08 0.4 0.4
v 0.1 0.3 0.4
v 0.1 0.4 0.4
v 0.2 0.3 0.4
v 0.2 0.4 0.4
v 0.3 0.3 0.4
v 0.3 0.4 0.4
v 0.3 0.5 0.4
v 0.4 0.3 0.4
v 0.4 0.4 0.4
v 0.4 0.5 0.4
v 0.5 0.1 0.4
v 0.5 0.2 0.4
v 0.5 0.3 0.4
v 0.5 0.4 0.4
v 0.5 0.5 0.4
v 0.6 0 0.4
v 0.6 0.3 0.4
v 0.6 0.4 0.4
v 0.6 0.5 0.4
v -0.5 0.3 0.3
v -0.5 0.4 0.3
v -0.5 0.5 0.3
v -0.5 0.6 0.3
v -0.4 0.3 0.3
v -0.4 0.4 0.3
v -0.4 0.5 0.3
v -0.4 0.6 0.3
v -0.3 0.3 0.3
v -0.3 0.4 0.3
v -0.3 0.5 0.3
v -0.3 0.6 0.3
v -0.2 0.3 0.3
v -0.2 0.4 0.3
v -0.2 0.5 0.3
v -0.2 0.6 0.3
v -0.1 0.3 0.3
v -0.1 0.4 0.3
v 5.96046e-08 0.3 0.3
v 5.96046e-08 0.4 0.3
v 0.1 0.3 0.3
v 0.1 0.4 0.3
v 0.2 0.3 0.3
v 0.2 0.4 0.3
v 0.3 0.3 0.3
v 0.3 0.4 0.3
v 0.3 0.5 0.3
v 0.3 0.6 0.3
v 0.4 0.3 0.3
v 0.4 0.4 0.3
v 0.4 0.5 0.3
v 0.4 0.6 0.3
v 0.5 0.3 0.3
v 0.5 0.4 0.3
v 0.5 0.5 0.3
v 0.5 0.6 0.3
v 0.6 0.3 0.3
v 0.6 0.4 0.3
v 0.6 0.5 0.3
v 0.6 0.6 0.3
v -0.5 0.3 0.1
v -0.5 0.4 0.1
v -0.5 0.6 0.1
v -0.5 0.7 0.1
v -0.4 0.3 0.1
v -0.4 0.4 0.1
v -0.4 0.6 0.1
v -0.4 0.7 0.1
v -0.3 0.6 0.1
v -0.3 0.7 0.1
v -0.2 0.6 0.1
v -0.2 0.7 0.1
v 0.3 0.6 0.1
v 0.3 0.7 0.1
v 0.4 0.6 0.1
v 0.4 0.7 0.1
v 0.5 0.3 0.1
v 0.5 0.4 0.1
v 0.5 0.6 0.1
v 0.5 0.7 0.1
v 0.6 0.3 0.1
v 0.6 0.4 0.1
v 0.6 0.6 0.1
v 0.6 0.7 0.1
v -0.5 0.3 -0.1
v -0.5 0.4 -0.1
v -0.4 0.3 -0.1
v -0.4 0.4 -0.1
v 0.5 0.3 -0.1
v 0.5 0.4 -0.1
v 0.6 0.3 -0.1
v 0.6 0.4 -0.1
v -0.5 0.3 -0.3
v -0.5 0.4 -0.3
v -0.4 0.3 -0.3
v -0.4 0.4 -0.3
v 0.5 0.3 -0.3
v 0.5 0.4 -0.3
v 0.6 0.3 -0.3
v 0.6 0.4 -0.3
v -0.5 0.3 0.2
v -0.5 0.4 0.2
v -0.4 0.3 0.2
v -0.4 0.4 0.2
v 0.5 0.3 0.2
v 0.5 0.4 0.2
v 0.6 0.3 0.2
v 0.6 0.4 0.2
v -0.5 0.3 0
v -0.5 0.4 0
v -0.4 0.3 0
v -0.4 0.4 0
v 0.5 0.3 0
v 0.5 0.4 0
v 0.6 0.3 0
v 0.6 0.4 0
v -0.5 0.3 -0.2
v -0.5 0.4 -0.2
v -0.5 0.6 -0.2
v -0.5 0.7 -0.2
v -0.4 0.3 -0.2
v -0.4 0.4 -0.2
v -0.4 0.6 -0.2
v -0.4 0.7 -0.2
v -0.3 0.6 -0.2
v -0.3 0.7 -0.2
v -0.2 0.6 -0.2
v -0.2 0.7 -0.2
v 0.3 0.6 -0.2
v 0.3 0.7 -0.2
v 0.4 0.6 -0.2
v 0.4 0.7 -0.2
v 0.5 0.3 -0.2
v 0.5 0.4 -0.2
v 0.5 0.6 -0.2
v 0.5 0.7 -0.2
v 0.6 0.3 -0.2
v 0.6 0.4 -0.2
v 0.6 0.6 -0.2
v 0.6 0.7 -0.2
v -0.5 0.5 -0.4
v -0.5 0.6 -0.4
v -0.4 0.5 -0.4
v -0.4 0.6 -0.4
v -0.3 0.5 -0.4
v -0.3 0.6 -0.4
v -0.2 0.5 -0.4
v -0.2 0.6 -0.4
v 0.3 0.5 -0.4
v 0.3 0.6 -0.4
v 0.4 0.5 -0.4
v 0.4 0.6 -0.4
v 0.5 0.5 -0.4
v 0.5 0.6 -0.4
v 0.6 0.5 -0.4
v 0.6 0.6 -0.4
v -0.5 0 -0.5
v -0.5 0.5 -0.5
v -0.4 0.1 -0.5
v -0.4 0.2 -0.5
v -0.4 0.3 -0.5
v -0.4 0.5 -0.5
v -0.3 0.3 -0.5
v -0.3 0.5 -0.5
v -0.2 0.3 -0.5
v -0.2 0.5 -0.5
v 0.3 0.3 -0.5
v 0.3 0.5 -0.5
v 0.4 0.3 -0.5
v 0.4 0.5 -0.5
v 0.5 0.1 -0.5
v 0.5 0.2 -0.5
v 0.5 0.3 -0.5
v 0.5 0.5 -0.5
v 0.6 0 -0.5
v 0.6 0.5 -0.5
v -0.5 0 0.4
v 0.6 0 0.4
v -0.5 0 -0.5
v 0.6 0 -0.5
v -0.5 0.4 0.4
v -0.4 0.4 0.4
v -0.3 0.4 0.4
v -0.2 0.4 0.4
v -0.1 0.4 0.4
v 5.96046e-08 0.4 0.4
v 0.1 0.4 0.4
v 0.2 0.4 0.4
v 0.3 0.4 0.4
v 0.4 0.4 0.4
v 0.5 0.4 0.4
v 0.6 0.4 0.4
v -0.5 0.4 0.3
v -0.4 0.4 0.3
v -0.3 0.4 0.3
v -0.2 0.4 0.3
v -0.1 0.4 0.3
v 5.96046e-08 0.4 0.3
v 0.1 0.4 0.3
v 0.2 0.4 0.3
v 0.3 0.4 0.3
v 0.4 0.4 0.3
v 0.5 0.4 0.3
v 0.6 0.4 0.3
v -0.5 0.4 0.2
v -0.4 0.4 0.2
v 0.5 0.4 0.2
v 0.6 0.4 0.2
v -0.5 0.4 0.1
v -0.4 0.4 0.1
v 0.5 0.4 0.1
v 0.6 0.4 0.1
v -0.5 0.4 0
v -0.4 0.4 0
v 0.5 0.4 0
v 0.6 0.4 0
v -0.5 0.4 -0.1
v -0.4 0.4 -0.1
v 0.5 0.4 -0.1
v 0.6 0.4 -0.1
v -0.5 0.4 -0.2
v -0.4 0.4 -0.2
v 0.5 0.4 -0.2
v 0.6 0.4 -0.2
v -0.5 0.4 -0.3
v -0.4 0.4 -0.3
v 0.5 0.4 -0.3
v 0.6 0.4 -0.3
v -0.5 0.3 0.4
v -0.4 0.3 0.4
v -0.3 0.3 0.4
v -0.2 0.3 0.4
v -0.1 0.3 0.4
v 5.96046e-08 0.3 0.4
v 0.1 0.3 0.4
v 0.2 0.3 0.4
v 0.3 0.3 0.4
v 0.4 0.3 0.4
v 0.5 0.3 0.4
v 0.6 0.3 0.4
v -0.5 0.3 0.3
v -0.4 0.3 0.3
v -0.3 0.3 0.3
v -0.2 0.3 0.3
v -0.1 0.3 0.3
v 5.96046e-08 0.3 0.3
v 0.1 0.3 0.3
v 0.2 0.3 0.3
v 0.3 0.3 0.3
v 0.4 0.3 0.3
v 0.5 0.3 0.3
v 0.6 0.3 0.3
v -0.5 0.3 0.2
v -0.4 0.3 0.2
v 0.5 0.3 0.2
v 0.6 0.3 0.2
v -0.5 0.3 0.1
v -0.4 0.3 0.1
v 0.5 0.3 0.1
v 0.6 0.3 0.1
v -0.5 0.3 0
v -0.4 0.3 0
v 0.5 0.3 0
v 0.6 0.3 0
v -0.5 0.3 -0.1
v -0.4 0.3 -0.1
v 0.5 0.3 -0.1
v 0.6 0.3 -0.1
v -0.5 0.3 -0.2
v -0.4 0.3 -0.2
v 0.5 0.3 -0.2
v 0.6 0.3 -0.2
v -0.5 0.3 -0.3
v -0.4 0.3 -0.3
v 0.5 0.3 -0.3
v 0.6 0.3 -0.3
v -0.5 0.5 0.4
v -0.4 0.5 0.4
v -0.3 0.5 0.4
v -0.2 0.5 0.4
v 0.3 0.5 0.4
v 0.4 0.5 0.4
v 0.5 0.5 0.4
v 0.6 0.5 0.4
v -0.5 0.5 0.3
v -0.4 0.5 0.3
v -0.3 0.5 0.3
v -0.2 0.5 0.3
v 0.3 0.5 0.3
v 0.4 0.5 0.3
v 0.5 0.5 0.3
v 0.6 0.5 0.3
v -0.5 0.5 -0.4
v -0.4 0.5 -0.4
v -0.3 0.5 -0.4
v -0.2 0.5 -0.4
v 0.3 0.5 -0.4
v 0.4 0.5 -0.4
v 0.5 0.5 -0.4
v 0.6 0.5 -0.4
v -0.5 0.5 -0.5
v -0.4 0.5 -0.5
v -0.3 0.5 -0.5
v -0.2 0.5 -0.5
v 0.3 0.5 -0.5
v 0.4 0.5 -0.5
v 0.5 0.5 -0.5
v 0.6 0.5 -0.5
v -0.5 0.6 0.3
v -0.4 0.6 0.3
v -0.3 0.6 0.3
v -0.2 0.6 0.3
v 0.3 0.6 0.3
v 0.4 0.6 0.3
v 0.5 0.6 0.3
v 0.6 0.6 0.3
v -0.5 0.6 0.1
v -0.4 0.6 0.1
v -0.3 0.6 0.1
v -0.2 0.6 0.1
v 0.3 0.6 0.1
v 0.4 0.6 0.1
v 0.5 0.6 0.1
v 0.6 0.6 0.1
v -0.5 0.6 -0.2
v -0.4 0.6 -0.2
v -0.3 0.6 -0.2
v -0.2 0.6 -0.2
v 0.3 0.6 -0.2
v 0.4 0.6 -0.2
v 0.5 0.6 -0.2
v 0.6 0.6 -0.2
v -0.5 0.6 -0.4
v -0.4 0.6 -0.4
v -0.3 0.6 -0.4
v -0.2 0.6 -0.4
v 0.3 0.6 -0.4
v 0.4 0.6 -0.4
v 0.5 0.6 -0.4
v 0.6 0.6 -0.4
v -0.5 0.7 0.1
v -0.4 0.7 0.1
v -0.3 0.7 0.1
v -0.2 0.7 0.1
v 0.3 0.7 0.1
v 0.4 0.7 0.1
v 0.5 0.7 0.1
v 0.6 0.7 0.1
v -0.5 0.7 -0.2
v -0.4 0.7 -0.2
v -0.3 0.7 -0.2
v -0.2 0.7 -0.2
v 0.3 0.7 -0.2
v 0.4 0.7 -0.2
v 0.5 0.7 -0.2
v 0.6 0.7 -0.2

# faces
f 3/2/1 2/2/1 1/2/1
f 4/2/1 2/2/1 3/2/1
f 5/2/1 3/2/1 1/2/1
f 5/1/1 4/1/1 3/1/1
f 6/2/1 2/2/1 4/2/1
f 6/1/1 4/1/1 5/1/1
f 7/2/1 5/2/1 1/2/1
f 7/2/1 6/2/1 5/2/1
f 8/2/1 6/2/1 7/2/1
f 9/2/1 6/2/1 8/2/1
f 10/2/1 6/2/1 9/2/1
f 11/2/1 6/2/1 10/2/1
f 12/2/1 6/2/1 11/2/1
f 13/2/1 6/2/1 12/2/1
f 14/2/1 6/2/1 13/2/1
f 15/2/1 2/2/1 6/2/1
f 15/2/1 6/2/1 14/2/1
f 17/3/1 9/3/1 8/3/1
f 18/3/1 9/3/1 17/3/1
f 19/3/1 11/3/1 10/3/1
f 20/3/1 11/3/1 19/3/1
f 21/3/1 13/3/1 12/3/1
f 22/3/1 13/3/1 21/3/1
f 23/3/1 15/3/1 14/3/1
f 24/2/1 2/2/1 15/2/1
f 24/3/1 15/3/1 23/3/1
f 25/2/1 17/2/1 16/2/1
f 26/1/1 23/1/1 22/1/1
f 26/2/1 17/2/1 25/2/1
f 26/1/1 22/1/1 21/1/1
f 26/1/1 24/1/1 23/1/1
f 26/1/1 18/1/1 17/1/1
f 26/1/1 21/1/1 20/1/1
f 26/1/1 20/1/1 19/1/1
f 26/1/1 19/1/1 18/1/1
f 27/1/1 24/1/1 26/1/1
f 28/1/1 24/1/1 27/1/1
f 29/2/1 2/2/1 24/2/1
f 29/1/1 24/1/1 28/1/1
f 30/2/1 2/2/1 29/2/1
f 31/2/1 27/2/1 26/2/1
f 32/1/1 28/1/1 27/1/1
f 32/2/1 27/2/1 31/2/1
f 33/2/1 29/2/1 28/2/1
f 33/1/1 28/1/1 32/1/1
f 34/2/1 29/2/1 33/2/1
f 35/2/1 33/2/1 32/2/1
f 36/2/1 33/2/1 35/2/1
f 45/3/1 38/3/1 37/3/1
f 46/3/1 38/3/1 45/3/1
f 47/4/1 40/4/1 39/4/1
f 48/4/1 40/4/1 47/4/1
f 49/4/1 42/4/1 41/4/1
f 50/4/1 42/4/1 49/4/1
f 51/4/1 44/4/1 43/4/1
f 52/4/1 44/4/1 51/4/1
f 55/3/1 54/3/1 53/3/1
f 56/3/1 54/3/1 55/3/1
f 59/3/1 58/3/1 57/3/1
f 60/3/1 58/3/1 59/3/1
f 63/3/1 62/3/1 61/3/1
f 64/3/1 62/3/1 63/3/1
f 67/3/1 66/3/1 65/3/1
f 68/3/1 66/3/1 67/3/1
f 69/3/2 70/3/2 71/3/2
f 71/3/2 70/3/2 72/3/2
f 73/3/2 74/3/2 75/3/2
f 75/3/2 74/3/2 76/3/2
f 77/3/2 78/3/2 79/3/2
f 79/3/2 78/3/2 80/3/2
f 81/3/2 82/3/2 83/3/2
f 83/3/2 82/3/2 84/3/2
f 85/3/2 86/3/2 93/3/2
f 93/3/2 86/3/2 94/3/2
f 87/4/2 88/4/2 95/4/2
f 95/4/2 88/4/2 96/4/2
f 89/4/2 90/4/2 97/4/2
f 97/4/2 90/4/2 98/4/2
f 91/4/2 92/4/2 99/4/2
f 99/4/2 92/4/2 100/4/2
f 101/2/2 102/2/2 103/2/2
f 103/2/2 102/2/2 104/2/2
f 101/2/2 103/2/2 105/2/2
f 103/1/2 104/1/2 105/1/2
f 104/2/2 102/2/2 106/2/2
f 105/1/2 104/1/2 106/1/2
f 101/2/2 105/2/2 107/2/2
f 105/2/2 106/2/2 107/2/2
f 107/2/2 106/2/2 108/2/2
f 108/2/2 106/2/2 109/2/2
f 109/2/2 106/2/2 110/2/2
f 110/2/2 106/2/2 111/2/2
f 111/2/2 106/2/2 112/2/2
f 112/2/2 106/2/2 113/2/2
f 113/2/2 106/2/2 114/2/2
f 106/2/2 102/2/2 115/2/2
f 114/2/2 106/2/2 115/2/2
f 108/3/2 109/3/2 117/3/2
f 117/3/2 109/3/2 118/3/2
f 110/3/2 111/3/2 119/3/2
f 119/3/2 111/3/2 120/3/2
f 112/3/2 113/3/2 121/3/2
f 121/3/2 113/3/2 122/3/2
f 114/3/2 115/3/2 123/3/2
f 115/2/2 102/2/2 124/2/2
f 123/3/2 115/3/2 124/3/2
f 116/2/2 117/2/2 125/2/2
f 122/1/2 123/1/2 126/1/2
f 125/2/2 117/2/2 126/2/2
f 121/1/2 122/1/2 126/1/2
f 123/1/2 124/1/2 126/1/2
f 117/1/2 118/1/2 126/1/2
f 120/1/2 121/1/2 126/1/2
f 119/1/2 120/1/2 126/1/2
f 118/1/2 119/1/2 126/1/2
f 126/1/2 124/1/2 127/1/2
f 127/1/2 124/1/2 128/1/2
f 124/2/2 102/2/2 129/2/2
f 128/1/2 124/1/2 129/1/2
f 129/2/2 102/2/2 130/2/2
f 126/2/2 127/2/2 131/2/2
f 127/1/2 128/1/2 132/1/2
f 131/2/2 127/2/2 132/2/2
f 128/2/2 129/2/2 133/2/2
f 132/1/2 128/1/2 133/1/2
f 133/2/2 129/2/2 134/2/2
f 132/2/2 133/2/2 135/2/2
f 135/2/2 133/2/2 136/2/2
f 141/2/3 138/2/3 137/2/3
f 142/2/3 138/2/3 141/2/3
f 143/2/3 138/2/3 142/2/3
f 144/2/3 140/2/3 139/2/3
f 145/2/3 140/2/3 144/2/3
f 146/2/3 143/2/3 142/2/3
f 146/3/3 144/3/3 143/3/3
f 147/1/3 145/1/3 144/1/3
f 147/3/3 144/3/3 146/3/3
f 148/1/3 145/1/3 147/1/3
f 149/2/3 146/2/3 142/2/3
f 150/2/3 148/2/3 147/2/3
f 151/2/3 148/2/3 150/2/3
f 152/2/3 149/2/3 142/2/3
f 152/3/3 150/3/3 149/3/3
f 153/1/3 151/1/3 150/1/3
f 153/3/3 150/3/3 152/3/3
f 154/2/3 152/2/3 142/2/3
f 155/1/3 151/1/3 153/1/3
f 156/2/3 154/2/3 142/2/3
f 156/3/3 155/3/3 154/3/3
f 157/1/3 151/1/3 155/1/3
f 157/3/3 155/3/3 156/3/3
f 158/2/3 156/2/3 142/2/3
f 159/1/3 151/1/3 157/1/3
f 160/2/3 158/2/3 142/2/3
f 160/3/3 159/3/3 158/3/3
f 161/1/3 151/1/3 159/1/3
f 161/3/3 159/3/3 160/3/3
f 162/1/3 151/1/3 161/1/3
f 163/2/3 160/2/3 142/2/3
f 164/2/3 162/2/3 161/2/3
f 165/2/3 162/2/3 164/2/3
f 166/2/3 141/2/3 137/2/3
f 166/1/3 142/1/3 141/1/3
f 167/2/3 163/2/3 142/2/3
f 167/1/3 142/1/3 166/1/3
f 168/3/3 164/3/3 163/3/3
f 168/2/3 163/2/3 167/2/3
f 169/1/3 165/1/3 164/1/3
f 169/3/3 164/3/3 168/3/3
f 170/1/3 165/1/3 169/1/3
f 171/2/3 168/2/3 167/2/3
f 171/2/3 166/2/3 137/2/3
f 171/2/3 167/2/3 166/2/3
f 172/2/3 168/2/3 171/2/3
f 173/2/3 170/2/3 169/2/3
f 174/2/3 170/2/3 173/2/3
f 179/3/3 176/3/3 175/3/3
f 180/3/3 176/3/3 179/3/3
f 181/2/3 178/2/3 177/2/3
f 182/2/3 178/2/3 181/2/3
f 185/1/3 182/1/3 181/1/3
f 186/1/3 182/1/3 185/1/3
f 187/4/3 184/4/3 183/4/3
f 188/4/3 184/4/3 187/4/3
f 189/2/3 186/2/3 185/2/3
f 190/2/3 186/2/3 189/2/3
f 193/4/3 192/4/3 191/4/3
f 194/4/3 192/4/3 193/4/3
f 197/4/3 196/4/3 195/4/3
f 198/4/3 196/4/3 197/4/3
f 201/1/3 190/1/3 189/1/3
f 202/1/3 190/1/3 201/1/3
f 203/4/3 200/4/3 199/4/3
f 204/4/3 200/4/3 203/4/3
f 205/2/3 202/2/3 201/2/3
f 206/2/3 202/2/3 205/2/3
f 209/1/3 206/1/3 205/1/3
f 210/1/3 206/1/3 209/1/3
f 211/3/3 208/3/3 207/3/3
f 212/3/3 208/3/3 211/3/3
f 213/2/3 210/2/3 209/2/3
f 214/2/3 210/2/3 213/2/3
f 219/3/3 216/3/3 215/3/3
f 220/3/3 216/3/3 219/3/3
f 221/2/3 218/2/3 217/2/3
f 222/2/3 218/2/3 221/2/3
f 223/1/3 222/1/3 221/1/3
f 224/1/3 222/1/3 223/1/3
f 225/2/3 224/2/3 223/2/3
f 226/2/3 224/2/3 225/2/3
f 227/1/3 226/1/3 225/1/3
f 228/1/3 226/1/3 227/1/3
f 229/2/3 228/2/3 227/2/3
f 230/2/3 228/2/3 229/2/3
f 233/1/3 230/1/3 229/1/3
f 234/1/3 230/1/3 233/1/3
f 235/3/3 232/3/3 231/3/3
f 236/3/3 232/3/3 235/3/3
f 237/2/3 234/2/3 233/2/3
f 238/2/3 234/2/3 237/2/3
f 241/3/3 240/3/3 239/3/3
f 242/3/3 240/3/3 241/3/3
f 245/3/3 244/3/3 243/3/3
f 246/3/3 244/3/3 245/3/3
f 249/3/3 248/3/3 247/3/3
f 250/3/3 248/3/3 249/3/3
f 253/3/3 252/3/3 251/3/3
f 254/3/3 252/3/3 253/3/3
f 255/3/4 256/3/4 257/3/4
f 257/3/4 256/3/4 258/3/4
f 259/3/4 260/3/4 261/3/4
f 261/3/4 260/3/4 262/3/4
f 263/3/4 264/3/4 265/3/4
f 265/3/4 264/3/4 266/3/4
f 267/3/4 268/3/4 269/3/4
f 269/3/4 268/3/4 270/3/4
f 271/3/4 272/3/4 275/3/4
f 275/3/4 272/3/4 276/3/4
f 273/2/4 274/2/4 277/2/4
f 277/2/4 274/2/4 278/2/4
f 277/1/4 278/1/4 279/1/4
f 279/1/4 278/1/4 280/1/4
f 279/2/4 280/2/4 281/2/4
f 281/2/4 280/2/4 282/2/4
f 281/1/4 282/1/4 283/1/4
f 283/1/4 282/1/4 284/1/4
f 283/2/4 284/2/4 285/2/4
f 285/2/4 284/2/4 286/2/4
f 285/1/4 286/1/4 289/1/4
f 289/1/4 286/1/4 290/1/4
f 287/3/4 288/3/4 291/3/4
f 291/3/4 288/3/4 292/3/4
f 289/2/4 290/2/4 293/2/4
f 293/2/4 290/2/4 294/2/4
f 295/2/4 296/2/4 297/2/4
f 297/2/4 296/2/4 298/2/4
f 297/1/4 298/1/4 299/1/4
f 299/1/4 298/1/4 300/1/4
f 299/2/4 300/2/4 301/2/4
f 301/2/4 300/2/4 302/2/4
f 301/1/4 302/1/4 303/1/4
f 303/1/4 302/1/4 304/1/4
f 303/2/4 304/2/4 305/2/4
f 305/2/4 304/2/4 306/2/4
f 305/1/4 306/1/4 307/1/4
f 307/1/4 306/1/4 308/1/4
f 307/2/4 308/2/4 309/2/4
f 309/2/4 308/2/4 310/2/4
f 311/2/4 312/2/4 313/2/4
f 313/2/4 312/2/4 314/2/4
f 314/2/4 312/2/4 315/2/4
f 315/2/4 312/2/4 316/2/4
f 314/2/4 315/2/4 317/2/4
f 315/1/4 316/1/4 317/1/4
f 317/1/4 316/1/4 318/1/4
f 314/2/4 317/2/4 319/2/4
f 317/2/4 318/2/4 319/2/4
f 319/2/4 318/2/4 320/2/4
f 314/2/4 319/2/4 321/2/4
f 319/1/4 320/1/4 321/1/4
f 321/1/4 320/1/4 322/1/4
f 314/2/4 321/2/4 323/2/4
f 321/2/4 322/2/4 323/2/4
f 323/2/4 322/2/4 324/2/4
f 311/2/4 313/2/4 325/2/4
f 313/1/4 314/1/4 325/1/4
f 314/2/4 323/2/4 326/2/4
f 325/1/4 314/1/4 326/1/4
f 323/1/4 324/1/4 327/1/4
f 326/2/4 323/2/4 327/2/4
f 327/1/4 324/1/4 328/1/4
f 325/2/4 326/2/4 329/2/4
f 311/2/4 325/2/4 329/2/4
f 327/2/4 328/2/4 329/2/4
f 326/2/4 327/2/4 329/2/4
f 329/2/4 328/2/4 330/2/4
f 333/2/5 332/2/5 331/2/5
f 334/2/5 332/2/5 333/2/5
f 347/2/5 336/2/5 335/2/5
f 348/2/5 336/2/5 347/2/5
f 349/2/5 338/2/5 337/2/5
f 350/2/5 338/2/5 349/2/5
f 351/1/5 340/1/5 339/1/5
f 352/1/5 340/1/5 351/1/5
f 353/1/5 342/1/5 341/1/5
f 354/1/5 342/1/5 353/1/5
f 355/2/5 344/2/5 343/2/5
f 356/2/5 344/2/5 355/2/5
f 357/2/5 346/2/5 345/2/5
f 358/2/5 346/2/5 357/2/5
f 363/1/5 360/1/5 359/1/5
f 364/1/5 360/1/5 363/1/5
f 365/1/5 362/1/5 361/1/5
f 366/1/5 362/1/5 365/1/5
f 371/1/5 368/1/5 367/1/5
f 372/1/5 368/1/5 371/1/5
f 373/1/5 370/1/5 369/1/5
f 374/1/5 370/1/5 373/1/5
f 379/1/5 376/1/5 375/1/5
f 380/1/5 376/1/5 379/1/5
f 381/1/5 378/1/5 377/1/5
f 382/1/5 378/1/5 381/1/5
f 383/2/6 384/2/6 395/2/6
f 395/2/6 384/2/6 396/2/6
f 385/2/6 386/2/6 397/2/6
f 397/2/6 386/2/6 398/2/6
f 387/2/6 388/2/6 399/2/6
f 399/2/6 388/2/6 400/2/6
f 389/2/6 390/2/6 401/2/6
f 401/2/6 390/2/6 402/2/6
f 391/2/6 392/2/6 403/2/6
f 403/2/6 392/2/6 404/2/6
f 393/2/6 394/2/6 405/2/6
f 405/2/6 394/2/6 406/2/6
f 407/2/6 408/2/6 411/2/6
f 411/2/6 408/2/6 412/2/6
f 409/2/6 410/2/6 413/2/6
f 413/2/6 410/2/6 414/2/6
f 415/2/6 416/2/6 419/2/6
f 419/2/6 416/2/6 420/2/6
f 417/2/6 418/2/6 421/2/6
f 421/2/6 418/2/6 422/2/6
f 423/2/6 424/2/6 427/2/6
f 427/2/6 424/2/6 428/2/6
f 425/2/6 426/2/6 429/2/6
f 429/2/6 426/2/6 430/2/6
f 431/2/6 432/2/6 439/2/6
f 432/1/6 433/1/6 440/1/6
f 439/2/6 432/2/6 440/2/6
f 433/2/6 434/2/6 441/2/6
f 440/1/6 433/1/6 441/1/6
f 434/1/6 435/1/6 442/1/6
f 441/2/6 434/2/6 442/2/6
f 435/2/6 436/2/6 443/2/6
f 442/1/6 435/1/6 443/1/6
f 436/1/6 437/1/6 444/1/6
f 443/2/6 436/2/6 444/2/6
f 437/2/6 438/2/6 445/2/6
f 444/1/6 437/1/6 445/1/6
f 445/2/6 438/2/6 446/2/6
f 447/2/6 448/2/6 455/2/6
f 448/1/6 449/1/6 456/1/6
f 455/2/6 448/2/6 456/2/6
f 449/2/6 450/2/6 457/2/6
f 456/1/6 449/1/6 457/1/6
f 450/1/6 451/1/6 458/1/6
f 457/2/6 450/2/6 458/2/6
f 451/2/6 452/2/6 459/2/6
f 458/1/6 451/1/6 459/1/6
f 452/1/6 453/1/6 460/1/6
f 459/2/6 452/2/6 460/2/6
f 453/2/6 454/2/6 461/2/6
f 460/1/6 453/1/6 461/1/6
f 461/2/6 454/2/6 462/2/6
f 463/2/6 464/2/6 471/2/6
f 464/1/6 465/1/6 472/1/6
f 471/2/6 464/2/6 472/2/6
f 465/2/6 466/2/6 473/2/6
f 472/1/6 465/1/6 473/1/6
f 466/1/6 467/1/6 474/1/6
f 473/2/6 466/2/6 474/2/6
f 467/2/6 468/2/6 475/2/6
f 474/1/6 467/1/6 475/1/6
f 468/1/6 469/1/6 476/1/6
f 475/2/6 468/2/6 476/2/6
f 469/2/6 470/2/6 477/2/6
f 476/1/6 469/1/6 477/1/6
f 477/2/6 470/2/6 478/2/6
f 479/2/6 480/2/6 487/2/6
f 480/1/6 481/1/6 488/1/6
f 487/2/6 480/2/6 488/2/6
f 481/2/6 482/2/6 489/2/6
f 488/1/6 481/1/6 489/1/6
f 482/1/6 483/1/6 490/1/6
f 489/2/6 482/2/6 490/2/6
f 483/2/6 484/2/6 491/2/6
f 490/1/6 483/1/6 491/1/6
f 484/1/6 485/1/6 492/1/6
f 491/2/6 484/2/6 492/2/6
f 485/2/6 486/2/6 493/2/6
f 492/1/6 485/1/6 493/1/6
f 493/2/6 486/2/6 494/2/6
f 495/2/6 496/2/6 503/2/6
f 496/1/6 497/1/6 504/1/6
f 503/2/6 496/2/6 504/2/6
f 497/2/6 498/2/6 505/2/6
f 504/1/6 497/1/6 505/1/6
f 498/1/6 499/1/6 506/1/6
f 505/2/6 498/2/6 506/2/6
f 499/2/6 500/2/6 507/2/6
f 506/1/6 499/1/6 507/1/6
f 500/1/6 501/1/6 508/1/6
f 507/2/6 500/2/6 508/2/6
f 501/2/6 502/2/6 509/2/6
f 508/1/6 501/1/6 509/1/6
f 509/2/6 502/2/6 510/2/6
