# MagicaVoxel @ Ephtracy

# group
o 

# material
mtllib mimic_e_walk_1.mtl
usemtl palette

# normals
vn -1 0 0
vn 1 0 0
vn 0 0 1
vn 0 0 -1
vn 0 -1 0
vn 0 1 0

# texcoords
vt 0.724609 0.5
vt 0.822266 0.5
vt 0.880859 0.5
vt 0.947266 0.5
vt 0.970703 0.5

# verts
v -0.3 0.4 0.3
v -0.3 0.4 -0.3
v -0.3 0.5 0.2
v -0.3 0.5 -0.2
v -0.3 0.9 0.3
v -0.3 0.9 0.2
v -0.3 0.9 0.1
v -0.3 0.9 -0.1
v -0.3 0.9 -0.2
v -0.3 1 0.3
v -0.3 1 0.2
v -0.3 1 0.1
v -0.3 1 -0.1
v -0.3 1 -0.2
v -0.3 1.1 0.3
v -0.3 1.1 0.2
v -0.3 1.1 0.1
v -0.3 1.1 -0.1
v -0.3 1.1 -0.2
v -0.3 1.1 -0.3
v -0.3 1.2 0.2
v -0.3 1.2 0.1
v -0.3 1.2 -0.1
v -0.3 1.2 -0.2
v -0.3 1.3 0.1
v -0.3 1.3 -0.1
v -0.2 0.9 0.3
v -0.2 0.9 0.2
v -0.2 0.9 0.1
v -0.2 0.9 -0.1
v -0.2 1 0.3
v -0.2 1 0.2
v -0.2 1 0.1
v -0.2 1 -0.1
v 2.98023e-08 0.8 0.4
v 2.98023e-08 0.8 0.3
v 2.98023e-08 0.9 0.3
v 2.98023e-08 0.9 0.2
v 2.98023e-08 1 0.4
v 2.98023e-08 1 0.3
v 2.98023e-08 1 0.2
v 0.3 0.9 0.3
v 0.3 0.9 0.2
v 0.3 1 0.3
v 0.3 1 0.2
v -0.1 0.9 0.3
v -0.1 0.9 0.2
v -0.1 1 0.3
v -0.1 1 0.2
v 0.2 0.8 0.4
v 0.2 0.8 0.3
v 0.2 0.9 0.3
v 0.2 0.9 0.2
v 0.2 1 0.4
v 0.2 1 0.3
v 0.2 1 0.2
v 0.4 0.9 0.3
v 0.4 0.9 0.2
v 0.4 0.9 0.1
v 0.4 0.9 -0.1
v 0.4 1 0.3
v 0.4 1 0.2
v 0.4 1 0.1
v 0.4 1 -0.1
v 0.5 0.4 0.3
v 0.5 0.4 -0.3
v 0.5 0.5 0.2
v 0.5 0.5 -0.2
v 0.5 0.9 0.3
v 0.5 0.9 0.2
v 0.5 0.9 0.1
v 0.5 0.9 -0.1
v 0.5 0.9 -0.2
v 0.5 1 0.3
v 0.5 1 0.2
v 0.5 1 0.1
v 0.5 1 -0.1
v 0.5 1 -0.2
v 0.5 1.1 0.3
v 0.5 1.1 0.2
v 0.5 1.1 0.1
v 0.5 1.1 -0.1
v 0.5 1.1 -0.2
v 0.5 1.1 -0.3
v 0.5 1.2 0.2
v 0.5 1.2 0.1
v 0.5 1.2 -0.1
v 0.5 1.2 -0.2
v 0.5 1.3 0.1
v 0.5 1.3 -0.1
v 2.98023e-08 0.8 0.4
v 2.98023e-08 1 0.4
v 0.2 0.8 0.4
v 0.2 1 0.4
v -0.3 0.4 0.3
v -0.3 0.9 0.3
v -0.3 1 0.3
v -0.3 1.1 0.3
v -0.2 0.5 0.3
v -0.2 0.9 0.3
v -0.2 1 0.3
v -0.2 1.1 0.3
v -0.1 0.9 0.3
v -0.1 1 0.3
v -0.1 1.1 0.3
v 2.98023e-08 0.8 0.3
v 2.98023e-08 0.9 0.3
v 2.98023e-08 1 0.3
v 2.98023e-08 1.1 0.3
v 0.2 0.8 0.3
v 0.2 0.9 0.3
v 0.2 1 0.3
v 0.2 1.1 0.3
v 0.3 0.9 0.3
v 0.3 1 0.3
v 0.3 1.1 0.3
v 0.4 0.5 0.3
v 0.4 0.9 0.3
v 0.4 1 0.3
v 0.4 1.1 0.3
v 0.5 0.4 0.3
v 0.5 0.9 0.3
v 0.5 1 0.3
v 0.5 1.1 0.3
v -0.3 0.9 0.2
v -0.3 1 0.2
v -0.3 1.1 0.2
v -0.3 1.2 0.2
v -0.2 0.9 0.2
v -0.2 1 0.2
v -0.2 1.1 0.2
v -0.2 1.2 0.2
v -0.1 0.9 0.2
v -0.1 1 0.2
v -0.1 1.1 0.2
v -0.1 1.2 0.2
v 2.98023e-08 0.9 0.2
v 2.98023e-08 1 0.2
v 2.98023e-08 1.1 0.2
v 2.98023e-08 1.2 0.2
v 0.2 0.9 0.2
v 0.2 1 0.2
v 0.2 1.1 0.2
v 0.2 1.2 0.2
v 0.3 0.9 0.2
v 0.3 1 0.2
v 0.3 1.1 0.2
v 0.3 1.2 0.2
v 0.4 0.9 0.2
v 0.4 1 0.2
v 0.4 1.1 0.2
v 0.4 1.2 0.2
v 0.5 0.9 0.2
v 0.5 1 0.2
v 0.5 1.1 0.2
v 0.5 1.2 0.2
v -0.3 1.2 0.1
v -0.3 1.3 0.1
v -0.2 1.2 0.1
v -0.2 1.3 0.1
v -0.1 1.2 0.1
v -0.1 1.3 0.1
v 2.98023e-08 1.2 0.1
v 2.98023e-08 1.3 0.1
v 0.2 1.2 0.1
v 0.2 1.3 0.1
v 0.3 1.2 0.1
v 0.3 1.3 0.1
v 0.4 1.2 0.1
v 0.4 1.3 0.1
v 0.5 1.2 0.1
v 0.5 1.3 0.1
v -0.3 0.9 -0.1
v -0.3 1 -0.1
v -0.2 0.9 -0.1
v -0.2 1 -0.1
v 0.4 0.9 -0.1
v 0.4 1 -0.1
v 0.5 0.9 -0.1
v 0.5 1 -0.1
v -0.3 0.9 0.1
v -0.3 1 0.1
v -0.2 0.9 0.1
v -0.2 1 0.1
v 0.4 0.9 0.1
v 0.4 1 0.1
v 0.5 0.9 0.1
v 0.5 1 0.1
v -0.3 1.2 -0.1
v -0.3 1.3 -0.1
v -0.2 1.2 -0.1
v -0.2 1.3 -0.1
v -0.1 1.2 -0.1
v -0.1 1.3 -0.1
v 2.98023e-08 1.2 -0.1
v 2.98023e-08 1.3 -0.1
v 0.2 1.2 -0.1
v 0.2 1.3 -0.1
v 0.3 1.2 -0.1
v 0.3 1.3 -0.1
v 0.4 1.2 -0.1
v 0.4 1.3 -0.1
v 0.5 1.2 -0.1
v 0.5 1.3 -0.1
v -0.3 1.1 -0.2
v -0.3 1.2 -0.2
v -0.2 1.1 -0.2
v -0.2 1.2 -0.2
v -0.1 1.1 -0.2
v -0.1 1.2 -0.2
v 2.98023e-08 1.1 -0.2
v 2.98023e-08 1.2 -0.2
v 0.2 1.1 -0.2
v 0.2 1.2 -0.2
v 0.3 1.1 -0.2
v 0.3 1.2 -0.2
v 0.4 1.1 -0.2
v 0.4 1.2 -0.2
v 0.5 1.1 -0.2
v 0.5 1.2 -0.2
v -0.3 0.4 -0.3
v -0.3 1.1 -0.3
v -0.2 0.5 -0.3
v -0.2 0.9 -0.3
v -0.2 1 -0.3
v -0.2 1.1 -0.3
v -0.1 1 -0.3
v -0.1 1.1 -0.3
v 2.98023e-08 1 -0.3
v 2.98023e-08 1.1 -0.3
v 0.2 1 -0.3
v 0.2 1.1 -0.3
v 0.3 1 -0.3
v 0.3 1.1 -0.3
v 0.4 0.5 -0.3
v 0.4 0.9 -0.3
v 0.4 1 -0.3
v 0.4 1.1 -0.3
v 0.5 0.4 -0.3
v 0.5 1.1 -0.3
v -0.3 0.4 0.3
v 0.5 0.4 0.3
v -0.3 0.4 -0.3
v 0.5 0.4 -0.3
v 2.98023e-08 0.8 0.4
v 0.2 0.8 0.4
v 2.98023e-08 0.8 0.3
v 0.2 0.8 0.3
v -0.3 1 0.3
v -0.2 1 0.3
v -0.1 1 0.3
v 2.98023e-08 1 0.3
v 0.2 1 0.3
v 0.3 1 0.3
v 0.4 1 0.3
v 0.5 1 0.3
v -0.3 1 0.2
v -0.2 1 0.2
v -0.1 1 0.2
v 2.98023e-08 1 0.2
v 0.2 1 0.2
v 0.3 1 0.2
v 0.4 1 0.2
v 0.5 1 0.2
v -0.3 1 0.1
v -0.2 1 0.1
v 0.4 1 0.1
v 0.5 1 0.1
v -0.3 1 -0.1
v -0.2 1 -0.1
v 0.4 1 -0.1
v 0.5 1 -0.1
v -0.3 0.9 0.3
v -0.2 0.9 0.3
v -0.1 0.9 0.3
v 2.98023e-08 0.9 0.3
v 0.2 0.9 0.3
v 0.3 0.9 0.3
v 0.4 0.9 0.3
v 0.5 0.9 0.3
v -0.3 0.9 0.2
v -0.2 0.9 0.2
v -0.1 0.9 0.2
v 2.98023e-08 0.9 0.2
v 0.2 0.9 0.2
v 0.3 0.9 0.2
v 0.4 0.9 0.2
v 0.5 0.9 0.2
v -0.3 0.9 0.1
v -0.2 0.9 0.1
v 0.4 0.9 0.1
v 0.5 0.9 0.1
v -0.3 0.9 -0.1
v -0.2 0.9 -0.1
v 0.4 0.9 -0.1
v 0.5 0.9 -0.1
v 2.98023e-08 1 0.4
v 0.2 1 0.4
v 2.98023e-08 1 0.3
v 0.2 1 0.3
v -0.3 1.1 0.3
v -0.2 1.1 0.3
v -0.1 1.1 0.3
v 2.98023e-08 1.1 0.3
v 0.2 1.1 0.3
v 0.3 1.1 0.3
v 0.4 1.1 0.3
v 0.5 1.1 0.3
v -0.3 1.1 0.2
v -0.2 1.1 0.2
v -0.1 1.1 0.2
v 2.98023e-08 1.1 0.2
v 0.2 1.1 0.2
v 0.3 1.1 0.2
v 0.4 1.1 0.2
v 0.5 1.1 0.2
v -0.3 1.1 -0.2
v -0.2 1.1 -0.2
v -0.1 1.1 -0.2
v 2.98023e-08 1.1 -0.2
v 0.2 1.1 -0.2
v 0.3 1.1 -0.2
v 0.4 1.1 -0.2
v 0.5 1.1 -0.2
v -0.3 1.1 -0.3
v -0.2 1.1 -0.3
v -0.1 1.1 -0.3
v 2.98023e-08 1.1 -0.3
v 0.2 1.1 -0.3
v 0.3 1.1 -0.3
v 0.4 1.1 -0.3
v 0.5 1.1 -0.3
v -0.3 1.2 0.2
v -0.2 1.2 0.2
v -0.1 1.2 0.2
v 2.98023e-08 1.2 0.2
v 0.2 1.2 0.2
v 0.3 1.2 0.2
v 0.4 1.2 0.2
v 0.5 1.2 0.2
v -0.3 1.2 0.1
v -0.2 1.2 0.1
v -0.1 1.2 0.1
v 2.98023e-08 1.2 0.1
v 0.2 1.2 0.1
v 0.3 1.2 0.1
v 0.4 1.2 0.1
v 0.5 1.2 0.1
v -0.3 1.2 -0.1
v -0.2 1.2 -0.1
v -0.1 1.2 -0.1
v 2.98023e-08 1.2 -0.1
v 0.2 1.2 -0.1
v 0.3 1.2 -0.1
v 0.4 1.2 -0.1
v 0.5 1.2 -0.1
v -0.3 1.2 -0.2
v -0.2 1.2 -0.2
v -0.1 1.2 -0.2
v 2.98023e-08 1.2 -0.2
v 0.2 1.2 -0.2
v 0.3 1.2 -0.2
v 0.4 1.2 -0.2
v 0.5 1.2 -0.2
v -0.3 1.3 0.1
v -0.2 1.3 0.1
v -0.1 1.3 0.1
v 2.98023e-08 1.3 0.1
v 0.2 1.3 0.1
v 0.3 1.3 0.1
v 0.4 1.3 0.1
v 0.5 1.3 0.1
v -0.3 1.3 -0.1
v -0.2 1.3 -0.1
v -0.1 1.3 -0.1
v 2.98023e-08 1.3 -0.1
v 0.2 1.3 -0.1
v 0.3 1.3 -0.1
v 0.4 1.3 -0.1
v 0.5 1.3 -0.1

# faces
f 3/2/1 2/2/1 1/2/1
f 4/2/1 2/2/1 3/2/1
f 5/2/1 3/2/1 1/2/1
f 6/1/1 4/1/1 3/1/1
f 6/2/1 3/2/1 5/2/1
f 7/1/1 4/1/1 6/1/1
f 8/1/1 4/1/1 7/1/1
f 9/2/1 2/2/1 4/2/1
f 9/1/1 4/1/1 8/1/1
f 11/4/1 7/4/1 6/4/1
f 12/4/1 7/4/1 11/4/1
f 13/4/1 9/4/1 8/4/1
f 14/2/1 2/2/1 9/2/1
f 14/4/1 9/4/1 13/4/1
f 15/2/1 11/2/1 10/2/1
f 16/1/1 13/1/1 12/1/1
f 16/2/1 11/2/1 15/2/1
f 16/1/1 12/1/1 11/1/1
f 16/1/1 14/1/1 13/1/1
f 17/1/1 14/1/1 16/1/1
f 18/1/1 14/1/1 17/1/1
f 19/2/1 2/2/1 14/2/1
f 19/1/1 14/1/1 18/1/1
f 20/2/1 2/2/1 19/2/1
f 21/2/1 17/2/1 16/2/1
f 22/1/1 18/1/1 17/1/1
f 22/2/1 17/2/1 21/2/1
f 23/2/1 19/2/1 18/2/1
f 23/1/1 18/1/1 22/1/1
f 24/2/1 19/2/1 23/2/1
f 25/2/1 23/2/1 22/2/1
f 26/2/1 23/2/1 25/2/1
f 31/4/1 28/4/1 27/4/1
f 32/4/1 28/4/1 31/4/1
f 33/5/1 30/5/1 29/5/1
f 34/5/1 30/5/1 33/5/1
f 37/3/1 36/3/1 35/3/1
f 39/3/1 37/3/1 35/3/1
f 39/3/1 38/3/1 37/3/1
f 40/3/1 38/3/1 39/3/1
f 41/3/1 38/3/1 40/3/1
f 44/4/1 43/4/1 42/4/1
f 45/4/1 43/4/1 44/4/1
f 46/4/2 47/4/2 48/4/2
f 48/4/2 47/4/2 49/4/2
f 50/3/2 51/3/2 52/3/2
f 50/3/2 52/3/2 54/3/2
f 52/3/2 53/3/2 54/3/2
f 54/3/2 53/3/2 55/3/2
f 55/3/2 53/3/2 56/3/2
f 57/4/2 58/4/2 61/4/2
f 61/4/2 58/4/2 62/4/2
f 59/5/2 60/5/2 63/5/2
f 63/5/2 60/5/2 64/5/2
f 65/2/2 66/2/2 67/2/2
f 67/2/2 66/2/2 68/2/2
f 65/2/2 67/2/2 69/2/2
f 67/1/2 68/1/2 70/1/2
f 69/2/2 67/2/2 70/2/2
f 70/1/2 68/1/2 71/1/2
f 71/1/2 68/1/2 72/1/2
f 68/2/2 66/2/2 73/2/2
f 72/1/2 68/1/2 73/1/2
f 70/4/2 71/4/2 75/4/2
f 75/4/2 71/4/2 76/4/2
f 72/4/2 73/4/2 77/4/2
f 73/2/2 66/2/2 78/2/2
f 77/4/2 73/4/2 78/4/2
f 74/2/2 75/2/2 79/2/2
f 76/1/2 77/1/2 80/1/2
f 79/2/2 75/2/2 80/2/2
f 75/1/2 76/1/2 80/1/2
f 77/1/2 78/1/2 80/1/2
f 80/1/2 78/1/2 81/1/2
f 81/1/2 78/1/2 82/1/2
f 78/2/2 66/2/2 83/2/2
f 82/1/2 78/1/2 83/1/2
f 83/2/2 66/2/2 84/2/2
f 80/2/2 81/2/2 85/2/2
f 81/1/2 82/1/2 86/1/2
f 85/2/2 81/2/2 86/2/2
f 82/2/2 83/2/2 87/2/2
f 86/1/2 82/1/2 87/1/2
f 87/2/2 83/2/2 88/2/2
f 86/2/2 87/2/2 89/2/2
f 89/2/2 87/2/2 90/2/2
f 93/3/3 92/3/3 91/3/3
f 94/3/3 92/3/3 93/3/3
f 99/2/3 96/2/3 95/2/3
f 100/2/3 96/2/3 99/2/3
f 101/2/3 98/2/3 97/2/3
f 102/2/3 98/2/3 101/2/3
f 103/1/3 100/1/3 99/1/3
f 103/4/3 101/4/3 100/4/3
f 104/1/3 102/1/3 101/1/3
f 104/4/3 101/4/3 103/4/3
f 105/1/3 102/1/3 104/1/3
f 106/1/3 103/1/3 99/1/3
f 107/1/3 103/1/3 106/1/3
f 108/2/3 105/2/3 104/2/3
f 109/2/3 105/2/3 108/2/3
f 110/1/3 106/1/3 99/1/3
f 112/1/3 109/1/3 108/1/3
f 113/1/3 109/1/3 112/1/3
f 114/1/3 111/1/3 110/1/3
f 115/2/3 113/2/3 112/2/3
f 116/2/3 113/2/3 115/2/3
f 117/2/3 99/2/3 95/2/3
f 117/1/3 110/1/3 99/1/3
f 117/1/3 114/1/3 110/1/3
f 118/4/3 115/4/3 114/4/3
f 118/1/3 114/1/3 117/1/3
f 119/1/3 116/1/3 115/1/3
f 119/4/3 115/4/3 118/4/3
f 120/1/3 116/1/3 119/1/3
f 121/2/3 118/2/3 117/2/3
f 121/2/3 117/2/3 95/2/3
f 122/2/3 118/2/3 121/2/3
f 123/2/3 120/2/3 119/2/3
f 124/2/3 120/2/3 123/2/3
f 129/4/3 126/4/3 125/4/3
f 130/4/3 126/4/3 129/4/3
f 131/2/3 128/2/3 127/2/3
f 132/2/3 128/2/3 131/2/3
f 135/1/3 132/1/3 131/1/3
f 136/1/3 132/1/3 135/1/3
f 137/5/3 134/5/3 133/5/3
f 138/5/3 134/5/3 137/5/3
f 139/2/3 136/2/3 135/2/3
f 140/2/3 136/2/3 139/2/3
f 143/1/3 140/1/3 139/1/3
f 144/1/3 140/1/3 143/1/3
f 145/5/3 142/5/3 141/5/3
f 146/5/3 142/5/3 145/5/3
f 147/2/3 144/2/3 143/2/3
f 148/2/3 144/2/3 147/2/3
f 151/1/3 148/1/3 147/1/3
f 152/1/3 148/1/3 151/1/3
f 153/4/3 150/4/3 149/4/3
f 154/4/3 150/4/3 153/4/3
f 155/2/3 152/2/3 151/2/3
f 156/2/3 152/2/3 155/2/3
f 159/2/3 158/2/3 157/2/3
f 160/2/3 158/2/3 159/2/3
f 161/1/3 160/1/3 159/1/3
f 162/1/3 160/1/3 161/1/3
f 163/2/3 162/2/3 161/2/3
f 164/2/3 162/2/3 163/2/3
f 165/1/3 164/1/3 163/1/3
f 166/1/3 164/1/3 165/1/3
f 167/2/3 166/2/3 165/2/3
f 168/2/3 166/2/3 167/2/3
f 169/1/3 168/1/3 167/1/3
f 170/1/3 168/1/3 169/1/3
f 171/2/3 170/2/3 169/2/3
f 172/2/3 170/2/3 171/2/3
f 175/4/3 174/4/3 173/4/3
f 176/4/3 174/4/3 175/4/3
f 179/4/3 178/4/3 177/4/3
f 180/4/3 178/4/3 179/4/3
f 181/4/4 182/4/4 183/4/4
f 183/4/4 182/4/4 184/4/4
f 185/4/4 186/4/4 187/4/4
f 187/4/4 186/4/4 188/4/4
f 189/2/4 190/2/4 191/2/4
f 191/2/4 190/2/4 192/2/4
f 191/1/4 192/1/4 193/1/4
f 193/1/4 192/1/4 194/1/4
f 193/2/4 194/2/4 195/2/4
f 195/2/4 194/2/4 196/2/4
f 195/1/4 196/1/4 197/1/4
f 197/1/4 196/1/4 198/1/4
f 197/2/4 198/2/4 199/2/4
f 199/2/4 198/2/4 200/2/4
f 199/1/4 200/1/4 201/1/4
f 201/1/4 200/1/4 202/1/4
f 201/2/4 202/2/4 203/2/4
f 203/2/4 202/2/4 204/2/4
f 205/2/4 206/2/4 207/2/4
f 207/2/4 206/2/4 208/2/4
f 207/1/4 208/1/4 209/1/4
f 209/1/4 208/1/4 210/1/4
f 209/2/4 210/2/4 211/2/4
f 211/2/4 210/2/4 212/2/4
f 211/1/4 212/1/4 213/1/4
f 213/1/4 212/1/4 214/1/4
f 213/2/4 214/2/4 215/2/4
f 215/2/4 214/2/4 216/2/4
f 215/1/4 216/1/4 217/1/4
f 217/1/4 216/1/4 218/1/4
f 217/2/4 218/2/4 219/2/4
f 219/2/4 218/2/4 220/2/4
f 221/2/4 222/2/4 223/2/4
f 223/2/4 222/2/4 224/2/4
f 224/2/4 222/2/4 225/2/4
f 225/2/4 222/2/4 226/2/4
f 224/2/4 225/2/4 227/2/4
f 225/1/4 226/1/4 227/1/4
f 227/1/4 226/1/4 228/1/4
f 224/2/4 227/2/4 229/2/4
f 227/2/4 228/2/4 229/2/4
f 229/2/4 228/2/4 230/2/4
f 224/2/4 229/2/4 231/2/4
f 229/1/4 230/1/4 231/1/4
f 231/1/4 230/1/4 232/1/4
f 224/2/4 231/2/4 233/2/4
f 231/2/4 232/2/4 233/2/4
f 233/2/4 232/2/4 234/2/4
f 221/2/4 223/2/4 235/2/4
f 223/1/4 224/1/4 235/1/4
f 224/2/4 233/2/4 236/2/4
f 235/1/4 224/1/4 236/1/4
f 233/1/4 234/1/4 237/1/4
f 236/2/4 233/2/4 237/2/4
f 237/1/4 234/1/4 238/1/4
f 235/2/4 236/2/4 239/2/4
f 221/2/4 235/2/4 239/2/4
f 237/2/4 238/2/4 239/2/4
f 236/2/4 237/2/4 239/2/4
f 239/2/4 238/2/4 240/2/4
f 243/2/5 242/2/5 241/2/5
f 244/2/5 242/2/5 243/2/5
f 247/3/5 246/3/5 245/3/5
f 248/3/5 246/3/5 247/3/5
f 257/2/5 250/2/5 249/2/5
f 258/2/5 250/2/5 257/2/5
f 259/2/5 252/2/5 251/2/5
f 260/2/5 252/2/5 259/2/5
f 261/2/5 254/2/5 253/2/5
f 262/2/5 254/2/5 261/2/5
f 263/2/5 256/2/5 255/2/5
f 264/2/5 256/2/5 263/2/5
f 269/1/5 266/1/5 265/1/5
f 270/1/5 266/1/5 269/1/5
f 271/1/5 268/1/5 267/1/5
f 272/1/5 268/1/5 271/1/5
f 273/2/6 274/2/6 281/2/6
f 281/2/6 274/2/6 282/2/6
f 275/1/6 276/1/6 283/1/6
f 283/1/6 276/1/6 284/1/6
f 277/1/6 278/1/6 285/1/6
f 285/1/6 278/1/6 286/1/6
f 279/2/6 280/2/6 287/2/6
f 287/2/6 280/2/6 288/2/6
f 289/1/6 290/1/6 293/1/6
f 293/1/6 290/1/6 294/1/6
f 291/1/6 292/1/6 295/1/6
f 295/1/6 292/1/6 296/1/6
f 297/3/6 298/3/6 299/3/6
f 299/3/6 298/3/6 300/3/6
f 301/2/6 302/2/6 309/2/6
f 302/1/6 303/1/6 310/1/6
f 309/2/6 302/2/6 310/2/6
f 303/2/6 304/2/6 311/2/6
f 310/1/6 303/1/6 311/1/6
f 304/1/6 305/1/6 312/1/6
f 311/2/6 304/2/6 312/2/6
f 305/2/6 306/2/6 313/2/6
f 312/1/6 305/1/6 313/1/6
f 306/1/6 307/1/6 314/1/6
f 313/2/6 306/2/6 314/2/6
f 307/2/6 308/2/6 315/2/6
f 314/1/6 307/1/6 315/1/6
f 315/2/6 308/2/6 316/2/6
f 317/2/6 318/2/6 325/2/6
f 318/1/6 319/1/6 326/1/6
f 325/2/6 318/2/6 326/2/6
f 319/2/6 320/2/6 327/2/6
f 326/1/6 319/1/6 327/1/6
f 320/1/6 321/1/6 328/1/6
f 327/2/6 320/2/6 328/2/6
f 321/2/6 322/2/6 329/2/6
f 328/1/6 321/1/6 329/1/6
f 322/1/6 323/1/6 330/1/6
f 329/2/6 322/2/6 330/2/6
f 323/2/6 324/2/6 331/2/6
f 330/1/6 323/1/6 331/1/6
f 331/2/6 324/2/6 332/2/6
f 333/2/6 334/2/6 341/2/6
f 334/1/6 335/1/6 342/1/6
f 341/2/6 334/2/6 342/2/6
f 335/2/6 336/2/6 343/2/6
f 342/1/6 335/1/6 343/1/6
f 336/1/6 337/1/6 344/1/6
f 343/2/6 336/2/6 344/2/6
f 337/2/6 338/2/6 345/2/6
f 344/1/6 337/1/6 345/1/6
f 338/1/6 339/1/6 346/1/6
f 345/2/6 338/2/6 346/2/6
f 339/2/6 340/2/6 347/2/6
f 346/1/6 339/1/6 347/1/6
f 347/2/6 340/2/6 348/2/6
f 349/2/6 350/2/6 357/2/6
f 350/1/6 351/1/6 358/1/6
f 357/2/6 350/2/6 358/2/6
f 351/2/6 352/2/6 359/2/6
f 358/1/6 351/1/6 359/1/6
f 352/1/6 353/1/6 360/1/6
f 359/2/6 352/2/6 360/2/6
f 353/2/6 354/2/6 361/2/6
f 360/1/6 353/1/6 361/1/6
f 354/1/6 355/1/6 362/1/6
f 361/2/6 354/2/6 362/2/6
f 355/2/6 356/2/6 363/2/6
f 362/1/6 355/1/6 363/1/6
f 363/2/6 356/2/6 364/2/6
f 365/2/6 366/2/6 373/2/6
f 366/1/6 367/1/6 374/1/6
f 373/2/6 366/2/6 374/2/6
f 367/2/6 368/2/6 375/2/6
f 374/1/6 367/1/6 375/1/6
f 368/1/6 369/1/6 376/1/6
f 375/2/6 368/2/6 376/2/6
f 369/2/6 370/2/6 377/2/6
f 376/1/6 369/1/6 377/1/6
f 370/1/6 371/1/6 378/1/6
f 377/2/6 370/2/6 378/2/6
f 371/2/6 372/2/6 379/2/6
f 378/1/6 371/1/6 379/1/6
f 379/2/6 372/2/6 380/2/6
