# MagicaVoxel @ Ephtracy

# group
o 

# material
mtllib adventurer_walk_2.mtl
usemtl palette

# normals
vn -1 0 0
vn 1 0 0
vn 0 0 1
vn 0 0 -1
vn 0 -1 0
vn 0 1 0

# texcoords
vt 0.783203 0.5
vt 0.787109 0.5
vt 0.791016 0.5
vt 0.814453 0.5
vt 0.818359 0.5
vt 0.888672 0.5
vt 0.912109 0.5
vt 0.939453 0.5
vt 0.974609 0.5

# verts
v -0.4 0.5 -0.1
v -0.4 0.5 -0.3
v -0.4 0.8 -0.1
v -0.4 0.8 -0.3
v -0.3 0.4 -0.1
v -0.3 0.4 -0.4
v -0.3 0.5 0.5
v -0.3 0.5 0.4
v -0.3 0.5 -0.1
v -0.3 0.5 -0.3
v -0.3 0.6 0.5
v -0.3 0.6 0.4
v -0.3 0.6 0.1
v -0.3 0.7 0.6
v -0.3 0.7 0.5
v -0.3 0.7 0.3
v -0.3 0.7 0.2
v -0.3 0.7 0.1
v -0.3 0.7 0
v -0.3 0.8 0.6
v -0.3 0.8 0.5
v -0.3 0.8 0.4
v -0.3 0.8 0.3
v -0.3 0.8 -0.1
v -0.3 0.8 -0.3
v -0.3 0.9 0.2
v -0.3 0.9 0
v -0.3 0.9 -0.1
v -0.3 0.9 -0.4
v -0.3 1 0
v -0.3 1 -0.3
v -0.3 1.1 0.5
v -0.3 1.1 0.4
v -0.3 1.1 -0.1
v -0.3 1.1 -0.2
v -0.3 1.2 -0.1
v -0.3 1.2 -0.2
v -0.3 1.3 0
v -0.3 1.3 -0.3
v -0.2 0.2 0.1
v -0.2 0.2 -0.1
v -0.2 0.3 0.2
v -0.2 0.3 0.1
v -0.2 0.4 -0.1
v -0.2 0.4 -0.4
v -0.2 0.4 -0.5
v -0.2 0.5 0.2
v -0.2 0.5 -0.1
v -0.2 0.6 0.2
v -0.2 0.6 0.1
v -0.2 0.6 -0.1
v -0.2 0.7 0.1
v -0.2 0.7 0
v -0.2 0.8 -0.4
v -0.2 0.8 -0.5
v -0.2 0.9 0.2
v -0.2 0.9 0
v -0.2 0.9 -0.1
v -0.2 0.9 -0.3
v -0.2 1 0.2
v -0.2 1 0
v -0.2 1 -0.3
v -0.2 1.1 0.4
v -0.2 1.1 0
v -0.2 1.2 0.4
v -0.2 1.2 0
v -0.1 0.1 -0.2
v -0.1 0.1 -0.3
v -0.1 0.2 -0.1
v -0.1 0.2 -0.2
v -0.1 0.3 -0.1
v -0.1 0.3 -0.3
v -0.1 0.9 0.3
v -0.1 0.9 0.2
v -0.1 1 0.2
v -0.1 1 0
v -0.1 1.1 0.3
v -0.1 1.1 0
v -0.1 1.2 0.3
v -0.1 1.2 0
v -0.1 1.3 0.3
v -0.1 1.3 0
v 0.1 0 0.4
v 0.1 0 0.2
v 0.1 0.1 0.4
v 0.1 0.1 0.3
v 0.1 0.2 0.3
v 0.1 0.2 0.2
v 0.1 0.2 0.1
v 0.1 0.3 0.2
v 0.1 0.3 0.1
v 0.1 0.4 0.3
v 0.1 0.4 0.2
v 0.2 0.9 0
v 0.2 0.9 -0.1
v 0.2 1 0
v 0.2 1 -0.1
v 0.3 0.6 0.3
v 0.3 0.6 0.2
v 0.3 0.7 0.3
v 0.3 0.7 0.2
v 0.3 0.8 0.3
v 0.3 0.8 0.2
v 0.3 1 0.3
v 0.3 1 0.2
v 0.3 1.1 0.3
v 0.3 1.1 0.2
v -0.2 0.5 0.5
v -0.2 0.5 0.4
v -0.2 0.6 0.5
v -0.2 0.6 0.4
v -0.2 0.6 0.2
v -0.2 0.7 0.6
v -0.2 0.7 0.5
v -0.2 0.7 0.3
v -0.2 0.7 0.2
v -0.2 0.8 0.6
v -0.2 0.8 0.5
v -0.2 0.8 0.4
v -0.2 0.8 0.3
v -0.2 1.1 0.5
v -0.2 1.1 0.4
v -0.1 0.9 0
v -0.1 0.9 -0.1
v -0.1 1 0
v -0.1 1 -0.1
v 0 0.1 -0.2
v 0 0.1 -0.3
v 0 0.2 0.1
v 0 0.2 -0.1
v 0 0.2 -0.2
v 0 0.3 0.1
v 0 0.3 -0.1
v 0 0.3 -0.3
v 0.2 0 0.4
v 0.2 0 0.2
v 0.2 0.1 0.4
v 0.2 0.1 0.3
v 0.2 0.2 0.3
v 0.2 0.2 0.2
v 0.2 0.9 0.3
v 0.2 0.9 0.2
v 0.2 1 0.2
v 0.2 1 0
v 0.2 1.1 0.3
v 0.2 1.1 0
v 0.2 1.2 0.3
v 0.2 1.2 0
v 0.2 1.3 0.3
v 0.2 1.3 0
v 0.3 0.2 0.3
v 0.3 0.2 0.1
v 0.3 0.3 0.1
v 0.3 0.3 -0.1
v 0.3 0.4 0.3
v 0.3 0.4 0.2
v 0.3 0.4 -0.1
v 0.3 0.4 -0.4
v 0.3 0.4 -0.5
v 0.3 0.5 0.2
v 0.3 0.5 -0.1
v 0.3 0.6 0.2
v 0.3 0.6 0.1
v 0.3 0.6 -0.1
v 0.3 0.7 0.2
v 0.3 0.7 0.1
v 0.3 0.7 -0.1
v 0.3 0.8 0.2
v 0.3 0.8 0.1
v 0.3 0.8 -0.4
v 0.3 0.8 -0.5
v 0.3 0.9 -0.1
v 0.3 0.9 -0.3
v 0.3 1 0.2
v 0.3 1 0.1
v 0.3 1 -0.1
v 0.3 1 -0.3
v 0.3 1.1 0.4
v 0.3 1.1 0.3
v 0.3 1.1 0.2
v 0.3 1.1 0
v 0.3 1.2 0.4
v 0.3 1.2 0
v 0.4 0.4 -0.1
v 0.4 0.4 -0.4
v 0.4 0.5 -0.1
v 0.4 0.5 -0.3
v 0.4 0.6 0.3
v 0.4 0.6 0.2
v 0.4 0.7 0.3
v 0.4 0.7 0.2
v 0.4 0.7 -0.1
v 0.4 0.8 0.3
v 0.4 0.8 0.2
v 0.4 0.8 0.1
v 0.4 0.8 -0.1
v 0.4 0.8 -0.3
v 0.4 0.9 -0.1
v 0.4 0.9 -0.4
v 0.4 1 0.3
v 0.4 1 0.2
v 0.4 1 0.1
v 0.4 1 0
v 0.4 1 -0.1
v 0.4 1 -0.3
v 0.4 1.1 0.3
v 0.4 1.1 0.2
v 0.4 1.1 -0.1
v 0.4 1.1 -0.2
v 0.4 1.2 -0.1
v 0.4 1.2 -0.2
v 0.4 1.3 0
v 0.4 1.3 -0.3
v 0.5 0.5 -0.1
v 0.5 0.5 -0.3
v 0.5 0.8 -0.1
v 0.5 0.8 -0.3
v -0.3 0.7 0.6
v -0.3 0.8 0.6
v -0.2 0.7 0.6
v -0.2 0.8 0.6
v -0.3 0.5 0.5
v -0.3 0.6 0.5
v -0.3 0.7 0.5
v -0.3 0.8 0.5
v -0.3 1.1 0.5
v -0.2 0.5 0.5
v -0.2 0.6 0.5
v -0.2 0.7 0.5
v -0.2 0.8 0.5
v -0.2 1.1 0.5
v -0.2 1.1 0.4
v -0.2 1.2 0.4
v 0.1 0 0.4
v 0.1 0.1 0.4
v 0.2 0 0.4
v 0.2 0.1 0.4
v 0.3 1.1 0.4
v 0.3 1.2 0.4
v -0.1 0.9 0.3
v -0.1 1.1 0.3
v -0.1 1.2 0.3
v -0.1 1.3 0.3
v 0.1 0.1 0.3
v 0.1 0.2 0.3
v 0.1 0.4 0.3
v 0.2 0.1 0.3
v 0.2 0.2 0.3
v 0.2 0.9 0.3
v 0.2 1.1 0.3
v 0.2 1.2 0.3
v 0.2 1.3 0.3
v 0.3 0.2 0.3
v 0.3 0.4 0.3
v 0.3 0.6 0.3
v 0.3 0.7 0.3
v 0.3 0.8 0.3
v 0.3 1 0.3
v 0.3 1.1 0.3
v 0.4 0.6 0.3
v 0.4 0.7 0.3
v 0.4 0.8 0.3
v 0.4 1 0.3
v 0.4 1.1 0.3
v -0.3 0.7 0.2
v -0.3 0.9 0.2
v -0.2 0.3 0.2
v -0.2 0.5 0.2
v -0.2 0.6 0.2
v -0.2 0.7 0.2
v -0.2 0.9 0.2
v -0.2 1 0.2
v -0.1 0.5 0.2
v -0.1 0.9 0.2
v -0.1 1 0.2
v 0 0.6 0.2
v 0 0.9 0.2
v 0.1 0.3 0.2
v 0.1 0.4 0.2
v 0.1 0.6 0.2
v 0.1 0.9 0.2
v 0.2 0.5 0.2
v 0.2 0.9 0.2
v 0.2 1 0.2
v 0.3 0.4 0.2
v 0.3 0.5 0.2
v 0.3 0.6 0.2
v 0.3 0.7 0.2
v 0.3 0.8 0.2
v 0.3 1 0.2
v -0.2 0.2 0.1
v -0.2 0.3 0.1
v 0 0.2 0.1
v 0 0.3 0.1
v 0.3 0.8 0.1
v 0.3 1 0.1
v 0.4 0.8 0.1
v 0.4 1 0.1
v -0.3 1 0
v -0.3 1.3 0
v -0.2 1 0
v -0.2 1.1 0
v -0.2 1.2 0
v -0.1 1 0
v -0.1 1.1 0
v -0.1 1.2 0
v -0.1 1.3 0
v 0.2 1 0
v 0.2 1.1 0
v 0.2 1.2 0
v 0.2 1.3 0
v 0.3 1 0
v 0.3 1.1 0
v 0.3 1.2 0
v 0.4 1 0
v 0.4 1.3 0
v -0.4 0.5 -0.1
v -0.4 0.8 -0.1
v -0.3 0.4 -0.1
v -0.3 0.5 -0.1
v -0.3 0.8 -0.1
v -0.3 0.9 -0.1
v -0.2 0.4 -0.1
v -0.2 0.5 -0.1
v -0.2 0.6 -0.1
v -0.2 0.9 -0.1
v -0.1 0.9 -0.1
v -0.1 1 -0.1
v 0.2 0.9 -0.1
v 0.2 1 -0.1
v 0.3 0.4 -0.1
v 0.3 0.5 -0.1
v 0.3 0.6 -0.1
v 0.3 0.7 -0.1
v 0.4 0.4 -0.1
v 0.4 0.5 -0.1
v 0.4 0.7 -0.1
v 0.4 0.8 -0.1
v 0.5 0.5 -0.1
v 0.5 0.8 -0.1
v -0.1 0.1 -0.2
v -0.1 0.2 -0.2
v 0 0.1 -0.2
v 0 0.2 -0.2
v -0.3 0.5 0.4
v -0.3 0.6 0.4
v -0.3 0.8 0.4
v -0.3 1.1 0.4
v -0.2 0.5 0.4
v -0.2 0.6 0.4
v -0.2 0.8 0.4
v -0.2 1.1 0.4
v -0.3 0.7 0.3
v -0.3 0.8 0.3
v -0.2 0.7 0.3
v -0.2 0.8 0.3
v 0.1 0 0.2
v 0.1 0.2 0.2
v 0.2 0 0.2
v 0.2 0.2 0.2
v 0.3 0.6 0.2
v 0.3 0.7 0.2
v 0.3 0.8 0.2
v 0.3 1 0.2
v 0.3 1.1 0.2
v 0.4 0.6 0.2
v 0.4 0.7 0.2
v 0.4 0.8 0.2
v 0.4 1 0.2
v 0.4 1.1 0.2
v -0.3 0.6 0.1
v -0.3 0.7 0.1
v -0.2 0.6 0.1
v -0.2 0.7 0.1
v 0.1 0.2 0.1
v 0.1 0.3 0.1
v 0.3 0.2 0.1
v 0.3 0.3 0.1
v -0.3 0.7 0
v -0.3 0.9 0
v -0.2 0.7 0
v -0.2 0.9 0
v -0.1 0.9 0
v -0.1 1 0
v 0.2 0.9 0
v 0.2 1 0
v -0.2 0.2 -0.1
v -0.2 0.4 -0.1
v -0.1 0.2 -0.1
v -0.1 0.3 -0.1
v 0 0.3 -0.1
v 0.3 0.3 -0.1
v 0.3 0.4 -0.1
v 0.3 0.9 -0.1
v 0.3 1 -0.1
v 0.4 0.9 -0.1
v 0.4 1 -0.1
v -0.4 0.5 -0.3
v -0.4 0.8 -0.3
v -0.3 0.5 -0.3
v -0.3 0.8 -0.3
v -0.3 1 -0.3
v -0.3 1.3 -0.3
v -0.2 0.9 -0.3
v -0.2 1 -0.3
v -0.1 0.1 -0.3
v -0.1 0.3 -0.3
v 0 0.1 -0.3
v 0 0.3 -0.3
v 0.3 0.9 -0.3
v 0.3 1 -0.3
v 0.4 0.5 -0.3
v 0.4 0.8 -0.3
v 0.4 1 -0.3
v 0.4 1.3 -0.3
v 0.5 0.5 -0.3
v 0.5 0.8 -0.3
v -0.3 0.4 -0.4
v -0.3 0.9 -0.4
v -0.2 0.4 -0.4
v -0.2 0.8 -0.4
v 0.3 0.4 -0.4
v 0.3 0.8 -0.4
v 0.4 0.4 -0.4
v 0.4 0.9 -0.4
v -0.2 0.4 -0.5
v -0.2 0.8 -0.5
v 0.3 0.4 -0.5
v 0.3 0.8 -0.5
v 0.1 0 0.4
v 0.2 0 0.4
v 0.1 0 0.2
v 0.2 0 0.2
v -0.1 0.1 -0.2
v 0 0.1 -0.2
v -0.1 0.1 -0.3
v 0 0.1 -0.3
v 0.2 0.2 0.3
v 0.3 0.2 0.3
v 0.1 0.2 0.2
v 0.2 0.2 0.2
v -0.2 0.2 0.1
v 0 0.2 0.1
v 0.1 0.2 0.1
v 0.3 0.2 0.1
v -0.2 0.2 -0.1
v -0.1 0.2 -0.1
v 0 0.2 -0.1
v -0.1 0.2 -0.2
v 0 0.2 -0.2
v -0.2 0.3 0.2
v 0.1 0.3 0.2
v -0.2 0.3 0.1
v 0 0.3 0.1
v 0.1 0.3 0.1
v 0.3 0.3 0.1
v 0 0.3 -0.1
v 0.3 0.3 -0.1
v -0.3 0.4 -0.1
v -0.2 0.4 -0.1
v 0.3 0.4 -0.1
v 0.4 0.4 -0.1
v -0.3 0.4 -0.4
v -0.2 0.4 -0.4
v 0.3 0.4 -0.4
v 0.4 0.4 -0.4
v -0.2 0.4 -0.5
v 0.3 0.4 -0.5
v -0.3 0.5 0.5
v -0.2 0.5 0.5
v -0.3 0.5 0.4
v -0.2 0.5 0.4
v -0.4 0.5 -0.1
v -0.3 0.5 -0.1
v 0.4 0.5 -0.1
v 0.5 0.5 -0.1
v -0.4 0.5 -0.3
v -0.3 0.5 -0.3
v 0.4 0.5 -0.3
v 0.5 0.5 -0.3
v -0.3 0.6 0.4
v -0.2 0.6 0.4
v 0.3 0.6 0.3
v 0.4 0.6 0.3
v -0.2 0.6 0.2
v 0.3 0.6 0.2
v 0.4 0.6 0.2
v -0.3 0.6 0.1
v -0.2 0.6 0.1
v -0.3 0.7 0.6
v -0.2 0.7 0.6
v -0.3 0.7 0.5
v -0.2 0.7 0.5
v 0.3 0.7 0.2
v 0.4 0.7 0.2
v -0.3 0.7 0.1
v -0.2 0.7 0.1
v 0.3 0.7 0.1
v -0.3 0.7 0
v -0.2 0.7 0
v 0.3 0.7 -0.1
v 0.4 0.7 -0.1
v -0.1 0.9 0.3
v 0.2 0.9 0.3
v -0.1 0.9 0.2
v 0 0.9 0.2
v 0.1 0.9 0.2
v 0.2 0.9 0.2
v -0.3 1 0
v -0.2 1 0
v -0.1 1 0
v 0.2 1 0
v -0.1 1 -0.1
v 0.2 1 -0.1
v 0.3 1 -0.1
v 0.4 1 -0.1
v -0.3 1 -0.3
v -0.2 1 -0.3
v 0.3 1 -0.3
v 0.4 1 -0.3
v -0.2 1.1 0.4
v 0.3 1.1 0.4
v -0.1 1.1 0.3
v 0.2 1.1 0.3
v 0.3 1.1 0.3
v 0.3 1.1 0.2
v -0.2 1.1 0
v -0.1 1.1 0
v 0.2 1.1 0
v 0.3 1.1 0
v 0.1 0.1 0.4
v 0.2 0.1 0.4
v 0.1 0.1 0.3
v 0.2 0.1 0.3
v -0.1 0.3 -0.1
v 0 0.3 -0.1
v -0.1 0.3 -0.3
v 0 0.3 -0.3
v 0.1 0.4 0.3
v 0.3 0.4 0.3
v 0.1 0.4 0.2
v 0.3 0.4 0.2
v -0.3 0.7 0.3
v -0.2 0.7 0.3
v -0.3 0.7 0.2
v -0.2 0.7 0.2
v -0.3 0.8 0.6
v -0.2 0.8 0.6
v -0.3 0.8 0.5
v -0.2 0.8 0.5
v -0.3 0.8 0.4
v -0.2 0.8 0.4
v -0.3 0.8 0.3
v -0.2 0.8 0.3
v 0.3 0.8 0.2
v 0.4 0.8 0.2
v 0.3 0.8 0.1
v 0.4 0.8 0.1
v -0.4 0.8 -0.1
v -0.3 0.8 -0.1
v 0.4 0.8 -0.1
v 0.5 0.8 -0.1
v -0.4 0.8 -0.3
v -0.3 0.8 -0.3
v 0.4 0.8 -0.3
v 0.5 0.8 -0.3
v -0.2 0.8 -0.4
v 0.3 0.8 -0.4
v -0.2 0.8 -0.5
v 0.3 0.8 -0.5
v -0.3 0.9 0.2
v -0.2 0.9 0.2
v -0.3 0.9 0
v -0.2 0.9 0
v -0.1 0.9 0
v 0.2 0.9 0
v -0.3 0.9 -0.1
v -0.2 0.9 -0.1
v -0.1 0.9 -0.1
v 0.2 0.9 -0.1
v 0.3 0.9 -0.1
v 0.4 0.9 -0.1
v -0.2 0.9 -0.3
v 0.3 0.9 -0.3
v -0.3 0.9 -0.4
v 0.4 0.9 -0.4
v -0.2 1 0.2
v -0.1 1 0.2
v 0.2 1 0.2
v 0.3 1 0.2
v 0.3 1 0.1
v 0.4 1 0.1
v -0.2 1 0
v -0.1 1 0
v 0.2 1 0
v 0.3 1 0
v 0.4 1 0
v -0.3 1.1 0.5
v -0.2 1.1 0.5
v -0.3 1.1 0.4
v -0.2 1.1 0.4
v 0.3 1.1 0.3
v 0.4 1.1 0.3
v 0.3 1.1 0.2
v 0.4 1.1 0.2
v -0.2 1.2 0.4
v 0.3 1.2 0.4
v -0.1 1.2 0.3
v 0.2 1.2 0.3
v -0.2 1.2 0
v -0.1 1.2 0
v 0.2 1.2 0
v 0.3 1.2 0
v -0.1 1.3 0.3
v 0.2 1.3 0.3
v -0.3 1.3 0
v -0.1 1.3 0
v 0.2 1.3 0
v 0.4 1.3 0
v -0.3 1.3 -0.3
v 0.4 1.3 -0.3

# faces
f 3/4/1 2/4/1 1/4/1
f 4/4/1 2/4/1 3/4/1
f 9/4/1 6/4/1 5/4/1
f 10/4/1 6/4/1 9/4/1
f 11/2/1 8/2/1 7/2/1
f 12/2/1 8/2/1 11/2/1
f 15/8/1 12/8/1 11/8/1
f 15/8/1 13/8/1 12/8/1
f 16/8/1 13/8/1 15/8/1
f 17/8/1 13/8/1 16/8/1
f 18/8/1 13/8/1 17/8/1
f 20/2/1 15/2/1 14/2/1
f 20/2/1 16/2/1 15/2/1
f 21/2/1 16/2/1 20/2/1
f 22/2/1 16/2/1 21/2/1
f 23/2/1 16/2/1 22/2/1
f 25/4/1 6/4/1 10/4/1
f 26/6/1 19/6/1 18/6/1
f 26/6/1 18/6/1 17/6/1
f 27/6/1 19/6/1 26/6/1
f 28/4/1 25/4/1 24/4/1
f 29/4/1 6/4/1 25/4/1
f 29/4/1 25/4/1 28/4/1
f 32/3/1 22/3/1 21/3/1
f 33/3/1 22/3/1 32/3/1
f 34/9/1 31/9/1 30/9/1
f 35/9/1 31/9/1 34/9/1
f 36/9/1 34/9/1 30/9/1
f 36/5/1 35/5/1 34/5/1
f 37/9/1 31/9/1 35/9/1
f 37/5/1 35/5/1 36/5/1
f 38/9/1 36/9/1 30/9/1
f 38/9/1 37/9/1 36/9/1
f 39/9/1 31/9/1 37/9/1
f 39/9/1 37/9/1 38/9/1
f 43/1/1 41/1/1 40/1/1
f 44/1/1 41/1/1 43/1/1
f 44/1/1 43/1/1 42/1/1
f 47/1/1 44/1/1 42/1/1
f 48/1/1 44/1/1 47/1/1
f 49/4/1 48/4/1 47/4/1
f 50/4/1 48/4/1 49/4/1
f 51/4/1 48/4/1 50/4/1
f 52/6/1 51/6/1 50/6/1
f 53/6/1 51/6/1 52/6/1
f 54/4/1 46/4/1 45/4/1
f 55/4/1 46/4/1 54/4/1
f 57/6/1 51/6/1 53/6/1
f 58/6/1 51/6/1 57/6/1
f 60/4/1 57/4/1 56/4/1
f 60/4/1 59/4/1 58/4/1
f 60/4/1 58/4/1 57/4/1
f 61/4/1 59/4/1 60/4/1
f 62/4/1 59/4/1 61/4/1
f 65/4/1 64/4/1 63/4/1
f 66/4/1 64/4/1 65/4/1
f 70/4/1 68/4/1 67/4/1
f 71/4/1 70/4/1 69/4/1
f 72/4/1 68/4/1 70/4/1
f 72/4/1 70/4/1 71/4/1
f 75/8/1 74/8/1 73/8/1
f 77/8/1 75/8/1 73/8/1
f 77/8/1 76/8/1 75/8/1
f 78/8/1 76/8/1 77/8/1
f 81/4/1 80/4/1 79/4/1
f 82/4/1 80/4/1 81/4/1
f 85/4/1 84/4/1 83/4/1
f 86/4/1 84/4/1 85/4/1
f 87/4/1 84/4/1 86/4/1
f 88/4/1 84/4/1 87/4/1
f 90/1/1 88/1/1 87/1/1
f 90/1/1 89/1/1 88/1/1
f 91/1/1 89/1/1 90/1/1
f 92/1/1 90/1/1 87/1/1
f 93/1/1 90/1/1 92/1/1
f 96/4/1 95/4/1 94/4/1
f 97/4/1 95/4/1 96/4/1
f 100/4/1 99/4/1 98/4/1
f 101/4/1 99/4/1 100/4/1
f 102/8/1 101/8/1 100/8/1
f 103/8/1 101/8/1 102/8/1
f 104/4/1 103/4/1 102/4/1
f 105/4/1 103/4/1 104/4/1
f 106/7/1 105/7/1 104/7/1
f 107/7/1 105/7/1 106/7/1
f 108/2/2 109/2/2 110/2/2
f 110/2/2 109/2/2 111/2/2
f 110/8/2 111/8/2 114/8/2
f 111/8/2 112/8/2 114/8/2
f 114/8/2 112/8/2 115/8/2
f 115/8/2 112/8/2 116/8/2
f 113/2/2 114/2/2 117/2/2
f 114/2/2 115/2/2 117/2/2
f 117/2/2 115/2/2 118/2/2
f 118/2/2 115/2/2 119/2/2
f 119/2/2 115/2/2 120/2/2
f 118/3/2 119/3/2 121/3/2
f 121/3/2 119/3/2 122/3/2
f 123/4/2 124/4/2 125/4/2
f 125/4/2 124/4/2 126/4/2
f 127/4/2 128/4/2 131/4/2
f 129/1/2 130/1/2 132/1/2
f 130/4/2 131/4/2 133/4/2
f 132/1/2 130/1/2 133/1/2
f 131/4/2 128/4/2 134/4/2
f 133/4/2 131/4/2 134/4/2
f 135/4/2 136/4/2 137/4/2
f 137/4/2 136/4/2 138/4/2
f 138/4/2 136/4/2 139/4/2
f 139/4/2 136/4/2 140/4/2
f 141/8/2 142/8/2 143/8/2
f 141/8/2 143/8/2 145/8/2
f 143/8/2 144/8/2 145/8/2
f 145/8/2 144/8/2 146/8/2
f 147/4/2 148/4/2 149/4/2
f 149/4/2 148/4/2 150/4/2
f 151/1/2 152/1/2 153/1/2
f 151/1/2 153/1/2 155/1/2
f 153/1/2 154/1/2 155/1/2
f 155/1/2 154/1/2 156/1/2
f 156/1/2 154/1/2 157/1/2
f 156/1/2 157/1/2 160/1/2
f 160/1/2 157/1/2 161/1/2
f 160/4/2 161/4/2 162/4/2
f 162/4/2 161/4/2 163/4/2
f 163/4/2 161/4/2 164/4/2
f 162/4/2 163/4/2 165/4/2
f 163/6/2 164/6/2 166/6/2
f 165/4/2 163/4/2 166/4/2
f 166/6/2 164/6/2 167/6/2
f 158/4/2 159/4/2 170/4/2
f 170/4/2 159/4/2 171/4/2
f 168/4/2 169/4/2 174/4/2
f 174/4/2 169/4/2 175/4/2
f 172/4/2 173/4/2 176/4/2
f 176/4/2 173/4/2 177/4/2
f 178/4/2 179/4/2 182/4/2
f 180/4/2 181/4/2 182/4/2
f 179/4/2 180/4/2 182/4/2
f 182/4/2 181/4/2 183/4/2
f 184/4/2 185/4/2 186/4/2
f 186/4/2 185/4/2 187/4/2
f 188/4/2 189/4/2 190/4/2
f 190/4/2 189/4/2 191/4/2
f 190/8/2 191/8/2 193/8/2
f 191/8/2 192/8/2 193/8/2
f 193/8/2 192/8/2 194/8/2
f 194/8/2 192/8/2 195/8/2
f 195/8/2 192/8/2 196/8/2
f 187/4/2 185/4/2 197/4/2
f 195/6/2 196/6/2 198/6/2
f 196/4/2 197/4/2 198/4/2
f 197/4/2 185/4/2 199/4/2
f 198/4/2 197/4/2 199/4/2
f 193/4/2 194/4/2 200/4/2
f 200/4/2 194/4/2 201/4/2
f 195/6/2 198/6/2 202/6/2
f 202/6/2 198/6/2 203/6/2
f 203/6/2 198/6/2 204/6/2
f 200/7/2 201/7/2 206/7/2
f 206/7/2 201/7/2 207/7/2
f 204/9/2 205/9/2 208/9/2
f 203/9/2 204/9/2 208/9/2
f 208/9/2 205/9/2 209/9/2
f 203/9/2 208/9/2 210/9/2
f 208/5/2 209/5/2 210/5/2
f 209/9/2 205/9/2 211/9/2
f 210/5/2 209/5/2 211/5/2
f 203/9/2 210/9/2 212/9/2
f 210/9/2 211/9/2 212/9/2
f 211/9/2 205/9/2 213/9/2
f 212/9/2 211/9/2 213/9/2
f 214/4/2 215/4/2 216/4/2
f 216/4/2 215/4/2 217/4/2
f 220/2/3 219/2/3 218/2/3
f 221/2/3 219/2/3 220/2/3
f 227/2/3 223/2/3 222/2/3
f 228/8/3 224/8/3 223/8/3
f 228/2/3 223/2/3 227/2/3
f 229/8/3 224/8/3 228/8/3
f 230/3/3 226/3/3 225/3/3
f 231/3/3 226/3/3 230/3/3
f 236/4/3 235/4/3 234/4/3
f 237/4/3 235/4/3 236/4/3
f 238/4/3 233/4/3 232/4/3
f 239/4/3 233/4/3 238/4/3
f 247/4/3 245/4/3 244/4/3
f 248/1/3 246/1/3 245/1/3
f 248/4/3 245/4/3 247/4/3
f 249/8/3 241/8/3 240/8/3
f 250/8/3 241/8/3 249/8/3
f 251/4/3 243/4/3 242/4/3
f 252/4/3 243/4/3 251/4/3
f 253/1/3 246/1/3 248/1/3
f 254/1/3 246/1/3 253/1/3
f 260/4/3 256/4/3 255/4/3
f 261/8/3 257/8/3 256/8/3
f 261/4/3 256/4/3 260/4/3
f 262/4/3 258/4/3 257/4/3
f 262/8/3 257/8/3 261/8/3
f 263/7/3 259/7/3 258/7/3
f 263/4/3 258/4/3 262/4/3
f 264/7/3 259/7/3 263/7/3
f 270/6/3 266/6/3 265/6/3
f 271/6/3 266/6/3 270/6/3
f 273/4/3 269/4/3 268/4/3
f 273/4/3 272/4/3 271/4/3
f 273/4/3 271/4/3 270/4/3
f 273/4/3 270/4/3 269/4/3
f 273/1/3 268/1/3 267/1/3
f 274/4/3 272/4/3 273/4/3
f 275/4/3 272/4/3 274/4/3
f 276/6/3 274/6/3 273/6/3
f 277/6/3 274/6/3 276/6/3
f 278/1/3 273/1/3 267/1/3
f 279/1/3 273/1/3 278/1/3
f 280/6/3 276/6/3 273/6/3
f 280/8/3 277/8/3 276/8/3
f 281/8/3 277/8/3 280/8/3
f 282/1/3 273/1/3 279/1/3
f 282/6/3 281/6/3 280/6/3
f 282/6/3 280/6/3 273/6/3
f 283/6/3 281/6/3 282/6/3
f 285/1/3 282/1/3 279/1/3
f 286/4/3 283/4/3 282/4/3
f 286/1/3 282/1/3 285/1/3
f 286/4/3 284/4/3 283/4/3
f 287/4/3 284/4/3 286/4/3
f 288/4/3 284/4/3 287/4/3
f 289/4/3 284/4/3 288/4/3
f 290/4/3 284/4/3 289/4/3
f 293/1/3 292/1/3 291/1/3
f 294/1/3 292/1/3 293/1/3
f 297/6/3 296/6/3 295/6/3
f 298/6/3 296/6/3 297/6/3
f 301/9/3 300/9/3 299/9/3
f 302/9/3 300/9/3 301/9/3
f 303/9/3 300/9/3 302/9/3
f 304/9/3 302/9/3 301/9/3
f 305/9/3 302/9/3 304/9/3
f 306/9/3 300/9/3 303/9/3
f 307/9/3 300/9/3 306/9/3
f 312/9/3 309/9/3 308/9/3
f 313/9/3 309/9/3 312/9/3
f 314/9/3 311/9/3 310/9/3
f 315/9/3 313/9/3 312/9/3
f 315/9/3 314/9/3 313/9/3
f 316/9/3 311/9/3 314/9/3
f 316/9/3 314/9/3 315/9/3
f 320/4/3 318/4/3 317/4/3
f 321/4/3 318/4/3 320/4/3
f 323/4/3 320/4/3 319/4/3
f 323/4/3 322/4/3 321/4/3
f 323/4/3 321/4/3 320/4/3
f 324/4/3 322/4/3 323/4/3
f 325/4/3 322/4/3 324/4/3
f 326/4/3 322/4/3 325/4/3
f 329/4/3 328/4/3 327/4/3
f 330/4/3 328/4/3 329/4/3
f 335/4/3 332/4/3 331/4/3
f 335/4/3 334/4/3 333/4/3
f 335/4/3 333/4/3 332/4/3
f 336/4/3 334/4/3 335/4/3
f 337/4/3 334/4/3 336/4/3
f 339/4/3 338/4/3 337/4/3
f 339/4/3 337/4/3 336/4/3
f 340/4/3 338/4/3 339/4/3
f 343/4/3 342/4/3 341/4/3
f 344/4/3 342/4/3 343/4/3
f 345/2/4 346/2/4 349/2/4
f 349/2/4 346/2/4 350/2/4
f 347/3/4 348/3/4 351/3/4
f 351/3/4 348/3/4 352/3/4
f 353/2/4 354/2/4 355/2/4
f 355/2/4 354/2/4 356/2/4
f 357/4/4 358/4/4 359/4/4
f 359/4/4 358/4/4 360/4/4
f 361/4/4 362/4/4 366/4/4
f 366/4/4 362/4/4 367/4/4
f 363/4/4 364/4/4 368/4/4
f 364/7/4 365/7/4 369/7/4
f 368/4/4 364/4/4 369/4/4
f 369/7/4 365/7/4 370/7/4
f 371/8/4 372/8/4 373/8/4
f 373/8/4 372/8/4 374/8/4
f 375/1/4 376/1/4 377/1/4
f 377/1/4 376/1/4 378/1/4
f 379/6/4 380/6/4 381/6/4
f 381/6/4 380/6/4 382/6/4
f 383/8/4 384/8/4 385/8/4
f 385/8/4 384/8/4 386/8/4
f 387/1/4 388/1/4 389/1/4
f 389/1/4 388/1/4 390/1/4
f 390/1/4 388/1/4 391/1/4
f 391/1/4 388/1/4 392/1/4
f 392/1/4 388/1/4 393/1/4
f 394/6/4 395/6/4 396/6/4
f 396/6/4 395/6/4 397/6/4
f 398/4/4 399/4/4 400/4/4
f 400/4/4 399/4/4 401/4/4
f 402/9/4 403/9/4 405/9/4
f 406/4/4 407/4/4 408/4/4
f 408/4/4 407/4/4 409/4/4
f 404/4/4 405/4/4 410/4/4
f 405/9/4 403/9/4 411/9/4
f 410/4/4 405/4/4 411/4/4
f 411/9/4 403/9/4 414/9/4
f 414/9/4 403/9/4 415/9/4
f 412/4/4 413/4/4 416/4/4
f 416/4/4 413/4/4 417/4/4
f 418/4/4 419/4/4 420/4/4
f 420/4/4 419/4/4 421/4/4
f 421/4/4 419/4/4 423/4/4
f 422/4/4 423/4/4 424/4/4
f 423/4/4 419/4/4 425/4/4
f 424/4/4 423/4/4 425/4/4
f 426/4/4 427/4/4 428/4/4
f 428/4/4 427/4/4 429/4/4
f 432/4/5 431/4/5 430/4/5
f 433/4/5 431/4/5 432/4/5
f 436/4/5 435/4/5 434/4/5
f 437/4/5 435/4/5 436/4/5
f 441/1/5 439/1/5 438/1/5
f 444/1/5 441/1/5 440/1/5
f 445/1/5 439/1/5 441/1/5
f 445/1/5 441/1/5 444/1/5
f 446/1/5 443/1/5 442/1/5
f 447/1/5 443/1/5 446/1/5
f 448/1/5 443/1/5 447/1/5
f 449/4/5 448/4/5 447/4/5
f 450/4/5 448/4/5 449/4/5
f 453/1/5 452/1/5 451/1/5
f 454/1/5 452/1/5 453/1/5
f 455/1/5 452/1/5 454/1/5
f 457/1/5 456/1/5 455/1/5
f 457/1/5 455/1/5 454/1/5
f 458/1/5 456/1/5 457/1/5
f 463/4/5 460/4/5 459/4/5
f 463/4/5 462/4/5 461/4/5
f 463/4/5 461/4/5 460/4/5
f 464/4/5 462/4/5 463/4/5
f 465/4/5 462/4/5 464/4/5
f 466/4/5 462/4/5 465/4/5
f 467/4/5 465/4/5 464/4/5
f 468/4/5 465/4/5 467/4/5
f 471/2/5 470/2/5 469/2/5
f 472/2/5 470/2/5 471/2/5
f 477/4/5 474/4/5 473/4/5
f 478/4/5 474/4/5 477/4/5
f 479/4/5 476/4/5 475/4/5
f 480/4/5 476/4/5 479/4/5
f 485/8/5 482/8/5 481/8/5
f 486/4/5 484/4/5 483/4/5
f 487/4/5 484/4/5 486/4/5
f 488/8/5 485/8/5 481/8/5
f 489/8/5 485/8/5 488/8/5
f 492/2/5 491/2/5 490/2/5
f 493/2/5 491/2/5 492/2/5
f 498/8/5 495/8/5 494/8/5
f 499/6/5 497/6/5 496/6/5
f 500/6/5 497/6/5 499/6/5
f 501/8/5 495/8/5 498/8/5
f 502/8/5 495/8/5 501/8/5
f 505/8/5 504/8/5 503/8/5
f 506/8/5 504/8/5 505/8/5
f 507/8/5 504/8/5 506/8/5
f 508/8/5 504/8/5 507/8/5
f 513/9/5 512/9/5 511/9/5
f 514/9/5 512/9/5 513/9/5
f 517/9/5 510/9/5 509/9/5
f 518/9/5 510/9/5 517/9/5
f 519/9/5 516/9/5 515/9/5
f 520/9/5 516/9/5 519/9/5
f 523/4/5 522/4/5 521/4/5
f 524/4/5 522/4/5 523/4/5
f 525/4/5 522/4/5 524/4/5
f 526/4/5 525/4/5 524/4/5
f 527/4/5 523/4/5 521/4/5
f 528/4/5 523/4/5 527/4/5
f 529/4/5 526/4/5 524/4/5
f 530/4/5 526/4/5 529/4/5
f 531/4/6 532/4/6 533/4/6
f 533/4/6 532/4/6 534/4/6
f 535/4/6 536/4/6 537/4/6
f 537/4/6 536/4/6 538/4/6
f 539/1/6 540/1/6 541/1/6
f 541/1/6 540/1/6 542/1/6
f 543/8/6 544/8/6 545/8/6
f 545/8/6 544/8/6 546/8/6
f 547/2/6 548/2/6 549/2/6
f 549/2/6 548/2/6 550/2/6
f 551/2/6 552/2/6 553/2/6
f 553/2/6 552/2/6 554/2/6
f 555/8/6 556/8/6 557/8/6
f 557/8/6 556/8/6 558/8/6
f 559/4/6 560/4/6 563/4/6
f 563/4/6 560/4/6 564/4/6
f 561/4/6 562/4/6 565/4/6
f 565/4/6 562/4/6 566/4/6
f 567/4/6 568/4/6 569/4/6
f 569/4/6 568/4/6 570/4/6
f 571/6/6 572/6/6 573/6/6
f 573/6/6 572/6/6 574/6/6
f 575/6/6 576/6/6 579/6/6
f 579/6/6 576/6/6 580/6/6
f 577/4/6 578/4/6 583/4/6
f 581/4/6 582/4/6 584/4/6
f 577/4/6 583/4/6 585/4/6
f 583/4/6 584/4/6 585/4/6
f 584/4/6 582/4/6 586/4/6
f 585/4/6 584/4/6 586/4/6
f 589/4/6 590/4/6 591/4/6
f 587/4/6 588/4/6 593/4/6
f 593/4/6 588/4/6 594/4/6
f 589/4/6 591/4/6 595/4/6
f 591/6/6 592/6/6 596/6/6
f 595/4/6 591/4/6 596/4/6
f 596/6/6 592/6/6 597/6/6
f 598/3/6 599/3/6 600/3/6
f 600/3/6 599/3/6 601/3/6
f 602/7/6 603/7/6 604/7/6
f 604/7/6 603/7/6 605/7/6
f 606/4/6 607/4/6 608/4/6
f 608/4/6 607/4/6 609/4/6
f 606/4/6 608/4/6 610/4/6
f 610/4/6 608/4/6 611/4/6
f 609/4/6 607/4/6 612/4/6
f 612/4/6 607/4/6 613/4/6
f 614/4/6 615/4/6 617/4/6
f 617/4/6 615/4/6 618/4/6
f 616/9/6 617/9/6 620/9/6
f 618/9/6 619/9/6 620/9/6
f 617/9/6 618/9/6 620/9/6
f 620/9/6 619/9/6 621/9/6
