# MagicaVoxel @ Ephtracy

# group
o 

# material
mtllib adventurer_idle_1.mtl
usemtl palette

# normals
vn -1 0 0
vn 1 0 0
vn 0 0 1
vn 0 0 -1
vn 0 -1 0
vn 0 1 0

# texcoords
vt 0.783203 0.5
vt 0.787109 0.5
vt 0.791016 0.5
vt 0.814453 0.5
vt 0.818359 0.5
vt 0.888672 0.5
vt 0.912109 0.5
vt 0.939453 0.5
vt 0.974609 0.5

# verts
v -0.4 0.4 -0.1
v -0.4 0.4 -0.3
v -0.4 0.7 -0.1
v -0.4 0.7 -0.3
v -0.3 0.3 0.4
v -0.3 0.3 0.3
v -0.3 0.3 -0.1
v -0.3 0.3 -0.4
v -0.3 0.4 0.4
v -0.3 0.4 0.3
v -0.3 0.4 -5.96046e-08
v -0.3 0.4 -0.1
v -0.3 0.4 -0.3
v -0.3 0.5 0.5
v -0.3 0.5 0.4
v -0.3 0.5 0.2
v -0.3 0.5 0.1
v -0.3 0.5 -5.96046e-08
v -0.3 0.5 -0.1
v -0.3 0.6 0.5
v -0.3 0.6 0.4
v -0.3 0.6 0.3
v -0.3 0.6 0.2
v -0.3 0.7 0.1
v -0.3 0.7 -0.1
v -0.3 0.7 -0.3
v -0.3 0.8 -0.1
v -0.3 0.8 -0.4
v -0.3 0.9 0.4
v -0.3 0.9 0.3
v -0.3 0.9 -5.96046e-08
v -0.3 0.9 -0.3
v -0.3 1 -0.1
v -0.3 1 -0.2
v -0.3 1.1 -0.1
v -0.3 1.1 -0.2
v -0.3 1.2 -5.96046e-08
v -0.3 1.2 -0.3
v -0.2 0.2 0.1
v -0.2 0.2 -0.1
v -0.2 0.3 0.2
v -0.2 0.3 0.1
v -0.2 0.3 -0.1
v -0.2 0.3 -0.4
v -0.2 0.3 -0.5
v -0.2 0.4 0.2
v -0.2 0.4 -5.96046e-08
v -0.2 0.4 -0.1
v -0.2 0.5 0.2
v -0.2 0.5 0.1
v -0.2 0.5 -5.96046e-08
v -0.2 0.5 -0.1
v -0.2 0.6 0.2
v -0.2 0.7 0.1
v -0.2 0.7 -0.1
v -0.2 0.7 -0.4
v -0.2 0.7 -0.5
v -0.2 0.8 0.1
v -0.2 0.8 -0.1
v -0.2 0.8 -0.3
v -0.2 0.9 0.2
v -0.2 0.9 -5.96046e-08
v -0.2 0.9 -0.3
v -0.2 1 0.4
v -0.2 1 -5.96046e-08
v -0.2 1.1 0.4
v -0.2 1.1 -5.96046e-08
v -0.1 0 0.2
v -0.1 0 -5.96046e-08
v -0.1 0.1 0.2
v -0.1 0.1 0.1
v -0.1 0.2 0.1
v -0.1 0.2 -5.96046e-08
v -0.1 0.8 0.3
v -0.1 0.8 0.2
v -0.1 0.9 0.2
v -0.1 0.9 -5.96046e-08
v -0.1 1 0.3
v -0.1 1 -5.96046e-08
v -0.1 1.1 0.3
v -0.1 1.1 -5.96046e-08
v -0.1 1.2 0.3
v -0.1 1.2 -5.96046e-08
v 0.1 0 0.2
v 0.1 0 -5.96046e-08
v 0.1 0.1 0.2
v 0.1 0.1 0.1
v 0.1 0.2 0.1
v 0.1 0.2 -5.96046e-08
v 0.1 0.2 -0.1
v 0.1 0.3 0.1
v 0.1 0.3 -0.1
v 0.2 0.8 -5.96046e-08
v 0.2 0.8 -0.1
v 0.2 0.9 -5.96046e-08
v 0.2 0.9 -0.1
v 0.3 0.3 0.4
v 0.3 0.3 0.3
v 0.3 0.4 0.4
v 0.3 0.4 0.3
v 0.3 0.4 0.2
v 0.3 0.5 0.4
v 0.3 0.5 0.3
v 0.3 0.5 0.2
v 0.3 0.7 0.4
v 0.3 0.7 0.3
v 0.3 0.8 0.4
v 0.3 0.8 0.3
v -0.2 0.3 0.4
v -0.2 0.3 0.3
v -0.2 0.4 0.4
v -0.2 0.4 0.3
v -0.2 0.4 0.2
v -0.2 0.5 0.5
v -0.2 0.5 0.4
v -0.2 0.5 0.2
v -0.2 0.6 0.5
v -0.2 0.6 0.4
v -0.2 0.6 0.3
v -0.2 0.6 0.2
v -0.2 0.9 0.4
v -0.2 0.9 0.3
v -0.1 0.8 -5.96046e-08
v -0.1 0.8 -0.1
v -0.1 0.9 -5.96046e-08
v -0.1 0.9 -0.1
v 0 0 0.2
v 0 0 -5.96046e-08
v 0 0.1 0.2
v 0 0.1 0.1
v 0 0.2 0.1
v 0 0.2 -5.96046e-08
v 0 0.2 -0.1
v 0 0.3 0.1
v 0 0.3 -0.1
v 0.2 0 0.2
v 0.2 0 -5.96046e-08
v 0.2 0.1 0.2
v 0.2 0.1 0.1
v 0.2 0.2 0.1
v 0.2 0.2 -5.96046e-08
v 0.2 0.8 0.3
v 0.2 0.8 0.2
v 0.2 0.9 0.2
v 0.2 0.9 -5.96046e-08
v 0.2 1 0.3
v 0.2 1 -5.96046e-08
v 0.2 1.1 0.3
v 0.2 1.1 -5.96046e-08
v 0.2 1.2 0.3
v 0.2 1.2 -5.96046e-08
v 0.3 0.2 0.1
v 0.3 0.2 -0.1
v 0.3 0.3 0.2
v 0.3 0.3 0.1
v 0.3 0.3 -0.1
v 0.3 0.3 -0.4
v 0.3 0.3 -0.5
v 0.3 0.4 0.2
v 0.3 0.4 -5.96046e-08
v 0.3 0.4 -0.1
v 0.3 0.5 0.2
v 0.3 0.5 0.1
v 0.3 0.5 -5.96046e-08
v 0.3 0.5 -0.1
v 0.3 0.7 0.1
v 0.3 0.7 -0.1
v 0.3 0.7 -0.4
v 0.3 0.7 -0.5
v 0.3 0.8 0.1
v 0.3 0.8 -0.1
v 0.3 0.8 -0.3
v 0.3 0.9 0.2
v 0.3 0.9 -5.96046e-08
v 0.3 0.9 -0.3
v 0.3 1 0.4
v 0.3 1 -5.96046e-08
v 0.3 1.1 0.4
v 0.3 1.1 -5.96046e-08
v 0.4 0.3 0.4
v 0.4 0.3 0.3
v 0.4 0.3 -0.1
v 0.4 0.3 -0.4
v 0.4 0.4 0.4
v 0.4 0.4 0.3
v 0.4 0.4 -5.96046e-08
v 0.4 0.4 -0.1
v 0.4 0.4 -0.3
v 0.4 0.5 0.4
v 0.4 0.5 0.3
v 0.4 0.5 0.1
v 0.4 0.5 -5.96046e-08
v 0.4 0.5 -0.1
v 0.4 0.7 0.4
v 0.4 0.7 0.3
v 0.4 0.7 0.1
v 0.4 0.7 -0.1
v 0.4 0.7 -0.3
v 0.4 0.8 0.4
v 0.4 0.8 0.3
v 0.4 0.8 -0.1
v 0.4 0.8 -0.4
v 0.4 0.9 -5.96046e-08
v 0.4 0.9 -0.3
v 0.4 1 -0.1
v 0.4 1 -0.2
v 0.4 1.1 -0.1
v 0.4 1.1 -0.2
v 0.4 1.2 -5.96046e-08
v 0.4 1.2 -0.3
v 0.5 0.4 -0.1
v 0.5 0.4 -0.3
v 0.5 0.7 -0.1
v 0.5 0.7 -0.3
v -0.3 0.5 0.5
v -0.3 0.6 0.5
v -0.2 0.5 0.5
v -0.2 0.6 0.5
v -0.3 0.3 0.4
v -0.3 0.4 0.4
v -0.3 0.5 0.4
v -0.3 0.6 0.4
v -0.3 0.9 0.4
v -0.2 0.3 0.4
v -0.2 0.4 0.4
v -0.2 0.5 0.4
v -0.2 0.6 0.4
v -0.2 0.9 0.4
v -0.2 1 0.4
v -0.2 1.1 0.4
v 0.3 0.3 0.4
v 0.3 0.4 0.4
v 0.3 0.5 0.4
v 0.3 0.7 0.4
v 0.3 0.8 0.4
v 0.3 1 0.4
v 0.3 1.1 0.4
v 0.4 0.3 0.4
v 0.4 0.4 0.4
v 0.4 0.5 0.4
v 0.4 0.7 0.4
v 0.4 0.8 0.4
v -0.1 0.8 0.3
v -0.1 1 0.3
v -0.1 1.1 0.3
v -0.1 1.2 0.3
v 0.2 0.8 0.3
v 0.2 1 0.3
v 0.2 1.1 0.3
v 0.2 1.2 0.3
v -0.2 0.3 0.2
v -0.2 0.4 0.2
v -0.2 0.5 0.2
v -0.2 0.6 0.2
v -0.2 0.9 0.2
v -0.1 0 0.2
v -0.1 0.1 0.2
v -0.1 0.4 0.2
v -0.1 0.5 0.2
v -0.1 0.8 0.2
v -0.1 0.9 0.2
v 0 0 0.2
v 0 0.1 0.2
v 0 0.6 0.2
v 0 0.8 0.2
v 0.1 0 0.2
v 0.1 0.1 0.2
v 0.1 0.6 0.2
v 0.1 0.8 0.2
v 0.2 0 0.2
v 0.2 0.1 0.2
v 0.2 0.4 0.2
v 0.2 0.5 0.2
v 0.2 0.8 0.2
v 0.2 0.9 0.2
v 0.3 0.3 0.2
v 0.3 0.4 0.2
v 0.3 0.5 0.2
v 0.3 0.9 0.2
v -0.3 0.5 0.1
v -0.3 0.7 0.1
v -0.2 0.2 0.1
v -0.2 0.3 0.1
v -0.2 0.5 0.1
v -0.2 0.7 0.1
v -0.1 0.1 0.1
v -0.1 0.2 0.1
v 0 0.1 0.1
v 0 0.2 0.1
v 0 0.3 0.1
v 0.1 0.1 0.1
v 0.1 0.2 0.1
v 0.1 0.3 0.1
v 0.2 0.1 0.1
v 0.2 0.2 0.1
v 0.3 0.2 0.1
v 0.3 0.3 0.1
v 0.3 0.5 0.1
v 0.3 0.7 0.1
v 0.4 0.5 0.1
v 0.4 0.7 0.1
v -0.3 0.9 -5.96046e-08
v -0.3 1.2 -5.96046e-08
v -0.2 0.9 -5.96046e-08
v -0.2 1 -5.96046e-08
v -0.2 1.1 -5.96046e-08
v -0.1 0.9 -5.96046e-08
v -0.1 1 -5.96046e-08
v -0.1 1.1 -5.96046e-08
v -0.1 1.2 -5.96046e-08
v 0.2 0.9 -5.96046e-08
v 0.2 1 -5.96046e-08
v 0.2 1.1 -5.96046e-08
v 0.2 1.2 -5.96046e-08
v 0.3 0.9 -5.96046e-08
v 0.3 1 -5.96046e-08
v 0.3 1.1 -5.96046e-08
v 0.4 0.9 -5.96046e-08
v 0.4 1.2 -5.96046e-08
v -0.4 0.4 -0.1
v -0.4 0.7 -0.1
v -0.3 0.3 -0.1
v -0.3 0.4 -0.1
v -0.3 0.5 -0.1
v -0.3 0.7 -0.1
v -0.3 0.8 -0.1
v -0.2 0.3 -0.1
v -0.2 0.4 -0.1
v -0.2 0.5 -0.1
v -0.2 0.7 -0.1
v -0.2 0.8 -0.1
v -0.1 0.8 -0.1
v -0.1 0.9 -0.1
v 0.2 0.8 -0.1
v 0.2 0.9 -0.1
v 0.3 0.3 -0.1
v 0.3 0.4 -0.1
v 0.3 0.5 -0.1
v 0.3 0.7 -0.1
v 0.3 0.8 -0.1
v 0.4 0.3 -0.1
v 0.4 0.4 -0.1
v 0.4 0.5 -0.1
v 0.4 0.7 -0.1
v 0.4 0.8 -0.1
v 0.5 0.4 -0.1
v 0.5 0.7 -0.1
v -0.3 0.3 0.3
v -0.3 0.4 0.3
v -0.3 0.6 0.3
v -0.3 0.9 0.3
v -0.2 0.3 0.3
v -0.2 0.4 0.3
v -0.2 0.6 0.3
v -0.2 0.9 0.3
v 0.3 0.3 0.3
v 0.3 0.4 0.3
v 0.3 0.5 0.3
v 0.3 0.7 0.3
v 0.3 0.8 0.3
v 0.4 0.3 0.3
v 0.4 0.4 0.3
v 0.4 0.5 0.3
v 0.4 0.7 0.3
v 0.4 0.8 0.3
v -0.3 0.5 0.2
v -0.3 0.6 0.2
v -0.2 0.5 0.2
v -0.2 0.6 0.2
v -0.3 0.4 -5.96046e-08
v -0.3 0.5 -5.96046e-08
v -0.2 0.4 -5.96046e-08
v -0.2 0.5 -5.96046e-08
v -0.1 0 -5.96046e-08
v -0.1 0.2 -5.96046e-08
v -0.1 0.8 -5.96046e-08
v -0.1 0.9 -5.96046e-08
v 0 0 -5.96046e-08
v 0 0.2 -5.96046e-08
v 0.1 0 -5.96046e-08
v 0.1 0.2 -5.96046e-08
v 0.2 0 -5.96046e-08
v 0.2 0.2 -5.96046e-08
v 0.2 0.8 -5.96046e-08
v 0.2 0.9 -5.96046e-08
v 0.3 0.4 -5.96046e-08
v 0.3 0.5 -5.96046e-08
v 0.4 0.4 -5.96046e-08
v 0.4 0.5 -5.96046e-08
v -0.2 0.2 -0.1
v -0.2 0.3 -0.1
v 0 0.2 -0.1
v 0 0.3 -0.1
v 0.1 0.2 -0.1
v 0.1 0.3 -0.1
v 0.3 0.2 -0.1
v 0.3 0.3 -0.1
v -0.4 0.4 -0.3
v -0.4 0.7 -0.3
v -0.3 0.4 -0.3
v -0.3 0.7 -0.3
v -0.3 0.9 -0.3
v -0.3 1.2 -0.3
v -0.2 0.8 -0.3
v -0.2 0.9 -0.3
v 0.3 0.8 -0.3
v 0.3 0.9 -0.3
v 0.4 0.4 -0.3
v 0.4 0.7 -0.3
v 0.4 0.9 -0.3
v 0.4 1.2 -0.3
v 0.5 0.4 -0.3
v 0.5 0.7 -0.3
v -0.3 0.3 -0.4
v -0.3 0.8 -0.4
v -0.2 0.3 -0.4
v -0.2 0.7 -0.4
v 0.3 0.3 -0.4
v 0.3 0.7 -0.4
v 0.4 0.3 -0.4
v 0.4 0.8 -0.4
v -0.2 0.3 -0.5
v -0.2 0.7 -0.5
v 0.3 0.3 -0.5
v 0.3 0.7 -0.5
v -0.1 0 0.2
v 0 0 0.2
v 0.1 0 0.2
v 0.2 0 0.2
v -0.1 0 -5.96046e-08
v 0 0 -5.96046e-08
v 0.1 0 -5.96046e-08
v 0.2 0 -5.96046e-08
v -0.2 0.2 0.1
v -0.1 0.2 0.1
v 0.2 0.2 0.1
v 0.3 0.2 0.1
v -0.1 0.2 -5.96046e-08
v 0 0.2 -5.96046e-08
v 0.1 0.2 -5.96046e-08
v 0.2 0.2 -5.96046e-08
v -0.2 0.2 -0.1
v 0 0.2 -0.1
v 0.1 0.2 -0.1
v 0.3 0.2 -0.1
v -0.3 0.3 0.4
v -0.2 0.3 0.4
v 0.3 0.3 0.4
v 0.4 0.3 0.4
v -0.3 0.3 0.3
v -0.2 0.3 0.3
v 0.3 0.3 0.3
v 0.4 0.3 0.3
v -0.2 0.3 0.2
v 0.3 0.3 0.2
v -0.2 0.3 0.1
v 0 0.3 0.1
v 0.1 0.3 0.1
v 0.3 0.3 0.1
v -0.3 0.3 -0.1
v -0.2 0.3 -0.1
v 0 0.3 -0.1
v 0.1 0.3 -0.1
v 0.3 0.3 -0.1
v 0.4 0.3 -0.1
v -0.3 0.3 -0.4
v -0.2 0.3 -0.4
v 0.3 0.3 -0.4
v 0.4 0.3 -0.4
v -0.2 0.3 -0.5
v 0.3 0.3 -0.5
v -0.3 0.4 0.3
v -0.2 0.4 0.3
v 0.3 0.4 0.3
v 0.4 0.4 0.3
v -0.2 0.4 0.2
v 0.3 0.4 0.2
v -0.3 0.4 -5.96046e-08
v -0.2 0.4 -5.96046e-08
v 0.3 0.4 -5.96046e-08
v 0.4 0.4 -5.96046e-08
v -0.4 0.4 -0.1
v -0.3 0.4 -0.1
v 0.4 0.4 -0.1
v 0.5 0.4 -0.1
v -0.4 0.4 -0.3
v -0.3 0.4 -0.3
v 0.4 0.4 -0.3
v 0.5 0.4 -0.3
v -0.3 0.5 0.5
v -0.2 0.5 0.5
v -0.3 0.5 0.4
v -0.2 0.5 0.4
v -0.3 0.5 -5.96046e-08
v -0.2 0.5 -5.96046e-08
v 0.3 0.5 -5.96046e-08
v 0.4 0.5 -5.96046e-08
v -0.3 0.5 -0.1
v -0.2 0.5 -0.1
v 0.3 0.5 -0.1
v 0.4 0.5 -0.1
v -0.1 0.8 0.3
v 0.2 0.8 0.3
v -0.1 0.8 0.2
v 0 0.8 0.2
v 0.1 0.8 0.2
v 0.2 0.8 0.2
v -0.3 0.9 -5.96046e-08
v -0.2 0.9 -5.96046e-08
v -0.1 0.9 -5.96046e-08
v 0.2 0.9 -5.96046e-08
v 0.3 0.9 -5.96046e-08
v 0.4 0.9 -5.96046e-08
v -0.1 0.9 -0.1
v 0.2 0.9 -0.1
v -0.3 0.9 -0.3
v -0.2 0.9 -0.3
v 0.3 0.9 -0.3
v 0.4 0.9 -0.3
v -0.2 1 0.4
v 0.3 1 0.4
v -0.1 1 0.3
v 0.2 1 0.3
v -0.2 1 -5.96046e-08
v -0.1 1 -5.96046e-08
v 0.2 1 -5.96046e-08
v 0.3 1 -5.96046e-08
v -0.1 0.1 0.2
v 0 0.1 0.2
v 0.1 0.1 0.2
v 0.2 0.1 0.2
v -0.1 0.1 0.1
v 0 0.1 0.1
v 0.1 0.1 0.1
v 0.2 0.1 0.1
v 0.3 0.5 0.3
v 0.4 0.5 0.3
v -0.3 0.5 0.2
v -0.2 0.5 0.2
v 0.3 0.5 0.2
v -0.3 0.5 0.1
v -0.2 0.5 0.1
v 0.3 0.5 0.1
v 0.4 0.5 0.1
v -0.3 0.6 0.5
v -0.2 0.6 0.5
v -0.3 0.6 0.4
v -0.2 0.6 0.4
v -0.3 0.6 0.3
v -0.2 0.6 0.3
v -0.3 0.6 0.2
v -0.2 0.6 0.2
v -0.3 0.7 0.1
v -0.2 0.7 0.1
v 0.3 0.7 0.1
v 0.4 0.7 0.1
v -0.4 0.7 -0.1
v -0.3 0.7 -0.1
v -0.2 0.7 -0.1
v 0.3 0.7 -0.1
v 0.4 0.7 -0.1
v 0.5 0.7 -0.1
v -0.4 0.7 -0.3
v -0.3 0.7 -0.3
v 0.4 0.7 -0.3
v 0.5 0.7 -0.3
v -0.2 0.7 -0.4
v 0.3 0.7 -0.4
v -0.2 0.7 -0.5
v 0.3 0.7 -0.5
v 0.3 0.8 0.4
v 0.4 0.8 0.4
v 0.3 0.8 0.3
v 0.4 0.8 0.3
v -0.1 0.8 -5.96046e-08
v 0.2 0.8 -5.96046e-08
v -0.3 0.8 -0.1
v -0.2 0.8 -0.1
v -0.1 0.8 -0.1
v 0.2 0.8 -0.1
v 0.3 0.8 -0.1
v 0.4 0.8 -0.1
v -0.2 0.8 -0.3
v 0.3 0.8 -0.3
v -0.3 0.8 -0.4
v 0.4 0.8 -0.4
v -0.3 0.9 0.4
v -0.2 0.9 0.4
v -0.3 0.9 0.3
v -0.2 0.9 0.3
v -0.2 0.9 0.2
v -0.1 0.9 0.2
v 0.2 0.9 0.2
v 0.3 0.9 0.2
v -0.2 0.9 -5.96046e-08
v -0.1 0.9 -5.96046e-08
v 0.2 0.9 -5.96046e-08
v 0.3 0.9 -5.96046e-08
v -0.2 1.1 0.4
v 0.3 1.1 0.4
v -0.1 1.1 0.3
v 0.2 1.1 0.3
v -0.2 1.1 -5.96046e-08
v -0.1 1.1 -5.96046e-08
v 0.2 1.1 -5.96046e-08
v 0.3 1.1 -5.96046e-08
v -0.1 1.2 0.3
v 0.2 1.2 0.3
v -0.3 1.2 -5.96046e-08
v -0.1 1.2 -5.96046e-08
v 0.2 1.2 -5.96046e-08
v 0.4 1.2 -5.96046e-08
v -0.3 1.2 -0.3
v 0.4 1.2 -0.3

# faces
f 3/4/1 2/4/1 1/4/1
f 4/4/1 2/4/1 3/4/1
f 9/2/1 6/2/1 5/2/1
f 10/2/1 6/2/1 9/2/1
f 12/4/1 8/4/1 7/4/1
f 13/4/1 8/4/1 12/4/1
f 15/8/1 11/8/1 10/8/1
f 15/8/1 10/8/1 9/8/1
f 16/8/1 11/8/1 15/8/1
f 17/8/1 11/8/1 16/8/1
f 18/8/1 11/8/1 17/8/1
f 20/2/1 15/2/1 14/2/1
f 20/2/1 16/2/1 15/2/1
f 21/2/1 16/2/1 20/2/1
f 22/2/1 16/2/1 21/2/1
f 23/2/1 16/2/1 22/2/1
f 24/6/1 19/6/1 18/6/1
f 24/6/1 18/6/1 17/6/1
f 25/6/1 19/6/1 24/6/1
f 26/4/1 8/4/1 13/4/1
f 27/4/1 26/4/1 25/4/1
f 28/4/1 8/4/1 26/4/1
f 28/4/1 26/4/1 27/4/1
f 29/3/1 22/3/1 21/3/1
f 30/3/1 22/3/1 29/3/1
f 33/9/1 32/9/1 31/9/1
f 34/9/1 32/9/1 33/9/1
f 35/9/1 33/9/1 31/9/1
f 35/5/1 34/5/1 33/5/1
f 36/9/1 32/9/1 34/9/1
f 36/5/1 34/5/1 35/5/1
f 37/9/1 35/9/1 31/9/1
f 37/9/1 36/9/1 35/9/1
f 38/9/1 32/9/1 36/9/1
f 38/9/1 36/9/1 37/9/1
f 42/1/1 40/1/1 39/1/1
f 43/1/1 40/1/1 42/1/1
f 46/1/1 42/1/1 41/1/1
f 46/1/1 43/1/1 42/1/1
f 47/1/1 43/1/1 46/1/1
f 48/1/1 43/1/1 47/1/1
f 51/4/1 48/4/1 47/4/1
f 52/4/1 48/4/1 51/4/1
f 53/4/1 50/4/1 49/4/1
f 54/4/1 50/4/1 53/4/1
f 56/4/1 45/4/1 44/4/1
f 57/4/1 45/4/1 56/4/1
f 58/6/1 55/6/1 54/6/1
f 58/4/1 54/4/1 53/4/1
f 59/6/1 55/6/1 58/6/1
f 61/4/1 58/4/1 53/4/1
f 61/4/1 60/4/1 59/4/1
f 61/4/1 59/4/1 58/4/1
f 62/4/1 60/4/1 61/4/1
f 63/4/1 60/4/1 62/4/1
f 66/4/1 65/4/1 64/4/1
f 67/4/1 65/4/1 66/4/1
f 70/4/1 69/4/1 68/4/1
f 71/4/1 69/4/1 70/4/1
f 72/4/1 69/4/1 71/4/1
f 73/4/1 69/4/1 72/4/1
f 76/8/1 75/8/1 74/8/1
f 78/8/1 76/8/1 74/8/1
f 78/8/1 77/8/1 76/8/1
f 79/8/1 77/8/1 78/8/1
f 82/4/1 81/4/1 80/4/1
f 83/4/1 81/4/1 82/4/1
f 86/4/1 85/4/1 84/4/1
f 87/4/1 85/4/1 86/4/1
f 88/4/1 85/4/1 87/4/1
f 89/4/1 85/4/1 88/4/1
f 91/1/1 89/1/1 88/1/1
f 91/1/1 90/1/1 89/1/1
f 92/1/1 90/1/1 91/1/1
f 95/4/1 94/4/1 93/4/1
f 96/4/1 94/4/1 95/4/1
f 99/4/1 98/4/1 97/4/1
f 100/4/1 98/4/1 99/4/1
f 102/8/1 100/8/1 99/8/1
f 102/8/1 101/8/1 100/8/1
f 103/8/1 101/8/1 102/8/1
f 104/8/1 101/8/1 103/8/1
f 105/4/1 103/4/1 102/4/1
f 106/4/1 103/4/1 105/4/1
f 107/7/1 106/7/1 105/7/1
f 108/7/1 106/7/1 107/7/1
f 109/2/2 110/2/2 111/2/2
f 111/2/2 110/2/2 112/2/2
f 111/8/2 112/8/2 115/8/2
f 112/8/2 113/8/2 115/8/2
f 115/8/2 113/8/2 116/8/2
f 114/2/2 115/2/2 117/2/2
f 115/2/2 116/2/2 117/2/2
f 117/2/2 116/2/2 118/2/2
f 118/2/2 116/2/2 119/2/2
f 119/2/2 116/2/2 120/2/2
f 118/3/2 119/3/2 121/3/2
f 121/3/2 119/3/2 122/3/2
f 123/4/2 124/4/2 125/4/2
f 125/4/2 124/4/2 126/4/2
f 127/4/2 128/4/2 129/4/2
f 129/4/2 128/4/2 130/4/2
f 130/4/2 128/4/2 131/4/2
f 131/4/2 128/4/2 132/4/2
f 131/1/2 132/1/2 134/1/2
f 132/1/2 133/1/2 134/1/2
f 134/1/2 133/1/2 135/1/2
f 136/4/2 137/4/2 138/4/2
f 138/4/2 137/4/2 139/4/2
f 139/4/2 137/4/2 140/4/2
f 140/4/2 137/4/2 141/4/2
f 142/8/2 143/8/2 144/8/2
f 142/8/2 144/8/2 146/8/2
f 144/8/2 145/8/2 146/8/2
f 146/8/2 145/8/2 147/8/2
f 148/4/2 149/4/2 150/4/2
f 150/4/2 149/4/2 151/4/2
f 152/1/2 153/1/2 155/1/2
f 155/1/2 153/1/2 156/1/2
f 154/1/2 155/1/2 159/1/2
f 155/1/2 156/1/2 159/1/2
f 159/1/2 156/1/2 160/1/2
f 160/1/2 156/1/2 161/1/2
f 160/4/2 161/4/2 164/4/2
f 164/4/2 161/4/2 165/4/2
f 162/4/2 163/4/2 166/4/2
f 157/4/2 158/4/2 168/4/2
f 168/4/2 158/4/2 169/4/2
f 166/6/2 167/6/2 170/6/2
f 162/4/2 166/4/2 170/4/2
f 170/6/2 167/6/2 171/6/2
f 162/4/2 170/4/2 173/4/2
f 171/4/2 172/4/2 173/4/2
f 170/4/2 171/4/2 173/4/2
f 173/4/2 172/4/2 174/4/2
f 174/4/2 172/4/2 175/4/2
f 176/4/2 177/4/2 178/4/2
f 178/4/2 177/4/2 179/4/2
f 180/4/2 181/4/2 184/4/2
f 184/4/2 181/4/2 185/4/2
f 182/4/2 183/4/2 187/4/2
f 187/4/2 183/4/2 188/4/2
f 185/8/2 186/8/2 189/8/2
f 184/8/2 185/8/2 189/8/2
f 189/8/2 186/8/2 190/8/2
f 190/8/2 186/8/2 191/8/2
f 191/8/2 186/8/2 192/8/2
f 189/4/2 190/4/2 194/4/2
f 194/4/2 190/4/2 195/4/2
f 192/6/2 193/6/2 196/6/2
f 191/6/2 192/6/2 196/6/2
f 196/6/2 193/6/2 197/6/2
f 188/4/2 183/4/2 198/4/2
f 194/7/2 195/7/2 199/7/2
f 199/7/2 195/7/2 200/7/2
f 197/4/2 198/4/2 201/4/2
f 198/4/2 183/4/2 202/4/2
f 201/4/2 198/4/2 202/4/2
f 203/9/2 204/9/2 205/9/2
f 205/9/2 204/9/2 206/9/2
f 203/9/2 205/9/2 207/9/2
f 205/5/2 206/5/2 207/5/2
f 206/9/2 204/9/2 208/9/2
f 207/5/2 206/5/2 208/5/2
f 203/9/2 207/9/2 209/9/2
f 207/9/2 208/9/2 209/9/2
f 208/9/2 204/9/2 210/9/2
f 209/9/2 208/9/2 210/9/2
f 211/4/2 212/4/2 213/4/2
f 213/4/2 212/4/2 214/4/2
f 217/2/3 216/2/3 215/2/3
f 218/2/3 216/2/3 217/2/3
f 224/2/3 220/2/3 219/2/3
f 225/8/3 221/8/3 220/8/3
f 225/2/3 220/2/3 224/2/3
f 226/8/3 221/8/3 225/8/3
f 227/3/3 223/3/3 222/3/3
f 228/3/3 223/3/3 227/3/3
f 236/4/3 230/4/3 229/4/3
f 237/4/3 230/4/3 236/4/3
f 238/4/3 232/4/3 231/4/3
f 239/8/3 233/8/3 232/8/3
f 239/4/3 232/4/3 238/4/3
f 240/4/3 234/4/3 233/4/3
f 240/8/3 233/8/3 239/8/3
f 241/7/3 235/7/3 234/7/3
f 241/4/3 234/4/3 240/4/3
f 242/7/3 235/7/3 241/7/3
f 247/8/3 244/8/3 243/8/3
f 248/8/3 244/8/3 247/8/3
f 249/4/3 246/4/3 245/4/3
f 250/4/3 246/4/3 249/4/3
f 258/1/3 252/1/3 251/1/3
f 258/4/3 253/4/3 252/4/3
f 258/4/3 255/4/3 254/4/3
f 258/4/3 254/4/3 253/4/3
f 259/4/3 255/4/3 258/4/3
f 260/4/3 255/4/3 259/4/3
f 261/4/3 255/4/3 260/4/3
f 262/4/3 257/4/3 256/4/3
f 263/4/3 257/4/3 262/4/3
f 264/6/3 260/6/3 259/6/3
f 265/6/3 260/6/3 264/6/3
f 268/6/3 264/6/3 259/6/3
f 268/8/3 265/8/3 264/8/3
f 269/8/3 265/8/3 268/8/3
f 270/4/3 267/4/3 266/4/3
f 271/4/3 267/4/3 270/4/3
f 272/1/3 258/1/3 251/1/3
f 272/1/3 259/1/3 258/1/3
f 273/6/3 268/6/3 259/6/3
f 273/1/3 259/1/3 272/1/3
f 273/6/3 269/6/3 268/6/3
f 274/6/3 269/6/3 273/6/3
f 276/1/3 272/1/3 251/1/3
f 277/4/3 275/4/3 274/4/3
f 277/1/3 272/1/3 276/1/3
f 277/4/3 274/4/3 273/4/3
f 277/4/3 273/4/3 272/4/3
f 278/4/3 275/4/3 277/4/3
f 279/4/3 275/4/3 278/4/3
f 284/6/3 281/6/3 280/6/3
f 285/6/3 281/6/3 284/6/3
f 287/1/3 283/1/3 282/1/3
f 288/4/3 287/4/3 286/4/3
f 289/1/3 283/1/3 287/1/3
f 289/4/3 287/4/3 288/4/3
f 290/1/3 283/1/3 289/1/3
f 294/4/3 292/4/3 291/4/3
f 295/1/3 293/1/3 292/1/3
f 295/4/3 292/4/3 294/4/3
f 296/1/3 293/1/3 295/1/3
f 297/1/3 293/1/3 296/1/3
f 300/6/3 299/6/3 298/6/3
f 301/6/3 299/6/3 300/6/3
f 304/9/3 303/9/3 302/9/3
f 305/9/3 303/9/3 304/9/3
f 306/9/3 303/9/3 305/9/3
f 307/9/3 305/9/3 304/9/3
f 308/9/3 305/9/3 307/9/3
f 309/9/3 303/9/3 306/9/3
f 310/9/3 303/9/3 309/9/3
f 315/9/3 312/9/3 311/9/3
f 316/9/3 312/9/3 315/9/3
f 317/9/3 314/9/3 313/9/3
f 318/9/3 316/9/3 315/9/3
f 318/9/3 317/9/3 316/9/3
f 319/9/3 314/9/3 317/9/3
f 319/9/3 317/9/3 318/9/3
f 323/4/3 321/4/3 320/4/3
f 324/4/3 321/4/3 323/4/3
f 325/4/3 321/4/3 324/4/3
f 327/4/3 323/4/3 322/4/3
f 327/4/3 324/4/3 323/4/3
f 328/4/3 324/4/3 327/4/3
f 329/4/3 324/4/3 328/4/3
f 330/4/3 326/4/3 325/4/3
f 331/4/3 326/4/3 330/4/3
f 334/4/3 333/4/3 332/4/3
f 335/4/3 333/4/3 334/4/3
f 341/4/3 337/4/3 336/4/3
f 341/4/3 338/4/3 337/4/3
f 342/4/3 338/4/3 341/4/3
f 343/4/3 338/4/3 342/4/3
f 344/4/3 340/4/3 339/4/3
f 345/4/3 340/4/3 344/4/3
f 346/4/3 343/4/3 342/4/3
f 346/4/3 344/4/3 343/4/3
f 347/4/3 344/4/3 346/4/3
f 348/2/4 349/2/4 352/2/4
f 352/2/4 349/2/4 353/2/4
f 350/3/4 351/3/4 354/3/4
f 354/3/4 351/3/4 355/3/4
f 356/4/4 357/4/4 361/4/4
f 361/4/4 357/4/4 362/4/4
f 358/4/4 359/4/4 363/4/4
f 359/7/4 360/7/4 364/7/4
f 363/4/4 359/4/4 364/4/4
f 364/7/4 360/7/4 365/7/4
f 366/2/4 367/2/4 368/2/4
f 368/2/4 367/2/4 369/2/4
f 370/8/4 371/8/4 372/8/4
f 372/8/4 371/8/4 373/8/4
f 374/4/4 375/4/4 378/4/4
f 378/4/4 375/4/4 379/4/4
f 380/4/4 381/4/4 382/4/4
f 382/4/4 381/4/4 383/4/4
f 376/8/4 377/8/4 384/8/4
f 384/8/4 377/8/4 385/8/4
f 386/8/4 387/8/4 388/8/4
f 388/8/4 387/8/4 389/8/4
f 390/1/4 391/1/4 392/1/4
f 392/1/4 391/1/4 393/1/4
f 394/1/4 395/1/4 396/1/4
f 396/1/4 395/1/4 397/1/4
f 398/4/4 399/4/4 400/4/4
f 400/4/4 399/4/4 401/4/4
f 402/9/4 403/9/4 405/9/4
f 404/4/4 405/4/4 406/4/4
f 405/9/4 403/9/4 407/9/4
f 406/4/4 405/4/4 407/4/4
f 407/9/4 403/9/4 410/9/4
f 410/9/4 403/9/4 411/9/4
f 408/4/4 409/4/4 412/4/4
f 412/4/4 409/4/4 413/4/4
f 414/4/4 415/4/4 416/4/4
f 416/4/4 415/4/4 417/4/4
f 417/4/4 415/4/4 419/4/4
f 418/4/4 419/4/4 420/4/4
f 419/4/4 415/4/4 421/4/4
f 420/4/4 419/4/4 421/4/4
f 422/4/4 423/4/4 424/4/4
f 424/4/4 423/4/4 425/4/4
f 430/4/5 427/4/5 426/4/5
f 431/4/5 427/4/5 430/4/5
f 432/4/5 429/4/5 428/4/5
f 433/4/5 429/4/5 432/4/5
f 438/1/5 435/1/5 434/1/5
f 441/1/5 437/1/5 436/1/5
f 442/1/5 439/1/5 438/1/5
f 442/1/5 438/1/5 434/1/5
f 443/1/5 439/1/5 442/1/5
f 444/1/5 441/1/5 440/1/5
f 445/1/5 437/1/5 441/1/5
f 445/1/5 441/1/5 444/1/5
f 450/2/5 447/2/5 446/2/5
f 451/2/5 447/2/5 450/2/5
f 452/4/5 449/4/5 448/4/5
f 453/4/5 449/4/5 452/4/5
f 456/1/5 455/1/5 454/1/5
f 457/1/5 455/1/5 456/1/5
f 458/1/5 455/1/5 457/1/5
f 459/1/5 455/1/5 458/1/5
f 462/1/5 458/1/5 457/1/5
f 463/1/5 458/1/5 462/1/5
f 466/4/5 464/4/5 463/4/5
f 466/4/5 465/4/5 464/4/5
f 466/4/5 463/4/5 462/4/5
f 466/4/5 462/4/5 461/4/5
f 466/4/5 461/4/5 460/4/5
f 467/4/5 465/4/5 466/4/5
f 468/4/5 465/4/5 467/4/5
f 469/4/5 465/4/5 468/4/5
f 470/4/5 468/4/5 467/4/5
f 471/4/5 468/4/5 470/4/5
f 476/8/5 473/8/5 472/8/5
f 477/8/5 475/8/5 474/8/5
f 478/8/5 476/8/5 472/8/5
f 479/8/5 476/8/5 478/8/5
f 480/8/5 475/8/5 477/8/5
f 481/8/5 475/8/5 480/8/5
f 486/4/5 483/4/5 482/4/5
f 487/4/5 483/4/5 486/4/5
f 488/4/5 485/4/5 484/4/5
f 489/4/5 485/4/5 488/4/5
f 492/2/5 491/2/5 490/2/5
f 493/2/5 491/2/5 492/2/5
f 498/6/5 495/6/5 494/6/5
f 499/6/5 495/6/5 498/6/5
f 500/6/5 497/6/5 496/6/5
f 501/6/5 497/6/5 500/6/5
f 504/8/5 503/8/5 502/8/5
f 505/8/5 503/8/5 504/8/5
f 506/8/5 503/8/5 505/8/5
f 507/8/5 503/8/5 506/8/5
f 514/9/5 511/9/5 510/9/5
f 515/9/5 511/9/5 514/9/5
f 516/9/5 509/9/5 508/9/5
f 517/9/5 509/9/5 516/9/5
f 518/9/5 513/9/5 512/9/5
f 519/9/5 513/9/5 518/9/5
f 522/4/5 521/4/5 520/4/5
f 523/4/5 521/4/5 522/4/5
f 524/4/5 522/4/5 520/4/5
f 525/4/5 522/4/5 524/4/5
f 526/4/5 521/4/5 523/4/5
f 527/4/5 521/4/5 526/4/5
f 528/4/6 529/4/6 532/4/6
f 532/4/6 529/4/6 533/4/6
f 530/4/6 531/4/6 534/4/6
f 534/4/6 531/4/6 535/4/6
f 536/8/6 537/8/6 540/8/6
f 538/8/6 539/8/6 541/8/6
f 541/8/6 539/8/6 542/8/6
f 540/8/6 537/8/6 543/8/6
f 543/8/6 537/8/6 544/8/6
f 545/2/6 546/2/6 547/2/6
f 547/2/6 546/2/6 548/2/6
f 549/2/6 550/2/6 551/2/6
f 551/2/6 550/2/6 552/2/6
f 553/6/6 554/6/6 558/6/6
f 558/6/6 554/6/6 559/6/6
f 555/6/6 556/6/6 560/6/6
f 560/6/6 556/6/6 561/6/6
f 557/4/6 558/4/6 563/4/6
f 563/4/6 558/4/6 564/4/6
f 561/4/6 562/4/6 565/4/6
f 565/4/6 562/4/6 566/4/6
f 567/4/6 568/4/6 569/4/6
f 569/4/6 568/4/6 570/4/6
f 571/7/6 572/7/6 573/7/6
f 573/7/6 572/7/6 574/7/6
f 575/6/6 576/6/6 579/6/6
f 579/6/6 576/6/6 580/6/6
f 577/4/6 578/4/6 583/4/6
f 581/4/6 582/4/6 584/4/6
f 577/4/6 583/4/6 585/4/6
f 583/4/6 584/4/6 585/4/6
f 584/4/6 582/4/6 586/4/6
f 585/4/6 584/4/6 586/4/6
f 587/3/6 588/3/6 589/3/6
f 589/3/6 588/3/6 590/3/6
f 591/4/6 592/4/6 595/4/6
f 595/4/6 592/4/6 596/4/6
f 593/4/6 594/4/6 597/4/6
f 597/4/6 594/4/6 598/4/6
f 599/4/6 600/4/6 601/4/6
f 601/4/6 600/4/6 602/4/6
f 599/4/6 601/4/6 603/4/6
f 603/4/6 601/4/6 604/4/6
f 602/4/6 600/4/6 605/4/6
f 605/4/6 600/4/6 606/4/6
f 607/4/6 608/4/6 610/4/6
f 610/4/6 608/4/6 611/4/6
f 609/9/6 610/9/6 613/9/6
f 611/9/6 612/9/6 613/9/6
f 610/9/6 611/9/6 613/9/6
f 613/9/6 612/9/6 614/9/6
