# MagicaVoxel @ Ephtracy

# group
o 

# material
mtllib adventurer_walk_3.mtl
usemtl palette

# normals
vn -1 0 0
vn 1 0 0
vn 0 0 1
vn 0 0 -1
vn 0 -1 0
vn 0 1 0

# texcoords
vt 0.783203 0.5
vt 0.787109 0.5
vt 0.791016 0.5
vt 0.814453 0.5
vt 0.818359 0.5
vt 0.888672 0.5
vt 0.912109 0.5
vt 0.939453 0.5
vt 0.974609 0.5

# verts
v -0.4 0.4 -0.1
v -0.4 0.4 -0.3
v -0.4 0.7 -0.1
v -0.4 0.7 -0.3
v -0.3 0.3 -0.1
v -0.3 0.3 -0.4
v -0.3 0.4 0.4
v -0.3 0.4 0.3
v -0.3 0.4 -0.1
v -0.3 0.4 -0.3
v -0.3 0.5 0.4
v -0.3 0.5 0.3
v -0.3 0.5 -5.96046e-08
v -0.3 0.6 0.5
v -0.3 0.6 0.4
v -0.3 0.6 0.2
v -0.3 0.6 0.1
v -0.3 0.6 -5.96046e-08
v -0.3 0.6 -0.1
v -0.3 0.7 0.5
v -0.3 0.7 0.4
v -0.3 0.7 0.3
v -0.3 0.7 0.2
v -0.3 0.7 -0.1
v -0.3 0.7 -0.3
v -0.3 0.8 0.1
v -0.3 0.8 -0.1
v -0.3 0.8 -0.4
v -0.3 0.9 -5.96046e-08
v -0.3 0.9 -0.3
v -0.3 1 0.4
v -0.3 1 0.3
v -0.3 1 -0.1
v -0.3 1 -0.2
v -0.3 1.1 -0.1
v -0.3 1.1 -0.2
v -0.3 1.2 -5.96046e-08
v -0.3 1.2 -0.3
v -0.2 0.2 0.1
v -0.2 0.2 -0.1
v -0.2 0.3 0.2
v -0.2 0.3 0.1
v -0.2 0.3 -0.1
v -0.2 0.3 -0.4
v -0.2 0.3 -0.5
v -0.2 0.4 0.2
v -0.2 0.4 -0.1
v -0.2 0.5 0.2
v -0.2 0.5 -5.96046e-08
v -0.2 0.5 -0.1
v -0.2 0.6 0.2
v -0.2 0.6 0.1
v -0.2 0.6 -5.96046e-08
v -0.2 0.6 -0.1
v -0.2 0.7 0.2
v -0.2 0.7 -0.4
v -0.2 0.7 -0.5
v -0.2 0.8 0.1
v -0.2 0.8 -0.1
v -0.2 0.8 -0.3
v -0.2 0.9 0.2
v -0.2 0.9 -5.96046e-08
v -0.2 0.9 -0.3
v -0.2 1 0.4
v -0.2 1 0.3
v -0.2 1 -5.96046e-08
v -0.2 1.1 0.4
v -0.2 1.1 -5.96046e-08
v -0.1 0.1 0.3
v -0.1 0.1 0.1
v -0.1 0.2 0.3
v -0.1 0.2 0.2
v -0.1 0.2 0.1
v -0.1 0.3 0.2
v -0.1 0.3 0.1
v -0.1 0.8 0.3
v -0.1 0.8 0.2
v -0.1 0.9 0.2
v -0.1 0.9 -5.96046e-08
v -0.1 1 0.3
v -0.1 1 -5.96046e-08
v -0.1 1.1 0.3
v -0.1 1.1 -5.96046e-08
v -0.1 1.2 0.3
v -0.1 1.2 -5.96046e-08
v 0.1 0 0.1
v 0.1 0 -0.1
v 0.1 0.1 0.1
v 0.1 0.1 -5.96046e-08
v 0.1 0.2 0.1
v 0.1 0.2 -5.96046e-08
v 0.1 0.2 -0.1
v 0.1 0.3 0.1
v 0.1 0.3 -0.1
v 0.2 0.8 -5.96046e-08
v 0.2 0.8 -0.1
v 0.2 0.9 -5.96046e-08
v 0.2 0.9 -0.1
v 0.3 0.4 0.4
v 0.3 0.4 0.3
v 0.3 0.5 0.4
v 0.3 0.5 0.3
v 0.3 0.5 0.2
v 0.3 0.6 0.4
v 0.3 0.6 0.3
v 0.3 0.6 0.2
v 0.3 0.8 0.4
v 0.3 0.8 0.3
v 0.3 0.9 0.4
v 0.3 0.9 0.3
v -0.2 0.4 0.4
v -0.2 0.4 0.3
v -0.2 0.5 0.4
v -0.2 0.5 0.3
v -0.2 0.5 0.2
v -0.2 0.6 0.5
v -0.2 0.6 0.4
v -0.2 0.6 0.2
v -0.2 0.7 0.5
v -0.2 0.7 0.4
v -0.2 0.7 0.3
v -0.2 0.7 0.2
v -0.2 1 0.4
v -0.2 1 0.3
v -0.1 0.8 -5.96046e-08
v -0.1 0.8 -0.1
v -0.1 0.9 -5.96046e-08
v -0.1 0.9 -0.1
v 0 0.1 0.3
v 0 0.1 0.1
v 0 0.2 0.3
v 0 0.2 0.2
v 0 0.2 0.1
v 0 0.2 -0.1
v 0 0.3 0.2
v 0 0.3 0.1
v 0 0.3 -0.1
v 0.2 0 0.1
v 0.2 0 -0.1
v 0.2 0.1 0.1
v 0.2 0.1 -5.96046e-08
v 0.2 0.2 -5.96046e-08
v 0.2 0.2 -0.1
v 0.2 0.8 0.3
v 0.2 0.8 0.2
v 0.2 0.9 0.2
v 0.2 0.9 -5.96046e-08
v 0.2 1 0.3
v 0.2 1 -5.96046e-08
v 0.2 1.1 0.3
v 0.2 1.1 -5.96046e-08
v 0.2 1.2 0.3
v 0.2 1.2 -5.96046e-08
v 0.3 0.2 0.1
v 0.3 0.2 -0.1
v 0.3 0.3 0.2
v 0.3 0.3 0.1
v 0.3 0.3 -0.1
v 0.3 0.3 -0.4
v 0.3 0.3 -0.5
v 0.3 0.4 0.2
v 0.3 0.4 -0.1
v 0.3 0.5 0.2
v 0.3 0.5 -5.96046e-08
v 0.3 0.5 -0.1
v 0.3 0.6 0.2
v 0.3 0.6 0.1
v 0.3 0.6 -5.96046e-08
v 0.3 0.6 -0.1
v 0.3 0.7 -0.4
v 0.3 0.7 -0.5
v 0.3 0.8 0.1
v 0.3 0.8 -0.1
v 0.3 0.8 -0.3
v 0.3 0.9 0.2
v 0.3 0.9 -5.96046e-08
v 0.3 0.9 -0.3
v 0.3 1 0.4
v 0.3 1 -5.96046e-08
v 0.3 1.1 0.4
v 0.3 1.1 -5.96046e-08
v 0.4 0.3 -0.1
v 0.4 0.3 -0.4
v 0.4 0.4 0.4
v 0.4 0.4 0.3
v 0.4 0.4 -0.1
v 0.4 0.4 -0.3
v 0.4 0.5 0.4
v 0.4 0.5 0.3
v 0.4 0.5 -5.96046e-08
v 0.4 0.6 0.4
v 0.4 0.6 0.3
v 0.4 0.6 0.1
v 0.4 0.6 -5.96046e-08
v 0.4 0.6 -0.1
v 0.4 0.7 -0.1
v 0.4 0.7 -0.3
v 0.4 0.8 0.4
v 0.4 0.8 0.3
v 0.4 0.8 0.1
v 0.4 0.8 -0.1
v 0.4 0.8 -0.4
v 0.4 0.9 0.4
v 0.4 0.9 0.3
v 0.4 0.9 -5.96046e-08
v 0.4 0.9 -0.3
v 0.4 1 -0.1
v 0.4 1 -0.2
v 0.4 1.1 -0.1
v 0.4 1.1 -0.2
v 0.4 1.2 -5.96046e-08
v 0.4 1.2 -0.3
v 0.5 0.4 -0.1
v 0.5 0.4 -0.3
v 0.5 0.7 -0.1
v 0.5 0.7 -0.3
v -0.3 0.6 0.5
v -0.3 0.7 0.5
v -0.2 0.6 0.5
v -0.2 0.7 0.5
v -0.3 0.4 0.4
v -0.3 0.5 0.4
v -0.3 0.6 0.4
v -0.3 0.7 0.4
v -0.3 1 0.4
v -0.2 0.4 0.4
v -0.2 0.5 0.4
v -0.2 0.6 0.4
v -0.2 0.7 0.4
v -0.2 1 0.4
v -0.2 1.1 0.4
v 0.3 0.4 0.4
v 0.3 0.5 0.4
v 0.3 0.6 0.4
v 0.3 0.8 0.4
v 0.3 0.9 0.4
v 0.3 1 0.4
v 0.3 1.1 0.4
v 0.4 0.4 0.4
v 0.4 0.5 0.4
v 0.4 0.6 0.4
v 0.4 0.8 0.4
v 0.4 0.9 0.4
v -0.1 0.1 0.3
v -0.1 0.2 0.3
v -0.1 0.8 0.3
v -0.1 1 0.3
v -0.1 1.1 0.3
v -0.1 1.2 0.3
v 0 0.1 0.3
v 0 0.2 0.3
v 0.2 0.8 0.3
v 0.2 1 0.3
v 0.2 1.1 0.3
v 0.2 1.2 0.3
v -0.2 0.3 0.2
v -0.2 0.4 0.2
v -0.2 0.5 0.2
v -0.2 0.6 0.2
v -0.2 0.7 0.2
v -0.2 0.9 0.2
v -0.1 0.2 0.2
v -0.1 0.3 0.2
v -0.1 0.4 0.2
v -0.1 0.5 0.2
v -0.1 0.8 0.2
v -0.1 0.9 0.2
v 0 0.2 0.2
v 0 0.3 0.2
v 0 0.6 0.2
v 0 0.8 0.2
v 0.1 0.6 0.2
v 0.1 0.8 0.2
v 0.2 0.4 0.2
v 0.2 0.5 0.2
v 0.2 0.8 0.2
v 0.2 0.9 0.2
v 0.3 0.3 0.2
v 0.3 0.4 0.2
v 0.3 0.5 0.2
v 0.3 0.6 0.2
v 0.3 0.9 0.2
v -0.3 0.6 0.1
v -0.3 0.8 0.1
v -0.2 0.2 0.1
v -0.2 0.3 0.1
v -0.2 0.6 0.1
v -0.2 0.8 0.1
v -0.1 0.2 0.1
v -0.1 0.3 0.1
v 0.1 0 0.1
v 0.1 0.1 0.1
v 0.1 0.2 0.1
v 0.1 0.3 0.1
v 0.2 0 0.1
v 0.2 0.1 0.1
v 0.3 0.2 0.1
v 0.3 0.3 0.1
v 0.3 0.6 0.1
v 0.3 0.8 0.1
v 0.4 0.6 0.1
v 0.4 0.8 0.1
v -0.3 0.9 -5.96046e-08
v -0.3 1.2 -5.96046e-08
v -0.2 0.9 -5.96046e-08
v -0.2 1 -5.96046e-08
v -0.2 1.1 -5.96046e-08
v -0.1 0.9 -5.96046e-08
v -0.1 1 -5.96046e-08
v -0.1 1.1 -5.96046e-08
v -0.1 1.2 -5.96046e-08
v 0.1 0.1 -5.96046e-08
v 0.1 0.2 -5.96046e-08
v 0.2 0.1 -5.96046e-08
v 0.2 0.2 -5.96046e-08
v 0.2 0.9 -5.96046e-08
v 0.2 1 -5.96046e-08
v 0.2 1.1 -5.96046e-08
v 0.2 1.2 -5.96046e-08
v 0.3 0.9 -5.96046e-08
v 0.3 1 -5.96046e-08
v 0.3 1.1 -5.96046e-08
v 0.4 0.9 -5.96046e-08
v 0.4 1.2 -5.96046e-08
v -0.4 0.4 -0.1
v -0.4 0.7 -0.1
v -0.3 0.3 -0.1
v -0.3 0.4 -0.1
v -0.3 0.6 -0.1
v -0.3 0.7 -0.1
v -0.2 0.3 -0.1
v -0.2 0.4 -0.1
v -0.2 0.5 -0.1
v -0.2 0.6 -0.1
v -0.1 0.8 -0.1
v -0.1 0.9 -0.1
v 0.2 0.8 -0.1
v 0.2 0.9 -0.1
v 0.3 0.3 -0.1
v 0.3 0.4 -0.1
v 0.3 0.5 -0.1
v 0.3 0.6 -0.1
v 0.4 0.3 -0.1
v 0.4 0.4 -0.1
v 0.4 0.6 -0.1
v 0.4 0.7 -0.1
v 0.5 0.4 -0.1
v 0.5 0.7 -0.1
v -0.3 0.4 0.3
v -0.3 0.5 0.3
v -0.3 0.7 0.3
v -0.3 1 0.3
v -0.2 0.4 0.3
v -0.2 0.5 0.3
v -0.2 0.7 0.3
v -0.2 1 0.3
v 0.3 0.4 0.3
v 0.3 0.5 0.3
v 0.3 0.6 0.3
v 0.3 0.8 0.3
v 0.3 0.9 0.3
v 0.4 0.4 0.3
v 0.4 0.5 0.3
v 0.4 0.6 0.3
v 0.4 0.8 0.3
v 0.4 0.9 0.3
v -0.3 0.6 0.2
v -0.3 0.7 0.2
v -0.2 0.6 0.2
v -0.2 0.7 0.2
v -0.1 0.1 0.1
v -0.1 0.2 0.1
v 0 0.1 0.1
v 0 0.2 0.1
v -0.3 0.5 -5.96046e-08
v -0.3 0.6 -5.96046e-08
v -0.2 0.5 -5.96046e-08
v -0.2 0.6 -5.96046e-08
v -0.1 0.8 -5.96046e-08
v -0.1 0.9 -5.96046e-08
v 0.2 0.8 -5.96046e-08
v 0.2 0.9 -5.96046e-08
v 0.3 0.5 -5.96046e-08
v 0.3 0.6 -5.96046e-08
v 0.4 0.5 -5.96046e-08
v 0.4 0.6 -5.96046e-08
v -0.2 0.2 -0.1
v -0.2 0.3 -0.1
v 0 0.2 -0.1
v 0 0.3 -0.1
v 0.1 0 -0.1
v 0.1 0.2 -0.1
v 0.1 0.3 -0.1
v 0.2 0 -0.1
v 0.2 0.2 -0.1
v 0.3 0.2 -0.1
v 0.3 0.3 -0.1
v -0.4 0.4 -0.3
v -0.4 0.7 -0.3
v -0.3 0.4 -0.3
v -0.3 0.7 -0.3
v -0.3 0.9 -0.3
v -0.3 1.2 -0.3
v -0.2 0.8 -0.3
v -0.2 0.9 -0.3
v 0.3 0.8 -0.3
v 0.3 0.9 -0.3
v 0.4 0.4 -0.3
v 0.4 0.7 -0.3
v 0.4 0.9 -0.3
v 0.4 1.2 -0.3
v 0.5 0.4 -0.3
v 0.5 0.7 -0.3
v -0.3 0.3 -0.4
v -0.3 0.8 -0.4
v -0.2 0.3 -0.4
v -0.2 0.7 -0.4
v 0.3 0.3 -0.4
v 0.3 0.7 -0.4
v 0.4 0.3 -0.4
v 0.4 0.8 -0.4
v -0.2 0.3 -0.5
v -0.2 0.7 -0.5
v 0.3 0.3 -0.5
v 0.3 0.7 -0.5
v 0.1 0 0.1
v 0.2 0 0.1
v 0.1 0 -0.1
v 0.2 0 -0.1
v -0.1 0.1 0.3
v 0 0.1 0.3
v -0.1 0.1 0.1
v 0 0.1 0.1
v -0.2 0.2 0.1
v -0.1 0.2 0.1
v 0 0.2 0.1
v 0.1 0.2 0.1
v 0.3 0.2 0.1
v 0.1 0.2 -5.96046e-08
v 0.2 0.2 -5.96046e-08
v -0.2 0.2 -0.1
v 0 0.2 -0.1
v 0.2 0.2 -0.1
v 0.3 0.2 -0.1
v -0.2 0.3 0.2
v -0.1 0.3 0.2
v 0 0.3 0.2
v 0.3 0.3 0.2
v -0.2 0.3 0.1
v -0.1 0.3 0.1
v 0 0.3 0.1
v 0.1 0.3 0.1
v 0.3 0.3 0.1
v -0.3 0.3 -0.1
v -0.2 0.3 -0.1
v 0 0.3 -0.1
v 0.1 0.3 -0.1
v 0.3 0.3 -0.1
v 0.4 0.3 -0.1
v -0.3 0.3 -0.4
v -0.2 0.3 -0.4
v 0.3 0.3 -0.4
v 0.4 0.3 -0.4
v -0.2 0.3 -0.5
v 0.3 0.3 -0.5
v -0.3 0.4 0.4
v -0.2 0.4 0.4
v 0.3 0.4 0.4
v 0.4 0.4 0.4
v -0.3 0.4 0.3
v -0.2 0.4 0.3
v 0.3 0.4 0.3
v 0.4 0.4 0.3
v -0.4 0.4 -0.1
v -0.3 0.4 -0.1
v 0.4 0.4 -0.1
v 0.5 0.4 -0.1
v -0.4 0.4 -0.3
v -0.3 0.4 -0.3
v 0.4 0.4 -0.3
v 0.5 0.4 -0.3
v -0.3 0.5 0.3
v -0.2 0.5 0.3
v 0.3 0.5 0.3
v 0.4 0.5 0.3
v -0.2 0.5 0.2
v 0.3 0.5 0.2
v -0.3 0.5 -5.96046e-08
v -0.2 0.5 -5.96046e-08
v 0.3 0.5 -5.96046e-08
v 0.4 0.5 -5.96046e-08
v -0.3 0.6 0.5
v -0.2 0.6 0.5
v -0.3 0.6 0.4
v -0.2 0.6 0.4
v -0.3 0.6 -5.96046e-08
v -0.2 0.6 -5.96046e-08
v 0.3 0.6 -5.96046e-08
v 0.4 0.6 -5.96046e-08
v -0.3 0.6 -0.1
v -0.2 0.6 -0.1
v 0.3 0.6 -0.1
v 0.4 0.6 -0.1
v -0.1 0.8 0.3
v 0.2 0.8 0.3
v -0.1 0.8 0.2
v 0 0.8 0.2
v 0.1 0.8 0.2
v 0.2 0.8 0.2
v -0.3 0.9 -5.96046e-08
v -0.2 0.9 -5.96046e-08
v -0.1 0.9 -5.96046e-08
v 0.2 0.9 -5.96046e-08
v 0.3 0.9 -5.96046e-08
v 0.4 0.9 -5.96046e-08
v -0.1 0.9 -0.1
v 0.2 0.9 -0.1
v -0.3 0.9 -0.3
v -0.2 0.9 -0.3
v 0.3 0.9 -0.3
v 0.4 0.9 -0.3
v -0.2 1 0.4
v 0.3 1 0.4
v -0.2 1 0.3
v -0.1 1 0.3
v 0.2 1 0.3
v -0.2 1 -5.96046e-08
v -0.1 1 -5.96046e-08
v 0.2 1 -5.96046e-08
v 0.3 1 -5.96046e-08
v 0.1 0.1 0.1
v 0.2 0.1 0.1
v 0.1 0.1 -5.96046e-08
v 0.2 0.1 -5.96046e-08
v -0.1 0.2 0.3
v 0 0.2 0.3
v -0.1 0.2 0.2
v 0 0.2 0.2
v 0.3 0.6 0.3
v 0.4 0.6 0.3
v -0.3 0.6 0.2
v -0.2 0.6 0.2
v 0.3 0.6 0.2
v -0.3 0.6 0.1
v -0.2 0.6 0.1
v 0.3 0.6 0.1
v 0.4 0.6 0.1
v -0.3 0.7 0.5
v -0.2 0.7 0.5
v -0.3 0.7 0.4
v -0.2 0.7 0.4
v -0.3 0.7 0.3
v -0.2 0.7 0.3
v -0.3 0.7 0.2
v -0.2 0.7 0.2
v -0.4 0.7 -0.1
v -0.3 0.7 -0.1
v 0.4 0.7 -0.1
v 0.5 0.7 -0.1
v -0.4 0.7 -0.3
v -0.3 0.7 -0.3
v 0.4 0.7 -0.3
v 0.5 0.7 -0.3
v -0.2 0.7 -0.4
v 0.3 0.7 -0.4
v -0.2 0.7 -0.5
v 0.3 0.7 -0.5
v -0.3 0.8 0.1
v -0.2 0.8 0.1
v 0.3 0.8 0.1
v 0.4 0.8 0.1
v -0.1 0.8 -5.96046e-08
v 0.2 0.8 -5.96046e-08
v -0.3 0.8 -0.1
v -0.2 0.8 -0.1
v -0.1 0.8 -0.1
v 0.2 0.8 -0.1
v 0.3 0.8 -0.1
v 0.4 0.8 -0.1
v -0.2 0.8 -0.3
v 0.3 0.8 -0.3
v -0.3 0.8 -0.4
v 0.4 0.8 -0.4
v 0.3 0.9 0.4
v 0.4 0.9 0.4
v 0.3 0.9 0.3
v 0.4 0.9 0.3
v -0.2 0.9 0.2
v -0.1 0.9 0.2
v 0.2 0.9 0.2
v 0.3 0.9 0.2
v -0.2 0.9 -5.96046e-08
v -0.1 0.9 -5.96046e-08
v 0.2 0.9 -5.96046e-08
v 0.3 0.9 -5.96046e-08
v -0.3 1 0.4
v -0.2 1 0.4
v -0.3 1 0.3
v -0.2 1 0.3
v -0.2 1.1 0.4
v 0.3 1.1 0.4
v -0.1 1.1 0.3
v 0.2 1.1 0.3
v -0.2 1.1 -5.96046e-08
v -0.1 1.1 -5.96046e-08
v 0.2 1.1 -5.96046e-08
v 0.3 1.1 -5.96046e-08
v -0.1 1.2 0.3
v 0.2 1.2 0.3
v -0.3 1.2 -5.96046e-08
v -0.1 1.2 -5.96046e-08
v 0.2 1.2 -5.96046e-08
v 0.4 1.2 -5.96046e-08
v -0.3 1.2 -0.3
v 0.4 1.2 -0.3

# faces
f 3/4/1 2/4/1 1/4/1
f 4/4/1 2/4/1 3/4/1
f 9/4/1 6/4/1 5/4/1
f 10/4/1 6/4/1 9/4/1
f 11/2/1 8/2/1 7/2/1
f 12/2/1 8/2/1 11/2/1
f 15/8/1 12/8/1 11/8/1
f 15/8/1 13/8/1 12/8/1
f 16/8/1 13/8/1 15/8/1
f 17/8/1 13/8/1 16/8/1
f 18/8/1 13/8/1 17/8/1
f 20/2/1 15/2/1 14/2/1
f 20/2/1 16/2/1 15/2/1
f 21/2/1 16/2/1 20/2/1
f 22/2/1 16/2/1 21/2/1
f 23/2/1 16/2/1 22/2/1
f 24/6/1 19/6/1 18/6/1
f 24/6/1 18/6/1 17/6/1
f 25/4/1 6/4/1 10/4/1
f 26/6/1 24/6/1 17/6/1
f 27/4/1 25/4/1 24/4/1
f 27/6/1 24/6/1 26/6/1
f 28/4/1 6/4/1 25/4/1
f 28/4/1 25/4/1 27/4/1
f 31/3/1 22/3/1 21/3/1
f 32/3/1 22/3/1 31/3/1
f 33/9/1 30/9/1 29/9/1
f 34/9/1 30/9/1 33/9/1
f 35/9/1 33/9/1 29/9/1
f 35/5/1 34/5/1 33/5/1
f 36/9/1 30/9/1 34/9/1
f 36/5/1 34/5/1 35/5/1
f 37/9/1 35/9/1 29/9/1
f 37/9/1 36/9/1 35/9/1
f 38/9/1 30/9/1 36/9/1
f 38/9/1 36/9/1 37/9/1
f 42/1/1 40/1/1 39/1/1
f 43/1/1 40/1/1 42/1/1
f 46/1/1 42/1/1 41/1/1
f 46/1/1 43/1/1 42/1/1
f 47/1/1 43/1/1 46/1/1
f 48/4/1 47/4/1 46/4/1
f 49/4/1 47/4/1 48/4/1
f 50/4/1 47/4/1 49/4/1
f 53/6/1 50/6/1 49/6/1
f 54/6/1 50/6/1 53/6/1
f 55/4/1 52/4/1 51/4/1
f 56/4/1 45/4/1 44/4/1
f 57/4/1 45/4/1 56/4/1
f 58/4/1 52/4/1 55/4/1
f 61/4/1 58/4/1 55/4/1
f 61/4/1 60/4/1 59/4/1
f 61/4/1 59/4/1 58/4/1
f 62/4/1 60/4/1 61/4/1
f 63/4/1 60/4/1 62/4/1
f 67/4/1 65/4/1 64/4/1
f 67/4/1 66/4/1 65/4/1
f 68/4/1 66/4/1 67/4/1
f 71/4/1 70/4/1 69/4/1
f 72/4/1 70/4/1 71/4/1
f 73/4/1 70/4/1 72/4/1
f 74/4/1 73/4/1 72/4/1
f 75/4/1 73/4/1 74/4/1
f 78/8/1 77/8/1 76/8/1
f 80/8/1 78/8/1 76/8/1
f 80/8/1 79/8/1 78/8/1
f 81/8/1 79/8/1 80/8/1
f 84/4/1 83/4/1 82/4/1
f 85/4/1 83/4/1 84/4/1
f 88/4/1 87/4/1 86/4/1
f 89/4/1 87/4/1 88/4/1
f 91/4/1 87/4/1 89/4/1
f 92/4/1 87/4/1 91/4/1
f 93/1/1 91/1/1 90/1/1
f 93/1/1 92/1/1 91/1/1
f 94/1/1 92/1/1 93/1/1
f 97/4/1 96/4/1 95/4/1
f 98/4/1 96/4/1 97/4/1
f 101/4/1 100/4/1 99/4/1
f 102/4/1 100/4/1 101/4/1
f 104/8/1 102/8/1 101/8/1
f 104/8/1 103/8/1 102/8/1
f 105/8/1 103/8/1 104/8/1
f 106/8/1 103/8/1 105/8/1
f 107/4/1 105/4/1 104/4/1
f 108/4/1 105/4/1 107/4/1
f 109/7/1 108/7/1 107/7/1
f 110/7/1 108/7/1 109/7/1
f 111/2/2 112/2/2 113/2/2
f 113/2/2 112/2/2 114/2/2
f 113/8/2 114/8/2 117/8/2
f 114/8/2 115/8/2 117/8/2
f 117/8/2 115/8/2 118/8/2
f 116/2/2 117/2/2 119/2/2
f 117/2/2 118/2/2 119/2/2
f 119/2/2 118/2/2 120/2/2
f 120/2/2 118/2/2 121/2/2
f 121/2/2 118/2/2 122/2/2
f 120/3/2 121/3/2 123/3/2
f 123/3/2 121/3/2 124/3/2
f 125/4/2 126/4/2 127/4/2
f 127/4/2 126/4/2 128/4/2
f 129/4/2 130/4/2 131/4/2
f 131/4/2 130/4/2 132/4/2
f 132/4/2 130/4/2 133/4/2
f 132/4/2 133/4/2 135/4/2
f 133/1/2 134/1/2 136/1/2
f 135/4/2 133/4/2 136/4/2
f 136/1/2 134/1/2 137/1/2
f 138/4/2 139/4/2 140/4/2
f 140/4/2 139/4/2 141/4/2
f 141/4/2 139/4/2 142/4/2
f 142/4/2 139/4/2 143/4/2
f 144/8/2 145/8/2 146/8/2
f 144/8/2 146/8/2 148/8/2
f 146/8/2 147/8/2 148/8/2
f 148/8/2 147/8/2 149/8/2
f 150/4/2 151/4/2 152/4/2
f 152/4/2 151/4/2 153/4/2
f 154/1/2 155/1/2 157/1/2
f 157/1/2 155/1/2 158/1/2
f 156/1/2 157/1/2 161/1/2
f 157/1/2 158/1/2 161/1/2
f 161/1/2 158/1/2 162/1/2
f 161/4/2 162/4/2 163/4/2
f 163/4/2 162/4/2 164/4/2
f 164/4/2 162/4/2 165/4/2
f 164/6/2 165/6/2 168/6/2
f 168/6/2 165/6/2 169/6/2
f 159/4/2 160/4/2 170/4/2
f 170/4/2 160/4/2 171/4/2
f 166/4/2 167/4/2 172/4/2
f 166/4/2 172/4/2 175/4/2
f 173/4/2 174/4/2 175/4/2
f 172/4/2 173/4/2 175/4/2
f 175/4/2 174/4/2 176/4/2
f 176/4/2 174/4/2 177/4/2
f 178/4/2 179/4/2 180/4/2
f 180/4/2 179/4/2 181/4/2
f 182/4/2 183/4/2 186/4/2
f 186/4/2 183/4/2 187/4/2
f 184/4/2 185/4/2 188/4/2
f 188/4/2 185/4/2 189/4/2
f 188/8/2 189/8/2 191/8/2
f 189/8/2 190/8/2 191/8/2
f 191/8/2 190/8/2 192/8/2
f 192/8/2 190/8/2 193/8/2
f 193/8/2 190/8/2 194/8/2
f 194/6/2 195/6/2 196/6/2
f 193/6/2 194/6/2 196/6/2
f 187/4/2 183/4/2 197/4/2
f 191/4/2 192/4/2 198/4/2
f 198/4/2 192/4/2 199/4/2
f 193/6/2 196/6/2 200/6/2
f 196/4/2 197/4/2 201/4/2
f 200/6/2 196/6/2 201/6/2
f 197/4/2 183/4/2 202/4/2
f 201/4/2 197/4/2 202/4/2
f 198/7/2 199/7/2 203/7/2
f 203/7/2 199/7/2 204/7/2
f 205/9/2 206/9/2 207/9/2
f 207/9/2 206/9/2 208/9/2
f 205/9/2 207/9/2 209/9/2
f 207/5/2 208/5/2 209/5/2
f 208/9/2 206/9/2 210/9/2
f 209/5/2 208/5/2 210/5/2
f 205/9/2 209/9/2 211/9/2
f 209/9/2 210/9/2 211/9/2
f 210/9/2 206/9/2 212/9/2
f 211/9/2 210/9/2 212/9/2
f 213/4/2 214/4/2 215/4/2
f 215/4/2 214/4/2 216/4/2
f 219/2/3 218/2/3 217/2/3
f 220/2/3 218/2/3 219/2/3
f 226/2/3 222/2/3 221/2/3
f 227/8/3 223/8/3 222/8/3
f 227/2/3 222/2/3 226/2/3
f 228/8/3 223/8/3 227/8/3
f 229/3/3 225/3/3 224/3/3
f 230/3/3 225/3/3 229/3/3
f 237/4/3 231/4/3 230/4/3
f 238/4/3 231/4/3 237/4/3
f 239/4/3 233/4/3 232/4/3
f 240/8/3 234/8/3 233/8/3
f 240/4/3 233/4/3 239/4/3
f 241/4/3 235/4/3 234/4/3
f 241/8/3 234/8/3 240/8/3
f 242/7/3 236/7/3 235/7/3
f 242/4/3 235/4/3 241/4/3
f 243/7/3 236/7/3 242/7/3
f 250/4/3 245/4/3 244/4/3
f 251/4/3 245/4/3 250/4/3
f 252/8/3 247/8/3 246/8/3
f 253/8/3 247/8/3 252/8/3
f 254/4/3 249/4/3 248/4/3
f 255/4/3 249/4/3 254/4/3
f 263/1/3 257/1/3 256/1/3
f 264/4/3 261/4/3 260/4/3
f 264/4/3 258/4/3 257/4/3
f 264/1/3 257/1/3 263/1/3
f 264/4/3 259/4/3 258/4/3
f 264/4/3 260/4/3 259/4/3
f 265/4/3 261/4/3 264/4/3
f 266/4/3 261/4/3 265/4/3
f 267/4/3 261/4/3 266/4/3
f 268/4/3 263/4/3 262/4/3
f 269/1/3 264/1/3 263/1/3
f 269/4/3 263/4/3 268/4/3
f 269/1/3 265/1/3 264/1/3
f 270/6/3 266/6/3 265/6/3
f 271/6/3 266/6/3 270/6/3
f 272/6/3 270/6/3 265/6/3
f 272/8/3 271/8/3 270/8/3
f 273/8/3 271/8/3 272/8/3
f 274/1/3 265/1/3 269/1/3
f 275/6/3 272/6/3 265/6/3
f 275/1/3 265/1/3 274/1/3
f 275/6/3 273/6/3 272/6/3
f 276/6/3 273/6/3 275/6/3
f 278/1/3 274/1/3 269/1/3
f 279/4/3 276/4/3 275/4/3
f 279/1/3 274/1/3 278/1/3
f 279/4/3 275/4/3 274/4/3
f 279/4/3 277/4/3 276/4/3
f 280/4/3 277/4/3 279/4/3
f 281/4/3 277/4/3 280/4/3
f 282/4/3 277/4/3 281/4/3
f 287/6/3 284/6/3 283/6/3
f 288/6/3 284/6/3 287/6/3
f 289/1/3 286/1/3 285/1/3
f 290/1/3 286/1/3 289/1/3
f 295/4/3 292/4/3 291/4/3
f 296/4/3 292/4/3 295/4/3
f 297/1/3 294/1/3 293/1/3
f 298/1/3 294/1/3 297/1/3
f 301/6/3 300/6/3 299/6/3
f 302/6/3 300/6/3 301/6/3
f 305/9/3 304/9/3 303/9/3
f 306/9/3 304/9/3 305/9/3
f 307/9/3 304/9/3 306/9/3
f 308/9/3 306/9/3 305/9/3
f 309/9/3 306/9/3 308/9/3
f 310/9/3 304/9/3 307/9/3
f 311/9/3 304/9/3 310/9/3
f 314/4/3 313/4/3 312/4/3
f 315/4/3 313/4/3 314/4/3
f 320/9/3 317/9/3 316/9/3
f 321/9/3 317/9/3 320/9/3
f 322/9/3 319/9/3 318/9/3
f 323/9/3 321/9/3 320/9/3
f 323/9/3 322/9/3 321/9/3
f 324/9/3 319/9/3 322/9/3
f 324/9/3 322/9/3 323/9/3
f 328/4/3 326/4/3 325/4/3
f 329/4/3 326/4/3 328/4/3
f 330/4/3 326/4/3 329/4/3
f 331/4/3 328/4/3 327/4/3
f 331/4/3 329/4/3 328/4/3
f 332/4/3 329/4/3 331/4/3
f 333/4/3 329/4/3 332/4/3
f 334/4/3 329/4/3 333/4/3
f 337/4/3 336/4/3 335/4/3
f 338/4/3 336/4/3 337/4/3
f 343/4/3 340/4/3 339/4/3
f 343/4/3 342/4/3 341/4/3
f 343/4/3 341/4/3 340/4/3
f 344/4/3 342/4/3 343/4/3
f 345/4/3 342/4/3 344/4/3
f 347/4/3 346/4/3 345/4/3
f 347/4/3 345/4/3 344/4/3
f 348/4/3 346/4/3 347/4/3
f 349/2/4 350/2/4 353/2/4
f 353/2/4 350/2/4 354/2/4
f 351/3/4 352/3/4 355/3/4
f 355/3/4 352/3/4 356/3/4
f 357/4/4 358/4/4 362/4/4
f 362/4/4 358/4/4 363/4/4
f 359/4/4 360/4/4 364/4/4
f 360/7/4 361/7/4 365/7/4
f 364/4/4 360/4/4 365/4/4
f 365/7/4 361/7/4 366/7/4
f 367/2/4 368/2/4 369/2/4
f 369/2/4 368/2/4 370/2/4
f 371/4/4 372/4/4 373/4/4
f 373/4/4 372/4/4 374/4/4
f 375/8/4 376/8/4 377/8/4
f 377/8/4 376/8/4 378/8/4
f 379/8/4 380/8/4 381/8/4
f 381/8/4 380/8/4 382/8/4
f 383/8/4 384/8/4 385/8/4
f 385/8/4 384/8/4 386/8/4
f 387/1/4 388/1/4 389/1/4
f 389/1/4 388/1/4 390/1/4
f 391/4/4 392/4/4 394/4/4
f 392/1/4 393/1/4 395/1/4
f 394/4/4 392/4/4 395/4/4
f 395/1/4 393/1/4 396/1/4
f 396/1/4 393/1/4 397/1/4
f 398/4/4 399/4/4 400/4/4
f 400/4/4 399/4/4 401/4/4
f 402/9/4 403/9/4 405/9/4
f 404/4/4 405/4/4 406/4/4
f 405/9/4 403/9/4 407/9/4
f 406/4/4 405/4/4 407/4/4
f 407/9/4 403/9/4 410/9/4
f 410/9/4 403/9/4 411/9/4
f 408/4/4 409/4/4 412/4/4
f 412/4/4 409/4/4 413/4/4
f 414/4/4 415/4/4 416/4/4
f 416/4/4 415/4/4 417/4/4
f 417/4/4 415/4/4 419/4/4
f 418/4/4 419/4/4 420/4/4
f 419/4/4 415/4/4 421/4/4
f 420/4/4 419/4/4 421/4/4
f 422/4/4 423/4/4 424/4/4
f 424/4/4 423/4/4 425/4/4
f 428/4/5 427/4/5 426/4/5
f 429/4/5 427/4/5 428/4/5
f 432/4/5 431/4/5 430/4/5
f 433/4/5 431/4/5 432/4/5
f 439/1/5 438/1/5 437/1/5
f 440/1/5 438/1/5 439/1/5
f 441/1/5 435/1/5 434/1/5
f 441/1/5 436/1/5 435/1/5
f 442/1/5 436/1/5 441/1/5
f 443/1/5 438/1/5 440/1/5
f 444/1/5 438/1/5 443/1/5
f 449/1/5 446/1/5 445/1/5
f 450/1/5 446/1/5 449/1/5
f 451/1/5 448/1/5 447/1/5
f 452/1/5 448/1/5 451/1/5
f 453/1/5 448/1/5 452/1/5
f 456/1/5 452/1/5 451/1/5
f 457/1/5 452/1/5 456/1/5
f 460/4/5 458/4/5 457/4/5
f 460/4/5 459/4/5 458/4/5
f 460/4/5 457/4/5 456/4/5
f 460/4/5 456/4/5 455/4/5
f 460/4/5 455/4/5 454/4/5
f 461/4/5 459/4/5 460/4/5
f 462/4/5 459/4/5 461/4/5
f 463/4/5 459/4/5 462/4/5
f 464/4/5 462/4/5 461/4/5
f 465/4/5 462/4/5 464/4/5
f 470/2/5 467/2/5 466/2/5
f 471/2/5 467/2/5 470/2/5
f 472/4/5 469/4/5 468/4/5
f 473/4/5 469/4/5 472/4/5
f 478/4/5 475/4/5 474/4/5
f 479/4/5 475/4/5 478/4/5
f 480/4/5 477/4/5 476/4/5
f 481/4/5 477/4/5 480/4/5
f 486/8/5 483/8/5 482/8/5
f 487/8/5 485/8/5 484/8/5
f 488/8/5 486/8/5 482/8/5
f 489/8/5 486/8/5 488/8/5
f 490/8/5 485/8/5 487/8/5
f 491/8/5 485/8/5 490/8/5
f 494/2/5 493/2/5 492/2/5
f 495/2/5 493/2/5 494/2/5
f 500/6/5 497/6/5 496/6/5
f 501/6/5 497/6/5 500/6/5
f 502/6/5 499/6/5 498/6/5
f 503/6/5 499/6/5 502/6/5
f 506/8/5 505/8/5 504/8/5
f 507/8/5 505/8/5 506/8/5
f 508/8/5 505/8/5 507/8/5
f 509/8/5 505/8/5 508/8/5
f 516/9/5 513/9/5 512/9/5
f 517/9/5 513/9/5 516/9/5
f 518/9/5 511/9/5 510/9/5
f 519/9/5 511/9/5 518/9/5
f 520/9/5 515/9/5 514/9/5
f 521/9/5 515/9/5 520/9/5
f 524/4/5 523/4/5 522/4/5
f 525/4/5 523/4/5 524/4/5
f 526/4/5 523/4/5 525/4/5
f 527/4/5 525/4/5 524/4/5
f 528/4/5 525/4/5 527/4/5
f 529/4/5 523/4/5 526/4/5
f 530/4/5 523/4/5 529/4/5
f 531/4/6 532/4/6 533/4/6
f 533/4/6 532/4/6 534/4/6
f 535/4/6 536/4/6 537/4/6
f 537/4/6 536/4/6 538/4/6
f 539/8/6 540/8/6 543/8/6
f 541/8/6 542/8/6 544/8/6
f 544/8/6 542/8/6 545/8/6
f 543/8/6 540/8/6 546/8/6
f 546/8/6 540/8/6 547/8/6
f 548/2/6 549/2/6 550/2/6
f 550/2/6 549/2/6 551/2/6
f 552/2/6 553/2/6 554/2/6
f 554/2/6 553/2/6 555/2/6
f 556/4/6 557/4/6 560/4/6
f 560/4/6 557/4/6 561/4/6
f 558/4/6 559/4/6 562/4/6
f 562/4/6 559/4/6 563/4/6
f 564/4/6 565/4/6 566/4/6
f 566/4/6 565/4/6 567/4/6
f 568/6/6 569/6/6 574/6/6
f 574/6/6 569/6/6 575/6/6
f 572/6/6 573/6/6 576/6/6
f 576/6/6 573/6/6 577/6/6
f 570/6/6 571/6/6 578/6/6
f 578/6/6 571/6/6 579/6/6
f 574/4/6 575/4/6 580/4/6
f 578/4/6 579/4/6 581/4/6
f 574/4/6 580/4/6 582/4/6
f 580/4/6 581/4/6 582/4/6
f 581/4/6 579/4/6 583/4/6
f 582/4/6 581/4/6 583/4/6
f 584/7/6 585/7/6 586/7/6
f 586/7/6 585/7/6 587/7/6
f 588/4/6 589/4/6 592/4/6
f 592/4/6 589/4/6 593/4/6
f 590/4/6 591/4/6 594/4/6
f 594/4/6 591/4/6 595/4/6
f 596/3/6 597/3/6 598/3/6
f 598/3/6 597/3/6 599/3/6
f 600/4/6 601/4/6 602/4/6
f 602/4/6 601/4/6 603/4/6
f 600/4/6 602/4/6 604/4/6
f 604/4/6 602/4/6 605/4/6
f 603/4/6 601/4/6 606/4/6
f 606/4/6 601/4/6 607/4/6
f 608/4/6 609/4/6 611/4/6
f 611/4/6 609/4/6 612/4/6
f 610/9/6 611/9/6 614/9/6
f 612/9/6 613/9/6 614/9/6
f 611/9/6 612/9/6 614/9/6
f 614/9/6 613/9/6 615/9/6
