# MagicaVoxel @ Ephtracy

# group
o 

# material
mtllib vampire_walk_3.mtl
usemtl palette

# normals
vn -1 0 0
vn 1 0 0
vn 0 0 1
vn 0 0 -1
vn 0 -1 0
vn 0 1 0

# texcoords
vt 0.818359 0.5
vt 0.880859 0.5
vt 0.970703 0.5
vt 0.978516 0.5

# verts
v -0.4 0 0.5
v -0.4 0 -0.3
v -0.4 0.1 0.5
v -0.4 0.1 -0.3
v -0.3 0.1 0.4
v -0.3 0.1 -0.1
v -0.3 0.6 0.4
v -0.3 0.6 -0.1
v -0.3 0.8 0.3
v -0.3 0.8 -5.96046e-08
v -0.3 0.9 0.3
v -0.3 0.9 -5.96046e-08
v -0.2 0 -0.2
v -0.2 0 -0.4
v -0.2 0.1 0.5
v -0.2 0.1 0.4
v -0.2 0.1 -0.2
v -0.2 0.1 -0.4
v -0.2 0.2 0.5
v -0.2 0.2 0.4
v -0.2 0.6 0.3
v -0.2 0.6 -5.96046e-08
v -0.2 0.8 0.3
v -0.2 0.8 -5.96046e-08
v -0.1 0.7 0.4
v -0.1 0.7 0.3
v -0.1 0.9 0.3
v -0.1 0.9 0.2
v -0.1 1 0.4
v -0.1 1 0.3
v -0.1 1 0.2
v 0 0 -0.2
v 0 0 -0.5
v 0 0.1 -0.2
v 0 0.1 -0.5
v 0.1 0 0.4
v 0.1 0 0.3
v 0.1 0.1 0.4
v 0.1 0.1 0.3
v 0.2 0 -0.2
v 0.2 0 -0.4
v 0.2 0.1 -0.2
v 0.2 0.1 -0.4
v 0.2 0.8 0.2
v 0.2 0.8 0.1
v 0.2 0.9 0.2
v 0.2 0.9 0.1
v 0.4 0 -0.2
v 0.4 0 -0.3
v 0.4 0.1 -0.2
v 0.4 0.1 -0.3
v -0.3 0 -0.2
v -0.3 0 -0.3
v -0.3 0.1 -0.2
v -0.3 0.1 -0.3
v -0.1 0 -0.2
v -0.1 0 -0.4
v -0.1 0.1 -0.2
v -0.1 0.1 -0.4
v -0.1 0.8 0.2
v -0.1 0.8 0.1
v -0.1 0.9 0.2
v -0.1 0.9 0.1
v 0 0 0.5
v 0 0 0.3
v 0 0.2 0.5
v 0 0.2 0.4
v 0 0.6 0.4
v 0 0.6 0.3
v 0.1 0 -0.2
v 0.1 0 -0.5
v 0.1 0.1 -0.2
v 0.1 0.1 -0.5
v 0.2 0.7 0.4
v 0.2 0.7 0.3
v 0.2 0.9 0.3
v 0.2 0.9 0.2
v 0.2 1 0.4
v 0.2 1 0.3
v 0.2 1 0.2
v 0.3 0 -0.2
v 0.3 0 -0.4
v 0.3 0.1 -0.2
v 0.3 0.1 -0.4
v 0.3 0.6 0.3
v 0.3 0.6 -5.96046e-08
v 0.3 0.8 0.3
v 0.3 0.8 -5.96046e-08
v 0.4 0.1 0.3
v 0.4 0.1 -0.1
v 0.4 0.6 0.3
v 0.4 0.6 -0.1
v 0.4 0.8 0.3
v 0.4 0.8 -5.96046e-08
v 0.4 0.9 0.3
v 0.4 0.9 -5.96046e-08
v 0.5 0 0.4
v 0.5 0 -0.3
v 0.5 0.1 0.4
v 0.5 0.1 -0.3
v -0.4 0 0.5
v -0.4 0.1 0.5
v -0.2 0.1 0.5
v -0.2 0.2 0.5
v 0 0 0.5
v 0 0.2 0.5
v -0.3 0.1 0.4
v -0.3 0.6 0.4
v -0.2 0.1 0.4
v -0.2 0.2 0.4
v -0.1 0.7 0.4
v -0.1 1 0.4
v 0 0.2 0.4
v 0 0.6 0.4
v 0 0.9 0.4
v 0 1 0.4
v 0.1 0 0.4
v 0.1 0.1 0.4
v 0.1 0.9 0.4
v 0.1 1 0.4
v 0.2 0.7 0.4
v 0.2 1 0.4
v 0.5 0 0.4
v 0.5 0.1 0.4
v -0.3 0.8 0.3
v -0.3 0.9 0.3
v -0.2 0.6 0.3
v -0.2 0.8 0.3
v -0.1 0.6 0.3
v -0.1 0.7 0.3
v -0.1 0.9 0.3
v 0 0 0.3
v 0 0.6 0.3
v 0.1 0 0.3
v 0.1 0.1 0.3
v 0.1 0.6 0.3
v 0.2 0.6 0.3
v 0.2 0.7 0.3
v 0.2 0.9 0.3
v 0.3 0.6 0.3
v 0.3 0.8 0.3
v 0.4 0.1 0.3
v 0.4 0.6 0.3
v 0.4 0.8 0.3
v 0.4 0.9 0.3
v -0.1 0.8 0.1
v -0.1 0.9 0.1
v 0.2 0.8 0.1
v 0.2 0.9 0.1
v -0.1 0.8 0.2
v -0.1 0.9 0.2
v -0.1 1 0.2
v 0.2 0.8 0.2
v 0.2 0.9 0.2
v 0.2 1 0.2
v -0.3 0.8 -5.96046e-08
v -0.3 0.9 -5.96046e-08
v -0.2 0.6 -5.96046e-08
v -0.2 0.8 -5.96046e-08
v 0.3 0.6 -5.96046e-08
v 0.3 0.8 -5.96046e-08
v 0.4 0.8 -5.96046e-08
v 0.4 0.9 -5.96046e-08
v -0.3 0.1 -0.1
v -0.3 0.6 -0.1
v 0.4 0.1 -0.1
v 0.4 0.6 -0.1
v -0.3 0 -0.2
v -0.3 0.1 -0.2
v -0.2 0 -0.2
v -0.2 0.1 -0.2
v -0.1 0 -0.2
v -0.1 0.1 -0.2
v 0 0 -0.2
v 0 0.1 -0.2
v 0.1 0 -0.2
v 0.1 0.1 -0.2
v 0.2 0 -0.2
v 0.2 0.1 -0.2
v 0.3 0 -0.2
v 0.3 0.1 -0.2
v 0.4 0 -0.2
v 0.4 0.1 -0.2
v -0.4 0 -0.3
v -0.4 0.1 -0.3
v -0.3 0 -0.3
v -0.3 0.1 -0.3
v 0.4 0 -0.3
v 0.4 0.1 -0.3
v 0.5 0 -0.3
v 0.5 0.1 -0.3
v -0.2 0 -0.4
v -0.2 0.1 -0.4
v -0.1 0 -0.4
v -0.1 0.1 -0.4
v 0.2 0 -0.4
v 0.2 0.1 -0.4
v 0.3 0 -0.4
v 0.3 0.1 -0.4
v 0 0 -0.5
v 0 0.1 -0.5
v 0.1 0 -0.5
v 0.1 0.1 -0.5
v -0.4 0 0.5
v 0 0 0.5
v -0.3 0 0.4
v -0.1 0 0.4
v 0.1 0 0.4
v 0.5 0 0.4
v -0.1 0 0.3
v 0 0 0.3
v 0.1 0 0.3
v 0.4 0 0.3
v -0.3 0 -0.1
v 0.4 0 -0.1
v -0.3 0 -0.2
v -0.2 0 -0.2
v -0.1 0 -0.2
v 0 0 -0.2
v 0.1 0 -0.2
v 0.2 0 -0.2
v 0.3 0 -0.2
v 0.4 0 -0.2
v -0.4 0 -0.3
v -0.3 0 -0.3
v 0.4 0 -0.3
v 0.5 0 -0.3
v -0.2 0 -0.4
v -0.1 0 -0.4
v 0.2 0 -0.4
v 0.3 0 -0.4
v 0 0 -0.5
v 0.1 0 -0.5
v -0.1 0.7 0.4
v 0.2 0.7 0.4
v -0.1 0.7 0.3
v 0.2 0.7 0.3
v -0.3 0.8 0.3
v -0.2 0.8 0.3
v 0.3 0.8 0.3
v 0.4 0.8 0.3
v -0.3 0.8 -5.96046e-08
v -0.2 0.8 -5.96046e-08
v 0.3 0.8 -5.96046e-08
v 0.4 0.8 -5.96046e-08
v -0.4 0.1 0.5
v -0.2 0.1 0.5
v -0.3 0.1 0.4
v -0.2 0.1 0.4
v 0.1 0.1 0.4
v 0.5 0.1 0.4
v 0.1 0.1 0.3
v 0.4 0.1 0.3
v -0.3 0.1 -0.1
v 0.4 0.1 -0.1
v -0.3 0.1 -0.2
v -0.2 0.1 -0.2
v -0.1 0.1 -0.2
v 0 0.1 -0.2
v 0.1 0.1 -0.2
v 0.2 0.1 -0.2
v 0.3 0.1 -0.2
v 0.4 0.1 -0.2
v -0.4 0.1 -0.3
v -0.3 0.1 -0.3
v 0.4 0.1 -0.3
v 0.5 0.1 -0.3
v -0.2 0.1 -0.4
v -0.1 0.1 -0.4
v 0.2 0.1 -0.4
v 0.3 0.1 -0.4
v 0 0.1 -0.5
v 0.1 0.1 -0.5
v -0.2 0.2 0.5
v 0 0.2 0.5
v -0.2 0.2 0.4
v 0 0.2 0.4
v -0.3 0.6 0.4
v 0 0.6 0.4
v -0.2 0.6 0.3
v -0.1 0.6 0.3
v 0 0.6 0.3
v 0.3 0.6 0.3
v 0.4 0.6 0.3
v -0.2 0.6 -5.96046e-08
v 0.3 0.6 -5.96046e-08
v -0.3 0.6 -0.1
v 0.4 0.6 -0.1
v -0.1 0.8 0.2
v 0.2 0.8 0.2
v -0.1 0.8 0.1
v 0.2 0.8 0.1
v -0.3 0.9 0.3
v -0.1 0.9 0.3
v 0.2 0.9 0.3
v 0.4 0.9 0.3
v -0.1 0.9 0.2
v 0.2 0.9 0.2
v -0.1 0.9 0.1
v 0.2 0.9 0.1
v -0.3 0.9 -5.96046e-08
v 0.4 0.9 -5.96046e-08
v -0.1 1 0.4
v 0 1 0.4
v 0.1 1 0.4
v 0.2 1 0.4
v -0.1 1 0.3
v 0 1 0.3
v 0.1 1 0.3
v 0.2 1 0.3
v -0.1 1 0.2
v 0.2 1 0.2

# faces
f 3/4/1 2/4/1 1/4/1
f 4/4/1 2/4/1 3/4/1
f 7/4/1 6/4/1 5/4/1
f 8/4/1 6/4/1 7/4/1
f 11/4/1 10/4/1 9/4/1
f 12/4/1 10/4/1 11/4/1
f 17/4/1 14/4/1 13/4/1
f 18/4/1 14/4/1 17/4/1
f 19/4/1 16/4/1 15/4/1
f 20/4/1 16/4/1 19/4/1
f 23/4/1 22/4/1 21/4/1
f 24/4/1 22/4/1 23/4/1
f 27/2/1 26/2/1 25/2/1
f 29/2/1 27/2/1 25/2/1
f 30/1/1 28/1/1 27/1/1
f 30/2/1 27/2/1 29/2/1
f 31/1/1 28/1/1 30/1/1
f 34/4/1 33/4/1 32/4/1
f 35/4/1 33/4/1 34/4/1
f 38/4/1 37/4/1 36/4/1
f 39/4/1 37/4/1 38/4/1
f 42/4/1 41/4/1 40/4/1
f 43/4/1 41/4/1 42/4/1
f 46/4/1 45/4/1 44/4/1
f 47/4/1 45/4/1 46/4/1
f 50/4/1 49/4/1 48/4/1
f 51/4/1 49/4/1 50/4/1
f 52/4/2 53/4/2 54/4/2
f 54/4/2 53/4/2 55/4/2
f 56/4/2 57/4/2 58/4/2
f 58/4/2 57/4/2 59/4/2
f 60/4/2 61/4/2 62/4/2
f 62/4/2 61/4/2 63/4/2
f 64/4/2 65/4/2 66/4/2
f 66/4/2 65/4/2 67/4/2
f 67/4/2 65/4/2 68/4/2
f 68/4/2 65/4/2 69/4/2
f 70/4/2 71/4/2 72/4/2
f 72/4/2 71/4/2 73/4/2
f 74/2/2 75/2/2 76/2/2
f 74/2/2 76/2/2 78/2/2
f 76/1/2 77/1/2 79/1/2
f 78/2/2 76/2/2 79/2/2
f 79/1/2 77/1/2 80/1/2
f 81/4/2 82/4/2 83/4/2
f 83/4/2 82/4/2 84/4/2
f 85/4/2 86/4/2 87/4/2
f 87/4/2 86/4/2 88/4/2
f 89/4/2 90/4/2 91/4/2
f 91/4/2 90/4/2 92/4/2
f 93/4/2 94/4/2 95/4/2
f 95/4/2 94/4/2 96/4/2
f 97/4/2 98/4/2 99/4/2
f 99/4/2 98/4/2 100/4/2
f 103/4/3 102/4/3 101/4/3
f 105/4/3 103/4/3 101/4/3
f 105/4/3 104/4/3 103/4/3
f 106/4/3 104/4/3 105/4/3
f 109/4/3 108/4/3 107/4/3
f 110/4/3 108/4/3 109/4/3
f 113/4/3 108/4/3 110/4/3
f 114/4/3 108/4/3 113/4/3
f 115/2/3 112/2/3 111/2/3
f 116/2/3 112/2/3 115/2/3
f 119/2/3 115/2/3 111/2/3
f 119/1/3 116/1/3 115/1/3
f 120/1/3 116/1/3 119/1/3
f 121/2/3 119/2/3 111/2/3
f 121/2/3 120/2/3 119/2/3
f 122/2/3 120/2/3 121/2/3
f 123/4/3 118/4/3 117/4/3
f 124/4/3 118/4/3 123/4/3
f 128/4/3 126/4/3 125/4/3
f 129/4/3 128/4/3 127/4/3
f 130/4/3 128/4/3 129/4/3
f 131/4/3 126/4/3 128/4/3
f 131/4/3 128/4/3 130/4/3
f 133/3/3 130/3/3 129/3/3
f 134/3/3 133/3/3 132/3/3
f 135/3/3 133/3/3 134/3/3
f 136/3/3 130/3/3 133/3/3
f 136/3/3 133/3/3 135/3/3
f 137/3/3 130/3/3 136/3/3
f 137/4/3 136/4/3 135/4/3
f 138/3/3 130/3/3 137/3/3
f 140/4/3 137/4/3 135/4/3
f 140/4/3 139/4/3 138/4/3
f 140/4/3 138/4/3 137/4/3
f 141/4/3 139/4/3 140/4/3
f 142/4/3 140/4/3 135/4/3
f 143/4/3 140/4/3 142/4/3
f 144/4/3 139/4/3 141/4/3
f 145/4/3 139/4/3 144/4/3
f 148/4/3 147/4/3 146/4/3
f 149/4/3 147/4/3 148/4/3
f 150/1/4 151/1/4 153/1/4
f 151/1/4 152/1/4 153/1/4
f 153/1/4 152/1/4 154/1/4
f 154/1/4 152/1/4 155/1/4
f 156/4/4 157/4/4 159/4/4
f 158/4/4 159/4/4 160/4/4
f 159/4/4 157/4/4 161/4/4
f 160/4/4 159/4/4 161/4/4
f 161/4/4 157/4/4 162/4/4
f 162/4/4 157/4/4 163/4/4
f 164/4/4 165/4/4 166/4/4
f 166/4/4 165/4/4 167/4/4
f 168/4/4 169/4/4 170/4/4
f 170/4/4 169/4/4 171/4/4
f 172/4/4 173/4/4 174/4/4
f 174/4/4 173/4/4 175/4/4
f 176/4/4 177/4/4 178/4/4
f 178/4/4 177/4/4 179/4/4
f 180/4/4 181/4/4 182/4/4
f 182/4/4 181/4/4 183/4/4
f 184/4/4 185/4/4 186/4/4
f 186/4/4 185/4/4 187/4/4
f 188/4/4 189/4/4 190/4/4
f 190/4/4 189/4/4 191/4/4
f 192/4/4 193/4/4 194/4/4
f 194/4/4 193/4/4 195/4/4
f 196/4/4 197/4/4 198/4/4
f 198/4/4 197/4/4 199/4/4
f 200/4/4 201/4/4 202/4/4
f 202/4/4 201/4/4 203/4/4
f 206/4/5 205/4/5 204/4/5
f 207/4/5 205/4/5 206/4/5
f 210/3/5 207/3/5 206/3/5
f 210/4/5 205/4/5 207/4/5
f 211/4/5 205/4/5 210/4/5
f 212/4/5 209/4/5 208/4/5
f 213/4/5 209/4/5 212/4/5
f 214/4/5 206/4/5 204/4/5
f 214/3/5 211/3/5 210/3/5
f 214/3/5 213/3/5 212/3/5
f 214/3/5 212/3/5 211/3/5
f 214/3/5 210/3/5 206/3/5
f 215/4/5 209/4/5 213/4/5
f 215/3/5 213/3/5 214/3/5
f 216/4/5 214/4/5 204/4/5
f 216/4/5 215/4/5 214/4/5
f 217/4/5 215/4/5 216/4/5
f 218/4/5 215/4/5 217/4/5
f 219/4/5 215/4/5 218/4/5
f 220/4/5 215/4/5 219/4/5
f 221/4/5 215/4/5 220/4/5
f 222/4/5 215/4/5 221/4/5
f 223/4/5 209/4/5 215/4/5
f 223/4/5 215/4/5 222/4/5
f 224/4/5 216/4/5 204/4/5
f 225/4/5 216/4/5 224/4/5
f 226/4/5 209/4/5 223/4/5
f 227/4/5 209/4/5 226/4/5
f 228/4/5 218/4/5 217/4/5
f 229/4/5 218/4/5 228/4/5
f 230/4/5 222/4/5 221/4/5
f 231/4/5 222/4/5 230/4/5
f 232/4/5 220/4/5 219/4/5
f 233/4/5 220/4/5 232/4/5
f 236/2/5 235/2/5 234/2/5
f 237/2/5 235/2/5 236/2/5
f 242/4/5 239/4/5 238/4/5
f 243/4/5 239/4/5 242/4/5
f 244/4/5 241/4/5 240/4/5
f 245/4/5 241/4/5 244/4/5
f 246/4/6 247/4/6 248/4/6
f 248/4/6 247/4/6 249/4/6
f 250/4/6 251/4/6 252/4/6
f 252/4/6 251/4/6 253/4/6
f 246/4/6 248/4/6 254/4/6
f 253/4/6 251/4/6 255/4/6
f 246/4/6 254/4/6 256/4/6
f 254/4/6 255/4/6 256/4/6
f 256/4/6 255/4/6 257/4/6
f 257/4/6 255/4/6 258/4/6
f 258/4/6 255/4/6 259/4/6
f 259/4/6 255/4/6 260/4/6
f 260/4/6 255/4/6 261/4/6
f 261/4/6 255/4/6 262/4/6
f 255/4/6 251/4/6 263/4/6
f 262/4/6 255/4/6 263/4/6
f 246/4/6 256/4/6 264/4/6
f 264/4/6 256/4/6 265/4/6
f 263/4/6 251/4/6 266/4/6
f 266/4/6 251/4/6 267/4/6
f 257/4/6 258/4/6 268/4/6
f 268/4/6 258/4/6 269/4/6
f 261/4/6 262/4/6 270/4/6
f 270/4/6 262/4/6 271/4/6
f 259/4/6 260/4/6 272/4/6
f 272/4/6 260/4/6 273/4/6
f 274/4/6 275/4/6 276/4/6
f 276/4/6 275/4/6 277/4/6
f 278/4/6 279/4/6 280/4/6
f 280/4/6 279/4/6 281/4/6
f 281/4/6 279/4/6 282/4/6
f 278/4/6 280/4/6 285/4/6
f 283/4/6 284/4/6 286/4/6
f 278/4/6 285/4/6 287/4/6
f 285/4/6 286/4/6 287/4/6
f 286/4/6 284/4/6 288/4/6
f 287/4/6 286/4/6 288/4/6
f 289/3/6 290/3/6 291/3/6
f 291/3/6 290/3/6 292/3/6
f 293/4/6 294/4/6 297/4/6
f 295/4/6 296/4/6 298/4/6
f 293/4/6 297/4/6 299/4/6
f 298/4/6 296/4/6 300/4/6
f 293/4/6 299/4/6 301/4/6
f 299/4/6 300/4/6 301/4/6
f 300/4/6 296/4/6 302/4/6
f 301/4/6 300/4/6 302/4/6
f 303/2/6 304/2/6 307/2/6
f 304/1/6 305/1/6 308/1/6
f 307/2/6 304/2/6 308/2/6
f 305/2/6 306/2/6 309/2/6
f 308/1/6 305/1/6 309/1/6
f 309/2/6 306/2/6 310/2/6
f 307/1/6 308/1/6 311/1/6
f 308/1/6 309/1/6 311/1/6
f 309/1/6 310/1/6 311/1/6
f 311/1/6 310/1/6 312/1/6
