# MagicaVoxel @ Ephtracy

# group
o 

# material
mtllib vampire_walk_2.mtl
usemtl palette

# normals
vn -1 0 0
vn 1 0 0
vn 0 0 1
vn 0 0 -1
vn 0 -1 0
vn 0 1 0

# texcoords
vt 0.818359 0.5
vt 0.880859 0.5
vt 0.970703 0.5
vt 0.978516 0.5

# verts
v -0.4 0 0.5
v -0.4 0 -0.3
v -0.4 0.1 0.5
v -0.4 0.1 -0.3
v -0.3 0.1 0.4
v -0.3 0.1 -0.1
v -0.3 0.4 0.5
v -0.3 0.4 0.4
v -0.3 0.7 0.5
v -0.3 0.7 -0.1
v -0.3 0.9 0.3
v -0.3 0.9 0
v -0.3 1 0.3
v -0.3 1 0
v -0.2 0 -0.2
v -0.2 0 -0.4
v -0.2 0.1 -0.2
v -0.2 0.1 -0.4
v -0.2 0.7 0.3
v -0.2 0.7 0
v -0.2 0.9 0.3
v -0.2 0.9 0
v -0.1 0.8 0.4
v -0.1 0.8 0.3
v -0.1 1 0.3
v -0.1 1 0.2
v -0.1 1.1 0.4
v -0.1 1.1 0.3
v -0.1 1.1 0.2
v 0 0 -0.2
v 0 0 -0.5
v 0 0.1 -0.2
v 0 0.1 -0.5
v 0.1 0 0.6
v 0.1 0 0.3
v 0.1 0.2 0.6
v 0.1 0.2 0.5
v 0.1 0.4 0.5
v 0.1 0.4 0.4
v 0.1 0.7 0.4
v 0.1 0.7 0.3
v 0.2 0 -0.2
v 0.2 0 -0.4
v 0.2 0.1 -0.2
v 0.2 0.1 -0.4
v 0.2 0.9 0.2
v 0.2 0.9 0.1
v 0.2 1 0.2
v 0.2 1 0.1
v 0.4 0 -0.2
v 0.4 0 -0.3
v 0.4 0.1 -0.2
v 0.4 0.1 -0.3
v -0.3 0 -0.2
v -0.3 0 -0.3
v -0.3 0.1 -0.2
v -0.3 0.1 -0.3
v -0.1 0 -0.2
v -0.1 0 -0.4
v -0.1 0.1 -0.2
v -0.1 0.1 -0.4
v -0.1 0.9 0.2
v -0.1 0.9 0.1
v -0.1 1 0.2
v -0.1 1 0.1
v 0 0 0.5
v 0 0 0.3
v 0 0.1 0.5
v 0 0.1 0.4
v 0 0.4 0.5
v 0 0.4 0.4
v 0 0.7 0.5
v 0 0.7 0.3
v 0.1 0 -0.2
v 0.1 0 -0.5
v 0.1 0.1 -0.2
v 0.1 0.1 -0.5
v 0.2 0.8 0.4
v 0.2 0.8 0.3
v 0.2 1 0.3
v 0.2 1 0.2
v 0.2 1.1 0.4
v 0.2 1.1 0.3
v 0.2 1.1 0.2
v 0.3 0 -0.2
v 0.3 0 -0.4
v 0.3 0.1 -0.2
v 0.3 0.1 -0.4
v 0.3 0.7 0.3
v 0.3 0.7 0
v 0.3 0.9 0.3
v 0.3 0.9 0
v 0.4 0.1 0.6
v 0.4 0.1 -0.1
v 0.4 0.2 0.6
v 0.4 0.2 0.5
v 0.4 0.4 0.5
v 0.4 0.4 0.4
v 0.4 0.7 0.4
v 0.4 0.7 -0.1
v 0.4 0.9 0.3
v 0.4 0.9 0
v 0.4 1 0.3
v 0.4 1 0
v 0.5 0 0.6
v 0.5 0 -0.3
v 0.5 0.1 0.6
v 0.5 0.1 -0.3
v 0.1 0 0.6
v 0.1 0.2 0.6
v 0.4 0.1 0.6
v 0.4 0.2 0.6
v 0.5 0 0.6
v 0.5 0.1 0.6
v -0.4 0 0.5
v -0.4 0.1 0.5
v -0.3 0.4 0.5
v -0.3 0.7 0.5
v 0 0 0.5
v 0 0.1 0.5
v 0 0.4 0.5
v 0 0.7 0.5
v 0.1 0.2 0.5
v 0.1 0.4 0.5
v 0.4 0.2 0.5
v 0.4 0.4 0.5
v -0.3 0.1 0.4
v -0.3 0.4 0.4
v -0.1 0.8 0.4
v -0.1 1.1 0.4
v 0 0.1 0.4
v 0 0.4 0.4
v 0 1 0.4
v 0 1.1 0.4
v 0.1 0.4 0.4
v 0.1 0.7 0.4
v 0.1 1 0.4
v 0.1 1.1 0.4
v 0.2 0.8 0.4
v 0.2 1.1 0.4
v 0.4 0.4 0.4
v 0.4 0.7 0.4
v -0.3 0.9 0.3
v -0.3 1 0.3
v -0.2 0.7 0.3
v -0.2 0.9 0.3
v -0.1 0.7 0.3
v -0.1 0.8 0.3
v -0.1 1 0.3
v 0 0 0.3
v 0 0.7 0.3
v 0.1 0 0.3
v 0.1 0.7 0.3
v 0.2 0.7 0.3
v 0.2 0.8 0.3
v 0.2 1 0.3
v 0.3 0.7 0.3
v 0.3 0.9 0.3
v 0.4 0.9 0.3
v 0.4 1 0.3
v -0.1 0.9 0.1
v -0.1 1 0.1
v 0.2 0.9 0.1
v 0.2 1 0.1
v -0.1 0.9 0.2
v -0.1 1 0.2
v -0.1 1.1 0.2
v 0.2 0.9 0.2
v 0.2 1 0.2
v 0.2 1.1 0.2
v -0.3 0.9 0
v -0.3 1 0
v -0.2 0.7 0
v -0.2 0.9 0
v 0.3 0.7 0
v 0.3 0.9 0
v 0.4 0.9 0
v 0.4 1 0
v -0.3 0.1 -0.1
v -0.3 0.7 -0.1
v 0.4 0.1 -0.1
v 0.4 0.7 -0.1
v -0.3 0 -0.2
v -0.3 0.1 -0.2
v -0.2 0 -0.2
v -0.2 0.1 -0.2
v -0.1 0 -0.2
v -0.1 0.1 -0.2
v 0 0 -0.2
v 0 0.1 -0.2
v 0.1 0 -0.2
v 0.1 0.1 -0.2
v 0.2 0 -0.2
v 0.2 0.1 -0.2
v 0.3 0 -0.2
v 0.3 0.1 -0.2
v 0.4 0 -0.2
v 0.4 0.1 -0.2
v -0.4 0 -0.3
v -0.4 0.1 -0.3
v -0.3 0 -0.3
v -0.3 0.1 -0.3
v 0.4 0 -0.3
v 0.4 0.1 -0.3
v 0.5 0 -0.3
v 0.5 0.1 -0.3
v -0.2 0 -0.4
v -0.2 0.1 -0.4
v -0.1 0 -0.4
v -0.1 0.1 -0.4
v 0.2 0 -0.4
v 0.2 0.1 -0.4
v 0.3 0 -0.4
v 0.3 0.1 -0.4
v 0 0 -0.5
v 0 0.1 -0.5
v 0.1 0 -0.5
v 0.1 0.1 -0.5
v 0.1 0 0.6
v 0.5 0 0.6
v -0.4 0 0.5
v 0 0 0.5
v 0.2 0 0.5
v 0.4 0 0.5
v -0.3 0 0.4
v -0.1 0 0.4
v -0.1 0 0.3
v 0 0 0.3
v 0.1 0 0.3
v 0.2 0 0.3
v -0.3 0 -0.1
v 0.4 0 -0.1
v -0.3 0 -0.2
v -0.2 0 -0.2
v -0.1 0 -0.2
v 0 0 -0.2
v 0.1 0 -0.2
v 0.2 0 -0.2
v 0.3 0 -0.2
v 0.4 0 -0.2
v -0.4 0 -0.3
v -0.3 0 -0.3
v 0.4 0 -0.3
v 0.5 0 -0.3
v -0.2 0 -0.4
v -0.1 0 -0.4
v 0.2 0 -0.4
v 0.3 0 -0.4
v 0 0 -0.5
v 0.1 0 -0.5
v -0.3 0.4 0.5
v 0 0.4 0.5
v -0.3 0.4 0.4
v 0 0.4 0.4
v -0.1 0.8 0.4
v 0.2 0.8 0.4
v -0.1 0.8 0.3
v 0.2 0.8 0.3
v -0.3 0.9 0.3
v -0.2 0.9 0.3
v 0.3 0.9 0.3
v 0.4 0.9 0.3
v -0.3 0.9 0
v -0.2 0.9 0
v 0.3 0.9 0
v 0.4 0.9 0
v 0.4 0.1 0.6
v 0.5 0.1 0.6
v -0.4 0.1 0.5
v 0 0.1 0.5
v -0.3 0.1 0.4
v 0 0.1 0.4
v -0.3 0.1 -0.1
v 0.4 0.1 -0.1
v -0.3 0.1 -0.2
v -0.2 0.1 -0.2
v -0.1 0.1 -0.2
v 0 0.1 -0.2
v 0.1 0.1 -0.2
v 0.2 0.1 -0.2
v 0.3 0.1 -0.2
v 0.4 0.1 -0.2
v -0.4 0.1 -0.3
v -0.3 0.1 -0.3
v 0.4 0.1 -0.3
v 0.5 0.1 -0.3
v -0.2 0.1 -0.4
v -0.1 0.1 -0.4
v 0.2 0.1 -0.4
v 0.3 0.1 -0.4
v 0 0.1 -0.5
v 0.1 0.1 -0.5
v 0.1 0.2 0.6
v 0.4 0.2 0.6
v 0.1 0.2 0.5
v 0.4 0.2 0.5
v 0.1 0.4 0.5
v 0.4 0.4 0.5
v 0.1 0.4 0.4
v 0.4 0.4 0.4
v -0.3 0.7 0.5
v 0 0.7 0.5
v 0.1 0.7 0.4
v 0.4 0.7 0.4
v -0.2 0.7 0.3
v -0.1 0.7 0.3
v 0 0.7 0.3
v 0.1 0.7 0.3
v 0.2 0.7 0.3
v 0.3 0.7 0.3
v -0.2 0.7 0
v 0.3 0.7 0
v -0.3 0.7 -0.1
v 0.4 0.7 -0.1
v -0.1 0.9 0.2
v 0.2 0.9 0.2
v -0.1 0.9 0.1
v 0.2 0.9 0.1
v -0.3 1 0.3
v -0.1 1 0.3
v 0.2 1 0.3
v 0.4 1 0.3
v -0.1 1 0.2
v 0.2 1 0.2
v -0.1 1 0.1
v 0.2 1 0.1
v -0.3 1 0
v 0.4 1 0
v -0.1 1.1 0.4
v 0 1.1 0.4
v 0.1 1.1 0.4
v 0.2 1.1 0.4
v -0.1 1.1 0.3
v 0 1.1 0.3
v 0.1 1.1 0.3
v 0.2 1.1 0.3
v -0.1 1.1 0.2
v 0.2 1.1 0.2

# faces
f 3/4/1 2/4/1 1/4/1
f 4/4/1 2/4/1 3/4/1
f 8/4/1 6/4/1 5/4/1
f 9/4/1 8/4/1 7/4/1
f 10/4/1 6/4/1 8/4/1
f 10/4/1 8/4/1 9/4/1
f 13/4/1 12/4/1 11/4/1
f 14/4/1 12/4/1 13/4/1
f 17/4/1 16/4/1 15/4/1
f 18/4/1 16/4/1 17/4/1
f 21/4/1 20/4/1 19/4/1
f 22/4/1 20/4/1 21/4/1
f 25/2/1 24/2/1 23/2/1
f 27/2/1 25/2/1 23/2/1
f 28/1/1 26/1/1 25/1/1
f 28/2/1 25/2/1 27/2/1
f 29/1/1 26/1/1 28/1/1
f 32/4/1 31/4/1 30/4/1
f 33/4/1 31/4/1 32/4/1
f 36/4/1 35/4/1 34/4/1
f 37/4/1 35/4/1 36/4/1
f 38/4/1 35/4/1 37/4/1
f 39/4/1 35/4/1 38/4/1
f 40/4/1 35/4/1 39/4/1
f 41/4/1 35/4/1 40/4/1
f 44/4/1 43/4/1 42/4/1
f 45/4/1 43/4/1 44/4/1
f 48/4/1 47/4/1 46/4/1
f 49/4/1 47/4/1 48/4/1
f 52/4/1 51/4/1 50/4/1
f 53/4/1 51/4/1 52/4/1
f 54/4/2 55/4/2 56/4/2
f 56/4/2 55/4/2 57/4/2
f 58/4/2 59/4/2 60/4/2
f 60/4/2 59/4/2 61/4/2
f 62/4/2 63/4/2 64/4/2
f 64/4/2 63/4/2 65/4/2
f 66/4/2 67/4/2 68/4/2
f 68/4/2 67/4/2 69/4/2
f 69/4/2 67/4/2 71/4/2
f 70/4/2 71/4/2 72/4/2
f 71/4/2 67/4/2 73/4/2
f 72/4/2 71/4/2 73/4/2
f 74/4/2 75/4/2 76/4/2
f 76/4/2 75/4/2 77/4/2
f 78/2/2 79/2/2 80/2/2
f 78/2/2 80/2/2 82/2/2
f 80/1/2 81/1/2 83/1/2
f 82/2/2 80/2/2 83/2/2
f 83/1/2 81/1/2 84/1/2
f 85/4/2 86/4/2 87/4/2
f 87/4/2 86/4/2 88/4/2
f 89/4/2 90/4/2 91/4/2
f 91/4/2 90/4/2 92/4/2
f 93/4/2 94/4/2 95/4/2
f 95/4/2 94/4/2 96/4/2
f 96/4/2 94/4/2 97/4/2
f 97/4/2 94/4/2 98/4/2
f 98/4/2 94/4/2 99/4/2
f 99/4/2 94/4/2 100/4/2
f 101/4/2 102/4/2 103/4/2
f 103/4/2 102/4/2 104/4/2
f 105/4/2 106/4/2 107/4/2
f 107/4/2 106/4/2 108/4/2
f 111/4/3 110/4/3 109/4/3
f 112/4/3 110/4/3 111/4/3
f 113/4/3 111/4/3 109/4/3
f 114/4/3 111/4/3 113/4/3
f 119/4/3 116/4/3 115/4/3
f 120/4/3 116/4/3 119/4/3
f 121/4/3 118/4/3 117/4/3
f 122/4/3 118/4/3 121/4/3
f 125/4/3 124/4/3 123/4/3
f 126/4/3 124/4/3 125/4/3
f 131/4/3 128/4/3 127/4/3
f 132/4/3 128/4/3 131/4/3
f 133/2/3 130/2/3 129/2/3
f 134/2/3 130/2/3 133/2/3
f 137/2/3 133/2/3 129/2/3
f 137/1/3 134/1/3 133/1/3
f 138/1/3 134/1/3 137/1/3
f 139/2/3 137/2/3 129/2/3
f 139/2/3 138/2/3 137/2/3
f 140/2/3 138/2/3 139/2/3
f 141/4/3 136/4/3 135/4/3
f 142/4/3 136/4/3 141/4/3
f 146/4/3 144/4/3 143/4/3
f 147/4/3 146/4/3 145/4/3
f 148/4/3 146/4/3 147/4/3
f 149/4/3 144/4/3 146/4/3
f 149/4/3 146/4/3 148/4/3
f 151/3/3 148/3/3 147/3/3
f 152/3/3 151/3/3 150/3/3
f 153/3/3 148/3/3 151/3/3
f 153/3/3 151/3/3 152/3/3
f 154/3/3 148/3/3 153/3/3
f 155/3/3 148/3/3 154/3/3
f 157/4/3 155/4/3 154/4/3
f 157/4/3 156/4/3 155/4/3
f 158/4/3 156/4/3 157/4/3
f 159/4/3 156/4/3 158/4/3
f 160/4/3 156/4/3 159/4/3
f 163/4/3 162/4/3 161/4/3
f 164/4/3 162/4/3 163/4/3
f 165/1/4 166/1/4 168/1/4
f 166/1/4 167/1/4 168/1/4
f 168/1/4 167/1/4 169/1/4
f 169/1/4 167/1/4 170/1/4
f 171/4/4 172/4/4 174/4/4
f 173/4/4 174/4/4 175/4/4
f 174/4/4 172/4/4 176/4/4
f 175/4/4 174/4/4 176/4/4
f 176/4/4 172/4/4 177/4/4
f 177/4/4 172/4/4 178/4/4
f 179/4/4 180/4/4 181/4/4
f 181/4/4 180/4/4 182/4/4
f 183/4/4 184/4/4 185/4/4
f 185/4/4 184/4/4 186/4/4
f 187/4/4 188/4/4 189/4/4
f 189/4/4 188/4/4 190/4/4
f 191/4/4 192/4/4 193/4/4
f 193/4/4 192/4/4 194/4/4
f 195/4/4 196/4/4 197/4/4
f 197/4/4 196/4/4 198/4/4
f 199/4/4 200/4/4 201/4/4
f 201/4/4 200/4/4 202/4/4
f 203/4/4 204/4/4 205/4/4
f 205/4/4 204/4/4 206/4/4
f 207/4/4 208/4/4 209/4/4
f 209/4/4 208/4/4 210/4/4
f 211/4/4 212/4/4 213/4/4
f 213/4/4 212/4/4 214/4/4
f 215/4/4 216/4/4 217/4/4
f 217/4/4 216/4/4 218/4/4
f 223/4/5 220/4/5 219/4/5
f 224/4/5 220/4/5 223/4/5
f 225/4/5 222/4/5 221/4/5
f 226/4/5 222/4/5 225/4/5
f 227/3/5 226/3/5 225/3/5
f 227/4/5 222/4/5 226/4/5
f 228/4/5 222/4/5 227/4/5
f 229/4/5 223/4/5 219/4/5
f 230/3/5 224/3/5 223/3/5
f 230/4/5 223/4/5 229/4/5
f 231/3/5 228/3/5 227/3/5
f 231/3/5 229/3/5 228/3/5
f 231/3/5 230/3/5 229/3/5
f 231/4/5 225/4/5 221/4/5
f 231/3/5 227/3/5 225/3/5
f 232/4/5 220/4/5 224/4/5
f 232/3/5 230/3/5 231/3/5
f 232/3/5 224/3/5 230/3/5
f 233/4/5 231/4/5 221/4/5
f 233/4/5 232/4/5 231/4/5
f 234/4/5 232/4/5 233/4/5
f 235/4/5 232/4/5 234/4/5
f 236/4/5 232/4/5 235/4/5
f 237/4/5 232/4/5 236/4/5
f 238/4/5 232/4/5 237/4/5
f 239/4/5 232/4/5 238/4/5
f 240/4/5 220/4/5 232/4/5
f 240/4/5 232/4/5 239/4/5
f 241/4/5 233/4/5 221/4/5
f 242/4/5 233/4/5 241/4/5
f 243/4/5 220/4/5 240/4/5
f 244/4/5 220/4/5 243/4/5
f 245/4/5 235/4/5 234/4/5
f 246/4/5 235/4/5 245/4/5
f 247/4/5 239/4/5 238/4/5
f 248/4/5 239/4/5 247/4/5
f 249/4/5 237/4/5 236/4/5
f 250/4/5 237/4/5 249/4/5
f 253/4/5 252/4/5 251/4/5
f 254/4/5 252/4/5 253/4/5
f 257/2/5 256/2/5 255/2/5
f 258/2/5 256/2/5 257/2/5
f 263/4/5 260/4/5 259/4/5
f 264/4/5 260/4/5 263/4/5
f 265/4/5 262/4/5 261/4/5
f 266/4/5 262/4/5 265/4/5
f 269/4/6 270/4/6 271/4/6
f 271/4/6 270/4/6 272/4/6
f 269/4/6 271/4/6 273/4/6
f 267/4/6 268/4/6 274/4/6
f 269/4/6 273/4/6 275/4/6
f 273/4/6 274/4/6 275/4/6
f 275/4/6 274/4/6 276/4/6
f 276/4/6 274/4/6 277/4/6
f 277/4/6 274/4/6 278/4/6
f 278/4/6 274/4/6 279/4/6
f 279/4/6 274/4/6 280/4/6
f 280/4/6 274/4/6 281/4/6
f 274/4/6 268/4/6 282/4/6
f 281/4/6 274/4/6 282/4/6
f 269/4/6 275/4/6 283/4/6
f 283/4/6 275/4/6 284/4/6
f 282/4/6 268/4/6 285/4/6
f 285/4/6 268/4/6 286/4/6
f 276/4/6 277/4/6 287/4/6
f 287/4/6 277/4/6 288/4/6
f 280/4/6 281/4/6 289/4/6
f 289/4/6 281/4/6 290/4/6
f 278/4/6 279/4/6 291/4/6
f 291/4/6 279/4/6 292/4/6
f 293/4/6 294/4/6 295/4/6
f 295/4/6 294/4/6 296/4/6
f 297/4/6 298/4/6 299/4/6
f 299/4/6 298/4/6 300/4/6
f 301/4/6 302/4/6 305/4/6
f 305/4/6 302/4/6 306/4/6
f 306/4/6 302/4/6 307/4/6
f 303/4/6 304/4/6 308/4/6
f 308/4/6 304/4/6 309/4/6
f 309/4/6 304/4/6 310/4/6
f 301/4/6 305/4/6 311/4/6
f 310/4/6 304/4/6 312/4/6
f 301/4/6 311/4/6 313/4/6
f 311/4/6 312/4/6 313/4/6
f 312/4/6 304/4/6 314/4/6
f 313/4/6 312/4/6 314/4/6
f 315/3/6 316/3/6 317/3/6
f 317/3/6 316/3/6 318/3/6
f 319/4/6 320/4/6 323/4/6
f 321/4/6 322/4/6 324/4/6
f 319/4/6 323/4/6 325/4/6
f 324/4/6 322/4/6 326/4/6
f 319/4/6 325/4/6 327/4/6
f 325/4/6 326/4/6 327/4/6
f 326/4/6 322/4/6 328/4/6
f 327/4/6 326/4/6 328/4/6
f 329/2/6 330/2/6 333/2/6
f 330/1/6 331/1/6 334/1/6
f 333/2/6 330/2/6 334/2/6
f 331/2/6 332/2/6 335/2/6
f 334/1/6 331/1/6 335/1/6
f 335/2/6 332/2/6 336/2/6
f 333/1/6 334/1/6 337/1/6
f 334/1/6 335/1/6 337/1/6
f 335/1/6 336/1/6 337/1/6
f 337/1/6 336/1/6 338/1/6
