# MagicaVoxel @ Ephtracy

# group
o 

# material
mtllib vampire_action_0.mtl
usemtl palette

# normals
vn -1 0 0
vn 1 0 0
vn 0 0 1
vn 0 0 -1
vn 0 -1 0
vn 0 1 0

# texcoords
vt 0.818359 0.5
vt 0.880859 0.5
vt 0.970703 0.5
vt 0.978516 0.5

# verts
v -0.6 0 0.3
v -0.6 0 0.1
v -0.6 0.8 0.3
v -0.6 0.8 0.1
v -0.5 0 0.1
v -0.5 0 0
v -0.5 0.8 0.1
v -0.5 0.8 0
v -0.4 0 0
v -0.4 0 -0.3
v -0.4 0.1 -0.1
v -0.4 0.1 -0.3
v -0.4 0.8 0
v -0.4 0.8 -0.1
v -0.3 0.9 0.3
v -0.3 0.9 0
v -0.3 1 0.3
v -0.3 1 0
v -0.2 0 -0.2
v -0.2 0 -0.4
v -0.2 0.1 -0.2
v -0.2 0.1 -0.4
v -0.2 0.8 0.3
v -0.2 0.8 0
v -0.2 0.9 0.3
v -0.2 0.9 0
v -0.1 0 0.4
v -0.1 0 0.2
v -0.1 0.1 0.4
v -0.1 0.1 0.3
v -0.1 0.6 0.3
v -0.1 0.6 0.2
v -0.1 0.8 0.4
v -0.1 0.8 0.3
v -0.1 1 0.3
v -0.1 1 0.2
v -0.1 1.1 0.4
v -0.1 1.1 0.3
v -0.1 1.1 0.2
v 0 0 -0.2
v 0 0 -0.5
v 0 0.1 -0.2
v 0 0.1 -0.5
v 0.1 0 0.4
v 0.1 0 0.3
v 0.1 0.1 0.4
v 0.1 0.1 0.3
v 0.2 0 -0.2
v 0.2 0 -0.4
v 0.2 0.1 -0.2
v 0.2 0.1 -0.4
v 0.2 0.9 0.2
v 0.2 0.9 0.1
v 0.2 1 0.2
v 0.2 1 0.1
v 0.4 0 -0.2
v 0.4 0 -0.3
v 0.4 0.1 -0.2
v 0.4 0.1 -0.3
v 0.5 0 0.3
v 0.5 0 0.2
v 0.5 0.1 0.3
v 0.5 0.1 0.2
v 0.6 0.1 0.3
v 0.6 0.1 0.2
v 0.6 0.6 0.3
v 0.6 0.6 0.2
v -0.5 0.1 0.3
v -0.5 0.1 0.2
v -0.5 0.6 0.3
v -0.5 0.6 0.2
v -0.4 0 0.3
v -0.4 0 0.2
v -0.4 0.1 0.3
v -0.4 0.1 0.2
v -0.3 0 -0.2
v -0.3 0 -0.3
v -0.3 0.1 -0.2
v -0.3 0.1 -0.3
v -0.1 0 -0.2
v -0.1 0 -0.4
v -0.1 0.1 -0.2
v -0.1 0.1 -0.4
v -0.1 0.9 0.2
v -0.1 0.9 0.1
v -0.1 1 0.2
v -0.1 1 0.1
v 0 0 0.4
v 0 0 0.3
v 0 0.1 0.4
v 0 0.1 0.3
v 0.1 0 -0.2
v 0.1 0 -0.5
v 0.1 0.1 -0.2
v 0.1 0.1 -0.5
v 0.2 0 0.4
v 0.2 0 0.2
v 0.2 0.1 0.4
v 0.2 0.1 0.3
v 0.2 0.6 0.3
v 0.2 0.6 0.2
v 0.2 0.8 0.4
v 0.2 0.8 0.3
v 0.2 1 0.3
v 0.2 1 0.2
v 0.2 1.1 0.4
v 0.2 1.1 0.3
v 0.2 1.1 0.2
v 0.3 0 -0.2
v 0.3 0 -0.4
v 0.3 0.1 -0.2
v 0.3 0.1 -0.4
v 0.3 0.8 0.3
v 0.3 0.8 0
v 0.3 0.9 0.3
v 0.3 0.9 0
v 0.4 0.9 0.3
v 0.4 0.9 0
v 0.4 1 0.3
v 0.4 1 0
v 0.5 0 0
v 0.5 0 -0.3
v 0.5 0.1 -0.1
v 0.5 0.1 -0.3
v 0.5 0.8 0
v 0.5 0.8 -0.1
v 0.6 0 0.1
v 0.6 0 0
v 0.6 0.8 0.1
v 0.6 0.8 0
v 0.7 0 0.3
v 0.7 0 0.1
v 0.7 0.8 0.3
v 0.7 0.8 0.1
v -0.1 0 0.4
v -0.1 0.1 0.4
v -0.1 0.8 0.4
v -0.1 1.1 0.4
v 0 0 0.4
v 0 0.1 0.4
v 0 1 0.4
v 0 1.1 0.4
v 0.1 0 0.4
v 0.1 0.1 0.4
v 0.1 1 0.4
v 0.1 1.1 0.4
v 0.2 0 0.4
v 0.2 0.1 0.4
v 0.2 0.8 0.4
v 0.2 1.1 0.4
v -0.6 0 0.3
v -0.6 0.8 0.3
v -0.5 0.1 0.3
v -0.5 0.6 0.3
v -0.5 0.7 0.3
v -0.4 0 0.3
v -0.4 0.1 0.3
v -0.3 0.9 0.3
v -0.3 1 0.3
v -0.2 0.8 0.3
v -0.2 0.9 0.3
v -0.1 0.1 0.3
v -0.1 0.6 0.3
v -0.1 0.7 0.3
v -0.1 0.8 0.3
v -0.1 1 0.3
v 0 0 0.3
v 0 0.1 0.3
v 0.1 0 0.3
v 0.1 0.1 0.3
v 0.2 0.1 0.3
v 0.2 0.6 0.3
v 0.2 0.7 0.3
v 0.2 0.8 0.3
v 0.2 1 0.3
v 0.3 0.8 0.3
v 0.3 0.9 0.3
v 0.4 0.9 0.3
v 0.4 1 0.3
v 0.5 0 0.3
v 0.5 0.1 0.3
v 0.6 0.1 0.3
v 0.6 0.6 0.3
v 0.6 0.7 0.3
v 0.7 0 0.3
v 0.7 0.8 0.3
v -0.5 0.1 0.2
v -0.5 0.6 0.2
v -0.4 0 0.2
v -0.4 0.1 0.2
v -0.1 0 0.2
v -0.1 0.6 0.2
v 0.2 0 0.2
v 0.2 0.6 0.2
v 0.5 0 0.2
v 0.5 0.1 0.2
v 0.6 0.1 0.2
v 0.6 0.6 0.2
v -0.1 0.9 0.1
v -0.1 1 0.1
v 0.2 0.9 0.1
v 0.2 1 0.1
v -0.1 0.9 0.2
v -0.1 1 0.2
v -0.1 1.1 0.2
v 0.2 0.9 0.2
v 0.2 1 0.2
v 0.2 1.1 0.2
v -0.6 0 0.1
v -0.6 0.8 0.1
v -0.5 0 0.1
v -0.5 0.8 0.1
v 0.6 0 0.1
v 0.6 0.8 0.1
v 0.7 0 0.1
v 0.7 0.8 0.1
v -0.5 0 0
v -0.5 0.8 0
v -0.4 0 0
v -0.4 0.8 0
v -0.3 0.9 0
v -0.3 1 0
v -0.2 0.8 0
v -0.2 0.9 0
v 0.3 0.8 0
v 0.3 0.9 0
v 0.4 0.9 0
v 0.4 1 0
v 0.5 0 0
v 0.5 0.8 0
v 0.6 0 0
v 0.6 0.8 0
v -0.4 0.1 -0.1
v -0.4 0.8 -0.1
v 0.5 0.1 -0.1
v 0.5 0.8 -0.1
v -0.3 0 -0.2
v -0.3 0.1 -0.2
v -0.2 0 -0.2
v -0.2 0.1 -0.2
v -0.1 0 -0.2
v -0.1 0.1 -0.2
v 0 0 -0.2
v 0 0.1 -0.2
v 0.1 0 -0.2
v 0.1 0.1 -0.2
v 0.2 0 -0.2
v 0.2 0.1 -0.2
v 0.3 0 -0.2
v 0.3 0.1 -0.2
v 0.4 0 -0.2
v 0.4 0.1 -0.2
v -0.4 0 -0.3
v -0.4 0.1 -0.3
v -0.3 0 -0.3
v -0.3 0.1 -0.3
v 0.4 0 -0.3
v 0.4 0.1 -0.3
v 0.5 0 -0.3
v 0.5 0.1 -0.3
v -0.2 0 -0.4
v -0.2 0.1 -0.4
v -0.1 0 -0.4
v -0.1 0.1 -0.4
v 0.2 0 -0.4
v 0.2 0.1 -0.4
v 0.3 0 -0.4
v 0.3 0.1 -0.4
v 0 0 -0.5
v 0 0.1 -0.5
v 0.1 0 -0.5
v 0.1 0.1 -0.5
v -0.1 0 0.4
v 0 0 0.4
v 0.1 0 0.4
v 0.2 0 0.4
v -0.6 0 0.3
v -0.4 0 0.3
v 0 0 0.3
v 0.1 0 0.3
v 0.5 0 0.3
v 0.7 0 0.3
v -0.4 0 0.2
v -0.1 0 0.2
v 0.2 0 0.2
v 0.5 0 0.2
v -0.6 0 0.1
v -0.5 0 0.1
v -0.4 0 0.1
v -0.3 0 0.1
v 0.4 0 0.1
v 0.5 0 0.1
v 0.6 0 0.1
v 0.7 0 0.1
v -0.5 0 0
v -0.4 0 0
v 0.5 0 0
v 0.6 0 0
v -0.3 0 -0.1
v 0.4 0 -0.1
v -0.3 0 -0.2
v -0.2 0 -0.2
v -0.1 0 -0.2
v 0 0 -0.2
v 0.1 0 -0.2
v 0.2 0 -0.2
v 0.3 0 -0.2
v 0.4 0 -0.2
v -0.4 0 -0.3
v -0.3 0 -0.3
v 0.4 0 -0.3
v 0.5 0 -0.3
v -0.2 0 -0.4
v -0.1 0 -0.4
v 0.2 0 -0.4
v 0.3 0 -0.4
v 0 0 -0.5
v 0.1 0 -0.5
v -0.5 0.6 0.3
v -0.1 0.6 0.3
v 0.2 0.6 0.3
v 0.6 0.6 0.3
v -0.5 0.6 0.2
v -0.1 0.6 0.2
v 0.2 0.6 0.2
v 0.6 0.6 0.2
v -0.1 0.8 0.4
v 0.2 0.8 0.4
v -0.1 0.8 0.3
v 0.2 0.8 0.3
v -0.3 0.9 0.3
v -0.2 0.9 0.3
v 0.3 0.9 0.3
v 0.4 0.9 0.3
v -0.3 0.9 0
v -0.2 0.9 0
v 0.3 0.9 0
v 0.4 0.9 0
v -0.1 0.1 0.4
v 0 0.1 0.4
v 0.1 0.1 0.4
v 0.2 0.1 0.4
v -0.5 0.1 0.3
v -0.4 0.1 0.3
v -0.1 0.1 0.3
v 0 0.1 0.3
v 0.1 0.1 0.3
v 0.2 0.1 0.3
v 0.5 0.1 0.3
v 0.6 0.1 0.3
v -0.5 0.1 0.2
v -0.4 0.1 0.2
v 0.5 0.1 0.2
v 0.6 0.1 0.2
v -0.4 0.1 -0.1
v 0.5 0.1 -0.1
v -0.3 0.1 -0.2
v -0.2 0.1 -0.2
v -0.1 0.1 -0.2
v 0 0.1 -0.2
v 0.1 0.1 -0.2
v 0.2 0.1 -0.2
v 0.3 0.1 -0.2
v 0.4 0.1 -0.2
v -0.4 0.1 -0.3
v -0.3 0.1 -0.3
v 0.4 0.1 -0.3
v 0.5 0.1 -0.3
v -0.2 0.1 -0.4
v -0.1 0.1 -0.4
v 0.2 0.1 -0.4
v 0.3 0.1 -0.4
v 0 0.1 -0.5
v 0.1 0.1 -0.5
v -0.6 0.8 0.3
v -0.2 0.8 0.3
v 0.3 0.8 0.3
v 0.7 0.8 0.3
v -0.6 0.8 0.1
v -0.5 0.8 0.1
v 0.6 0.8 0.1
v 0.7 0.8 0.1
v -0.5 0.8 0
v -0.4 0.8 0
v -0.2 0.8 0
v 0.3 0.8 0
v 0.5 0.8 0
v 0.6 0.8 0
v -0.4 0.8 -0.1
v 0.5 0.8 -0.1
v -0.1 0.9 0.2
v 0.2 0.9 0.2
v -0.1 0.9 0.1
v 0.2 0.9 0.1
v -0.3 1 0.3
v -0.1 1 0.3
v 0.2 1 0.3
v 0.4 1 0.3
v -0.1 1 0.2
v 0.2 1 0.2
v -0.1 1 0.1
v 0.2 1 0.1
v -0.3 1 0
v 0.4 1 0
v -0.1 1.1 0.4
v 0 1.1 0.4
v 0.1 1.1 0.4
v 0.2 1.1 0.4
v -0.1 1.1 0.3
v 0 1.1 0.3
v 0.1 1.1 0.3
v 0.2 1.1 0.3
v -0.1 1.1 0.2
v 0.2 1.1 0.2

# faces
f 3/4/1 2/4/1 1/4/1
f 4/4/1 2/4/1 3/4/1
f 7/4/1 6/4/1 5/4/1
f 8/4/1 6/4/1 7/4/1
f 11/4/1 10/4/1 9/4/1
f 12/4/1 10/4/1 11/4/1
f 13/4/1 11/4/1 9/4/1
f 14/4/1 11/4/1 13/4/1
f 17/4/1 16/4/1 15/4/1
f 18/4/1 16/4/1 17/4/1
f 21/4/1 20/4/1 19/4/1
f 22/4/1 20/4/1 21/4/1
f 25/4/1 24/4/1 23/4/1
f 26/4/1 24/4/1 25/4/1
f 29/3/1 28/3/1 27/3/1
f 30/3/1 28/3/1 29/3/1
f 31/3/1 28/3/1 30/3/1
f 32/3/1 28/3/1 31/3/1
f 35/2/1 34/2/1 33/2/1
f 37/2/1 35/2/1 33/2/1
f 38/1/1 36/1/1 35/1/1
f 38/2/1 35/2/1 37/2/1
f 39/1/1 36/1/1 38/1/1
f 42/4/1 41/4/1 40/4/1
f 43/4/1 41/4/1 42/4/1
f 46/3/1 45/3/1 44/3/1
f 47/3/1 45/3/1 46/3/1
f 50/4/1 49/4/1 48/4/1
f 51/4/1 49/4/1 50/4/1
f 54/4/1 53/4/1 52/4/1
f 55/4/1 53/4/1 54/4/1
f 58/4/1 57/4/1 56/4/1
f 59/4/1 57/4/1 58/4/1
f 62/4/1 61/4/1 60/4/1
f 63/4/1 61/4/1 62/4/1
f 66/4/1 65/4/1 64/4/1
f 67/4/1 65/4/1 66/4/1
f 68/4/2 69/4/2 70/4/2
f 70/4/2 69/4/2 71/4/2
f 72/4/2 73/4/2 74/4/2
f 74/4/2 73/4/2 75/4/2
f 76/4/2 77/4/2 78/4/2
f 78/4/2 77/4/2 79/4/2
f 80/4/2 81/4/2 82/4/2
f 82/4/2 81/4/2 83/4/2
f 84/4/2 85/4/2 86/4/2
f 86/4/2 85/4/2 87/4/2
f 88/3/2 89/3/2 90/3/2
f 90/3/2 89/3/2 91/3/2
f 92/4/2 93/4/2 94/4/2
f 94/4/2 93/4/2 95/4/2
f 96/3/2 97/3/2 98/3/2
f 98/3/2 97/3/2 99/3/2
f 99/3/2 97/3/2 100/3/2
f 100/3/2 97/3/2 101/3/2
f 102/2/2 103/2/2 104/2/2
f 102/2/2 104/2/2 106/2/2
f 104/1/2 105/1/2 107/1/2
f 106/2/2 104/2/2 107/2/2
f 107/1/2 105/1/2 108/1/2
f 109/4/2 110/4/2 111/4/2
f 111/4/2 110/4/2 112/4/2
f 113/4/2 114/4/2 115/4/2
f 115/4/2 114/4/2 116/4/2
f 117/4/2 118/4/2 119/4/2
f 119/4/2 118/4/2 120/4/2
f 121/4/2 122/4/2 123/4/2
f 123/4/2 122/4/2 124/4/2
f 121/4/2 123/4/2 125/4/2
f 125/4/2 123/4/2 126/4/2
f 127/4/2 128/4/2 129/4/2
f 129/4/2 128/4/2 130/4/2
f 131/4/2 132/4/2 133/4/2
f 133/4/2 132/4/2 134/4/2
f 139/3/3 136/3/3 135/3/3
f 140/3/3 136/3/3 139/3/3
f 141/2/3 138/2/3 137/2/3
f 142/2/3 138/2/3 141/2/3
f 145/2/3 141/2/3 137/2/3
f 145/1/3 142/1/3 141/1/3
f 146/1/3 142/1/3 145/1/3
f 147/3/3 144/3/3 143/3/3
f 148/3/3 144/3/3 147/3/3
f 149/2/3 145/2/3 137/2/3
f 149/2/3 146/2/3 145/2/3
f 150/2/3 146/2/3 149/2/3
f 153/4/3 152/4/3 151/4/3
f 154/4/3 152/4/3 153/4/3
f 155/4/3 152/4/3 154/4/3
f 156/4/3 153/4/3 151/4/3
f 157/4/3 153/4/3 156/4/3
f 160/4/3 152/4/3 155/4/3
f 161/4/3 159/4/3 158/4/3
f 163/3/3 155/3/3 154/3/3
f 164/4/3 160/4/3 155/4/3
f 164/4/3 161/4/3 160/4/3
f 164/3/3 155/3/3 163/3/3
f 165/4/3 161/4/3 164/4/3
f 166/4/3 159/4/3 161/4/3
f 166/4/3 161/4/3 165/4/3
f 168/3/3 163/3/3 162/3/3
f 168/3/3 165/3/3 164/3/3
f 168/3/3 164/3/3 163/3/3
f 169/3/3 168/3/3 167/3/3
f 170/3/3 165/3/3 168/3/3
f 170/3/3 168/3/3 169/3/3
f 171/3/3 165/3/3 170/3/3
f 172/3/3 165/3/3 171/3/3
f 173/3/3 165/3/3 172/3/3
f 174/3/3 165/3/3 173/3/3
f 176/4/3 175/4/3 174/4/3
f 176/4/3 174/4/3 173/4/3
f 177/4/3 175/4/3 176/4/3
f 178/4/3 175/4/3 177/4/3
f 179/4/3 175/4/3 178/4/3
f 182/4/3 181/4/3 180/4/3
f 183/3/3 173/3/3 172/3/3
f 184/4/3 176/4/3 173/4/3
f 184/3/3 173/3/3 183/3/3
f 185/4/3 182/4/3 180/4/3
f 185/4/3 183/4/3 182/4/3
f 185/4/3 184/4/3 183/4/3
f 186/4/3 176/4/3 184/4/3
f 186/4/3 184/4/3 185/4/3
f 190/3/3 188/3/3 187/3/3
f 191/3/3 190/3/3 189/3/3
f 192/3/3 188/3/3 190/3/3
f 192/3/3 190/3/3 191/3/3
f 195/3/3 194/3/3 193/3/3
f 196/3/3 194/3/3 195/3/3
f 197/3/3 194/3/3 196/3/3
f 198/3/3 194/3/3 197/3/3
f 201/4/3 200/4/3 199/4/3
f 202/4/3 200/4/3 201/4/3
f 203/1/4 204/1/4 206/1/4
f 204/1/4 205/1/4 206/1/4
f 206/1/4 205/1/4 207/1/4
f 207/1/4 205/1/4 208/1/4
f 209/4/4 210/4/4 211/4/4
f 211/4/4 210/4/4 212/4/4
f 213/4/4 214/4/4 215/4/4
f 215/4/4 214/4/4 216/4/4
f 217/4/4 218/4/4 219/4/4
f 219/4/4 218/4/4 220/4/4
f 221/4/4 222/4/4 224/4/4
f 223/4/4 224/4/4 225/4/4
f 224/4/4 222/4/4 226/4/4
f 225/4/4 224/4/4 226/4/4
f 226/4/4 222/4/4 227/4/4
f 227/4/4 222/4/4 228/4/4
f 229/4/4 230/4/4 231/4/4
f 231/4/4 230/4/4 232/4/4
f 233/4/4 234/4/4 235/4/4
f 235/4/4 234/4/4 236/4/4
f 237/4/4 238/4/4 239/4/4
f 239/4/4 238/4/4 240/4/4
f 241/4/4 242/4/4 243/4/4
f 243/4/4 242/4/4 244/4/4
f 245/4/4 246/4/4 247/4/4
f 247/4/4 246/4/4 248/4/4
f 249/4/4 250/4/4 251/4/4
f 251/4/4 250/4/4 252/4/4
f 253/4/4 254/4/4 255/4/4
f 255/4/4 254/4/4 256/4/4
f 257/4/4 258/4/4 259/4/4
f 259/4/4 258/4/4 260/4/4
f 261/4/4 262/4/4 263/4/4
f 263/4/4 262/4/4 264/4/4
f 265/4/4 266/4/4 267/4/4
f 267/4/4 266/4/4 268/4/4
f 269/4/4 270/4/4 271/4/4
f 271/4/4 270/4/4 272/4/4
f 279/3/5 274/3/5 273/3/5
f 280/3/5 276/3/5 275/3/5
f 283/4/5 278/4/5 277/4/5
f 284/3/5 279/3/5 273/3/5
f 284/3/5 280/3/5 279/3/5
f 285/3/5 276/3/5 280/3/5
f 285/3/5 280/3/5 284/3/5
f 286/4/5 282/4/5 281/4/5
f 287/4/5 283/4/5 277/4/5
f 288/4/5 283/4/5 287/4/5
f 289/3/5 285/3/5 284/3/5
f 289/4/5 283/4/5 288/4/5
f 289/3/5 286/3/5 285/3/5
f 289/3/5 284/3/5 283/3/5
f 290/3/5 286/3/5 289/3/5
f 291/3/5 286/3/5 290/3/5
f 292/4/5 282/4/5 286/4/5
f 292/3/5 286/3/5 291/3/5
f 293/4/5 282/4/5 292/4/5
f 294/4/5 282/4/5 293/4/5
f 295/4/5 289/4/5 288/4/5
f 295/4/5 290/4/5 289/4/5
f 296/4/5 290/4/5 295/4/5
f 297/4/5 293/4/5 292/4/5
f 297/4/5 292/4/5 291/4/5
f 298/4/5 293/4/5 297/4/5
f 299/3/5 291/3/5 290/3/5
f 299/4/5 290/4/5 296/4/5
f 300/4/5 297/4/5 291/4/5
f 300/3/5 291/3/5 299/3/5
f 301/4/5 299/4/5 296/4/5
f 301/4/5 300/4/5 299/4/5
f 302/4/5 300/4/5 301/4/5
f 303/4/5 300/4/5 302/4/5
f 304/4/5 300/4/5 303/4/5
f 305/4/5 300/4/5 304/4/5
f 306/4/5 300/4/5 305/4/5
f 307/4/5 300/4/5 306/4/5
f 308/4/5 297/4/5 300/4/5
f 308/4/5 300/4/5 307/4/5
f 309/4/5 301/4/5 296/4/5
f 310/4/5 301/4/5 309/4/5
f 311/4/5 297/4/5 308/4/5
f 312/4/5 297/4/5 311/4/5
f 313/4/5 303/4/5 302/4/5
f 314/4/5 303/4/5 313/4/5
f 315/4/5 307/4/5 306/4/5
f 316/4/5 307/4/5 315/4/5
f 317/4/5 305/4/5 304/4/5
f 318/4/5 305/4/5 317/4/5
f 323/3/5 320/3/5 319/3/5
f 324/3/5 320/3/5 323/3/5
f 325/3/5 322/3/5 321/3/5
f 326/3/5 322/3/5 325/3/5
f 329/2/5 328/2/5 327/2/5
f 330/2/5 328/2/5 329/2/5
f 335/4/5 332/4/5 331/4/5
f 336/4/5 332/4/5 335/4/5
f 337/4/5 334/4/5 333/4/5
f 338/4/5 334/4/5 337/4/5
f 339/3/6 340/3/6 345/3/6
f 345/3/6 340/3/6 346/3/6
f 341/3/6 342/3/6 347/3/6
f 347/3/6 342/3/6 348/3/6
f 343/4/6 344/4/6 351/4/6
f 351/4/6 344/4/6 352/4/6
f 349/4/6 350/4/6 353/4/6
f 353/4/6 350/4/6 354/4/6
f 355/4/6 356/4/6 357/4/6
f 357/4/6 356/4/6 358/4/6
f 358/4/6 356/4/6 359/4/6
f 359/4/6 356/4/6 360/4/6
f 360/4/6 356/4/6 361/4/6
f 361/4/6 356/4/6 362/4/6
f 362/4/6 356/4/6 363/4/6
f 363/4/6 356/4/6 364/4/6
f 355/4/6 357/4/6 365/4/6
f 365/4/6 357/4/6 366/4/6
f 364/4/6 356/4/6 367/4/6
f 367/4/6 356/4/6 368/4/6
f 358/4/6 359/4/6 369/4/6
f 369/4/6 359/4/6 370/4/6
f 362/4/6 363/4/6 371/4/6
f 371/4/6 363/4/6 372/4/6
f 360/4/6 361/4/6 373/4/6
f 373/4/6 361/4/6 374/4/6
f 375/4/6 376/4/6 379/4/6
f 379/4/6 376/4/6 380/4/6
f 377/4/6 378/4/6 381/4/6
f 381/4/6 378/4/6 382/4/6
f 380/4/6 376/4/6 383/4/6
f 383/4/6 376/4/6 384/4/6
f 384/4/6 376/4/6 385/4/6
f 377/4/6 381/4/6 386/4/6
f 386/4/6 381/4/6 387/4/6
f 387/4/6 381/4/6 388/4/6
f 384/4/6 385/4/6 389/4/6
f 386/4/6 387/4/6 389/4/6
f 385/4/6 386/4/6 389/4/6
f 389/4/6 387/4/6 390/4/6
f 391/3/6 392/3/6 393/3/6
f 393/3/6 392/3/6 394/3/6
f 395/4/6 396/4/6 399/4/6
f 397/4/6 398/4/6 400/4/6
f 395/4/6 399/4/6 401/4/6
f 400/4/6 398/4/6 402/4/6
f 395/4/6 401/4/6 403/4/6
f 401/4/6 402/4/6 403/4/6
f 402/4/6 398/4/6 404/4/6
f 403/4/6 402/4/6 404/4/6
f 405/2/6 406/2/6 409/2/6
f 406/1/6 407/1/6 410/1/6
f 409/2/6 406/2/6 410/2/6
f 407/2/6 408/2/6 411/2/6
f 410/1/6 407/1/6 411/1/6
f 411/2/6 408/2/6 412/2/6
f 409/1/6 410/1/6 413/1/6
f 410/1/6 411/1/6 413/1/6
f 411/1/6 412/1/6 413/1/6
f 413/1/6 412/1/6 414/1/6
