# MagicaVoxel @ Ephtracy

# group
o 

# material
mtllib vampire_idle_1.mtl
usemtl palette

# normals
vn -1 0 0
vn 1 0 0
vn 0 0 1
vn 0 0 -1
vn 0 -1 0
vn 0 1 0

# texcoords
vt 0.818359 0.5
vt 0.880859 0.5
vt 0.970703 0.5
vt 0.978516 0.5

# verts
v -0.4 0 0.5
v -0.4 0 -0.3
v -0.4 0.1 0.5
v -0.4 0.1 -0.3
v -0.3 0.1 0.4
v -0.3 0.1 -0.1
v -0.3 0.6 0.4
v -0.3 0.6 -0.1
v -0.3 0.8 0.3
v -0.3 0.8 -5.96046e-08
v -0.3 0.9 0.3
v -0.3 0.9 -5.96046e-08
v -0.2 0 -0.2
v -0.2 0 -0.4
v -0.2 0.1 -0.2
v -0.2 0.1 -0.4
v -0.2 0.6 0.3
v -0.2 0.6 -5.96046e-08
v -0.2 0.8 0.3
v -0.2 0.8 -5.96046e-08
v -0.1 0.7 0.4
v -0.1 0.7 0.3
v -0.1 0.9 0.3
v -0.1 0.9 0.2
v -0.1 1 0.4
v -0.1 1 0.3
v -0.1 1 0.2
v 0 0 -0.2
v 0 0 -0.5
v 0 0.1 -0.2
v 0 0.1 -0.5
v 0.1 0 0.5
v 0.1 0 0.3
v 0.1 0.1 0.5
v 0.1 0.1 0.4
v 0.1 0.6 0.4
v 0.1 0.6 0.3
v 0.2 0 -0.2
v 0.2 0 -0.4
v 0.2 0.1 -0.2
v 0.2 0.1 -0.4
v 0.2 0.8 0.2
v 0.2 0.8 0.1
v 0.2 0.9 0.2
v 0.2 0.9 0.1
v 0.4 0 -0.2
v 0.4 0 -0.3
v 0.4 0.1 -0.2
v 0.4 0.1 -0.3
v -0.3 0 -0.2
v -0.3 0 -0.3
v -0.3 0.1 -0.2
v -0.3 0.1 -0.3
v -0.1 0 -0.2
v -0.1 0 -0.4
v -0.1 0.1 -0.2
v -0.1 0.1 -0.4
v -0.1 0.8 0.2
v -0.1 0.8 0.1
v -0.1 0.9 0.2
v -0.1 0.9 0.1
v 0 0 0.5
v 0 0 0.3
v 0 0.1 0.5
v 0 0.1 0.4
v 0 0.6 0.4
v 0 0.6 0.3
v 0.1 0 -0.2
v 0.1 0 -0.5
v 0.1 0.1 -0.2
v 0.1 0.1 -0.5
v 0.2 0.7 0.4
v 0.2 0.7 0.3
v 0.2 0.9 0.3
v 0.2 0.9 0.2
v 0.2 1 0.4
v 0.2 1 0.3
v 0.2 1 0.2
v 0.3 0 -0.2
v 0.3 0 -0.4
v 0.3 0.1 -0.2
v 0.3 0.1 -0.4
v 0.3 0.6 0.3
v 0.3 0.6 -5.96046e-08
v 0.3 0.8 0.3
v 0.3 0.8 -5.96046e-08
v 0.4 0.1 0.4
v 0.4 0.1 -0.1
v 0.4 0.6 0.4
v 0.4 0.6 -0.1
v 0.4 0.8 0.3
v 0.4 0.8 -5.96046e-08
v 0.4 0.9 0.3
v 0.4 0.9 -5.96046e-08
v 0.5 0 0.5
v 0.5 0 -0.3
v 0.5 0.1 0.5
v 0.5 0.1 -0.3
v -0.4 0 0.5
v -0.4 0.1 0.5
v 0 0 0.5
v 0 0.1 0.5
v 0.1 0 0.5
v 0.1 0.1 0.5
v 0.5 0 0.5
v 0.5 0.1 0.5
v -0.3 0.1 0.4
v -0.3 0.6 0.4
v -0.1 0.7 0.4
v -0.1 1 0.4
v 0 0.1 0.4
v 0 0.6 0.4
v 0 0.9 0.4
v 0 1 0.4
v 0.1 0.1 0.4
v 0.1 0.6 0.4
v 0.1 0.9 0.4
v 0.1 1 0.4
v 0.2 0.7 0.4
v 0.2 1 0.4
v 0.4 0.1 0.4
v 0.4 0.6 0.4
v -0.3 0.8 0.3
v -0.3 0.9 0.3
v -0.2 0.6 0.3
v -0.2 0.8 0.3
v -0.1 0.6 0.3
v -0.1 0.7 0.3
v -0.1 0.9 0.3
v 0 0 0.3
v 0 0.6 0.3
v 0.1 0 0.3
v 0.1 0.6 0.3
v 0.2 0.6 0.3
v 0.2 0.7 0.3
v 0.2 0.9 0.3
v 0.3 0.6 0.3
v 0.3 0.8 0.3
v 0.4 0.8 0.3
v 0.4 0.9 0.3
v -0.1 0.8 0.1
v -0.1 0.9 0.1
v 0.2 0.8 0.1
v 0.2 0.9 0.1
v -0.1 0.8 0.2
v -0.1 0.9 0.2
v -0.1 1 0.2
v 0.2 0.8 0.2
v 0.2 0.9 0.2
v 0.2 1 0.2
v -0.3 0.8 -5.96046e-08
v -0.3 0.9 -5.96046e-08
v -0.2 0.6 -5.96046e-08
v -0.2 0.8 -5.96046e-08
v 0.3 0.6 -5.96046e-08
v 0.3 0.8 -5.96046e-08
v 0.4 0.8 -5.96046e-08
v 0.4 0.9 -5.96046e-08
v -0.3 0.1 -0.1
v -0.3 0.6 -0.1
v 0.4 0.1 -0.1
v 0.4 0.6 -0.1
v -0.3 0 -0.2
v -0.3 0.1 -0.2
v -0.2 0 -0.2
v -0.2 0.1 -0.2
v -0.1 0 -0.2
v -0.1 0.1 -0.2
v 0 0 -0.2
v 0 0.1 -0.2
v 0.1 0 -0.2
v 0.1 0.1 -0.2
v 0.2 0 -0.2
v 0.2 0.1 -0.2
v 0.3 0 -0.2
v 0.3 0.1 -0.2
v 0.4 0 -0.2
v 0.4 0.1 -0.2
v -0.4 0 -0.3
v -0.4 0.1 -0.3
v -0.3 0 -0.3
v -0.3 0.1 -0.3
v 0.4 0 -0.3
v 0.4 0.1 -0.3
v 0.5 0 -0.3
v 0.5 0.1 -0.3
v -0.2 0 -0.4
v -0.2 0.1 -0.4
v -0.1 0 -0.4
v -0.1 0.1 -0.4
v 0.2 0 -0.4
v 0.2 0.1 -0.4
v 0.3 0 -0.4
v 0.3 0.1 -0.4
v 0 0 -0.5
v 0 0.1 -0.5
v 0.1 0 -0.5
v 0.1 0.1 -0.5
v -0.4 0 0.5
v 0 0 0.5
v 0.1 0 0.5
v 0.5 0 0.5
v -0.3 0 0.4
v -0.1 0 0.4
v 0.2 0 0.4
v 0.4 0 0.4
v -0.1 0 0.3
v 0 0 0.3
v 0.1 0 0.3
v 0.2 0 0.3
v -0.3 0 -0.1
v 0.4 0 -0.1
v -0.3 0 -0.2
v -0.2 0 -0.2
v -0.1 0 -0.2
v 0 0 -0.2
v 0.1 0 -0.2
v 0.2 0 -0.2
v 0.3 0 -0.2
v 0.4 0 -0.2
v -0.4 0 -0.3
v -0.3 0 -0.3
v 0.4 0 -0.3
v 0.5 0 -0.3
v -0.2 0 -0.4
v -0.1 0 -0.4
v 0.2 0 -0.4
v 0.3 0 -0.4
v 0 0 -0.5
v 0.1 0 -0.5
v -0.1 0.7 0.4
v 0.2 0.7 0.4
v -0.1 0.7 0.3
v 0.2 0.7 0.3
v -0.3 0.8 0.3
v -0.2 0.8 0.3
v 0.3 0.8 0.3
v 0.4 0.8 0.3
v -0.3 0.8 -5.96046e-08
v -0.2 0.8 -5.96046e-08
v 0.3 0.8 -5.96046e-08
v 0.4 0.8 -5.96046e-08
v -0.4 0.1 0.5
v 0 0.1 0.5
v 0.1 0.1 0.5
v 0.5 0.1 0.5
v -0.3 0.1 0.4
v 0 0.1 0.4
v 0.1 0.1 0.4
v 0.4 0.1 0.4
v -0.3 0.1 -0.1
v 0.4 0.1 -0.1
v -0.3 0.1 -0.2
v -0.2 0.1 -0.2
v -0.1 0.1 -0.2
v 0 0.1 -0.2
v 0.1 0.1 -0.2
v 0.2 0.1 -0.2
v 0.3 0.1 -0.2
v 0.4 0.1 -0.2
v -0.4 0.1 -0.3
v -0.3 0.1 -0.3
v 0.4 0.1 -0.3
v 0.5 0.1 -0.3
v -0.2 0.1 -0.4
v -0.1 0.1 -0.4
v 0.2 0.1 -0.4
v 0.3 0.1 -0.4
v 0 0.1 -0.5
v 0.1 0.1 -0.5
v -0.3 0.6 0.4
v 0 0.6 0.4
v 0.1 0.6 0.4
v 0.4 0.6 0.4
v -0.2 0.6 0.3
v -0.1 0.6 0.3
v 0 0.6 0.3
v 0.1 0.6 0.3
v 0.2 0.6 0.3
v 0.3 0.6 0.3
v -0.2 0.6 -5.96046e-08
v 0.3 0.6 -5.96046e-08
v -0.3 0.6 -0.1
v 0.4 0.6 -0.1
v -0.1 0.8 0.2
v 0.2 0.8 0.2
v -0.1 0.8 0.1
v 0.2 0.8 0.1
v -0.3 0.9 0.3
v -0.1 0.9 0.3
v 0.2 0.9 0.3
v 0.4 0.9 0.3
v -0.1 0.9 0.2
v 0.2 0.9 0.2
v -0.1 0.9 0.1
v 0.2 0.9 0.1
v -0.3 0.9 -5.96046e-08
v 0.4 0.9 -5.96046e-08
v -0.1 1 0.4
v 0 1 0.4
v 0.1 1 0.4
v 0.2 1 0.4
v -0.1 1 0.3
v 0 1 0.3
v 0.1 1 0.3
v 0.2 1 0.3
v -0.1 1 0.2
v 0.2 1 0.2

# faces
f 3/4/1 2/4/1 1/4/1
f 4/4/1 2/4/1 3/4/1
f 7/4/1 6/4/1 5/4/1
f 8/4/1 6/4/1 7/4/1
f 11/4/1 10/4/1 9/4/1
f 12/4/1 10/4/1 11/4/1
f 15/4/1 14/4/1 13/4/1
f 16/4/1 14/4/1 15/4/1
f 19/4/1 18/4/1 17/4/1
f 20/4/1 18/4/1 19/4/1
f 23/2/1 22/2/1 21/2/1
f 25/2/1 23/2/1 21/2/1
f 26/1/1 24/1/1 23/1/1
f 26/2/1 23/2/1 25/2/1
f 27/1/1 24/1/1 26/1/1
f 30/4/1 29/4/1 28/4/1
f 31/4/1 29/4/1 30/4/1
f 34/4/1 33/4/1 32/4/1
f 35/4/1 33/4/1 34/4/1
f 36/4/1 33/4/1 35/4/1
f 37/4/1 33/4/1 36/4/1
f 40/4/1 39/4/1 38/4/1
f 41/4/1 39/4/1 40/4/1
f 44/4/1 43/4/1 42/4/1
f 45/4/1 43/4/1 44/4/1
f 48/4/1 47/4/1 46/4/1
f 49/4/1 47/4/1 48/4/1
f 50/4/2 51/4/2 52/4/2
f 52/4/2 51/4/2 53/4/2
f 54/4/2 55/4/2 56/4/2
f 56/4/2 55/4/2 57/4/2
f 58/4/2 59/4/2 60/4/2
f 60/4/2 59/4/2 61/4/2
f 62/4/2 63/4/2 64/4/2
f 64/4/2 63/4/2 65/4/2
f 65/4/2 63/4/2 66/4/2
f 66/4/2 63/4/2 67/4/2
f 68/4/2 69/4/2 70/4/2
f 70/4/2 69/4/2 71/4/2
f 72/2/2 73/2/2 74/2/2
f 72/2/2 74/2/2 76/2/2
f 74/1/2 75/1/2 77/1/2
f 76/2/2 74/2/2 77/2/2
f 77/1/2 75/1/2 78/1/2
f 79/4/2 80/4/2 81/4/2
f 81/4/2 80/4/2 82/4/2
f 83/4/2 84/4/2 85/4/2
f 85/4/2 84/4/2 86/4/2
f 87/4/2 88/4/2 89/4/2
f 89/4/2 88/4/2 90/4/2
f 91/4/2 92/4/2 93/4/2
f 93/4/2 92/4/2 94/4/2
f 95/4/2 96/4/2 97/4/2
f 97/4/2 96/4/2 98/4/2
f 101/4/3 100/4/3 99/4/3
f 102/4/3 100/4/3 101/4/3
f 105/4/3 104/4/3 103/4/3
f 106/4/3 104/4/3 105/4/3
f 111/4/3 108/4/3 107/4/3
f 112/4/3 108/4/3 111/4/3
f 113/2/3 110/2/3 109/2/3
f 114/2/3 110/2/3 113/2/3
f 117/2/3 113/2/3 109/2/3
f 117/1/3 114/1/3 113/1/3
f 118/1/3 114/1/3 117/1/3
f 119/2/3 117/2/3 109/2/3
f 119/2/3 118/2/3 117/2/3
f 120/2/3 118/2/3 119/2/3
f 121/4/3 116/4/3 115/4/3
f 122/4/3 116/4/3 121/4/3
f 126/4/3 124/4/3 123/4/3
f 127/4/3 126/4/3 125/4/3
f 128/4/3 126/4/3 127/4/3
f 129/4/3 124/4/3 126/4/3
f 129/4/3 126/4/3 128/4/3
f 131/3/3 128/3/3 127/3/3
f 132/3/3 131/3/3 130/3/3
f 133/3/3 128/3/3 131/3/3
f 133/3/3 131/3/3 132/3/3
f 134/3/3 128/3/3 133/3/3
f 135/3/3 128/3/3 134/3/3
f 137/4/3 135/4/3 134/4/3
f 137/4/3 136/4/3 135/4/3
f 138/4/3 136/4/3 137/4/3
f 139/4/3 136/4/3 138/4/3
f 140/4/3 136/4/3 139/4/3
f 143/4/3 142/4/3 141/4/3
f 144/4/3 142/4/3 143/4/3
f 145/1/4 146/1/4 148/1/4
f 146/1/4 147/1/4 148/1/4
f 148/1/4 147/1/4 149/1/4
f 149/1/4 147/1/4 150/1/4
f 151/4/4 152/4/4 154/4/4
f 153/4/4 154/4/4 155/4/4
f 154/4/4 152/4/4 156/4/4
f 155/4/4 154/4/4 156/4/4
f 156/4/4 152/4/4 157/4/4
f 157/4/4 152/4/4 158/4/4
f 159/4/4 160/4/4 161/4/4
f 161/4/4 160/4/4 162/4/4
f 163/4/4 164/4/4 165/4/4
f 165/4/4 164/4/4 166/4/4
f 167/4/4 168/4/4 169/4/4
f 169/4/4 168/4/4 170/4/4
f 171/4/4 172/4/4 173/4/4
f 173/4/4 172/4/4 174/4/4
f 175/4/4 176/4/4 177/4/4
f 177/4/4 176/4/4 178/4/4
f 179/4/4 180/4/4 181/4/4
f 181/4/4 180/4/4 182/4/4
f 183/4/4 184/4/4 185/4/4
f 185/4/4 184/4/4 186/4/4
f 187/4/4 188/4/4 189/4/4
f 189/4/4 188/4/4 190/4/4
f 191/4/4 192/4/4 193/4/4
f 193/4/4 192/4/4 194/4/4
f 195/4/4 196/4/4 197/4/4
f 197/4/4 196/4/4 198/4/4
f 203/4/5 200/4/5 199/4/5
f 204/4/5 200/4/5 203/4/5
f 205/4/5 202/4/5 201/4/5
f 206/4/5 202/4/5 205/4/5
f 207/4/5 200/4/5 204/4/5
f 207/3/5 204/3/5 203/3/5
f 208/4/5 200/4/5 207/4/5
f 209/4/5 205/4/5 201/4/5
f 210/3/5 206/3/5 205/3/5
f 210/4/5 205/4/5 209/4/5
f 211/4/5 203/4/5 199/4/5
f 211/3/5 209/3/5 208/3/5
f 211/3/5 210/3/5 209/3/5
f 211/3/5 208/3/5 207/3/5
f 211/3/5 207/3/5 203/3/5
f 212/4/5 202/4/5 206/4/5
f 212/3/5 210/3/5 211/3/5
f 212/3/5 206/3/5 210/3/5
f 213/4/5 211/4/5 199/4/5
f 213/4/5 212/4/5 211/4/5
f 214/4/5 212/4/5 213/4/5
f 215/4/5 212/4/5 214/4/5
f 216/4/5 212/4/5 215/4/5
f 217/4/5 212/4/5 216/4/5
f 218/4/5 212/4/5 217/4/5
f 219/4/5 212/4/5 218/4/5
f 220/4/5 202/4/5 212/4/5
f 220/4/5 212/4/5 219/4/5
f 221/4/5 213/4/5 199/4/5
f 222/4/5 213/4/5 221/4/5
f 223/4/5 202/4/5 220/4/5
f 224/4/5 202/4/5 223/4/5
f 225/4/5 215/4/5 214/4/5
f 226/4/5 215/4/5 225/4/5
f 227/4/5 219/4/5 218/4/5
f 228/4/5 219/4/5 227/4/5
f 229/4/5 217/4/5 216/4/5
f 230/4/5 217/4/5 229/4/5
f 233/2/5 232/2/5 231/2/5
f 234/2/5 232/2/5 233/2/5
f 239/4/5 236/4/5 235/4/5
f 240/4/5 236/4/5 239/4/5
f 241/4/5 238/4/5 237/4/5
f 242/4/5 238/4/5 241/4/5
f 243/4/6 244/4/6 247/4/6
f 247/4/6 244/4/6 248/4/6
f 245/4/6 246/4/6 249/4/6
f 249/4/6 246/4/6 250/4/6
f 243/4/6 247/4/6 251/4/6
f 250/4/6 246/4/6 252/4/6
f 243/4/6 251/4/6 253/4/6
f 251/4/6 252/4/6 253/4/6
f 253/4/6 252/4/6 254/4/6
f 254/4/6 252/4/6 255/4/6
f 255/4/6 252/4/6 256/4/6
f 256/4/6 252/4/6 257/4/6
f 257/4/6 252/4/6 258/4/6
f 258/4/6 252/4/6 259/4/6
f 252/4/6 246/4/6 260/4/6
f 259/4/6 252/4/6 260/4/6
f 243/4/6 253/4/6 261/4/6
f 261/4/6 253/4/6 262/4/6
f 260/4/6 246/4/6 263/4/6
f 263/4/6 246/4/6 264/4/6
f 254/4/6 255/4/6 265/4/6
f 265/4/6 255/4/6 266/4/6
f 258/4/6 259/4/6 267/4/6
f 267/4/6 259/4/6 268/4/6
f 256/4/6 257/4/6 269/4/6
f 269/4/6 257/4/6 270/4/6
f 271/4/6 272/4/6 275/4/6
f 275/4/6 272/4/6 276/4/6
f 276/4/6 272/4/6 277/4/6
f 273/4/6 274/4/6 278/4/6
f 278/4/6 274/4/6 279/4/6
f 279/4/6 274/4/6 280/4/6
f 271/4/6 275/4/6 281/4/6
f 280/4/6 274/4/6 282/4/6
f 271/4/6 281/4/6 283/4/6
f 281/4/6 282/4/6 283/4/6
f 282/4/6 274/4/6 284/4/6
f 283/4/6 282/4/6 284/4/6
f 285/3/6 286/3/6 287/3/6
f 287/3/6 286/3/6 288/3/6
f 289/4/6 290/4/6 293/4/6
f 291/4/6 292/4/6 294/4/6
f 289/4/6 293/4/6 295/4/6
f 294/4/6 292/4/6 296/4/6
f 289/4/6 295/4/6 297/4/6
f 295/4/6 296/4/6 297/4/6
f 296/4/6 292/4/6 298/4/6
f 297/4/6 296/4/6 298/4/6
f 299/2/6 300/2/6 303/2/6
f 300/1/6 301/1/6 304/1/6
f 303/2/6 300/2/6 304/2/6
f 301/2/6 302/2/6 305/2/6
f 304/1/6 301/1/6 305/1/6
f 305/2/6 302/2/6 306/2/6
f 303/1/6 304/1/6 307/1/6
f 304/1/6 305/1/6 307/1/6
f 305/1/6 306/1/6 307/1/6
f 307/1/6 306/1/6 308/1/6
