# MagicaVoxel @ Ephtracy

# group
o 

# material
mtllib amazon_action_0.mtl
usemtl palette

# normals
vn -1 0 0
vn 1 0 0
vn 0 0 1
vn 0 0 -1
vn 0 -1 0
vn 0 1 0

# texcoords
vt 0.791016 0.5
vt 0.814453 0.5
vt 0.822266 0.5
vt 0.912109 0.5
vt 0.939453 0.5
vt 0.943359 0.5

# verts
v -0.2 0.5 0.5
v -0.2 0.5 0.2
v -0.2 0.5 -0.4
v -0.2 0.5 -0.5
v -0.2 0.6 0.6
v -0.2 0.6 0.5
v -0.2 0.6 0.2
v -0.2 0.6 -0.4
v -0.2 0.6 -0.5
v -0.2 0.6 -0.8
v -0.2 0.7 0.6
v -0.2 0.7 0.2
v -0.2 0.7 0.1
v -0.2 0.7 -0.8
v -0.2 0.8 0.2
v -0.2 0.8 0.1
v -0.1 0.7 0.1
v -0.1 0.7 -0.4
v -0.1 0.8 0.1
v -0.1 0.8 0
v -0.1 0.8 -0.3
v -0.1 0.9 0.1
v -0.1 0.9 0
v -0.1 0.9 -0.3
v -0.1 0.9 -0.4
v 2.98023e-08 0 -0.2
v 2.98023e-08 0 -0.3
v 2.98023e-08 0.1 -0.1
v 2.98023e-08 0.1 -0.2
v 2.98023e-08 0.1 -0.3
v 2.98023e-08 0.3 0.1
v 2.98023e-08 0.3 -0.1
v 2.98023e-08 0.3 -0.2
v 2.98023e-08 0.3 -0.4
v 2.98023e-08 0.5 0.1
v 2.98023e-08 0.5 0
v 2.98023e-08 0.5 -0.3
v 2.98023e-08 0.5 -0.4
v 2.98023e-08 0.6 0
v 2.98023e-08 0.6 -0.3
v 2.98023e-08 0.6 -0.4
v 2.98023e-08 0.6 -0.5
v 2.98023e-08 0.8 0.2
v 2.98023e-08 0.8 0.1
v 2.98023e-08 0.9 0.1
v 2.98023e-08 0.9 0
v 2.98023e-08 0.9 -0.2
v 2.98023e-08 0.9 -0.3
v 2.98023e-08 0.9 -0.4
v 2.98023e-08 0.9 -0.5
v 2.98023e-08 1 0.2
v 2.98023e-08 1 0.1
v 2.98023e-08 1 -0.1
v 2.98023e-08 1 -0.2
v 2.98023e-08 1.1 0
v 2.98023e-08 1.1 -0.1
v 2.98023e-08 1.1 -0.3
v 0.1 0.1 0.2
v 0.1 0.1 0
v 0.1 0.1 -0.2
v 0.1 0.1 -0.3
v 0.1 0.2 0.2
v 0.1 0.2 0.1
v 0.1 0.2 -0.3
v 0.1 0.2 -0.4
v 0.1 0.3 0.1
v 0.1 0.3 0
v 0.1 0.3 -0.2
v 0.1 0.3 -0.3
v 0.1 0.3 -0.4
v 0.1 0.9 -0.3
v 0.1 0.9 -0.4
v 0.1 1.1 0
v 0.1 1.1 -0.1
v 0.1 1.1 -0.3
v 0.1 1.2 0
v 0.1 1.2 -0.4
v 0.2 0.2 0
v 0.2 0.2 -0.1
v 0.2 0.3 0
v 0.2 0.3 -0.1
v -0.1 0.5 0.5
v -0.1 0.5 0.2
v -0.1 0.6 0.6
v -0.1 0.6 0.5
v -0.1 0.6 0.2
v -0.1 0.6 0.1
v -0.1 0.6 -0.4
v -0.1 0.6 -0.5
v -0.1 0.6 -0.8
v -0.1 0.7 0.6
v -0.1 0.7 0.2
v -0.1 0.7 0.1
v -0.1 0.7 -0.4
v -0.1 0.7 -0.8
v 0.1 0.5 -0.4
v 0.1 0.5 -0.5
v 0.1 0.6 -0.4
v 0.1 0.7 -0.4
v 0.1 0.7 -0.5
v 0.2 0 -0.2
v 0.2 0 -0.3
v 0.2 0.1 0.2
v 0.2 0.1 0
v 0.2 0.1 -0.2
v 0.2 0.2 0.2
v 0.2 0.2 0.1
v 0.2 0.2 0
v 0.2 0.2 -0.2
v 0.2 0.2 -0.3
v 0.2 0.7 0.2
v 0.2 0.7 0.1
v 0.2 0.7 -0.4
v 0.2 0.7 -0.5
v 0.2 0.9 0.1
v 0.2 0.9 -0.4
v 0.2 0.9 -0.5
v 0.2 1 0.2
v 0.2 1 0.1
v 0.3 0.1 -0.1
v 0.3 0.1 -0.2
v 0.3 0.2 0.1
v 0.3 0.2 -0.1
v 0.3 0.2 -0.2
v 0.3 0.2 -0.4
v 0.3 0.5 0.1
v 0.3 0.5 0
v 0.3 0.5 -0.3
v 0.3 0.5 -0.4
v 0.3 0.6 0.1
v 0.3 0.6 0
v 0.3 0.6 -0.1
v 0.3 0.6 -0.2
v 0.3 0.6 -0.3
v 0.3 0.6 -0.4
v 0.3 0.7 0
v 0.3 0.7 -0.1
v 0.3 0.7 -0.2
v 0.3 0.7 -0.3
v 0.3 0.8 -0.3
v 0.3 0.8 -0.4
v 0.3 0.9 0.1
v 0.3 0.9 0
v 0.4 0.6 -0.1
v 0.4 0.6 -0.2
v 0.4 0.7 0
v 0.4 0.7 -0.1
v 0.4 0.7 -0.2
v 0.4 0.7 -0.3
v 0.4 0.8 -0.3
v 0.4 0.8 -0.4
v 0.4 1.2 0
v 0.4 1.2 -0.4
v -0.2 0.6 0.6
v -0.2 0.7 0.6
v -0.1 0.6 0.6
v -0.1 0.7 0.6
v -0.2 0.5 0.5
v -0.2 0.6 0.5
v -0.1 0.5 0.5
v -0.1 0.6 0.5
v -0.2 0.7 0.2
v -0.2 0.8 0.2
v -0.1 0.7 0.2
v -0.1 0.8 0.2
v 2.98023e-08 0.7 0.2
v 2.98023e-08 0.8 0.2
v 2.98023e-08 1 0.2
v 0.1 0.1 0.2
v 0.1 0.2 0.2
v 0.2 0.1 0.2
v 0.2 0.2 0.2
v 0.2 0.7 0.2
v 0.2 1 0.2
v -0.1 0.6 0.1
v -0.1 0.7 0.1
v -0.1 0.8 0.1
v -0.1 0.9 0.1
v 2.98023e-08 0.3 0.1
v 2.98023e-08 0.5 0.1
v 2.98023e-08 0.7 0.1
v 2.98023e-08 0.8 0.1
v 2.98023e-08 0.9 0.1
v 0.1 0.2 0.1
v 0.1 0.3 0.1
v 0.2 0.2 0.1
v 0.2 0.3 0.1
v 0.2 0.7 0.1
v 0.2 0.9 0.1
v 0.3 0.2 0.1
v 0.3 0.5 0.1
v 0.3 0.6 0.1
v 0.3 0.9 0.1
v 2.98023e-08 0.5 0
v 2.98023e-08 0.6 0
v 2.98023e-08 0.9 0
v 2.98023e-08 1.1 0
v 0.1 1.1 0
v 0.1 1.2 0
v 0.3 0.5 0
v 0.3 0.6 0
v 0.3 0.7 0
v 0.3 0.9 0
v 0.3 1.1 0
v 0.4 0.7 0
v 0.4 1.2 0
v 2.98023e-08 0.1 -0.1
v 2.98023e-08 0.3 -0.1
v 0.1 0.3 -0.1
v 0.2 0.2 -0.1
v 0.2 0.3 -0.1
v 0.3 0.1 -0.1
v 0.3 0.2 -0.1
v 0.3 0.6 -0.1
v 0.3 0.7 -0.1
v 0.4 0.6 -0.1
v 0.4 0.7 -0.1
v 2.98023e-08 0 -0.2
v 2.98023e-08 0.1 -0.2
v 0.2 0 -0.2
v 0.2 0.1 -0.2
v -0.2 0.5 -0.4
v -0.2 0.6 -0.4
v -0.1 0.5 -0.4
v -0.1 0.6 -0.4
v 2.98023e-08 0.5 -0.4
v 2.98023e-08 0.6 -0.4
v 0.1 0.5 -0.4
v 0.1 0.6 -0.4
v -0.2 0.5 0.2
v -0.2 0.6 0.2
v -0.1 0.5 0.2
v -0.1 0.6 0.2
v -0.2 0.7 0.1
v -0.2 0.8 0.1
v -0.1 0.7 0.1
v -0.1 0.8 0.1
v 2.98023e-08 0.9 0.1
v 2.98023e-08 1 0.1
v 0.2 0.9 0.1
v 0.2 1 0.1
v 0.1 0.1 0
v 0.1 0.3 0
v 0.2 0.1 0
v 0.2 0.2 0
v 0.2 0.3 0
v 2.98023e-08 0.1 -0.2
v 2.98023e-08 0.3 -0.2
v 0.1 0.1 -0.2
v 0.1 0.3 -0.2
v 0.2 0.1 -0.2
v 0.2 0.2 -0.2
v 0.3 0.1 -0.2
v 0.3 0.2 -0.2
v 0.3 0.6 -0.2
v 0.3 0.7 -0.2
v 0.4 0.6 -0.2
v 0.4 0.7 -0.2
v 2.98023e-08 0 -0.3
v 2.98023e-08 0.1 -0.3
v 2.98023e-08 0.5 -0.3
v 2.98023e-08 0.6 -0.3
v 2.98023e-08 0.9 -0.3
v 2.98023e-08 1.1 -0.3
v 0.1 0.1 -0.3
v 0.1 0.2 -0.3
v 0.1 0.9 -0.3
v 0.1 1.1 -0.3
v 0.2 0 -0.3
v 0.2 0.2 -0.3
v 0.3 0.5 -0.3
v 0.3 0.6 -0.3
v 0.3 0.7 -0.3
v 0.3 0.8 -0.3
v 0.4 0.7 -0.3
v 0.4 0.8 -0.3
v -0.1 0.6 -0.4
v -0.1 0.7 -0.4
v -0.1 0.9 -0.4
v 2.98023e-08 0.3 -0.4
v 2.98023e-08 0.5 -0.4
v 2.98023e-08 0.6 -0.4
v 2.98023e-08 0.9 -0.4
v 0.1 0.2 -0.4
v 0.1 0.3 -0.4
v 0.1 0.5 -0.4
v 0.1 0.6 -0.4
v 0.1 0.7 -0.4
v 0.1 0.9 -0.4
v 0.1 1.2 -0.4
v 0.2 0.7 -0.4
v 0.2 0.9 -0.4
v 0.3 0.2 -0.4
v 0.3 0.5 -0.4
v 0.3 0.6 -0.4
v 0.3 0.8 -0.4
v 0.3 0.9 -0.4
v 0.4 0.8 -0.4
v 0.4 1.2 -0.4
v -0.2 0.5 -0.5
v -0.2 0.6 -0.5
v -0.1 0.5 -0.5
v -0.1 0.6 -0.5
v 2.98023e-08 0.5 -0.5
v 2.98023e-08 0.6 -0.5
v 2.98023e-08 0.9 -0.5
v 0.1 0.5 -0.5
v 0.1 0.7 -0.5
v 0.2 0.7 -0.5
v 0.2 0.9 -0.5
v -0.2 0.6 -0.8
v -0.2 0.7 -0.8
v -0.1 0.6 -0.8
v -0.1 0.7 -0.8
v 2.98023e-08 0 -0.2
v 0.2 0 -0.2
v 2.98023e-08 0 -0.3
v 0.2 0 -0.3
v 0.1 0.1 0.2
v 0.2 0.1 0.2
v 0.1 0.1 0
v 0.2 0.1 0
v 2.98023e-08 0.1 -0.1
v 0.3 0.1 -0.1
v 2.98023e-08 0.1 -0.2
v 0.2 0.1 -0.2
v 0.3 0.1 -0.2
v 0.2 0.2 0.1
v 0.3 0.2 0.1
v 0.2 0.2 0
v 0.2 0.2 -0.1
v 0.3 0.2 -0.1
v 0.2 0.2 -0.2
v 0.3 0.2 -0.2
v 0.1 0.2 -0.3
v 0.2 0.2 -0.3
v 0.1 0.2 -0.4
v 0.3 0.2 -0.4
v 2.98023e-08 0.3 0.1
v 0.1 0.3 0.1
v 0.1 0.3 0
v 0.2 0.3 0
v 2.98023e-08 0.3 -0.1
v 0.1 0.3 -0.1
v 0.2 0.3 -0.1
v 2.98023e-08 0.3 -0.2
v 0.1 0.3 -0.2
v 0.1 0.3 -0.3
v 2.98023e-08 0.3 -0.4
v 0.1 0.3 -0.4
v -0.2 0.5 0.5
v -0.1 0.5 0.5
v -0.2 0.5 0.2
v -0.1 0.5 0.2
v -0.2 0.5 -0.4
v -0.1 0.5 -0.4
v 2.98023e-08 0.5 -0.4
v 0.1 0.5 -0.4
v -0.2 0.5 -0.5
v -0.1 0.5 -0.5
v 2.98023e-08 0.5 -0.5
v 0.1 0.5 -0.5
v -0.2 0.6 0.6
v -0.1 0.6 0.6
v -0.2 0.6 0.5
v -0.1 0.6 0.5
v -0.2 0.6 0.2
v -0.1 0.6 0.2
v -0.1 0.6 0.1
v 0.3 0.6 0.1
v 2.98023e-08 0.6 0
v 0.3 0.6 0
v 0.3 0.6 -0.1
v 0.4 0.6 -0.1
v 0.3 0.6 -0.2
v 0.4 0.6 -0.2
v 2.98023e-08 0.6 -0.3
v 0.3 0.6 -0.3
v -0.2 0.6 -0.4
v -0.1 0.6 -0.4
v 2.98023e-08 0.6 -0.4
v 0.1 0.6 -0.4
v 0.3 0.6 -0.4
v -0.2 0.6 -0.5
v -0.1 0.6 -0.5
v -0.2 0.6 -0.8
v -0.1 0.6 -0.8
v -0.1 0.7 0.2
v 2.98023e-08 0.7 0.2
v 0.2 0.7 0.2
v -0.1 0.7 0.1
v 2.98023e-08 0.7 0.1
v 0.2 0.7 0.1
v 0.3 0.7 0
v 0.4 0.7 0
v 0.3 0.7 -0.1
v 0.4 0.7 -0.1
v 0.3 0.7 -0.2
v 0.4 0.7 -0.2
v 0.3 0.7 -0.3
v 0.4 0.7 -0.3
v 0.1 0.7 -0.4
v 0.2 0.7 -0.4
v 0.1 0.7 -0.5
v 0.2 0.7 -0.5
v 0.3 0.8 -0.3
v 0.4 0.8 -0.3
v 0.3 0.8 -0.4
v 0.4 0.8 -0.4
v 2.98023e-08 0.1 -0.2
v 0.1 0.1 -0.2
v 2.98023e-08 0.1 -0.3
v 0.1 0.1 -0.3
v 0.1 0.2 0.2
v 0.2 0.2 0.2
v 0.1 0.2 0.1
v 0.2 0.2 0.1
v 2.98023e-08 0.5 0.1
v 0.3 0.5 0.1
v 2.98023e-08 0.5 0
v 0.3 0.5 0
v 2.98023e-08 0.5 -0.3
v 0.3 0.5 -0.3
v 2.98023e-08 0.5 -0.4
v 0.1 0.5 -0.4
v 0.3 0.5 -0.4
v -0.1 0.6 -0.4
v 2.98023e-08 0.6 -0.4
v -0.1 0.6 -0.5
v 2.98023e-08 0.6 -0.5
v -0.2 0.7 0.6
v -0.1 0.7 0.6
v -0.2 0.7 0.2
v -0.1 0.7 0.2
v -0.2 0.7 0.1
v -0.1 0.7 0.1
v -0.1 0.7 -0.4
v -0.2 0.7 -0.8
v -0.1 0.7 -0.8
v -0.2 0.8 0.2
v -0.1 0.8 0.2
v 2.98023e-08 0.8 0.2
v -0.2 0.8 0.1
v -0.1 0.8 0.1
v 2.98023e-08 0.8 0.1
v -0.1 0.9 0.1
v 2.98023e-08 0.9 0.1
v 0.2 0.9 0.1
v 0.3 0.9 0.1
v -0.1 0.9 0
v 2.98023e-08 0.9 0
v 0.3 0.9 0
v 2.98023e-08 0.9 -0.2
v -0.1 0.9 -0.3
v 2.98023e-08 0.9 -0.3
v 0.1 0.9 -0.3
v -0.1 0.9 -0.4
v 2.98023e-08 0.9 -0.4
v 0.1 0.9 -0.4
v 0.2 0.9 -0.4
v 2.98023e-08 0.9 -0.5
v 0.2 0.9 -0.5
v 2.98023e-08 1 0.2
v 0.2 1 0.2
v 2.98023e-08 1 0.1
v 0.2 1 0.1
v 2.98023e-08 1.1 0
v 0.1 1.1 0
v 2.98023e-08 1.1 -0.1
v 0.1 1.1 -0.1
v 2.98023e-08 1.1 -0.3
v 0.1 1.1 -0.3
v 0.1 1.2 0
v 0.4 1.2 0
v 0.1 1.2 -0.4
v 0.4 1.2 -0.4

# faces
f 6/1/1 2/1/1 1/1/1
f 7/1/1 2/1/1 6/1/1
f 8/5/1 4/5/1 3/5/1
f 9/5/1 4/5/1 8/5/1
f 11/6/1 7/6/1 6/6/1
f 11/6/1 6/6/1 5/6/1
f 12/2/1 10/2/1 9/2/1
f 12/6/1 7/6/1 11/6/1
f 12/2/1 9/2/1 8/2/1
f 12/2/1 8/2/1 7/2/1
f 13/2/1 10/2/1 12/2/1
f 14/2/1 10/2/1 13/2/1
f 15/5/1 13/5/1 12/5/1
f 16/5/1 13/5/1 15/5/1
f 19/4/1 18/4/1 17/4/1
f 20/4/1 18/4/1 19/4/1
f 21/4/1 18/4/1 20/4/1
f 22/4/1 20/4/1 19/4/1
f 23/5/1 21/5/1 20/5/1
f 23/4/1 20/4/1 22/4/1
f 24/4/1 18/4/1 21/4/1
f 24/5/1 21/5/1 23/5/1
f 25/4/1 18/4/1 24/4/1
f 29/5/1 27/5/1 26/5/1
f 30/5/1 27/5/1 29/5/1
f 32/4/1 29/4/1 28/4/1
f 33/4/1 29/4/1 32/4/1
f 35/4/1 33/4/1 32/4/1
f 35/4/1 34/4/1 33/4/1
f 35/4/1 32/4/1 31/4/1
f 36/4/1 34/4/1 35/4/1
f 37/4/1 34/4/1 36/4/1
f 38/4/1 34/4/1 37/4/1
f 39/5/1 37/5/1 36/5/1
f 40/5/1 37/5/1 39/5/1
f 45/5/1 44/5/1 43/5/1
f 49/5/1 42/5/1 41/5/1
f 50/5/1 42/5/1 49/5/1
f 51/5/1 45/5/1 43/5/1
f 52/5/1 45/5/1 51/5/1
f 53/5/1 47/5/1 46/5/1
f 54/3/1 48/3/1 47/3/1
f 54/5/1 47/5/1 53/5/1
f 55/5/1 53/5/1 46/5/1
f 56/3/1 54/3/1 53/3/1
f 56/5/1 53/5/1 55/5/1
f 57/3/1 48/3/1 54/3/1
f 57/3/1 54/3/1 56/3/1
f 62/5/1 59/5/1 58/5/1
f 63/5/1 59/5/1 62/5/1
f 64/5/1 61/5/1 60/5/1
f 66/5/1 59/5/1 63/5/1
f 67/5/1 59/5/1 66/5/1
f 68/5/1 64/5/1 60/5/1
f 69/4/1 65/4/1 64/4/1
f 69/5/1 64/5/1 68/5/1
f 70/4/1 65/4/1 69/4/1
f 75/2/1 72/2/1 71/2/1
f 76/2/1 74/2/1 73/2/1
f 76/2/1 75/2/1 74/2/1
f 77/2/1 72/2/1 75/2/1
f 77/2/1 75/2/1 76/2/1
f 80/4/1 79/4/1 78/4/1
f 81/4/1 79/4/1 80/4/1
f 82/1/2 83/1/2 85/1/2
f 85/1/2 83/1/2 86/1/2
f 84/6/2 85/6/2 91/6/2
f 85/6/2 86/6/2 91/6/2
f 86/2/2 87/2/2 92/2/2
f 91/6/2 86/6/2 92/6/2
f 92/2/2 87/2/2 93/2/2
f 89/2/2 90/2/2 94/2/2
f 88/2/2 89/2/2 94/2/2
f 94/2/2 90/2/2 95/2/2
f 96/5/2 97/5/2 98/5/2
f 98/5/2 97/5/2 99/5/2
f 99/5/2 97/5/2 100/5/2
f 101/5/2 102/5/2 105/5/2
f 103/5/2 104/5/2 106/5/2
f 106/5/2 104/5/2 107/5/2
f 107/5/2 104/5/2 108/5/2
f 105/5/2 102/5/2 109/5/2
f 109/5/2 102/5/2 110/5/2
f 111/5/2 112/5/2 115/5/2
f 113/5/2 114/5/2 116/5/2
f 116/5/2 114/5/2 117/5/2
f 111/5/2 115/5/2 118/5/2
f 118/5/2 115/5/2 119/5/2
f 120/4/2 121/4/2 123/4/2
f 123/4/2 121/4/2 124/4/2
f 122/4/2 123/4/2 126/4/2
f 124/4/2 125/4/2 126/4/2
f 123/4/2 124/4/2 126/4/2
f 126/4/2 125/4/2 127/4/2
f 127/4/2 125/4/2 128/4/2
f 128/4/2 125/4/2 129/4/2
f 127/5/2 128/5/2 131/5/2
f 131/5/2 128/5/2 132/5/2
f 132/5/2 128/5/2 133/5/2
f 133/5/2 128/5/2 134/5/2
f 130/4/2 131/4/2 136/4/2
f 131/4/2 132/4/2 136/4/2
f 136/4/2 132/4/2 137/4/2
f 134/4/2 135/4/2 138/4/2
f 133/4/2 134/4/2 138/4/2
f 138/4/2 135/4/2 139/4/2
f 139/4/2 135/4/2 140/4/2
f 140/4/2 135/4/2 141/4/2
f 130/4/2 136/4/2 142/4/2
f 142/4/2 136/4/2 143/4/2
f 144/2/2 145/2/2 147/2/2
f 147/2/2 145/2/2 148/2/2
f 146/2/2 147/2/2 150/2/2
f 148/2/2 149/2/2 150/2/2
f 147/2/2 148/2/2 150/2/2
f 146/2/2 150/2/2 152/2/2
f 150/2/2 151/2/2 152/2/2
f 152/2/2 151/2/2 153/2/2
f 156/6/3 155/6/3 154/6/3
f 157/6/3 155/6/3 156/6/3
f 160/1/3 159/1/3 158/1/3
f 161/1/3 159/1/3 160/1/3
f 164/5/3 163/5/3 162/5/3
f 165/5/3 163/5/3 164/5/3
f 166/4/3 165/4/3 164/4/3
f 167/4/3 165/4/3 166/4/3
f 171/5/3 170/5/3 169/5/3
f 172/5/3 170/5/3 171/5/3
f 173/5/3 167/5/3 166/5/3
f 173/5/3 168/5/3 167/5/3
f 174/5/3 168/5/3 173/5/3
f 181/4/3 176/4/3 175/4/3
f 182/4/3 178/4/3 177/4/3
f 183/4/3 178/4/3 182/4/3
f 185/4/3 180/4/3 179/4/3
f 186/5/3 185/5/3 184/5/3
f 187/4/3 180/4/3 185/4/3
f 187/5/3 185/5/3 186/5/3
f 188/4/3 181/4/3 175/4/3
f 190/4/3 187/4/3 186/4/3
f 191/4/3 180/4/3 187/4/3
f 191/4/3 187/4/3 190/4/3
f 192/4/3 189/4/3 188/4/3
f 192/4/3 188/4/3 175/4/3
f 193/4/3 189/4/3 192/4/3
f 198/5/3 197/5/3 196/5/3
f 200/5/3 195/5/3 194/5/3
f 201/5/3 195/5/3 200/5/3
f 203/5/3 198/5/3 196/5/3
f 204/2/3 199/2/3 198/2/3
f 204/5/3 198/5/3 203/5/3
f 205/2/3 203/2/3 202/2/3
f 205/2/3 204/2/3 203/2/3
f 206/2/3 199/2/3 204/2/3
f 206/2/3 204/2/3 205/2/3
f 209/4/3 208/4/3 207/4/3
f 210/4/3 209/4/3 207/4/3
f 211/4/3 209/4/3 210/4/3
f 212/4/3 210/4/3 207/4/3
f 213/4/3 210/4/3 212/4/3
f 216/2/3 215/2/3 214/2/3
f 217/2/3 215/2/3 216/2/3
f 220/5/3 219/5/3 218/5/3
f 221/5/3 219/5/3 220/5/3
f 224/5/3 223/5/3 222/5/3
f 225/5/3 223/5/3 224/5/3
f 226/4/3 225/4/3 224/4/3
f 227/4/3 225/4/3 226/4/3
f 228/5/3 227/5/3 226/5/3
f 229/5/3 227/5/3 228/5/3
f 230/1/4 231/1/4 232/1/4
f 232/1/4 231/1/4 233/1/4
f 234/5/4 235/5/4 236/5/4
f 236/5/4 235/5/4 237/5/4
f 238/5/4 239/5/4 240/5/4
f 240/5/4 239/5/4 241/5/4
f 242/5/4 243/5/4 244/5/4
f 244/5/4 243/5/4 245/5/4
f 245/5/4 243/5/4 246/5/4
f 247/4/4 248/4/4 249/4/4
f 249/4/4 248/4/4 250/4/4
f 251/4/4 252/4/4 253/4/4
f 253/4/4 252/4/4 254/4/4
f 255/2/4 256/2/4 257/2/4
f 257/2/4 256/2/4 258/2/4
f 259/5/4 260/5/4 265/5/4
f 263/3/4 264/3/4 267/3/4
f 267/3/4 264/3/4 268/3/4
f 265/5/4 266/5/4 269/5/4
f 259/5/4 265/5/4 269/5/4
f 269/5/4 266/5/4 270/5/4
f 261/5/4 262/5/4 271/5/4
f 271/5/4 262/5/4 272/5/4
f 273/2/4 274/2/4 275/2/4
f 275/2/4 274/2/4 276/2/4
f 277/4/4 278/4/4 282/4/4
f 278/4/4 279/4/4 282/4/4
f 282/4/4 279/4/4 283/4/4
f 280/4/4 281/4/4 285/4/4
f 285/4/4 281/4/4 286/4/4
f 287/4/4 288/4/4 291/4/4
f 289/2/4 290/2/4 292/2/4
f 284/4/4 285/4/4 293/4/4
f 285/4/4 286/4/4 293/4/4
f 293/4/4 286/4/4 294/4/4
f 287/4/4 291/4/4 295/4/4
f 291/4/4 292/4/4 295/4/4
f 295/4/4 292/4/4 296/4/4
f 292/2/4 290/2/4 297/2/4
f 296/4/4 292/4/4 297/4/4
f 296/2/4 297/2/4 298/2/4
f 297/2/4 290/2/4 299/2/4
f 298/2/4 297/2/4 299/2/4
f 300/5/4 301/5/4 302/5/4
f 302/5/4 301/5/4 303/5/4
f 302/4/4 303/4/4 304/4/4
f 304/4/4 303/4/4 305/4/4
f 304/5/4 305/5/4 307/5/4
f 305/5/4 306/5/4 307/5/4
f 307/5/4 306/5/4 308/5/4
f 308/5/4 306/5/4 309/5/4
f 309/5/4 306/5/4 310/5/4
f 311/2/4 312/2/4 313/2/4
f 313/2/4 312/2/4 314/2/4
f 317/5/5 316/5/5 315/5/5
f 318/5/5 316/5/5 317/5/5
f 321/5/5 320/5/5 319/5/5
f 322/5/5 320/5/5 321/5/5
f 325/4/5 324/4/5 323/4/5
f 326/4/5 324/4/5 325/4/5
f 327/4/5 324/4/5 326/4/5
f 330/4/5 329/4/5 328/4/5
f 331/4/5 329/4/5 330/4/5
f 332/4/5 329/4/5 331/4/5
f 336/4/5 334/4/5 333/4/5
f 337/4/5 336/4/5 335/4/5
f 338/4/5 334/4/5 336/4/5
f 338/4/5 336/4/5 337/4/5
f 341/4/5 340/4/5 339/4/5
f 343/4/5 341/4/5 339/4/5
f 344/5/5 342/5/5 341/5/5
f 344/4/5 341/4/5 343/4/5
f 345/5/5 342/5/5 344/5/5
f 348/4/5 347/4/5 346/4/5
f 349/4/5 348/4/5 346/4/5
f 350/4/5 348/4/5 349/4/5
f 353/1/5 352/1/5 351/1/5
f 354/1/5 352/1/5 353/1/5
f 359/5/5 356/5/5 355/5/5
f 360/4/5 357/4/5 356/4/5
f 360/5/5 356/5/5 359/5/5
f 361/5/5 358/5/5 357/5/5
f 361/4/5 357/4/5 360/4/5
f 362/5/5 358/5/5 361/5/5
f 365/6/5 364/6/5 363/6/5
f 366/6/5 364/6/5 365/6/5
f 369/2/5 368/2/5 367/2/5
f 371/4/5 370/4/5 369/4/5
f 372/4/5 370/4/5 371/4/5
f 375/2/5 374/2/5 373/2/5
f 376/2/5 374/2/5 375/2/5
f 377/4/5 371/4/5 369/4/5
f 379/2/5 369/2/5 367/2/5
f 380/4/5 378/4/5 377/4/5
f 380/2/5 369/2/5 379/2/5
f 380/4/5 377/4/5 369/4/5
f 381/4/5 378/4/5 380/4/5
f 382/4/5 378/4/5 381/4/5
f 383/4/5 378/4/5 382/4/5
f 386/2/5 385/2/5 384/2/5
f 387/2/5 385/2/5 386/2/5
f 391/4/5 389/4/5 388/4/5
f 392/5/5 390/5/5 389/5/5
f 392/4/5 389/4/5 391/4/5
f 393/5/5 390/5/5 392/5/5
f 396/2/5 395/2/5 394/2/5
f 397/2/5 395/2/5 396/2/5
f 400/2/5 399/2/5 398/2/5
f 401/2/5 399/2/5 400/2/5
f 404/5/5 403/5/5 402/5/5
f 405/5/5 403/5/5 404/5/5
f 408/2/5 407/2/5 406/2/5
f 409/2/5 407/2/5 408/2/5
f 410/5/6 411/5/6 412/5/6
f 412/5/6 411/5/6 413/5/6
f 414/5/6 415/5/6 416/5/6
f 416/5/6 415/5/6 417/5/6
f 418/4/6 419/4/6 420/4/6
f 420/4/6 419/4/6 421/4/6
f 422/4/6 423/4/6 424/4/6
f 424/4/6 423/4/6 425/4/6
f 425/4/6 423/4/6 426/4/6
f 427/4/6 428/4/6 429/4/6
f 429/4/6 428/4/6 430/4/6
f 431/6/6 432/6/6 433/6/6
f 433/6/6 432/6/6 434/6/6
f 435/2/6 436/2/6 437/2/6
f 435/2/6 437/2/6 438/2/6
f 438/2/6 437/2/6 439/2/6
f 440/5/6 441/5/6 443/5/6
f 441/4/6 442/4/6 444/4/6
f 443/5/6 441/5/6 444/5/6
f 444/4/6 442/4/6 445/4/6
f 446/4/6 447/4/6 450/4/6
f 448/4/6 449/4/6 450/4/6
f 447/4/6 448/4/6 450/4/6
f 450/4/6 449/4/6 451/4/6
f 451/4/6 449/4/6 452/4/6
f 450/5/6 451/5/6 453/5/6
f 450/5/6 453/5/6 454/5/6
f 454/5/6 453/5/6 455/5/6
f 454/4/6 455/4/6 457/4/6
f 455/4/6 456/4/6 457/4/6
f 457/4/6 456/4/6 458/4/6
f 458/4/6 456/4/6 459/4/6
f 459/5/6 460/5/6 461/5/6
f 458/5/6 459/5/6 461/5/6
f 461/5/6 460/5/6 462/5/6
f 463/5/6 464/5/6 465/5/6
f 465/5/6 464/5/6 466/5/6
f 467/5/6 468/5/6 469/5/6
f 469/5/6 468/5/6 470/5/6
f 469/3/6 470/3/6 471/3/6
f 471/3/6 470/3/6 472/3/6
f 473/2/6 474/2/6 475/2/6
f 475/2/6 474/2/6 476/2/6
