# MagicaVoxel @ Ephtracy

# group
o 

# material
mtllib amazon_walk_1.mtl
usemtl palette

# normals
vn -1 0 0
vn 1 0 0
vn 0 0 1
vn 0 0 -1
vn 0 -1 0
vn 0 1 0

# texcoords
vt 0.791016 0.5
vt 0.814453 0.5
vt 0.822266 0.5
vt 0.912109 0.5
vt 0.939453 0.5
vt 0.943359 0.5

# verts
v -0.2 0.2 0.6
v -0.2 0.2 0.3
v -0.2 0.3 0.7
v -0.2 0.3 0.6
v -0.2 0.3 0.3
v -0.2 0.3 0
v -0.2 0.3 -0.1
v -0.2 0.3 -0.7
v -0.2 0.4 0.7
v -0.2 0.4 0.3
v -0.2 0.4 0
v -0.2 0.4 -0.1
v -0.2 0.4 -0.7
v -0.2 0.5 0
v -0.2 0.5 -0.1
v -0.2 0.6 0.1
v -0.2 0.6 0
v -0.2 0.8 0.1
v -0.2 0.8 -0.1
v -0.1 0.2 0
v -0.1 0.2 -0.2
v -0.1 0.3 0
v -0.1 0.3 -0.1
v -0.1 0.3 -0.2
v -0.1 0.5 0.2
v -0.1 0.5 0
v -0.1 0.5 -0.1
v -0.1 0.5 -0.2
v -0.1 0.6 0.1
v -0.1 0.6 0
v -0.1 0.8 0.2
v -0.1 0.8 0.1
v -0.1 0.8 -0.1
v -0.1 0.8 -0.2
v 2.98023e-08 0 0
v 2.98023e-08 0 -0.2
v 2.98023e-08 0.1 0
v 2.98023e-08 0.1 -0.1
v 2.98023e-08 0.2 -0.1
v 2.98023e-08 0.2 -0.2
v 2.98023e-08 0.4 0.1
v 2.98023e-08 0.4 -0.2
v 2.98023e-08 0.5 0.1
v 2.98023e-08 0.5 -0.2
v 2.98023e-08 0.8 0.1
v 2.98023e-08 0.8 -0.1
v 2.98023e-08 0.8 -0.2
v 2.98023e-08 0.9 0
v 2.98023e-08 0.9 -0.1
v 2.98023e-08 1 0.1
v 2.98023e-08 1 0
v 2.98023e-08 1 -0.2
v 0.1 0.1 0.1
v 0.1 0.1 0
v 0.1 0.1 -0.1
v 0.1 0.3 0.1
v 0.1 0.3 -0.1
v 0.1 0.8 -0.2
v 0.1 0.8 -0.3
v 0.1 1 0.1
v 0.1 1 0
v 0.1 1 -0.2
v 0.1 1.1 0.1
v 0.1 1.1 -0.3
v 0.2 0.1 0.2
v 0.2 0.1 0.1
v 0.2 0.2 0.2
v 0.2 0.2 0.1
v 0.3 0.6 0.3
v 0.3 0.6 0.2
v 0.3 0.7 0.2
v 0.3 0.7 -0.2
v 0.3 0.7 -0.3
v 0.3 0.8 0.2
v 0.3 0.8 0.1
v 0.3 0.8 -0.2
v 0.3 0.8 -0.3
v 0.3 0.9 0.3
v 0.3 0.9 0.1
v 0.4 0.4 0
v 0.4 0.4 -0.1
v 0.4 0.5 0
v 0.4 0.5 -0.1
v -0.1 0.2 0.6
v -0.1 0.2 0.3
v -0.1 0.3 0.7
v -0.1 0.3 0.6
v -0.1 0.3 0.3
v -0.1 0.3 0.1
v -0.1 0.3 -0.2
v -0.1 0.3 -0.7
v -0.1 0.4 0.7
v -0.1 0.4 0.3
v -0.1 0.4 0.1
v -0.1 0.4 0
v -0.1 0.4 -0.1
v -0.1 0.4 -0.2
v -0.1 0.4 -0.7
v -0.1 0.5 0
v -0.1 0.5 -0.1
v 2.98023e-08 0.2 0
v 2.98023e-08 0.2 -0.1
v 2.98023e-08 0.3 0
v 2.98023e-08 0.3 -0.1
v 0.1 0 0
v 0.1 0 -0.2
v 0.1 0.1 0
v 0.1 0.1 -0.2
v 0.2 0.1 0
v 0.2 0.1 -0.2
v 0.2 0.2 0
v 0.2 0.2 -0.1
v 0.2 0.2 -0.2
v 0.3 0.1 0.2
v 0.3 0.1 0
v 0.3 0.2 0.2
v 0.3 0.2 0.1
v 0.3 0.2 0
v 0.3 0.3 0.1
v 0.3 0.3 0
v 0.3 0.4 0.1
v 0.3 0.4 -0.2
v 0.3 0.5 0.1
v 0.3 0.5 -0.2
v 0.4 0.2 -0.1
v 0.4 0.2 -0.2
v 0.4 0.3 0.1
v 0.4 0.3 0
v 0.4 0.3 -0.1
v 0.4 0.4 0.1
v 0.4 0.4 0
v 0.4 0.4 -0.1
v 0.4 0.4 -0.2
v 0.4 0.5 0.2
v 0.4 0.5 0.1
v 0.4 0.6 0.3
v 0.4 0.6 0.2
v 0.4 0.6 0.1
v 0.4 0.7 -0.2
v 0.4 0.7 -0.3
v 0.4 0.8 0.2
v 0.4 0.8 -0.2
v 0.4 0.9 0.3
v 0.4 0.9 0.1
v 0.4 1.1 0.1
v 0.4 1.1 -0.3
v 0.5 0.2 0
v 0.5 0.2 -0.1
v 0.5 0.3 0
v 0.5 0.3 -0.1
v 0.5 0.4 0
v 0.5 0.4 -0.1
v 0.5 0.5 0.1
v 0.5 0.5 0
v 0.5 0.5 -0.1
v 0.5 0.5 -0.2
v 0.5 0.6 0.2
v 0.5 0.6 0.1
v 0.5 0.7 0.1
v 0.5 0.7 -0.1
v 0.5 0.8 0.2
v 0.5 0.8 -0.2
v -0.2 0.3 0.7
v -0.2 0.4 0.7
v -0.1 0.3 0.7
v -0.1 0.4 0.7
v -0.2 0.2 0.6
v -0.2 0.3 0.6
v -0.1 0.2 0.6
v -0.1 0.3 0.6
v 0.3 0.6 0.3
v 0.3 0.9 0.3
v 0.4 0.6 0.3
v 0.4 0.9 0.3
v -0.1 0.5 0.2
v -0.1 0.8 0.2
v 2.98023e-08 0.7 0.2
v 2.98023e-08 0.8 0.2
v 0.2 0.1 0.2
v 0.2 0.2 0.2
v 0.3 0.1 0.2
v 0.3 0.2 0.2
v 0.3 0.6 0.2
v 0.3 0.7 0.2
v 0.3 0.8 0.2
v 0.4 0.5 0.2
v 0.4 0.6 0.2
v 0.4 0.8 0.2
v 0.5 0.6 0.2
v 0.5 0.8 0.2
v -0.2 0.6 0.1
v -0.2 0.8 0.1
v -0.1 0.3 0.1
v -0.1 0.4 0.1
v -0.1 0.6 0.1
v -0.1 0.8 0.1
v 2.98023e-08 0.4 0.1
v 2.98023e-08 0.5 0.1
v 2.98023e-08 0.8 0.1
v 2.98023e-08 1 0.1
v 0.1 0.1 0.1
v 0.1 0.3 0.1
v 0.1 1 0.1
v 0.1 1.1 0.1
v 0.2 0.1 0.1
v 0.2 0.2 0.1
v 0.2 0.3 0.1
v 0.3 0.2 0.1
v 0.3 0.3 0.1
v 0.3 0.4 0.1
v 0.3 0.5 0.1
v 0.3 0.8 0.1
v 0.3 0.9 0.1
v 0.3 1 0.1
v 0.4 0.3 0.1
v 0.4 0.4 0.1
v 0.4 0.5 0.1
v 0.4 0.6 0.1
v 0.4 0.9 0.1
v 0.4 1.1 0.1
v 0.5 0.5 0.1
v 0.5 0.6 0.1
v -0.2 0.4 0
v -0.2 0.5 0
v -0.2 0.6 0
v -0.1 0.2 0
v -0.1 0.3 0
v -0.1 0.4 0
v -0.1 0.5 0
v -0.1 0.6 0
v 2.98023e-08 0 0
v 2.98023e-08 0.1 0
v 2.98023e-08 0.2 0
v 2.98023e-08 0.3 0
v 0.1 0 0
v 0.1 0.1 0
v 0.3 0.2 0
v 0.3 0.3 0
v 0.4 0.2 0
v 0.4 0.3 0
v 0.4 0.4 0
v 0.4 0.5 0
v 0.5 0.2 0
v 0.5 0.3 0
v 0.5 0.4 0
v 0.5 0.5 0
v 2.98023e-08 0.1 -0.1
v 2.98023e-08 0.2 -0.1
v 2.98023e-08 0.3 -0.1
v 0.1 0.1 -0.1
v 0.1 0.3 -0.1
v -0.2 0.2 0.3
v -0.2 0.3 0.3
v -0.1 0.2 0.3
v -0.1 0.3 0.3
v 0.2 0.1 0
v 0.2 0.2 0
v 0.3 0.1 0
v 0.3 0.2 0
v -0.2 0.4 -0.1
v -0.2 0.5 -0.1
v -0.2 0.8 -0.1
v -0.1 0.4 -0.1
v -0.1 0.5 -0.1
v -0.1 0.8 -0.1
v 0.4 0.2 -0.1
v 0.4 0.3 -0.1
v 0.4 0.4 -0.1
v 0.4 0.5 -0.1
v 0.5 0.2 -0.1
v 0.5 0.3 -0.1
v 0.5 0.4 -0.1
v 0.5 0.5 -0.1
v -0.1 0.2 -0.2
v -0.1 0.3 -0.2
v -0.1 0.4 -0.2
v -0.1 0.5 -0.2
v -0.1 0.8 -0.2
v 2.98023e-08 0 -0.2
v 2.98023e-08 0.2 -0.2
v 2.98023e-08 0.3 -0.2
v 2.98023e-08 0.4 -0.2
v 2.98023e-08 0.5 -0.2
v 2.98023e-08 0.8 -0.2
v 2.98023e-08 1 -0.2
v 0.1 0 -0.2
v 0.1 0.1 -0.2
v 0.1 0.3 -0.2
v 0.1 0.8 -0.2
v 0.1 1 -0.2
v 0.2 0.1 -0.2
v 0.2 0.2 -0.2
v 0.3 0.4 -0.2
v 0.3 0.5 -0.2
v 0.3 0.7 -0.2
v 0.3 0.8 -0.2
v 0.4 0.2 -0.2
v 0.4 0.4 -0.2
v 0.4 0.5 -0.2
v 0.4 0.7 -0.2
v 0.4 0.8 -0.2
v 0.5 0.5 -0.2
v 0.5 0.8 -0.2
v 0.1 0.8 -0.3
v 0.1 1.1 -0.3
v 0.3 0.7 -0.3
v 0.3 0.8 -0.3
v 0.4 0.7 -0.3
v 0.4 1.1 -0.3
v -0.2 0.3 -0.7
v -0.2 0.4 -0.7
v -0.1 0.3 -0.7
v -0.1 0.4 -0.7
v 2.98023e-08 0 0
v 0.1 0 0
v 2.98023e-08 0 -0.2
v 0.1 0 -0.2
v 0.2 0.1 0.2
v 0.3 0.1 0.2
v 0.1 0.1 0.1
v 0.2 0.1 0.1
v 0.1 0.1 0
v 0.2 0.1 0
v 0.3 0.1 0
v 0.1 0.1 -0.2
v 0.2 0.1 -0.2
v -0.2 0.2 0.6
v -0.1 0.2 0.6
v -0.2 0.2 0.3
v -0.1 0.2 0.3
v -0.1 0.2 0
v 2.98023e-08 0.2 0
v 0.2 0.2 0
v 0.3 0.2 0
v 0.4 0.2 0
v 0.5 0.2 0
v 2.98023e-08 0.2 -0.1
v 0.2 0.2 -0.1
v 0.3 0.2 -0.1
v 0.4 0.2 -0.1
v 0.5 0.2 -0.1
v -0.1 0.2 -0.2
v 2.98023e-08 0.2 -0.2
v 0.2 0.2 -0.2
v 0.4 0.2 -0.2
v -0.2 0.3 0.7
v -0.1 0.3 0.7
v -0.2 0.3 0.6
v -0.1 0.3 0.6
v -0.2 0.3 0.3
v -0.1 0.3 0.3
v -0.1 0.3 0.1
v 0.1 0.3 0.1
v 0.3 0.3 0.1
v 0.4 0.3 0.1
v -0.2 0.3 0
v -0.1 0.3 0
v 2.98023e-08 0.3 0
v 0.3 0.3 0
v 0.4 0.3 0
v -0.2 0.3 -0.1
v -0.1 0.3 -0.1
v 2.98023e-08 0.3 -0.1
v 0.1 0.3 -0.1
v -0.1 0.3 -0.2
v -0.2 0.3 -0.7
v -0.1 0.3 -0.7
v -0.1 0.5 0.2
v 0.4 0.5 0.2
v 2.98023e-08 0.5 0.1
v 0.3 0.5 0.1
v 0.4 0.5 0.1
v 0.5 0.5 0.1
v -0.1 0.5 0
v 0.4 0.5 0
v 0.5 0.5 0
v -0.1 0.5 -0.1
v 0.4 0.5 -0.1
v 0.5 0.5 -0.1
v -0.1 0.5 -0.2
v 2.98023e-08 0.5 -0.2
v 0.3 0.5 -0.2
v 0.4 0.5 -0.2
v 0.5 0.5 -0.2
v 0.3 0.6 0.3
v 0.4 0.6 0.3
v 0.3 0.6 0.2
v 0.4 0.6 0.2
v 0.5 0.6 0.2
v -0.2 0.6 0.1
v -0.1 0.6 0.1
v 0.4 0.6 0.1
v 0.5 0.6 0.1
v -0.2 0.6 0
v -0.1 0.6 0
v 0.3 0.7 -0.2
v 0.4 0.7 -0.2
v 0.3 0.7 -0.3
v 0.4 0.7 -0.3
v 0.1 0.8 -0.2
v 0.3 0.8 -0.2
v 0.1 0.8 -0.3
v 0.3 0.8 -0.3
v 2.98023e-08 0.1 0
v 0.1 0.1 0
v 2.98023e-08 0.1 -0.1
v 0.1 0.1 -0.1
v 0.2 0.2 0.2
v 0.3 0.2 0.2
v 0.2 0.2 0.1
v 0.3 0.2 0.1
v -0.2 0.4 0.7
v -0.1 0.4 0.7
v -0.2 0.4 0.3
v -0.1 0.4 0.3
v -0.1 0.4 0.1
v 2.98023e-08 0.4 0.1
v 0.3 0.4 0.1
v 0.4 0.4 0.1
v -0.2 0.4 0
v -0.1 0.4 0
v 0.4 0.4 0
v -0.2 0.4 -0.1
v -0.1 0.4 -0.1
v 0.4 0.4 -0.1
v -0.1 0.4 -0.2
v 2.98023e-08 0.4 -0.2
v 0.3 0.4 -0.2
v 0.4 0.4 -0.2
v -0.2 0.4 -0.7
v -0.1 0.4 -0.7
v -0.1 0.8 0.2
v 2.98023e-08 0.8 0.2
v 0.3 0.8 0.2
v 0.4 0.8 0.2
v 0.5 0.8 0.2
v -0.2 0.8 0.1
v -0.1 0.8 0.1
v 2.98023e-08 0.8 0.1
v 0.3 0.8 0.1
v -0.2 0.8 -0.1
v -0.1 0.8 -0.1
v 2.98023e-08 0.8 -0.1
v -0.1 0.8 -0.2
v 2.98023e-08 0.8 -0.2
v 0.4 0.8 -0.2
v 0.5 0.8 -0.2
v 0.3 0.9 0.3
v 0.4 0.9 0.3
v 0.3 0.9 0.1
v 0.4 0.9 0.1
v 2.98023e-08 1 0.1
v 0.1 1 0.1
v 2.98023e-08 1 0
v 0.1 1 0
v 2.98023e-08 1 -0.2
v 0.1 1 -0.2
v 0.1 1.1 0.1
v 0.4 1.1 0.1
v 0.1 1.1 -0.3
v 0.4 1.1 -0.3

# faces
f 4/1/1 2/1/1 1/1/1
f 5/1/1 2/1/1 4/1/1
f 9/6/1 4/6/1 3/6/1
f 9/6/1 5/6/1 4/6/1
f 10/2/1 6/2/1 5/2/1
f 10/6/1 5/6/1 9/6/1
f 11/5/1 7/5/1 6/5/1
f 11/2/1 6/2/1 10/2/1
f 12/2/1 8/2/1 7/2/1
f 12/5/1 7/5/1 11/5/1
f 13/2/1 8/2/1 12/2/1
f 14/4/1 12/4/1 11/4/1
f 15/4/1 12/4/1 14/4/1
f 17/5/1 15/5/1 14/5/1
f 18/5/1 17/5/1 16/5/1
f 19/5/1 15/5/1 17/5/1
f 19/5/1 17/5/1 18/5/1
f 22/4/1 21/4/1 20/4/1
f 23/4/1 21/4/1 22/4/1
f 24/4/1 21/4/1 23/4/1
f 29/4/1 26/4/1 25/4/1
f 30/4/1 26/4/1 29/4/1
f 31/4/1 29/4/1 25/4/1
f 32/4/1 29/4/1 31/4/1
f 33/4/1 28/4/1 27/4/1
f 34/4/1 28/4/1 33/4/1
f 37/5/1 36/5/1 35/5/1
f 38/5/1 36/5/1 37/5/1
f 39/5/1 36/5/1 38/5/1
f 40/5/1 36/5/1 39/5/1
f 43/5/1 42/5/1 41/5/1
f 44/5/1 42/5/1 43/5/1
f 48/5/1 46/5/1 45/5/1
f 49/3/1 47/3/1 46/3/1
f 49/5/1 46/5/1 48/5/1
f 50/5/1 48/5/1 45/5/1
f 51/3/1 49/3/1 48/3/1
f 51/5/1 48/5/1 50/5/1
f 52/3/1 47/3/1 49/3/1
f 52/3/1 49/3/1 51/3/1
f 56/4/1 54/4/1 53/4/1
f 56/4/1 55/4/1 54/4/1
f 57/4/1 55/4/1 56/4/1
f 62/2/1 59/2/1 58/2/1
f 63/2/1 61/2/1 60/2/1
f 63/2/1 62/2/1 61/2/1
f 64/2/1 59/2/1 62/2/1
f 64/2/1 62/2/1 63/2/1
f 67/5/1 66/5/1 65/5/1
f 68/5/1 66/5/1 67/5/1
f 71/2/1 70/2/1 69/2/1
f 74/2/1 71/2/1 69/2/1
f 76/2/1 73/2/1 72/2/1
f 77/2/1 73/2/1 76/2/1
f 78/2/1 75/2/1 74/2/1
f 78/2/1 74/2/1 69/2/1
f 79/2/1 75/2/1 78/2/1
f 82/5/1 81/5/1 80/5/1
f 83/5/1 81/5/1 82/5/1
f 84/1/2 85/1/2 87/1/2
f 87/1/2 85/1/2 88/1/2
f 86/6/2 87/6/2 92/6/2
f 87/6/2 88/6/2 92/6/2
f 88/2/2 89/2/2 93/2/2
f 92/6/2 88/6/2 93/6/2
f 93/2/2 89/2/2 94/2/2
f 90/2/2 91/2/2 97/2/2
f 97/2/2 91/2/2 98/2/2
f 95/4/2 96/4/2 99/4/2
f 99/4/2 96/4/2 100/4/2
f 101/4/2 102/4/2 103/4/2
f 103/4/2 102/4/2 104/4/2
f 105/5/2 106/5/2 107/5/2
f 107/5/2 106/5/2 108/5/2
f 109/4/2 110/4/2 111/4/2
f 111/4/2 110/4/2 112/4/2
f 112/4/2 110/4/2 113/4/2
f 114/5/2 115/5/2 116/5/2
f 116/5/2 115/5/2 117/5/2
f 117/5/2 115/5/2 118/5/2
f 117/5/2 118/5/2 119/5/2
f 119/5/2 118/5/2 120/5/2
f 121/5/2 122/5/2 123/5/2
f 123/5/2 122/5/2 124/5/2
f 125/4/2 126/4/2 129/4/2
f 127/4/2 128/4/2 130/4/2
f 130/4/2 128/4/2 131/4/2
f 129/4/2 126/4/2 132/4/2
f 132/4/2 126/4/2 133/4/2
f 134/4/2 135/4/2 137/4/2
f 137/4/2 135/4/2 138/4/2
f 136/2/2 137/2/2 141/2/2
f 139/2/2 140/2/2 142/2/2
f 136/2/2 141/2/2 143/2/2
f 141/2/2 142/2/2 143/2/2
f 143/2/2 142/2/2 144/2/2
f 144/2/2 142/2/2 145/2/2
f 142/2/2 140/2/2 146/2/2
f 145/2/2 142/2/2 146/2/2
f 147/5/2 148/5/2 149/5/2
f 149/5/2 148/5/2 150/5/2
f 149/4/2 150/4/2 151/4/2
f 151/4/2 150/4/2 152/4/2
f 151/5/2 152/5/2 154/5/2
f 154/5/2 152/5/2 155/5/2
f 154/5/2 155/5/2 158/5/2
f 153/5/2 154/5/2 158/5/2
f 158/5/2 155/5/2 159/5/2
f 157/2/2 158/2/2 159/2/2
f 155/2/2 156/2/2 160/2/2
f 159/5/2 155/5/2 160/5/2
f 157/2/2 159/2/2 161/2/2
f 159/2/2 160/2/2 161/2/2
f 160/2/2 156/2/2 162/2/2
f 161/2/2 160/2/2 162/2/2
f 165/6/3 164/6/3 163/6/3
f 166/6/3 164/6/3 165/6/3
f 169/1/3 168/1/3 167/1/3
f 170/1/3 168/1/3 169/1/3
f 173/2/3 172/2/3 171/2/3
f 174/2/3 172/2/3 173/2/3
f 177/4/3 176/4/3 175/4/3
f 178/4/3 176/4/3 177/4/3
f 181/5/3 180/5/3 179/5/3
f 182/5/3 180/5/3 181/5/3
f 183/4/3 177/4/3 175/4/3
f 184/5/3 178/5/3 177/5/3
f 184/4/3 177/4/3 183/4/3
f 185/5/3 178/5/3 184/5/3
f 186/4/3 183/4/3 175/4/3
f 187/4/3 183/4/3 186/4/3
f 189/2/3 188/2/3 187/2/3
f 190/2/3 188/2/3 189/2/3
f 195/5/3 192/5/3 191/5/3
f 196/5/3 192/5/3 195/5/3
f 197/4/3 194/4/3 193/4/3
f 202/4/3 197/4/3 193/4/3
f 203/5/3 200/5/3 199/5/3
f 205/4/3 202/4/3 201/4/3
f 206/4/3 202/4/3 205/4/3
f 207/4/3 197/4/3 202/4/3
f 207/4/3 202/4/3 206/4/3
f 208/5/3 207/5/3 206/5/3
f 209/4/3 197/4/3 207/4/3
f 209/5/3 207/5/3 208/5/3
f 210/5/3 198/5/3 197/5/3
f 210/4/3 197/4/3 209/4/3
f 211/5/3 198/5/3 210/5/3
f 212/5/3 203/5/3 199/5/3
f 213/5/3 203/5/3 212/5/3
f 214/2/3 204/2/3 203/2/3
f 214/5/3 203/5/3 213/5/3
f 215/4/3 210/4/3 209/4/3
f 216/4/3 210/4/3 215/4/3
f 219/2/3 214/2/3 213/2/3
f 220/2/3 204/2/3 214/2/3
f 220/2/3 214/2/3 219/2/3
f 221/5/3 218/5/3 217/5/3
f 222/5/3 218/5/3 221/5/3
f 228/4/3 224/4/3 223/4/3
f 229/5/3 225/5/3 224/5/3
f 229/4/3 224/4/3 228/4/3
f 230/5/3 225/5/3 229/5/3
f 233/4/3 227/4/3 226/4/3
f 234/4/3 227/4/3 233/4/3
f 235/5/3 232/5/3 231/5/3
f 236/5/3 232/5/3 235/5/3
f 239/4/3 238/4/3 237/4/3
f 240/4/3 238/4/3 239/4/3
f 243/5/3 240/5/3 239/5/3
f 244/4/3 241/4/3 240/4/3
f 244/5/3 240/5/3 243/5/3
f 245/5/3 242/5/3 241/5/3
f 245/4/3 241/4/3 244/4/3
f 246/5/3 242/5/3 245/5/3
f 250/5/3 248/5/3 247/5/3
f 250/5/3 249/5/3 248/5/3
f 251/5/3 249/5/3 250/5/3
f 252/1/4 253/1/4 254/1/4
f 254/1/4 253/1/4 255/1/4
f 256/5/4 257/5/4 258/5/4
f 258/5/4 257/5/4 259/5/4
f 260/4/4 261/4/4 263/4/4
f 261/5/4 262/5/4 264/5/4
f 263/4/4 261/4/4 264/4/4
f 264/5/4 262/5/4 265/5/4
f 266/5/4 267/5/4 270/5/4
f 267/4/4 268/4/4 271/4/4
f 270/5/4 267/5/4 271/5/4
f 268/5/4 269/5/4 272/5/4
f 271/4/4 268/4/4 272/4/4
f 272/5/4 269/5/4 273/5/4
f 274/4/4 275/4/4 280/4/4
f 275/4/4 276/4/4 280/4/4
f 280/4/4 276/4/4 281/4/4
f 281/4/4 276/4/4 282/4/4
f 277/4/4 278/4/4 283/4/4
f 283/4/4 278/4/4 284/4/4
f 279/5/4 280/5/4 286/5/4
f 280/5/4 281/5/4 286/5/4
f 286/5/4 281/5/4 287/5/4
f 281/4/4 282/4/4 288/4/4
f 287/5/4 281/5/4 288/5/4
f 284/3/4 285/3/4 289/3/4
f 283/4/4 284/4/4 289/4/4
f 289/3/4 285/3/4 290/3/4
f 287/4/4 288/4/4 291/4/4
f 291/4/4 288/4/4 292/4/4
f 288/4/4 282/4/4 293/4/4
f 292/4/4 288/4/4 293/4/4
f 282/5/4 283/5/4 293/5/4
f 283/4/4 289/4/4 294/4/4
f 293/5/4 283/5/4 294/5/4
f 294/4/4 289/4/4 295/4/4
f 295/4/4 289/4/4 296/4/4
f 292/4/4 293/4/4 297/4/4
f 297/4/4 293/4/4 298/4/4
f 294/4/4 295/4/4 299/4/4
f 299/4/4 295/4/4 300/4/4
f 300/2/4 301/2/4 302/2/4
f 299/2/4 300/2/4 302/2/4
f 302/2/4 301/2/4 303/2/4
f 304/2/4 305/2/4 307/2/4
f 306/2/4 307/2/4 308/2/4
f 307/2/4 305/2/4 309/2/4
f 308/2/4 307/2/4 309/2/4
f 310/2/4 311/2/4 312/2/4
f 312/2/4 311/2/4 313/2/4
f 316/5/5 315/5/5 314/5/5
f 317/5/5 315/5/5 316/5/5
f 321/5/5 319/5/5 318/5/5
f 322/4/5 321/4/5 320/4/5
f 323/5/5 319/5/5 321/5/5
f 323/4/5 321/4/5 322/4/5
f 324/5/5 319/5/5 323/5/5
f 325/4/5 323/4/5 322/4/5
f 326/4/5 323/4/5 325/4/5
f 329/1/5 328/1/5 327/1/5
f 330/1/5 328/1/5 329/1/5
f 337/4/5 332/4/5 331/4/5
f 338/5/5 334/5/5 333/5/5
f 339/4/5 335/4/5 334/4/5
f 339/5/5 334/5/5 338/5/5
f 340/5/5 336/5/5 335/5/5
f 340/4/5 335/4/5 339/4/5
f 341/5/5 336/5/5 340/5/5
f 342/4/5 337/4/5 331/4/5
f 343/4/5 337/4/5 342/4/5
f 344/4/5 339/4/5 338/4/5
f 344/4/5 340/4/5 339/4/5
f 345/4/5 340/4/5 344/4/5
f 348/6/5 347/6/5 346/6/5
f 349/6/5 347/6/5 348/6/5
f 352/2/5 351/2/5 350/2/5
f 356/2/5 352/2/5 350/2/5
f 357/4/5 353/4/5 352/4/5
f 357/2/5 352/2/5 356/2/5
f 358/4/5 353/4/5 357/4/5
f 359/4/5 355/4/5 354/4/5
f 360/4/5 355/4/5 359/4/5
f 361/5/5 357/5/5 356/5/5
f 362/5/5 357/5/5 361/5/5
f 363/4/5 353/4/5 358/4/5
f 364/4/5 353/4/5 363/4/5
f 365/2/5 362/2/5 361/2/5
f 366/2/5 365/2/5 361/2/5
f 367/2/5 365/2/5 366/2/5
f 370/4/5 369/4/5 368/4/5
f 371/4/5 369/4/5 370/4/5
f 372/4/5 369/4/5 371/4/5
f 374/4/5 370/4/5 368/4/5
f 375/5/5 373/5/5 372/5/5
f 375/4/5 372/4/5 371/4/5
f 376/5/5 373/5/5 375/5/5
f 377/4/5 370/4/5 374/4/5
f 378/4/5 375/4/5 371/4/5
f 380/4/5 370/4/5 377/4/5
f 381/4/5 370/4/5 380/4/5
f 382/4/5 378/4/5 371/4/5
f 383/2/5 379/2/5 378/2/5
f 383/4/5 378/4/5 382/4/5
f 384/2/5 379/2/5 383/2/5
f 387/2/5 386/2/5 385/2/5
f 388/2/5 386/2/5 387/2/5
f 392/2/5 389/2/5 388/2/5
f 393/2/5 389/2/5 392/2/5
f 394/5/5 391/5/5 390/5/5
f 395/5/5 391/5/5 394/5/5
f 398/2/5 397/2/5 396/2/5
f 399/2/5 397/2/5 398/2/5
f 402/2/5 401/2/5 400/2/5
f 403/2/5 401/2/5 402/2/5
f 404/5/6 405/5/6 406/5/6
f 406/5/6 405/5/6 407/5/6
f 408/5/6 409/5/6 410/5/6
f 410/5/6 409/5/6 411/5/6
f 412/6/6 413/6/6 414/6/6
f 414/6/6 413/6/6 415/6/6
f 414/2/6 415/2/6 416/2/6
f 414/2/6 416/2/6 420/2/6
f 416/4/6 417/4/6 421/4/6
f 420/2/6 416/2/6 421/2/6
f 418/4/6 419/4/6 422/4/6
f 421/4/6 417/4/6 424/4/6
f 418/4/6 422/4/6 425/4/6
f 423/2/6 424/2/6 426/2/6
f 424/4/6 417/4/6 426/4/6
f 426/4/6 417/4/6 427/4/6
f 418/4/6 425/4/6 428/4/6
f 428/4/6 425/4/6 429/4/6
f 423/2/6 426/2/6 430/2/6
f 430/2/6 426/2/6 431/2/6
f 432/4/6 433/4/6 438/4/6
f 433/5/6 434/5/6 439/5/6
f 438/4/6 433/4/6 439/4/6
f 439/5/6 434/5/6 440/5/6
f 437/5/6 438/5/6 441/5/6
f 438/4/6 439/4/6 442/4/6
f 441/5/6 438/5/6 442/5/6
f 442/4/6 439/4/6 443/4/6
f 442/4/6 443/4/6 444/4/6
f 444/4/6 443/4/6 445/4/6
f 435/2/6 436/2/6 446/2/6
f 446/2/6 436/2/6 447/2/6
f 448/2/6 449/2/6 450/2/6
f 450/2/6 449/2/6 451/2/6
f 452/5/6 453/5/6 454/5/6
f 454/5/6 453/5/6 455/5/6
f 454/3/6 455/3/6 456/3/6
f 456/3/6 455/3/6 457/3/6
f 458/2/6 459/2/6 460/2/6
f 460/2/6 459/2/6 461/2/6
