# MagicaVoxel @ Ephtracy

# group
o 

# material
mtllib necromancer_walk_2.mtl
usemtl palette

# normals
vn -1 0 0
vn 1 0 0
vn 0 0 1
vn 0 0 -1
vn 0 -1 0
vn 0 1 0

# texcoords
vt 0.732422 0.5
vt 0.751953 0.5
vt 0.787109 0.5
vt 0.947266 0.5
vt 0.951172 0.5
vt 0.970703 0.5

# verts
v -0.5 0.8 -2.98023e-08
v -0.5 0.8 -0.2
v -0.5 1 -2.98023e-08
v -0.5 1 -0.2
v -0.4 0 -0.1
v -0.4 0 -0.2
v -0.4 0.5 -0.1
v -0.4 0.5 -0.2
v -0.4 0.6 -0.1
v -0.4 0.6 -0.2
v -0.4 0.7 -2.98023e-08
v -0.4 0.7 -0.1
v -0.4 0.8 -2.98023e-08
v -0.4 0.8 -0.1
v -0.4 0.8 -0.2
v -0.2 0 -2.98023e-08
v -0.2 0 -0.1
v -0.2 0 -0.2
v -0.2 0 -0.5
v -0.2 0.1 -0.3
v -0.2 0.1 -0.5
v -0.2 0.5 -0.1
v -0.2 0.5 -0.2
v -0.2 0.6 -0.1
v -0.2 0.6 -0.2
v -0.2 0.7 -2.98023e-08
v -0.2 0.7 -0.3
v -0.1 0.1 -0.3
v -0.1 0.1 -0.4
v -0.1 0.7 -2.98023e-08
v -0.1 0.7 -0.3
v -0.1 0.8 -2.98023e-08
v -0.1 0.8 -0.4
v 5.96046e-08 0 -0.5
v 5.96046e-08 0 -0.6
v 5.96046e-08 0.1 -0.5
v 5.96046e-08 0.1 -0.6
v 5.96046e-08 0.8 -0.1
v 5.96046e-08 0.8 -0.4
v 5.96046e-08 1.1 -0.1
v 5.96046e-08 1.1 -0.4
v 0.1 0 0.1
v 0.1 0 -0.1
v 0.1 0.1 -0.4
v 0.1 0.1 -0.5
v 0.1 0.2 0.1
v 0.1 0.2 -2.98023e-08
v 0.1 0.4 0.3
v 0.1 0.4 -2.98023e-08
v 0.1 0.4 -0.1
v 0.1 0.5 0.3
v 0.1 0.5 -2.98023e-08
v 0.1 0.5 -0.4
v 0.1 0.5 -0.5
v 0.1 0.6 0.3
v 0.1 0.6 -2.98023e-08
v 0.2 0.4 -2.98023e-08
v 0.2 0.4 -0.1
v 0.2 0.5 -2.98023e-08
v 0.2 0.5 -0.1
v 0.3 0.3 0.2
v 0.3 0.3 -2.98023e-08
v 0.3 0.4 0.2
v 0.3 0.4 -2.98023e-08
v -0.3 0 -0.1
v -0.3 0 -0.2
v -0.3 0.5 -0.1
v -0.3 0.5 -0.2
v -0.3 0.6 -0.1
v -0.3 0.6 -0.2
v -0.3 0.7 -2.98023e-08
v -0.3 0.7 -0.1
v -0.3 0.8 -2.98023e-08
v -0.3 0.8 -0.1
v -0.3 0.8 -0.2
v -0.2 0.8 -2.98023e-08
v -0.2 0.8 -0.2
v -0.2 1 -2.98023e-08
v -0.2 1 -0.2
v 5.96046e-08 0 -2.98023e-08
v 5.96046e-08 0 -0.1
v 5.96046e-08 0.5 -2.98023e-08
v 5.96046e-08 0.5 -0.1
v 0.3 0 0.1
v 0.3 0 -2.98023e-08
v 0.3 0.2 0.1
v 0.3 0.2 -2.98023e-08
v 0.3 0.8 -0.1
v 0.3 0.8 -0.4
v 0.3 1.1 -0.1
v 0.3 1.1 -0.4
v 0.4 0.3 0.2
v 0.4 0.3 -2.98023e-08
v 0.4 0.4 0.2
v 0.4 0.4 -2.98023e-08
v 0.4 0.5 -2.98023e-08
v 0.4 0.5 -0.4
v 0.4 0.6 -2.98023e-08
v 0.4 0.8 -2.98023e-08
v 0.4 0.8 -0.4
v 0.5 0.1 -2.98023e-08
v 0.5 0.1 -0.5
v 0.5 0.4 -2.98023e-08
v 0.5 0.5 -2.98023e-08
v 0.5 0.5 -0.5
v 0.6 0 -2.98023e-08
v 0.6 0 -0.6
v 0.6 0.1 -2.98023e-08
v 0.6 0.1 -0.6
v 0.6 0.4 0.3
v 0.6 0.4 -2.98023e-08
v 0.6 0.5 0.3
v 0.6 0.5 -2.98023e-08
v 0.6 0.6 0.3
v 0.6 0.6 -2.98023e-08
v 0.1 0.4 0.3
v 0.1 0.5 0.3
v 0.1 0.6 0.3
v 0.3 0.5 0.3
v 0.3 0.6 0.3
v 0.4 0.5 0.3
v 0.4 0.6 0.3
v 0.6 0.4 0.3
v 0.6 0.5 0.3
v 0.6 0.6 0.3
v 0.3 0.3 0.2
v 0.3 0.4 0.2
v 0.4 0.3 0.2
v 0.4 0.4 0.2
v 0.1 0 0.1
v 0.1 0.2 0.1
v 0.3 0 0.1
v 0.3 0.2 0.1
v -0.5 0.8 -2.98023e-08
v -0.5 1 -2.98023e-08
v -0.4 0.7 -2.98023e-08
v -0.4 0.8 -2.98023e-08
v -0.3 0.7 -2.98023e-08
v -0.3 0.8 -2.98023e-08
v -0.2 0 -2.98023e-08
v -0.2 0.7 -2.98023e-08
v -0.2 0.8 -2.98023e-08
v -0.2 1 -2.98023e-08
v -0.1 0.7 -2.98023e-08
v -0.1 0.8 -2.98023e-08
v 5.96046e-08 0 -2.98023e-08
v 5.96046e-08 0.5 -2.98023e-08
v 0.1 0.2 -2.98023e-08
v 0.1 0.4 -2.98023e-08
v 0.1 0.5 -2.98023e-08
v 0.1 0.6 -2.98023e-08
v 0.1 0.7 -2.98023e-08
v 0.1 0.8 -2.98023e-08
v 0.2 0.7 -2.98023e-08
v 0.2 0.8 -2.98023e-08
v 0.3 0 -2.98023e-08
v 0.3 0.2 -2.98023e-08
v 0.3 0.3 -2.98023e-08
v 0.3 0.4 -2.98023e-08
v 0.3 0.6 -2.98023e-08
v 0.4 0 -2.98023e-08
v 0.4 0.3 -2.98023e-08
v 0.4 0.4 -2.98023e-08
v 0.4 0.6 -2.98023e-08
v 0.4 0.8 -2.98023e-08
v 0.5 0.1 -2.98023e-08
v 0.5 0.4 -2.98023e-08
v 0.6 0 -2.98023e-08
v 0.6 0.1 -2.98023e-08
v -0.4 0 -0.1
v -0.4 0.5 -0.1
v -0.4 0.6 -0.1
v -0.4 0.7 -0.1
v -0.3 0 -0.1
v -0.3 0.5 -0.1
v -0.3 0.6 -0.1
v -0.3 0.7 -0.1
v -0.2 0.5 -0.1
v -0.2 0.6 -0.1
v 5.96046e-08 0 -0.1
v 5.96046e-08 0.5 -0.1
v 5.96046e-08 0.8 -0.1
v 5.96046e-08 1.1 -0.1
v 0.1 0 -0.1
v 0.1 0.4 -0.1
v 0.1 0.8 -0.1
v 0.1 1 -0.1
v 0.2 0.4 -0.1
v 0.2 0.5 -0.1
v 0.2 0.8 -0.1
v 0.2 1 -0.1
v 0.3 0.8 -0.1
v 0.3 1.1 -0.1
v 0.1 0.4 -2.98023e-08
v 0.1 0.5 -2.98023e-08
v 0.2 0.4 -2.98023e-08
v 0.2 0.5 -2.98023e-08
v 0.4 0.5 -2.98023e-08
v 0.4 0.6 -2.98023e-08
v 0.5 0.4 -2.98023e-08
v 0.5 0.5 -2.98023e-08
v 0.6 0.4 -2.98023e-08
v 0.6 0.5 -2.98023e-08
v 0.6 0.6 -2.98023e-08
v -0.5 0.8 -0.2
v -0.5 1 -0.2
v -0.4 0 -0.2
v -0.4 0.5 -0.2
v -0.4 0.6 -0.2
v -0.4 0.8 -0.2
v -0.3 0 -0.2
v -0.3 0.5 -0.2
v -0.3 0.6 -0.2
v -0.3 0.8 -0.2
v -0.2 0.5 -0.2
v -0.2 0.6 -0.2
v -0.2 0.8 -0.2
v -0.2 1 -0.2
v -0.2 0.1 -0.3
v -0.2 0.7 -0.3
v -0.1 0.1 -0.3
v -0.1 0.7 -0.3
v -0.1 0.1 -0.4
v -0.1 0.8 -0.4
v 5.96046e-08 0.8 -0.4
v 5.96046e-08 1.1 -0.4
v 0.1 0.1 -0.4
v 0.1 0.5 -0.4
v 0.3 0.8 -0.4
v 0.3 1.1 -0.4
v 0.4 0.5 -0.4
v 0.4 0.8 -0.4
v -0.2 0 -0.5
v -0.2 0.1 -0.5
v 5.96046e-08 0 -0.5
v 5.96046e-08 0.1 -0.5
v 0.1 0.1 -0.5
v 0.1 0.5 -0.5
v 0.5 0.1 -0.5
v 0.5 0.5 -0.5
v 5.96046e-08 0 -0.6
v 5.96046e-08 0.1 -0.6
v 0.6 0 -0.6
v 0.6 0.1 -0.6
v 0.1 0 0.1
v 0.3 0 0.1
v -0.2 0 -2.98023e-08
v 5.96046e-08 0 -2.98023e-08
v 0.2 0 -2.98023e-08
v 0.3 0 -2.98023e-08
v 0.4 0 -2.98023e-08
v 0.6 0 -2.98023e-08
v -0.4 0 -0.1
v -0.3 0 -0.1
v -0.2 0 -0.1
v 5.96046e-08 0 -0.1
v 0.1 0 -0.1
v 0.4 0 -0.1
v 0.5 0 -0.1
v -0.4 0 -0.2
v -0.3 0 -0.2
v -0.2 0 -0.2
v -0.1 0 -0.2
v 5.96046e-08 0 -0.2
v 0.2 0 -0.2
v -0.1 0 -0.4
v 0.1 0 -0.4
v -0.2 0 -0.5
v 5.96046e-08 0 -0.5
v 0.1 0 -0.5
v 0.5 0 -0.5
v 5.96046e-08 0 -0.6
v 0.6 0 -0.6
v 0.3 0.3 0.2
v 0.4 0.3 0.2
v 0.3 0.3 -2.98023e-08
v 0.4 0.3 -2.98023e-08
v 0.1 0.4 0.3
v 0.6 0.4 0.3
v 0.3 0.4 0.2
v 0.4 0.4 0.2
v 0.1 0.4 -2.98023e-08
v 0.3 0.4 -2.98023e-08
v 0.4 0.4 -2.98023e-08
v 0.5 0.4 -2.98023e-08
v 0.6 0.4 -2.98023e-08
v 5.96046e-08 0.5 -2.98023e-08
v 0.1 0.5 -2.98023e-08
v 0.2 0.5 -2.98023e-08
v -0.3 0.5 -0.1
v -0.2 0.5 -0.1
v 5.96046e-08 0.5 -0.1
v 0.2 0.5 -0.1
v -0.3 0.5 -0.2
v -0.2 0.5 -0.2
v -0.4 0.7 -2.98023e-08
v -0.3 0.7 -2.98023e-08
v -0.4 0.7 -0.1
v -0.3 0.7 -0.1
v -0.5 0.8 -2.98023e-08
v -0.4 0.8 -2.98023e-08
v -0.3 0.8 -2.98023e-08
v -0.2 0.8 -2.98023e-08
v -0.4 0.8 -0.1
v -0.3 0.8 -0.1
v -0.5 0.8 -0.2
v -0.4 0.8 -0.2
v -0.3 0.8 -0.2
v -0.2 0.8 -0.2
v 0.5 0.1 -2.98023e-08
v 0.6 0.1 -2.98023e-08
v -0.2 0.1 -0.3
v -0.1 0.1 -0.3
v -0.1 0.1 -0.4
v 0.1 0.1 -0.4
v -0.2 0.1 -0.5
v 5.96046e-08 0.1 -0.5
v 0.1 0.1 -0.5
v 0.5 0.1 -0.5
v 5.96046e-08 0.1 -0.6
v 0.6 0.1 -0.6
v 0.1 0.2 0.1
v 0.3 0.2 0.1
v 0.1 0.2 -2.98023e-08
v 0.3 0.2 -2.98023e-08
v 0.1 0.4 -2.98023e-08
v 0.2 0.4 -2.98023e-08
v 0.1 0.4 -0.1
v 0.2 0.4 -0.1
v 0.4 0.5 -2.98023e-08
v 0.5 0.5 -2.98023e-08
v 0.1 0.5 -0.4
v 0.4 0.5 -0.4
v 0.1 0.5 -0.5
v 0.5 0.5 -0.5
v 0.1 0.6 0.3
v 0.3 0.6 0.3
v 0.4 0.6 0.3
v 0.6 0.6 0.3
v 0.1 0.6 -2.98023e-08
v 0.3 0.6 -2.98023e-08
v 0.4 0.6 -2.98023e-08
v 0.6 0.6 -2.98023e-08
v -0.3 0.6 -0.1
v -0.2 0.6 -0.1
v -0.3 0.6 -0.2
v -0.2 0.6 -0.2
v -0.2 0.7 -2.98023e-08
v -0.1 0.7 -2.98023e-08
v -0.2 0.7 -0.3
v -0.1 0.7 -0.3
v -0.1 0.8 -2.98023e-08
v 0.1 0.8 -2.98023e-08
v 0.2 0.8 -2.98023e-08
v 0.4 0.8 -2.98023e-08
v 5.96046e-08 0.8 -0.1
v 0.1 0.8 -0.1
v 0.2 0.8 -0.1
v 0.3 0.8 -0.1
v -0.1 0.8 -0.4
v 5.96046e-08 0.8 -0.4
v 0.3 0.8 -0.4
v 0.4 0.8 -0.4
v -0.5 1 -2.98023e-08
v -0.2 1 -2.98023e-08
v -0.5 1 -0.2
v -0.2 1 -0.2
v 5.96046e-08 1.1 -0.1
v 0.3 1.1 -0.1
v 5.96046e-08 1.1 -0.4
v 0.3 1.1 -0.4

# faces
f 3/4/1 2/4/1 1/4/1
f 4/4/1 2/4/1 3/4/1
f 7/3/1 6/3/1 5/3/1
f 8/3/1 6/3/1 7/3/1
f 9/1/1 8/1/1 7/1/1
f 10/1/1 8/1/1 9/1/1
f 12/3/1 10/3/1 9/3/1
f 13/4/1 12/4/1 11/4/1
f 14/3/1 10/3/1 12/3/1
f 14/4/1 12/4/1 13/4/1
f 15/3/1 10/3/1 14/3/1
f 20/2/1 19/2/1 18/2/1
f 21/2/1 19/2/1 20/2/1
f 22/2/1 17/2/1 16/2/1
f 22/6/1 18/6/1 17/6/1
f 23/2/1 20/2/1 18/2/1
f 23/6/1 18/6/1 22/6/1
f 24/2/1 22/2/1 16/2/1
f 25/2/1 20/2/1 23/2/1
f 26/2/1 24/2/1 16/2/1
f 26/2/1 25/2/1 24/2/1
f 27/2/1 20/2/1 25/2/1
f 27/2/1 25/2/1 26/2/1
f 31/2/1 29/2/1 28/2/1
f 32/2/1 31/2/1 30/2/1
f 33/2/1 29/2/1 31/2/1
f 33/2/1 31/2/1 32/2/1
f 36/2/1 35/2/1 34/2/1
f 37/2/1 35/2/1 36/2/1
f 40/2/1 39/2/1 38/2/1
f 41/2/1 39/2/1 40/2/1
f 46/2/1 43/2/1 42/2/1
f 47/2/1 43/2/1 46/2/1
f 49/2/1 43/2/1 47/2/1
f 50/2/1 43/2/1 49/2/1
f 51/3/1 49/3/1 48/3/1
f 52/3/1 49/3/1 51/3/1
f 53/2/1 45/2/1 44/2/1
f 54/2/1 45/2/1 53/2/1
f 55/5/1 52/5/1 51/5/1
f 56/5/1 52/5/1 55/5/1
f 59/2/1 58/2/1 57/2/1
f 60/2/1 58/2/1 59/2/1
f 63/1/1 62/1/1 61/1/1
f 64/1/1 62/1/1 63/1/1
f 65/3/2 66/3/2 67/3/2
f 67/3/2 66/3/2 68/3/2
f 69/3/2 70/3/2 72/3/2
f 71/4/2 72/4/2 73/4/2
f 72/3/2 70/3/2 74/3/2
f 73/4/2 72/4/2 74/4/2
f 74/3/2 70/3/2 75/3/2
f 76/4/2 77/4/2 78/4/2
f 78/4/2 77/4/2 79/4/2
f 80/2/2 81/2/2 82/2/2
f 82/2/2 81/2/2 83/2/2
f 84/2/2 85/2/2 86/2/2
f 86/2/2 85/2/2 87/2/2
f 88/2/2 89/2/2 90/2/2
f 90/2/2 89/2/2 91/2/2
f 92/1/2 93/1/2 94/1/2
f 94/1/2 93/1/2 95/1/2
f 96/2/2 97/2/2 98/2/2
f 98/2/2 97/2/2 99/2/2
f 99/2/2 97/2/2 100/2/2
f 101/2/2 102/2/2 103/2/2
f 103/2/2 102/2/2 104/2/2
f 104/2/2 102/2/2 105/2/2
f 106/2/2 107/2/2 108/2/2
f 108/2/2 107/2/2 109/2/2
f 110/3/2 111/3/2 112/3/2
f 112/3/2 111/3/2 113/3/2
f 112/5/2 113/5/2 114/5/2
f 114/5/2 113/5/2 115/5/2
f 119/3/3 117/3/3 116/3/3
f 119/5/3 118/5/3 117/5/3
f 120/5/3 118/5/3 119/5/3
f 121/3/3 119/3/3 116/3/3
f 121/4/3 120/4/3 119/4/3
f 122/4/3 120/4/3 121/4/3
f 123/3/3 121/3/3 116/3/3
f 124/5/3 122/5/3 121/5/3
f 124/3/3 121/3/3 123/3/3
f 125/5/3 122/5/3 124/5/3
f 128/1/3 127/1/3 126/1/3
f 129/1/3 127/1/3 128/1/3
f 132/2/3 131/2/3 130/2/3
f 133/2/3 131/2/3 132/2/3
f 137/4/3 135/4/3 134/4/3
f 138/4/3 137/4/3 136/4/3
f 139/4/3 135/4/3 137/4/3
f 139/4/3 137/4/3 138/4/3
f 142/4/3 135/4/3 139/4/3
f 143/4/3 135/4/3 142/4/3
f 144/2/3 141/2/3 140/2/3
f 146/2/3 144/2/3 140/2/3
f 146/2/3 145/2/3 144/2/3
f 147/2/3 145/2/3 146/2/3
f 150/2/3 145/2/3 147/2/3
f 151/2/3 145/2/3 150/2/3
f 152/2/3 145/2/3 151/2/3
f 153/2/3 145/2/3 152/2/3
f 154/2/3 152/2/3 151/2/3
f 154/6/3 153/6/3 152/6/3
f 155/6/3 153/6/3 154/6/3
f 157/2/3 149/2/3 148/2/3
f 158/2/3 149/2/3 157/2/3
f 159/2/3 149/2/3 158/2/3
f 160/2/3 154/2/3 151/2/3
f 160/2/3 155/2/3 154/2/3
f 161/6/3 158/6/3 157/6/3
f 161/6/3 157/6/3 156/6/3
f 162/6/3 158/6/3 161/6/3
f 164/2/3 155/2/3 160/2/3
f 165/2/3 155/2/3 164/2/3
f 166/2/3 163/2/3 162/2/3
f 166/2/3 162/2/3 161/2/3
f 167/2/3 163/2/3 166/2/3
f 168/2/3 166/2/3 161/2/3
f 169/2/3 166/2/3 168/2/3
f 174/3/3 171/3/3 170/3/3
f 175/1/3 172/1/3 171/1/3
f 175/3/3 171/3/3 174/3/3
f 176/3/3 173/3/3 172/3/3
f 176/1/3 172/1/3 175/1/3
f 177/3/3 173/3/3 176/3/3
f 178/1/3 176/1/3 175/1/3
f 179/1/3 176/1/3 178/1/3
f 184/2/3 181/2/3 180/2/3
f 185/2/3 181/2/3 184/2/3
f 186/2/3 183/2/3 182/2/3
f 187/2/3 183/2/3 186/2/3
f 188/2/3 181/2/3 185/2/3
f 189/2/3 181/2/3 188/2/3
f 190/6/3 187/6/3 186/6/3
f 191/2/3 183/2/3 187/2/3
f 191/6/3 187/6/3 190/6/3
f 192/2/3 191/2/3 190/2/3
f 193/2/3 183/2/3 191/2/3
f 193/2/3 191/2/3 192/2/3
f 194/3/4 195/3/4 196/3/4
f 196/3/4 195/3/4 197/3/4
f 198/5/4 199/5/4 201/5/4
f 200/3/4 201/3/4 202/3/4
f 201/5/4 199/5/4 203/5/4
f 202/3/4 201/3/4 203/3/4
f 203/5/4 199/5/4 204/5/4
f 205/4/4 206/4/4 210/4/4
f 207/3/4 208/3/4 211/3/4
f 208/1/4 209/1/4 212/1/4
f 211/3/4 208/3/4 212/3/4
f 209/3/4 210/3/4 213/3/4
f 212/1/4 209/1/4 213/1/4
f 210/4/4 206/4/4 214/4/4
f 213/3/4 210/3/4 214/3/4
f 212/1/4 213/1/4 215/1/4
f 215/1/4 213/1/4 216/1/4
f 214/4/4 206/4/4 217/4/4
f 217/4/4 206/4/4 218/4/4
f 219/2/4 220/2/4 221/2/4
f 221/2/4 220/2/4 222/2/4
f 223/2/4 224/2/4 225/2/4
f 223/2/4 225/2/4 227/2/4
f 225/2/4 226/2/4 227/2/4
f 227/2/4 226/2/4 228/2/4
f 228/2/4 226/2/4 229/2/4
f 229/2/4 226/2/4 230/2/4
f 228/2/4 229/2/4 231/2/4
f 231/2/4 229/2/4 232/2/4
f 233/2/4 234/2/4 235/2/4
f 235/2/4 234/2/4 236/2/4
f 237/2/4 238/2/4 239/2/4
f 239/2/4 238/2/4 240/2/4
f 241/2/4 242/2/4 243/2/4
f 243/2/4 242/2/4 244/2/4
f 249/2/5 246/2/5 245/2/5
f 250/2/5 246/2/5 249/2/5
f 255/2/5 248/2/5 247/2/5
f 256/2/5 248/2/5 255/2/5
f 257/2/5 249/2/5 245/2/5
f 258/6/5 250/6/5 249/6/5
f 258/6/5 251/6/5 250/6/5
f 258/2/5 252/2/5 251/2/5
f 259/2/5 252/2/5 258/2/5
f 260/3/5 254/3/5 253/3/5
f 261/3/5 254/3/5 260/3/5
f 262/6/5 256/6/5 255/6/5
f 263/6/5 256/6/5 262/6/5
f 264/2/5 257/2/5 256/2/5
f 264/6/5 256/6/5 263/6/5
f 265/2/5 249/2/5 257/2/5
f 265/2/5 257/2/5 264/2/5
f 265/6/5 258/6/5 249/6/5
f 265/6/5 259/6/5 258/6/5
f 266/2/5 263/2/5 262/2/5
f 266/6/5 265/6/5 264/6/5
f 266/6/5 264/6/5 263/6/5
f 267/6/5 265/6/5 266/6/5
f 268/2/5 266/2/5 262/2/5
f 268/2/5 267/2/5 266/2/5
f 269/2/5 267/2/5 268/2/5
f 270/6/5 265/6/5 267/6/5
f 270/2/5 267/2/5 269/2/5
f 271/2/5 252/2/5 259/2/5
f 271/6/5 265/6/5 270/6/5
f 271/6/5 259/6/5 265/6/5
f 272/2/5 270/2/5 269/2/5
f 272/2/5 271/2/5 270/2/5
f 273/2/5 252/2/5 271/2/5
f 273/2/5 271/2/5 272/2/5
f 276/1/5 275/1/5 274/1/5
f 277/1/5 275/1/5 276/1/5
f 280/3/5 279/3/5 278/3/5
f 281/3/5 279/3/5 280/3/5
f 282/3/5 280/3/5 278/3/5
f 283/3/5 280/3/5 282/3/5
f 284/3/5 279/3/5 281/3/5
f 285/3/5 279/3/5 284/3/5
f 286/3/5 279/3/5 285/3/5
f 292/2/5 288/2/5 287/2/5
f 292/2/5 289/2/5 288/2/5
f 293/2/5 289/2/5 292/2/5
f 294/1/5 291/1/5 290/1/5
f 295/1/5 291/1/5 294/1/5
f 298/4/5 297/4/5 296/4/5
f 299/4/5 297/4/5 298/4/5
f 304/4/5 301/4/5 300/4/5
f 305/4/5 303/4/5 302/4/5
f 306/4/5 304/4/5 300/4/5
f 307/4/5 304/4/5 306/4/5
f 308/4/5 303/4/5 305/4/5
f 309/4/5 303/4/5 308/4/5
f 312/2/6 313/2/6 314/2/6
f 312/2/6 314/2/6 316/2/6
f 314/2/6 315/2/6 316/2/6
f 316/2/6 315/2/6 317/2/6
f 317/2/6 315/2/6 318/2/6
f 310/2/6 311/2/6 319/2/6
f 317/2/6 318/2/6 320/2/6
f 318/2/6 319/2/6 320/2/6
f 319/2/6 311/2/6 321/2/6
f 320/2/6 319/2/6 321/2/6
f 322/2/6 323/2/6 324/2/6
f 324/2/6 323/2/6 325/2/6
f 326/2/6 327/2/6 328/2/6
f 328/2/6 327/2/6 329/2/6
f 330/2/6 331/2/6 333/2/6
f 332/2/6 333/2/6 334/2/6
f 333/2/6 331/2/6 335/2/6
f 334/2/6 333/2/6 335/2/6
f 336/5/6 337/5/6 340/5/6
f 337/4/6 338/4/6 341/4/6
f 340/5/6 337/5/6 341/5/6
f 338/5/6 339/5/6 342/5/6
f 341/4/6 338/4/6 342/4/6
f 342/5/6 339/5/6 343/5/6
f 344/1/6 345/1/6 346/1/6
f 346/1/6 345/1/6 347/1/6
f 348/2/6 349/2/6 350/2/6
f 350/2/6 349/2/6 351/2/6
f 352/2/6 353/2/6 356/2/6
f 353/6/6 354/6/6 357/6/6
f 356/2/6 353/2/6 357/2/6
f 354/2/6 355/2/6 358/2/6
f 357/6/6 354/6/6 358/6/6
f 358/2/6 355/2/6 359/2/6
f 352/2/6 356/2/6 360/2/6
f 360/2/6 356/2/6 361/2/6
f 359/2/6 355/2/6 362/2/6
f 362/2/6 355/2/6 363/2/6
f 364/4/6 365/4/6 366/4/6
f 366/4/6 365/4/6 367/4/6
f 368/2/6 369/2/6 370/2/6
f 370/2/6 369/2/6 371/2/6
