# MagicaVoxel @ Ephtracy

# group
o 

# material
mtllib necromancer_walk_3.mtl
usemtl palette

# normals
vn -1 0 0
vn 1 0 0
vn 0 0 1
vn 0 0 -1
vn 0 -1 0
vn 0 1 0

# texcoords
vt 0.732422 0.5
vt 0.751953 0.5
vt 0.787109 0.5
vt 0.947266 0.5
vt 0.951172 0.5
vt 0.970703 0.5

# verts
v -0.4 0.9 -0.1
v -0.4 0.9 -0.3
v -0.4 1.1 -0.1
v -0.4 1.1 -0.3
v -0.3 0.1 -0.2
v -0.3 0.1 -0.3
v -0.3 0.6 -0.2
v -0.3 0.6 -0.3
v -0.3 0.7 -0.2
v -0.3 0.7 -0.3
v -0.3 0.8 -0.1
v -0.3 0.8 -0.2
v -0.3 0.9 -0.1
v -0.3 0.9 -0.2
v -0.3 0.9 -0.3
v -0.2 0 -0.1
v -0.2 0 -0.2
v -0.2 0 -0.3
v -0.2 0 -0.5
v -0.2 0.1 -0.2
v -0.2 0.1 -0.3
v -0.2 0.1 -0.4
v -0.2 0.1 -0.5
v -0.2 0.6 -0.2
v -0.2 0.6 -0.3
v -0.2 0.7 -0.2
v -0.2 0.7 -0.3
v -0.2 0.8 -0.1
v -0.2 0.8 -0.2
v -0.2 0.8 -0.3
v -0.2 0.8 -0.4
v -0.1 0.4 0
v -0.1 0.4 -0.1
v -0.1 0.7 0
v -0.1 0.7 -0.1
v 0 0.8 -0.1
v 0 0.8 -0.4
v 0 1 -0.1
v 0 1 -0.4
v 0.1 0.3 0.4
v 0.1 0.3 0.1
v 0.1 0.4 0.4
v 0.1 0.4 0.1
v 0.1 0.5 0.4
v 0.1 0.5 0.1
v 0.2 0 0.1
v 0.2 0 -0.1
v 0.2 0.3 0.1
v 0.2 0.4 0.1
v 0.2 0.4 0
v 0.2 0.4 -0.1
v 0.3 0.2 0.3
v 0.3 0.2 0.1
v 0.3 0.3 0.3
v 0.3 0.3 0.1
v -0.2 0.8 -0.1
v -0.2 0.8 -0.2
v -0.2 0.8 -0.3
v -0.2 0.9 -0.1
v -0.2 0.9 -0.2
v -0.2 0.9 -0.3
v -0.1 0.9 -0.1
v -0.1 0.9 -0.3
v -0.1 1.1 -0.1
v -0.1 1.1 -0.3
v 0.3 0.7 -0.1
v 0.3 0.7 -0.4
v 0.3 1 -0.1
v 0.3 1 -0.4
v 0.4 0.2 0.3
v 0.4 0.2 0.1
v 0.4 0.3 0.3
v 0.4 0.3 0.1
v 0.4 0.4 0
v 0.4 0.4 -0.4
v 0.4 0.7 0
v 0.4 0.7 -0.4
v 0.5 0.1 0.1
v 0.5 0.1 -0.4
v 0.5 0.3 0.1
v 0.5 0.4 0.1
v 0.5 0.4 -0.4
v 0.6 0 0.1
v 0.6 0 -0.5
v 0.6 0.1 0.1
v 0.6 0.1 -0.5
v 0.6 0.3 0.4
v 0.6 0.3 0.1
v 0.6 0.4 0.4
v 0.6 0.4 0.1
v 0.6 0.5 0.4
v 0.6 0.5 0.1
v 0.1 0.3 0.4
v 0.1 0.4 0.4
v 0.1 0.5 0.4
v 0.3 0.4 0.4
v 0.3 0.5 0.4
v 0.4 0.4 0.4
v 0.4 0.5 0.4
v 0.6 0.3 0.4
v 0.6 0.4 0.4
v 0.6 0.5 0.4
v 0.3 0.2 0.3
v 0.3 0.3 0.3
v 0.4 0.2 0.3
v 0.4 0.3 0.3
v 0.2 0 0.1
v 0.2 0.3 0.1
v 0.3 0 0.1
v 0.3 0.2 0.1
v 0.3 0.3 0.1
v 0.4 0 0.1
v 0.4 0.2 0.1
v 0.4 0.3 0.1
v 0.5 0.1 0.1
v 0.5 0.3 0.1
v 0.6 0 0.1
v 0.6 0.1 0.1
v -0.1 0.4 0
v -0.1 0.7 0
v 0.1 0.6 0
v 0.1 0.7 0
v 0.2 0.4 0
v 0.2 0.6 0
v 0.2 0.7 0
v 0.4 0.4 0
v 0.4 0.7 0
v -0.4 0.9 -0.1
v -0.4 1.1 -0.1
v -0.3 0.8 -0.1
v -0.3 0.9 -0.1
v -0.2 0 -0.1
v -0.2 0.8 -0.1
v -0.2 0.9 -0.1
v -0.1 0.4 -0.1
v -0.1 0.7 -0.1
v -0.1 0.9 -0.1
v -0.1 1.1 -0.1
v 0 0.8 -0.1
v 0 1 -0.1
v 0.1 0.7 -0.1
v 0.1 0.9 -0.1
v 0.2 0 -0.1
v 0.2 0.4 -0.1
v 0.2 0.7 -0.1
v 0.2 0.9 -0.1
v 0.3 0.7 -0.1
v 0.3 1 -0.1
v -0.3 0.1 -0.2
v -0.3 0.6 -0.2
v -0.3 0.7 -0.2
v -0.3 0.8 -0.2
v -0.2 0.1 -0.2
v -0.2 0.6 -0.2
v -0.2 0.7 -0.2
v -0.2 0.8 -0.2
v 0.1 0.3 0.1
v 0.1 0.4 0.1
v 0.1 0.5 0.1
v 0.2 0.3 0.1
v 0.2 0.4 0.1
v 0.3 0.4 0.1
v 0.3 0.5 0.1
v 0.4 0.4 0.1
v 0.4 0.5 0.1
v 0.5 0.3 0.1
v 0.5 0.4 0.1
v 0.6 0.3 0.1
v 0.6 0.4 0.1
v 0.6 0.5 0.1
v -0.4 0.9 -0.3
v -0.4 1.1 -0.3
v -0.3 0.1 -0.3
v -0.3 0.6 -0.3
v -0.3 0.7 -0.3
v -0.3 0.9 -0.3
v -0.2 0.1 -0.3
v -0.2 0.6 -0.3
v -0.2 0.7 -0.3
v -0.2 0.8 -0.3
v -0.2 0.9 -0.3
v -0.1 0.9 -0.3
v -0.1 1.1 -0.3
v -0.2 0.1 -0.4
v -0.2 0.8 -0.4
v 0 0.8 -0.4
v 0 1 -0.4
v 0.3 0.7 -0.4
v 0.3 1 -0.4
v 0.4 0.4 -0.4
v 0.4 0.7 -0.4
v 0.5 0.1 -0.4
v 0.5 0.4 -0.4
v -0.2 0 -0.5
v -0.2 0.1 -0.5
v 0.6 0 -0.5
v 0.6 0.1 -0.5
v 0.2 0 0.1
v 0.3 0 0.1
v 0.4 0 0.1
v 0.6 0 0.1
v 0.4 0 0
v 0.5 0 0
v -0.2 0 -0.1
v 0.2 0 -0.1
v -0.2 0 -0.2
v 0.3 0 -0.2
v -0.2 0 -0.3
v -0.1 0 -0.3
v -0.1 0 -0.4
v 0.5 0 -0.4
v -0.2 0 -0.5
v 0.6 0 -0.5
v -0.3 0.1 -0.2
v -0.2 0.1 -0.2
v -0.3 0.1 -0.3
v -0.2 0.1 -0.3
v 0.3 0.2 0.3
v 0.4 0.2 0.3
v 0.3 0.2 0.1
v 0.4 0.2 0.1
v 0.1 0.3 0.4
v 0.6 0.3 0.4
v 0.3 0.3 0.3
v 0.4 0.3 0.3
v 0.1 0.3 0.1
v 0.2 0.3 0.1
v 0.3 0.3 0.1
v 0.4 0.3 0.1
v 0.5 0.3 0.1
v 0.6 0.3 0.1
v -0.1 0.4 0
v 0.2 0.4 0
v -0.1 0.4 -0.1
v 0.2 0.4 -0.1
v -0.3 0.8 -0.1
v -0.2 0.8 -0.1
v -0.3 0.8 -0.2
v -0.2 0.8 -0.2
v -0.4 0.9 -0.1
v -0.3 0.9 -0.1
v -0.2 0.9 -0.1
v -0.1 0.9 -0.1
v -0.3 0.9 -0.2
v -0.2 0.9 -0.2
v -0.4 0.9 -0.3
v -0.3 0.9 -0.3
v -0.2 0.9 -0.3
v -0.1 0.9 -0.3
v 0.5 0.1 0.1
v 0.6 0.1 0.1
v -0.2 0.1 -0.4
v 0.5 0.1 -0.4
v -0.2 0.1 -0.5
v 0.6 0.1 -0.5
v 0.2 0.4 0.1
v 0.3 0.4 0.1
v 0.4 0.4 0.1
v 0.5 0.4 0.1
v 0.2 0.4 0
v 0.4 0.4 0
v 0.4 0.4 -0.4
v 0.5 0.4 -0.4
v 0.1 0.5 0.4
v 0.3 0.5 0.4
v 0.4 0.5 0.4
v 0.6 0.5 0.4
v 0.1 0.5 0.1
v 0.3 0.5 0.1
v 0.4 0.5 0.1
v 0.6 0.5 0.1
v -0.1 0.7 0
v 0.1 0.7 0
v 0.2 0.7 0
v 0.4 0.7 0
v -0.1 0.7 -0.1
v 0.1 0.7 -0.1
v 0.2 0.7 -0.1
v 0.3 0.7 -0.1
v 0.3 0.7 -0.4
v 0.4 0.7 -0.4
v -0.2 0.8 -0.1
v 0 0.8 -0.1
v -0.2 0.8 -0.2
v -0.2 0.8 -0.3
v -0.2 0.8 -0.4
v 0 0.8 -0.4
v 0 1 -0.1
v 0.3 1 -0.1
v 0 1 -0.4
v 0.3 1 -0.4
v -0.4 1.1 -0.1
v -0.1 1.1 -0.1
v -0.4 1.1 -0.3
v -0.1 1.1 -0.3

# faces
f 3/4/1 2/4/1 1/4/1
f 4/4/1 2/4/1 3/4/1
f 7/3/1 6/3/1 5/3/1
f 8/3/1 6/3/1 7/3/1
f 9/1/1 8/1/1 7/1/1
f 10/1/1 8/1/1 9/1/1
f 12/3/1 10/3/1 9/3/1
f 13/4/1 12/4/1 11/4/1
f 14/3/1 10/3/1 12/3/1
f 14/4/1 12/4/1 13/4/1
f 15/3/1 10/3/1 14/3/1
f 20/2/1 17/2/1 16/2/1
f 20/6/1 18/6/1 17/6/1
f 21/2/1 19/2/1 18/2/1
f 21/6/1 18/6/1 20/6/1
f 22/2/1 19/2/1 21/2/1
f 23/2/1 19/2/1 22/2/1
f 24/2/1 20/2/1 16/2/1
f 25/2/1 22/2/1 21/2/1
f 26/2/1 24/2/1 16/2/1
f 27/2/1 22/2/1 25/2/1
f 28/2/1 26/2/1 16/2/1
f 29/2/1 26/2/1 28/2/1
f 30/2/1 22/2/1 27/2/1
f 31/2/1 22/2/1 30/2/1
f 34/2/1 33/2/1 32/2/1
f 35/2/1 33/2/1 34/2/1
f 38/2/1 37/2/1 36/2/1
f 39/2/1 37/2/1 38/2/1
f 42/3/1 41/3/1 40/3/1
f 43/3/1 41/3/1 42/3/1
f 44/5/1 43/5/1 42/5/1
f 45/5/1 43/5/1 44/5/1
f 48/2/1 47/2/1 46/2/1
f 49/2/1 47/2/1 48/2/1
f 50/2/1 47/2/1 49/2/1
f 51/2/1 47/2/1 50/2/1
f 54/1/1 53/1/1 52/1/1
f 55/1/1 53/1/1 54/1/1
f 56/4/2 57/4/2 59/4/2
f 57/3/2 58/3/2 60/3/2
f 59/4/2 57/4/2 60/4/2
f 60/3/2 58/3/2 61/3/2
f 62/4/2 63/4/2 64/4/2
f 64/4/2 63/4/2 65/4/2
f 66/2/2 67/2/2 68/2/2
f 68/2/2 67/2/2 69/2/2
f 70/1/2 71/1/2 72/1/2
f 72/1/2 71/1/2 73/1/2
f 74/2/2 75/2/2 76/2/2
f 76/2/2 75/2/2 77/2/2
f 78/2/2 79/2/2 80/2/2
f 80/2/2 79/2/2 81/2/2
f 81/2/2 79/2/2 82/2/2
f 83/2/2 84/2/2 85/2/2
f 85/2/2 84/2/2 86/2/2
f 87/3/2 88/3/2 89/3/2
f 89/3/2 88/3/2 90/3/2
f 89/5/2 90/5/2 91/5/2
f 91/5/2 90/5/2 92/5/2
f 96/3/3 94/3/3 93/3/3
f 96/5/3 95/5/3 94/5/3
f 97/5/3 95/5/3 96/5/3
f 98/3/3 96/3/3 93/3/3
f 98/4/3 97/4/3 96/4/3
f 99/4/3 97/4/3 98/4/3
f 100/3/3 98/3/3 93/3/3
f 101/5/3 99/5/3 98/5/3
f 101/3/3 98/3/3 100/3/3
f 102/5/3 99/5/3 101/5/3
f 105/1/3 104/1/3 103/1/3
f 106/1/3 104/1/3 105/1/3
f 109/2/3 108/2/3 107/2/3
f 110/2/3 108/2/3 109/2/3
f 111/2/3 108/2/3 110/2/3
f 112/6/3 110/6/3 109/6/3
f 113/6/3 110/6/3 112/6/3
f 115/2/3 113/2/3 112/2/3
f 115/2/3 114/2/3 113/2/3
f 116/2/3 114/2/3 115/2/3
f 117/2/3 115/2/3 112/2/3
f 118/2/3 115/2/3 117/2/3
f 121/2/3 120/2/3 119/2/3
f 122/2/3 120/2/3 121/2/3
f 123/2/3 121/2/3 119/2/3
f 124/6/3 122/6/3 121/6/3
f 124/2/3 121/2/3 123/2/3
f 125/6/3 122/6/3 124/6/3
f 126/2/3 124/2/3 123/2/3
f 126/2/3 125/2/3 124/2/3
f 127/2/3 125/2/3 126/2/3
f 131/4/3 129/4/3 128/4/3
f 133/4/3 131/4/3 130/4/3
f 134/4/3 129/4/3 131/4/3
f 134/4/3 131/4/3 133/4/3
f 135/2/3 133/2/3 132/2/3
f 136/2/3 133/2/3 135/2/3
f 137/4/3 129/4/3 134/4/3
f 138/4/3 129/4/3 137/4/3
f 139/2/3 133/2/3 136/2/3
f 141/2/3 139/2/3 136/2/3
f 141/2/3 140/2/3 139/2/3
f 142/2/3 140/2/3 141/2/3
f 143/2/3 135/2/3 132/2/3
f 144/2/3 135/2/3 143/2/3
f 145/6/3 142/6/3 141/6/3
f 146/2/3 140/2/3 142/2/3
f 146/6/3 142/6/3 145/6/3
f 147/2/3 146/2/3 145/2/3
f 148/2/3 140/2/3 146/2/3
f 148/2/3 146/2/3 147/2/3
f 153/3/3 150/3/3 149/3/3
f 154/1/3 151/1/3 150/1/3
f 154/3/3 150/3/3 153/3/3
f 155/3/3 152/3/3 151/3/3
f 155/1/3 151/1/3 154/1/3
f 156/3/3 152/3/3 155/3/3
f 157/3/4 158/3/4 160/3/4
f 158/5/4 159/5/4 161/5/4
f 160/3/4 158/3/4 161/3/4
f 161/5/4 159/5/4 162/5/4
f 162/5/4 159/5/4 163/5/4
f 162/4/4 163/4/4 164/4/4
f 164/4/4 163/4/4 165/4/4
f 164/5/4 165/5/4 167/5/4
f 166/3/4 167/3/4 168/3/4
f 167/5/4 165/5/4 169/5/4
f 168/3/4 167/3/4 169/3/4
f 169/5/4 165/5/4 170/5/4
f 171/4/4 172/4/4 176/4/4
f 173/3/4 174/3/4 177/3/4
f 174/1/4 175/1/4 178/1/4
f 177/3/4 174/3/4 178/3/4
f 175/3/4 176/3/4 179/3/4
f 178/1/4 175/1/4 179/1/4
f 179/3/4 176/3/4 180/3/4
f 176/4/4 172/4/4 181/4/4
f 180/3/4 176/3/4 181/3/4
f 181/4/4 172/4/4 182/4/4
f 182/4/4 172/4/4 183/4/4
f 184/2/4 185/2/4 186/2/4
f 184/2/4 186/2/4 188/2/4
f 186/2/4 187/2/4 188/2/4
f 188/2/4 187/2/4 189/2/4
f 184/2/4 188/2/4 190/2/4
f 190/2/4 188/2/4 191/2/4
f 184/2/4 190/2/4 192/2/4
f 192/2/4 190/2/4 193/2/4
f 194/2/4 195/2/4 196/2/4
f 196/2/4 195/2/4 197/2/4
f 202/6/5 200/6/5 199/6/5
f 202/2/5 201/2/5 200/2/5
f 203/2/5 201/2/5 202/2/5
f 205/2/5 199/2/5 198/2/5
f 206/2/5 205/2/5 204/2/5
f 207/6/5 202/6/5 199/6/5
f 207/2/5 205/2/5 206/2/5
f 207/6/5 203/6/5 202/6/5
f 207/2/5 199/2/5 205/2/5
f 208/6/5 207/6/5 206/6/5
f 209/6/5 207/6/5 208/6/5
f 210/2/5 209/2/5 208/2/5
f 210/6/5 207/6/5 209/6/5
f 211/2/5 201/2/5 203/2/5
f 211/6/5 207/6/5 210/6/5
f 211/6/5 203/6/5 207/6/5
f 212/2/5 210/2/5 208/2/5
f 212/2/5 211/2/5 210/2/5
f 213/2/5 201/2/5 211/2/5
f 213/2/5 211/2/5 212/2/5
f 216/3/5 215/3/5 214/3/5
f 217/3/5 215/3/5 216/3/5
f 220/1/5 219/1/5 218/1/5
f 221/1/5 219/1/5 220/1/5
f 224/3/5 223/3/5 222/3/5
f 225/3/5 223/3/5 224/3/5
f 226/3/5 224/3/5 222/3/5
f 227/3/5 224/3/5 226/3/5
f 228/3/5 224/3/5 227/3/5
f 229/3/5 223/3/5 225/3/5
f 230/3/5 223/3/5 229/3/5
f 231/3/5 223/3/5 230/3/5
f 234/2/5 233/2/5 232/2/5
f 235/2/5 233/2/5 234/2/5
f 238/4/5 237/4/5 236/4/5
f 239/4/5 237/4/5 238/4/5
f 244/4/5 241/4/5 240/4/5
f 245/4/5 243/4/5 242/4/5
f 246/4/5 244/4/5 240/4/5
f 247/4/5 244/4/5 246/4/5
f 248/4/5 243/4/5 245/4/5
f 249/4/5 243/4/5 248/4/5
f 250/2/6 251/2/6 253/2/6
f 252/2/6 253/2/6 254/2/6
f 253/2/6 251/2/6 255/2/6
f 254/2/6 253/2/6 255/2/6
f 256/2/6 257/2/6 260/2/6
f 258/2/6 259/2/6 260/2/6
f 257/2/6 258/2/6 260/2/6
f 260/2/6 259/2/6 261/2/6
f 261/2/6 259/2/6 262/2/6
f 262/2/6 259/2/6 263/2/6
f 264/5/6 265/5/6 268/5/6
f 265/4/6 266/4/6 269/4/6
f 268/5/6 265/5/6 269/5/6
f 266/5/6 267/5/6 270/5/6
f 269/4/6 266/4/6 270/4/6
f 270/5/6 267/5/6 271/5/6
f 272/2/6 273/2/6 276/2/6
f 273/6/6 274/6/6 277/6/6
f 276/2/6 273/2/6 277/2/6
f 274/2/6 275/2/6 278/2/6
f 277/6/6 274/6/6 278/6/6
f 278/2/6 275/2/6 279/2/6
f 279/2/6 275/2/6 280/2/6
f 280/2/6 275/2/6 281/2/6
f 282/2/6 283/2/6 284/2/6
f 284/2/6 283/2/6 285/2/6
f 285/2/6 283/2/6 286/2/6
f 286/2/6 283/2/6 287/2/6
f 288/2/6 289/2/6 290/2/6
f 290/2/6 289/2/6 291/2/6
f 292/4/6 293/4/6 294/4/6
f 294/4/6 293/4/6 295/4/6
