# MagicaVoxel @ Ephtracy

# group
o 

# material
mtllib knight_walk_2.mtl
usemtl palette

# normals
vn -1 0 0
vn 1 0 0
vn 0 0 1
vn 0 0 -1
vn 0 -1 0
vn 0 1 0

# texcoords
vt 0.787109 0.5
vt 0.880859 0.5
vt 0.943359 0.5
vt 0.970703 0.5

# verts
v -0.5 1 0.3
v -0.5 1 0.2
v -0.5 1.1 0.3
v -0.5 1.1 0.2
v -0.4 0.9 0.4
v -0.4 0.9 0.1
v -0.4 1 0.3
v -0.4 1 0.2
v -0.4 1.1 0.3
v -0.4 1.1 0.2
v -0.4 1.2 0.4
v -0.4 1.2 0.1
v -0.3 0.5 0.3
v -0.3 0.5 0.2
v -0.3 0.6 0.3
v -0.3 0.6 0.2
v -0.3 0.6 -0.2
v -0.3 0.7 0.3
v -0.3 0.7 0.2
v -0.3 0.7 -5.96046e-08
v -0.3 0.9 0.3
v -0.3 0.9 0.2
v -0.3 0.9 -5.96046e-08
v -0.3 0.9 -0.2
v -0.3 1 0.5
v -0.3 1 0.4
v -0.3 1 0.1
v -0.3 1 -5.96046e-08
v -0.3 1.1 0.5
v -0.3 1.1 0.4
v -0.3 1.1 0.1
v -0.3 1.1 -5.96046e-08
v -0.3 1.2 0.3
v -0.3 1.2 0.2
v -0.3 1.3 0.3
v -0.3 1.3 0.2
v -0.1 0.1 -5.96046e-08
v -0.1 0.1 -0.3
v -0.1 0.4 -5.96046e-08
v -0.1 0.4 -0.3
v -0.1 0.5 -5.96046e-08
v -0.1 0.5 -0.3
v -0.1 0.6 -5.96046e-08
v -0.1 0.6 -0.2
v -0.1 0.8 -5.96046e-08
v -0.1 0.8 -0.2
v -0.1 0.9 -5.96046e-08
v -0.1 0.9 -0.3
v 5.96046e-08 0.1 -0.3
v 5.96046e-08 0.1 -0.4
v 5.96046e-08 0.3 -0.3
v 5.96046e-08 0.3 -0.4
v 5.96046e-08 0.4 -5.96046e-08
v 5.96046e-08 0.4 -0.3
v 5.96046e-08 0.5 -5.96046e-08
v 5.96046e-08 0.5 -0.3
v 5.96046e-08 0.9 0.1
v 5.96046e-08 0.9 -5.96046e-08
v 5.96046e-08 0.9 -0.3
v 5.96046e-08 1 0.1
v 5.96046e-08 1 -5.96046e-08
v 5.96046e-08 1 -0.1
v 5.96046e-08 1.1 0.1
v 5.96046e-08 1.1 -5.96046e-08
v 5.96046e-08 1.1 -0.1
v 5.96046e-08 1.2 0.1
v 5.96046e-08 1.2 -0.3
v 0.1 0.1 -0.2
v 0.1 0.1 -0.3
v 0.1 0.2 -5.96046e-08
v 0.1 0.2 -0.1
v 0.1 0.2 -0.2
v 0.1 0.2 -0.3
v 0.1 0.3 -5.96046e-08
v 0.1 0.3 -0.1
v 0.1 1 -0.3
v 0.1 1 -0.4
v 0.1 1.2 -5.96046e-08
v 0.1 1.2 -0.3
v 0.1 1.3 -5.96046e-08
v 0.1 1.3 -0.4
v 0.2 0 0.2
v 0.2 0 -5.96046e-08
v 0.2 0.1 0.2
v 0.2 0.1 0.1
v 0.2 0.2 -5.96046e-08
v 0.2 0.3 0.1
v 0.2 0.3 -5.96046e-08
v 0.3 0.1 -5.96046e-08
v 0.3 0.1 -0.2
v 0.3 0.2 -5.96046e-08
v 0.3 0.2 -0.2
v 0.4 0.5 0.1
v 0.4 0.5 -5.96046e-08
v 0.4 0.6 0.1
v 0.4 0.6 -5.96046e-08
v 0.4 0.6 -0.3
v 0.4 0.6 -0.4
v 0.4 0.8 -0.3
v 0.4 0.8 -0.4
v 0.5 0.3 0.1
v 0.5 0.3 -0.4
v 0.5 0.4 -5.96046e-08
v 0.5 0.4 -0.3
v 0.5 0.5 0.1
v 0.5 0.5 -5.96046e-08
v 0.5 0.5 -0.3
v 0.5 0.6 0.1
v 0.5 0.6 -5.96046e-08
v 0.5 0.6 -0.2
v 0.5 0.6 -0.3
v 0.5 0.6 -0.4
v 0.5 0.8 -5.96046e-08
v 0.5 0.8 -0.2
v 0.5 0.8 -0.4
v 0.5 0.9 0.1
v 0.5 0.9 -0.4
v -0.2 0.5 0.3
v -0.2 0.5 0.2
v -0.2 0.6 0.3
v -0.2 0.6 0.2
v -0.2 0.6 -5.96046e-08
v -0.2 0.7 0.3
v -0.2 0.7 0.2
v -0.2 0.7 -5.96046e-08
v -0.2 0.8 -5.96046e-08
v -0.2 0.8 -0.2
v -0.2 0.9 0.3
v -0.2 0.9 0.2
v -0.2 0.9 -5.96046e-08
v -0.2 0.9 -0.2
v -0.2 1 0.5
v -0.2 1 0.4
v -0.2 1 0.1
v -0.2 1 -5.96046e-08
v -0.2 1.1 0.5
v -0.2 1.1 0.4
v -0.2 1.1 0.1
v -0.2 1.1 -5.96046e-08
v -0.2 1.2 0.3
v -0.2 1.2 0.2
v -0.2 1.3 0.3
v -0.2 1.3 0.2
v -0.1 0.9 0.4
v -0.1 0.9 0.1
v -0.1 1 0.3
v -0.1 1 0.2
v -0.1 1.1 0.3
v -0.1 1.1 0.2
v -0.1 1.2 0.4
v -0.1 1.2 0.1
v 5.96046e-08 0.1 -5.96046e-08
v 5.96046e-08 0.1 -0.3
v 5.96046e-08 0.2 -0.1
v 5.96046e-08 0.2 -0.3
v 5.96046e-08 0.3 -5.96046e-08
v 5.96046e-08 0.3 -0.1
v 5.96046e-08 1 0.3
v 5.96046e-08 1 0.2
v 5.96046e-08 1.1 0.3
v 5.96046e-08 1.1 0.2
v 0.1 0.1 -0.3
v 0.1 0.1 -0.4
v 0.1 0.3 -0.3
v 0.1 0.3 -0.4
v 0.2 1 -0.3
v 0.2 1 -0.4
v 0.2 1.2 -5.96046e-08
v 0.2 1.2 -0.3
v 0.2 1.3 -5.96046e-08
v 0.2 1.3 -0.4
v 0.3 0 0.2
v 0.3 0 -5.96046e-08
v 0.3 0.1 0.2
v 0.3 0.1 0.1
v 0.3 0.1 -5.96046e-08
v 0.3 0.3 0.1
v 0.3 0.3 -5.96046e-08
v 0.3 0.4 -5.96046e-08
v 0.3 0.4 -0.3
v 0.3 0.5 -5.96046e-08
v 0.3 0.5 -0.3
v 0.3 0.9 0.1
v 0.3 0.9 -5.96046e-08
v 0.3 0.9 -0.3
v 0.3 1 0.1
v 0.3 1 -5.96046e-08
v 0.3 1 -0.1
v 0.3 1.1 0.1
v 0.3 1.1 -5.96046e-08
v 0.3 1.1 -0.1
v 0.3 1.2 0.1
v 0.3 1.2 -0.3
v 0.4 0.1 -5.96046e-08
v 0.4 0.1 -0.3
v 0.4 0.4 -5.96046e-08
v 0.4 0.4 -0.3
v 0.4 0.6 -5.96046e-08
v 0.4 0.6 -0.2
v 0.4 0.8 -0.2
v 0.4 0.8 -0.3
v 0.4 0.9 -5.96046e-08
v 0.4 0.9 -0.3
v 0.6 0.3 0.1
v 0.6 0.3 -0.4
v 0.6 0.4 -5.96046e-08
v 0.6 0.4 -0.3
v 0.6 0.8 -5.96046e-08
v 0.6 0.8 -0.3
v 0.6 0.9 0.1
v 0.6 0.9 -0.4
v -0.3 1 0.5
v -0.3 1.1 0.5
v -0.2 1 0.5
v -0.2 1.1 0.5
v -0.4 0.9 0.4
v -0.4 1.2 0.4
v -0.3 1 0.4
v -0.3 1.1 0.4
v -0.2 1 0.4
v -0.2 1.1 0.4
v -0.1 0.9 0.4
v -0.1 1.2 0.4
v -0.5 1 0.3
v -0.5 1.1 0.3
v -0.4 1 0.3
v -0.4 1.1 0.3
v -0.3 0.5 0.3
v -0.3 0.6 0.3
v -0.3 0.7 0.3
v -0.3 0.9 0.3
v -0.3 1.2 0.3
v -0.3 1.3 0.3
v -0.2 0.5 0.3
v -0.2 0.6 0.3
v -0.2 0.7 0.3
v -0.2 0.9 0.3
v -0.2 1.2 0.3
v -0.2 1.3 0.3
v -0.1 1 0.3
v -0.1 1.1 0.3
v 5.96046e-08 1 0.3
v 5.96046e-08 1.1 0.3
v 0.2 0 0.2
v 0.2 0.1 0.2
v 0.3 0 0.2
v 0.3 0.1 0.2
v 5.96046e-08 0.9 0.1
v 5.96046e-08 1 0.1
v 5.96046e-08 1.1 0.1
v 5.96046e-08 1.2 0.1
v 0.2 0.1 0.1
v 0.2 0.3 0.1
v 0.3 0.1 0.1
v 0.3 0.3 0.1
v 0.3 0.9 0.1
v 0.3 1 0.1
v 0.3 1.1 0.1
v 0.3 1.2 0.1
v 0.4 0.5 0.1
v 0.4 0.6 0.1
v 0.5 0.3 0.1
v 0.5 0.5 0.1
v 0.5 0.6 0.1
v 0.5 0.9 0.1
v 0.6 0.3 0.1
v 0.6 0.9 0.1
v -0.3 0.7 -5.96046e-08
v -0.3 0.9 -5.96046e-08
v -0.2 0.6 -5.96046e-08
v -0.2 0.7 -5.96046e-08
v -0.2 0.8 -5.96046e-08
v -0.2 0.9 -5.96046e-08
v -0.1 0.1 -5.96046e-08
v -0.1 0.4 -5.96046e-08
v -0.1 0.5 -5.96046e-08
v -0.1 0.6 -5.96046e-08
v -0.1 0.8 -5.96046e-08
v -0.1 0.9 -5.96046e-08
v 5.96046e-08 0.1 -5.96046e-08
v 5.96046e-08 0.3 -5.96046e-08
v 5.96046e-08 0.4 -5.96046e-08
v 5.96046e-08 0.5 -5.96046e-08
v 5.96046e-08 0.9 -5.96046e-08
v 5.96046e-08 1 -5.96046e-08
v 5.96046e-08 1.1 -5.96046e-08
v 0.1 0.2 -5.96046e-08
v 0.1 0.3 -5.96046e-08
v 0.1 1.2 -5.96046e-08
v 0.1 1.3 -5.96046e-08
v 0.2 0.2 -5.96046e-08
v 0.2 0.3 -5.96046e-08
v 0.2 1.2 -5.96046e-08
v 0.2 1.3 -5.96046e-08
v 0.3 0.1 -5.96046e-08
v 0.3 0.3 -5.96046e-08
v 0.3 0.4 -5.96046e-08
v 0.3 0.5 -5.96046e-08
v 0.3 0.9 -5.96046e-08
v 0.3 1 -5.96046e-08
v 0.3 1.1 -5.96046e-08
v 0.4 0.1 -5.96046e-08
v 0.4 0.4 -5.96046e-08
v 0.4 0.5 -5.96046e-08
v 0.4 0.6 -5.96046e-08
v 0.4 0.9 -5.96046e-08
v 5.96046e-08 0.2 -0.1
v 5.96046e-08 0.3 -0.1
v 0.1 0.2 -0.1
v 0.1 0.3 -0.1
v 0.1 0.1 -0.2
v 0.1 0.2 -0.2
v 0.2 0.2 -0.2
v 0.3 0.1 -0.2
v 0.3 0.2 -0.2
v 0.4 0.6 -0.2
v 0.4 0.8 -0.2
v 0.5 0.6 -0.2
v 0.5 0.8 -0.2
v 5.96046e-08 0.1 -0.3
v 5.96046e-08 0.2 -0.3
v 0.1 0.1 -0.3
v 0.1 0.2 -0.3
v -0.5 1 0.2
v -0.5 1.1 0.2
v -0.4 1 0.2
v -0.4 1.1 0.2
v -0.3 0.5 0.2
v -0.3 0.6 0.2
v -0.3 0.7 0.2
v -0.3 0.9 0.2
v -0.3 1.2 0.2
v -0.3 1.3 0.2
v -0.2 0.5 0.2
v -0.2 0.6 0.2
v -0.2 0.7 0.2
v -0.2 0.9 0.2
v -0.2 1.2 0.2
v -0.2 1.3 0.2
v -0.1 1 0.2
v -0.1 1.1 0.2
v 5.96046e-08 1 0.2
v 5.96046e-08 1.1 0.2
v -0.4 0.9 0.1
v -0.4 1.2 0.1
v -0.3 1 0.1
v -0.3 1.1 0.1
v -0.2 1 0.1
v -0.2 1.1 0.1
v -0.1 0.9 0.1
v -0.1 1.2 0.1
v -0.3 1 -5.96046e-08
v -0.3 1.1 -5.96046e-08
v -0.2 1 -5.96046e-08
v -0.2 1.1 -5.96046e-08
v 0.2 0 -5.96046e-08
v 0.2 0.2 -5.96046e-08
v 0.3 0 -5.96046e-08
v 0.3 0.1 -5.96046e-08
v 0.3 0.2 -5.96046e-08
v -0.3 0.6 -0.2
v -0.3 0.9 -0.2
v -0.2 0.8 -0.2
v -0.2 0.9 -0.2
v -0.1 0.6 -0.2
v -0.1 0.8 -0.2
v -0.1 0.1 -0.3
v -0.1 0.4 -0.3
v -0.1 0.5 -0.3
v -0.1 0.9 -0.3
v 5.96046e-08 0.1 -0.3
v 5.96046e-08 0.3 -0.3
v 5.96046e-08 0.4 -0.3
v 5.96046e-08 0.5 -0.3
v 5.96046e-08 0.9 -0.3
v 5.96046e-08 1.2 -0.3
v 0.1 0.1 -0.3
v 0.1 0.3 -0.3
v 0.1 1 -0.3
v 0.1 1.2 -0.3
v 0.2 1 -0.3
v 0.2 1.2 -0.3
v 0.3 0.4 -0.3
v 0.3 0.5 -0.3
v 0.3 0.9 -0.3
v 0.3 1.2 -0.3
v 0.4 0.1 -0.3
v 0.4 0.4 -0.3
v 0.4 0.6 -0.3
v 0.4 0.8 -0.3
v 0.4 0.9 -0.3
v 0.5 0.5 -0.3
v 0.5 0.6 -0.3
v 5.96046e-08 0.1 -0.4
v 5.96046e-08 0.3 -0.4
v 0.1 0.1 -0.4
v 0.1 0.3 -0.4
v 0.1 1 -0.4
v 0.1 1.3 -0.4
v 0.2 1 -0.4
v 0.2 1.3 -0.4
v 0.4 0.6 -0.4
v 0.4 0.8 -0.4
v 0.5 0.3 -0.4
v 0.5 0.6 -0.4
v 0.5 0.8 -0.4
v 0.5 0.9 -0.4
v 0.6 0.3 -0.4
v 0.6 0.9 -0.4
v 0.2 0 0.2
v 0.3 0 0.2
v 0.2 0 -5.96046e-08
v 0.3 0 -5.96046e-08
v -0.1 0.1 -5.96046e-08
v 5.96046e-08 0.1 -5.96046e-08
v 0.3 0.1 -5.96046e-08
v 0.4 0.1 -5.96046e-08
v 0.1 0.1 -0.2
v 0.3 0.1 -0.2
v -0.1 0.1 -0.3
v 5.96046e-08 0.1 -0.3
v 0.1 0.1 -0.3
v 0.4 0.1 -0.3
v 5.96046e-08 0.1 -0.4
v 0.1 0.1 -0.4
v 0.1 0.2 -5.96046e-08
v 0.2 0.2 -5.96046e-08
v 0.3 0.2 -5.96046e-08
v 5.96046e-08 0.2 -0.1
v 0.1 0.2 -0.1
v 0.1 0.2 -0.2
v 0.2 0.2 -0.2
v 0.3 0.2 -0.2
v 5.96046e-08 0.2 -0.3
v 0.1 0.2 -0.3
v 0.5 0.3 0.1
v 0.6 0.3 0.1
v 5.96046e-08 0.3 -5.96046e-08
v 0.1 0.3 -5.96046e-08
v 5.96046e-08 0.3 -0.1
v 0.1 0.3 -0.1
v 0.5 0.3 -0.4
v 0.6 0.3 -0.4
v -0.3 0.5 0.3
v -0.2 0.5 0.3
v -0.3 0.5 0.2
v -0.2 0.5 0.2
v 0.4 0.5 0.1
v 0.5 0.5 0.1
v -0.1 0.5 -5.96046e-08
v 5.96046e-08 0.5 -5.96046e-08
v 0.3 0.5 -5.96046e-08
v 0.4 0.5 -5.96046e-08
v 0.5 0.5 -5.96046e-08
v -0.1 0.5 -0.3
v 5.96046e-08 0.5 -0.3
v 0.3 0.5 -0.3
v 0.5 0.5 -0.3
v -0.3 0.6 0.2
v -0.2 0.6 0.2
v -0.2 0.6 -5.96046e-08
v -0.1 0.6 -5.96046e-08
v -0.3 0.6 -0.2
v -0.1 0.6 -0.2
v 0.4 0.6 -0.3
v 0.5 0.6 -0.3
v 0.4 0.6 -0.4
v 0.5 0.6 -0.4
v -0.4 0.9 0.4
v -0.1 0.9 0.4
v -0.3 0.9 0.3
v -0.2 0.9 0.3
v -0.3 0.9 0.2
v -0.2 0.9 0.2
v -0.4 0.9 0.1
v -0.1 0.9 0.1
v 5.96046e-08 0.9 0.1
v 0.3 0.9 0.1
v 5.96046e-08 0.9 -5.96046e-08
v 0.3 0.9 -5.96046e-08
v -0.3 1 0.5
v -0.2 1 0.5
v -0.3 1 0.4
v -0.2 1 0.4
v -0.5 1 0.3
v -0.4 1 0.3
v -0.1 1 0.3
v 5.96046e-08 1 0.3
v -0.5 1 0.2
v -0.4 1 0.2
v -0.1 1 0.2
v 5.96046e-08 1 0.2
v -0.3 1 0.1
v -0.2 1 0.1
v -0.3 1 -5.96046e-08
v -0.2 1 -5.96046e-08
v 0.1 1 -0.3
v 0.2 1 -0.3
v 0.1 1 -0.4
v 0.2 1 -0.4
v 5.96046e-08 1.1 0.1
v 0.3 1.1 0.1
v 5.96046e-08 1.1 -5.96046e-08
v 0.3 1.1 -5.96046e-08
v 0.2 0.1 0.2
v 0.3 0.1 0.2
v 0.2 0.1 0.1
v 0.3 0.1 0.1
v 0.2 0.3 0.1
v 0.3 0.3 0.1
v 0.2 0.3 -5.96046e-08
v 0.3 0.3 -5.96046e-08
v 5.96046e-08 0.3 -0.3
v 0.1 0.3 -0.3
v 5.96046e-08 0.3 -0.4
v 0.1 0.3 -0.4
v -0.1 0.4 -5.96046e-08
v 5.96046e-08 0.4 -5.96046e-08
v 0.3 0.4 -5.96046e-08
v 0.4 0.4 -5.96046e-08
v -0.1 0.4 -0.3
v 5.96046e-08 0.4 -0.3
v 0.3 0.4 -0.3
v 0.4 0.4 -0.3
v 0.4 0.6 0.1
v 0.5 0.6 0.1
v 0.4 0.6 -5.96046e-08
v 0.5 0.6 -5.96046e-08
v 0.4 0.6 -0.2
v 0.5 0.6 -0.2
v -0.3 0.7 0.2
v -0.2 0.7 0.2
v -0.3 0.7 -5.96046e-08
v -0.2 0.7 -5.96046e-08
v -0.2 0.8 -5.96046e-08
v -0.1 0.8 -5.96046e-08
v -0.2 0.8 -0.2
v -0.1 0.8 -0.2
v 0.4 0.8 -0.2
v 0.5 0.8 -0.2
v 0.4 0.8 -0.3
v 0.4 0.8 -0.4
v 0.5 0.8 -0.4
v 0.5 0.9 0.1
v 0.6 0.9 0.1
v -0.3 0.9 -5.96046e-08
v -0.2 0.9 -5.96046e-08
v -0.1 0.9 -5.96046e-08
v 5.96046e-08 0.9 -5.96046e-08
v 0.3 0.9 -5.96046e-08
v 0.4 0.9 -5.96046e-08
v -0.3 0.9 -0.2
v -0.2 0.9 -0.2
v -0.1 0.9 -0.3
v 5.96046e-08 0.9 -0.3
v 0.3 0.9 -0.3
v 0.4 0.9 -0.3
v 0.5 0.9 -0.4
v 0.6 0.9 -0.4
v 5.96046e-08 1 0.1
v 0.3 1 0.1
v 5.96046e-08 1 -5.96046e-08
v 0.3 1 -5.96046e-08
v -0.3 1.1 0.5
v -0.2 1.1 0.5
v -0.3 1.1 0.4
v -0.2 1.1 0.4
v -0.5 1.1 0.3
v -0.4 1.1 0.3
v -0.1 1.1 0.3
v 5.96046e-08 1.1 0.3
v -0.5 1.1 0.2
v -0.4 1.1 0.2
v -0.1 1.1 0.2
v 5.96046e-08 1.1 0.2
v -0.3 1.1 0.1
v -0.2 1.1 0.1
v -0.3 1.1 -5.96046e-08
v -0.2 1.1 -5.96046e-08
v -0.4 1.2 0.4
v -0.1 1.2 0.4
v -0.3 1.2 0.3
v -0.2 1.2 0.3
v -0.3 1.2 0.2
v -0.2 1.2 0.2
v -0.4 1.2 0.1
v -0.1 1.2 0.1
v 5.96046e-08 1.2 0.1
v 0.3 1.2 0.1
v 0.1 1.2 -5.96046e-08
v 0.2 1.2 -5.96046e-08
v 5.96046e-08 1.2 -0.3
v 0.1 1.2 -0.3
v 0.2 1.2 -0.3
v 0.3 1.2 -0.3
v -0.3 1.3 0.3
v -0.2 1.3 0.3
v -0.3 1.3 0.2
v -0.2 1.3 0.2
v 0.1 1.3 -5.96046e-08
v 0.2 1.3 -5.96046e-08
v 0.1 1.3 -0.4
v 0.2 1.3 -0.4

# faces
f 3/3/1 2/3/1 1/3/1
f 4/3/1 2/3/1 3/3/1
f 7/1/1 6/1/1 5/1/1
f 8/1/1 6/1/1 7/1/1
f 9/1/1 7/1/1 5/1/1
f 10/1/1 6/1/1 8/1/1
f 11/1/1 9/1/1 5/1/1
f 11/1/1 10/1/1 9/1/1
f 12/1/1 6/1/1 10/1/1
f 12/1/1 10/1/1 11/1/1
f 15/1/1 14/1/1 13/1/1
f 16/1/1 14/1/1 15/1/1
f 18/2/1 16/2/1 15/2/1
f 18/2/1 17/2/1 16/2/1
f 19/2/1 17/2/1 18/2/1
f 20/2/1 17/2/1 19/2/1
f 21/1/1 19/1/1 18/1/1
f 22/1/1 19/1/1 21/1/1
f 23/2/1 17/2/1 20/2/1
f 24/2/1 17/2/1 23/2/1
f 29/3/1 26/3/1 25/3/1
f 30/3/1 26/3/1 29/3/1
f 31/3/1 28/3/1 27/3/1
f 32/3/1 28/3/1 31/3/1
f 35/3/1 34/3/1 33/3/1
f 36/3/1 34/3/1 35/3/1
f 39/2/1 38/2/1 37/2/1
f 40/2/1 38/2/1 39/2/1
f 43/2/1 42/2/1 41/2/1
f 44/2/1 42/2/1 43/2/1
f 46/2/1 42/2/1 44/2/1
f 47/2/1 46/2/1 45/2/1
f 48/2/1 42/2/1 46/2/1
f 48/2/1 46/2/1 47/2/1
f 51/1/1 50/1/1 49/1/1
f 52/1/1 50/1/1 51/1/1
f 55/1/1 54/1/1 53/1/1
f 56/1/1 54/1/1 55/1/1
f 60/2/1 58/2/1 57/2/1
f 60/2/1 59/2/1 58/2/1
f 61/2/1 59/2/1 60/2/1
f 62/2/1 59/2/1 61/2/1
f 64/4/1 62/4/1 61/4/1
f 65/2/1 59/2/1 62/2/1
f 65/4/1 62/4/1 64/4/1
f 66/2/1 64/2/1 63/2/1
f 66/2/1 65/2/1 64/2/1
f 67/2/1 59/2/1 65/2/1
f 67/2/1 65/2/1 66/2/1
f 72/2/1 69/2/1 68/2/1
f 73/2/1 69/2/1 72/2/1
f 74/2/1 71/2/1 70/2/1
f 75/2/1 71/2/1 74/2/1
f 79/1/1 77/1/1 76/1/1
f 80/1/1 79/1/1 78/1/1
f 81/1/1 77/1/1 79/1/1
f 81/1/1 79/1/1 80/1/1
f 84/1/1 83/1/1 82/1/1
f 85/1/1 83/1/1 84/1/1
f 86/1/1 83/1/1 85/1/1
f 87/1/1 86/1/1 85/1/1
f 88/1/1 86/1/1 87/1/1
f 91/2/1 90/2/1 89/2/1
f 92/2/1 90/2/1 91/2/1
f 95/2/1 94/2/1 93/2/1
f 96/2/1 94/2/1 95/2/1
f 99/2/1 98/2/1 97/2/1
f 100/2/1 98/2/1 99/2/1
f 103/1/1 102/1/1 101/1/1
f 104/1/1 102/1/1 103/1/1
f 105/1/1 103/1/1 101/1/1
f 106/3/1 104/3/1 103/3/1
f 106/1/1 103/1/1 105/1/1
f 107/1/1 102/1/1 104/1/1
f 107/3/1 104/3/1 106/3/1
f 111/1/1 102/1/1 107/1/1
f 112/1/1 102/1/1 111/1/1
f 113/3/1 110/3/1 109/3/1
f 113/1/1 109/1/1 108/1/1
f 114/3/1 110/3/1 113/3/1
f 116/1/1 113/1/1 108/1/1
f 116/1/1 115/1/1 114/1/1
f 116/1/1 114/1/1 113/1/1
f 117/1/1 115/1/1 116/1/1
f 118/1/2 119/1/2 120/1/2
f 120/1/2 119/1/2 121/1/2
f 120/2/2 121/2/2 123/2/2
f 121/2/2 122/2/2 123/2/2
f 123/2/2 122/2/2 124/2/2
f 124/2/2 122/2/2 125/2/2
f 123/1/2 124/1/2 128/1/2
f 128/1/2 124/1/2 129/1/2
f 126/2/2 127/2/2 130/2/2
f 130/2/2 127/2/2 131/2/2
f 132/3/2 133/3/2 136/3/2
f 136/3/2 133/3/2 137/3/2
f 134/3/2 135/3/2 138/3/2
f 138/3/2 135/3/2 139/3/2
f 140/3/2 141/3/2 142/3/2
f 142/3/2 141/3/2 143/3/2
f 144/1/2 145/1/2 146/1/2
f 146/1/2 145/1/2 147/1/2
f 144/1/2 146/1/2 148/1/2
f 147/1/2 145/1/2 149/1/2
f 144/1/2 148/1/2 150/1/2
f 148/1/2 149/1/2 150/1/2
f 149/1/2 145/1/2 151/1/2
f 150/1/2 149/1/2 151/1/2
f 152/2/2 153/2/2 154/2/2
f 154/2/2 153/2/2 155/2/2
f 152/2/2 154/2/2 156/2/2
f 156/2/2 154/2/2 157/2/2
f 158/3/2 159/3/2 160/3/2
f 160/3/2 159/3/2 161/3/2
f 162/1/2 163/1/2 164/1/2
f 164/1/2 163/1/2 165/1/2
f 166/1/2 167/1/2 169/1/2
f 168/1/2 169/1/2 170/1/2
f 169/1/2 167/1/2 171/1/2
f 170/1/2 169/1/2 171/1/2
f 172/1/2 173/1/2 174/1/2
f 174/1/2 173/1/2 175/1/2
f 175/1/2 173/1/2 176/1/2
f 175/1/2 176/1/2 177/1/2
f 177/1/2 176/1/2 178/1/2
f 179/1/2 180/1/2 181/1/2
f 181/1/2 180/1/2 182/1/2
f 183/2/2 184/2/2 186/2/2
f 184/2/2 185/2/2 186/2/2
f 186/2/2 185/2/2 187/2/2
f 187/2/2 185/2/2 188/2/2
f 187/4/2 188/4/2 190/4/2
f 188/2/2 185/2/2 191/2/2
f 190/4/2 188/4/2 191/4/2
f 189/2/2 190/2/2 192/2/2
f 190/2/2 191/2/2 192/2/2
f 191/2/2 185/2/2 193/2/2
f 192/2/2 191/2/2 193/2/2
f 194/2/2 195/2/2 196/2/2
f 196/2/2 195/2/2 197/2/2
f 198/2/2 199/2/2 200/2/2
f 198/2/2 200/2/2 202/2/2
f 200/2/2 201/2/2 202/2/2
f 202/2/2 201/2/2 203/2/2
f 204/1/2 205/1/2 206/1/2
f 206/1/2 205/1/2 207/1/2
f 204/1/2 206/1/2 208/1/2
f 206/3/2 207/3/2 208/3/2
f 207/1/2 205/1/2 209/1/2
f 208/3/2 207/3/2 209/3/2
f 204/1/2 208/1/2 210/1/2
f 208/1/2 209/1/2 210/1/2
f 209/1/2 205/1/2 211/1/2
f 210/1/2 209/1/2 211/1/2
f 214/3/3 213/3/3 212/3/3
f 215/3/3 213/3/3 214/3/3
f 218/1/3 217/1/3 216/1/3
f 219/1/3 217/1/3 218/1/3
f 220/1/3 218/1/3 216/1/3
f 221/1/3 217/1/3 219/1/3
f 222/1/3 220/1/3 216/1/3
f 222/1/3 221/1/3 220/1/3
f 223/1/3 217/1/3 221/1/3
f 223/1/3 221/1/3 222/1/3
f 226/3/3 225/3/3 224/3/3
f 227/3/3 225/3/3 226/3/3
f 234/1/3 229/1/3 228/1/3
f 235/2/3 230/2/3 229/2/3
f 235/1/3 229/1/3 234/1/3
f 236/1/3 231/1/3 230/1/3
f 236/2/3 230/2/3 235/2/3
f 237/1/3 231/1/3 236/1/3
f 238/3/3 233/3/3 232/3/3
f 239/3/3 233/3/3 238/3/3
f 242/3/3 241/3/3 240/3/3
f 243/3/3 241/3/3 242/3/3
f 246/1/3 245/1/3 244/1/3
f 247/1/3 245/1/3 246/1/3
f 254/1/3 253/1/3 252/1/3
f 255/1/3 253/1/3 254/1/3
f 256/2/3 249/2/3 248/2/3
f 257/2/3 249/2/3 256/2/3
f 258/2/3 251/2/3 250/2/3
f 259/2/3 251/2/3 258/2/3
f 263/2/3 261/2/3 260/2/3
f 264/2/3 261/2/3 263/2/3
f 266/1/3 263/1/3 262/1/3
f 266/1/3 265/1/3 264/1/3
f 266/1/3 264/1/3 263/1/3
f 267/1/3 265/1/3 266/1/3
f 271/2/3 269/2/3 268/2/3
f 272/2/3 269/2/3 271/2/3
f 273/2/3 269/2/3 272/2/3
f 277/2/3 271/2/3 270/2/3
f 277/2/3 272/2/3 271/2/3
f 278/2/3 272/2/3 277/2/3
f 280/2/3 275/2/3 274/2/3
f 281/2/3 275/2/3 280/2/3
f 282/2/3 275/2/3 281/2/3
f 283/2/3 279/2/3 278/2/3
f 283/2/3 277/2/3 276/2/3
f 283/2/3 278/2/3 277/2/3
f 284/2/3 279/2/3 283/2/3
f 288/2/3 282/2/3 281/2/3
f 291/2/3 288/2/3 287/2/3
f 292/2/3 282/2/3 288/2/3
f 292/2/3 288/2/3 291/2/3
f 293/1/3 290/1/3 289/1/3
f 294/1/3 290/1/3 293/1/3
f 296/2/3 282/2/3 292/2/3
f 297/1/3 283/1/3 282/1/3
f 297/2/3 282/2/3 296/2/3
f 298/2/3 284/2/3 283/2/3
f 298/1/3 283/1/3 297/1/3
f 299/2/3 284/2/3 298/2/3
f 300/4/3 286/4/3 285/4/3
f 301/4/3 286/4/3 300/4/3
f 302/2/3 296/2/3 295/2/3
f 302/2/3 297/2/3 296/2/3
f 303/2/3 297/2/3 302/2/3
f 304/2/3 299/2/3 298/2/3
f 305/2/3 299/2/3 304/2/3
f 306/2/3 299/2/3 305/2/3
f 309/1/3 308/1/3 307/1/3
f 310/1/3 308/1/3 309/1/3
f 313/2/3 312/2/3 311/2/3
f 314/2/3 313/2/3 311/2/3
f 315/2/3 313/2/3 314/2/3
f 318/2/3 317/2/3 316/2/3
f 319/2/3 317/2/3 318/2/3
f 322/1/3 321/1/3 320/1/3
f 323/1/3 321/1/3 322/1/3
f 324/3/4 325/3/4 326/3/4
f 326/3/4 325/3/4 327/3/4
f 328/1/4 329/1/4 334/1/4
f 334/1/4 329/1/4 335/1/4
f 330/1/4 331/1/4 336/1/4
f 336/1/4 331/1/4 337/1/4
f 332/3/4 333/3/4 338/3/4
f 338/3/4 333/3/4 339/3/4
f 340/3/4 341/3/4 342/3/4
f 342/3/4 341/3/4 343/3/4
f 344/1/4 345/1/4 346/1/4
f 346/1/4 345/1/4 347/1/4
f 344/1/4 346/1/4 348/1/4
f 347/1/4 345/1/4 349/1/4
f 344/1/4 348/1/4 350/1/4
f 348/1/4 349/1/4 350/1/4
f 349/1/4 345/1/4 351/1/4
f 350/1/4 349/1/4 351/1/4
f 352/3/4 353/3/4 354/3/4
f 354/3/4 353/3/4 355/3/4
f 356/1/4 357/1/4 358/1/4
f 358/1/4 357/1/4 359/1/4
f 359/1/4 357/1/4 360/1/4
f 361/2/4 362/2/4 363/2/4
f 363/2/4 362/2/4 364/2/4
f 361/2/4 363/2/4 365/2/4
f 365/2/4 363/2/4 366/2/4
f 367/2/4 368/2/4 371/2/4
f 371/2/4 368/2/4 372/2/4
f 372/2/4 368/2/4 373/2/4
f 369/2/4 370/2/4 374/2/4
f 374/2/4 370/2/4 375/2/4
f 372/2/4 373/2/4 378/2/4
f 374/2/4 375/2/4 379/2/4
f 375/2/4 376/2/4 379/2/4
f 379/2/4 376/2/4 380/2/4
f 374/2/4 379/2/4 381/2/4
f 377/2/4 378/2/4 383/2/4
f 378/2/4 373/2/4 383/2/4
f 373/1/4 374/1/4 383/1/4
f 381/2/4 382/2/4 384/2/4
f 383/1/4 374/1/4 384/1/4
f 374/2/4 381/2/4 384/2/4
f 384/2/4 382/2/4 385/2/4
f 385/2/4 382/2/4 386/2/4
f 377/2/4 383/2/4 387/2/4
f 387/2/4 383/2/4 388/2/4
f 384/2/4 385/2/4 389/2/4
f 389/2/4 385/2/4 390/2/4
f 390/2/4 385/2/4 391/2/4
f 384/2/4 389/2/4 392/2/4
f 392/2/4 389/2/4 393/2/4
f 394/1/4 395/1/4 396/1/4
f 396/1/4 395/1/4 397/1/4
f 398/1/4 399/1/4 400/1/4
f 400/1/4 399/1/4 401/1/4
f 402/2/4 403/2/4 405/2/4
f 405/2/4 403/2/4 406/2/4
f 404/1/4 405/1/4 408/1/4
f 406/1/4 407/1/4 408/1/4
f 405/1/4 406/1/4 408/1/4
f 408/1/4 407/1/4 409/1/4
f 412/1/5 411/1/5 410/1/5
f 413/1/5 411/1/5 412/1/5
f 419/2/5 417/2/5 416/2/5
f 420/2/5 415/2/5 414/2/5
f 421/2/5 415/2/5 420/2/5
f 422/2/5 419/2/5 418/2/5
f 423/2/5 417/2/5 419/2/5
f 423/2/5 419/2/5 422/2/5
f 424/1/5 422/1/5 421/1/5
f 425/1/5 422/1/5 424/1/5
f 430/2/5 427/2/5 426/2/5
f 431/2/5 427/2/5 430/2/5
f 431/1/5 430/1/5 429/1/5
f 432/1/5 428/1/5 427/1/5
f 432/2/5 427/2/5 431/2/5
f 433/1/5 428/1/5 432/1/5
f 434/1/5 431/1/5 429/1/5
f 435/1/5 431/1/5 434/1/5
f 440/2/5 439/2/5 438/2/5
f 441/2/5 439/2/5 440/2/5
f 442/1/5 437/1/5 436/1/5
f 443/1/5 437/1/5 442/1/5
f 446/1/5 445/1/5 444/1/5
f 447/1/5 445/1/5 446/1/5
f 453/2/5 449/2/5 448/2/5
f 454/2/5 449/2/5 453/2/5
f 455/2/5 451/2/5 450/2/5
f 456/2/5 451/2/5 455/2/5
f 457/2/5 453/2/5 452/2/5
f 457/2/5 454/2/5 453/2/5
f 458/2/5 454/2/5 457/2/5
f 461/2/5 460/2/5 459/2/5
f 463/2/5 461/2/5 459/2/5
f 463/2/5 462/2/5 461/2/5
f 464/2/5 462/2/5 463/2/5
f 467/2/5 466/2/5 465/2/5
f 468/2/5 466/2/5 467/2/5
f 471/1/5 470/1/5 469/1/5
f 472/1/5 470/1/5 471/1/5
f 473/1/5 471/1/5 469/1/5
f 474/1/5 470/1/5 472/1/5
f 475/1/5 473/1/5 469/1/5
f 475/1/5 474/1/5 473/1/5
f 476/1/5 470/1/5 474/1/5
f 476/1/5 474/1/5 475/1/5
f 479/2/5 478/2/5 477/2/5
f 480/2/5 478/2/5 479/2/5
f 483/3/5 482/3/5 481/3/5
f 484/3/5 482/3/5 483/3/5
f 489/3/5 486/3/5 485/3/5
f 490/3/5 486/3/5 489/3/5
f 491/3/5 488/3/5 487/3/5
f 492/3/5 488/3/5 491/3/5
f 495/3/5 494/3/5 493/3/5
f 496/3/5 494/3/5 495/3/5
f 499/1/5 498/1/5 497/1/5
f 500/1/5 498/1/5 499/1/5
f 503/2/5 502/2/5 501/2/5
f 504/2/5 502/2/5 503/2/5
f 505/1/6 506/1/6 507/1/6
f 507/1/6 506/1/6 508/1/6
f 509/1/6 510/1/6 511/1/6
f 511/1/6 510/1/6 512/1/6
f 513/1/6 514/1/6 515/1/6
f 515/1/6 514/1/6 516/1/6
f 517/2/6 518/2/6 521/2/6
f 521/2/6 518/2/6 522/2/6
f 519/2/6 520/2/6 523/2/6
f 523/2/6 520/2/6 524/2/6
f 525/2/6 526/2/6 527/2/6
f 527/2/6 526/2/6 528/2/6
f 527/2/6 528/2/6 529/2/6
f 529/2/6 528/2/6 530/2/6
f 531/2/6 532/2/6 533/2/6
f 533/2/6 532/2/6 534/2/6
f 535/2/6 536/2/6 537/2/6
f 537/2/6 536/2/6 538/2/6
f 539/2/6 540/2/6 541/2/6
f 541/2/6 540/2/6 542/2/6
f 542/2/6 540/2/6 543/2/6
f 546/2/6 547/2/6 552/2/6
f 552/2/6 547/2/6 553/2/6
f 548/2/6 549/2/6 554/2/6
f 554/2/6 549/2/6 555/2/6
f 550/2/6 551/2/6 556/2/6
f 556/2/6 551/2/6 557/2/6
f 544/1/6 545/1/6 558/1/6
f 558/1/6 545/1/6 559/1/6
f 560/2/6 561/2/6 562/2/6
f 562/2/6 561/2/6 563/2/6
f 564/3/6 565/3/6 566/3/6
f 566/3/6 565/3/6 567/3/6
f 568/3/6 569/3/6 572/3/6
f 572/3/6 569/3/6 573/3/6
f 570/3/6 571/3/6 574/3/6
f 574/3/6 571/3/6 575/3/6
f 576/3/6 577/3/6 578/3/6
f 578/3/6 577/3/6 579/3/6
f 580/1/6 581/1/6 582/1/6
f 582/1/6 581/1/6 583/1/6
f 580/1/6 582/1/6 584/1/6
f 583/1/6 581/1/6 585/1/6
f 580/1/6 584/1/6 586/1/6
f 584/1/6 585/1/6 586/1/6
f 585/1/6 581/1/6 587/1/6
f 586/1/6 585/1/6 587/1/6
f 588/2/6 589/2/6 590/2/6
f 590/2/6 589/2/6 591/2/6
f 588/2/6 590/2/6 592/2/6
f 592/2/6 590/2/6 593/2/6
f 591/2/6 589/2/6 594/2/6
f 594/2/6 589/2/6 595/2/6
f 596/3/6 597/3/6 598/3/6
f 598/3/6 597/3/6 599/3/6
f 600/1/6 601/1/6 602/1/6
f 602/1/6 601/1/6 603/1/6
