# MagicaVoxel @ Ephtracy

# group
o 

# material
mtllib knight_action_0.mtl
usemtl palette

# normals
vn -1 0 0
vn 1 0 0
vn 0 0 1
vn 0 0 -1
vn 0 -1 0
vn 0 1 0

# texcoords
vt 0.787109 0.5
vt 0.880859 0.5
vt 0.943359 0.5
vt 0.970703 0.5

# verts
v -0.5 1.1 -0.5
v -0.5 1.1 -0.6
v -0.5 1.2 -0.5
v -0.5 1.2 -0.6
v -0.4 1 -0.4
v -0.4 1 -0.7
v -0.4 1.1 -0.5
v -0.4 1.1 -0.6
v -0.4 1.2 -0.5
v -0.4 1.2 -0.6
v -0.4 1.3 -0.4
v -0.4 1.3 -0.7
v -0.3 0.6 -0.1
v -0.3 0.6 -0.4
v -0.3 0.9 -0.2
v -0.3 0.9 -0.4
v -0.3 0.9 -0.5
v -0.3 0.9 -0.6
v -0.3 1 -0.5
v -0.3 1 -0.6
v -0.3 1.1 -2.98023e-08
v -0.3 1.1 -0.1
v -0.3 1.1 -0.2
v -0.3 1.1 -0.4
v -0.3 1.1 -0.7
v -0.3 1.1 -0.8
v -0.3 1.2 -2.98023e-08
v -0.3 1.2 -0.1
v -0.3 1.2 -0.2
v -0.3 1.2 -0.4
v -0.3 1.2 -0.7
v -0.3 1.2 -0.8
v -0.3 1.3 -0.5
v -0.3 1.3 -0.6
v -0.3 1.4 -0.5
v -0.3 1.4 -0.6
v -0.1 0.1 -2.98023e-08
v -0.1 0.1 -0.3
v -0.1 0.4 -2.98023e-08
v -0.1 0.4 -0.3
v -0.1 0.5 -2.98023e-08
v -0.1 0.5 -0.3
v -0.1 0.6 -0.1
v -0.1 0.6 -0.3
v -0.1 0.9 -2.98023e-08
v -0.1 0.9 -0.1
v 5.96046e-08 0 -2.98023e-08
v 5.96046e-08 0 -0.2
v 5.96046e-08 0.1 -2.98023e-08
v 5.96046e-08 0.1 -0.2
v 5.96046e-08 0.4 -2.98023e-08
v 5.96046e-08 0.4 -0.3
v 5.96046e-08 0.5 -2.98023e-08
v 5.96046e-08 0.5 -0.3
v 5.96046e-08 0.9 0.1
v 5.96046e-08 0.9 -2.98023e-08
v 5.96046e-08 0.9 -0.3
v 5.96046e-08 1 0.1
v 5.96046e-08 1 -2.98023e-08
v 5.96046e-08 1 -0.1
v 5.96046e-08 1.1 0.1
v 5.96046e-08 1.1 -2.98023e-08
v 5.96046e-08 1.1 -0.1
v 5.96046e-08 1.2 0.1
v 5.96046e-08 1.2 -0.3
v 0.1 0.2 -2.98023e-08
v 0.1 0.2 -0.1
v 0.1 0.3 -2.98023e-08
v 0.1 0.3 -0.1
v 0.1 1 -0.3
v 0.1 1 -0.4
v 0.1 1.2 -2.98023e-08
v 0.1 1.2 -0.3
v 0.1 1.3 -2.98023e-08
v 0.1 1.3 -0.4
v 0.2 0 -2.98023e-08
v 0.2 0 -0.2
v 0.2 0.1 -2.98023e-08
v 0.2 0.1 -0.1
v 0.2 0.1 -0.2
v 0.2 0.2 -0.1
v 0.2 0.2 -0.2
v 0.3 0.1 -2.98023e-08
v 0.3 0.1 -0.1
v 0.3 0.3 -2.98023e-08
v 0.3 0.3 -0.1
v 0.4 0.6 0.2
v 0.4 0.6 -2.98023e-08
v 0.4 0.7 0.2
v 0.4 0.7 -2.98023e-08
v 0.5 0.4 0.2
v 0.5 0.4 -0.3
v 0.5 0.5 0.1
v 0.5 0.5 -0.2
v 0.5 0.6 0.2
v 0.5 0.6 0.1
v 0.5 0.6 -0.2
v 0.5 0.7 0.2
v 0.5 0.7 0.1
v 0.5 0.7 -0.1
v 0.5 0.7 -0.2
v 0.5 0.7 -0.3
v 0.5 0.9 0.1
v 0.5 0.9 -0.1
v 0.5 0.9 -0.3
v 0.5 1 0.2
v 0.5 1 -0.3
v -0.2 0.6 -0.3
v -0.2 0.6 -0.4
v -0.2 0.9 -0.1
v -0.2 0.9 -0.2
v -0.2 0.9 -0.3
v -0.2 0.9 -0.4
v -0.2 0.9 -0.5
v -0.2 0.9 -0.6
v -0.2 1 -0.5
v -0.2 1 -0.6
v -0.2 1.1 -2.98023e-08
v -0.2 1.1 -0.1
v -0.2 1.1 -0.2
v -0.2 1.1 -0.4
v -0.2 1.1 -0.7
v -0.2 1.1 -0.8
v -0.2 1.2 -2.98023e-08
v -0.2 1.2 -0.1
v -0.2 1.2 -0.2
v -0.2 1.2 -0.4
v -0.2 1.2 -0.7
v -0.2 1.2 -0.8
v -0.2 1.3 -0.5
v -0.2 1.3 -0.6
v -0.2 1.4 -0.5
v -0.2 1.4 -0.6
v -0.1 1 -0.4
v -0.1 1 -0.7
v -0.1 1.1 -0.5
v -0.1 1.1 -0.6
v -0.1 1.2 -0.5
v -0.1 1.2 -0.6
v -0.1 1.3 -0.4
v -0.1 1.3 -0.7
v 5.96046e-08 0.1 -2.98023e-08
v 5.96046e-08 0.1 -0.1
v 5.96046e-08 0.3 -2.98023e-08
v 5.96046e-08 0.3 -0.1
v 5.96046e-08 1.1 -0.5
v 5.96046e-08 1.1 -0.6
v 5.96046e-08 1.2 -0.5
v 5.96046e-08 1.2 -0.6
v 0.1 0 -2.98023e-08
v 0.1 0 -0.2
v 0.1 0.1 -2.98023e-08
v 0.1 0.1 -0.1
v 0.1 0.1 -0.2
v 0.1 0.2 -0.1
v 0.1 0.2 -0.2
v 0.2 0.2 -2.98023e-08
v 0.2 0.2 -0.1
v 0.2 0.3 -2.98023e-08
v 0.2 0.3 -0.1
v 0.2 1 -0.3
v 0.2 1 -0.4
v 0.2 1.2 -2.98023e-08
v 0.2 1.2 -0.3
v 0.2 1.3 -2.98023e-08
v 0.2 1.3 -0.4
v 0.3 0 -2.98023e-08
v 0.3 0 -0.2
v 0.3 0.1 -2.98023e-08
v 0.3 0.1 -0.2
v 0.3 0.4 -2.98023e-08
v 0.3 0.4 -0.3
v 0.3 0.5 -2.98023e-08
v 0.3 0.5 -0.3
v 0.3 0.9 0.1
v 0.3 0.9 -2.98023e-08
v 0.3 0.9 -0.3
v 0.3 1 0.1
v 0.3 1 -2.98023e-08
v 0.3 1 -0.1
v 0.3 1.1 0.1
v 0.3 1.1 -2.98023e-08
v 0.3 1.1 -0.1
v 0.3 1.2 0.1
v 0.3 1.2 -0.3
v 0.4 0.1 -2.98023e-08
v 0.4 0.1 -0.3
v 0.4 0.4 -2.98023e-08
v 0.4 0.4 -0.3
v 0.4 0.5 -2.98023e-08
v 0.4 0.5 -0.3
v 0.4 0.6 -2.98023e-08
v 0.4 0.6 -0.2
v 0.4 0.7 -2.98023e-08
v 0.4 0.7 -0.1
v 0.4 0.7 -0.2
v 0.4 0.7 -0.3
v 0.4 0.9 -2.98023e-08
v 0.4 0.9 -0.1
v 0.6 0.4 0.2
v 0.6 0.4 -0.3
v 0.6 0.5 0.1
v 0.6 0.5 -0.2
v 0.6 0.9 0.1
v 0.6 0.9 -0.2
v 0.6 1 0.2
v 0.6 1 -0.3
v 0.4 0.6 0.2
v 0.4 0.7 0.2
v 0.5 0.4 0.2
v 0.5 0.6 0.2
v 0.5 0.7 0.2
v 0.5 1 0.2
v 0.6 0.4 0.2
v 0.6 1 0.2
v 5.96046e-08 0.9 0.1
v 5.96046e-08 1 0.1
v 5.96046e-08 1.1 0.1
v 5.96046e-08 1.2 0.1
v 0.3 0.9 0.1
v 0.3 1 0.1
v 0.3 1.1 0.1
v 0.3 1.2 0.1
v -0.3 1.1 -2.98023e-08
v -0.3 1.2 -2.98023e-08
v -0.2 1.1 -2.98023e-08
v -0.2 1.2 -2.98023e-08
v -0.1 0.1 -2.98023e-08
v -0.1 0.4 -2.98023e-08
v -0.1 0.5 -2.98023e-08
v -0.1 0.9 -2.98023e-08
v 5.96046e-08 0 -2.98023e-08
v 5.96046e-08 0.1 -2.98023e-08
v 5.96046e-08 0.3 -2.98023e-08
v 5.96046e-08 0.4 -2.98023e-08
v 5.96046e-08 0.5 -2.98023e-08
v 5.96046e-08 0.9 -2.98023e-08
v 5.96046e-08 1 -2.98023e-08
v 5.96046e-08 1.1 -2.98023e-08
v 0.1 0 -2.98023e-08
v 0.1 0.1 -2.98023e-08
v 0.1 0.2 -2.98023e-08
v 0.1 0.3 -2.98023e-08
v 0.1 1.2 -2.98023e-08
v 0.1 1.3 -2.98023e-08
v 0.2 0 -2.98023e-08
v 0.2 0.1 -2.98023e-08
v 0.2 0.2 -2.98023e-08
v 0.2 0.3 -2.98023e-08
v 0.2 1.2 -2.98023e-08
v 0.2 1.3 -2.98023e-08
v 0.3 0 -2.98023e-08
v 0.3 0.1 -2.98023e-08
v 0.3 0.3 -2.98023e-08
v 0.3 0.4 -2.98023e-08
v 0.3 0.5 -2.98023e-08
v 0.3 0.9 -2.98023e-08
v 0.3 1 -2.98023e-08
v 0.3 1.1 -2.98023e-08
v 0.4 0.1 -2.98023e-08
v 0.4 0.4 -2.98023e-08
v 0.4 0.5 -2.98023e-08
v 0.4 0.6 -2.98023e-08
v 0.4 0.7 -2.98023e-08
v 0.4 0.9 -2.98023e-08
v -0.3 0.6 -0.1
v -0.3 1.1 -0.1
v -0.2 0.9 -0.1
v -0.2 1.1 -0.1
v -0.1 0.6 -0.1
v -0.1 0.9 -0.1
v 5.96046e-08 0.1 -0.1
v 5.96046e-08 0.3 -0.1
v 0.1 0.1 -0.1
v 0.1 0.2 -0.1
v 0.1 0.3 -0.1
v 0.2 0.1 -0.1
v 0.2 0.2 -0.1
v 0.2 0.3 -0.1
v 0.3 0.1 -0.1
v 0.3 0.3 -0.1
v 0.4 0.7 -0.1
v 0.4 0.9 -0.1
v 0.5 0.7 -0.1
v 0.5 0.9 -0.1
v 0.1 0.1 -0.2
v 0.1 0.2 -0.2
v 0.2 0.1 -0.2
v 0.2 0.2 -0.2
v -0.4 1 -0.4
v -0.4 1.3 -0.4
v -0.3 1.1 -0.4
v -0.3 1.2 -0.4
v -0.2 1.1 -0.4
v -0.2 1.2 -0.4
v -0.1 1 -0.4
v -0.1 1.3 -0.4
v -0.5 1.1 -0.5
v -0.5 1.2 -0.5
v -0.4 1.1 -0.5
v -0.4 1.2 -0.5
v -0.3 0.9 -0.5
v -0.3 1 -0.5
v -0.3 1.3 -0.5
v -0.3 1.4 -0.5
v -0.2 0.9 -0.5
v -0.2 1 -0.5
v -0.2 1.3 -0.5
v -0.2 1.4 -0.5
v -0.1 1.1 -0.5
v -0.1 1.2 -0.5
v 5.96046e-08 1.1 -0.5
v 5.96046e-08 1.2 -0.5
v -0.3 0.9 -0.2
v -0.3 1.1 -0.2
v -0.2 0.9 -0.2
v -0.2 1.1 -0.2
v 5.96046e-08 0 -0.2
v 5.96046e-08 0.1 -0.2
v 0.1 0 -0.2
v 0.1 0.1 -0.2
v 0.2 0 -0.2
v 0.2 0.1 -0.2
v 0.3 0 -0.2
v 0.3 0.1 -0.2
v 0.4 0.6 -0.2
v 0.4 0.7 -0.2
v 0.5 0.6 -0.2
v 0.5 0.7 -0.2
v -0.2 0.6 -0.3
v -0.2 0.9 -0.3
v -0.1 0.1 -0.3
v -0.1 0.4 -0.3
v -0.1 0.5 -0.3
v -0.1 0.6 -0.3
v 5.96046e-08 0.4 -0.3
v 5.96046e-08 0.5 -0.3
v 5.96046e-08 0.9 -0.3
v 5.96046e-08 1.2 -0.3
v 0.1 1 -0.3
v 0.1 1.2 -0.3
v 0.2 1 -0.3
v 0.2 1.2 -0.3
v 0.3 0.4 -0.3
v 0.3 0.5 -0.3
v 0.3 0.9 -0.3
v 0.3 1.2 -0.3
v 0.4 0.1 -0.3
v 0.4 0.4 -0.3
v 0.4 0.5 -0.3
v 0.4 0.7 -0.3
v 0.5 0.4 -0.3
v 0.5 0.7 -0.3
v 0.5 0.9 -0.3
v 0.5 1 -0.3
v 0.6 0.4 -0.3
v 0.6 1 -0.3
v -0.3 0.6 -0.4
v -0.3 0.9 -0.4
v -0.2 0.6 -0.4
v -0.2 0.9 -0.4
v 0.1 1 -0.4
v 0.1 1.3 -0.4
v 0.2 1 -0.4
v 0.2 1.3 -0.4
v -0.5 1.1 -0.6
v -0.5 1.2 -0.6
v -0.4 1.1 -0.6
v -0.4 1.2 -0.6
v -0.3 0.9 -0.6
v -0.3 1 -0.6
v -0.3 1.3 -0.6
v -0.3 1.4 -0.6
v -0.2 0.9 -0.6
v -0.2 1 -0.6
v -0.2 1.3 -0.6
v -0.2 1.4 -0.6
v -0.1 1.1 -0.6
v -0.1 1.2 -0.6
v 5.96046e-08 1.1 -0.6
v 5.96046e-08 1.2 -0.6
v -0.4 1 -0.7
v -0.4 1.3 -0.7
v -0.3 1.1 -0.7
v -0.3 1.2 -0.7
v -0.2 1.1 -0.7
v -0.2 1.2 -0.7
v -0.1 1 -0.7
v -0.1 1.3 -0.7
v -0.3 1.1 -0.8
v -0.3 1.2 -0.8
v -0.2 1.1 -0.8
v -0.2 1.2 -0.8
v 5.96046e-08 0 -2.98023e-08
v 0.1 0 -2.98023e-08
v 0.2 0 -2.98023e-08
v 0.3 0 -2.98023e-08
v 5.96046e-08 0 -0.2
v 0.1 0 -0.2
v 0.2 0 -0.2
v 0.3 0 -0.2
v -0.1 0.1 -2.98023e-08
v 5.96046e-08 0.1 -2.98023e-08
v 0.3 0.1 -2.98023e-08
v 0.4 0.1 -2.98023e-08
v 5.96046e-08 0.1 -0.2
v 0.1 0.1 -0.2
v 0.2 0.1 -0.2
v 0.3 0.1 -0.2
v -0.1 0.1 -0.3
v 0.4 0.1 -0.3
v 0.1 0.2 -2.98023e-08
v 0.2 0.2 -2.98023e-08
v 0.1 0.2 -0.1
v 0.2 0.2 -0.1
v 0.1 0.2 -0.2
v 0.2 0.2 -0.2
v 5.96046e-08 0.3 -2.98023e-08
v 0.1 0.3 -2.98023e-08
v 0.2 0.3 -2.98023e-08
v 0.3 0.3 -2.98023e-08
v 5.96046e-08 0.3 -0.1
v 0.1 0.3 -0.1
v 0.2 0.3 -0.1
v 0.3 0.3 -0.1
v 0.5 0.4 0.2
v 0.6 0.4 0.2
v 0.5 0.4 -0.3
v 0.6 0.4 -0.3
v -0.1 0.5 -2.98023e-08
v 5.96046e-08 0.5 -2.98023e-08
v 0.3 0.5 -2.98023e-08
v 0.4 0.5 -2.98023e-08
v -0.1 0.5 -0.3
v 5.96046e-08 0.5 -0.3
v 0.3 0.5 -0.3
v 0.4 0.5 -0.3
v 0.4 0.6 0.2
v 0.5 0.6 0.2
v 0.5 0.6 0.1
v 0.4 0.6 -2.98023e-08
v -0.3 0.6 -0.1
v -0.1 0.6 -0.1
v 0.4 0.6 -0.2
v 0.5 0.6 -0.2
v -0.2 0.6 -0.3
v -0.1 0.6 -0.3
v -0.3 0.6 -0.4
v -0.2 0.6 -0.4
v 0.4 0.7 -0.2
v 0.5 0.7 -0.2
v 0.4 0.7 -0.3
v 0.5 0.7 -0.3
v 5.96046e-08 0.9 0.1
v 0.3 0.9 0.1
v 5.96046e-08 0.9 -2.98023e-08
v 0.3 0.9 -2.98023e-08
v -0.3 0.9 -0.5
v -0.2 0.9 -0.5
v -0.3 0.9 -0.6
v -0.2 0.9 -0.6
v 0.1 1 -0.3
v 0.2 1 -0.3
v -0.4 1 -0.4
v -0.1 1 -0.4
v 0.1 1 -0.4
v 0.2 1 -0.4
v -0.3 1 -0.5
v -0.2 1 -0.5
v -0.3 1 -0.6
v -0.2 1 -0.6
v -0.4 1 -0.7
v -0.1 1 -0.7
v 5.96046e-08 1.1 0.1
v 0.3 1.1 0.1
v -0.3 1.1 -2.98023e-08
v -0.2 1.1 -2.98023e-08
v 5.96046e-08 1.1 -2.98023e-08
v 0.3 1.1 -2.98023e-08
v -0.3 1.1 -0.1
v -0.2 1.1 -0.1
v -0.3 1.1 -0.2
v -0.2 1.1 -0.2
v -0.3 1.1 -0.4
v -0.2 1.1 -0.4
v -0.5 1.1 -0.5
v -0.4 1.1 -0.5
v -0.1 1.1 -0.5
v 5.96046e-08 1.1 -0.5
v -0.5 1.1 -0.6
v -0.4 1.1 -0.6
v -0.1 1.1 -0.6
v 5.96046e-08 1.1 -0.6
v -0.3 1.1 -0.7
v -0.2 1.1 -0.7
v -0.3 1.1 -0.8
v -0.2 1.1 -0.8
v 5.96046e-08 0.1 -2.98023e-08
v 0.1 0.1 -2.98023e-08
v 0.2 0.1 -2.98023e-08
v 0.3 0.1 -2.98023e-08
v 5.96046e-08 0.1 -0.1
v 0.1 0.1 -0.1
v 0.2 0.1 -0.1
v 0.3 0.1 -0.1
v -0.1 0.4 -2.98023e-08
v 5.96046e-08 0.4 -2.98023e-08
v 0.3 0.4 -2.98023e-08
v 0.4 0.4 -2.98023e-08
v -0.1 0.4 -0.3
v 5.96046e-08 0.4 -0.3
v 0.3 0.4 -0.3
v 0.4 0.4 -0.3
v 0.4 0.7 0.2
v 0.5 0.7 0.2
v 0.5 0.7 0.1
v 0.4 0.7 -2.98023e-08
v 0.4 0.7 -0.1
v 0.5 0.7 -0.1
v -0.1 0.9 -2.98023e-08
v 5.96046e-08 0.9 -2.98023e-08
v 0.3 0.9 -2.98023e-08
v 0.4 0.9 -2.98023e-08
v -0.2 0.9 -0.1
v -0.1 0.9 -0.1
v 0.4 0.9 -0.1
v 0.5 0.9 -0.1
v -0.3 0.9 -0.2
v -0.2 0.9 -0.2
v -0.2 0.9 -0.3
v 5.96046e-08 0.9 -0.3
v 0.3 0.9 -0.3
v 0.5 0.9 -0.3
v -0.3 0.9 -0.4
v -0.2 0.9 -0.4
v 0.5 1 0.2
v 0.6 1 0.2
v 5.96046e-08 1 0.1
v 0.3 1 0.1
v 5.96046e-08 1 -2.98023e-08
v 0.3 1 -2.98023e-08
v 0.5 1 -0.3
v 0.6 1 -0.3
v 5.96046e-08 1.2 0.1
v 0.3 1.2 0.1
v -0.3 1.2 -2.98023e-08
v -0.2 1.2 -2.98023e-08
v 0.1 1.2 -2.98023e-08
v 0.2 1.2 -2.98023e-08
v -0.3 1.2 -0.1
v -0.2 1.2 -0.1
v -0.3 1.2 -0.2
v -0.2 1.2 -0.2
v 5.96046e-08 1.2 -0.3
v 0.1 1.2 -0.3
v 0.2 1.2 -0.3
v 0.3 1.2 -0.3
v -0.3 1.2 -0.4
v -0.2 1.2 -0.4
v -0.5 1.2 -0.5
v -0.4 1.2 -0.5
v -0.1 1.2 -0.5
v 5.96046e-08 1.2 -0.5
v -0.5 1.2 -0.6
v -0.4 1.2 -0.6
v -0.1 1.2 -0.6
v 5.96046e-08 1.2 -0.6
v -0.3 1.2 -0.7
v -0.2 1.2 -0.7
v -0.3 1.2 -0.8
v -0.2 1.2 -0.8
v 0.1 1.3 -2.98023e-08
v 0.2 1.3 -2.98023e-08
v -0.4 1.3 -0.4
v -0.1 1.3 -0.4
v 0.1 1.3 -0.4
v 0.2 1.3 -0.4
v -0.3 1.3 -0.5
v -0.2 1.3 -0.5
v -0.3 1.3 -0.6
v -0.2 1.3 -0.6
v -0.4 1.3 -0.7
v -0.1 1.3 -0.7
v -0.3 1.4 -0.5
v -0.2 1.4 -0.5
v -0.3 1.4 -0.6
v -0.2 1.4 -0.6

# faces
f 3/3/1 2/3/1 1/3/1
f 4/3/1 2/3/1 3/3/1
f 7/1/1 6/1/1 5/1/1
f 8/1/1 6/1/1 7/1/1
f 9/1/1 7/1/1 5/1/1
f 10/1/1 6/1/1 8/1/1
f 11/1/1 9/1/1 5/1/1
f 11/1/1 10/1/1 9/1/1
f 12/1/1 6/1/1 10/1/1
f 12/1/1 10/1/1 11/1/1
f 15/2/1 14/2/1 13/2/1
f 16/2/1 14/2/1 15/2/1
f 19/3/1 18/3/1 17/3/1
f 20/3/1 18/3/1 19/3/1
f 22/2/1 15/2/1 13/2/1
f 23/2/1 15/2/1 22/2/1
f 27/1/1 22/1/1 21/1/1
f 28/2/1 23/2/1 22/2/1
f 28/1/1 22/1/1 27/1/1
f 29/1/1 24/1/1 23/1/1
f 29/2/1 23/2/1 28/2/1
f 30/1/1 24/1/1 29/1/1
f 31/3/1 26/3/1 25/3/1
f 32/3/1 26/3/1 31/3/1
f 35/3/1 34/3/1 33/3/1
f 36/3/1 34/3/1 35/3/1
f 39/2/1 38/2/1 37/2/1
f 40/2/1 38/2/1 39/2/1
f 43/2/1 42/2/1 41/2/1
f 44/2/1 42/2/1 43/2/1
f 45/2/1 43/2/1 41/2/1
f 46/2/1 43/2/1 45/2/1
f 49/1/1 48/1/1 47/1/1
f 50/1/1 48/1/1 49/1/1
f 53/1/1 52/1/1 51/1/1
f 54/1/1 52/1/1 53/1/1
f 58/2/1 56/2/1 55/2/1
f 58/2/1 57/2/1 56/2/1
f 59/2/1 57/2/1 58/2/1
f 60/2/1 57/2/1 59/2/1
f 62/4/1 60/4/1 59/4/1
f 63/2/1 57/2/1 60/2/1
f 63/4/1 60/4/1 62/4/1
f 64/2/1 62/2/1 61/2/1
f 64/2/1 63/2/1 62/2/1
f 65/2/1 57/2/1 63/2/1
f 65/2/1 63/2/1 64/2/1
f 68/2/1 67/2/1 66/2/1
f 69/2/1 67/2/1 68/2/1
f 73/1/1 71/1/1 70/1/1
f 74/1/1 73/1/1 72/1/1
f 75/1/1 71/1/1 73/1/1
f 75/1/1 73/1/1 74/1/1
f 78/1/1 77/1/1 76/1/1
f 79/1/1 77/1/1 78/1/1
f 80/1/1 77/1/1 79/1/1
f 81/1/1 80/1/1 79/1/1
f 82/1/1 80/1/1 81/1/1
f 85/2/1 84/2/1 83/2/1
f 86/2/1 84/2/1 85/2/1
f 89/2/1 88/2/1 87/2/1
f 90/2/1 88/2/1 89/2/1
f 93/1/1 92/1/1 91/1/1
f 94/1/1 92/1/1 93/1/1
f 95/1/1 93/1/1 91/1/1
f 96/3/1 94/3/1 93/3/1
f 96/1/1 93/1/1 95/1/1
f 97/1/1 92/1/1 94/1/1
f 97/3/1 94/3/1 96/3/1
f 101/1/1 92/1/1 97/1/1
f 102/1/1 92/1/1 101/1/1
f 103/3/1 100/3/1 99/3/1
f 103/1/1 99/1/1 98/1/1
f 104/3/1 100/3/1 103/3/1
f 106/1/1 103/1/1 98/1/1
f 106/1/1 105/1/1 104/1/1
f 106/1/1 104/1/1 103/1/1
f 107/1/1 105/1/1 106/1/1
f 108/2/2 109/2/2 112/2/2
f 112/2/2 109/2/2 113/2/2
f 114/3/2 115/3/2 116/3/2
f 116/3/2 115/3/2 117/3/2
f 110/2/2 111/2/2 119/2/2
f 119/2/2 111/2/2 120/2/2
f 118/1/2 119/1/2 124/1/2
f 119/2/2 120/2/2 125/2/2
f 124/1/2 119/1/2 125/1/2
f 120/1/2 121/1/2 126/1/2
f 125/2/2 120/2/2 126/2/2
f 126/1/2 121/1/2 127/1/2
f 122/3/2 123/3/2 128/3/2
f 128/3/2 123/3/2 129/3/2
f 130/3/2 131/3/2 132/3/2
f 132/3/2 131/3/2 133/3/2
f 134/1/2 135/1/2 136/1/2
f 136/1/2 135/1/2 137/1/2
f 134/1/2 136/1/2 138/1/2
f 137/1/2 135/1/2 139/1/2
f 134/1/2 138/1/2 140/1/2
f 138/1/2 139/1/2 140/1/2
f 139/1/2 135/1/2 141/1/2
f 140/1/2 139/1/2 141/1/2
f 142/2/2 143/2/2 144/2/2
f 144/2/2 143/2/2 145/2/2
f 146/3/2 147/3/2 148/3/2
f 148/3/2 147/3/2 149/3/2
f 150/1/2 151/1/2 152/1/2
f 152/1/2 151/1/2 153/1/2
f 153/1/2 151/1/2 154/1/2
f 153/1/2 154/1/2 155/1/2
f 155/1/2 154/1/2 156/1/2
f 157/2/2 158/2/2 159/2/2
f 159/2/2 158/2/2 160/2/2
f 161/1/2 162/1/2 164/1/2
f 163/1/2 164/1/2 165/1/2
f 164/1/2 162/1/2 166/1/2
f 165/1/2 164/1/2 166/1/2
f 167/1/2 168/1/2 169/1/2
f 169/1/2 168/1/2 170/1/2
f 171/1/2 172/1/2 173/1/2
f 173/1/2 172/1/2 174/1/2
f 175/2/2 176/2/2 178/2/2
f 176/2/2 177/2/2 178/2/2
f 178/2/2 177/2/2 179/2/2
f 179/2/2 177/2/2 180/2/2
f 179/4/2 180/4/2 182/4/2
f 180/2/2 177/2/2 183/2/2
f 182/4/2 180/4/2 183/4/2
f 181/2/2 182/2/2 184/2/2
f 182/2/2 183/2/2 184/2/2
f 183/2/2 177/2/2 185/2/2
f 184/2/2 183/2/2 185/2/2
f 186/2/2 187/2/2 188/2/2
f 188/2/2 187/2/2 189/2/2
f 190/2/2 191/2/2 192/2/2
f 192/2/2 191/2/2 193/2/2
f 193/2/2 191/2/2 196/2/2
f 196/2/2 191/2/2 197/2/2
f 194/2/2 195/2/2 198/2/2
f 198/2/2 195/2/2 199/2/2
f 200/1/2 201/1/2 202/1/2
f 202/1/2 201/1/2 203/1/2
f 200/1/2 202/1/2 204/1/2
f 202/3/2 203/3/2 204/3/2
f 203/1/2 201/1/2 205/1/2
f 204/3/2 203/3/2 205/3/2
f 200/1/2 204/1/2 206/1/2
f 204/1/2 205/1/2 206/1/2
f 205/1/2 201/1/2 207/1/2
f 206/1/2 205/1/2 207/1/2
f 211/2/3 209/2/3 208/2/3
f 212/2/3 209/2/3 211/2/3
f 214/1/3 211/1/3 210/1/3
f 214/1/3 213/1/3 212/1/3
f 214/1/3 212/1/3 211/1/3
f 215/1/3 213/1/3 214/1/3
f 220/2/3 217/2/3 216/2/3
f 221/2/3 217/2/3 220/2/3
f 222/2/3 219/2/3 218/2/3
f 223/2/3 219/2/3 222/2/3
f 226/1/3 225/1/3 224/1/3
f 227/1/3 225/1/3 226/1/3
f 233/2/3 229/2/3 228/2/3
f 234/2/3 229/2/3 233/2/3
f 235/2/3 229/2/3 234/2/3
f 236/2/3 231/2/3 230/2/3
f 237/2/3 231/2/3 236/2/3
f 240/1/3 233/1/3 232/1/3
f 241/1/3 233/1/3 240/1/3
f 243/2/3 235/2/3 234/2/3
f 248/2/3 243/2/3 242/2/3
f 249/2/3 235/2/3 243/2/3
f 249/2/3 243/2/3 248/2/3
f 250/1/3 245/1/3 244/1/3
f 251/1/3 245/1/3 250/1/3
f 252/1/3 247/1/3 246/1/3
f 253/1/3 247/1/3 252/1/3
f 254/2/3 235/2/3 249/2/3
f 255/1/3 236/1/3 235/1/3
f 255/2/3 235/2/3 254/2/3
f 256/2/3 237/2/3 236/2/3
f 256/1/3 236/1/3 255/1/3
f 257/2/3 237/2/3 256/2/3
f 258/4/3 239/4/3 238/4/3
f 259/4/3 239/4/3 258/4/3
f 260/2/3 255/2/3 254/2/3
f 260/2/3 254/2/3 253/2/3
f 261/2/3 255/2/3 260/2/3
f 262/2/3 257/2/3 256/2/3
f 263/2/3 257/2/3 262/2/3
f 264/2/3 257/2/3 263/2/3
f 265/2/3 257/2/3 264/2/3
f 268/2/3 267/2/3 266/2/3
f 269/2/3 267/2/3 268/2/3
f 270/2/3 268/2/3 266/2/3
f 271/2/3 268/2/3 270/2/3
f 274/1/3 273/1/3 272/1/3
f 275/1/3 273/1/3 274/1/3
f 276/1/3 273/1/3 275/1/3
f 280/1/3 278/1/3 277/1/3
f 280/1/3 279/1/3 278/1/3
f 281/1/3 279/1/3 280/1/3
f 284/2/3 283/2/3 282/2/3
f 285/2/3 283/2/3 284/2/3
f 288/2/3 287/2/3 286/2/3
f 289/2/3 287/2/3 288/2/3
f 292/1/3 291/1/3 290/1/3
f 293/1/3 291/1/3 292/1/3
f 294/1/3 292/1/3 290/1/3
f 295/1/3 291/1/3 293/1/3
f 296/1/3 294/1/3 290/1/3
f 296/1/3 295/1/3 294/1/3
f 297/1/3 291/1/3 295/1/3
f 297/1/3 295/1/3 296/1/3
f 300/3/3 299/3/3 298/3/3
f 301/3/3 299/3/3 300/3/3
f 306/3/3 303/3/3 302/3/3
f 307/3/3 303/3/3 306/3/3
f 308/3/3 305/3/3 304/3/3
f 309/3/3 305/3/3 308/3/3
f 312/3/3 311/3/3 310/3/3
f 313/3/3 311/3/3 312/3/3
f 314/2/4 315/2/4 316/2/4
f 316/2/4 315/2/4 317/2/4
f 318/1/4 319/1/4 320/1/4
f 320/1/4 319/1/4 321/1/4
f 322/1/4 323/1/4 324/1/4
f 324/1/4 323/1/4 325/1/4
f 326/2/4 327/2/4 328/2/4
f 328/2/4 327/2/4 329/2/4
f 330/2/4 331/2/4 335/2/4
f 332/2/4 333/2/4 336/2/4
f 334/2/4 335/2/4 337/2/4
f 335/2/4 331/2/4 338/2/4
f 337/2/4 335/2/4 338/2/4
f 337/2/4 338/2/4 340/2/4
f 338/2/4 339/2/4 340/2/4
f 340/2/4 339/2/4 341/2/4
f 337/2/4 340/2/4 342/2/4
f 332/2/4 336/2/4 344/2/4
f 336/1/4 337/1/4 344/1/4
f 342/2/4 343/2/4 345/2/4
f 344/1/4 337/1/4 345/1/4
f 337/2/4 342/2/4 345/2/4
f 345/2/4 343/2/4 346/2/4
f 346/2/4 343/2/4 347/2/4
f 332/2/4 344/2/4 348/2/4
f 348/2/4 344/2/4 349/2/4
f 345/2/4 346/2/4 350/2/4
f 350/2/4 346/2/4 351/2/4
f 351/2/4 346/2/4 353/2/4
f 353/2/4 346/2/4 354/2/4
f 352/1/4 353/1/4 356/1/4
f 354/1/4 355/1/4 356/1/4
f 353/1/4 354/1/4 356/1/4
f 356/1/4 355/1/4 357/1/4
f 358/2/4 359/2/4 360/2/4
f 360/2/4 359/2/4 361/2/4
f 362/1/4 363/1/4 364/1/4
f 364/1/4 363/1/4 365/1/4
f 366/3/4 367/3/4 368/3/4
f 368/3/4 367/3/4 369/3/4
f 370/3/4 371/3/4 374/3/4
f 374/3/4 371/3/4 375/3/4
f 372/3/4 373/3/4 376/3/4
f 376/3/4 373/3/4 377/3/4
f 378/3/4 379/3/4 380/3/4
f 380/3/4 379/3/4 381/3/4
f 382/1/4 383/1/4 384/1/4
f 384/1/4 383/1/4 385/1/4
f 382/1/4 384/1/4 386/1/4
f 385/1/4 383/1/4 387/1/4
f 382/1/4 386/1/4 388/1/4
f 386/1/4 387/1/4 388/1/4
f 387/1/4 383/1/4 389/1/4
f 388/1/4 387/1/4 389/1/4
f 390/3/4 391/3/4 392/3/4
f 392/3/4 391/3/4 393/3/4
f 398/1/5 395/1/5 394/1/5
f 399/1/5 395/1/5 398/1/5
f 400/1/5 397/1/5 396/1/5
f 401/1/5 397/1/5 400/1/5
f 406/2/5 403/2/5 402/2/5
f 409/2/5 405/2/5 404/2/5
f 410/2/5 408/2/5 407/2/5
f 410/2/5 409/2/5 408/2/5
f 410/2/5 406/2/5 402/2/5
f 410/2/5 407/2/5 406/2/5
f 411/2/5 405/2/5 409/2/5
f 411/2/5 409/2/5 410/2/5
f 414/2/5 413/2/5 412/2/5
f 415/2/5 413/2/5 414/2/5
f 416/2/5 415/2/5 414/2/5
f 417/2/5 415/2/5 416/2/5
f 422/2/5 419/2/5 418/2/5
f 423/2/5 419/2/5 422/2/5
f 424/2/5 421/2/5 420/2/5
f 425/2/5 421/2/5 424/2/5
f 428/1/5 427/1/5 426/1/5
f 429/1/5 427/1/5 428/1/5
f 434/2/5 431/2/5 430/2/5
f 435/2/5 431/2/5 434/2/5
f 436/2/5 433/2/5 432/2/5
f 437/2/5 433/2/5 436/2/5
f 440/2/5 439/2/5 438/2/5
f 441/2/5 440/2/5 438/2/5
f 444/2/5 440/2/5 441/2/5
f 445/2/5 440/2/5 444/2/5
f 446/2/5 443/2/5 442/2/5
f 447/2/5 443/2/5 446/2/5
f 448/2/5 446/2/5 442/2/5
f 449/2/5 446/2/5 448/2/5
f 452/2/5 451/2/5 450/2/5
f 453/2/5 451/2/5 452/2/5
f 456/2/5 455/2/5 454/2/5
f 457/2/5 455/2/5 456/2/5
f 460/3/5 459/3/5 458/3/5
f 461/3/5 459/3/5 460/3/5
f 466/1/5 463/1/5 462/1/5
f 467/1/5 463/1/5 466/1/5
f 468/1/5 465/1/5 464/1/5
f 469/1/5 465/1/5 468/1/5
f 470/1/5 468/1/5 464/1/5
f 471/1/5 465/1/5 469/1/5
f 472/1/5 470/1/5 464/1/5
f 472/1/5 471/1/5 470/1/5
f 473/1/5 465/1/5 471/1/5
f 473/1/5 471/1/5 472/1/5
f 478/2/5 475/2/5 474/2/5
f 479/2/5 475/2/5 478/2/5
f 480/1/5 477/1/5 476/1/5
f 481/1/5 477/1/5 480/1/5
f 484/1/5 483/1/5 482/1/5
f 485/1/5 483/1/5 484/1/5
f 490/3/5 487/3/5 486/3/5
f 491/3/5 487/3/5 490/3/5
f 492/3/5 489/3/5 488/3/5
f 493/3/5 489/3/5 492/3/5
f 496/3/5 495/3/5 494/3/5
f 497/3/5 495/3/5 496/3/5
f 498/1/6 499/1/6 502/1/6
f 502/1/6 499/1/6 503/1/6
f 500/1/6 501/1/6 504/1/6
f 504/1/6 501/1/6 505/1/6
f 506/2/6 507/2/6 510/2/6
f 510/2/6 507/2/6 511/2/6
f 508/2/6 509/2/6 512/2/6
f 512/2/6 509/2/6 513/2/6
f 514/2/6 515/2/6 516/2/6
f 514/2/6 516/2/6 517/2/6
f 517/2/6 516/2/6 518/2/6
f 518/2/6 516/2/6 519/2/6
f 520/2/6 521/2/6 525/2/6
f 522/2/6 523/2/6 526/2/6
f 524/2/6 525/2/6 529/2/6
f 529/2/6 525/2/6 530/2/6
f 528/2/6 529/2/6 530/2/6
f 525/2/6 521/2/6 531/2/6
f 530/2/6 525/2/6 531/2/6
f 526/2/6 527/2/6 532/2/6
f 522/2/6 526/2/6 532/2/6
f 532/2/6 527/2/6 533/2/6
f 528/2/6 530/2/6 534/2/6
f 534/2/6 530/2/6 535/2/6
f 538/2/6 539/2/6 540/2/6
f 540/2/6 539/2/6 541/2/6
f 536/1/6 537/1/6 542/1/6
f 542/1/6 537/1/6 543/1/6
f 544/2/6 545/2/6 548/2/6
f 548/2/6 545/2/6 549/2/6
f 546/1/6 547/1/6 550/1/6
f 550/1/6 547/1/6 551/1/6
f 550/2/6 551/2/6 552/2/6
f 552/2/6 551/2/6 553/2/6
f 544/2/6 548/2/6 554/2/6
f 554/2/6 548/2/6 555/2/6
f 549/2/6 545/2/6 556/2/6
f 556/2/6 545/2/6 557/2/6
f 552/1/6 553/1/6 558/1/6
f 558/1/6 553/1/6 559/1/6
f 560/3/6 561/3/6 564/3/6
f 564/3/6 561/3/6 565/3/6
f 562/3/6 563/3/6 566/3/6
f 566/3/6 563/3/6 567/3/6
f 568/3/6 569/3/6 570/3/6
f 570/3/6 569/3/6 571/3/6
f 572/1/6 573/1/6 576/1/6
f 576/1/6 573/1/6 577/1/6
f 574/1/6 575/1/6 578/1/6
f 578/1/6 575/1/6 579/1/6
f 574/1/6 578/1/6 580/1/6
f 579/1/6 575/1/6 581/1/6
f 574/1/6 580/1/6 582/1/6
f 580/1/6 581/1/6 582/1/6
f 581/1/6 575/1/6 583/1/6
f 582/1/6 581/1/6 583/1/6
f 584/3/6 585/3/6 586/3/6
f 586/3/6 585/3/6 587/3/6
