# MagicaVoxel @ Ephtracy

# group
o 

# material
mtllib knight_walk_0.mtl
usemtl palette

# normals
vn -1 0 0
vn 1 0 0
vn 0 0 1
vn 0 0 -1
vn 0 -1 0
vn 0 1 0

# texcoords
vt 0.787109 0.5
vt 0.880859 0.5
vt 0.943359 0.5
vt 0.970703 0.5

# verts
v -0.5 1 0.1
v -0.5 1 0
v -0.5 1.1 0.1
v -0.5 1.1 0
v -0.4 0.9 0.2
v -0.4 0.9 -0.1
v -0.4 1 0.1
v -0.4 1 0
v -0.4 1.1 0.1
v -0.4 1.1 0
v -0.4 1.2 0.2
v -0.4 1.2 -0.1
v -0.3 0.5 0.1
v -0.3 0.5 0
v -0.3 0.6 0.1
v -0.3 0.6 0
v -0.3 0.6 -0.4
v -0.3 0.7 0.1
v -0.3 0.7 0
v -0.3 0.7 -0.2
v -0.3 0.9 0.1
v -0.3 0.9 0
v -0.3 0.9 -0.2
v -0.3 0.9 -0.4
v -0.3 1 0.3
v -0.3 1 0.2
v -0.3 1 -0.1
v -0.3 1 -0.2
v -0.3 1.1 0.3
v -0.3 1.1 0.2
v -0.3 1.1 -0.1
v -0.3 1.1 -0.2
v -0.3 1.2 0.1
v -0.3 1.2 0
v -0.3 1.3 0.1
v -0.3 1.3 0
v -0.1 0.1 0
v -0.1 0.1 -0.3
v -0.1 0.4 0
v -0.1 0.4 -0.3
v -0.1 0.5 0
v -0.1 0.5 -0.3
v -0.1 0.6 -0.2
v -0.1 0.6 -0.3
v -0.1 0.8 -0.2
v -0.1 0.8 -0.3
v -0.1 0.9 0
v -0.1 0.9 -0.1
v -0.1 0.9 -0.3
v 5.96046e-08 0 0.2
v 5.96046e-08 0 0
v 5.96046e-08 0.1 0.2
v 5.96046e-08 0.1 0.1
v 5.96046e-08 0.1 0
v 5.96046e-08 0.3 0.1
v 5.96046e-08 0.3 0
v 5.96046e-08 0.4 0
v 5.96046e-08 0.4 -0.3
v 5.96046e-08 0.5 0
v 5.96046e-08 0.5 -0.3
v 5.96046e-08 0.9 0.1
v 5.96046e-08 0.9 0
v 5.96046e-08 0.9 -0.3
v 5.96046e-08 1 0.1
v 5.96046e-08 1 0
v 5.96046e-08 1 -0.1
v 5.96046e-08 1.1 0.1
v 5.96046e-08 1.1 0
v 5.96046e-08 1.1 -0.1
v 5.96046e-08 1.2 0.1
v 5.96046e-08 1.2 -0.3
v 0.1 1 -0.3
v 0.1 1 -0.4
v 0.1 1.2 0
v 0.1 1.2 -0.3
v 0.1 1.3 0
v 0.1 1.3 -0.4
v 0.2 0.1 -0.3
v 0.2 0.1 -0.4
v 0.2 0.3 -0.3
v 0.2 0.3 -0.4
v 0.3 0.1 0
v 0.3 0.1 -0.3
v 0.3 0.2 -0.1
v 0.3 0.2 -0.3
v 0.3 0.3 0
v 0.3 0.3 -0.1
v 0.4 0.5 0.4
v 0.4 0.5 0
v 0.4 0.6 0.4
v 0.4 0.6 0.1
v 0.4 0.8 0.1
v 0.4 0.8 0
v 0.5 0.3 0.4
v 0.5 0.3 -0.1
v 0.5 0.4 0.3
v 0.5 0.4 0
v 0.5 0.5 0.4
v 0.5 0.5 0.3
v 0.5 0.5 0
v 0.5 0.6 0.4
v 0.5 0.6 0.3
v 0.5 0.6 0.1
v 0.5 0.6 0
v 0.5 0.6 -0.1
v 0.5 0.8 0.3
v 0.5 0.8 0.1
v 0.5 0.8 -0.1
v 0.5 0.9 0.4
v 0.5 0.9 -0.1
v -0.2 0.5 0.1
v -0.2 0.5 0
v -0.2 0.6 0.1
v -0.2 0.6 0
v -0.2 0.6 -0.2
v -0.2 0.7 0.1
v -0.2 0.7 0
v -0.2 0.7 -0.2
v -0.2 0.8 -0.2
v -0.2 0.8 -0.4
v -0.2 0.9 0.1
v -0.2 0.9 0
v -0.2 0.9 -0.2
v -0.2 0.9 -0.4
v -0.2 1 0.3
v -0.2 1 0.2
v -0.2 1 -0.1
v -0.2 1 -0.2
v -0.2 1.1 0.3
v -0.2 1.1 0.2
v -0.2 1.1 -0.1
v -0.2 1.1 -0.2
v -0.2 1.2 0.1
v -0.2 1.2 0
v -0.2 1.3 0.1
v -0.2 1.3 0
v -0.1 0.6 -0.3
v -0.1 0.6 -0.4
v -0.1 0.8 -0.3
v -0.1 0.8 -0.4
v -0.1 0.9 0.2
v -0.1 0.9 0
v -0.1 0.9 -0.1
v -0.1 1 0.1
v -0.1 1 0
v -0.1 1.1 0.1
v -0.1 1.1 0
v -0.1 1.2 0.2
v -0.1 1.2 -0.1
v 5.96046e-08 0.1 0
v 5.96046e-08 0.1 -0.2
v 5.96046e-08 0.2 0
v 5.96046e-08 0.2 -0.2
v 5.96046e-08 1 0.1
v 5.96046e-08 1 0
v 5.96046e-08 1.1 0.1
v 5.96046e-08 1.1 0
v 0.1 0 0.2
v 0.1 0 0
v 0.1 0.1 0.2
v 0.1 0.1 0.1
v 0.1 0.2 0
v 0.1 0.3 0.1
v 0.1 0.3 0
v 0.2 0.1 -0.2
v 0.2 0.1 -0.3
v 0.2 0.2 0
v 0.2 0.2 -0.1
v 0.2 0.2 -0.2
v 0.2 0.2 -0.3
v 0.2 0.3 0
v 0.2 0.3 -0.1
v 0.2 1 -0.3
v 0.2 1 -0.4
v 0.2 1.2 0
v 0.2 1.2 -0.3
v 0.2 1.3 0
v 0.2 1.3 -0.4
v 0.3 0.1 -0.3
v 0.3 0.1 -0.4
v 0.3 0.3 -0.3
v 0.3 0.3 -0.4
v 0.3 0.4 0
v 0.3 0.4 -0.3
v 0.3 0.5 0
v 0.3 0.5 -0.3
v 0.3 0.9 0.1
v 0.3 0.9 0
v 0.3 0.9 -0.3
v 0.3 1 0.1
v 0.3 1 0
v 0.3 1 -0.1
v 0.3 1.1 0.1
v 0.3 1.1 0
v 0.3 1.1 -0.1
v 0.3 1.2 0.1
v 0.3 1.2 -0.3
v 0.4 0.1 0
v 0.4 0.1 -0.3
v 0.4 0.4 0
v 0.4 0.4 -0.3
v 0.4 0.5 0
v 0.4 0.5 -0.3
v 0.4 0.6 0
v 0.4 0.6 -0.1
v 0.4 0.8 0
v 0.4 0.8 -0.1
v 0.4 0.9 0
v 0.4 0.9 -0.3
v 0.6 0.3 0.4
v 0.6 0.3 -0.1
v 0.6 0.4 0.3
v 0.6 0.4 0
v 0.6 0.8 0.3
v 0.6 0.8 0
v 0.6 0.9 0.4
v 0.6 0.9 -0.1
v 0.4 0.5 0.4
v 0.4 0.6 0.4
v 0.5 0.3 0.4
v 0.5 0.5 0.4
v 0.5 0.6 0.4
v 0.5 0.9 0.4
v 0.6 0.3 0.4
v 0.6 0.9 0.4
v -0.3 1 0.3
v -0.3 1.1 0.3
v -0.2 1 0.3
v -0.2 1.1 0.3
v -0.4 0.9 0.2
v -0.4 1.2 0.2
v -0.3 1 0.2
v -0.3 1.1 0.2
v -0.2 1 0.2
v -0.2 1.1 0.2
v -0.1 0.9 0.2
v -0.1 1.2 0.2
v 5.96046e-08 0 0.2
v 5.96046e-08 0.1 0.2
v 0.1 0 0.2
v 0.1 0.1 0.2
v -0.5 1 0.1
v -0.5 1.1 0.1
v -0.4 1 0.1
v -0.4 1.1 0.1
v -0.3 0.5 0.1
v -0.3 0.6 0.1
v -0.3 0.7 0.1
v -0.3 0.9 0.1
v -0.3 1.2 0.1
v -0.3 1.3 0.1
v -0.2 0.5 0.1
v -0.2 0.6 0.1
v -0.2 0.7 0.1
v -0.2 0.9 0.1
v -0.2 1.2 0.1
v -0.2 1.3 0.1
v -0.1 1 0.1
v -0.1 1.1 0.1
v 5.96046e-08 0.1 0.1
v 5.96046e-08 0.3 0.1
v 5.96046e-08 0.9 0.1
v 5.96046e-08 1 0.1
v 5.96046e-08 1.1 0.1
v 5.96046e-08 1.2 0.1
v 0.1 0.1 0.1
v 0.1 0.3 0.1
v 0.3 0.9 0.1
v 0.3 1 0.1
v 0.3 1.1 0.1
v 0.3 1.2 0.1
v 0.4 0.6 0.1
v 0.4 0.8 0.1
v 0.5 0.6 0.1
v 0.5 0.8 0.1
v -0.1 0.1 0
v -0.1 0.4 0
v -0.1 0.5 0
v -0.1 0.9 0
v 5.96046e-08 0.1 0
v 5.96046e-08 0.3 0
v 5.96046e-08 0.4 0
v 5.96046e-08 0.5 0
v 5.96046e-08 0.9 0
v 5.96046e-08 1 0
v 5.96046e-08 1.1 0
v 0.1 0.2 0
v 0.1 0.3 0
v 0.1 1.2 0
v 0.1 1.3 0
v 0.2 0.2 0
v 0.2 0.3 0
v 0.2 1.2 0
v 0.2 1.3 0
v 0.3 0.1 0
v 0.3 0.3 0
v 0.3 0.4 0
v 0.3 0.5 0
v 0.3 0.9 0
v 0.3 1 0
v 0.3 1.1 0
v 0.4 0.1 0
v 0.4 0.4 0
v 0.4 0.5 0
v 0.4 0.8 0
v 0.4 0.9 0
v 0.2 0.2 -0.1
v 0.2 0.3 -0.1
v 0.3 0.2 -0.1
v 0.3 0.3 -0.1
v -0.3 0.7 -0.2
v -0.3 0.9 -0.2
v -0.2 0.6 -0.2
v -0.2 0.7 -0.2
v -0.2 0.8 -0.2
v -0.2 0.9 -0.2
v -0.1 0.6 -0.2
v -0.1 0.8 -0.2
v 5.96046e-08 0.1 -0.2
v 5.96046e-08 0.2 -0.2
v 0.1 0.2 -0.2
v 0.2 0.1 -0.2
v 0.2 0.2 -0.2
v 0.2 0.1 -0.3
v 0.2 0.2 -0.3
v 0.3 0.1 -0.3
v 0.3 0.2 -0.3
v -0.5 1 0
v -0.5 1.1 0
v -0.4 1 0
v -0.4 1.1 0
v -0.3 0.5 0
v -0.3 0.6 0
v -0.3 0.7 0
v -0.3 0.9 0
v -0.3 1.2 0
v -0.3 1.3 0
v -0.2 0.5 0
v -0.2 0.6 0
v -0.2 0.7 0
v -0.2 0.9 0
v -0.2 1.2 0
v -0.2 1.3 0
v -0.1 1 0
v -0.1 1.1 0
v 5.96046e-08 0 0
v 5.96046e-08 0.1 0
v 5.96046e-08 0.2 0
v 5.96046e-08 1 0
v 5.96046e-08 1.1 0
v 0.1 0 0
v 0.1 0.2 0
v 0.4 0.5 0
v 0.4 0.6 0
v 0.5 0.5 0
v 0.5 0.6 0
v -0.4 0.9 -0.1
v -0.4 1.2 -0.1
v -0.3 1 -0.1
v -0.3 1.1 -0.1
v -0.2 1 -0.1
v -0.2 1.1 -0.1
v -0.1 0.9 -0.1
v -0.1 1.2 -0.1
v 0.4 0.6 -0.1
v 0.4 0.8 -0.1
v 0.5 0.3 -0.1
v 0.5 0.6 -0.1
v 0.5 0.8 -0.1
v 0.5 0.9 -0.1
v 0.6 0.3 -0.1
v 0.6 0.9 -0.1
v -0.3 1 -0.2
v -0.3 1.1 -0.2
v -0.2 1 -0.2
v -0.2 1.1 -0.2
v -0.1 0.1 -0.3
v -0.1 0.4 -0.3
v -0.1 0.5 -0.3
v -0.1 0.6 -0.3
v -0.1 0.8 -0.3
v -0.1 0.9 -0.3
v 5.96046e-08 0.4 -0.3
v 5.96046e-08 0.5 -0.3
v 5.96046e-08 0.9 -0.3
v 5.96046e-08 1.2 -0.3
v 0.1 1 -0.3
v 0.1 1.2 -0.3
v 0.2 0.1 -0.3
v 0.2 0.3 -0.3
v 0.2 1 -0.3
v 0.2 1.2 -0.3
v 0.3 0.1 -0.3
v 0.3 0.3 -0.3
v 0.3 0.4 -0.3
v 0.3 0.5 -0.3
v 0.3 0.9 -0.3
v 0.3 1.2 -0.3
v 0.4 0.1 -0.3
v 0.4 0.4 -0.3
v 0.4 0.5 -0.3
v 0.4 0.9 -0.3
v -0.3 0.6 -0.4
v -0.3 0.9 -0.4
v -0.2 0.8 -0.4
v -0.2 0.9 -0.4
v -0.1 0.6 -0.4
v -0.1 0.8 -0.4
v 0.1 1 -0.4
v 0.1 1.3 -0.4
v 0.2 0.1 -0.4
v 0.2 0.3 -0.4
v 0.2 1 -0.4
v 0.2 1.3 -0.4
v 0.3 0.1 -0.4
v 0.3 0.3 -0.4
v 5.96046e-08 0 0.2
v 0.1 0 0.2
v 5.96046e-08 0 0
v 0.1 0 0
v -0.1 0.1 0
v 5.96046e-08 0.1 0
v 0.3 0.1 0
v 0.4 0.1 0
v 5.96046e-08 0.1 -0.2
v 0.2 0.1 -0.2
v -0.1 0.1 -0.3
v 0.2 0.1 -0.3
v 0.3 0.1 -0.3
v 0.4 0.1 -0.3
v 0.2 0.1 -0.4
v 0.3 0.1 -0.4
v 5.96046e-08 0.2 0
v 0.1 0.2 0
v 0.2 0.2 0
v 0.2 0.2 -0.1
v 0.3 0.2 -0.1
v 5.96046e-08 0.2 -0.2
v 0.1 0.2 -0.2
v 0.2 0.2 -0.2
v 0.2 0.2 -0.3
v 0.3 0.2 -0.3
v 0.5 0.3 0.4
v 0.6 0.3 0.4
v 0.2 0.3 0
v 0.3 0.3 0
v 0.2 0.3 -0.1
v 0.3 0.3 -0.1
v 0.5 0.3 -0.1
v 0.6 0.3 -0.1
v 0.4 0.5 0.4
v 0.5 0.5 0.4
v 0.5 0.5 0.3
v -0.3 0.5 0.1
v -0.2 0.5 0.1
v -0.3 0.5 0
v -0.2 0.5 0
v -0.1 0.5 0
v 5.96046e-08 0.5 0
v 0.3 0.5 0
v 0.4 0.5 0
v 0.5 0.5 0
v -0.1 0.5 -0.3
v 5.96046e-08 0.5 -0.3
v 0.3 0.5 -0.3
v 0.4 0.5 -0.3
v -0.3 0.6 0
v -0.2 0.6 0
v 0.4 0.6 0
v 0.5 0.6 0
v 0.4 0.6 -0.1
v 0.5 0.6 -0.1
v -0.2 0.6 -0.2
v -0.1 0.6 -0.2
v -0.1 0.6 -0.3
v -0.3 0.6 -0.4
v -0.1 0.6 -0.4
v -0.4 0.9 0.2
v -0.1 0.9 0.2
v -0.3 0.9 0.1
v -0.2 0.9 0.1
v 5.96046e-08 0.9 0.1
v 0.3 0.9 0.1
v -0.3 0.9 0
v -0.2 0.9 0
v -0.1 0.9 0
v 5.96046e-08 0.9 0
v 0.3 0.9 0
v -0.4 0.9 -0.1
v -0.1 0.9 -0.1
v -0.3 1 0.3
v -0.2 1 0.3
v -0.3 1 0.2
v -0.2 1 0.2
v -0.5 1 0.1
v -0.4 1 0.1
v -0.1 1 0.1
v 5.96046e-08 1 0.1
v -0.5 1 0
v -0.4 1 0
v -0.1 1 0
v 5.96046e-08 1 0
v -0.3 1 -0.1
v -0.2 1 -0.1
v -0.3 1 -0.2
v -0.2 1 -0.2
v 0.1 1 -0.3
v 0.2 1 -0.3
v 0.1 1 -0.4
v 0.2 1 -0.4
v 5.96046e-08 1.1 0.1
v 0.3 1.1 0.1
v 5.96046e-08 1.1 0
v 0.3 1.1 0
v 5.96046e-08 0.1 0.2
v 0.1 0.1 0.2
v 5.96046e-08 0.1 0.1
v 0.1 0.1 0.1
v 5.96046e-08 0.3 0.1
v 0.1 0.3 0.1
v 5.96046e-08 0.3 0
v 0.1 0.3 0
v 0.2 0.3 -0.3
v 0.3 0.3 -0.3
v 0.2 0.3 -0.4
v 0.3 0.3 -0.4
v -0.1 0.4 0
v 5.96046e-08 0.4 0
v 0.3 0.4 0
v 0.4 0.4 0
v -0.1 0.4 -0.3
v 5.96046e-08 0.4 -0.3
v 0.3 0.4 -0.3
v 0.4 0.4 -0.3
v 0.4 0.6 0.4
v 0.5 0.6 0.4
v 0.5 0.6 0.3
v 0.4 0.6 0.1
v 0.5 0.6 0.1
v -0.3 0.7 0
v -0.2 0.7 0
v -0.3 0.7 -0.2
v -0.2 0.7 -0.2
v 0.4 0.8 0.1
v 0.5 0.8 0.1
v 0.4 0.8 0
v 0.4 0.8 -0.1
v 0.5 0.8 -0.1
v -0.2 0.8 -0.2
v -0.1 0.8 -0.2
v -0.1 0.8 -0.3
v -0.2 0.8 -0.4
v -0.1 0.8 -0.4
v 0.5 0.9 0.4
v 0.6 0.9 0.4
v -0.1 0.9 0
v 5.96046e-08 0.9 0
v 0.3 0.9 0
v 0.4 0.9 0
v -0.1 0.9 -0.1
v 0.5 0.9 -0.1
v 0.6 0.9 -0.1
v -0.3 0.9 -0.2
v -0.2 0.9 -0.2
v -0.1 0.9 -0.3
v 5.96046e-08 0.9 -0.3
v 0.3 0.9 -0.3
v 0.4 0.9 -0.3
v -0.3 0.9 -0.4
v -0.2 0.9 -0.4
v 5.96046e-08 1 0.1
v 0.3 1 0.1
v 5.96046e-08 1 0
v 0.3 1 0
v -0.3 1.1 0.3
v -0.2 1.1 0.3
v -0.3 1.1 0.2
v -0.2 1.1 0.2
v -0.5 1.1 0.1
v -0.4 1.1 0.1
v -0.1 1.1 0.1
v 5.96046e-08 1.1 0.1
v -0.5 1.1 0
v -0.4 1.1 0
v -0.1 1.1 0
v 5.96046e-08 1.1 0
v -0.3 1.1 -0.1
v -0.2 1.1 -0.1
v -0.3 1.1 -0.2
v -0.2 1.1 -0.2
v -0.4 1.2 0.2
v -0.1 1.2 0.2
v -0.3 1.2 0.1
v -0.2 1.2 0.1
v 5.96046e-08 1.2 0.1
v 0.3 1.2 0.1
v -0.3 1.2 0
v -0.2 1.2 0
v 0.1 1.2 0
v 0.2 1.2 0
v -0.4 1.2 -0.1
v -0.1 1.2 -0.1
v 5.96046e-08 1.2 -0.3
v 0.1 1.2 -0.3
v 0.2 1.2 -0.3
v 0.3 1.2 -0.3
v -0.3 1.3 0.1
v -0.2 1.3 0.1
v -0.3 1.3 0
v -0.2 1.3 0
v 0.1 1.3 0
v 0.2 1.3 0
v 0.1 1.3 -0.4
v 0.2 1.3 -0.4

# faces
f 3/3/1 2/3/1 1/3/1
f 4/3/1 2/3/1 3/3/1
f 7/1/1 6/1/1 5/1/1
f 8/1/1 6/1/1 7/1/1
f 9/1/1 7/1/1 5/1/1
f 10/1/1 6/1/1 8/1/1
f 11/1/1 9/1/1 5/1/1
f 11/1/1 10/1/1 9/1/1
f 12/1/1 6/1/1 10/1/1
f 12/1/1 10/1/1 11/1/1
f 15/1/1 14/1/1 13/1/1
f 16/1/1 14/1/1 15/1/1
f 18/2/1 16/2/1 15/2/1
f 18/2/1 17/2/1 16/2/1
f 19/2/1 17/2/1 18/2/1
f 20/2/1 17/2/1 19/2/1
f 21/1/1 19/1/1 18/1/1
f 22/1/1 19/1/1 21/1/1
f 23/2/1 17/2/1 20/2/1
f 24/2/1 17/2/1 23/2/1
f 29/3/1 26/3/1 25/3/1
f 30/3/1 26/3/1 29/3/1
f 31/3/1 28/3/1 27/3/1
f 32/3/1 28/3/1 31/3/1
f 35/3/1 34/3/1 33/3/1
f 36/3/1 34/3/1 35/3/1
f 39/2/1 38/2/1 37/2/1
f 40/2/1 38/2/1 39/2/1
f 43/2/1 42/2/1 41/2/1
f 44/2/1 42/2/1 43/2/1
f 45/2/1 43/2/1 41/2/1
f 47/2/1 45/2/1 41/2/1
f 47/2/1 46/2/1 45/2/1
f 48/2/1 46/2/1 47/2/1
f 49/2/1 46/2/1 48/2/1
f 52/1/1 51/1/1 50/1/1
f 53/1/1 51/1/1 52/1/1
f 54/1/1 51/1/1 53/1/1
f 55/1/1 54/1/1 53/1/1
f 56/1/1 54/1/1 55/1/1
f 59/1/1 58/1/1 57/1/1
f 60/1/1 58/1/1 59/1/1
f 64/2/1 62/2/1 61/2/1
f 64/2/1 63/2/1 62/2/1
f 65/2/1 63/2/1 64/2/1
f 66/2/1 63/2/1 65/2/1
f 68/4/1 66/4/1 65/4/1
f 69/2/1 63/2/1 66/2/1
f 69/4/1 66/4/1 68/4/1
f 70/2/1 68/2/1 67/2/1
f 70/2/1 69/2/1 68/2/1
f 71/2/1 63/2/1 69/2/1
f 71/2/1 69/2/1 70/2/1
f 75/1/1 73/1/1 72/1/1
f 76/1/1 75/1/1 74/1/1
f 77/1/1 73/1/1 75/1/1
f 77/1/1 75/1/1 76/1/1
f 80/1/1 79/1/1 78/1/1
f 81/1/1 79/1/1 80/1/1
f 84/2/1 83/2/1 82/2/1
f 85/2/1 83/2/1 84/2/1
f 86/2/1 84/2/1 82/2/1
f 87/2/1 84/2/1 86/2/1
f 90/2/1 89/2/1 88/2/1
f 91/2/1 89/2/1 90/2/1
f 92/2/1 89/2/1 91/2/1
f 93/2/1 89/2/1 92/2/1
f 96/1/1 95/1/1 94/1/1
f 97/1/1 95/1/1 96/1/1
f 98/1/1 96/1/1 94/1/1
f 99/3/1 97/3/1 96/3/1
f 99/1/1 96/1/1 98/1/1
f 100/1/1 95/1/1 97/1/1
f 100/3/1 97/3/1 99/3/1
f 104/1/1 95/1/1 100/1/1
f 105/1/1 95/1/1 104/1/1
f 106/3/1 103/3/1 102/3/1
f 106/1/1 102/1/1 101/1/1
f 107/3/1 103/3/1 106/3/1
f 109/1/1 106/1/1 101/1/1
f 109/1/1 108/1/1 107/1/1
f 109/1/1 107/1/1 106/1/1
f 110/1/1 108/1/1 109/1/1
f 111/1/2 112/1/2 113/1/2
f 113/1/2 112/1/2 114/1/2
f 113/2/2 114/2/2 116/2/2
f 114/2/2 115/2/2 116/2/2
f 116/2/2 115/2/2 117/2/2
f 117/2/2 115/2/2 118/2/2
f 116/1/2 117/1/2 121/1/2
f 121/1/2 117/1/2 122/1/2
f 119/2/2 120/2/2 123/2/2
f 123/2/2 120/2/2 124/2/2
f 125/3/2 126/3/2 129/3/2
f 129/3/2 126/3/2 130/3/2
f 127/3/2 128/3/2 131/3/2
f 131/3/2 128/3/2 132/3/2
f 133/3/2 134/3/2 135/3/2
f 135/3/2 134/3/2 136/3/2
f 137/2/2 138/2/2 139/2/2
f 139/2/2 138/2/2 140/2/2
f 141/1/2 142/1/2 144/1/2
f 142/1/2 143/1/2 144/1/2
f 144/1/2 143/1/2 145/1/2
f 141/1/2 144/1/2 146/1/2
f 145/1/2 143/1/2 147/1/2
f 141/1/2 146/1/2 148/1/2
f 146/1/2 147/1/2 148/1/2
f 147/1/2 143/1/2 149/1/2
f 148/1/2 147/1/2 149/1/2
f 150/2/2 151/2/2 152/2/2
f 152/2/2 151/2/2 153/2/2
f 154/3/2 155/3/2 156/3/2
f 156/3/2 155/3/2 157/3/2
f 158/1/2 159/1/2 160/1/2
f 160/1/2 159/1/2 161/1/2
f 161/1/2 159/1/2 162/1/2
f 161/1/2 162/1/2 163/1/2
f 163/1/2 162/1/2 164/1/2
f 165/2/2 166/2/2 169/2/2
f 169/2/2 166/2/2 170/2/2
f 167/2/2 168/2/2 171/2/2
f 171/2/2 168/2/2 172/2/2
f 173/1/2 174/1/2 176/1/2
f 175/1/2 176/1/2 177/1/2
f 176/1/2 174/1/2 178/1/2
f 177/1/2 176/1/2 178/1/2
f 179/1/2 180/1/2 181/1/2
f 181/1/2 180/1/2 182/1/2
f 183/1/2 184/1/2 185/1/2
f 185/1/2 184/1/2 186/1/2
f 187/2/2 188/2/2 190/2/2
f 188/2/2 189/2/2 190/2/2
f 190/2/2 189/2/2 191/2/2
f 191/2/2 189/2/2 192/2/2
f 191/4/2 192/4/2 194/4/2
f 192/2/2 189/2/2 195/2/2
f 194/4/2 192/4/2 195/4/2
f 193/2/2 194/2/2 196/2/2
f 194/2/2 195/2/2 196/2/2
f 195/2/2 189/2/2 197/2/2
f 196/2/2 195/2/2 197/2/2
f 198/2/2 199/2/2 200/2/2
f 200/2/2 199/2/2 201/2/2
f 202/2/2 203/2/2 204/2/2
f 204/2/2 203/2/2 205/2/2
f 205/2/2 203/2/2 207/2/2
f 206/2/2 207/2/2 208/2/2
f 207/2/2 203/2/2 209/2/2
f 208/2/2 207/2/2 209/2/2
f 210/1/2 211/1/2 212/1/2
f 212/1/2 211/1/2 213/1/2
f 210/1/2 212/1/2 214/1/2
f 212/3/2 213/3/2 214/3/2
f 213/1/2 211/1/2 215/1/2
f 214/3/2 213/3/2 215/3/2
f 210/1/2 214/1/2 216/1/2
f 214/1/2 215/1/2 216/1/2
f 215/1/2 211/1/2 217/1/2
f 216/1/2 215/1/2 217/1/2
f 221/2/3 219/2/3 218/2/3
f 222/2/3 219/2/3 221/2/3
f 224/1/3 221/1/3 220/1/3
f 224/1/3 223/1/3 222/1/3
f 224/1/3 222/1/3 221/1/3
f 225/1/3 223/1/3 224/1/3
f 228/3/3 227/3/3 226/3/3
f 229/3/3 227/3/3 228/3/3
f 232/1/3 231/1/3 230/1/3
f 233/1/3 231/1/3 232/1/3
f 234/1/3 232/1/3 230/1/3
f 235/1/3 231/1/3 233/1/3
f 236/1/3 234/1/3 230/1/3
f 236/1/3 235/1/3 234/1/3
f 237/1/3 231/1/3 235/1/3
f 237/1/3 235/1/3 236/1/3
f 240/1/3 239/1/3 238/1/3
f 241/1/3 239/1/3 240/1/3
f 244/3/3 243/3/3 242/3/3
f 245/3/3 243/3/3 244/3/3
f 252/1/3 247/1/3 246/1/3
f 253/2/3 248/2/3 247/2/3
f 253/1/3 247/1/3 252/1/3
f 254/1/3 249/1/3 248/1/3
f 254/2/3 248/2/3 253/2/3
f 255/1/3 249/1/3 254/1/3
f 256/3/3 251/3/3 250/3/3
f 257/3/3 251/3/3 256/3/3
f 263/3/3 259/3/3 258/3/3
f 264/3/3 259/3/3 263/3/3
f 266/1/3 261/1/3 260/1/3
f 267/1/3 261/1/3 266/1/3
f 268/2/3 263/2/3 262/2/3
f 269/2/3 263/2/3 268/2/3
f 270/2/3 265/2/3 264/2/3
f 271/2/3 265/2/3 270/2/3
f 274/2/3 273/2/3 272/2/3
f 275/2/3 273/2/3 274/2/3
f 280/2/3 277/2/3 276/2/3
f 281/2/3 277/2/3 280/2/3
f 282/2/3 277/2/3 281/2/3
f 283/2/3 279/2/3 278/2/3
f 284/2/3 279/2/3 283/2/3
f 288/2/3 282/2/3 281/2/3
f 291/2/3 288/2/3 287/2/3
f 292/2/3 282/2/3 288/2/3
f 292/2/3 288/2/3 291/2/3
f 293/1/3 290/1/3 289/1/3
f 294/1/3 290/1/3 293/1/3
f 296/2/3 282/2/3 292/2/3
f 297/1/3 283/1/3 282/1/3
f 297/2/3 282/2/3 296/2/3
f 298/2/3 284/2/3 283/2/3
f 298/1/3 283/1/3 297/1/3
f 299/2/3 284/2/3 298/2/3
f 300/4/3 286/4/3 285/4/3
f 301/4/3 286/4/3 300/4/3
f 302/2/3 297/2/3 296/2/3
f 302/2/3 296/2/3 295/2/3
f 303/2/3 297/2/3 302/2/3
f 304/2/3 299/2/3 298/2/3
f 305/2/3 299/2/3 304/2/3
f 306/2/3 299/2/3 305/2/3
f 309/1/3 308/1/3 307/1/3
f 310/1/3 308/1/3 309/1/3
f 314/2/3 312/2/3 311/2/3
f 315/2/3 312/2/3 314/2/3
f 316/2/3 312/2/3 315/2/3
f 317/2/3 314/2/3 313/2/3
f 317/2/3 315/2/3 314/2/3
f 318/2/3 315/2/3 317/2/3
f 321/2/3 320/2/3 319/2/3
f 322/2/3 321/2/3 319/2/3
f 323/2/3 321/2/3 322/2/3
f 326/1/3 325/1/3 324/1/3
f 327/1/3 325/1/3 326/1/3
f 328/3/4 329/3/4 330/3/4
f 330/3/4 329/3/4 331/3/4
f 332/1/4 333/1/4 338/1/4
f 338/1/4 333/1/4 339/1/4
f 334/1/4 335/1/4 340/1/4
f 340/1/4 335/1/4 341/1/4
f 336/3/4 337/3/4 342/3/4
f 342/3/4 337/3/4 343/3/4
f 344/3/4 345/3/4 349/3/4
f 349/3/4 345/3/4 350/3/4
f 347/1/4 348/1/4 351/1/4
f 346/1/4 347/1/4 351/1/4
f 351/1/4 348/1/4 352/1/4
f 353/2/4 354/2/4 355/2/4
f 355/2/4 354/2/4 356/2/4
f 357/1/4 358/1/4 359/1/4
f 359/1/4 358/1/4 360/1/4
f 357/1/4 359/1/4 361/1/4
f 360/1/4 358/1/4 362/1/4
f 357/1/4 361/1/4 363/1/4
f 361/1/4 362/1/4 363/1/4
f 362/1/4 358/1/4 364/1/4
f 363/1/4 362/1/4 364/1/4
f 365/2/4 366/2/4 368/2/4
f 368/2/4 366/2/4 369/2/4
f 367/1/4 368/1/4 371/1/4
f 369/1/4 370/1/4 371/1/4
f 368/1/4 369/1/4 371/1/4
f 371/1/4 370/1/4 372/1/4
f 373/3/4 374/3/4 375/3/4
f 375/3/4 374/3/4 376/3/4
f 377/2/4 378/2/4 383/2/4
f 381/2/4 382/2/4 384/2/4
f 379/2/4 380/2/4 384/2/4
f 380/2/4 381/2/4 384/2/4
f 384/2/4 382/2/4 385/2/4
f 384/2/4 385/2/4 387/2/4
f 385/2/4 386/2/4 387/2/4
f 387/2/4 386/2/4 388/2/4
f 377/2/4 383/2/4 389/2/4
f 389/2/4 383/2/4 390/2/4
f 384/2/4 387/2/4 391/2/4
f 390/2/4 383/2/4 394/2/4
f 383/1/4 384/1/4 395/1/4
f 394/2/4 383/2/4 395/2/4
f 384/2/4 391/2/4 396/2/4
f 395/1/4 384/1/4 396/1/4
f 391/2/4 392/2/4 396/2/4
f 396/2/4 392/2/4 397/2/4
f 397/2/4 392/2/4 398/2/4
f 393/2/4 394/2/4 399/2/4
f 394/2/4 395/2/4 399/2/4
f 399/2/4 395/2/4 400/2/4
f 396/2/4 397/2/4 401/2/4
f 401/2/4 397/2/4 402/2/4
f 403/2/4 404/2/4 405/2/4
f 405/2/4 404/2/4 406/2/4
f 403/2/4 405/2/4 407/2/4
f 407/2/4 405/2/4 408/2/4
f 409/1/4 410/1/4 413/1/4
f 413/1/4 410/1/4 414/1/4
f 411/1/4 412/1/4 415/1/4
f 415/1/4 412/1/4 416/1/4
f 419/1/5 418/1/5 417/1/5
f 420/1/5 418/1/5 419/1/5
f 425/2/5 422/2/5 421/2/5
f 427/2/5 425/2/5 421/2/5
f 427/2/5 426/2/5 425/2/5
f 428/2/5 426/2/5 427/2/5
f 429/2/5 424/2/5 423/2/5
f 430/2/5 424/2/5 429/2/5
f 431/1/5 429/1/5 428/1/5
f 432/1/5 429/1/5 431/1/5
f 436/2/5 435/2/5 434/2/5
f 438/1/5 434/1/5 433/1/5
f 439/2/5 436/2/5 434/2/5
f 439/1/5 434/1/5 438/1/5
f 440/1/5 437/1/5 436/1/5
f 440/2/5 436/2/5 439/2/5
f 441/1/5 437/1/5 440/1/5
f 442/1/5 437/1/5 441/1/5
f 447/2/5 446/2/5 445/2/5
f 448/2/5 446/2/5 447/2/5
f 449/1/5 444/1/5 443/1/5
f 450/1/5 444/1/5 449/1/5
f 453/2/5 452/2/5 451/2/5
f 456/1/5 455/1/5 454/1/5
f 457/1/5 455/1/5 456/1/5
f 461/2/5 453/2/5 451/2/5
f 462/2/5 453/2/5 461/2/5
f 463/2/5 459/2/5 458/2/5
f 464/2/5 459/2/5 463/2/5
f 465/2/5 461/2/5 460/2/5
f 466/2/5 461/2/5 465/2/5
f 471/2/5 470/2/5 469/2/5
f 472/2/5 470/2/5 471/2/5
f 473/2/5 468/2/5 467/2/5
f 475/2/5 474/2/5 473/2/5
f 476/2/5 473/2/5 467/2/5
f 476/2/5 475/2/5 473/2/5
f 477/2/5 475/2/5 476/2/5
f 480/1/5 479/1/5 478/1/5
f 481/1/5 479/1/5 480/1/5
f 484/1/5 480/1/5 478/1/5
f 485/1/5 479/1/5 481/1/5
f 486/1/5 479/1/5 485/1/5
f 487/2/5 483/2/5 482/2/5
f 488/2/5 483/2/5 487/2/5
f 489/1/5 486/1/5 485/1/5
f 489/1/5 484/1/5 478/1/5
f 489/1/5 485/1/5 484/1/5
f 490/1/5 486/1/5 489/1/5
f 493/3/5 492/3/5 491/3/5
f 494/3/5 492/3/5 493/3/5
f 499/3/5 496/3/5 495/3/5
f 500/3/5 496/3/5 499/3/5
f 501/3/5 498/3/5 497/3/5
f 502/3/5 498/3/5 501/3/5
f 505/3/5 504/3/5 503/3/5
f 506/3/5 504/3/5 505/3/5
f 509/1/5 508/1/5 507/1/5
f 510/1/5 508/1/5 509/1/5
f 513/2/5 512/2/5 511/2/5
f 514/2/5 512/2/5 513/2/5
f 515/1/6 516/1/6 517/1/6
f 517/1/6 516/1/6 518/1/6
f 519/1/6 520/1/6 521/1/6
f 521/1/6 520/1/6 522/1/6
f 523/1/6 524/1/6 525/1/6
f 525/1/6 524/1/6 526/1/6
f 527/2/6 528/2/6 531/2/6
f 531/2/6 528/2/6 532/2/6
f 529/2/6 530/2/6 533/2/6
f 533/2/6 530/2/6 534/2/6
f 535/2/6 536/2/6 537/2/6
f 535/2/6 537/2/6 538/2/6
f 538/2/6 537/2/6 539/2/6
f 540/2/6 541/2/6 542/2/6
f 542/2/6 541/2/6 543/2/6
f 544/2/6 545/2/6 546/2/6
f 546/2/6 545/2/6 547/2/6
f 547/2/6 545/2/6 548/2/6
f 549/2/6 550/2/6 551/2/6
f 549/2/6 551/2/6 552/2/6
f 552/2/6 551/2/6 553/2/6
f 556/2/6 557/2/6 560/2/6
f 554/1/6 555/1/6 561/1/6
f 561/1/6 555/1/6 562/1/6
f 560/2/6 557/2/6 565/2/6
f 565/2/6 557/2/6 566/2/6
f 558/2/6 559/2/6 567/2/6
f 567/2/6 559/2/6 568/2/6
f 563/2/6 564/2/6 569/2/6
f 569/2/6 564/2/6 570/2/6
f 571/2/6 572/2/6 573/2/6
f 573/2/6 572/2/6 574/2/6
f 575/3/6 576/3/6 577/3/6
f 577/3/6 576/3/6 578/3/6
f 579/3/6 580/3/6 583/3/6
f 583/3/6 580/3/6 584/3/6
f 581/3/6 582/3/6 585/3/6
f 585/3/6 582/3/6 586/3/6
f 587/3/6 588/3/6 589/3/6
f 589/3/6 588/3/6 590/3/6
f 591/1/6 592/1/6 593/1/6
f 593/1/6 592/1/6 594/1/6
f 591/1/6 593/1/6 597/1/6
f 594/1/6 592/1/6 598/1/6
f 595/2/6 596/2/6 599/2/6
f 599/2/6 596/2/6 600/2/6
f 597/1/6 598/1/6 601/1/6
f 591/1/6 597/1/6 601/1/6
f 598/1/6 592/1/6 602/1/6
f 601/1/6 598/1/6 602/1/6
f 595/2/6 599/2/6 603/2/6
f 603/2/6 599/2/6 604/2/6
f 600/2/6 596/2/6 605/2/6
f 605/2/6 596/2/6 606/2/6
f 607/3/6 608/3/6 609/3/6
f 609/3/6 608/3/6 610/3/6
f 611/1/6 612/1/6 613/1/6
f 613/1/6 612/1/6 614/1/6
