# MagicaVoxel @ Ephtracy

# group
o 

# material
mtllib knight_walk_1.mtl
usemtl palette

# normals
vn -1 0 0
vn 1 0 0
vn 0 0 1
vn 0 0 -1
vn 0 -1 0
vn 0 1 0

# texcoords
vt 0.787109 0.5
vt 0.880859 0.5
vt 0.943359 0.5
vt 0.970703 0.5

# verts
v -0.5 0.9 0.2
v -0.5 0.9 0.1
v -0.5 1 0.2
v -0.5 1 0.1
v -0.4 0.8 0.3
v -0.4 0.8 0
v -0.4 0.9 0.2
v -0.4 0.9 0.1
v -0.4 1 0.2
v -0.4 1 0.1
v -0.4 1.1 0.3
v -0.4 1.1 0
v -0.3 0.4 0.2
v -0.3 0.4 0.1
v -0.3 0.5 0.2
v -0.3 0.5 0.1
v -0.3 0.5 -0.3
v -0.3 0.6 0.2
v -0.3 0.6 0.1
v -0.3 0.6 -0.1
v -0.3 0.8 0.2
v -0.3 0.8 0.1
v -0.3 0.8 -0.1
v -0.3 0.8 -0.3
v -0.3 0.9 0.4
v -0.3 0.9 0.3
v -0.3 0.9 0
v -0.3 0.9 -0.1
v -0.3 1 0.4
v -0.3 1 0.3
v -0.3 1 0
v -0.3 1 -0.1
v -0.3 1.1 0.2
v -0.3 1.1 0.1
v -0.3 1.2 0.2
v -0.3 1.2 0.1
v -0.1 0.1 0
v -0.1 0.1 -0.3
v -0.1 0.4 0
v -0.1 0.4 -0.3
v -0.1 0.5 0
v -0.1 0.5 -0.1
v -0.1 0.7 -0.1
v -0.1 0.7 -0.3
v -0.1 0.8 0
v -0.1 0.8 -0.3
v 5.96046e-08 0 -0.1
v 5.96046e-08 0 -0.3
v 5.96046e-08 0.1 -0.1
v 5.96046e-08 0.1 -0.3
v 5.96046e-08 0.4 0
v 5.96046e-08 0.4 -0.3
v 5.96046e-08 0.5 0
v 5.96046e-08 0.5 -0.3
v 5.96046e-08 0.8 0.1
v 5.96046e-08 0.8 0
v 5.96046e-08 0.8 -0.3
v 5.96046e-08 0.9 0.1
v 5.96046e-08 0.9 0
v 5.96046e-08 0.9 -0.1
v 5.96046e-08 1 0.1
v 5.96046e-08 1 0
v 5.96046e-08 1 -0.1
v 5.96046e-08 1.1 0.1
v 5.96046e-08 1.1 -0.3
v 0.1 0.2 0
v 0.1 0.2 -0.1
v 0.1 0.3 0
v 0.1 0.3 -0.1
v 0.1 0.9 -0.3
v 0.1 0.9 -0.4
v 0.1 1.1 0
v 0.1 1.1 -0.3
v 0.1 1.2 0
v 0.1 1.2 -0.4
v 0.2 0.1 0.2
v 0.2 0.1 0
v 0.2 0.2 0.2
v 0.2 0.2 0.1
v 0.2 0.2 0
v 0.2 0.3 0.1
v 0.2 0.3 0
v 0.3 0.1 0
v 0.3 0.1 -0.2
v 0.3 0.2 0
v 0.3 0.2 -0.2
v 0.4 0.5 0.2
v 0.4 0.5 0
v 0.4 0.6 0.2
v 0.4 0.6 0
v 0.5 0.3 0.2
v 0.5 0.3 -0.3
v 0.5 0.4 0.1
v 0.5 0.4 -0.2
v 0.5 0.5 0.2
v 0.5 0.5 0.1
v 0.5 0.5 -0.2
v 0.5 0.6 0.2
v 0.5 0.6 0.1
v 0.5 0.6 -0.1
v 0.5 0.6 -0.2
v 0.5 0.6 -0.3
v 0.5 0.8 0.1
v 0.5 0.8 -0.1
v 0.5 0.8 -0.3
v 0.5 0.9 0.2
v 0.5 0.9 -0.3
v -0.2 0.4 0.2
v -0.2 0.4 0.1
v -0.2 0.5 0.2
v -0.2 0.5 0.1
v -0.2 0.5 -0.1
v -0.2 0.6 0.2
v -0.2 0.6 0.1
v -0.2 0.6 -0.1
v -0.2 0.7 -0.1
v -0.2 0.7 -0.3
v -0.2 0.8 0.2
v -0.2 0.8 0.1
v -0.2 0.8 -0.1
v -0.2 0.8 -0.3
v -0.2 0.9 0.4
v -0.2 0.9 0.3
v -0.2 0.9 0
v -0.2 0.9 -0.1
v -0.2 1 0.4
v -0.2 1 0.3
v -0.2 1 0
v -0.2 1 -0.1
v -0.2 1.1 0.2
v -0.2 1.1 0.1
v -0.2 1.2 0.2
v -0.2 1.2 0.1
v -0.1 0.8 0.3
v -0.1 0.8 0
v -0.1 0.9 0.2
v -0.1 0.9 0.1
v -0.1 1 0.2
v -0.1 1 0.1
v -0.1 1.1 0.3
v -0.1 1.1 0
v 5.96046e-08 0.1 0
v 5.96046e-08 0.1 -0.1
v 5.96046e-08 0.1 -0.2
v 5.96046e-08 0.2 -0.1
v 5.96046e-08 0.2 -0.2
v 5.96046e-08 0.3 0
v 5.96046e-08 0.3 -0.1
v 5.96046e-08 0.9 0.2
v 5.96046e-08 0.9 0.1
v 5.96046e-08 1 0.2
v 5.96046e-08 1 0.1
v 0.1 0 -0.1
v 0.1 0 -0.3
v 0.1 0.1 -0.1
v 0.1 0.1 -0.2
v 0.1 0.1 -0.3
v 0.2 0.9 -0.3
v 0.2 0.9 -0.4
v 0.2 1.1 0
v 0.2 1.1 -0.3
v 0.2 1.2 0
v 0.2 1.2 -0.4
v 0.3 0.1 0.2
v 0.3 0.1 0
v 0.3 0.2 0.2
v 0.3 0.2 0.1
v 0.3 0.3 0.1
v 0.3 0.3 0
v 0.3 0.4 0
v 0.3 0.4 -0.3
v 0.3 0.5 0
v 0.3 0.5 -0.3
v 0.3 0.8 0.1
v 0.3 0.8 0
v 0.3 0.8 -0.3
v 0.3 0.9 0.1
v 0.3 0.9 0
v 0.3 0.9 -0.1
v 0.3 1 0.1
v 0.3 1 0
v 0.3 1 -0.1
v 0.3 1.1 0.1
v 0.3 1.1 -0.3
v 0.4 0.1 0
v 0.4 0.1 -0.3
v 0.4 0.4 0
v 0.4 0.4 -0.3
v 0.4 0.5 -0.2
v 0.4 0.5 -0.3
v 0.4 0.6 0
v 0.4 0.6 -0.1
v 0.4 0.6 -0.2
v 0.4 0.6 -0.3
v 0.4 0.8 0
v 0.4 0.8 -0.1
v 0.6 0.3 0.2
v 0.6 0.3 -0.3
v 0.6 0.4 0.1
v 0.6 0.4 -0.2
v 0.6 0.8 0.1
v 0.6 0.8 -0.2
v 0.6 0.9 0.2
v 0.6 0.9 -0.3
v -0.3 0.9 0.4
v -0.3 1 0.4
v -0.2 0.9 0.4
v -0.2 1 0.4
v -0.4 0.8 0.3
v -0.4 1.1 0.3
v -0.3 0.9 0.3
v -0.3 1 0.3
v -0.2 0.9 0.3
v -0.2 1 0.3
v -0.1 0.8 0.3
v -0.1 1.1 0.3
v -0.5 0.9 0.2
v -0.5 1 0.2
v -0.4 0.9 0.2
v -0.4 1 0.2
v -0.3 0.4 0.2
v -0.3 0.5 0.2
v -0.3 0.6 0.2
v -0.3 0.8 0.2
v -0.3 1.1 0.2
v -0.3 1.2 0.2
v -0.2 0.4 0.2
v -0.2 0.5 0.2
v -0.2 0.6 0.2
v -0.2 0.8 0.2
v -0.2 1.1 0.2
v -0.2 1.2 0.2
v -0.1 0.9 0.2
v -0.1 1 0.2
v 5.96046e-08 0.9 0.2
v 5.96046e-08 1 0.2
v 0.2 0.1 0.2
v 0.2 0.2 0.2
v 0.3 0.1 0.2
v 0.3 0.2 0.2
v 0.4 0.5 0.2
v 0.4 0.6 0.2
v 0.5 0.3 0.2
v 0.5 0.5 0.2
v 0.5 0.6 0.2
v 0.5 0.9 0.2
v 0.6 0.3 0.2
v 0.6 0.9 0.2
v 5.96046e-08 0.8 0.1
v 5.96046e-08 0.9 0.1
v 5.96046e-08 1 0.1
v 5.96046e-08 1.1 0.1
v 0.2 0.2 0.1
v 0.2 0.3 0.1
v 0.3 0.2 0.1
v 0.3 0.3 0.1
v 0.3 0.8 0.1
v 0.3 0.9 0.1
v 0.3 1 0.1
v 0.3 1.1 0.1
v -0.1 0.1 0
v -0.1 0.4 0
v -0.1 0.5 0
v -0.1 0.8 0
v 5.96046e-08 0.1 0
v 5.96046e-08 0.3 0
v 5.96046e-08 0.4 0
v 5.96046e-08 0.5 0
v 5.96046e-08 0.8 0
v 5.96046e-08 0.9 0
v 5.96046e-08 1 0
v 0.1 0.2 0
v 0.1 0.3 0
v 0.1 1.1 0
v 0.1 1.2 0
v 0.2 0.2 0
v 0.2 0.3 0
v 0.2 1.1 0
v 0.2 1.2 0
v 0.3 0.1 0
v 0.3 0.3 0
v 0.3 0.4 0
v 0.3 0.5 0
v 0.3 0.8 0
v 0.3 0.9 0
v 0.3 1 0
v 0.4 0.1 0
v 0.4 0.4 0
v 0.4 0.5 0
v 0.4 0.6 0
v 0.4 0.8 0
v -0.3 0.6 -0.1
v -0.3 0.8 -0.1
v -0.2 0.5 -0.1
v -0.2 0.6 -0.1
v -0.2 0.7 -0.1
v -0.2 0.8 -0.1
v -0.1 0.5 -0.1
v -0.1 0.7 -0.1
v 5.96046e-08 0 -0.1
v 5.96046e-08 0.1 -0.1
v 5.96046e-08 0.2 -0.1
v 5.96046e-08 0.3 -0.1
v 0.1 0 -0.1
v 0.1 0.1 -0.1
v 0.1 0.2 -0.1
v 0.1 0.3 -0.1
v 0.4 0.6 -0.1
v 0.4 0.8 -0.1
v 0.5 0.6 -0.1
v 0.5 0.8 -0.1
v 5.96046e-08 0.1 -0.2
v 5.96046e-08 0.2 -0.2
v 0.1 0.1 -0.2
v 0.1 0.2 -0.2
v 0.2 0.2 -0.2
v 0.3 0.1 -0.2
v 0.3 0.2 -0.2
v -0.5 0.9 0.1
v -0.5 1 0.1
v -0.4 0.9 0.1
v -0.4 1 0.1
v -0.3 0.4 0.1
v -0.3 0.5 0.1
v -0.3 0.6 0.1
v -0.3 0.8 0.1
v -0.3 1.1 0.1
v -0.3 1.2 0.1
v -0.2 0.4 0.1
v -0.2 0.5 0.1
v -0.2 0.6 0.1
v -0.2 0.8 0.1
v -0.2 1.1 0.1
v -0.2 1.2 0.1
v -0.1 0.9 0.1
v -0.1 1 0.1
v 5.96046e-08 0.9 0.1
v 5.96046e-08 1 0.1
v -0.4 0.8 0
v -0.4 1.1 0
v -0.3 0.9 0
v -0.3 1 0
v -0.2 0.9 0
v -0.2 1 0
v -0.1 0.8 0
v -0.1 1.1 0
v 0.2 0.1 0
v 0.2 0.2 0
v 0.3 0.1 0
v 0.3 0.2 0
v -0.3 0.9 -0.1
v -0.3 1 -0.1
v -0.2 0.9 -0.1
v -0.2 1 -0.1
v 0.4 0.5 -0.2
v 0.4 0.6 -0.2
v 0.5 0.5 -0.2
v 0.5 0.6 -0.2
v -0.3 0.5 -0.3
v -0.3 0.8 -0.3
v -0.2 0.7 -0.3
v -0.2 0.8 -0.3
v -0.1 0.1 -0.3
v -0.1 0.4 -0.3
v -0.1 0.7 -0.3
v -0.1 0.8 -0.3
v 5.96046e-08 0 -0.3
v 5.96046e-08 0.1 -0.3
v 5.96046e-08 0.2 -0.3
v 5.96046e-08 0.4 -0.3
v 5.96046e-08 0.5 -0.3
v 5.96046e-08 0.8 -0.3
v 5.96046e-08 1.1 -0.3
v 0.1 0 -0.3
v 0.1 0.1 -0.3
v 0.1 0.2 -0.3
v 0.1 0.9 -0.3
v 0.1 1.1 -0.3
v 0.2 0.9 -0.3
v 0.2 1.1 -0.3
v 0.3 0.4 -0.3
v 0.3 0.5 -0.3
v 0.3 0.8 -0.3
v 0.3 1.1 -0.3
v 0.4 0.1 -0.3
v 0.4 0.4 -0.3
v 0.4 0.5 -0.3
v 0.4 0.6 -0.3
v 0.5 0.3 -0.3
v 0.5 0.6 -0.3
v 0.5 0.8 -0.3
v 0.5 0.9 -0.3
v 0.6 0.3 -0.3
v 0.6 0.9 -0.3
v 0.1 0.9 -0.4
v 0.1 1.2 -0.4
v 0.2 0.9 -0.4
v 0.2 1.2 -0.4
v 5.96046e-08 0 -0.1
v 0.1 0 -0.1
v 5.96046e-08 0 -0.3
v 0.1 0 -0.3
v 0.2 0.1 0.2
v 0.3 0.1 0.2
v -0.1 0.1 0
v 5.96046e-08 0.1 0
v 0.2 0.1 0
v 0.3 0.1 0
v 0.4 0.1 0
v 5.96046e-08 0.1 -0.1
v 0.1 0.1 -0.2
v 0.3 0.1 -0.2
v -0.1 0.1 -0.3
v 5.96046e-08 0.1 -0.3
v 0.1 0.1 -0.3
v 0.4 0.1 -0.3
v 0.1 0.2 0
v 0.2 0.2 0
v 0.3 0.2 0
v 5.96046e-08 0.2 -0.1
v 0.1 0.2 -0.1
v 5.96046e-08 0.2 -0.2
v 0.1 0.2 -0.2
v 0.2 0.2 -0.2
v 0.3 0.2 -0.2
v 0.5 0.3 0.2
v 0.6 0.3 0.2
v 5.96046e-08 0.3 0
v 0.1 0.3 0
v 5.96046e-08 0.3 -0.1
v 0.1 0.3 -0.1
v 0.5 0.3 -0.3
v 0.6 0.3 -0.3
v -0.3 0.4 0.2
v -0.2 0.4 0.2
v -0.3 0.4 0.1
v -0.2 0.4 0.1
v 0.4 0.5 0.2
v 0.5 0.5 0.2
v -0.3 0.5 0.1
v -0.2 0.5 0.1
v 0.5 0.5 0.1
v -0.1 0.5 0
v 5.96046e-08 0.5 0
v 0.3 0.5 0
v 0.4 0.5 0
v -0.2 0.5 -0.1
v -0.1 0.5 -0.1
v 0.4 0.5 -0.2
v 0.5 0.5 -0.2
v -0.3 0.5 -0.3
v 5.96046e-08 0.5 -0.3
v 0.3 0.5 -0.3
v 0.4 0.5 -0.3
v 0.4 0.6 -0.2
v 0.5 0.6 -0.2
v 0.4 0.6 -0.3
v 0.5 0.6 -0.3
v -0.4 0.8 0.3
v -0.1 0.8 0.3
v -0.3 0.8 0.2
v -0.2 0.8 0.2
v -0.3 0.8 0.1
v -0.2 0.8 0.1
v 5.96046e-08 0.8 0.1
v 0.3 0.8 0.1
v -0.4 0.8 0
v -0.1 0.8 0
v 5.96046e-08 0.8 0
v 0.3 0.8 0
v -0.3 0.9 0.4
v -0.2 0.9 0.4
v -0.3 0.9 0.3
v -0.2 0.9 0.3
v -0.5 0.9 0.2
v -0.4 0.9 0.2
v -0.1 0.9 0.2
v 5.96046e-08 0.9 0.2
v -0.5 0.9 0.1
v -0.4 0.9 0.1
v -0.1 0.9 0.1
v 5.96046e-08 0.9 0.1
v -0.3 0.9 0
v -0.2 0.9 0
v -0.3 0.9 -0.1
v -0.2 0.9 -0.1
v 0.1 0.9 -0.3
v 0.2 0.9 -0.3
v 0.1 0.9 -0.4
v 0.2 0.9 -0.4
v 5.96046e-08 1 0.1
v 0.3 1 0.1
v 5.96046e-08 1 0
v 0.3 1 0
v 5.96046e-08 0.1 -0.1
v 0.1 0.1 -0.1
v 5.96046e-08 0.1 -0.2
v 0.1 0.1 -0.2
v 0.2 0.2 0.2
v 0.3 0.2 0.2
v 0.2 0.2 0.1
v 0.3 0.2 0.1
v 0.2 0.3 0.1
v 0.3 0.3 0.1
v 0.2 0.3 0
v 0.3 0.3 0
v -0.1 0.4 0
v 5.96046e-08 0.4 0
v 0.3 0.4 0
v 0.4 0.4 0
v -0.1 0.4 -0.3
v 5.96046e-08 0.4 -0.3
v 0.3 0.4 -0.3
v 0.4 0.4 -0.3
v 0.4 0.6 0.2
v 0.5 0.6 0.2
v -0.3 0.6 0.1
v -0.2 0.6 0.1
v 0.5 0.6 0.1
v 0.4 0.6 0
v -0.3 0.6 -0.1
v -0.2 0.6 -0.1
v 0.4 0.6 -0.1
v 0.5 0.6 -0.1
v -0.2 0.7 -0.1
v -0.1 0.7 -0.1
v -0.2 0.7 -0.3
v -0.1 0.7 -0.3
v -0.1 0.8 0
v 5.96046e-08 0.8 0
v 0.3 0.8 0
v 0.4 0.8 0
v -0.3 0.8 -0.1
v -0.2 0.8 -0.1
v 0.4 0.8 -0.1
v 0.5 0.8 -0.1
v -0.3 0.8 -0.3
v -0.2 0.8 -0.3
v -0.1 0.8 -0.3
v 5.96046e-08 0.8 -0.3
v 0.3 0.8 -0.3
v 0.5 0.8 -0.3
v 0.5 0.9 0.2
v 0.6 0.9 0.2
v 5.96046e-08 0.9 0.1
v 0.3 0.9 0.1
v 5.96046e-08 0.9 0
v 0.3 0.9 0
v 0.5 0.9 -0.3
v 0.6 0.9 -0.3
v -0.3 1 0.4
v -0.2 1 0.4
v -0.3 1 0.3
v -0.2 1 0.3
v -0.5 1 0.2
v -0.4 1 0.2
v -0.1 1 0.2
v 5.96046e-08 1 0.2
v -0.5 1 0.1
v -0.4 1 0.1
v -0.1 1 0.1
v 5.96046e-08 1 0.1
v -0.3 1 0
v -0.2 1 0
v -0.3 1 -0.1
v -0.2 1 -0.1
v -0.4 1.1 0.3
v -0.1 1.1 0.3
v -0.3 1.1 0.2
v -0.2 1.1 0.2
v -0.3 1.1 0.1
v -0.2 1.1 0.1
v 5.96046e-08 1.1 0.1
v 0.3 1.1 0.1
v -0.4 1.1 0
v -0.1 1.1 0
v 0.1 1.1 0
v 0.2 1.1 0
v 5.96046e-08 1.1 -0.3
v 0.1 1.1 -0.3
v 0.2 1.1 -0.3
v 0.3 1.1 -0.3
v -0.3 1.2 0.2
v -0.2 1.2 0.2
v -0.3 1.2 0.1
v -0.2 1.2 0.1
v 0.1 1.2 0
v 0.2 1.2 0
v 0.1 1.2 -0.4
v 0.2 1.2 -0.4

# faces
f 3/3/1 2/3/1 1/3/1
f 4/3/1 2/3/1 3/3/1
f 7/1/1 6/1/1 5/1/1
f 8/1/1 6/1/1 7/1/1
f 9/1/1 7/1/1 5/1/1
f 10/1/1 6/1/1 8/1/1
f 11/1/1 9/1/1 5/1/1
f 11/1/1 10/1/1 9/1/1
f 12/1/1 6/1/1 10/1/1
f 12/1/1 10/1/1 11/1/1
f 15/1/1 14/1/1 13/1/1
f 16/1/1 14/1/1 15/1/1
f 18/2/1 16/2/1 15/2/1
f 18/2/1 17/2/1 16/2/1
f 19/2/1 17/2/1 18/2/1
f 20/2/1 17/2/1 19/2/1
f 21/1/1 19/1/1 18/1/1
f 22/1/1 19/1/1 21/1/1
f 23/2/1 17/2/1 20/2/1
f 24/2/1 17/2/1 23/2/1
f 29/3/1 26/3/1 25/3/1
f 30/3/1 26/3/1 29/3/1
f 31/3/1 28/3/1 27/3/1
f 32/3/1 28/3/1 31/3/1
f 35/3/1 34/3/1 33/3/1
f 36/3/1 34/3/1 35/3/1
f 39/2/1 38/2/1 37/2/1
f 40/2/1 38/2/1 39/2/1
f 43/2/1 42/2/1 41/2/1
f 45/2/1 43/2/1 41/2/1
f 45/2/1 44/2/1 43/2/1
f 46/2/1 44/2/1 45/2/1
f 49/1/1 48/1/1 47/1/1
f 50/1/1 48/1/1 49/1/1
f 53/1/1 52/1/1 51/1/1
f 54/1/1 52/1/1 53/1/1
f 58/2/1 56/2/1 55/2/1
f 58/2/1 57/2/1 56/2/1
f 59/2/1 57/2/1 58/2/1
f 60/2/1 57/2/1 59/2/1
f 62/4/1 60/4/1 59/4/1
f 63/2/1 57/2/1 60/2/1
f 63/4/1 60/4/1 62/4/1
f 64/2/1 62/2/1 61/2/1
f 64/2/1 63/2/1 62/2/1
f 65/2/1 57/2/1 63/2/1
f 65/2/1 63/2/1 64/2/1
f 68/2/1 67/2/1 66/2/1
f 69/2/1 67/2/1 68/2/1
f 73/1/1 71/1/1 70/1/1
f 74/1/1 73/1/1 72/1/1
f 75/1/1 71/1/1 73/1/1
f 75/1/1 73/1/1 74/1/1
f 78/1/1 77/1/1 76/1/1
f 79/1/1 77/1/1 78/1/1
f 80/1/1 77/1/1 79/1/1
f 81/1/1 80/1/1 79/1/1
f 82/1/1 80/1/1 81/1/1
f 85/2/1 84/2/1 83/2/1
f 86/2/1 84/2/1 85/2/1
f 89/2/1 88/2/1 87/2/1
f 90/2/1 88/2/1 89/2/1
f 93/1/1 92/1/1 91/1/1
f 94/1/1 92/1/1 93/1/1
f 95/1/1 93/1/1 91/1/1
f 96/3/1 94/3/1 93/3/1
f 96/1/1 93/1/1 95/1/1
f 97/1/1 92/1/1 94/1/1
f 97/3/1 94/3/1 96/3/1
f 101/1/1 92/1/1 97/1/1
f 102/1/1 92/1/1 101/1/1
f 103/3/1 100/3/1 99/3/1
f 103/1/1 99/1/1 98/1/1
f 104/3/1 100/3/1 103/3/1
f 106/1/1 103/1/1 98/1/1
f 106/1/1 105/1/1 104/1/1
f 106/1/1 104/1/1 103/1/1
f 107/1/1 105/1/1 106/1/1
f 108/1/2 109/1/2 110/1/2
f 110/1/2 109/1/2 111/1/2
f 110/2/2 111/2/2 113/2/2
f 111/2/2 112/2/2 113/2/2
f 113/2/2 112/2/2 114/2/2
f 114/2/2 112/2/2 115/2/2
f 113/1/2 114/1/2 118/1/2
f 118/1/2 114/1/2 119/1/2
f 116/2/2 117/2/2 120/2/2
f 120/2/2 117/2/2 121/2/2
f 122/3/2 123/3/2 126/3/2
f 126/3/2 123/3/2 127/3/2
f 124/3/2 125/3/2 128/3/2
f 128/3/2 125/3/2 129/3/2
f 130/3/2 131/3/2 132/3/2
f 132/3/2 131/3/2 133/3/2
f 134/1/2 135/1/2 136/1/2
f 136/1/2 135/1/2 137/1/2
f 134/1/2 136/1/2 138/1/2
f 137/1/2 135/1/2 139/1/2
f 134/1/2 138/1/2 140/1/2
f 138/1/2 139/1/2 140/1/2
f 139/1/2 135/1/2 141/1/2
f 140/1/2 139/1/2 141/1/2
f 142/2/2 143/2/2 145/2/2
f 143/2/2 144/2/2 145/2/2
f 145/2/2 144/2/2 146/2/2
f 142/2/2 145/2/2 147/2/2
f 147/2/2 145/2/2 148/2/2
f 149/3/2 150/3/2 151/3/2
f 151/3/2 150/3/2 152/3/2
f 153/1/2 154/1/2 155/1/2
f 155/1/2 154/1/2 156/1/2
f 156/1/2 154/1/2 157/1/2
f 158/1/2 159/1/2 161/1/2
f 160/1/2 161/1/2 162/1/2
f 161/1/2 159/1/2 163/1/2
f 162/1/2 161/1/2 163/1/2
f 164/1/2 165/1/2 166/1/2
f 166/1/2 165/1/2 167/1/2
f 167/1/2 165/1/2 168/1/2
f 168/1/2 165/1/2 169/1/2
f 170/1/2 171/1/2 172/1/2
f 172/1/2 171/1/2 173/1/2
f 174/2/2 175/2/2 177/2/2
f 175/2/2 176/2/2 177/2/2
f 177/2/2 176/2/2 178/2/2
f 178/2/2 176/2/2 179/2/2
f 178/4/2 179/4/2 181/4/2
f 179/2/2 176/2/2 182/2/2
f 181/4/2 179/4/2 182/4/2
f 180/2/2 181/2/2 183/2/2
f 181/2/2 182/2/2 183/2/2
f 182/2/2 176/2/2 184/2/2
f 183/2/2 182/2/2 184/2/2
f 185/2/2 186/2/2 187/2/2
f 187/2/2 186/2/2 188/2/2
f 189/2/2 190/2/2 193/2/2
f 193/2/2 190/2/2 194/2/2
f 191/2/2 192/2/2 195/2/2
f 195/2/2 192/2/2 196/2/2
f 197/1/2 198/1/2 199/1/2
f 199/1/2 198/1/2 200/1/2
f 197/1/2 199/1/2 201/1/2
f 199/3/2 200/3/2 201/3/2
f 200/1/2 198/1/2 202/1/2
f 201/3/2 200/3/2 202/3/2
f 197/1/2 201/1/2 203/1/2
f 201/1/2 202/1/2 203/1/2
f 202/1/2 198/1/2 204/1/2
f 203/1/2 202/1/2 204/1/2
f 207/3/3 206/3/3 205/3/3
f 208/3/3 206/3/3 207/3/3
f 211/1/3 210/1/3 209/1/3
f 212/1/3 210/1/3 211/1/3
f 213/1/3 211/1/3 209/1/3
f 214/1/3 210/1/3 212/1/3
f 215/1/3 213/1/3 209/1/3
f 215/1/3 214/1/3 213/1/3
f 216/1/3 210/1/3 214/1/3
f 216/1/3 214/1/3 215/1/3
f 219/3/3 218/3/3 217/3/3
f 220/3/3 218/3/3 219/3/3
f 227/1/3 222/1/3 221/1/3
f 228/2/3 223/2/3 222/2/3
f 228/1/3 222/1/3 227/1/3
f 229/1/3 224/1/3 223/1/3
f 229/2/3 223/2/3 228/2/3
f 230/1/3 224/1/3 229/1/3
f 231/3/3 226/3/3 225/3/3
f 232/3/3 226/3/3 231/3/3
f 235/3/3 234/3/3 233/3/3
f 236/3/3 234/3/3 235/3/3
f 239/1/3 238/1/3 237/1/3
f 240/1/3 238/1/3 239/1/3
f 244/2/3 242/2/3 241/2/3
f 245/2/3 242/2/3 244/2/3
f 247/1/3 244/1/3 243/1/3
f 247/1/3 246/1/3 245/1/3
f 247/1/3 245/1/3 244/1/3
f 248/1/3 246/1/3 247/1/3
f 255/1/3 254/1/3 253/1/3
f 256/1/3 254/1/3 255/1/3
f 257/2/3 250/2/3 249/2/3
f 258/2/3 250/2/3 257/2/3
f 259/2/3 252/2/3 251/2/3
f 260/2/3 252/2/3 259/2/3
f 265/2/3 262/2/3 261/2/3
f 266/2/3 262/2/3 265/2/3
f 267/2/3 262/2/3 266/2/3
f 268/2/3 264/2/3 263/2/3
f 269/2/3 264/2/3 268/2/3
f 273/2/3 267/2/3 266/2/3
f 276/2/3 273/2/3 272/2/3
f 277/2/3 267/2/3 273/2/3
f 277/2/3 273/2/3 276/2/3
f 278/1/3 275/1/3 274/1/3
f 279/1/3 275/1/3 278/1/3
f 281/2/3 267/2/3 277/2/3
f 282/1/3 268/1/3 267/1/3
f 282/2/3 267/2/3 281/2/3
f 283/2/3 269/2/3 268/2/3
f 283/1/3 268/1/3 282/1/3
f 284/2/3 269/2/3 283/2/3
f 285/4/3 271/4/3 270/4/3
f 286/4/3 271/4/3 285/4/3
f 287/2/3 282/2/3 281/2/3
f 287/2/3 281/2/3 280/2/3
f 288/2/3 282/2/3 287/2/3
f 289/2/3 284/2/3 283/2/3
f 290/2/3 284/2/3 289/2/3
f 291/2/3 284/2/3 290/2/3
f 295/2/3 293/2/3 292/2/3
f 296/2/3 293/2/3 295/2/3
f 297/2/3 293/2/3 296/2/3
f 298/2/3 295/2/3 294/2/3
f 298/2/3 296/2/3 295/2/3
f 299/2/3 296/2/3 298/2/3
f 304/1/3 301/1/3 300/1/3
f 305/1/3 301/1/3 304/1/3
f 306/1/3 303/1/3 302/1/3
f 307/1/3 303/1/3 306/1/3
f 310/2/3 309/2/3 308/2/3
f 311/2/3 309/2/3 310/2/3
f 314/1/3 313/1/3 312/1/3
f 315/1/3 313/1/3 314/1/3
f 316/2/3 315/2/3 314/2/3
f 317/2/3 316/2/3 314/2/3
f 318/2/3 316/2/3 317/2/3
f 319/3/4 320/3/4 321/3/4
f 321/3/4 320/3/4 322/3/4
f 323/1/4 324/1/4 329/1/4
f 329/1/4 324/1/4 330/1/4
f 325/1/4 326/1/4 331/1/4
f 331/1/4 326/1/4 332/1/4
f 327/3/4 328/3/4 333/3/4
f 333/3/4 328/3/4 334/3/4
f 335/3/4 336/3/4 337/3/4
f 337/3/4 336/3/4 338/3/4
f 339/1/4 340/1/4 341/1/4
f 341/1/4 340/1/4 342/1/4
f 339/1/4 341/1/4 343/1/4
f 342/1/4 340/1/4 344/1/4
f 339/1/4 343/1/4 345/1/4
f 343/1/4 344/1/4 345/1/4
f 344/1/4 340/1/4 346/1/4
f 345/1/4 344/1/4 346/1/4
f 347/1/4 348/1/4 349/1/4
f 349/1/4 348/1/4 350/1/4
f 351/3/4 352/3/4 353/3/4
f 353/3/4 352/3/4 354/3/4
f 355/2/4 356/2/4 357/2/4
f 357/2/4 356/2/4 358/2/4
f 359/2/4 360/2/4 361/2/4
f 361/2/4 360/2/4 362/2/4
f 359/2/4 361/2/4 365/2/4
f 363/2/4 364/2/4 368/2/4
f 368/2/4 364/2/4 369/2/4
f 369/2/4 364/2/4 370/2/4
f 365/2/4 366/2/4 371/2/4
f 359/2/4 365/2/4 371/2/4
f 371/2/4 366/2/4 372/2/4
f 368/1/4 369/1/4 374/1/4
f 367/1/4 368/1/4 374/1/4
f 374/1/4 369/1/4 375/1/4
f 369/2/4 370/2/4 376/2/4
f 375/1/4 369/1/4 376/1/4
f 371/2/4 372/2/4 377/2/4
f 372/2/4 373/2/4 377/2/4
f 377/2/4 373/2/4 378/2/4
f 371/2/4 377/2/4 379/2/4
f 376/2/4 370/2/4 381/2/4
f 375/2/4 376/2/4 381/2/4
f 370/1/4 371/1/4 381/1/4
f 379/2/4 380/2/4 382/2/4
f 381/1/4 371/1/4 382/1/4
f 371/2/4 379/2/4 382/2/4
f 382/2/4 380/2/4 383/2/4
f 383/2/4 380/2/4 384/2/4
f 375/2/4 381/2/4 385/2/4
f 385/2/4 381/2/4 386/2/4
f 382/2/4 383/2/4 387/2/4
f 387/2/4 383/2/4 388/2/4
f 388/2/4 383/2/4 390/2/4
f 390/2/4 383/2/4 391/2/4
f 389/1/4 390/1/4 393/1/4
f 391/1/4 392/1/4 393/1/4
f 390/1/4 391/1/4 393/1/4
f 393/1/4 392/1/4 394/1/4
f 395/1/4 396/1/4 397/1/4
f 397/1/4 396/1/4 398/1/4
f 401/1/5 400/1/5 399/1/5
f 402/1/5 400/1/5 401/1/5
f 407/1/5 404/1/5 403/1/5
f 408/1/5 404/1/5 407/1/5
f 410/2/5 406/2/5 405/2/5
f 412/2/5 409/2/5 408/2/5
f 413/2/5 410/2/5 405/2/5
f 414/2/5 410/2/5 413/2/5
f 415/2/5 412/2/5 411/2/5
f 416/2/5 409/2/5 412/2/5
f 416/2/5 412/2/5 415/2/5
f 421/2/5 418/2/5 417/2/5
f 422/1/5 421/1/5 420/1/5
f 423/2/5 418/2/5 421/2/5
f 423/1/5 421/1/5 422/1/5
f 424/1/5 419/1/5 418/1/5
f 424/2/5 418/2/5 423/2/5
f 425/1/5 419/1/5 424/1/5
f 430/2/5 429/2/5 428/2/5
f 431/2/5 429/2/5 430/2/5
f 432/1/5 427/1/5 426/1/5
f 433/1/5 427/1/5 432/1/5
f 436/1/5 435/1/5 434/1/5
f 437/1/5 435/1/5 436/1/5
f 442/2/5 439/2/5 438/2/5
f 446/2/5 442/2/5 438/2/5
f 447/2/5 441/2/5 440/2/5
f 448/2/5 444/2/5 443/2/5
f 449/2/5 446/2/5 445/2/5
f 449/2/5 442/2/5 446/2/5
f 450/2/5 442/2/5 449/2/5
f 451/2/5 448/2/5 447/2/5
f 451/2/5 447/2/5 440/2/5
f 452/2/5 444/2/5 448/2/5
f 452/2/5 448/2/5 451/2/5
f 453/2/5 449/2/5 445/2/5
f 454/2/5 449/2/5 453/2/5
f 457/2/5 456/2/5 455/2/5
f 458/2/5 456/2/5 457/2/5
f 461/1/5 460/1/5 459/1/5
f 462/1/5 460/1/5 461/1/5
f 463/1/5 461/1/5 459/1/5
f 464/1/5 460/1/5 462/1/5
f 467/1/5 463/1/5 459/1/5
f 467/1/5 464/1/5 463/1/5
f 468/1/5 460/1/5 464/1/5
f 468/1/5 464/1/5 467/1/5
f 469/2/5 466/2/5 465/2/5
f 470/2/5 466/2/5 469/2/5
f 473/3/5 472/3/5 471/3/5
f 474/3/5 472/3/5 473/3/5
f 479/3/5 476/3/5 475/3/5
f 480/3/5 476/3/5 479/3/5
f 481/3/5 478/3/5 477/3/5
f 482/3/5 478/3/5 481/3/5
f 485/3/5 484/3/5 483/3/5
f 486/3/5 484/3/5 485/3/5
f 489/1/5 488/1/5 487/1/5
f 490/1/5 488/1/5 489/1/5
f 493/2/5 492/2/5 491/2/5
f 494/2/5 492/2/5 493/2/5
f 495/1/6 496/1/6 497/1/6
f 497/1/6 496/1/6 498/1/6
f 499/1/6 500/1/6 501/1/6
f 501/1/6 500/1/6 502/1/6
f 503/1/6 504/1/6 505/1/6
f 505/1/6 504/1/6 506/1/6
f 507/2/6 508/2/6 511/2/6
f 511/2/6 508/2/6 512/2/6
f 509/2/6 510/2/6 513/2/6
f 513/2/6 510/2/6 514/2/6
f 515/2/6 516/2/6 519/2/6
f 515/2/6 519/2/6 520/2/6
f 517/2/6 518/2/6 521/2/6
f 521/2/6 518/2/6 522/2/6
f 520/2/6 519/2/6 523/2/6
f 523/2/6 519/2/6 524/2/6
f 525/2/6 526/2/6 527/2/6
f 527/2/6 526/2/6 528/2/6
f 531/2/6 532/2/6 535/2/6
f 533/2/6 534/2/6 537/2/6
f 537/2/6 534/2/6 538/2/6
f 529/2/6 530/2/6 539/2/6
f 539/2/6 530/2/6 540/2/6
f 535/2/6 536/2/6 541/2/6
f 531/2/6 535/2/6 541/2/6
f 541/2/6 536/2/6 542/2/6
f 545/2/6 546/2/6 547/2/6
f 547/2/6 546/2/6 548/2/6
f 543/1/6 544/1/6 549/1/6
f 549/1/6 544/1/6 550/1/6
f 551/3/6 552/3/6 553/3/6
f 553/3/6 552/3/6 554/3/6
f 555/3/6 556/3/6 559/3/6
f 559/3/6 556/3/6 560/3/6
f 557/3/6 558/3/6 561/3/6
f 561/3/6 558/3/6 562/3/6
f 563/3/6 564/3/6 565/3/6
f 565/3/6 564/3/6 566/3/6
f 567/1/6 568/1/6 569/1/6
f 569/1/6 568/1/6 570/1/6
f 567/1/6 569/1/6 571/1/6
f 570/1/6 568/1/6 572/1/6
f 567/1/6 571/1/6 575/1/6
f 571/1/6 572/1/6 575/1/6
f 572/1/6 568/1/6 576/1/6
f 575/1/6 572/1/6 576/1/6
f 573/2/6 574/2/6 577/2/6
f 577/2/6 574/2/6 578/2/6
f 573/2/6 577/2/6 579/2/6
f 579/2/6 577/2/6 580/2/6
f 578/2/6 574/2/6 581/2/6
f 581/2/6 574/2/6 582/2/6
f 583/3/6 584/3/6 585/3/6
f 585/3/6 584/3/6 586/3/6
f 587/1/6 588/1/6 589/1/6
f 589/1/6 588/1/6 590/1/6
