# MagicaVoxel @ Ephtracy

# group
o 

# material
mtllib knight_idle_1.mtl
usemtl palette

# normals
vn -1 0 0
vn 1 0 0
vn 0 0 1
vn 0 0 -1
vn 0 -1 0
vn 0 1 0

# texcoords
vt 0.787109 0.5
vt 0.880859 0.5
vt 0.943359 0.5
vt 0.970703 0.5

# verts
v -0.5 0.9 0.2
v -0.5 0.9 0.1
v -0.5 1 0.2
v -0.5 1 0.1
v -0.4 0.8 0.3
v -0.4 0.8 0
v -0.4 0.9 0.2
v -0.4 0.9 0.1
v -0.4 1 0.2
v -0.4 1 0.1
v -0.4 1.1 0.3
v -0.4 1.1 0
v -0.3 0.4 0.2
v -0.3 0.4 0.1
v -0.3 0.5 0.2
v -0.3 0.5 0.1
v -0.3 0.5 -0.4
v -0.3 0.6 0.2
v -0.3 0.6 0.1
v -0.3 0.6 -0.1
v -0.3 0.8 0.2
v -0.3 0.8 0.1
v -0.3 0.8 -0.1
v -0.3 0.8 -0.4
v -0.3 0.9 0.4
v -0.3 0.9 0.3
v -0.3 0.9 0
v -0.3 0.9 -0.1
v -0.3 1 0.4
v -0.3 1 0.3
v -0.3 1 0
v -0.3 1 -0.1
v -0.3 1.1 0.2
v -0.3 1.1 0.1
v -0.3 1.2 0.2
v -0.3 1.2 0.1
v -0.1 0.1 0
v -0.1 0.1 -0.3
v -0.1 0.4 0
v -0.1 0.4 -0.3
v -0.1 0.5 0
v -0.1 0.5 -0.1
v -0.1 0.7 -0.1
v -0.1 0.7 -0.3
v -0.1 0.8 0
v -0.1 0.8 -0.3
v 5.96046e-08 0 0
v 5.96046e-08 0 -0.2
v 5.96046e-08 0.1 0
v 5.96046e-08 0.1 -0.2
v 5.96046e-08 0.2 0.2
v 5.96046e-08 0.2 0.1
v 5.96046e-08 0.4 0
v 5.96046e-08 0.4 -0.3
v 5.96046e-08 0.5 0
v 5.96046e-08 0.5 -0.3
v 5.96046e-08 0.8 0.2
v 5.96046e-08 0.8 0.1
v 5.96046e-08 0.8 0
v 5.96046e-08 0.8 -0.3
v 5.96046e-08 0.9 0.1
v 5.96046e-08 0.9 0
v 5.96046e-08 0.9 -0.1
v 5.96046e-08 1 0.1
v 5.96046e-08 1 0
v 5.96046e-08 1 -0.1
v 5.96046e-08 1.1 0.1
v 5.96046e-08 1.1 -0.3
v 0.1 0.2 0
v 0.1 0.2 -0.1
v 0.1 0.3 0
v 0.1 0.3 -0.1
v 0.1 0.6 0.1
v 0.1 0.6 0
v 0.1 0.7 0.1
v 0.1 0.7 0
v 0.1 0.9 -0.3
v 0.1 0.9 -0.4
v 0.1 1.1 0
v 0.1 1.1 -0.3
v 0.1 1.2 0
v 0.1 1.2 -0.4
v 0.2 0 0
v 0.2 0 -0.2
v 0.2 0.1 0
v 0.2 0.1 -0.1
v 0.2 0.1 -0.2
v 0.2 0.2 -0.1
v 0.2 0.2 -0.2
v 0.3 0.1 0
v 0.3 0.1 -0.1
v 0.3 0.3 0
v 0.3 0.3 -0.1
v 0.4 0.5 0.1
v 0.4 0.5 0
v 0.4 0.5 -0.3
v 0.4 0.5 -0.4
v 0.4 0.6 0.1
v 0.4 0.6 0
v 0.4 0.7 -0.3
v 0.4 0.7 -0.4
v 0.5 0.7 -0.1
v 0.5 0.7 -0.4
v 0.5 0.8 -0.1
v 0.5 0.8 -0.4
v -0.2 0.4 0.2
v -0.2 0.4 0.1
v -0.2 0.5 0.2
v -0.2 0.5 0.1
v -0.2 0.5 -0.1
v -0.2 0.6 0.2
v -0.2 0.6 0.1
v -0.2 0.6 -0.1
v -0.2 0.7 -0.1
v -0.2 0.7 -0.4
v -0.2 0.8 0.2
v -0.2 0.8 0.1
v -0.2 0.8 -0.1
v -0.2 0.8 -0.4
v -0.2 0.9 0.4
v -0.2 0.9 0.3
v -0.2 0.9 0
v -0.2 0.9 -0.1
v -0.2 1 0.4
v -0.2 1 0.3
v -0.2 1 0
v -0.2 1 -0.1
v -0.2 1.1 0.2
v -0.2 1.1 0.1
v -0.2 1.2 0.2
v -0.2 1.2 0.1
v -0.1 0.5 -0.3
v -0.1 0.5 -0.4
v -0.1 0.7 -0.3
v -0.1 0.7 -0.4
v -0.1 0.8 0.3
v -0.1 0.8 0
v -0.1 0.9 0.2
v -0.1 0.9 0.1
v -0.1 1 0.2
v -0.1 1 0.1
v -0.1 1.1 0.3
v -0.1 1.1 0
v 5.96046e-08 0.1 0
v 5.96046e-08 0.1 -0.1
v 5.96046e-08 0.3 0
v 5.96046e-08 0.3 -0.1
v 5.96046e-08 0.9 0.2
v 5.96046e-08 0.9 0.1
v 5.96046e-08 1 0.2
v 5.96046e-08 1 0.1
v 0.1 0 0
v 0.1 0 -0.2
v 0.1 0.1 0
v 0.1 0.1 -0.1
v 0.1 0.1 -0.2
v 0.1 0.2 -0.1
v 0.1 0.2 -0.2
v 0.2 0.2 0
v 0.2 0.2 -0.1
v 0.2 0.3 0
v 0.2 0.3 -0.1
v 0.2 0.9 -0.3
v 0.2 0.9 -0.4
v 0.2 1.1 0
v 0.2 1.1 -0.3
v 0.2 1.2 0
v 0.2 1.2 -0.4
v 0.3 0 0
v 0.3 0 -0.2
v 0.3 0.1 0
v 0.3 0.1 -0.2
v 0.3 0.4 0
v 0.3 0.4 -0.3
v 0.3 0.5 0
v 0.3 0.5 -0.3
v 0.3 0.8 0.1
v 0.3 0.8 0
v 0.3 0.8 -0.3
v 0.3 0.9 0.1
v 0.3 0.9 0
v 0.3 0.9 -0.1
v 0.3 1 0.1
v 0.3 1 0
v 0.3 1 -0.1
v 0.3 1.1 0.1
v 0.3 1.1 -0.3
v 0.4 0.1 0
v 0.4 0.1 -0.3
v 0.4 0.4 0
v 0.4 0.4 -0.3
v 0.4 0.6 0.1
v 0.4 0.6 -0.1
v 0.4 0.7 0.1
v 0.4 0.7 0
v 0.4 0.7 -0.1
v 0.4 0.7 -0.3
v 0.4 0.8 0
v 0.4 0.8 -0.3
v 0.5 0.2 0.2
v 0.5 0.2 0.1
v 0.5 0.5 0.1
v 0.5 0.5 -0.1
v 0.5 0.6 0.1
v 0.5 0.6 -0.1
v 0.5 0.8 0.2
v 0.5 0.8 0.1
v 0.6 0.5 -0.1
v 0.6 0.5 -0.4
v 0.6 0.8 -0.1
v 0.6 0.8 -0.4
v -0.3 0.9 0.4
v -0.3 1 0.4
v -0.2 0.9 0.4
v -0.2 1 0.4
v -0.4 0.8 0.3
v -0.4 1.1 0.3
v -0.3 0.9 0.3
v -0.3 1 0.3
v -0.2 0.9 0.3
v -0.2 1 0.3
v -0.1 0.8 0.3
v -0.1 1.1 0.3
v -0.5 0.9 0.2
v -0.5 1 0.2
v -0.4 0.9 0.2
v -0.4 1 0.2
v -0.3 0.4 0.2
v -0.3 0.5 0.2
v -0.3 0.6 0.2
v -0.3 0.8 0.2
v -0.3 1.1 0.2
v -0.3 1.2 0.2
v -0.2 0.4 0.2
v -0.2 0.5 0.2
v -0.2 0.6 0.2
v -0.2 0.8 0.2
v -0.2 1.1 0.2
v -0.2 1.2 0.2
v -0.1 0.9 0.2
v -0.1 1 0.2
v 5.96046e-08 0.2 0.2
v 5.96046e-08 0.8 0.2
v 5.96046e-08 0.9 0.2
v 5.96046e-08 1 0.2
v 0.1 0.3 0.2
v 0.1 0.7 0.2
v 0.4 0.3 0.2
v 0.4 0.7 0.2
v 0.5 0.2 0.2
v 0.5 0.8 0.2
v 5.96046e-08 0.8 0.1
v 5.96046e-08 0.9 0.1
v 5.96046e-08 1 0.1
v 5.96046e-08 1.1 0.1
v 0.3 0.8 0.1
v 0.3 0.9 0.1
v 0.3 1 0.1
v 0.3 1.1 0.1
v -0.1 0.1 0
v -0.1 0.4 0
v -0.1 0.5 0
v -0.1 0.8 0
v 5.96046e-08 0 0
v 5.96046e-08 0.1 0
v 5.96046e-08 0.3 0
v 5.96046e-08 0.4 0
v 5.96046e-08 0.5 0
v 5.96046e-08 0.8 0
v 5.96046e-08 0.9 0
v 5.96046e-08 1 0
v 0.1 0 0
v 0.1 0.1 0
v 0.1 0.2 0
v 0.1 0.3 0
v 0.1 0.6 0
v 0.1 0.7 0
v 0.1 1.1 0
v 0.1 1.2 0
v 0.2 0 0
v 0.2 0.1 0
v 0.2 0.2 0
v 0.2 0.3 0
v 0.2 1.1 0
v 0.2 1.2 0
v 0.3 0 0
v 0.3 0.1 0
v 0.3 0.3 0
v 0.3 0.4 0
v 0.3 0.5 0
v 0.3 0.8 0
v 0.3 0.9 0
v 0.3 1 0
v 0.4 0.1 0
v 0.4 0.4 0
v 0.4 0.5 0
v 0.4 0.6 0
v 0.4 0.7 0
v 0.4 0.8 0
v -0.3 0.6 -0.1
v -0.3 0.8 -0.1
v -0.2 0.5 -0.1
v -0.2 0.6 -0.1
v -0.2 0.7 -0.1
v -0.2 0.8 -0.1
v -0.1 0.5 -0.1
v -0.1 0.7 -0.1
v 5.96046e-08 0.1 -0.1
v 5.96046e-08 0.3 -0.1
v 0.1 0.1 -0.1
v 0.1 0.2 -0.1
v 0.1 0.3 -0.1
v 0.2 0.1 -0.1
v 0.2 0.2 -0.1
v 0.2 0.3 -0.1
v 0.3 0.1 -0.1
v 0.3 0.3 -0.1
v 0.4 0.6 -0.1
v 0.4 0.7 -0.1
v 0.5 0.5 -0.1
v 0.5 0.6 -0.1
v 0.5 0.7 -0.1
v 0.5 0.8 -0.1
v 0.6 0.5 -0.1
v 0.6 0.8 -0.1
v 0.1 0.1 -0.2
v 0.1 0.2 -0.2
v 0.2 0.1 -0.2
v 0.2 0.2 -0.2
v -0.5 0.9 0.1
v -0.5 1 0.1
v -0.4 0.9 0.1
v -0.4 1 0.1
v -0.3 0.4 0.1
v -0.3 0.5 0.1
v -0.3 0.6 0.1
v -0.3 0.8 0.1
v -0.3 1.1 0.1
v -0.3 1.2 0.1
v -0.2 0.4 0.1
v -0.2 0.5 0.1
v -0.2 0.6 0.1
v -0.2 0.8 0.1
v -0.2 1.1 0.1
v -0.2 1.2 0.1
v -0.1 0.9 0.1
v -0.1 1 0.1
v 5.96046e-08 0.2 0.1
v 5.96046e-08 0.8 0.1
v 5.96046e-08 0.9 0.1
v 5.96046e-08 1 0.1
v 0.1 0.3 0.1
v 0.1 0.6 0.1
v 0.1 0.7 0.1
v 0.3 0.8 0.1
v 0.4 0.3 0.1
v 0.4 0.5 0.1
v 0.4 0.6 0.1
v 0.4 0.7 0.1
v 0.5 0.2 0.1
v 0.5 0.5 0.1
v 0.5 0.6 0.1
v 0.5 0.8 0.1
v -0.4 0.8 0
v -0.4 1.1 0
v -0.3 0.9 0
v -0.3 1 0
v -0.2 0.9 0
v -0.2 1 0
v -0.1 0.8 0
v -0.1 1.1 0
v -0.3 0.9 -0.1
v -0.3 1 -0.1
v -0.2 0.9 -0.1
v -0.2 1 -0.1
v 5.96046e-08 0 -0.2
v 5.96046e-08 0.1 -0.2
v 0.1 0 -0.2
v 0.1 0.1 -0.2
v 0.2 0 -0.2
v 0.2 0.1 -0.2
v 0.3 0 -0.2
v 0.3 0.1 -0.2
v -0.1 0.1 -0.3
v -0.1 0.4 -0.3
v -0.1 0.5 -0.3
v -0.1 0.7 -0.3
v -0.1 0.8 -0.3
v 5.96046e-08 0.4 -0.3
v 5.96046e-08 0.5 -0.3
v 5.96046e-08 0.8 -0.3
v 5.96046e-08 1.1 -0.3
v 0.1 0.9 -0.3
v 0.1 1.1 -0.3
v 0.2 0.9 -0.3
v 0.2 1.1 -0.3
v 0.3 0.4 -0.3
v 0.3 0.5 -0.3
v 0.3 0.8 -0.3
v 0.3 1.1 -0.3
v 0.4 0.1 -0.3
v 0.4 0.4 -0.3
v 0.4 0.5 -0.3
v 0.4 0.7 -0.3
v 0.4 0.8 -0.3
v -0.3 0.5 -0.4
v -0.3 0.8 -0.4
v -0.2 0.7 -0.4
v -0.2 0.8 -0.4
v -0.1 0.5 -0.4
v -0.1 0.7 -0.4
v 0.1 0.9 -0.4
v 0.1 1.2 -0.4
v 0.2 0.9 -0.4
v 0.2 1.2 -0.4
v 0.4 0.5 -0.4
v 0.4 0.7 -0.4
v 0.5 0.7 -0.4
v 0.5 0.8 -0.4
v 0.6 0.5 -0.4
v 0.6 0.8 -0.4
v 5.96046e-08 0 0
v 0.1 0 0
v 0.2 0 0
v 0.3 0 0
v 5.96046e-08 0 -0.2
v 0.1 0 -0.2
v 0.2 0 -0.2
v 0.3 0 -0.2
v -0.1 0.1 0
v 5.96046e-08 0.1 0
v 0.3 0.1 0
v 0.4 0.1 0
v 5.96046e-08 0.1 -0.2
v 0.1 0.1 -0.2
v 0.2 0.1 -0.2
v 0.3 0.1 -0.2
v -0.1 0.1 -0.3
v 0.4 0.1 -0.3
v 5.96046e-08 0.2 0.2
v 0.5 0.2 0.2
v 5.96046e-08 0.2 0.1
v 0.5 0.2 0.1
v 0.1 0.2 0
v 0.2 0.2 0
v 0.1 0.2 -0.1
v 0.2 0.2 -0.1
v 0.1 0.2 -0.2
v 0.2 0.2 -0.2
v 5.96046e-08 0.3 0
v 0.1 0.3 0
v 0.2 0.3 0
v 0.3 0.3 0
v 5.96046e-08 0.3 -0.1
v 0.1 0.3 -0.1
v 0.2 0.3 -0.1
v 0.3 0.3 -0.1
v -0.3 0.4 0.2
v -0.2 0.4 0.2
v -0.3 0.4 0.1
v -0.2 0.4 0.1
v -0.3 0.5 0.1
v -0.2 0.5 0.1
v 0.4 0.5 0.1
v 0.5 0.5 0.1
v -0.1 0.5 0
v 5.96046e-08 0.5 0
v 0.3 0.5 0
v 0.4 0.5 0
v -0.2 0.5 -0.1
v -0.1 0.5 -0.1
v 0.5 0.5 -0.1
v 0.6 0.5 -0.1
v -0.1 0.5 -0.3
v 5.96046e-08 0.5 -0.3
v 0.3 0.5 -0.3
v 0.4 0.5 -0.3
v -0.3 0.5 -0.4
v -0.1 0.5 -0.4
v 0.4 0.5 -0.4
v 0.6 0.5 -0.4
v 0.1 0.6 0.1
v 0.4 0.6 0.1
v 0.1 0.6 0
v 0.4 0.6 0
v -0.4 0.8 0.3
v -0.1 0.8 0.3
v -0.3 0.8 0.2
v -0.2 0.8 0.2
v -0.3 0.8 0.1
v -0.2 0.8 0.1
v 5.96046e-08 0.8 0.1
v 0.3 0.8 0.1
v -0.4 0.8 0
v -0.1 0.8 0
v 5.96046e-08 0.8 0
v 0.3 0.8 0
v -0.3 0.9 0.4
v -0.2 0.9 0.4
v -0.3 0.9 0.3
v -0.2 0.9 0.3
v -0.5 0.9 0.2
v -0.4 0.9 0.2
v -0.1 0.9 0.2
v 5.96046e-08 0.9 0.2
v -0.5 0.9 0.1
v -0.4 0.9 0.1
v -0.1 0.9 0.1
v 5.96046e-08 0.9 0.1
v -0.3 0.9 0
v -0.2 0.9 0
v -0.3 0.9 -0.1
v -0.2 0.9 -0.1
v 0.1 0.9 -0.3
v 0.2 0.9 -0.3
v 0.1 0.9 -0.4
v 0.2 0.9 -0.4
v 5.96046e-08 1 0.1
v 0.3 1 0.1
v 5.96046e-08 1 0
v 0.3 1 0
v 5.96046e-08 0.1 0
v 0.1 0.1 0
v 0.2 0.1 0
v 0.3 0.1 0
v 5.96046e-08 0.1 -0.1
v 0.1 0.1 -0.1
v 0.2 0.1 -0.1
v 0.3 0.1 -0.1
v -0.1 0.4 0
v 5.96046e-08 0.4 0
v 0.3 0.4 0
v 0.4 0.4 0
v -0.1 0.4 -0.3
v 5.96046e-08 0.4 -0.3
v 0.3 0.4 -0.3
v 0.4 0.4 -0.3
v -0.3 0.6 0.1
v -0.2 0.6 0.1
v 0.4 0.6 0.1
v 0.5 0.6 0.1
v -0.3 0.6 -0.1
v -0.2 0.6 -0.1
v 0.4 0.6 -0.1
v 0.5 0.6 -0.1
v 0.1 0.7 0.1
v 0.4 0.7 0.1
v 0.1 0.7 0
v 0.4 0.7 0
v -0.2 0.7 -0.1
v -0.1 0.7 -0.1
v 0.4 0.7 -0.1
v 0.5 0.7 -0.1
v -0.1 0.7 -0.3
v 0.4 0.7 -0.3
v -0.2 0.7 -0.4
v -0.1 0.7 -0.4
v 0.4 0.7 -0.4
v 0.5 0.7 -0.4
v 5.96046e-08 0.8 0.2
v 0.5 0.8 0.2
v 5.96046e-08 0.8 0.1
v 0.3 0.8 0.1
v 0.5 0.8 0.1
v -0.1 0.8 0
v 5.96046e-08 0.8 0
v 0.3 0.8 0
v 0.4 0.8 0
v -0.3 0.8 -0.1
v -0.2 0.8 -0.1
v 0.5 0.8 -0.1
v 0.6 0.8 -0.1
v -0.1 0.8 -0.3
v 5.96046e-08 0.8 -0.3
v 0.3 0.8 -0.3
v 0.4 0.8 -0.3
v -0.3 0.8 -0.4
v -0.2 0.8 -0.4
v 0.5 0.8 -0.4
v 0.6 0.8 -0.4
v 5.96046e-08 0.9 0.1
v 0.3 0.9 0.1
v 5.96046e-08 0.9 0
v 0.3 0.9 0
v -0.3 1 0.4
v -0.2 1 0.4
v -0.3 1 0.3
v -0.2 1 0.3
v -0.5 1 0.2
v -0.4 1 0.2
v -0.1 1 0.2
v 5.96046e-08 1 0.2
v -0.5 1 0.1
v -0.4 1 0.1
v -0.1 1 0.1
v 5.96046e-08 1 0.1
v -0.3 1 0
v -0.2 1 0
v -0.3 1 -0.1
v -0.2 1 -0.1
v -0.4 1.1 0.3
v -0.1 1.1 0.3
v -0.3 1.1 0.2
v -0.2 1.1 0.2
v -0.3 1.1 0.1
v -0.2 1.1 0.1
v 5.96046e-08 1.1 0.1
v 0.3 1.1 0.1
v -0.4 1.1 0
v -0.1 1.1 0
v 0.1 1.1 0
v 0.2 1.1 0
v 5.96046e-08 1.1 -0.3
v 0.1 1.1 -0.3
v 0.2 1.1 -0.3
v 0.3 1.1 -0.3
v -0.3 1.2 0.2
v -0.2 1.2 0.2
v -0.3 1.2 0.1
v -0.2 1.2 0.1
v 0.1 1.2 0
v 0.2 1.2 0
v 0.1 1.2 -0.4
v 0.2 1.2 -0.4

# faces
f 3/3/1 2/3/1 1/3/1
f 4/3/1 2/3/1 3/3/1
f 7/1/1 6/1/1 5/1/1
f 8/1/1 6/1/1 7/1/1
f 9/1/1 7/1/1 5/1/1
f 10/1/1 6/1/1 8/1/1
f 11/1/1 9/1/1 5/1/1
f 11/1/1 10/1/1 9/1/1
f 12/1/1 6/1/1 10/1/1
f 12/1/1 10/1/1 11/1/1
f 15/1/1 14/1/1 13/1/1
f 16/1/1 14/1/1 15/1/1
f 18/2/1 16/2/1 15/2/1
f 18/2/1 17/2/1 16/2/1
f 19/2/1 17/2/1 18/2/1
f 20/2/1 17/2/1 19/2/1
f 21/1/1 19/1/1 18/1/1
f 22/1/1 19/1/1 21/1/1
f 23/2/1 17/2/1 20/2/1
f 24/2/1 17/2/1 23/2/1
f 29/3/1 26/3/1 25/3/1
f 30/3/1 26/3/1 29/3/1
f 31/3/1 28/3/1 27/3/1
f 32/3/1 28/3/1 31/3/1
f 35/3/1 34/3/1 33/3/1
f 36/3/1 34/3/1 35/3/1
f 39/2/1 38/2/1 37/2/1
f 40/2/1 38/2/1 39/2/1
f 43/2/1 42/2/1 41/2/1
f 45/2/1 43/2/1 41/2/1
f 45/2/1 44/2/1 43/2/1
f 46/2/1 44/2/1 45/2/1
f 49/1/1 48/1/1 47/1/1
f 50/1/1 48/1/1 49/1/1
f 55/1/1 54/1/1 53/1/1
f 56/1/1 54/1/1 55/1/1
f 57/1/1 52/1/1 51/1/1
f 58/1/1 52/1/1 57/1/1
f 61/2/1 60/2/1 59/2/1
f 61/2/1 59/2/1 58/2/1
f 62/2/1 60/2/1 61/2/1
f 63/2/1 60/2/1 62/2/1
f 65/4/1 63/4/1 62/4/1
f 66/2/1 60/2/1 63/2/1
f 66/4/1 63/4/1 65/4/1
f 67/2/1 65/2/1 64/2/1
f 67/2/1 66/2/1 65/2/1
f 68/2/1 60/2/1 66/2/1
f 68/2/1 66/2/1 67/2/1
f 71/2/1 70/2/1 69/2/1
f 72/2/1 70/2/1 71/2/1
f 75/2/1 74/2/1 73/2/1
f 76/2/1 74/2/1 75/2/1
f 80/1/1 78/1/1 77/1/1
f 81/1/1 80/1/1 79/1/1
f 82/1/1 78/1/1 80/1/1
f 82/1/1 80/1/1 81/1/1
f 85/1/1 84/1/1 83/1/1
f 86/1/1 84/1/1 85/1/1
f 87/1/1 84/1/1 86/1/1
f 88/1/1 87/1/1 86/1/1
f 89/1/1 87/1/1 88/1/1
f 92/2/1 91/2/1 90/2/1
f 93/2/1 91/2/1 92/2/1
f 98/2/1 95/2/1 94/2/1
f 99/2/1 95/2/1 98/2/1
f 100/2/1 97/2/1 96/2/1
f 101/2/1 97/2/1 100/2/1
f 104/2/1 103/2/1 102/2/1
f 105/2/1 103/2/1 104/2/1
f 106/1/2 107/1/2 108/1/2
f 108/1/2 107/1/2 109/1/2
f 108/2/2 109/2/2 111/2/2
f 109/2/2 110/2/2 111/2/2
f 111/2/2 110/2/2 112/2/2
f 112/2/2 110/2/2 113/2/2
f 111/1/2 112/1/2 116/1/2
f 116/1/2 112/1/2 117/1/2
f 114/2/2 115/2/2 118/2/2
f 118/2/2 115/2/2 119/2/2
f 120/3/2 121/3/2 124/3/2
f 124/3/2 121/3/2 125/3/2
f 122/3/2 123/3/2 126/3/2
f 126/3/2 123/3/2 127/3/2
f 128/3/2 129/3/2 130/3/2
f 130/3/2 129/3/2 131/3/2
f 132/2/2 133/2/2 134/2/2
f 134/2/2 133/2/2 135/2/2
f 136/1/2 137/1/2 138/1/2
f 138/1/2 137/1/2 139/1/2
f 136/1/2 138/1/2 140/1/2
f 139/1/2 137/1/2 141/1/2
f 136/1/2 140/1/2 142/1/2
f 140/1/2 141/1/2 142/1/2
f 141/1/2 137/1/2 143/1/2
f 142/1/2 141/1/2 143/1/2
f 144/2/2 145/2/2 146/2/2
f 146/2/2 145/2/2 147/2/2
f 148/3/2 149/3/2 150/3/2
f 150/3/2 149/3/2 151/3/2
f 152/1/2 153/1/2 154/1/2
f 154/1/2 153/1/2 155/1/2
f 155/1/2 153/1/2 156/1/2
f 155/1/2 156/1/2 157/1/2
f 157/1/2 156/1/2 158/1/2
f 159/2/2 160/2/2 161/2/2
f 161/2/2 160/2/2 162/2/2
f 163/1/2 164/1/2 166/1/2
f 165/1/2 166/1/2 167/1/2
f 166/1/2 164/1/2 168/1/2
f 167/1/2 166/1/2 168/1/2
f 169/1/2 170/1/2 171/1/2
f 171/1/2 170/1/2 172/1/2
f 173/1/2 174/1/2 175/1/2
f 175/1/2 174/1/2 176/1/2
f 177/2/2 178/2/2 180/2/2
f 178/2/2 179/2/2 180/2/2
f 180/2/2 179/2/2 181/2/2
f 181/2/2 179/2/2 182/2/2
f 181/4/2 182/4/2 184/4/2
f 182/2/2 179/2/2 185/2/2
f 184/4/2 182/4/2 185/4/2
f 183/2/2 184/2/2 186/2/2
f 184/2/2 185/2/2 186/2/2
f 185/2/2 179/2/2 187/2/2
f 186/2/2 185/2/2 187/2/2
f 188/2/2 189/2/2 190/2/2
f 190/2/2 189/2/2 191/2/2
f 192/2/2 193/2/2 194/2/2
f 194/2/2 193/2/2 195/2/2
f 195/2/2 193/2/2 196/2/2
f 196/2/2 197/2/2 198/2/2
f 195/2/2 196/2/2 198/2/2
f 198/2/2 197/2/2 199/2/2
f 200/1/2 201/1/2 202/1/2
f 200/1/2 202/1/2 204/1/2
f 202/2/2 203/2/2 204/2/2
f 204/2/2 203/2/2 205/2/2
f 200/1/2 204/1/2 206/1/2
f 206/1/2 204/1/2 207/1/2
f 208/2/2 209/2/2 210/2/2
f 210/2/2 209/2/2 211/2/2
f 214/3/3 213/3/3 212/3/3
f 215/3/3 213/3/3 214/3/3
f 218/1/3 217/1/3 216/1/3
f 219/1/3 217/1/3 218/1/3
f 220/1/3 218/1/3 216/1/3
f 221/1/3 217/1/3 219/1/3
f 222/1/3 220/1/3 216/1/3
f 222/1/3 221/1/3 220/1/3
f 223/1/3 217/1/3 221/1/3
f 223/1/3 221/1/3 222/1/3
f 226/3/3 225/3/3 224/3/3
f 227/3/3 225/3/3 226/3/3
f 234/1/3 229/1/3 228/1/3
f 235/2/3 230/2/3 229/2/3
f 235/1/3 229/1/3 234/1/3
f 236/1/3 231/1/3 230/1/3
f 236/2/3 230/2/3 235/2/3
f 237/1/3 231/1/3 236/1/3
f 238/3/3 233/3/3 232/3/3
f 239/3/3 233/3/3 238/3/3
f 244/3/3 241/3/3 240/3/3
f 245/3/3 241/3/3 244/3/3
f 246/1/3 243/1/3 242/1/3
f 247/1/3 243/1/3 246/1/3
f 248/1/3 246/1/3 242/1/3
f 248/3/3 247/3/3 246/3/3
f 249/1/3 243/1/3 247/1/3
f 249/3/3 247/3/3 248/3/3
f 250/1/3 248/1/3 242/1/3
f 250/1/3 249/1/3 248/1/3
f 251/1/3 243/1/3 249/1/3
f 251/1/3 249/1/3 250/1/3
f 256/2/3 253/2/3 252/2/3
f 257/2/3 253/2/3 256/2/3
f 258/2/3 255/2/3 254/2/3
f 259/2/3 255/2/3 258/2/3
f 265/2/3 261/2/3 260/2/3
f 266/2/3 261/2/3 265/2/3
f 267/2/3 261/2/3 266/2/3
f 268/2/3 263/2/3 262/2/3
f 269/2/3 263/2/3 268/2/3
f 272/1/3 265/1/3 264/1/3
f 273/1/3 265/1/3 272/1/3
f 275/2/3 267/2/3 266/2/3
f 276/2/3 269/2/3 268/2/3
f 277/2/3 269/2/3 276/2/3
f 282/2/3 275/2/3 274/2/3
f 283/2/3 267/2/3 275/2/3
f 283/2/3 275/2/3 282/2/3
f 284/1/3 279/1/3 278/1/3
f 285/1/3 279/1/3 284/1/3
f 286/1/3 281/1/3 280/1/3
f 287/1/3 281/1/3 286/1/3
f 288/2/3 267/2/3 283/2/3
f 289/1/3 268/1/3 267/1/3
f 289/2/3 267/2/3 288/2/3
f 290/2/3 276/2/3 268/2/3
f 290/1/3 268/1/3 289/1/3
f 291/2/3 269/2/3 277/2/3
f 292/4/3 271/4/3 270/4/3
f 293/4/3 271/4/3 292/4/3
f 294/2/3 288/2/3 287/2/3
f 294/2/3 289/2/3 288/2/3
f 295/2/3 289/2/3 294/2/3
f 296/2/3 276/2/3 290/2/3
f 297/2/3 276/2/3 296/2/3
f 298/2/3 291/2/3 277/2/3
f 299/2/3 291/2/3 298/2/3
f 303/2/3 301/2/3 300/2/3
f 304/2/3 301/2/3 303/2/3
f 305/2/3 301/2/3 304/2/3
f 306/2/3 303/2/3 302/2/3
f 306/2/3 304/2/3 303/2/3
f 307/2/3 304/2/3 306/2/3
f 310/1/3 309/1/3 308/1/3
f 311/1/3 309/1/3 310/1/3
f 312/1/3 309/1/3 311/1/3
f 316/1/3 314/1/3 313/1/3
f 316/1/3 315/1/3 314/1/3
f 317/1/3 315/1/3 316/1/3
f 321/2/3 319/2/3 318/2/3
f 322/2/3 319/2/3 321/2/3
f 324/2/3 322/2/3 321/2/3
f 324/2/3 323/2/3 322/2/3
f 324/2/3 321/2/3 320/2/3
f 325/2/3 323/2/3 324/2/3
f 328/2/3 327/2/3 326/2/3
f 329/2/3 327/2/3 328/2/3
f 330/3/4 331/3/4 332/3/4
f 332/3/4 331/3/4 333/3/4
f 334/1/4 335/1/4 340/1/4
f 340/1/4 335/1/4 341/1/4
f 336/1/4 337/1/4 342/1/4
f 342/1/4 337/1/4 343/1/4
f 338/3/4 339/3/4 344/3/4
f 344/3/4 339/3/4 345/3/4
f 346/3/4 347/3/4 350/3/4
f 350/3/4 347/3/4 351/3/4
f 348/1/4 349/1/4 352/1/4
f 352/1/4 349/1/4 353/1/4
f 353/1/4 349/1/4 354/1/4
f 354/1/4 349/1/4 355/1/4
f 348/1/4 352/1/4 356/1/4
f 352/3/4 353/3/4 356/3/4
f 356/3/4 353/3/4 357/3/4
f 357/3/4 353/3/4 358/3/4
f 354/1/4 355/1/4 359/1/4
f 348/1/4 356/1/4 360/1/4
f 356/1/4 357/1/4 360/1/4
f 360/1/4 357/1/4 361/1/4
f 358/1/4 359/1/4 362/1/4
f 359/1/4 355/1/4 363/1/4
f 362/1/4 359/1/4 363/1/4
f 364/1/4 365/1/4 366/1/4
f 366/1/4 365/1/4 367/1/4
f 364/1/4 366/1/4 368/1/4
f 367/1/4 365/1/4 369/1/4
f 364/1/4 368/1/4 370/1/4
f 368/1/4 369/1/4 370/1/4
f 369/1/4 365/1/4 371/1/4
f 370/1/4 369/1/4 371/1/4
f 372/3/4 373/3/4 374/3/4
f 374/3/4 373/3/4 375/3/4
f 376/1/4 377/1/4 378/1/4
f 378/1/4 377/1/4 379/1/4
f 380/1/4 381/1/4 382/1/4
f 382/1/4 381/1/4 383/1/4
f 384/2/4 385/2/4 389/2/4
f 387/2/4 388/2/4 390/2/4
f 386/2/4 387/2/4 390/2/4
f 390/2/4 388/2/4 391/2/4
f 390/2/4 391/2/4 393/2/4
f 391/2/4 392/2/4 393/2/4
f 393/2/4 392/2/4 394/2/4
f 390/2/4 393/2/4 395/2/4
f 384/2/4 389/2/4 397/2/4
f 389/1/4 390/1/4 397/1/4
f 395/2/4 396/2/4 398/2/4
f 397/1/4 390/1/4 398/1/4
f 390/2/4 395/2/4 398/2/4
f 398/2/4 396/2/4 399/2/4
f 399/2/4 396/2/4 400/2/4
f 384/2/4 397/2/4 401/2/4
f 401/2/4 397/2/4 402/2/4
f 398/2/4 399/2/4 403/2/4
f 403/2/4 399/2/4 404/2/4
f 404/2/4 399/2/4 405/2/4
f 406/2/4 407/2/4 408/2/4
f 408/2/4 407/2/4 409/2/4
f 406/2/4 408/2/4 410/2/4
f 410/2/4 408/2/4 411/2/4
f 412/1/4 413/1/4 414/1/4
f 414/1/4 413/1/4 415/1/4
f 416/2/4 417/2/4 418/2/4
f 416/2/4 418/2/4 420/2/4
f 418/2/4 419/2/4 420/2/4
f 420/2/4 419/2/4 421/2/4
f 426/1/5 423/1/5 422/1/5
f 427/1/5 423/1/5 426/1/5
f 428/1/5 425/1/5 424/1/5
f 429/1/5 425/1/5 428/1/5
f 434/2/5 431/2/5 430/2/5
f 437/2/5 433/2/5 432/2/5
f 438/2/5 436/2/5 435/2/5
f 438/2/5 437/2/5 436/2/5
f 438/2/5 434/2/5 430/2/5
f 438/2/5 435/2/5 434/2/5
f 439/2/5 433/2/5 437/2/5
f 439/2/5 437/2/5 438/2/5
f 442/1/5 441/1/5 440/1/5
f 443/1/5 441/1/5 442/1/5
f 446/2/5 445/2/5 444/2/5
f 447/2/5 445/2/5 446/2/5
f 448/2/5 447/2/5 446/2/5
f 449/2/5 447/2/5 448/2/5
f 454/2/5 451/2/5 450/2/5
f 455/2/5 451/2/5 454/2/5
f 456/2/5 453/2/5 452/2/5
f 457/2/5 453/2/5 456/2/5
f 460/1/5 459/1/5 458/1/5
f 461/1/5 459/1/5 460/1/5
f 469/2/5 465/2/5 464/2/5
f 470/2/5 463/2/5 462/2/5
f 471/2/5 467/2/5 466/2/5
f 472/2/5 469/2/5 468/2/5
f 472/2/5 465/2/5 469/2/5
f 474/2/5 471/2/5 470/2/5
f 474/2/5 467/2/5 471/2/5
f 475/2/5 467/2/5 474/2/5
f 476/2/5 473/2/5 472/2/5
f 476/2/5 472/2/5 468/2/5
f 477/2/5 473/2/5 476/2/5
f 478/2/5 470/2/5 462/2/5
f 478/2/5 474/2/5 470/2/5
f 479/2/5 474/2/5 478/2/5
f 480/2/5 473/2/5 477/2/5
f 481/2/5 473/2/5 480/2/5
f 484/2/5 483/2/5 482/2/5
f 485/2/5 483/2/5 484/2/5
f 488/1/5 487/1/5 486/1/5
f 489/1/5 487/1/5 488/1/5
f 490/1/5 488/1/5 486/1/5
f 491/1/5 487/1/5 489/1/5
f 494/1/5 490/1/5 486/1/5
f 494/1/5 491/1/5 490/1/5
f 495/1/5 487/1/5 491/1/5
f 495/1/5 491/1/5 494/1/5
f 496/2/5 493/2/5 492/2/5
f 497/2/5 493/2/5 496/2/5
f 500/3/5 499/3/5 498/3/5
f 501/3/5 499/3/5 500/3/5
f 506/3/5 503/3/5 502/3/5
f 507/3/5 503/3/5 506/3/5
f 508/3/5 505/3/5 504/3/5
f 509/3/5 505/3/5 508/3/5
f 512/3/5 511/3/5 510/3/5
f 513/3/5 511/3/5 512/3/5
f 516/1/5 515/1/5 514/1/5
f 517/1/5 515/1/5 516/1/5
f 520/2/5 519/2/5 518/2/5
f 521/2/5 519/2/5 520/2/5
f 522/1/6 523/1/6 526/1/6
f 526/1/6 523/1/6 527/1/6
f 524/1/6 525/1/6 528/1/6
f 528/1/6 525/1/6 529/1/6
f 530/2/6 531/2/6 534/2/6
f 534/2/6 531/2/6 535/2/6
f 532/2/6 533/2/6 536/2/6
f 536/2/6 533/2/6 537/2/6
f 538/2/6 539/2/6 542/2/6
f 542/2/6 539/2/6 543/2/6
f 540/2/6 541/2/6 544/2/6
f 544/2/6 541/2/6 545/2/6
f 546/2/6 547/2/6 548/2/6
f 548/2/6 547/2/6 549/2/6
f 550/2/6 551/2/6 554/2/6
f 552/2/6 553/2/6 555/2/6
f 550/2/6 554/2/6 556/2/6
f 556/2/6 554/2/6 557/2/6
f 555/2/6 553/2/6 558/2/6
f 558/2/6 553/2/6 559/2/6
f 560/1/6 561/1/6 562/1/6
f 562/1/6 561/1/6 563/1/6
f 563/1/6 561/1/6 564/1/6
f 565/2/6 566/2/6 573/2/6
f 573/2/6 566/2/6 574/2/6
f 567/2/6 568/2/6 575/2/6
f 575/2/6 568/2/6 576/2/6
f 569/2/6 570/2/6 577/2/6
f 577/2/6 570/2/6 578/2/6
f 571/2/6 572/2/6 579/2/6
f 579/2/6 572/2/6 580/2/6
f 581/2/6 582/2/6 583/2/6
f 583/2/6 582/2/6 584/2/6
f 585/3/6 586/3/6 587/3/6
f 587/3/6 586/3/6 588/3/6
f 589/3/6 590/3/6 593/3/6
f 593/3/6 590/3/6 594/3/6
f 591/3/6 592/3/6 595/3/6
f 595/3/6 592/3/6 596/3/6
f 597/3/6 598/3/6 599/3/6
f 599/3/6 598/3/6 600/3/6
f 601/1/6 602/1/6 603/1/6
f 603/1/6 602/1/6 604/1/6
f 601/1/6 603/1/6 605/1/6
f 604/1/6 602/1/6 606/1/6
f 601/1/6 605/1/6 609/1/6
f 605/1/6 606/1/6 609/1/6
f 606/1/6 602/1/6 610/1/6
f 609/1/6 606/1/6 610/1/6
f 607/2/6 608/2/6 611/2/6
f 611/2/6 608/2/6 612/2/6
f 607/2/6 611/2/6 613/2/6
f 613/2/6 611/2/6 614/2/6
f 612/2/6 608/2/6 615/2/6
f 615/2/6 608/2/6 616/2/6
f 617/3/6 618/3/6 619/3/6
f 619/3/6 618/3/6 620/3/6
f 621/1/6 622/1/6 623/1/6
f 623/1/6 622/1/6 624/1/6
