# MagicaVoxel @ Ephtracy

# group
o 

# material
mtllib swinging_mace_trap_a.mtl
usemtl palette

# normals
vn -1 0 0
vn 1 0 0
vn 0 0 1
vn 0 0 -1
vn 0 -1 0
vn 0 1 0

# texcoords
vt 0.791016 0.5
vt 0.939453 0.5
vt 0.943359 0.5

# verts
v -0.2 -0.8 0
v -0.2 -0.8 -0.1
v -0.2 -0.7 0
v -0.2 -0.7 -0.1
v -0.2 -0.6 0
v -0.2 -0.6 -0.1
v -0.2 -0.5 0
v -0.2 -0.5 -0.1
v -0.2 -0.4 0
v -0.2 -0.4 -0.1
v -0.2 -0.3 0
v -0.2 -0.3 -0.1
v -0.1 -0.9 0.1
v -0.1 -0.9 -0.2
v -0.1 -0.8 0
v -0.1 -0.8 -0.1
v -0.1 -0.7 0
v -0.1 -0.7 -0.1
v -0.1 -0.6 0
v -0.1 -0.6 -0.1
v -0.1 -0.5 0
v -0.1 -0.5 -0.1
v -0.1 -0.4 0
v -0.1 -0.4 -0.1
v -0.1 -0.3 0
v -0.1 -0.3 -0.1
v -0.1 -0.2 0.1
v -0.1 -0.2 -0.2
v 0 -1 0
v 0 -1 -0.1
v 0 -0.9 0
v 0 -0.9 -0.1
v 0 -0.8 0.2
v 0 -0.8 0.1
v 0 -0.8 -0.2
v 0 -0.8 -0.3
v 0 -0.7 0.2
v 0 -0.7 0.1
v 0 -0.7 -0.2
v 0 -0.7 -0.3
v 0 -0.6 0.2
v 0 -0.6 0.1
v 0 -0.6 -0.2
v 0 -0.6 -0.3
v 0 -0.5 0.2
v 0 -0.5 0.1
v 0 -0.5 -0.2
v 0 -0.5 -0.3
v 0 -0.4 0.2
v 0 -0.4 0.1
v 0 -0.4 -0.2
v 0 -0.4 -0.3
v 0 -0.3 0.2
v 0 -0.3 0.1
v 0 -0.3 -0.2
v 0 -0.3 -0.3
v 0 -0.2 0
v 0 -0.2 -0.1
v 0 1.5 0
v 0 1.5 -0.1
v 0.1 -1 0
v 0.1 -1 -0.1
v 0.1 -0.9 0
v 0.1 -0.9 -0.1
v 0.1 -0.8 0.2
v 0.1 -0.8 0.1
v 0.1 -0.8 -0.2
v 0.1 -0.8 -0.3
v 0.1 -0.7 0.2
v 0.1 -0.7 0.1
v 0.1 -0.7 -0.2
v 0.1 -0.7 -0.3
v 0.1 -0.6 0.2
v 0.1 -0.6 0.1
v 0.1 -0.6 -0.2
v 0.1 -0.6 -0.3
v 0.1 -0.5 0.2
v 0.1 -0.5 0.1
v 0.1 -0.5 -0.2
v 0.1 -0.5 -0.3
v 0.1 -0.4 0.2
v 0.1 -0.4 0.1
v 0.1 -0.4 -0.2
v 0.1 -0.4 -0.3
v 0.1 -0.3 0.2
v 0.1 -0.3 0.1
v 0.1 -0.3 -0.2
v 0.1 -0.3 -0.3
v 0.1 -0.2 0
v 0.1 -0.2 -0.1
v 0.1 1.5 0
v 0.1 1.5 -0.1
v 0.2 -0.9 0.1
v 0.2 -0.9 -0.2
v 0.2 -0.8 0
v 0.2 -0.8 -0.1
v 0.2 -0.7 0
v 0.2 -0.7 -0.1
v 0.2 -0.6 0
v 0.2 -0.6 -0.1
v 0.2 -0.5 0
v 0.2 -0.5 -0.1
v 0.2 -0.4 0
v 0.2 -0.4 -0.1
v 0.2 -0.3 0
v 0.2 -0.3 -0.1
v 0.2 -0.2 0.1
v 0.2 -0.2 -0.2
v 0.3 -0.8 0
v 0.3 -0.8 -0.1
v 0.3 -0.7 0
v 0.3 -0.7 -0.1
v 0.3 -0.6 0
v 0.3 -0.6 -0.1
v 0.3 -0.5 0
v 0.3 -0.5 -0.1
v 0.3 -0.4 0
v 0.3 -0.4 -0.1
v 0.3 -0.3 0
v 0.3 -0.3 -0.1
v 0 -0.8 0.2
v 0 -0.7 0.2
v 0 -0.6 0.2
v 0 -0.5 0.2
v 0 -0.4 0.2
v 0 -0.3 0.2
v 0.1 -0.8 0.2
v 0.1 -0.7 0.2
v 0.1 -0.6 0.2
v 0.1 -0.5 0.2
v 0.1 -0.4 0.2
v 0.1 -0.3 0.2
v -0.1 -0.9 0.1
v -0.1 -0.2 0.1
v 0 -0.8 0.1
v 0 -0.7 0.1
v 0 -0.6 0.1
v 0 -0.5 0.1
v 0 -0.4 0.1
v 0 -0.3 0.1
v 0.1 -0.8 0.1
v 0.1 -0.7 0.1
v 0.1 -0.6 0.1
v 0.1 -0.5 0.1
v 0.1 -0.4 0.1
v 0.1 -0.3 0.1
v 0.2 -0.9 0.1
v 0.2 -0.2 0.1
v -0.2 -0.8 0
v -0.2 -0.7 0
v -0.2 -0.6 0
v -0.2 -0.5 0
v -0.2 -0.4 0
v -0.2 -0.3 0
v -0.1 -0.8 0
v -0.1 -0.7 0
v -0.1 -0.6 0
v -0.1 -0.5 0
v -0.1 -0.4 0
v -0.1 -0.3 0
v 0 -1 0
v 0 -0.9 0
v 0 -0.2 0
v 0 1.5 0
v 0.1 -1 0
v 0.1 -0.9 0
v 0.1 -0.2 0
v 0.1 1.5 0
v 0.2 -0.8 0
v 0.2 -0.7 0
v 0.2 -0.6 0
v 0.2 -0.5 0
v 0.2 -0.4 0
v 0.2 -0.3 0
v 0.3 -0.8 0
v 0.3 -0.7 0
v 0.3 -0.6 0
v 0.3 -0.5 0
v 0.3 -0.4 0
v 0.3 -0.3 0
v -0.2 -0.8 -0.1
v -0.2 -0.7 -0.1
v -0.2 -0.6 -0.1
v -0.2 -0.5 -0.1
v -0.2 -0.4 -0.1
v -0.2 -0.3 -0.1
v -0.1 -0.8 -0.1
v -0.1 -0.7 -0.1
v -0.1 -0.6 -0.1
v -0.1 -0.5 -0.1
v -0.1 -0.4 -0.1
v -0.1 -0.3 -0.1
v 0 -1 -0.1
v 0 -0.9 -0.1
v 0 -0.2 -0.1
v 0 1.5 -0.1
v 0.1 -1 -0.1
v 0.1 -0.9 -0.1
v 0.1 -0.2 -0.1
v 0.1 1.5 -0.1
v 0.2 -0.8 -0.1
v 0.2 -0.7 -0.1
v 0.2 -0.6 -0.1
v 0.2 -0.5 -0.1
v 0.2 -0.4 -0.1
v 0.2 -0.3 -0.1
v 0.3 -0.8 -0.1
v 0.3 -0.7 -0.1
v 0.3 -0.6 -0.1
v 0.3 -0.5 -0.1
v 0.3 -0.4 -0.1
v 0.3 -0.3 -0.1
v -0.1 -0.9 -0.2
v -0.1 -0.2 -0.2
v 0 -0.8 -0.2
v 0 -0.7 -0.2
v 0 -0.6 -0.2
v 0 -0.5 -0.2
v 0 -0.4 -0.2
v 0 -0.3 -0.2
v 0.1 -0.8 -0.2
v 0.1 -0.7 -0.2
v 0.1 -0.6 -0.2
v 0.1 -0.5 -0.2
v 0.1 -0.4 -0.2
v 0.1 -0.3 -0.2
v 0.2 -0.9 -0.2
v 0.2 -0.2 -0.2
v 0 -0.8 -0.3
v 0 -0.7 -0.3
v 0 -0.6 -0.3
v 0 -0.5 -0.3
v 0 -0.4 -0.3
v 0 -0.3 -0.3
v 0.1 -0.8 -0.3
v 0.1 -0.7 -0.3
v 0.1 -0.6 -0.3
v 0.1 -0.5 -0.3
v 0.1 -0.4 -0.3
v 0.1 -0.3 -0.3
v 0 -1 0
v 0.1 -1 0
v 0 -1 -0.1
v 0.1 -1 -0.1
v -0.1 -0.9 0.1
v 0.2 -0.9 0.1
v 0 -0.9 0
v 0.1 -0.9 0
v 0 -0.9 -0.1
v 0.1 -0.9 -0.1
v -0.1 -0.9 -0.2
v 0.2 -0.9 -0.2
v 0 -0.8 0.2
v 0.1 -0.8 0.2
v 0 -0.8 0.1
v 0.1 -0.8 0.1
v -0.2 -0.8 0
v -0.1 -0.8 0
v 0.2 -0.8 0
v 0.3 -0.8 0
v -0.2 -0.8 -0.1
v -0.1 -0.8 -0.1
v 0.2 -0.8 -0.1
v 0.3 -0.8 -0.1
v 0 -0.8 -0.2
v 0.1 -0.8 -0.2
v 0 -0.8 -0.3
v 0.1 -0.8 -0.3
v 0 -0.6 0.2
v 0.1 -0.6 0.2
v 0 -0.6 0.1
v 0.1 -0.6 0.1
v -0.2 -0.6 0
v -0.1 -0.6 0
v 0.2 -0.6 0
v 0.3 -0.6 0
v -0.2 -0.6 -0.1
v -0.1 -0.6 -0.1
v 0.2 -0.6 -0.1
v 0.3 -0.6 -0.1
v 0 -0.6 -0.2
v 0.1 -0.6 -0.2
v 0 -0.6 -0.3
v 0.1 -0.6 -0.3
v 0 -0.4 0.2
v 0.1 -0.4 0.2
v 0 -0.4 0.1
v 0.1 -0.4 0.1
v -0.2 -0.4 0
v -0.1 -0.4 0
v 0.2 -0.4 0
v 0.3 -0.4 0
v -0.2 -0.4 -0.1
v -0.1 -0.4 -0.1
v 0.2 -0.4 -0.1
v 0.3 -0.4 -0.1
v 0 -0.4 -0.2
v 0.1 -0.4 -0.2
v 0 -0.4 -0.3
v 0.1 -0.4 -0.3
v 0 -0.7 0.2
v 0.1 -0.7 0.2
v 0 -0.7 0.1
v 0.1 -0.7 0.1
v -0.2 -0.7 0
v -0.1 -0.7 0
v 0.2 -0.7 0
v 0.3 -0.7 0
v -0.2 -0.7 -0.1
v -0.1 -0.7 -0.1
v 0.2 -0.7 -0.1
v 0.3 -0.7 -0.1
v 0 -0.7 -0.2
v 0.1 -0.7 -0.2
v 0 -0.7 -0.3
v 0.1 -0.7 -0.3
v 0 -0.5 0.2
v 0.1 -0.5 0.2
v 0 -0.5 0.1
v 0.1 -0.5 0.1
v -0.2 -0.5 0
v -0.1 -0.5 0
v 0.2 -0.5 0
v 0.3 -0.5 0
v -0.2 -0.5 -0.1
v -0.1 -0.5 -0.1
v 0.2 -0.5 -0.1
v 0.3 -0.5 -0.1
v 0 -0.5 -0.2
v 0.1 -0.5 -0.2
v 0 -0.5 -0.3
v 0.1 -0.5 -0.3
v 0 -0.3 0.2
v 0.1 -0.3 0.2
v 0 -0.3 0.1
v 0.1 -0.3 0.1
v -0.2 -0.3 0
v -0.1 -0.3 0
v 0.2 -0.3 0
v 0.3 -0.3 0
v -0.2 -0.3 -0.1
v -0.1 -0.3 -0.1
v 0.2 -0.3 -0.1
v 0.3 -0.3 -0.1
v 0 -0.3 -0.2
v 0.1 -0.3 -0.2
v 0 -0.3 -0.3
v 0.1 -0.3 -0.3
v -0.1 -0.2 0.1
v 0.2 -0.2 0.1
v 0 -0.2 0
v 0.1 -0.2 0
v 0 -0.2 -0.1
v 0.1 -0.2 -0.1
v -0.1 -0.2 -0.2
v 0.2 -0.2 -0.2
v 0 1.5 0
v 0.1 1.5 0
v 0 1.5 -0.1
v 0.1 1.5 -0.1

# faces
f 3/1/1 2/1/1 1/1/1
f 4/1/1 2/1/1 3/1/1
f 7/1/1 6/1/1 5/1/1
f 8/1/1 6/1/1 7/1/1
f 11/1/1 10/1/1 9/1/1
f 12/1/1 10/1/1 11/1/1
f 15/3/1 14/3/1 13/3/1
f 16/3/1 14/3/1 15/3/1
f 17/3/1 15/3/1 13/3/1
f 18/3/1 14/3/1 16/3/1
f 19/3/1 17/3/1 13/3/1
f 19/3/1 18/3/1 17/3/1
f 20/3/1 14/3/1 18/3/1
f 20/3/1 18/3/1 19/3/1
f 21/3/1 19/3/1 13/3/1
f 22/3/1 14/3/1 20/3/1
f 23/3/1 21/3/1 13/3/1
f 23/3/1 22/3/1 21/3/1
f 24/3/1 14/3/1 22/3/1
f 24/3/1 22/3/1 23/3/1
f 25/3/1 23/3/1 13/3/1
f 26/3/1 14/3/1 24/3/1
f 27/3/1 25/3/1 13/3/1
f 27/3/1 26/3/1 25/3/1
f 28/3/1 14/3/1 26/3/1
f 28/3/1 26/3/1 27/3/1
f 31/1/1 30/1/1 29/1/1
f 32/1/1 30/1/1 31/1/1
f 37/1/1 34/1/1 33/1/1
f 38/1/1 34/1/1 37/1/1
f 39/1/1 36/1/1 35/1/1
f 40/1/1 36/1/1 39/1/1
f 45/1/1 42/1/1 41/1/1
f 46/1/1 42/1/1 45/1/1
f 47/1/1 44/1/1 43/1/1
f 48/1/1 44/1/1 47/1/1
f 53/1/1 50/1/1 49/1/1
f 54/1/1 50/1/1 53/1/1
f 55/1/1 52/1/1 51/1/1
f 56/1/1 52/1/1 55/1/1
f 59/2/1 58/2/1 57/2/1
f 60/2/1 58/2/1 59/2/1
f 61/1/2 62/1/2 63/1/2
f 63/1/2 62/1/2 64/1/2
f 65/1/2 66/1/2 69/1/2
f 69/1/2 66/1/2 70/1/2
f 67/1/2 68/1/2 71/1/2
f 71/1/2 68/1/2 72/1/2
f 73/1/2 74/1/2 77/1/2
f 77/1/2 74/1/2 78/1/2
f 75/1/2 76/1/2 79/1/2
f 79/1/2 76/1/2 80/1/2
f 81/1/2 82/1/2 85/1/2
f 85/1/2 82/1/2 86/1/2
f 83/1/2 84/1/2 87/1/2
f 87/1/2 84/1/2 88/1/2
f 89/2/2 90/2/2 91/2/2
f 91/2/2 90/2/2 92/2/2
f 93/3/2 94/3/2 95/3/2
f 95/3/2 94/3/2 96/3/2
f 93/3/2 95/3/2 97/3/2
f 96/3/2 94/3/2 98/3/2
f 93/3/2 97/3/2 99/3/2
f 97/3/2 98/3/2 99/3/2
f 98/3/2 94/3/2 100/3/2
f 99/3/2 98/3/2 100/3/2
f 93/3/2 99/3/2 101/3/2
f 100/3/2 94/3/2 102/3/2
f 93/3/2 101/3/2 103/3/2
f 101/3/2 102/3/2 103/3/2
f 102/3/2 94/3/2 104/3/2
f 103/3/2 102/3/2 104/3/2
f 93/3/2 103/3/2 105/3/2
f 104/3/2 94/3/2 106/3/2
f 93/3/2 105/3/2 107/3/2
f 105/3/2 106/3/2 107/3/2
f 106/3/2 94/3/2 108/3/2
f 107/3/2 106/3/2 108/3/2
f 109/1/2 110/1/2 111/1/2
f 111/1/2 110/1/2 112/1/2
f 113/1/2 114/1/2 115/1/2
f 115/1/2 114/1/2 116/1/2
f 117/1/2 118/1/2 119/1/2
f 119/1/2 118/1/2 120/1/2
f 127/1/3 122/1/3 121/1/3
f 128/1/3 122/1/3 127/1/3
f 129/1/3 124/1/3 123/1/3
f 130/1/3 124/1/3 129/1/3
f 131/1/3 126/1/3 125/1/3
f 132/1/3 126/1/3 131/1/3
f 135/3/3 134/3/3 133/3/3
f 136/3/3 134/3/3 135/3/3
f 137/3/3 134/3/3 136/3/3
f 138/3/3 134/3/3 137/3/3
f 139/3/3 134/3/3 138/3/3
f 140/3/3 134/3/3 139/3/3
f 141/3/3 135/3/3 133/3/3
f 142/3/3 137/3/3 136/3/3
f 143/3/3 137/3/3 142/3/3
f 144/3/3 139/3/3 138/3/3
f 145/3/3 139/3/3 144/3/3
f 146/3/3 134/3/3 140/3/3
f 147/3/3 145/3/3 144/3/3
f 147/3/3 146/3/3 145/3/3
f 147/3/3 143/3/3 142/3/3
f 147/3/3 141/3/3 133/3/3
f 147/3/3 144/3/3 143/3/3
f 147/3/3 142/3/3 141/3/3
f 148/3/3 134/3/3 146/3/3
f 148/3/3 146/3/3 147/3/3
f 155/1/3 150/1/3 149/1/3
f 156/1/3 150/1/3 155/1/3
f 157/1/3 152/1/3 151/1/3
f 158/1/3 152/1/3 157/1/3
f 159/1/3 154/1/3 153/1/3
f 160/1/3 154/1/3 159/1/3
f 165/1/3 162/1/3 161/1/3
f 166/1/3 162/1/3 165/1/3
f 167/2/3 164/2/3 163/2/3
f 168/2/3 164/2/3 167/2/3
f 175/1/3 170/1/3 169/1/3
f 176/1/3 170/1/3 175/1/3
f 177/1/3 172/1/3 171/1/3
f 178/1/3 172/1/3 177/1/3
f 179/1/3 174/1/3 173/1/3
f 180/1/3 174/1/3 179/1/3
f 181/1/4 182/1/4 187/1/4
f 187/1/4 182/1/4 188/1/4
f 183/1/4 184/1/4 189/1/4
f 189/1/4 184/1/4 190/1/4
f 185/1/4 186/1/4 191/1/4
f 191/1/4 186/1/4 192/1/4
f 193/1/4 194/1/4 197/1/4
f 197/1/4 194/1/4 198/1/4
f 195/2/4 196/2/4 199/2/4
f 199/2/4 196/2/4 200/2/4
f 201/1/4 202/1/4 207/1/4
f 207/1/4 202/1/4 208/1/4
f 203/1/4 204/1/4 209/1/4
f 209/1/4 204/1/4 210/1/4
f 205/1/4 206/1/4 211/1/4
f 211/1/4 206/1/4 212/1/4
f 213/3/4 214/3/4 215/3/4
f 215/3/4 214/3/4 216/3/4
f 216/3/4 214/3/4 217/3/4
f 217/3/4 214/3/4 218/3/4
f 218/3/4 214/3/4 219/3/4
f 219/3/4 214/3/4 220/3/4
f 213/3/4 215/3/4 221/3/4
f 216/3/4 217/3/4 222/3/4
f 222/3/4 217/3/4 223/3/4
f 218/3/4 219/3/4 224/3/4
f 224/3/4 219/3/4 225/3/4
f 220/3/4 214/3/4 226/3/4
f 224/3/4 225/3/4 227/3/4
f 225/3/4 226/3/4 227/3/4
f 222/3/4 223/3/4 227/3/4
f 213/3/4 221/3/4 227/3/4
f 223/3/4 224/3/4 227/3/4
f 221/3/4 222/3/4 227/3/4
f 226/3/4 214/3/4 228/3/4
f 227/3/4 226/3/4 228/3/4
f 229/1/4 230/1/4 235/1/4
f 235/1/4 230/1/4 236/1/4
f 231/1/4 232/1/4 237/1/4
f 237/1/4 232/1/4 238/1/4
f 233/1/4 234/1/4 239/1/4
f 239/1/4 234/1/4 240/1/4
f 243/1/5 242/1/5 241/1/5
f 244/1/5 242/1/5 243/1/5
f 247/3/5 246/3/5 245/3/5
f 248/3/5 246/3/5 247/3/5
f 249/3/5 247/3/5 245/3/5
f 250/3/5 246/3/5 248/3/5
f 251/3/5 249/3/5 245/3/5
f 251/3/5 250/3/5 249/3/5
f 252/3/5 246/3/5 250/3/5
f 252/3/5 250/3/5 251/3/5
f 255/1/5 254/1/5 253/1/5
f 256/1/5 254/1/5 255/1/5
f 261/1/5 258/1/5 257/1/5
f 262/1/5 258/1/5 261/1/5
f 263/1/5 260/1/5 259/1/5
f 264/1/5 260/1/5 263/1/5
f 267/1/5 266/1/5 265/1/5
f 268/1/5 266/1/5 267/1/5
f 271/1/5 270/1/5 269/1/5
f 272/1/5 270/1/5 271/1/5
f 277/1/5 274/1/5 273/1/5
f 278/1/5 274/1/5 277/1/5
f 279/1/5 276/1/5 275/1/5
f 280/1/5 276/1/5 279/1/5
f 283/1/5 282/1/5 281/1/5
f 284/1/5 282/1/5 283/1/5
f 287/1/5 286/1/5 285/1/5
f 288/1/5 286/1/5 287/1/5
f 293/1/5 290/1/5 289/1/5
f 294/1/5 290/1/5 293/1/5
f 295/1/5 292/1/5 291/1/5
f 296/1/5 292/1/5 295/1/5
f 299/1/5 298/1/5 297/1/5
f 300/1/5 298/1/5 299/1/5
f 301/1/6 302/1/6 303/1/6
f 303/1/6 302/1/6 304/1/6
f 305/1/6 306/1/6 309/1/6
f 309/1/6 306/1/6 310/1/6
f 307/1/6 308/1/6 311/1/6
f 311/1/6 308/1/6 312/1/6
f 313/1/6 314/1/6 315/1/6
f 315/1/6 314/1/6 316/1/6
f 317/1/6 318/1/6 319/1/6
f 319/1/6 318/1/6 320/1/6
f 321/1/6 322/1/6 325/1/6
f 325/1/6 322/1/6 326/1/6
f 323/1/6 324/1/6 327/1/6
f 327/1/6 324/1/6 328/1/6
f 329/1/6 330/1/6 331/1/6
f 331/1/6 330/1/6 332/1/6
f 333/1/6 334/1/6 335/1/6
f 335/1/6 334/1/6 336/1/6
f 337/1/6 338/1/6 341/1/6
f 341/1/6 338/1/6 342/1/6
f 339/1/6 340/1/6 343/1/6
f 343/1/6 340/1/6 344/1/6
f 345/1/6 346/1/6 347/1/6
f 347/1/6 346/1/6 348/1/6
f 349/3/6 350/3/6 351/3/6
f 351/3/6 350/3/6 352/3/6
f 349/3/6 351/3/6 353/3/6
f 352/3/6 350/3/6 354/3/6
f 349/3/6 353/3/6 355/3/6
f 353/3/6 354/3/6 355/3/6
f 354/3/6 350/3/6 356/3/6
f 355/3/6 354/3/6 356/3/6
f 357/2/6 358/2/6 359/2/6
f 359/2/6 358/2/6 360/2/6
