# MagicaVoxel @ Ephtracy

# group
o 

# material
mtllib rogue_idle_0.mtl
usemtl palette

# normals
vn -1 0 0
vn 1 0 0
vn 0 0 1
vn 0 0 -1
vn 0 -1 0
vn 0 1 0

# texcoords
vt 0.732422 0.5
vt 0.751953 0.5
vt 0.783203 0.5
vt 0.787109 0.5
vt 0.814453 0.5
vt 0.818359 0.5
vt 0.880859 0.5
vt 0.970703 0.5

# verts
v -0.4 0 0.1
v -0.4 0 -0.3
v -0.4 0.1 0.1
v -0.4 0.1 -0.3
v -0.3 0.1 0.1
v -0.3 0.1 -0.2
v -0.3 0.5 0.2
v -0.3 0.5 0.1
v -0.3 0.6 0.2
v -0.3 0.6 0.1
v -0.3 0.6 -2.98023e-08
v -0.3 0.8 -2.98023e-08
v -0.3 0.8 -0.2
v -0.2 0.3 0.2
v -0.2 0.3 0.1
v -0.2 0.4 0.2
v -0.2 0.4 0.1
v -0.2 0.5 0.3
v -0.2 0.5 0.2
v -0.2 0.5 0.1
v -0.2 0.6 0.3
v -0.2 0.6 0.2
v -0.2 0.6 0.1
v -0.2 0.7 -0.2
v -0.2 0.7 -0.3
v -0.2 0.8 0.2
v -0.2 0.8 0.1
v -0.2 0.8 -2.98023e-08
v -0.2 0.8 -0.2
v -0.2 0.9 -2.98023e-08
v -0.2 0.9 -0.3
v -0.1 0 0.1
v -0.1 0 -2.98023e-08
v -0.1 0.1 0.1
v -0.1 0.1 -2.98023e-08
v -0.1 0.8 0.1
v -0.1 0.8 -2.98023e-08
v -0.1 0.9 -2.98023e-08
v -0.1 0.9 -0.1
v -0.1 1 0.1
v -0.1 1 -0.1
v -0.1 1.1 0.1
v -0.1 1.1 -0.1
v 0 0.7 0.1
v 0 0.7 -2.98023e-08
v 0 0.8 0.1
v 0 0.8 -2.98023e-08
v 0.1 0 0.1
v 0.1 0 -2.98023e-08
v 0.1 0.1 0.1
v 0.1 0.1 -2.98023e-08
v 0.2 0.3 0.2
v 0.2 0.3 0.1
v 0.2 0.4 0.2
v 0.2 0.4 0.1
v 0.2 0.4 -2.98023e-08
v 0.2 0.5 0.3
v 0.2 0.5 0.2
v 0.2 0.5 0.1
v 0.2 0.5 -2.98023e-08
v 0.2 0.6 0.3
v 0.2 0.6 0.2
v 0.2 0.6 0.1
v 0.2 0.6 -2.98023e-08
v 0.2 0.8 0.2
v 0.2 0.8 0.1
v 0.3 0 0.1
v 0.3 0 -2.98023e-08
v 0.3 0.3 0.1
v 0.3 0.4 0.1
v 0.3 0.4 -2.98023e-08
v -0.2 0 0.1
v -0.2 0 -2.98023e-08
v -0.2 0.3 0.1
v -0.2 0.4 0.1
v -0.2 0.4 -2.98023e-08
v -0.1 0.3 0.2
v -0.1 0.3 0.1
v -0.1 0.4 0.2
v -0.1 0.4 0.1
v -0.1 0.4 -2.98023e-08
v -0.1 0.5 0.3
v -0.1 0.5 0.2
v -0.1 0.5 0.1
v -0.1 0.5 -2.98023e-08
v -0.1 0.6 0.3
v -0.1 0.6 0.2
v -0.1 0.6 0.1
v -0.1 0.6 -2.98023e-08
v -0.1 0.8 0.2
v -0.1 0.8 0.1
v 0 0 0.1
v 0 0 -2.98023e-08
v 0 0.1 0.1
v 0 0.1 -2.98023e-08
v 0.1 0.7 0.1
v 0.1 0.7 -2.98023e-08
v 0.1 0.8 0.1
v 0.1 0.8 -2.98023e-08
v 0.2 0 0.1
v 0.2 0 -2.98023e-08
v 0.2 0.1 0.1
v 0.2 0.1 -2.98023e-08
v 0.2 0.8 0.1
v 0.2 0.8 -2.98023e-08
v 0.2 0.9 -2.98023e-08
v 0.2 0.9 -0.1
v 0.2 1 0.1
v 0.2 1 -0.1
v 0.2 1.1 0.1
v 0.2 1.1 -0.1
v 0.3 0.3 0.2
v 0.3 0.3 0.1
v 0.3 0.4 0.2
v 0.3 0.4 0.1
v 0.3 0.5 0.3
v 0.3 0.5 0.2
v 0.3 0.5 0.1
v 0.3 0.6 0.3
v 0.3 0.6 0.2
v 0.3 0.6 0.1
v 0.3 0.7 -0.2
v 0.3 0.7 -0.3
v 0.3 0.8 0.2
v 0.3 0.8 0.1
v 0.3 0.8 -2.98023e-08
v 0.3 0.8 -0.2
v 0.3 0.9 -2.98023e-08
v 0.3 0.9 -0.3
v 0.4 0.1 0.1
v 0.4 0.1 -0.2
v 0.4 0.5 0.2
v 0.4 0.5 0.1
v 0.4 0.6 0.2
v 0.4 0.6 0.1
v 0.4 0.6 -2.98023e-08
v 0.4 0.8 -2.98023e-08
v 0.4 0.8 -0.2
v 0.5 0 0.1
v 0.5 0 -0.3
v 0.5 0.1 0.1
v 0.5 0.1 -0.3
v -0.2 0.5 0.3
v -0.2 0.6 0.3
v -0.1 0.5 0.3
v -0.1 0.6 0.3
v 0.2 0.5 0.3
v 0.2 0.6 0.3
v 0.3 0.5 0.3
v 0.3 0.6 0.3
v -0.3 0.5 0.2
v -0.3 0.6 0.2
v -0.2 0.3 0.2
v -0.2 0.4 0.2
v -0.2 0.5 0.2
v -0.2 0.6 0.2
v -0.2 0.8 0.2
v -0.1 0.3 0.2
v -0.1 0.4 0.2
v -0.1 0.5 0.2
v -0.1 0.6 0.2
v -0.1 0.8 0.2
v 0.2 0.3 0.2
v 0.2 0.4 0.2
v 0.2 0.5 0.2
v 0.2 0.6 0.2
v 0.2 0.8 0.2
v 0.3 0.3 0.2
v 0.3 0.4 0.2
v 0.3 0.5 0.2
v 0.3 0.6 0.2
v 0.3 0.8 0.2
v 0.4 0.5 0.2
v 0.4 0.6 0.2
v -0.4 0 0.1
v -0.4 0.1 0.1
v -0.3 0.1 0.1
v -0.3 0.5 0.1
v -0.2 0 0.1
v -0.2 0.3 0.1
v -0.2 0.4 0.1
v -0.2 0.5 0.1
v -0.1 0 0.1
v -0.1 0.1 0.1
v -0.1 0.8 0.1
v -0.1 1 0.1
v -0.1 1.1 0.1
v 0 0 0.1
v 0 0.1 0.1
v 0 0.7 0.1
v 0 0.8 0.1
v 0.1 0 0.1
v 0.1 0.1 0.1
v 0.1 0.7 0.1
v 0.1 0.8 0.1
v 0.2 0 0.1
v 0.2 0.1 0.1
v 0.2 0.8 0.1
v 0.2 1 0.1
v 0.2 1.1 0.1
v 0.3 0 0.1
v 0.3 0.3 0.1
v 0.3 0.4 0.1
v 0.3 0.5 0.1
v 0.4 0.1 0.1
v 0.4 0.5 0.1
v 0.5 0 0.1
v 0.5 0.1 0.1
v -0.3 0.6 -2.98023e-08
v -0.3 0.8 -2.98023e-08
v -0.2 0 -2.98023e-08
v -0.2 0.4 -2.98023e-08
v -0.2 0.8 -2.98023e-08
v -0.2 0.9 -2.98023e-08
v -0.1 0 -2.98023e-08
v -0.1 0.1 -2.98023e-08
v -0.1 0.2 -2.98023e-08
v -0.1 0.4 -2.98023e-08
v -0.1 0.5 -2.98023e-08
v -0.1 0.6 -2.98023e-08
v -0.1 0.8 -2.98023e-08
v -0.1 0.9 -2.98023e-08
v 0 0 -2.98023e-08
v 0 0.1 -2.98023e-08
v 0 0.2 -2.98023e-08
v 0 0.3 -2.98023e-08
v 0 0.5 -2.98023e-08
v 0 0.6 -2.98023e-08
v 0 0.7 -2.98023e-08
v 0 0.8 -2.98023e-08
v 0.1 0 -2.98023e-08
v 0.1 0.1 -2.98023e-08
v 0.1 0.2 -2.98023e-08
v 0.1 0.3 -2.98023e-08
v 0.1 0.6 -2.98023e-08
v 0.1 0.7 -2.98023e-08
v 0.1 0.8 -2.98023e-08
v 0.2 0 -2.98023e-08
v 0.2 0.1 -2.98023e-08
v 0.2 0.2 -2.98023e-08
v 0.2 0.4 -2.98023e-08
v 0.2 0.5 -2.98023e-08
v 0.2 0.6 -2.98023e-08
v 0.2 0.7 -2.98023e-08
v 0.2 0.8 -2.98023e-08
v 0.2 0.9 -2.98023e-08
v 0.3 0 -2.98023e-08
v 0.3 0.4 -2.98023e-08
v 0.3 0.8 -2.98023e-08
v 0.3 0.9 -2.98023e-08
v 0.4 0.6 -2.98023e-08
v 0.4 0.8 -2.98023e-08
v -0.2 0.3 0.1
v -0.2 0.4 0.1
v -0.2 0.6 0.1
v -0.2 0.8 0.1
v -0.1 0.3 0.1
v -0.1 0.4 0.1
v -0.1 0.6 0.1
v -0.1 0.8 0.1
v 0.2 0.3 0.1
v 0.2 0.4 0.1
v 0.2 0.6 0.1
v 0.2 0.8 0.1
v 0.3 0.3 0.1
v 0.3 0.4 0.1
v 0.3 0.6 0.1
v 0.3 0.8 0.1
v -0.1 0.9 -0.1
v -0.1 1 -0.1
v -0.1 1.1 -0.1
v 0.2 0.9 -0.1
v 0.2 1 -0.1
v 0.2 1.1 -0.1
v -0.3 0.1 -0.2
v -0.3 0.8 -0.2
v -0.2 0.7 -0.2
v -0.2 0.8 -0.2
v 0.3 0.7 -0.2
v 0.3 0.8 -0.2
v 0.4 0.1 -0.2
v 0.4 0.8 -0.2
v -0.4 0 -0.3
v -0.4 0.1 -0.3
v -0.2 0.7 -0.3
v -0.2 0.9 -0.3
v 0.3 0.7 -0.3
v 0.3 0.9 -0.3
v 0.5 0 -0.3
v 0.5 0.1 -0.3
v -0.4 0 0.1
v -0.2 0 0.1
v -0.1 0 0.1
v 0 0 0.1
v 0.1 0 0.1
v 0.2 0 0.1
v 0.3 0 0.1
v 0.5 0 0.1
v -0.3 0 -2.98023e-08
v -0.2 0 -2.98023e-08
v -0.1 0 -2.98023e-08
v 0 0 -2.98023e-08
v 0.1 0 -2.98023e-08
v 0.2 0 -2.98023e-08
v 0.3 0 -2.98023e-08
v 0.4 0 -2.98023e-08
v -0.1 0 -0.1
v 0 0 -0.1
v 0.1 0 -0.1
v 0.2 0 -0.1
v -0.3 0 -0.2
v 0.4 0 -0.2
v -0.4 0 -0.3
v 0.5 0 -0.3
v -0.2 0.3 0.2
v -0.1 0.3 0.2
v 0.2 0.3 0.2
v 0.3 0.3 0.2
v -0.2 0.3 0.1
v -0.1 0.3 0.1
v 0.2 0.3 0.1
v 0.3 0.3 0.1
v -0.2 0.4 0.1
v -0.1 0.4 0.1
v 0.2 0.4 0.1
v 0.3 0.4 0.1
v -0.2 0.4 -2.98023e-08
v -0.1 0.4 -2.98023e-08
v 0.2 0.4 -2.98023e-08
v 0.3 0.4 -2.98023e-08
v -0.2 0.5 0.3
v -0.1 0.5 0.3
v 0.2 0.5 0.3
v 0.3 0.5 0.3
v -0.3 0.5 0.2
v -0.2 0.5 0.2
v -0.1 0.5 0.2
v 0.2 0.5 0.2
v 0.3 0.5 0.2
v 0.4 0.5 0.2
v -0.3 0.5 0.1
v -0.2 0.5 0.1
v 0.3 0.5 0.1
v 0.4 0.5 0.1
v 0 0.7 0.1
v 0.1 0.7 0.1
v 0 0.7 -2.98023e-08
v 0.1 0.7 -2.98023e-08
v -0.2 0.7 -0.2
v 0.3 0.7 -0.2
v -0.2 0.7 -0.3
v 0.3 0.7 -0.3
v -0.1 0.8 0.1
v 0 0.8 0.1
v 0.1 0.8 0.1
v 0.2 0.8 0.1
v -0.1 0.8 -2.98023e-08
v 0 0.8 -2.98023e-08
v 0.1 0.8 -2.98023e-08
v 0.2 0.8 -2.98023e-08
v -0.4 0.1 0.1
v -0.3 0.1 0.1
v -0.1 0.1 0.1
v 0 0.1 0.1
v 0.1 0.1 0.1
v 0.2 0.1 0.1
v 0.4 0.1 0.1
v 0.5 0.1 0.1
v -0.1 0.1 -2.98023e-08
v 0 0.1 -2.98023e-08
v 0.1 0.1 -2.98023e-08
v 0.2 0.1 -2.98023e-08
v -0.3 0.1 -0.2
v 0.4 0.1 -0.2
v -0.4 0.1 -0.3
v 0.5 0.1 -0.3
v -0.2 0.6 0.3
v -0.1 0.6 0.3
v 0.2 0.6 0.3
v 0.3 0.6 0.3
v -0.3 0.6 0.2
v -0.2 0.6 0.2
v -0.1 0.6 0.2
v 0.2 0.6 0.2
v 0.3 0.6 0.2
v 0.4 0.6 0.2
v -0.3 0.6 0.1
v -0.2 0.6 0.1
v -0.1 0.6 0.1
v 0.2 0.6 0.1
v 0.3 0.6 0.1
v 0.4 0.6 0.1
v -0.3 0.6 -2.98023e-08
v -0.1 0.6 -2.98023e-08
v 0.2 0.6 -2.98023e-08
v 0.4 0.6 -2.98023e-08
v -0.2 0.8 0.2
v -0.1 0.8 0.2
v 0.2 0.8 0.2
v 0.3 0.8 0.2
v -0.2 0.8 0.1
v -0.1 0.8 0.1
v 0.2 0.8 0.1
v 0.3 0.8 0.1
v -0.3 0.8 -2.98023e-08
v -0.2 0.8 -2.98023e-08
v 0.3 0.8 -2.98023e-08
v 0.4 0.8 -2.98023e-08
v -0.3 0.8 -0.2
v -0.2 0.8 -0.2
v 0.3 0.8 -0.2
v 0.4 0.8 -0.2
v -0.2 0.9 -2.98023e-08
v -0.1 0.9 -2.98023e-08
v 0.2 0.9 -2.98023e-08
v 0.3 0.9 -2.98023e-08
v -0.1 0.9 -0.1
v 0.2 0.9 -0.1
v -0.1 0.9 -0.2
v 0.2 0.9 -0.2
v -0.2 0.9 -0.3
v 0.3 0.9 -0.3
v -0.1 1.1 0.1
v 0.2 1.1 0.1
v -0.1 1.1 -0.1
v 0.2 1.1 -0.1

# faces
f 3/6/1 2/6/1 1/6/1
f 4/6/1 2/6/1 3/6/1
f 8/6/1 6/6/1 5/6/1
f 9/4/1 8/4/1 7/4/1
f 10/6/1 6/6/1 8/6/1
f 10/4/1 8/4/1 9/4/1
f 11/6/1 6/6/1 10/6/1
f 12/6/1 6/6/1 11/6/1
f 13/6/1 6/6/1 12/6/1
f 16/4/1 15/4/1 14/4/1
f 17/4/1 15/4/1 16/4/1
f 19/1/1 17/1/1 16/1/1
f 20/1/1 17/1/1 19/1/1
f 21/4/1 19/4/1 18/4/1
f 22/4/1 19/4/1 21/4/1
f 26/7/1 23/7/1 22/7/1
f 27/7/1 23/7/1 26/7/1
f 29/6/1 25/6/1 24/6/1
f 30/6/1 29/6/1 28/6/1
f 31/6/1 25/6/1 29/6/1
f 31/6/1 29/6/1 30/6/1
f 34/5/1 33/5/1 32/5/1
f 35/5/1 33/5/1 34/5/1
f 38/2/1 37/2/1 36/2/1
f 40/2/1 38/2/1 36/2/1
f 40/2/1 39/2/1 38/2/1
f 41/2/1 39/2/1 40/2/1
f 42/1/1 41/1/1 40/1/1
f 43/1/1 41/1/1 42/1/1
f 46/2/1 45/2/1 44/2/1
f 47/2/1 45/2/1 46/2/1
f 50/5/1 49/5/1 48/5/1
f 51/5/1 49/5/1 50/5/1
f 54/4/1 53/4/1 52/4/1
f 55/4/1 53/4/1 54/4/1
f 58/1/1 55/1/1 54/1/1
f 58/1/1 56/1/1 55/1/1
f 59/1/1 56/1/1 58/1/1
f 60/1/1 56/1/1 59/1/1
f 61/4/1 58/4/1 57/4/1
f 61/4/1 59/4/1 58/4/1
f 62/4/1 59/4/1 61/4/1
f 63/6/1 60/6/1 59/6/1
f 63/4/1 59/4/1 62/4/1
f 64/6/1 60/6/1 63/6/1
f 65/7/1 63/7/1 62/7/1
f 66/7/1 63/7/1 65/7/1
f 69/6/1 68/6/1 67/6/1
f 70/6/1 68/6/1 69/6/1
f 71/6/1 68/6/1 70/6/1
f 72/6/2 73/6/2 74/6/2
f 74/6/2 73/6/2 75/6/2
f 75/6/2 73/6/2 76/6/2
f 77/4/2 78/4/2 79/4/2
f 79/4/2 78/4/2 80/4/2
f 79/1/2 80/1/2 83/1/2
f 80/1/2 81/1/2 83/1/2
f 83/1/2 81/1/2 84/1/2
f 84/1/2 81/1/2 85/1/2
f 82/4/2 83/4/2 86/4/2
f 83/4/2 84/4/2 86/4/2
f 86/4/2 84/4/2 87/4/2
f 84/6/2 85/6/2 88/6/2
f 87/4/2 84/4/2 88/4/2
f 88/6/2 85/6/2 89/6/2
f 87/7/2 88/7/2 90/7/2
f 90/7/2 88/7/2 91/7/2
f 92/5/2 93/5/2 94/5/2
f 94/5/2 93/5/2 95/5/2
f 96/2/2 97/2/2 98/2/2
f 98/2/2 97/2/2 99/2/2
f 100/5/2 101/5/2 102/5/2
f 102/5/2 101/5/2 103/5/2
f 104/2/2 105/2/2 106/2/2
f 104/2/2 106/2/2 108/2/2
f 106/2/2 107/2/2 108/2/2
f 108/2/2 107/2/2 109/2/2
f 108/1/2 109/1/2 110/1/2
f 110/1/2 109/1/2 111/1/2
f 112/4/2 113/4/2 114/4/2
f 114/4/2 113/4/2 115/4/2
f 114/1/2 115/1/2 117/1/2
f 117/1/2 115/1/2 118/1/2
f 116/4/2 117/4/2 119/4/2
f 119/4/2 117/4/2 120/4/2
f 120/7/2 121/7/2 124/7/2
f 124/7/2 121/7/2 125/7/2
f 122/6/2 123/6/2 127/6/2
f 126/6/2 127/6/2 128/6/2
f 127/6/2 123/6/2 129/6/2
f 128/6/2 127/6/2 129/6/2
f 130/6/2 131/6/2 133/6/2
f 132/4/2 133/4/2 134/4/2
f 133/6/2 131/6/2 135/6/2
f 134/4/2 133/4/2 135/4/2
f 135/6/2 131/6/2 136/6/2
f 136/6/2 131/6/2 137/6/2
f 137/6/2 131/6/2 138/6/2
f 139/6/2 140/6/2 141/6/2
f 141/6/2 140/6/2 142/6/2
f 145/4/3 144/4/3 143/4/3
f 146/4/3 144/4/3 145/4/3
f 149/4/3 148/4/3 147/4/3
f 150/4/3 148/4/3 149/4/3
f 155/4/3 152/4/3 151/4/3
f 156/4/3 152/4/3 155/4/3
f 158/4/3 154/4/3 153/4/3
f 159/1/3 155/1/3 154/1/3
f 159/4/3 154/4/3 158/4/3
f 160/1/3 155/1/3 159/1/3
f 161/7/3 157/7/3 156/7/3
f 162/7/3 157/7/3 161/7/3
f 168/4/3 164/4/3 163/4/3
f 169/1/3 165/1/3 164/1/3
f 169/4/3 164/4/3 168/4/3
f 170/1/3 165/1/3 169/1/3
f 171/7/3 167/7/3 166/7/3
f 172/7/3 167/7/3 171/7/3
f 173/4/3 171/4/3 170/4/3
f 174/4/3 171/4/3 173/4/3
f 177/6/3 176/6/3 175/6/3
f 179/6/3 177/6/3 175/6/3
f 179/6/3 178/6/3 177/6/3
f 180/6/3 178/6/3 179/6/3
f 181/6/3 178/6/3 180/6/3
f 182/6/3 178/6/3 181/6/3
f 188/5/3 184/5/3 183/5/3
f 189/5/3 184/5/3 188/5/3
f 191/2/3 186/2/3 185/2/3
f 194/2/3 191/2/3 190/2/3
f 195/2/3 186/2/3 191/2/3
f 195/2/3 191/2/3 194/2/3
f 196/5/3 193/5/3 192/5/3
f 197/5/3 193/5/3 196/5/3
f 198/2/3 186/2/3 195/2/3
f 199/1/3 187/1/3 186/1/3
f 199/2/3 186/2/3 198/2/3
f 200/1/3 187/1/3 199/1/3
f 205/6/3 202/6/3 201/6/3
f 205/6/3 204/6/3 203/6/3
f 205/6/3 203/6/3 202/6/3
f 206/6/3 204/6/3 205/6/3
f 207/6/3 205/6/3 201/6/3
f 208/6/3 205/6/3 207/6/3
f 213/6/3 210/6/3 209/6/3
f 215/8/3 212/8/3 211/8/3
f 216/8/3 212/8/3 215/8/3
f 217/8/3 212/8/3 216/8/3
f 218/8/3 212/8/3 217/8/3
f 220/6/3 214/6/3 213/6/3
f 220/6/3 213/6/3 209/6/3
f 221/6/3 214/6/3 220/6/3
f 222/6/3 214/6/3 221/6/3
f 224/5/3 217/5/3 216/5/3
f 225/3/3 218/3/3 217/3/3
f 225/5/3 217/5/3 224/5/3
f 226/3/3 218/3/3 225/3/3
f 227/5/3 219/5/3 218/5/3
f 227/5/3 220/5/3 219/5/3
f 228/3/3 221/3/3 220/3/3
f 228/5/3 220/5/3 227/5/3
f 229/3/3 221/3/3 228/3/3
f 230/3/3 221/3/3 229/3/3
f 231/8/3 224/8/3 223/8/3
f 231/8/3 226/8/3 225/8/3
f 231/8/3 225/8/3 224/8/3
f 232/8/3 226/8/3 231/8/3
f 233/8/3 226/8/3 232/8/3
f 234/3/3 218/3/3 226/3/3
f 234/8/3 226/8/3 233/8/3
f 235/5/3 229/5/3 228/5/3
f 235/3/3 228/3/3 227/3/3
f 236/5/3 229/5/3 235/5/3
f 239/5/3 233/5/3 232/5/3
f 240/3/3 234/3/3 233/3/3
f 240/5/3 233/5/3 239/5/3
f 241/5/3 227/5/3 218/5/3
f 241/3/3 234/3/3 240/3/3
f 241/3/3 218/3/3 234/3/3
f 242/3/3 236/3/3 235/3/3
f 242/5/3 227/5/3 241/5/3
f 242/3/3 235/3/3 227/3/3
f 243/3/3 236/3/3 242/3/3
f 244/5/3 237/5/3 236/5/3
f 244/3/3 236/3/3 243/3/3
f 245/5/3 237/5/3 244/5/3
f 247/8/3 241/8/3 240/8/3
f 247/8/3 240/8/3 239/8/3
f 247/8/3 239/8/3 238/8/3
f 248/8/3 241/8/3 247/8/3
f 249/6/3 246/6/3 245/6/3
f 249/6/3 245/6/3 244/6/3
f 249/6/3 244/6/3 243/6/3
f 250/6/3 246/6/3 249/6/3
f 251/6/3 249/6/3 243/6/3
f 252/6/3 249/6/3 251/6/3
f 253/4/4 254/4/4 257/4/4
f 257/4/4 254/4/4 258/4/4
f 255/7/4 256/7/4 259/7/4
f 259/7/4 256/7/4 260/7/4
f 261/4/4 262/4/4 265/4/4
f 265/4/4 262/4/4 266/4/4
f 263/7/4 264/7/4 267/7/4
f 267/7/4 264/7/4 268/7/4
f 269/2/4 270/2/4 272/2/4
f 270/1/4 271/1/4 273/1/4
f 272/2/4 270/2/4 273/2/4
f 273/1/4 271/1/4 274/1/4
f 275/6/4 276/6/4 277/6/4
f 277/6/4 276/6/4 278/6/4
f 275/6/4 277/6/4 279/6/4
f 275/6/4 279/6/4 281/6/4
f 279/6/4 280/6/4 281/6/4
f 281/6/4 280/6/4 282/6/4
f 285/6/4 286/6/4 287/6/4
f 287/6/4 286/6/4 288/6/4
f 283/6/4 284/6/4 289/6/4
f 289/6/4 284/6/4 290/6/4
f 299/6/5 292/6/5 291/6/5
f 300/6/5 292/6/5 299/6/5
f 301/5/5 294/5/5 293/5/5
f 302/5/5 294/5/5 301/5/5
f 303/5/5 296/5/5 295/5/5
f 304/5/5 296/5/5 303/5/5
f 305/6/5 298/6/5 297/6/5
f 306/6/5 298/6/5 305/6/5
f 307/8/5 300/8/5 299/8/5
f 307/5/5 302/5/5 301/5/5
f 307/8/5 301/8/5 300/8/5
f 308/8/5 303/8/5 302/8/5
f 308/5/5 302/5/5 307/5/5
f 309/5/5 304/5/5 303/5/5
f 309/8/5 303/8/5 308/8/5
f 310/8/5 306/8/5 305/8/5
f 310/5/5 304/5/5 309/5/5
f 310/8/5 305/8/5 304/8/5
f 311/8/5 308/8/5 307/8/5
f 311/8/5 309/8/5 308/8/5
f 311/8/5 310/8/5 309/8/5
f 311/8/5 307/8/5 299/8/5
f 311/6/5 299/6/5 291/6/5
f 312/8/5 306/8/5 310/8/5
f 312/8/5 310/8/5 311/8/5
f 312/6/5 298/6/5 306/6/5
f 313/6/5 311/6/5 291/6/5
f 313/6/5 312/6/5 311/6/5
f 314/6/5 298/6/5 312/6/5
f 314/6/5 312/6/5 313/6/5
f 319/4/5 316/4/5 315/4/5
f 320/4/5 316/4/5 319/4/5
f 321/4/5 318/4/5 317/4/5
f 322/4/5 318/4/5 321/4/5
f 327/1/5 324/1/5 323/1/5
f 328/1/5 324/1/5 327/1/5
f 329/1/5 326/1/5 325/1/5
f 330/1/5 326/1/5 329/1/5
f 336/4/5 332/4/5 331/4/5
f 337/4/5 332/4/5 336/4/5
f 338/4/5 334/4/5 333/4/5
f 339/4/5 334/4/5 338/4/5
f 341/4/5 336/4/5 335/4/5
f 342/4/5 336/4/5 341/4/5
f 343/4/5 340/4/5 339/4/5
f 344/4/5 340/4/5 343/4/5
f 347/2/5 346/2/5 345/2/5
f 348/2/5 346/2/5 347/2/5
f 351/6/5 350/6/5 349/6/5
f 352/6/5 350/6/5 351/6/5
f 357/2/5 354/2/5 353/2/5
f 358/2/5 354/2/5 357/2/5
f 359/2/5 356/2/5 355/2/5
f 360/2/5 356/2/5 359/2/5
f 363/5/6 364/5/6 369/5/6
f 369/5/6 364/5/6 370/5/6
f 365/5/6 366/5/6 371/5/6
f 371/5/6 366/5/6 372/5/6
f 361/6/6 362/6/6 373/6/6
f 367/6/6 368/6/6 374/6/6
f 361/6/6 373/6/6 375/6/6
f 373/6/6 374/6/6 375/6/6
f 374/6/6 368/6/6 376/6/6
f 375/6/6 374/6/6 376/6/6
f 377/4/6 378/4/6 382/4/6
f 382/4/6 378/4/6 383/4/6
f 379/4/6 380/4/6 384/4/6
f 384/4/6 380/4/6 385/4/6
f 381/4/6 382/4/6 387/4/6
f 387/4/6 382/4/6 388/4/6
f 385/4/6 386/4/6 391/4/6
f 391/4/6 386/4/6 392/4/6
f 388/6/6 389/6/6 393/6/6
f 387/6/6 388/6/6 393/6/6
f 393/6/6 389/6/6 394/6/6
f 391/6/6 392/6/6 395/6/6
f 390/6/6 391/6/6 395/6/6
f 395/6/6 392/6/6 396/6/6
f 397/7/6 398/7/6 401/7/6
f 401/7/6 398/7/6 402/7/6
f 399/7/6 400/7/6 403/7/6
f 403/7/6 400/7/6 404/7/6
f 405/6/6 406/6/6 409/6/6
f 409/6/6 406/6/6 410/6/6
f 407/6/6 408/6/6 411/6/6
f 411/6/6 408/6/6 412/6/6
f 413/6/6 414/6/6 417/6/6
f 415/6/6 416/6/6 418/6/6
f 413/6/6 417/6/6 419/6/6
f 417/8/6 418/8/6 419/8/6
f 418/6/6 416/6/6 420/6/6
f 419/8/6 418/8/6 420/8/6
f 413/6/6 419/6/6 421/6/6
f 419/6/6 420/6/6 421/6/6
f 420/6/6 416/6/6 422/6/6
f 421/6/6 420/6/6 422/6/6
f 423/1/6 424/1/6 425/1/6
f 425/1/6 424/1/6 426/1/6
