# MagicaVoxel @ Ephtracy

# group
o 

# material
mtllib rogue_walk_2.mtl
usemtl palette

# normals
vn -1 0 0
vn 1 0 0
vn 0 0 1
vn 0 0 -1
vn 0 -1 0
vn 0 1 0

# texcoords
vt 0.732422 0.5
vt 0.751953 0.5
vt 0.783203 0.5
vt 0.787109 0.5
vt 0.814453 0.5
vt 0.818359 0.5
vt 0.880859 0.5
vt 0.970703 0.5

# verts
v -0.4 0 0.1
v -0.4 0 -0.3
v -0.4 0.1 0.1
v -0.4 0.1 -0.3
v -0.3 0.1 0.1
v -0.3 0.1 -0.2
v -0.3 0.5 0.3
v -0.3 0.5 0.2
v -0.3 0.6 0.3
v -0.3 0.6 0.2
v -0.3 0.6 0.1
v -0.3 0.6 0
v -0.3 0.8 0
v -0.3 0.8 -0.2
v -0.2 0.3 0.3
v -0.2 0.3 0.2
v -0.2 0.4 0.3
v -0.2 0.4 0.2
v -0.2 0.4 0.1
v -0.2 0.5 0.4
v -0.2 0.5 0.3
v -0.2 0.5 0.2
v -0.2 0.5 0.1
v -0.2 0.6 0.4
v -0.2 0.6 0.3
v -0.2 0.6 0.2
v -0.2 0.7 -0.2
v -0.2 0.7 -0.3
v -0.2 0.8 0.3
v -0.2 0.8 0.2
v -0.2 0.8 0
v -0.2 0.8 -0.2
v -0.2 0.9 0
v -0.2 0.9 -0.3
v -0.1 0.8 0.1
v -0.1 0.8 0
v -0.1 0.9 0
v -0.1 0.9 -0.1
v -0.1 1 0.1
v -0.1 1 -0.1
v -0.1 1.1 0.1
v -0.1 1.1 -0.1
v 0 0.7 0.1
v 0 0.7 0
v 0 0.8 0.1
v 0 0.8 0
v 0.1 0 0.2
v 0.1 0 0
v 0.1 0 -0.3
v 0.1 0 -0.4
v 0.1 0.1 0.2
v 0.1 0.1 0.1
v 0.1 0.1 -0.3
v 0.1 0.1 -0.4
v 0.1 0.2 0.1
v 0.1 0.2 0
v 0.1 0.3 0
v 0.1 0.4 0.1
v 0.1 0.4 0
v 0.2 0.1 -0.2
v 0.2 0.1 -0.3
v 0.2 0.4 0.1
v 0.2 0.4 0
v 0.2 0.5 0.2
v 0.2 0.5 0.1
v 0.2 0.5 0
v 0.2 0.6 0.2
v 0.2 0.6 0.1
v 0.2 0.6 0
v 0.2 0.6 -0.2
v 0.2 0.6 -0.3
v 0.2 0.8 0.1
v 0.2 0.8 0
v 0.3 0 0
v 0.3 0 -0.1
v 0.3 0.1 0
v 0.3 0.1 -0.1
v -0.2 0 0.1
v -0.2 0 0
v -0.2 0.2 0
v -0.2 0.4 0.1
v -0.2 0.4 0
v -0.1 0.3 0.3
v -0.1 0.3 0.2
v -0.1 0.4 0.3
v -0.1 0.4 0.2
v -0.1 0.4 0
v -0.1 0.5 0.4
v -0.1 0.5 0.3
v -0.1 0.5 0.2
v -0.1 0.5 0.1
v -0.1 0.5 0
v -0.1 0.6 0.4
v -0.1 0.6 0.3
v -0.1 0.6 0.2
v -0.1 0.6 0.1
v -0.1 0.6 0
v -0.1 0.8 0.3
v -0.1 0.8 0.2
v 0.1 0.7 0.1
v 0.1 0.7 0
v 0.1 0.8 0.1
v 0.1 0.8 0
v 0.2 0 0.2
v 0.2 0 0
v 0.2 0 -0.1
v 0.2 0.1 0.2
v 0.2 0.1 0.1
v 0.2 0.1 0
v 0.2 0.1 -0.1
v 0.2 0.2 0.1
v 0.2 0.2 0
v 0.2 0.8 0.1
v 0.2 0.8 0
v 0.2 0.9 0
v 0.2 0.9 -0.1
v 0.2 1 0.1
v 0.2 1 -0.1
v 0.2 1.1 0.1
v 0.2 1.1 -0.1
v 0.3 0.2 0.1
v 0.3 0.2 0
v 0.3 0.3 0.1
v 0.3 0.3 0
v 0.3 0.4 0.1
v 0.3 0.4 0
v 0.3 0.5 0.2
v 0.3 0.5 0.1
v 0.3 0.5 0
v 0.3 0.6 0.2
v 0.3 0.6 0.1
v 0.3 0.6 0
v 0.3 0.7 -0.2
v 0.3 0.7 -0.3
v 0.3 0.8 0.1
v 0.3 0.8 0
v 0.3 0.8 -0.2
v 0.3 0.9 0
v 0.3 0.9 -0.3
v 0.4 0.1 0
v 0.4 0.1 -0.3
v 0.4 0.5 0.1
v 0.4 0.5 0
v 0.4 0.6 0.1
v 0.4 0.6 0
v 0.4 0.6 -0.2
v 0.4 0.6 -0.3
v 0.4 0.8 0
v 0.4 0.8 -0.2
v 0.5 0 0
v 0.5 0 -0.4
v 0.5 0.1 0
v 0.5 0.1 -0.4
v -0.2 0.5 0.4
v -0.2 0.6 0.4
v -0.1 0.5 0.4
v -0.1 0.6 0.4
v -0.3 0.5 0.3
v -0.3 0.6 0.3
v -0.2 0.3 0.3
v -0.2 0.4 0.3
v -0.2 0.5 0.3
v -0.2 0.6 0.3
v -0.2 0.8 0.3
v -0.1 0.3 0.3
v -0.1 0.4 0.3
v -0.1 0.5 0.3
v -0.1 0.6 0.3
v -0.1 0.8 0.3
v 0.1 0 0.2
v 0.1 0.1 0.2
v 0.2 0 0.2
v 0.2 0.1 0.2
v 0.2 0.5 0.2
v 0.2 0.6 0.2
v 0.3 0.5 0.2
v 0.3 0.6 0.2
v -0.4 0 0.1
v -0.4 0.1 0.1
v -0.3 0.1 0.1
v -0.3 0.6 0.1
v -0.2 0 0.1
v -0.2 0.4 0.1
v -0.2 0.5 0.1
v -0.1 0.5 0.1
v -0.1 0.6 0.1
v -0.1 0.8 0.1
v -0.1 1 0.1
v -0.1 1.1 0.1
v 0 0.7 0.1
v 0 0.8 0.1
v 0.1 0.1 0.1
v 0.1 0.2 0.1
v 0.1 0.4 0.1
v 0.1 0.7 0.1
v 0.1 0.8 0.1
v 0.2 0.1 0.1
v 0.2 0.2 0.1
v 0.2 0.3 0.1
v 0.2 0.4 0.1
v 0.2 0.5 0.1
v 0.2 0.6 0.1
v 0.2 0.8 0.1
v 0.2 1 0.1
v 0.2 1.1 0.1
v 0.3 0.2 0.1
v 0.3 0.3 0.1
v 0.3 0.4 0.1
v 0.3 0.5 0.1
v 0.3 0.6 0.1
v 0.3 0.8 0.1
v 0.4 0.5 0.1
v 0.4 0.6 0.1
v -0.3 0.6 0
v -0.3 0.8 0
v -0.2 0 0
v -0.2 0.2 0
v -0.2 0.4 0
v -0.2 0.8 0
v -0.2 0.9 0
v -0.1 0.4 0
v -0.1 0.5 0
v -0.1 0.6 0
v -0.1 0.7 0
v -0.1 0.8 0
v -0.1 0.9 0
v 0 0.2 0
v 0 0.3 0
v 0 0.6 0
v 0 0.7 0
v 0 0.8 0
v 0.1 0 0
v 0.1 0.2 0
v 0.1 0.3 0
v 0.1 0.4 0
v 0.1 0.5 0
v 0.1 0.6 0
v 0.1 0.7 0
v 0.1 0.8 0
v 0.2 0.1 0
v 0.2 0.2 0
v 0.2 0.4 0
v 0.2 0.5 0
v 0.2 0.6 0
v 0.2 0.8 0
v 0.2 0.9 0
v 0.3 0 0
v 0.3 0.1 0
v 0.3 0.2 0
v 0.3 0.3 0
v 0.3 0.4 0
v 0.3 0.5 0
v 0.3 0.6 0
v 0.3 0.8 0
v 0.3 0.9 0
v 0.4 0.1 0
v 0.4 0.5 0
v 0.4 0.6 0
v 0.4 0.8 0
v 0.5 0 0
v 0.5 0.1 0
v 0.2 0 -0.1
v 0.2 0.1 -0.1
v 0.3 0 -0.1
v 0.3 0.1 -0.1
v -0.3 0.5 0.2
v -0.3 0.6 0.2
v -0.2 0.3 0.2
v -0.2 0.4 0.2
v -0.2 0.5 0.2
v -0.2 0.6 0.2
v -0.2 0.8 0.2
v -0.1 0.3 0.2
v -0.1 0.4 0.2
v -0.1 0.5 0.2
v -0.1 0.6 0.2
v -0.1 0.8 0.2
v -0.1 0.9 -0.1
v -0.1 1 -0.1
v -0.1 1.1 -0.1
v 0.2 0.9 -0.1
v 0.2 1 -0.1
v 0.2 1.1 -0.1
v -0.3 0.1 -0.2
v -0.3 0.8 -0.2
v -0.2 0.7 -0.2
v -0.2 0.8 -0.2
v 0.2 0.1 -0.2
v 0.2 0.6 -0.2
v 0.3 0.7 -0.2
v 0.3 0.8 -0.2
v 0.4 0.6 -0.2
v 0.4 0.8 -0.2
v -0.4 0 -0.3
v -0.4 0.1 -0.3
v -0.2 0.7 -0.3
v -0.2 0.9 -0.3
v 0.1 0 -0.3
v 0.1 0.1 -0.3
v 0.2 0.1 -0.3
v 0.2 0.6 -0.3
v 0.3 0.7 -0.3
v 0.3 0.9 -0.3
v 0.4 0.1 -0.3
v 0.4 0.6 -0.3
v 0.1 0 -0.4
v 0.1 0.1 -0.4
v 0.5 0 -0.4
v 0.5 0.1 -0.4
v 0.1 0 0.2
v 0.2 0 0.2
v -0.4 0 0.1
v -0.2 0 0.1
v -0.3 0 0
v -0.2 0 0
v 0.1 0 0
v 0.2 0 0
v 0.3 0 0
v 0.5 0 0
v 0.2 0 -0.1
v 0.3 0 -0.1
v 0.4 0 -0.1
v -0.3 0 -0.2
v 0.2 0 -0.2
v -0.4 0 -0.3
v 0.1 0 -0.3
v 0.2 0 -0.3
v 0.4 0 -0.3
v 0.1 0 -0.4
v 0.5 0 -0.4
v 0.2 0.1 0
v 0.3 0.1 0
v 0.2 0.1 -0.1
v 0.3 0.1 -0.1
v 0.2 0.2 0.1
v 0.3 0.2 0.1
v 0.2 0.2 0
v 0.3 0.2 0
v -0.2 0.3 0.3
v -0.1 0.3 0.3
v -0.2 0.3 0.2
v -0.1 0.3 0.2
v -0.2 0.4 0.2
v -0.1 0.4 0.2
v -0.2 0.4 0.1
v -0.2 0.4 0
v -0.1 0.4 0
v -0.2 0.5 0.4
v -0.1 0.5 0.4
v -0.3 0.5 0.3
v -0.2 0.5 0.3
v -0.1 0.5 0.3
v -0.3 0.5 0.2
v -0.2 0.5 0.2
v 0.2 0.5 0.2
v 0.3 0.5 0.2
v 0.2 0.5 0.1
v 0.3 0.5 0.1
v 0.4 0.5 0.1
v 0.3 0.5 0
v 0.4 0.5 0
v 0 0.7 0.1
v 0.1 0.7 0.1
v 0 0.7 0
v 0.1 0.7 0
v -0.2 0.7 -0.2
v 0.3 0.7 -0.2
v -0.2 0.7 -0.3
v 0.3 0.7 -0.3
v -0.1 0.8 0.1
v 0 0.8 0.1
v 0.1 0.8 0.1
v 0.2 0.8 0.1
v -0.1 0.8 0
v 0 0.8 0
v 0.1 0.8 0
v 0.2 0.8 0
v 0.1 0.1 0.2
v 0.2 0.1 0.2
v -0.4 0.1 0.1
v -0.3 0.1 0.1
v 0.1 0.1 0.1
v 0.2 0.1 0.1
v 0.4 0.1 0
v 0.5 0.1 0
v -0.3 0.1 -0.2
v 0.2 0.1 -0.2
v -0.4 0.1 -0.3
v 0.1 0.1 -0.3
v 0.2 0.1 -0.3
v 0.4 0.1 -0.3
v 0.1 0.1 -0.4
v 0.5 0.1 -0.4
v 0.1 0.4 0.1
v 0.2 0.4 0.1
v 0.1 0.4 0
v 0.2 0.4 0
v -0.2 0.5 0.2
v -0.1 0.5 0.2
v -0.2 0.5 0.1
v -0.1 0.5 0.1
v -0.2 0.6 0.4
v -0.1 0.6 0.4
v -0.3 0.6 0.3
v -0.2 0.6 0.3
v -0.1 0.6 0.3
v -0.3 0.6 0.2
v -0.2 0.6 0.2
v 0.2 0.6 0.2
v 0.3 0.6 0.2
v -0.3 0.6 0.1
v -0.1 0.6 0.1
v 0.2 0.6 0.1
v 0.3 0.6 0.1
v 0.4 0.6 0.1
v -0.3 0.6 0
v -0.1 0.6 0
v 0.3 0.6 0
v 0.4 0.6 0
v 0.2 0.6 -0.2
v 0.4 0.6 -0.2
v 0.2 0.6 -0.3
v 0.4 0.6 -0.3
v -0.2 0.8 0.3
v -0.1 0.8 0.3
v -0.2 0.8 0.2
v -0.1 0.8 0.2
v 0.2 0.8 0.1
v 0.3 0.8 0.1
v -0.3 0.8 0
v -0.2 0.8 0
v 0.2 0.8 0
v 0.3 0.8 0
v 0.4 0.8 0
v -0.3 0.8 -0.2
v -0.2 0.8 -0.2
v 0.3 0.8 -0.2
v 0.4 0.8 -0.2
v -0.2 0.9 0
v -0.1 0.9 0
v 0.2 0.9 0
v 0.3 0.9 0
v -0.1 0.9 -0.1
v 0.2 0.9 -0.1
v -0.1 0.9 -0.2
v 0.2 0.9 -0.2
v -0.2 0.9 -0.3
v 0.3 0.9 -0.3
v -0.1 1.1 0.1
v 0.2 1.1 0.1
v -0.1 1.1 -0.1
v 0.2 1.1 -0.1

# faces
f 3/6/1 2/6/1 1/6/1
f 4/6/1 2/6/1 3/6/1
f 9/4/1 8/4/1 7/4/1
f 10/4/1 8/4/1 9/4/1
f 11/6/1 6/6/1 5/6/1
f 12/6/1 6/6/1 11/6/1
f 13/6/1 6/6/1 12/6/1
f 14/6/1 6/6/1 13/6/1
f 17/4/1 16/4/1 15/4/1
f 18/4/1 16/4/1 17/4/1
f 21/1/1 18/1/1 17/1/1
f 21/1/1 19/1/1 18/1/1
f 22/1/1 19/1/1 21/1/1
f 23/1/1 19/1/1 22/1/1
f 24/4/1 21/4/1 20/4/1
f 25/4/1 21/4/1 24/4/1
f 29/7/1 26/7/1 25/7/1
f 30/7/1 26/7/1 29/7/1
f 32/6/1 28/6/1 27/6/1
f 33/6/1 32/6/1 31/6/1
f 34/6/1 28/6/1 32/6/1
f 34/6/1 32/6/1 33/6/1
f 37/2/1 36/2/1 35/2/1
f 39/2/1 37/2/1 35/2/1
f 39/2/1 38/2/1 37/2/1
f 40/2/1 38/2/1 39/2/1
f 41/1/1 40/1/1 39/1/1
f 42/1/1 40/1/1 41/1/1
f 45/2/1 44/2/1 43/2/1
f 46/2/1 44/2/1 45/2/1
f 51/5/1 48/5/1 47/5/1
f 52/5/1 48/5/1 51/5/1
f 53/6/1 50/6/1 49/6/1
f 54/6/1 50/6/1 53/6/1
f 55/5/1 48/5/1 52/5/1
f 56/5/1 48/5/1 55/5/1
f 57/3/1 56/3/1 55/3/1
f 58/3/1 57/3/1 55/3/1
f 59/3/1 57/3/1 58/3/1
f 65/1/1 63/1/1 62/1/1
f 66/1/1 63/1/1 65/1/1
f 67/4/1 65/4/1 64/4/1
f 67/4/1 66/4/1 65/4/1
f 68/4/1 66/4/1 67/4/1
f 69/4/1 66/4/1 68/4/1
f 70/6/1 61/6/1 60/6/1
f 71/6/1 61/6/1 70/6/1
f 72/7/1 69/7/1 68/7/1
f 73/7/1 69/7/1 72/7/1
f 76/6/1 75/6/1 74/6/1
f 77/6/1 75/6/1 76/6/1
f 78/6/2 79/6/2 80/6/2
f 78/6/2 80/6/2 81/6/2
f 81/6/2 80/6/2 82/6/2
f 83/4/2 84/4/2 85/4/2
f 85/4/2 84/4/2 86/4/2
f 85/1/2 86/1/2 89/1/2
f 86/1/2 87/1/2 89/1/2
f 89/1/2 87/1/2 90/1/2
f 90/1/2 87/1/2 91/1/2
f 91/1/2 87/1/2 92/1/2
f 88/4/2 89/4/2 93/4/2
f 89/4/2 90/4/2 93/4/2
f 93/4/2 90/4/2 94/4/2
f 94/4/2 90/4/2 95/4/2
f 91/6/2 92/6/2 96/6/2
f 96/6/2 92/6/2 97/6/2
f 94/7/2 95/7/2 98/7/2
f 98/7/2 95/7/2 99/7/2
f 100/2/2 101/2/2 102/2/2
f 102/2/2 101/2/2 103/2/2
f 104/5/2 105/5/2 107/5/2
f 107/5/2 105/5/2 108/5/2
f 105/8/2 106/8/2 109/8/2
f 108/5/2 105/5/2 109/5/2
f 109/8/2 106/8/2 110/8/2
f 108/5/2 109/5/2 111/5/2
f 111/5/2 109/5/2 112/5/2
f 113/2/2 114/2/2 115/2/2
f 113/2/2 115/2/2 117/2/2
f 115/2/2 116/2/2 117/2/2
f 117/2/2 116/2/2 118/2/2
f 117/1/2 118/1/2 119/1/2
f 119/1/2 118/1/2 120/1/2
f 121/3/2 122/3/2 123/3/2
f 123/3/2 122/3/2 124/3/2
f 123/4/2 124/4/2 125/4/2
f 125/4/2 124/4/2 126/4/2
f 125/1/2 126/1/2 128/1/2
f 128/1/2 126/1/2 129/1/2
f 127/4/2 128/4/2 130/4/2
f 130/4/2 128/4/2 131/4/2
f 131/7/2 132/7/2 135/7/2
f 135/7/2 132/7/2 136/7/2
f 133/6/2 134/6/2 137/6/2
f 136/6/2 137/6/2 138/6/2
f 137/6/2 134/6/2 139/6/2
f 138/6/2 137/6/2 139/6/2
f 140/6/2 141/6/2 143/6/2
f 142/4/2 143/4/2 144/4/2
f 143/6/2 141/6/2 145/6/2
f 144/4/2 143/4/2 145/4/2
f 145/6/2 141/6/2 146/6/2
f 146/6/2 141/6/2 147/6/2
f 145/6/2 146/6/2 148/6/2
f 148/6/2 146/6/2 149/6/2
f 150/6/2 151/6/2 152/6/2
f 152/6/2 151/6/2 153/6/2
f 156/4/3 155/4/3 154/4/3
f 157/4/3 155/4/3 156/4/3
f 162/4/3 159/4/3 158/4/3
f 163/4/3 159/4/3 162/4/3
f 165/4/3 161/4/3 160/4/3
f 166/1/3 162/1/3 161/1/3
f 166/4/3 161/4/3 165/4/3
f 167/1/3 162/1/3 166/1/3
f 168/7/3 164/7/3 163/7/3
f 169/7/3 164/7/3 168/7/3
f 172/5/3 171/5/3 170/5/3
f 173/5/3 171/5/3 172/5/3
f 176/4/3 175/4/3 174/4/3
f 177/4/3 175/4/3 176/4/3
f 180/6/3 179/6/3 178/6/3
f 182/6/3 180/6/3 178/6/3
f 182/6/3 181/6/3 180/6/3
f 183/6/3 181/6/3 182/6/3
f 184/6/3 181/6/3 183/6/3
f 185/6/3 181/6/3 184/6/3
f 186/6/3 181/6/3 185/6/3
f 191/2/3 188/2/3 187/2/3
f 195/2/3 191/2/3 190/2/3
f 196/2/3 188/2/3 191/2/3
f 196/2/3 191/2/3 195/2/3
f 197/5/3 193/5/3 192/5/3
f 198/3/3 194/3/3 193/3/3
f 198/5/3 193/5/3 197/5/3
f 199/3/3 194/3/3 198/3/3
f 200/3/3 194/3/3 199/3/3
f 203/2/3 188/2/3 196/2/3
f 204/1/3 189/1/3 188/1/3
f 204/2/3 188/2/3 203/2/3
f 205/1/3 189/1/3 204/1/3
f 206/3/3 199/3/3 198/3/3
f 207/4/3 200/4/3 199/4/3
f 207/3/3 199/3/3 206/3/3
f 208/1/3 201/1/3 200/1/3
f 208/4/3 200/4/3 207/4/3
f 209/1/3 201/1/3 208/1/3
f 210/7/3 203/7/3 202/7/3
f 211/7/3 203/7/3 210/7/3
f 212/4/3 210/4/3 209/4/3
f 213/4/3 210/4/3 212/4/3
f 219/6/3 215/6/3 214/6/3
f 221/3/3 218/3/3 217/3/3
f 223/6/3 220/6/3 219/6/3
f 223/6/3 219/6/3 214/6/3
f 224/6/3 220/6/3 223/6/3
f 225/6/3 220/6/3 224/6/3
f 226/6/3 220/6/3 225/6/3
f 227/8/3 217/8/3 216/8/3
f 227/3/3 221/3/3 217/3/3
f 228/3/3 221/3/3 227/3/3
f 229/3/3 223/3/3 222/3/3
f 229/3/3 224/3/3 223/3/3
f 230/5/3 225/5/3 224/5/3
f 230/3/3 224/3/3 229/3/3
f 231/5/3 225/5/3 230/5/3
f 232/8/3 228/8/3 227/8/3
f 232/8/3 227/8/3 216/8/3
f 233/8/3 228/8/3 232/8/3
f 234/3/3 221/3/3 228/3/3
f 234/8/3 228/8/3 233/8/3
f 235/5/3 222/5/3 221/5/3
f 235/3/3 221/3/3 234/3/3
f 236/3/3 229/3/3 222/3/3
f 236/5/3 222/5/3 235/5/3
f 237/5/3 230/5/3 229/5/3
f 237/3/3 229/3/3 236/3/3
f 238/5/3 230/5/3 237/5/3
f 242/5/3 237/5/3 236/5/3
f 242/5/3 236/5/3 235/5/3
f 243/5/3 237/5/3 242/5/3
f 244/3/3 239/3/3 238/3/3
f 244/5/3 237/5/3 243/5/3
f 244/3/3 238/3/3 237/3/3
f 245/3/3 239/3/3 244/3/3
f 248/8/3 241/8/3 240/8/3
f 249/8/3 241/8/3 248/8/3
f 254/6/3 246/6/3 245/6/3
f 255/6/3 246/6/3 254/6/3
f 256/6/3 252/6/3 251/6/3
f 256/6/3 248/6/3 247/6/3
f 256/6/3 249/6/3 248/6/3
f 256/6/3 250/6/3 249/6/3
f 256/6/3 251/6/3 250/6/3
f 257/6/3 252/6/3 256/6/3
f 258/6/3 254/6/3 253/6/3
f 259/6/3 254/6/3 258/6/3
f 260/6/3 256/6/3 247/6/3
f 261/6/3 256/6/3 260/6/3
f 264/8/3 263/8/3 262/8/3
f 265/8/3 263/8/3 264/8/3
f 266/4/4 267/4/4 270/4/4
f 270/4/4 267/4/4 271/4/4
f 268/4/4 269/4/4 273/4/4
f 273/4/4 269/4/4 274/4/4
f 270/4/4 271/4/4 275/4/4
f 271/7/4 272/7/4 276/7/4
f 275/4/4 271/4/4 276/4/4
f 276/7/4 272/7/4 277/7/4
f 278/2/4 279/2/4 281/2/4
f 279/1/4 280/1/4 282/1/4
f 281/2/4 279/2/4 282/2/4
f 282/1/4 280/1/4 283/1/4
f 284/6/4 285/6/4 286/6/4
f 286/6/4 285/6/4 287/6/4
f 284/6/4 286/6/4 288/6/4
f 288/6/4 286/6/4 289/6/4
f 289/6/4 286/6/4 290/6/4
f 289/6/4 290/6/4 292/6/4
f 290/6/4 291/6/4 292/6/4
f 292/6/4 291/6/4 293/6/4
f 294/6/4 295/6/4 298/6/4
f 298/6/4 295/6/4 299/6/4
f 296/6/4 297/6/4 302/6/4
f 302/6/4 297/6/4 303/6/4
f 300/6/4 301/6/4 304/6/4
f 304/6/4 301/6/4 305/6/4
f 306/6/4 307/6/4 308/6/4
f 308/6/4 307/6/4 309/6/4
f 314/6/5 313/6/5 312/6/5
f 315/6/5 313/6/5 314/6/5
f 316/5/5 311/5/5 310/5/5
f 317/5/5 311/5/5 316/5/5
f 320/8/5 315/8/5 314/8/5
f 320/8/5 316/8/5 315/8/5
f 320/8/5 317/8/5 316/8/5
f 321/6/5 319/6/5 318/6/5
f 322/6/5 319/6/5 321/6/5
f 323/8/5 320/8/5 314/8/5
f 323/6/5 314/6/5 312/6/5
f 323/8/5 322/8/5 321/8/5
f 323/8/5 321/8/5 320/8/5
f 324/8/5 322/8/5 323/8/5
f 325/6/5 323/6/5 312/6/5
f 325/6/5 324/6/5 323/6/5
f 326/6/5 324/6/5 325/6/5
f 327/8/5 322/8/5 324/8/5
f 327/6/5 324/6/5 326/6/5
f 328/6/5 319/6/5 322/6/5
f 328/8/5 322/8/5 327/8/5
f 329/6/5 327/6/5 326/6/5
f 329/6/5 328/6/5 327/6/5
f 330/6/5 319/6/5 328/6/5
f 330/6/5 328/6/5 329/6/5
f 333/8/5 332/8/5 331/8/5
f 334/8/5 332/8/5 333/8/5
f 337/3/5 336/3/5 335/3/5
f 338/3/5 336/3/5 337/3/5
f 341/4/5 340/4/5 339/4/5
f 342/4/5 340/4/5 341/4/5
f 345/1/5 344/1/5 343/1/5
f 346/1/5 344/1/5 345/1/5
f 347/1/5 344/1/5 346/1/5
f 351/4/5 349/4/5 348/4/5
f 352/4/5 349/4/5 351/4/5
f 353/4/5 351/4/5 350/4/5
f 354/4/5 351/4/5 353/4/5
f 357/4/5 356/4/5 355/4/5
f 358/4/5 356/4/5 357/4/5
f 360/4/5 359/4/5 358/4/5
f 361/4/5 359/4/5 360/4/5
f 364/2/5 363/2/5 362/2/5
f 365/2/5 363/2/5 364/2/5
f 368/6/5 367/6/5 366/6/5
f 369/6/5 367/6/5 368/6/5
f 374/2/5 371/2/5 370/2/5
f 375/2/5 371/2/5 374/2/5
f 376/2/5 373/2/5 372/2/5
f 377/2/5 373/2/5 376/2/5
f 378/5/6 379/5/6 382/5/6
f 382/5/6 379/5/6 383/5/6
f 380/6/6 381/6/6 386/6/6
f 380/6/6 386/6/6 388/6/6
f 386/6/6 387/6/6 388/6/6
f 388/6/6 387/6/6 389/6/6
f 389/6/6 387/6/6 390/6/6
f 384/6/6 385/6/6 391/6/6
f 389/6/6 390/6/6 392/6/6
f 390/6/6 391/6/6 392/6/6
f 391/6/6 385/6/6 393/6/6
f 392/6/6 391/6/6 393/6/6
f 394/3/6 395/3/6 396/3/6
f 396/3/6 395/3/6 397/3/6
f 398/1/6 399/1/6 400/1/6
f 400/1/6 399/1/6 401/1/6
f 402/4/6 403/4/6 405/4/6
f 405/4/6 403/4/6 406/4/6
f 404/4/6 405/4/6 407/4/6
f 407/4/6 405/4/6 408/4/6
f 409/4/6 410/4/6 413/4/6
f 413/4/6 410/4/6 414/4/6
f 411/6/6 412/6/6 416/6/6
f 416/6/6 412/6/6 417/6/6
f 414/4/6 415/4/6 418/4/6
f 418/4/6 415/4/6 419/4/6
f 420/6/6 421/6/6 422/6/6
f 422/6/6 421/6/6 423/6/6
f 424/7/6 425/7/6 426/7/6
f 426/7/6 425/7/6 427/7/6
f 428/7/6 429/7/6 432/7/6
f 432/7/6 429/7/6 433/7/6
f 430/6/6 431/6/6 435/6/6
f 435/6/6 431/6/6 436/6/6
f 433/6/6 434/6/6 437/6/6
f 437/6/6 434/6/6 438/6/6
f 439/6/6 440/6/6 443/6/6
f 441/6/6 442/6/6 444/6/6
f 439/6/6 443/6/6 445/6/6
f 443/8/6 444/8/6 445/8/6
f 444/6/6 442/6/6 446/6/6
f 445/8/6 444/8/6 446/8/6
f 439/6/6 445/6/6 447/6/6
f 445/6/6 446/6/6 447/6/6
f 446/6/6 442/6/6 448/6/6
f 447/6/6 446/6/6 448/6/6
f 449/1/6 450/1/6 451/1/6
f 451/1/6 450/1/6 452/1/6
