# MagicaVoxel @ Ephtracy

# group
o 

# material
mtllib rogue_walk_0.mtl
usemtl palette

# normals
vn -1 0 0
vn 1 0 0
vn 0 0 1
vn 0 0 -1
vn 0 -1 0
vn 0 1 0

# texcoords
vt 0.732422 0.5
vt 0.751953 0.5
vt 0.783203 0.5
vt 0.787109 0.5
vt 0.814453 0.5
vt 0.818359 0.5
vt 0.880859 0.5
vt 0.970703 0.5

# verts
v -0.4 0 0
v -0.4 0 -0.4
v -0.4 0.1 0
v -0.4 0.1 -0.4
v -0.3 0.1 0
v -0.3 0.1 -0.3
v -0.3 0.5 0.1
v -0.3 0.5 0
v -0.3 0.6 0.1
v -0.3 0.6 0
v -0.3 0.6 -0.2
v -0.3 0.6 -0.3
v -0.3 0.8 0
v -0.3 0.8 -0.2
v -0.2 0.2 0.1
v -0.2 0.2 0
v -0.2 0.3 0.1
v -0.2 0.3 0
v -0.2 0.4 0.1
v -0.2 0.4 0
v -0.2 0.5 0.2
v -0.2 0.5 0.1
v -0.2 0.5 0
v -0.2 0.6 0.2
v -0.2 0.6 0.1
v -0.2 0.6 0
v -0.2 0.7 -0.2
v -0.2 0.7 -0.3
v -0.2 0.8 0.1
v -0.2 0.8 0
v -0.2 0.8 -0.2
v -0.2 0.9 0
v -0.2 0.9 -0.3
v -0.1 0 0.2
v -0.1 0 0
v -0.1 0.1 0.2
v -0.1 0.1 0.1
v -0.1 0.2 0.1
v -0.1 0.2 0
v -0.1 0.8 0.1
v -0.1 0.8 0
v -0.1 0.9 0
v -0.1 0.9 -0.1
v -0.1 1 0.1
v -0.1 1 -0.1
v -0.1 1.1 0.1
v -0.1 1.1 -0.1
v 0 0.7 0.1
v 0 0.7 0
v 0 0.8 0.1
v 0 0.8 0
v 0.2 0.3 0.3
v 0.2 0.3 0.2
v 0.2 0.4 0.3
v 0.2 0.4 0.2
v 0.2 0.4 0
v 0.2 0.5 0.4
v 0.2 0.5 0.3
v 0.2 0.5 0.2
v 0.2 0.5 0.1
v 0.2 0.5 0
v 0.2 0.6 0.4
v 0.2 0.6 0.3
v 0.2 0.6 0.2
v 0.2 0.6 0.1
v 0.2 0.6 0
v 0.2 0.8 0.3
v 0.2 0.8 0.2
v 0.3 0 0.1
v 0.3 0 0
v 0.3 0.2 0
v 0.3 0.4 0.1
v 0.3 0.4 0
v -0.1 0.1 -0.2
v -0.1 0.1 -0.3
v -0.1 0.4 0.1
v -0.1 0.4 0
v -0.1 0.5 0.2
v -0.1 0.5 0.1
v -0.1 0.5 0
v -0.1 0.6 0.2
v -0.1 0.6 0.1
v -0.1 0.6 0
v -0.1 0.6 -0.2
v -0.1 0.6 -0.3
v -0.1 0.8 0.1
v -0.1 0.8 0
v 0 0 0.2
v 0 0 0
v 0 0 -0.3
v 0 0 -0.4
v 0 0.1 0.2
v 0 0.1 0.1
v 0 0.1 -0.3
v 0 0.1 -0.4
v 0 0.2 0.1
v 0 0.2 0
v 0 0.3 0
v 0 0.4 0.1
v 0 0.4 0
v 0.1 0.7 0.1
v 0.1 0.7 0
v 0.1 0.8 0.1
v 0.1 0.8 0
v 0.2 0.8 0.1
v 0.2 0.8 0
v 0.2 0.9 0
v 0.2 0.9 -0.1
v 0.2 1 0.1
v 0.2 1 -0.1
v 0.2 1.1 0.1
v 0.2 1.1 -0.1
v 0.3 0.3 0.3
v 0.3 0.3 0.2
v 0.3 0.4 0.3
v 0.3 0.4 0.2
v 0.3 0.4 0.1
v 0.3 0.5 0.4
v 0.3 0.5 0.3
v 0.3 0.5 0.2
v 0.3 0.5 0.1
v 0.3 0.6 0.4
v 0.3 0.6 0.3
v 0.3 0.6 0.2
v 0.3 0.7 -0.2
v 0.3 0.7 -0.3
v 0.3 0.8 0.3
v 0.3 0.8 0.2
v 0.3 0.8 0
v 0.3 0.8 -0.2
v 0.3 0.9 0
v 0.3 0.9 -0.3
v 0.4 0.1 0.1
v 0.4 0.1 -0.2
v 0.4 0.5 0.3
v 0.4 0.5 0.2
v 0.4 0.6 0.3
v 0.4 0.6 0.2
v 0.4 0.6 0.1
v 0.4 0.6 0
v 0.4 0.8 0
v 0.4 0.8 -0.2
v 0.5 0 0.1
v 0.5 0 -0.3
v 0.5 0.1 0.1
v 0.5 0.1 -0.3
v 0.2 0.5 0.4
v 0.2 0.6 0.4
v 0.3 0.5 0.4
v 0.3 0.6 0.4
v 0.2 0.3 0.3
v 0.2 0.4 0.3
v 0.2 0.5 0.3
v 0.2 0.6 0.3
v 0.2 0.8 0.3
v 0.3 0.3 0.3
v 0.3 0.4 0.3
v 0.3 0.5 0.3
v 0.3 0.6 0.3
v 0.3 0.8 0.3
v 0.4 0.5 0.3
v 0.4 0.6 0.3
v -0.2 0.5 0.2
v -0.2 0.6 0.2
v -0.1 0 0.2
v -0.1 0.1 0.2
v -0.1 0.5 0.2
v -0.1 0.6 0.2
v 0 0 0.2
v 0 0.1 0.2
v -0.3 0.5 0.1
v -0.3 0.6 0.1
v -0.2 0.2 0.1
v -0.2 0.3 0.1
v -0.2 0.4 0.1
v -0.2 0.5 0.1
v -0.2 0.6 0.1
v -0.2 0.8 0.1
v -0.1 0.1 0.1
v -0.1 0.2 0.1
v -0.1 0.3 0.1
v -0.1 0.4 0.1
v -0.1 0.5 0.1
v -0.1 0.6 0.1
v -0.1 0.8 0.1
v -0.1 1 0.1
v -0.1 1.1 0.1
v 0 0.1 0.1
v 0 0.2 0.1
v 0 0.4 0.1
v 0 0.7 0.1
v 0 0.8 0.1
v 0.1 0.7 0.1
v 0.1 0.8 0.1
v 0.2 0.5 0.1
v 0.2 0.6 0.1
v 0.2 0.8 0.1
v 0.2 1 0.1
v 0.2 1.1 0.1
v 0.3 0 0.1
v 0.3 0.4 0.1
v 0.3 0.5 0.1
v 0.4 0.1 0.1
v 0.4 0.6 0.1
v 0.5 0 0.1
v 0.5 0.1 0.1
v -0.4 0 0
v -0.4 0.1 0
v -0.3 0.1 0
v -0.3 0.5 0
v -0.3 0.6 0
v -0.3 0.8 0
v -0.2 0 0
v -0.2 0.2 0
v -0.2 0.3 0
v -0.2 0.4 0
v -0.2 0.5 0
v -0.2 0.6 0
v -0.2 0.8 0
v -0.2 0.9 0
v -0.1 0 0
v -0.1 0.2 0
v -0.1 0.4 0
v -0.1 0.5 0
v -0.1 0.6 0
v -0.1 0.8 0
v -0.1 0.9 0
v 0 0 0
v 0 0.2 0
v 0 0.3 0
v 0 0.4 0
v 0 0.5 0
v 0 0.6 0
v 0 0.7 0
v 0 0.8 0
v 0.1 0.2 0
v 0.1 0.3 0
v 0.1 0.6 0
v 0.1 0.7 0
v 0.1 0.8 0
v 0.2 0.4 0
v 0.2 0.5 0
v 0.2 0.6 0
v 0.2 0.7 0
v 0.2 0.8 0
v 0.2 0.9 0
v 0.3 0 0
v 0.3 0.2 0
v 0.3 0.4 0
v 0.3 0.8 0
v 0.3 0.9 0
v 0.4 0.6 0
v 0.4 0.8 0
v 0.2 0.3 0.2
v 0.2 0.4 0.2
v 0.2 0.5 0.2
v 0.2 0.6 0.2
v 0.2 0.8 0.2
v 0.3 0.3 0.2
v 0.3 0.4 0.2
v 0.3 0.5 0.2
v 0.3 0.6 0.2
v 0.3 0.8 0.2
v 0.4 0.5 0.2
v 0.4 0.6 0.2
v -0.1 0.9 -0.1
v -0.1 1 -0.1
v -0.1 1.1 -0.1
v 0.2 0.9 -0.1
v 0.2 1 -0.1
v 0.2 1.1 -0.1
v -0.3 0.6 -0.2
v -0.3 0.8 -0.2
v -0.2 0.7 -0.2
v -0.2 0.8 -0.2
v -0.1 0.1 -0.2
v -0.1 0.6 -0.2
v 0.3 0.7 -0.2
v 0.3 0.8 -0.2
v 0.4 0.1 -0.2
v 0.4 0.8 -0.2
v -0.3 0.1 -0.3
v -0.3 0.6 -0.3
v -0.2 0.7 -0.3
v -0.2 0.9 -0.3
v -0.1 0.1 -0.3
v -0.1 0.6 -0.3
v 0 0 -0.3
v 0 0.1 -0.3
v 0.3 0.7 -0.3
v 0.3 0.9 -0.3
v 0.5 0 -0.3
v 0.5 0.1 -0.3
v -0.4 0 -0.4
v -0.4 0.1 -0.4
v 0 0 -0.4
v 0 0.1 -0.4
v -0.1 0 0.2
v 0 0 0.2
v 0.3 0 0.1
v 0.5 0 0.1
v -0.4 0 0
v -0.2 0 0
v -0.1 0 0
v 0 0 0
v 0.3 0 0
v 0.4 0 0
v -0.3 0 -0.1
v -0.2 0 -0.1
v -0.1 0 -0.2
v 0.4 0 -0.2
v -0.3 0 -0.3
v -0.1 0 -0.3
v 0 0 -0.3
v 0.5 0 -0.3
v -0.4 0 -0.4
v 0 0 -0.4
v -0.2 0.2 0.1
v -0.1 0.2 0.1
v -0.2 0.2 0
v -0.1 0.2 0
v 0.2 0.3 0.3
v 0.3 0.3 0.3
v 0.2 0.3 0.2
v 0.3 0.3 0.2
v 0.2 0.4 0.2
v 0.3 0.4 0.2
v 0.3 0.4 0.1
v 0.2 0.4 0
v 0.3 0.4 0
v 0.2 0.5 0.4
v 0.3 0.5 0.4
v 0.2 0.5 0.3
v 0.3 0.5 0.3
v 0.4 0.5 0.3
v -0.2 0.5 0.2
v -0.1 0.5 0.2
v 0.3 0.5 0.2
v 0.4 0.5 0.2
v -0.3 0.5 0.1
v -0.2 0.5 0.1
v -0.1 0.5 0.1
v -0.3 0.5 0
v -0.2 0.5 0
v 0 0.7 0.1
v 0.1 0.7 0.1
v 0 0.7 0
v 0.1 0.7 0
v -0.2 0.7 -0.2
v 0.3 0.7 -0.2
v -0.2 0.7 -0.3
v 0.3 0.7 -0.3
v -0.1 0.8 0.1
v 0 0.8 0.1
v 0.1 0.8 0.1
v 0.2 0.8 0.1
v -0.1 0.8 0
v 0 0.8 0
v 0.1 0.8 0
v 0.2 0.8 0
v -0.1 0.1 0.2
v 0 0.1 0.2
v -0.1 0.1 0.1
v 0 0.1 0.1
v 0.4 0.1 0.1
v 0.5 0.1 0.1
v -0.4 0.1 0
v -0.3 0.1 0
v -0.1 0.1 -0.2
v 0.4 0.1 -0.2
v -0.3 0.1 -0.3
v -0.1 0.1 -0.3
v 0 0.1 -0.3
v 0.5 0.1 -0.3
v -0.4 0.1 -0.4
v 0 0.1 -0.4
v -0.1 0.4 0.1
v 0 0.4 0.1
v -0.1 0.4 0
v 0 0.4 0
v 0.2 0.5 0.2
v 0.3 0.5 0.2
v 0.2 0.5 0.1
v 0.3 0.5 0.1
v 0.2 0.6 0.4
v 0.3 0.6 0.4
v 0.2 0.6 0.3
v 0.3 0.6 0.3
v 0.4 0.6 0.3
v -0.2 0.6 0.2
v -0.1 0.6 0.2
v 0.3 0.6 0.2
v 0.4 0.6 0.2
v -0.3 0.6 0.1
v -0.2 0.6 0.1
v -0.1 0.6 0.1
v 0.2 0.6 0.1
v 0.4 0.6 0.1
v -0.3 0.6 0
v -0.2 0.6 0
v 0.2 0.6 0
v 0.4 0.6 0
v -0.3 0.6 -0.2
v -0.1 0.6 -0.2
v -0.3 0.6 -0.3
v -0.1 0.6 -0.3
v 0.2 0.8 0.3
v 0.3 0.8 0.3
v 0.2 0.8 0.2
v 0.3 0.8 0.2
v -0.2 0.8 0.1
v -0.1 0.8 0.1
v -0.3 0.8 0
v -0.2 0.8 0
v -0.1 0.8 0
v 0.3 0.8 0
v 0.4 0.8 0
v -0.3 0.8 -0.2
v -0.2 0.8 -0.2
v 0.3 0.8 -0.2
v 0.4 0.8 -0.2
v -0.2 0.9 0
v -0.1 0.9 0
v 0.2 0.9 0
v 0.3 0.9 0
v -0.1 0.9 -0.1
v 0.2 0.9 -0.1
v -0.1 0.9 -0.2
v 0.2 0.9 -0.2
v -0.2 0.9 -0.3
v 0.3 0.9 -0.3
v -0.1 1.1 0.1
v 0.2 1.1 0.1
v -0.1 1.1 -0.1
v 0.2 1.1 -0.1

# faces
f 3/6/1 2/6/1 1/6/1
f 4/6/1 2/6/1 3/6/1
f 8/6/1 6/6/1 5/6/1
f 9/4/1 8/4/1 7/4/1
f 10/6/1 6/6/1 8/6/1
f 10/4/1 8/4/1 9/4/1
f 11/6/1 6/6/1 10/6/1
f 12/6/1 6/6/1 11/6/1
f 13/6/1 11/6/1 10/6/1
f 14/6/1 11/6/1 13/6/1
f 17/3/1 16/3/1 15/3/1
f 18/3/1 16/3/1 17/3/1
f 19/4/1 18/4/1 17/4/1
f 20/4/1 18/4/1 19/4/1
f 22/1/1 20/1/1 19/1/1
f 23/1/1 20/1/1 22/1/1
f 24/4/1 22/4/1 21/4/1
f 25/4/1 22/4/1 24/4/1
f 29/7/1 26/7/1 25/7/1
f 30/7/1 26/7/1 29/7/1
f 31/6/1 28/6/1 27/6/1
f 32/6/1 31/6/1 30/6/1
f 33/6/1 28/6/1 31/6/1
f 33/6/1 31/6/1 32/6/1
f 36/5/1 35/5/1 34/5/1
f 37/5/1 35/5/1 36/5/1
f 38/5/1 35/5/1 37/5/1
f 39/5/1 35/5/1 38/5/1
f 42/2/1 41/2/1 40/2/1
f 44/2/1 42/2/1 40/2/1
f 44/2/1 43/2/1 42/2/1
f 45/2/1 43/2/1 44/2/1
f 46/1/1 45/1/1 44/1/1
f 47/1/1 45/1/1 46/1/1
f 50/2/1 49/2/1 48/2/1
f 51/2/1 49/2/1 50/2/1
f 54/4/1 53/4/1 52/4/1
f 55/4/1 53/4/1 54/4/1
f 58/1/1 55/1/1 54/1/1
f 58/1/1 56/1/1 55/1/1
f 59/1/1 56/1/1 58/1/1
f 60/1/1 56/1/1 59/1/1
f 61/1/1 56/1/1 60/1/1
f 62/4/1 58/4/1 57/4/1
f 62/4/1 59/4/1 58/4/1
f 63/4/1 59/4/1 62/4/1
f 64/4/1 59/4/1 63/4/1
f 65/6/1 61/6/1 60/6/1
f 66/6/1 61/6/1 65/6/1
f 67/7/1 64/7/1 63/7/1
f 68/7/1 64/7/1 67/7/1
f 71/6/1 70/6/1 69/6/1
f 72/6/1 71/6/1 69/6/1
f 73/6/1 71/6/1 72/6/1
f 76/1/2 77/1/2 79/1/2
f 79/1/2 77/1/2 80/1/2
f 78/4/2 79/4/2 81/4/2
f 79/4/2 80/4/2 81/4/2
f 81/4/2 80/4/2 82/4/2
f 82/4/2 80/4/2 83/4/2
f 74/6/2 75/6/2 84/6/2
f 84/6/2 75/6/2 85/6/2
f 82/7/2 83/7/2 86/7/2
f 86/7/2 83/7/2 87/7/2
f 88/5/2 89/5/2 92/5/2
f 92/5/2 89/5/2 93/5/2
f 90/6/2 91/6/2 94/6/2
f 94/6/2 91/6/2 95/6/2
f 93/5/2 89/5/2 96/5/2
f 96/5/2 89/5/2 97/5/2
f 96/3/2 97/3/2 98/3/2
f 96/3/2 98/3/2 99/3/2
f 99/3/2 98/3/2 100/3/2
f 101/2/2 102/2/2 103/2/2
f 103/2/2 102/2/2 104/2/2
f 105/2/2 106/2/2 107/2/2
f 105/2/2 107/2/2 109/2/2
f 107/2/2 108/2/2 109/2/2
f 109/2/2 108/2/2 110/2/2
f 109/1/2 110/1/2 111/1/2
f 111/1/2 110/1/2 112/1/2
f 113/4/2 114/4/2 115/4/2
f 115/4/2 114/4/2 116/4/2
f 115/1/2 116/1/2 119/1/2
f 116/1/2 117/1/2 119/1/2
f 119/1/2 117/1/2 120/1/2
f 120/1/2 117/1/2 121/1/2
f 118/4/2 119/4/2 122/4/2
f 122/4/2 119/4/2 123/4/2
f 123/7/2 124/7/2 127/7/2
f 127/7/2 124/7/2 128/7/2
f 125/6/2 126/6/2 130/6/2
f 129/6/2 130/6/2 131/6/2
f 130/6/2 126/6/2 132/6/2
f 131/6/2 130/6/2 132/6/2
f 135/4/2 136/4/2 137/4/2
f 137/4/2 136/4/2 138/4/2
f 133/6/2 134/6/2 139/6/2
f 139/6/2 134/6/2 140/6/2
f 140/6/2 134/6/2 141/6/2
f 141/6/2 134/6/2 142/6/2
f 143/6/2 144/6/2 145/6/2
f 145/6/2 144/6/2 146/6/2
f 149/4/3 148/4/3 147/4/3
f 150/4/3 148/4/3 149/4/3
f 156/4/3 152/4/3 151/4/3
f 157/1/3 153/1/3 152/1/3
f 157/4/3 152/4/3 156/4/3
f 158/1/3 153/1/3 157/1/3
f 159/7/3 155/7/3 154/7/3
f 160/7/3 155/7/3 159/7/3
f 161/4/3 159/4/3 158/4/3
f 162/4/3 159/4/3 161/4/3
f 167/4/3 164/4/3 163/4/3
f 168/4/3 164/4/3 167/4/3
f 169/5/3 166/5/3 165/5/3
f 170/5/3 166/5/3 169/5/3
f 176/4/3 172/4/3 171/4/3
f 177/4/3 172/4/3 176/4/3
f 180/3/3 174/3/3 173/3/3
f 181/4/3 175/4/3 174/4/3
f 181/3/3 174/3/3 180/3/3
f 182/1/3 176/1/3 175/1/3
f 182/4/3 175/4/3 181/4/3
f 183/1/3 176/1/3 182/1/3
f 184/7/3 178/7/3 177/7/3
f 185/7/3 178/7/3 184/7/3
f 188/5/3 180/5/3 179/5/3
f 189/3/3 181/3/3 180/3/3
f 189/5/3 180/5/3 188/5/3
f 189/3/3 182/3/3 181/3/3
f 190/3/3 182/3/3 189/3/3
f 192/2/3 186/2/3 185/2/3
f 193/2/3 192/2/3 191/2/3
f 194/2/3 186/2/3 192/2/3
f 194/2/3 192/2/3 193/2/3
f 197/2/3 186/2/3 194/2/3
f 198/1/3 187/1/3 186/1/3
f 198/2/3 186/2/3 197/2/3
f 199/1/3 187/1/3 198/1/3
f 202/6/3 196/6/3 195/6/3
f 203/6/3 201/6/3 200/6/3
f 203/6/3 202/6/3 201/6/3
f 204/6/3 196/6/3 202/6/3
f 204/6/3 202/6/3 203/6/3
f 205/6/3 203/6/3 200/6/3
f 206/6/3 203/6/3 205/6/3
f 209/6/3 208/6/3 207/6/3
f 213/6/3 209/6/3 207/6/3
f 213/6/3 210/6/3 209/6/3
f 214/6/3 210/6/3 213/6/3
f 215/6/3 210/6/3 214/6/3
f 216/6/3 210/6/3 215/6/3
f 217/6/3 210/6/3 216/6/3
f 218/6/3 212/6/3 211/6/3
f 219/6/3 212/6/3 218/6/3
f 221/8/3 214/8/3 213/8/3
f 222/8/3 214/8/3 221/8/3
f 226/6/3 220/6/3 219/6/3
f 227/6/3 220/6/3 226/6/3
f 231/5/3 225/5/3 224/5/3
f 231/5/3 224/5/3 223/5/3
f 232/5/3 225/5/3 231/5/3
f 233/3/3 226/3/3 225/3/3
f 233/5/3 225/5/3 232/5/3
f 234/3/3 226/3/3 233/3/3
f 235/3/3 226/3/3 234/3/3
f 236/8/3 230/8/3 229/8/3
f 236/8/3 229/8/3 228/8/3
f 237/3/3 231/3/3 230/3/3
f 237/8/3 230/8/3 236/8/3
f 238/5/3 234/5/3 233/5/3
f 238/3/3 233/3/3 232/3/3
f 239/5/3 234/5/3 238/5/3
f 241/3/3 231/3/3 237/3/3
f 241/5/3 232/5/3 231/5/3
f 241/3/3 237/3/3 236/3/3
f 242/3/3 239/3/3 238/3/3
f 242/5/3 232/5/3 241/5/3
f 242/3/3 238/3/3 232/3/3
f 243/3/3 239/3/3 242/3/3
f 244/5/3 240/5/3 239/5/3
f 244/3/3 239/3/3 243/3/3
f 245/5/3 240/5/3 244/5/3
f 247/8/3 236/8/3 228/8/3
f 248/3/3 241/3/3 236/3/3
f 248/8/3 236/8/3 247/8/3
f 249/3/3 241/3/3 248/3/3
f 250/6/3 245/6/3 244/6/3
f 250/6/3 246/6/3 245/6/3
f 250/6/3 244/6/3 243/6/3
f 251/6/3 246/6/3 250/6/3
f 252/6/3 250/6/3 243/6/3
f 253/6/3 250/6/3 252/6/3
f 254/4/4 255/4/4 259/4/4
f 259/4/4 255/4/4 260/4/4
f 256/4/4 257/4/4 261/4/4
f 257/7/4 258/7/4 262/7/4
f 261/4/4 257/4/4 262/4/4
f 262/7/4 258/7/4 263/7/4
f 261/4/4 262/4/4 264/4/4
f 264/4/4 262/4/4 265/4/4
f 266/2/4 267/2/4 269/2/4
f 267/1/4 268/1/4 270/1/4
f 269/2/4 267/2/4 270/2/4
f 270/1/4 268/1/4 271/1/4
f 272/6/4 273/6/4 274/6/4
f 274/6/4 273/6/4 275/6/4
f 272/6/4 274/6/4 277/6/4
f 277/6/4 274/6/4 278/6/4
f 276/6/4 277/6/4 278/6/4
f 276/6/4 278/6/4 280/6/4
f 278/6/4 279/6/4 280/6/4
f 280/6/4 279/6/4 281/6/4
f 282/6/4 283/6/4 286/6/4
f 286/6/4 283/6/4 287/6/4
f 284/6/4 285/6/4 290/6/4
f 290/6/4 285/6/4 291/6/4
f 288/6/4 289/6/4 292/6/4
f 292/6/4 289/6/4 293/6/4
f 294/6/4 295/6/4 296/6/4
f 296/6/4 295/6/4 297/6/4
f 304/5/5 299/5/5 298/5/5
f 305/5/5 299/5/5 304/5/5
f 306/6/5 301/6/5 300/6/5
f 307/6/5 301/6/5 306/6/5
f 308/6/5 303/6/5 302/6/5
f 309/8/5 305/8/5 304/8/5
f 309/6/5 303/6/5 308/6/5
f 309/8/5 304/8/5 303/8/5
f 309/8/5 307/8/5 306/8/5
f 309/8/5 306/8/5 305/8/5
f 310/8/5 309/8/5 308/8/5
f 310/8/5 307/8/5 309/8/5
f 311/6/5 301/6/5 307/6/5
f 311/8/5 307/8/5 310/8/5
f 312/8/5 310/8/5 308/8/5
f 312/6/5 308/6/5 302/6/5
f 313/6/5 311/6/5 310/6/5
f 313/8/5 310/8/5 312/8/5
f 314/6/5 311/6/5 313/6/5
f 315/6/5 301/6/5 311/6/5
f 315/6/5 311/6/5 314/6/5
f 316/6/5 314/6/5 313/6/5
f 316/6/5 312/6/5 302/6/5
f 316/6/5 313/6/5 312/6/5
f 317/6/5 314/6/5 316/6/5
f 320/3/5 319/3/5 318/3/5
f 321/3/5 319/3/5 320/3/5
f 324/4/5 323/4/5 322/4/5
f 325/4/5 323/4/5 324/4/5
f 328/1/5 327/1/5 326/1/5
f 329/1/5 328/1/5 326/1/5
f 330/1/5 328/1/5 329/1/5
f 333/4/5 332/4/5 331/4/5
f 334/4/5 332/4/5 333/4/5
f 338/4/5 335/4/5 334/4/5
f 339/4/5 335/4/5 338/4/5
f 341/4/5 337/4/5 336/4/5
f 342/4/5 337/4/5 341/4/5
f 343/4/5 341/4/5 340/4/5
f 344/4/5 341/4/5 343/4/5
f 347/2/5 346/2/5 345/2/5
f 348/2/5 346/2/5 347/2/5
f 351/6/5 350/6/5 349/6/5
f 352/6/5 350/6/5 351/6/5
f 357/2/5 354/2/5 353/2/5
f 358/2/5 354/2/5 357/2/5
f 359/2/5 356/2/5 355/2/5
f 360/2/5 356/2/5 359/2/5
f 361/5/6 362/5/6 363/5/6
f 363/5/6 362/5/6 364/5/6
f 365/6/6 366/6/6 370/6/6
f 367/6/6 368/6/6 371/6/6
f 369/6/6 370/6/6 372/6/6
f 372/6/6 370/6/6 373/6/6
f 370/6/6 366/6/6 374/6/6
f 373/6/6 370/6/6 374/6/6
f 367/6/6 371/6/6 375/6/6
f 372/6/6 373/6/6 375/6/6
f 371/6/6 372/6/6 375/6/6
f 375/6/6 373/6/6 376/6/6
f 377/3/6 378/3/6 379/3/6
f 379/3/6 378/3/6 380/3/6
f 381/1/6 382/1/6 383/1/6
f 383/1/6 382/1/6 384/1/6
f 385/4/6 386/4/6 387/4/6
f 387/4/6 386/4/6 388/4/6
f 388/4/6 389/4/6 392/4/6
f 392/4/6 389/4/6 393/4/6
f 390/4/6 391/4/6 395/4/6
f 395/4/6 391/4/6 396/4/6
f 394/4/6 395/4/6 399/4/6
f 399/4/6 395/4/6 400/4/6
f 397/6/6 398/6/6 401/6/6
f 401/6/6 398/6/6 402/6/6
f 403/6/6 404/6/6 405/6/6
f 405/6/6 404/6/6 406/6/6
f 407/7/6 408/7/6 409/7/6
f 409/7/6 408/7/6 410/7/6
f 411/7/6 412/7/6 414/7/6
f 414/7/6 412/7/6 415/7/6
f 413/6/6 414/6/6 418/6/6
f 418/6/6 414/6/6 419/6/6
f 416/6/6 417/6/6 420/6/6
f 420/6/6 417/6/6 421/6/6
f 422/6/6 423/6/6 426/6/6
f 424/6/6 425/6/6 427/6/6
f 422/6/6 426/6/6 428/6/6
f 426/8/6 427/8/6 428/8/6
f 427/6/6 425/6/6 429/6/6
f 428/8/6 427/8/6 429/8/6
f 422/6/6 428/6/6 430/6/6
f 428/6/6 429/6/6 430/6/6
f 429/6/6 425/6/6 431/6/6
f 430/6/6 429/6/6 431/6/6
f 432/1/6 433/1/6 434/1/6
f 434/1/6 433/1/6 435/1/6
