# MagicaVoxel @ Ephtracy

# group
o 

# material
mtllib archer_action_0.mtl
usemtl palette

# normals
vn -1 0 0
vn 1 0 0
vn 0 0 1
vn 0 0 -1
vn 0 -1 0
vn 0 1 0

# texcoords
vt 0.732422 0.5
vt 0.783203 0.5
vt 0.791016 0.5
vt 0.814453 0.5
vt 0.826172 0.5
vt 0.939453 0.5
vt 0.947266 0.5
vt 0.970703 0.5

# verts
v -0.3 0.6 -0.2
v -0.3 0.6 -0.3
v -0.3 0.7 -0.2
v -0.3 0.7 -0.3
v -0.2 0.5 -0.2
v -0.2 0.5 -0.3
v -0.2 0.5 -0.6
v -0.2 0.6 0.1
v -0.2 0.6 -5.96046e-08
v -0.2 0.6 -0.2
v -0.2 0.6 -0.3
v -0.2 0.7 0.1
v -0.2 0.7 -5.96046e-08
v -0.2 0.7 -0.2
v -0.2 0.7 -0.3
v -0.2 0.8 -0.2
v -0.2 0.8 -0.3
v -0.2 0.8 -0.6
v -0.1 0 0.1
v -0.1 0 -5.96046e-08
v -0.1 0 -0.2
v -0.1 0 -0.3
v -0.1 0 -0.6
v -0.1 0.1 0.3
v -0.1 0.1 0.2
v -0.1 0.1 0.1
v -0.1 0.1 -5.96046e-08
v -0.1 0.1 -0.2
v -0.1 0.1 -0.3
v -0.1 0.1 -0.5
v -0.1 0.1 -0.6
v -0.1 0.2 0.4
v -0.1 0.2 0.3
v -0.1 0.2 0.2
v -0.1 0.2 0.1
v -0.1 0.3 0.5
v -0.1 0.3 0.4
v -0.1 0.3 0.3
v -0.1 0.3 0.2
v -0.1 0.3 0.1
v -0.1 0.3 -5.96046e-08
v -0.1 0.4 0.1
v -0.1 0.4 -5.96046e-08
v -0.1 0.4 -0.1
v -0.1 0.5 -5.96046e-08
v -0.1 0.5 -0.1
v -0.1 0.5 -0.2
v -0.1 0.5 -0.3
v -0.1 0.5 -0.5
v -0.1 0.6 0.5
v -0.1 0.6 0.4
v -0.1 0.6 -0.1
v -0.1 0.6 -0.2
v -0.1 0.7 0.5
v -0.1 0.7 0.4
v -0.1 0.7 -0.1
v -0.1 0.7 -0.2
v -0.1 0.8 -5.96046e-08
v -0.1 0.8 -0.1
v -0.1 0.8 -0.2
v -0.1 0.9 0.1
v -0.1 0.9 -5.96046e-08
v -0.1 0.9 -0.1
v -0.1 1 0.5
v -0.1 1 0.4
v -0.1 1 0.3
v -0.1 1 0.2
v -0.1 1 0.1
v -0.1 1 -5.96046e-08
v -0.1 1.1 0.4
v -0.1 1.1 0.3
v -0.1 1.1 0.2
v -0.1 1.1 0.1
v -0.1 1.2 0.3
v -0.1 1.2 0.2
v 2.98023e-08 0.1 0.1
v 2.98023e-08 0.1 -5.96046e-08
v 2.98023e-08 0.1 -0.2
v 2.98023e-08 0.1 -0.3
v 2.98023e-08 0.2 0.1
v 2.98023e-08 0.2 -5.96046e-08
v 2.98023e-08 0.2 -0.1
v 2.98023e-08 0.2 -0.2
v 2.98023e-08 0.2 -0.3
v 2.98023e-08 0.3 0.1
v 2.98023e-08 0.3 -5.96046e-08
v 2.98023e-08 0.3 -0.1
v 2.98023e-08 0.3 -0.2
v 2.98023e-08 0.4 0.1
v 2.98023e-08 0.4 -5.96046e-08
v 2.98023e-08 0.4 -0.1
v 2.98023e-08 0.4 -0.3
v 2.98023e-08 0.5 0.1
v 2.98023e-08 0.5 -5.96046e-08
v 2.98023e-08 0.5 -0.1
v 2.98023e-08 0.5 -0.2
v 2.98023e-08 0.5 -0.3
v 2.98023e-08 0.6 0.4
v 2.98023e-08 0.6 0.1
v 2.98023e-08 0.6 -5.96046e-08
v 2.98023e-08 0.6 -0.1
v 2.98023e-08 0.6 -0.2
v 2.98023e-08 0.6 -0.3
v 2.98023e-08 0.7 0.4
v 2.98023e-08 0.7 0.2
v 2.98023e-08 0.7 0.1
v 2.98023e-08 0.7 -5.96046e-08
v 2.98023e-08 0.7 -0.1
v 2.98023e-08 0.7 -0.2
v 2.98023e-08 0.7 -0.3
v 2.98023e-08 0.8 0.2
v 2.98023e-08 0.8 0.1
v 2.98023e-08 0.8 -5.96046e-08
v 2.98023e-08 0.8 -0.1
v 2.98023e-08 0.8 -0.2
v 2.98023e-08 0.8 -0.3
v 2.98023e-08 0.9 -5.96046e-08
v 2.98023e-08 0.9 -0.1
v 2.98023e-08 1 -5.96046e-08
v 2.98023e-08 1.2 -5.96046e-08
v 2.98023e-08 1.2 -0.3
v 0.2 0 0.1
v 0.2 0 -0.3
v 0.2 0.2 0.1
v 0.2 0.2 -0.1
v 0.2 0.2 -0.2
v 0.2 0.2 -0.3
v 0.2 0.3 -0.1
v 0.2 0.3 -0.2
v -0.1 0.5 -0.2
v -0.1 0.5 -0.3
v -0.1 0.6 0.1
v -0.1 0.6 -5.96046e-08
v -0.1 0.6 -0.1
v -0.1 0.6 -0.2
v -0.1 0.6 -0.3
v -0.1 0.7 0.1
v -0.1 0.7 -5.96046e-08
v -0.1 0.7 -0.1
v -0.1 0.7 -0.2
v -0.1 0.7 -0.3
v -0.1 0.8 -0.2
v -0.1 0.8 -0.3
v 2.98023e-08 0.1 0.3
v 2.98023e-08 0.1 0.2
v 2.98023e-08 0.2 0.4
v 2.98023e-08 0.2 0.3
v 2.98023e-08 0.2 0.2
v 2.98023e-08 0.2 0.1
v 2.98023e-08 0.3 0.5
v 2.98023e-08 0.3 0.4
v 2.98023e-08 0.3 0.3
v 2.98023e-08 0.3 0.2
v 2.98023e-08 0.3 0.1
v 2.98023e-08 0.6 0.5
v 2.98023e-08 0.6 0.4
v 2.98023e-08 0.7 0.5
v 2.98023e-08 0.7 0.4
v 2.98023e-08 0.9 0.1
v 2.98023e-08 0.9 -5.96046e-08
v 2.98023e-08 1 0.5
v 2.98023e-08 1 0.4
v 2.98023e-08 1 0.3
v 2.98023e-08 1 0.2
v 2.98023e-08 1 0.1
v 2.98023e-08 1 -5.96046e-08
v 2.98023e-08 1.1 0.4
v 2.98023e-08 1.1 0.3
v 2.98023e-08 1.1 0.2
v 2.98023e-08 1.1 0.1
v 2.98023e-08 1.2 0.3
v 2.98023e-08 1.2 0.2
v 0.1 0 0.1
v 0.1 0 -5.96046e-08
v 0.1 0 -0.2
v 0.1 0 -0.3
v 0.1 0.2 0.1
v 0.1 0.2 -5.96046e-08
v 0.1 0.2 -0.2
v 0.1 0.2 -0.3
v 0.1 0.6 0.4
v 0.1 0.6 0.2
v 0.1 0.7 0.4
v 0.1 0.7 0.2
v 0.2 0.6 0.2
v 0.2 0.6 0.1
v 0.2 0.8 0.2
v 0.2 0.8 0.1
v 0.3 0.1 0.1
v 0.3 0.1 -0.5
v 0.3 0.5 -0.5
v 0.3 0.5 -0.6
v 0.3 0.8 0.1
v 0.3 0.8 -5.96046e-08
v 0.3 0.8 -0.3
v 0.3 0.8 -0.6
v 0.3 1.2 -5.96046e-08
v 0.3 1.2 -0.3
v 0.4 0 0.1
v 0.4 0 -0.6
v 0.4 0.1 0.1
v 0.4 0.1 -0.6
v -0.1 0.3 0.5
v -0.1 0.6 0.5
v -0.1 0.7 0.5
v -0.1 1 0.5
v 2.98023e-08 0.3 0.5
v 2.98023e-08 0.6 0.5
v 2.98023e-08 0.7 0.5
v 2.98023e-08 1 0.5
v -0.1 0.2 0.4
v -0.1 0.3 0.4
v -0.1 1 0.4
v -0.1 1.1 0.4
v 2.98023e-08 0.2 0.4
v 2.98023e-08 0.3 0.4
v 2.98023e-08 0.6 0.4
v 2.98023e-08 0.7 0.4
v 2.98023e-08 1 0.4
v 2.98023e-08 1.1 0.4
v 0.1 0.6 0.4
v 0.1 0.7 0.4
v -0.1 0.1 0.3
v -0.1 0.2 0.3
v -0.1 1.1 0.3
v -0.1 1.2 0.3
v 2.98023e-08 0.1 0.3
v 2.98023e-08 0.2 0.3
v 2.98023e-08 1.1 0.3
v 2.98023e-08 1.2 0.3
v -0.1 0.2 0.2
v -0.1 0.3 0.2
v -0.1 1 0.2
v -0.1 1.1 0.2
v 2.98023e-08 0.2 0.2
v 2.98023e-08 0.3 0.2
v 2.98023e-08 0.7 0.2
v 2.98023e-08 0.8 0.2
v 2.98023e-08 1 0.2
v 2.98023e-08 1.1 0.2
v 0.1 0.6 0.2
v 0.1 0.7 0.2
v 0.2 0.6 0.2
v 0.2 0.8 0.2
v -0.2 0.6 0.1
v -0.2 0.7 0.1
v -0.1 0 0.1
v -0.1 0.1 0.1
v -0.1 0.3 0.1
v -0.1 0.4 0.1
v -0.1 0.6 0.1
v -0.1 0.7 0.1
v -0.1 0.9 0.1
v -0.1 1 0.1
v 2.98023e-08 0.1 0.1
v 2.98023e-08 0.2 0.1
v 2.98023e-08 0.3 0.1
v 2.98023e-08 0.4 0.1
v 2.98023e-08 0.5 0.1
v 2.98023e-08 0.6 0.1
v 2.98023e-08 0.9 0.1
v 2.98023e-08 1 0.1
v 0.1 0 0.1
v 0.1 0.2 0.1
v 0.2 0 0.1
v 0.2 0.2 0.1
v 0.2 0.4 0.1
v 0.2 0.5 0.1
v 0.2 0.6 0.1
v 0.2 0.8 0.1
v 0.3 0.1 0.1
v 0.3 0.8 0.1
v 0.4 0 0.1
v 0.4 0.1 0.1
v -0.1 0.4 -5.96046e-08
v -0.1 0.5 -5.96046e-08
v -0.1 0.8 -5.96046e-08
v -0.1 0.9 -5.96046e-08
v 2.98023e-08 0.4 -5.96046e-08
v 2.98023e-08 0.5 -5.96046e-08
v 2.98023e-08 0.8 -5.96046e-08
v 2.98023e-08 0.9 -5.96046e-08
v 2.98023e-08 1 -5.96046e-08
v 2.98023e-08 1.2 -5.96046e-08
v 0.1 0.8 -5.96046e-08
v 0.1 1.1 -5.96046e-08
v 0.2 0.8 -5.96046e-08
v 0.2 1.1 -5.96046e-08
v 0.3 0.8 -5.96046e-08
v 0.3 1.2 -5.96046e-08
v -0.1 0.5 -0.1
v -0.1 0.6 -0.1
v -0.1 0.7 -0.1
v -0.1 0.8 -0.1
v 2.98023e-08 0.5 -0.1
v 2.98023e-08 0.6 -0.1
v 2.98023e-08 0.7 -0.1
v 2.98023e-08 0.8 -0.1
v -0.3 0.6 -0.2
v -0.3 0.7 -0.2
v -0.2 0.5 -0.2
v -0.2 0.6 -0.2
v -0.2 0.7 -0.2
v -0.2 0.8 -0.2
v -0.1 0 -0.2
v -0.1 0.1 -0.2
v -0.1 0.5 -0.2
v -0.1 0.6 -0.2
v -0.1 0.7 -0.2
v -0.1 0.8 -0.2
v 2.98023e-08 0.1 -0.2
v 2.98023e-08 0.2 -0.2
v 2.98023e-08 0.3 -0.2
v 2.98023e-08 0.6 -0.2
v 2.98023e-08 0.7 -0.2
v 0.1 0 -0.2
v 0.1 0.2 -0.2
v 0.2 0.2 -0.2
v 0.2 0.3 -0.2
v -0.1 0.1 -0.3
v -0.1 0.5 -0.3
v -0.1 0.6 -0.3
v -0.1 0.7 -0.3
v -0.1 0.8 -0.3
v 2.98023e-08 0.1 -0.3
v 2.98023e-08 0.2 -0.3
v 2.98023e-08 0.4 -0.3
v 2.98023e-08 0.5 -0.3
v 2.98023e-08 0.6 -0.3
v 2.98023e-08 0.7 -0.3
v 2.98023e-08 0.8 -0.3
v 0.1 0 -0.3
v 0.1 0.2 -0.3
v 0.2 0 -0.3
v 0.2 0.2 -0.3
v -0.1 0.3 0.4
v -0.1 0.6 0.4
v -0.1 0.7 0.4
v -0.1 1 0.4
v 2.98023e-08 0.3 0.4
v 2.98023e-08 0.6 0.4
v 2.98023e-08 0.7 0.4
v 2.98023e-08 1 0.4
v -0.1 0.2 0.3
v -0.1 0.3 0.3
v -0.1 1 0.3
v -0.1 1.1 0.3
v 2.98023e-08 0.2 0.3
v 2.98023e-08 0.3 0.3
v 2.98023e-08 1 0.3
v 2.98023e-08 1.1 0.3
v -0.1 0.1 0.2
v -0.1 0.2 0.2
v -0.1 1.1 0.2
v -0.1 1.2 0.2
v 2.98023e-08 0.1 0.2
v 2.98023e-08 0.2 0.2
v 2.98023e-08 1.1 0.2
v 2.98023e-08 1.2 0.2
v -0.1 0.2 0.1
v -0.1 0.3 0.1
v -0.1 1 0.1
v -0.1 1.1 0.1
v 2.98023e-08 0.2 0.1
v 2.98023e-08 0.3 0.1
v 2.98023e-08 1 0.1
v 2.98023e-08 1.1 0.1
v -0.1 0 -5.96046e-08
v -0.1 0.1 -5.96046e-08
v -0.1 0.3 -5.96046e-08
v -0.1 0.4 -5.96046e-08
v -0.1 0.9 -5.96046e-08
v -0.1 1 -5.96046e-08
v 2.98023e-08 0.1 -5.96046e-08
v 2.98023e-08 0.2 -5.96046e-08
v 2.98023e-08 0.3 -5.96046e-08
v 2.98023e-08 0.4 -5.96046e-08
v 2.98023e-08 0.9 -5.96046e-08
v 2.98023e-08 1 -5.96046e-08
v 0.1 0 -5.96046e-08
v 0.1 0.2 -5.96046e-08
v -0.1 0.4 -0.1
v -0.1 0.5 -0.1
v -0.1 0.8 -0.1
v -0.1 0.9 -0.1
v 2.98023e-08 0.2 -0.1
v 2.98023e-08 0.3 -0.1
v 2.98023e-08 0.4 -0.1
v 2.98023e-08 0.5 -0.1
v 2.98023e-08 0.8 -0.1
v 2.98023e-08 0.9 -0.1
v 0.2 0.2 -0.1
v 0.2 0.3 -0.1
v -0.1 0.5 -0.2
v -0.1 0.6 -0.2
v -0.1 0.7 -0.2
v -0.1 0.8 -0.2
v 2.98023e-08 0.5 -0.2
v 2.98023e-08 0.6 -0.2
v 2.98023e-08 0.7 -0.2
v 2.98023e-08 0.8 -0.2
v -0.3 0.6 -0.3
v -0.3 0.7 -0.3
v -0.2 0.6 -0.3
v -0.2 0.7 -0.3
v 2.98023e-08 0.8 -0.3
v 2.98023e-08 1.2 -0.3
v 0.3 0.8 -0.3
v 0.3 1.2 -0.3
v -0.1 0.1 -0.5
v -0.1 0.5 -0.5
v 0.3 0.1 -0.5
v 0.3 0.5 -0.5
v -0.2 0.5 -0.6
v -0.2 0.8 -0.6
v -0.1 0 -0.6
v -0.1 0.1 -0.6
v 0.3 0.5 -0.6
v 0.3 0.8 -0.6
v 0.4 0 -0.6
v 0.4 0.1 -0.6
v -0.1 0 0.1
v 0.1 0 0.1
v 0.2 0 0.1
v 0.4 0 0.1
v -0.1 0 -5.96046e-08
v 0.1 0 -5.96046e-08
v -0.1 0 -0.2
v 0.1 0 -0.2
v -0.1 0 -0.3
v 0.1 0 -0.3
v 0.2 0 -0.3
v -0.1 0 -0.6
v 0.4 0 -0.6
v -0.1 0.1 0.3
v 2.98023e-08 0.1 0.3
v -0.1 0.1 0.2
v 2.98023e-08 0.1 0.2
v -0.1 0.2 0.4
v 2.98023e-08 0.2 0.4
v -0.1 0.2 0.3
v 2.98023e-08 0.2 0.3
v -0.1 0.2 0.2
v 2.98023e-08 0.2 0.2
v -0.1 0.2 0.1
v 2.98023e-08 0.2 0.1
v 0.1 0.2 0.1
v 0.2 0.2 0.1
v 2.98023e-08 0.2 -5.96046e-08
v 0.1 0.2 -5.96046e-08
v 2.98023e-08 0.2 -0.1
v 0.2 0.2 -0.1
v 0.1 0.2 -0.2
v 0.2 0.2 -0.2
v 0.1 0.2 -0.3
v 0.2 0.2 -0.3
v -0.1 0.3 0.5
v 2.98023e-08 0.3 0.5
v -0.1 0.3 0.4
v 2.98023e-08 0.3 0.4
v -0.1 0.3 0.1
v 2.98023e-08 0.3 0.1
v -0.1 0.3 -5.96046e-08
v 2.98023e-08 0.3 -5.96046e-08
v 2.98023e-08 0.3 -0.1
v 0.2 0.3 -0.1
v 2.98023e-08 0.3 -0.2
v 0.2 0.3 -0.2
v -0.1 0.4 -5.96046e-08
v 2.98023e-08 0.4 -5.96046e-08
v -0.1 0.4 -0.1
v 2.98023e-08 0.4 -0.1
v -0.1 0.5 -0.1
v 2.98023e-08 0.5 -0.1
v -0.2 0.5 -0.2
v -0.1 0.5 -0.2
v 2.98023e-08 0.5 -0.2
v -0.2 0.5 -0.3
v -0.1 0.5 -0.3
v -0.1 0.5 -0.5
v 0.3 0.5 -0.5
v -0.2 0.5 -0.6
v 0.3 0.5 -0.6
v 2.98023e-08 0.6 0.4
v 0.1 0.6 0.4
v 0.1 0.6 0.2
v 0.2 0.6 0.2
v -0.2 0.6 0.1
v -0.1 0.6 0.1
v 2.98023e-08 0.6 0.1
v 0.2 0.6 0.1
v -0.2 0.6 -5.96046e-08
v -0.1 0.6 -5.96046e-08
v -0.1 0.6 -0.1
v -0.3 0.6 -0.2
v -0.2 0.6 -0.2
v -0.1 0.6 -0.2
v 2.98023e-08 0.6 -0.2
v -0.3 0.6 -0.3
v -0.2 0.6 -0.3
v -0.1 0.6 -0.3
v 2.98023e-08 0.6 -0.3
v -0.1 0.7 -0.1
v 2.98023e-08 0.7 -0.1
v -0.1 0.7 -0.2
v 2.98023e-08 0.7 -0.2
v -0.1 0.8 -5.96046e-08
v 2.98023e-08 0.8 -5.96046e-08
v -0.1 0.8 -0.1
v 2.98023e-08 0.8 -0.1
v -0.1 0.9 0.1
v 2.98023e-08 0.9 0.1
v -0.1 0.9 -5.96046e-08
v 2.98023e-08 0.9 -5.96046e-08
v -0.1 1 0.4
v 2.98023e-08 1 0.4
v -0.1 1 0.3
v 2.98023e-08 1 0.3
v -0.1 1 0.2
v 2.98023e-08 1 0.2
v -0.1 1 0.1
v 2.98023e-08 1 0.1
v -0.1 1.1 0.3
v 2.98023e-08 1.1 0.3
v -0.1 1.1 0.2
v 2.98023e-08 1.1 0.2
v -0.1 0.1 0.1
v 2.98023e-08 0.1 0.1
v 0.3 0.1 0.1
v 0.4 0.1 0.1
v -0.1 0.1 -5.96046e-08
v 2.98023e-08 0.1 -5.96046e-08
v -0.1 0.1 -0.2
v 2.98023e-08 0.1 -0.2
v -0.1 0.1 -0.3
v 2.98023e-08 0.1 -0.3
v -0.1 0.1 -0.5
v 0.3 0.1 -0.5
v -0.1 0.1 -0.6
v 0.4 0.1 -0.6
v -0.1 0.2 0.3
v 2.98023e-08 0.2 0.3
v -0.1 0.2 0.2
v 2.98023e-08 0.2 0.2
v -0.1 0.3 0.4
v 2.98023e-08 0.3 0.4
v -0.1 0.3 0.3
v 2.98023e-08 0.3 0.3
v -0.1 0.3 0.2
v 2.98023e-08 0.3 0.2
v -0.1 0.3 0.1
v 2.98023e-08 0.3 0.1
v -0.1 0.4 0.1
v 2.98023e-08 0.4 0.1
v -0.1 0.4 -5.96046e-08
v 2.98023e-08 0.4 -5.96046e-08
v -0.1 0.5 -5.96046e-08
v 2.98023e-08 0.5 -5.96046e-08
v -0.1 0.5 -0.1
v 2.98023e-08 0.5 -0.1
v -0.1 0.6 -0.1
v 2.98023e-08 0.6 -0.1
v -0.1 0.6 -0.2
v 2.98023e-08 0.6 -0.2
v 2.98023e-08 0.7 0.4
v 0.1 0.7 0.4
v 2.98023e-08 0.7 0.2
v 0.1 0.7 0.2
v -0.2 0.7 0.1
v -0.1 0.7 0.1
v -0.2 0.7 -5.96046e-08
v -0.1 0.7 -5.96046e-08
v -0.1 0.7 -0.1
v -0.3 0.7 -0.2
v -0.2 0.7 -0.2
v -0.1 0.7 -0.2
v 2.98023e-08 0.7 -0.2
v -0.3 0.7 -0.3
v -0.2 0.7 -0.3
v -0.1 0.7 -0.3
v 2.98023e-08 0.7 -0.3
v 2.98023e-08 0.8 0.2
v 0.2 0.8 0.2
v 2.98023e-08 0.8 0.1
v 0.2 0.8 0.1
v 0.3 0.8 0.1
v 2.98023e-08 0.8 -5.96046e-08
v 0.1 0.8 -5.96046e-08
v 0.2 0.8 -5.96046e-08
v 0.3 0.8 -5.96046e-08
v -0.1 0.8 -0.1
v 2.98023e-08 0.8 -0.1
v -0.2 0.8 -0.2
v -0.1 0.8 -0.2
v 2.98023e-08 0.8 -0.2
v -0.2 0.8 -0.3
v -0.1 0.8 -0.3
v 2.98023e-08 0.8 -0.3
v 0.3 0.8 -0.3
v -0.2 0.8 -0.6
v 0.3 0.8 -0.6
v -0.1 0.9 -5.96046e-08
v 2.98023e-08 0.9 -5.96046e-08
v -0.1 0.9 -0.1
v 2.98023e-08 0.9 -0.1
v -0.1 1 0.5
v 2.98023e-08 1 0.5
v -0.1 1 0.4
v 2.98023e-08 1 0.4
v -0.1 1 0.1
v 2.98023e-08 1 0.1
v -0.1 1 -5.96046e-08
v 2.98023e-08 1 -5.96046e-08
v -0.1 1.1 0.4
v 2.98023e-08 1.1 0.4
v -0.1 1.1 0.3
v 2.98023e-08 1.1 0.3
v -0.1 1.1 0.2
v 2.98023e-08 1.1 0.2
v -0.1 1.1 0.1
v 2.98023e-08 1.1 0.1
v -0.1 1.2 0.3
v 2.98023e-08 1.2 0.3
v -0.1 1.2 0.2
v 2.98023e-08 1.2 0.2
v 2.98023e-08 1.2 -5.96046e-08
v 0.3 1.2 -5.96046e-08
v 2.98023e-08 1.2 -0.3
v 0.3 1.2 -0.3

# faces
f 3/3/1 2/3/1 1/3/1
f 4/3/1 2/3/1 3/3/1
f 10/3/1 6/3/1 5/3/1
f 11/5/1 7/5/1 6/5/1
f 11/3/1 6/3/1 10/3/1
f 12/3/1 9/3/1 8/3/1
f 13/6/1 10/6/1 9/6/1
f 13/3/1 9/3/1 12/3/1
f 14/6/1 10/6/1 13/6/1
f 15/5/1 7/5/1 11/5/1
f 16/3/1 15/3/1 14/3/1
f 17/5/1 7/5/1 15/5/1
f 17/3/1 15/3/1 16/3/1
f 18/5/1 7/5/1 17/5/1
f 26/4/1 20/4/1 19/4/1
f 27/4/1 20/4/1 26/4/1
f 28/4/1 22/4/1 21/4/1
f 29/5/1 23/5/1 22/5/1
f 29/4/1 22/4/1 28/4/1
f 30/5/1 23/5/1 29/5/1
f 31/5/1 23/5/1 30/5/1
f 33/2/1 25/2/1 24/2/1
f 34/2/1 25/2/1 33/2/1
f 37/2/1 33/2/1 32/2/1
f 38/2/1 33/2/1 37/2/1
f 39/7/1 35/7/1 34/7/1
f 40/7/1 35/7/1 39/7/1
f 42/7/1 41/7/1 40/7/1
f 43/7/1 41/7/1 42/7/1
f 45/7/1 44/7/1 43/7/1
f 46/7/1 44/7/1 45/7/1
f 48/5/1 30/5/1 29/5/1
f 49/5/1 30/5/1 48/5/1
f 50/2/1 37/2/1 36/2/1
f 51/2/1 37/2/1 50/2/1
f 52/7/1 47/7/1 46/7/1
f 53/7/1 47/7/1 52/7/1
f 54/1/1 51/1/1 50/1/1
f 55/1/1 51/1/1 54/1/1
f 59/7/1 57/7/1 56/7/1
f 60/7/1 57/7/1 59/7/1
f 62/7/1 59/7/1 58/7/1
f 63/7/1 59/7/1 62/7/1
f 64/2/1 55/2/1 54/2/1
f 65/2/1 55/2/1 64/2/1
f 68/7/1 62/7/1 61/7/1
f 69/7/1 62/7/1 68/7/1
f 70/2/1 66/2/1 65/2/1
f 71/2/1 66/2/1 70/2/1
f 72/7/1 68/7/1 67/7/1
f 73/7/1 68/7/1 72/7/1
f 74/2/1 72/2/1 71/2/1
f 75/2/1 72/2/1 74/2/1
f 80/4/1 77/4/1 76/4/1
f 81/4/1 77/4/1 80/4/1
f 83/4/1 79/4/1 78/4/1
f 84/4/1 79/4/1 83/4/1
f 85/2/1 82/2/1 81/2/1
f 85/2/1 81/2/1 80/2/1
f 86/2/1 82/2/1 85/2/1
f 87/2/1 82/2/1 86/2/1
f 88/2/1 84/2/1 83/2/1
f 90/2/1 87/2/1 86/2/1
f 90/2/1 88/2/1 87/2/1
f 91/2/1 88/2/1 90/2/1
f 92/2/1 84/2/1 88/2/1
f 92/2/1 88/2/1 91/2/1
f 93/4/1 90/4/1 89/4/1
f 94/4/1 90/4/1 93/4/1
f 95/4/1 92/4/1 91/4/1
f 96/4/1 92/4/1 95/4/1
f 97/4/1 92/4/1 96/4/1
f 99/2/1 94/2/1 93/2/1
f 100/4/1 95/4/1 94/4/1
f 100/2/1 94/2/1 99/2/1
f 101/4/1 95/4/1 100/4/1
f 102/2/1 97/2/1 96/2/1
f 103/2/1 97/2/1 102/2/1
f 104/1/1 99/1/1 98/1/1
f 105/1/1 99/1/1 104/1/1
f 106/2/1 101/2/1 100/2/1
f 106/1/1 99/1/1 105/1/1
f 106/2/1 100/2/1 99/2/1
f 107/2/1 101/2/1 106/2/1
f 108/4/1 102/4/1 101/4/1
f 108/2/1 101/2/1 107/2/1
f 109/4/1 102/4/1 108/4/1
f 111/1/1 106/1/1 105/1/1
f 112/5/1 107/5/1 106/5/1
f 112/1/1 106/1/1 111/1/1
f 113/2/1 108/2/1 107/2/1
f 113/5/1 107/5/1 112/5/1
f 114/2/1 108/2/1 113/2/1
f 115/4/1 110/4/1 109/4/1
f 116/4/1 110/4/1 115/4/1
f 118/5/1 116/5/1 115/5/1
f 118/5/1 115/5/1 114/5/1
f 119/5/1 118/5/1 117/5/1
f 120/5/1 118/5/1 119/5/1
f 121/5/1 116/5/1 118/5/1
f 121/5/1 118/5/1 120/5/1
f 124/5/1 123/5/1 122/5/1
f 125/5/1 123/5/1 124/5/1
f 126/5/1 123/5/1 125/5/1
f 127/5/1 123/5/1 126/5/1
f 128/5/1 126/5/1 125/5/1
f 129/5/1 126/5/1 128/5/1
f 130/3/2 131/3/2 135/3/2
f 135/3/2 131/3/2 136/3/2
f 132/3/2 133/3/2 137/3/2
f 133/6/2 134/6/2 138/6/2
f 137/3/2 133/3/2 138/3/2
f 134/6/2 135/6/2 138/6/2
f 138/6/2 135/6/2 139/6/2
f 139/6/2 135/6/2 140/6/2
f 140/3/2 141/3/2 142/3/2
f 142/3/2 141/3/2 143/3/2
f 144/2/2 145/2/2 147/2/2
f 147/2/2 145/2/2 148/2/2
f 146/2/2 147/2/2 151/2/2
f 151/2/2 147/2/2 152/2/2
f 148/7/2 149/7/2 153/7/2
f 153/7/2 149/7/2 154/7/2
f 150/2/2 151/2/2 155/2/2
f 155/2/2 151/2/2 156/2/2
f 155/1/2 156/1/2 157/1/2
f 157/1/2 156/1/2 158/1/2
f 157/2/2 158/2/2 161/2/2
f 161/2/2 158/2/2 162/2/2
f 159/7/2 160/7/2 165/7/2
f 165/7/2 160/7/2 166/7/2
f 162/2/2 163/2/2 167/2/2
f 167/2/2 163/2/2 168/2/2
f 164/7/2 165/7/2 169/7/2
f 169/7/2 165/7/2 170/7/2
f 168/2/2 169/2/2 171/2/2
f 171/2/2 169/2/2 172/2/2
f 173/4/2 174/4/2 177/4/2
f 177/4/2 174/4/2 178/4/2
f 175/4/2 176/4/2 179/4/2
f 179/4/2 176/4/2 180/4/2
f 181/1/2 182/1/2 183/1/2
f 183/1/2 182/1/2 184/1/2
f 185/1/2 186/1/2 187/1/2
f 187/1/2 186/1/2 188/1/2
f 189/5/2 190/5/2 191/5/2
f 189/5/2 191/5/2 193/5/2
f 191/5/2 192/5/2 193/5/2
f 193/5/2 192/5/2 194/5/2
f 194/5/2 192/5/2 195/5/2
f 195/5/2 192/5/2 196/5/2
f 194/5/2 195/5/2 197/5/2
f 197/5/2 195/5/2 198/5/2
f 199/5/2 200/5/2 201/5/2
f 201/5/2 200/5/2 202/5/2
f 207/2/3 204/2/3 203/2/3
f 208/1/3 205/1/3 204/1/3
f 208/2/3 204/2/3 207/2/3
f 209/2/3 206/2/3 205/2/3
f 209/1/3 205/1/3 208/1/3
f 210/2/3 206/2/3 209/2/3
f 215/2/3 212/2/3 211/2/3
f 216/2/3 212/2/3 215/2/3
f 219/2/3 214/2/3 213/2/3
f 220/2/3 214/2/3 219/2/3
f 221/1/3 218/1/3 217/1/3
f 222/1/3 218/1/3 221/1/3
f 227/2/3 224/2/3 223/2/3
f 228/2/3 224/2/3 227/2/3
f 229/2/3 226/2/3 225/2/3
f 230/2/3 226/2/3 229/2/3
f 235/7/3 232/7/3 231/7/3
f 236/7/3 232/7/3 235/7/3
f 239/7/3 234/7/3 233/7/3
f 240/7/3 234/7/3 239/7/3
f 242/1/3 238/1/3 237/1/3
f 243/1/3 242/1/3 241/1/3
f 244/1/3 238/1/3 242/1/3
f 244/1/3 242/1/3 243/1/3
f 251/3/3 246/3/3 245/3/3
f 252/3/3 246/3/3 251/3/3
f 255/4/3 248/4/3 247/4/3
f 257/7/3 250/7/3 249/7/3
f 258/7/3 250/7/3 257/7/3
f 261/7/3 254/7/3 253/7/3
f 262/7/3 254/7/3 261/7/3
f 263/4/3 256/4/3 255/4/3
f 263/4/3 255/4/3 247/4/3
f 264/2/3 257/2/3 256/2/3
f 264/4/3 256/4/3 263/4/3
f 264/2/3 258/2/3 257/2/3
f 266/2/3 258/2/3 264/2/3
f 267/4/3 259/4/3 258/4/3
f 267/2/3 258/2/3 266/2/3
f 268/2/3 260/2/3 259/2/3
f 268/4/3 259/4/3 267/4/3
f 269/2/3 260/2/3 268/2/3
f 271/5/3 267/5/3 266/5/3
f 271/5/3 270/5/3 269/5/3
f 271/5/3 269/5/3 268/5/3
f 271/5/3 268/5/3 267/5/3
f 271/5/3 266/5/3 265/5/3
f 272/5/3 270/5/3 271/5/3
f 273/5/3 271/5/3 265/5/3
f 274/5/3 271/5/3 273/5/3
f 279/7/3 276/7/3 275/7/3
f 280/7/3 276/7/3 279/7/3
f 281/7/3 278/7/3 277/7/3
f 282/7/3 278/7/3 281/7/3
f 285/5/3 284/5/3 283/5/3
f 285/5/3 283/5/3 282/5/3
f 285/5/3 282/5/3 281/5/3
f 286/5/3 284/5/3 285/5/3
f 287/8/3 286/8/3 285/8/3
f 288/5/3 284/5/3 286/5/3
f 288/8/3 286/8/3 287/8/3
f 289/5/3 288/5/3 287/5/3
f 290/5/3 284/5/3 288/5/3
f 290/5/3 288/5/3 289/5/3
f 295/7/3 292/7/3 291/7/3
f 296/7/3 292/7/3 295/7/3
f 297/7/3 294/7/3 293/7/3
f 298/7/3 294/7/3 297/7/3
f 302/3/3 300/3/3 299/3/3
f 303/3/3 300/3/3 302/3/3
f 307/3/3 302/3/3 301/3/3
f 308/3/3 302/3/3 307/3/3
f 309/3/3 304/3/3 303/3/3
f 310/3/3 304/3/3 309/3/3
f 311/4/3 306/4/3 305/4/3
f 314/7/3 309/7/3 308/7/3
f 315/7/3 309/7/3 314/7/3
f 316/4/3 311/4/3 305/4/3
f 316/4/3 312/4/3 311/4/3
f 317/2/3 313/2/3 312/2/3
f 317/4/3 312/4/3 316/4/3
f 318/2/3 313/2/3 317/2/3
f 319/2/3 313/2/3 318/2/3
f 325/5/3 321/5/3 320/5/3
f 325/5/3 322/5/3 321/5/3
f 326/5/3 322/5/3 325/5/3
f 327/5/3 322/5/3 326/5/3
f 328/5/3 322/5/3 327/5/3
f 329/5/3 322/5/3 328/5/3
f 330/5/3 324/5/3 323/5/3
f 331/5/3 324/5/3 330/5/3
f 334/5/3 333/5/3 332/5/3
f 335/5/3 333/5/3 334/5/3
f 336/2/4 337/2/4 340/2/4
f 337/1/4 338/1/4 341/1/4
f 340/2/4 337/2/4 341/2/4
f 338/2/4 339/2/4 342/2/4
f 341/1/4 338/1/4 342/1/4
f 342/2/4 339/2/4 343/2/4
f 344/2/4 345/2/4 348/2/4
f 348/2/4 345/2/4 349/2/4
f 346/2/4 347/2/4 350/2/4
f 350/2/4 347/2/4 351/2/4
f 352/2/4 353/2/4 356/2/4
f 356/2/4 353/2/4 357/2/4
f 354/2/4 355/2/4 358/2/4
f 358/2/4 355/2/4 359/2/4
f 360/7/4 361/7/4 364/7/4
f 364/7/4 361/7/4 365/7/4
f 362/7/4 363/7/4 366/7/4
f 366/7/4 363/7/4 367/7/4
f 368/4/4 369/4/4 374/4/4
f 370/7/4 371/7/4 376/7/4
f 376/7/4 371/7/4 377/7/4
f 372/7/4 373/7/4 378/7/4
f 378/7/4 373/7/4 379/7/4
f 374/4/4 375/4/4 380/4/4
f 368/4/4 374/4/4 380/4/4
f 380/4/4 375/4/4 381/4/4
f 382/7/4 383/7/4 388/7/4
f 388/7/4 383/7/4 389/7/4
f 384/7/4 385/7/4 390/7/4
f 390/7/4 385/7/4 391/7/4
f 386/2/4 387/2/4 392/2/4
f 392/2/4 387/2/4 393/2/4
f 394/7/4 395/7/4 398/7/4
f 398/7/4 395/7/4 399/7/4
f 396/7/4 397/7/4 400/7/4
f 400/7/4 397/7/4 401/7/4
f 402/3/4 403/3/4 404/3/4
f 404/3/4 403/3/4 405/3/4
f 406/5/4 407/5/4 408/5/4
f 408/5/4 407/5/4 409/5/4
f 410/5/4 411/5/4 412/5/4
f 412/5/4 411/5/4 413/5/4
f 414/5/4 415/5/4 418/5/4
f 418/5/4 415/5/4 419/5/4
f 416/5/4 417/5/4 420/5/4
f 420/5/4 417/5/4 421/5/4
f 426/4/5 423/4/5 422/4/5
f 427/4/5 423/4/5 426/4/5
f 430/4/5 429/4/5 428/4/5
f 431/4/5 429/4/5 430/4/5
f 432/5/5 425/5/5 424/5/5
f 433/5/5 431/5/5 430/5/5
f 433/5/5 432/5/5 431/5/5
f 434/5/5 425/5/5 432/5/5
f 434/5/5 432/5/5 433/5/5
f 437/2/5 436/2/5 435/2/5
f 438/2/5 436/2/5 437/2/5
f 441/2/5 440/2/5 439/2/5
f 442/2/5 440/2/5 441/2/5
f 445/7/5 444/7/5 443/7/5
f 446/7/5 444/7/5 445/7/5
f 450/2/5 448/2/5 447/2/5
f 451/2/5 450/2/5 449/2/5
f 452/2/5 448/2/5 450/2/5
f 452/2/5 450/2/5 451/2/5
f 455/2/5 454/2/5 453/2/5
f 456/2/5 454/2/5 455/2/5
f 459/2/5 458/2/5 457/2/5
f 460/2/5 458/2/5 459/2/5
f 463/7/5 462/7/5 461/7/5
f 464/7/5 462/7/5 463/7/5
f 467/2/5 466/2/5 465/2/5
f 468/2/5 466/2/5 467/2/5
f 471/7/5 470/7/5 469/7/5
f 472/7/5 470/7/5 471/7/5
f 476/7/5 474/7/5 473/7/5
f 477/7/5 474/7/5 476/7/5
f 478/3/5 476/3/5 475/3/5
f 479/3/5 476/3/5 478/3/5
f 480/5/5 479/5/5 478/5/5
f 482/5/5 480/5/5 478/5/5
f 482/5/5 481/5/5 480/5/5
f 483/5/5 481/5/5 482/5/5
f 486/1/5 485/1/5 484/1/5
f 490/1/5 486/1/5 484/1/5
f 490/1/5 487/1/5 486/1/5
f 491/1/5 487/1/5 490/1/5
f 492/3/5 489/3/5 488/3/5
f 493/3/5 489/3/5 492/3/5
f 494/6/5 493/6/5 492/6/5
f 496/6/5 494/6/5 492/6/5
f 497/6/5 494/6/5 496/6/5
f 499/3/5 496/3/5 495/3/5
f 500/3/5 496/3/5 499/3/5
f 501/7/5 498/7/5 497/7/5
f 502/7/5 498/7/5 501/7/5
f 505/7/5 504/7/5 503/7/5
f 506/7/5 504/7/5 505/7/5
f 509/7/5 508/7/5 507/7/5
f 510/7/5 508/7/5 509/7/5
f 513/7/5 512/7/5 511/7/5
f 514/7/5 512/7/5 513/7/5
f 517/2/5 516/2/5 515/2/5
f 518/2/5 516/2/5 517/2/5
f 521/7/5 520/7/5 519/7/5
f 522/7/5 520/7/5 521/7/5
f 525/2/5 524/2/5 523/2/5
f 526/2/5 524/2/5 525/2/5
f 527/4/6 528/4/6 531/4/6
f 531/4/6 528/4/6 532/4/6
f 533/4/6 534/4/6 535/4/6
f 535/4/6 534/4/6 536/4/6
f 529/5/6 530/5/6 538/5/6
f 537/5/6 538/5/6 539/5/6
f 538/5/6 530/5/6 540/5/6
f 539/5/6 538/5/6 540/5/6
f 541/2/6 542/2/6 543/2/6
f 543/2/6 542/2/6 544/2/6
f 545/2/6 546/2/6 547/2/6
f 547/2/6 546/2/6 548/2/6
f 549/7/6 550/7/6 551/7/6
f 551/7/6 550/7/6 552/7/6
f 553/7/6 554/7/6 555/7/6
f 555/7/6 554/7/6 556/7/6
f 557/7/6 558/7/6 559/7/6
f 559/7/6 558/7/6 560/7/6
f 561/7/6 562/7/6 563/7/6
f 563/7/6 562/7/6 564/7/6
f 565/1/6 566/1/6 567/1/6
f 567/1/6 566/1/6 568/1/6
f 569/3/6 570/3/6 571/3/6
f 571/3/6 570/3/6 572/3/6
f 571/6/6 572/6/6 573/6/6
f 571/6/6 573/6/6 575/6/6
f 575/6/6 573/6/6 576/6/6
f 574/3/6 575/3/6 578/3/6
f 578/3/6 575/3/6 579/3/6
f 576/7/6 577/7/6 580/7/6
f 580/7/6 577/7/6 581/7/6
f 582/1/6 583/1/6 584/1/6
f 584/1/6 583/1/6 585/1/6
f 584/5/6 585/5/6 587/5/6
f 585/5/6 586/5/6 587/5/6
f 587/5/6 586/5/6 588/5/6
f 588/5/6 586/5/6 589/5/6
f 589/5/6 586/5/6 590/5/6
f 591/7/6 592/7/6 594/7/6
f 594/7/6 592/7/6 595/7/6
f 593/3/6 594/3/6 596/3/6
f 596/3/6 594/3/6 597/3/6
f 597/5/6 598/5/6 600/5/6
f 598/5/6 599/5/6 600/5/6
f 596/5/6 597/5/6 600/5/6
f 600/5/6 599/5/6 601/5/6
f 602/7/6 603/7/6 604/7/6
f 604/7/6 603/7/6 605/7/6
f 606/2/6 607/2/6 608/2/6
f 608/2/6 607/2/6 609/2/6
f 610/7/6 611/7/6 612/7/6
f 612/7/6 611/7/6 613/7/6
f 614/2/6 615/2/6 616/2/6
f 616/2/6 615/2/6 617/2/6
f 618/7/6 619/7/6 620/7/6
f 620/7/6 619/7/6 621/7/6
f 622/2/6 623/2/6 624/2/6
f 624/2/6 623/2/6 625/2/6
f 626/5/6 627/5/6 628/5/6
f 628/5/6 627/5/6 629/5/6
