# MagicaVoxel @ Ephtracy

# group
o 

# material
mtllib archer_walk_3.mtl
usemtl palette

# normals
vn -1 0 0
vn 1 0 0
vn 0 0 1
vn 0 0 -1
vn 0 -1 0
vn 0 1 0

# texcoords
vt 0.732422 0.5
vt 0.783203 0.5
vt 0.814453 0.5
vt 0.826172 0.5
vt 0.970703 0.5

# verts
v -0.3 0.2 0.1
v -0.3 0.2 -0.2
v -0.3 0.2 -0.3
v -0.3 0.2 -0.6
v -0.3 0.3 0.2
v -0.3 0.3 0.1
v -0.3 0.3 -0.2
v -0.3 0.3 -0.3
v -0.3 0.3 -0.6
v -0.3 0.3 -0.7
v -0.3 0.4 0.3
v -0.3 0.4 0.2
v -0.3 0.4 0.1
v -0.3 0.4 -0.6
v -0.3 0.4 -0.7
v -0.3 0.4 -0.8
v -0.3 0.5 0.3
v -0.3 0.5 0.2
v -0.3 0.5 -0.1
v -0.3 0.5 -0.2
v -0.3 0.5 -0.7
v -0.3 0.5 -0.8
v -0.3 0.7 -0.1
v -0.3 0.7 -0.3
v -0.2 0 -0.2
v -0.2 0 -0.4
v -0.2 0.1 -0.3
v -0.2 0.1 -0.4
v -0.2 0.2 -0.2
v -0.2 0.2 -0.3
v -0.2 0.3 -2.98023e-08
v -0.2 0.3 -0.2
v -0.2 0.4 -2.98023e-08
v -0.2 0.4 -0.2
v -0.2 0.5 -2.98023e-08
v -0.2 0.5 -0.1
v -0.2 0.5 -0.2
v -0.2 0.6 -2.98023e-08
v -0.2 0.6 -0.1
v -0.2 0.7 -2.98023e-08
v -0.2 0.7 -0.1
v -0.1 0.1 0.2
v -0.1 0.1 -2.98023e-08
v -0.1 0.2 0.2
v -0.1 0.2 0.1
v -0.1 0.2 -2.98023e-08
v -0.1 0.3 0.1
v -0.1 0.3 -2.98023e-08
v -0.1 0.7 0.1
v -0.1 0.7 -2.98023e-08
v -0.1 0.7 -0.2
v -0.1 1.1 0.1
v -0.1 1.1 -0.2
v 0.1 0 -2.98023e-08
v 0.1 0 -0.2
v 0.1 0.1 -2.98023e-08
v 0.1 0.1 -0.1
v 0.1 0.2 -2.98023e-08
v 0.1 0.2 -0.1
v 0.1 0.2 -0.2
v 0.1 0.3 -2.98023e-08
v 0.1 0.3 -0.2
v 0.2 0.1 -2.98023e-08
v 0.2 0.1 -0.1
v 0.2 0.2 -2.98023e-08
v 0.2 0.2 -0.1
v -0.2 0.2 0.1
v -0.2 0.2 -2.98023e-08
v -0.2 0.2 -0.3
v -0.2 0.2 -0.6
v -0.2 0.3 0.2
v -0.2 0.3 0.1
v -0.2 0.3 -2.98023e-08
v -0.2 0.3 -0.3
v -0.2 0.3 -0.6
v -0.2 0.3 -0.7
v -0.2 0.4 0.3
v -0.2 0.4 0.2
v -0.2 0.4 0.1
v -0.2 0.4 -0.6
v -0.2 0.4 -0.7
v -0.2 0.4 -0.8
v -0.2 0.5 0.3
v -0.2 0.5 0.2
v -0.2 0.5 -0.7
v -0.2 0.5 -0.8
v 2.98023e-08 0.1 0.2
v 2.98023e-08 0.1 -2.98023e-08
v 2.98023e-08 0.2 0.2
v 2.98023e-08 0.2 0.1
v 2.98023e-08 0.2 -2.98023e-08
v 2.98023e-08 0.2 -0.2
v 2.98023e-08 0.3 0.1
v 2.98023e-08 0.3 -2.98023e-08
v 2.98023e-08 0.3 -0.2
v 0.2 0.7 0.1
v 0.2 0.7 -2.98023e-08
v 0.2 0.7 -0.2
v 0.2 1.1 0.1
v 0.2 1.1 -0.2
v 0.3 0.6 -2.98023e-08
v 0.3 0.6 -0.3
v 0.3 0.7 -2.98023e-08
v 0.3 0.7 -0.3
v 0.4 0.1 -2.98023e-08
v 0.4 0.1 -0.3
v 0.4 0.6 -2.98023e-08
v 0.4 0.6 -0.3
v 0.5 0 -2.98023e-08
v 0.5 0 -0.4
v 0.5 0.1 -2.98023e-08
v 0.5 0.1 -0.4
v -0.3 0.4 0.3
v -0.3 0.5 0.3
v -0.2 0.4 0.3
v -0.2 0.5 0.3
v -0.3 0.3 0.2
v -0.3 0.4 0.2
v -0.2 0.3 0.2
v -0.2 0.4 0.2
v -0.1 0.1 0.2
v -0.1 0.2 0.2
v 2.98023e-08 0.1 0.2
v 2.98023e-08 0.2 0.2
v -0.3 0.2 0.1
v -0.3 0.3 0.1
v -0.2 0.2 0.1
v -0.2 0.3 0.1
v -0.1 0.2 0.1
v -0.1 0.3 0.1
v -0.1 0.7 0.1
v -0.1 1.1 0.1
v 2.98023e-08 0.2 0.1
v 2.98023e-08 0.3 0.1
v 2.98023e-08 0.7 0.1
v 2.98023e-08 1 0.1
v 0.1 0.7 0.1
v 0.1 1 0.1
v 0.2 0.7 0.1
v 0.2 1.1 0.1
v -0.2 0.2 -2.98023e-08
v -0.2 0.3 -2.98023e-08
v -0.2 0.4 -2.98023e-08
v -0.2 0.5 -2.98023e-08
v -0.2 0.6 -2.98023e-08
v -0.2 0.7 -2.98023e-08
v -0.1 0.2 -2.98023e-08
v -0.1 0.3 -2.98023e-08
v -0.1 0.6 -2.98023e-08
v -0.1 0.7 -2.98023e-08
v 2.98023e-08 0.3 -2.98023e-08
v 2.98023e-08 0.5 -2.98023e-08
v 2.98023e-08 0.6 -2.98023e-08
v 2.98023e-08 0.7 -2.98023e-08
v 0.1 0 -2.98023e-08
v 0.1 0.1 -2.98023e-08
v 0.1 0.2 -2.98023e-08
v 0.1 0.3 -2.98023e-08
v 0.1 0.5 -2.98023e-08
v 0.1 0.6 -2.98023e-08
v 0.1 0.7 -2.98023e-08
v 0.2 0 -2.98023e-08
v 0.2 0.1 -2.98023e-08
v 0.2 0.2 -2.98023e-08
v 0.2 0.4 -2.98023e-08
v 0.2 0.5 -2.98023e-08
v 0.2 0.6 -2.98023e-08
v 0.2 0.7 -2.98023e-08
v 0.3 0.6 -2.98023e-08
v 0.3 0.7 -2.98023e-08
v 0.4 0.1 -2.98023e-08
v 0.4 0.6 -2.98023e-08
v 0.5 0 -2.98023e-08
v 0.5 0.1 -2.98023e-08
v -0.3 0.5 -0.1
v -0.3 0.7 -0.1
v -0.2 0.5 -0.1
v -0.2 0.6 -0.1
v -0.2 0.7 -0.1
v 0.1 0.1 -0.1
v 0.1 0.2 -0.1
v 0.2 0.1 -0.1
v 0.2 0.2 -0.1
v -0.3 0.3 -0.2
v -0.3 0.5 -0.2
v -0.2 0 -0.2
v -0.2 0.2 -0.2
v -0.2 0.3 -0.2
v -0.2 0.4 -0.2
v -0.2 0.5 -0.2
v 2.98023e-08 0.2 -0.2
v 2.98023e-08 0.3 -0.2
v 0.1 0 -0.2
v 0.1 0.2 -0.2
v 0.1 0.3 -0.2
v -0.3 0.3 -0.6
v -0.3 0.4 -0.6
v -0.2 0.3 -0.6
v -0.2 0.4 -0.6
v -0.3 0.4 -0.7
v -0.3 0.5 -0.7
v -0.2 0.4 -0.7
v -0.2 0.5 -0.7
v -0.3 0.4 0.2
v -0.3 0.5 0.2
v -0.2 0.4 0.2
v -0.2 0.5 0.2
v -0.3 0.3 0.1
v -0.3 0.4 0.1
v -0.2 0.3 0.1
v -0.2 0.4 0.1
v -0.1 0.1 -2.98023e-08
v -0.1 0.2 -2.98023e-08
v 2.98023e-08 0.1 -2.98023e-08
v 2.98023e-08 0.2 -2.98023e-08
v -0.1 0.7 -0.2
v -0.1 1.1 -0.2
v 0.2 0.7 -0.2
v 0.2 1.1 -0.2
v -0.3 0.3 -0.3
v -0.3 0.7 -0.3
v -0.2 0.1 -0.3
v -0.2 0.2 -0.3
v -0.2 0.3 -0.3
v -0.2 0.7 -0.3
v 0.3 0.6 -0.3
v 0.3 0.7 -0.3
v 0.4 0.1 -0.3
v 0.4 0.6 -0.3
v -0.2 0 -0.4
v -0.2 0.1 -0.4
v 0.5 0 -0.4
v 0.5 0.1 -0.4
v -0.3 0.2 -0.6
v -0.3 0.3 -0.6
v -0.2 0.2 -0.6
v -0.2 0.3 -0.6
v -0.3 0.3 -0.7
v -0.3 0.4 -0.7
v -0.2 0.3 -0.7
v -0.2 0.4 -0.7
v -0.3 0.4 -0.8
v -0.3 0.5 -0.8
v -0.2 0.4 -0.8
v -0.2 0.5 -0.8
v 0.1 0 -2.98023e-08
v 0.2 0 -2.98023e-08
v 0.5 0 -2.98023e-08
v -0.2 0 -0.2
v 0.1 0 -0.2
v 0.2 0 -0.2
v -0.2 0 -0.4
v 0.5 0 -0.4
v -0.1 0.1 0.2
v 2.98023e-08 0.1 0.2
v -0.1 0.1 -2.98023e-08
v 2.98023e-08 0.1 -2.98023e-08
v -0.3 0.2 0.1
v -0.2 0.2 0.1
v -0.2 0.2 -2.98023e-08
v -0.1 0.2 -2.98023e-08
v 2.98023e-08 0.2 -2.98023e-08
v 0.1 0.2 -2.98023e-08
v 0.2 0.2 -2.98023e-08
v 0.1 0.2 -0.1
v 0.2 0.2 -0.1
v -0.3 0.2 -0.2
v -0.2 0.2 -0.2
v 2.98023e-08 0.2 -0.2
v -0.3 0.2 -0.3
v -0.2 0.2 -0.3
v -0.3 0.2 -0.6
v -0.2 0.2 -0.6
v -0.3 0.3 0.2
v -0.2 0.3 0.2
v -0.3 0.3 0.1
v -0.2 0.3 0.1
v 2.98023e-08 0.3 -2.98023e-08
v 0.1 0.3 -2.98023e-08
v 2.98023e-08 0.3 -0.2
v 0.1 0.3 -0.2
v -0.3 0.3 -0.6
v -0.2 0.3 -0.6
v -0.3 0.3 -0.7
v -0.2 0.3 -0.7
v -0.3 0.4 0.3
v -0.2 0.4 0.3
v -0.3 0.4 0.2
v -0.2 0.4 0.2
v -0.3 0.4 -0.7
v -0.2 0.4 -0.7
v -0.3 0.4 -0.8
v -0.2 0.4 -0.8
v -0.3 0.5 -0.1
v -0.2 0.5 -0.1
v -0.3 0.5 -0.2
v -0.2 0.5 -0.2
v -0.1 0.7 0.1
v 2.98023e-08 0.7 0.1
v 0.1 0.7 0.1
v 0.2 0.7 0.1
v -0.1 0.7 -2.98023e-08
v 2.98023e-08 0.7 -2.98023e-08
v 0.1 0.7 -2.98023e-08
v 0.2 0.7 -2.98023e-08
v 0.1 0.1 -2.98023e-08
v 0.2 0.1 -2.98023e-08
v 0.4 0.1 -2.98023e-08
v 0.5 0.1 -2.98023e-08
v 0.1 0.1 -0.1
v 0.2 0.1 -0.1
v -0.2 0.1 -0.3
v 0.4 0.1 -0.3
v -0.2 0.1 -0.4
v 0.5 0.1 -0.4
v -0.1 0.2 0.2
v 2.98023e-08 0.2 0.2
v -0.1 0.2 0.1
v 2.98023e-08 0.2 0.1
v -0.3 0.3 0.1
v -0.2 0.3 0.1
v -0.1 0.3 0.1
v 2.98023e-08 0.3 0.1
v -0.2 0.3 -2.98023e-08
v -0.1 0.3 -2.98023e-08
v 2.98023e-08 0.3 -2.98023e-08
v -0.3 0.3 -0.2
v -0.2 0.3 -0.2
v -0.3 0.3 -0.3
v -0.2 0.3 -0.3
v -0.3 0.3 -0.6
v -0.2 0.3 -0.6
v -0.3 0.4 0.2
v -0.2 0.4 0.2
v -0.3 0.4 0.1
v -0.2 0.4 0.1
v -0.3 0.4 -0.6
v -0.2 0.4 -0.6
v -0.3 0.4 -0.7
v -0.2 0.4 -0.7
v -0.3 0.5 0.3
v -0.2 0.5 0.3
v -0.3 0.5 0.2
v -0.2 0.5 0.2
v -0.3 0.5 -0.7
v -0.2 0.5 -0.7
v -0.3 0.5 -0.8
v -0.2 0.5 -0.8
v 0.3 0.6 -2.98023e-08
v 0.4 0.6 -2.98023e-08
v 0.3 0.6 -0.3
v 0.4 0.6 -0.3
v -0.2 0.7 -2.98023e-08
v -0.1 0.7 -2.98023e-08
v 0.2 0.7 -2.98023e-08
v 0.3 0.7 -2.98023e-08
v -0.3 0.7 -0.1
v -0.2 0.7 -0.1
v -0.1 0.7 -0.2
v 0.2 0.7 -0.2
v -0.3 0.7 -0.3
v -0.2 0.7 -0.3
v 0.3 0.7 -0.3
v -0.1 1.1 0.1
v 0.2 1.1 0.1
v -0.1 1.1 -0.2
v 0.2 1.1 -0.2

# faces
f 6/2/1 2/2/1 1/2/1
f 7/1/1 3/1/1 2/1/1
f 7/2/1 2/2/1 6/2/1
f 8/2/1 4/2/1 3/2/1
f 8/1/1 3/1/1 7/1/1
f 9/2/1 4/2/1 8/2/1
f 12/2/1 6/2/1 5/2/1
f 13/2/1 6/2/1 12/2/1
f 14/2/1 10/2/1 9/2/1
f 15/2/1 10/2/1 14/2/1
f 17/2/1 12/2/1 11/2/1
f 18/2/1 12/2/1 17/2/1
f 20/1/1 8/1/1 7/1/1
f 21/2/1 16/2/1 15/2/1
f 22/2/1 16/2/1 21/2/1
f 23/1/1 20/1/1 19/1/1
f 24/1/1 8/1/1 20/1/1
f 24/1/1 20/1/1 23/1/1
f 27/4/1 26/4/1 25/4/1
f 28/4/1 26/4/1 27/4/1
f 29/4/1 27/4/1 25/4/1
f 30/4/1 27/4/1 29/4/1
f 33/2/1 32/2/1 31/2/1
f 34/2/1 32/2/1 33/2/1
f 35/3/1 34/3/1 33/3/1
f 36/3/1 34/3/1 35/3/1
f 37/3/1 34/3/1 36/3/1
f 38/2/1 36/2/1 35/2/1
f 39/2/1 36/2/1 38/2/1
f 40/4/1 39/4/1 38/4/1
f 41/4/1 39/4/1 40/4/1
f 44/3/1 43/3/1 42/3/1
f 45/3/1 43/3/1 44/3/1
f 46/3/1 43/3/1 45/3/1
f 47/3/1 46/3/1 45/3/1
f 48/3/1 46/3/1 47/3/1
f 52/4/1 50/4/1 49/4/1
f 52/4/1 51/4/1 50/4/1
f 53/4/1 51/4/1 52/4/1
f 56/3/1 55/3/1 54/3/1
f 57/3/1 55/3/1 56/3/1
f 59/3/1 55/3/1 57/3/1
f 60/3/1 55/3/1 59/3/1
f 61/2/1 59/2/1 58/2/1
f 61/2/1 60/2/1 59/2/1
f 62/2/1 60/2/1 61/2/1
f 65/4/1 64/4/1 63/4/1
f 66/4/1 64/4/1 65/4/1
f 67/2/2 68/2/2 72/2/2
f 72/2/2 68/2/2 73/2/2
f 69/2/2 70/2/2 74/2/2
f 74/2/2 70/2/2 75/2/2
f 71/2/2 72/2/2 78/2/2
f 78/2/2 72/2/2 79/2/2
f 75/2/2 76/2/2 80/2/2
f 80/2/2 76/2/2 81/2/2
f 77/2/2 78/2/2 83/2/2
f 83/2/2 78/2/2 84/2/2
f 81/2/2 82/2/2 85/2/2
f 85/2/2 82/2/2 86/2/2
f 87/3/2 88/3/2 89/3/2
f 89/3/2 88/3/2 90/3/2
f 90/3/2 88/3/2 91/3/2
f 90/3/2 91/3/2 93/3/2
f 91/2/2 92/2/2 94/2/2
f 93/3/2 91/3/2 94/3/2
f 94/2/2 92/2/2 95/2/2
f 96/4/2 97/4/2 99/4/2
f 97/4/2 98/4/2 99/4/2
f 99/4/2 98/4/2 100/4/2
f 101/4/2 102/4/2 103/4/2
f 103/4/2 102/4/2 104/4/2
f 105/4/2 106/4/2 107/4/2
f 107/4/2 106/4/2 108/4/2
f 109/4/2 110/4/2 111/4/2
f 111/4/2 110/4/2 112/4/2
f 115/2/3 114/2/3 113/2/3
f 116/2/3 114/2/3 115/2/3
f 119/2/3 118/2/3 117/2/3
f 120/2/3 118/2/3 119/2/3
f 123/3/3 122/3/3 121/3/3
f 124/3/3 122/3/3 123/3/3
f 127/2/3 126/2/3 125/2/3
f 128/2/3 126/2/3 127/2/3
f 133/3/3 130/3/3 129/3/3
f 134/3/3 130/3/3 133/3/3
f 135/4/3 132/4/3 131/4/3
f 136/4/3 132/4/3 135/4/3
f 137/5/3 136/5/3 135/5/3
f 138/4/3 132/4/3 136/4/3
f 138/5/3 136/5/3 137/5/3
f 139/4/3 138/4/3 137/4/3
f 140/4/3 132/4/3 138/4/3
f 140/4/3 138/4/3 139/4/3
f 147/2/3 142/2/3 141/2/3
f 147/2/3 143/2/3 142/2/3
f 148/2/3 143/2/3 147/2/3
f 149/4/3 146/4/3 145/4/3
f 149/2/3 145/2/3 144/2/3
f 150/4/3 146/4/3 149/4/3
f 151/2/3 143/2/3 148/2/3
f 152/2/3 150/2/3 149/2/3
f 152/3/3 144/3/3 143/3/3
f 152/2/3 149/2/3 144/2/3
f 153/2/3 150/2/3 152/2/3
f 154/2/3 150/2/3 153/2/3
f 158/2/3 143/2/3 151/2/3
f 159/3/3 152/3/3 143/3/3
f 159/3/3 153/3/3 152/3/3
f 160/2/3 154/2/3 153/2/3
f 160/3/3 153/3/3 159/3/3
f 161/2/3 154/2/3 160/2/3
f 162/3/3 156/3/3 155/3/3
f 163/3/3 156/3/3 162/3/3
f 164/2/3 158/2/3 157/2/3
f 165/2/3 143/2/3 158/2/3
f 165/3/3 159/3/3 143/3/3
f 165/2/3 158/2/3 164/2/3
f 166/2/3 160/2/3 159/2/3
f 166/3/3 159/3/3 165/3/3
f 167/3/3 161/3/3 160/3/3
f 167/2/3 160/2/3 166/2/3
f 168/3/3 161/3/3 167/3/3
f 169/4/3 163/4/3 162/4/3
f 169/4/3 164/4/3 163/4/3
f 169/4/3 168/4/3 167/4/3
f 169/4/3 167/4/3 166/4/3
f 169/4/3 165/4/3 164/4/3
f 169/4/3 166/4/3 165/4/3
f 170/4/3 168/4/3 169/4/3
f 171/4/3 169/4/3 162/4/3
f 172/4/3 169/4/3 171/4/3
f 173/4/3 171/4/3 162/4/3
f 174/4/3 171/4/3 173/4/3
f 177/1/3 176/1/3 175/1/3
f 178/1/3 176/1/3 177/1/3
f 179/1/3 176/1/3 178/1/3
f 182/3/3 181/3/3 180/3/3
f 183/3/3 181/3/3 182/3/3
f 188/1/3 185/1/3 184/1/3
f 189/1/3 185/1/3 188/1/3
f 190/1/3 185/1/3 189/1/3
f 191/4/3 187/4/3 186/4/3
f 193/4/3 191/4/3 186/4/3
f 193/4/3 192/4/3 191/4/3
f 194/4/3 192/4/3 193/4/3
f 195/4/3 192/4/3 194/4/3
f 198/2/3 197/2/3 196/2/3
f 199/2/3 197/2/3 198/2/3
f 202/2/3 201/2/3 200/2/3
f 203/2/3 201/2/3 202/2/3
f 204/2/4 205/2/4 206/2/4
f 206/2/4 205/2/4 207/2/4
f 208/2/4 209/2/4 210/2/4
f 210/2/4 209/2/4 211/2/4
f 212/3/4 213/3/4 214/3/4
f 214/3/4 213/3/4 215/3/4
f 216/4/4 217/4/4 218/4/4
f 218/4/4 217/4/4 219/4/4
f 220/1/4 221/1/4 224/1/4
f 224/1/4 221/1/4 225/1/4
f 222/4/4 223/4/4 226/4/4
f 223/4/4 224/4/4 226/4/4
f 224/4/4 225/4/4 226/4/4
f 226/4/4 225/4/4 227/4/4
f 222/4/4 226/4/4 228/4/4
f 228/4/4 226/4/4 229/4/4
f 230/4/4 231/4/4 232/4/4
f 232/4/4 231/4/4 233/4/4
f 234/2/4 235/2/4 236/2/4
f 236/2/4 235/2/4 237/2/4
f 238/2/4 239/2/4 240/2/4
f 240/2/4 239/2/4 241/2/4
f 242/2/4 243/2/4 244/2/4
f 244/2/4 243/2/4 245/2/4
f 250/3/5 247/3/5 246/3/5
f 251/4/5 248/4/5 247/4/5
f 251/3/5 247/3/5 250/3/5
f 252/4/5 250/4/5 249/4/5
f 252/4/5 251/4/5 250/4/5
f 253/4/5 248/4/5 251/4/5
f 253/4/5 251/4/5 252/4/5
f 256/3/5 255/3/5 254/3/5
f 257/3/5 255/3/5 256/3/5
f 260/2/5 259/2/5 258/2/5
f 265/2/5 264/2/5 263/2/5
f 266/2/5 264/2/5 265/2/5
f 267/2/5 260/2/5 258/2/5
f 267/2/5 261/2/5 260/2/5
f 267/2/5 262/2/5 261/2/5
f 268/2/5 262/2/5 267/2/5
f 269/2/5 262/2/5 268/2/5
f 270/1/5 268/1/5 267/1/5
f 271/1/5 268/1/5 270/1/5
f 272/2/5 271/2/5 270/2/5
f 273/2/5 271/2/5 272/2/5
f 276/2/5 275/2/5 274/2/5
f 277/2/5 275/2/5 276/2/5
f 280/2/5 279/2/5 278/2/5
f 281/2/5 279/2/5 280/2/5
f 284/2/5 283/2/5 282/2/5
f 285/2/5 283/2/5 284/2/5
f 288/2/5 287/2/5 286/2/5
f 289/2/5 287/2/5 288/2/5
f 292/2/5 291/2/5 290/2/5
f 293/2/5 291/2/5 292/2/5
f 296/1/5 295/1/5 294/1/5
f 297/1/5 295/1/5 296/1/5
f 302/4/5 299/4/5 298/4/5
f 303/5/5 300/5/5 299/5/5
f 303/4/5 299/4/5 302/4/5
f 304/4/5 301/4/5 300/4/5
f 304/5/5 300/5/5 303/5/5
f 305/4/5 301/4/5 304/4/5
f 306/3/6 307/3/6 310/3/6
f 310/3/6 307/3/6 311/3/6
f 308/4/6 309/4/6 313/4/6
f 312/4/6 313/4/6 314/4/6
f 313/4/6 309/4/6 315/4/6
f 314/4/6 313/4/6 315/4/6
f 316/3/6 317/3/6 318/3/6
f 318/3/6 317/3/6 319/3/6
f 320/2/6 321/2/6 324/2/6
f 322/3/6 323/3/6 325/3/6
f 325/3/6 323/3/6 326/3/6
f 320/2/6 324/2/6 327/2/6
f 327/2/6 324/2/6 328/2/6
f 329/2/6 330/2/6 331/2/6
f 331/2/6 330/2/6 332/2/6
f 333/2/6 334/2/6 335/2/6
f 335/2/6 334/2/6 336/2/6
f 337/2/6 338/2/6 339/2/6
f 339/2/6 338/2/6 340/2/6
f 341/2/6 342/2/6 343/2/6
f 343/2/6 342/2/6 344/2/6
f 345/2/6 346/2/6 347/2/6
f 347/2/6 346/2/6 348/2/6
f 349/4/6 350/4/6 351/4/6
f 351/4/6 350/4/6 352/4/6
f 353/4/6 354/4/6 358/4/6
f 358/4/6 354/4/6 359/4/6
f 355/4/6 356/4/6 360/4/6
f 357/1/6 358/1/6 361/1/6
f 358/4/6 359/4/6 362/4/6
f 361/1/6 358/1/6 362/1/6
f 359/4/6 360/4/6 362/4/6
f 360/4/6 356/4/6 363/4/6
f 362/4/6 360/4/6 363/4/6
f 364/4/6 365/4/6 366/4/6
f 366/4/6 365/4/6 367/4/6
