# MagicaVoxel @ Ephtracy

# group
o 

# material
mtllib archer_walk_1.mtl
usemtl palette

# normals
vn -1 0 0
vn 1 0 0
vn 0 0 1
vn 0 0 -1
vn 0 -1 0
vn 0 1 0

# texcoords
vt 0.732422 0.5
vt 0.783203 0.5
vt 0.814453 0.5
vt 0.826172 0.5
vt 0.970703 0.5

# verts
v -0.3 0.2 0.1
v -0.3 0.2 -0.2
v -0.3 0.2 -0.3
v -0.3 0.2 -0.6
v -0.3 0.3 0.2
v -0.3 0.3 0.1
v -0.3 0.3 -0.2
v -0.3 0.3 -0.3
v -0.3 0.3 -0.6
v -0.3 0.3 -0.7
v -0.3 0.4 0.3
v -0.3 0.4 0.2
v -0.3 0.4 0.1
v -0.3 0.4 -0.6
v -0.3 0.4 -0.7
v -0.3 0.4 -0.8
v -0.3 0.5 0.3
v -0.3 0.5 0.2
v -0.3 0.5 -0.1
v -0.3 0.5 -0.2
v -0.3 0.5 -0.7
v -0.3 0.5 -0.8
v -0.3 0.7 -0.1
v -0.3 0.7 -0.3
v -0.2 0 -0.2
v -0.2 0 -0.4
v -0.2 0.1 -0.3
v -0.2 0.1 -0.4
v -0.2 0.2 -0.2
v -0.2 0.2 -0.3
v -0.2 0.3 -2.98023e-08
v -0.2 0.3 -0.2
v -0.2 0.4 -2.98023e-08
v -0.2 0.4 -0.2
v -0.2 0.5 -2.98023e-08
v -0.2 0.5 -0.1
v -0.2 0.5 -0.2
v -0.2 0.6 -2.98023e-08
v -0.2 0.6 -0.1
v -0.2 0.7 -2.98023e-08
v -0.2 0.7 -0.1
v -0.1 0 -2.98023e-08
v -0.1 0 -0.2
v -0.1 0.1 -2.98023e-08
v -0.1 0.1 -0.1
v -0.1 0.2 -0.1
v -0.1 0.2 -0.2
v -0.1 0.7 0.1
v -0.1 0.7 -2.98023e-08
v -0.1 0.7 -0.2
v -0.1 1.1 0.1
v -0.1 1.1 -0.2
v 0.1 0.1 0.2
v 0.1 0.1 -2.98023e-08
v 0.1 0.2 0.2
v 0.1 0.2 0.1
v 0.1 0.2 -2.98023e-08
v 0.1 0.2 -0.2
v 0.1 0.3 0.1
v 0.1 0.3 -2.98023e-08
v 0.1 0.3 -0.2
v 0.2 0 -2.98023e-08
v 0.2 0 -0.2
v 0.2 0.1 -2.98023e-08
v 0.2 0.2 -2.98023e-08
v 0.2 0.2 -0.2
v -0.2 0.2 0.1
v -0.2 0.2 -2.98023e-08
v -0.2 0.2 -0.3
v -0.2 0.2 -0.6
v -0.2 0.3 0.2
v -0.2 0.3 0.1
v -0.2 0.3 -2.98023e-08
v -0.2 0.3 -0.3
v -0.2 0.3 -0.6
v -0.2 0.3 -0.7
v -0.2 0.4 0.3
v -0.2 0.4 0.2
v -0.2 0.4 0.1
v -0.2 0.4 -0.6
v -0.2 0.4 -0.7
v -0.2 0.4 -0.8
v -0.2 0.5 0.3
v -0.2 0.5 0.2
v -0.2 0.5 -0.7
v -0.2 0.5 -0.8
v 2.98023e-08 0 -2.98023e-08
v 2.98023e-08 0 -0.2
v 2.98023e-08 0.1 -2.98023e-08
v 2.98023e-08 0.1 -0.1
v 2.98023e-08 0.2 -2.98023e-08
v 2.98023e-08 0.2 -0.1
v 2.98023e-08 0.2 -0.2
v 2.98023e-08 0.3 -2.98023e-08
v 2.98023e-08 0.3 -0.2
v 0.2 0.1 0.2
v 0.2 0.1 -2.98023e-08
v 0.2 0.2 0.2
v 0.2 0.2 0.1
v 0.2 0.3 0.1
v 0.2 0.3 -2.98023e-08
v 0.2 0.7 0.1
v 0.2 0.7 -2.98023e-08
v 0.2 0.7 -0.2
v 0.2 1.1 0.1
v 0.2 1.1 -0.2
v 0.3 0.6 -2.98023e-08
v 0.3 0.6 -0.3
v 0.3 0.7 -2.98023e-08
v 0.3 0.7 -0.3
v 0.4 0.1 -2.98023e-08
v 0.4 0.1 -0.3
v 0.4 0.6 -2.98023e-08
v 0.4 0.6 -0.3
v 0.5 0 -2.98023e-08
v 0.5 0 -0.4
v 0.5 0.1 -2.98023e-08
v 0.5 0.1 -0.4
v -0.3 0.4 0.3
v -0.3 0.5 0.3
v -0.2 0.4 0.3
v -0.2 0.5 0.3
v -0.3 0.3 0.2
v -0.3 0.4 0.2
v -0.2 0.3 0.2
v -0.2 0.4 0.2
v 0.1 0.1 0.2
v 0.1 0.2 0.2
v 0.2 0.1 0.2
v 0.2 0.2 0.2
v -0.3 0.2 0.1
v -0.3 0.3 0.1
v -0.2 0.2 0.1
v -0.2 0.3 0.1
v -0.1 0.7 0.1
v -0.1 1.1 0.1
v 2.98023e-08 0.7 0.1
v 2.98023e-08 1 0.1
v 0.1 0.2 0.1
v 0.1 0.3 0.1
v 0.1 0.7 0.1
v 0.1 1 0.1
v 0.2 0.2 0.1
v 0.2 0.3 0.1
v 0.2 0.7 0.1
v 0.2 1.1 0.1
v -0.2 0.2 -2.98023e-08
v -0.2 0.3 -2.98023e-08
v -0.2 0.4 -2.98023e-08
v -0.2 0.5 -2.98023e-08
v -0.2 0.6 -2.98023e-08
v -0.2 0.7 -2.98023e-08
v -0.1 0 -2.98023e-08
v -0.1 0.1 -2.98023e-08
v -0.1 0.6 -2.98023e-08
v -0.1 0.7 -2.98023e-08
v 2.98023e-08 0 -2.98023e-08
v 2.98023e-08 0.1 -2.98023e-08
v 2.98023e-08 0.2 -2.98023e-08
v 2.98023e-08 0.3 -2.98023e-08
v 2.98023e-08 0.5 -2.98023e-08
v 2.98023e-08 0.6 -2.98023e-08
v 2.98023e-08 0.7 -2.98023e-08
v 0.1 0.3 -2.98023e-08
v 0.1 0.5 -2.98023e-08
v 0.1 0.6 -2.98023e-08
v 0.1 0.7 -2.98023e-08
v 0.2 0 -2.98023e-08
v 0.2 0.1 -2.98023e-08
v 0.2 0.3 -2.98023e-08
v 0.2 0.4 -2.98023e-08
v 0.2 0.5 -2.98023e-08
v 0.2 0.6 -2.98023e-08
v 0.2 0.7 -2.98023e-08
v 0.3 0.6 -2.98023e-08
v 0.3 0.7 -2.98023e-08
v 0.4 0.1 -2.98023e-08
v 0.4 0.6 -2.98023e-08
v 0.5 0 -2.98023e-08
v 0.5 0.1 -2.98023e-08
v -0.3 0.5 -0.1
v -0.3 0.7 -0.1
v -0.2 0.5 -0.1
v -0.2 0.6 -0.1
v -0.2 0.7 -0.1
v -0.1 0.1 -0.1
v -0.1 0.2 -0.1
v 2.98023e-08 0.1 -0.1
v 2.98023e-08 0.2 -0.1
v -0.3 0.3 -0.2
v -0.3 0.5 -0.2
v -0.2 0 -0.2
v -0.2 0.2 -0.2
v -0.2 0.3 -0.2
v -0.2 0.4 -0.2
v -0.2 0.5 -0.2
v -0.1 0 -0.2
v -0.1 0.2 -0.2
v 2.98023e-08 0 -0.2
v 2.98023e-08 0.2 -0.2
v 2.98023e-08 0.3 -0.2
v 0.1 0.2 -0.2
v 0.1 0.3 -0.2
v 0.2 0 -0.2
v 0.2 0.2 -0.2
v -0.3 0.3 -0.6
v -0.3 0.4 -0.6
v -0.2 0.3 -0.6
v -0.2 0.4 -0.6
v -0.3 0.4 -0.7
v -0.3 0.5 -0.7
v -0.2 0.4 -0.7
v -0.2 0.5 -0.7
v -0.3 0.4 0.2
v -0.3 0.5 0.2
v -0.2 0.4 0.2
v -0.2 0.5 0.2
v -0.3 0.3 0.1
v -0.3 0.4 0.1
v -0.2 0.3 0.1
v -0.2 0.4 0.1
v 0.1 0.1 -2.98023e-08
v 0.1 0.2 -2.98023e-08
v 0.2 0.1 -2.98023e-08
v 0.2 0.2 -2.98023e-08
v -0.1 0.7 -0.2
v -0.1 1.1 -0.2
v 0.2 0.7 -0.2
v 0.2 1.1 -0.2
v -0.3 0.3 -0.3
v -0.3 0.7 -0.3
v -0.2 0.1 -0.3
v -0.2 0.2 -0.3
v -0.2 0.3 -0.3
v -0.2 0.7 -0.3
v 0.3 0.6 -0.3
v 0.3 0.7 -0.3
v 0.4 0.1 -0.3
v 0.4 0.6 -0.3
v -0.2 0 -0.4
v -0.2 0.1 -0.4
v 0.5 0 -0.4
v 0.5 0.1 -0.4
v -0.3 0.2 -0.6
v -0.3 0.3 -0.6
v -0.2 0.2 -0.6
v -0.2 0.3 -0.6
v -0.3 0.3 -0.7
v -0.3 0.4 -0.7
v -0.2 0.3 -0.7
v -0.2 0.4 -0.7
v -0.3 0.4 -0.8
v -0.3 0.5 -0.8
v -0.2 0.4 -0.8
v -0.2 0.5 -0.8
v -0.1 0 -2.98023e-08
v 2.98023e-08 0 -2.98023e-08
v 0.2 0 -2.98023e-08
v 0.5 0 -2.98023e-08
v -0.2 0 -0.2
v -0.1 0 -0.2
v 2.98023e-08 0 -0.2
v 0.2 0 -0.2
v -0.2 0 -0.4
v 0.5 0 -0.4
v 0.1 0.1 0.2
v 0.2 0.1 0.2
v 0.1 0.1 -2.98023e-08
v 0.2 0.1 -2.98023e-08
v -0.3 0.2 0.1
v -0.2 0.2 0.1
v -0.2 0.2 -2.98023e-08
v 2.98023e-08 0.2 -2.98023e-08
v 0.1 0.2 -2.98023e-08
v 0.2 0.2 -2.98023e-08
v -0.1 0.2 -0.1
v 2.98023e-08 0.2 -0.1
v -0.3 0.2 -0.2
v -0.2 0.2 -0.2
v -0.1 0.2 -0.2
v 0.1 0.2 -0.2
v 0.2 0.2 -0.2
v -0.3 0.2 -0.3
v -0.2 0.2 -0.3
v -0.3 0.2 -0.6
v -0.2 0.2 -0.6
v -0.3 0.3 0.2
v -0.2 0.3 0.2
v -0.3 0.3 0.1
v -0.2 0.3 0.1
v 2.98023e-08 0.3 -2.98023e-08
v 0.1 0.3 -2.98023e-08
v 2.98023e-08 0.3 -0.2
v 0.1 0.3 -0.2
v -0.3 0.3 -0.6
v -0.2 0.3 -0.6
v -0.3 0.3 -0.7
v -0.2 0.3 -0.7
v -0.3 0.4 0.3
v -0.2 0.4 0.3
v -0.3 0.4 0.2
v -0.2 0.4 0.2
v -0.3 0.4 -0.7
v -0.2 0.4 -0.7
v -0.3 0.4 -0.8
v -0.2 0.4 -0.8
v -0.3 0.5 -0.1
v -0.2 0.5 -0.1
v -0.3 0.5 -0.2
v -0.2 0.5 -0.2
v -0.1 0.7 0.1
v 2.98023e-08 0.7 0.1
v 0.1 0.7 0.1
v 0.2 0.7 0.1
v -0.1 0.7 -2.98023e-08
v 2.98023e-08 0.7 -2.98023e-08
v 0.1 0.7 -2.98023e-08
v 0.2 0.7 -2.98023e-08
v -0.1 0.1 -2.98023e-08
v 2.98023e-08 0.1 -2.98023e-08
v 0.4 0.1 -2.98023e-08
v 0.5 0.1 -2.98023e-08
v -0.1 0.1 -0.1
v 2.98023e-08 0.1 -0.1
v -0.2 0.1 -0.3
v 0.4 0.1 -0.3
v -0.2 0.1 -0.4
v 0.5 0.1 -0.4
v 0.1 0.2 0.2
v 0.2 0.2 0.2
v 0.1 0.2 0.1
v 0.2 0.2 0.1
v -0.3 0.3 0.1
v -0.2 0.3 0.1
v 0.1 0.3 0.1
v 0.2 0.3 0.1
v -0.2 0.3 -2.98023e-08
v 0.1 0.3 -2.98023e-08
v 0.2 0.3 -2.98023e-08
v -0.3 0.3 -0.2
v -0.2 0.3 -0.2
v -0.3 0.3 -0.3
v -0.2 0.3 -0.3
v -0.3 0.3 -0.6
v -0.2 0.3 -0.6
v -0.3 0.4 0.2
v -0.2 0.4 0.2
v -0.3 0.4 0.1
v -0.2 0.4 0.1
v -0.3 0.4 -0.6
v -0.2 0.4 -0.6
v -0.3 0.4 -0.7
v -0.2 0.4 -0.7
v -0.3 0.5 0.3
v -0.2 0.5 0.3
v -0.3 0.5 0.2
v -0.2 0.5 0.2
v -0.3 0.5 -0.7
v -0.2 0.5 -0.7
v -0.3 0.5 -0.8
v -0.2 0.5 -0.8
v 0.3 0.6 -2.98023e-08
v 0.4 0.6 -2.98023e-08
v 0.3 0.6 -0.3
v 0.4 0.6 -0.3
v -0.2 0.7 -2.98023e-08
v -0.1 0.7 -2.98023e-08
v 0.2 0.7 -2.98023e-08
v 0.3 0.7 -2.98023e-08
v -0.3 0.7 -0.1
v -0.2 0.7 -0.1
v -0.1 0.7 -0.2
v 0.2 0.7 -0.2
v -0.3 0.7 -0.3
v -0.2 0.7 -0.3
v 0.3 0.7 -0.3
v -0.1 1.1 0.1
v 0.2 1.1 0.1
v -0.1 1.1 -0.2
v 0.2 1.1 -0.2

# faces
f 6/2/1 2/2/1 1/2/1
f 7/1/1 3/1/1 2/1/1
f 7/2/1 2/2/1 6/2/1
f 8/2/1 4/2/1 3/2/1
f 8/1/1 3/1/1 7/1/1
f 9/2/1 4/2/1 8/2/1
f 12/2/1 6/2/1 5/2/1
f 13/2/1 6/2/1 12/2/1
f 14/2/1 10/2/1 9/2/1
f 15/2/1 10/2/1 14/2/1
f 17/2/1 12/2/1 11/2/1
f 18/2/1 12/2/1 17/2/1
f 20/1/1 8/1/1 7/1/1
f 21/2/1 16/2/1 15/2/1
f 22/2/1 16/2/1 21/2/1
f 23/1/1 20/1/1 19/1/1
f 24/1/1 8/1/1 20/1/1
f 24/1/1 20/1/1 23/1/1
f 27/4/1 26/4/1 25/4/1
f 28/4/1 26/4/1 27/4/1
f 29/4/1 27/4/1 25/4/1
f 30/4/1 27/4/1 29/4/1
f 33/2/1 32/2/1 31/2/1
f 34/2/1 32/2/1 33/2/1
f 35/3/1 34/3/1 33/3/1
f 36/3/1 34/3/1 35/3/1
f 37/3/1 34/3/1 36/3/1
f 38/2/1 36/2/1 35/2/1
f 39/2/1 36/2/1 38/2/1
f 40/4/1 39/4/1 38/4/1
f 41/4/1 39/4/1 40/4/1
f 44/3/1 43/3/1 42/3/1
f 45/3/1 43/3/1 44/3/1
f 46/3/1 43/3/1 45/3/1
f 47/3/1 43/3/1 46/3/1
f 51/4/1 49/4/1 48/4/1
f 51/4/1 50/4/1 49/4/1
f 52/4/1 50/4/1 51/4/1
f 55/3/1 54/3/1 53/3/1
f 56/3/1 54/3/1 55/3/1
f 57/3/1 54/3/1 56/3/1
f 59/3/1 57/3/1 56/3/1
f 60/2/1 58/2/1 57/2/1
f 60/3/1 57/3/1 59/3/1
f 61/2/1 58/2/1 60/2/1
f 64/4/1 63/4/1 62/4/1
f 65/4/1 63/4/1 64/4/1
f 66/4/1 63/4/1 65/4/1
f 67/2/2 68/2/2 72/2/2
f 72/2/2 68/2/2 73/2/2
f 69/2/2 70/2/2 74/2/2
f 74/2/2 70/2/2 75/2/2
f 71/2/2 72/2/2 78/2/2
f 78/2/2 72/2/2 79/2/2
f 75/2/2 76/2/2 80/2/2
f 80/2/2 76/2/2 81/2/2
f 77/2/2 78/2/2 83/2/2
f 83/2/2 78/2/2 84/2/2
f 81/2/2 82/2/2 85/2/2
f 85/2/2 82/2/2 86/2/2
f 87/3/2 88/3/2 89/3/2
f 89/3/2 88/3/2 90/3/2
f 90/3/2 88/3/2 92/3/2
f 92/3/2 88/3/2 93/3/2
f 91/2/2 92/2/2 94/2/2
f 92/2/2 93/2/2 94/2/2
f 94/2/2 93/2/2 95/2/2
f 96/3/2 97/3/2 98/3/2
f 98/3/2 97/3/2 99/3/2
f 99/3/2 97/3/2 100/3/2
f 100/3/2 97/3/2 101/3/2
f 102/4/2 103/4/2 105/4/2
f 103/4/2 104/4/2 105/4/2
f 105/4/2 104/4/2 106/4/2
f 107/4/2 108/4/2 109/4/2
f 109/4/2 108/4/2 110/4/2
f 111/4/2 112/4/2 113/4/2
f 113/4/2 112/4/2 114/4/2
f 115/4/2 116/4/2 117/4/2
f 117/4/2 116/4/2 118/4/2
f 121/2/3 120/2/3 119/2/3
f 122/2/3 120/2/3 121/2/3
f 125/2/3 124/2/3 123/2/3
f 126/2/3 124/2/3 125/2/3
f 129/3/3 128/3/3 127/3/3
f 130/3/3 128/3/3 129/3/3
f 133/2/3 132/2/3 131/2/3
f 134/2/3 132/2/3 133/2/3
f 137/4/3 136/4/3 135/4/3
f 138/4/3 136/4/3 137/4/3
f 141/5/3 138/5/3 137/5/3
f 142/4/3 136/4/3 138/4/3
f 142/5/3 138/5/3 141/5/3
f 143/3/3 140/3/3 139/3/3
f 144/3/3 140/3/3 143/3/3
f 145/4/3 142/4/3 141/4/3
f 146/4/3 136/4/3 142/4/3
f 146/4/3 142/4/3 145/4/3
f 155/2/3 151/2/3 150/2/3
f 155/4/3 152/4/3 151/4/3
f 156/4/3 152/4/3 155/4/3
f 157/3/3 154/3/3 153/3/3
f 158/3/3 154/3/3 157/3/3
f 159/2/3 148/2/3 147/2/3
f 159/2/3 149/2/3 148/2/3
f 160/2/3 149/2/3 159/2/3
f 161/3/3 150/3/3 149/3/3
f 161/2/3 155/2/3 150/2/3
f 161/2/3 156/2/3 155/2/3
f 162/2/3 156/2/3 161/2/3
f 163/2/3 156/2/3 162/2/3
f 164/2/3 149/2/3 160/2/3
f 165/3/3 162/3/3 161/3/3
f 165/3/3 161/3/3 149/3/3
f 166/2/3 163/2/3 162/2/3
f 166/3/3 162/3/3 165/3/3
f 167/2/3 163/2/3 166/2/3
f 170/2/3 149/2/3 164/2/3
f 171/3/3 165/3/3 149/3/3
f 171/2/3 149/2/3 170/2/3
f 172/2/3 166/2/3 165/2/3
f 172/3/3 165/3/3 171/3/3
f 173/3/3 167/3/3 166/3/3
f 173/2/3 166/2/3 172/2/3
f 174/3/3 167/3/3 173/3/3
f 175/4/3 170/4/3 169/4/3
f 175/4/3 169/4/3 168/4/3
f 175/4/3 174/4/3 173/4/3
f 175/4/3 173/4/3 172/4/3
f 175/4/3 171/4/3 170/4/3
f 175/4/3 172/4/3 171/4/3
f 176/4/3 174/4/3 175/4/3
f 177/4/3 175/4/3 168/4/3
f 178/4/3 175/4/3 177/4/3
f 179/4/3 177/4/3 168/4/3
f 180/4/3 177/4/3 179/4/3
f 183/1/3 182/1/3 181/1/3
f 184/1/3 182/1/3 183/1/3
f 185/1/3 182/1/3 184/1/3
f 188/3/3 187/3/3 186/3/3
f 189/3/3 187/3/3 188/3/3
f 194/1/3 191/1/3 190/1/3
f 195/1/3 191/1/3 194/1/3
f 196/1/3 191/1/3 195/1/3
f 197/4/3 193/4/3 192/4/3
f 198/4/3 193/4/3 197/4/3
f 202/4/3 200/4/3 199/4/3
f 202/4/3 201/4/3 200/4/3
f 203/4/3 201/4/3 202/4/3
f 204/4/3 202/4/3 199/4/3
f 205/4/3 202/4/3 204/4/3
f 208/2/3 207/2/3 206/2/3
f 209/2/3 207/2/3 208/2/3
f 212/2/3 211/2/3 210/2/3
f 213/2/3 211/2/3 212/2/3
f 214/2/4 215/2/4 216/2/4
f 216/2/4 215/2/4 217/2/4
f 218/2/4 219/2/4 220/2/4
f 220/2/4 219/2/4 221/2/4
f 222/3/4 223/3/4 224/3/4
f 224/3/4 223/3/4 225/3/4
f 226/4/4 227/4/4 228/4/4
f 228/4/4 227/4/4 229/4/4
f 230/1/4 231/1/4 234/1/4
f 234/1/4 231/1/4 235/1/4
f 232/4/4 233/4/4 236/4/4
f 233/4/4 234/4/4 236/4/4
f 234/4/4 235/4/4 236/4/4
f 236/4/4 235/4/4 237/4/4
f 232/4/4 236/4/4 238/4/4
f 238/4/4 236/4/4 239/4/4
f 240/4/4 241/4/4 242/4/4
f 242/4/4 241/4/4 243/4/4
f 244/2/4 245/2/4 246/2/4
f 246/2/4 245/2/4 247/2/4
f 248/2/4 249/2/4 250/2/4
f 250/2/4 249/2/4 251/2/4
f 252/2/4 253/2/4 254/2/4
f 254/2/4 253/2/4 255/2/4
f 261/3/5 257/3/5 256/3/5
f 262/3/5 257/3/5 261/3/5
f 263/4/5 259/4/5 258/4/5
f 264/4/5 262/4/5 261/4/5
f 264/4/5 263/4/5 262/4/5
f 264/4/5 261/4/5 260/4/5
f 265/4/5 259/4/5 263/4/5
f 265/4/5 263/4/5 264/4/5
f 268/3/5 267/3/5 266/3/5
f 269/3/5 267/3/5 268/3/5
f 272/2/5 271/2/5 270/2/5
f 276/2/5 273/2/5 272/2/5
f 277/2/5 273/2/5 276/2/5
f 278/2/5 272/2/5 270/2/5
f 278/2/5 276/2/5 272/2/5
f 279/2/5 276/2/5 278/2/5
f 280/2/5 276/2/5 279/2/5
f 281/2/5 275/2/5 274/2/5
f 282/2/5 275/2/5 281/2/5
f 283/1/5 279/1/5 278/1/5
f 284/1/5 279/1/5 283/1/5
f 285/2/5 284/2/5 283/2/5
f 286/2/5 284/2/5 285/2/5
f 289/2/5 288/2/5 287/2/5
f 290/2/5 288/2/5 289/2/5
f 293/2/5 292/2/5 291/2/5
f 294/2/5 292/2/5 293/2/5
f 297/2/5 296/2/5 295/2/5
f 298/2/5 296/2/5 297/2/5
f 301/2/5 300/2/5 299/2/5
f 302/2/5 300/2/5 301/2/5
f 305/2/5 304/2/5 303/2/5
f 306/2/5 304/2/5 305/2/5
f 309/1/5 308/1/5 307/1/5
f 310/1/5 308/1/5 309/1/5
f 315/4/5 312/4/5 311/4/5
f 316/5/5 313/5/5 312/5/5
f 316/4/5 312/4/5 315/4/5
f 317/4/5 314/4/5 313/4/5
f 317/5/5 313/5/5 316/5/5
f 318/4/5 314/4/5 317/4/5
f 319/3/6 320/3/6 323/3/6
f 323/3/6 320/3/6 324/3/6
f 321/4/6 322/4/6 326/4/6
f 325/4/6 326/4/6 327/4/6
f 326/4/6 322/4/6 328/4/6
f 327/4/6 326/4/6 328/4/6
f 329/3/6 330/3/6 331/3/6
f 331/3/6 330/3/6 332/3/6
f 333/2/6 334/2/6 337/2/6
f 335/3/6 336/3/6 338/3/6
f 338/3/6 336/3/6 339/3/6
f 333/2/6 337/2/6 340/2/6
f 340/2/6 337/2/6 341/2/6
f 342/2/6 343/2/6 344/2/6
f 344/2/6 343/2/6 345/2/6
f 346/2/6 347/2/6 348/2/6
f 348/2/6 347/2/6 349/2/6
f 350/2/6 351/2/6 352/2/6
f 352/2/6 351/2/6 353/2/6
f 354/2/6 355/2/6 356/2/6
f 356/2/6 355/2/6 357/2/6
f 358/2/6 359/2/6 360/2/6
f 360/2/6 359/2/6 361/2/6
f 362/4/6 363/4/6 364/4/6
f 364/4/6 363/4/6 365/4/6
f 366/4/6 367/4/6 371/4/6
f 371/4/6 367/4/6 372/4/6
f 368/4/6 369/4/6 373/4/6
f 370/1/6 371/1/6 374/1/6
f 371/4/6 372/4/6 375/4/6
f 374/1/6 371/1/6 375/1/6
f 372/4/6 373/4/6 375/4/6
f 373/4/6 369/4/6 376/4/6
f 375/4/6 373/4/6 376/4/6
f 377/4/6 378/4/6 379/4/6
f 379/4/6 378/4/6 380/4/6
