# MagicaVoxel @ Ephtracy

# group
o 

# material
mtllib archer_walk_0.mtl
usemtl palette

# normals
vn -1 0 0
vn 1 0 0
vn 0 0 1
vn 0 0 -1
vn 0 -1 0
vn 0 1 0

# texcoords
vt 0.732422 0.5
vt 0.783203 0.5
vt 0.814453 0.5
vt 0.826172 0.5
vt 0.970703 0.5

# verts
v -0.3 0.3 0.1
v -0.3 0.3 -0.2
v -0.3 0.3 -0.3
v -0.3 0.3 -0.6
v -0.3 0.4 0.2
v -0.3 0.4 0.1
v -0.3 0.4 -0.2
v -0.3 0.4 -0.3
v -0.3 0.4 -0.6
v -0.3 0.4 -0.7
v -0.3 0.5 0.3
v -0.3 0.5 0.2
v -0.3 0.5 0.1
v -0.3 0.5 -0.6
v -0.3 0.5 -0.7
v -0.3 0.5 -0.8
v -0.3 0.6 0.3
v -0.3 0.6 0.2
v -0.3 0.6 -0.1
v -0.3 0.6 -0.2
v -0.3 0.6 -0.7
v -0.3 0.6 -0.8
v -0.3 0.8 -0.1
v -0.3 0.8 -0.3
v -0.2 0 -0.2
v -0.2 0 -0.4
v -0.2 0.1 -0.3
v -0.2 0.1 -0.4
v -0.2 0.2 0.1
v -0.2 0.2 -0.1
v -0.2 0.3 0.1
v -0.2 0.3 -0.1
v -0.2 0.3 -0.2
v -0.2 0.3 -0.3
v -0.2 0.4 -2.98023e-08
v -0.2 0.4 -0.2
v -0.2 0.5 -2.98023e-08
v -0.2 0.5 -0.2
v -0.2 0.6 -0.1
v -0.2 0.6 -0.2
v -0.2 0.7 -2.98023e-08
v -0.2 0.7 -0.1
v -0.2 0.8 -2.98023e-08
v -0.2 0.8 -0.1
v -0.1 0 0.2
v -0.1 0 -2.98023e-08
v -0.1 0.1 0.2
v -0.1 0.1 0.1
v -0.1 0.2 0.1
v -0.1 0.2 -2.98023e-08
v -0.1 0.8 0.1
v -0.1 0.8 -2.98023e-08
v -0.1 0.8 -0.2
v -0.1 1.2 0.1
v -0.1 1.2 -0.2
v 0.1 0.1 -0.1
v 0.1 0.1 -0.2
v 0.1 0.1 -0.3
v 0.1 0.1 -0.4
v 0.1 0.2 -2.98023e-08
v 0.1 0.2 -0.1
v 0.1 0.2 -0.2
v 0.1 0.3 -2.98023e-08
v 0.1 0.3 -0.2
v 0.1 0.4 -0.3
v 0.1 0.4 -0.4
v 0.2 0 0.1
v 0.2 0 -0.2
v 0.2 0.1 -0.1
v 0.2 0.1 -0.2
v 0.2 0.2 -2.98023e-08
v 0.2 0.2 -0.1
v 0.2 0.4 -2.98023e-08
v 0.2 0.5 -2.98023e-08
v 0.2 0.7 0.1
v 0.2 0.7 -2.98023e-08
v -0.2 0.3 -0.3
v -0.2 0.3 -0.6
v -0.2 0.4 0.2
v -0.2 0.4 0.1
v -0.2 0.4 -0.3
v -0.2 0.4 -0.6
v -0.2 0.4 -0.7
v -0.2 0.5 0.3
v -0.2 0.5 0.2
v -0.2 0.5 0.1
v -0.2 0.5 -0.6
v -0.2 0.5 -0.7
v -0.2 0.5 -0.8
v -0.2 0.6 0.3
v -0.2 0.6 0.2
v -0.2 0.6 -0.7
v -0.2 0.6 -0.8
v 2.98023e-08 0 0.2
v 2.98023e-08 0 -2.98023e-08
v 2.98023e-08 0.1 0.2
v 2.98023e-08 0.1 0.1
v 2.98023e-08 0.2 0.1
v 2.98023e-08 0.2 -2.98023e-08
v 2.98023e-08 0.2 -0.1
v 2.98023e-08 0.3 -2.98023e-08
v 2.98023e-08 0.3 -0.1
v 2.98023e-08 0.4 0.1
v 2.98023e-08 0.4 -2.98023e-08
v 0.2 0.8 0.1
v 0.2 0.8 -2.98023e-08
v 0.2 0.8 -0.2
v 0.2 1.2 0.1
v 0.2 1.2 -0.2
v 0.3 0.7 -2.98023e-08
v 0.3 0.7 -0.3
v 0.3 0.8 -2.98023e-08
v 0.3 0.8 -0.3
v 0.4 0.1 0.1
v 0.4 0.1 -0.4
v 0.4 0.4 -0.3
v 0.4 0.4 -0.4
v 0.4 0.7 0.1
v 0.4 0.7 -0.3
v 0.5 0 0.1
v 0.5 0 -0.4
v 0.5 0.1 0.1
v 0.5 0.1 -0.4
v -0.3 0.5 0.3
v -0.3 0.6 0.3
v -0.2 0.5 0.3
v -0.2 0.6 0.3
v -0.3 0.4 0.2
v -0.3 0.5 0.2
v -0.2 0.4 0.2
v -0.2 0.5 0.2
v -0.1 0 0.2
v -0.1 0.1 0.2
v 2.98023e-08 0 0.2
v 2.98023e-08 0.1 0.2
v -0.3 0.3 0.1
v -0.3 0.4 0.1
v -0.2 0.2 0.1
v -0.2 0.3 0.1
v -0.2 0.4 0.1
v -0.1 0.1 0.1
v -0.1 0.2 0.1
v -0.1 0.8 0.1
v -0.1 1.2 0.1
v 2.98023e-08 0.1 0.1
v 2.98023e-08 0.2 0.1
v 2.98023e-08 0.4 0.1
v 2.98023e-08 0.8 0.1
v 2.98023e-08 1.1 0.1
v 0.1 0.8 0.1
v 0.1 1.1 0.1
v 0.2 0 0.1
v 0.2 0.7 0.1
v 0.2 0.8 0.1
v 0.2 1.2 0.1
v 0.4 0.1 0.1
v 0.4 0.7 0.1
v 0.5 0 0.1
v 0.5 0.1 0.1
v -0.2 0.4 -2.98023e-08
v -0.2 0.5 -2.98023e-08
v -0.2 0.7 -2.98023e-08
v -0.2 0.8 -2.98023e-08
v -0.1 0.5 -2.98023e-08
v -0.1 0.6 -2.98023e-08
v -0.1 0.7 -2.98023e-08
v -0.1 0.8 -2.98023e-08
v 2.98023e-08 0.3 -2.98023e-08
v 2.98023e-08 0.4 -2.98023e-08
v 2.98023e-08 0.5 -2.98023e-08
v 2.98023e-08 0.6 -2.98023e-08
v 2.98023e-08 0.7 -2.98023e-08
v 2.98023e-08 0.8 -2.98023e-08
v 0.1 0.2 -2.98023e-08
v 0.1 0.3 -2.98023e-08
v 0.1 0.6 -2.98023e-08
v 0.1 0.7 -2.98023e-08
v 0.1 0.8 -2.98023e-08
v 0.2 0.2 -2.98023e-08
v 0.2 0.4 -2.98023e-08
v 0.2 0.5 -2.98023e-08
v 0.2 0.7 -2.98023e-08
v 0.2 0.8 -2.98023e-08
v 0.3 0.7 -2.98023e-08
v 0.3 0.8 -2.98023e-08
v -0.3 0.6 -0.1
v -0.3 0.8 -0.1
v -0.2 0.6 -0.1
v -0.2 0.7 -0.1
v -0.2 0.8 -0.1
v 0.1 0.1 -0.1
v 0.1 0.2 -0.1
v 0.2 0.1 -0.1
v 0.2 0.2 -0.1
v -0.3 0.4 -0.2
v -0.3 0.6 -0.2
v -0.2 0 -0.2
v -0.2 0.3 -0.2
v -0.2 0.4 -0.2
v -0.2 0.5 -0.2
v -0.2 0.6 -0.2
v 0.1 0.1 -0.2
v 0.1 0.2 -0.2
v 0.1 0.3 -0.2
v 0.2 0 -0.2
v 0.2 0.1 -0.2
v -0.3 0.4 -0.6
v -0.3 0.5 -0.6
v -0.2 0.4 -0.6
v -0.2 0.5 -0.6
v -0.3 0.5 -0.7
v -0.3 0.6 -0.7
v -0.2 0.5 -0.7
v -0.2 0.6 -0.7
v -0.3 0.5 0.2
v -0.3 0.6 0.2
v -0.2 0.5 0.2
v -0.2 0.6 0.2
v -0.3 0.4 0.1
v -0.3 0.5 0.1
v -0.2 0.4 0.1
v -0.2 0.5 0.1
v -0.1 0 -2.98023e-08
v -0.1 0.2 -2.98023e-08
v 2.98023e-08 0 -2.98023e-08
v 2.98023e-08 0.2 -2.98023e-08
v -0.2 0.2 -0.1
v -0.2 0.3 -0.1
v 2.98023e-08 0.2 -0.1
v 2.98023e-08 0.3 -0.1
v -0.1 0.8 -0.2
v -0.1 1.2 -0.2
v 0.2 0.8 -0.2
v 0.2 1.2 -0.2
v -0.3 0.4 -0.3
v -0.3 0.8 -0.3
v -0.2 0.1 -0.3
v -0.2 0.3 -0.3
v -0.2 0.4 -0.3
v -0.2 0.8 -0.3
v 0.1 0.1 -0.3
v 0.1 0.4 -0.3
v 0.3 0.7 -0.3
v 0.3 0.8 -0.3
v 0.4 0.4 -0.3
v 0.4 0.7 -0.3
v -0.2 0 -0.4
v -0.2 0.1 -0.4
v 0.1 0.1 -0.4
v 0.1 0.4 -0.4
v 0.4 0.1 -0.4
v 0.4 0.4 -0.4
v 0.5 0 -0.4
v 0.5 0.1 -0.4
v -0.3 0.3 -0.6
v -0.3 0.4 -0.6
v -0.2 0.3 -0.6
v -0.2 0.4 -0.6
v -0.3 0.4 -0.7
v -0.3 0.5 -0.7
v -0.2 0.4 -0.7
v -0.2 0.5 -0.7
v -0.3 0.5 -0.8
v -0.3 0.6 -0.8
v -0.2 0.5 -0.8
v -0.2 0.6 -0.8
v -0.1 0 0.2
v 2.98023e-08 0 0.2
v 0.2 0 0.1
v 0.5 0 0.1
v -0.1 0 -2.98023e-08
v 2.98023e-08 0 -2.98023e-08
v -0.2 0 -0.2
v 0.2 0 -0.2
v -0.2 0 -0.4
v 0.5 0 -0.4
v 0.1 0.1 -0.1
v 0.2 0.1 -0.1
v 0.1 0.1 -0.2
v 0.2 0.1 -0.2
v -0.2 0.2 0.1
v -0.1 0.2 0.1
v -0.1 0.2 -2.98023e-08
v 2.98023e-08 0.2 -2.98023e-08
v 0.1 0.2 -2.98023e-08
v 0.2 0.2 -2.98023e-08
v -0.2 0.2 -0.1
v 2.98023e-08 0.2 -0.1
v 0.1 0.2 -0.1
v 0.2 0.2 -0.1
v -0.3 0.3 0.1
v -0.2 0.3 0.1
v 2.98023e-08 0.3 -2.98023e-08
v 0.1 0.3 -2.98023e-08
v -0.2 0.3 -0.1
v 2.98023e-08 0.3 -0.1
v -0.3 0.3 -0.2
v -0.2 0.3 -0.2
v 0.1 0.3 -0.2
v -0.3 0.3 -0.3
v -0.2 0.3 -0.3
v -0.3 0.3 -0.6
v -0.2 0.3 -0.6
v -0.3 0.4 0.2
v -0.2 0.4 0.2
v -0.3 0.4 0.1
v -0.2 0.4 0.1
v -0.3 0.4 -0.6
v -0.2 0.4 -0.6
v -0.3 0.4 -0.7
v -0.2 0.4 -0.7
v -0.3 0.5 0.3
v -0.2 0.5 0.3
v -0.3 0.5 0.2
v -0.2 0.5 0.2
v -0.3 0.5 -0.7
v -0.2 0.5 -0.7
v -0.3 0.5 -0.8
v -0.2 0.5 -0.8
v -0.3 0.6 -0.1
v -0.2 0.6 -0.1
v -0.3 0.6 -0.2
v -0.2 0.6 -0.2
v -0.1 0.8 0.1
v 2.98023e-08 0.8 0.1
v 0.1 0.8 0.1
v 0.2 0.8 0.1
v -0.1 0.8 -2.98023e-08
v 2.98023e-08 0.8 -2.98023e-08
v 0.1 0.8 -2.98023e-08
v 0.2 0.8 -2.98023e-08
v -0.1 0.1 0.2
v 2.98023e-08 0.1 0.2
v -0.1 0.1 0.1
v 2.98023e-08 0.1 0.1
v 0.4 0.1 0.1
v 0.5 0.1 0.1
v -0.2 0.1 -0.3
v 0.1 0.1 -0.3
v -0.2 0.1 -0.4
v 0.1 0.1 -0.4
v 0.4 0.1 -0.4
v 0.5 0.1 -0.4
v -0.3 0.4 0.1
v -0.2 0.4 0.1
v 2.98023e-08 0.4 0.1
v -0.2 0.4 -2.98023e-08
v 2.98023e-08 0.4 -2.98023e-08
v -0.3 0.4 -0.2
v -0.2 0.4 -0.2
v -0.3 0.4 -0.3
v -0.2 0.4 -0.3
v 0.1 0.4 -0.3
v 0.4 0.4 -0.3
v 0.1 0.4 -0.4
v 0.4 0.4 -0.4
v -0.3 0.4 -0.6
v -0.2 0.4 -0.6
v -0.3 0.5 0.2
v -0.2 0.5 0.2
v -0.3 0.5 0.1
v -0.2 0.5 0.1
v -0.3 0.5 -0.6
v -0.2 0.5 -0.6
v -0.3 0.5 -0.7
v -0.2 0.5 -0.7
v -0.3 0.6 0.3
v -0.2 0.6 0.3
v -0.3 0.6 0.2
v -0.2 0.6 0.2
v -0.3 0.6 -0.7
v -0.2 0.6 -0.7
v -0.3 0.6 -0.8
v -0.2 0.6 -0.8
v 0.2 0.7 0.1
v 0.4 0.7 0.1
v 0.2 0.7 -2.98023e-08
v 0.3 0.7 -2.98023e-08
v 0.3 0.7 -0.3
v 0.4 0.7 -0.3
v -0.2 0.8 -2.98023e-08
v -0.1 0.8 -2.98023e-08
v 0.2 0.8 -2.98023e-08
v 0.3 0.8 -2.98023e-08
v -0.3 0.8 -0.1
v -0.2 0.8 -0.1
v -0.1 0.8 -0.2
v 0.2 0.8 -0.2
v -0.3 0.8 -0.3
v -0.2 0.8 -0.3
v 0.3 0.8 -0.3
v -0.1 1.2 0.1
v 0.2 1.2 0.1
v -0.1 1.2 -0.2
v 0.2 1.2 -0.2

# faces
f 6/2/1 2/2/1 1/2/1
f 7/1/1 3/1/1 2/1/1
f 7/2/1 2/2/1 6/2/1
f 8/2/1 4/2/1 3/2/1
f 8/1/1 3/1/1 7/1/1
f 9/2/1 4/2/1 8/2/1
f 12/2/1 6/2/1 5/2/1
f 13/2/1 6/2/1 12/2/1
f 14/2/1 10/2/1 9/2/1
f 15/2/1 10/2/1 14/2/1
f 17/2/1 12/2/1 11/2/1
f 18/2/1 12/2/1 17/2/1
f 20/1/1 8/1/1 7/1/1
f 21/2/1 16/2/1 15/2/1
f 22/2/1 16/2/1 21/2/1
f 23/1/1 20/1/1 19/1/1
f 24/1/1 8/1/1 20/1/1
f 24/1/1 20/1/1 23/1/1
f 27/4/1 26/4/1 25/4/1
f 28/4/1 26/4/1 27/4/1
f 31/2/1 30/2/1 29/2/1
f 32/2/1 30/2/1 31/2/1
f 33/4/1 27/4/1 25/4/1
f 34/4/1 27/4/1 33/4/1
f 37/3/1 36/3/1 35/3/1
f 38/3/1 36/3/1 37/3/1
f 39/2/1 38/2/1 37/2/1
f 40/2/1 38/2/1 39/2/1
f 41/2/1 39/2/1 37/2/1
f 42/2/1 39/2/1 41/2/1
f 43/4/1 42/4/1 41/4/1
f 44/4/1 42/4/1 43/4/1
f 47/3/1 46/3/1 45/3/1
f 48/3/1 46/3/1 47/3/1
f 49/3/1 46/3/1 48/3/1
f 50/3/1 46/3/1 49/3/1
f 54/4/1 52/4/1 51/4/1
f 54/4/1 53/4/1 52/4/1
f 55/4/1 53/4/1 54/4/1
f 61/3/1 57/3/1 56/3/1
f 62/3/1 57/3/1 61/3/1
f 63/2/1 61/2/1 60/2/1
f 63/2/1 62/2/1 61/2/1
f 64/2/1 62/2/1 63/2/1
f 65/4/1 59/4/1 58/4/1
f 66/4/1 59/4/1 65/4/1
f 69/4/1 68/4/1 67/4/1
f 70/4/1 68/4/1 69/4/1
f 71/4/1 69/4/1 67/4/1
f 72/4/1 69/4/1 71/4/1
f 73/4/1 71/4/1 67/4/1
f 74/4/1 73/4/1 67/4/1
f 75/4/1 74/4/1 67/4/1
f 76/4/1 74/4/1 75/4/1
f 77/2/2 78/2/2 81/2/2
f 81/2/2 78/2/2 82/2/2
f 79/2/2 80/2/2 85/2/2
f 85/2/2 80/2/2 86/2/2
f 82/2/2 83/2/2 87/2/2
f 87/2/2 83/2/2 88/2/2
f 84/2/2 85/2/2 90/2/2
f 90/2/2 85/2/2 91/2/2
f 88/2/2 89/2/2 92/2/2
f 92/2/2 89/2/2 93/2/2
f 94/3/2 95/3/2 96/3/2
f 96/3/2 95/3/2 97/3/2
f 97/3/2 95/3/2 98/3/2
f 98/3/2 95/3/2 99/3/2
f 98/2/2 99/2/2 101/2/2
f 99/2/2 100/2/2 101/2/2
f 101/2/2 100/2/2 102/2/2
f 98/2/2 101/2/2 103/2/2
f 103/2/2 101/2/2 104/2/2
f 105/4/2 106/4/2 108/4/2
f 106/4/2 107/4/2 108/4/2
f 108/4/2 107/4/2 109/4/2
f 110/4/2 111/4/2 112/4/2
f 112/4/2 111/4/2 113/4/2
f 114/4/2 115/4/2 116/4/2
f 116/4/2 115/4/2 117/4/2
f 114/4/2 116/4/2 118/4/2
f 118/4/2 116/4/2 119/4/2
f 120/4/2 121/4/2 122/4/2
f 122/4/2 121/4/2 123/4/2
f 126/2/3 125/2/3 124/2/3
f 127/2/3 125/2/3 126/2/3
f 130/2/3 129/2/3 128/2/3
f 131/2/3 129/2/3 130/2/3
f 134/3/3 133/3/3 132/3/3
f 135/3/3 133/3/3 134/3/3
f 139/2/3 137/2/3 136/2/3
f 140/2/3 137/2/3 139/2/3
f 142/2/3 139/2/3 138/2/3
f 142/2/3 140/2/3 139/2/3
f 145/3/3 142/3/3 141/3/3
f 146/2/3 140/2/3 142/2/3
f 146/3/3 142/3/3 145/3/3
f 147/2/3 140/2/3 146/2/3
f 148/4/3 144/4/3 143/4/3
f 149/4/3 144/4/3 148/4/3
f 150/5/3 149/5/3 148/5/3
f 151/4/3 144/4/3 149/4/3
f 151/5/3 149/5/3 150/5/3
f 154/4/3 151/4/3 150/4/3
f 155/4/3 144/4/3 151/4/3
f 155/4/3 151/4/3 154/4/3
f 156/4/3 153/4/3 152/4/3
f 157/4/3 153/4/3 156/4/3
f 158/4/3 156/4/3 152/4/3
f 159/4/3 156/4/3 158/4/3
f 164/3/3 161/3/3 160/3/3
f 164/2/3 162/2/3 161/2/3
f 165/2/3 162/2/3 164/2/3
f 166/4/3 163/4/3 162/4/3
f 166/2/3 162/2/3 165/2/3
f 167/4/3 163/4/3 166/4/3
f 169/3/3 165/3/3 164/3/3
f 169/3/3 164/3/3 160/3/3
f 170/3/3 165/3/3 169/3/3
f 171/2/3 167/2/3 166/2/3
f 171/3/3 165/3/3 170/3/3
f 171/2/3 166/2/3 165/2/3
f 172/2/3 167/2/3 171/2/3
f 173/2/3 167/2/3 172/2/3
f 175/2/3 169/2/3 168/2/3
f 176/2/3 171/2/3 170/2/3
f 176/3/3 172/3/3 171/3/3
f 177/2/3 173/2/3 172/2/3
f 177/3/3 172/3/3 176/3/3
f 178/2/3 173/2/3 177/2/3
f 179/2/3 175/2/3 174/2/3
f 180/3/3 170/3/3 169/3/3
f 180/2/3 175/2/3 179/2/3
f 180/2/3 169/2/3 175/2/3
f 181/2/3 176/2/3 170/2/3
f 181/3/3 170/3/3 180/3/3
f 181/2/3 177/2/3 176/2/3
f 182/3/3 178/3/3 177/3/3
f 182/2/3 177/2/3 181/2/3
f 183/3/3 178/3/3 182/3/3
f 184/4/3 183/4/3 182/4/3
f 185/4/3 183/4/3 184/4/3
f 188/1/3 187/1/3 186/1/3
f 189/1/3 187/1/3 188/1/3
f 190/1/3 187/1/3 189/1/3
f 193/3/3 192/3/3 191/3/3
f 194/3/3 192/3/3 193/3/3
f 199/1/3 196/1/3 195/1/3
f 200/1/3 196/1/3 199/1/3
f 201/1/3 196/1/3 200/1/3
f 202/4/3 198/4/3 197/4/3
f 203/4/3 198/4/3 202/4/3
f 204/4/3 198/4/3 203/4/3
f 205/4/3 202/4/3 197/4/3
f 206/4/3 202/4/3 205/4/3
f 209/2/3 208/2/3 207/2/3
f 210/2/3 208/2/3 209/2/3
f 213/2/3 212/2/3 211/2/3
f 214/2/3 212/2/3 213/2/3
f 215/2/4 216/2/4 217/2/4
f 217/2/4 216/2/4 218/2/4
f 219/2/4 220/2/4 221/2/4
f 221/2/4 220/2/4 222/2/4
f 223/3/4 224/3/4 225/3/4
f 225/3/4 224/3/4 226/3/4
f 227/2/4 228/2/4 229/2/4
f 229/2/4 228/2/4 230/2/4
f 231/4/4 232/4/4 233/4/4
f 233/4/4 232/4/4 234/4/4
f 235/1/4 236/1/4 239/1/4
f 239/1/4 236/1/4 240/1/4
f 237/4/4 238/4/4 241/4/4
f 238/4/4 239/4/4 241/4/4
f 239/4/4 240/4/4 241/4/4
f 241/4/4 240/4/4 242/4/4
f 242/4/4 240/4/4 243/4/4
f 243/4/4 240/4/4 244/4/4
f 242/4/4 243/4/4 245/4/4
f 245/4/4 243/4/4 246/4/4
f 247/4/4 248/4/4 249/4/4
f 247/4/4 249/4/4 251/4/4
f 249/4/4 250/4/4 251/4/4
f 251/4/4 250/4/4 252/4/4
f 247/4/4 251/4/4 253/4/4
f 253/4/4 251/4/4 254/4/4
f 255/2/4 256/2/4 257/2/4
f 257/2/4 256/2/4 258/2/4
f 259/2/4 260/2/4 261/2/4
f 261/2/4 260/2/4 262/2/4
f 263/2/4 264/2/4 265/2/4
f 265/2/4 264/2/4 266/2/4
f 271/3/5 268/3/5 267/3/5
f 272/3/5 268/3/5 271/3/5
f 274/4/5 270/4/5 269/4/5
f 275/4/5 274/4/5 273/4/5
f 276/4/5 270/4/5 274/4/5
f 276/4/5 274/4/5 275/4/5
f 279/3/5 278/3/5 277/3/5
f 280/3/5 278/3/5 279/3/5
f 283/2/5 282/2/5 281/2/5
f 287/2/5 283/2/5 281/2/5
f 287/2/5 284/2/5 283/2/5
f 288/2/5 284/2/5 287/2/5
f 289/2/5 286/2/5 285/2/5
f 290/2/5 286/2/5 289/2/5
f 295/2/5 292/2/5 291/2/5
f 296/2/5 294/2/5 293/2/5
f 297/2/5 295/2/5 291/2/5
f 297/2/5 296/2/5 295/2/5
f 298/2/5 296/2/5 297/2/5
f 299/2/5 294/2/5 296/2/5
f 299/2/5 296/2/5 298/2/5
f 300/1/5 298/1/5 297/1/5
f 301/1/5 298/1/5 300/1/5
f 302/2/5 301/2/5 300/2/5
f 303/2/5 301/2/5 302/2/5
f 306/2/5 305/2/5 304/2/5
f 307/2/5 305/2/5 306/2/5
f 310/2/5 309/2/5 308/2/5
f 311/2/5 309/2/5 310/2/5
f 314/2/5 313/2/5 312/2/5
f 315/2/5 313/2/5 314/2/5
f 318/2/5 317/2/5 316/2/5
f 319/2/5 317/2/5 318/2/5
f 322/1/5 321/1/5 320/1/5
f 323/1/5 321/1/5 322/1/5
f 328/4/5 325/4/5 324/4/5
f 329/5/5 326/5/5 325/5/5
f 329/4/5 325/4/5 328/4/5
f 330/4/5 327/4/5 326/4/5
f 330/5/5 326/5/5 329/5/5
f 331/4/5 327/4/5 330/4/5
f 332/3/6 333/3/6 334/3/6
f 334/3/6 333/3/6 335/3/6
f 338/4/6 339/4/6 340/4/6
f 340/4/6 339/4/6 341/4/6
f 336/4/6 337/4/6 342/4/6
f 342/4/6 337/4/6 343/4/6
f 344/2/6 345/2/6 347/2/6
f 345/2/6 346/2/6 347/2/6
f 347/2/6 346/2/6 348/2/6
f 344/2/6 347/2/6 349/2/6
f 349/2/6 347/2/6 350/2/6
f 353/4/6 354/4/6 355/4/6
f 355/4/6 354/4/6 356/4/6
f 351/2/6 352/2/6 357/2/6
f 357/2/6 352/2/6 358/2/6
f 359/2/6 360/2/6 361/2/6
f 361/2/6 360/2/6 362/2/6
f 363/2/6 364/2/6 365/2/6
f 365/2/6 364/2/6 366/2/6
f 367/2/6 368/2/6 369/2/6
f 369/2/6 368/2/6 370/2/6
f 371/2/6 372/2/6 373/2/6
f 373/2/6 372/2/6 374/2/6
f 375/4/6 376/4/6 377/4/6
f 377/4/6 376/4/6 378/4/6
f 378/4/6 376/4/6 379/4/6
f 379/4/6 376/4/6 380/4/6
f 381/4/6 382/4/6 386/4/6
f 386/4/6 382/4/6 387/4/6
f 383/4/6 384/4/6 388/4/6
f 385/1/6 386/1/6 389/1/6
f 386/4/6 387/4/6 390/4/6
f 389/1/6 386/1/6 390/1/6
f 387/4/6 388/4/6 390/4/6
f 388/4/6 384/4/6 391/4/6
f 390/4/6 388/4/6 391/4/6
f 392/4/6 393/4/6 394/4/6
f 394/4/6 393/4/6 395/4/6
