# MagicaVoxel @ Ephtracy

# group
o 

# material
mtllib archer_action_1.mtl
usemtl palette

# normals
vn -1 0 0
vn 1 0 0
vn 0 0 1
vn 0 0 -1
vn 0 -1 0
vn 0 1 0

# texcoords
vt 0.732422 0.5
vt 0.783203 0.5
vt 0.814453 0.5
vt 0.826172 0.5
vt 0.947266 0.5
vt 0.970703 0.5

# verts
v -0.1 0 0.3
v -0.1 0 0.2
v -0.1 0 0.1
v -0.1 0 -5.96046e-08
v -0.1 0 -0.2
v -0.1 0 -0.3
v -0.1 0.1 0.4
v -0.1 0.1 0.3
v -0.1 0.1 0.2
v -0.1 0.1 0.1
v -0.1 0.1 -5.96046e-08
v -0.1 0.1 -0.2
v -0.1 0.1 -0.3
v -0.1 0.2 0.5
v -0.1 0.2 0.4
v -0.1 0.2 0.3
v -0.1 0.5 0.5
v -0.1 0.5 0.4
v -0.1 0.6 0.5
v -0.1 0.6 0.4
v -0.1 0.9 0.5
v -0.1 0.9 0.4
v -0.1 0.9 0.3
v -0.1 1 0.4
v -0.1 1 0.3
v -0.1 1 0.2
v -0.1 1.1 0.3
v -0.1 1.1 0.2
v 1.49012e-08 0 -0.3
v 1.49012e-08 0 -0.6
v 1.49012e-08 0.1 0.1
v 1.49012e-08 0.1 -5.96046e-08
v 1.49012e-08 0.1 -0.2
v 1.49012e-08 0.1 -0.3
v 1.49012e-08 0.1 -0.5
v 1.49012e-08 0.1 -0.6
v 1.49012e-08 0.2 0.1
v 1.49012e-08 0.2 -5.96046e-08
v 1.49012e-08 0.2 -0.1
v 1.49012e-08 0.2 -0.2
v 1.49012e-08 0.2 -0.3
v 1.49012e-08 0.3 -0.1
v 1.49012e-08 0.3 -0.2
v 1.49012e-08 0.4 0.1
v 1.49012e-08 0.4 -0.3
v 1.49012e-08 0.5 0.4
v 1.49012e-08 0.5 0.3
v 1.49012e-08 0.5 0.2
v 1.49012e-08 0.5 0.1
v 1.49012e-08 0.5 -0.1
v 1.49012e-08 0.5 -0.2
v 1.49012e-08 0.5 -0.3
v 1.49012e-08 0.6 0.4
v 1.49012e-08 0.6 0.3
v 1.49012e-08 0.6 0.1
v 1.49012e-08 0.6 -5.96046e-08
v 1.49012e-08 0.6 -0.1
v 1.49012e-08 0.6 -0.2
v 1.49012e-08 0.6 -0.3
v 1.49012e-08 0.6 -0.4
v 1.49012e-08 0.6 -0.5
v 1.49012e-08 0.7 0.2
v 1.49012e-08 0.7 0.1
v 1.49012e-08 0.7 -5.96046e-08
v 1.49012e-08 0.7 -0.2
v 1.49012e-08 0.7 -0.3
v 1.49012e-08 0.7 -0.4
v 1.49012e-08 1.1 -5.96046e-08
v 1.49012e-08 1.1 -0.3
v 0.2 0 0.1
v 0.2 0 -0.3
v 0.2 0.2 0.1
v 0.2 0.2 -0.1
v 0.2 0.2 -0.2
v 0.2 0.2 -0.3
v 0.2 0.3 -0.1
v 0.2 0.3 -0.2
v 1.49012e-08 0 0.3
v 1.49012e-08 0 0.2
v 1.49012e-08 0.1 0.4
v 1.49012e-08 0.1 0.3
v 1.49012e-08 0.1 0.2
v 1.49012e-08 0.2 0.5
v 1.49012e-08 0.2 0.4
v 1.49012e-08 0.2 0.3
v 1.49012e-08 0.5 0.5
v 1.49012e-08 0.5 0.4
v 1.49012e-08 0.5 0.3
v 1.49012e-08 0.5 0.2
v 1.49012e-08 0.6 0.5
v 1.49012e-08 0.6 0.4
v 1.49012e-08 0.6 0.3
v 1.49012e-08 0.6 0.2
v 1.49012e-08 0.7 0.2
v 1.49012e-08 0.9 0.5
v 1.49012e-08 0.9 0.4
v 1.49012e-08 0.9 0.3
v 1.49012e-08 1 0.4
v 1.49012e-08 1 0.3
v 1.49012e-08 1 0.2
v 1.49012e-08 1.1 0.3
v 1.49012e-08 1.1 0.2
v 0.1 0 0.1
v 0.1 0 -5.96046e-08
v 0.1 0 -0.2
v 0.1 0 -0.3
v 0.1 0.2 0.1
v 0.1 0.2 -5.96046e-08
v 0.1 0.2 -0.2
v 0.1 0.2 -0.3
v 0.1 0.5 0.4
v 0.1 0.5 0.2
v 0.1 0.6 0.4
v 0.1 0.6 0.2
v 0.2 0.5 0.2
v 0.2 0.5 0.1
v 0.2 0.7 0.2
v 0.2 0.7 0.1
v 0.3 0.1 0.1
v 0.3 0.1 -0.5
v 0.3 0.6 -0.4
v 0.3 0.6 -0.5
v 0.3 0.7 0.1
v 0.3 0.7 -5.96046e-08
v 0.3 0.7 -0.3
v 0.3 0.7 -0.4
v 0.3 1.1 -5.96046e-08
v 0.3 1.1 -0.3
v 0.4 0 0.1
v 0.4 0 -0.6
v 0.4 0.1 0.1
v 0.4 0.1 -0.6
v -0.1 0.2 0.5
v -0.1 0.5 0.5
v -0.1 0.6 0.5
v -0.1 0.9 0.5
v 1.49012e-08 0.2 0.5
v 1.49012e-08 0.5 0.5
v 1.49012e-08 0.6 0.5
v 1.49012e-08 0.9 0.5
v -0.1 0.1 0.4
v -0.1 0.2 0.4
v -0.1 0.9 0.4
v -0.1 1 0.4
v 1.49012e-08 0.1 0.4
v 1.49012e-08 0.2 0.4
v 1.49012e-08 0.5 0.4
v 1.49012e-08 0.6 0.4
v 1.49012e-08 0.9 0.4
v 1.49012e-08 1 0.4
v 0.1 0.5 0.4
v 0.1 0.6 0.4
v -0.1 0 0.3
v -0.1 0.1 0.3
v -0.1 0.2 0.3
v -0.1 0.9 0.3
v -0.1 1 0.3
v -0.1 1.1 0.3
v 1.49012e-08 0 0.3
v 1.49012e-08 0.1 0.3
v 1.49012e-08 0.2 0.3
v 1.49012e-08 0.5 0.3
v 1.49012e-08 0.6 0.3
v 1.49012e-08 0.9 0.3
v 1.49012e-08 1 0.3
v 1.49012e-08 1.1 0.3
v 1.49012e-08 0.6 0.2
v 1.49012e-08 0.7 0.2
v 0.1 0.5 0.2
v 0.1 0.6 0.2
v 0.2 0.5 0.2
v 0.2 0.7 0.2
v -0.1 0 0.1
v -0.1 0.1 0.1
v 1.49012e-08 0.1 0.1
v 1.49012e-08 0.2 0.1
v 1.49012e-08 0.4 0.1
v 1.49012e-08 0.5 0.1
v 0.1 0 0.1
v 0.1 0.2 0.1
v 0.2 0 0.1
v 0.2 0.2 0.1
v 0.2 0.4 0.1
v 0.2 0.5 0.1
v 0.2 0.7 0.1
v 0.3 0.1 0.1
v 0.3 0.7 0.1
v 0.4 0 0.1
v 0.4 0.1 0.1
v 1.49012e-08 0.7 -5.96046e-08
v 1.49012e-08 1.1 -5.96046e-08
v 0.1 0.7 -5.96046e-08
v 0.1 1 -5.96046e-08
v 0.2 0.7 -5.96046e-08
v 0.2 1 -5.96046e-08
v 0.3 0.7 -5.96046e-08
v 0.3 1.1 -5.96046e-08
v -0.1 0 -0.2
v -0.1 0.1 -0.2
v 1.49012e-08 0.1 -0.2
v 1.49012e-08 0.2 -0.2
v 1.49012e-08 0.3 -0.2
v 0.1 0 -0.2
v 0.1 0.2 -0.2
v 0.2 0.2 -0.2
v 0.2 0.3 -0.2
v 0.1 0 -0.3
v 0.1 0.2 -0.3
v 0.2 0 -0.3
v 0.2 0.2 -0.3
v -0.1 0.2 0.4
v -0.1 0.5 0.4
v -0.1 0.6 0.4
v -0.1 0.9 0.4
v 1.49012e-08 0.2 0.4
v 1.49012e-08 0.5 0.4
v 1.49012e-08 0.6 0.4
v 1.49012e-08 0.9 0.4
v -0.1 0 0.2
v -0.1 0.1 0.2
v -0.1 1 0.2
v -0.1 1.1 0.2
v 1.49012e-08 0 0.2
v 1.49012e-08 0.1 0.2
v 1.49012e-08 0.5 0.2
v 1.49012e-08 0.7 0.2
v 1.49012e-08 1 0.2
v 1.49012e-08 1.1 0.2
v -0.1 0 -5.96046e-08
v -0.1 0.1 -5.96046e-08
v 1.49012e-08 0.1 -5.96046e-08
v 1.49012e-08 0.2 -5.96046e-08
v 0.1 0 -5.96046e-08
v 0.1 0.2 -5.96046e-08
v 1.49012e-08 0.2 -0.1
v 1.49012e-08 0.3 -0.1
v 0.2 0.2 -0.1
v 0.2 0.3 -0.1
v -0.1 0 -0.3
v -0.1 0.1 -0.3
v 1.49012e-08 0 -0.3
v 1.49012e-08 0.1 -0.3
v 1.49012e-08 0.7 -0.3
v 1.49012e-08 1.1 -0.3
v 0.3 0.7 -0.3
v 0.3 1.1 -0.3
v 1.49012e-08 0.6 -0.4
v 1.49012e-08 0.7 -0.4
v 0.3 0.6 -0.4
v 0.3 0.7 -0.4
v 1.49012e-08 0.1 -0.5
v 1.49012e-08 0.6 -0.5
v 0.3 0.1 -0.5
v 0.3 0.6 -0.5
v 1.49012e-08 0 -0.6
v 1.49012e-08 0.1 -0.6
v 0.4 0 -0.6
v 0.4 0.1 -0.6
v -0.1 0 0.3
v 1.49012e-08 0 0.3
v -0.1 0 0.2
v 1.49012e-08 0 0.2
v -0.1 0 0.1
v 0.1 0 0.1
v 0.2 0 0.1
v 0.4 0 0.1
v -0.1 0 -5.96046e-08
v 0.1 0 -5.96046e-08
v -0.1 0 -0.2
v 0.1 0 -0.2
v -0.1 0 -0.3
v 1.49012e-08 0 -0.3
v 0.1 0 -0.3
v 0.2 0 -0.3
v 1.49012e-08 0 -0.6
v 0.4 0 -0.6
v -0.1 0.1 0.4
v 1.49012e-08 0.1 0.4
v -0.1 0.1 0.3
v 1.49012e-08 0.1 0.3
v -0.1 0.2 0.5
v 1.49012e-08 0.2 0.5
v -0.1 0.2 0.4
v 1.49012e-08 0.2 0.4
v 0.1 0.2 0.1
v 0.2 0.2 0.1
v 1.49012e-08 0.2 -5.96046e-08
v 0.1 0.2 -5.96046e-08
v 1.49012e-08 0.2 -0.1
v 0.2 0.2 -0.1
v 0.1 0.2 -0.2
v 0.2 0.2 -0.2
v 0.1 0.2 -0.3
v 0.2 0.2 -0.3
v 1.49012e-08 0.3 -0.1
v 0.2 0.3 -0.1
v 1.49012e-08 0.3 -0.2
v 0.2 0.3 -0.2
v 1.49012e-08 0.5 0.4
v 0.1 0.5 0.4
v 1.49012e-08 0.5 0.3
v 1.49012e-08 0.5 0.2
v 0.1 0.5 0.2
v 0.2 0.5 0.2
v 1.49012e-08 0.5 0.1
v 0.2 0.5 0.1
v -0.1 0.9 0.4
v 1.49012e-08 0.9 0.4
v -0.1 0.9 0.3
v 1.49012e-08 0.9 0.3
v -0.1 0.1 0.1
v 1.49012e-08 0.1 0.1
v 0.3 0.1 0.1
v 0.4 0.1 0.1
v -0.1 0.1 -5.96046e-08
v 1.49012e-08 0.1 -5.96046e-08
v -0.1 0.1 -0.2
v 1.49012e-08 0.1 -0.2
v -0.1 0.1 -0.3
v 1.49012e-08 0.1 -0.3
v 1.49012e-08 0.1 -0.5
v 0.3 0.1 -0.5
v 1.49012e-08 0.1 -0.6
v 0.4 0.1 -0.6
v -0.1 0.2 0.4
v 1.49012e-08 0.2 0.4
v -0.1 0.2 0.3
v 1.49012e-08 0.2 0.3
v 1.49012e-08 0.6 0.4
v 0.1 0.6 0.4
v 1.49012e-08 0.6 0.3
v 1.49012e-08 0.6 0.2
v 0.1 0.6 0.2
v 1.49012e-08 0.6 -0.4
v 0.3 0.6 -0.4
v 1.49012e-08 0.6 -0.5
v 0.3 0.6 -0.5
v 1.49012e-08 0.7 0.2
v 0.2 0.7 0.2
v 1.49012e-08 0.7 0.1
v 0.2 0.7 0.1
v 0.3 0.7 0.1
v 1.49012e-08 0.7 -5.96046e-08
v 0.1 0.7 -5.96046e-08
v 0.2 0.7 -5.96046e-08
v 0.3 0.7 -5.96046e-08
v 1.49012e-08 0.7 -0.3
v 0.3 0.7 -0.3
v 1.49012e-08 0.7 -0.4
v 0.3 0.7 -0.4
v -0.1 0.9 0.5
v 1.49012e-08 0.9 0.5
v -0.1 0.9 0.4
v 1.49012e-08 0.9 0.4
v -0.1 1 0.4
v 1.49012e-08 1 0.4
v -0.1 1 0.3
v 1.49012e-08 1 0.3
v -0.1 1.1 0.3
v 1.49012e-08 1.1 0.3
v -0.1 1.1 0.2
v 1.49012e-08 1.1 0.2
v 1.49012e-08 1.1 -5.96046e-08
v 0.3 1.1 -5.96046e-08
v 1.49012e-08 1.1 -0.3
v 0.3 1.1 -0.3

# faces
f 8/2/1 2/2/1 1/2/1
f 9/2/1 2/2/1 8/2/1
f 10/3/1 4/3/1 3/3/1
f 11/3/1 4/3/1 10/3/1
f 12/3/1 6/3/1 5/3/1
f 13/3/1 6/3/1 12/3/1
f 15/2/1 8/2/1 7/2/1
f 16/5/1 9/5/1 8/5/1
f 16/2/1 8/2/1 15/2/1
f 17/2/1 15/2/1 14/2/1
f 18/2/1 15/2/1 17/2/1
f 19/1/1 18/1/1 17/1/1
f 20/1/1 18/1/1 19/1/1
f 21/2/1 20/2/1 19/2/1
f 22/2/1 20/2/1 21/2/1
f 23/5/1 9/5/1 16/5/1
f 24/2/1 23/2/1 22/2/1
f 25/5/1 9/5/1 23/5/1
f 25/2/1 23/2/1 24/2/1
f 26/5/1 9/5/1 25/5/1
f 27/2/1 26/2/1 25/2/1
f 28/2/1 26/2/1 27/2/1
f 34/4/1 30/4/1 29/4/1
f 35/4/1 30/4/1 34/4/1
f 36/4/1 30/4/1 35/4/1
f 37/3/1 32/3/1 31/3/1
f 38/3/1 32/3/1 37/3/1
f 40/3/1 34/3/1 33/3/1
f 41/4/1 35/4/1 34/4/1
f 41/3/1 34/3/1 40/3/1
f 42/2/1 39/2/1 38/2/1
f 42/2/1 38/2/1 37/2/1
f 43/2/1 41/2/1 40/2/1
f 44/2/1 42/2/1 37/2/1
f 44/2/1 43/2/1 42/2/1
f 45/4/1 35/4/1 41/4/1
f 45/2/1 43/2/1 44/2/1
f 45/2/1 41/2/1 43/2/1
f 49/3/1 45/3/1 44/3/1
f 50/3/1 45/3/1 49/3/1
f 51/3/1 45/3/1 50/3/1
f 52/4/1 35/4/1 45/4/1
f 52/3/1 45/3/1 51/3/1
f 53/1/1 47/1/1 46/1/1
f 54/1/1 47/1/1 53/1/1
f 55/1/1 49/1/1 48/1/1
f 55/2/1 50/2/1 49/2/1
f 56/2/1 50/2/1 55/2/1
f 57/3/1 51/3/1 50/3/1
f 57/2/1 50/2/1 56/2/1
f 58/2/1 52/2/1 51/2/1
f 58/3/1 51/3/1 57/3/1
f 59/4/1 35/4/1 52/4/1
f 59/2/1 52/2/1 58/2/1
f 60/4/1 35/4/1 59/4/1
f 61/4/1 35/4/1 60/4/1
f 62/1/1 55/1/1 48/1/1
f 63/4/1 56/4/1 55/4/1
f 63/1/1 55/1/1 62/1/1
f 64/2/1 58/2/1 57/2/1
f 64/4/1 56/4/1 63/4/1
f 64/2/1 57/2/1 56/2/1
f 65/3/1 59/3/1 58/3/1
f 65/2/1 58/2/1 64/2/1
f 66/4/1 60/4/1 59/4/1
f 66/3/1 59/3/1 65/3/1
f 67/4/1 60/4/1 66/4/1
f 68/4/1 66/4/1 65/4/1
f 68/4/1 65/4/1 64/4/1
f 69/4/1 66/4/1 68/4/1
f 72/4/1 71/4/1 70/4/1
f 73/4/1 71/4/1 72/4/1
f 74/4/1 71/4/1 73/4/1
f 75/4/1 71/4/1 74/4/1
f 76/4/1 74/4/1 73/4/1
f 77/4/1 74/4/1 76/4/1
f 78/2/2 79/2/2 81/2/2
f 81/2/2 79/2/2 82/2/2
f 80/2/2 81/2/2 84/2/2
f 81/5/2 82/5/2 85/5/2
f 84/2/2 81/2/2 85/2/2
f 83/2/2 84/2/2 86/2/2
f 86/2/2 84/2/2 87/2/2
f 85/5/2 82/5/2 88/5/2
f 88/5/2 82/5/2 89/5/2
f 86/1/2 87/1/2 90/1/2
f 90/1/2 87/1/2 91/1/2
f 92/5/2 93/5/2 94/5/2
f 90/2/2 91/2/2 95/2/2
f 95/2/2 91/2/2 96/2/2
f 92/5/2 94/5/2 97/5/2
f 96/2/2 97/2/2 98/2/2
f 97/5/2 94/5/2 99/5/2
f 98/2/2 97/2/2 99/2/2
f 99/5/2 94/5/2 100/5/2
f 99/2/2 100/2/2 101/2/2
f 101/2/2 100/2/2 102/2/2
f 103/3/2 104/3/2 107/3/2
f 107/3/2 104/3/2 108/3/2
f 105/3/2 106/3/2 109/3/2
f 109/3/2 106/3/2 110/3/2
f 111/1/2 112/1/2 113/1/2
f 113/1/2 112/1/2 114/1/2
f 115/1/2 116/1/2 117/1/2
f 117/1/2 116/1/2 118/1/2
f 119/4/2 120/4/2 121/4/2
f 121/4/2 120/4/2 122/4/2
f 119/4/2 121/4/2 123/4/2
f 123/4/2 121/4/2 124/4/2
f 124/4/2 121/4/2 125/4/2
f 125/4/2 121/4/2 126/4/2
f 124/4/2 125/4/2 127/4/2
f 127/4/2 125/4/2 128/4/2
f 129/4/2 130/4/2 131/4/2
f 131/4/2 130/4/2 132/4/2
f 137/2/3 134/2/3 133/2/3
f 138/1/3 135/1/3 134/1/3
f 138/2/3 134/2/3 137/2/3
f 139/2/3 136/2/3 135/2/3
f 139/1/3 135/1/3 138/1/3
f 140/2/3 136/2/3 139/2/3
f 145/2/3 142/2/3 141/2/3
f 146/2/3 142/2/3 145/2/3
f 149/2/3 144/2/3 143/2/3
f 150/2/3 144/2/3 149/2/3
f 151/1/3 148/1/3 147/1/3
f 152/1/3 148/1/3 151/1/3
f 159/2/3 154/2/3 153/2/3
f 160/2/3 154/2/3 159/2/3
f 161/5/3 156/5/3 155/5/3
f 162/5/3 156/5/3 161/5/3
f 163/5/3 156/5/3 162/5/3
f 164/5/3 156/5/3 163/5/3
f 165/2/3 158/2/3 157/2/3
f 166/2/3 158/2/3 165/2/3
f 170/1/3 168/1/3 167/1/3
f 171/1/3 170/1/3 169/1/3
f 172/1/3 168/1/3 170/1/3
f 172/1/3 170/1/3 171/1/3
f 175/3/3 174/3/3 173/3/3
f 179/3/3 175/3/3 173/3/3
f 179/3/3 176/3/3 175/3/3
f 180/2/3 177/2/3 176/2/3
f 180/3/3 176/3/3 179/3/3
f 182/2/3 177/2/3 180/2/3
f 183/3/3 178/3/3 177/3/3
f 183/2/3 177/2/3 182/2/3
f 184/3/3 178/3/3 183/3/3
f 186/4/3 182/4/3 181/4/3
f 186/4/3 185/4/3 184/4/3
f 186/4/3 184/4/3 183/4/3
f 186/4/3 183/4/3 182/4/3
f 187/4/3 185/4/3 186/4/3
f 188/4/3 186/4/3 181/4/3
f 189/4/3 186/4/3 188/4/3
f 192/4/3 191/4/3 190/4/3
f 193/4/3 191/4/3 192/4/3
f 194/6/3 193/6/3 192/6/3
f 195/4/3 191/4/3 193/4/3
f 195/6/3 193/6/3 194/6/3
f 196/4/3 195/4/3 194/4/3
f 197/4/3 191/4/3 195/4/3
f 197/4/3 195/4/3 196/4/3
f 200/3/3 199/3/3 198/3/3
f 203/3/3 200/3/3 198/3/3
f 203/3/3 201/3/3 200/3/3
f 204/2/3 202/2/3 201/2/3
f 204/3/3 201/3/3 203/3/3
f 205/2/3 202/2/3 204/2/3
f 206/2/3 202/2/3 205/2/3
f 209/4/3 208/4/3 207/4/3
f 210/4/3 208/4/3 209/4/3
f 211/2/4 212/2/4 215/2/4
f 212/1/4 213/1/4 216/1/4
f 215/2/4 212/2/4 216/2/4
f 213/2/4 214/2/4 217/2/4
f 216/1/4 213/1/4 217/1/4
f 217/2/4 214/2/4 218/2/4
f 219/2/4 220/2/4 223/2/4
f 220/5/4 221/5/4 224/5/4
f 223/2/4 220/2/4 224/2/4
f 224/5/4 221/5/4 225/5/4
f 225/5/4 221/5/4 226/5/4
f 221/2/4 222/2/4 227/2/4
f 226/5/4 221/5/4 227/5/4
f 227/2/4 222/2/4 228/2/4
f 229/3/4 230/3/4 231/3/4
f 229/3/4 231/3/4 233/3/4
f 231/3/4 232/3/4 233/3/4
f 233/3/4 232/3/4 234/3/4
f 235/2/4 236/2/4 237/2/4
f 237/2/4 236/2/4 238/2/4
f 239/3/4 240/3/4 241/3/4
f 241/3/4 240/3/4 242/3/4
f 243/4/4 244/4/4 245/4/4
f 245/4/4 244/4/4 246/4/4
f 247/4/4 248/4/4 249/4/4
f 249/4/4 248/4/4 250/4/4
f 251/4/4 252/4/4 253/4/4
f 253/4/4 252/4/4 254/4/4
f 255/4/4 256/4/4 257/4/4
f 257/4/4 256/4/4 258/4/4
f 261/2/5 260/2/5 259/2/5
f 262/2/5 260/2/5 261/2/5
f 267/3/5 264/3/5 263/3/5
f 268/3/5 264/3/5 267/3/5
f 271/3/5 270/3/5 269/3/5
f 272/3/5 270/3/5 271/3/5
f 273/3/5 270/3/5 272/3/5
f 274/4/5 266/4/5 265/4/5
f 275/4/5 273/4/5 272/4/5
f 275/4/5 274/4/5 273/4/5
f 276/4/5 266/4/5 274/4/5
f 276/4/5 274/4/5 275/4/5
f 279/2/5 278/2/5 277/2/5
f 280/2/5 278/2/5 279/2/5
f 283/2/5 282/2/5 281/2/5
f 284/2/5 282/2/5 283/2/5
f 288/2/5 286/2/5 285/2/5
f 289/2/5 288/2/5 287/2/5
f 290/2/5 286/2/5 288/2/5
f 290/2/5 288/2/5 289/2/5
f 293/2/5 292/2/5 291/2/5
f 294/2/5 292/2/5 293/2/5
f 297/2/5 296/2/5 295/2/5
f 298/2/5 296/2/5 297/2/5
f 301/1/5 300/1/5 299/1/5
f 302/1/5 300/1/5 301/1/5
f 303/1/5 300/1/5 302/1/5
f 305/1/5 303/1/5 302/1/5
f 305/1/5 304/1/5 303/1/5
f 306/1/5 304/1/5 305/1/5
f 309/2/5 308/2/5 307/2/5
f 310/2/5 308/2/5 309/2/5
f 311/3/6 312/3/6 315/3/6
f 315/3/6 312/3/6 316/3/6
f 317/3/6 318/3/6 319/3/6
f 319/3/6 318/3/6 320/3/6
f 313/4/6 314/4/6 322/4/6
f 321/4/6 322/4/6 323/4/6
f 322/4/6 314/4/6 324/4/6
f 323/4/6 322/4/6 324/4/6
f 325/2/6 326/2/6 327/2/6
f 327/2/6 326/2/6 328/2/6
f 329/1/6 330/1/6 331/1/6
f 331/1/6 330/1/6 332/1/6
f 332/1/6 330/1/6 333/1/6
f 334/4/6 335/4/6 336/4/6
f 336/4/6 335/4/6 337/4/6
f 338/1/6 339/1/6 340/1/6
f 340/1/6 339/1/6 341/1/6
f 340/4/6 341/4/6 343/4/6
f 341/4/6 342/4/6 343/4/6
f 343/4/6 342/4/6 344/4/6
f 344/4/6 342/4/6 345/4/6
f 345/4/6 342/4/6 346/4/6
f 347/4/6 348/4/6 349/4/6
f 349/4/6 348/4/6 350/4/6
f 351/2/6 352/2/6 353/2/6
f 353/2/6 352/2/6 354/2/6
f 355/2/6 356/2/6 357/2/6
f 357/2/6 356/2/6 358/2/6
f 359/2/6 360/2/6 361/2/6
f 361/2/6 360/2/6 362/2/6
f 363/4/6 364/4/6 365/4/6
f 365/4/6 364/4/6 366/4/6
