# MagicaVoxel @ Ephtracy

# group
o 

# material
mtllib lever_b_b_green_on.mtl
usemtl palette

# normals
vn -1 0 0
vn 1 0 0
vn 0 0 1
vn 0 0 -1
vn 0 -1 0
vn 0 1 0

# texcoords
vt 0.787109 0.5
vt 0.880859 0.5
vt 0.970703 0.5
vt 0.982422 0.5

# verts
v -0.3 0 0.1
v -0.3 0 -0.2
v -0.3 0.1 0.1
v -0.3 0.1 -0.2
v 0 0.1 0
v 0 0.1 -0.1
v 0 0.2 0
v 0 0.2 -0.1
v 0.1 0.2 0
v 0.1 0.2 -0.1
v 0.1 0.3 0
v 0.1 0.3 -0.1
v 0.2 0.3 0
v 0.2 0.3 -0.1
v 0.2 0.4 0
v 0.2 0.4 -0.1
v 0.1 0.1 0
v 0.1 0.1 -0.1
v 0.1 0.2 0
v 0.1 0.2 -0.1
v 0.2 0 0.1
v 0.2 0 -0.2
v 0.2 0.1 0.1
v 0.2 0.1 -0.2
v 0.2 0.2 0
v 0.2 0.2 -0.1
v 0.2 0.3 0
v 0.2 0.3 -0.1
v 0.3 0.3 0
v 0.3 0.3 -0.1
v 0.3 0.4 0
v 0.3 0.4 -0.1
v -0.3 0 0.1
v -0.3 0.1 0.1
v 0.2 0 0.1
v 0.2 0.1 0.1
v 0 0.1 0
v 0 0.2 0
v 0.1 0.1 0
v 0.1 0.2 0
v 0.1 0.3 0
v 0.2 0.2 0
v 0.2 0.3 0
v 0.2 0.4 0
v 0.3 0.3 0
v 0.3 0.4 0
v 0 0.1 -0.1
v 0 0.2 -0.1
v 0.1 0.1 -0.1
v 0.1 0.2 -0.1
v 0.1 0.3 -0.1
v 0.2 0.2 -0.1
v 0.2 0.3 -0.1
v 0.2 0.4 -0.1
v 0.3 0.3 -0.1
v 0.3 0.4 -0.1
v -0.3 0 -0.2
v -0.3 0.1 -0.2
v 0.2 0 -0.2
v 0.2 0.1 -0.2
v -0.3 0 0.1
v 0.2 0 0.1
v -0.2 0 0
v 0.1 0 0
v -0.2 0 -0.1
v 0.1 0 -0.1
v -0.3 0 -0.2
v 0.2 0 -0.2
v 0.1 0.2 0
v 0.2 0.2 0
v 0.1 0.2 -0.1
v 0.2 0.2 -0.1
v 0.2 0.3 0
v 0.3 0.3 0
v 0.2 0.3 -0.1
v 0.3 0.3 -0.1
v -0.3 0.1 0.1
v 0.2 0.1 0.1
v -0.2 0.1 0
v 0 0.1 0
v 0.1 0.1 0
v -0.2 0.1 -0.1
v 0 0.1 -0.1
v 0.1 0.1 -0.1
v -0.3 0.1 -0.2
v 0.2 0.1 -0.2
v 0 0.2 0
v 0.1 0.2 0
v 0 0.2 -0.1
v 0.1 0.2 -0.1
v 0.1 0.3 0
v 0.2 0.3 0
v 0.1 0.3 -0.1
v 0.2 0.3 -0.1
v 0.2 0.4 0
v 0.3 0.4 0
v 0.2 0.4 -0.1
v 0.3 0.4 -0.1

# faces
f 3/1/1 2/1/1 1/1/1
f 4/1/1 2/1/1 3/1/1
f 7/2/1 6/2/1 5/2/1
f 8/2/1 6/2/1 7/2/1
f 11/4/1 10/4/1 9/4/1
f 12/4/1 10/4/1 11/4/1
f 15/4/1 14/4/1 13/4/1
f 16/4/1 14/4/1 15/4/1
f 17/2/2 18/2/2 19/2/2
f 19/2/2 18/2/2 20/2/2
f 21/1/2 22/1/2 23/1/2
f 23/1/2 22/1/2 24/1/2
f 25/4/2 26/4/2 27/4/2
f 27/4/2 26/4/2 28/4/2
f 29/4/2 30/4/2 31/4/2
f 31/4/2 30/4/2 32/4/2
f 35/1/3 34/1/3 33/1/3
f 36/1/3 34/1/3 35/1/3
f 39/2/3 38/2/3 37/2/3
f 40/2/3 38/2/3 39/2/3
f 42/4/3 41/4/3 40/4/3
f 43/4/3 41/4/3 42/4/3
f 45/4/3 44/4/3 43/4/3
f 46/4/3 44/4/3 45/4/3
f 47/2/4 48/2/4 49/2/4
f 49/2/4 48/2/4 50/2/4
f 50/4/4 51/4/4 52/4/4
f 52/4/4 51/4/4 53/4/4
f 53/4/4 54/4/4 55/4/4
f 55/4/4 54/4/4 56/4/4
f 57/1/4 58/1/4 59/1/4
f 59/1/4 58/1/4 60/1/4
f 63/1/5 62/1/5 61/1/5
f 64/1/5 62/1/5 63/1/5
f 65/1/5 63/1/5 61/1/5
f 65/3/5 64/3/5 63/3/5
f 66/1/5 62/1/5 64/1/5
f 66/3/5 64/3/5 65/3/5
f 67/1/5 65/1/5 61/1/5
f 67/1/5 66/1/5 65/1/5
f 68/1/5 62/1/5 66/1/5
f 68/1/5 66/1/5 67/1/5
f 71/4/5 70/4/5 69/4/5
f 72/4/5 70/4/5 71/4/5
f 75/4/5 74/4/5 73/4/5
f 76/4/5 74/4/5 75/4/5
f 77/1/6 78/1/6 79/1/6
f 79/1/6 78/1/6 80/1/6
f 80/1/6 78/1/6 81/1/6
f 77/1/6 79/1/6 82/1/6
f 79/3/6 80/3/6 82/3/6
f 82/3/6 80/3/6 83/3/6
f 81/1/6 78/1/6 84/1/6
f 82/1/6 83/1/6 85/1/6
f 83/1/6 84/1/6 85/1/6
f 77/1/6 82/1/6 85/1/6
f 84/1/6 78/1/6 86/1/6
f 85/1/6 84/1/6 86/1/6
f 87/2/6 88/2/6 89/2/6
f 89/2/6 88/2/6 90/2/6
f 91/4/6 92/4/6 93/4/6
f 93/4/6 92/4/6 94/4/6
f 95/4/6 96/4/6 97/4/6
f 97/4/6 96/4/6 98/4/6
