# MagicaVoxel @ Ephtracy

# group
o 

# material
mtllib lever_b_b_green_off.mtl
usemtl palette

# normals
vn -1 0 0
vn 1 0 0
vn 0 0 1
vn 0 0 -1
vn 0 -1 0
vn 0 1 0

# texcoords
vt 0.787109 0.5
vt 0.880859 0.5
vt 0.970703 0.5
vt 0.982422 0.5

# verts
v -0.2 0 0.1
v -0.2 0 -0.2
v -0.2 0.1 0.1
v -0.2 0.1 -0.2
v 0 0.1 0
v 0 0.1 -0.1
v 0 0.3 0
v 0 0.3 -0.1
v 0 0.5 0
v 0 0.5 -0.1
v 0.1 0.1 0
v 0.1 0.1 -0.1
v 0.1 0.3 0
v 0.1 0.3 -0.1
v 0.1 0.5 0
v 0.1 0.5 -0.1
v 0.3 0 0.1
v 0.3 0 -0.2
v 0.3 0.1 0.1
v 0.3 0.1 -0.2
v -0.2 0 0.1
v -0.2 0.1 0.1
v 0.3 0 0.1
v 0.3 0.1 0.1
v 0 0.1 0
v 0 0.3 0
v 0 0.5 0
v 0.1 0.1 0
v 0.1 0.3 0
v 0.1 0.5 0
v 0 0.1 -0.1
v 0 0.3 -0.1
v 0 0.5 -0.1
v 0.1 0.1 -0.1
v 0.1 0.3 -0.1
v 0.1 0.5 -0.1
v -0.2 0 -0.2
v -0.2 0.1 -0.2
v 0.3 0 -0.2
v 0.3 0.1 -0.2
v -0.2 0 0.1
v 0.3 0 0.1
v -0.1 0 0
v 0.2 0 0
v -0.1 0 -0.1
v 0.2 0 -0.1
v -0.2 0 -0.2
v 0.3 0 -0.2
v -0.2 0.1 0.1
v 0.3 0.1 0.1
v -0.1 0.1 0
v 0 0.1 0
v 0.1 0.1 0
v 0.2 0.1 0
v -0.1 0.1 -0.1
v 0 0.1 -0.1
v 0.1 0.1 -0.1
v 0.2 0.1 -0.1
v -0.2 0.1 -0.2
v 0.3 0.1 -0.2
v 0 0.5 0
v 0.1 0.5 0
v 0 0.5 -0.1
v 0.1 0.5 -0.1

# faces
f 3/1/1 2/1/1 1/1/1
f 4/1/1 2/1/1 3/1/1
f 7/2/1 6/2/1 5/2/1
f 8/2/1 6/2/1 7/2/1
f 9/4/1 8/4/1 7/4/1
f 10/4/1 8/4/1 9/4/1
f 11/2/2 12/2/2 13/2/2
f 13/2/2 12/2/2 14/2/2
f 13/4/2 14/4/2 15/4/2
f 15/4/2 14/4/2 16/4/2
f 17/1/2 18/1/2 19/1/2
f 19/1/2 18/1/2 20/1/2
f 23/1/3 22/1/3 21/1/3
f 24/1/3 22/1/3 23/1/3
f 28/2/3 26/2/3 25/2/3
f 29/4/3 27/4/3 26/4/3
f 29/2/3 26/2/3 28/2/3
f 30/4/3 27/4/3 29/4/3
f 31/2/4 32/2/4 34/2/4
f 32/4/4 33/4/4 35/4/4
f 34/2/4 32/2/4 35/2/4
f 35/4/4 33/4/4 36/4/4
f 37/1/4 38/1/4 39/1/4
f 39/1/4 38/1/4 40/1/4
f 43/1/5 42/1/5 41/1/5
f 44/1/5 42/1/5 43/1/5
f 45/1/5 43/1/5 41/1/5
f 45/3/5 44/3/5 43/3/5
f 46/1/5 42/1/5 44/1/5
f 46/3/5 44/3/5 45/3/5
f 47/1/5 45/1/5 41/1/5
f 47/1/5 46/1/5 45/1/5
f 48/1/5 42/1/5 46/1/5
f 48/1/5 46/1/5 47/1/5
f 49/1/6 50/1/6 51/1/6
f 51/1/6 50/1/6 52/1/6
f 52/1/6 50/1/6 53/1/6
f 53/1/6 50/1/6 54/1/6
f 49/1/6 51/1/6 55/1/6
f 51/3/6 52/3/6 55/3/6
f 55/3/6 52/3/6 56/3/6
f 53/3/6 54/3/6 57/3/6
f 54/1/6 50/1/6 58/1/6
f 57/3/6 54/3/6 58/3/6
f 56/1/6 57/1/6 59/1/6
f 55/1/6 56/1/6 59/1/6
f 57/1/6 58/1/6 59/1/6
f 49/1/6 55/1/6 59/1/6
f 58/1/6 50/1/6 60/1/6
f 59/1/6 58/1/6 60/1/6
f 61/4/6 62/4/6 63/4/6
f 63/4/6 62/4/6 64/4/6
