# MagicaVoxel @ Ephtracy

# group
o 

# material
mtllib golem_action_0.mtl
usemtl palette

# normals
vn -1 0 0
vn 1 0 0
vn 0 0 1
vn 0 0 -1
vn 0 -1 0
vn 0 1 0

# texcoords
vt 0.939453 0.5
vt 0.943359 0.5

# verts
v -0.6 1 0.1
v -0.6 1 -0.2
v -0.6 1.2 0.5
v -0.6 1.2 0.4
v -0.6 1.2 0.3
v -0.6 1.2 0.2
v -0.6 1.2 0.1
v -0.6 1.2 -0.2
v -0.6 1.5 0.5
v -0.6 1.5 0.4
v -0.6 1.5 0.3
v -0.6 1.5 0.2
v -0.5 0.8 0.2
v -0.5 0.8 -5.96046e-08
v -0.5 0.9 0.3
v -0.5 0.9 0.2
v -0.5 0.9 -5.96046e-08
v -0.5 0.9 -0.1
v -0.5 1 0.4
v -0.5 1 0.3
v -0.5 1 0.2
v -0.5 1 -5.96046e-08
v -0.5 1 -0.1
v -0.5 1.2 0.4
v -0.5 1.2 0.3
v -0.3 0.5 0.2
v -0.3 0.5 -0.4
v -0.3 1 0.1
v -0.3 1 -0.2
v -0.3 1.2 0.2
v -0.3 1.2 0.1
v -0.3 1.2 -0.2
v -0.3 1.2 -0.4
v -0.2 0 -5.96046e-08
v -0.2 0 -0.3
v -0.2 0.1 -5.96046e-08
v -0.2 0.1 -0.3
v -0.2 0.3 0.1
v -0.2 0.3 -0.3
v -0.2 0.5 0.1
v -0.2 0.5 -0.3
v -0.1 0.1 -5.96046e-08
v -0.1 0.1 -0.2
v -0.1 0.3 -5.96046e-08
v -0.1 0.3 -0.2
v -0.1 0.7 0.4
v -0.1 0.7 0.2
v -0.1 0.9 0.4
v -0.1 0.9 0.3
v -0.1 1 0.3
v -0.1 1 0.2
v 0.1 0.1 0.2
v 0.1 0.1 -5.96046e-08
v 0.1 0.2 0.2
v 0.1 0.2 -5.96046e-08
v 0.4 1.2 0.5
v 0.4 1.2 0.4
v 0.4 1.2 0.3
v 0.4 1.2 0.2
v 0.4 1.5 0.5
v 0.4 1.5 0.4
v 0.4 1.5 0.3
v 0.4 1.5 0.2
v 0.5 0.8 0.2
v 0.5 0.8 -5.96046e-08
v 0.5 0.9 0.3
v 0.5 0.9 0.2
v 0.5 0.9 -5.96046e-08
v 0.5 0.9 -0.1
v 0.5 1 0.4
v 0.5 1 0.3
v 0.5 1 0.2
v 0.5 1 -5.96046e-08
v 0.5 1 -0.1
v 0.5 1.2 0.4
v 0.5 1.2 0.3
v -0.4 0.8 0.2
v -0.4 0.8 -5.96046e-08
v -0.4 0.9 0.3
v -0.4 0.9 0.2
v -0.4 0.9 -5.96046e-08
v -0.4 0.9 -0.1
v -0.4 1 0.4
v -0.4 1 0.3
v -0.4 1 0.2
v -0.4 1 -5.96046e-08
v -0.4 1 -0.1
v -0.4 1.2 0.4
v -0.4 1.2 0.3
v -0.3 1.2 0.5
v -0.3 1.2 0.4
v -0.3 1.2 0.3
v -0.3 1.2 0.2
v -0.3 1.5 0.5
v -0.3 1.5 0.4
v -0.3 1.5 0.3
v -0.3 1.5 0.2
v 0 0 -5.96046e-08
v 0 0 -0.3
v 0 0.1 -5.96046e-08
v 0 0.1 -0.2
v 0 0.1 -0.3
v 0.2 0.1 -0.1
v 0.2 0.1 -0.2
v 0.2 0.2 -5.96046e-08
v 0.2 0.2 -0.1
v 0.2 0.3 -5.96046e-08
v 0.2 0.3 -0.2
v 0.2 0.7 0.4
v 0.2 0.7 0.2
v 0.2 0.9 0.4
v 0.2 0.9 0.3
v 0.2 1 0.3
v 0.2 1 0.2
v 0.3 0.1 0.2
v 0.3 0.1 -0.1
v 0.3 0.2 0.2
v 0.3 0.2 -0.1
v 0.3 0.3 0.1
v 0.3 0.3 -0.3
v 0.3 0.5 0.1
v 0.3 0.5 -0.3
v 0.4 0.5 0.2
v 0.4 0.5 -0.4
v 0.4 1 0.1
v 0.4 1 -0.2
v 0.4 1.2 0.2
v 0.4 1.2 0.1
v 0.4 1.2 -0.2
v 0.4 1.2 -0.4
v 0.6 0.8 0.2
v 0.6 0.8 -5.96046e-08
v 0.6 0.9 0.3
v 0.6 0.9 0.2
v 0.6 0.9 -5.96046e-08
v 0.6 0.9 -0.1
v 0.6 1 0.4
v 0.6 1 0.3
v 0.6 1 0.2
v 0.6 1 -5.96046e-08
v 0.6 1 -0.1
v 0.6 1.2 0.4
v 0.6 1.2 0.3
v 0.7 1 0.1
v 0.7 1 -0.2
v 0.7 1.2 0.5
v 0.7 1.2 0.4
v 0.7 1.2 0.3
v 0.7 1.2 0.2
v 0.7 1.2 0.1
v 0.7 1.2 -0.2
v 0.7 1.5 0.5
v 0.7 1.5 0.4
v 0.7 1.5 0.3
v 0.7 1.5 0.2
v -0.6 1.2 0.5
v -0.6 1.5 0.5
v -0.5 1.2 0.5
v -0.5 1.5 0.5
v -0.4 1.2 0.5
v -0.4 1.5 0.5
v -0.3 1.2 0.5
v -0.3 1.5 0.5
v 0.4 1.2 0.5
v 0.4 1.5 0.5
v 0.5 1.2 0.5
v 0.5 1.5 0.5
v 0.6 1.2 0.5
v 0.6 1.5 0.5
v 0.7 1.2 0.5
v 0.7 1.5 0.5
v -0.5 1 0.4
v -0.5 1.2 0.4
v -0.4 1 0.4
v -0.4 1.2 0.4
v -0.1 0.7 0.4
v -0.1 0.9 0.4
v 0.2 0.7 0.4
v 0.2 0.9 0.4
v 0.5 1 0.4
v 0.5 1.2 0.4
v 0.6 1 0.4
v 0.6 1.2 0.4
v -0.5 0.9 0.3
v -0.5 1 0.3
v -0.4 0.9 0.3
v -0.4 1 0.3
v -0.1 0.9 0.3
v -0.1 1 0.3
v 0.2 0.9 0.3
v 0.2 1 0.3
v 0.5 0.9 0.3
v 0.5 1 0.3
v 0.6 0.9 0.3
v 0.6 1 0.3
v -0.5 0.8 0.2
v -0.5 0.9 0.2
v -0.4 0.8 0.2
v -0.4 0.9 0.2
v -0.3 0.5 0.2
v -0.3 1.2 0.2
v -0.1 0.7 0.2
v -0.1 1 0.2
v 0.1 0.1 0.2
v 0.1 0.2 0.2
v 0.2 0.7 0.2
v 0.2 1 0.2
v 0.3 0.1 0.2
v 0.3 0.2 0.2
v 0.4 0.5 0.2
v 0.4 1.2 0.2
v 0.5 0.8 0.2
v 0.5 0.9 0.2
v 0.6 0.8 0.2
v 0.6 0.9 0.2
v -0.6 1 0.1
v -0.6 1.2 0.1
v -0.3 1 0.1
v -0.3 1.2 0.1
v -0.2 0.3 0.1
v -0.2 0.5 0.1
v 0.3 0.3 0.1
v 0.3 0.5 0.1
v 0.4 1 0.1
v 0.4 1.2 0.1
v 0.7 1 0.1
v 0.7 1.2 0.1
v -0.5 0.9 -5.96046e-08
v -0.5 1 -5.96046e-08
v -0.4 0.9 -5.96046e-08
v -0.4 1 -5.96046e-08
v -0.2 0 -5.96046e-08
v -0.2 0.1 -5.96046e-08
v -0.1 0.1 -5.96046e-08
v -0.1 0.3 -5.96046e-08
v 0 0 -5.96046e-08
v 0 0.1 -5.96046e-08
v 0.1 0.1 -5.96046e-08
v 0.1 0.2 -5.96046e-08
v 0.2 0.2 -5.96046e-08
v 0.2 0.3 -5.96046e-08
v 0.5 0.9 -5.96046e-08
v 0.5 1 -5.96046e-08
v 0.6 0.9 -5.96046e-08
v 0.6 1 -5.96046e-08
v -0.5 1 0.3
v -0.5 1.2 0.3
v -0.4 1 0.3
v -0.4 1.2 0.3
v 0.5 1 0.3
v 0.5 1.2 0.3
v 0.6 1 0.3
v 0.6 1.2 0.3
v -0.6 1.2 0.2
v -0.6 1.5 0.2
v -0.5 0.9 0.2
v -0.5 1 0.2
v -0.5 1.2 0.2
v -0.5 1.5 0.2
v -0.4 0.9 0.2
v -0.4 1 0.2
v -0.4 1.2 0.2
v -0.4 1.5 0.2
v -0.3 1.2 0.2
v -0.3 1.5 0.2
v 0.4 1.2 0.2
v 0.4 1.5 0.2
v 0.5 0.9 0.2
v 0.5 1 0.2
v 0.5 1.2 0.2
v 0.5 1.5 0.2
v 0.6 0.9 0.2
v 0.6 1 0.2
v 0.6 1.2 0.2
v 0.6 1.5 0.2
v 0.7 1.2 0.2
v 0.7 1.5 0.2
v -0.5 0.8 -5.96046e-08
v -0.5 0.9 -5.96046e-08
v -0.4 0.8 -5.96046e-08
v -0.4 0.9 -5.96046e-08
v 0.5 0.8 -5.96046e-08
v 0.5 0.9 -5.96046e-08
v 0.6 0.8 -5.96046e-08
v 0.6 0.9 -5.96046e-08
v -0.5 0.9 -0.1
v -0.5 1 -0.1
v -0.4 0.9 -0.1
v -0.4 1 -0.1
v 0.2 0.1 -0.1
v 0.2 0.2 -0.1
v 0.3 0.1 -0.1
v 0.3 0.2 -0.1
v 0.5 0.9 -0.1
v 0.5 1 -0.1
v 0.6 0.9 -0.1
v 0.6 1 -0.1
v -0.6 1 -0.2
v -0.6 1.2 -0.2
v -0.3 1 -0.2
v -0.3 1.2 -0.2
v -0.1 0.1 -0.2
v -0.1 0.3 -0.2
v 0 0.1 -0.2
v 0.2 0.1 -0.2
v 0.2 0.3 -0.2
v 0.4 1 -0.2
v 0.4 1.2 -0.2
v 0.7 1 -0.2
v 0.7 1.2 -0.2
v -0.2 0 -0.3
v -0.2 0.1 -0.3
v -0.2 0.3 -0.3
v -0.2 0.5 -0.3
v 0 0 -0.3
v 0 0.1 -0.3
v 0.3 0.3 -0.3
v 0.3 0.5 -0.3
v -0.3 0.5 -0.4
v -0.3 1.2 -0.4
v 0.4 0.5 -0.4
v 0.4 1.2 -0.4
v -0.2 0 -5.96046e-08
v 0 0 -5.96046e-08
v -0.2 0 -0.3
v 0 0 -0.3
v 0.1 0.1 0.2
v 0.3 0.1 0.2
v 0 0.1 -5.96046e-08
v 0.1 0.1 -5.96046e-08
v 0.2 0.1 -0.1
v 0.3 0.1 -0.1
v 0 0.1 -0.2
v 0.2 0.1 -0.2
v -0.2 0.3 0.1
v 0.3 0.3 0.1
v -0.1 0.3 -5.96046e-08
v 0.2 0.3 -5.96046e-08
v -0.1 0.3 -0.2
v 0.2 0.3 -0.2
v -0.2 0.3 -0.3
v 0.3 0.3 -0.3
v -0.3 0.5 0.2
v 0.4 0.5 0.2
v -0.2 0.5 0.1
v 0.3 0.5 0.1
v -0.2 0.5 -0.3
v 0.3 0.5 -0.3
v -0.3 0.5 -0.4
v 0.4 0.5 -0.4
v -0.1 0.7 0.4
v 0.2 0.7 0.4
v -0.1 0.7 0.2
v 0.2 0.7 0.2
v -0.5 0.8 0.2
v -0.4 0.8 0.2
v 0.5 0.8 0.2
v 0.6 0.8 0.2
v -0.5 0.8 -5.96046e-08
v -0.4 0.8 -5.96046e-08
v 0.5 0.8 -5.96046e-08
v 0.6 0.8 -5.96046e-08
v -0.5 0.9 0.3
v -0.4 0.9 0.3
v 0.5 0.9 0.3
v 0.6 0.9 0.3
v -0.5 0.9 0.2
v -0.4 0.9 0.2
v 0.5 0.9 0.2
v 0.6 0.9 0.2
v -0.5 0.9 -5.96046e-08
v -0.4 0.9 -5.96046e-08
v 0.5 0.9 -5.96046e-08
v 0.6 0.9 -5.96046e-08
v -0.5 0.9 -0.1
v -0.4 0.9 -0.1
v 0.5 0.9 -0.1
v 0.6 0.9 -0.1
v -0.5 1 0.4
v -0.4 1 0.4
v 0.5 1 0.4
v 0.6 1 0.4
v -0.5 1 0.3
v -0.4 1 0.3
v 0.5 1 0.3
v 0.6 1 0.3
v -0.6 1 0.1
v -0.3 1 0.1
v 0.4 1 0.1
v 0.7 1 0.1
v -0.5 1 -5.96046e-08
v -0.4 1 -5.96046e-08
v 0.5 1 -5.96046e-08
v 0.6 1 -5.96046e-08
v -0.5 1 -0.1
v -0.4 1 -0.1
v 0.5 1 -0.1
v 0.6 1 -0.1
v -0.6 1 -0.2
v -0.3 1 -0.2
v 0.4 1 -0.2
v 0.7 1 -0.2
v -0.6 1.2 0.5
v -0.5 1.2 0.5
v -0.4 1.2 0.5
v -0.3 1.2 0.5
v 0.4 1.2 0.5
v 0.5 1.2 0.5
v 0.6 1.2 0.5
v 0.7 1.2 0.5
v -0.6 1.2 0.4
v -0.5 1.2 0.4
v -0.4 1.2 0.4
v -0.3 1.2 0.4
v 0.4 1.2 0.4
v 0.5 1.2 0.4
v 0.6 1.2 0.4
v 0.7 1.2 0.4
v -0.6 1.2 0.3
v -0.5 1.2 0.3
v -0.4 1.2 0.3
v -0.3 1.2 0.3
v 0.4 1.2 0.3
v 0.5 1.2 0.3
v 0.6 1.2 0.3
v 0.7 1.2 0.3
v -0.6 1.2 0.2
v -0.5 1.2 0.2
v -0.4 1.2 0.2
v -0.3 1.2 0.2
v 0.4 1.2 0.2
v 0.5 1.2 0.2
v 0.6 1.2 0.2
v 0.7 1.2 0.2
v -0.2 0.1 -5.96046e-08
v -0.1 0.1 -5.96046e-08
v -0.1 0.1 -0.2
v 0 0.1 -0.2
v -0.2 0.1 -0.3
v 0 0.1 -0.3
v 0.1 0.2 0.2
v 0.3 0.2 0.2
v 0.1 0.2 -5.96046e-08
v 0.2 0.2 -5.96046e-08
v 0.2 0.2 -0.1
v 0.3 0.2 -0.1
v -0.1 0.9 0.4
v 0.2 0.9 0.4
v -0.1 0.9 0.3
v 0.2 0.9 0.3
v -0.5 0.9 0.2
v -0.4 0.9 0.2
v 0.5 0.9 0.2
v 0.6 0.9 0.2
v -0.5 0.9 -5.96046e-08
v -0.4 0.9 -5.96046e-08
v 0.5 0.9 -5.96046e-08
v 0.6 0.9 -5.96046e-08
v -0.5 1 0.3
v -0.4 1 0.3
v -0.1 1 0.3
v 0.2 1 0.3
v 0.5 1 0.3
v 0.6 1 0.3
v -0.5 1 0.2
v -0.4 1 0.2
v -0.1 1 0.2
v 0.2 1 0.2
v 0.5 1 0.2
v 0.6 1 0.2
v -0.3 1.2 0.2
v 0.4 1.2 0.2
v -0.6 1.2 0.1
v -0.3 1.2 0.1
v 0.4 1.2 0.1
v 0.7 1.2 0.1
v -0.6 1.2 -0.2
v -0.3 1.2 -0.2
v 0.4 1.2 -0.2
v 0.7 1.2 -0.2
v -0.3 1.2 -0.4
v 0.4 1.2 -0.4
v -0.6 1.5 0.5
v -0.5 1.5 0.5
v -0.4 1.5 0.5
v -0.3 1.5 0.5
v 0.4 1.5 0.5
v 0.5 1.5 0.5
v 0.6 1.5 0.5
v 0.7 1.5 0.5
v -0.6 1.5 0.4
v -0.5 1.5 0.4
v -0.4 1.5 0.4
v -0.3 1.5 0.4
v 0.4 1.5 0.4
v 0.5 1.5 0.4
v 0.6 1.5 0.4
v 0.7 1.5 0.4
v -0.6 1.5 0.3
v -0.5 1.5 0.3
v -0.4 1.5 0.3
v -0.3 1.5 0.3
v 0.4 1.5 0.3
v 0.5 1.5 0.3
v 0.6 1.5 0.3
v 0.7 1.5 0.3
v -0.6 1.5 0.2
v -0.5 1.5 0.2
v -0.4 1.5 0.2
v -0.3 1.5 0.2
v 0.4 1.5 0.2
v 0.5 1.5 0.2
v 0.6 1.5 0.2
v 0.7 1.5 0.2

# faces
f 7/2/1 2/2/1 1/2/1
f 8/2/1 2/2/1 7/2/1
f 9/2/1 4/2/1 3/2/1
f 10/1/1 5/1/1 4/1/1
f 10/2/1 4/2/1 9/2/1
f 11/2/1 6/2/1 5/2/1
f 11/1/1 5/1/1 10/1/1
f 12/2/1 6/2/1 11/2/1
f 16/1/1 14/1/1 13/1/1
f 17/1/1 14/1/1 16/1/1
f 20/1/1 16/1/1 15/1/1
f 21/1/1 16/1/1 20/1/1
f 22/1/1 18/1/1 17/1/1
f 23/1/1 18/1/1 22/1/1
f 24/1/1 20/1/1 19/1/1
f 25/1/1 20/1/1 24/1/1
f 28/2/1 27/2/1 26/2/1
f 29/2/1 27/2/1 28/2/1
f 30/2/1 28/2/1 26/2/1
f 31/2/1 28/2/1 30/2/1
f 32/2/1 27/2/1 29/2/1
f 33/2/1 27/2/1 32/2/1
f 36/2/1 35/2/1 34/2/1
f 37/2/1 35/2/1 36/2/1
f 40/2/1 39/2/1 38/2/1
f 41/2/1 39/2/1 40/2/1
f 44/2/1 43/2/1 42/2/1
f 45/2/1 43/2/1 44/2/1
f 48/2/1 47/2/1 46/2/1
f 49/2/1 47/2/1 48/2/1
f 50/2/1 47/2/1 49/2/1
f 51/2/1 47/2/1 50/2/1
f 54/2/1 53/2/1 52/2/1
f 55/2/1 53/2/1 54/2/1
f 60/2/1 57/2/1 56/2/1
f 61/1/1 58/1/1 57/1/1
f 61/2/1 57/2/1 60/2/1
f 62/2/1 59/2/1 58/2/1
f 62/1/1 58/1/1 61/1/1
f 63/2/1 59/2/1 62/2/1
f 67/1/1 65/1/1 64/1/1
f 68/1/1 65/1/1 67/1/1
f 71/1/1 67/1/1 66/1/1
f 72/1/1 67/1/1 71/1/1
f 73/1/1 69/1/1 68/1/1
f 74/1/1 69/1/1 73/1/1
f 75/1/1 71/1/1 70/1/1
f 76/1/1 71/1/1 75/1/1
f 77/1/2 78/1/2 80/1/2
f 80/1/2 78/1/2 81/1/2
f 79/1/2 80/1/2 84/1/2
f 84/1/2 80/1/2 85/1/2
f 81/1/2 82/1/2 86/1/2
f 86/1/2 82/1/2 87/1/2
f 83/1/2 84/1/2 88/1/2
f 88/1/2 84/1/2 89/1/2
f 90/2/2 91/2/2 94/2/2
f 91/1/2 92/1/2 95/1/2
f 94/2/2 91/2/2 95/2/2
f 92/2/2 93/2/2 96/2/2
f 95/1/2 92/1/2 96/1/2
f 96/2/2 93/2/2 97/2/2
f 98/2/2 99/2/2 100/2/2
f 100/2/2 99/2/2 101/2/2
f 101/2/2 99/2/2 102/2/2
f 103/2/2 104/2/2 106/2/2
f 105/2/2 106/2/2 107/2/2
f 106/2/2 104/2/2 108/2/2
f 107/2/2 106/2/2 108/2/2
f 109/2/2 110/2/2 111/2/2
f 111/2/2 110/2/2 112/2/2
f 112/2/2 110/2/2 113/2/2
f 113/2/2 110/2/2 114/2/2
f 115/2/2 116/2/2 117/2/2
f 117/2/2 116/2/2 118/2/2
f 119/2/2 120/2/2 121/2/2
f 121/2/2 120/2/2 122/2/2
f 123/2/2 124/2/2 125/2/2
f 125/2/2 124/2/2 126/2/2
f 123/2/2 125/2/2 127/2/2
f 127/2/2 125/2/2 128/2/2
f 126/2/2 124/2/2 129/2/2
f 129/2/2 124/2/2 130/2/2
f 131/1/2 132/1/2 134/1/2
f 134/1/2 132/1/2 135/1/2
f 133/1/2 134/1/2 138/1/2
f 138/1/2 134/1/2 139/1/2
f 135/1/2 136/1/2 140/1/2
f 140/1/2 136/1/2 141/1/2
f 137/1/2 138/1/2 142/1/2
f 142/1/2 138/1/2 143/1/2
f 144/2/2 145/2/2 150/2/2
f 150/2/2 145/2/2 151/2/2
f 146/2/2 147/2/2 152/2/2
f 147/1/2 148/1/2 153/1/2
f 152/2/2 147/2/2 153/2/2
f 148/2/2 149/2/2 154/2/2
f 153/1/2 148/1/2 154/1/2
f 154/2/2 149/2/2 155/2/2
f 158/2/3 157/2/3 156/2/3
f 159/2/3 157/2/3 158/2/3
f 160/1/3 159/1/3 158/1/3
f 161/1/3 159/1/3 160/1/3
f 162/2/3 161/2/3 160/2/3
f 163/2/3 161/2/3 162/2/3
f 166/2/3 165/2/3 164/2/3
f 167/2/3 165/2/3 166/2/3
f 168/1/3 167/1/3 166/1/3
f 169/1/3 167/1/3 168/1/3
f 170/2/3 169/2/3 168/2/3
f 171/2/3 169/2/3 170/2/3
f 174/1/3 173/1/3 172/1/3
f 175/1/3 173/1/3 174/1/3
f 178/2/3 177/2/3 176/2/3
f 179/2/3 177/2/3 178/2/3
f 182/1/3 181/1/3 180/1/3
f 183/1/3 181/1/3 182/1/3
f 186/1/3 185/1/3 184/1/3
f 187/1/3 185/1/3 186/1/3
f 190/2/3 189/2/3 188/2/3
f 191/2/3 189/2/3 190/2/3
f 194/1/3 193/1/3 192/1/3
f 195/1/3 193/1/3 194/1/3
f 198/1/3 197/1/3 196/1/3
f 199/1/3 197/1/3 198/1/3
f 202/2/3 201/2/3 200/2/3
f 203/2/3 201/2/3 202/2/3
f 206/2/3 202/2/3 200/2/3
f 207/2/3 201/2/3 203/2/3
f 208/2/3 205/2/3 204/2/3
f 209/2/3 205/2/3 208/2/3
f 210/2/3 207/2/3 206/2/3
f 210/2/3 206/2/3 200/2/3
f 211/2/3 201/2/3 207/2/3
f 211/2/3 207/2/3 210/2/3
f 214/1/3 213/1/3 212/1/3
f 215/1/3 213/1/3 214/1/3
f 218/2/3 217/2/3 216/2/3
f 219/2/3 217/2/3 218/2/3
f 222/2/3 221/2/3 220/2/3
f 223/2/3 221/2/3 222/2/3
f 226/2/3 225/2/3 224/2/3
f 227/2/3 225/2/3 226/2/3
f 230/1/3 229/1/3 228/1/3
f 231/1/3 229/1/3 230/1/3
f 234/2/3 233/2/3 232/2/3
f 236/2/3 234/2/3 232/2/3
f 236/2/3 235/2/3 234/2/3
f 237/2/3 235/2/3 236/2/3
f 238/2/3 235/2/3 237/2/3
f 239/2/3 235/2/3 238/2/3
f 240/2/3 235/2/3 239/2/3
f 241/2/3 235/2/3 240/2/3
f 244/1/3 243/1/3 242/1/3
f 245/1/3 243/1/3 244/1/3
f 246/1/4 247/1/4 248/1/4
f 248/1/4 247/1/4 249/1/4
f 250/1/4 251/1/4 252/1/4
f 252/1/4 251/1/4 253/1/4
f 254/2/4 255/2/4 258/2/4
f 258/2/4 255/2/4 259/2/4
f 256/1/4 257/1/4 260/1/4
f 260/1/4 257/1/4 261/1/4
f 258/1/4 259/1/4 262/1/4
f 262/1/4 259/1/4 263/1/4
f 262/2/4 263/2/4 264/2/4
f 264/2/4 263/2/4 265/2/4
f 266/2/4 267/2/4 270/2/4
f 270/2/4 267/2/4 271/2/4
f 268/1/4 269/1/4 272/1/4
f 272/1/4 269/1/4 273/1/4
f 270/1/4 271/1/4 274/1/4
f 274/1/4 271/1/4 275/1/4
f 274/2/4 275/2/4 276/2/4
f 276/2/4 275/2/4 277/2/4
f 278/1/4 279/1/4 280/1/4
f 280/1/4 279/1/4 281/1/4
f 282/1/4 283/1/4 284/1/4
f 284/1/4 283/1/4 285/1/4
f 286/1/4 287/1/4 288/1/4
f 288/1/4 287/1/4 289/1/4
f 290/2/4 291/2/4 292/2/4
f 292/2/4 291/2/4 293/2/4
f 294/1/4 295/1/4 296/1/4
f 296/1/4 295/1/4 297/1/4
f 298/2/4 299/2/4 300/2/4
f 300/2/4 299/2/4 301/2/4
f 302/2/4 303/2/4 304/2/4
f 304/2/4 303/2/4 305/2/4
f 305/2/4 303/2/4 306/2/4
f 307/2/4 308/2/4 309/2/4
f 309/2/4 308/2/4 310/2/4
f 311/2/4 312/2/4 315/2/4
f 315/2/4 312/2/4 316/2/4
f 313/2/4 314/2/4 317/2/4
f 317/2/4 314/2/4 318/2/4
f 319/2/4 320/2/4 321/2/4
f 321/2/4 320/2/4 322/2/4
f 325/2/5 324/2/5 323/2/5
f 326/2/5 324/2/5 325/2/5
f 330/2/5 328/2/5 327/2/5
f 331/2/5 328/2/5 330/2/5
f 331/2/5 330/2/5 329/2/5
f 332/2/5 328/2/5 331/2/5
f 333/2/5 331/2/5 329/2/5
f 334/2/5 331/2/5 333/2/5
f 337/2/5 336/2/5 335/2/5
f 338/2/5 336/2/5 337/2/5
f 339/2/5 337/2/5 335/2/5
f 340/2/5 336/2/5 338/2/5
f 341/2/5 339/2/5 335/2/5
f 341/2/5 340/2/5 339/2/5
f 342/2/5 336/2/5 340/2/5
f 342/2/5 340/2/5 341/2/5
f 345/2/5 344/2/5 343/2/5
f 346/2/5 344/2/5 345/2/5
f 347/2/5 345/2/5 343/2/5
f 348/2/5 344/2/5 346/2/5
f 349/2/5 347/2/5 343/2/5
f 349/2/5 348/2/5 347/2/5
f 350/2/5 344/2/5 348/2/5
f 350/2/5 348/2/5 349/2/5
f 353/2/5 352/2/5 351/2/5
f 354/2/5 352/2/5 353/2/5
f 359/1/5 356/1/5 355/1/5
f 360/1/5 356/1/5 359/1/5
f 361/1/5 358/1/5 357/1/5
f 362/1/5 358/1/5 361/1/5
f 367/1/5 364/1/5 363/1/5
f 368/1/5 364/1/5 367/1/5
f 369/1/5 366/1/5 365/1/5
f 370/1/5 366/1/5 369/1/5
f 375/1/5 372/1/5 371/1/5
f 376/1/5 372/1/5 375/1/5
f 377/1/5 374/1/5 373/1/5
f 378/1/5 374/1/5 377/1/5
f 383/1/5 380/1/5 379/1/5
f 384/1/5 380/1/5 383/1/5
f 385/1/5 382/1/5 381/1/5
f 386/1/5 382/1/5 385/1/5
f 391/2/5 388/2/5 387/2/5
f 392/2/5 388/2/5 391/2/5
f 393/2/5 390/2/5 389/2/5
f 394/2/5 390/2/5 393/2/5
f 395/2/5 391/2/5 387/2/5
f 396/2/5 388/2/5 392/2/5
f 397/2/5 393/2/5 389/2/5
f 398/2/5 390/2/5 394/2/5
f 399/2/5 395/2/5 387/2/5
f 399/2/5 396/2/5 395/2/5
f 400/2/5 388/2/5 396/2/5
f 400/2/5 396/2/5 399/2/5
f 401/2/5 398/2/5 397/2/5
f 401/2/5 397/2/5 389/2/5
f 402/2/5 390/2/5 398/2/5
f 402/2/5 398/2/5 401/2/5
f 411/2/5 404/2/5 403/2/5
f 412/1/5 405/1/5 404/1/5
f 412/2/5 404/2/5 411/2/5
f 413/2/5 406/2/5 405/2/5
f 413/1/5 405/1/5 412/1/5
f 414/2/5 406/2/5 413/2/5
f 415/2/5 408/2/5 407/2/5
f 416/1/5 409/1/5 408/1/5
f 416/2/5 408/2/5 415/2/5
f 417/2/5 410/2/5 409/2/5
f 417/1/5 409/1/5 416/1/5
f 418/2/5 410/2/5 417/2/5
f 419/1/5 412/1/5 411/1/5
f 420/1/5 412/1/5 419/1/5
f 421/1/5 414/1/5 413/1/5
f 422/1/5 414/1/5 421/1/5
f 423/1/5 416/1/5 415/1/5
f 424/1/5 416/1/5 423/1/5
f 425/1/5 418/1/5 417/1/5
f 426/1/5 418/1/5 425/1/5
f 427/2/5 420/2/5 419/2/5
f 428/1/5 421/1/5 420/1/5
f 428/2/5 420/2/5 427/2/5
f 429/2/5 422/2/5 421/2/5
f 429/1/5 421/1/5 428/1/5
f 430/2/5 422/2/5 429/2/5
f 431/2/5 424/2/5 423/2/5
f 432/1/5 425/1/5 424/1/5
f 432/2/5 424/2/5 431/2/5
f 433/2/5 426/2/5 425/2/5
f 433/1/5 425/1/5 432/1/5
f 434/2/5 426/2/5 433/2/5
f 435/2/6 436/2/6 437/2/6
f 435/2/6 437/2/6 439/2/6
f 437/2/6 438/2/6 439/2/6
f 439/2/6 438/2/6 440/2/6
f 441/2/6 442/2/6 443/2/6
f 443/2/6 442/2/6 444/2/6
f 444/2/6 442/2/6 445/2/6
f 445/2/6 442/2/6 446/2/6
f 447/2/6 448/2/6 449/2/6
f 449/2/6 448/2/6 450/2/6
f 451/1/6 452/1/6 455/1/6
f 455/1/6 452/1/6 456/1/6
f 453/1/6 454/1/6 457/1/6
f 457/1/6 454/1/6 458/1/6
f 459/1/6 460/1/6 465/1/6
f 465/1/6 460/1/6 466/1/6
f 461/2/6 462/2/6 467/2/6
f 467/2/6 462/2/6 468/2/6
f 463/1/6 464/1/6 469/1/6
f 469/1/6 464/1/6 470/1/6
f 471/2/6 472/2/6 474/2/6
f 474/2/6 472/2/6 475/2/6
f 473/2/6 474/2/6 477/2/6
f 475/2/6 476/2/6 477/2/6
f 474/2/6 475/2/6 477/2/6
f 477/2/6 476/2/6 478/2/6
f 478/2/6 476/2/6 479/2/6
f 479/2/6 476/2/6 480/2/6
f 478/2/6 479/2/6 481/2/6
f 481/2/6 479/2/6 482/2/6
f 483/2/6 484/2/6 491/2/6
f 484/1/6 485/1/6 492/1/6
f 491/2/6 484/2/6 492/2/6
f 485/2/6 486/2/6 493/2/6
f 492/1/6 485/1/6 493/1/6
f 493/2/6 486/2/6 494/2/6
f 487/2/6 488/2/6 495/2/6
f 488/1/6 489/1/6 496/1/6
f 495/2/6 488/2/6 496/2/6
f 489/2/6 490/2/6 497/2/6
f 496/1/6 489/1/6 497/1/6
f 497/2/6 490/2/6 498/2/6
f 491/1/6 492/1/6 499/1/6
f 493/1/6 494/1/6 499/1/6
f 492/1/6 493/1/6 499/1/6
f 499/1/6 494/1/6 500/1/6
f 500/1/6 494/1/6 501/1/6
f 501/1/6 494/1/6 502/1/6
f 495/1/6 496/1/6 503/1/6
f 497/1/6 498/1/6 503/1/6
f 496/1/6 497/1/6 503/1/6
f 503/1/6 498/1/6 504/1/6
f 504/1/6 498/1/6 505/1/6
f 505/1/6 498/1/6 506/1/6
f 499/2/6 500/2/6 507/2/6
f 500/1/6 501/1/6 508/1/6
f 507/2/6 500/2/6 508/2/6
f 501/2/6 502/2/6 509/2/6
f 508/1/6 501/1/6 509/1/6
f 509/2/6 502/2/6 510/2/6
f 503/2/6 504/2/6 511/2/6
f 504/1/6 505/1/6 512/1/6
f 511/2/6 504/2/6 512/2/6
f 505/2/6 506/2/6 513/2/6
f 512/1/6 505/1/6 513/1/6
f 513/2/6 506/2/6 514/2/6
