# MagicaVoxel @ Ephtracy

# group
o 

# material
mtllib golem_action_1.mtl
usemtl palette

# normals
vn -1 0 0
vn 1 0 0
vn 0 0 1
vn 0 0 -1
vn 0 -1 0
vn 0 1 0

# texcoords
vt 0.939453 0.5
vt 0.943359 0.5

# verts
v -0.6 0 0.6
v -0.6 0 0.3
v -0.6 0.1 0.6
v -0.6 0.1 0.3
v -0.6 0.2 0.6
v -0.6 0.2 0.3
v -0.6 0.3 0.6
v -0.6 0.3 0.3
v -0.6 0.8 0.2
v -0.6 0.8 -0.1
v -0.6 1 0.2
v -0.6 1 -0.1
v -0.5 0.1 0.3
v -0.5 0.1 0.2
v -0.5 0.2 0.3
v -0.5 0.3 0.3
v -0.5 0.3 0.2
v -0.5 0.3 0.1
v -0.5 0.5 0.2
v -0.5 0.5 0.1
v -0.5 0.5 0
v -0.5 0.8 0.1
v -0.5 0.8 0
v -0.3 0.5 0.2
v -0.3 0.5 -0.4
v -0.3 0.8 0.2
v -0.3 0.8 -0.1
v -0.3 1 0.2
v -0.3 1 -0.1
v -0.3 1.1 0.2
v -0.3 1.1 -0.4
v -0.2 0 0.1
v -0.2 0 -0.2
v -0.2 0.1 0.1
v -0.2 0.1 -0.2
v -0.2 0.3 0.1
v -0.2 0.3 -0.3
v -0.2 0.5 0.1
v -0.2 0.5 -0.3
v -0.1 0.1 0
v -0.1 0.1 -0.2
v -0.1 0.3 0
v -0.1 0.3 -0.2
v -0.1 0.6 0.4
v -0.1 0.6 0.2
v -0.1 0.8 0.4
v -0.1 0.8 0.3
v -0.1 0.9 0.3
v -0.1 0.9 0.2
v 0.1 0 0.1
v 0.1 0 -0.2
v 0.1 0.1 0.1
v 0.1 0.1 0
v 0.1 0.1 -0.2
v 0.4 0 0.6
v 0.4 0 0.3
v 0.4 0.1 0.6
v 0.4 0.1 0.3
v 0.4 0.2 0.6
v 0.4 0.2 0.3
v 0.4 0.3 0.6
v 0.4 0.3 0.3
v 0.5 0.1 0.3
v 0.5 0.1 0.2
v 0.5 0.2 0.3
v 0.5 0.3 0.3
v 0.5 0.3 0.2
v 0.5 0.3 0.1
v 0.5 0.5 0.2
v 0.5 0.5 0.1
v 0.5 0.5 0
v 0.5 0.8 0.1
v 0.5 0.8 0
v -0.4 0.1 0.3
v -0.4 0.1 0.2
v -0.4 0.2 0.3
v -0.4 0.3 0.3
v -0.4 0.3 0.2
v -0.4 0.3 0.1
v -0.4 0.5 0.2
v -0.4 0.5 0.1
v -0.4 0.5 0
v -0.4 0.8 0.1
v -0.4 0.8 0
v -0.3 0 0.6
v -0.3 0 0.3
v -0.3 0.1 0.6
v -0.3 0.1 0.3
v -0.3 0.2 0.6
v -0.3 0.2 0.3
v -0.3 0.3 0.6
v -0.3 0.3 0.3
v 0 0 0.1
v 0 0 -0.2
v 0 0.1 0.1
v 0 0.1 0
v 0 0.1 -0.2
v 0.2 0.1 0
v 0.2 0.1 -0.2
v 0.2 0.3 0
v 0.2 0.3 -0.2
v 0.2 0.6 0.4
v 0.2 0.6 0.2
v 0.2 0.8 0.4
v 0.2 0.8 0.3
v 0.2 0.9 0.3
v 0.2 0.9 0.2
v 0.3 0 0.1
v 0.3 0 -0.2
v 0.3 0.1 0.1
v 0.3 0.1 -0.2
v 0.3 0.3 0.1
v 0.3 0.3 -0.3
v 0.3 0.5 0.1
v 0.3 0.5 -0.3
v 0.4 0.5 0.2
v 0.4 0.5 -0.4
v 0.4 0.8 0.2
v 0.4 0.8 -0.1
v 0.4 1 0.2
v 0.4 1 -0.1
v 0.4 1.1 0.2
v 0.4 1.1 -0.4
v 0.6 0.1 0.3
v 0.6 0.1 0.2
v 0.6 0.2 0.3
v 0.6 0.3 0.3
v 0.6 0.3 0.2
v 0.6 0.3 0.1
v 0.6 0.5 0.2
v 0.6 0.5 0.1
v 0.6 0.5 0
v 0.6 0.8 0.1
v 0.6 0.8 0
v 0.7 0 0.6
v 0.7 0 0.3
v 0.7 0.1 0.6
v 0.7 0.1 0.3
v 0.7 0.2 0.6
v 0.7 0.2 0.3
v 0.7 0.3 0.6
v 0.7 0.3 0.3
v 0.7 0.8 0.2
v 0.7 0.8 -0.1
v 0.7 1 0.2
v 0.7 1 -0.1
v -0.6 0 0.6
v -0.6 0.1 0.6
v -0.6 0.2 0.6
v -0.6 0.3 0.6
v -0.5 0 0.6
v -0.5 0.1 0.6
v -0.5 0.2 0.6
v -0.5 0.3 0.6
v -0.4 0 0.6
v -0.4 0.1 0.6
v -0.4 0.2 0.6
v -0.4 0.3 0.6
v -0.3 0 0.6
v -0.3 0.1 0.6
v -0.3 0.2 0.6
v -0.3 0.3 0.6
v 0.4 0 0.6
v 0.4 0.1 0.6
v 0.4 0.2 0.6
v 0.4 0.3 0.6
v 0.5 0 0.6
v 0.5 0.1 0.6
v 0.5 0.2 0.6
v 0.5 0.3 0.6
v 0.6 0 0.6
v 0.6 0.1 0.6
v 0.6 0.2 0.6
v 0.6 0.3 0.6
v 0.7 0 0.6
v 0.7 0.1 0.6
v 0.7 0.2 0.6
v 0.7 0.3 0.6
v -0.1 0.6 0.4
v -0.1 0.8 0.4
v 0.2 0.6 0.4
v 0.2 0.8 0.4
v -0.1 0.8 0.3
v -0.1 0.9 0.3
v 0.2 0.8 0.3
v 0.2 0.9 0.3
v -0.6 0.8 0.2
v -0.6 1 0.2
v -0.5 0.3 0.2
v -0.5 0.5 0.2
v -0.4 0.3 0.2
v -0.4 0.5 0.2
v -0.3 0.5 0.2
v -0.3 0.8 0.2
v -0.3 1 0.2
v -0.3 1.1 0.2
v -0.1 0.6 0.2
v -0.1 0.9 0.2
v 0.2 0.6 0.2
v 0.2 0.9 0.2
v 0.4 0.5 0.2
v 0.4 0.8 0.2
v 0.4 1 0.2
v 0.4 1.1 0.2
v 0.5 0.3 0.2
v 0.5 0.5 0.2
v 0.6 0.3 0.2
v 0.6 0.5 0.2
v 0.7 0.8 0.2
v 0.7 1 0.2
v -0.5 0.5 0.1
v -0.5 0.8 0.1
v -0.4 0.5 0.1
v -0.4 0.8 0.1
v -0.2 0 0.1
v -0.2 0.1 0.1
v -0.2 0.3 0.1
v -0.2 0.5 0.1
v 0 0 0.1
v 0 0.1 0.1
v 0.1 0 0.1
v 0.1 0.1 0.1
v 0.3 0 0.1
v 0.3 0.1 0.1
v 0.3 0.3 0.1
v 0.3 0.5 0.1
v 0.5 0.5 0.1
v 0.5 0.8 0.1
v 0.6 0.5 0.1
v 0.6 0.8 0.1
v -0.1 0.1 0
v -0.1 0.3 0
v 0 0.1 0
v 0.1 0.1 0
v 0.2 0.1 0
v 0.2 0.3 0
v -0.6 0 0.3
v -0.6 0.1 0.3
v -0.6 0.2 0.3
v -0.6 0.3 0.3
v -0.5 0 0.3
v -0.5 0.1 0.3
v -0.5 0.2 0.3
v -0.5 0.3 0.3
v -0.4 0 0.3
v -0.4 0.1 0.3
v -0.4 0.2 0.3
v -0.4 0.3 0.3
v -0.3 0 0.3
v -0.3 0.1 0.3
v -0.3 0.2 0.3
v -0.3 0.3 0.3
v 0.4 0 0.3
v 0.4 0.1 0.3
v 0.4 0.2 0.3
v 0.4 0.3 0.3
v 0.5 0 0.3
v 0.5 0.1 0.3
v 0.5 0.2 0.3
v 0.5 0.3 0.3
v 0.6 0 0.3
v 0.6 0.1 0.3
v 0.6 0.2 0.3
v 0.6 0.3 0.3
v 0.7 0 0.3
v 0.7 0.1 0.3
v 0.7 0.2 0.3
v 0.7 0.3 0.3
v -0.5 0.1 0.2
v -0.5 0.3 0.2
v -0.4 0.1 0.2
v -0.4 0.3 0.2
v 0.5 0.1 0.2
v 0.5 0.3 0.2
v 0.6 0.1 0.2
v 0.6 0.3 0.2
v -0.5 0.3 0.1
v -0.5 0.5 0.1
v -0.4 0.3 0.1
v -0.4 0.5 0.1
v 0.5 0.3 0.1
v 0.5 0.5 0.1
v 0.6 0.3 0.1
v 0.6 0.5 0.1
v -0.5 0.5 0
v -0.5 0.8 0
v -0.4 0.5 0
v -0.4 0.8 0
v 0.5 0.5 0
v 0.5 0.8 0
v 0.6 0.5 0
v 0.6 0.8 0
v -0.6 0.8 -0.1
v -0.6 1 -0.1
v -0.3 0.8 -0.1
v -0.3 1 -0.1
v 0.4 0.8 -0.1
v 0.4 1 -0.1
v 0.7 0.8 -0.1
v 0.7 1 -0.1
v -0.2 0 -0.2
v -0.2 0.1 -0.2
v -0.1 0.1 -0.2
v -0.1 0.3 -0.2
v 0 0 -0.2
v 0 0.1 -0.2
v 0.1 0 -0.2
v 0.1 0.1 -0.2
v 0.2 0.1 -0.2
v 0.2 0.3 -0.2
v 0.3 0 -0.2
v 0.3 0.1 -0.2
v -0.2 0.3 -0.3
v -0.2 0.5 -0.3
v 0.3 0.3 -0.3
v 0.3 0.5 -0.3
v -0.3 0.5 -0.4
v -0.3 1.1 -0.4
v 0.4 0.5 -0.4
v 0.4 1.1 -0.4
v -0.6 0 0.6
v -0.5 0 0.6
v -0.4 0 0.6
v -0.3 0 0.6
v 0.4 0 0.6
v 0.5 0 0.6
v 0.6 0 0.6
v 0.7 0 0.6
v -0.6 0 0.3
v -0.5 0 0.3
v -0.4 0 0.3
v -0.3 0 0.3
v 0.4 0 0.3
v 0.5 0 0.3
v 0.6 0 0.3
v 0.7 0 0.3
v -0.2 0 0.1
v 0 0 0.1
v 0.1 0 0.1
v 0.3 0 0.1
v -0.2 0 -0.2
v 0 0 -0.2
v 0.1 0 -0.2
v 0.3 0 -0.2
v -0.5 0.1 0.3
v -0.4 0.1 0.3
v 0.5 0.1 0.3
v 0.6 0.1 0.3
v -0.5 0.1 0.2
v -0.4 0.1 0.2
v 0.5 0.1 0.2
v 0.6 0.1 0.2
v 0 0.1 0
v 0.1 0.1 0
v 0 0.1 -0.2
v 0.1 0.1 -0.2
v -0.5 0.3 0.2
v -0.4 0.3 0.2
v 0.5 0.3 0.2
v 0.6 0.3 0.2
v -0.5 0.3 0.1
v -0.4 0.3 0.1
v -0.2 0.3 0.1
v 0.3 0.3 0.1
v 0.5 0.3 0.1
v 0.6 0.3 0.1
v -0.1 0.3 0
v 0.2 0.3 0
v -0.1 0.3 -0.2
v 0.2 0.3 -0.2
v -0.2 0.3 -0.3
v 0.3 0.3 -0.3
v -0.3 0.5 0.2
v 0.4 0.5 0.2
v -0.5 0.5 0.1
v -0.4 0.5 0.1
v -0.2 0.5 0.1
v 0.3 0.5 0.1
v 0.5 0.5 0.1
v 0.6 0.5 0.1
v -0.5 0.5 0
v -0.4 0.5 0
v 0.5 0.5 0
v 0.6 0.5 0
v -0.2 0.5 -0.3
v 0.3 0.5 -0.3
v -0.3 0.5 -0.4
v 0.4 0.5 -0.4
v -0.1 0.6 0.4
v 0.2 0.6 0.4
v -0.1 0.6 0.2
v 0.2 0.6 0.2
v -0.6 0.8 0.2
v -0.3 0.8 0.2
v 0.4 0.8 0.2
v 0.7 0.8 0.2
v -0.5 0.8 0.1
v -0.4 0.8 0.1
v 0.5 0.8 0.1
v 0.6 0.8 0.1
v -0.5 0.8 0
v -0.4 0.8 0
v 0.5 0.8 0
v 0.6 0.8 0
v -0.6 0.8 -0.1
v -0.3 0.8 -0.1
v 0.4 0.8 -0.1
v 0.7 0.8 -0.1
v -0.2 0.1 0.1
v 0 0.1 0.1
v 0.1 0.1 0.1
v 0.3 0.1 0.1
v -0.1 0.1 0
v 0 0.1 0
v 0.1 0.1 0
v 0.2 0.1 0
v -0.2 0.1 -0.2
v -0.1 0.1 -0.2
v 0.2 0.1 -0.2
v 0.3 0.1 -0.2
v -0.6 0.3 0.6
v -0.5 0.3 0.6
v -0.4 0.3 0.6
v -0.3 0.3 0.6
v 0.4 0.3 0.6
v 0.5 0.3 0.6
v 0.6 0.3 0.6
v 0.7 0.3 0.6
v -0.6 0.3 0.3
v -0.5 0.3 0.3
v -0.4 0.3 0.3
v -0.3 0.3 0.3
v 0.4 0.3 0.3
v 0.5 0.3 0.3
v 0.6 0.3 0.3
v 0.7 0.3 0.3
v -0.5 0.3 0.2
v -0.4 0.3 0.2
v 0.5 0.3 0.2
v 0.6 0.3 0.2
v -0.5 0.5 0.2
v -0.4 0.5 0.2
v 0.5 0.5 0.2
v 0.6 0.5 0.2
v -0.5 0.5 0.1
v -0.4 0.5 0.1
v 0.5 0.5 0.1
v 0.6 0.5 0.1
v -0.1 0.8 0.4
v 0.2 0.8 0.4
v -0.1 0.8 0.3
v 0.2 0.8 0.3
v -0.1 0.9 0.3
v 0.2 0.9 0.3
v -0.1 0.9 0.2
v 0.2 0.9 0.2
v -0.6 1 0.2
v -0.3 1 0.2
v 0.4 1 0.2
v 0.7 1 0.2
v -0.6 1 -0.1
v -0.3 1 -0.1
v 0.4 1 -0.1
v 0.7 1 -0.1
v -0.3 1.1 0.2
v 0.4 1.1 0.2
v -0.3 1.1 -0.4
v 0.4 1.1 -0.4

# faces
f 3/2/1 2/2/1 1/2/1
f 4/2/1 2/2/1 3/2/1
f 5/1/1 4/1/1 3/1/1
f 6/1/1 4/1/1 5/1/1
f 7/2/1 6/2/1 5/2/1
f 8/2/1 6/2/1 7/2/1
f 11/2/1 10/2/1 9/2/1
f 12/2/1 10/2/1 11/2/1
f 15/1/1 14/1/1 13/1/1
f 16/1/1 14/1/1 15/1/1
f 17/1/1 14/1/1 16/1/1
f 19/1/1 18/1/1 17/1/1
f 20/1/1 18/1/1 19/1/1
f 22/1/1 21/1/1 20/1/1
f 23/1/1 21/1/1 22/1/1
f 26/2/1 25/2/1 24/2/1
f 27/2/1 25/2/1 26/2/1
f 29/2/1 25/2/1 27/2/1
f 30/2/1 29/2/1 28/2/1
f 31/2/1 25/2/1 29/2/1
f 31/2/1 29/2/1 30/2/1
f 34/2/1 33/2/1 32/2/1
f 35/2/1 33/2/1 34/2/1
f 38/2/1 37/2/1 36/2/1
f 39/2/1 37/2/1 38/2/1
f 42/2/1 41/2/1 40/2/1
f 43/2/1 41/2/1 42/2/1
f 46/2/1 45/2/1 44/2/1
f 47/2/1 45/2/1 46/2/1
f 48/2/1 45/2/1 47/2/1
f 49/2/1 45/2/1 48/2/1
f 52/2/1 51/2/1 50/2/1
f 53/2/1 51/2/1 52/2/1
f 54/2/1 51/2/1 53/2/1
f 57/2/1 56/2/1 55/2/1
f 58/2/1 56/2/1 57/2/1
f 59/1/1 58/1/1 57/1/1
f 60/1/1 58/1/1 59/1/1
f 61/2/1 60/2/1 59/2/1
f 62/2/1 60/2/1 61/2/1
f 65/1/1 64/1/1 63/1/1
f 66/1/1 64/1/1 65/1/1
f 67/1/1 64/1/1 66/1/1
f 69/1/1 68/1/1 67/1/1
f 70/1/1 68/1/1 69/1/1
f 72/1/1 71/1/1 70/1/1
f 73/1/1 71/1/1 72/1/1
f 74/1/2 75/1/2 76/1/2
f 76/1/2 75/1/2 77/1/2
f 77/1/2 75/1/2 78/1/2
f 78/1/2 79/1/2 80/1/2
f 80/1/2 79/1/2 81/1/2
f 81/1/2 82/1/2 83/1/2
f 83/1/2 82/1/2 84/1/2
f 85/2/2 86/2/2 87/2/2
f 87/2/2 86/2/2 88/2/2
f 87/1/2 88/1/2 89/1/2
f 89/1/2 88/1/2 90/1/2
f 89/2/2 90/2/2 91/2/2
f 91/2/2 90/2/2 92/2/2
f 93/2/2 94/2/2 95/2/2
f 95/2/2 94/2/2 96/2/2
f 96/2/2 94/2/2 97/2/2
f 98/2/2 99/2/2 100/2/2
f 100/2/2 99/2/2 101/2/2
f 102/2/2 103/2/2 104/2/2
f 104/2/2 103/2/2 105/2/2
f 105/2/2 103/2/2 106/2/2
f 106/2/2 103/2/2 107/2/2
f 108/2/2 109/2/2 110/2/2
f 110/2/2 109/2/2 111/2/2
f 112/2/2 113/2/2 114/2/2
f 114/2/2 113/2/2 115/2/2
f 116/2/2 117/2/2 118/2/2
f 118/2/2 117/2/2 119/2/2
f 119/2/2 117/2/2 121/2/2
f 120/2/2 121/2/2 122/2/2
f 121/2/2 117/2/2 123/2/2
f 122/2/2 121/2/2 123/2/2
f 124/1/2 125/1/2 126/1/2
f 126/1/2 125/1/2 127/1/2
f 127/1/2 125/1/2 128/1/2
f 128/1/2 129/1/2 130/1/2
f 130/1/2 129/1/2 131/1/2
f 131/1/2 132/1/2 133/1/2
f 133/1/2 132/1/2 134/1/2
f 135/2/2 136/2/2 137/2/2
f 137/2/2 136/2/2 138/2/2
f 137/1/2 138/1/2 139/1/2
f 139/1/2 138/1/2 140/1/2
f 139/2/2 140/2/2 141/2/2
f 141/2/2 140/2/2 142/2/2
f 143/2/2 144/2/2 145/2/2
f 145/2/2 144/2/2 146/2/2
f 151/2/3 148/2/3 147/2/3
f 152/1/3 149/1/3 148/1/3
f 152/2/3 148/2/3 151/2/3
f 153/2/3 150/2/3 149/2/3
f 153/1/3 149/1/3 152/1/3
f 154/2/3 150/2/3 153/2/3
f 155/1/3 152/1/3 151/1/3
f 155/1/3 153/1/3 152/1/3
f 155/1/3 154/1/3 153/1/3
f 156/1/3 154/1/3 155/1/3
f 157/1/3 154/1/3 156/1/3
f 158/1/3 154/1/3 157/1/3
f 159/2/3 156/2/3 155/2/3
f 160/1/3 157/1/3 156/1/3
f 160/2/3 156/2/3 159/2/3
f 161/2/3 158/2/3 157/2/3
f 161/1/3 157/1/3 160/1/3
f 162/2/3 158/2/3 161/2/3
f 167/2/3 164/2/3 163/2/3
f 168/1/3 165/1/3 164/1/3
f 168/2/3 164/2/3 167/2/3
f 169/2/3 166/2/3 165/2/3
f 169/1/3 165/1/3 168/1/3
f 170/2/3 166/2/3 169/2/3
f 171/1/3 168/1/3 167/1/3
f 171/1/3 169/1/3 168/1/3
f 171/1/3 170/1/3 169/1/3
f 172/1/3 170/1/3 171/1/3
f 173/1/3 170/1/3 172/1/3
f 174/1/3 170/1/3 173/1/3
f 175/2/3 172/2/3 171/2/3
f 176/1/3 173/1/3 172/1/3
f 176/2/3 172/2/3 175/2/3
f 177/2/3 174/2/3 173/2/3
f 177/1/3 173/1/3 176/1/3
f 178/2/3 174/2/3 177/2/3
f 181/2/3 180/2/3 179/2/3
f 182/2/3 180/2/3 181/2/3
f 185/2/3 184/2/3 183/2/3
f 186/2/3 184/2/3 185/2/3
f 191/1/3 190/1/3 189/1/3
f 192/1/3 190/1/3 191/1/3
f 194/2/3 188/2/3 187/2/3
f 195/2/3 188/2/3 194/2/3
f 197/2/3 194/2/3 193/2/3
f 197/2/3 196/2/3 195/2/3
f 197/2/3 195/2/3 194/2/3
f 198/2/3 196/2/3 197/2/3
f 199/2/3 197/2/3 193/2/3
f 200/2/3 196/2/3 198/2/3
f 201/2/3 199/2/3 193/2/3
f 201/2/3 200/2/3 199/2/3
f 202/2/3 200/2/3 201/2/3
f 203/2/3 196/2/3 200/2/3
f 203/2/3 200/2/3 202/2/3
f 204/2/3 196/2/3 203/2/3
f 207/1/3 206/1/3 205/1/3
f 208/1/3 206/1/3 207/1/3
f 209/2/3 203/2/3 202/2/3
f 210/2/3 203/2/3 209/2/3
f 213/1/3 212/1/3 211/1/3
f 214/1/3 212/1/3 213/1/3
f 219/2/3 216/2/3 215/2/3
f 220/2/3 216/2/3 219/2/3
f 223/2/3 222/2/3 221/2/3
f 224/2/3 222/2/3 223/2/3
f 225/2/3 218/2/3 217/2/3
f 226/2/3 218/2/3 225/2/3
f 229/1/3 228/1/3 227/1/3
f 230/1/3 228/1/3 229/1/3
f 233/2/3 232/2/3 231/2/3
f 234/2/3 232/2/3 233/2/3
f 235/2/3 232/2/3 234/2/3
f 236/2/3 232/2/3 235/2/3
f 237/2/4 238/2/4 241/2/4
f 238/1/4 239/1/4 242/1/4
f 241/2/4 238/2/4 242/2/4
f 239/2/4 240/2/4 243/2/4
f 242/1/4 239/1/4 243/1/4
f 243/2/4 240/2/4 244/2/4
f 241/1/4 242/1/4 245/1/4
f 245/1/4 242/1/4 246/1/4
f 245/2/4 246/2/4 249/2/4
f 246/1/4 247/1/4 250/1/4
f 249/2/4 246/2/4 250/2/4
f 247/2/4 248/2/4 251/2/4
f 250/1/4 247/1/4 251/1/4
f 251/2/4 248/2/4 252/2/4
f 253/2/4 254/2/4 257/2/4
f 254/1/4 255/1/4 258/1/4
f 257/2/4 254/2/4 258/2/4
f 255/2/4 256/2/4 259/2/4
f 258/1/4 255/1/4 259/1/4
f 259/2/4 256/2/4 260/2/4
f 257/1/4 258/1/4 261/1/4
f 261/1/4 258/1/4 262/1/4
f 261/2/4 262/2/4 265/2/4
f 262/1/4 263/1/4 266/1/4
f 265/2/4 262/2/4 266/2/4
f 263/2/4 264/2/4 267/2/4
f 266/1/4 263/1/4 267/1/4
f 267/2/4 264/2/4 268/2/4
f 269/1/4 270/1/4 271/1/4
f 271/1/4 270/1/4 272/1/4
f 273/1/4 274/1/4 275/1/4
f 275/1/4 274/1/4 276/1/4
f 277/1/4 278/1/4 279/1/4
f 279/1/4 278/1/4 280/1/4
f 281/1/4 282/1/4 283/1/4
f 283/1/4 282/1/4 284/1/4
f 285/1/4 286/1/4 287/1/4
f 287/1/4 286/1/4 288/1/4
f 289/1/4 290/1/4 291/1/4
f 291/1/4 290/1/4 292/1/4
f 293/2/4 294/2/4 295/2/4
f 295/2/4 294/2/4 296/2/4
f 297/2/4 298/2/4 299/2/4
f 299/2/4 298/2/4 300/2/4
f 301/2/4 302/2/4 303/2/4
f 301/2/4 303/2/4 305/2/4
f 303/2/4 304/2/4 305/2/4
f 305/2/4 304/2/4 306/2/4
f 306/2/4 304/2/4 308/2/4
f 308/2/4 304/2/4 309/2/4
f 307/2/4 308/2/4 309/2/4
f 309/2/4 304/2/4 310/2/4
f 307/2/4 309/2/4 311/2/4
f 311/2/4 309/2/4 312/2/4
f 313/2/4 314/2/4 315/2/4
f 315/2/4 314/2/4 316/2/4
f 317/2/4 318/2/4 319/2/4
f 319/2/4 318/2/4 320/2/4
f 329/2/5 322/2/5 321/2/5
f 330/1/5 323/1/5 322/1/5
f 330/2/5 322/2/5 329/2/5
f 331/2/5 324/2/5 323/2/5
f 331/1/5 323/1/5 330/1/5
f 332/2/5 324/2/5 331/2/5
f 333/2/5 326/2/5 325/2/5
f 334/1/5 327/1/5 326/1/5
f 334/2/5 326/2/5 333/2/5
f 335/2/5 328/2/5 327/2/5
f 335/1/5 327/1/5 334/1/5
f 336/2/5 328/2/5 335/2/5
f 341/2/5 338/2/5 337/2/5
f 342/2/5 338/2/5 341/2/5
f 343/2/5 340/2/5 339/2/5
f 344/2/5 340/2/5 343/2/5
f 349/1/5 346/1/5 345/1/5
f 350/1/5 346/1/5 349/1/5
f 351/1/5 348/1/5 347/1/5
f 352/1/5 348/1/5 351/1/5
f 355/2/5 354/2/5 353/2/5
f 356/2/5 354/2/5 355/2/5
f 361/1/5 358/1/5 357/1/5
f 362/1/5 358/1/5 361/1/5
f 365/1/5 360/1/5 359/1/5
f 366/1/5 360/1/5 365/1/5
f 367/2/5 364/2/5 363/2/5
f 368/2/5 364/2/5 367/2/5
f 369/2/5 367/2/5 363/2/5
f 370/2/5 364/2/5 368/2/5
f 371/2/5 369/2/5 363/2/5
f 371/2/5 370/2/5 369/2/5
f 372/2/5 364/2/5 370/2/5
f 372/2/5 370/2/5 371/2/5
f 377/2/5 374/2/5 373/2/5
f 378/2/5 374/2/5 377/2/5
f 381/1/5 376/1/5 375/1/5
f 382/1/5 376/1/5 381/1/5
f 383/1/5 380/1/5 379/1/5
f 384/1/5 380/1/5 383/1/5
f 385/2/5 377/2/5 373/2/5
f 386/2/5 374/2/5 378/2/5
f 387/2/5 385/2/5 373/2/5
f 387/2/5 386/2/5 385/2/5
f 388/2/5 374/2/5 386/2/5
f 388/2/5 386/2/5 387/2/5
f 391/2/5 390/2/5 389/2/5
f 392/2/5 390/2/5 391/2/5
f 397/2/5 394/2/5 393/2/5
f 398/2/5 394/2/5 397/2/5
f 399/2/5 396/2/5 395/2/5
f 400/2/5 396/2/5 399/2/5
f 401/2/5 397/2/5 393/2/5
f 402/2/5 394/2/5 398/2/5
f 403/2/5 399/2/5 395/2/5
f 404/2/5 396/2/5 400/2/5
f 405/2/5 401/2/5 393/2/5
f 405/2/5 402/2/5 401/2/5
f 406/2/5 394/2/5 402/2/5
f 406/2/5 402/2/5 405/2/5
f 407/2/5 404/2/5 403/2/5
f 407/2/5 403/2/5 395/2/5
f 408/2/5 396/2/5 404/2/5
f 408/2/5 404/2/5 407/2/5
f 409/2/6 410/2/6 413/2/6
f 413/2/6 410/2/6 414/2/6
f 411/2/6 412/2/6 415/2/6
f 415/2/6 412/2/6 416/2/6
f 409/2/6 413/2/6 417/2/6
f 417/2/6 413/2/6 418/2/6
f 416/2/6 412/2/6 419/2/6
f 419/2/6 412/2/6 420/2/6
f 421/2/6 422/2/6 429/2/6
f 422/1/6 423/1/6 430/1/6
f 429/2/6 422/2/6 430/2/6
f 423/2/6 424/2/6 431/2/6
f 430/1/6 423/1/6 431/1/6
f 431/2/6 424/2/6 432/2/6
f 425/2/6 426/2/6 433/2/6
f 426/1/6 427/1/6 434/1/6
f 433/2/6 426/2/6 434/2/6
f 427/2/6 428/2/6 435/2/6
f 434/1/6 427/1/6 435/1/6
f 435/2/6 428/2/6 436/2/6
f 430/1/6 431/1/6 437/1/6
f 437/1/6 431/1/6 438/1/6
f 434/1/6 435/1/6 439/1/6
f 439/1/6 435/1/6 440/1/6
f 441/1/6 442/1/6 445/1/6
f 445/1/6 442/1/6 446/1/6
f 443/1/6 444/1/6 447/1/6
f 447/1/6 444/1/6 448/1/6
f 449/2/6 450/2/6 451/2/6
f 451/2/6 450/2/6 452/2/6
f 453/2/6 454/2/6 455/2/6
f 455/2/6 454/2/6 456/2/6
f 457/2/6 458/2/6 461/2/6
f 461/2/6 458/2/6 462/2/6
f 459/2/6 460/2/6 463/2/6
f 463/2/6 460/2/6 464/2/6
f 465/2/6 466/2/6 467/2/6
f 467/2/6 466/2/6 468/2/6
