# MagicaVoxel @ Ephtracy

# group
o 

# material
mtllib golem_walk_3.mtl
usemtl palette

# normals
vn -1 0 0
vn 1 0 0
vn 0 0 1
vn 0 0 -1
vn 0 -1 0
vn 0 1 0

# texcoords
vt 0.939453 0.5
vt 0.943359 0.5

# verts
v -0.6 0 0.1
v -0.6 0 0
v -0.6 0 -0.1
v -0.6 0 -0.2
v -0.6 0.3 0.1
v -0.6 0.3 0
v -0.6 0.3 -0.1
v -0.6 0.3 -0.2
v -0.6 0.7 0.1
v -0.6 0.7 -0.2
v -0.6 0.9 0.1
v -0.6 0.9 -0.2
v -0.5 0.3 0
v -0.5 0.3 -0.1
v -0.5 0.7 0
v -0.5 0.7 -0.1
v -0.3 0.5 0.2
v -0.3 0.5 -0.4
v -0.3 0.7 0.1
v -0.3 0.7 -0.2
v -0.3 0.9 0.1
v -0.3 0.9 -0.2
v -0.3 1.1 0.2
v -0.3 1.1 -0.4
v -0.2 0.1 0.2
v -0.2 0.1 -0.1
v -0.2 0.2 0.2
v -0.2 0.2 -0.1
v -0.2 0.3 0.1
v -0.2 0.3 -0.3
v -0.2 0.5 0.1
v -0.2 0.5 -0.3
v -0.1 0.1 -0.1
v -0.1 0.1 -0.2
v -0.1 0.2 0
v -0.1 0.2 -0.1
v -0.1 0.3 0
v -0.1 0.3 -0.2
v -0.1 0.6 0.4
v -0.1 0.6 0.2
v -0.1 0.8 0.4
v -0.1 0.8 0.3
v -0.1 0.9 0.3
v -0.1 0.9 0.2
v 0.1 0 0
v 0.1 0 -0.3
v 0.1 0.1 0
v 0.1 0.1 -0.2
v 0.1 0.1 -0.3
v 0.4 0 0.1
v 0.4 0 0
v 0.4 0 -0.1
v 0.4 0 -0.2
v 0.4 0.3 0.1
v 0.4 0.3 0
v 0.4 0.3 -0.1
v 0.4 0.3 -0.2
v 0.5 0.3 0
v 0.5 0.3 -0.1
v 0.5 0.7 0
v 0.5 0.7 -0.1
v -0.4 0.3 0
v -0.4 0.3 -0.1
v -0.4 0.7 0
v -0.4 0.7 -0.1
v -0.3 0 0.1
v -0.3 0 0
v -0.3 0 -0.1
v -0.3 0 -0.2
v -0.3 0.3 0.1
v -0.3 0.3 0
v -0.3 0.3 -0.1
v -0.3 0.3 -0.2
v 0 0.1 0.2
v 0 0.1 0
v 0 0.2 0.2
v 0 0.2 0
v 0.2 0.1 0
v 0.2 0.1 -0.2
v 0.2 0.3 0
v 0.2 0.3 -0.2
v 0.2 0.6 0.4
v 0.2 0.6 0.2
v 0.2 0.8 0.4
v 0.2 0.8 0.3
v 0.2 0.9 0.3
v 0.2 0.9 0.2
v 0.3 0 0
v 0.3 0 -0.3
v 0.3 0.1 0
v 0.3 0.1 -0.3
v 0.3 0.3 0.1
v 0.3 0.3 -0.3
v 0.3 0.5 0.1
v 0.3 0.5 -0.3
v 0.4 0.5 0.2
v 0.4 0.5 -0.4
v 0.4 0.7 0.1
v 0.4 0.7 -0.2
v 0.4 0.9 0.1
v 0.4 0.9 -0.2
v 0.4 1.1 0.2
v 0.4 1.1 -0.4
v 0.6 0.3 0
v 0.6 0.3 -0.1
v 0.6 0.7 0
v 0.6 0.7 -0.1
v 0.7 0 0.1
v 0.7 0 0
v 0.7 0 -0.1
v 0.7 0 -0.2
v 0.7 0.3 0.1
v 0.7 0.3 0
v 0.7 0.3 -0.1
v 0.7 0.3 -0.2
v 0.7 0.7 0.1
v 0.7 0.7 -0.2
v 0.7 0.9 0.1
v 0.7 0.9 -0.2
v -0.1 0.6 0.4
v -0.1 0.8 0.4
v 0.2 0.6 0.4
v 0.2 0.8 0.4
v -0.1 0.8 0.3
v -0.1 0.9 0.3
v 0.2 0.8 0.3
v 0.2 0.9 0.3
v -0.3 0.5 0.2
v -0.3 1.1 0.2
v -0.2 0.1 0.2
v -0.2 0.2 0.2
v -0.1 0.6 0.2
v -0.1 0.9 0.2
v 0 0.1 0.2
v 0 0.2 0.2
v 0.2 0.6 0.2
v 0.2 0.9 0.2
v 0.4 0.5 0.2
v 0.4 1.1 0.2
v -0.6 0 0.1
v -0.6 0.3 0.1
v -0.6 0.7 0.1
v -0.6 0.9 0.1
v -0.5 0 0.1
v -0.5 0.3 0.1
v -0.4 0 0.1
v -0.4 0.3 0.1
v -0.3 0 0.1
v -0.3 0.3 0.1
v -0.3 0.7 0.1
v -0.3 0.9 0.1
v -0.2 0.3 0.1
v -0.2 0.5 0.1
v 0.3 0.3 0.1
v 0.3 0.5 0.1
v 0.4 0 0.1
v 0.4 0.3 0.1
v 0.4 0.7 0.1
v 0.4 0.9 0.1
v 0.5 0 0.1
v 0.5 0.3 0.1
v 0.6 0 0.1
v 0.6 0.3 0.1
v 0.7 0 0.1
v 0.7 0.3 0.1
v 0.7 0.7 0.1
v 0.7 0.9 0.1
v -0.5 0.3 0
v -0.5 0.7 0
v -0.4 0.3 0
v -0.4 0.7 0
v -0.1 0.2 0
v -0.1 0.3 0
v 0 0.1 0
v 0 0.2 0
v 0.1 0 0
v 0.1 0.1 0
v 0.2 0.1 0
v 0.2 0.3 0
v 0.3 0 0
v 0.3 0.1 0
v 0.5 0.3 0
v 0.5 0.7 0
v 0.6 0.3 0
v 0.6 0.7 0
v -0.5 0.3 -0.1
v -0.5 0.7 -0.1
v -0.4 0.3 -0.1
v -0.4 0.7 -0.1
v -0.2 0.1 -0.1
v -0.2 0.2 -0.1
v -0.1 0.1 -0.1
v -0.1 0.2 -0.1
v 0.5 0.3 -0.1
v 0.5 0.7 -0.1
v 0.6 0.3 -0.1
v 0.6 0.7 -0.1
v -0.6 0 -0.2
v -0.6 0.3 -0.2
v -0.6 0.7 -0.2
v -0.6 0.9 -0.2
v -0.5 0 -0.2
v -0.5 0.3 -0.2
v -0.4 0 -0.2
v -0.4 0.3 -0.2
v -0.3 0 -0.2
v -0.3 0.3 -0.2
v -0.3 0.7 -0.2
v -0.3 0.9 -0.2
v -0.1 0.1 -0.2
v -0.1 0.3 -0.2
v 0.1 0.1 -0.2
v 0.2 0.1 -0.2
v 0.2 0.3 -0.2
v 0.4 0 -0.2
v 0.4 0.3 -0.2
v 0.4 0.7 -0.2
v 0.4 0.9 -0.2
v 0.5 0 -0.2
v 0.5 0.3 -0.2
v 0.6 0 -0.2
v 0.6 0.3 -0.2
v 0.7 0 -0.2
v 0.7 0.3 -0.2
v 0.7 0.7 -0.2
v 0.7 0.9 -0.2
v -0.2 0.3 -0.3
v -0.2 0.5 -0.3
v 0.1 0 -0.3
v 0.1 0.1 -0.3
v 0.3 0 -0.3
v 0.3 0.1 -0.3
v 0.3 0.3 -0.3
v 0.3 0.5 -0.3
v -0.3 0.5 -0.4
v -0.3 1.1 -0.4
v 0.4 0.5 -0.4
v 0.4 1.1 -0.4
v -0.6 0 0.1
v -0.5 0 0.1
v -0.4 0 0.1
v -0.3 0 0.1
v 0.4 0 0.1
v 0.5 0 0.1
v 0.6 0 0.1
v 0.7 0 0.1
v -0.6 0 0
v -0.5 0 0
v -0.4 0 0
v -0.3 0 0
v 0.1 0 0
v 0.3 0 0
v 0.4 0 0
v 0.5 0 0
v 0.6 0 0
v 0.7 0 0
v -0.6 0 -0.1
v -0.5 0 -0.1
v -0.4 0 -0.1
v -0.3 0 -0.1
v 0.4 0 -0.1
v 0.5 0 -0.1
v 0.6 0 -0.1
v 0.7 0 -0.1
v -0.6 0 -0.2
v -0.5 0 -0.2
v -0.4 0 -0.2
v -0.3 0 -0.2
v 0.4 0 -0.2
v 0.5 0 -0.2
v 0.6 0 -0.2
v 0.7 0 -0.2
v 0.1 0 -0.3
v 0.3 0 -0.3
v -0.2 0.1 0.2
v 0 0.1 0.2
v 0 0.1 0
v 0.1 0.1 0
v -0.2 0.1 -0.1
v -0.1 0.1 -0.1
v -0.1 0.1 -0.2
v 0.1 0.1 -0.2
v -0.2 0.3 0.1
v 0.3 0.3 0.1
v -0.1 0.3 0
v 0.2 0.3 0
v -0.1 0.3 -0.2
v 0.2 0.3 -0.2
v -0.2 0.3 -0.3
v 0.3 0.3 -0.3
v -0.3 0.5 0.2
v 0.4 0.5 0.2
v -0.2 0.5 0.1
v 0.3 0.5 0.1
v -0.2 0.5 -0.3
v 0.3 0.5 -0.3
v -0.3 0.5 -0.4
v 0.4 0.5 -0.4
v -0.1 0.6 0.4
v 0.2 0.6 0.4
v -0.1 0.6 0.2
v 0.2 0.6 0.2
v -0.6 0.7 0.1
v -0.3 0.7 0.1
v 0.4 0.7 0.1
v 0.7 0.7 0.1
v -0.5 0.7 0
v -0.4 0.7 0
v 0.5 0.7 0
v 0.6 0.7 0
v -0.5 0.7 -0.1
v -0.4 0.7 -0.1
v 0.5 0.7 -0.1
v 0.6 0.7 -0.1
v -0.6 0.7 -0.2
v -0.3 0.7 -0.2
v 0.4 0.7 -0.2
v 0.7 0.7 -0.2
v 0.2 0.1 0
v 0.3 0.1 0
v 0.1 0.1 -0.2
v 0.2 0.1 -0.2
v 0.1 0.1 -0.3
v 0.3 0.1 -0.3
v -0.2 0.2 0.2
v 0 0.2 0.2
v -0.1 0.2 0
v 0 0.2 0
v -0.2 0.2 -0.1
v -0.1 0.2 -0.1
v -0.6 0.3 0.1
v -0.5 0.3 0.1
v -0.4 0.3 0.1
v -0.3 0.3 0.1
v 0.4 0.3 0.1
v 0.5 0.3 0.1
v 0.6 0.3 0.1
v 0.7 0.3 0.1
v -0.6 0.3 0
v -0.5 0.3 0
v -0.4 0.3 0
v -0.3 0.3 0
v 0.4 0.3 0
v 0.5 0.3 0
v 0.6 0.3 0
v 0.7 0.3 0
v -0.6 0.3 -0.1
v -0.5 0.3 -0.1
v -0.4 0.3 -0.1
v -0.3 0.3 -0.1
v 0.4 0.3 -0.1
v 0.5 0.3 -0.1
v 0.6 0.3 -0.1
v 0.7 0.3 -0.1
v -0.6 0.3 -0.2
v -0.5 0.3 -0.2
v -0.4 0.3 -0.2
v -0.3 0.3 -0.2
v 0.4 0.3 -0.2
v 0.5 0.3 -0.2
v 0.6 0.3 -0.2
v 0.7 0.3 -0.2
v -0.1 0.8 0.4
v 0.2 0.8 0.4
v -0.1 0.8 0.3
v 0.2 0.8 0.3
v -0.1 0.9 0.3
v 0.2 0.9 0.3
v -0.1 0.9 0.2
v 0.2 0.9 0.2
v -0.6 0.9 0.1
v -0.3 0.9 0.1
v 0.4 0.9 0.1
v 0.7 0.9 0.1
v -0.6 0.9 -0.2
v -0.3 0.9 -0.2
v 0.4 0.9 -0.2
v 0.7 0.9 -0.2
v -0.3 1.1 0.2
v 0.4 1.1 0.2
v -0.3 1.1 -0.4
v 0.4 1.1 -0.4

# faces
f 5/2/1 2/2/1 1/2/1
f 6/1/1 3/1/1 2/1/1
f 6/2/1 2/2/1 5/2/1
f 7/2/1 4/2/1 3/2/1
f 7/1/1 3/1/1 6/1/1
f 8/2/1 4/2/1 7/2/1
f 11/2/1 10/2/1 9/2/1
f 12/2/1 10/2/1 11/2/1
f 15/1/1 14/1/1 13/1/1
f 16/1/1 14/1/1 15/1/1
f 19/2/1 18/2/1 17/2/1
f 20/2/1 18/2/1 19/2/1
f 21/2/1 19/2/1 17/2/1
f 22/2/1 18/2/1 20/2/1
f 23/2/1 21/2/1 17/2/1
f 23/2/1 22/2/1 21/2/1
f 24/2/1 18/2/1 22/2/1
f 24/2/1 22/2/1 23/2/1
f 27/2/1 26/2/1 25/2/1
f 28/2/1 26/2/1 27/2/1
f 31/2/1 30/2/1 29/2/1
f 32/2/1 30/2/1 31/2/1
f 36/2/1 34/2/1 33/2/1
f 37/2/1 36/2/1 35/2/1
f 38/2/1 34/2/1 36/2/1
f 38/2/1 36/2/1 37/2/1
f 41/2/1 40/2/1 39/2/1
f 42/2/1 40/2/1 41/2/1
f 43/2/1 40/2/1 42/2/1
f 44/2/1 40/2/1 43/2/1
f 47/2/1 46/2/1 45/2/1
f 48/2/1 46/2/1 47/2/1
f 49/2/1 46/2/1 48/2/1
f 54/2/1 51/2/1 50/2/1
f 55/1/1 52/1/1 51/1/1
f 55/2/1 51/2/1 54/2/1
f 56/2/1 53/2/1 52/2/1
f 56/1/1 52/1/1 55/1/1
f 57/2/1 53/2/1 56/2/1
f 60/1/1 59/1/1 58/1/1
f 61/1/1 59/1/1 60/1/1
f 62/1/2 63/1/2 64/1/2
f 64/1/2 63/1/2 65/1/2
f 66/2/2 67/2/2 70/2/2
f 67/1/2 68/1/2 71/1/2
f 70/2/2 67/2/2 71/2/2
f 68/2/2 69/2/2 72/2/2
f 71/1/2 68/1/2 72/1/2
f 72/2/2 69/2/2 73/2/2
f 74/2/2 75/2/2 76/2/2
f 76/2/2 75/2/2 77/2/2
f 78/2/2 79/2/2 80/2/2
f 80/2/2 79/2/2 81/2/2
f 82/2/2 83/2/2 84/2/2
f 84/2/2 83/2/2 85/2/2
f 85/2/2 83/2/2 86/2/2
f 86/2/2 83/2/2 87/2/2
f 88/2/2 89/2/2 90/2/2
f 90/2/2 89/2/2 91/2/2
f 92/2/2 93/2/2 94/2/2
f 94/2/2 93/2/2 95/2/2
f 96/2/2 97/2/2 98/2/2
f 98/2/2 97/2/2 99/2/2
f 96/2/2 98/2/2 100/2/2
f 99/2/2 97/2/2 101/2/2
f 96/2/2 100/2/2 102/2/2
f 100/2/2 101/2/2 102/2/2
f 101/2/2 97/2/2 103/2/2
f 102/2/2 101/2/2 103/2/2
f 104/1/2 105/1/2 106/1/2
f 106/1/2 105/1/2 107/1/2
f 108/2/2 109/2/2 112/2/2
f 109/1/2 110/1/2 113/1/2
f 112/2/2 109/2/2 113/2/2
f 110/2/2 111/2/2 114/2/2
f 113/1/2 110/1/2 114/1/2
f 114/2/2 111/2/2 115/2/2
f 116/2/2 117/2/2 118/2/2
f 118/2/2 117/2/2 119/2/2
f 122/2/3 121/2/3 120/2/3
f 123/2/3 121/2/3 122/2/3
f 126/2/3 125/2/3 124/2/3
f 127/2/3 125/2/3 126/2/3
f 132/2/3 129/2/3 128/2/3
f 133/2/3 129/2/3 132/2/3
f 134/2/3 131/2/3 130/2/3
f 135/2/3 131/2/3 134/2/3
f 136/2/3 132/2/3 128/2/3
f 137/2/3 129/2/3 133/2/3
f 138/2/3 136/2/3 128/2/3
f 138/2/3 137/2/3 136/2/3
f 139/2/3 129/2/3 137/2/3
f 139/2/3 137/2/3 138/2/3
f 144/2/3 141/2/3 140/2/3
f 145/2/3 141/2/3 144/2/3
f 146/1/3 145/1/3 144/1/3
f 147/1/3 145/1/3 146/1/3
f 148/2/3 147/2/3 146/2/3
f 149/2/3 147/2/3 148/2/3
f 150/2/3 143/2/3 142/2/3
f 151/2/3 143/2/3 150/2/3
f 154/2/3 153/2/3 152/2/3
f 155/2/3 153/2/3 154/2/3
f 160/2/3 157/2/3 156/2/3
f 161/2/3 157/2/3 160/2/3
f 162/1/3 161/1/3 160/1/3
f 163/1/3 161/1/3 162/1/3
f 164/2/3 163/2/3 162/2/3
f 165/2/3 163/2/3 164/2/3
f 166/2/3 159/2/3 158/2/3
f 167/2/3 159/2/3 166/2/3
f 170/1/3 169/1/3 168/1/3
f 171/1/3 169/1/3 170/1/3
f 175/2/3 173/2/3 172/2/3
f 177/2/3 175/2/3 174/2/3
f 178/2/3 175/2/3 177/2/3
f 178/2/3 177/2/3 176/2/3
f 179/2/3 173/2/3 175/2/3
f 179/2/3 175/2/3 178/2/3
f 180/2/3 178/2/3 176/2/3
f 181/2/3 178/2/3 180/2/3
f 184/1/3 183/1/3 182/1/3
f 185/1/3 183/1/3 184/1/3
f 186/1/4 187/1/4 188/1/4
f 188/1/4 187/1/4 189/1/4
f 190/2/4 191/2/4 192/2/4
f 192/2/4 191/2/4 193/2/4
f 194/1/4 195/1/4 196/1/4
f 196/1/4 195/1/4 197/1/4
f 198/2/4 199/2/4 202/2/4
f 202/2/4 199/2/4 203/2/4
f 202/1/4 203/1/4 204/1/4
f 204/1/4 203/1/4 205/1/4
f 204/2/4 205/2/4 206/2/4
f 206/2/4 205/2/4 207/2/4
f 200/2/4 201/2/4 208/2/4
f 208/2/4 201/2/4 209/2/4
f 210/2/4 211/2/4 212/2/4
f 212/2/4 211/2/4 213/2/4
f 213/2/4 211/2/4 214/2/4
f 215/2/4 216/2/4 219/2/4
f 219/2/4 216/2/4 220/2/4
f 219/1/4 220/1/4 221/1/4
f 221/1/4 220/1/4 222/1/4
f 221/2/4 222/2/4 223/2/4
f 223/2/4 222/2/4 224/2/4
f 217/2/4 218/2/4 225/2/4
f 225/2/4 218/2/4 226/2/4
f 229/2/4 230/2/4 231/2/4
f 231/2/4 230/2/4 232/2/4
f 227/2/4 228/2/4 233/2/4
f 233/2/4 228/2/4 234/2/4
f 235/2/4 236/2/4 237/2/4
f 237/2/4 236/2/4 238/2/4
f 247/2/5 240/2/5 239/2/5
f 248/1/5 241/1/5 240/1/5
f 248/2/5 240/2/5 247/2/5
f 249/2/5 242/2/5 241/2/5
f 249/1/5 241/1/5 248/1/5
f 250/2/5 242/2/5 249/2/5
f 253/2/5 244/2/5 243/2/5
f 254/1/5 245/1/5 244/1/5
f 254/2/5 244/2/5 253/2/5
f 255/2/5 246/2/5 245/2/5
f 255/1/5 245/1/5 254/1/5
f 256/2/5 246/2/5 255/2/5
f 257/1/5 248/1/5 247/1/5
f 257/1/5 249/1/5 248/1/5
f 257/1/5 250/1/5 249/1/5
f 258/1/5 250/1/5 257/1/5
f 259/1/5 250/1/5 258/1/5
f 260/1/5 250/1/5 259/1/5
f 261/1/5 254/1/5 253/1/5
f 261/1/5 256/1/5 255/1/5
f 261/1/5 255/1/5 254/1/5
f 262/1/5 256/1/5 261/1/5
f 263/1/5 256/1/5 262/1/5
f 264/1/5 256/1/5 263/1/5
f 265/2/5 258/2/5 257/2/5
f 266/1/5 259/1/5 258/1/5
f 266/2/5 258/2/5 265/2/5
f 267/2/5 260/2/5 259/2/5
f 267/1/5 259/1/5 266/1/5
f 268/2/5 260/2/5 267/2/5
f 269/2/5 262/2/5 261/2/5
f 270/1/5 263/1/5 262/1/5
f 270/2/5 262/2/5 269/2/5
f 271/2/5 264/2/5 263/2/5
f 271/1/5 263/1/5 270/1/5
f 272/2/5 264/2/5 271/2/5
f 273/2/5 252/2/5 251/2/5
f 274/2/5 252/2/5 273/2/5
f 277/2/5 276/2/5 275/2/5
f 279/2/5 277/2/5 275/2/5
f 279/2/5 278/2/5 277/2/5
f 280/2/5 278/2/5 279/2/5
f 281/2/5 278/2/5 280/2/5
f 282/2/5 278/2/5 281/2/5
f 285/2/5 284/2/5 283/2/5
f 286/2/5 284/2/5 285/2/5
f 287/2/5 285/2/5 283/2/5
f 288/2/5 284/2/5 286/2/5
f 289/2/5 287/2/5 283/2/5
f 289/2/5 288/2/5 287/2/5
f 290/2/5 284/2/5 288/2/5
f 290/2/5 288/2/5 289/2/5
f 293/2/5 292/2/5 291/2/5
f 294/2/5 292/2/5 293/2/5
f 295/2/5 293/2/5 291/2/5
f 296/2/5 292/2/5 294/2/5
f 297/2/5 295/2/5 291/2/5
f 297/2/5 296/2/5 295/2/5
f 298/2/5 292/2/5 296/2/5
f 298/2/5 296/2/5 297/2/5
f 301/2/5 300/2/5 299/2/5
f 302/2/5 300/2/5 301/2/5
f 307/2/5 304/2/5 303/2/5
f 308/2/5 304/2/5 307/2/5
f 309/2/5 306/2/5 305/2/5
f 310/2/5 306/2/5 309/2/5
f 311/2/5 307/2/5 303/2/5
f 312/2/5 304/2/5 308/2/5
f 313/2/5 309/2/5 305/2/5
f 314/2/5 306/2/5 310/2/5
f 315/2/5 311/2/5 303/2/5
f 315/2/5 312/2/5 311/2/5
f 316/2/5 304/2/5 312/2/5
f 316/2/5 312/2/5 315/2/5
f 317/2/5 314/2/5 313/2/5
f 317/2/5 313/2/5 305/2/5
f 318/2/5 306/2/5 314/2/5
f 318/2/5 314/2/5 317/2/5
f 319/2/6 320/2/6 322/2/6
f 321/2/6 322/2/6 323/2/6
f 322/2/6 320/2/6 324/2/6
f 323/2/6 322/2/6 324/2/6
f 325/2/6 326/2/6 327/2/6
f 327/2/6 326/2/6 328/2/6
f 325/2/6 327/2/6 329/2/6
f 329/2/6 327/2/6 330/2/6
f 331/2/6 332/2/6 339/2/6
f 332/1/6 333/1/6 340/1/6
f 339/2/6 332/2/6 340/2/6
f 333/2/6 334/2/6 341/2/6
f 340/1/6 333/1/6 341/1/6
f 341/2/6 334/2/6 342/2/6
f 335/2/6 336/2/6 343/2/6
f 336/1/6 337/1/6 344/1/6
f 343/2/6 336/2/6 344/2/6
f 337/2/6 338/2/6 345/2/6
f 344/1/6 337/1/6 345/1/6
f 345/2/6 338/2/6 346/2/6
f 339/1/6 340/1/6 347/1/6
f 347/1/6 340/1/6 348/1/6
f 341/1/6 342/1/6 349/1/6
f 349/1/6 342/1/6 350/1/6
f 343/1/6 344/1/6 351/1/6
f 351/1/6 344/1/6 352/1/6
f 345/1/6 346/1/6 353/1/6
f 353/1/6 346/1/6 354/1/6
f 347/2/6 348/2/6 355/2/6
f 348/1/6 349/1/6 356/1/6
f 355/2/6 348/2/6 356/2/6
f 349/2/6 350/2/6 357/2/6
f 356/1/6 349/1/6 357/1/6
f 357/2/6 350/2/6 358/2/6
f 351/2/6 352/2/6 359/2/6
f 352/1/6 353/1/6 360/1/6
f 359/2/6 352/2/6 360/2/6
f 353/2/6 354/2/6 361/2/6
f 360/1/6 353/1/6 361/1/6
f 361/2/6 354/2/6 362/2/6
f 363/2/6 364/2/6 365/2/6
f 365/2/6 364/2/6 366/2/6
f 367/2/6 368/2/6 369/2/6
f 369/2/6 368/2/6 370/2/6
f 371/2/6 372/2/6 375/2/6
f 375/2/6 372/2/6 376/2/6
f 373/2/6 374/2/6 377/2/6
f 377/2/6 374/2/6 378/2/6
f 379/2/6 380/2/6 381/2/6
f 381/2/6 380/2/6 382/2/6
