# MagicaVoxel @ Ephtracy

# group
o 

# material
mtllib golem_walk_2.mtl
usemtl palette

# normals
vn -1 0 0
vn 1 0 0
vn 0 0 1
vn 0 0 -1
vn 0 -1 0
vn 0 1 0

# texcoords
vt 0.939453 0.5
vt 0.943359 0.5

# verts
v -0.6 0.1 0.3
v -0.6 0.1 0.2
v -0.6 0.1 0.1
v -0.6 0.1 0
v -0.6 0.4 0.3
v -0.6 0.4 0.2
v -0.6 0.4 0.1
v -0.6 0.4 0
v -0.6 0.9 0.2
v -0.6 0.9 -0.1
v -0.6 1.1 0.2
v -0.6 1.1 -0.1
v -0.5 0.4 0.2
v -0.5 0.4 0.1
v -0.5 0.6 0.2
v -0.5 0.6 0.1
v -0.5 0.6 0
v -0.5 0.9 0.1
v -0.5 0.9 0
v -0.3 0.5 0.2
v -0.3 0.5 -0.4
v -0.3 0.9 0.2
v -0.3 0.9 -0.1
v -0.3 1.1 0.2
v -0.3 1.1 -0.1
v -0.3 1.2 0.2
v -0.3 1.2 -0.4
v -0.2 0 -0.1
v -0.2 0 -0.4
v -0.2 0.1 -0.1
v -0.2 0.1 -0.4
v -0.2 0.3 0.1
v -0.2 0.3 -0.3
v -0.2 0.5 0.1
v -0.2 0.5 -0.3
v -0.1 0.1 0
v -0.1 0.1 -0.1
v -0.1 0.1 -0.2
v -0.1 0.3 0
v -0.1 0.3 -0.2
v -0.1 0.7 0.4
v -0.1 0.7 0.2
v -0.1 0.9 0.4
v -0.1 0.9 0.3
v -0.1 1 0.3
v -0.1 1 0.2
v 0.1 0 0.2
v 0.1 0 -0.1
v 0.1 0.1 0.2
v 0.1 0.1 0
v 0.1 0.1 -0.1
v 0.4 0.1 -0.1
v 0.4 0.1 -0.2
v 0.4 0.1 -0.3
v 0.4 0.1 -0.4
v 0.4 0.4 -0.1
v 0.4 0.4 -0.2
v 0.4 0.4 -0.3
v 0.4 0.4 -0.4
v 0.5 0.4 -0.2
v 0.5 0.4 -0.3
v 0.5 0.6 -0.1
v 0.5 0.6 -0.2
v 0.5 0.6 -0.3
v 0.5 0.9 -0.1
v 0.5 0.9 -0.2
v -0.4 0.4 0.2
v -0.4 0.4 0.1
v -0.4 0.6 0.2
v -0.4 0.6 0.1
v -0.4 0.6 0
v -0.4 0.9 0.1
v -0.4 0.9 0
v -0.3 0.1 0.3
v -0.3 0.1 0.2
v -0.3 0.1 0.1
v -0.3 0.1 0
v -0.3 0.4 0.3
v -0.3 0.4 0.2
v -0.3 0.4 0.1
v -0.3 0.4 0
v 0 0 -0.1
v 0 0 -0.4
v 0 0.1 -0.1
v 0 0.1 -0.2
v 0 0.1 -0.4
v 0.2 0.1 0
v 0.2 0.1 -0.1
v 0.2 0.1 -0.2
v 0.2 0.3 0
v 0.2 0.3 -0.2
v 0.2 0.7 0.4
v 0.2 0.7 0.2
v 0.2 0.9 0.4
v 0.2 0.9 0.3
v 0.2 1 0.3
v 0.2 1 0.2
v 0.3 0 0.2
v 0.3 0 -0.1
v 0.3 0.1 0.2
v 0.3 0.1 -0.1
v 0.3 0.3 0.1
v 0.3 0.3 -0.3
v 0.3 0.5 0.1
v 0.3 0.5 -0.3
v 0.4 0.5 0.2
v 0.4 0.5 -0.4
v 0.4 0.9 0
v 0.4 0.9 -0.3
v 0.4 1.1 0
v 0.4 1.1 -0.3
v 0.4 1.2 0.2
v 0.4 1.2 -0.4
v 0.6 0.4 -0.2
v 0.6 0.4 -0.3
v 0.6 0.6 -0.1
v 0.6 0.6 -0.2
v 0.6 0.6 -0.3
v 0.6 0.9 -0.1
v 0.6 0.9 -0.2
v 0.7 0.1 -0.1
v 0.7 0.1 -0.2
v 0.7 0.1 -0.3
v 0.7 0.1 -0.4
v 0.7 0.4 -0.1
v 0.7 0.4 -0.2
v 0.7 0.4 -0.3
v 0.7 0.4 -0.4
v 0.7 0.9 0
v 0.7 0.9 -0.3
v 0.7 1.1 0
v 0.7 1.1 -0.3
v -0.1 0.7 0.4
v -0.1 0.9 0.4
v 0.2 0.7 0.4
v 0.2 0.9 0.4
v -0.6 0.1 0.3
v -0.6 0.4 0.3
v -0.5 0.1 0.3
v -0.5 0.4 0.3
v -0.4 0.1 0.3
v -0.4 0.4 0.3
v -0.3 0.1 0.3
v -0.3 0.4 0.3
v -0.1 0.9 0.3
v -0.1 1 0.3
v 0.2 0.9 0.3
v 0.2 1 0.3
v -0.6 0.9 0.2
v -0.6 1.1 0.2
v -0.5 0.4 0.2
v -0.5 0.6 0.2
v -0.4 0.4 0.2
v -0.4 0.6 0.2
v -0.3 0.5 0.2
v -0.3 0.9 0.2
v -0.3 1.1 0.2
v -0.3 1.2 0.2
v -0.1 0.7 0.2
v -0.1 1 0.2
v 0.1 0 0.2
v 0.1 0.1 0.2
v 0.2 0.7 0.2
v 0.2 1 0.2
v 0.3 0 0.2
v 0.3 0.1 0.2
v 0.4 0.5 0.2
v 0.4 1.2 0.2
v -0.5 0.6 0.1
v -0.5 0.9 0.1
v -0.4 0.6 0.1
v -0.4 0.9 0.1
v -0.2 0.3 0.1
v -0.2 0.5 0.1
v 0.3 0.3 0.1
v 0.3 0.5 0.1
v -0.1 0.1 0
v -0.1 0.3 0
v 0.1 0.1 0
v 0.2 0.1 0
v 0.2 0.3 0
v 0.4 0.9 0
v 0.4 1.1 0
v 0.7 0.9 0
v 0.7 1.1 0
v -0.2 0 -0.1
v -0.2 0.1 -0.1
v -0.1 0.1 -0.1
v 0 0 -0.1
v 0 0.1 -0.1
v 0.4 0.1 -0.1
v 0.4 0.4 -0.1
v 0.5 0.1 -0.1
v 0.5 0.4 -0.1
v 0.5 0.6 -0.1
v 0.5 0.9 -0.1
v 0.6 0.1 -0.1
v 0.6 0.4 -0.1
v 0.6 0.6 -0.1
v 0.6 0.9 -0.1
v 0.7 0.1 -0.1
v 0.7 0.4 -0.1
v 0.5 0.4 -0.2
v 0.5 0.6 -0.2
v 0.6 0.4 -0.2
v 0.6 0.6 -0.2
v -0.5 0.4 0.1
v -0.5 0.6 0.1
v -0.4 0.4 0.1
v -0.4 0.6 0.1
v -0.6 0.1 0
v -0.6 0.4 0
v -0.5 0.1 0
v -0.5 0.4 0
v -0.5 0.6 0
v -0.5 0.9 0
v -0.4 0.1 0
v -0.4 0.4 0
v -0.4 0.6 0
v -0.4 0.9 0
v -0.3 0.1 0
v -0.3 0.4 0
v -0.6 0.9 -0.1
v -0.6 1.1 -0.1
v -0.3 0.9 -0.1
v -0.3 1.1 -0.1
v 0.1 0 -0.1
v 0.1 0.1 -0.1
v 0.2 0.1 -0.1
v 0.3 0 -0.1
v 0.3 0.1 -0.1
v -0.1 0.1 -0.2
v -0.1 0.3 -0.2
v 0 0.1 -0.2
v 0.2 0.1 -0.2
v 0.2 0.3 -0.2
v 0.5 0.6 -0.2
v 0.5 0.9 -0.2
v 0.6 0.6 -0.2
v 0.6 0.9 -0.2
v -0.2 0.3 -0.3
v -0.2 0.5 -0.3
v 0.3 0.3 -0.3
v 0.3 0.5 -0.3
v 0.4 0.9 -0.3
v 0.4 1.1 -0.3
v 0.5 0.4 -0.3
v 0.5 0.6 -0.3
v 0.6 0.4 -0.3
v 0.6 0.6 -0.3
v 0.7 0.9 -0.3
v 0.7 1.1 -0.3
v -0.3 0.5 -0.4
v -0.3 1.2 -0.4
v -0.2 0 -0.4
v -0.2 0.1 -0.4
v 0 0 -0.4
v 0 0.1 -0.4
v 0.4 0.1 -0.4
v 0.4 0.4 -0.4
v 0.4 0.5 -0.4
v 0.4 1.2 -0.4
v 0.5 0.1 -0.4
v 0.5 0.4 -0.4
v 0.6 0.1 -0.4
v 0.6 0.4 -0.4
v 0.7 0.1 -0.4
v 0.7 0.4 -0.4
v 0.1 0 0.2
v 0.3 0 0.2
v -0.2 0 -0.1
v 0 0 -0.1
v 0.1 0 -0.1
v 0.3 0 -0.1
v -0.2 0 -0.4
v 0 0 -0.4
v -0.6 0.1 0.3
v -0.5 0.1 0.3
v -0.4 0.1 0.3
v -0.3 0.1 0.3
v -0.6 0.1 0.2
v -0.5 0.1 0.2
v -0.4 0.1 0.2
v -0.3 0.1 0.2
v -0.6 0.1 0.1
v -0.5 0.1 0.1
v -0.4 0.1 0.1
v -0.3 0.1 0.1
v -0.6 0.1 0
v -0.5 0.1 0
v -0.4 0.1 0
v -0.3 0.1 0
v -0.1 0.1 0
v 0.1 0.1 0
v -0.1 0.1 -0.1
v 0 0.1 -0.1
v 0.1 0.1 -0.1
v 0.2 0.1 -0.1
v 0.4 0.1 -0.1
v 0.5 0.1 -0.1
v 0.6 0.1 -0.1
v 0.7 0.1 -0.1
v 0 0.1 -0.2
v 0.2 0.1 -0.2
v 0.4 0.1 -0.2
v 0.5 0.1 -0.2
v 0.6 0.1 -0.2
v 0.7 0.1 -0.2
v 0.4 0.1 -0.3
v 0.5 0.1 -0.3
v 0.6 0.1 -0.3
v 0.7 0.1 -0.3
v 0.4 0.1 -0.4
v 0.5 0.1 -0.4
v 0.6 0.1 -0.4
v 0.7 0.1 -0.4
v -0.2 0.3 0.1
v 0.3 0.3 0.1
v -0.1 0.3 0
v 0.2 0.3 0
v -0.1 0.3 -0.2
v 0.2 0.3 -0.2
v -0.2 0.3 -0.3
v 0.3 0.3 -0.3
v -0.3 0.5 0.2
v 0.4 0.5 0.2
v -0.2 0.5 0.1
v 0.3 0.5 0.1
v -0.2 0.5 -0.3
v 0.3 0.5 -0.3
v -0.3 0.5 -0.4
v 0.4 0.5 -0.4
v -0.5 0.6 0.1
v -0.4 0.6 0.1
v -0.5 0.6 0
v -0.4 0.6 0
v 0.5 0.6 -0.1
v 0.6 0.6 -0.1
v 0.5 0.6 -0.2
v 0.6 0.6 -0.2
v -0.1 0.7 0.4
v 0.2 0.7 0.4
v -0.1 0.7 0.2
v 0.2 0.7 0.2
v -0.6 0.9 0.2
v -0.3 0.9 0.2
v -0.5 0.9 0.1
v -0.4 0.9 0.1
v -0.5 0.9 0
v -0.4 0.9 0
v 0.4 0.9 0
v 0.7 0.9 0
v -0.6 0.9 -0.1
v -0.3 0.9 -0.1
v 0.5 0.9 -0.1
v 0.6 0.9 -0.1
v 0.5 0.9 -0.2
v 0.6 0.9 -0.2
v 0.4 0.9 -0.3
v 0.7 0.9 -0.3
v 0.1 0.1 0.2
v 0.3 0.1 0.2
v 0.1 0.1 0
v 0.2 0.1 0
v -0.2 0.1 -0.1
v -0.1 0.1 -0.1
v 0.2 0.1 -0.1
v 0.3 0.1 -0.1
v -0.1 0.1 -0.2
v 0 0.1 -0.2
v -0.2 0.1 -0.4
v 0 0.1 -0.4
v -0.6 0.4 0.3
v -0.5 0.4 0.3
v -0.4 0.4 0.3
v -0.3 0.4 0.3
v -0.6 0.4 0.2
v -0.5 0.4 0.2
v -0.4 0.4 0.2
v -0.3 0.4 0.2
v -0.6 0.4 0.1
v -0.5 0.4 0.1
v -0.4 0.4 0.1
v -0.3 0.4 0.1
v -0.6 0.4 0
v -0.5 0.4 0
v -0.4 0.4 0
v -0.3 0.4 0
v 0.4 0.4 -0.1
v 0.5 0.4 -0.1
v 0.6 0.4 -0.1
v 0.7 0.4 -0.1
v 0.4 0.4 -0.2
v 0.5 0.4 -0.2
v 0.6 0.4 -0.2
v 0.7 0.4 -0.2
v 0.4 0.4 -0.3
v 0.5 0.4 -0.3
v 0.6 0.4 -0.3
v 0.7 0.4 -0.3
v 0.4 0.4 -0.4
v 0.5 0.4 -0.4
v 0.6 0.4 -0.4
v 0.7 0.4 -0.4
v -0.5 0.6 0.2
v -0.4 0.6 0.2
v -0.5 0.6 0.1
v -0.4 0.6 0.1
v 0.5 0.6 -0.2
v 0.6 0.6 -0.2
v 0.5 0.6 -0.3
v 0.6 0.6 -0.3
v -0.1 0.9 0.4
v 0.2 0.9 0.4
v -0.1 0.9 0.3
v 0.2 0.9 0.3
v -0.1 1 0.3
v 0.2 1 0.3
v -0.1 1 0.2
v 0.2 1 0.2
v -0.6 1.1 0.2
v -0.3 1.1 0.2
v 0.4 1.1 0
v 0.7 1.1 0
v -0.6 1.1 -0.1
v -0.3 1.1 -0.1
v 0.4 1.1 -0.3
v 0.7 1.1 -0.3
v -0.3 1.2 0.2
v 0.4 1.2 0.2
v -0.3 1.2 -0.4
v 0.4 1.2 -0.4

# faces
f 5/2/1 2/2/1 1/2/1
f 6/1/1 3/1/1 2/1/1
f 6/2/1 2/2/1 5/2/1
f 7/2/1 4/2/1 3/2/1
f 7/1/1 3/1/1 6/1/1
f 8/2/1 4/2/1 7/2/1
f 11/2/1 10/2/1 9/2/1
f 12/2/1 10/2/1 11/2/1
f 15/1/1 14/1/1 13/1/1
f 16/1/1 14/1/1 15/1/1
f 18/1/1 17/1/1 16/1/1
f 19/1/1 17/1/1 18/1/1
f 22/2/1 21/2/1 20/2/1
f 23/2/1 21/2/1 22/2/1
f 25/2/1 21/2/1 23/2/1
f 26/2/1 25/2/1 24/2/1
f 27/2/1 21/2/1 25/2/1
f 27/2/1 25/2/1 26/2/1
f 30/2/1 29/2/1 28/2/1
f 31/2/1 29/2/1 30/2/1
f 34/2/1 33/2/1 32/2/1
f 35/2/1 33/2/1 34/2/1
f 39/2/1 37/2/1 36/2/1
f 39/2/1 38/2/1 37/2/1
f 40/2/1 38/2/1 39/2/1
f 43/2/1 42/2/1 41/2/1
f 44/2/1 42/2/1 43/2/1
f 45/2/1 42/2/1 44/2/1
f 46/2/1 42/2/1 45/2/1
f 49/2/1 48/2/1 47/2/1
f 50/2/1 48/2/1 49/2/1
f 51/2/1 48/2/1 50/2/1
f 56/2/1 53/2/1 52/2/1
f 57/1/1 54/1/1 53/1/1
f 57/2/1 53/2/1 56/2/1
f 58/2/1 55/2/1 54/2/1
f 58/1/1 54/1/1 57/1/1
f 59/2/1 55/2/1 58/2/1
f 63/1/1 61/1/1 60/1/1
f 64/1/1 61/1/1 63/1/1
f 65/1/1 63/1/1 62/1/1
f 66/1/1 63/1/1 65/1/1
f 67/1/2 68/1/2 69/1/2
f 69/1/2 68/1/2 70/1/2
f 70/1/2 71/1/2 72/1/2
f 72/1/2 71/1/2 73/1/2
f 74/2/2 75/2/2 78/2/2
f 75/1/2 76/1/2 79/1/2
f 78/2/2 75/2/2 79/2/2
f 76/2/2 77/2/2 80/2/2
f 79/1/2 76/1/2 80/1/2
f 80/2/2 77/2/2 81/2/2
f 82/2/2 83/2/2 84/2/2
f 84/2/2 83/2/2 85/2/2
f 85/2/2 83/2/2 86/2/2
f 87/2/2 88/2/2 90/2/2
f 88/2/2 89/2/2 90/2/2
f 90/2/2 89/2/2 91/2/2
f 92/2/2 93/2/2 94/2/2
f 94/2/2 93/2/2 95/2/2
f 95/2/2 93/2/2 96/2/2
f 96/2/2 93/2/2 97/2/2
f 98/2/2 99/2/2 100/2/2
f 100/2/2 99/2/2 101/2/2
f 102/2/2 103/2/2 104/2/2
f 104/2/2 103/2/2 105/2/2
f 106/2/2 107/2/2 108/2/2
f 108/2/2 107/2/2 109/2/2
f 106/2/2 108/2/2 110/2/2
f 109/2/2 107/2/2 111/2/2
f 106/2/2 110/2/2 112/2/2
f 110/2/2 111/2/2 112/2/2
f 111/2/2 107/2/2 113/2/2
f 112/2/2 111/2/2 113/2/2
f 114/1/2 115/1/2 117/1/2
f 117/1/2 115/1/2 118/1/2
f 116/1/2 117/1/2 119/1/2
f 119/1/2 117/1/2 120/1/2
f 121/2/2 122/2/2 125/2/2
f 122/1/2 123/1/2 126/1/2
f 125/2/2 122/2/2 126/2/2
f 123/2/2 124/2/2 127/2/2
f 126/1/2 123/1/2 127/1/2
f 127/2/2 124/2/2 128/2/2
f 129/2/2 130/2/2 131/2/2
f 131/2/2 130/2/2 132/2/2
f 135/2/3 134/2/3 133/2/3
f 136/2/3 134/2/3 135/2/3
f 139/2/3 138/2/3 137/2/3
f 140/2/3 138/2/3 139/2/3
f 141/1/3 140/1/3 139/1/3
f 142/1/3 140/1/3 141/1/3
f 143/2/3 142/2/3 141/2/3
f 144/2/3 142/2/3 143/2/3
f 147/2/3 146/2/3 145/2/3
f 148/2/3 146/2/3 147/2/3
f 153/1/3 152/1/3 151/1/3
f 154/1/3 152/1/3 153/1/3
f 156/2/3 150/2/3 149/2/3
f 157/2/3 150/2/3 156/2/3
f 159/2/3 156/2/3 155/2/3
f 159/2/3 158/2/3 157/2/3
f 159/2/3 157/2/3 156/2/3
f 160/2/3 158/2/3 159/2/3
f 163/2/3 159/2/3 155/2/3
f 164/2/3 158/2/3 160/2/3
f 165/2/3 162/2/3 161/2/3
f 166/2/3 162/2/3 165/2/3
f 167/2/3 164/2/3 163/2/3
f 167/2/3 163/2/3 155/2/3
f 168/2/3 158/2/3 164/2/3
f 168/2/3 164/2/3 167/2/3
f 171/1/3 170/1/3 169/1/3
f 172/1/3 170/1/3 171/1/3
f 175/2/3 174/2/3 173/2/3
f 176/2/3 174/2/3 175/2/3
f 179/2/3 178/2/3 177/2/3
f 180/2/3 178/2/3 179/2/3
f 181/2/3 178/2/3 180/2/3
f 184/2/3 183/2/3 182/2/3
f 185/2/3 183/2/3 184/2/3
f 188/2/3 187/2/3 186/2/3
f 189/2/3 188/2/3 186/2/3
f 190/2/3 188/2/3 189/2/3
f 193/2/3 192/2/3 191/2/3
f 194/2/3 192/2/3 193/2/3
f 197/1/3 194/1/3 193/1/3
f 198/1/3 194/1/3 197/1/3
f 199/1/3 196/1/3 195/1/3
f 200/1/3 196/1/3 199/1/3
f 201/2/3 198/2/3 197/2/3
f 202/2/3 198/2/3 201/2/3
f 205/1/3 204/1/3 203/1/3
f 206/1/3 204/1/3 205/1/3
f 207/1/4 208/1/4 209/1/4
f 209/1/4 208/1/4 210/1/4
f 211/2/4 212/2/4 213/2/4
f 213/2/4 212/2/4 214/2/4
f 213/1/4 214/1/4 217/1/4
f 217/1/4 214/1/4 218/1/4
f 215/1/4 216/1/4 219/1/4
f 219/1/4 216/1/4 220/1/4
f 217/2/4 218/2/4 221/2/4
f 221/2/4 218/2/4 222/2/4
f 223/2/4 224/2/4 225/2/4
f 225/2/4 224/2/4 226/2/4
f 227/2/4 228/2/4 229/2/4
f 227/2/4 229/2/4 230/2/4
f 230/2/4 229/2/4 231/2/4
f 232/2/4 233/2/4 234/2/4
f 234/2/4 233/2/4 235/2/4
f 235/2/4 233/2/4 236/2/4
f 237/1/4 238/1/4 239/1/4
f 239/1/4 238/1/4 240/1/4
f 241/2/4 242/2/4 243/2/4
f 243/2/4 242/2/4 244/2/4
f 247/1/4 248/1/4 249/1/4
f 249/1/4 248/1/4 250/1/4
f 245/2/4 246/2/4 251/2/4
f 251/2/4 246/2/4 252/2/4
f 255/2/4 256/2/4 257/2/4
f 257/2/4 256/2/4 258/2/4
f 253/2/4 254/2/4 261/2/4
f 261/2/4 254/2/4 262/2/4
f 259/2/4 260/2/4 263/2/4
f 263/2/4 260/2/4 264/2/4
f 263/1/4 264/1/4 265/1/4
f 265/1/4 264/1/4 266/1/4
f 265/2/4 266/2/4 267/2/4
f 267/2/4 266/2/4 268/2/4
f 273/2/5 270/2/5 269/2/5
f 274/2/5 270/2/5 273/2/5
f 275/2/5 272/2/5 271/2/5
f 276/2/5 272/2/5 275/2/5
f 281/2/5 278/2/5 277/2/5
f 282/1/5 279/1/5 278/1/5
f 282/2/5 278/2/5 281/2/5
f 283/2/5 280/2/5 279/2/5
f 283/1/5 279/1/5 282/1/5
f 284/2/5 280/2/5 283/2/5
f 285/1/5 282/1/5 281/1/5
f 285/1/5 283/1/5 282/1/5
f 285/1/5 284/1/5 283/1/5
f 286/1/5 284/1/5 285/1/5
f 287/1/5 284/1/5 286/1/5
f 288/1/5 284/1/5 287/1/5
f 289/2/5 286/2/5 285/2/5
f 290/1/5 287/1/5 286/1/5
f 290/2/5 286/2/5 289/2/5
f 291/2/5 288/2/5 287/2/5
f 291/1/5 287/1/5 290/1/5
f 292/2/5 288/2/5 291/2/5
f 295/2/5 294/2/5 293/2/5
f 296/2/5 294/2/5 295/2/5
f 297/2/5 294/2/5 296/2/5
f 303/2/5 297/2/5 296/2/5
f 303/2/5 298/2/5 297/2/5
f 304/2/5 298/2/5 303/2/5
f 305/2/5 300/2/5 299/2/5
f 306/1/5 301/1/5 300/1/5
f 306/2/5 300/2/5 305/2/5
f 307/2/5 302/2/5 301/2/5
f 307/1/5 301/1/5 306/1/5
f 308/2/5 302/2/5 307/2/5
f 309/1/5 306/1/5 305/1/5
f 309/1/5 308/1/5 307/1/5
f 309/1/5 307/1/5 306/1/5
f 310/1/5 308/1/5 309/1/5
f 311/1/5 308/1/5 310/1/5
f 312/1/5 308/1/5 311/1/5
f 313/2/5 310/2/5 309/2/5
f 314/1/5 311/1/5 310/1/5
f 314/2/5 310/2/5 313/2/5
f 315/2/5 312/2/5 311/2/5
f 315/1/5 311/1/5 314/1/5
f 316/2/5 312/2/5 315/2/5
f 319/2/5 318/2/5 317/2/5
f 320/2/5 318/2/5 319/2/5
f 321/2/5 319/2/5 317/2/5
f 322/2/5 318/2/5 320/2/5
f 323/2/5 321/2/5 317/2/5
f 323/2/5 322/2/5 321/2/5
f 324/2/5 318/2/5 322/2/5
f 324/2/5 322/2/5 323/2/5
f 327/2/5 326/2/5 325/2/5
f 328/2/5 326/2/5 327/2/5
f 329/2/5 327/2/5 325/2/5
f 330/2/5 326/2/5 328/2/5
f 331/2/5 329/2/5 325/2/5
f 331/2/5 330/2/5 329/2/5
f 332/2/5 326/2/5 330/2/5
f 332/2/5 330/2/5 331/2/5
f 335/1/5 334/1/5 333/1/5
f 336/1/5 334/1/5 335/1/5
f 339/1/5 338/1/5 337/1/5
f 340/1/5 338/1/5 339/1/5
f 343/2/5 342/2/5 341/2/5
f 344/2/5 342/2/5 343/2/5
f 347/2/5 346/2/5 345/2/5
f 348/2/5 346/2/5 347/2/5
f 349/2/5 347/2/5 345/2/5
f 350/2/5 346/2/5 348/2/5
f 353/2/5 349/2/5 345/2/5
f 353/2/5 350/2/5 349/2/5
f 354/2/5 346/2/5 350/2/5
f 354/2/5 350/2/5 353/2/5
f 355/2/5 352/2/5 351/2/5
f 356/2/5 352/2/5 355/2/5
f 357/2/5 355/2/5 351/2/5
f 358/2/5 352/2/5 356/2/5
f 359/2/5 357/2/5 351/2/5
f 359/2/5 358/2/5 357/2/5
f 360/2/5 352/2/5 358/2/5
f 360/2/5 358/2/5 359/2/5
f 361/2/6 362/2/6 363/2/6
f 363/2/6 362/2/6 364/2/6
f 364/2/6 362/2/6 367/2/6
f 367/2/6 362/2/6 368/2/6
f 365/2/6 366/2/6 369/2/6
f 365/2/6 369/2/6 371/2/6
f 369/2/6 370/2/6 371/2/6
f 371/2/6 370/2/6 372/2/6
f 373/2/6 374/2/6 377/2/6
f 374/1/6 375/1/6 378/1/6
f 377/2/6 374/2/6 378/2/6
f 375/2/6 376/2/6 379/2/6
f 378/1/6 375/1/6 379/1/6
f 379/2/6 376/2/6 380/2/6
f 377/1/6 378/1/6 381/1/6
f 381/1/6 378/1/6 382/1/6
f 379/1/6 380/1/6 383/1/6
f 383/1/6 380/1/6 384/1/6
f 381/2/6 382/2/6 385/2/6
f 382/1/6 383/1/6 386/1/6
f 385/2/6 382/2/6 386/2/6
f 383/2/6 384/2/6 387/2/6
f 386/1/6 383/1/6 387/1/6
f 387/2/6 384/2/6 388/2/6
f 389/2/6 390/2/6 393/2/6
f 390/1/6 391/1/6 394/1/6
f 393/2/6 390/2/6 394/2/6
f 391/2/6 392/2/6 395/2/6
f 394/1/6 391/1/6 395/1/6
f 395/2/6 392/2/6 396/2/6
f 393/1/6 394/1/6 397/1/6
f 397/1/6 394/1/6 398/1/6
f 395/1/6 396/1/6 399/1/6
f 399/1/6 396/1/6 400/1/6
f 397/2/6 398/2/6 401/2/6
f 398/1/6 399/1/6 402/1/6
f 401/2/6 398/2/6 402/2/6
f 399/2/6 400/2/6 403/2/6
f 402/1/6 399/1/6 403/1/6
f 403/2/6 400/2/6 404/2/6
f 405/1/6 406/1/6 407/1/6
f 407/1/6 406/1/6 408/1/6
f 409/1/6 410/1/6 411/1/6
f 411/1/6 410/1/6 412/1/6
f 413/2/6 414/2/6 415/2/6
f 415/2/6 414/2/6 416/2/6
f 417/2/6 418/2/6 419/2/6
f 419/2/6 418/2/6 420/2/6
f 421/2/6 422/2/6 425/2/6
f 425/2/6 422/2/6 426/2/6
f 423/2/6 424/2/6 427/2/6
f 427/2/6 424/2/6 428/2/6
f 429/2/6 430/2/6 431/2/6
f 431/2/6 430/2/6 432/2/6
