# MagicaVoxel @ Ephtracy

# group
o 

# material
mtllib treasure_chest_h_unlocked.mtl
usemtl palette

# normals
vn -1 0 0
vn 1 0 0
vn 0 0 1
vn 0 0 -1
vn 0 -1 0
vn 0 1 0

# texcoords
vt 0.912109 0.5
vt 0.947266 0.5
vt 0.970703 0.5

# verts
v -0.4 0 0.4
v -0.4 0 -0.3
v -0.4 0.1 0.3
v -0.4 0.1 -0.2
v -0.4 0.4 0.3
v -0.4 0.4 -0.2
v -0.4 0.5 0.4
v -0.4 0.5 -0.1
v -0.4 0.6 -0.2
v -0.4 0.6 -0.3
v -0.4 0.6 -0.4
v -0.4 0.7 -0.3
v -0.4 0.7 -0.4
v -0.4 0.7 -0.5
v -0.4 1 -0.3
v -0.4 1 -0.4
v -0.4 1 -0.5
v -0.4 1.1 -0.2
v -0.4 1.1 -0.3
v -0.4 1.1 -0.4
v -0.4 1.2 -0.1
v -0.4 1.2 -0.3
v -0.3 0.5 0.3
v -0.3 0.5 -0.1
v -0.3 0.6 0.3
v -0.3 0.6 0.2
v -0.3 0.6 0.1
v -0.3 0.6 -0.1
v -0.3 0.7 0.2
v -0.3 0.7 0.1
v -0.2 0.6 0.3
v -0.2 0.6 0.2
v -0.2 0.6 0
v -0.2 0.6 -0.1
v -0.2 0.7 0.3
v -0.2 0.7 0.2
v -0.2 0.7 0
v -0.2 0.7 -0.1
v -0.1 0.6 0.1
v -0.1 0.6 0
v -0.1 0.7 0.1
v -0.1 0.7 0
v 0 0.6 0
v 0 0.6 -0.1
v 0 0.7 0
v 0 0.7 -0.1
v 0.2 0.5 0.3
v 0.2 0.5 0.2
v 0.2 0.6 0.3
v 0.2 0.6 0.2
v 0.2 0.6 0
v 0.2 0.6 -0.1
v 0.2 0.7 0
v 0.2 0.7 -0.1
v 0.3 0.6 0.3
v 0.3 0.6 0.1
v 0.3 0.7 0.3
v 0.3 0.7 0.1
v -0.1 0.6 0.3
v -0.1 0.6 0.2
v -0.1 0.6 0
v -0.1 0.6 -0.1
v -0.1 0.7 0.3
v -0.1 0.7 0.2
v -0.1 0.7 0
v -0.1 0.7 -0.1
v 0 0.5 0.3
v 0 0.5 0.2
v 0 0.6 0.3
v 0 0.6 0.2
v 0 0.6 0
v 0 0.7 0.2
v 0 0.7 0
v 0.1 0.6 0
v 0.1 0.6 -0.1
v 0.1 0.7 0
v 0.1 0.7 -0.1
v 0.4 0.5 0.3
v 0.4 0.5 -0.1
v 0.4 0.6 0.1
v 0.4 0.6 0
v 0.4 0.7 0.3
v 0.4 0.7 0.1
v 0.4 0.7 0
v 0.4 0.7 -0.1
v 0.5 0 0.4
v 0.5 0 -0.3
v 0.5 0.1 0.3
v 0.5 0.1 -0.2
v 0.5 0.4 0.3
v 0.5 0.4 -0.2
v 0.5 0.5 0.4
v 0.5 0.5 -0.1
v 0.5 0.6 -0.2
v 0.5 0.6 -0.3
v 0.5 0.6 -0.4
v 0.5 0.7 -0.3
v 0.5 0.7 -0.4
v 0.5 0.7 -0.5
v 0.5 1 -0.3
v 0.5 1 -0.4
v 0.5 1 -0.5
v 0.5 1.1 -0.2
v 0.5 1.1 -0.3
v 0.5 1.1 -0.4
v 0.5 1.2 -0.1
v 0.5 1.2 -0.3
v -0.4 0 0.4
v -0.4 0.5 0.4
v -0.3 0.1 0.4
v -0.3 0.4 0.4
v -0.1 0.2 0.4
v -0.1 0.4 0.4
v 0 0.3 0.4
v 0 0.4 0.4
v 0.1 0.3 0.4
v 0.1 0.4 0.4
v 0.2 0.2 0.4
v 0.2 0.4 0.4
v 0.4 0.1 0.4
v 0.4 0.4 0.4
v 0.5 0 0.4
v 0.5 0.5 0.4
v -0.3 0.5 0.3
v -0.3 0.6 0.3
v -0.2 0.6 0.3
v -0.2 0.7 0.3
v -0.1 0.6 0.3
v -0.1 0.7 0.3
v 0 0.5 0.3
v 0 0.6 0.3
v 0.2 0.5 0.3
v 0.2 0.6 0.3
v 0.3 0.6 0.3
v 0.3 0.7 0.3
v 0.4 0.5 0.3
v 0.4 0.7 0.3
v -0.3 0.6 0.2
v -0.3 0.7 0.2
v -0.2 0.6 0.2
v -0.2 0.7 0.2
v -0.1 0.6 0.2
v -0.1 0.7 0.2
v 0 0.5 0.2
v 0 0.6 0.2
v 0 0.7 0.2
v 0.2 0.5 0.2
v 0.2 0.6 0.2
v -0.2 0.6 0
v -0.2 0.7 0
v -0.1 0.6 0
v -0.1 0.7 0
v 0 0.6 0
v 0 0.7 0
v 0.1 0.6 0
v 0.1 0.7 0
v 0.2 0.6 0
v 0.2 0.7 0
v 0.4 0.6 0
v 0.4 0.7 0
v -0.4 0.5 -0.1
v -0.4 1.2 -0.1
v -0.3 0.5 -0.1
v -0.3 0.6 -0.1
v -0.3 1.1 -0.1
v -0.2 0.6 -0.1
v -0.2 0.7 -0.1
v -0.1 0.6 -0.1
v -0.1 0.7 -0.1
v 0 0.6 -0.1
v 0 0.7 -0.1
v 0.1 0.6 -0.1
v 0.1 0.7 -0.1
v 0.2 0.6 -0.1
v 0.2 0.7 -0.1
v 0.4 0.5 -0.1
v 0.4 0.7 -0.1
v 0.4 1.1 -0.1
v 0.5 0.5 -0.1
v 0.5 1.2 -0.1
v -0.3 0.6 0.1
v -0.3 0.7 0.1
v -0.1 0.6 0.1
v -0.1 0.7 0.1
v 0.3 0.6 0.1
v 0.3 0.7 0.1
v 0.4 0.6 0.1
v 0.4 0.7 0.1
v -0.1 0.6 0
v -0.1 0.7 0
v 0 0.6 0
v 0 0.7 0
v -0.4 0 -0.3
v -0.4 0.6 -0.3
v -0.4 1.1 -0.3
v -0.4 1.2 -0.3
v -0.3 0.1 -0.3
v -0.3 0.4 -0.3
v -0.3 0.5 -0.3
v -0.3 0.6 -0.3
v -0.3 1.1 -0.3
v -0.3 1.2 -0.3
v -0.2 0.5 -0.3
v -0.2 0.6 -0.3
v -0.2 1.1 -0.3
v -0.2 1.2 -0.3
v -0.1 0.5 -0.3
v -0.1 0.6 -0.3
v -0.1 1.1 -0.3
v -0.1 1.2 -0.3
v 0.2 0.5 -0.3
v 0.2 0.6 -0.3
v 0.2 1.1 -0.3
v 0.2 1.2 -0.3
v 0.3 0.5 -0.3
v 0.3 0.6 -0.3
v 0.3 1.1 -0.3
v 0.3 1.2 -0.3
v 0.4 0.1 -0.3
v 0.4 0.4 -0.3
v 0.4 0.5 -0.3
v 0.4 0.6 -0.3
v 0.4 1.1 -0.3
v 0.4 1.2 -0.3
v 0.5 0 -0.3
v 0.5 0.6 -0.3
v 0.5 1.1 -0.3
v 0.5 1.2 -0.3
v -0.4 0.6 -0.4
v -0.4 0.7 -0.4
v -0.4 1 -0.4
v -0.4 1.1 -0.4
v -0.3 0.6 -0.4
v -0.3 0.7 -0.4
v -0.3 1 -0.4
v -0.3 1.1 -0.4
v -0.2 0.6 -0.4
v -0.2 0.7 -0.4
v -0.2 1 -0.4
v -0.2 1.1 -0.4
v -0.1 0.6 -0.4
v -0.1 0.7 -0.4
v -0.1 1 -0.4
v -0.1 1.1 -0.4
v 0.2 0.6 -0.4
v 0.2 0.7 -0.4
v 0.2 1 -0.4
v 0.2 1.1 -0.4
v 0.3 0.6 -0.4
v 0.3 0.7 -0.4
v 0.3 1 -0.4
v 0.3 1.1 -0.4
v 0.4 0.6 -0.4
v 0.4 0.7 -0.4
v 0.4 1 -0.4
v 0.4 1.1 -0.4
v 0.5 0.6 -0.4
v 0.5 0.7 -0.4
v 0.5 1 -0.4
v 0.5 1.1 -0.4
v -0.4 0.7 -0.5
v -0.4 1 -0.5
v -0.3 0.7 -0.5
v -0.3 1 -0.5
v -0.2 0.7 -0.5
v -0.2 1 -0.5
v -0.1 0.7 -0.5
v -0.1 1 -0.5
v 0.2 0.7 -0.5
v 0.2 1 -0.5
v 0.3 0.7 -0.5
v 0.3 1 -0.5
v 0.4 0.7 -0.5
v 0.4 1 -0.5
v 0.5 0.7 -0.5
v 0.5 1 -0.5
v -0.4 0 0.4
v 0.5 0 0.4
v -0.4 0 -0.3
v 0.5 0 -0.3
v -0.4 0.6 -0.3
v -0.3 0.6 -0.3
v -0.2 0.6 -0.3
v -0.1 0.6 -0.3
v 0.2 0.6 -0.3
v 0.3 0.6 -0.3
v 0.4 0.6 -0.3
v 0.5 0.6 -0.3
v -0.4 0.6 -0.4
v -0.3 0.6 -0.4
v -0.2 0.6 -0.4
v -0.1 0.6 -0.4
v 0.2 0.6 -0.4
v 0.3 0.6 -0.4
v 0.4 0.6 -0.4
v 0.5 0.6 -0.4
v -0.4 0.7 -0.4
v -0.3 0.7 -0.4
v -0.2 0.7 -0.4
v -0.1 0.7 -0.4
v 0.2 0.7 -0.4
v 0.3 0.7 -0.4
v 0.4 0.7 -0.4
v 0.5 0.7 -0.4
v -0.4 0.7 -0.5
v -0.3 0.7 -0.5
v -0.2 0.7 -0.5
v -0.1 0.7 -0.5
v 0.2 0.7 -0.5
v 0.3 0.7 -0.5
v 0.4 0.7 -0.5
v 0.5 0.7 -0.5
v -0.4 0.5 0.4
v 0.5 0.5 0.4
v -0.3 0.5 0.3
v 0 0.5 0.3
v 0.2 0.5 0.3
v 0.4 0.5 0.3
v 0 0.5 0.2
v 0.2 0.5 0.2
v -0.4 0.5 -0.1
v -0.3 0.5 -0.1
v 0.4 0.5 -0.1
v 0.5 0.5 -0.1
v -0.3 0.6 0.3
v -0.2 0.6 0.3
v -0.1 0.6 0.3
v 0 0.6 0.3
v 0.2 0.6 0.3
v 0.3 0.6 0.3
v -0.3 0.6 0.2
v -0.2 0.6 0.2
v -0.1 0.6 0.2
v 0 0.6 0.2
v 0.2 0.6 0.2
v -0.3 0.6 0.1
v -0.1 0.6 0.1
v 0.3 0.6 0.1
v 0.4 0.6 0.1
v -0.2 0.6 0
v -0.1 0.6 0
v 0 0.6 0
v 0.1 0.6 0
v 0.2 0.6 0
v 0.4 0.6 0
v -0.3 0.6 -0.1
v -0.2 0.6 -0.1
v -0.1 0.6 -0.1
v 0 0.6 -0.1
v 0.1 0.6 -0.1
v 0.2 0.6 -0.1
v -0.2 0.7 0.3
v -0.1 0.7 0.3
v 0.3 0.7 0.3
v 0.4 0.7 0.3
v -0.3 0.7 0.2
v -0.2 0.7 0.2
v -0.1 0.7 0.2
v 0 0.7 0.2
v -0.3 0.7 0.1
v -0.1 0.7 0.1
v 0.3 0.7 0.1
v 0.4 0.7 0.1
v -0.2 0.7 0
v -0.1 0.7 0
v 0 0.7 0
v 0.1 0.7 0
v 0.2 0.7 0
v 0.4 0.7 0
v -0.2 0.7 -0.1
v -0.1 0.7 -0.1
v 0 0.7 -0.1
v 0.1 0.7 -0.1
v 0.2 0.7 -0.1
v 0.4 0.7 -0.1
v -0.4 1 -0.4
v -0.3 1 -0.4
v -0.2 1 -0.4
v -0.1 1 -0.4
v 0.2 1 -0.4
v 0.3 1 -0.4
v 0.4 1 -0.4
v 0.5 1 -0.4
v -0.4 1 -0.5
v -0.3 1 -0.5
v -0.2 1 -0.5
v -0.1 1 -0.5
v 0.2 1 -0.5
v 0.3 1 -0.5
v 0.4 1 -0.5
v 0.5 1 -0.5
v -0.4 1.1 -0.3
v -0.3 1.1 -0.3
v -0.2 1.1 -0.3
v -0.1 1.1 -0.3
v 0.2 1.1 -0.3
v 0.3 1.1 -0.3
v 0.4 1.1 -0.3
v 0.5 1.1 -0.3
v -0.4 1.1 -0.4
v -0.3 1.1 -0.4
v -0.2 1.1 -0.4
v -0.1 1.1 -0.4
v 0.2 1.1 -0.4
v 0.3 1.1 -0.4
v 0.4 1.1 -0.4
v 0.5 1.1 -0.4
v -0.4 1.2 -0.1
v 0.5 1.2 -0.1
v -0.3 1.2 -0.2
v -0.2 1.2 -0.2
v -0.1 1.2 -0.2
v 0.2 1.2 -0.2
v 0.3 1.2 -0.2
v 0.4 1.2 -0.2
v -0.4 1.2 -0.3
v -0.3 1.2 -0.3
v -0.2 1.2 -0.3
v -0.1 1.2 -0.3
v 0.2 1.2 -0.3
v 0.3 1.2 -0.3
v 0.4 1.2 -0.3
v 0.5 1.2 -0.3

# faces
f 3/2/1 2/2/1 1/2/1
f 4/2/1 2/2/1 3/2/1
f 5/2/1 3/2/1 1/2/1
f 5/3/1 4/3/1 3/3/1
f 6/2/1 2/2/1 4/2/1
f 6/3/1 4/3/1 5/3/1
f 7/2/1 5/2/1 1/2/1
f 7/2/1 6/2/1 5/2/1
f 8/2/1 6/2/1 7/2/1
f 9/2/1 2/2/1 6/2/1
f 9/2/1 6/2/1 8/2/1
f 10/2/1 2/2/1 9/2/1
f 12/3/1 10/3/1 9/3/1
f 12/2/1 11/2/1 10/2/1
f 13/2/1 11/2/1 12/2/1
f 15/3/1 12/3/1 9/3/1
f 15/3/1 13/3/1 12/3/1
f 16/2/1 14/2/1 13/2/1
f 16/3/1 13/3/1 15/3/1
f 17/2/1 14/2/1 16/2/1
f 18/2/1 9/2/1 8/2/1
f 18/3/1 15/3/1 9/3/1
f 19/2/1 16/2/1 15/2/1
f 19/3/1 15/3/1 18/3/1
f 20/2/1 16/2/1 19/2/1
f 21/2/1 18/2/1 8/2/1
f 21/2/1 19/2/1 18/2/1
f 22/2/1 19/2/1 21/2/1
f 25/1/1 24/1/1 23/1/1
f 26/1/1 24/1/1 25/1/1
f 27/1/1 24/1/1 26/1/1
f 28/1/1 24/1/1 27/1/1
f 29/1/1 27/1/1 26/1/1
f 30/1/1 27/1/1 29/1/1
f 35/1/1 32/1/1 31/1/1
f 36/1/1 32/1/1 35/1/1
f 37/1/1 34/1/1 33/1/1
f 38/1/1 34/1/1 37/1/1
f 41/1/1 40/1/1 39/1/1
f 42/1/1 40/1/1 41/1/1
f 45/1/1 44/1/1 43/1/1
f 46/1/1 44/1/1 45/1/1
f 49/1/1 48/1/1 47/1/1
f 50/1/1 48/1/1 49/1/1
f 53/1/1 52/1/1 51/1/1
f 54/1/1 52/1/1 53/1/1
f 57/1/1 56/1/1 55/1/1
f 58/1/1 56/1/1 57/1/1
f 59/1/2 60/1/2 63/1/2
f 63/1/2 60/1/2 64/1/2
f 61/1/2 62/1/2 65/1/2
f 65/1/2 62/1/2 66/1/2
f 67/1/2 68/1/2 69/1/2
f 69/1/2 68/1/2 70/1/2
f 70/1/2 71/1/2 72/1/2
f 72/1/2 71/1/2 73/1/2
f 74/1/2 75/1/2 76/1/2
f 76/1/2 75/1/2 77/1/2
f 78/1/2 79/1/2 80/1/2
f 80/1/2 79/1/2 81/1/2
f 78/1/2 80/1/2 82/1/2
f 82/1/2 80/1/2 83/1/2
f 81/1/2 79/1/2 84/1/2
f 84/1/2 79/1/2 85/1/2
f 86/2/2 87/2/2 88/2/2
f 88/2/2 87/2/2 89/2/2
f 86/2/2 88/2/2 90/2/2
f 88/3/2 89/3/2 90/3/2
f 89/2/2 87/2/2 91/2/2
f 90/3/2 89/3/2 91/3/2
f 86/2/2 90/2/2 92/2/2
f 90/2/2 91/2/2 92/2/2
f 92/2/2 91/2/2 93/2/2
f 91/2/2 87/2/2 94/2/2
f 93/2/2 91/2/2 94/2/2
f 94/2/2 87/2/2 95/2/2
f 94/3/2 95/3/2 97/3/2
f 95/2/2 96/2/2 97/2/2
f 97/2/2 96/2/2 98/2/2
f 94/3/2 97/3/2 100/3/2
f 97/3/2 98/3/2 100/3/2
f 98/2/2 99/2/2 101/2/2
f 100/3/2 98/3/2 101/3/2
f 101/2/2 99/2/2 102/2/2
f 93/2/2 94/2/2 103/2/2
f 94/3/2 100/3/2 103/3/2
f 100/2/2 101/2/2 104/2/2
f 103/3/2 100/3/2 104/3/2
f 104/2/2 101/2/2 105/2/2
f 93/2/2 103/2/2 106/2/2
f 103/2/2 104/2/2 106/2/2
f 106/2/2 104/2/2 107/2/2
f 110/2/3 109/2/3 108/2/3
f 111/2/3 109/2/3 110/2/3
f 112/3/3 111/3/3 110/3/3
f 113/2/3 109/2/3 111/2/3
f 113/3/3 111/3/3 112/3/3
f 114/2/3 113/2/3 112/2/3
f 115/2/3 109/2/3 113/2/3
f 115/2/3 113/2/3 114/2/3
f 116/2/3 114/2/3 112/2/3
f 116/3/3 115/3/3 114/3/3
f 117/2/3 109/2/3 115/2/3
f 117/3/3 115/3/3 116/3/3
f 118/3/3 112/3/3 110/3/3
f 118/2/3 116/2/3 112/2/3
f 118/2/3 117/2/3 116/2/3
f 119/2/3 109/2/3 117/2/3
f 119/2/3 117/2/3 118/2/3
f 120/2/3 110/2/3 108/2/3
f 120/3/3 118/3/3 110/3/3
f 120/3/3 119/3/3 118/3/3
f 121/2/3 109/2/3 119/2/3
f 121/3/3 119/3/3 120/3/3
f 122/2/3 120/2/3 108/2/3
f 122/2/3 121/2/3 120/2/3
f 123/2/3 109/2/3 121/2/3
f 123/2/3 121/2/3 122/2/3
f 126/1/3 125/1/3 124/1/3
f 128/1/3 126/1/3 124/1/3
f 128/1/3 127/1/3 126/1/3
f 129/1/3 127/1/3 128/1/3
f 130/1/3 128/1/3 124/1/3
f 131/1/3 128/1/3 130/1/3
f 134/1/3 133/1/3 132/1/3
f 136/1/3 134/1/3 132/1/3
f 136/1/3 135/1/3 134/1/3
f 137/1/3 135/1/3 136/1/3
f 140/1/3 139/1/3 138/1/3
f 141/1/3 139/1/3 140/1/3
f 145/1/3 143/1/3 142/1/3
f 146/1/3 143/1/3 145/1/3
f 147/1/3 145/1/3 144/1/3
f 148/1/3 145/1/3 147/1/3
f 151/1/3 150/1/3 149/1/3
f 152/1/3 150/1/3 151/1/3
f 155/1/3 154/1/3 153/1/3
f 156/1/3 154/1/3 155/1/3
f 159/1/3 158/1/3 157/1/3
f 160/1/3 158/1/3 159/1/3
f 163/2/3 162/2/3 161/2/3
f 164/2/3 162/2/3 163/2/3
f 165/2/3 162/2/3 164/2/3
f 166/3/3 165/3/3 164/3/3
f 167/3/3 165/3/3 166/3/3
f 169/3/3 165/3/3 167/3/3
f 170/3/3 169/3/3 168/3/3
f 171/3/3 165/3/3 169/3/3
f 171/3/3 169/3/3 170/3/3
f 173/3/3 165/3/3 171/3/3
f 174/3/3 173/3/3 172/3/3
f 175/3/3 165/3/3 173/3/3
f 175/3/3 173/3/3 174/3/3
f 177/3/3 165/3/3 175/3/3
f 178/2/3 162/2/3 165/2/3
f 178/3/3 165/3/3 177/3/3
f 179/2/3 177/2/3 176/2/3
f 179/2/3 178/2/3 177/2/3
f 180/2/3 162/2/3 178/2/3
f 180/2/3 178/2/3 179/2/3
f 181/1/4 182/1/4 183/1/4
f 183/1/4 182/1/4 184/1/4
f 185/1/4 186/1/4 187/1/4
f 187/1/4 186/1/4 188/1/4
f 189/1/4 190/1/4 191/1/4
f 191/1/4 190/1/4 192/1/4
f 193/2/4 194/2/4 197/2/4
f 197/2/4 194/2/4 198/2/4
f 198/2/4 194/2/4 199/2/4
f 199/2/4 194/2/4 200/2/4
f 195/2/4 196/2/4 201/2/4
f 201/2/4 196/2/4 202/2/4
f 199/3/4 200/3/4 203/3/4
f 198/2/4 199/2/4 203/2/4
f 203/3/4 200/3/4 204/3/4
f 201/3/4 202/3/4 205/3/4
f 205/3/4 202/3/4 206/3/4
f 203/2/4 204/2/4 207/2/4
f 198/2/4 203/2/4 207/2/4
f 207/2/4 204/2/4 208/2/4
f 205/2/4 206/2/4 209/2/4
f 209/2/4 206/2/4 210/2/4
f 207/3/4 208/3/4 211/3/4
f 198/2/4 207/2/4 211/2/4
f 211/3/4 208/3/4 212/3/4
f 209/3/4 210/3/4 213/3/4
f 213/3/4 210/3/4 214/3/4
f 211/2/4 212/2/4 215/2/4
f 198/2/4 211/2/4 215/2/4
f 215/2/4 212/2/4 216/2/4
f 213/2/4 214/2/4 217/2/4
f 217/2/4 214/2/4 218/2/4
f 193/2/4 197/2/4 219/2/4
f 197/3/4 198/3/4 219/3/4
f 198/2/4 215/2/4 220/2/4
f 219/3/4 198/3/4 220/3/4
f 215/3/4 216/3/4 221/3/4
f 220/2/4 215/2/4 221/2/4
f 221/3/4 216/3/4 222/3/4
f 217/3/4 218/3/4 223/3/4
f 223/3/4 218/3/4 224/3/4
f 221/2/4 222/2/4 225/2/4
f 219/2/4 220/2/4 225/2/4
f 193/2/4 219/2/4 225/2/4
f 220/2/4 221/2/4 225/2/4
f 225/2/4 222/2/4 226/2/4
f 223/2/4 224/2/4 227/2/4
f 227/2/4 224/2/4 228/2/4
f 229/2/4 230/2/4 233/2/4
f 233/2/4 230/2/4 234/2/4
f 231/2/4 232/2/4 235/2/4
f 235/2/4 232/2/4 236/2/4
f 233/3/4 234/3/4 237/3/4
f 237/3/4 234/3/4 238/3/4
f 235/3/4 236/3/4 239/3/4
f 239/3/4 236/3/4 240/3/4
f 237/2/4 238/2/4 241/2/4
f 241/2/4 238/2/4 242/2/4
f 239/2/4 240/2/4 243/2/4
f 243/2/4 240/2/4 244/2/4
f 241/3/4 242/3/4 245/3/4
f 245/3/4 242/3/4 246/3/4
f 243/3/4 244/3/4 247/3/4
f 247/3/4 244/3/4 248/3/4
f 245/2/4 246/2/4 249/2/4
f 249/2/4 246/2/4 250/2/4
f 247/2/4 248/2/4 251/2/4
f 251/2/4 248/2/4 252/2/4
f 249/3/4 250/3/4 253/3/4
f 253/3/4 250/3/4 254/3/4
f 251/3/4 252/3/4 255/3/4
f 255/3/4 252/3/4 256/3/4
f 253/2/4 254/2/4 257/2/4
f 257/2/4 254/2/4 258/2/4
f 255/2/4 256/2/4 259/2/4
f 259/2/4 256/2/4 260/2/4
f 261/2/4 262/2/4 263/2/4
f 263/2/4 262/2/4 264/2/4
f 263/3/4 264/3/4 265/3/4
f 265/3/4 264/3/4 266/3/4
f 265/2/4 266/2/4 267/2/4
f 267/2/4 266/2/4 268/2/4
f 267/3/4 268/3/4 269/3/4
f 269/3/4 268/3/4 270/3/4
f 269/2/4 270/2/4 271/2/4
f 271/2/4 270/2/4 272/2/4
f 271/3/4 272/3/4 273/3/4
f 273/3/4 272/3/4 274/3/4
f 273/2/4 274/2/4 275/2/4
f 275/2/4 274/2/4 276/2/4
f 279/2/5 278/2/5 277/2/5
f 280/2/5 278/2/5 279/2/5
f 289/2/5 282/2/5 281/2/5
f 290/3/5 283/3/5 282/3/5
f 290/2/5 282/2/5 289/2/5
f 291/2/5 284/2/5 283/2/5
f 291/3/5 283/3/5 290/3/5
f 292/3/5 285/3/5 284/3/5
f 292/2/5 284/2/5 291/2/5
f 293/2/5 286/2/5 285/2/5
f 293/3/5 285/3/5 292/3/5
f 294/3/5 287/3/5 286/3/5
f 294/2/5 286/2/5 293/2/5
f 295/2/5 288/2/5 287/2/5
f 295/3/5 287/3/5 294/3/5
f 296/2/5 288/2/5 295/2/5
f 305/2/5 298/2/5 297/2/5
f 306/3/5 299/3/5 298/3/5
f 306/2/5 298/2/5 305/2/5
f 307/2/5 300/2/5 299/2/5
f 307/3/5 299/3/5 306/3/5
f 308/3/5 301/3/5 300/3/5
f 308/2/5 300/2/5 307/2/5
f 309/2/5 302/2/5 301/2/5
f 309/3/5 301/3/5 308/3/5
f 310/3/5 303/3/5 302/3/5
f 310/2/5 302/2/5 309/2/5
f 311/2/5 304/2/5 303/2/5
f 311/3/5 303/3/5 310/3/5
f 312/2/5 304/2/5 311/2/5
f 313/2/6 314/2/6 315/2/6
f 315/2/6 314/2/6 316/2/6
f 316/2/6 314/2/6 317/2/6
f 317/2/6 314/2/6 318/2/6
f 316/1/6 317/1/6 319/1/6
f 319/1/6 317/1/6 320/1/6
f 313/2/6 315/2/6 321/2/6
f 321/2/6 315/2/6 322/2/6
f 318/2/6 314/2/6 323/2/6
f 323/2/6 314/2/6 324/2/6
f 325/1/6 326/1/6 331/1/6
f 331/1/6 326/1/6 332/1/6
f 327/1/6 328/1/6 333/1/6
f 333/1/6 328/1/6 334/1/6
f 329/1/6 330/1/6 335/1/6
f 334/1/6 335/1/6 338/1/6
f 335/1/6 330/1/6 338/1/6
f 336/1/6 337/1/6 340/1/6
f 340/1/6 337/1/6 341/1/6
f 338/1/6 339/1/6 342/1/6
f 334/1/6 338/1/6 342/1/6
f 342/1/6 339/1/6 343/1/6
f 343/1/6 339/1/6 344/1/6
f 344/1/6 339/1/6 345/1/6
f 336/1/6 340/1/6 346/1/6
f 346/1/6 340/1/6 347/1/6
f 341/1/6 342/1/6 348/1/6
f 348/1/6 342/1/6 349/1/6
f 343/1/6 344/1/6 350/1/6
f 350/1/6 344/1/6 351/1/6
f 352/1/6 353/1/6 357/1/6
f 357/1/6 353/1/6 358/1/6
f 356/1/6 357/1/6 360/1/6
f 358/1/6 359/1/6 360/1/6
f 357/1/6 358/1/6 360/1/6
f 360/1/6 359/1/6 361/1/6
f 354/1/6 355/1/6 362/1/6
f 362/1/6 355/1/6 363/1/6
f 361/1/6 359/1/6 365/1/6
f 365/1/6 359/1/6 366/1/6
f 364/1/6 365/1/6 370/1/6
f 370/1/6 365/1/6 371/1/6
f 366/1/6 367/1/6 372/1/6
f 372/1/6 367/1/6 373/1/6
f 368/1/6 369/1/6 374/1/6
f 374/1/6 369/1/6 375/1/6
f 376/2/6 377/2/6 384/2/6
f 377/3/6 378/3/6 385/3/6
f 384/2/6 377/2/6 385/2/6
f 378/2/6 379/2/6 386/2/6
f 385/3/6 378/3/6 386/3/6
f 379/3/6 380/3/6 387/3/6
f 386/2/6 379/2/6 387/2/6
f 380/2/6 381/2/6 388/2/6
f 387/3/6 380/3/6 388/3/6
f 381/3/6 382/3/6 389/3/6
f 388/2/6 381/2/6 389/2/6
f 382/2/6 383/2/6 390/2/6
f 389/3/6 382/3/6 390/3/6
f 390/2/6 383/2/6 391/2/6
f 392/2/6 393/2/6 400/2/6
f 393/3/6 394/3/6 401/3/6
f 400/2/6 393/2/6 401/2/6
f 394/2/6 395/2/6 402/2/6
f 401/3/6 394/3/6 402/3/6
f 395/3/6 396/3/6 403/3/6
f 402/2/6 395/2/6 403/2/6
f 396/2/6 397/2/6 404/2/6
f 403/3/6 396/3/6 404/3/6
f 397/3/6 398/3/6 405/3/6
f 404/2/6 397/2/6 405/2/6
f 398/2/6 399/2/6 406/2/6
f 405/3/6 398/3/6 406/3/6
f 406/2/6 399/2/6 407/2/6
f 408/2/6 409/2/6 410/2/6
f 410/2/6 409/2/6 411/2/6
f 411/2/6 409/2/6 412/2/6
f 412/2/6 409/2/6 413/2/6
f 413/2/6 409/2/6 414/2/6
f 414/2/6 409/2/6 415/2/6
f 408/2/6 410/2/6 416/2/6
f 410/3/6 411/3/6 417/3/6
f 416/2/6 410/2/6 417/2/6
f 411/2/6 412/2/6 418/2/6
f 417/3/6 411/3/6 418/3/6
f 412/3/6 413/3/6 419/3/6
f 418/2/6 412/2/6 419/2/6
f 413/2/6 414/2/6 420/2/6
f 419/3/6 413/3/6 420/3/6
f 414/3/6 415/3/6 421/3/6
f 420/2/6 414/2/6 421/2/6
f 415/2/6 409/2/6 422/2/6
f 421/3/6 415/3/6 422/3/6
f 422/2/6 409/2/6 423/2/6
