# MagicaVoxel @ Ephtracy

# group
o 

# material
mtllib mimic_h_walk_1.mtl
usemtl palette

# normals
vn -1 0 0
vn 1 0 0
vn 0 0 1
vn 0 0 -1
vn 0 -1 0
vn 0 1 0

# texcoords
vt 0.908203 0.5
vt 0.947266 0.5
vt 0.970703 0.5

# verts
v -0.3 0.4 0.3
v -0.3 0.4 -0.3
v -0.3 0.5 0.2
v -0.3 0.5 -0.2
v -0.3 0.9 0.3
v -0.3 0.9 0.2
v -0.3 0.9 0.1
v -0.3 0.9 -0.1
v -0.3 0.9 -0.2
v -0.3 1 0.3
v -0.3 1 0.2
v -0.3 1 0.1
v -0.3 1 -0.1
v -0.3 1 -0.2
v -0.3 1.1 0.3
v -0.3 1.1 0.2
v -0.3 1.1 0.1
v -0.3 1.1 -0.1
v -0.3 1.1 -0.2
v -0.3 1.1 -0.3
v -0.3 1.2 0.2
v -0.3 1.2 0.1
v -0.3 1.2 -0.1
v -0.3 1.2 -0.2
v -0.3 1.3 0.1
v -0.3 1.3 -0.1
v -0.2 0.9 0.3
v -0.2 0.9 0.2
v -0.2 0.9 0.1
v -0.2 0.9 -0.1
v -0.2 1 0.3
v -0.2 1 0.2
v -0.2 1 0.1
v -0.2 1 -0.1
v 2.98023e-08 0.8 0.4
v 2.98023e-08 0.8 0.3
v 2.98023e-08 0.9 0.3
v 2.98023e-08 0.9 0.2
v 2.98023e-08 1 0.4
v 2.98023e-08 1 0.3
v 2.98023e-08 1 0.2
v 0.3 0.9 0.3
v 0.3 0.9 0.2
v 0.3 1 0.3
v 0.3 1 0.2
v -0.1 0.9 0.3
v -0.1 0.9 0.2
v -0.1 1 0.3
v -0.1 1 0.2
v 0.2 0.8 0.4
v 0.2 0.8 0.3
v 0.2 0.9 0.3
v 0.2 0.9 0.2
v 0.2 1 0.4
v 0.2 1 0.3
v 0.2 1 0.2
v 0.4 0.9 0.3
v 0.4 0.9 0.2
v 0.4 0.9 0.1
v 0.4 0.9 -0.1
v 0.4 1 0.3
v 0.4 1 0.2
v 0.4 1 0.1
v 0.4 1 -0.1
v 0.5 0.4 0.3
v 0.5 0.4 -0.3
v 0.5 0.5 0.2
v 0.5 0.5 -0.2
v 0.5 0.9 0.3
v 0.5 0.9 0.2
v 0.5 0.9 0.1
v 0.5 0.9 -0.1
v 0.5 0.9 -0.2
v 0.5 1 0.3
v 0.5 1 0.2
v 0.5 1 0.1
v 0.5 1 -0.1
v 0.5 1 -0.2
v 0.5 1.1 0.3
v 0.5 1.1 0.2
v 0.5 1.1 0.1
v 0.5 1.1 -0.1
v 0.5 1.1 -0.2
v 0.5 1.1 -0.3
v 0.5 1.2 0.2
v 0.5 1.2 0.1
v 0.5 1.2 -0.1
v 0.5 1.2 -0.2
v 0.5 1.3 0.1
v 0.5 1.3 -0.1
v 2.98023e-08 0.8 0.4
v 2.98023e-08 1 0.4
v 0.2 0.8 0.4
v 0.2 1 0.4
v -0.3 0.4 0.3
v -0.3 0.9 0.3
v -0.3 1 0.3
v -0.3 1.1 0.3
v -0.2 0.5 0.3
v -0.2 0.9 0.3
v -0.2 1 0.3
v -0.2 1.1 0.3
v -0.1 0.9 0.3
v -0.1 1 0.3
v -0.1 1.1 0.3
v 2.98023e-08 0.8 0.3
v 2.98023e-08 0.9 0.3
v 2.98023e-08 1 0.3
v 2.98023e-08 1.1 0.3
v 0.2 0.8 0.3
v 0.2 0.9 0.3
v 0.2 1 0.3
v 0.2 1.1 0.3
v 0.3 0.9 0.3
v 0.3 1 0.3
v 0.3 1.1 0.3
v 0.4 0.5 0.3
v 0.4 0.9 0.3
v 0.4 1 0.3
v 0.4 1.1 0.3
v 0.5 0.4 0.3
v 0.5 0.9 0.3
v 0.5 1 0.3
v 0.5 1.1 0.3
v -0.3 0.9 0.2
v -0.3 1 0.2
v -0.3 1.1 0.2
v -0.3 1.2 0.2
v -0.2 0.9 0.2
v -0.2 1 0.2
v -0.2 1.1 0.2
v -0.2 1.2 0.2
v -0.1 0.9 0.2
v -0.1 1 0.2
v -0.1 1.1 0.2
v -0.1 1.2 0.2
v 2.98023e-08 0.9 0.2
v 2.98023e-08 1 0.2
v 2.98023e-08 1.1 0.2
v 2.98023e-08 1.2 0.2
v 0.2 0.9 0.2
v 0.2 1 0.2
v 0.2 1.1 0.2
v 0.2 1.2 0.2
v 0.3 0.9 0.2
v 0.3 1 0.2
v 0.3 1.1 0.2
v 0.3 1.2 0.2
v 0.4 0.9 0.2
v 0.4 1 0.2
v 0.4 1.1 0.2
v 0.4 1.2 0.2
v 0.5 0.9 0.2
v 0.5 1 0.2
v 0.5 1.1 0.2
v 0.5 1.2 0.2
v -0.3 1.2 0.1
v -0.3 1.3 0.1
v -0.2 1.2 0.1
v -0.2 1.3 0.1
v -0.1 1.2 0.1
v -0.1 1.3 0.1
v 2.98023e-08 1.2 0.1
v 2.98023e-08 1.3 0.1
v 0.2 1.2 0.1
v 0.2 1.3 0.1
v 0.3 1.2 0.1
v 0.3 1.3 0.1
v 0.4 1.2 0.1
v 0.4 1.3 0.1
v 0.5 1.2 0.1
v 0.5 1.3 0.1
v -0.3 0.9 -0.1
v -0.3 1 -0.1
v -0.2 0.9 -0.1
v -0.2 1 -0.1
v 0.4 0.9 -0.1
v 0.4 1 -0.1
v 0.5 0.9 -0.1
v 0.5 1 -0.1
v -0.3 0.9 0.1
v -0.3 1 0.1
v -0.2 0.9 0.1
v -0.2 1 0.1
v 0.4 0.9 0.1
v 0.4 1 0.1
v 0.5 0.9 0.1
v 0.5 1 0.1
v -0.3 1.2 -0.1
v -0.3 1.3 -0.1
v -0.2 1.2 -0.1
v -0.2 1.3 -0.1
v -0.1 1.2 -0.1
v -0.1 1.3 -0.1
v 2.98023e-08 1.2 -0.1
v 2.98023e-08 1.3 -0.1
v 0.2 1.2 -0.1
v 0.2 1.3 -0.1
v 0.3 1.2 -0.1
v 0.3 1.3 -0.1
v 0.4 1.2 -0.1
v 0.4 1.3 -0.1
v 0.5 1.2 -0.1
v 0.5 1.3 -0.1
v -0.3 1.1 -0.2
v -0.3 1.2 -0.2
v -0.2 1.1 -0.2
v -0.2 1.2 -0.2
v -0.1 1.1 -0.2
v -0.1 1.2 -0.2
v 2.98023e-08 1.1 -0.2
v 2.98023e-08 1.2 -0.2
v 0.2 1.1 -0.2
v 0.2 1.2 -0.2
v 0.3 1.1 -0.2
v 0.3 1.2 -0.2
v 0.4 1.1 -0.2
v 0.4 1.2 -0.2
v 0.5 1.1 -0.2
v 0.5 1.2 -0.2
v -0.3 0.4 -0.3
v -0.3 1.1 -0.3
v -0.2 0.5 -0.3
v -0.2 0.9 -0.3
v -0.2 1 -0.3
v -0.2 1.1 -0.3
v -0.1 1 -0.3
v -0.1 1.1 -0.3
v 2.98023e-08 1 -0.3
v 2.98023e-08 1.1 -0.3
v 0.2 1 -0.3
v 0.2 1.1 -0.3
v 0.3 1 -0.3
v 0.3 1.1 -0.3
v 0.4 0.5 -0.3
v 0.4 0.9 -0.3
v 0.4 1 -0.3
v 0.4 1.1 -0.3
v 0.5 0.4 -0.3
v 0.5 1.1 -0.3
v -0.3 0.4 0.3
v 0.5 0.4 0.3
v -0.3 0.4 -0.3
v 0.5 0.4 -0.3
v 2.98023e-08 0.8 0.4
v 0.2 0.8 0.4
v 2.98023e-08 0.8 0.3
v 0.2 0.8 0.3
v -0.3 1 0.3
v -0.2 1 0.3
v -0.1 1 0.3
v 2.98023e-08 1 0.3
v 0.2 1 0.3
v 0.3 1 0.3
v 0.4 1 0.3
v 0.5 1 0.3
v -0.3 1 0.2
v -0.2 1 0.2
v -0.1 1 0.2
v 2.98023e-08 1 0.2
v 0.2 1 0.2
v 0.3 1 0.2
v 0.4 1 0.2
v 0.5 1 0.2
v -0.3 1 0.1
v -0.2 1 0.1
v 0.4 1 0.1
v 0.5 1 0.1
v -0.3 1 -0.1
v -0.2 1 -0.1
v 0.4 1 -0.1
v 0.5 1 -0.1
v -0.3 0.9 0.3
v -0.2 0.9 0.3
v -0.1 0.9 0.3
v 2.98023e-08 0.9 0.3
v 0.2 0.9 0.3
v 0.3 0.9 0.3
v 0.4 0.9 0.3
v 0.5 0.9 0.3
v -0.3 0.9 0.2
v -0.2 0.9 0.2
v -0.1 0.9 0.2
v 2.98023e-08 0.9 0.2
v 0.2 0.9 0.2
v 0.3 0.9 0.2
v 0.4 0.9 0.2
v 0.5 0.9 0.2
v -0.3 0.9 0.1
v -0.2 0.9 0.1
v 0.4 0.9 0.1
v 0.5 0.9 0.1
v -0.3 0.9 -0.1
v -0.2 0.9 -0.1
v 0.4 0.9 -0.1
v 0.5 0.9 -0.1
v 2.98023e-08 1 0.4
v 0.2 1 0.4
v 2.98023e-08 1 0.3
v 0.2 1 0.3
v -0.3 1.1 0.3
v -0.2 1.1 0.3
v -0.1 1.1 0.3
v 2.98023e-08 1.1 0.3
v 0.2 1.1 0.3
v 0.3 1.1 0.3
v 0.4 1.1 0.3
v 0.5 1.1 0.3
v -0.3 1.1 0.2
v -0.2 1.1 0.2
v -0.1 1.1 0.2
v 2.98023e-08 1.1 0.2
v 0.2 1.1 0.2
v 0.3 1.1 0.2
v 0.4 1.1 0.2
v 0.5 1.1 0.2
v -0.3 1.1 -0.2
v -0.2 1.1 -0.2
v -0.1 1.1 -0.2
v 2.98023e-08 1.1 -0.2
v 0.2 1.1 -0.2
v 0.3 1.1 -0.2
v 0.4 1.1 -0.2
v 0.5 1.1 -0.2
v -0.3 1.1 -0.3
v -0.2 1.1 -0.3
v -0.1 1.1 -0.3
v 2.98023e-08 1.1 -0.3
v 0.2 1.1 -0.3
v 0.3 1.1 -0.3
v 0.4 1.1 -0.3
v 0.5 1.1 -0.3
v -0.3 1.2 0.2
v -0.2 1.2 0.2
v -0.1 1.2 0.2
v 2.98023e-08 1.2 0.2
v 0.2 1.2 0.2
v 0.3 1.2 0.2
v 0.4 1.2 0.2
v 0.5 1.2 0.2
v -0.3 1.2 0.1
v -0.2 1.2 0.1
v -0.1 1.2 0.1
v 2.98023e-08 1.2 0.1
v 0.2 1.2 0.1
v 0.3 1.2 0.1
v 0.4 1.2 0.1
v 0.5 1.2 0.1
v -0.3 1.2 -0.1
v -0.2 1.2 -0.1
v -0.1 1.2 -0.1
v 2.98023e-08 1.2 -0.1
v 0.2 1.2 -0.1
v 0.3 1.2 -0.1
v 0.4 1.2 -0.1
v 0.5 1.2 -0.1
v -0.3 1.2 -0.2
v -0.2 1.2 -0.2
v -0.1 1.2 -0.2
v 2.98023e-08 1.2 -0.2
v 0.2 1.2 -0.2
v 0.3 1.2 -0.2
v 0.4 1.2 -0.2
v 0.5 1.2 -0.2
v -0.3 1.3 0.1
v -0.2 1.3 0.1
v -0.1 1.3 0.1
v 2.98023e-08 1.3 0.1
v 0.2 1.3 0.1
v 0.3 1.3 0.1
v 0.4 1.3 0.1
v 0.5 1.3 0.1
v -0.3 1.3 -0.1
v -0.2 1.3 -0.1
v -0.1 1.3 -0.1
v 2.98023e-08 1.3 -0.1
v 0.2 1.3 -0.1
v 0.3 1.3 -0.1
v 0.4 1.3 -0.1
v 0.5 1.3 -0.1

# faces
f 3/2/1 2/2/1 1/2/1
f 4/2/1 2/2/1 3/2/1
f 5/2/1 3/2/1 1/2/1
f 6/3/1 4/3/1 3/3/1
f 6/2/1 3/2/1 5/2/1
f 7/3/1 4/3/1 6/3/1
f 8/3/1 4/3/1 7/3/1
f 9/2/1 2/2/1 4/2/1
f 9/3/1 4/3/1 8/3/1
f 11/2/1 7/2/1 6/2/1
f 12/2/1 7/2/1 11/2/1
f 13/2/1 9/2/1 8/2/1
f 14/2/1 2/2/1 9/2/1
f 14/2/1 9/2/1 13/2/1
f 15/2/1 11/2/1 10/2/1
f 16/3/1 13/3/1 12/3/1
f 16/2/1 11/2/1 15/2/1
f 16/3/1 12/3/1 11/3/1
f 16/3/1 14/3/1 13/3/1
f 17/3/1 14/3/1 16/3/1
f 18/3/1 14/3/1 17/3/1
f 19/2/1 2/2/1 14/2/1
f 19/3/1 14/3/1 18/3/1
f 20/2/1 2/2/1 19/2/1
f 21/2/1 17/2/1 16/2/1
f 22/3/1 18/3/1 17/3/1
f 22/2/1 17/2/1 21/2/1
f 23/2/1 19/2/1 18/2/1
f 23/3/1 18/3/1 22/3/1
f 24/2/1 19/2/1 23/2/1
f 25/2/1 23/2/1 22/2/1
f 26/2/1 23/2/1 25/2/1
f 31/2/1 28/2/1 27/2/1
f 32/2/1 28/2/1 31/2/1
f 33/3/1 30/3/1 29/3/1
f 34/3/1 30/3/1 33/3/1
f 37/1/1 36/1/1 35/1/1
f 39/1/1 37/1/1 35/1/1
f 39/1/1 38/1/1 37/1/1
f 40/1/1 38/1/1 39/1/1
f 41/1/1 38/1/1 40/1/1
f 44/2/1 43/2/1 42/2/1
f 45/2/1 43/2/1 44/2/1
f 46/2/2 47/2/2 48/2/2
f 48/2/2 47/2/2 49/2/2
f 50/1/2 51/1/2 52/1/2
f 50/1/2 52/1/2 54/1/2
f 52/1/2 53/1/2 54/1/2
f 54/1/2 53/1/2 55/1/2
f 55/1/2 53/1/2 56/1/2
f 57/2/2 58/2/2 61/2/2
f 61/2/2 58/2/2 62/2/2
f 59/3/2 60/3/2 63/3/2
f 63/3/2 60/3/2 64/3/2
f 65/2/2 66/2/2 67/2/2
f 67/2/2 66/2/2 68/2/2
f 65/2/2 67/2/2 69/2/2
f 67/3/2 68/3/2 70/3/2
f 69/2/2 67/2/2 70/2/2
f 70/3/2 68/3/2 71/3/2
f 71/3/2 68/3/2 72/3/2
f 68/2/2 66/2/2 73/2/2
f 72/3/2 68/3/2 73/3/2
f 70/2/2 71/2/2 75/2/2
f 75/2/2 71/2/2 76/2/2
f 72/2/2 73/2/2 77/2/2
f 73/2/2 66/2/2 78/2/2
f 77/2/2 73/2/2 78/2/2
f 74/2/2 75/2/2 79/2/2
f 76/3/2 77/3/2 80/3/2
f 79/2/2 75/2/2 80/2/2
f 75/3/2 76/3/2 80/3/2
f 77/3/2 78/3/2 80/3/2
f 80/3/2 78/3/2 81/3/2
f 81/3/2 78/3/2 82/3/2
f 78/2/2 66/2/2 83/2/2
f 82/3/2 78/3/2 83/3/2
f 83/2/2 66/2/2 84/2/2
f 80/2/2 81/2/2 85/2/2
f 81/3/2 82/3/2 86/3/2
f 85/2/2 81/2/2 86/2/2
f 82/2/2 83/2/2 87/2/2
f 86/3/2 82/3/2 87/3/2
f 87/2/2 83/2/2 88/2/2
f 86/2/2 87/2/2 89/2/2
f 89/2/2 87/2/2 90/2/2
f 93/1/3 92/1/3 91/1/3
f 94/1/3 92/1/3 93/1/3
f 99/2/3 96/2/3 95/2/3
f 100/2/3 96/2/3 99/2/3
f 101/2/3 98/2/3 97/2/3
f 102/2/3 98/2/3 101/2/3
f 103/3/3 100/3/3 99/3/3
f 103/2/3 101/2/3 100/2/3
f 104/3/3 102/3/3 101/3/3
f 104/2/3 101/2/3 103/2/3
f 105/3/3 102/3/3 104/3/3
f 106/3/3 103/3/3 99/3/3
f 107/3/3 103/3/3 106/3/3
f 108/2/3 105/2/3 104/2/3
f 109/2/3 105/2/3 108/2/3
f 110/3/3 106/3/3 99/3/3
f 112/3/3 109/3/3 108/3/3
f 113/3/3 109/3/3 112/3/3
f 114/3/3 111/3/3 110/3/3
f 115/2/3 113/2/3 112/2/3
f 116/2/3 113/2/3 115/2/3
f 117/2/3 99/2/3 95/2/3
f 117/3/3 110/3/3 99/3/3
f 117/3/3 114/3/3 110/3/3
f 118/2/3 115/2/3 114/2/3
f 118/3/3 114/3/3 117/3/3
f 119/3/3 116/3/3 115/3/3
f 119/2/3 115/2/3 118/2/3
f 120/3/3 116/3/3 119/3/3
f 121/2/3 118/2/3 117/2/3
f 121/2/3 117/2/3 95/2/3
f 122/2/3 118/2/3 121/2/3
f 123/2/3 120/2/3 119/2/3
f 124/2/3 120/2/3 123/2/3
f 129/2/3 126/2/3 125/2/3
f 130/2/3 126/2/3 129/2/3
f 131/2/3 128/2/3 127/2/3
f 132/2/3 128/2/3 131/2/3
f 135/3/3 132/3/3 131/3/3
f 136/3/3 132/3/3 135/3/3
f 137/3/3 134/3/3 133/3/3
f 138/3/3 134/3/3 137/3/3
f 139/2/3 136/2/3 135/2/3
f 140/2/3 136/2/3 139/2/3
f 143/3/3 140/3/3 139/3/3
f 144/3/3 140/3/3 143/3/3
f 145/3/3 142/3/3 141/3/3
f 146/3/3 142/3/3 145/3/3
f 147/2/3 144/2/3 143/2/3
f 148/2/3 144/2/3 147/2/3
f 151/3/3 148/3/3 147/3/3
f 152/3/3 148/3/3 151/3/3
f 153/2/3 150/2/3 149/2/3
f 154/2/3 150/2/3 153/2/3
f 155/2/3 152/2/3 151/2/3
f 156/2/3 152/2/3 155/2/3
f 159/2/3 158/2/3 157/2/3
f 160/2/3 158/2/3 159/2/3
f 161/3/3 160/3/3 159/3/3
f 162/3/3 160/3/3 161/3/3
f 163/2/3 162/2/3 161/2/3
f 164/2/3 162/2/3 163/2/3
f 165/3/3 164/3/3 163/3/3
f 166/3/3 164/3/3 165/3/3
f 167/2/3 166/2/3 165/2/3
f 168/2/3 166/2/3 167/2/3
f 169/3/3 168/3/3 167/3/3
f 170/3/3 168/3/3 169/3/3
f 171/2/3 170/2/3 169/2/3
f 172/2/3 170/2/3 171/2/3
f 175/2/3 174/2/3 173/2/3
f 176/2/3 174/2/3 175/2/3
f 179/2/3 178/2/3 177/2/3
f 180/2/3 178/2/3 179/2/3
f 181/2/4 182/2/4 183/2/4
f 183/2/4 182/2/4 184/2/4
f 185/2/4 186/2/4 187/2/4
f 187/2/4 186/2/4 188/2/4
f 189/2/4 190/2/4 191/2/4
f 191/2/4 190/2/4 192/2/4
f 191/3/4 192/3/4 193/3/4
f 193/3/4 192/3/4 194/3/4
f 193/2/4 194/2/4 195/2/4
f 195/2/4 194/2/4 196/2/4
f 195/3/4 196/3/4 197/3/4
f 197/3/4 196/3/4 198/3/4
f 197/2/4 198/2/4 199/2/4
f 199/2/4 198/2/4 200/2/4
f 199/3/4 200/3/4 201/3/4
f 201/3/4 200/3/4 202/3/4
f 201/2/4 202/2/4 203/2/4
f 203/2/4 202/2/4 204/2/4
f 205/2/4 206/2/4 207/2/4
f 207/2/4 206/2/4 208/2/4
f 207/3/4 208/3/4 209/3/4
f 209/3/4 208/3/4 210/3/4
f 209/2/4 210/2/4 211/2/4
f 211/2/4 210/2/4 212/2/4
f 211/3/4 212/3/4 213/3/4
f 213/3/4 212/3/4 214/3/4
f 213/2/4 214/2/4 215/2/4
f 215/2/4 214/2/4 216/2/4
f 215/3/4 216/3/4 217/3/4
f 217/3/4 216/3/4 218/3/4
f 217/2/4 218/2/4 219/2/4
f 219/2/4 218/2/4 220/2/4
f 221/2/4 222/2/4 223/2/4
f 223/2/4 222/2/4 224/2/4
f 224/2/4 222/2/4 225/2/4
f 225/2/4 222/2/4 226/2/4
f 224/2/4 225/2/4 227/2/4
f 225/3/4 226/3/4 227/3/4
f 227/3/4 226/3/4 228/3/4
f 224/2/4 227/2/4 229/2/4
f 227/2/4 228/2/4 229/2/4
f 229/2/4 228/2/4 230/2/4
f 224/2/4 229/2/4 231/2/4
f 229/3/4 230/3/4 231/3/4
f 231/3/4 230/3/4 232/3/4
f 224/2/4 231/2/4 233/2/4
f 231/2/4 232/2/4 233/2/4
f 233/2/4 232/2/4 234/2/4
f 221/2/4 223/2/4 235/2/4
f 223/3/4 224/3/4 235/3/4
f 224/2/4 233/2/4 236/2/4
f 235/3/4 224/3/4 236/3/4
f 233/3/4 234/3/4 237/3/4
f 236/2/4 233/2/4 237/2/4
f 237/3/4 234/3/4 238/3/4
f 235/2/4 236/2/4 239/2/4
f 221/2/4 235/2/4 239/2/4
f 237/2/4 238/2/4 239/2/4
f 236/2/4 237/2/4 239/2/4
f 239/2/4 238/2/4 240/2/4
f 243/2/5 242/2/5 241/2/5
f 244/2/5 242/2/5 243/2/5
f 247/1/5 246/1/5 245/1/5
f 248/1/5 246/1/5 247/1/5
f 257/2/5 250/2/5 249/2/5
f 258/2/5 250/2/5 257/2/5
f 259/2/5 252/2/5 251/2/5
f 260/2/5 252/2/5 259/2/5
f 261/2/5 254/2/5 253/2/5
f 262/2/5 254/2/5 261/2/5
f 263/2/5 256/2/5 255/2/5
f 264/2/5 256/2/5 263/2/5
f 269/3/5 266/3/5 265/3/5
f 270/3/5 266/3/5 269/3/5
f 271/3/5 268/3/5 267/3/5
f 272/3/5 268/3/5 271/3/5
f 273/2/6 274/2/6 281/2/6
f 281/2/6 274/2/6 282/2/6
f 275/3/6 276/3/6 283/3/6
f 283/3/6 276/3/6 284/3/6
f 277/3/6 278/3/6 285/3/6
f 285/3/6 278/3/6 286/3/6
f 279/2/6 280/2/6 287/2/6
f 287/2/6 280/2/6 288/2/6
f 289/3/6 290/3/6 293/3/6
f 293/3/6 290/3/6 294/3/6
f 291/3/6 292/3/6 295/3/6
f 295/3/6 292/3/6 296/3/6
f 297/1/6 298/1/6 299/1/6
f 299/1/6 298/1/6 300/1/6
f 301/2/6 302/2/6 309/2/6
f 302/3/6 303/3/6 310/3/6
f 309/2/6 302/2/6 310/2/6
f 303/2/6 304/2/6 311/2/6
f 310/3/6 303/3/6 311/3/6
f 304/3/6 305/3/6 312/3/6
f 311/2/6 304/2/6 312/2/6
f 305/2/6 306/2/6 313/2/6
f 312/3/6 305/3/6 313/3/6
f 306/3/6 307/3/6 314/3/6
f 313/2/6 306/2/6 314/2/6
f 307/2/6 308/2/6 315/2/6
f 314/3/6 307/3/6 315/3/6
f 315/2/6 308/2/6 316/2/6
f 317/2/6 318/2/6 325/2/6
f 318/3/6 319/3/6 326/3/6
f 325/2/6 318/2/6 326/2/6
f 319/2/6 320/2/6 327/2/6
f 326/3/6 319/3/6 327/3/6
f 320/3/6 321/3/6 328/3/6
f 327/2/6 320/2/6 328/2/6
f 321/2/6 322/2/6 329/2/6
f 328/3/6 321/3/6 329/3/6
f 322/3/6 323/3/6 330/3/6
f 329/2/6 322/2/6 330/2/6
f 323/2/6 324/2/6 331/2/6
f 330/3/6 323/3/6 331/3/6
f 331/2/6 324/2/6 332/2/6
f 333/2/6 334/2/6 341/2/6
f 334/3/6 335/3/6 342/3/6
f 341/2/6 334/2/6 342/2/6
f 335/2/6 336/2/6 343/2/6
f 342/3/6 335/3/6 343/3/6
f 336/3/6 337/3/6 344/3/6
f 343/2/6 336/2/6 344/2/6
f 337/2/6 338/2/6 345/2/6
f 344/3/6 337/3/6 345/3/6
f 338/3/6 339/3/6 346/3/6
f 345/2/6 338/2/6 346/2/6
f 339/2/6 340/2/6 347/2/6
f 346/3/6 339/3/6 347/3/6
f 347/2/6 340/2/6 348/2/6
f 349/2/6 350/2/6 357/2/6
f 350/3/6 351/3/6 358/3/6
f 357/2/6 350/2/6 358/2/6
f 351/2/6 352/2/6 359/2/6
f 358/3/6 351/3/6 359/3/6
f 352/3/6 353/3/6 360/3/6
f 359/2/6 352/2/6 360/2/6
f 353/2/6 354/2/6 361/2/6
f 360/3/6 353/3/6 361/3/6
f 354/3/6 355/3/6 362/3/6
f 361/2/6 354/2/6 362/2/6
f 355/2/6 356/2/6 363/2/6
f 362/3/6 355/3/6 363/3/6
f 363/2/6 356/2/6 364/2/6
f 365/2/6 366/2/6 373/2/6
f 366/3/6 367/3/6 374/3/6
f 373/2/6 366/2/6 374/2/6
f 367/2/6 368/2/6 375/2/6
f 374/3/6 367/3/6 375/3/6
f 368/3/6 369/3/6 376/3/6
f 375/2/6 368/2/6 376/2/6
f 369/2/6 370/2/6 377/2/6
f 376/3/6 369/3/6 377/3/6
f 370/3/6 371/3/6 378/3/6
f 377/2/6 370/2/6 378/2/6
f 371/2/6 372/2/6 379/2/6
f 378/3/6 371/3/6 379/3/6
f 379/2/6 372/2/6 380/2/6
