# MagicaVoxel @ Ephtracy

# group
o 

# material
mtllib mimic_h_walk_0.mtl
usemtl palette

# normals
vn -1 0 0
vn 1 0 0
vn 0 0 1
vn 0 0 -1
vn 0 -1 0
vn 0 1 0

# texcoords
vt 0.908203 0.5
vt 0.947266 0.5
vt 0.970703 0.5

# verts
v -0.4 0 0.3
v -0.4 0 -0.4
v -0.4 0.1 0.2
v -0.4 0.1 -0.3
v -0.4 0.4 0.2
v -0.4 0.4 -0.3
v -0.4 0.5 0.3
v -0.4 0.5 0.2
v -0.4 0.5 0.1
v -0.4 0.5 0
v -0.4 0.5 -0.1
v -0.4 0.5 -0.2
v -0.4 0.6 0.2
v -0.4 0.6 0.1
v -0.4 0.6 0
v -0.4 0.6 -0.1
v -0.4 0.6 -0.2
v -0.4 0.7 0.3
v -0.4 0.7 0.2
v -0.4 0.7 0.1
v -0.4 0.7 -0.1
v -0.4 0.7 -0.2
v -0.4 0.7 -0.3
v -0.4 0.8 0.2
v -0.4 0.8 0.1
v -0.4 0.8 0
v -0.4 0.8 -0.2
v -0.4 0.8 -0.3
v -0.4 0.8 -0.4
v -0.4 0.9 0.3
v -0.4 0.9 0.2
v -0.4 0.9 0
v -0.4 0.9 -0.2
v -0.4 0.9 -0.3
v -0.4 1 0.2
v -0.4 1 -0.2
v -0.3 0.5 0.3
v -0.3 0.5 0.2
v -0.3 0.5 0.1
v -0.3 0.5 0
v -0.3 0.5 -0.1
v -0.3 0.5 -0.2
v -0.3 0.6 0.3
v -0.3 0.6 0.2
v -0.3 0.6 0.1
v -0.3 0.6 0
v -0.3 0.6 -0.1
v -0.3 0.6 -0.2
v -0.2 0.7 0.3
v -0.2 0.7 0.2
v -0.2 0.8 0.3
v -0.2 0.8 0.2
v -0.1 0.2 0.4
v -0.1 0.2 0.3
v -0.1 0.4 0.3
v -0.1 0.5 0.3
v -0.1 0.5 0.2
v -0.1 0.6 0.4
v -0.1 0.6 0.2
v 0 0.7 0.3
v 0 0.7 0.2
v 0 0.8 0.3
v 0 0.8 0.2
v 0.2 0.7 0.3
v 0.2 0.7 0.2
v 0.2 0.8 0.3
v 0.2 0.8 0.2
v 0.3 0.5 0.3
v 0.3 0.5 0.2
v 0.3 0.6 0.3
v 0.3 0.6 0.2
v 0.4 0.6 -0.1
v 0.4 0.6 -0.2
v 0.4 0.7 0.3
v 0.4 0.7 0.2
v 0.4 0.7 0.1
v 0.4 0.7 0
v 0.4 0.7 -0.1
v 0.4 0.7 -0.2
v 0.4 0.8 0.3
v 0.4 0.8 0.2
v 0.4 0.8 0.1
v 0.4 0.8 0
v -0.3 0.6 -0.1
v -0.3 0.6 -0.2
v -0.3 0.7 0.3
v -0.3 0.7 0.2
v -0.3 0.7 0.1
v -0.3 0.7 0
v -0.3 0.7 -0.1
v -0.3 0.7 -0.2
v -0.3 0.8 0.3
v -0.3 0.8 0.2
v -0.3 0.8 0.1
v -0.3 0.8 0
v -0.2 0.5 0.3
v -0.2 0.5 0.2
v -0.2 0.6 0.3
v -0.2 0.6 0.2
v -0.1 0.7 0.3
v -0.1 0.7 0.2
v -0.1 0.8 0.3
v -0.1 0.8 0.2
v 0.1 0.7 0.3
v 0.1 0.7 0.2
v 0.1 0.8 0.3
v 0.1 0.8 0.2
v 0.2 0.2 0.4
v 0.2 0.2 0.3
v 0.2 0.4 0.3
v 0.2 0.5 0.3
v 0.2 0.5 0.2
v 0.2 0.6 0.4
v 0.2 0.6 0.2
v 0.3 0.7 0.3
v 0.3 0.7 0.2
v 0.3 0.8 0.3
v 0.3 0.8 0.2
v 0.4 0.5 0.3
v 0.4 0.5 0.2
v 0.4 0.5 0.1
v 0.4 0.5 0
v 0.4 0.5 -0.1
v 0.4 0.5 -0.2
v 0.4 0.6 0.3
v 0.4 0.6 0.2
v 0.4 0.6 0.1
v 0.4 0.6 0
v 0.4 0.6 -0.1
v 0.4 0.6 -0.2
v 0.5 0 0.3
v 0.5 0 -0.4
v 0.5 0.1 0.2
v 0.5 0.1 -0.3
v 0.5 0.4 0.2
v 0.5 0.4 -0.3
v 0.5 0.5 0.3
v 0.5 0.5 0.2
v 0.5 0.5 0.1
v 0.5 0.5 0
v 0.5 0.5 -0.1
v 0.5 0.5 -0.2
v 0.5 0.6 0.2
v 0.5 0.6 0.1
v 0.5 0.6 0
v 0.5 0.6 -0.1
v 0.5 0.6 -0.2
v 0.5 0.7 0.3
v 0.5 0.7 0.2
v 0.5 0.7 0.1
v 0.5 0.7 -0.1
v 0.5 0.7 -0.2
v 0.5 0.7 -0.3
v 0.5 0.8 0.2
v 0.5 0.8 0.1
v 0.5 0.8 0
v 0.5 0.8 -0.2
v 0.5 0.8 -0.3
v 0.5 0.8 -0.4
v 0.5 0.9 0.3
v 0.5 0.9 0.2
v 0.5 0.9 0
v 0.5 0.9 -0.2
v 0.5 0.9 -0.3
v 0.5 1 0.2
v 0.5 1 -0.2
v -0.1 0.2 0.4
v -0.1 0.6 0.4
v 0.2 0.2 0.4
v 0.2 0.6 0.4
v -0.4 0 0.3
v -0.4 0.5 0.3
v -0.4 0.7 0.3
v -0.4 0.9 0.3
v -0.3 0.1 0.3
v -0.3 0.4 0.3
v -0.3 0.5 0.3
v -0.3 0.6 0.3
v -0.3 0.7 0.3
v -0.3 0.8 0.3
v -0.3 0.9 0.3
v -0.2 0.5 0.3
v -0.2 0.6 0.3
v -0.2 0.7 0.3
v -0.2 0.8 0.3
v -0.2 0.9 0.3
v -0.1 0.2 0.3
v -0.1 0.4 0.3
v -0.1 0.5 0.3
v -0.1 0.7 0.3
v -0.1 0.8 0.3
v -0.1 0.9 0.3
v 0 0.7 0.3
v 0 0.8 0.3
v 0.1 0.7 0.3
v 0.1 0.8 0.3
v 0.2 0.2 0.3
v 0.2 0.4 0.3
v 0.2 0.5 0.3
v 0.2 0.7 0.3
v 0.2 0.8 0.3
v 0.2 0.9 0.3
v 0.3 0.5 0.3
v 0.3 0.6 0.3
v 0.3 0.7 0.3
v 0.3 0.8 0.3
v 0.3 0.9 0.3
v 0.4 0.1 0.3
v 0.4 0.4 0.3
v 0.4 0.5 0.3
v 0.4 0.6 0.3
v 0.4 0.7 0.3
v 0.4 0.8 0.3
v 0.4 0.9 0.3
v 0.5 0 0.3
v 0.5 0.5 0.3
v 0.5 0.7 0.3
v 0.5 0.9 0.3
v -0.4 0.5 0.2
v -0.4 0.6 0.2
v -0.4 0.9 0.2
v -0.4 1 0.2
v -0.3 0.5 0.2
v -0.3 0.6 0.2
v -0.3 0.9 0.2
v -0.3 1 0.2
v -0.2 0.5 0.2
v -0.2 0.6 0.2
v -0.2 0.9 0.2
v -0.2 1 0.2
v -0.1 0.5 0.2
v -0.1 0.6 0.2
v -0.1 0.9 0.2
v -0.1 1 0.2
v 0.2 0.5 0.2
v 0.2 0.6 0.2
v 0.2 0.9 0.2
v 0.2 1 0.2
v 0.3 0.5 0.2
v 0.3 0.6 0.2
v 0.3 0.9 0.2
v 0.3 1 0.2
v 0.4 0.5 0.2
v 0.4 0.6 0.2
v 0.4 0.9 0.2
v 0.4 1 0.2
v 0.5 0.5 0.2
v 0.5 0.6 0.2
v 0.5 0.9 0.2
v 0.5 1 0.2
v -0.4 0.7 0.1
v -0.4 0.8 0.1
v -0.3 0.7 0.1
v -0.3 0.8 0.1
v 0.4 0.7 0.1
v 0.4 0.8 0.1
v 0.5 0.7 0.1
v 0.5 0.8 0.1
v -0.4 0.5 0
v -0.4 0.6 0
v -0.3 0.5 0
v -0.3 0.6 0
v -0.3 0.7 0
v -0.3 0.8 0
v 0.4 0.5 0
v 0.4 0.6 0
v 0.4 0.7 0
v 0.4 0.8 0
v 0.5 0.5 0
v 0.5 0.6 0
v -0.4 0.6 -0.1
v -0.4 0.7 -0.1
v -0.3 0.6 -0.1
v -0.3 0.7 -0.1
v 0.4 0.6 -0.1
v 0.4 0.7 -0.1
v 0.5 0.6 -0.1
v 0.5 0.7 -0.1
v -0.4 0.5 -0.2
v -0.4 0.6 -0.2
v -0.3 0.5 -0.2
v -0.3 0.6 -0.2
v -0.3 0.7 -0.2
v 0.4 0.5 -0.2
v 0.4 0.6 -0.2
v 0.4 0.7 -0.2
v 0.5 0.5 -0.2
v 0.5 0.6 -0.2
v -0.4 0.7 0.2
v -0.4 0.8 0.2
v -0.3 0.7 0.2
v -0.3 0.8 0.2
v -0.2 0.7 0.2
v -0.2 0.8 0.2
v -0.1 0.7 0.2
v -0.1 0.8 0.2
v 0 0.7 0.2
v 0 0.8 0.2
v 0.1 0.7 0.2
v 0.1 0.8 0.2
v 0.2 0.7 0.2
v 0.2 0.8 0.2
v 0.3 0.7 0.2
v 0.3 0.8 0.2
v 0.4 0.7 0.2
v 0.4 0.8 0.2
v 0.5 0.7 0.2
v 0.5 0.8 0.2
v -0.4 0.5 0.1
v -0.4 0.6 0.1
v -0.3 0.5 0.1
v -0.3 0.6 0.1
v 0.4 0.5 0.1
v 0.4 0.6 0.1
v 0.5 0.5 0.1
v 0.5 0.6 0.1
v -0.4 0.5 -0.1
v -0.4 0.6 -0.1
v -0.3 0.5 -0.1
v -0.3 0.6 -0.1
v 0.4 0.5 -0.1
v 0.4 0.6 -0.1
v 0.5 0.5 -0.1
v 0.5 0.6 -0.1
v -0.4 0.9 -0.2
v -0.4 1 -0.2
v -0.3 0.9 -0.2
v -0.3 1 -0.2
v -0.2 0.9 -0.2
v -0.2 1 -0.2
v -0.1 0.9 -0.2
v -0.1 1 -0.2
v 0.2 0.9 -0.2
v 0.2 1 -0.2
v 0.3 0.9 -0.2
v 0.3 1 -0.2
v 0.4 0.9 -0.2
v 0.4 1 -0.2
v 0.5 0.9 -0.2
v 0.5 1 -0.2
v -0.4 0.8 -0.3
v -0.4 0.9 -0.3
v -0.3 0.8 -0.3
v -0.3 0.9 -0.3
v -0.2 0.8 -0.3
v -0.2 0.9 -0.3
v -0.1 0.8 -0.3
v -0.1 0.9 -0.3
v 0.2 0.8 -0.3
v 0.2 0.9 -0.3
v 0.3 0.8 -0.3
v 0.3 0.9 -0.3
v 0.4 0.8 -0.3
v 0.4 0.9 -0.3
v 0.5 0.8 -0.3
v 0.5 0.9 -0.3
v -0.4 0 -0.4
v -0.4 0.8 -0.4
v -0.3 0.1 -0.4
v -0.3 0.4 -0.4
v -0.3 0.6 -0.4
v -0.3 0.8 -0.4
v -0.2 0.6 -0.4
v -0.2 0.8 -0.4
v -0.1 0.6 -0.4
v -0.1 0.8 -0.4
v 0.2 0.6 -0.4
v 0.2 0.8 -0.4
v 0.3 0.6 -0.4
v 0.3 0.8 -0.4
v 0.4 0.1 -0.4
v 0.4 0.4 -0.4
v 0.4 0.6 -0.4
v 0.4 0.8 -0.4
v 0.5 0 -0.4
v 0.5 0.8 -0.4
v -0.4 0 0.3
v 0.5 0 0.3
v -0.4 0 -0.4
v 0.5 0 -0.4
v -0.1 0.2 0.4
v 0.2 0.2 0.4
v -0.1 0.2 0.3
v 0.2 0.2 0.3
v -0.4 0.6 -0.1
v -0.3 0.6 -0.1
v 0.4 0.6 -0.1
v 0.5 0.6 -0.1
v -0.4 0.6 -0.2
v -0.3 0.6 -0.2
v 0.4 0.6 -0.2
v 0.5 0.6 -0.2
v -0.4 0.7 0.3
v -0.3 0.7 0.3
v -0.2 0.7 0.3
v -0.1 0.7 0.3
v 0 0.7 0.3
v 0.1 0.7 0.3
v 0.2 0.7 0.3
v 0.3 0.7 0.3
v 0.4 0.7 0.3
v 0.5 0.7 0.3
v -0.4 0.7 0.2
v -0.3 0.7 0.2
v -0.2 0.7 0.2
v -0.1 0.7 0.2
v 0 0.7 0.2
v 0.1 0.7 0.2
v 0.2 0.7 0.2
v 0.3 0.7 0.2
v 0.4 0.7 0.2
v 0.5 0.7 0.2
v -0.4 0.7 0.1
v -0.3 0.7 0.1
v 0.4 0.7 0.1
v 0.5 0.7 0.1
v -0.3 0.7 0
v 0.4 0.7 0
v -0.4 0.7 -0.1
v -0.3 0.7 -0.1
v 0.4 0.7 -0.1
v 0.5 0.7 -0.1
v -0.3 0.7 -0.2
v 0.4 0.7 -0.2
v -0.3 0.8 0.3
v -0.2 0.8 0.3
v -0.1 0.8 0.3
v 0 0.8 0.3
v 0.1 0.8 0.3
v 0.2 0.8 0.3
v 0.3 0.8 0.3
v 0.4 0.8 0.3
v -0.4 0.8 0.2
v -0.3 0.8 0.2
v -0.2 0.8 0.2
v -0.1 0.8 0.2
v 0 0.8 0.2
v 0.1 0.8 0.2
v 0.2 0.8 0.2
v 0.3 0.8 0.2
v 0.4 0.8 0.2
v 0.5 0.8 0.2
v -0.4 0.8 0.1
v -0.3 0.8 0.1
v 0.4 0.8 0.1
v 0.5 0.8 0.1
v -0.3 0.8 0
v 0.4 0.8 0
v -0.4 0.5 0.3
v -0.3 0.5 0.3
v -0.2 0.5 0.3
v -0.1 0.5 0.3
v 0.2 0.5 0.3
v 0.3 0.5 0.3
v 0.4 0.5 0.3
v 0.5 0.5 0.3
v -0.4 0.5 0.2
v -0.3 0.5 0.2
v -0.2 0.5 0.2
v -0.1 0.5 0.2
v 0.2 0.5 0.2
v 0.3 0.5 0.2
v 0.4 0.5 0.2
v 0.5 0.5 0.2
v -0.4 0.5 0.1
v -0.3 0.5 0.1
v 0.4 0.5 0.1
v 0.5 0.5 0.1
v -0.4 0.5 0
v -0.3 0.5 0
v 0.4 0.5 0
v 0.5 0.5 0
v -0.4 0.5 -0.1
v -0.3 0.5 -0.1
v 0.4 0.5 -0.1
v 0.5 0.5 -0.1
v -0.4 0.5 -0.2
v -0.3 0.5 -0.2
v 0.4 0.5 -0.2
v 0.5 0.5 -0.2
v -0.1 0.6 0.4
v 0.2 0.6 0.4
v -0.3 0.6 0.3
v -0.2 0.6 0.3
v 0.3 0.6 0.3
v 0.4 0.6 0.3
v -0.4 0.6 0.2
v -0.3 0.6 0.2
v -0.2 0.6 0.2
v -0.1 0.6 0.2
v 0.2 0.6 0.2
v 0.3 0.6 0.2
v 0.4 0.6 0.2
v 0.5 0.6 0.2
v -0.4 0.6 0.1
v -0.3 0.6 0.1
v -0.1 0.6 0.1
v 0.2 0.6 0.1
v 0.4 0.6 0.1
v 0.5 0.6 0.1
v -0.4 0.6 0
v -0.3 0.6 0
v 0.4 0.6 0
v 0.5 0.6 0
v -0.4 0.6 -0.1
v -0.3 0.6 -0.1
v 0.4 0.6 -0.1
v 0.5 0.6 -0.1
v -0.3 0.6 -0.2
v 0.4 0.6 -0.2
v -0.4 0.8 -0.3
v -0.3 0.8 -0.3
v -0.2 0.8 -0.3
v -0.1 0.8 -0.3
v 0.2 0.8 -0.3
v 0.3 0.8 -0.3
v 0.4 0.8 -0.3
v 0.5 0.8 -0.3
v -0.4 0.8 -0.4
v -0.3 0.8 -0.4
v -0.2 0.8 -0.4
v -0.1 0.8 -0.4
v 0.2 0.8 -0.4
v 0.3 0.8 -0.4
v 0.4 0.8 -0.4
v 0.5 0.8 -0.4
v -0.4 0.9 0.3
v -0.3 0.9 0.3
v -0.2 0.9 0.3
v -0.1 0.9 0.3
v 0.2 0.9 0.3
v 0.3 0.9 0.3
v 0.4 0.9 0.3
v 0.5 0.9 0.3
v -0.4 0.9 0.2
v -0.3 0.9 0.2
v -0.2 0.9 0.2
v -0.1 0.9 0.2
v 0.2 0.9 0.2
v 0.3 0.9 0.2
v 0.4 0.9 0.2
v 0.5 0.9 0.2
v -0.4 0.9 -0.2
v -0.3 0.9 -0.2
v -0.2 0.9 -0.2
v -0.1 0.9 -0.2
v 0.2 0.9 -0.2
v 0.3 0.9 -0.2
v 0.4 0.9 -0.2
v 0.5 0.9 -0.2
v -0.4 0.9 -0.3
v -0.3 0.9 -0.3
v -0.2 0.9 -0.3
v -0.1 0.9 -0.3
v 0.2 0.9 -0.3
v 0.3 0.9 -0.3
v 0.4 0.9 -0.3
v 0.5 0.9 -0.3
v -0.4 1 0.2
v -0.3 1 0.2
v -0.2 1 0.2
v -0.1 1 0.2
v 0.2 1 0.2
v 0.3 1 0.2
v 0.4 1 0.2
v 0.5 1 0.2
v -0.4 1 -0.2
v -0.3 1 -0.2
v -0.2 1 -0.2
v -0.1 1 -0.2
v 0.2 1 -0.2
v 0.3 1 -0.2
v 0.4 1 -0.2
v 0.5 1 -0.2

# faces
f 3/2/1 2/2/1 1/2/1
f 4/2/1 2/2/1 3/2/1
f 5/2/1 3/2/1 1/2/1
f 5/3/1 4/3/1 3/3/1
f 6/2/1 2/2/1 4/2/1
f 6/3/1 4/3/1 5/3/1
f 7/2/1 5/2/1 1/2/1
f 7/2/1 6/2/1 5/2/1
f 8/2/1 6/2/1 7/2/1
f 9/2/1 6/2/1 8/2/1
f 10/2/1 6/2/1 9/2/1
f 11/2/1 6/2/1 10/2/1
f 12/2/1 6/2/1 11/2/1
f 13/2/1 9/2/1 8/2/1
f 14/2/1 9/2/1 13/2/1
f 15/2/1 11/2/1 10/2/1
f 16/2/1 11/2/1 15/2/1
f 17/2/1 6/2/1 12/2/1
f 21/2/1 17/2/1 16/2/1
f 22/2/1 6/2/1 17/2/1
f 22/2/1 17/2/1 21/2/1
f 23/2/1 2/2/1 6/2/1
f 23/2/1 6/2/1 22/2/1
f 24/2/1 19/2/1 18/2/1
f 25/2/1 22/2/1 21/2/1
f 25/2/1 21/2/1 20/2/1
f 26/2/1 22/2/1 25/2/1
f 27/3/1 23/3/1 22/3/1
f 27/2/1 22/2/1 26/2/1
f 28/2/1 2/2/1 23/2/1
f 28/3/1 23/3/1 27/3/1
f 29/2/1 2/2/1 28/2/1
f 30/2/1 24/2/1 18/2/1
f 30/2/1 26/2/1 25/2/1
f 30/2/1 25/2/1 24/2/1
f 31/2/1 26/2/1 30/2/1
f 32/3/1 27/3/1 26/3/1
f 32/2/1 26/2/1 31/2/1
f 33/2/1 28/2/1 27/2/1
f 33/3/1 27/3/1 32/3/1
f 34/2/1 28/2/1 33/2/1
f 35/2/1 32/2/1 31/2/1
f 35/2/1 33/2/1 32/2/1
f 36/2/1 33/2/1 35/2/1
f 43/2/1 38/2/1 37/2/1
f 44/2/1 38/2/1 43/2/1
f 45/3/1 40/3/1 39/3/1
f 46/3/1 40/3/1 45/3/1
f 47/3/1 42/3/1 41/3/1
f 48/3/1 42/3/1 47/3/1
f 51/2/1 50/2/1 49/2/1
f 52/2/1 50/2/1 51/2/1
f 55/1/1 54/1/1 53/1/1
f 56/1/1 55/1/1 53/1/1
f 58/1/1 56/1/1 53/1/1
f 58/1/1 57/1/1 56/1/1
f 59/1/1 57/1/1 58/1/1
f 62/2/1 61/2/1 60/2/1
f 63/2/1 61/2/1 62/2/1
f 66/2/1 65/2/1 64/2/1
f 67/2/1 65/2/1 66/2/1
f 70/2/1 69/2/1 68/2/1
f 71/2/1 69/2/1 70/2/1
f 78/2/1 73/2/1 72/2/1
f 79/2/1 73/2/1 78/2/1
f 80/2/1 75/2/1 74/2/1
f 81/2/1 75/2/1 80/2/1
f 82/2/1 77/2/1 76/2/1
f 83/2/1 77/2/1 82/2/1
f 84/2/2 85/2/2 90/2/2
f 90/2/2 85/2/2 91/2/2
f 86/2/2 87/2/2 92/2/2
f 92/2/2 87/2/2 93/2/2
f 88/2/2 89/2/2 94/2/2
f 94/2/2 89/2/2 95/2/2
f 96/2/2 97/2/2 98/2/2
f 98/2/2 97/2/2 99/2/2
f 100/2/2 101/2/2 102/2/2
f 102/2/2 101/2/2 103/2/2
f 104/2/2 105/2/2 106/2/2
f 106/2/2 105/2/2 107/2/2
f 108/1/2 109/1/2 110/1/2
f 108/1/2 110/1/2 111/1/2
f 108/1/2 111/1/2 113/1/2
f 111/1/2 112/1/2 113/1/2
f 113/1/2 112/1/2 114/1/2
f 115/2/2 116/2/2 117/2/2
f 117/2/2 116/2/2 118/2/2
f 119/2/2 120/2/2 125/2/2
f 125/2/2 120/2/2 126/2/2
f 121/3/2 122/3/2 127/3/2
f 127/3/2 122/3/2 128/3/2
f 123/3/2 124/3/2 129/3/2
f 129/3/2 124/3/2 130/3/2
f 131/2/2 132/2/2 133/2/2
f 133/2/2 132/2/2 134/2/2
f 131/2/2 133/2/2 135/2/2
f 133/3/2 134/3/2 135/3/2
f 134/2/2 132/2/2 136/2/2
f 135/3/2 134/3/2 136/3/2
f 131/2/2 135/2/2 137/2/2
f 135/2/2 136/2/2 137/2/2
f 137/2/2 136/2/2 138/2/2
f 138/2/2 136/2/2 139/2/2
f 139/2/2 136/2/2 140/2/2
f 140/2/2 136/2/2 141/2/2
f 141/2/2 136/2/2 142/2/2
f 138/2/2 139/2/2 143/2/2
f 143/2/2 139/2/2 144/2/2
f 140/2/2 141/2/2 145/2/2
f 145/2/2 141/2/2 146/2/2
f 142/2/2 136/2/2 147/2/2
f 146/2/2 147/2/2 151/2/2
f 147/2/2 136/2/2 152/2/2
f 151/2/2 147/2/2 152/2/2
f 136/2/2 132/2/2 153/2/2
f 152/2/2 136/2/2 153/2/2
f 148/2/2 149/2/2 154/2/2
f 151/2/2 152/2/2 155/2/2
f 150/2/2 151/2/2 155/2/2
f 155/2/2 152/2/2 156/2/2
f 152/3/2 153/3/2 157/3/2
f 156/2/2 152/2/2 157/2/2
f 153/2/2 132/2/2 158/2/2
f 157/3/2 153/3/2 158/3/2
f 158/2/2 132/2/2 159/2/2
f 148/2/2 154/2/2 160/2/2
f 155/2/2 156/2/2 160/2/2
f 154/2/2 155/2/2 160/2/2
f 160/2/2 156/2/2 161/2/2
f 156/3/2 157/3/2 162/3/2
f 161/2/2 156/2/2 162/2/2
f 157/2/2 158/2/2 163/2/2
f 162/3/2 157/3/2 163/3/2
f 163/2/2 158/2/2 164/2/2
f 161/2/2 162/2/2 165/2/2
f 162/2/2 163/2/2 165/2/2
f 165/2/2 163/2/2 166/2/2
f 169/1/3 168/1/3 167/1/3
f 170/1/3 168/1/3 169/1/3
f 175/2/3 172/2/3 171/2/3
f 176/2/3 172/2/3 175/2/3
f 177/2/3 172/2/3 176/2/3
f 179/2/3 174/2/3 173/2/3
f 180/2/3 174/2/3 179/2/3
f 181/2/3 174/2/3 180/2/3
f 182/2/3 178/2/3 177/2/3
f 182/2/3 177/2/3 176/2/3
f 183/2/3 178/2/3 182/2/3
f 185/3/3 181/3/3 180/3/3
f 186/3/3 181/3/3 185/3/3
f 187/3/3 176/3/3 175/3/3
f 188/2/3 182/2/3 176/2/3
f 188/3/3 176/3/3 187/3/3
f 189/2/3 182/2/3 188/2/3
f 190/2/3 186/2/3 185/2/3
f 190/2/3 185/2/3 184/2/3
f 191/2/3 186/2/3 190/2/3
f 192/2/3 186/2/3 191/2/3
f 194/3/3 192/3/3 191/3/3
f 195/2/3 194/2/3 193/2/3
f 196/3/3 192/3/3 194/3/3
f 196/2/3 194/2/3 195/2/3
f 197/3/3 187/3/3 175/3/3
f 201/3/3 192/3/3 196/3/3
f 202/3/3 192/3/3 201/3/3
f 203/2/3 199/2/3 198/2/3
f 205/2/3 201/2/3 200/2/3
f 205/2/3 202/2/3 201/2/3
f 206/2/3 202/2/3 205/2/3
f 207/2/3 202/2/3 206/2/3
f 208/2/3 175/2/3 171/2/3
f 208/3/3 197/3/3 175/3/3
f 208/3/3 198/3/3 197/3/3
f 209/2/3 204/2/3 203/2/3
f 209/3/3 198/3/3 208/3/3
f 209/2/3 203/2/3 198/2/3
f 210/2/3 204/2/3 209/2/3
f 211/2/3 204/2/3 210/2/3
f 213/3/3 207/3/3 206/3/3
f 214/3/3 207/3/3 213/3/3
f 215/2/3 208/2/3 171/2/3
f 215/2/3 209/2/3 208/2/3
f 215/2/3 210/2/3 209/2/3
f 216/2/3 210/2/3 215/2/3
f 217/2/3 214/2/3 213/2/3
f 217/2/3 213/2/3 212/2/3
f 218/2/3 214/2/3 217/2/3
f 223/2/3 220/2/3 219/2/3
f 224/2/3 220/2/3 223/2/3
f 225/2/3 222/2/3 221/2/3
f 226/2/3 222/2/3 225/2/3
f 229/3/3 226/3/3 225/3/3
f 230/3/3 226/3/3 229/3/3
f 231/3/3 228/3/3 227/3/3
f 232/3/3 228/3/3 231/3/3
f 233/2/3 230/2/3 229/2/3
f 234/2/3 230/2/3 233/2/3
f 237/3/3 234/3/3 233/3/3
f 238/3/3 234/3/3 237/3/3
f 239/3/3 236/3/3 235/3/3
f 240/3/3 236/3/3 239/3/3
f 241/2/3 238/2/3 237/2/3
f 242/2/3 238/2/3 241/2/3
f 245/3/3 242/3/3 241/3/3
f 246/3/3 242/3/3 245/3/3
f 247/2/3 244/2/3 243/2/3
f 248/2/3 244/2/3 247/2/3
f 249/2/3 246/2/3 245/2/3
f 250/2/3 246/2/3 249/2/3
f 253/2/3 252/2/3 251/2/3
f 254/2/3 252/2/3 253/2/3
f 257/2/3 256/2/3 255/2/3
f 258/2/3 256/2/3 257/2/3
f 261/2/3 260/2/3 259/2/3
f 262/2/3 260/2/3 261/2/3
f 267/3/3 264/3/3 263/3/3
f 268/3/3 264/3/3 267/3/3
f 269/2/3 266/2/3 265/2/3
f 270/2/3 266/2/3 269/2/3
f 273/2/3 272/2/3 271/2/3
f 274/2/3 272/2/3 273/2/3
f 277/2/3 276/2/3 275/2/3
f 278/2/3 276/2/3 277/2/3
f 281/2/3 280/2/3 279/2/3
f 282/2/3 280/2/3 281/2/3
f 285/3/3 283/3/3 282/3/3
f 286/3/3 283/3/3 285/3/3
f 287/2/3 285/2/3 284/2/3
f 288/2/3 285/2/3 287/2/3
f 289/2/4 290/2/4 291/2/4
f 291/2/4 290/2/4 292/2/4
f 293/2/4 294/2/4 295/2/4
f 295/2/4 294/2/4 296/2/4
f 297/2/4 298/2/4 299/2/4
f 299/2/4 298/2/4 300/2/4
f 301/2/4 302/2/4 303/2/4
f 303/2/4 302/2/4 304/2/4
f 305/2/4 306/2/4 307/2/4
f 307/2/4 306/2/4 308/2/4
f 309/2/4 310/2/4 311/2/4
f 311/2/4 310/2/4 312/2/4
f 313/2/4 314/2/4 315/2/4
f 315/2/4 314/2/4 316/2/4
f 317/2/4 318/2/4 319/2/4
f 319/2/4 318/2/4 320/2/4
f 321/2/4 322/2/4 323/2/4
f 323/2/4 322/2/4 324/2/4
f 325/2/4 326/2/4 327/2/4
f 327/2/4 326/2/4 328/2/4
f 327/3/4 328/3/4 329/3/4
f 329/3/4 328/3/4 330/3/4
f 329/2/4 330/2/4 331/2/4
f 331/2/4 330/2/4 332/2/4
f 331/3/4 332/3/4 333/3/4
f 333/3/4 332/3/4 334/3/4
f 333/2/4 334/2/4 335/2/4
f 335/2/4 334/2/4 336/2/4
f 335/3/4 336/3/4 337/3/4
f 337/3/4 336/3/4 338/3/4
f 337/2/4 338/2/4 339/2/4
f 339/2/4 338/2/4 340/2/4
f 341/2/4 342/2/4 343/2/4
f 343/2/4 342/2/4 344/2/4
f 343/3/4 344/3/4 345/3/4
f 345/3/4 344/3/4 346/3/4
f 345/2/4 346/2/4 347/2/4
f 347/2/4 346/2/4 348/2/4
f 347/3/4 348/3/4 349/3/4
f 349/3/4 348/3/4 350/3/4
f 349/2/4 350/2/4 351/2/4
f 351/2/4 350/2/4 352/2/4
f 351/3/4 352/3/4 353/3/4
f 353/3/4 352/3/4 354/3/4
f 353/2/4 354/2/4 355/2/4
f 355/2/4 354/2/4 356/2/4
f 357/2/4 358/2/4 359/2/4
f 359/2/4 358/2/4 360/2/4
f 360/2/4 358/2/4 361/2/4
f 361/2/4 358/2/4 362/2/4
f 360/2/4 361/2/4 363/2/4
f 361/3/4 362/3/4 363/3/4
f 363/3/4 362/3/4 364/3/4
f 360/2/4 363/2/4 365/2/4
f 363/2/4 364/2/4 365/2/4
f 365/2/4 364/2/4 366/2/4
f 360/2/4 365/2/4 367/2/4
f 365/3/4 366/3/4 367/3/4
f 367/3/4 366/3/4 368/3/4
f 360/2/4 367/2/4 369/2/4
f 367/2/4 368/2/4 369/2/4
f 369/2/4 368/2/4 370/2/4
f 357/2/4 359/2/4 371/2/4
f 359/3/4 360/3/4 371/3/4
f 360/2/4 369/2/4 372/2/4
f 371/3/4 360/3/4 372/3/4
f 369/3/4 370/3/4 373/3/4
f 372/2/4 369/2/4 373/2/4
f 373/3/4 370/3/4 374/3/4
f 371/2/4 372/2/4 375/2/4
f 357/2/4 371/2/4 375/2/4
f 373/2/4 374/2/4 375/2/4
f 372/2/4 373/2/4 375/2/4
f 375/2/4 374/2/4 376/2/4
f 379/2/5 378/2/5 377/2/5
f 380/2/5 378/2/5 379/2/5
f 383/1/5 382/1/5 381/1/5
f 384/1/5 382/1/5 383/1/5
f 389/2/5 386/2/5 385/2/5
f 390/2/5 386/2/5 389/2/5
f 391/2/5 388/2/5 387/2/5
f 392/2/5 388/2/5 391/2/5
f 403/2/5 394/2/5 393/2/5
f 404/2/5 394/2/5 403/2/5
f 405/2/5 396/2/5 395/2/5
f 406/2/5 396/2/5 405/2/5
f 407/2/5 398/2/5 397/2/5
f 408/2/5 398/2/5 407/2/5
f 409/2/5 400/2/5 399/2/5
f 410/2/5 400/2/5 409/2/5
f 411/2/5 402/2/5 401/2/5
f 412/2/5 402/2/5 411/2/5
f 417/2/5 414/2/5 413/2/5
f 418/2/5 416/2/5 415/2/5
f 419/2/5 417/2/5 413/2/5
f 420/3/5 418/3/5 417/3/5
f 420/2/5 417/2/5 419/2/5
f 421/2/5 416/2/5 418/2/5
f 421/3/5 418/3/5 420/3/5
f 422/2/5 416/2/5 421/2/5
f 423/3/5 421/3/5 420/3/5
f 424/3/5 421/3/5 423/3/5
f 434/3/5 426/3/5 425/3/5
f 435/3/5 426/3/5 434/3/5
f 436/3/5 428/3/5 427/3/5
f 437/3/5 428/3/5 436/3/5
f 438/3/5 430/3/5 429/3/5
f 439/3/5 430/3/5 438/3/5
f 440/3/5 432/3/5 431/3/5
f 441/3/5 432/3/5 440/3/5
f 443/2/5 434/2/5 433/2/5
f 444/3/5 439/3/5 438/3/5
f 444/2/5 434/2/5 443/2/5
f 444/3/5 435/3/5 434/3/5
f 444/3/5 441/3/5 440/3/5
f 444/3/5 440/3/5 439/3/5
f 444/3/5 437/3/5 436/3/5
f 444/3/5 438/3/5 437/3/5
f 444/3/5 436/3/5 435/3/5
f 445/2/5 442/2/5 441/2/5
f 445/3/5 441/3/5 444/3/5
f 446/2/5 442/2/5 445/2/5
f 447/3/5 445/3/5 444/3/5
f 448/3/5 445/3/5 447/3/5
f 449/2/6 450/2/6 457/2/6
f 457/2/6 450/2/6 458/2/6
f 451/2/6 452/2/6 459/2/6
f 459/2/6 452/2/6 460/2/6
f 453/2/6 454/2/6 461/2/6
f 461/2/6 454/2/6 462/2/6
f 455/2/6 456/2/6 463/2/6
f 463/2/6 456/2/6 464/2/6
f 465/2/6 466/2/6 469/2/6
f 469/2/6 466/2/6 470/2/6
f 467/2/6 468/2/6 471/2/6
f 471/2/6 468/2/6 472/2/6
f 473/2/6 474/2/6 477/2/6
f 477/2/6 474/2/6 478/2/6
f 475/2/6 476/2/6 479/2/6
f 479/2/6 476/2/6 480/2/6
f 483/2/6 484/2/6 488/2/6
f 488/2/6 484/2/6 489/2/6
f 481/1/6 482/1/6 490/1/6
f 490/1/6 482/1/6 491/1/6
f 485/2/6 486/2/6 492/2/6
f 492/2/6 486/2/6 493/2/6
f 487/2/6 488/2/6 495/2/6
f 488/3/6 489/3/6 496/3/6
f 495/2/6 488/2/6 496/2/6
f 489/3/6 490/3/6 496/3/6
f 490/1/6 491/1/6 497/1/6
f 496/3/6 490/3/6 497/3/6
f 492/3/6 493/3/6 498/3/6
f 497/1/6 491/1/6 498/1/6
f 491/3/6 492/3/6 498/3/6
f 493/2/6 494/2/6 499/2/6
f 498/3/6 493/3/6 499/3/6
f 499/2/6 494/2/6 500/2/6
f 497/3/6 498/3/6 502/3/6
f 498/3/6 499/3/6 502/3/6
f 496/3/6 497/3/6 502/3/6
f 502/3/6 499/3/6 503/3/6
f 501/2/6 502/2/6 505/2/6
f 502/3/6 503/3/6 506/3/6
f 505/2/6 502/2/6 506/2/6
f 503/2/6 504/2/6 507/2/6
f 506/3/6 503/3/6 507/3/6
f 507/2/6 504/2/6 508/2/6
f 506/3/6 507/3/6 509/3/6
f 509/3/6 507/3/6 510/3/6
f 511/2/6 512/2/6 519/2/6
f 512/3/6 513/3/6 520/3/6
f 519/2/6 512/2/6 520/2/6
f 513/2/6 514/2/6 521/2/6
f 520/3/6 513/3/6 521/3/6
f 514/3/6 515/3/6 522/3/6
f 521/2/6 514/2/6 522/2/6
f 515/2/6 516/2/6 523/2/6
f 522/3/6 515/3/6 523/3/6
f 516/3/6 517/3/6 524/3/6
f 523/2/6 516/2/6 524/2/6
f 517/2/6 518/2/6 525/2/6
f 524/3/6 517/3/6 525/3/6
f 525/2/6 518/2/6 526/2/6
f 527/2/6 528/2/6 535/2/6
f 528/3/6 529/3/6 536/3/6
f 535/2/6 528/2/6 536/2/6
f 529/2/6 530/2/6 537/2/6
f 536/3/6 529/3/6 537/3/6
f 530/3/6 531/3/6 538/3/6
f 537/2/6 530/2/6 538/2/6
f 531/2/6 532/2/6 539/2/6
f 538/3/6 531/3/6 539/3/6
f 532/3/6 533/3/6 540/3/6
f 539/2/6 532/2/6 540/2/6
f 533/2/6 534/2/6 541/2/6
f 540/3/6 533/3/6 541/3/6
f 541/2/6 534/2/6 542/2/6
f 543/2/6 544/2/6 551/2/6
f 544/3/6 545/3/6 552/3/6
f 551/2/6 544/2/6 552/2/6
f 545/2/6 546/2/6 553/2/6
f 552/3/6 545/3/6 553/3/6
f 546/3/6 547/3/6 554/3/6
f 553/2/6 546/2/6 554/2/6
f 547/2/6 548/2/6 555/2/6
f 554/3/6 547/3/6 555/3/6
f 548/3/6 549/3/6 556/3/6
f 555/2/6 548/2/6 556/2/6
f 549/2/6 550/2/6 557/2/6
f 556/3/6 549/3/6 557/3/6
f 557/2/6 550/2/6 558/2/6
f 559/2/6 560/2/6 567/2/6
f 560/3/6 561/3/6 568/3/6
f 567/2/6 560/2/6 568/2/6
f 561/2/6 562/2/6 569/2/6
f 568/3/6 561/3/6 569/3/6
f 562/3/6 563/3/6 570/3/6
f 569/2/6 562/2/6 570/2/6
f 563/2/6 564/2/6 571/2/6
f 570/3/6 563/3/6 571/3/6
f 564/3/6 565/3/6 572/3/6
f 571/2/6 564/2/6 572/2/6
f 565/2/6 566/2/6 573/2/6
f 572/3/6 565/3/6 573/3/6
f 573/2/6 566/2/6 574/2/6
