# MagicaVoxel @ Ephtracy

# group
o 

# material
mtllib mimic_h_action_0.mtl
usemtl palette

# normals
vn -1 0 0
vn 1 0 0
vn 0 0 1
vn 0 0 -1
vn 0 -1 0
vn 0 1 0

# texcoords
vt 0.908203 0.5
vt 0.947266 0.5
vt 0.970703 0.5

# verts
v -0.4 0 0.4
v -0.4 0 -0.3
v -0.4 0.1 0.3
v -0.4 0.1 -0.2
v -0.4 0.4 0.3
v -0.4 0.4 -0.2
v -0.4 0.5 0.4
v -0.4 0.5 0.3
v -0.4 0.5 0.2
v -0.4 0.5 0.1
v -0.4 0.5 -5.96046e-08
v -0.4 0.5 -0.1
v -0.4 0.6 0.3
v -0.4 0.6 0.2
v -0.4 0.6 0.1
v -0.4 0.6 -5.96046e-08
v -0.4 0.6 -0.2
v -0.4 0.6 -0.3
v -0.4 0.6 -0.4
v -0.4 0.7 -5.96046e-08
v -0.4 0.7 -0.1
v -0.4 0.7 -0.3
v -0.4 0.7 -0.4
v -0.4 0.7 -0.5
v -0.4 0.8 -5.96046e-08
v -0.4 0.8 -0.1
v -0.4 0.9 -5.96046e-08
v -0.4 0.9 -0.1
v -0.4 1 -5.96046e-08
v -0.4 1 -0.1
v -0.4 1 -0.3
v -0.4 1 -0.4
v -0.4 1 -0.5
v -0.4 1.1 -5.96046e-08
v -0.4 1.1 -0.1
v -0.4 1.1 -0.2
v -0.4 1.1 -0.3
v -0.4 1.1 -0.4
v -0.4 1.2 -5.96046e-08
v -0.4 1.2 -0.3
v -0.3 0.5 0.4
v -0.3 0.5 0.3
v -0.3 0.6 0.4
v -0.3 0.6 0.3
v -0.2 1.1 -5.96046e-08
v -0.2 1.1 -0.1
v -0.2 1.2 -5.96046e-08
v -0.2 1.2 -0.1
v -0.1 0.2 0.5
v -0.1 0.2 0.4
v -0.1 0.4 0.4
v -0.1 0.5 0.4
v -0.1 0.5 0.3
v -0.1 0.5 -5.96046e-08
v -0.1 0.6 0.5
v -0.1 0.6 -5.96046e-08
v 0 1.1 -5.96046e-08
v 0 1.1 -0.1
v 0 1.2 -5.96046e-08
v 0 1.2 -0.1
v 0.2 1.1 -5.96046e-08
v 0.2 1.1 -0.1
v 0.2 1.2 -5.96046e-08
v 0.2 1.2 -0.1
v 0.3 0.5 0.4
v 0.3 0.5 0.3
v 0.3 0.6 0.4
v 0.3 0.6 0.3
v 0.4 0.5 0.3
v 0.4 0.5 0.2
v 0.4 0.5 0.1
v 0.4 0.5 -5.96046e-08
v 0.4 0.6 0.3
v 0.4 0.6 0.2
v 0.4 0.6 0.1
v 0.4 0.6 -5.96046e-08
v 0.4 0.7 -5.96046e-08
v 0.4 0.7 -0.1
v 0.4 0.8 -5.96046e-08
v 0.4 0.8 -0.1
v 0.4 0.9 -5.96046e-08
v 0.4 0.9 -0.1
v 0.4 1 -5.96046e-08
v 0.4 1 -0.1
v 0.4 1.1 -5.96046e-08
v 0.4 1.1 -0.1
v 0.4 1.2 -5.96046e-08
v 0.4 1.2 -0.1
v -0.3 0.5 0.3
v -0.3 0.5 0.2
v -0.3 0.5 0.1
v -0.3 0.5 -5.96046e-08
v -0.3 0.6 0.3
v -0.3 0.6 0.2
v -0.3 0.6 0.1
v -0.3 0.6 -5.96046e-08
v -0.3 0.7 -5.96046e-08
v -0.3 0.7 -0.1
v -0.3 0.8 -5.96046e-08
v -0.3 0.8 -0.1
v -0.3 0.9 -5.96046e-08
v -0.3 0.9 -0.1
v -0.3 1 -5.96046e-08
v -0.3 1 -0.1
v -0.3 1.1 -5.96046e-08
v -0.3 1.1 -0.1
v -0.3 1.2 -5.96046e-08
v -0.3 1.2 -0.1
v -0.2 0.5 0.4
v -0.2 0.5 0.3
v -0.2 0.6 0.4
v -0.2 0.6 0.3
v -0.1 1.1 -5.96046e-08
v -0.1 1.1 -0.1
v -0.1 1.2 -5.96046e-08
v -0.1 1.2 -0.1
v 0.1 1.1 -5.96046e-08
v 0.1 1.1 -0.1
v 0.1 1.2 -5.96046e-08
v 0.1 1.2 -0.1
v 0.2 0.2 0.5
v 0.2 0.2 0.4
v 0.2 0.4 0.4
v 0.2 0.5 0.4
v 0.2 0.5 0.3
v 0.2 0.5 -5.96046e-08
v 0.2 0.6 0.5
v 0.2 0.6 -5.96046e-08
v 0.3 1.1 -5.96046e-08
v 0.3 1.1 -0.1
v 0.3 1.2 -5.96046e-08
v 0.3 1.2 -0.1
v 0.4 0.5 0.4
v 0.4 0.5 0.3
v 0.4 0.6 0.4
v 0.4 0.6 0.3
v 0.5 0 0.4
v 0.5 0 -0.3
v 0.5 0.1 0.3
v 0.5 0.1 -0.2
v 0.5 0.4 0.3
v 0.5 0.4 -0.2
v 0.5 0.5 0.4
v 0.5 0.5 0.3
v 0.5 0.5 0.2
v 0.5 0.5 0.1
v 0.5 0.5 -5.96046e-08
v 0.5 0.5 -0.1
v 0.5 0.6 0.3
v 0.5 0.6 0.2
v 0.5 0.6 0.1
v 0.5 0.6 -5.96046e-08
v 0.5 0.6 -0.2
v 0.5 0.6 -0.3
v 0.5 0.6 -0.4
v 0.5 0.7 -5.96046e-08
v 0.5 0.7 -0.1
v 0.5 0.7 -0.3
v 0.5 0.7 -0.4
v 0.5 0.7 -0.5
v 0.5 0.8 -5.96046e-08
v 0.5 0.8 -0.1
v 0.5 0.9 -5.96046e-08
v 0.5 0.9 -0.1
v 0.5 1 -5.96046e-08
v 0.5 1 -0.1
v 0.5 1 -0.3
v 0.5 1 -0.4
v 0.5 1 -0.5
v 0.5 1.1 -5.96046e-08
v 0.5 1.1 -0.1
v 0.5 1.1 -0.2
v 0.5 1.1 -0.3
v 0.5 1.1 -0.4
v 0.5 1.2 -5.96046e-08
v 0.5 1.2 -0.3
v -0.1 0.2 0.5
v -0.1 0.6 0.5
v 0.2 0.2 0.5
v 0.2 0.6 0.5
v -0.4 0 0.4
v -0.4 0.5 0.4
v -0.3 0.1 0.4
v -0.3 0.4 0.4
v -0.3 0.5 0.4
v -0.3 0.6 0.4
v -0.2 0.5 0.4
v -0.2 0.6 0.4
v -0.1 0.2 0.4
v -0.1 0.4 0.4
v -0.1 0.5 0.4
v 0.2 0.2 0.4
v 0.2 0.4 0.4
v 0.2 0.5 0.4
v 0.3 0.5 0.4
v 0.3 0.6 0.4
v 0.4 0.1 0.4
v 0.4 0.4 0.4
v 0.4 0.5 0.4
v 0.4 0.6 0.4
v 0.5 0 0.4
v 0.5 0.5 0.4
v -0.4 0.5 0.3
v -0.4 0.6 0.3
v -0.3 0.5 0.3
v -0.3 0.6 0.3
v 0.4 0.5 0.3
v 0.4 0.6 0.3
v 0.5 0.5 0.3
v 0.5 0.6 0.3
v -0.4 0.5 0.1
v -0.4 0.6 0.1
v -0.3 0.5 0.1
v -0.3 0.6 0.1
v 0.4 0.5 0.1
v 0.4 0.6 0.1
v 0.5 0.5 0.1
v 0.5 0.6 0.1
v -0.4 0.7 -5.96046e-08
v -0.4 0.8 -5.96046e-08
v -0.4 0.9 -5.96046e-08
v -0.4 1 -5.96046e-08
v -0.4 1.1 -5.96046e-08
v -0.4 1.2 -5.96046e-08
v -0.3 0.7 -5.96046e-08
v -0.3 0.8 -5.96046e-08
v -0.3 0.9 -5.96046e-08
v -0.3 1 -5.96046e-08
v -0.3 1.1 -5.96046e-08
v -0.3 1.2 -5.96046e-08
v -0.2 1.1 -5.96046e-08
v -0.2 1.2 -5.96046e-08
v -0.1 1.1 -5.96046e-08
v -0.1 1.2 -5.96046e-08
v 0 1.1 -5.96046e-08
v 0 1.2 -5.96046e-08
v 0.1 1.1 -5.96046e-08
v 0.1 1.2 -5.96046e-08
v 0.2 1.1 -5.96046e-08
v 0.2 1.2 -5.96046e-08
v 0.3 1.1 -5.96046e-08
v 0.3 1.2 -5.96046e-08
v 0.4 0.7 -5.96046e-08
v 0.4 0.8 -5.96046e-08
v 0.4 0.9 -5.96046e-08
v 0.4 1 -5.96046e-08
v 0.4 1.1 -5.96046e-08
v 0.4 1.2 -5.96046e-08
v 0.5 0.7 -5.96046e-08
v 0.5 0.8 -5.96046e-08
v 0.5 0.9 -5.96046e-08
v 0.5 1 -5.96046e-08
v 0.5 1.1 -5.96046e-08
v 0.5 1.2 -5.96046e-08
v -0.4 0.5 -0.1
v -0.4 0.7 -0.1
v -0.4 0.8 -0.1
v -0.4 0.9 -0.1
v -0.4 1 -0.1
v -0.4 1.1 -0.1
v -0.3 0.5 -0.1
v -0.3 0.6 -0.1
v -0.3 0.7 -0.1
v -0.3 0.8 -0.1
v -0.3 0.9 -0.1
v -0.3 1 -0.1
v -0.3 1.1 -0.1
v -0.3 1.2 -0.1
v -0.2 1.1 -0.1
v -0.2 1.2 -0.1
v -0.1 1.1 -0.1
v -0.1 1.2 -0.1
v 0 1.1 -0.1
v 0 1.2 -0.1
v 0.1 1.1 -0.1
v 0.1 1.2 -0.1
v 0.2 1.1 -0.1
v 0.2 1.2 -0.1
v 0.3 1.1 -0.1
v 0.3 1.2 -0.1
v 0.4 0.5 -0.1
v 0.4 0.6 -0.1
v 0.4 0.7 -0.1
v 0.4 0.8 -0.1
v 0.4 0.9 -0.1
v 0.4 1 -0.1
v 0.4 1.1 -0.1
v 0.4 1.2 -0.1
v 0.5 0.5 -0.1
v 0.5 0.7 -0.1
v 0.5 0.8 -0.1
v 0.5 0.9 -0.1
v 0.5 1 -0.1
v 0.5 1.1 -0.1
v -0.3 0.5 0.3
v -0.3 0.6 0.3
v -0.2 0.5 0.3
v -0.2 0.6 0.3
v 0.3 0.5 0.3
v 0.3 0.6 0.3
v 0.4 0.5 0.3
v 0.4 0.6 0.3
v -0.4 0.5 0.2
v -0.4 0.6 0.2
v -0.3 0.5 0.2
v -0.3 0.6 0.2
v 0.4 0.5 0.2
v 0.4 0.6 0.2
v 0.5 0.5 0.2
v 0.5 0.6 0.2
v -0.4 0.5 -5.96046e-08
v -0.4 0.6 -5.96046e-08
v -0.3 0.5 -5.96046e-08
v -0.3 0.6 -5.96046e-08
v -0.1 0.5 -5.96046e-08
v -0.1 0.6 -5.96046e-08
v 0.2 0.5 -5.96046e-08
v 0.2 0.6 -5.96046e-08
v 0.4 0.5 -5.96046e-08
v 0.4 0.6 -5.96046e-08
v 0.5 0.5 -5.96046e-08
v 0.5 0.6 -5.96046e-08
v -0.4 0 -0.3
v -0.4 0.6 -0.3
v -0.4 1.1 -0.3
v -0.4 1.2 -0.3
v -0.3 0.1 -0.3
v -0.3 0.4 -0.3
v -0.3 0.5 -0.3
v -0.3 0.6 -0.3
v -0.3 1.1 -0.3
v -0.3 1.2 -0.3
v -0.2 0.5 -0.3
v -0.2 0.6 -0.3
v -0.2 1.1 -0.3
v -0.2 1.2 -0.3
v -0.1 0.5 -0.3
v -0.1 0.6 -0.3
v -0.1 1.1 -0.3
v -0.1 1.2 -0.3
v 0.2 0.5 -0.3
v 0.2 0.6 -0.3
v 0.2 1.1 -0.3
v 0.2 1.2 -0.3
v 0.3 0.5 -0.3
v 0.3 0.6 -0.3
v 0.3 1.1 -0.3
v 0.3 1.2 -0.3
v 0.4 0.1 -0.3
v 0.4 0.4 -0.3
v 0.4 0.5 -0.3
v 0.4 0.6 -0.3
v 0.4 1.1 -0.3
v 0.4 1.2 -0.3
v 0.5 0 -0.3
v 0.5 0.6 -0.3
v 0.5 1.1 -0.3
v 0.5 1.2 -0.3
v -0.4 0.6 -0.4
v -0.4 0.7 -0.4
v -0.4 1 -0.4
v -0.4 1.1 -0.4
v -0.3 0.6 -0.4
v -0.3 0.7 -0.4
v -0.3 1 -0.4
v -0.3 1.1 -0.4
v -0.2 0.6 -0.4
v -0.2 0.7 -0.4
v -0.2 1 -0.4
v -0.2 1.1 -0.4
v -0.1 0.6 -0.4
v -0.1 0.7 -0.4
v -0.1 1 -0.4
v -0.1 1.1 -0.4
v 0.2 0.6 -0.4
v 0.2 0.7 -0.4
v 0.2 1 -0.4
v 0.2 1.1 -0.4
v 0.3 0.6 -0.4
v 0.3 0.7 -0.4
v 0.3 1 -0.4
v 0.3 1.1 -0.4
v 0.4 0.6 -0.4
v 0.4 0.7 -0.4
v 0.4 1 -0.4
v 0.4 1.1 -0.4
v 0.5 0.6 -0.4
v 0.5 0.7 -0.4
v 0.5 1 -0.4
v 0.5 1.1 -0.4
v -0.4 0.7 -0.5
v -0.4 1 -0.5
v -0.3 0.7 -0.5
v -0.3 1 -0.5
v -0.2 0.7 -0.5
v -0.2 1 -0.5
v -0.1 0.7 -0.5
v -0.1 1 -0.5
v 0.2 0.7 -0.5
v 0.2 1 -0.5
v 0.3 0.7 -0.5
v 0.3 1 -0.5
v 0.4 0.7 -0.5
v 0.4 1 -0.5
v 0.5 0.7 -0.5
v 0.5 1 -0.5
v -0.4 0 0.4
v 0.5 0 0.4
v -0.4 0 -0.3
v 0.5 0 -0.3
v -0.1 0.2 0.5
v 0.2 0.2 0.5
v -0.1 0.2 0.4
v 0.2 0.2 0.4
v -0.4 0.6 -0.3
v -0.3 0.6 -0.3
v -0.2 0.6 -0.3
v -0.1 0.6 -0.3
v 0.2 0.6 -0.3
v 0.3 0.6 -0.3
v 0.4 0.6 -0.3
v 0.5 0.6 -0.3
v -0.4 0.6 -0.4
v -0.3 0.6 -0.4
v -0.2 0.6 -0.4
v -0.1 0.6 -0.4
v 0.2 0.6 -0.4
v 0.3 0.6 -0.4
v 0.4 0.6 -0.4
v 0.5 0.6 -0.4
v -0.4 0.7 -5.96046e-08
v -0.3 0.7 -5.96046e-08
v 0.4 0.7 -5.96046e-08
v 0.5 0.7 -5.96046e-08
v -0.4 0.7 -0.1
v -0.3 0.7 -0.1
v 0.4 0.7 -0.1
v 0.5 0.7 -0.1
v -0.4 0.7 -0.4
v -0.3 0.7 -0.4
v -0.2 0.7 -0.4
v -0.1 0.7 -0.4
v 0.2 0.7 -0.4
v 0.3 0.7 -0.4
v 0.4 0.7 -0.4
v 0.5 0.7 -0.4
v -0.4 0.7 -0.5
v -0.3 0.7 -0.5
v -0.2 0.7 -0.5
v -0.1 0.7 -0.5
v 0.2 0.7 -0.5
v 0.3 0.7 -0.5
v 0.4 0.7 -0.5
v 0.5 0.7 -0.5
v -0.4 0.9 -5.96046e-08
v -0.3 0.9 -5.96046e-08
v 0.4 0.9 -5.96046e-08
v 0.5 0.9 -5.96046e-08
v -0.4 0.9 -0.1
v -0.3 0.9 -0.1
v 0.4 0.9 -0.1
v 0.5 0.9 -0.1
v -0.4 1.1 -5.96046e-08
v -0.3 1.1 -5.96046e-08
v -0.2 1.1 -5.96046e-08
v -0.1 1.1 -5.96046e-08
v 0 1.1 -5.96046e-08
v 0.1 1.1 -5.96046e-08
v 0.2 1.1 -5.96046e-08
v 0.3 1.1 -5.96046e-08
v 0.4 1.1 -5.96046e-08
v 0.5 1.1 -5.96046e-08
v -0.4 1.1 -0.1
v -0.3 1.1 -0.1
v -0.2 1.1 -0.1
v -0.1 1.1 -0.1
v 0 1.1 -0.1
v 0.1 1.1 -0.1
v 0.2 1.1 -0.1
v 0.3 1.1 -0.1
v 0.4 1.1 -0.1
v 0.5 1.1 -0.1
v -0.4 0.5 0.4
v -0.3 0.5 0.4
v -0.2 0.5 0.4
v -0.1 0.5 0.4
v 0.2 0.5 0.4
v 0.3 0.5 0.4
v 0.4 0.5 0.4
v 0.5 0.5 0.4
v -0.4 0.5 0.3
v -0.3 0.5 0.3
v -0.2 0.5 0.3
v -0.1 0.5 0.3
v 0.2 0.5 0.3
v 0.3 0.5 0.3
v 0.4 0.5 0.3
v 0.5 0.5 0.3
v -0.4 0.5 0.2
v -0.3 0.5 0.2
v 0.4 0.5 0.2
v 0.5 0.5 0.2
v -0.4 0.5 0.1
v -0.3 0.5 0.1
v 0.4 0.5 0.1
v 0.5 0.5 0.1
v -0.4 0.5 -5.96046e-08
v -0.3 0.5 -5.96046e-08
v -0.1 0.5 -5.96046e-08
v 0.2 0.5 -5.96046e-08
v 0.4 0.5 -5.96046e-08
v 0.5 0.5 -5.96046e-08
v -0.4 0.5 -0.1
v -0.3 0.5 -0.1
v 0.4 0.5 -0.1
v 0.5 0.5 -0.1
v -0.1 0.6 0.5
v 0.2 0.6 0.5
v -0.3 0.6 0.4
v -0.2 0.6 0.4
v 0.3 0.6 0.4
v 0.4 0.6 0.4
v -0.4 0.6 0.3
v -0.3 0.6 0.3
v -0.2 0.6 0.3
v 0.3 0.6 0.3
v 0.4 0.6 0.3
v 0.5 0.6 0.3
v -0.4 0.6 0.2
v -0.3 0.6 0.2
v 0.4 0.6 0.2
v 0.5 0.6 0.2
v -0.4 0.6 0.1
v -0.3 0.6 0.1
v 0.4 0.6 0.1
v 0.5 0.6 0.1
v -0.4 0.6 -5.96046e-08
v -0.3 0.6 -5.96046e-08
v -0.1 0.6 -5.96046e-08
v 0.2 0.6 -5.96046e-08
v 0.4 0.6 -5.96046e-08
v 0.5 0.6 -5.96046e-08
v -0.4 0.8 -5.96046e-08
v -0.3 0.8 -5.96046e-08
v 0.4 0.8 -5.96046e-08
v 0.5 0.8 -5.96046e-08
v -0.4 0.8 -0.1
v -0.3 0.8 -0.1
v 0.4 0.8 -0.1
v 0.5 0.8 -0.1
v -0.4 1 -5.96046e-08
v -0.3 1 -5.96046e-08
v 0.4 1 -5.96046e-08
v 0.5 1 -5.96046e-08
v -0.4 1 -0.1
v -0.3 1 -0.1
v 0.4 1 -0.1
v 0.5 1 -0.1
v -0.4 1 -0.4
v -0.3 1 -0.4
v -0.2 1 -0.4
v -0.1 1 -0.4
v 0.2 1 -0.4
v 0.3 1 -0.4
v 0.4 1 -0.4
v 0.5 1 -0.4
v -0.4 1 -0.5
v -0.3 1 -0.5
v -0.2 1 -0.5
v -0.1 1 -0.5
v 0.2 1 -0.5
v 0.3 1 -0.5
v 0.4 1 -0.5
v 0.5 1 -0.5
v -0.4 1.1 -0.3
v -0.3 1.1 -0.3
v -0.2 1.1 -0.3
v -0.1 1.1 -0.3
v 0.2 1.1 -0.3
v 0.3 1.1 -0.3
v 0.4 1.1 -0.3
v 0.5 1.1 -0.3
v -0.4 1.1 -0.4
v -0.3 1.1 -0.4
v -0.2 1.1 -0.4
v -0.1 1.1 -0.4
v 0.2 1.1 -0.4
v 0.3 1.1 -0.4
v 0.4 1.1 -0.4
v 0.5 1.1 -0.4
v -0.4 1.2 -5.96046e-08
v -0.3 1.2 -5.96046e-08
v -0.2 1.2 -5.96046e-08
v -0.1 1.2 -5.96046e-08
v 0 1.2 -5.96046e-08
v 0.1 1.2 -5.96046e-08
v 0.2 1.2 -5.96046e-08
v 0.3 1.2 -5.96046e-08
v 0.4 1.2 -5.96046e-08
v 0.5 1.2 -5.96046e-08
v -0.3 1.2 -0.1
v -0.2 1.2 -0.1
v -0.1 1.2 -0.1
v 0 1.2 -0.1
v 0.1 1.2 -0.1
v 0.2 1.2 -0.1
v 0.3 1.2 -0.1
v 0.4 1.2 -0.1
v -0.3 1.2 -0.2
v -0.2 1.2 -0.2
v -0.1 1.2 -0.2
v 0.2 1.2 -0.2
v 0.3 1.2 -0.2
v 0.4 1.2 -0.2
v -0.4 1.2 -0.3
v -0.3 1.2 -0.3
v -0.2 1.2 -0.3
v -0.1 1.2 -0.3
v 0.2 1.2 -0.3
v 0.3 1.2 -0.3
v 0.4 1.2 -0.3
v 0.5 1.2 -0.3

# faces
f 3/2/1 2/2/1 1/2/1
f 4/2/1 2/2/1 3/2/1
f 5/2/1 3/2/1 1/2/1
f 5/3/1 4/3/1 3/3/1
f 6/2/1 2/2/1 4/2/1
f 6/3/1 4/3/1 5/3/1
f 7/2/1 5/2/1 1/2/1
f 7/2/1 6/2/1 5/2/1
f 8/2/1 6/2/1 7/2/1
f 9/2/1 6/2/1 8/2/1
f 10/2/1 6/2/1 9/2/1
f 11/2/1 6/2/1 10/2/1
f 12/2/1 6/2/1 11/2/1
f 13/2/1 9/2/1 8/2/1
f 14/2/1 9/2/1 13/2/1
f 15/2/1 11/2/1 10/2/1
f 16/2/1 11/2/1 15/2/1
f 17/2/1 2/2/1 6/2/1
f 17/2/1 6/2/1 12/2/1
f 18/2/1 2/2/1 17/2/1
f 21/2/1 17/2/1 12/2/1
f 22/2/1 19/2/1 18/2/1
f 22/3/1 18/3/1 17/3/1
f 23/2/1 19/2/1 22/2/1
f 25/2/1 21/2/1 20/2/1
f 26/2/1 17/2/1 21/2/1
f 26/2/1 21/2/1 25/2/1
f 28/2/1 17/2/1 26/2/1
f 29/2/1 28/2/1 27/2/1
f 30/2/1 17/2/1 28/2/1
f 30/2/1 28/2/1 29/2/1
f 31/3/1 22/3/1 17/3/1
f 31/3/1 23/3/1 22/3/1
f 32/2/1 24/2/1 23/2/1
f 32/3/1 23/3/1 31/3/1
f 33/2/1 24/2/1 32/2/1
f 35/2/1 17/2/1 30/2/1
f 36/3/1 31/3/1 17/3/1
f 36/2/1 17/2/1 35/2/1
f 37/2/1 32/2/1 31/2/1
f 37/3/1 31/3/1 36/3/1
f 38/2/1 32/2/1 37/2/1
f 39/2/1 35/2/1 34/2/1
f 39/2/1 36/2/1 35/2/1
f 39/2/1 37/2/1 36/2/1
f 40/2/1 37/2/1 39/2/1
f 43/2/1 42/2/1 41/2/1
f 44/2/1 42/2/1 43/2/1
f 47/2/1 46/2/1 45/2/1
f 48/2/1 46/2/1 47/2/1
f 51/1/1 50/1/1 49/1/1
f 52/1/1 51/1/1 49/1/1
f 55/1/1 52/1/1 49/1/1
f 55/1/1 54/1/1 53/1/1
f 55/1/1 53/1/1 52/1/1
f 56/1/1 54/1/1 55/1/1
f 59/2/1 58/2/1 57/2/1
f 60/2/1 58/2/1 59/2/1
f 63/2/1 62/2/1 61/2/1
f 64/2/1 62/2/1 63/2/1
f 67/2/1 66/2/1 65/2/1
f 68/2/1 66/2/1 67/2/1
f 73/2/1 70/2/1 69/2/1
f 74/2/1 70/2/1 73/2/1
f 75/2/1 72/2/1 71/2/1
f 76/2/1 72/2/1 75/2/1
f 79/2/1 78/2/1 77/2/1
f 80/2/1 78/2/1 79/2/1
f 83/2/1 82/2/1 81/2/1
f 84/2/1 82/2/1 83/2/1
f 87/2/1 86/2/1 85/2/1
f 88/2/1 86/2/1 87/2/1
f 89/2/2 90/2/2 93/2/2
f 93/2/2 90/2/2 94/2/2
f 91/2/2 92/2/2 95/2/2
f 95/2/2 92/2/2 96/2/2
f 97/2/2 98/2/2 99/2/2
f 99/2/2 98/2/2 100/2/2
f 101/2/2 102/2/2 103/2/2
f 103/2/2 102/2/2 104/2/2
f 105/2/2 106/2/2 107/2/2
f 107/2/2 106/2/2 108/2/2
f 109/2/2 110/2/2 111/2/2
f 111/2/2 110/2/2 112/2/2
f 113/2/2 114/2/2 115/2/2
f 115/2/2 114/2/2 116/2/2
f 117/2/2 118/2/2 119/2/2
f 119/2/2 118/2/2 120/2/2
f 121/1/2 122/1/2 123/1/2
f 121/1/2 123/1/2 124/1/2
f 121/1/2 124/1/2 127/1/2
f 125/1/2 126/1/2 127/1/2
f 124/1/2 125/1/2 127/1/2
f 127/1/2 126/1/2 128/1/2
f 129/2/2 130/2/2 131/2/2
f 131/2/2 130/2/2 132/2/2
f 133/2/2 134/2/2 135/2/2
f 135/2/2 134/2/2 136/2/2
f 137/2/2 138/2/2 139/2/2
f 139/2/2 138/2/2 140/2/2
f 137/2/2 139/2/2 141/2/2
f 139/3/2 140/3/2 141/3/2
f 140/2/2 138/2/2 142/2/2
f 141/3/2 140/3/2 142/3/2
f 137/2/2 141/2/2 143/2/2
f 141/2/2 142/2/2 143/2/2
f 143/2/2 142/2/2 144/2/2
f 144/2/2 142/2/2 145/2/2
f 145/2/2 142/2/2 146/2/2
f 146/2/2 142/2/2 147/2/2
f 147/2/2 142/2/2 148/2/2
f 144/2/2 145/2/2 149/2/2
f 149/2/2 145/2/2 150/2/2
f 146/2/2 147/2/2 151/2/2
f 151/2/2 147/2/2 152/2/2
f 142/2/2 138/2/2 153/2/2
f 148/2/2 142/2/2 153/2/2
f 153/2/2 138/2/2 154/2/2
f 148/2/2 153/2/2 157/2/2
f 154/2/2 155/2/2 158/2/2
f 153/3/2 154/3/2 158/3/2
f 158/2/2 155/2/2 159/2/2
f 156/2/2 157/2/2 161/2/2
f 157/2/2 153/2/2 162/2/2
f 161/2/2 157/2/2 162/2/2
f 162/2/2 153/2/2 164/2/2
f 163/2/2 164/2/2 165/2/2
f 164/2/2 153/2/2 166/2/2
f 165/2/2 164/2/2 166/2/2
f 153/3/2 158/3/2 167/3/2
f 158/3/2 159/3/2 167/3/2
f 159/2/2 160/2/2 168/2/2
f 167/3/2 159/3/2 168/3/2
f 168/2/2 160/2/2 169/2/2
f 166/2/2 153/2/2 171/2/2
f 153/3/2 167/3/2 172/3/2
f 171/2/2 153/2/2 172/2/2
f 167/2/2 168/2/2 173/2/2
f 172/3/2 167/3/2 173/3/2
f 173/2/2 168/2/2 174/2/2
f 170/2/2 171/2/2 175/2/2
f 171/2/2 172/2/2 175/2/2
f 172/2/2 173/2/2 175/2/2
f 175/2/2 173/2/2 176/2/2
f 179/1/3 178/1/3 177/1/3
f 180/1/3 178/1/3 179/1/3
f 183/2/3 182/2/3 181/2/3
f 184/2/3 182/2/3 183/2/3
f 185/2/3 182/2/3 184/2/3
f 187/2/3 185/2/3 184/2/3
f 187/2/3 186/2/3 185/2/3
f 188/2/3 186/2/3 187/2/3
f 189/3/3 184/3/3 183/3/3
f 190/2/3 187/2/3 184/2/3
f 190/3/3 184/3/3 189/3/3
f 191/2/3 187/2/3 190/2/3
f 192/3/3 189/3/3 183/3/3
f 195/2/3 194/2/3 193/2/3
f 197/2/3 183/2/3 181/2/3
f 197/3/3 192/3/3 183/3/3
f 197/3/3 193/3/3 192/3/3
f 198/2/3 196/2/3 195/2/3
f 198/3/3 193/3/3 197/3/3
f 198/2/3 195/2/3 193/2/3
f 199/2/3 196/2/3 198/2/3
f 200/2/3 196/2/3 199/2/3
f 201/2/3 197/2/3 181/2/3
f 201/2/3 198/2/3 197/2/3
f 201/2/3 199/2/3 198/2/3
f 202/2/3 199/2/3 201/2/3
f 205/2/3 204/2/3 203/2/3
f 206/2/3 204/2/3 205/2/3
f 209/2/3 208/2/3 207/2/3
f 210/2/3 208/2/3 209/2/3
f 213/2/3 212/2/3 211/2/3
f 214/2/3 212/2/3 213/2/3
f 217/2/3 216/2/3 215/2/3
f 218/2/3 216/2/3 217/2/3
f 225/2/3 220/2/3 219/2/3
f 226/2/3 220/2/3 225/2/3
f 227/2/3 222/2/3 221/2/3
f 228/2/3 222/2/3 227/2/3
f 229/2/3 224/2/3 223/2/3
f 230/2/3 224/2/3 229/2/3
f 233/2/3 232/2/3 231/2/3
f 234/2/3 232/2/3 233/2/3
f 237/2/3 236/2/3 235/2/3
f 238/2/3 236/2/3 237/2/3
f 241/2/3 240/2/3 239/2/3
f 242/2/3 240/2/3 241/2/3
f 249/2/3 244/2/3 243/2/3
f 250/2/3 244/2/3 249/2/3
f 251/2/3 246/2/3 245/2/3
f 252/2/3 246/2/3 251/2/3
f 253/2/3 248/2/3 247/2/3
f 254/2/3 248/2/3 253/2/3
f 261/2/3 256/2/3 255/2/3
f 262/2/3 256/2/3 261/2/3
f 263/2/3 256/2/3 262/2/3
f 264/2/3 258/2/3 257/2/3
f 265/2/3 258/2/3 264/2/3
f 266/2/3 260/2/3 259/2/3
f 267/2/3 260/2/3 266/2/3
f 269/3/3 265/3/3 264/3/3
f 269/2/3 268/2/3 267/2/3
f 269/3/3 267/3/3 266/3/3
f 269/3/3 266/3/3 265/3/3
f 269/3/3 263/3/3 262/3/3
f 269/3/3 264/3/3 263/3/3
f 270/2/3 268/2/3 269/2/3
f 271/3/3 269/3/3 262/3/3
f 273/3/3 271/3/3 262/3/3
f 273/2/3 272/2/3 271/2/3
f 274/2/3 272/2/3 273/2/3
f 275/3/3 273/3/3 262/3/3
f 277/3/3 275/3/3 262/3/3
f 277/2/3 276/2/3 275/2/3
f 278/2/3 276/2/3 277/2/3
f 279/3/3 277/3/3 262/3/3
f 281/2/3 262/2/3 261/2/3
f 282/3/3 279/3/3 262/3/3
f 282/2/3 262/2/3 281/2/3
f 283/3/3 279/3/3 282/3/3
f 284/3/3 279/3/3 283/3/3
f 285/3/3 279/3/3 284/3/3
f 286/3/3 279/3/3 285/3/3
f 287/2/3 280/2/3 279/2/3
f 287/3/3 279/3/3 286/3/3
f 288/2/3 280/2/3 287/2/3
f 289/2/3 282/2/3 281/2/3
f 289/2/3 283/2/3 282/2/3
f 290/2/3 283/2/3 289/2/3
f 291/2/3 285/2/3 284/2/3
f 292/2/3 285/2/3 291/2/3
f 293/2/3 287/2/3 286/2/3
f 294/2/3 287/2/3 293/2/3
f 295/2/4 296/2/4 297/2/4
f 297/2/4 296/2/4 298/2/4
f 299/2/4 300/2/4 301/2/4
f 301/2/4 300/2/4 302/2/4
f 303/2/4 304/2/4 305/2/4
f 305/2/4 304/2/4 306/2/4
f 307/2/4 308/2/4 309/2/4
f 309/2/4 308/2/4 310/2/4
f 311/2/4 312/2/4 313/2/4
f 313/2/4 312/2/4 314/2/4
f 315/1/4 316/1/4 317/1/4
f 317/1/4 316/1/4 318/1/4
f 319/2/4 320/2/4 321/2/4
f 321/2/4 320/2/4 322/2/4
f 323/2/4 324/2/4 327/2/4
f 327/2/4 324/2/4 328/2/4
f 328/2/4 324/2/4 329/2/4
f 329/2/4 324/2/4 330/2/4
f 325/2/4 326/2/4 331/2/4
f 331/2/4 326/2/4 332/2/4
f 329/3/4 330/3/4 333/3/4
f 328/2/4 329/2/4 333/2/4
f 333/3/4 330/3/4 334/3/4
f 331/3/4 332/3/4 335/3/4
f 335/3/4 332/3/4 336/3/4
f 333/2/4 334/2/4 337/2/4
f 328/2/4 333/2/4 337/2/4
f 337/2/4 334/2/4 338/2/4
f 335/2/4 336/2/4 339/2/4
f 339/2/4 336/2/4 340/2/4
f 337/3/4 338/3/4 341/3/4
f 328/2/4 337/2/4 341/2/4
f 341/3/4 338/3/4 342/3/4
f 339/3/4 340/3/4 343/3/4
f 343/3/4 340/3/4 344/3/4
f 341/2/4 342/2/4 345/2/4
f 328/2/4 341/2/4 345/2/4
f 345/2/4 342/2/4 346/2/4
f 343/2/4 344/2/4 347/2/4
f 347/2/4 344/2/4 348/2/4
f 323/2/4 327/2/4 349/2/4
f 327/3/4 328/3/4 349/3/4
f 328/2/4 345/2/4 350/2/4
f 349/3/4 328/3/4 350/3/4
f 345/3/4 346/3/4 351/3/4
f 350/2/4 345/2/4 351/2/4
f 351/3/4 346/3/4 352/3/4
f 347/3/4 348/3/4 353/3/4
f 353/3/4 348/3/4 354/3/4
f 351/2/4 352/2/4 355/2/4
f 349/2/4 350/2/4 355/2/4
f 323/2/4 349/2/4 355/2/4
f 350/2/4 351/2/4 355/2/4
f 355/2/4 352/2/4 356/2/4
f 353/2/4 354/2/4 357/2/4
f 357/2/4 354/2/4 358/2/4
f 359/2/4 360/2/4 363/2/4
f 363/2/4 360/2/4 364/2/4
f 361/2/4 362/2/4 365/2/4
f 365/2/4 362/2/4 366/2/4
f 363/3/4 364/3/4 367/3/4
f 367/3/4 364/3/4 368/3/4
f 365/3/4 366/3/4 369/3/4
f 369/3/4 366/3/4 370/3/4
f 367/2/4 368/2/4 371/2/4
f 371/2/4 368/2/4 372/2/4
f 369/2/4 370/2/4 373/2/4
f 373/2/4 370/2/4 374/2/4
f 371/3/4 372/3/4 375/3/4
f 375/3/4 372/3/4 376/3/4
f 373/3/4 374/3/4 377/3/4
f 377/3/4 374/3/4 378/3/4
f 375/2/4 376/2/4 379/2/4
f 379/2/4 376/2/4 380/2/4
f 377/2/4 378/2/4 381/2/4
f 381/2/4 378/2/4 382/2/4
f 379/3/4 380/3/4 383/3/4
f 383/3/4 380/3/4 384/3/4
f 381/3/4 382/3/4 385/3/4
f 385/3/4 382/3/4 386/3/4
f 383/2/4 384/2/4 387/2/4
f 387/2/4 384/2/4 388/2/4
f 385/2/4 386/2/4 389/2/4
f 389/2/4 386/2/4 390/2/4
f 391/2/4 392/2/4 393/2/4
f 393/2/4 392/2/4 394/2/4
f 393/3/4 394/3/4 395/3/4
f 395/3/4 394/3/4 396/3/4
f 395/2/4 396/2/4 397/2/4
f 397/2/4 396/2/4 398/2/4
f 397/3/4 398/3/4 399/3/4
f 399/3/4 398/3/4 400/3/4
f 399/2/4 400/2/4 401/2/4
f 401/2/4 400/2/4 402/2/4
f 401/3/4 402/3/4 403/3/4
f 403/3/4 402/3/4 404/3/4
f 403/2/4 404/2/4 405/2/4
f 405/2/4 404/2/4 406/2/4
f 409/2/5 408/2/5 407/2/5
f 410/2/5 408/2/5 409/2/5
f 413/1/5 412/1/5 411/1/5
f 414/1/5 412/1/5 413/1/5
f 423/2/5 416/2/5 415/2/5
f 424/3/5 417/3/5 416/3/5
f 424/2/5 416/2/5 423/2/5
f 425/2/5 418/2/5 417/2/5
f 425/3/5 417/3/5 424/3/5
f 426/3/5 419/3/5 418/3/5
f 426/2/5 418/2/5 425/2/5
f 427/2/5 420/2/5 419/2/5
f 427/3/5 419/3/5 426/3/5
f 428/3/5 421/3/5 420/3/5
f 428/2/5 420/2/5 427/2/5
f 429/2/5 422/2/5 421/2/5
f 429/3/5 421/3/5 428/3/5
f 430/2/5 422/2/5 429/2/5
f 435/2/5 432/2/5 431/2/5
f 436/2/5 432/2/5 435/2/5
f 437/2/5 434/2/5 433/2/5
f 438/2/5 434/2/5 437/2/5
f 447/2/5 440/2/5 439/2/5
f 448/3/5 441/3/5 440/3/5
f 448/2/5 440/2/5 447/2/5
f 449/2/5 442/2/5 441/2/5
f 449/3/5 441/3/5 448/3/5
f 450/3/5 443/3/5 442/3/5
f 450/2/5 442/2/5 449/2/5
f 451/2/5 444/2/5 443/2/5
f 451/3/5 443/3/5 450/3/5
f 452/3/5 445/3/5 444/3/5
f 452/2/5 444/2/5 451/2/5
f 453/2/5 446/2/5 445/2/5
f 453/3/5 445/3/5 452/3/5
f 454/2/5 446/2/5 453/2/5
f 459/2/5 456/2/5 455/2/5
f 460/2/5 456/2/5 459/2/5
f 461/2/5 458/2/5 457/2/5
f 462/2/5 458/2/5 461/2/5
f 473/2/5 464/2/5 463/2/5
f 474/2/5 464/2/5 473/2/5
f 475/2/5 466/2/5 465/2/5
f 476/2/5 466/2/5 475/2/5
f 477/2/5 468/2/5 467/2/5
f 478/2/5 468/2/5 477/2/5
f 479/2/5 470/2/5 469/2/5
f 480/2/5 470/2/5 479/2/5
f 481/2/5 472/2/5 471/2/5
f 482/2/5 472/2/5 481/2/5
f 483/2/6 484/2/6 491/2/6
f 491/2/6 484/2/6 492/2/6
f 485/2/6 486/2/6 493/2/6
f 493/2/6 486/2/6 494/2/6
f 487/2/6 488/2/6 495/2/6
f 495/2/6 488/2/6 496/2/6
f 489/2/6 490/2/6 497/2/6
f 497/2/6 490/2/6 498/2/6
f 493/3/6 494/3/6 500/3/6
f 492/3/6 493/3/6 500/3/6
f 495/3/6 496/3/6 501/3/6
f 496/3/6 497/3/6 501/3/6
f 499/2/6 500/2/6 503/2/6
f 500/3/6 494/3/6 504/3/6
f 503/2/6 500/2/6 504/2/6
f 501/2/6 502/2/6 505/2/6
f 495/3/6 501/3/6 505/3/6
f 505/2/6 502/2/6 506/2/6
f 504/3/6 494/3/6 508/3/6
f 508/3/6 494/3/6 509/3/6
f 495/3/6 505/3/6 510/3/6
f 510/3/6 505/3/6 511/3/6
f 507/2/6 508/2/6 513/2/6
f 508/3/6 509/3/6 514/3/6
f 513/2/6 508/2/6 514/2/6
f 509/3/6 510/3/6 514/3/6
f 510/3/6 511/3/6 514/3/6
f 511/2/6 512/2/6 515/2/6
f 514/3/6 511/3/6 515/3/6
f 515/2/6 512/2/6 516/2/6
f 519/2/6 520/2/6 524/2/6
f 524/2/6 520/2/6 525/2/6
f 521/2/6 522/2/6 526/2/6
f 526/2/6 522/2/6 527/2/6
f 523/2/6 524/2/6 529/2/6
f 529/2/6 524/2/6 530/2/6
f 527/2/6 528/2/6 531/2/6
f 531/2/6 528/2/6 532/2/6
f 533/2/6 534/2/6 537/2/6
f 537/2/6 534/2/6 538/2/6
f 517/1/6 518/1/6 539/1/6
f 539/1/6 518/1/6 540/1/6
f 535/2/6 536/2/6 541/2/6
f 541/2/6 536/2/6 542/2/6
f 543/2/6 544/2/6 547/2/6
f 547/2/6 544/2/6 548/2/6
f 545/2/6 546/2/6 549/2/6
f 549/2/6 546/2/6 550/2/6
f 551/2/6 552/2/6 555/2/6
f 555/2/6 552/2/6 556/2/6
f 553/2/6 554/2/6 557/2/6
f 557/2/6 554/2/6 558/2/6
f 559/2/6 560/2/6 567/2/6
f 560/3/6 561/3/6 568/3/6
f 567/2/6 560/2/6 568/2/6
f 561/2/6 562/2/6 569/2/6
f 568/3/6 561/3/6 569/3/6
f 562/3/6 563/3/6 570/3/6
f 569/2/6 562/2/6 570/2/6
f 563/2/6 564/2/6 571/2/6
f 570/3/6 563/3/6 571/3/6
f 564/3/6 565/3/6 572/3/6
f 571/2/6 564/2/6 572/2/6
f 565/2/6 566/2/6 573/2/6
f 572/3/6 565/3/6 573/3/6
f 573/2/6 566/2/6 574/2/6
f 575/2/6 576/2/6 583/2/6
f 576/3/6 577/3/6 584/3/6
f 583/2/6 576/2/6 584/2/6
f 577/2/6 578/2/6 585/2/6
f 584/3/6 577/3/6 585/3/6
f 578/3/6 579/3/6 586/3/6
f 585/2/6 578/2/6 586/2/6
f 579/2/6 580/2/6 587/2/6
f 586/3/6 579/3/6 587/3/6
f 580/3/6 581/3/6 588/3/6
f 587/2/6 580/2/6 588/2/6
f 581/2/6 582/2/6 589/2/6
f 588/3/6 581/3/6 589/3/6
f 589/2/6 582/2/6 590/2/6
f 591/2/6 592/2/6 601/2/6
f 593/2/6 594/2/6 602/2/6
f 602/2/6 594/2/6 603/2/6
f 595/2/6 596/2/6 604/2/6
f 604/2/6 596/2/6 605/2/6
f 597/2/6 598/2/6 606/2/6
f 606/2/6 598/2/6 607/2/6
f 599/2/6 600/2/6 608/2/6
f 606/2/6 607/2/6 609/2/6
f 607/2/6 608/2/6 609/2/6
f 591/2/6 601/2/6 609/2/6
f 602/2/6 603/2/6 609/2/6
f 605/2/6 606/2/6 609/2/6
f 604/2/6 605/2/6 609/2/6
f 603/2/6 604/2/6 609/2/6
f 601/2/6 602/2/6 609/2/6
f 609/2/6 608/2/6 610/2/6
f 610/2/6 608/2/6 611/2/6
f 611/2/6 608/2/6 612/2/6
f 612/2/6 608/2/6 613/2/6
f 608/2/6 600/2/6 614/2/6
f 613/2/6 608/2/6 614/2/6
f 591/2/6 609/2/6 615/2/6
f 609/3/6 610/3/6 616/3/6
f 615/2/6 609/2/6 616/2/6
f 610/2/6 611/2/6 617/2/6
f 616/3/6 610/3/6 617/3/6
f 611/3/6 612/3/6 618/3/6
f 617/2/6 611/2/6 618/2/6
f 612/2/6 613/2/6 619/2/6
f 618/3/6 612/3/6 619/3/6
f 613/3/6 614/3/6 620/3/6
f 619/2/6 613/2/6 620/2/6
f 614/2/6 600/2/6 621/2/6
f 620/3/6 614/3/6 621/3/6
f 621/2/6 600/2/6 622/2/6
