# MagicaVoxel @ Ephtracy

# group
o 

# material
mtllib mimic_h_idle_1.mtl
usemtl palette

# normals
vn -1 0 0
vn 1 0 0
vn 0 0 1
vn 0 0 -1
vn 0 -1 0
vn 0 1 0

# texcoords
vt 0.908203 0.5
vt 0.947266 0.5
vt 0.970703 0.5

# verts
v -0.4 0 0.3
v -0.4 0 -0.4
v -0.4 0.1 0.2
v -0.4 0.1 -0.3
v -0.4 0.4 0.2
v -0.4 0.4 -0.3
v -0.4 0.5 0.3
v -0.4 0.5 0.2
v -0.4 0.5 0.1
v -0.4 0.5 0
v -0.4 0.5 -0.1
v -0.4 0.5 -0.2
v -0.4 0.6 0.3
v -0.4 0.6 0.2
v -0.4 0.6 0.1
v -0.4 0.6 0
v -0.4 0.6 -0.1
v -0.4 0.6 -0.2
v -0.4 0.6 -0.3
v -0.4 0.7 0.3
v -0.4 0.7 0.2
v -0.4 0.7 0.1
v -0.4 0.7 -0.2
v -0.4 0.7 -0.3
v -0.4 0.7 -0.4
v -0.4 0.8 0.2
v -0.4 0.8 0.1
v -0.4 0.8 -0.2
v -0.4 0.8 -0.3
v -0.4 0.9 0.1
v -0.4 0.9 -0.2
v -0.3 0.5 0.3
v -0.3 0.5 0.2
v -0.3 0.5 0.1
v -0.3 0.5 0
v -0.3 0.5 -0.1
v -0.3 0.5 -0.2
v -0.3 0.6 0.3
v -0.3 0.6 0.2
v -0.3 0.6 0.1
v -0.3 0.6 0
v -0.3 0.6 -0.1
v -0.3 0.6 -0.2
v -0.1 0.3 0.4
v -0.1 0.3 0.3
v -0.1 0.4 0.3
v -0.1 0.5 0.3
v -0.1 0.5 0.2
v -0.1 0.6 0.4
v -0.1 0.6 0.3
v -0.1 0.6 0.2
v 0.3 0.5 0.3
v 0.3 0.5 0.2
v 0.3 0.6 0.3
v 0.3 0.6 0.2
v -0.2 0.5 0.3
v -0.2 0.5 0.2
v -0.2 0.6 0.3
v -0.2 0.6 0.2
v 0.2 0.3 0.4
v 0.2 0.3 0.3
v 0.2 0.4 0.3
v 0.2 0.5 0.3
v 0.2 0.5 0.2
v 0.2 0.6 0.4
v 0.2 0.6 0.3
v 0.2 0.6 0.2
v 0.4 0.5 0.3
v 0.4 0.5 0.2
v 0.4 0.5 0.1
v 0.4 0.5 0
v 0.4 0.5 -0.1
v 0.4 0.5 -0.2
v 0.4 0.6 0.3
v 0.4 0.6 0.2
v 0.4 0.6 0.1
v 0.4 0.6 0
v 0.4 0.6 -0.1
v 0.4 0.6 -0.2
v 0.5 0 0.3
v 0.5 0 -0.4
v 0.5 0.1 0.2
v 0.5 0.1 -0.3
v 0.5 0.4 0.2
v 0.5 0.4 -0.3
v 0.5 0.5 0.3
v 0.5 0.5 0.2
v 0.5 0.5 0.1
v 0.5 0.5 0
v 0.5 0.5 -0.1
v 0.5 0.5 -0.2
v 0.5 0.6 0.3
v 0.5 0.6 0.2
v 0.5 0.6 0.1
v 0.5 0.6 0
v 0.5 0.6 -0.1
v 0.5 0.6 -0.2
v 0.5 0.6 -0.3
v 0.5 0.7 0.3
v 0.5 0.7 0.2
v 0.5 0.7 0.1
v 0.5 0.7 -0.2
v 0.5 0.7 -0.3
v 0.5 0.7 -0.4
v 0.5 0.8 0.2
v 0.5 0.8 0.1
v 0.5 0.8 -0.2
v 0.5 0.8 -0.3
v 0.5 0.9 0.1
v 0.5 0.9 -0.2
v -0.1 0.3 0.4
v -0.1 0.6 0.4
v 0.2 0.3 0.4
v 0.2 0.6 0.4
v -0.4 0 0.3
v -0.4 0.5 0.3
v -0.4 0.6 0.3
v -0.4 0.7 0.3
v -0.3 0.1 0.3
v -0.3 0.4 0.3
v -0.3 0.5 0.3
v -0.3 0.6 0.3
v -0.3 0.7 0.3
v -0.2 0.5 0.3
v -0.2 0.6 0.3
v -0.2 0.7 0.3
v -0.1 0.3 0.3
v -0.1 0.4 0.3
v -0.1 0.5 0.3
v -0.1 0.6 0.3
v -0.1 0.7 0.3
v 0.2 0.3 0.3
v 0.2 0.4 0.3
v 0.2 0.5 0.3
v 0.2 0.6 0.3
v 0.2 0.7 0.3
v 0.3 0.5 0.3
v 0.3 0.6 0.3
v 0.3 0.7 0.3
v 0.4 0.1 0.3
v 0.4 0.4 0.3
v 0.4 0.5 0.3
v 0.4 0.6 0.3
v 0.4 0.7 0.3
v 0.5 0 0.3
v 0.5 0.5 0.3
v 0.5 0.6 0.3
v 0.5 0.7 0.3
v -0.4 0.5 0.2
v -0.4 0.6 0.2
v -0.4 0.7 0.2
v -0.4 0.8 0.2
v -0.3 0.5 0.2
v -0.3 0.6 0.2
v -0.3 0.7 0.2
v -0.3 0.8 0.2
v -0.2 0.5 0.2
v -0.2 0.6 0.2
v -0.2 0.7 0.2
v -0.2 0.8 0.2
v -0.1 0.5 0.2
v -0.1 0.6 0.2
v -0.1 0.7 0.2
v -0.1 0.8 0.2
v 0.2 0.5 0.2
v 0.2 0.6 0.2
v 0.2 0.7 0.2
v 0.2 0.8 0.2
v 0.3 0.5 0.2
v 0.3 0.6 0.2
v 0.3 0.7 0.2
v 0.3 0.8 0.2
v 0.4 0.5 0.2
v 0.4 0.6 0.2
v 0.4 0.7 0.2
v 0.4 0.8 0.2
v 0.5 0.5 0.2
v 0.5 0.6 0.2
v 0.5 0.7 0.2
v 0.5 0.8 0.2
v -0.4 0.8 0.1
v -0.4 0.9 0.1
v -0.3 0.8 0.1
v -0.3 0.9 0.1
v -0.2 0.8 0.1
v -0.2 0.9 0.1
v -0.1 0.8 0.1
v -0.1 0.9 0.1
v 0.2 0.8 0.1
v 0.2 0.9 0.1
v 0.3 0.8 0.1
v 0.3 0.9 0.1
v 0.4 0.8 0.1
v 0.4 0.9 0.1
v 0.5 0.8 0.1
v 0.5 0.9 0.1
v -0.4 0.5 0
v -0.4 0.6 0
v -0.3 0.5 0
v -0.3 0.6 0
v 0.4 0.5 0
v 0.4 0.6 0
v 0.5 0.5 0
v 0.5 0.6 0
v -0.4 0.5 -0.2
v -0.4 0.6 -0.2
v -0.3 0.5 -0.2
v -0.3 0.6 -0.2
v 0.4 0.5 -0.2
v 0.4 0.6 -0.2
v 0.5 0.5 -0.2
v 0.5 0.6 -0.2
v -0.4 0.5 0.1
v -0.4 0.6 0.1
v -0.3 0.5 0.1
v -0.3 0.6 0.1
v 0.4 0.5 0.1
v 0.4 0.6 0.1
v 0.5 0.5 0.1
v 0.5 0.6 0.1
v -0.4 0.5 -0.1
v -0.4 0.6 -0.1
v -0.3 0.5 -0.1
v -0.3 0.6 -0.1
v 0.4 0.5 -0.1
v 0.4 0.6 -0.1
v 0.5 0.5 -0.1
v 0.5 0.6 -0.1
v -0.4 0.8 -0.2
v -0.4 0.9 -0.2
v -0.3 0.8 -0.2
v -0.3 0.9 -0.2
v -0.2 0.8 -0.2
v -0.2 0.9 -0.2
v -0.1 0.8 -0.2
v -0.1 0.9 -0.2
v 0.2 0.8 -0.2
v 0.2 0.9 -0.2
v 0.3 0.8 -0.2
v 0.3 0.9 -0.2
v 0.4 0.8 -0.2
v 0.4 0.9 -0.2
v 0.5 0.8 -0.2
v 0.5 0.9 -0.2
v -0.4 0.7 -0.3
v -0.4 0.8 -0.3
v -0.3 0.7 -0.3
v -0.3 0.8 -0.3
v -0.2 0.7 -0.3
v -0.2 0.8 -0.3
v -0.1 0.7 -0.3
v -0.1 0.8 -0.3
v 0.2 0.7 -0.3
v 0.2 0.8 -0.3
v 0.3 0.7 -0.3
v 0.3 0.8 -0.3
v 0.4 0.7 -0.3
v 0.4 0.8 -0.3
v 0.5 0.7 -0.3
v 0.5 0.8 -0.3
v -0.4 0 -0.4
v -0.4 0.7 -0.4
v -0.3 0.1 -0.4
v -0.3 0.4 -0.4
v -0.3 0.6 -0.4
v -0.3 0.7 -0.4
v -0.2 0.6 -0.4
v -0.2 0.7 -0.4
v -0.1 0.6 -0.4
v -0.1 0.7 -0.4
v 0.2 0.6 -0.4
v 0.2 0.7 -0.4
v 0.3 0.6 -0.4
v 0.3 0.7 -0.4
v 0.4 0.1 -0.4
v 0.4 0.4 -0.4
v 0.4 0.6 -0.4
v 0.4 0.7 -0.4
v 0.5 0 -0.4
v 0.5 0.7 -0.4
v -0.4 0 0.3
v 0.5 0 0.3
v -0.4 0 -0.4
v 0.5 0 -0.4
v -0.1 0.3 0.4
v 0.2 0.3 0.4
v -0.1 0.3 0.3
v 0.2 0.3 0.3
v -0.4 0.6 0.3
v -0.3 0.6 0.3
v -0.2 0.6 0.3
v -0.1 0.6 0.3
v 0.2 0.6 0.3
v 0.3 0.6 0.3
v 0.4 0.6 0.3
v 0.5 0.6 0.3
v -0.4 0.6 0.2
v -0.3 0.6 0.2
v -0.2 0.6 0.2
v -0.1 0.6 0.2
v 0.2 0.6 0.2
v 0.3 0.6 0.2
v 0.4 0.6 0.2
v 0.5 0.6 0.2
v -0.4 0.6 0.1
v -0.3 0.6 0.1
v 0.4 0.6 0.1
v 0.5 0.6 0.1
v -0.4 0.6 0
v -0.3 0.6 0
v 0.4 0.6 0
v 0.5 0.6 0
v -0.4 0.6 -0.1
v -0.3 0.6 -0.1
v 0.4 0.6 -0.1
v 0.5 0.6 -0.1
v -0.4 0.6 -0.2
v -0.3 0.6 -0.2
v 0.4 0.6 -0.2
v 0.5 0.6 -0.2
v -0.4 0.5 0.3
v -0.3 0.5 0.3
v -0.2 0.5 0.3
v -0.1 0.5 0.3
v 0.2 0.5 0.3
v 0.3 0.5 0.3
v 0.4 0.5 0.3
v 0.5 0.5 0.3
v -0.4 0.5 0.2
v -0.3 0.5 0.2
v -0.2 0.5 0.2
v -0.1 0.5 0.2
v 0.2 0.5 0.2
v 0.3 0.5 0.2
v 0.4 0.5 0.2
v 0.5 0.5 0.2
v -0.4 0.5 0.1
v -0.3 0.5 0.1
v 0.4 0.5 0.1
v 0.5 0.5 0.1
v -0.4 0.5 0
v -0.3 0.5 0
v 0.4 0.5 0
v 0.5 0.5 0
v -0.4 0.5 -0.1
v -0.3 0.5 -0.1
v 0.4 0.5 -0.1
v 0.5 0.5 -0.1
v -0.4 0.5 -0.2
v -0.3 0.5 -0.2
v 0.4 0.5 -0.2
v 0.5 0.5 -0.2
v -0.1 0.6 0.4
v 0.2 0.6 0.4
v -0.1 0.6 0.3
v 0.2 0.6 0.3
v -0.4 0.7 0.3
v -0.3 0.7 0.3
v -0.2 0.7 0.3
v -0.1 0.7 0.3
v 0.2 0.7 0.3
v 0.3 0.7 0.3
v 0.4 0.7 0.3
v 0.5 0.7 0.3
v -0.4 0.7 0.2
v -0.3 0.7 0.2
v -0.2 0.7 0.2
v -0.1 0.7 0.2
v 0.2 0.7 0.2
v 0.3 0.7 0.2
v 0.4 0.7 0.2
v 0.5 0.7 0.2
v -0.4 0.7 -0.3
v -0.3 0.7 -0.3
v -0.2 0.7 -0.3
v -0.1 0.7 -0.3
v 0.2 0.7 -0.3
v 0.3 0.7 -0.3
v 0.4 0.7 -0.3
v 0.5 0.7 -0.3
v -0.4 0.7 -0.4
v -0.3 0.7 -0.4
v -0.2 0.7 -0.4
v -0.1 0.7 -0.4
v 0.2 0.7 -0.4
v 0.3 0.7 -0.4
v 0.4 0.7 -0.4
v 0.5 0.7 -0.4
v -0.4 0.8 0.2
v -0.3 0.8 0.2
v -0.2 0.8 0.2
v -0.1 0.8 0.2
v 0.2 0.8 0.2
v 0.3 0.8 0.2
v 0.4 0.8 0.2
v 0.5 0.8 0.2
v -0.4 0.8 0.1
v -0.3 0.8 0.1
v -0.2 0.8 0.1
v -0.1 0.8 0.1
v 0.2 0.8 0.1
v 0.3 0.8 0.1
v 0.4 0.8 0.1
v 0.5 0.8 0.1
v -0.4 0.8 -0.2
v -0.3 0.8 -0.2
v -0.2 0.8 -0.2
v -0.1 0.8 -0.2
v 0.2 0.8 -0.2
v 0.3 0.8 -0.2
v 0.4 0.8 -0.2
v 0.5 0.8 -0.2
v -0.4 0.8 -0.3
v -0.3 0.8 -0.3
v -0.2 0.8 -0.3
v -0.1 0.8 -0.3
v 0.2 0.8 -0.3
v 0.3 0.8 -0.3
v 0.4 0.8 -0.3
v 0.5 0.8 -0.3
v -0.4 0.9 0.1
v -0.3 0.9 0.1
v -0.2 0.9 0.1
v -0.1 0.9 0.1
v 0.2 0.9 0.1
v 0.3 0.9 0.1
v 0.4 0.9 0.1
v 0.5 0.9 0.1
v -0.4 0.9 -0.2
v -0.3 0.9 -0.2
v -0.2 0.9 -0.2
v -0.1 0.9 -0.2
v 0.2 0.9 -0.2
v 0.3 0.9 -0.2
v 0.4 0.9 -0.2
v 0.5 0.9 -0.2

# faces
f 3/2/1 2/2/1 1/2/1
f 4/2/1 2/2/1 3/2/1
f 5/2/1 3/2/1 1/2/1
f 5/3/1 4/3/1 3/3/1
f 6/2/1 2/2/1 4/2/1
f 6/3/1 4/3/1 5/3/1
f 7/2/1 5/2/1 1/2/1
f 7/2/1 6/2/1 5/2/1
f 8/2/1 6/2/1 7/2/1
f 9/2/1 6/2/1 8/2/1
f 10/2/1 6/2/1 9/2/1
f 11/2/1 6/2/1 10/2/1
f 12/2/1 6/2/1 11/2/1
f 14/2/1 9/2/1 8/2/1
f 15/2/1 9/2/1 14/2/1
f 16/2/1 11/2/1 10/2/1
f 17/2/1 11/2/1 16/2/1
f 18/2/1 6/2/1 12/2/1
f 19/2/1 2/2/1 6/2/1
f 19/2/1 6/2/1 18/2/1
f 20/2/1 14/2/1 13/2/1
f 21/3/1 18/3/1 17/3/1
f 21/2/1 14/2/1 20/2/1
f 21/3/1 17/3/1 16/3/1
f 21/3/1 19/3/1 18/3/1
f 21/3/1 15/3/1 14/3/1
f 21/3/1 16/3/1 15/3/1
f 22/3/1 19/3/1 21/3/1
f 23/3/1 19/3/1 22/3/1
f 24/2/1 2/2/1 19/2/1
f 24/3/1 19/3/1 23/3/1
f 25/2/1 2/2/1 24/2/1
f 26/2/1 22/2/1 21/2/1
f 27/3/1 23/3/1 22/3/1
f 27/2/1 22/2/1 26/2/1
f 28/2/1 24/2/1 23/2/1
f 28/3/1 23/3/1 27/3/1
f 29/2/1 24/2/1 28/2/1
f 30/2/1 28/2/1 27/2/1
f 31/2/1 28/2/1 30/2/1
f 38/2/1 33/2/1 32/2/1
f 39/2/1 33/2/1 38/2/1
f 40/3/1 35/3/1 34/3/1
f 41/3/1 35/3/1 40/3/1
f 42/3/1 37/3/1 36/3/1
f 43/3/1 37/3/1 42/3/1
f 46/1/1 45/1/1 44/1/1
f 47/1/1 46/1/1 44/1/1
f 49/1/1 47/1/1 44/1/1
f 49/1/1 48/1/1 47/1/1
f 50/1/1 48/1/1 49/1/1
f 51/1/1 48/1/1 50/1/1
f 54/2/1 53/2/1 52/2/1
f 55/2/1 53/2/1 54/2/1
f 56/2/2 57/2/2 58/2/2
f 58/2/2 57/2/2 59/2/2
f 60/1/2 61/1/2 62/1/2
f 60/1/2 62/1/2 63/1/2
f 60/1/2 63/1/2 65/1/2
f 63/1/2 64/1/2 65/1/2
f 65/1/2 64/1/2 66/1/2
f 66/1/2 64/1/2 67/1/2
f 68/2/2 69/2/2 74/2/2
f 74/2/2 69/2/2 75/2/2
f 70/3/2 71/3/2 76/3/2
f 76/3/2 71/3/2 77/3/2
f 72/3/2 73/3/2 78/3/2
f 78/3/2 73/3/2 79/3/2
f 80/2/2 81/2/2 82/2/2
f 82/2/2 81/2/2 83/2/2
f 80/2/2 82/2/2 84/2/2
f 82/3/2 83/3/2 84/3/2
f 83/2/2 81/2/2 85/2/2
f 84/3/2 83/3/2 85/3/2
f 80/2/2 84/2/2 86/2/2
f 84/2/2 85/2/2 86/2/2
f 86/2/2 85/2/2 87/2/2
f 87/2/2 85/2/2 88/2/2
f 88/2/2 85/2/2 89/2/2
f 89/2/2 85/2/2 90/2/2
f 90/2/2 85/2/2 91/2/2
f 87/2/2 88/2/2 93/2/2
f 93/2/2 88/2/2 94/2/2
f 89/2/2 90/2/2 95/2/2
f 95/2/2 90/2/2 96/2/2
f 91/2/2 85/2/2 97/2/2
f 85/2/2 81/2/2 98/2/2
f 97/2/2 85/2/2 98/2/2
f 92/2/2 93/2/2 99/2/2
f 96/3/2 97/3/2 100/3/2
f 99/2/2 93/2/2 100/2/2
f 95/3/2 96/3/2 100/3/2
f 97/3/2 98/3/2 100/3/2
f 93/3/2 94/3/2 100/3/2
f 94/3/2 95/3/2 100/3/2
f 100/3/2 98/3/2 101/3/2
f 101/3/2 98/3/2 102/3/2
f 98/2/2 81/2/2 103/2/2
f 102/3/2 98/3/2 103/3/2
f 103/2/2 81/2/2 104/2/2
f 100/2/2 101/2/2 105/2/2
f 101/3/2 102/3/2 106/3/2
f 105/2/2 101/2/2 106/2/2
f 102/2/2 103/2/2 107/2/2
f 106/3/2 102/3/2 107/3/2
f 107/2/2 103/2/2 108/2/2
f 106/2/2 107/2/2 109/2/2
f 109/2/2 107/2/2 110/2/2
f 113/1/3 112/1/3 111/1/3
f 114/1/3 112/1/3 113/1/3
f 119/2/3 116/2/3 115/2/3
f 120/2/3 116/2/3 119/2/3
f 121/2/3 116/2/3 120/2/3
f 122/2/3 118/2/3 117/2/3
f 123/2/3 118/2/3 122/2/3
f 124/2/3 121/2/3 120/2/3
f 124/2/3 122/2/3 121/2/3
f 125/3/3 123/3/3 122/3/3
f 125/2/3 122/2/3 124/2/3
f 126/3/3 123/3/3 125/3/3
f 127/3/3 120/3/3 119/3/3
f 128/2/3 124/2/3 120/2/3
f 128/3/3 120/3/3 127/3/3
f 129/2/3 124/2/3 128/2/3
f 130/2/3 126/2/3 125/2/3
f 131/2/3 126/2/3 130/2/3
f 132/3/3 127/3/3 119/3/3
f 135/3/3 131/3/3 130/3/3
f 136/3/3 131/3/3 135/3/3
f 137/2/3 134/2/3 133/2/3
f 138/2/3 136/2/3 135/2/3
f 139/2/3 136/2/3 138/2/3
f 140/2/3 119/2/3 115/2/3
f 140/3/3 132/3/3 119/3/3
f 140/3/3 133/3/3 132/3/3
f 141/2/3 138/2/3 137/2/3
f 141/3/3 133/3/3 140/3/3
f 141/2/3 137/2/3 133/2/3
f 142/2/3 138/2/3 141/2/3
f 143/3/3 139/3/3 138/3/3
f 143/2/3 138/2/3 142/2/3
f 144/3/3 139/3/3 143/3/3
f 145/2/3 142/2/3 141/2/3
f 145/2/3 140/2/3 115/2/3
f 145/2/3 141/2/3 140/2/3
f 146/2/3 142/2/3 145/2/3
f 147/2/3 144/2/3 143/2/3
f 148/2/3 144/2/3 147/2/3
f 153/2/3 150/2/3 149/2/3
f 154/2/3 150/2/3 153/2/3
f 155/2/3 152/2/3 151/2/3
f 156/2/3 152/2/3 155/2/3
f 159/3/3 156/3/3 155/3/3
f 160/3/3 156/3/3 159/3/3
f 161/3/3 158/3/3 157/3/3
f 162/3/3 158/3/3 161/3/3
f 163/2/3 160/2/3 159/2/3
f 164/2/3 160/2/3 163/2/3
f 167/3/3 164/3/3 163/3/3
f 168/3/3 164/3/3 167/3/3
f 169/3/3 166/3/3 165/3/3
f 170/3/3 166/3/3 169/3/3
f 171/2/3 168/2/3 167/2/3
f 172/2/3 168/2/3 171/2/3
f 175/3/3 172/3/3 171/3/3
f 176/3/3 172/3/3 175/3/3
f 177/2/3 174/2/3 173/2/3
f 178/2/3 174/2/3 177/2/3
f 179/2/3 176/2/3 175/2/3
f 180/2/3 176/2/3 179/2/3
f 183/2/3 182/2/3 181/2/3
f 184/2/3 182/2/3 183/2/3
f 185/3/3 184/3/3 183/3/3
f 186/3/3 184/3/3 185/3/3
f 187/2/3 186/2/3 185/2/3
f 188/2/3 186/2/3 187/2/3
f 189/3/3 188/3/3 187/3/3
f 190/3/3 188/3/3 189/3/3
f 191/2/3 190/2/3 189/2/3
f 192/2/3 190/2/3 191/2/3
f 193/3/3 192/3/3 191/3/3
f 194/3/3 192/3/3 193/3/3
f 195/2/3 194/2/3 193/2/3
f 196/2/3 194/2/3 195/2/3
f 199/2/3 198/2/3 197/2/3
f 200/2/3 198/2/3 199/2/3
f 203/2/3 202/2/3 201/2/3
f 204/2/3 202/2/3 203/2/3
f 207/2/3 206/2/3 205/2/3
f 208/2/3 206/2/3 207/2/3
f 211/2/3 210/2/3 209/2/3
f 212/2/3 210/2/3 211/2/3
f 213/2/4 214/2/4 215/2/4
f 215/2/4 214/2/4 216/2/4
f 217/2/4 218/2/4 219/2/4
f 219/2/4 218/2/4 220/2/4
f 221/2/4 222/2/4 223/2/4
f 223/2/4 222/2/4 224/2/4
f 225/2/4 226/2/4 227/2/4
f 227/2/4 226/2/4 228/2/4
f 229/2/4 230/2/4 231/2/4
f 231/2/4 230/2/4 232/2/4
f 231/3/4 232/3/4 233/3/4
f 233/3/4 232/3/4 234/3/4
f 233/2/4 234/2/4 235/2/4
f 235/2/4 234/2/4 236/2/4
f 235/3/4 236/3/4 237/3/4
f 237/3/4 236/3/4 238/3/4
f 237/2/4 238/2/4 239/2/4
f 239/2/4 238/2/4 240/2/4
f 239/3/4 240/3/4 241/3/4
f 241/3/4 240/3/4 242/3/4
f 241/2/4 242/2/4 243/2/4
f 243/2/4 242/2/4 244/2/4
f 245/2/4 246/2/4 247/2/4
f 247/2/4 246/2/4 248/2/4
f 247/3/4 248/3/4 249/3/4
f 249/3/4 248/3/4 250/3/4
f 249/2/4 250/2/4 251/2/4
f 251/2/4 250/2/4 252/2/4
f 251/3/4 252/3/4 253/3/4
f 253/3/4 252/3/4 254/3/4
f 253/2/4 254/2/4 255/2/4
f 255/2/4 254/2/4 256/2/4
f 255/3/4 256/3/4 257/3/4
f 257/3/4 256/3/4 258/3/4
f 257/2/4 258/2/4 259/2/4
f 259/2/4 258/2/4 260/2/4
f 261/2/4 262/2/4 263/2/4
f 263/2/4 262/2/4 264/2/4
f 264/2/4 262/2/4 265/2/4
f 265/2/4 262/2/4 266/2/4
f 264/2/4 265/2/4 267/2/4
f 265/3/4 266/3/4 267/3/4
f 267/3/4 266/3/4 268/3/4
f 264/2/4 267/2/4 269/2/4
f 267/2/4 268/2/4 269/2/4
f 269/2/4 268/2/4 270/2/4
f 264/2/4 269/2/4 271/2/4
f 269/3/4 270/3/4 271/3/4
f 271/3/4 270/3/4 272/3/4
f 264/2/4 271/2/4 273/2/4
f 271/2/4 272/2/4 273/2/4
f 273/2/4 272/2/4 274/2/4
f 261/2/4 263/2/4 275/2/4
f 263/3/4 264/3/4 275/3/4
f 264/2/4 273/2/4 276/2/4
f 275/3/4 264/3/4 276/3/4
f 273/3/4 274/3/4 277/3/4
f 276/2/4 273/2/4 277/2/4
f 277/3/4 274/3/4 278/3/4
f 275/2/4 276/2/4 279/2/4
f 261/2/4 275/2/4 279/2/4
f 277/2/4 278/2/4 279/2/4
f 276/2/4 277/2/4 279/2/4
f 279/2/4 278/2/4 280/2/4
f 283/2/5 282/2/5 281/2/5
f 284/2/5 282/2/5 283/2/5
f 287/1/5 286/1/5 285/1/5
f 288/1/5 286/1/5 287/1/5
f 297/2/5 290/2/5 289/2/5
f 298/2/5 290/2/5 297/2/5
f 299/2/5 292/2/5 291/2/5
f 300/2/5 292/2/5 299/2/5
f 301/2/5 294/2/5 293/2/5
f 302/2/5 294/2/5 301/2/5
f 303/2/5 296/2/5 295/2/5
f 304/2/5 296/2/5 303/2/5
f 309/3/5 306/3/5 305/3/5
f 310/3/5 306/3/5 309/3/5
f 311/3/5 308/3/5 307/3/5
f 312/3/5 308/3/5 311/3/5
f 317/3/5 314/3/5 313/3/5
f 318/3/5 314/3/5 317/3/5
f 319/3/5 316/3/5 315/3/5
f 320/3/5 316/3/5 319/3/5
f 321/2/6 322/2/6 329/2/6
f 329/2/6 322/2/6 330/2/6
f 323/2/6 324/2/6 331/2/6
f 331/2/6 324/2/6 332/2/6
f 325/2/6 326/2/6 333/2/6
f 333/2/6 326/2/6 334/2/6
f 327/2/6 328/2/6 335/2/6
f 335/2/6 328/2/6 336/2/6
f 337/2/6 338/2/6 341/2/6
f 341/2/6 338/2/6 342/2/6
f 339/2/6 340/2/6 343/2/6
f 343/2/6 340/2/6 344/2/6
f 345/2/6 346/2/6 349/2/6
f 349/2/6 346/2/6 350/2/6
f 347/2/6 348/2/6 351/2/6
f 351/2/6 348/2/6 352/2/6
f 353/1/6 354/1/6 355/1/6
f 355/1/6 354/1/6 356/1/6
f 357/2/6 358/2/6 365/2/6
f 358/3/6 359/3/6 366/3/6
f 365/2/6 358/2/6 366/2/6
f 359/2/6 360/2/6 367/2/6
f 366/3/6 359/3/6 367/3/6
f 360/3/6 361/3/6 368/3/6
f 367/2/6 360/2/6 368/2/6
f 361/2/6 362/2/6 369/2/6
f 368/3/6 361/3/6 369/3/6
f 362/3/6 363/3/6 370/3/6
f 369/2/6 362/2/6 370/2/6
f 363/2/6 364/2/6 371/2/6
f 370/3/6 363/3/6 371/3/6
f 371/2/6 364/2/6 372/2/6
f 373/2/6 374/2/6 381/2/6
f 374/3/6 375/3/6 382/3/6
f 381/2/6 374/2/6 382/2/6
f 375/2/6 376/2/6 383/2/6
f 382/3/6 375/3/6 383/3/6
f 376/3/6 377/3/6 384/3/6
f 383/2/6 376/2/6 384/2/6
f 377/2/6 378/2/6 385/2/6
f 384/3/6 377/3/6 385/3/6
f 378/3/6 379/3/6 386/3/6
f 385/2/6 378/2/6 386/2/6
f 379/2/6 380/2/6 387/2/6
f 386/3/6 379/3/6 387/3/6
f 387/2/6 380/2/6 388/2/6
f 389/2/6 390/2/6 397/2/6
f 390/3/6 391/3/6 398/3/6
f 397/2/6 390/2/6 398/2/6
f 391/2/6 392/2/6 399/2/6
f 398/3/6 391/3/6 399/3/6
f 392/3/6 393/3/6 400/3/6
f 399/2/6 392/2/6 400/2/6
f 393/2/6 394/2/6 401/2/6
f 400/3/6 393/3/6 401/3/6
f 394/3/6 395/3/6 402/3/6
f 401/2/6 394/2/6 402/2/6
f 395/2/6 396/2/6 403/2/6
f 402/3/6 395/3/6 403/3/6
f 403/2/6 396/2/6 404/2/6
f 405/2/6 406/2/6 413/2/6
f 406/3/6 407/3/6 414/3/6
f 413/2/6 406/2/6 414/2/6
f 407/2/6 408/2/6 415/2/6
f 414/3/6 407/3/6 415/3/6
f 408/3/6 409/3/6 416/3/6
f 415/2/6 408/2/6 416/2/6
f 409/2/6 410/2/6 417/2/6
f 416/3/6 409/3/6 417/3/6
f 410/3/6 411/3/6 418/3/6
f 417/2/6 410/2/6 418/2/6
f 411/2/6 412/2/6 419/2/6
f 418/3/6 411/3/6 419/3/6
f 419/2/6 412/2/6 420/2/6
f 421/2/6 422/2/6 429/2/6
f 422/3/6 423/3/6 430/3/6
f 429/2/6 422/2/6 430/2/6
f 423/2/6 424/2/6 431/2/6
f 430/3/6 423/3/6 431/3/6
f 424/3/6 425/3/6 432/3/6
f 431/2/6 424/2/6 432/2/6
f 425/2/6 426/2/6 433/2/6
f 432/3/6 425/3/6 433/3/6
f 426/3/6 427/3/6 434/3/6
f 433/2/6 426/2/6 434/2/6
f 427/2/6 428/2/6 435/2/6
f 434/3/6 427/3/6 435/3/6
f 435/2/6 428/2/6 436/2/6
