# MagicaVoxel @ Ephtracy

# group
o 

# material
mtllib bridge_a_start.mtl
usemtl palette

# normals
vn -1 0 0
vn 1 0 0
vn 0 0 1
vn 0 0 -1
vn 0 -1 0
vn 0 1 0

# texcoords
vt 0.783203 0.5
vt 0.939453 0.5

# verts
v -0.7 0 0.2
v -0.7 0 0
v -0.7 0.1 0
v -0.7 0.1 -0.2
v -0.7 0.1 -0.3
v -0.7 0.2 0
v -0.7 0.2 -0.2
v -0.7 0.2 -0.3
v -0.7 0.7 0.2
v -0.7 0.7 0
v -0.6 0.2 -0.2
v -0.6 0.2 -0.3
v -0.6 0.5 0
v -0.6 0.5 -0.2
v -0.6 0.6 0
v -0.6 0.6 -0.3
v 0.6 0 0.2
v 0.6 0 0
v 0.6 0.1 0
v 0.6 0.2 0
v 0.6 0.2 -0.2
v 0.6 0.2 -0.3
v 0.6 0.5 0
v 0.6 0.5 -0.2
v 0.6 0.6 0
v 0.6 0.6 -0.3
v 0.6 0.7 0.2
v 0.6 0.7 0
v -0.5 0 0.2
v -0.5 0 0
v -0.5 0.1 0
v -0.5 0.2 0
v -0.5 0.2 -0.2
v -0.5 0.2 -0.3
v -0.5 0.5 0
v -0.5 0.5 -0.2
v -0.5 0.6 0
v -0.5 0.6 -0.3
v -0.5 0.7 0.2
v -0.5 0.7 0
v 0.7 0.2 -0.2
v 0.7 0.2 -0.3
v 0.7 0.5 0
v 0.7 0.5 -0.2
v 0.7 0.6 0
v 0.7 0.6 -0.3
v 0.8 0 0.2
v 0.8 0 0
v 0.8 0.1 0
v 0.8 0.1 -0.2
v 0.8 0.1 -0.3
v 0.8 0.2 0
v 0.8 0.2 -0.2
v 0.8 0.2 -0.3
v 0.8 0.7 0.2
v 0.8 0.7 0
v -0.7 0 0.2
v -0.7 0.7 0.2
v -0.5 0 0.2
v -0.5 0.7 0.2
v 0.6 0 0.2
v 0.6 0.7 0.2
v 0.8 0 0.2
v 0.8 0.7 0.2
v -0.5 0.1 0
v -0.5 0.2 0
v 0.6 0.1 0
v 0.6 0.2 0
v -0.6 0.2 -0.2
v -0.6 0.5 -0.2
v -0.5 0.2 -0.2
v -0.5 0.5 -0.2
v 0.6 0.2 -0.2
v 0.6 0.5 -0.2
v 0.7 0.2 -0.2
v 0.7 0.5 -0.2
v -0.7 0 0
v -0.7 0.1 0
v -0.7 0.2 0
v -0.7 0.7 0
v -0.6 0.5 0
v -0.6 0.6 0
v -0.5 0 0
v -0.5 0.1 0
v -0.5 0.2 0
v -0.5 0.5 0
v -0.5 0.6 0
v -0.5 0.7 0
v 0.6 0 0
v 0.6 0.1 0
v 0.6 0.2 0
v 0.6 0.5 0
v 0.6 0.6 0
v 0.6 0.7 0
v 0.7 0.5 0
v 0.7 0.6 0
v 0.8 0 0
v 0.8 0.1 0
v 0.8 0.2 0
v 0.8 0.7 0
v -0.7 0.1 -0.3
v -0.7 0.2 -0.3
v -0.6 0.2 -0.3
v -0.6 0.6 -0.3
v -0.5 0.2 -0.3
v -0.5 0.6 -0.3
v 0.6 0.2 -0.3
v 0.6 0.6 -0.3
v 0.7 0.2 -0.3
v 0.7 0.6 -0.3
v 0.8 0.1 -0.3
v 0.8 0.2 -0.3
v -0.7 0 0.2
v -0.5 0 0.2
v 0.6 0 0.2
v 0.8 0 0.2
v -0.7 0 0
v -0.5 0 0
v 0.6 0 0
v 0.8 0 0
v -0.7 0.1 0
v -0.5 0.1 0
v 0.6 0.1 0
v 0.8 0.1 0
v -0.7 0.1 -0.2
v 0.8 0.1 -0.2
v -0.7 0.1 -0.3
v 0.8 0.1 -0.3
v -0.6 0.5 0
v -0.5 0.5 0
v 0.6 0.5 0
v 0.7 0.5 0
v -0.6 0.5 -0.2
v -0.5 0.5 -0.2
v 0.6 0.5 -0.2
v 0.7 0.5 -0.2
v -0.7 0.2 0
v -0.5 0.2 0
v 0.6 0.2 0
v 0.8 0.2 0
v -0.7 0.2 -0.2
v -0.6 0.2 -0.2
v -0.5 0.2 -0.2
v 0.6 0.2 -0.2
v 0.7 0.2 -0.2
v 0.8 0.2 -0.2
v -0.7 0.2 -0.3
v -0.6 0.2 -0.3
v -0.5 0.2 -0.3
v 0.6 0.2 -0.3
v 0.7 0.2 -0.3
v 0.8 0.2 -0.3
v -0.6 0.6 0
v -0.5 0.6 0
v 0.6 0.6 0
v 0.7 0.6 0
v -0.6 0.6 -0.3
v -0.5 0.6 -0.3
v 0.6 0.6 -0.3
v 0.7 0.6 -0.3
v -0.7 0.7 0.2
v -0.5 0.7 0.2
v 0.6 0.7 0.2
v 0.8 0.7 0.2
v -0.7 0.7 0
v -0.5 0.7 0
v 0.6 0.7 0
v 0.8 0.7 0

# faces
f 3/2/1 2/2/1 1/2/1
f 6/2/1 3/2/1 1/2/1
f 6/2/1 4/2/1 3/2/1
f 7/1/1 5/1/1 4/1/1
f 7/2/1 4/2/1 6/2/1
f 8/1/1 5/1/1 7/1/1
f 9/2/1 6/2/1 1/2/1
f 10/2/1 6/2/1 9/2/1
f 14/1/1 12/1/1 11/1/1
f 15/1/1 14/1/1 13/1/1
f 16/1/1 12/1/1 14/1/1
f 16/1/1 14/1/1 15/1/1
f 19/2/1 18/2/1 17/2/1
f 20/2/1 19/2/1 17/2/1
f 23/2/1 20/2/1 17/2/1
f 24/1/1 22/1/1 21/1/1
f 25/2/1 23/2/1 17/2/1
f 25/1/1 24/1/1 23/1/1
f 26/1/1 22/1/1 24/1/1
f 26/1/1 24/1/1 25/1/1
f 27/2/1 25/2/1 17/2/1
f 28/2/1 25/2/1 27/2/1
f 29/2/2 30/2/2 31/2/2
f 29/2/2 31/2/2 32/2/2
f 29/2/2 32/2/2 35/2/2
f 33/1/2 34/1/2 36/1/2
f 29/2/2 35/2/2 37/2/2
f 35/1/2 36/1/2 37/1/2
f 36/1/2 34/1/2 38/1/2
f 37/1/2 36/1/2 38/1/2
f 29/2/2 37/2/2 39/2/2
f 39/2/2 37/2/2 40/2/2
f 41/1/2 42/1/2 44/1/2
f 43/1/2 44/1/2 45/1/2
f 44/1/2 42/1/2 46/1/2
f 45/1/2 44/1/2 46/1/2
f 47/2/2 48/2/2 49/2/2
f 47/2/2 49/2/2 52/2/2
f 49/2/2 50/2/2 52/2/2
f 50/1/2 51/1/2 53/1/2
f 52/2/2 50/2/2 53/2/2
f 53/1/2 51/1/2 54/1/2
f 47/2/2 52/2/2 55/2/2
f 55/2/2 52/2/2 56/2/2
f 59/2/3 58/2/3 57/2/3
f 60/2/3 58/2/3 59/2/3
f 63/2/3 62/2/3 61/2/3
f 64/2/3 62/2/3 63/2/3
f 67/2/3 66/2/3 65/2/3
f 68/2/3 66/2/3 67/2/3
f 71/1/3 70/1/3 69/1/3
f 72/1/3 70/1/3 71/1/3
f 75/1/3 74/1/3 73/1/3
f 76/1/3 74/1/3 75/1/3
f 79/2/4 80/2/4 81/2/4
f 81/2/4 80/2/4 82/2/4
f 77/2/4 78/2/4 83/2/4
f 83/2/4 78/2/4 84/2/4
f 79/2/4 81/2/4 85/2/4
f 85/2/4 81/2/4 86/2/4
f 82/2/4 80/2/4 87/2/4
f 87/2/4 80/2/4 88/2/4
f 91/2/4 92/2/4 95/2/4
f 93/2/4 94/2/4 96/2/4
f 89/2/4 90/2/4 97/2/4
f 97/2/4 90/2/4 98/2/4
f 95/2/4 96/2/4 99/2/4
f 91/2/4 95/2/4 99/2/4
f 96/2/4 94/2/4 100/2/4
f 99/2/4 96/2/4 100/2/4
f 101/1/4 102/1/4 103/1/4
f 101/1/4 103/1/4 105/1/4
f 103/1/4 104/1/4 105/1/4
f 105/1/4 104/1/4 106/1/4
f 101/1/4 105/1/4 107/1/4
f 101/1/4 107/1/4 109/1/4
f 107/1/4 108/1/4 109/1/4
f 109/1/4 108/1/4 110/1/4
f 101/1/4 109/1/4 111/1/4
f 111/1/4 109/1/4 112/1/4
f 117/2/5 114/2/5 113/2/5
f 118/2/5 114/2/5 117/2/5
f 119/2/5 116/2/5 115/2/5
f 120/2/5 116/2/5 119/2/5
f 125/2/5 122/2/5 121/2/5
f 125/2/5 124/2/5 123/2/5
f 125/2/5 123/2/5 122/2/5
f 126/2/5 124/2/5 125/2/5
f 127/1/5 126/1/5 125/1/5
f 128/1/5 126/1/5 127/1/5
f 133/1/5 130/1/5 129/1/5
f 134/1/5 130/1/5 133/1/5
f 135/1/5 132/1/5 131/1/5
f 136/1/5 132/1/5 135/1/5
f 137/2/6 138/2/6 141/2/6
f 139/2/6 140/2/6 141/2/6
f 138/2/6 139/2/6 141/2/6
f 141/2/6 140/2/6 142/2/6
f 142/2/6 140/2/6 143/2/6
f 143/2/6 140/2/6 144/2/6
f 144/2/6 140/2/6 145/2/6
f 145/2/6 140/2/6 146/2/6
f 141/1/6 142/1/6 147/1/6
f 147/1/6 142/1/6 148/1/6
f 143/1/6 144/1/6 149/1/6
f 149/1/6 144/1/6 150/1/6
f 145/1/6 146/1/6 151/1/6
f 151/1/6 146/1/6 152/1/6
f 153/1/6 154/1/6 157/1/6
f 157/1/6 154/1/6 158/1/6
f 155/1/6 156/1/6 159/1/6
f 159/1/6 156/1/6 160/1/6
f 161/2/6 162/2/6 165/2/6
f 165/2/6 162/2/6 166/2/6
f 163/2/6 164/2/6 167/2/6
f 167/2/6 164/2/6 168/2/6
