# MagicaVoxel @ Ephtracy

# group
o 

# material
mtllib gargoyle_walk_2.mtl
usemtl palette

# normals
vn -1 0 0
vn 1 0 0
vn 0 0 1
vn 0 0 -1
vn 0 -1 0
vn 0 1 0

# texcoords
vt 0.787109 0.5
vt 0.791016 0.5
vt 0.943359 0.5

# verts
v -0.5 0.7 -0.1
v -0.5 0.7 -0.2
v -0.5 0.8 -0.1
v -0.5 0.8 -0.2
v -0.4 0.6 -0.1
v -0.4 0.6 -0.2
v -0.4 0.7 -0.1
v -0.4 0.7 -0.2
v -0.3 0.2 0.1
v -0.3 0.2 -0.1
v -0.3 0.4 0.1
v -0.3 0.4 -0.1
v -0.3 0.5 -0.1
v -0.3 0.5 -0.2
v -0.3 0.6 -0.1
v -0.3 0.6 -0.2
v -0.2 0 0.1
v -0.2 0 -2.98023e-08
v -0.2 0.2 0.1
v -0.2 0.2 -2.98023e-08
v -0.2 0.4 0.1
v -0.2 0.4 -0.1
v -0.2 0.4 -0.2
v -0.2 0.5 0.1
v -0.2 0.5 -0.1
v -0.2 0.5 -0.2
v -0.2 0.6 0.1
v -0.2 0.6 -2.98023e-08
v -0.2 0.8 0.1
v -0.2 0.8 -2.98023e-08
v -0.1 0 -2.98023e-08
v -0.1 0 -0.2
v -0.1 0.1 -2.98023e-08
v -0.1 0.1 -0.1
v -0.1 0.1 -0.2
v -0.1 0.1 -0.3
v -0.1 0.2 -0.1
v -0.1 0.3 -0.1
v -0.1 0.3 -0.2
v -0.1 0.3 -0.3
v -0.1 0.4 0.2
v -0.1 0.4 0.1
v -0.1 0.4 -0.1
v -0.1 0.4 -0.2
v -0.1 0.5 0.1
v -0.1 0.5 -2.98023e-08
v -0.1 0.6 0.1
v -0.1 0.6 -2.98023e-08
v -0.1 0.7 0.2
v -0.1 0.7 0.1
v 5.96046e-08 0.2 -0.3
v 5.96046e-08 0.2 -0.4
v 5.96046e-08 0.3 -0.3
v 5.96046e-08 0.4 -0.3
v 5.96046e-08 0.4 -0.4
v 0.1 0 -0.3
v 0.1 0 -0.4
v 0.1 0.1 -0.3
v 0.1 0.2 -0.3
v 0.1 0.2 -0.4
v 0.1 0.3 -0.1
v 0.1 0.3 -0.2
v 0.1 0.4 -0.3
v 0.1 0.4 -0.4
v 0.1 0.5 -0.1
v 0.1 0.5 -0.3
v 0.1 0.5 -0.4
v 0.1 0.8 -0.1
v 0.1 0.8 -0.2
v 0.2 0 0.3
v 0.2 0 0.2
v 0.2 0.2 0.2
v 0.2 0.2 0.1
v 0.2 0.4 0.3
v 0.2 0.4 0.2
v 0.2 0.4 0.1
v 0.2 0.7 0.1
v 0.2 0.7 -2.98023e-08
v 0.2 0.8 0.1
v 0.2 0.8 -2.98023e-08
v -0.1 0 0.1
v -0.1 0 -2.98023e-08
v -0.1 0.1 -2.98023e-08
v -0.1 0.2 0.1
v -0.1 0.2 -2.98023e-08
v -0.1 0.7 0.1
v -0.1 0.7 -2.98023e-08
v -0.1 0.8 0.1
v -0.1 0.8 -2.98023e-08
v 5.96046e-08 0 -2.98023e-08
v 5.96046e-08 0 -0.2
v 5.96046e-08 0.1 -2.98023e-08
v 5.96046e-08 0.1 -0.1
v 5.96046e-08 0.1 -0.2
v 5.96046e-08 0.3 -0.1
v 5.96046e-08 0.3 -0.2
v 5.96046e-08 0.5 -0.1
v 5.96046e-08 0.8 -0.1
v 5.96046e-08 0.8 -0.2
v 0.1 0.1 -0.1
v 0.1 0.1 -0.2
v 0.1 0.2 -0.1
v 0.1 0.2 -0.2
v 0.1 0.2 -0.3
v 0.1 0.2 -0.4
v 0.1 0.3 -0.3
v 0.1 0.3 -0.4
v 0.2 0 -0.3
v 0.2 0 -0.4
v 0.2 0.1 -0.2
v 0.2 0.1 -0.3
v 0.2 0.2 0.1
v 0.2 0.2 -0.2
v 0.2 0.2 -0.3
v 0.2 0.2 -0.4
v 0.2 0.3 0.1
v 0.2 0.3 -0.1
v 0.2 0.3 -0.2
v 0.2 0.3 -0.3
v 0.2 0.3 -0.4
v 0.2 0.4 0.2
v 0.2 0.4 0.1
v 0.2 0.4 -0.1
v 0.2 0.4 -0.2
v 0.2 0.5 0.1
v 0.2 0.5 -2.98023e-08
v 0.2 0.5 -0.3
v 0.2 0.5 -0.4
v 0.2 0.6 0.1
v 0.2 0.6 -2.98023e-08
v 0.2 0.7 0.2
v 0.2 0.7 0.1
v 0.3 0 0.3
v 0.3 0 0.2
v 0.3 0.2 0.3
v 0.3 0.2 0.2
v 0.3 0.3 0.1
v 0.3 0.3 -0.1
v 0.3 0.4 0.1
v 0.3 0.4 -0.1
v 0.3 0.4 -0.2
v 0.3 0.5 0.1
v 0.3 0.5 -0.1
v 0.3 0.5 -0.2
v 0.3 0.6 0.1
v 0.3 0.6 -2.98023e-08
v 0.3 0.8 0.1
v 0.3 0.8 -2.98023e-08
v 0.4 0.2 0.3
v 0.4 0.2 0.1
v 0.4 0.4 0.3
v 0.4 0.4 0.1
v 0.4 0.5 -0.1
v 0.4 0.5 -0.2
v 0.4 0.6 -0.1
v 0.4 0.6 -0.2
v 0.5 0.6 -0.1
v 0.5 0.6 -0.2
v 0.5 0.7 -0.1
v 0.5 0.7 -0.2
v 0.6 0.7 -0.1
v 0.6 0.7 -0.2
v 0.6 0.8 -0.1
v 0.6 0.8 -0.2
v 0.2 0 0.3
v 0.2 0.4 0.3
v 0.3 0 0.3
v 0.3 0.2 0.3
v 0.4 0.2 0.3
v 0.4 0.4 0.3
v -0.1 0.4 0.2
v -0.1 0.7 0.2
v 0.2 0.4 0.2
v 0.2 0.7 0.2
v -0.3 0.2 0.1
v -0.3 0.4 0.1
v -0.2 0 0.1
v -0.2 0.2 0.1
v -0.2 0.4 0.1
v -0.2 0.5 0.1
v -0.2 0.6 0.1
v -0.2 0.8 0.1
v -0.1 0 0.1
v -0.1 0.2 0.1
v -0.1 0.4 0.1
v -0.1 0.5 0.1
v -0.1 0.6 0.1
v -0.1 0.7 0.1
v -0.1 0.8 0.1
v 0.2 0.2 0.1
v 0.2 0.4 0.1
v 0.2 0.5 0.1
v 0.2 0.6 0.1
v 0.2 0.7 0.1
v 0.2 0.8 0.1
v 0.3 0.4 0.1
v 0.3 0.5 0.1
v 0.3 0.6 0.1
v 0.3 0.8 0.1
v -0.1 0 -2.98023e-08
v -0.1 0.1 -2.98023e-08
v 5.96046e-08 0 -2.98023e-08
v 5.96046e-08 0.1 -2.98023e-08
v -0.5 0.7 -0.1
v -0.5 0.8 -0.1
v -0.4 0.6 -0.1
v -0.4 0.7 -0.1
v -0.3 0.5 -0.1
v -0.3 0.6 -0.1
v -0.2 0.5 -0.1
v -0.1 0.1 -0.1
v -0.1 0.2 -0.1
v -0.1 0.5 -0.1
v -0.1 0.7 -0.1
v 5.96046e-08 0.1 -0.1
v 5.96046e-08 0.5 -0.1
v 5.96046e-08 0.8 -0.1
v 0.1 0.1 -0.1
v 0.1 0.2 -0.1
v 0.1 0.5 -0.1
v 0.1 0.8 -0.1
v 0.2 0.5 -0.1
v 0.2 0.7 -0.1
v 0.3 0.5 -0.1
v 0.4 0.5 -0.1
v 0.4 0.6 -0.1
v 0.5 0.6 -0.1
v 0.5 0.7 -0.1
v 0.6 0.7 -0.1
v 0.6 0.8 -0.1
v 0.1 0.1 -0.2
v 0.1 0.2 -0.2
v 0.2 0.1 -0.2
v 0.2 0.2 -0.2
v 5.96046e-08 0.3 -0.3
v 5.96046e-08 0.4 -0.3
v 0.1 0 -0.3
v 0.1 0.1 -0.3
v 0.1 0.4 -0.3
v 0.1 0.5 -0.3
v 0.2 0 -0.3
v 0.2 0.1 -0.3
v 0.2 0.3 -0.3
v 0.2 0.5 -0.3
v 0.2 0 0.2
v 0.2 0.2 0.2
v 0.3 0 0.2
v 0.3 0.2 0.2
v 0.2 0.2 0.1
v 0.2 0.3 0.1
v 0.3 0.3 0.1
v 0.3 0.4 0.1
v 0.4 0.2 0.1
v 0.4 0.4 0.1
v -0.2 0 -2.98023e-08
v -0.2 0.2 -2.98023e-08
v -0.2 0.6 -2.98023e-08
v -0.2 0.8 -2.98023e-08
v -0.1 0 -2.98023e-08
v -0.1 0.1 -2.98023e-08
v -0.1 0.2 -2.98023e-08
v -0.1 0.5 -2.98023e-08
v -0.1 0.6 -2.98023e-08
v -0.1 0.7 -2.98023e-08
v -0.1 0.8 -2.98023e-08
v 0.2 0.5 -2.98023e-08
v 0.2 0.6 -2.98023e-08
v 0.2 0.7 -2.98023e-08
v 0.2 0.8 -2.98023e-08
v 0.3 0.6 -2.98023e-08
v 0.3 0.8 -2.98023e-08
v -0.3 0.2 -0.1
v -0.3 0.4 -0.1
v -0.2 0.4 -0.1
v -0.1 0.2 -0.1
v -0.1 0.3 -0.1
v -0.1 0.4 -0.1
v 5.96046e-08 0.3 -0.1
v 5.96046e-08 0.5 -0.1
v 0.1 0.3 -0.1
v 0.1 0.5 -0.1
v 0.2 0.3 -0.1
v 0.2 0.4 -0.1
v 0.3 0.3 -0.1
v 0.3 0.4 -0.1
v -0.5 0.7 -0.2
v -0.5 0.8 -0.2
v -0.4 0.6 -0.2
v -0.4 0.7 -0.2
v -0.3 0.5 -0.2
v -0.3 0.6 -0.2
v -0.2 0.4 -0.2
v -0.2 0.5 -0.2
v -0.1 0 -0.2
v -0.1 0.1 -0.2
v -0.1 0.3 -0.2
v -0.1 0.4 -0.2
v -0.1 0.7 -0.2
v 5.96046e-08 0 -0.2
v 5.96046e-08 0.1 -0.2
v 5.96046e-08 0.3 -0.2
v 5.96046e-08 0.8 -0.2
v 0.1 0.3 -0.2
v 0.1 0.8 -0.2
v 0.2 0.3 -0.2
v 0.2 0.4 -0.2
v 0.2 0.7 -0.2
v 0.3 0.4 -0.2
v 0.3 0.5 -0.2
v 0.4 0.5 -0.2
v 0.4 0.6 -0.2
v 0.5 0.6 -0.2
v 0.5 0.7 -0.2
v 0.6 0.7 -0.2
v 0.6 0.8 -0.2
v -0.1 0.1 -0.3
v -0.1 0.3 -0.3
v 5.96046e-08 0.2 -0.3
v 5.96046e-08 0.3 -0.3
v 0.1 0.1 -0.3
v 0.1 0.2 -0.3
v 0.1 0.3 -0.3
v 0.2 0.2 -0.3
v 0.2 0.3 -0.3
v 5.96046e-08 0.2 -0.4
v 5.96046e-08 0.4 -0.4
v 0.1 0 -0.4
v 0.1 0.2 -0.4
v 0.1 0.3 -0.4
v 0.1 0.4 -0.4
v 0.1 0.5 -0.4
v 0.2 0 -0.4
v 0.2 0.2 -0.4
v 0.2 0.3 -0.4
v 0.2 0.5 -0.4
v 0.2 0 0.3
v 0.3 0 0.3
v 0.2 0 0.2
v 0.3 0 0.2
v -0.2 0 0.1
v -0.1 0 0.1
v -0.2 0 -2.98023e-08
v -0.1 0 -2.98023e-08
v 5.96046e-08 0 -2.98023e-08
v -0.1 0 -0.2
v 5.96046e-08 0 -0.2
v 0.1 0 -0.3
v 0.2 0 -0.3
v 0.1 0 -0.4
v 0.2 0 -0.4
v 5.96046e-08 0.1 -0.1
v 0.1 0.1 -0.1
v -0.1 0.1 -0.2
v 5.96046e-08 0.1 -0.2
v 0.1 0.1 -0.2
v 0.2 0.1 -0.2
v -0.1 0.1 -0.3
v 0.1 0.1 -0.3
v 0.2 0.1 -0.3
v 0.3 0.2 0.3
v 0.4 0.2 0.3
v 0.2 0.2 0.2
v 0.3 0.2 0.2
v -0.3 0.2 0.1
v -0.2 0.2 0.1
v -0.1 0.2 0.1
v 0.2 0.2 0.1
v 0.4 0.2 0.1
v -0.2 0.2 -2.98023e-08
v -0.1 0.2 -2.98023e-08
v -0.3 0.2 -0.1
v -0.1 0.2 -0.1
v 0.1 0.2 -0.1
v 0.1 0.2 -0.2
v 0.2 0.2 -0.2
v 5.96046e-08 0.2 -0.3
v 0.1 0.2 -0.3
v 5.96046e-08 0.2 -0.4
v 0.1 0.2 -0.4
v 0.2 0.3 0.1
v 0.3 0.3 0.1
v 0.2 0.3 -0.1
v 0.3 0.3 -0.1
v 0.1 0.3 -0.3
v 0.2 0.3 -0.3
v 0.1 0.3 -0.4
v 0.2 0.3 -0.4
v -0.1 0.4 0.2
v 0.2 0.4 0.2
v -0.1 0.4 0.1
v 0.2 0.4 0.1
v -0.2 0.4 -0.1
v -0.1 0.4 -0.1
v 0.2 0.4 -0.1
v 0.3 0.4 -0.1
v -0.2 0.4 -0.2
v -0.1 0.4 -0.2
v 0.2 0.4 -0.2
v 0.3 0.4 -0.2
v -0.3 0.5 -0.1
v -0.2 0.5 -0.1
v 0.3 0.5 -0.1
v 0.4 0.5 -0.1
v -0.3 0.5 -0.2
v -0.2 0.5 -0.2
v 0.3 0.5 -0.2
v 0.4 0.5 -0.2
v -0.2 0.6 0.1
v -0.1 0.6 0.1
v 0.2 0.6 0.1
v 0.3 0.6 0.1
v -0.2 0.6 -2.98023e-08
v -0.1 0.6 -2.98023e-08
v 0.2 0.6 -2.98023e-08
v 0.3 0.6 -2.98023e-08
v -0.4 0.6 -0.1
v -0.3 0.6 -0.1
v 0.4 0.6 -0.1
v 0.5 0.6 -0.1
v -0.4 0.6 -0.2
v -0.3 0.6 -0.2
v 0.4 0.6 -0.2
v 0.5 0.6 -0.2
v -0.5 0.7 -0.1
v -0.4 0.7 -0.1
v 0.5 0.7 -0.1
v 0.6 0.7 -0.1
v -0.5 0.7 -0.2
v -0.4 0.7 -0.2
v 0.5 0.7 -0.2
v 0.6 0.7 -0.2
v -0.1 0.1 -2.98023e-08
v 5.96046e-08 0.1 -2.98023e-08
v -0.1 0.1 -0.1
v 5.96046e-08 0.1 -0.1
v 0.1 0.2 -0.3
v 0.2 0.2 -0.3
v 0.1 0.2 -0.4
v 0.2 0.2 -0.4
v 5.96046e-08 0.3 -0.1
v 0.1 0.3 -0.1
v -0.1 0.3 -0.2
v 5.96046e-08 0.3 -0.2
v 0.1 0.3 -0.2
v 0.2 0.3 -0.2
v -0.1 0.3 -0.3
v 5.96046e-08 0.3 -0.3
v 0.2 0.3 -0.3
v 0.2 0.4 0.3
v 0.4 0.4 0.3
v 0.2 0.4 0.2
v -0.3 0.4 0.1
v -0.2 0.4 0.1
v 0.2 0.4 0.1
v 0.3 0.4 0.1
v 0.4 0.4 0.1
v -0.3 0.4 -0.1
v -0.2 0.4 -0.1
v 5.96046e-08 0.4 -0.3
v 0.1 0.4 -0.3
v 5.96046e-08 0.4 -0.4
v 0.1 0.4 -0.4
v -0.2 0.5 0.1
v -0.1 0.5 0.1
v 0.2 0.5 0.1
v 0.3 0.5 0.1
v -0.1 0.5 -2.98023e-08
v 0.2 0.5 -2.98023e-08
v -0.2 0.5 -0.1
v -0.1 0.5 -0.1
v 5.96046e-08 0.5 -0.1
v 0.1 0.5 -0.1
v 0.2 0.5 -0.1
v 0.3 0.5 -0.1
v 0.1 0.5 -0.3
v 0.2 0.5 -0.3
v 0.1 0.5 -0.4
v 0.2 0.5 -0.4
v -0.1 0.7 0.2
v 0.2 0.7 0.2
v -0.1 0.7 0.1
v 0.2 0.7 0.1
v -0.1 0.7 -2.98023e-08
v 0.2 0.7 -2.98023e-08
v -0.2 0.8 0.1
v -0.1 0.8 0.1
v 0.2 0.8 0.1
v 0.3 0.8 0.1
v -0.2 0.8 -2.98023e-08
v -0.1 0.8 -2.98023e-08
v 0.2 0.8 -2.98023e-08
v 0.3 0.8 -2.98023e-08
v -0.5 0.8 -0.1
v 5.96046e-08 0.8 -0.1
v 0.1 0.8 -0.1
v 0.6 0.8 -0.1
v -0.5 0.8 -0.2
v 5.96046e-08 0.8 -0.2
v 0.1 0.8 -0.2
v 0.6 0.8 -0.2

# faces
f 3/1/1 2/1/1 1/1/1
f 4/1/1 2/1/1 3/1/1
f 7/2/1 6/2/1 5/2/1
f 8/2/1 6/2/1 7/2/1
f 11/3/1 10/3/1 9/3/1
f 12/3/1 10/3/1 11/3/1
f 15/2/1 14/2/1 13/2/1
f 16/2/1 14/2/1 15/2/1
f 19/3/1 18/3/1 17/3/1
f 20/3/1 18/3/1 19/3/1
f 24/3/1 22/3/1 21/3/1
f 25/2/1 23/2/1 22/2/1
f 25/3/1 22/3/1 24/3/1
f 26/2/1 23/2/1 25/2/1
f 29/1/1 28/1/1 27/1/1
f 30/1/1 28/1/1 29/1/1
f 33/3/1 32/3/1 31/3/1
f 34/3/1 32/3/1 33/3/1
f 35/3/1 32/3/1 34/3/1
f 37/3/1 36/3/1 35/3/1
f 37/3/1 35/3/1 34/3/1
f 38/3/1 36/3/1 37/3/1
f 39/3/1 36/3/1 38/3/1
f 40/3/1 36/3/1 39/3/1
f 43/1/1 39/1/1 38/1/1
f 44/1/1 39/1/1 43/1/1
f 45/3/1 42/3/1 41/3/1
f 47/3/1 45/3/1 41/3/1
f 47/3/1 46/3/1 45/3/1
f 48/3/1 46/3/1 47/3/1
f 49/3/1 47/3/1 41/3/1
f 50/3/1 47/3/1 49/3/1
f 53/3/1 52/3/1 51/3/1
f 54/3/1 52/3/1 53/3/1
f 55/3/1 52/3/1 54/3/1
f 58/3/1 57/3/1 56/3/1
f 59/3/1 57/3/1 58/3/1
f 60/3/1 57/3/1 59/3/1
f 65/1/1 62/1/1 61/1/1
f 66/3/1 64/3/1 63/3/1
f 67/3/1 64/3/1 66/3/1
f 68/1/1 62/1/1 65/1/1
f 69/1/1 62/1/1 68/1/1
f 72/3/1 71/3/1 70/3/1
f 74/3/1 72/3/1 70/3/1
f 74/3/1 73/3/1 72/3/1
f 75/3/1 73/3/1 74/3/1
f 76/3/1 73/3/1 75/3/1
f 79/1/1 78/1/1 77/1/1
f 80/1/1 78/1/1 79/1/1
f 81/3/2 82/3/2 83/3/2
f 81/3/2 83/3/2 84/3/2
f 84/3/2 83/3/2 85/3/2
f 86/1/2 87/1/2 88/1/2
f 88/1/2 87/1/2 89/1/2
f 90/3/2 91/3/2 92/3/2
f 92/3/2 91/3/2 93/3/2
f 93/3/2 91/3/2 94/3/2
f 95/1/2 96/1/2 97/1/2
f 97/1/2 96/1/2 98/1/2
f 98/1/2 96/1/2 99/1/2
f 100/3/2 101/3/2 102/3/2
f 102/3/2 101/3/2 103/3/2
f 104/3/2 105/3/2 106/3/2
f 106/3/2 105/3/2 107/3/2
f 108/3/2 109/3/2 111/3/2
f 110/3/2 111/3/2 113/3/2
f 111/3/2 109/3/2 114/3/2
f 113/3/2 111/3/2 114/3/2
f 114/3/2 109/3/2 115/3/2
f 112/3/2 113/3/2 116/3/2
f 113/3/2 114/3/2 116/3/2
f 116/3/2 114/3/2 117/3/2
f 117/3/2 114/3/2 118/3/2
f 118/3/2 114/3/2 119/3/2
f 117/1/2 118/1/2 123/1/2
f 123/1/2 118/1/2 124/1/2
f 121/3/2 122/3/2 125/3/2
f 119/3/2 120/3/2 127/3/2
f 127/3/2 120/3/2 128/3/2
f 125/3/2 126/3/2 129/3/2
f 121/3/2 125/3/2 129/3/2
f 129/3/2 126/3/2 130/3/2
f 121/3/2 129/3/2 131/3/2
f 131/3/2 129/3/2 132/3/2
f 133/3/2 134/3/2 135/3/2
f 135/3/2 134/3/2 136/3/2
f 137/3/2 138/3/2 139/3/2
f 139/3/2 138/3/2 140/3/2
f 139/3/2 140/3/2 142/3/2
f 140/2/2 141/2/2 143/2/2
f 142/3/2 140/3/2 143/3/2
f 143/2/2 141/2/2 144/2/2
f 145/1/2 146/1/2 147/1/2
f 147/1/2 146/1/2 148/1/2
f 149/3/2 150/3/2 151/3/2
f 151/3/2 150/3/2 152/3/2
f 153/2/2 154/2/2 155/2/2
f 155/2/2 154/2/2 156/2/2
f 157/2/2 158/2/2 159/2/2
f 159/2/2 158/2/2 160/2/2
f 161/1/2 162/1/2 163/1/2
f 163/1/2 162/1/2 164/1/2
f 167/3/3 166/3/3 165/3/3
f 168/3/3 166/3/3 167/3/3
f 169/3/3 166/3/3 168/3/3
f 170/3/3 166/3/3 169/3/3
f 173/3/3 172/3/3 171/3/3
f 174/3/3 172/3/3 173/3/3
f 178/3/3 176/3/3 175/3/3
f 179/3/3 176/3/3 178/3/3
f 183/3/3 178/3/3 177/3/3
f 183/3/3 179/3/3 178/3/3
f 183/3/3 180/3/3 179/3/3
f 184/3/3 180/3/3 183/3/3
f 185/3/3 180/3/3 184/3/3
f 186/3/3 180/3/3 185/3/3
f 187/1/3 182/1/3 181/1/3
f 188/1/3 182/1/3 187/1/3
f 189/1/3 182/1/3 188/1/3
f 190/3/3 185/3/3 184/3/3
f 191/3/3 185/3/3 190/3/3
f 196/3/3 192/3/3 191/3/3
f 197/3/3 192/3/3 196/3/3
f 198/1/3 195/1/3 194/1/3
f 198/1/3 194/1/3 193/1/3
f 199/1/3 195/1/3 198/1/3
f 202/3/3 201/3/3 200/3/3
f 203/3/3 201/3/3 202/3/3
f 207/1/3 205/1/3 204/1/3
f 209/2/3 207/2/3 206/2/3
f 210/2/3 209/2/3 208/2/3
f 213/2/3 209/2/3 210/2/3
f 214/1/3 205/1/3 207/1/3
f 214/2/3 209/2/3 213/2/3
f 214/2/3 207/2/3 209/2/3
f 215/3/3 212/3/3 211/3/3
f 216/1/3 214/1/3 213/1/3
f 217/1/3 205/1/3 214/1/3
f 217/1/3 214/1/3 216/1/3
f 218/3/3 212/3/3 215/3/3
f 219/3/3 212/3/3 218/3/3
f 222/1/3 221/1/3 220/1/3
f 223/1/3 221/1/3 222/1/3
f 224/2/3 223/2/3 222/2/3
f 225/2/3 223/2/3 224/2/3
f 226/2/3 223/2/3 225/2/3
f 227/2/3 223/2/3 226/2/3
f 228/1/3 221/1/3 223/1/3
f 228/2/3 223/2/3 227/2/3
f 229/1/3 221/1/3 228/1/3
f 230/1/3 221/1/3 229/1/3
f 233/3/3 232/3/3 231/3/3
f 234/3/3 232/3/3 233/3/3
f 239/3/3 236/3/3 235/3/3
f 241/3/3 238/3/3 237/3/3
f 242/3/3 238/3/3 241/3/3
f 243/3/3 240/3/3 239/3/3
f 243/3/3 239/3/3 235/3/3
f 244/3/3 240/3/3 243/3/3
f 245/3/4 246/3/4 247/3/4
f 247/3/4 246/3/4 248/3/4
f 249/3/4 250/3/4 251/3/4
f 249/3/4 251/3/4 253/3/4
f 251/3/4 252/3/4 253/3/4
f 253/3/4 252/3/4 254/3/4
f 255/3/4 256/3/4 259/3/4
f 259/3/4 256/3/4 260/3/4
f 260/3/4 256/3/4 261/3/4
f 257/1/4 258/1/4 263/1/4
f 263/1/4 258/1/4 264/1/4
f 264/1/4 258/1/4 265/1/4
f 263/3/4 264/3/4 266/3/4
f 262/3/4 263/3/4 266/3/4
f 266/3/4 264/3/4 267/3/4
f 267/3/4 264/3/4 268/3/4
f 268/1/4 269/1/4 270/1/4
f 267/1/4 268/1/4 270/1/4
f 270/1/4 269/1/4 271/1/4
f 272/3/4 273/3/4 274/3/4
f 272/3/4 274/3/4 275/3/4
f 275/3/4 274/3/4 276/3/4
f 276/3/4 274/3/4 277/3/4
f 278/3/4 279/3/4 280/3/4
f 280/3/4 279/3/4 281/3/4
f 282/3/4 283/3/4 284/3/4
f 284/3/4 283/3/4 285/3/4
f 286/1/4 287/1/4 289/1/4
f 288/2/4 289/2/4 291/2/4
f 290/2/4 291/2/4 293/2/4
f 292/2/4 293/2/4 297/2/4
f 289/1/4 287/1/4 298/1/4
f 291/2/4 289/2/4 298/2/4
f 297/2/4 293/2/4 298/2/4
f 293/2/4 291/2/4 298/2/4
f 294/3/4 295/3/4 299/3/4
f 299/3/4 295/3/4 300/3/4
f 296/1/4 297/1/4 301/1/4
f 297/1/4 298/1/4 301/1/4
f 298/1/4 287/1/4 302/1/4
f 301/1/4 298/1/4 302/1/4
f 303/1/4 304/1/4 305/1/4
f 305/1/4 304/1/4 306/1/4
f 306/1/4 304/1/4 307/1/4
f 306/2/4 307/2/4 308/2/4
f 308/2/4 307/2/4 309/2/4
f 309/2/4 307/2/4 310/2/4
f 310/2/4 307/2/4 311/2/4
f 311/2/4 307/2/4 312/2/4
f 307/1/4 304/1/4 313/1/4
f 312/2/4 307/2/4 313/2/4
f 313/1/4 304/1/4 314/1/4
f 314/1/4 304/1/4 315/1/4
f 316/3/4 317/3/4 318/3/4
f 318/3/4 317/3/4 319/3/4
f 316/3/4 318/3/4 320/3/4
f 320/3/4 318/3/4 321/3/4
f 321/3/4 322/3/4 323/3/4
f 323/3/4 322/3/4 324/3/4
f 325/3/4 326/3/4 328/3/4
f 328/3/4 326/3/4 329/3/4
f 329/3/4 326/3/4 330/3/4
f 327/3/4 328/3/4 332/3/4
f 332/3/4 328/3/4 333/3/4
f 330/3/4 331/3/4 334/3/4
f 329/3/4 330/3/4 334/3/4
f 334/3/4 331/3/4 335/3/4
f 338/3/5 337/3/5 336/3/5
f 339/3/5 337/3/5 338/3/5
f 342/3/5 341/3/5 340/3/5
f 343/3/5 341/3/5 342/3/5
f 345/3/5 344/3/5 343/3/5
f 346/3/5 344/3/5 345/3/5
f 349/3/5 348/3/5 347/3/5
f 350/3/5 348/3/5 349/3/5
f 354/3/5 352/3/5 351/3/5
f 355/3/5 352/3/5 354/3/5
f 357/3/5 354/3/5 353/3/5
f 357/3/5 356/3/5 355/3/5
f 357/3/5 355/3/5 354/3/5
f 358/3/5 356/3/5 357/3/5
f 359/3/5 356/3/5 358/3/5
f 363/3/5 361/3/5 360/3/5
f 367/3/5 363/3/5 362/3/5
f 368/3/5 361/3/5 363/3/5
f 368/3/5 363/3/5 367/3/5
f 369/3/5 365/3/5 364/3/5
f 370/3/5 367/3/5 366/3/5
f 371/3/5 369/3/5 364/3/5
f 371/3/5 370/3/5 369/3/5
f 372/3/5 367/3/5 370/3/5
f 372/3/5 370/3/5 371/3/5
f 373/3/5 367/3/5 372/3/5
f 374/3/5 367/3/5 373/3/5
f 375/3/5 367/3/5 374/3/5
f 378/3/5 377/3/5 376/3/5
f 379/3/5 377/3/5 378/3/5
f 382/3/5 381/3/5 380/3/5
f 383/3/5 381/3/5 382/3/5
f 386/3/5 385/3/5 384/3/5
f 387/3/5 385/3/5 386/3/5
f 390/3/5 389/3/5 388/3/5
f 391/3/5 389/3/5 390/3/5
f 396/2/5 393/2/5 392/2/5
f 397/2/5 393/2/5 396/2/5
f 398/2/5 395/2/5 394/2/5
f 399/2/5 395/2/5 398/2/5
f 404/2/5 401/2/5 400/2/5
f 405/2/5 401/2/5 404/2/5
f 406/2/5 403/2/5 402/2/5
f 407/2/5 403/2/5 406/2/5
f 412/1/5 409/1/5 408/1/5
f 413/1/5 409/1/5 412/1/5
f 414/1/5 411/1/5 410/1/5
f 415/1/5 411/1/5 414/1/5
f 420/2/5 417/2/5 416/2/5
f 421/2/5 417/2/5 420/2/5
f 422/2/5 419/2/5 418/2/5
f 423/2/5 419/2/5 422/2/5
f 428/1/5 425/1/5 424/1/5
f 429/1/5 425/1/5 428/1/5
f 430/1/5 427/1/5 426/1/5
f 431/1/5 427/1/5 430/1/5
f 432/3/6 433/3/6 434/3/6
f 434/3/6 433/3/6 435/3/6
f 436/3/6 437/3/6 438/3/6
f 438/3/6 437/3/6 439/3/6
f 440/3/6 441/3/6 443/3/6
f 443/3/6 441/3/6 444/3/6
f 442/3/6 443/3/6 446/3/6
f 444/3/6 445/3/6 446/3/6
f 443/3/6 444/3/6 446/3/6
f 446/3/6 445/3/6 447/3/6
f 447/3/6 445/3/6 448/3/6
f 449/3/6 450/3/6 451/3/6
f 451/3/6 450/3/6 454/3/6
f 454/3/6 450/3/6 455/3/6
f 455/3/6 450/3/6 456/3/6
f 452/3/6 453/3/6 457/3/6
f 457/3/6 453/3/6 458/3/6
f 459/3/6 460/3/6 461/3/6
f 461/3/6 460/3/6 462/3/6
f 463/3/6 464/3/6 467/3/6
f 465/3/6 466/3/6 468/3/6
f 463/3/6 467/3/6 469/3/6
f 467/3/6 468/3/6 469/3/6
f 469/3/6 468/3/6 470/3/6
f 470/3/6 468/3/6 471/3/6
f 471/3/6 468/3/6 472/3/6
f 468/3/6 466/3/6 473/3/6
f 472/3/6 468/3/6 473/3/6
f 473/3/6 466/3/6 474/3/6
f 475/3/6 476/3/6 477/3/6
f 477/3/6 476/3/6 478/3/6
f 479/3/6 480/3/6 481/3/6
f 481/3/6 480/3/6 482/3/6
f 481/3/6 482/3/6 483/3/6
f 483/3/6 482/3/6 484/3/6
f 485/1/6 486/1/6 489/1/6
f 489/1/6 486/1/6 490/1/6
f 487/1/6 488/1/6 491/1/6
f 491/1/6 488/1/6 492/1/6
f 493/1/6 494/1/6 497/1/6
f 497/1/6 494/1/6 498/1/6
f 495/1/6 496/1/6 499/1/6
f 499/1/6 496/1/6 500/1/6
