# MagicaVoxel @ Ephtracy

# group
o 

# material
mtllib gargoyle.mtl
usemtl palette

# normals
vn -1 0 0
vn 1 0 0
vn 0 0 1
vn 0 0 -1
vn 0 -1 0
vn 0 1 0

# texcoords
vt 0.787109 0.5
vt 0.791016 0.5
vt 0.943359 0.5

# verts
v -0.5 0.7 -0.1
v -0.5 0.7 -0.2
v -0.5 0.8 -0.1
v -0.5 0.8 -0.2
v -0.4 0.6 -0.1
v -0.4 0.6 -0.2
v -0.4 0.7 -0.1
v -0.4 0.7 -0.2
v -0.3 0.2 0.2
v -0.3 0.2 -2.98023e-08
v -0.3 0.4 0.2
v -0.3 0.4 -2.98023e-08
v -0.3 0.5 -0.1
v -0.3 0.5 -0.2
v -0.3 0.6 -0.1
v -0.3 0.6 -0.2
v -0.2 0 0.2
v -0.2 0 0.1
v -0.2 0.2 0.2
v -0.2 0.2 0.1
v -0.2 0.3 -2.98023e-08
v -0.2 0.3 -0.1
v -0.2 0.4 0.1
v -0.2 0.4 -2.98023e-08
v -0.2 0.4 -0.1
v -0.2 0.4 -0.2
v -0.2 0.5 0.1
v -0.2 0.5 -0.1
v -0.2 0.5 -0.2
v -0.2 0.6 0.1
v -0.2 0.6 -2.98023e-08
v -0.2 0.8 0.1
v -0.2 0.8 -2.98023e-08
v -0.1 0 -2.98023e-08
v -0.1 0 -0.2
v -0.1 0.1 -2.98023e-08
v -0.1 0.1 -0.1
v -0.1 0.1 -0.2
v -0.1 0.1 -0.3
v -0.1 0.2 -2.98023e-08
v -0.1 0.2 -0.1
v -0.1 0.3 -2.98023e-08
v -0.1 0.3 -0.1
v -0.1 0.3 -0.2
v -0.1 0.3 -0.3
v -0.1 0.3 -0.4
v -0.1 0.4 0.2
v -0.1 0.4 0.1
v -0.1 0.4 -0.1
v -0.1 0.4 -0.2
v -0.1 0.5 0.1
v -0.1 0.5 -2.98023e-08
v -0.1 0.5 -0.3
v -0.1 0.5 -0.4
v -0.1 0.6 0.1
v -0.1 0.6 -2.98023e-08
v -0.1 0.7 0.2
v -0.1 0.7 0.1
v 5.96046e-08 0.2 -0.3
v 5.96046e-08 0.2 -0.4
v 5.96046e-08 0.3 -0.3
v 5.96046e-08 0.3 -0.4
v 0.1 0 -2.98023e-08
v 0.1 0 -0.2
v 0.1 0.1 -2.98023e-08
v 0.1 0.1 -0.1
v 0.1 0.1 -0.2
v 0.1 0.3 -0.1
v 0.1 0.3 -0.2
v 0.1 0.5 -0.1
v 0.1 0.8 -0.1
v 0.1 0.8 -0.2
v 0.2 0 0.2
v 0.2 0 0.1
v 0.2 0.2 0.1
v 0.2 0.4 0.2
v 0.2 0.4 0.1
v 0.2 0.7 0.1
v 0.2 0.7 -2.98023e-08
v 0.2 0.8 0.1
v 0.2 0.8 -2.98023e-08
v -0.1 0 0.2
v -0.1 0 0.1
v -0.1 0.2 0.1
v -0.1 0.4 0.2
v -0.1 0.4 0.1
v -0.1 0.7 0.1
v -0.1 0.7 -2.98023e-08
v -0.1 0.8 0.1
v -0.1 0.8 -2.98023e-08
v 5.96046e-08 0 -2.98023e-08
v 5.96046e-08 0 -0.2
v 5.96046e-08 0.1 -2.98023e-08
v 5.96046e-08 0.1 -0.1
v 5.96046e-08 0.1 -0.2
v 5.96046e-08 0.3 -0.1
v 5.96046e-08 0.3 -0.2
v 5.96046e-08 0.4 -0.3
v 5.96046e-08 0.4 -0.4
v 5.96046e-08 0.5 -0.1
v 5.96046e-08 0.5 -0.3
v 5.96046e-08 0.5 -0.4
v 5.96046e-08 0.8 -0.1
v 5.96046e-08 0.8 -0.2
v 0.1 0.2 -0.3
v 0.1 0.2 -0.4
v 0.1 0.3 -0.3
v 0.1 0.4 -0.3
v 0.1 0.4 -0.4
v 0.2 0 -2.98023e-08
v 0.2 0 -0.2
v 0.2 0.1 -2.98023e-08
v 0.2 0.1 -0.1
v 0.2 0.1 -0.2
v 0.2 0.1 -0.3
v 0.2 0.2 -0.1
v 0.2 0.3 -0.1
v 0.2 0.3 -0.2
v 0.2 0.3 -0.3
v 0.2 0.4 0.2
v 0.2 0.4 0.1
v 0.2 0.4 -0.1
v 0.2 0.4 -0.2
v 0.2 0.5 0.1
v 0.2 0.5 -2.98023e-08
v 0.2 0.6 0.1
v 0.2 0.6 -2.98023e-08
v 0.2 0.7 0.2
v 0.2 0.7 0.1
v 0.3 0 0.2
v 0.3 0 0.1
v 0.3 0.2 0.2
v 0.3 0.2 0.1
v 0.3 0.2 -2.98023e-08
v 0.3 0.2 -0.1
v 0.3 0.4 0.1
v 0.3 0.4 -2.98023e-08
v 0.3 0.4 -0.1
v 0.3 0.4 -0.2
v 0.3 0.5 0.1
v 0.3 0.5 -0.1
v 0.3 0.5 -0.2
v 0.3 0.6 0.1
v 0.3 0.6 -2.98023e-08
v 0.3 0.8 0.1
v 0.3 0.8 -2.98023e-08
v 0.4 0.2 0.2
v 0.4 0.2 -2.98023e-08
v 0.4 0.4 0.2
v 0.4 0.4 -2.98023e-08
v 0.4 0.5 -0.1
v 0.4 0.5 -0.2
v 0.4 0.6 -0.1
v 0.4 0.6 -0.2
v 0.5 0.6 -0.1
v 0.5 0.6 -0.2
v 0.5 0.7 -0.1
v 0.5 0.7 -0.2
v 0.6 0.7 -0.1
v 0.6 0.7 -0.2
v 0.6 0.8 -0.1
v 0.6 0.8 -0.2
v -0.3 0.2 0.2
v -0.3 0.4 0.2
v -0.2 0 0.2
v -0.2 0.2 0.2
v -0.1 0 0.2
v -0.1 0.4 0.2
v -0.1 0.7 0.2
v 0.2 0 0.2
v 0.2 0.4 0.2
v 0.2 0.7 0.2
v 0.3 0 0.2
v 0.3 0.2 0.2
v 0.4 0.2 0.2
v 0.4 0.4 0.2
v -0.2 0.4 0.1
v -0.2 0.5 0.1
v -0.2 0.6 0.1
v -0.2 0.8 0.1
v -0.1 0.2 0.1
v -0.1 0.4 0.1
v -0.1 0.5 0.1
v -0.1 0.6 0.1
v -0.1 0.7 0.1
v -0.1 0.8 0.1
v 0.2 0.2 0.1
v 0.2 0.4 0.1
v 0.2 0.5 0.1
v 0.2 0.6 0.1
v 0.2 0.7 0.1
v 0.2 0.8 0.1
v 0.3 0.4 0.1
v 0.3 0.5 0.1
v 0.3 0.6 0.1
v 0.3 0.8 0.1
v -0.1 0 -2.98023e-08
v -0.1 0.1 -2.98023e-08
v 5.96046e-08 0 -2.98023e-08
v 5.96046e-08 0.1 -2.98023e-08
v 0.1 0 -2.98023e-08
v 0.1 0.1 -2.98023e-08
v 0.2 0 -2.98023e-08
v 0.2 0.1 -2.98023e-08
v -0.5 0.7 -0.1
v -0.5 0.8 -0.1
v -0.4 0.6 -0.1
v -0.4 0.7 -0.1
v -0.3 0.5 -0.1
v -0.3 0.6 -0.1
v -0.2 0.5 -0.1
v -0.1 0.1 -0.1
v -0.1 0.2 -0.1
v -0.1 0.5 -0.1
v -0.1 0.7 -0.1
v 5.96046e-08 0.1 -0.1
v 5.96046e-08 0.5 -0.1
v 5.96046e-08 0.8 -0.1
v 0.1 0.1 -0.1
v 0.1 0.5 -0.1
v 0.1 0.8 -0.1
v 0.2 0.1 -0.1
v 0.2 0.2 -0.1
v 0.2 0.5 -0.1
v 0.2 0.7 -0.1
v 0.3 0.5 -0.1
v 0.4 0.5 -0.1
v 0.4 0.6 -0.1
v 0.5 0.6 -0.1
v 0.5 0.7 -0.1
v 0.6 0.7 -0.1
v 0.6 0.8 -0.1
v -0.1 0.3 -0.3
v -0.1 0.5 -0.3
v 5.96046e-08 0.4 -0.3
v 5.96046e-08 0.5 -0.3
v 0.1 0.3 -0.3
v 0.1 0.4 -0.3
v -0.2 0 0.1
v -0.2 0.2 0.1
v -0.1 0 0.1
v -0.1 0.2 0.1
v 0.2 0 0.1
v 0.2 0.2 0.1
v 0.3 0 0.1
v 0.3 0.2 0.1
v -0.3 0.2 -2.98023e-08
v -0.3 0.4 -2.98023e-08
v -0.2 0.3 -2.98023e-08
v -0.2 0.4 -2.98023e-08
v -0.2 0.6 -2.98023e-08
v -0.2 0.8 -2.98023e-08
v -0.1 0.2 -2.98023e-08
v -0.1 0.3 -2.98023e-08
v -0.1 0.5 -2.98023e-08
v -0.1 0.6 -2.98023e-08
v -0.1 0.7 -2.98023e-08
v -0.1 0.8 -2.98023e-08
v 0.2 0.5 -2.98023e-08
v 0.2 0.6 -2.98023e-08
v 0.2 0.7 -2.98023e-08
v 0.2 0.8 -2.98023e-08
v 0.3 0.2 -2.98023e-08
v 0.3 0.4 -2.98023e-08
v 0.3 0.6 -2.98023e-08
v 0.3 0.8 -2.98023e-08
v 0.4 0.2 -2.98023e-08
v 0.4 0.4 -2.98023e-08
v -0.2 0.3 -0.1
v -0.2 0.4 -0.1
v -0.1 0.3 -0.1
v -0.1 0.4 -0.1
v 5.96046e-08 0.3 -0.1
v 5.96046e-08 0.5 -0.1
v 0.1 0.3 -0.1
v 0.1 0.5 -0.1
v 0.2 0.2 -0.1
v 0.2 0.3 -0.1
v 0.2 0.4 -0.1
v 0.3 0.2 -0.1
v 0.3 0.4 -0.1
v -0.5 0.7 -0.2
v -0.5 0.8 -0.2
v -0.4 0.6 -0.2
v -0.4 0.7 -0.2
v -0.3 0.5 -0.2
v -0.3 0.6 -0.2
v -0.2 0.4 -0.2
v -0.2 0.5 -0.2
v -0.1 0 -0.2
v -0.1 0.1 -0.2
v -0.1 0.3 -0.2
v -0.1 0.4 -0.2
v -0.1 0.7 -0.2
v 5.96046e-08 0 -0.2
v 5.96046e-08 0.1 -0.2
v 5.96046e-08 0.3 -0.2
v 5.96046e-08 0.8 -0.2
v 0.1 0 -0.2
v 0.1 0.1 -0.2
v 0.1 0.3 -0.2
v 0.1 0.8 -0.2
v 0.2 0 -0.2
v 0.2 0.1 -0.2
v 0.2 0.3 -0.2
v 0.2 0.4 -0.2
v 0.2 0.7 -0.2
v 0.3 0.4 -0.2
v 0.3 0.5 -0.2
v 0.4 0.5 -0.2
v 0.4 0.6 -0.2
v 0.5 0.6 -0.2
v 0.5 0.7 -0.2
v 0.6 0.7 -0.2
v 0.6 0.8 -0.2
v -0.1 0.1 -0.3
v -0.1 0.3 -0.3
v 5.96046e-08 0.2 -0.3
v 5.96046e-08 0.3 -0.3
v 0.1 0.2 -0.3
v 0.1 0.3 -0.3
v 0.2 0.1 -0.3
v 0.2 0.3 -0.3
v -0.1 0.3 -0.4
v -0.1 0.5 -0.4
v 5.96046e-08 0.2 -0.4
v 5.96046e-08 0.3 -0.4
v 5.96046e-08 0.4 -0.4
v 5.96046e-08 0.5 -0.4
v 0.1 0.2 -0.4
v 0.1 0.4 -0.4
v -0.2 0 0.2
v -0.1 0 0.2
v 0.2 0 0.2
v 0.3 0 0.2
v -0.2 0 0.1
v -0.1 0 0.1
v 0.2 0 0.1
v 0.3 0 0.1
v -0.1 0 -2.98023e-08
v 5.96046e-08 0 -2.98023e-08
v 0.1 0 -2.98023e-08
v 0.2 0 -2.98023e-08
v -0.1 0 -0.2
v 5.96046e-08 0 -0.2
v 0.1 0 -0.2
v 0.2 0 -0.2
v 5.96046e-08 0.1 -0.1
v 0.1 0.1 -0.1
v -0.1 0.1 -0.2
v 5.96046e-08 0.1 -0.2
v 0.1 0.1 -0.2
v 0.2 0.1 -0.2
v -0.1 0.1 -0.3
v 0.2 0.1 -0.3
v -0.3 0.2 0.2
v -0.2 0.2 0.2
v 0.3 0.2 0.2
v 0.4 0.2 0.2
v -0.2 0.2 0.1
v -0.1 0.2 0.1
v 0.2 0.2 0.1
v 0.3 0.2 0.1
v -0.3 0.2 -2.98023e-08
v -0.1 0.2 -2.98023e-08
v 0.3 0.2 -2.98023e-08
v 0.4 0.2 -2.98023e-08
v -0.1 0.2 -0.1
v 0.2 0.2 -0.1
v 0.3 0.2 -0.1
v 5.96046e-08 0.2 -0.3
v 0.1 0.2 -0.3
v 5.96046e-08 0.2 -0.4
v 0.1 0.2 -0.4
v -0.2 0.3 -2.98023e-08
v -0.1 0.3 -2.98023e-08
v -0.2 0.3 -0.1
v -0.1 0.3 -0.1
v -0.1 0.3 -0.3
v 5.96046e-08 0.3 -0.3
v -0.1 0.3 -0.4
v 5.96046e-08 0.3 -0.4
v -0.1 0.4 0.2
v 0.2 0.4 0.2
v -0.1 0.4 0.1
v 0.2 0.4 0.1
v -0.2 0.4 -0.1
v -0.1 0.4 -0.1
v 0.2 0.4 -0.1
v 0.3 0.4 -0.1
v -0.2 0.4 -0.2
v -0.1 0.4 -0.2
v 0.2 0.4 -0.2
v 0.3 0.4 -0.2
v -0.3 0.5 -0.1
v -0.2 0.5 -0.1
v 0.3 0.5 -0.1
v 0.4 0.5 -0.1
v -0.3 0.5 -0.2
v -0.2 0.5 -0.2
v 0.3 0.5 -0.2
v 0.4 0.5 -0.2
v -0.2 0.6 0.1
v -0.1 0.6 0.1
v 0.2 0.6 0.1
v 0.3 0.6 0.1
v -0.2 0.6 -2.98023e-08
v -0.1 0.6 -2.98023e-08
v 0.2 0.6 -2.98023e-08
v 0.3 0.6 -2.98023e-08
v -0.4 0.6 -0.1
v -0.3 0.6 -0.1
v 0.4 0.6 -0.1
v 0.5 0.6 -0.1
v -0.4 0.6 -0.2
v -0.3 0.6 -0.2
v 0.4 0.6 -0.2
v 0.5 0.6 -0.2
v -0.5 0.7 -0.1
v -0.4 0.7 -0.1
v 0.5 0.7 -0.1
v 0.6 0.7 -0.1
v -0.5 0.7 -0.2
v -0.4 0.7 -0.2
v 0.5 0.7 -0.2
v 0.6 0.7 -0.2
v -0.1 0.1 -2.98023e-08
v 5.96046e-08 0.1 -2.98023e-08
v 0.1 0.1 -2.98023e-08
v 0.2 0.1 -2.98023e-08
v -0.1 0.1 -0.1
v 5.96046e-08 0.1 -0.1
v 0.1 0.1 -0.1
v 0.2 0.1 -0.1
v 5.96046e-08 0.3 -0.1
v 0.1 0.3 -0.1
v -0.1 0.3 -0.2
v 5.96046e-08 0.3 -0.2
v 0.1 0.3 -0.2
v 0.2 0.3 -0.2
v -0.1 0.3 -0.3
v 0.1 0.3 -0.3
v 0.2 0.3 -0.3
v -0.3 0.4 0.2
v -0.1 0.4 0.2
v 0.2 0.4 0.2
v 0.4 0.4 0.2
v -0.2 0.4 0.1
v -0.1 0.4 0.1
v 0.2 0.4 0.1
v 0.3 0.4 0.1
v -0.3 0.4 -2.98023e-08
v -0.2 0.4 -2.98023e-08
v 0.3 0.4 -2.98023e-08
v 0.4 0.4 -2.98023e-08
v 5.96046e-08 0.4 -0.3
v 0.1 0.4 -0.3
v 5.96046e-08 0.4 -0.4
v 0.1 0.4 -0.4
v -0.2 0.5 0.1
v -0.1 0.5 0.1
v 0.2 0.5 0.1
v 0.3 0.5 0.1
v -0.1 0.5 -2.98023e-08
v 0.2 0.5 -2.98023e-08
v -0.2 0.5 -0.1
v -0.1 0.5 -0.1
v 5.96046e-08 0.5 -0.1
v 0.1 0.5 -0.1
v 0.2 0.5 -0.1
v 0.3 0.5 -0.1
v -0.1 0.5 -0.3
v 5.96046e-08 0.5 -0.3
v -0.1 0.5 -0.4
v 5.96046e-08 0.5 -0.4
v -0.1 0.7 0.2
v 0.2 0.7 0.2
v -0.1 0.7 0.1
v 0.2 0.7 0.1
v -0.1 0.7 -2.98023e-08
v 0.2 0.7 -2.98023e-08
v -0.2 0.8 0.1
v -0.1 0.8 0.1
v 0.2 0.8 0.1
v 0.3 0.8 0.1
v -0.2 0.8 -2.98023e-08
v -0.1 0.8 -2.98023e-08
v 0.2 0.8 -2.98023e-08
v 0.3 0.8 -2.98023e-08
v -0.5 0.8 -0.1
v 5.96046e-08 0.8 -0.1
v 0.1 0.8 -0.1
v 0.6 0.8 -0.1
v -0.5 0.8 -0.2
v 5.96046e-08 0.8 -0.2
v 0.1 0.8 -0.2
v 0.6 0.8 -0.2

# faces
f 3/1/1 2/1/1 1/1/1
f 4/1/1 2/1/1 3/1/1
f 7/2/1 6/2/1 5/2/1
f 8/2/1 6/2/1 7/2/1
f 11/3/1 10/3/1 9/3/1
f 12/3/1 10/3/1 11/3/1
f 15/2/1 14/2/1 13/2/1
f 16/2/1 14/2/1 15/2/1
f 19/3/1 18/3/1 17/3/1
f 20/3/1 18/3/1 19/3/1
f 24/3/1 22/3/1 21/3/1
f 25/3/1 22/3/1 24/3/1
f 27/3/1 24/3/1 23/3/1
f 27/3/1 25/3/1 24/3/1
f 28/2/1 26/2/1 25/2/1
f 28/3/1 25/3/1 27/3/1
f 29/2/1 26/2/1 28/2/1
f 32/1/1 31/1/1 30/1/1
f 33/1/1 31/1/1 32/1/1
f 36/3/1 35/3/1 34/3/1
f 37/3/1 35/3/1 36/3/1
f 38/3/1 35/3/1 37/3/1
f 41/3/1 39/3/1 38/3/1
f 41/3/1 38/3/1 37/3/1
f 42/3/1 41/3/1 40/3/1
f 43/3/1 39/3/1 41/3/1
f 43/3/1 41/3/1 42/3/1
f 44/3/1 39/3/1 43/3/1
f 45/3/1 39/3/1 44/3/1
f 49/1/1 44/1/1 43/1/1
f 50/1/1 44/1/1 49/1/1
f 51/3/1 48/3/1 47/3/1
f 53/3/1 46/3/1 45/3/1
f 54/3/1 46/3/1 53/3/1
f 55/3/1 52/3/1 51/3/1
f 55/3/1 51/3/1 47/3/1
f 56/3/1 52/3/1 55/3/1
f 57/3/1 55/3/1 47/3/1
f 58/3/1 55/3/1 57/3/1
f 61/3/1 60/3/1 59/3/1
f 62/3/1 60/3/1 61/3/1
f 65/3/1 64/3/1 63/3/1
f 66/3/1 64/3/1 65/3/1
f 67/3/1 64/3/1 66/3/1
f 70/1/1 69/1/1 68/1/1
f 71/1/1 69/1/1 70/1/1
f 72/1/1 69/1/1 71/1/1
f 75/3/1 74/3/1 73/3/1
f 76/3/1 75/3/1 73/3/1
f 77/3/1 75/3/1 76/3/1
f 80/1/1 79/1/1 78/1/1
f 81/1/1 79/1/1 80/1/1
f 82/3/2 83/3/2 84/3/2
f 82/3/2 84/3/2 85/3/2
f 85/3/2 84/3/2 86/3/2
f 87/1/2 88/1/2 89/1/2
f 89/1/2 88/1/2 90/1/2
f 91/3/2 92/3/2 93/3/2
f 93/3/2 92/3/2 94/3/2
f 94/3/2 92/3/2 95/3/2
f 96/1/2 97/1/2 100/1/2
f 98/3/2 99/3/2 101/3/2
f 101/3/2 99/3/2 102/3/2
f 100/1/2 97/1/2 103/1/2
f 103/1/2 97/1/2 104/1/2
f 105/3/2 106/3/2 107/3/2
f 107/3/2 106/3/2 108/3/2
f 108/3/2 106/3/2 109/3/2
f 110/3/2 111/3/2 112/3/2
f 112/3/2 111/3/2 113/3/2
f 113/3/2 111/3/2 114/3/2
f 114/3/2 115/3/2 116/3/2
f 113/3/2 114/3/2 116/3/2
f 116/3/2 115/3/2 117/3/2
f 117/3/2 115/3/2 118/3/2
f 118/3/2 115/3/2 119/3/2
f 117/1/2 118/1/2 122/1/2
f 122/1/2 118/1/2 123/1/2
f 120/3/2 121/3/2 124/3/2
f 120/3/2 124/3/2 126/3/2
f 124/3/2 125/3/2 126/3/2
f 126/3/2 125/3/2 127/3/2
f 120/3/2 126/3/2 128/3/2
f 128/3/2 126/3/2 129/3/2
f 130/3/2 131/3/2 132/3/2
f 132/3/2 131/3/2 133/3/2
f 134/3/2 135/3/2 137/3/2
f 137/3/2 135/3/2 138/3/2
f 136/3/2 137/3/2 140/3/2
f 137/3/2 138/3/2 140/3/2
f 138/2/2 139/2/2 141/2/2
f 140/3/2 138/3/2 141/3/2
f 141/2/2 139/2/2 142/2/2
f 143/1/2 144/1/2 145/1/2
f 145/1/2 144/1/2 146/1/2
f 147/3/2 148/3/2 149/3/2
f 149/3/2 148/3/2 150/3/2
f 151/2/2 152/2/2 153/2/2
f 153/2/2 152/2/2 154/2/2
f 155/2/2 156/2/2 157/2/2
f 157/2/2 156/2/2 158/2/2
f 159/1/2 160/1/2 161/1/2
f 161/1/2 160/1/2 162/1/2
f 166/3/3 164/3/3 163/3/3
f 167/3/3 166/3/3 165/3/3
f 168/3/3 164/3/3 166/3/3
f 168/3/3 166/3/3 167/3/3
f 171/3/3 169/3/3 168/3/3
f 172/3/3 169/3/3 171/3/3
f 173/3/3 171/3/3 170/3/3
f 174/3/3 171/3/3 173/3/3
f 175/3/3 171/3/3 174/3/3
f 176/3/3 171/3/3 175/3/3
f 182/3/3 178/3/3 177/3/3
f 183/3/3 178/3/3 182/3/3
f 184/1/3 180/1/3 179/1/3
f 185/1/3 180/1/3 184/1/3
f 186/1/3 180/1/3 185/1/3
f 187/3/3 182/3/3 181/3/3
f 188/3/3 182/3/3 187/3/3
f 193/3/3 189/3/3 188/3/3
f 194/3/3 189/3/3 193/3/3
f 195/1/3 192/1/3 191/1/3
f 195/1/3 191/1/3 190/1/3
f 196/1/3 192/1/3 195/1/3
f 199/3/3 198/3/3 197/3/3
f 200/3/3 198/3/3 199/3/3
f 203/3/3 202/3/3 201/3/3
f 204/3/3 202/3/3 203/3/3
f 208/1/3 206/1/3 205/1/3
f 210/2/3 208/2/3 207/2/3
f 211/2/3 210/2/3 209/2/3
f 214/2/3 210/2/3 211/2/3
f 215/1/3 206/1/3 208/1/3
f 215/2/3 210/2/3 214/2/3
f 215/2/3 208/2/3 210/2/3
f 216/3/3 213/3/3 212/3/3
f 217/1/3 215/1/3 214/1/3
f 218/1/3 206/1/3 215/1/3
f 218/1/3 215/1/3 217/1/3
f 219/3/3 213/3/3 216/3/3
f 222/3/3 213/3/3 219/3/3
f 223/3/3 213/3/3 222/3/3
f 224/1/3 221/1/3 220/1/3
f 225/1/3 221/1/3 224/1/3
f 226/2/3 225/2/3 224/2/3
f 227/2/3 225/2/3 226/2/3
f 228/2/3 225/2/3 227/2/3
f 229/2/3 225/2/3 228/2/3
f 230/1/3 221/1/3 225/1/3
f 230/2/3 225/2/3 229/2/3
f 231/1/3 221/1/3 230/1/3
f 232/1/3 221/1/3 231/1/3
f 235/3/3 234/3/3 233/3/3
f 236/3/3 234/3/3 235/3/3
f 237/3/3 235/3/3 233/3/3
f 238/3/3 235/3/3 237/3/3
f 239/3/4 240/3/4 241/3/4
f 241/3/4 240/3/4 242/3/4
f 243/3/4 244/3/4 245/3/4
f 245/3/4 244/3/4 246/3/4
f 247/3/4 248/3/4 249/3/4
f 249/3/4 248/3/4 250/3/4
f 247/3/4 249/3/4 253/3/4
f 253/3/4 249/3/4 254/3/4
f 251/1/4 252/1/4 256/1/4
f 256/1/4 252/1/4 257/1/4
f 257/1/4 252/1/4 258/1/4
f 255/3/4 256/3/4 259/3/4
f 256/3/4 257/3/4 259/3/4
f 259/3/4 257/3/4 260/3/4
f 260/3/4 257/3/4 261/3/4
f 261/1/4 262/1/4 265/1/4
f 260/1/4 261/1/4 265/1/4
f 265/1/4 262/1/4 266/1/4
f 263/3/4 264/3/4 267/3/4
f 267/3/4 264/3/4 268/3/4
f 269/3/4 270/3/4 271/3/4
f 271/3/4 270/3/4 272/3/4
f 273/3/4 274/3/4 275/3/4
f 275/3/4 274/3/4 276/3/4
f 277/3/4 278/3/4 280/3/4
f 278/3/4 279/3/4 280/3/4
f 280/3/4 279/3/4 281/3/4
f 282/1/4 283/1/4 285/1/4
f 284/2/4 285/2/4 287/2/4
f 286/2/4 287/2/4 289/2/4
f 288/2/4 289/2/4 293/2/4
f 285/1/4 283/1/4 294/1/4
f 287/2/4 285/2/4 294/2/4
f 293/2/4 289/2/4 294/2/4
f 289/2/4 287/2/4 294/2/4
f 290/3/4 291/3/4 295/3/4
f 295/3/4 291/3/4 296/3/4
f 292/1/4 293/1/4 297/1/4
f 293/1/4 294/1/4 297/1/4
f 294/1/4 283/1/4 298/1/4
f 297/1/4 294/1/4 298/1/4
f 299/3/4 300/3/4 303/3/4
f 303/3/4 300/3/4 304/3/4
f 301/1/4 302/1/4 305/1/4
f 305/1/4 302/1/4 306/1/4
f 306/1/4 302/1/4 307/1/4
f 306/2/4 307/2/4 308/2/4
f 308/2/4 307/2/4 309/2/4
f 309/2/4 307/2/4 310/2/4
f 310/2/4 307/2/4 311/2/4
f 311/2/4 307/2/4 312/2/4
f 307/1/4 302/1/4 313/1/4
f 312/2/4 307/2/4 313/2/4
f 313/1/4 302/1/4 314/1/4
f 314/1/4 302/1/4 315/1/4
f 316/3/4 317/3/4 318/3/4
f 318/3/4 317/3/4 319/3/4
f 316/3/4 318/3/4 320/3/4
f 316/3/4 320/3/4 322/3/4
f 320/3/4 321/3/4 322/3/4
f 322/3/4 321/3/4 323/3/4
f 324/3/4 325/3/4 327/3/4
f 327/3/4 325/3/4 328/3/4
f 328/3/4 325/3/4 329/3/4
f 326/3/4 327/3/4 330/3/4
f 327/3/4 328/3/4 330/3/4
f 330/3/4 328/3/4 331/3/4
f 336/3/5 333/3/5 332/3/5
f 337/3/5 333/3/5 336/3/5
f 338/3/5 335/3/5 334/3/5
f 339/3/5 335/3/5 338/3/5
f 344/3/5 341/3/5 340/3/5
f 345/3/5 341/3/5 344/3/5
f 346/3/5 343/3/5 342/3/5
f 347/3/5 343/3/5 346/3/5
f 351/3/5 349/3/5 348/3/5
f 352/3/5 349/3/5 351/3/5
f 354/3/5 351/3/5 350/3/5
f 354/3/5 353/3/5 352/3/5
f 354/3/5 352/3/5 351/3/5
f 355/3/5 353/3/5 354/3/5
f 360/3/5 357/3/5 356/3/5
f 363/3/5 359/3/5 358/3/5
f 364/3/5 362/3/5 361/3/5
f 364/3/5 363/3/5 362/3/5
f 364/3/5 360/3/5 356/3/5
f 364/3/5 361/3/5 360/3/5
f 365/3/5 363/3/5 364/3/5
f 366/3/5 359/3/5 363/3/5
f 366/3/5 363/3/5 365/3/5
f 367/3/5 359/3/5 366/3/5
f 368/3/5 366/3/5 365/3/5
f 369/3/5 366/3/5 368/3/5
f 370/3/5 366/3/5 369/3/5
f 373/3/5 372/3/5 371/3/5
f 374/3/5 372/3/5 373/3/5
f 377/3/5 376/3/5 375/3/5
f 378/3/5 376/3/5 377/3/5
f 381/3/5 380/3/5 379/3/5
f 382/3/5 380/3/5 381/3/5
f 385/3/5 384/3/5 383/3/5
f 386/3/5 384/3/5 385/3/5
f 391/2/5 388/2/5 387/2/5
f 392/2/5 388/2/5 391/2/5
f 393/2/5 390/2/5 389/2/5
f 394/2/5 390/2/5 393/2/5
f 399/2/5 396/2/5 395/2/5
f 400/2/5 396/2/5 399/2/5
f 401/2/5 398/2/5 397/2/5
f 402/2/5 398/2/5 401/2/5
f 407/1/5 404/1/5 403/1/5
f 408/1/5 404/1/5 407/1/5
f 409/1/5 406/1/5 405/1/5
f 410/1/5 406/1/5 409/1/5
f 415/2/5 412/2/5 411/2/5
f 416/2/5 412/2/5 415/2/5
f 417/2/5 414/2/5 413/2/5
f 418/2/5 414/2/5 417/2/5
f 423/1/5 420/1/5 419/1/5
f 424/1/5 420/1/5 423/1/5
f 425/1/5 422/1/5 421/1/5
f 426/1/5 422/1/5 425/1/5
f 427/3/6 428/3/6 431/3/6
f 431/3/6 428/3/6 432/3/6
f 429/3/6 430/3/6 433/3/6
f 433/3/6 430/3/6 434/3/6
f 435/3/6 436/3/6 438/3/6
f 438/3/6 436/3/6 439/3/6
f 437/3/6 438/3/6 441/3/6
f 439/3/6 440/3/6 441/3/6
f 438/3/6 439/3/6 441/3/6
f 441/3/6 440/3/6 442/3/6
f 442/3/6 440/3/6 443/3/6
f 444/3/6 445/3/6 448/3/6
f 448/3/6 445/3/6 449/3/6
f 446/3/6 447/3/6 450/3/6
f 450/3/6 447/3/6 451/3/6
f 444/3/6 448/3/6 452/3/6
f 452/3/6 448/3/6 453/3/6
f 451/3/6 447/3/6 454/3/6
f 454/3/6 447/3/6 455/3/6
f 456/3/6 457/3/6 458/3/6
f 458/3/6 457/3/6 459/3/6
f 460/3/6 461/3/6 464/3/6
f 462/3/6 463/3/6 465/3/6
f 460/3/6 464/3/6 466/3/6
f 464/3/6 465/3/6 466/3/6
f 466/3/6 465/3/6 467/3/6
f 467/3/6 465/3/6 468/3/6
f 468/3/6 465/3/6 469/3/6
f 465/3/6 463/3/6 470/3/6
f 469/3/6 465/3/6 470/3/6
f 470/3/6 463/3/6 471/3/6
f 472/3/6 473/3/6 474/3/6
f 474/3/6 473/3/6 475/3/6
f 476/3/6 477/3/6 478/3/6
f 478/3/6 477/3/6 479/3/6
f 478/3/6 479/3/6 480/3/6
f 480/3/6 479/3/6 481/3/6
f 482/1/6 483/1/6 486/1/6
f 486/1/6 483/1/6 487/1/6
f 484/1/6 485/1/6 488/1/6
f 488/1/6 485/1/6 489/1/6
f 490/1/6 491/1/6 494/1/6
f 494/1/6 491/1/6 495/1/6
f 492/1/6 493/1/6 496/1/6
f 496/1/6 493/1/6 497/1/6
