# MagicaVoxel @ Ephtracy

# group
o 

# material
mtllib monk_walk_2.mtl
usemtl palette

# normals
vn -1 0 0
vn 1 0 0
vn 0 0 1
vn 0 0 -1
vn 0 -1 0
vn 0 1 0

# texcoords
vt 0.732422 0.5
vt 0.755859 0.5
vt 0.818359 0.5

# verts
v -0.3 0.4 0.2
v -0.3 0.4 0.1
v -0.3 0.5 0.1
v -0.3 0.5 -2.98023e-08
v -0.3 0.6 -2.98023e-08
v -0.3 0.6 -0.1
v -0.3 0.7 0.2
v -0.3 0.7 -2.98023e-08
v -0.3 0.7 -0.1
v -0.3 0.7 -0.2
v -0.3 0.9 -2.98023e-08
v -0.3 0.9 -0.2
v -0.2 0.2 -2.98023e-08
v -0.2 0.2 -0.2
v -0.2 0.3 0.1
v -0.2 0.3 -2.98023e-08
v -0.2 0.4 0.1
v -0.2 0.5 0.1
v -0.2 0.5 -2.98023e-08
v -0.2 0.5 -0.2
v -0.2 0.6 -2.98023e-08
v -0.2 0.6 -0.1
v -0.2 0.6 -0.2
v -0.2 0.7 0.1
v -0.2 0.7 -2.98023e-08
v -0.2 0.7 -0.1
v -0.2 0.7 -0.2
v -0.2 0.9 0.1
v -0.2 0.9 -2.98023e-08
v -0.1 0 -2.98023e-08
v -0.1 0 -0.2
v -0.1 0.1 -2.98023e-08
v -0.1 0.1 -0.1
v -0.1 0.1 -0.2
v -0.1 0.2 -0.1
v -0.1 0.2 -0.2
v -0.1 0.9 0.2
v -0.1 0.9 0.1
v -0.1 0.9 -0.1
v -0.1 1.2 0.2
v -0.1 1.2 -0.1
v 0.1 0 0.2
v 0.1 0 -2.98023e-08
v 0.1 0.1 0.2
v 0.1 0.1 0.1
v 0.1 0.1 -2.98023e-08
v 0.1 0.2 0.1
v 0.1 0.2 -2.98023e-08
v 0.1 0.2 -0.1
v 0.1 0.3 0.1
v 0.1 0.3 -0.1
v 0.1 0.4 0.2
v 0.1 0.4 0.1
v 0.1 0.5 0.1
v 0.1 0.6 0.2
v 0.1 0.6 0.1
v 2.98023e-08 0 -2.98023e-08
v 2.98023e-08 0 -0.2
v 2.98023e-08 0.1 -2.98023e-08
v 2.98023e-08 0.1 -0.1
v 2.98023e-08 0.1 -0.2
v 2.98023e-08 0.2 -2.98023e-08
v 2.98023e-08 0.2 -0.1
v 2.98023e-08 0.2 -0.2
v 2.98023e-08 0.3 -2.98023e-08
v 2.98023e-08 0.3 -0.2
v 2.98023e-08 0.4 0.2
v 2.98023e-08 0.4 0.1
v 2.98023e-08 0.5 0.1
v 2.98023e-08 0.6 0.2
v 2.98023e-08 0.6 0.1
v 0.2 0 0.2
v 0.2 0 -2.98023e-08
v 0.2 0.1 0.2
v 0.2 0.1 0.1
v 0.2 0.1 -2.98023e-08
v 0.2 0.2 0.1
v 0.2 0.2 -2.98023e-08
v 0.2 0.9 0.2
v 0.2 0.9 0.1
v 0.2 0.9 -0.1
v 0.2 1.2 0.2
v 0.2 1.2 -0.1
v 0.3 0.2 0.1
v 0.3 0.2 -0.1
v 0.3 0.3 -0.1
v 0.3 0.3 -0.2
v 0.3 0.4 0.1
v 0.3 0.5 0.1
v 0.3 0.5 -2.98023e-08
v 0.3 0.5 -0.2
v 0.3 0.6 -2.98023e-08
v 0.3 0.6 -0.1
v 0.3 0.6 -0.2
v 0.3 0.7 0.1
v 0.3 0.7 -2.98023e-08
v 0.3 0.7 -0.1
v 0.3 0.7 -0.2
v 0.3 0.9 0.1
v 0.3 0.9 -2.98023e-08
v 0.4 0.4 0.2
v 0.4 0.4 0.1
v 0.4 0.5 0.1
v 0.4 0.5 -2.98023e-08
v 0.4 0.6 -2.98023e-08
v 0.4 0.6 -0.1
v 0.4 0.7 0.2
v 0.4 0.7 -2.98023e-08
v 0.4 0.7 -0.1
v 0.4 0.7 -0.2
v 0.4 0.9 -2.98023e-08
v 0.4 0.9 -0.2
v -0.3 0.4 0.2
v -0.3 0.7 0.2
v -0.1 0.9 0.2
v -0.1 1.2 0.2
v 2.98023e-08 0.4 0.2
v 2.98023e-08 0.6 0.2
v 2.98023e-08 0.7 0.2
v 0.1 0 0.2
v 0.1 0.1 0.2
v 0.1 0.4 0.2
v 0.1 0.6 0.2
v 0.1 0.7 0.2
v 0.2 0 0.2
v 0.2 0.1 0.2
v 0.2 0.9 0.2
v 0.2 1.2 0.2
v 0.4 0.4 0.2
v 0.4 0.7 0.2
v -0.2 0.3 0.1
v -0.2 0.4 0.1
v -0.2 0.7 0.1
v -0.2 0.9 0.1
v -0.1 0.9 0.1
v 2.98023e-08 0.4 0.1
v 2.98023e-08 0.5 0.1
v 2.98023e-08 0.6 0.1
v 2.98023e-08 0.7 0.1
v 2.98023e-08 0.8 0.1
v 2.98023e-08 0.9 0.1
v 0.1 0.1 0.1
v 0.1 0.2 0.1
v 0.1 0.3 0.1
v 0.1 0.4 0.1
v 0.1 0.5 0.1
v 0.1 0.6 0.1
v 0.1 0.7 0.1
v 0.1 0.8 0.1
v 0.1 0.9 0.1
v 0.2 0.1 0.1
v 0.2 0.2 0.1
v 0.2 0.9 0.1
v 0.3 0.2 0.1
v 0.3 0.4 0.1
v 0.3 0.7 0.1
v 0.3 0.9 0.1
v -0.3 0.7 -2.98023e-08
v -0.3 0.9 -2.98023e-08
v -0.2 0.2 -2.98023e-08
v -0.2 0.3 -2.98023e-08
v -0.2 0.7 -2.98023e-08
v -0.2 0.9 -2.98023e-08
v -0.1 0 -2.98023e-08
v -0.1 0.1 -2.98023e-08
v 2.98023e-08 0 -2.98023e-08
v 2.98023e-08 0.1 -2.98023e-08
v 2.98023e-08 0.2 -2.98023e-08
v 2.98023e-08 0.3 -2.98023e-08
v 0.3 0.7 -2.98023e-08
v 0.3 0.9 -2.98023e-08
v 0.4 0.7 -2.98023e-08
v 0.4 0.9 -2.98023e-08
v -0.1 0.1 -0.1
v -0.1 0.2 -0.1
v 2.98023e-08 0.1 -0.1
v 2.98023e-08 0.2 -0.1
v -0.3 0.4 0.1
v -0.3 0.5 0.1
v -0.2 0.4 0.1
v -0.2 0.5 0.1
v 0.3 0.4 0.1
v 0.3 0.5 0.1
v 0.4 0.4 0.1
v 0.4 0.5 0.1
v -0.3 0.5 -2.98023e-08
v -0.3 0.6 -2.98023e-08
v -0.2 0.5 -2.98023e-08
v -0.2 0.6 -2.98023e-08
v 0.1 0 -2.98023e-08
v 0.1 0.1 -2.98023e-08
v 0.1 0.2 -2.98023e-08
v 0.2 0 -2.98023e-08
v 0.2 0.1 -2.98023e-08
v 0.2 0.2 -2.98023e-08
v 0.3 0.5 -2.98023e-08
v 0.3 0.6 -2.98023e-08
v 0.4 0.5 -2.98023e-08
v 0.4 0.6 -2.98023e-08
v -0.3 0.6 -0.1
v -0.3 0.7 -0.1
v -0.2 0.6 -0.1
v -0.2 0.7 -0.1
v -0.1 0.9 -0.1
v -0.1 1.2 -0.1
v 0.1 0.2 -0.1
v 0.1 0.3 -0.1
v 0.2 0.9 -0.1
v 0.2 1.2 -0.1
v 0.3 0.2 -0.1
v 0.3 0.3 -0.1
v 0.3 0.6 -0.1
v 0.3 0.7 -0.1
v 0.4 0.6 -0.1
v 0.4 0.7 -0.1
v -0.3 0.7 -0.2
v -0.3 0.9 -0.2
v -0.2 0.2 -0.2
v -0.2 0.5 -0.2
v -0.2 0.6 -0.2
v -0.2 0.7 -0.2
v -0.1 0 -0.2
v -0.1 0.1 -0.2
v -0.1 0.2 -0.2
v 2.98023e-08 0 -0.2
v 2.98023e-08 0.1 -0.2
v 2.98023e-08 0.2 -0.2
v 2.98023e-08 0.3 -0.2
v 0.3 0.3 -0.2
v 0.3 0.5 -0.2
v 0.3 0.6 -0.2
v 0.3 0.7 -0.2
v 0.4 0.7 -0.2
v 0.4 0.9 -0.2
v 0.1 0 0.2
v 0.2 0 0.2
v -0.1 0 -2.98023e-08
v 2.98023e-08 0 -2.98023e-08
v 0.1 0 -2.98023e-08
v 0.2 0 -2.98023e-08
v -0.1 0 -0.2
v 2.98023e-08 0 -0.2
v 0.2 0.2 0.1
v 0.3 0.2 0.1
v -0.2 0.2 -2.98023e-08
v 2.98023e-08 0.2 -2.98023e-08
v 0.1 0.2 -2.98023e-08
v 0.2 0.2 -2.98023e-08
v -0.1 0.2 -0.1
v 2.98023e-08 0.2 -0.1
v 0.1 0.2 -0.1
v 0.3 0.2 -0.1
v -0.2 0.2 -0.2
v -0.1 0.2 -0.2
v -0.2 0.3 0.1
v 0.1 0.3 0.1
v -0.2 0.3 -2.98023e-08
v 2.98023e-08 0.3 -2.98023e-08
v 0.1 0.3 -0.1
v 0.3 0.3 -0.1
v 2.98023e-08 0.3 -0.2
v 0.3 0.3 -0.2
v -0.3 0.4 0.2
v 2.98023e-08 0.4 0.2
v 0.1 0.4 0.2
v 0.4 0.4 0.2
v -0.3 0.4 0.1
v -0.2 0.4 0.1
v 2.98023e-08 0.4 0.1
v 0.1 0.4 0.1
v 0.3 0.4 0.1
v 0.4 0.4 0.1
v -0.3 0.5 0.1
v -0.2 0.5 0.1
v 0.3 0.5 0.1
v 0.4 0.5 0.1
v -0.3 0.5 -2.98023e-08
v -0.2 0.5 -2.98023e-08
v 0.3 0.5 -2.98023e-08
v 0.4 0.5 -2.98023e-08
v 2.98023e-08 0.6 0.2
v 0.1 0.6 0.2
v 2.98023e-08 0.6 0.1
v 0.1 0.6 0.1
v -0.3 0.6 -2.98023e-08
v -0.2 0.6 -2.98023e-08
v 0.3 0.6 -2.98023e-08
v 0.4 0.6 -2.98023e-08
v -0.3 0.6 -0.1
v -0.2 0.6 -0.1
v 0.3 0.6 -0.1
v 0.4 0.6 -0.1
v -0.3 0.7 -0.1
v -0.2 0.7 -0.1
v 0.3 0.7 -0.1
v 0.4 0.7 -0.1
v -0.3 0.7 -0.2
v -0.2 0.7 -0.2
v 0.3 0.7 -0.2
v 0.4 0.7 -0.2
v -0.1 0.9 0.2
v 0.2 0.9 0.2
v -0.1 0.9 0.1
v 2.98023e-08 0.9 0.1
v 0.1 0.9 0.1
v 0.2 0.9 0.1
v 0.1 0.1 0.2
v 0.2 0.1 0.2
v 0.1 0.1 0.1
v 0.2 0.1 0.1
v -0.1 0.1 -2.98023e-08
v 2.98023e-08 0.1 -2.98023e-08
v -0.1 0.1 -0.1
v 2.98023e-08 0.1 -0.1
v -0.3 0.7 0.2
v 2.98023e-08 0.7 0.2
v 0.1 0.7 0.2
v 0.4 0.7 0.2
v -0.2 0.7 0.1
v 2.98023e-08 0.7 0.1
v 0.1 0.7 0.1
v 0.3 0.7 0.1
v -0.3 0.7 -2.98023e-08
v -0.2 0.7 -2.98023e-08
v 0.3 0.7 -2.98023e-08
v 0.4 0.7 -2.98023e-08
v -0.2 0.9 0.1
v -0.1 0.9 0.1
v 0.2 0.9 0.1
v 0.3 0.9 0.1
v -0.3 0.9 -2.98023e-08
v -0.2 0.9 -2.98023e-08
v 0.3 0.9 -2.98023e-08
v 0.4 0.9 -2.98023e-08
v -0.1 0.9 -0.1
v 0.2 0.9 -0.1
v -0.3 0.9 -0.2
v 0.4 0.9 -0.2
v -0.1 1.2 0.2
v 0.2 1.2 0.2
v -0.1 1.2 -0.1
v 0.2 1.2 -0.1

# faces
f 3/2/1 2/2/1 1/2/1
f 5/2/1 4/2/1 3/2/1
f 7/2/1 3/2/1 1/2/1
f 7/2/1 6/2/1 5/2/1
f 7/2/1 5/2/1 3/2/1
f 8/2/1 6/2/1 7/2/1
f 9/2/1 6/2/1 8/2/1
f 11/2/1 10/2/1 9/2/1
f 11/2/1 9/2/1 8/2/1
f 12/2/1 10/2/1 11/2/1
f 16/2/1 14/2/1 13/2/1
f 17/2/1 16/2/1 15/2/1
f 18/2/1 16/2/1 17/2/1
f 19/2/1 14/2/1 16/2/1
f 19/2/1 16/2/1 18/2/1
f 20/2/1 14/2/1 19/2/1
f 21/3/1 20/3/1 19/3/1
f 22/3/1 20/3/1 21/3/1
f 23/3/1 20/3/1 22/3/1
f 26/2/1 23/2/1 22/2/1
f 27/2/1 23/2/1 26/2/1
f 28/2/1 25/2/1 24/2/1
f 29/2/1 25/2/1 28/2/1
f 32/3/1 31/3/1 30/3/1
f 33/3/1 31/3/1 32/3/1
f 34/3/1 31/3/1 33/3/1
f 35/1/1 34/1/1 33/1/1
f 36/1/1 34/1/1 35/1/1
f 40/1/1 38/1/1 37/1/1
f 40/1/1 39/1/1 38/1/1
f 41/1/1 39/1/1 40/1/1
f 44/3/1 43/3/1 42/3/1
f 45/3/1 43/3/1 44/3/1
f 46/3/1 43/3/1 45/3/1
f 47/1/1 46/1/1 45/1/1
f 48/1/1 46/1/1 47/1/1
f 50/2/1 48/2/1 47/2/1
f 50/2/1 49/2/1 48/2/1
f 51/2/1 49/2/1 50/2/1
f 54/2/1 53/2/1 52/2/1
f 55/2/1 54/2/1 52/2/1
f 56/2/1 54/2/1 55/2/1
f 57/3/2 58/3/2 59/3/2
f 59/3/2 58/3/2 60/3/2
f 60/3/2 58/3/2 61/3/2
f 60/1/2 61/1/2 63/1/2
f 63/1/2 61/1/2 64/1/2
f 62/2/2 63/2/2 65/2/2
f 63/2/2 64/2/2 65/2/2
f 65/2/2 64/2/2 66/2/2
f 67/2/2 68/2/2 69/2/2
f 67/2/2 69/2/2 70/2/2
f 70/2/2 69/2/2 71/2/2
f 72/3/2 73/3/2 74/3/2
f 74/3/2 73/3/2 75/3/2
f 75/3/2 73/3/2 76/3/2
f 75/1/2 76/1/2 77/1/2
f 77/1/2 76/1/2 78/1/2
f 79/1/2 80/1/2 82/1/2
f 80/1/2 81/1/2 82/1/2
f 82/1/2 81/1/2 83/1/2
f 84/2/2 85/2/2 86/2/2
f 84/2/2 86/2/2 88/2/2
f 86/2/2 87/2/2 88/2/2
f 88/2/2 87/2/2 89/2/2
f 89/2/2 87/2/2 90/2/2
f 90/2/2 87/2/2 91/2/2
f 90/3/2 91/3/2 92/3/2
f 92/3/2 91/3/2 93/3/2
f 93/3/2 91/3/2 94/3/2
f 93/2/2 94/2/2 97/2/2
f 97/2/2 94/2/2 98/2/2
f 95/2/2 96/2/2 99/2/2
f 99/2/2 96/2/2 100/2/2
f 101/2/2 102/2/2 103/2/2
f 103/2/2 104/2/2 105/2/2
f 101/2/2 103/2/2 107/2/2
f 105/2/2 106/2/2 107/2/2
f 103/2/2 105/2/2 107/2/2
f 107/2/2 106/2/2 108/2/2
f 108/2/2 106/2/2 109/2/2
f 109/2/2 110/2/2 111/2/2
f 108/2/2 109/2/2 111/2/2
f 111/2/2 110/2/2 112/2/2
f 117/2/3 114/2/3 113/2/3
f 118/2/3 114/2/3 117/2/3
f 119/2/3 114/2/3 118/2/3
f 123/1/3 119/1/3 118/1/3
f 124/1/3 119/1/3 123/1/3
f 125/3/3 121/3/3 120/3/3
f 126/3/3 121/3/3 125/3/3
f 127/1/3 116/1/3 115/1/3
f 128/1/3 116/1/3 127/1/3
f 129/2/3 124/2/3 123/2/3
f 129/2/3 123/2/3 122/2/3
f 130/2/3 124/2/3 129/2/3
f 135/2/3 134/2/3 133/2/3
f 136/2/3 132/2/3 131/2/3
f 139/2/3 135/2/3 133/2/3
f 140/2/3 135/2/3 139/2/3
f 141/2/3 135/2/3 140/2/3
f 144/2/3 136/2/3 131/2/3
f 144/2/3 137/2/3 136/2/3
f 145/2/3 137/2/3 144/2/3
f 146/3/3 138/3/3 137/3/3
f 146/2/3 137/2/3 145/2/3
f 147/3/3 138/3/3 146/3/3
f 148/2/3 140/2/3 139/2/3
f 149/1/3 141/1/3 140/1/3
f 149/2/3 140/2/3 148/2/3
f 150/1/3 141/1/3 149/1/3
f 151/1/3 143/1/3 142/1/3
f 152/2/3 145/2/3 144/2/3
f 152/1/3 143/1/3 151/1/3
f 152/2/3 144/2/3 143/2/3
f 153/2/3 150/2/3 149/2/3
f 153/2/3 149/2/3 148/2/3
f 154/2/3 145/2/3 152/2/3
f 155/2/3 145/2/3 154/2/3
f 156/2/3 153/2/3 148/2/3
f 157/2/3 153/2/3 156/2/3
f 162/2/3 159/2/3 158/2/3
f 163/2/3 159/2/3 162/2/3
f 166/3/3 165/3/3 164/3/3
f 167/3/3 165/3/3 166/3/3
f 168/2/3 161/2/3 160/2/3
f 169/2/3 161/2/3 168/2/3
f 172/2/3 171/2/3 170/2/3
f 173/2/3 171/2/3 172/2/3
f 176/1/3 175/1/3 174/1/3
f 177/1/3 175/1/3 176/1/3
f 178/2/4 179/2/4 180/2/4
f 180/2/4 179/2/4 181/2/4
f 182/2/4 183/2/4 184/2/4
f 184/2/4 183/2/4 185/2/4
f 186/2/4 187/2/4 188/2/4
f 188/2/4 187/2/4 189/2/4
f 190/3/4 191/3/4 193/3/4
f 191/1/4 192/1/4 194/1/4
f 193/3/4 191/3/4 194/3/4
f 194/1/4 192/1/4 195/1/4
f 196/2/4 197/2/4 198/2/4
f 198/2/4 197/2/4 199/2/4
f 200/2/4 201/2/4 202/2/4
f 202/2/4 201/2/4 203/2/4
f 204/1/4 205/1/4 208/1/4
f 208/1/4 205/1/4 209/1/4
f 206/2/4 207/2/4 210/2/4
f 210/2/4 207/2/4 211/2/4
f 212/2/4 213/2/4 214/2/4
f 214/2/4 213/2/4 215/2/4
f 216/2/4 217/2/4 221/2/4
f 218/2/4 219/2/4 224/2/4
f 222/3/4 223/3/4 225/3/4
f 223/1/4 224/1/4 226/1/4
f 225/3/4 223/3/4 226/3/4
f 224/2/4 219/2/4 227/2/4
f 226/1/4 224/1/4 227/1/4
f 227/2/4 219/2/4 228/2/4
f 228/2/4 219/2/4 229/2/4
f 219/3/4 220/3/4 230/3/4
f 229/2/4 219/2/4 230/2/4
f 220/2/4 221/2/4 231/2/4
f 230/3/4 220/3/4 231/3/4
f 221/2/4 217/2/4 232/2/4
f 231/2/4 221/2/4 232/2/4
f 232/2/4 217/2/4 233/2/4
f 233/2/4 217/2/4 234/2/4
f 239/3/5 236/3/5 235/3/5
f 240/3/5 236/3/5 239/3/5
f 241/3/5 238/3/5 237/3/5
f 242/3/5 238/3/5 241/3/5
f 248/2/5 244/2/5 243/2/5
f 249/2/5 246/2/5 245/2/5
f 250/2/5 246/2/5 249/2/5
f 251/2/5 248/2/5 247/2/5
f 252/2/5 244/2/5 248/2/5
f 252/2/5 248/2/5 251/2/5
f 253/2/5 249/2/5 245/2/5
f 254/2/5 249/2/5 253/2/5
f 257/2/5 256/2/5 255/2/5
f 258/2/5 256/2/5 257/2/5
f 259/2/5 256/2/5 258/2/5
f 261/2/5 259/2/5 258/2/5
f 261/2/5 260/2/5 259/2/5
f 262/2/5 260/2/5 261/2/5
f 267/2/5 264/2/5 263/2/5
f 268/2/5 264/2/5 267/2/5
f 269/2/5 264/2/5 268/2/5
f 270/2/5 266/2/5 265/2/5
f 271/2/5 266/2/5 270/2/5
f 272/2/5 266/2/5 271/2/5
f 277/2/5 274/2/5 273/2/5
f 278/2/5 274/2/5 277/2/5
f 279/2/5 276/2/5 275/2/5
f 280/2/5 276/2/5 279/2/5
f 283/1/5 282/1/5 281/1/5
f 284/1/5 282/1/5 283/1/5
f 289/2/5 286/2/5 285/2/5
f 290/2/5 286/2/5 289/2/5
f 291/2/5 288/2/5 287/2/5
f 292/2/5 288/2/5 291/2/5
f 297/2/5 294/2/5 293/2/5
f 298/2/5 294/2/5 297/2/5
f 299/2/5 296/2/5 295/2/5
f 300/2/5 296/2/5 299/2/5
f 303/1/5 302/1/5 301/1/5
f 304/1/5 302/1/5 303/1/5
f 305/1/5 302/1/5 304/1/5
f 306/1/5 302/1/5 305/1/5
f 307/3/6 308/3/6 309/3/6
f 309/3/6 308/3/6 310/3/6
f 311/3/6 312/3/6 313/3/6
f 313/3/6 312/3/6 314/3/6
f 315/2/6 316/2/6 319/2/6
f 316/1/6 317/1/6 320/1/6
f 319/2/6 316/2/6 320/2/6
f 317/2/6 318/2/6 321/2/6
f 320/1/6 317/1/6 321/1/6
f 321/2/6 318/2/6 322/2/6
f 315/2/6 319/2/6 323/2/6
f 323/2/6 319/2/6 324/2/6
f 322/2/6 318/2/6 325/2/6
f 325/2/6 318/2/6 326/2/6
f 327/2/6 328/2/6 332/2/6
f 329/2/6 330/2/6 333/2/6
f 331/2/6 332/2/6 335/2/6
f 332/2/6 328/2/6 335/2/6
f 333/2/6 334/2/6 336/2/6
f 329/2/6 333/2/6 336/2/6
f 331/2/6 335/2/6 337/2/6
f 335/2/6 336/2/6 337/2/6
f 336/2/6 334/2/6 338/2/6
f 337/2/6 336/2/6 338/2/6
f 339/1/6 340/1/6 341/1/6
f 341/1/6 340/1/6 342/1/6
