# MagicaVoxel @ Ephtracy

# group
o 

# material
mtllib dungeon_a_b_outer_wall_corner_c.mtl
usemtl palette

# normals
vn -1 0 0
vn 1 0 0
vn 0 0 1
vn 0 0 -1
vn 0 -1 0
vn 0 1 0

# texcoords
vt 0.791016 0.5
vt 0.943359 0.5

# verts
v -0.7 0 0.7
v -0.7 0 -0.8
v -0.7 1.7 0.7
v -0.7 1.7 -0.8
v 0.7 0.2 0.7
v 0.7 0.2 0.6
v 0.7 0.3 0.7
v 0.7 0.3 0.6
v 0.7 0.4 0.7
v 0.7 0.4 0.6
v 0.7 0.7 0.7
v 0.7 0.7 0.6
v 0.7 0.8 0.7
v 0.7 0.8 0.6
v 0.7 1.1 0.7
v 0.7 1.1 0.6
v 0.7 1.2 0.7
v 0.7 1.2 0.6
v 0.7 1.5 0.7
v 0.7 1.5 0.6
v 0.7 1.6 0.7
v 0.7 1.6 0.6
v 0.7 1.7 0.7
v 0.7 1.7 0.6
v 0.8 0 0.7
v 0.8 0 -0.8
v 0.8 0.2 0.7
v 0.8 0.2 0.6
v 0.8 0.2 0.5
v 0.8 0.3 0.6
v 0.8 0.3 0.5
v 0.8 0.4 0.6
v 0.8 0.4 0.5
v 0.8 0.7 0.6
v 0.8 0.7 0.5
v 0.8 0.8 0.6
v 0.8 0.8 0.5
v 0.8 1.1 0.6
v 0.8 1.1 0.5
v 0.8 1.2 0.6
v 0.8 1.2 0.5
v 0.8 1.5 0.6
v 0.8 1.5 0.5
v 0.8 1.6 0.6
v 0.8 1.6 0.5
v 0.8 1.7 0.6
v 0.8 1.7 0.5
v 0.8 1.7 -0.8
v -0.7 0 0.7
v -0.7 1.7 0.7
v 0.6 0.2 0.7
v 0.6 0.3 0.7
v 0.6 0.4 0.7
v 0.6 0.7 0.7
v 0.6 0.8 0.7
v 0.6 1.1 0.7
v 0.6 1.2 0.7
v 0.6 1.5 0.7
v 0.6 1.6 0.7
v 0.6 1.7 0.7
v 0.7 0.2 0.7
v 0.7 0.3 0.7
v 0.7 0.4 0.7
v 0.7 0.7 0.7
v 0.7 0.8 0.7
v 0.7 1.1 0.7
v 0.7 1.2 0.7
v 0.7 1.5 0.7
v 0.7 1.6 0.7
v 0.7 1.7 0.7
v 0.8 0 0.7
v 0.8 0.2 0.7
v 0.7 0.2 0.6
v 0.7 0.3 0.6
v 0.7 0.4 0.6
v 0.7 0.7 0.6
v 0.7 0.8 0.6
v 0.7 1.1 0.6
v 0.7 1.2 0.6
v 0.7 1.5 0.6
v 0.7 1.6 0.6
v 0.7 1.7 0.6
v 0.8 0.2 0.6
v 0.8 0.3 0.6
v 0.8 0.4 0.6
v 0.8 0.7 0.6
v 0.8 0.8 0.6
v 0.8 1.1 0.6
v 0.8 1.2 0.6
v 0.8 1.5 0.6
v 0.8 1.6 0.6
v 0.8 1.7 0.6
v -0.7 0 -0.8
v -0.7 1.7 -0.8
v 0.8 0 -0.8
v 0.8 1.7 -0.8
v -0.7 0 0.7
v 0.8 0 0.7
v -0.7 0 -0.8
v 0.8 0 -0.8
v 0.7 0.2 0.7
v 0.8 0.2 0.7
v 0.7 0.2 0.6
v 0.8 0.2 0.6
v -0.7 1.7 0.7
v 0.6 1.7 0.7
v 0.7 1.7 0.7
v 0.7 1.7 0.6
v 0.8 1.7 0.6
v 0.6 1.7 0.5
v 0.8 1.7 0.5
v -0.7 1.7 -0.8
v 0.8 1.7 -0.8

# faces
f 3/2/1 2/2/1 1/2/1
f 4/2/1 2/2/1 3/2/1
f 5/1/2 6/1/2 7/1/2
f 7/1/2 6/1/2 8/1/2
f 7/2/2 8/2/2 9/2/2
f 9/2/2 8/2/2 10/2/2
f 9/1/2 10/1/2 11/1/2
f 11/1/2 10/1/2 12/1/2
f 11/2/2 12/2/2 13/2/2
f 13/2/2 12/2/2 14/2/2
f 13/1/2 14/1/2 15/1/2
f 15/1/2 14/1/2 16/1/2
f 15/2/2 16/2/2 17/2/2
f 17/2/2 16/2/2 18/2/2
f 17/1/2 18/1/2 19/1/2
f 19/1/2 18/1/2 20/1/2
f 19/2/2 20/2/2 21/2/2
f 21/2/2 20/2/2 22/2/2
f 21/1/2 22/1/2 23/1/2
f 23/1/2 22/1/2 24/1/2
f 25/2/2 26/2/2 27/2/2
f 27/2/2 26/2/2 28/2/2
f 28/2/2 26/2/2 29/2/2
f 28/1/2 29/1/2 30/1/2
f 29/2/2 26/2/2 31/2/2
f 30/1/2 29/1/2 31/1/2
f 30/2/2 31/2/2 32/2/2
f 31/2/2 26/2/2 33/2/2
f 32/2/2 31/2/2 33/2/2
f 32/1/2 33/1/2 34/1/2
f 33/2/2 26/2/2 35/2/2
f 34/1/2 33/1/2 35/1/2
f 34/2/2 35/2/2 36/2/2
f 35/2/2 26/2/2 37/2/2
f 36/2/2 35/2/2 37/2/2
f 36/1/2 37/1/2 38/1/2
f 37/2/2 26/2/2 39/2/2
f 38/1/2 37/1/2 39/1/2
f 38/2/2 39/2/2 40/2/2
f 39/2/2 26/2/2 41/2/2
f 40/2/2 39/2/2 41/2/2
f 40/1/2 41/1/2 42/1/2
f 41/2/2 26/2/2 43/2/2
f 42/1/2 41/1/2 43/1/2
f 42/2/2 43/2/2 44/2/2
f 43/2/2 26/2/2 45/2/2
f 44/2/2 43/2/2 45/2/2
f 44/1/2 45/1/2 46/1/2
f 45/2/2 26/2/2 47/2/2
f 46/1/2 45/1/2 47/1/2
f 47/2/2 26/2/2 48/2/2
f 51/2/3 50/2/3 49/2/3
f 52/2/3 50/2/3 51/2/3
f 53/2/3 50/2/3 52/2/3
f 54/2/3 50/2/3 53/2/3
f 55/2/3 50/2/3 54/2/3
f 56/2/3 50/2/3 55/2/3
f 57/2/3 50/2/3 56/2/3
f 58/2/3 50/2/3 57/2/3
f 59/2/3 50/2/3 58/2/3
f 60/2/3 50/2/3 59/2/3
f 61/2/3 51/2/3 49/2/3
f 61/1/3 52/1/3 51/1/3
f 62/2/3 53/2/3 52/2/3
f 62/1/3 52/1/3 61/1/3
f 63/1/3 54/1/3 53/1/3
f 63/2/3 53/2/3 62/2/3
f 64/2/3 55/2/3 54/2/3
f 64/1/3 54/1/3 63/1/3
f 65/1/3 56/1/3 55/1/3
f 65/2/3 55/2/3 64/2/3
f 66/2/3 57/2/3 56/2/3
f 66/1/3 56/1/3 65/1/3
f 67/1/3 58/1/3 57/1/3
f 67/2/3 57/2/3 66/2/3
f 68/2/3 59/2/3 58/2/3
f 68/1/3 58/1/3 67/1/3
f 69/1/3 60/1/3 59/1/3
f 69/2/3 59/2/3 68/2/3
f 70/1/3 60/1/3 69/1/3
f 71/2/3 61/2/3 49/2/3
f 72/2/3 61/2/3 71/2/3
f 83/1/3 74/1/3 73/1/3
f 84/2/3 75/2/3 74/2/3
f 84/1/3 74/1/3 83/1/3
f 85/1/3 76/1/3 75/1/3
f 85/2/3 75/2/3 84/2/3
f 86/2/3 77/2/3 76/2/3
f 86/1/3 76/1/3 85/1/3
f 87/1/3 78/1/3 77/1/3
f 87/2/3 77/2/3 86/2/3
f 88/2/3 79/2/3 78/2/3
f 88/1/3 78/1/3 87/1/3
f 89/1/3 80/1/3 79/1/3
f 89/2/3 79/2/3 88/2/3
f 90/2/3 81/2/3 80/2/3
f 90/1/3 80/1/3 89/1/3
f 91/1/3 82/1/3 81/1/3
f 91/2/3 81/2/3 90/2/3
f 92/1/3 82/1/3 91/1/3
f 93/2/4 94/2/4 95/2/4
f 95/2/4 94/2/4 96/2/4
f 99/2/5 98/2/5 97/2/5
f 100/2/5 98/2/5 99/2/5
f 101/2/6 102/2/6 103/2/6
f 103/2/6 102/2/6 104/2/6
f 106/1/6 107/1/6 108/1/6
f 105/2/6 106/2/6 110/2/6
f 108/1/6 109/1/6 110/1/6
f 106/1/6 108/1/6 110/1/6
f 110/1/6 109/1/6 111/1/6
f 105/2/6 110/2/6 112/2/6
f 110/2/6 111/2/6 112/2/6
f 112/2/6 111/2/6 113/2/6
