# MagicaVoxel @ Ephtracy

# group
o 

# material
mtllib door_b_b.mtl
usemtl palette

# normals
vn -1 0 0
vn 1 0 0
vn 0 0 1
vn 0 0 -1
vn 0 -1 0
vn 0 1 0

# texcoords
vt 0.783203 0.5
vt 0.814453 0.5
vt 0.880859 0.5

# verts
v -0.7 0 0.1
v -0.7 0 -0.2
v -0.7 0.3 0.2
v -0.7 0.3 0.1
v -0.7 0.3 -0.2
v -0.7 0.3 -0.3
v -0.7 0.5 0.2
v -0.7 0.5 0.1
v -0.7 0.5 -0.2
v -0.7 0.5 -0.3
v -0.7 1.1 0.2
v -0.7 1.1 0.1
v -0.7 1.1 -0.2
v -0.7 1.1 -0.3
v -0.7 1.3 0.2
v -0.7 1.3 0.1
v -0.7 1.3 -0.2
v -0.7 1.3 -0.3
v -0.7 1.6 0.1
v -0.7 1.6 -0.2
v 0.3 0.6 0.2
v 0.3 0.6 0.1
v 0.3 0.9 0.2
v 0.3 0.9 0.1
v 0.5 0.7 0.2
v 0.5 0.7 0.1
v 0.5 0.8 0.2
v 0.5 0.8 0.1
v 0.4 0.7 0.2
v 0.4 0.7 0.1
v 0.4 0.8 0.2
v 0.4 0.8 0.1
v 0.6 0.6 0.2
v 0.6 0.6 0.1
v 0.6 0.9 0.2
v 0.6 0.9 0.1
v 0.8 0 0.1
v 0.8 0 -0.2
v 0.8 0.3 0.2
v 0.8 0.3 0.1
v 0.8 0.3 -0.2
v 0.8 0.3 -0.3
v 0.8 0.5 0.2
v 0.8 0.5 0.1
v 0.8 0.5 -0.2
v 0.8 0.5 -0.3
v 0.8 1.1 0.2
v 0.8 1.1 0.1
v 0.8 1.1 -0.2
v 0.8 1.1 -0.3
v 0.8 1.3 0.2
v 0.8 1.3 0.1
v 0.8 1.3 -0.2
v 0.8 1.3 -0.3
v 0.8 1.6 0.1
v 0.8 1.6 -0.2
v -0.7 0.3 0.2
v -0.7 0.5 0.2
v -0.7 1.1 0.2
v -0.7 1.3 0.2
v 0.3 0.6 0.2
v 0.3 0.9 0.2
v 0.4 0.7 0.2
v 0.4 0.8 0.2
v 0.5 0.7 0.2
v 0.5 0.8 0.2
v 0.6 0.6 0.2
v 0.6 0.9 0.2
v 0.8 0.3 0.2
v 0.8 0.5 0.2
v 0.8 1.1 0.2
v 0.8 1.3 0.2
v -0.7 0 0.1
v -0.7 0.3 0.1
v -0.7 0.5 0.1
v -0.7 1.1 0.1
v -0.7 1.3 0.1
v -0.7 1.6 0.1
v -0.4 0 0.1
v -0.4 0.3 0.1
v -0.4 0.5 0.1
v -0.4 1.1 0.1
v -0.4 1.3 0.1
v -0.4 1.6 0.1
v -0.3 0 0.1
v -0.3 0.3 0.1
v -0.3 0.5 0.1
v -0.3 1.1 0.1
v -0.3 1.3 0.1
v -0.3 1.6 0.1
v 0 0 0.1
v 0 0.3 0.1
v 0 0.5 0.1
v 0 1.1 0.1
v 0 1.3 0.1
v 0 1.6 0.1
v 0.1 0 0.1
v 0.1 0.3 0.1
v 0.1 0.5 0.1
v 0.1 1.1 0.1
v 0.1 1.3 0.1
v 0.1 1.6 0.1
v 0.3 0.6 0.1
v 0.3 0.9 0.1
v 0.4 0 0.1
v 0.4 0.3 0.1
v 0.4 0.5 0.1
v 0.4 0.6 0.1
v 0.4 0.7 0.1
v 0.4 0.8 0.1
v 0.4 0.9 0.1
v 0.4 1 0.1
v 0.4 1.1 0.1
v 0.4 1.3 0.1
v 0.4 1.6 0.1
v 0.5 0 0.1
v 0.5 0.3 0.1
v 0.5 0.5 0.1
v 0.5 0.6 0.1
v 0.5 0.7 0.1
v 0.5 0.8 0.1
v 0.5 0.9 0.1
v 0.5 1 0.1
v 0.5 1.1 0.1
v 0.5 1.3 0.1
v 0.5 1.6 0.1
v 0.6 0.6 0.1
v 0.6 0.9 0.1
v 0.8 0 0.1
v 0.8 0.3 0.1
v 0.8 0.5 0.1
v 0.8 1.1 0.1
v 0.8 1.3 0.1
v 0.8 1.6 0.1
v -0.7 0 -0.2
v -0.7 0.3 -0.2
v -0.7 0.5 -0.2
v -0.7 1.1 -0.2
v -0.7 1.3 -0.2
v -0.7 1.6 -0.2
v -0.4 0 -0.2
v -0.4 0.3 -0.2
v -0.4 0.5 -0.2
v -0.4 1.1 -0.2
v -0.4 1.3 -0.2
v -0.4 1.6 -0.2
v -0.3 0 -0.2
v -0.3 0.3 -0.2
v -0.3 0.5 -0.2
v -0.3 1.1 -0.2
v -0.3 1.3 -0.2
v -0.3 1.6 -0.2
v 0 0 -0.2
v 0 0.3 -0.2
v 0 0.5 -0.2
v 0 1.1 -0.2
v 0 1.3 -0.2
v 0 1.6 -0.2
v 0.1 0 -0.2
v 0.1 0.3 -0.2
v 0.1 0.5 -0.2
v 0.1 1.1 -0.2
v 0.1 1.3 -0.2
v 0.1 1.6 -0.2
v 0.4 0 -0.2
v 0.4 0.3 -0.2
v 0.4 0.5 -0.2
v 0.4 1.1 -0.2
v 0.4 1.3 -0.2
v 0.4 1.6 -0.2
v 0.5 0 -0.2
v 0.5 0.3 -0.2
v 0.5 0.5 -0.2
v 0.5 1.1 -0.2
v 0.5 1.3 -0.2
v 0.5 1.6 -0.2
v 0.8 0 -0.2
v 0.8 0.3 -0.2
v 0.8 0.5 -0.2
v 0.8 1.1 -0.2
v 0.8 1.3 -0.2
v 0.8 1.6 -0.2
v -0.7 0.3 -0.3
v -0.7 0.5 -0.3
v -0.7 1.1 -0.3
v -0.7 1.3 -0.3
v 0.8 0.3 -0.3
v 0.8 0.5 -0.3
v 0.8 1.1 -0.3
v 0.8 1.3 -0.3
v -0.7 0 0.1
v -0.4 0 0.1
v -0.3 0 0.1
v 0 0 0.1
v 0.1 0 0.1
v 0.4 0 0.1
v 0.5 0 0.1
v 0.8 0 0.1
v -0.7 0 -0.2
v -0.4 0 -0.2
v -0.3 0 -0.2
v 0 0 -0.2
v 0.1 0 -0.2
v 0.4 0 -0.2
v 0.5 0 -0.2
v 0.8 0 -0.2
v -0.7 0.3 0.2
v 0.8 0.3 0.2
v -0.7 0.3 0.1
v -0.4 0.3 0.1
v -0.3 0.3 0.1
v 0 0.3 0.1
v 0.1 0.3 0.1
v 0.4 0.3 0.1
v 0.5 0.3 0.1
v 0.8 0.3 0.1
v -0.7 0.3 -0.2
v -0.4 0.3 -0.2
v -0.3 0.3 -0.2
v 0 0.3 -0.2
v 0.1 0.3 -0.2
v 0.4 0.3 -0.2
v 0.5 0.3 -0.2
v 0.8 0.3 -0.2
v -0.7 0.3 -0.3
v 0.8 0.3 -0.3
v 0.3 0.6 0.2
v 0.6 0.6 0.2
v 0.3 0.6 0.1
v 0.4 0.6 0.1
v 0.5 0.6 0.1
v 0.6 0.6 0.1
v 0.4 0.8 0.2
v 0.5 0.8 0.2
v 0.4 0.8 0.1
v 0.5 0.8 0.1
v -0.7 1.1 0.2
v 0.8 1.1 0.2
v -0.7 1.1 0.1
v -0.4 1.1 0.1
v -0.3 1.1 0.1
v 0 1.1 0.1
v 0.1 1.1 0.1
v 0.4 1.1 0.1
v 0.5 1.1 0.1
v 0.8 1.1 0.1
v -0.7 1.1 -0.2
v -0.4 1.1 -0.2
v -0.3 1.1 -0.2
v 0 1.1 -0.2
v 0.1 1.1 -0.2
v 0.4 1.1 -0.2
v 0.5 1.1 -0.2
v 0.8 1.1 -0.2
v -0.7 1.1 -0.3
v 0.8 1.1 -0.3
v -0.7 0.5 0.2
v 0.8 0.5 0.2
v -0.7 0.5 0.1
v -0.4 0.5 0.1
v -0.3 0.5 0.1
v 0 0.5 0.1
v 0.1 0.5 0.1
v 0.4 0.5 0.1
v 0.5 0.5 0.1
v 0.8 0.5 0.1
v -0.7 0.5 -0.2
v -0.4 0.5 -0.2
v -0.3 0.5 -0.2
v 0 0.5 -0.2
v 0.1 0.5 -0.2
v 0.4 0.5 -0.2
v 0.5 0.5 -0.2
v 0.8 0.5 -0.2
v -0.7 0.5 -0.3
v 0.8 0.5 -0.3
v 0.4 0.7 0.2
v 0.5 0.7 0.2
v 0.4 0.7 0.1
v 0.5 0.7 0.1
v 0.3 0.9 0.2
v 0.6 0.9 0.2
v 0.3 0.9 0.1
v 0.4 0.9 0.1
v 0.5 0.9 0.1
v 0.6 0.9 0.1
v -0.7 1.3 0.2
v 0.8 1.3 0.2
v -0.7 1.3 0.1
v -0.4 1.3 0.1
v -0.3 1.3 0.1
v 0 1.3 0.1
v 0.1 1.3 0.1
v 0.4 1.3 0.1
v 0.5 1.3 0.1
v 0.8 1.3 0.1
v -0.7 1.3 -0.2
v -0.4 1.3 -0.2
v -0.3 1.3 -0.2
v 0 1.3 -0.2
v 0.1 1.3 -0.2
v 0.4 1.3 -0.2
v 0.5 1.3 -0.2
v 0.8 1.3 -0.2
v -0.7 1.3 -0.3
v 0.8 1.3 -0.3
v -0.7 1.6 0.1
v -0.4 1.6 0.1
v -0.3 1.6 0.1
v 0 1.6 0.1
v 0.1 1.6 0.1
v 0.4 1.6 0.1
v 0.5 1.6 0.1
v 0.8 1.6 0.1
v -0.7 1.6 -0.2
v -0.4 1.6 -0.2
v -0.3 1.6 -0.2
v 0 1.6 -0.2
v 0.1 1.6 -0.2
v 0.4 1.6 -0.2
v 0.5 1.6 -0.2
v 0.8 1.6 -0.2

# faces
f 4/1/1 2/1/1 1/1/1
f 5/1/1 2/1/1 4/1/1
f 7/3/1 4/3/1 3/3/1
f 7/3/1 6/3/1 5/3/1
f 7/3/1 5/3/1 4/3/1
f 8/3/1 6/3/1 7/3/1
f 9/3/1 6/3/1 8/3/1
f 10/3/1 6/3/1 9/3/1
f 12/1/1 9/1/1 8/1/1
f 13/1/1 9/1/1 12/1/1
f 15/3/1 12/3/1 11/3/1
f 15/3/1 14/3/1 13/3/1
f 15/3/1 13/3/1 12/3/1
f 16/3/1 14/3/1 15/3/1
f 17/3/1 14/3/1 16/3/1
f 18/3/1 14/3/1 17/3/1
f 19/1/1 17/1/1 16/1/1
f 20/1/1 17/1/1 19/1/1
f 23/3/1 22/3/1 21/3/1
f 24/3/1 22/3/1 23/3/1
f 27/3/1 26/3/1 25/3/1
f 28/3/1 26/3/1 27/3/1
f 29/3/2 30/3/2 31/3/2
f 31/3/2 30/3/2 32/3/2
f 33/3/2 34/3/2 35/3/2
f 35/3/2 34/3/2 36/3/2
f 37/1/2 38/1/2 40/1/2
f 40/1/2 38/1/2 41/1/2
f 39/3/2 40/3/2 43/3/2
f 41/3/2 42/3/2 43/3/2
f 40/3/2 41/3/2 43/3/2
f 43/3/2 42/3/2 44/3/2
f 44/3/2 42/3/2 45/3/2
f 45/3/2 42/3/2 46/3/2
f 44/1/2 45/1/2 48/1/2
f 48/1/2 45/1/2 49/1/2
f 47/3/2 48/3/2 51/3/2
f 49/3/2 50/3/2 51/3/2
f 48/3/2 49/3/2 51/3/2
f 51/3/2 50/3/2 52/3/2
f 52/3/2 50/3/2 53/3/2
f 53/3/2 50/3/2 54/3/2
f 52/1/2 53/1/2 55/1/2
f 55/1/2 53/1/2 56/1/2
f 63/3/3 62/3/3 61/3/3
f 64/3/3 62/3/3 63/3/3
f 65/3/3 63/3/3 61/3/3
f 66/3/3 62/3/3 64/3/3
f 67/3/3 65/3/3 61/3/3
f 67/3/3 66/3/3 65/3/3
f 68/3/3 62/3/3 66/3/3
f 68/3/3 66/3/3 67/3/3
f 69/3/3 58/3/3 57/3/3
f 70/3/3 58/3/3 69/3/3
f 71/3/3 60/3/3 59/3/3
f 72/3/3 60/3/3 71/3/3
f 79/1/3 74/1/3 73/1/3
f 80/1/3 74/1/3 79/1/3
f 81/1/3 76/1/3 75/1/3
f 82/1/3 76/1/3 81/1/3
f 83/1/3 78/1/3 77/1/3
f 84/1/3 78/1/3 83/1/3
f 85/2/3 80/2/3 79/2/3
f 86/2/3 80/2/3 85/2/3
f 87/2/3 82/2/3 81/2/3
f 88/2/3 82/2/3 87/2/3
f 89/2/3 84/2/3 83/2/3
f 90/2/3 84/2/3 89/2/3
f 91/1/3 86/1/3 85/1/3
f 92/1/3 86/1/3 91/1/3
f 93/1/3 88/1/3 87/1/3
f 94/1/3 88/1/3 93/1/3
f 95/1/3 90/1/3 89/1/3
f 96/1/3 90/1/3 95/1/3
f 97/2/3 92/2/3 91/2/3
f 98/2/3 92/2/3 97/2/3
f 99/2/3 94/2/3 93/2/3
f 100/2/3 94/2/3 99/2/3
f 101/2/3 96/2/3 95/2/3
f 102/2/3 96/2/3 101/2/3
f 103/1/3 100/1/3 99/1/3
f 104/1/3 100/1/3 103/1/3
f 105/1/3 98/1/3 97/1/3
f 106/1/3 98/1/3 105/1/3
f 107/1/3 103/1/3 99/1/3
f 108/1/3 103/1/3 107/1/3
f 111/1/3 100/1/3 104/1/3
f 112/1/3 100/1/3 111/1/3
f 113/1/3 100/1/3 112/1/3
f 114/1/3 102/1/3 101/1/3
f 115/1/3 102/1/3 114/1/3
f 116/2/3 106/2/3 105/2/3
f 117/2/3 106/2/3 116/2/3
f 118/2/3 108/2/3 107/2/3
f 119/2/3 108/2/3 118/2/3
f 120/2/3 110/2/3 109/2/3
f 121/2/3 110/2/3 120/2/3
f 122/3/3 112/3/3 111/3/3
f 123/2/3 113/2/3 112/2/3
f 123/3/3 112/3/3 122/3/3
f 124/2/3 113/2/3 123/2/3
f 125/2/3 115/2/3 114/2/3
f 126/2/3 115/2/3 125/2/3
f 127/1/3 119/1/3 118/1/3
f 128/1/3 124/1/3 123/1/3
f 128/1/3 123/1/3 122/1/3
f 129/1/3 117/1/3 116/1/3
f 130/1/3 117/1/3 129/1/3
f 131/1/3 128/1/3 127/1/3
f 131/1/3 127/1/3 118/1/3
f 132/1/3 124/1/3 128/1/3
f 132/1/3 128/1/3 131/1/3
f 133/1/3 126/1/3 125/1/3
f 134/1/3 126/1/3 133/1/3
f 135/1/4 136/1/4 141/1/4
f 141/1/4 136/1/4 142/1/4
f 137/1/4 138/1/4 143/1/4
f 143/1/4 138/1/4 144/1/4
f 139/1/4 140/1/4 145/1/4
f 145/1/4 140/1/4 146/1/4
f 141/2/4 142/2/4 147/2/4
f 147/2/4 142/2/4 148/2/4
f 143/2/4 144/2/4 149/2/4
f 149/2/4 144/2/4 150/2/4
f 145/2/4 146/2/4 151/2/4
f 151/2/4 146/2/4 152/2/4
f 147/1/4 148/1/4 153/1/4
f 153/1/4 148/1/4 154/1/4
f 149/1/4 150/1/4 155/1/4
f 155/1/4 150/1/4 156/1/4
f 151/1/4 152/1/4 157/1/4
f 157/1/4 152/1/4 158/1/4
f 153/2/4 154/2/4 159/2/4
f 159/2/4 154/2/4 160/2/4
f 155/2/4 156/2/4 161/2/4
f 161/2/4 156/2/4 162/2/4
f 157/2/4 158/2/4 163/2/4
f 163/2/4 158/2/4 164/2/4
f 159/1/4 160/1/4 165/1/4
f 165/1/4 160/1/4 166/1/4
f 161/1/4 162/1/4 167/1/4
f 167/1/4 162/1/4 168/1/4
f 163/1/4 164/1/4 169/1/4
f 169/1/4 164/1/4 170/1/4
f 165/2/4 166/2/4 171/2/4
f 171/2/4 166/2/4 172/2/4
f 167/2/4 168/2/4 173/2/4
f 173/2/4 168/2/4 174/2/4
f 169/2/4 170/2/4 175/2/4
f 175/2/4 170/2/4 176/2/4
f 171/1/4 172/1/4 177/1/4
f 177/1/4 172/1/4 178/1/4
f 173/1/4 174/1/4 179/1/4
f 179/1/4 174/1/4 180/1/4
f 175/1/4 176/1/4 181/1/4
f 181/1/4 176/1/4 182/1/4
f 183/3/4 184/3/4 187/3/4
f 187/3/4 184/3/4 188/3/4
f 185/3/4 186/3/4 189/3/4
f 189/3/4 186/3/4 190/3/4
f 199/1/5 192/1/5 191/1/5
f 200/2/5 193/2/5 192/2/5
f 200/1/5 192/1/5 199/1/5
f 201/1/5 194/1/5 193/1/5
f 201/2/5 193/2/5 200/2/5
f 202/2/5 195/2/5 194/2/5
f 202/1/5 194/1/5 201/1/5
f 203/1/5 196/1/5 195/1/5
f 203/2/5 195/2/5 202/2/5
f 204/2/5 197/2/5 196/2/5
f 204/1/5 196/1/5 203/1/5
f 205/1/5 198/1/5 197/1/5
f 205/2/5 197/2/5 204/2/5
f 206/1/5 198/1/5 205/1/5
f 209/3/5 208/3/5 207/3/5
f 210/3/5 208/3/5 209/3/5
f 211/3/5 208/3/5 210/3/5
f 212/3/5 208/3/5 211/3/5
f 213/3/5 208/3/5 212/3/5
f 214/3/5 208/3/5 213/3/5
f 215/3/5 208/3/5 214/3/5
f 216/3/5 208/3/5 215/3/5
f 225/3/5 218/3/5 217/3/5
f 225/3/5 224/3/5 223/3/5
f 225/3/5 223/3/5 222/3/5
f 225/3/5 222/3/5 221/3/5
f 225/3/5 221/3/5 220/3/5
f 225/3/5 220/3/5 219/3/5
f 225/3/5 219/3/5 218/3/5
f 226/3/5 224/3/5 225/3/5
f 229/3/5 228/3/5 227/3/5
f 230/3/5 228/3/5 229/3/5
f 231/3/5 228/3/5 230/3/5
f 232/3/5 228/3/5 231/3/5
f 235/3/5 234/3/5 233/3/5
f 236/3/5 234/3/5 235/3/5
f 239/3/5 238/3/5 237/3/5
f 240/3/5 238/3/5 239/3/5
f 241/3/5 238/3/5 240/3/5
f 242/3/5 238/3/5 241/3/5
f 243/3/5 238/3/5 242/3/5
f 244/3/5 238/3/5 243/3/5
f 245/3/5 238/3/5 244/3/5
f 246/3/5 238/3/5 245/3/5
f 255/3/5 248/3/5 247/3/5
f 255/3/5 254/3/5 253/3/5
f 255/3/5 253/3/5 252/3/5
f 255/3/5 252/3/5 251/3/5
f 255/3/5 251/3/5 250/3/5
f 255/3/5 250/3/5 249/3/5
f 255/3/5 249/3/5 248/3/5
f 256/3/5 254/3/5 255/3/5
f 257/3/6 258/3/6 259/3/6
f 259/3/6 258/3/6 260/3/6
f 260/3/6 258/3/6 261/3/6
f 261/3/6 258/3/6 262/3/6
f 262/3/6 258/3/6 263/3/6
f 263/3/6 258/3/6 264/3/6
f 264/3/6 258/3/6 265/3/6
f 265/3/6 258/3/6 266/3/6
f 267/3/6 268/3/6 275/3/6
f 273/3/6 274/3/6 275/3/6
f 272/3/6 273/3/6 275/3/6
f 271/3/6 272/3/6 275/3/6
f 270/3/6 271/3/6 275/3/6
f 269/3/6 270/3/6 275/3/6
f 268/3/6 269/3/6 275/3/6
f 275/3/6 274/3/6 276/3/6
f 277/3/6 278/3/6 279/3/6
f 279/3/6 278/3/6 280/3/6
f 281/3/6 282/3/6 283/3/6
f 283/3/6 282/3/6 284/3/6
f 284/3/6 282/3/6 285/3/6
f 285/3/6 282/3/6 286/3/6
f 287/3/6 288/3/6 289/3/6
f 289/3/6 288/3/6 290/3/6
f 290/3/6 288/3/6 291/3/6
f 291/3/6 288/3/6 292/3/6
f 292/3/6 288/3/6 293/3/6
f 293/3/6 288/3/6 294/3/6
f 294/3/6 288/3/6 295/3/6
f 295/3/6 288/3/6 296/3/6
f 297/3/6 298/3/6 305/3/6
f 303/3/6 304/3/6 305/3/6
f 302/3/6 303/3/6 305/3/6
f 301/3/6 302/3/6 305/3/6
f 300/3/6 301/3/6 305/3/6
f 299/3/6 300/3/6 305/3/6
f 298/3/6 299/3/6 305/3/6
f 305/3/6 304/3/6 306/3/6
f 307/1/6 308/1/6 315/1/6
f 308/2/6 309/2/6 316/2/6
f 315/1/6 308/1/6 316/1/6
f 309/1/6 310/1/6 317/1/6
f 316/2/6 309/2/6 317/2/6
f 310/2/6 311/2/6 318/2/6
f 317/1/6 310/1/6 318/1/6
f 311/1/6 312/1/6 319/1/6
f 318/2/6 311/2/6 319/2/6
f 312/2/6 313/2/6 320/2/6
f 319/1/6 312/1/6 320/1/6
f 313/1/6 314/1/6 321/1/6
f 320/2/6 313/2/6 321/2/6
f 321/1/6 314/1/6 322/1/6
