# MagicaVoxel @ Ephtracy

# group
o 

# material
mtllib werewolf_action_0.mtl
usemtl palette

# normals
vn -1 0 0
vn 1 0 0
vn 0 0 1
vn 0 0 -1
vn 0 -1 0
vn 0 1 0

# texcoords
vt 0.814453 0.5
vt 0.943359 0.5
vt 0.947266 0.5

# verts
v -0.7 0.7 -2.98023e-08
v -0.7 0.7 -0.1
v -0.7 0.8 -2.98023e-08
v -0.7 0.8 -0.1
v -0.7 0.8 -0.2
v -0.7 0.9 -2.98023e-08
v -0.7 0.9 -0.1
v -0.7 0.9 -0.2
v -0.7 1 -2.98023e-08
v -0.7 1 -0.1
v -0.6 0.8 -2.98023e-08
v -0.6 0.8 -0.1
v -0.6 0.9 -2.98023e-08
v -0.6 0.9 -0.1
v -0.4 0.8 -0.1
v -0.4 0.8 -0.3
v -0.4 0.9 -0.1
v -0.4 1 -0.1
v -0.4 1 -0.3
v -0.2 0.5 -2.98023e-08
v -0.2 0.5 -0.2
v -0.2 0.8 -0.1
v -0.2 0.8 -0.2
v -0.2 0.9 -2.98023e-08
v -0.2 0.9 -0.1
v -0.1 0.1 0.1
v -0.1 0.1 -2.98023e-08
v -0.1 0.2 0.1
v -0.1 0.2 -2.98023e-08
v -0.1 0.2 -0.1
v -0.1 0.3 0.1
v -0.1 0.3 -2.98023e-08
v -0.1 0.3 -0.1
v -0.1 0.3 -0.2
v -0.1 0.4 0.1
v -0.1 0.4 -2.98023e-08
v -0.1 0.5 -2.98023e-08
v -0.1 0.5 -0.2
v -0.1 0.6 0.1
v -0.1 0.6 -2.98023e-08
v -0.1 0.9 0.3
v -0.1 0.9 0.2
v -0.1 0.9 -2.98023e-08
v -0.1 0.9 -0.1
v -0.1 1 0.3
v -0.1 1 0.2
v -0.1 1 0.1
v -0.1 1.2 0.3
v -0.1 1.2 -2.98023e-08
v -0.1 1.3 -2.98023e-08
v -0.1 1.3 -0.1
v 0.1 0 -2.98023e-08
v 0.1 0 -0.1
v 0.1 0.1 -2.98023e-08
v 0.1 0.1 -0.1
v 0.1 0.1 -0.2
v 0.1 0.2 -2.98023e-08
v 0.1 0.2 -0.1
v 0.1 0.2 -0.2
v 0.1 0.3 -2.98023e-08
v 0.1 0.3 -0.1
v 0.1 0.9 0.3
v 0.1 0.9 0.2
v 0.1 1 0.3
v 0.1 1 0.2
v 0.1 1.2 -2.98023e-08
v 0.1 1.2 -0.1
v 0.1 1.3 -2.98023e-08
v 0.1 1.3 -0.1
v 0.3 0.8 -0.2
v 0.3 0.8 -0.3
v 0.3 0.9 -0.1
v 0.3 0.9 -0.2
v 0.3 1 -0.1
v 0.3 1 -0.3
v 0.4 0.8 -2.98023e-08
v 0.4 0.8 -0.1
v 0.4 0.9 -2.98023e-08
v 0.4 0.9 -0.1
v 0.6 0.7 -2.98023e-08
v 0.6 0.7 -0.1
v 0.6 0.8 -2.98023e-08
v 0.6 0.8 -0.1
v 0.6 0.8 -0.2
v 0.6 0.9 -2.98023e-08
v 0.6 0.9 -0.1
v 0.6 0.9 -0.2
v 0.6 1 -2.98023e-08
v 0.6 1 -0.1
v -0.5 0.7 -2.98023e-08
v -0.5 0.7 -0.1
v -0.5 0.8 -2.98023e-08
v -0.5 0.8 -0.1
v -0.5 0.8 -0.2
v -0.5 0.9 -2.98023e-08
v -0.5 0.9 -0.1
v -0.5 0.9 -0.2
v -0.5 1 -2.98023e-08
v -0.5 1 -0.1
v -0.3 0.8 -2.98023e-08
v -0.3 0.8 -0.1
v -0.3 0.9 -2.98023e-08
v -0.3 0.9 -0.1
v -0.2 0.8 -0.2
v -0.2 0.8 -0.3
v -0.2 0.9 -0.1
v -0.2 0.9 -0.2
v -0.2 1 -0.1
v -0.2 1 -0.3
v 0 0.1 0.1
v 0 0.1 -2.98023e-08
v 0 0.2 0.1
v 0 0.2 -2.98023e-08
v 0 0.2 -0.1
v 0 0.3 0.1
v 0 0.3 -2.98023e-08
v 0 0.3 -0.1
v 0 0.4 0.1
v 0 0.4 -2.98023e-08
v 0 0.9 0.3
v 0 0.9 0.2
v 0 1 0.3
v 0 1 0.2
v 0 1.2 -2.98023e-08
v 0 1.2 -0.1
v 0 1.3 -2.98023e-08
v 0 1.3 -0.1
v 0.2 0 -2.98023e-08
v 0.2 0 -0.1
v 0.2 0.1 -2.98023e-08
v 0.2 0.1 -0.1
v 0.2 0.1 -0.2
v 0.2 0.2 -2.98023e-08
v 0.2 0.2 -0.1
v 0.2 0.2 -0.2
v 0.2 0.3 -0.1
v 0.2 0.3 -0.2
v 0.2 0.5 -2.98023e-08
v 0.2 0.5 -0.2
v 0.2 0.6 0.1
v 0.2 0.6 -2.98023e-08
v 0.2 0.9 0.3
v 0.2 0.9 0.2
v 0.2 0.9 -2.98023e-08
v 0.2 0.9 -0.1
v 0.2 1 0.3
v 0.2 1 0.2
v 0.2 1 0.1
v 0.2 1.2 0.3
v 0.2 1.2 -2.98023e-08
v 0.2 1.3 -2.98023e-08
v 0.2 1.3 -0.1
v 0.3 0.5 -2.98023e-08
v 0.3 0.5 -0.2
v 0.3 0.8 -0.1
v 0.3 0.8 -0.2
v 0.3 0.9 -2.98023e-08
v 0.3 0.9 -0.1
v 0.5 0.8 -0.1
v 0.5 0.8 -0.3
v 0.5 0.9 -0.1
v 0.5 1 -0.1
v 0.5 1 -0.3
v 0.7 0.8 -2.98023e-08
v 0.7 0.8 -0.1
v 0.7 0.9 -2.98023e-08
v 0.7 0.9 -0.1
v 0.8 0.7 -2.98023e-08
v 0.8 0.7 -0.1
v 0.8 0.8 -2.98023e-08
v 0.8 0.8 -0.1
v 0.8 0.8 -0.2
v 0.8 0.9 -2.98023e-08
v 0.8 0.9 -0.1
v 0.8 0.9 -0.2
v 0.8 1 -2.98023e-08
v 0.8 1 -0.1
v -0.1 0.9 0.3
v -0.1 1 0.3
v -0.1 1.2 0.3
v 0 0.9 0.3
v 0 1 0.3
v 0 1.1 0.3
v 0 1.2 0.3
v 0.1 0.9 0.3
v 0.1 1 0.3
v 0.1 1.1 0.3
v 0.1 1.2 0.3
v 0.2 0.9 0.3
v 0.2 1 0.3
v 0.2 1.2 0.3
v -0.1 0.1 0.1
v -0.1 0.2 0.1
v -0.1 0.3 0.1
v -0.1 0.4 0.1
v -0.1 0.6 0.1
v -0.1 1 0.1
v 0 0.1 0.1
v 0 0.2 0.1
v 0 0.3 0.1
v 0 0.4 0.1
v 0.2 0.6 0.1
v 0.2 1 0.1
v -0.7 0.7 -2.98023e-08
v -0.7 0.8 -2.98023e-08
v -0.7 0.9 -2.98023e-08
v -0.7 1 -2.98023e-08
v -0.6 0.7 -2.98023e-08
v -0.6 0.8 -2.98023e-08
v -0.6 0.9 -2.98023e-08
v -0.6 1 -2.98023e-08
v -0.5 0.7 -2.98023e-08
v -0.5 0.8 -2.98023e-08
v -0.5 0.9 -2.98023e-08
v -0.5 1 -2.98023e-08
v -0.3 0.8 -2.98023e-08
v -0.3 0.9 -2.98023e-08
v -0.2 0.5 -2.98023e-08
v -0.2 0.9 -2.98023e-08
v -0.1 0.2 -2.98023e-08
v -0.1 0.3 -2.98023e-08
v -0.1 0.4 -2.98023e-08
v -0.1 0.5 -2.98023e-08
v -0.1 0.6 -2.98023e-08
v -0.1 0.9 -2.98023e-08
v -0.1 1.2 -2.98023e-08
v -0.1 1.3 -2.98023e-08
v 0 0.2 -2.98023e-08
v 0 0.3 -2.98023e-08
v 0 0.4 -2.98023e-08
v 0 1.2 -2.98023e-08
v 0 1.3 -2.98023e-08
v 0.1 0 -2.98023e-08
v 0.1 0.1 -2.98023e-08
v 0.1 0.2 -2.98023e-08
v 0.1 0.3 -2.98023e-08
v 0.1 1.2 -2.98023e-08
v 0.1 1.3 -2.98023e-08
v 0.2 0 -2.98023e-08
v 0.2 0.1 -2.98023e-08
v 0.2 0.2 -2.98023e-08
v 0.2 0.5 -2.98023e-08
v 0.2 0.6 -2.98023e-08
v 0.2 0.9 -2.98023e-08
v 0.2 1.2 -2.98023e-08
v 0.2 1.3 -2.98023e-08
v 0.3 0.5 -2.98023e-08
v 0.3 0.9 -2.98023e-08
v 0.4 0.8 -2.98023e-08
v 0.4 0.9 -2.98023e-08
v 0.6 0.7 -2.98023e-08
v 0.6 0.8 -2.98023e-08
v 0.6 0.9 -2.98023e-08
v 0.6 1 -2.98023e-08
v 0.7 0.7 -2.98023e-08
v 0.7 0.8 -2.98023e-08
v 0.7 0.9 -2.98023e-08
v 0.7 1 -2.98023e-08
v 0.8 0.7 -2.98023e-08
v 0.8 0.8 -2.98023e-08
v 0.8 0.9 -2.98023e-08
v 0.8 1 -2.98023e-08
v -0.7 0.8 -0.1
v -0.7 0.9 -0.1
v -0.6 0.8 -0.1
v -0.6 0.9 -0.1
v -0.4 0.9 -0.1
v -0.4 1 -0.1
v -0.3 0.8 -0.1
v -0.3 0.9 -0.1
v -0.2 0.8 -0.1
v -0.2 0.9 -0.1
v -0.2 1 -0.1
v 0.1 0.1 -0.1
v 0.1 0.2 -0.1
v 0.2 0.1 -0.1
v 0.2 0.2 -0.1
v 0.3 0.8 -0.1
v 0.3 0.9 -0.1
v 0.3 1 -0.1
v 0.4 0.8 -0.1
v 0.4 0.9 -0.1
v 0.5 0.9 -0.1
v 0.5 1 -0.1
v 0.7 0.8 -0.1
v 0.7 0.9 -0.1
v 0.8 0.8 -0.1
v 0.8 0.9 -0.1
v -0.1 0.9 0.2
v -0.1 1 0.2
v 0 0.9 0.2
v 0 1 0.2
v 0.1 0.9 0.2
v 0.1 1 0.2
v 0.2 0.9 0.2
v 0.2 1 0.2
v -0.1 0.1 -2.98023e-08
v -0.1 0.2 -2.98023e-08
v 0 0.1 -2.98023e-08
v 0 0.2 -2.98023e-08
v -0.7 0.7 -0.1
v -0.7 0.8 -0.1
v -0.7 0.9 -0.1
v -0.7 1 -0.1
v -0.6 0.7 -0.1
v -0.6 0.8 -0.1
v -0.6 0.9 -0.1
v -0.6 1 -0.1
v -0.5 0.7 -0.1
v -0.5 0.8 -0.1
v -0.5 0.9 -0.1
v -0.5 1 -0.1
v -0.4 0.8 -0.1
v -0.4 0.9 -0.1
v -0.1 0.2 -0.1
v -0.1 0.3 -0.1
v -0.1 0.9 -0.1
v -0.1 1.3 -0.1
v 0 0.2 -0.1
v 0 0.3 -0.1
v 0 1.2 -0.1
v 0 1.3 -0.1
v 0.1 0 -0.1
v 0.1 0.1 -0.1
v 0.1 0.2 -0.1
v 0.1 0.3 -0.1
v 0.1 1.2 -0.1
v 0.1 1.3 -0.1
v 0.2 0 -0.1
v 0.2 0.1 -0.1
v 0.2 0.2 -0.1
v 0.2 0.3 -0.1
v 0.2 0.9 -0.1
v 0.2 1.3 -0.1
v 0.5 0.8 -0.1
v 0.5 0.9 -0.1
v 0.6 0.7 -0.1
v 0.6 0.8 -0.1
v 0.6 0.9 -0.1
v 0.6 1 -0.1
v 0.7 0.7 -0.1
v 0.7 0.8 -0.1
v 0.7 0.9 -0.1
v 0.7 1 -0.1
v 0.8 0.7 -0.1
v 0.8 0.8 -0.1
v 0.8 0.9 -0.1
v 0.8 1 -0.1
v -0.7 0.8 -0.2
v -0.7 0.9 -0.2
v -0.6 0.8 -0.2
v -0.6 0.9 -0.2
v -0.5 0.8 -0.2
v -0.5 0.9 -0.2
v -0.2 0.5 -0.2
v -0.2 0.8 -0.2
v -0.2 0.9 -0.2
v -0.1 0.3 -0.2
v -0.1 0.5 -0.2
v 0.1 0.1 -0.2
v 0.1 0.2 -0.2
v 0.2 0.1 -0.2
v 0.2 0.2 -0.2
v 0.2 0.3 -0.2
v 0.2 0.5 -0.2
v 0.3 0.5 -0.2
v 0.3 0.8 -0.2
v 0.3 0.9 -0.2
v 0.6 0.8 -0.2
v 0.6 0.9 -0.2
v 0.7 0.8 -0.2
v 0.7 0.9 -0.2
v 0.8 0.8 -0.2
v 0.8 0.9 -0.2
v -0.4 0.8 -0.3
v -0.4 1 -0.3
v -0.2 0.8 -0.3
v -0.2 1 -0.3
v 0.3 0.8 -0.3
v 0.3 1 -0.3
v 0.5 0.8 -0.3
v 0.5 1 -0.3
v 0.1 0 -2.98023e-08
v 0.2 0 -2.98023e-08
v 0.1 0 -0.1
v 0.2 0 -0.1
v -0.1 0.1 0.1
v 0 0.1 0.1
v -0.1 0.1 -2.98023e-08
v 0 0.1 -2.98023e-08
v 0.1 0.1 -0.1
v 0.2 0.1 -0.1
v 0.1 0.1 -0.2
v 0.2 0.1 -0.2
v -0.1 0.2 -2.98023e-08
v 0 0.2 -2.98023e-08
v 0.1 0.2 -2.98023e-08
v 0.2 0.2 -2.98023e-08
v -0.1 0.2 -0.1
v 0 0.2 -0.1
v 0.1 0.2 -0.1
v 0.2 0.2 -0.1
v -0.1 0.3 0.1
v 0 0.3 0.1
v -0.1 0.3 -2.98023e-08
v 0 0.3 -2.98023e-08
v 0.1 0.3 -2.98023e-08
v -0.1 0.3 -0.1
v 0 0.3 -0.1
v 0.1 0.3 -0.1
v 0.2 0.3 -0.1
v -0.1 0.3 -0.2
v 0.2 0.3 -0.2
v -0.2 0.5 -2.98023e-08
v -0.1 0.5 -2.98023e-08
v 0.2 0.5 -2.98023e-08
v 0.3 0.5 -2.98023e-08
v -0.2 0.5 -0.2
v -0.1 0.5 -0.2
v 0.2 0.5 -0.2
v 0.3 0.5 -0.2
v -0.1 0.6 0.1
v 0.2 0.6 0.1
v -0.1 0.6 -2.98023e-08
v 0.2 0.6 -2.98023e-08
v -0.7 0.7 -2.98023e-08
v -0.6 0.7 -2.98023e-08
v -0.5 0.7 -2.98023e-08
v 0.6 0.7 -2.98023e-08
v 0.7 0.7 -2.98023e-08
v 0.8 0.7 -2.98023e-08
v -0.7 0.7 -0.1
v -0.6 0.7 -0.1
v -0.5 0.7 -0.1
v 0.6 0.7 -0.1
v 0.7 0.7 -0.1
v 0.8 0.7 -0.1
v -0.5 0.8 -2.98023e-08
v -0.3 0.8 -2.98023e-08
v 0.4 0.8 -2.98023e-08
v 0.6 0.8 -2.98023e-08
v -0.7 0.8 -0.1
v -0.6 0.8 -0.1
v -0.5 0.8 -0.1
v -0.4 0.8 -0.1
v -0.3 0.8 -0.1
v -0.2 0.8 -0.1
v 0.3 0.8 -0.1
v 0.4 0.8 -0.1
v 0.5 0.8 -0.1
v 0.6 0.8 -0.1
v 0.7 0.8 -0.1
v 0.8 0.8 -0.1
v -0.7 0.8 -0.2
v -0.6 0.8 -0.2
v -0.5 0.8 -0.2
v -0.2 0.8 -0.2
v 0.3 0.8 -0.2
v 0.6 0.8 -0.2
v 0.7 0.8 -0.2
v 0.8 0.8 -0.2
v -0.4 0.8 -0.3
v -0.2 0.8 -0.3
v 0.3 0.8 -0.3
v 0.5 0.8 -0.3
v -0.1 0.9 0.3
v 0 0.9 0.3
v 0.1 0.9 0.3
v 0.2 0.9 0.3
v -0.1 0.9 0.2
v 0 0.9 0.2
v 0.1 0.9 0.2
v 0.2 0.9 0.2
v -0.7 0.9 -2.98023e-08
v -0.6 0.9 -2.98023e-08
v 0.7 0.9 -2.98023e-08
v 0.8 0.9 -2.98023e-08
v -0.7 0.9 -0.1
v -0.6 0.9 -0.1
v 0.7 0.9 -0.1
v 0.8 0.9 -0.1
v 0 1 0.3
v 0.1 1 0.3
v -0.1 1 0.2
v 0 1 0.2
v 0.1 1 0.2
v 0.2 1 0.2
v -0.1 1 0.1
v 0.2 1 0.1
v 0.1 0.1 -2.98023e-08
v 0.2 0.1 -2.98023e-08
v 0.1 0.1 -0.1
v 0.2 0.1 -0.1
v -0.1 0.2 0.1
v 0 0.2 0.1
v -0.1 0.2 -2.98023e-08
v 0 0.2 -2.98023e-08
v 0.1 0.2 -0.1
v 0.2 0.2 -0.1
v 0.1 0.2 -0.2
v 0.2 0.2 -0.2
v -0.1 0.4 0.1
v 0 0.4 0.1
v -0.1 0.4 -2.98023e-08
v 0 0.4 -2.98023e-08
v -0.7 0.8 -2.98023e-08
v -0.6 0.8 -2.98023e-08
v 0.7 0.8 -2.98023e-08
v 0.8 0.8 -2.98023e-08
v -0.7 0.8 -0.1
v -0.6 0.8 -0.1
v 0.7 0.8 -0.1
v 0.8 0.8 -0.1
v -0.5 0.9 -2.98023e-08
v -0.3 0.9 -2.98023e-08
v -0.2 0.9 -2.98023e-08
v -0.1 0.9 -2.98023e-08
v 0.2 0.9 -2.98023e-08
v 0.3 0.9 -2.98023e-08
v 0.4 0.9 -2.98023e-08
v 0.6 0.9 -2.98023e-08
v -0.7 0.9 -0.1
v -0.6 0.9 -0.1
v -0.5 0.9 -0.1
v -0.4 0.9 -0.1
v -0.3 0.9 -0.1
v -0.2 0.9 -0.1
v -0.1 0.9 -0.1
v 0.2 0.9 -0.1
v 0.3 0.9 -0.1
v 0.4 0.9 -0.1
v 0.5 0.9 -0.1
v 0.6 0.9 -0.1
v 0.7 0.9 -0.1
v 0.8 0.9 -0.1
v -0.7 0.9 -0.2
v -0.6 0.9 -0.2
v -0.5 0.9 -0.2
v -0.2 0.9 -0.2
v 0.3 0.9 -0.2
v 0.6 0.9 -0.2
v 0.7 0.9 -0.2
v 0.8 0.9 -0.2
v -0.7 1 -2.98023e-08
v -0.6 1 -2.98023e-08
v -0.5 1 -2.98023e-08
v 0.6 1 -2.98023e-08
v 0.7 1 -2.98023e-08
v 0.8 1 -2.98023e-08
v -0.7 1 -0.1
v -0.6 1 -0.1
v -0.5 1 -0.1
v -0.4 1 -0.1
v -0.2 1 -0.1
v 0.3 1 -0.1
v 0.5 1 -0.1
v 0.6 1 -0.1
v 0.7 1 -0.1
v 0.8 1 -0.1
v -0.4 1 -0.3
v -0.2 1 -0.3
v 0.3 1 -0.3
v 0.5 1 -0.3
v -0.1 1.2 0.3
v 0 1.2 0.3
v 0.1 1.2 0.3
v 0.2 1.2 0.3
v 0 1.2 0.2
v 0.1 1.2 0.2
v -0.1 1.2 -2.98023e-08
v 0 1.2 -2.98023e-08
v 0.1 1.2 -2.98023e-08
v 0.2 1.2 -2.98023e-08
v 0 1.2 -0.1
v 0.1 1.2 -0.1
v -0.1 1.3 -2.98023e-08
v 0 1.3 -2.98023e-08
v 0.1 1.3 -2.98023e-08
v 0.2 1.3 -2.98023e-08
v -0.1 1.3 -0.1
v 0 1.3 -0.1
v 0.1 1.3 -0.1
v 0.2 1.3 -0.1

# faces
f 3/3/1 2/3/1 1/3/1
f 4/3/1 2/3/1 3/3/1
f 7/3/1 5/3/1 4/3/1
f 8/3/1 5/3/1 7/3/1
f 9/3/1 7/3/1 6/3/1
f 10/3/1 7/3/1 9/3/1
f 13/2/1 12/2/1 11/2/1
f 14/2/1 12/2/1 13/2/1
f 17/2/1 16/2/1 15/2/1
f 18/2/1 16/2/1 17/2/1
f 19/2/1 16/2/1 18/2/1
f 22/2/1 21/2/1 20/2/1
f 23/2/1 21/2/1 22/2/1
f 24/2/1 22/2/1 20/2/1
f 25/2/1 22/2/1 24/2/1
f 28/2/1 27/2/1 26/2/1
f 29/2/1 27/2/1 28/2/1
f 32/2/1 30/2/1 29/2/1
f 33/2/1 30/2/1 32/2/1
f 35/2/1 32/2/1 31/2/1
f 35/2/1 34/2/1 33/2/1
f 35/2/1 33/2/1 32/2/1
f 36/2/1 34/2/1 35/2/1
f 37/2/1 34/2/1 36/2/1
f 38/2/1 34/2/1 37/2/1
f 43/2/1 40/2/1 39/2/1
f 45/3/1 42/3/1 41/3/1
f 46/3/1 42/3/1 45/3/1
f 47/2/1 44/2/1 43/2/1
f 47/2/1 43/2/1 39/2/1
f 48/2/1 46/2/1 45/2/1
f 48/2/1 47/2/1 46/2/1
f 49/2/1 44/2/1 47/2/1
f 49/2/1 47/2/1 48/2/1
f 50/2/1 44/2/1 49/2/1
f 51/2/1 44/2/1 50/2/1
f 54/2/1 53/2/1 52/2/1
f 55/2/1 53/2/1 54/2/1
f 58/2/1 56/2/1 55/2/1
f 59/2/1 56/2/1 58/2/1
f 60/2/1 58/2/1 57/2/1
f 61/2/1 58/2/1 60/2/1
f 64/3/1 63/3/1 62/3/1
f 65/3/1 63/3/1 64/3/1
f 68/2/1 67/2/1 66/2/1
f 69/2/1 67/2/1 68/2/1
f 73/2/1 71/2/1 70/2/1
f 74/2/1 73/2/1 72/2/1
f 75/2/1 71/2/1 73/2/1
f 75/2/1 73/2/1 74/2/1
f 78/2/1 77/2/1 76/2/1
f 79/2/1 77/2/1 78/2/1
f 82/2/1 81/2/1 80/2/1
f 83/2/1 81/2/1 82/2/1
f 86/2/1 84/2/1 83/2/1
f 87/2/1 84/2/1 86/2/1
f 88/2/1 86/2/1 85/2/1
f 89/2/1 86/2/1 88/2/1
f 90/2/2 91/2/2 92/2/2
f 92/2/2 91/2/2 93/2/2
f 93/2/2 94/2/2 96/2/2
f 96/2/2 94/2/2 97/2/2
f 95/2/2 96/2/2 98/2/2
f 98/2/2 96/2/2 99/2/2
f 100/2/2 101/2/2 102/2/2
f 102/2/2 101/2/2 103/2/2
f 104/2/2 105/2/2 107/2/2
f 106/2/2 107/2/2 108/2/2
f 107/2/2 105/2/2 109/2/2
f 108/2/2 107/2/2 109/2/2
f 110/2/2 111/2/2 112/2/2
f 112/2/2 111/2/2 113/2/2
f 113/2/2 114/2/2 116/2/2
f 116/2/2 114/2/2 117/2/2
f 115/2/2 116/2/2 118/2/2
f 118/2/2 116/2/2 119/2/2
f 120/3/2 121/3/2 122/3/2
f 122/3/2 121/3/2 123/3/2
f 124/2/2 125/2/2 126/2/2
f 126/2/2 125/2/2 127/2/2
f 128/2/2 129/2/2 130/2/2
f 130/2/2 129/2/2 131/2/2
f 131/2/2 132/2/2 134/2/2
f 134/2/2 132/2/2 135/2/2
f 133/2/2 134/2/2 136/2/2
f 133/2/2 136/2/2 138/2/2
f 136/2/2 137/2/2 138/2/2
f 138/2/2 137/2/2 139/2/2
f 140/2/2 141/2/2 144/2/2
f 142/3/2 143/3/2 146/3/2
f 146/3/2 143/3/2 147/3/2
f 144/2/2 145/2/2 148/2/2
f 140/2/2 144/2/2 148/2/2
f 146/2/2 147/2/2 149/2/2
f 147/2/2 148/2/2 149/2/2
f 148/2/2 145/2/2 150/2/2
f 149/2/2 148/2/2 150/2/2
f 150/2/2 145/2/2 151/2/2
f 151/2/2 145/2/2 152/2/2
f 153/2/2 154/2/2 155/2/2
f 155/2/2 154/2/2 156/2/2
f 153/2/2 155/2/2 157/2/2
f 157/2/2 155/2/2 158/2/2
f 159/2/2 160/2/2 161/2/2
f 161/2/2 160/2/2 162/2/2
f 162/2/2 160/2/2 163/2/2
f 164/2/2 165/2/2 166/2/2
f 166/2/2 165/2/2 167/2/2
f 168/3/2 169/3/2 170/3/2
f 170/3/2 169/3/2 171/3/2
f 171/3/2 172/3/2 174/3/2
f 174/3/2 172/3/2 175/3/2
f 173/3/2 174/3/2 176/3/2
f 176/3/2 174/3/2 177/3/2
f 181/3/3 179/3/3 178/3/3
f 182/2/3 180/2/3 179/2/3
f 182/3/3 179/3/3 181/3/3
f 183/2/3 180/2/3 182/2/3
f 184/2/3 180/2/3 183/2/3
f 186/2/3 183/2/3 182/2/3
f 187/1/3 184/1/3 183/1/3
f 187/2/3 183/2/3 186/2/3
f 188/1/3 184/1/3 187/1/3
f 189/3/3 186/3/3 185/3/3
f 190/2/3 187/2/3 186/2/3
f 190/3/3 186/3/3 189/3/3
f 190/2/3 188/2/3 187/2/3
f 191/2/3 188/2/3 190/2/3
f 198/2/3 193/2/3 192/2/3
f 199/2/3 193/2/3 198/2/3
f 200/2/3 195/2/3 194/2/3
f 201/2/3 195/2/3 200/2/3
f 202/2/3 197/2/3 196/2/3
f 203/2/3 197/2/3 202/2/3
f 208/3/3 205/3/3 204/3/3
f 209/3/3 205/3/3 208/3/3
f 210/3/3 207/3/3 206/3/3
f 211/3/3 207/3/3 210/3/3
f 212/2/3 209/2/3 208/2/3
f 212/2/3 210/2/3 209/2/3
f 212/2/3 211/2/3 210/2/3
f 213/2/3 211/2/3 212/2/3
f 214/2/3 211/2/3 213/2/3
f 215/2/3 211/2/3 214/2/3
f 216/2/3 214/2/3 213/2/3
f 217/2/3 214/2/3 216/2/3
f 223/2/3 219/2/3 218/2/3
f 224/2/3 219/2/3 223/2/3
f 225/2/3 219/2/3 224/2/3
f 228/2/3 221/2/3 220/2/3
f 229/2/3 221/2/3 228/2/3
f 230/2/3 224/2/3 223/2/3
f 230/2/3 223/2/3 222/2/3
f 231/2/3 227/2/3 226/2/3
f 232/2/3 227/2/3 231/2/3
f 236/2/3 230/2/3 229/2/3
f 239/2/3 234/2/3 233/2/3
f 240/2/3 234/2/3 239/2/3
f 241/2/3 236/2/3 235/2/3
f 242/2/3 224/2/3 230/2/3
f 242/2/3 236/2/3 241/2/3
f 242/2/3 230/2/3 236/2/3
f 243/2/3 224/2/3 242/2/3
f 245/2/3 238/2/3 237/2/3
f 246/2/3 238/2/3 245/2/3
f 247/2/3 244/2/3 243/2/3
f 247/2/3 243/2/3 242/2/3
f 248/2/3 244/2/3 247/2/3
f 252/2/3 250/2/3 249/2/3
f 253/2/3 250/2/3 252/2/3
f 255/2/3 253/2/3 252/2/3
f 255/2/3 254/2/3 253/2/3
f 255/2/3 252/2/3 251/2/3
f 256/2/3 254/2/3 255/2/3
f 257/2/3 254/2/3 256/2/3
f 258/2/3 254/2/3 257/2/3
f 259/3/3 256/3/3 255/3/3
f 260/3/3 256/3/3 259/3/3
f 261/3/3 258/3/3 257/3/3
f 262/3/3 258/3/3 261/3/3
f 265/3/3 264/3/3 263/3/3
f 266/3/3 264/3/3 265/3/3
f 270/2/3 268/2/3 267/2/3
f 271/2/3 270/2/3 269/2/3
f 272/2/3 268/2/3 270/2/3
f 272/2/3 270/2/3 271/2/3
f 273/2/3 268/2/3 272/2/3
f 276/2/3 275/2/3 274/2/3
f 277/2/3 275/2/3 276/2/3
f 281/2/3 279/2/3 278/2/3
f 281/2/3 280/2/3 279/2/3
f 282/2/3 280/2/3 281/2/3
f 283/2/3 280/2/3 282/2/3
f 284/2/3 280/2/3 283/2/3
f 287/3/3 286/3/3 285/3/3
f 288/3/3 286/3/3 287/3/3
f 289/3/4 290/3/4 291/3/4
f 291/3/4 290/3/4 292/3/4
f 293/3/4 294/3/4 295/3/4
f 295/3/4 294/3/4 296/3/4
f 297/2/4 298/2/4 299/2/4
f 299/2/4 298/2/4 300/2/4
f 301/3/4 302/3/4 305/3/4
f 305/3/4 302/3/4 306/3/4
f 303/3/4 304/3/4 307/3/4
f 307/3/4 304/3/4 308/3/4
f 305/2/4 306/2/4 309/2/4
f 309/2/4 306/2/4 310/2/4
f 307/2/4 308/2/4 311/2/4
f 311/2/4 308/2/4 312/2/4
f 310/2/4 311/2/4 313/2/4
f 313/2/4 311/2/4 314/2/4
f 315/2/4 316/2/4 319/2/4
f 319/2/4 316/2/4 320/2/4
f 317/2/4 318/2/4 321/2/4
f 321/2/4 318/2/4 322/2/4
f 317/2/4 321/2/4 327/2/4
f 323/2/4 324/2/4 329/2/4
f 329/2/4 324/2/4 330/2/4
f 325/2/4 326/2/4 331/2/4
f 331/2/4 326/2/4 332/2/4
f 327/2/4 328/2/4 333/2/4
f 317/2/4 327/2/4 333/2/4
f 333/2/4 328/2/4 334/2/4
f 335/2/4 336/2/4 338/2/4
f 338/2/4 336/2/4 339/2/4
f 337/2/4 338/2/4 341/2/4
f 341/2/4 338/2/4 342/2/4
f 339/2/4 340/2/4 343/2/4
f 343/2/4 340/2/4 344/2/4
f 341/3/4 342/3/4 345/3/4
f 345/3/4 342/3/4 346/3/4
f 343/3/4 344/3/4 347/3/4
f 347/3/4 344/3/4 348/3/4
f 349/3/4 350/3/4 351/3/4
f 351/3/4 350/3/4 352/3/4
f 351/2/4 352/2/4 353/2/4
f 353/2/4 352/2/4 354/2/4
f 355/2/4 356/2/4 359/2/4
f 356/2/4 357/2/4 359/2/4
f 360/2/4 361/2/4 362/2/4
f 362/2/4 361/2/4 363/2/4
f 358/2/4 359/2/4 364/2/4
f 359/2/4 357/2/4 365/2/4
f 364/2/4 359/2/4 365/2/4
f 365/2/4 357/2/4 366/2/4
f 366/2/4 357/2/4 367/2/4
f 367/2/4 357/2/4 368/2/4
f 369/2/4 370/2/4 371/2/4
f 371/2/4 370/2/4 372/2/4
f 371/3/4 372/3/4 373/3/4
f 373/3/4 372/3/4 374/3/4
f 375/2/4 376/2/4 377/2/4
f 377/2/4 376/2/4 378/2/4
f 379/2/4 380/2/4 381/2/4
f 381/2/4 380/2/4 382/2/4
f 385/2/5 384/2/5 383/2/5
f 386/2/5 384/2/5 385/2/5
f 389/2/5 388/2/5 387/2/5
f 390/2/5 388/2/5 389/2/5
f 393/2/5 392/2/5 391/2/5
f 394/2/5 392/2/5 393/2/5
f 399/2/5 396/2/5 395/2/5
f 400/2/5 396/2/5 399/2/5
f 401/2/5 398/2/5 397/2/5
f 402/2/5 398/2/5 401/2/5
f 405/2/5 404/2/5 403/2/5
f 406/2/5 404/2/5 405/2/5
f 409/2/5 407/2/5 406/2/5
f 410/2/5 407/2/5 409/2/5
f 412/2/5 409/2/5 408/2/5
f 412/2/5 411/2/5 410/2/5
f 412/2/5 410/2/5 409/2/5
f 413/2/5 411/2/5 412/2/5
f 418/2/5 415/2/5 414/2/5
f 419/2/5 415/2/5 418/2/5
f 420/2/5 417/2/5 416/2/5
f 421/2/5 417/2/5 420/2/5
f 424/2/5 423/2/5 422/2/5
f 425/2/5 423/2/5 424/2/5
f 432/3/5 427/3/5 426/3/5
f 433/2/5 428/2/5 427/2/5
f 433/3/5 427/3/5 432/3/5
f 434/2/5 428/2/5 433/2/5
f 435/2/5 430/2/5 429/2/5
f 436/3/5 431/3/5 430/3/5
f 436/2/5 430/2/5 435/2/5
f 437/3/5 431/3/5 436/3/5
f 444/2/5 439/2/5 438/2/5
f 445/2/5 439/2/5 444/2/5
f 446/2/5 439/2/5 445/2/5
f 449/2/5 441/2/5 440/2/5
f 450/2/5 441/2/5 449/2/5
f 451/2/5 441/2/5 450/2/5
f 454/3/5 443/3/5 442/3/5
f 455/2/5 444/2/5 443/2/5
f 455/3/5 443/3/5 454/3/5
f 456/2/5 444/2/5 455/2/5
f 457/2/5 447/2/5 446/2/5
f 457/2/5 446/2/5 445/2/5
f 458/2/5 449/2/5 448/2/5
f 458/2/5 450/2/5 449/2/5
f 459/2/5 452/2/5 451/2/5
f 460/3/5 453/3/5 452/3/5
f 460/2/5 452/2/5 459/2/5
f 461/3/5 453/3/5 460/3/5
f 462/2/5 457/2/5 445/2/5
f 463/2/5 457/2/5 462/2/5
f 464/2/5 450/2/5 458/2/5
f 465/2/5 450/2/5 464/2/5
f 470/3/5 467/3/5 466/3/5
f 471/3/5 467/3/5 470/3/5
f 472/3/5 469/3/5 468/3/5
f 473/3/5 469/3/5 472/3/5
f 478/3/5 475/3/5 474/3/5
f 479/3/5 475/3/5 478/3/5
f 480/3/5 477/3/5 476/3/5
f 481/3/5 477/3/5 480/3/5
f 485/2/5 483/2/5 482/2/5
f 486/2/5 483/2/5 485/2/5
f 488/2/5 485/2/5 484/2/5
f 488/2/5 487/2/5 486/2/5
f 488/2/5 486/2/5 485/2/5
f 489/2/5 487/2/5 488/2/5
f 490/2/6 491/2/6 492/2/6
f 492/2/6 491/2/6 493/2/6
f 494/2/6 495/2/6 496/2/6
f 496/2/6 495/2/6 497/2/6
f 498/2/6 499/2/6 500/2/6
f 500/2/6 499/2/6 501/2/6
f 502/2/6 503/2/6 504/2/6
f 504/2/6 503/2/6 505/2/6
f 506/3/6 507/3/6 510/3/6
f 510/3/6 507/3/6 511/3/6
f 508/3/6 509/3/6 512/3/6
f 512/3/6 509/3/6 513/3/6
f 514/2/6 515/2/6 524/2/6
f 524/2/6 515/2/6 525/2/6
f 525/2/6 515/2/6 526/2/6
f 516/2/6 517/2/6 527/2/6
f 527/2/6 517/2/6 528/2/6
f 518/2/6 519/2/6 529/2/6
f 529/2/6 519/2/6 530/2/6
f 520/2/6 521/2/6 531/2/6
f 531/2/6 521/2/6 532/2/6
f 532/2/6 521/2/6 533/2/6
f 522/3/6 523/3/6 536/3/6
f 523/2/6 524/2/6 537/2/6
f 536/3/6 523/3/6 537/3/6
f 537/2/6 524/2/6 538/2/6
f 527/2/6 528/2/6 539/2/6
f 529/2/6 530/2/6 539/2/6
f 528/2/6 529/2/6 539/2/6
f 539/2/6 530/2/6 540/2/6
f 533/2/6 534/2/6 541/2/6
f 534/3/6 535/3/6 542/3/6
f 541/2/6 534/2/6 542/2/6
f 542/3/6 535/3/6 543/3/6
f 544/3/6 545/3/6 550/3/6
f 545/2/6 546/2/6 551/2/6
f 550/3/6 545/3/6 551/3/6
f 551/2/6 546/2/6 552/2/6
f 547/2/6 548/2/6 557/2/6
f 548/3/6 549/3/6 558/3/6
f 557/2/6 548/2/6 558/2/6
f 558/3/6 549/3/6 559/3/6
f 553/2/6 554/2/6 560/2/6
f 560/2/6 554/2/6 561/2/6
f 555/2/6 556/2/6 562/2/6
f 562/2/6 556/2/6 563/2/6
f 564/2/6 565/2/6 568/2/6
f 565/1/6 566/1/6 568/1/6
f 566/2/6 567/2/6 569/2/6
f 568/1/6 566/1/6 569/1/6
f 564/2/6 568/2/6 570/2/6
f 568/2/6 569/2/6 570/2/6
f 570/2/6 569/2/6 571/2/6
f 569/2/6 567/2/6 572/2/6
f 571/2/6 569/2/6 572/2/6
f 572/2/6 567/2/6 573/2/6
f 571/2/6 572/2/6 574/2/6
f 574/2/6 572/2/6 575/2/6
f 576/2/6 577/2/6 580/2/6
f 580/2/6 577/2/6 581/2/6
f 578/2/6 579/2/6 582/2/6
f 582/2/6 579/2/6 583/2/6
