# MagicaVoxel @ Ephtracy

# group
o 

# material
mtllib werewolf_action_1.mtl
usemtl palette

# normals
vn -1 0 0
vn 1 0 0
vn 0 0 1
vn 0 0 -1
vn 0 -1 0
vn 0 1 0

# texcoords
vt 0.814453 0.5
vt 0.943359 0.5
vt 0.947266 0.5

# verts
v -0.4 0.5 0.2
v -0.4 0.5 -5.96046e-08
v -0.4 0.7 0.2
v -0.4 0.7 -5.96046e-08
v -0.3 0.4 0.2
v -0.3 0.4 -5.96046e-08
v -0.3 0.5 0.2
v -0.3 0.5 -5.96046e-08
v -0.2 0.3 0.3
v -0.2 0.3 0.2
v -0.2 0.4 0.3
v -0.2 0.4 0.2
v -0.2 0.5 0.4
v -0.2 0.5 0.3
v -0.2 0.5 -5.96046e-08
v -0.2 0.5 -0.1
v -0.2 0.6 0.5
v -0.2 0.6 0.4
v -0.2 0.6 0.3
v -0.2 0.7 0.5
v -0.2 0.7 0.4
v -0.2 0.7 0.3
v -0.2 0.7 0.1
v -0.2 0.7 -5.96046e-08
v -0.2 0.8 0.4
v -0.2 0.8 0.3
v -0.2 0.9 0.1
v -0.2 0.9 -0.1
v -0.1 0 0.1
v -0.1 0 -5.96046e-08
v -0.1 0.1 0.1
v -0.1 0.1 -5.96046e-08
v -0.1 0.1 -0.1
v -0.1 0.2 0.1
v -0.1 0.2 -5.96046e-08
v -0.1 0.2 -0.1
v -0.1 0.3 -5.96046e-08
v -0.1 0.3 -0.1
v -0.1 0.4 0.1
v -0.1 0.4 -5.96046e-08
v -0.1 0.4 -0.1
v -0.1 0.4 -0.2
v -0.1 0.5 -5.96046e-08
v -0.1 0.5 -0.1
v -0.1 0.5 -0.2
v -0.1 0.6 0.4
v -0.1 0.6 0.3
v -0.1 0.6 0.2
v -0.1 0.6 0.1
v -0.1 0.7 0.4
v -0.1 0.7 0.3
v -0.1 0.9 0.4
v -0.1 0.9 0.3
v -0.1 0.9 0.1
v -0.1 0.9 -5.96046e-08
v -0.1 1 0.4
v -0.1 1 0.3
v -0.1 1 0.2
v -0.1 1.2 0.4
v -0.1 1.2 0.1
v -0.1 1.3 0.1
v -0.1 1.3 -5.96046e-08
v 0 0.3 0.4
v 0 0.3 0.3
v 0 0.3 -0.1
v 0 0.3 -0.2
v 0 0.4 0.4
v 0 0.4 0.3
v 0 0.4 -0.1
v 0 0.4 -0.2
v 0.1 0 -0.1
v 0.1 0 -0.2
v 0.1 0.1 -0.1
v 0.1 0.1 -0.2
v 0.1 0.1 -0.3
v 0.1 0.2 0.4
v 0.1 0.2 0.3
v 0.1 0.2 -0.1
v 0.1 0.2 -0.2
v 0.1 0.2 -0.3
v 0.1 0.3 0.5
v 0.1 0.3 0.4
v 0.1 0.3 0.3
v 0.1 0.3 -0.1
v 0.1 0.3 -0.2
v 0.1 0.4 0.5
v 0.1 0.4 0.4
v 0.1 0.4 0.3
v 0.1 0.5 0.4
v 0.1 0.5 0.3
v 0.1 0.6 0.4
v 0.1 0.6 0.3
v 0.1 0.7 0.4
v 0.1 0.7 0.3
v 0.1 0.9 0.4
v 0.1 0.9 0.3
v 0.1 1 0.4
v 0.1 1 0.3
v 0.1 1.2 0.1
v 0.1 1.2 -5.96046e-08
v 0.1 1.3 0.1
v 0.1 1.3 -5.96046e-08
v 0.3 0.6 0.3
v 0.3 0.6 0.1
v 0.3 0.7 0.3
v 0.3 0.7 0.2
v 0.3 0.8 0.2
v 0.3 0.8 0.1
v -0.2 0.4 0.2
v -0.2 0.4 -5.96046e-08
v -0.2 0.5 0.1
v -0.2 0.5 -5.96046e-08
v -0.2 0.7 0.2
v -0.2 0.7 0.1
v 0 0 0.1
v 0 0 -5.96046e-08
v 0 0.1 0.1
v 0 0.1 -5.96046e-08
v 0 0.1 -0.1
v 0 0.2 0.1
v 0 0.2 -5.96046e-08
v 0 0.2 -0.1
v 0 0.3 0.3
v 0 0.3 0.2
v 0 0.3 -5.96046e-08
v 0 0.4 0.3
v 0 0.4 0.2
v 0 0.4 0.1
v 0 0.4 -5.96046e-08
v 0 0.5 0.4
v 0 0.5 0.3
v 0 0.6 0.4
v 0 0.7 0.4
v 0 0.8 0.4
v 0 0.8 0.3
v 0 0.9 0.4
v 0 0.9 0.3
v 0 1 0.4
v 0 1 0.3
v 0 1.2 0.1
v 0 1.2 -5.96046e-08
v 0 1.3 0.1
v 0 1.3 -5.96046e-08
v 0.1 0.6 0.5
v 0.1 0.6 0.4
v 0.1 0.7 0.5
v 0.1 0.7 0.4
v 0.2 0 -0.1
v 0.2 0 -0.2
v 0.2 0.1 -0.1
v 0.2 0.1 -0.2
v 0.2 0.1 -0.3
v 0.2 0.2 -0.1
v 0.2 0.2 -0.2
v 0.2 0.2 -0.3
v 0.2 0.3 0.4
v 0.2 0.3 0.3
v 0.2 0.3 -5.96046e-08
v 0.2 0.3 -0.1
v 0.2 0.4 0.4
v 0.2 0.4 0.3
v 0.2 0.5 -5.96046e-08
v 0.2 0.5 -0.1
v 0.2 0.5 -0.2
v 0.2 0.6 0.2
v 0.2 0.6 0.1
v 0.2 0.9 0.4
v 0.2 0.9 0.3
v 0.2 0.9 0.1
v 0.2 0.9 -5.96046e-08
v 0.2 1 0.4
v 0.2 1 0.3
v 0.2 1 0.2
v 0.2 1.2 0.4
v 0.2 1.2 0.1
v 0.2 1.3 0.1
v 0.2 1.3 -5.96046e-08
v 0.3 0.2 0.4
v 0.3 0.2 0.3
v 0.3 0.3 0.5
v 0.3 0.3 0.4
v 0.3 0.3 0.3
v 0.3 0.4 0.5
v 0.3 0.4 0.4
v 0.3 0.4 0.3
v 0.3 0.5 0.4
v 0.3 0.5 0.3
v 0.3 0.5 0.1
v 0.3 0.5 -0.1
v 0.3 0.6 0.4
v 0.3 0.6 0.3
v 0.3 0.6 0.1
v 0.3 0.6 -5.96046e-08
v 0.3 0.7 0.4
v 0.3 0.7 0.3
v 0.3 0.8 0.1
v 0.3 0.8 -5.96046e-08
v 0.3 0.9 0.1
v 0.3 0.9 -0.1
v 0.4 0.6 0.3
v 0.4 0.6 0.2
v 0.4 0.7 0.3
v 0.4 0.7 0.2
v 0.5 0.6 0.2
v 0.5 0.6 -5.96046e-08
v 0.5 0.8 0.2
v 0.5 0.8 -5.96046e-08
v -0.2 0.6 0.5
v -0.2 0.7 0.5
v -0.1 0.6 0.5
v -0.1 0.7 0.5
v 0.1 0.3 0.5
v 0.1 0.4 0.5
v 0.1 0.6 0.5
v 0.1 0.7 0.5
v 0.2 0.3 0.5
v 0.2 0.4 0.5
v 0.3 0.3 0.5
v 0.3 0.4 0.5
v -0.2 0.5 0.4
v -0.2 0.6 0.4
v -0.2 0.7 0.4
v -0.2 0.8 0.4
v -0.1 0.5 0.4
v -0.1 0.6 0.4
v -0.1 0.7 0.4
v -0.1 0.8 0.4
v -0.1 0.9 0.4
v -0.1 1 0.4
v -0.1 1.2 0.4
v 0 0.3 0.4
v 0 0.4 0.4
v 0 0.5 0.4
v 0 0.6 0.4
v 0 0.7 0.4
v 0 0.8 0.4
v 0 0.9 0.4
v 0 1 0.4
v 0 1.1 0.4
v 0 1.2 0.4
v 0.1 0.2 0.4
v 0.1 0.3 0.4
v 0.1 0.4 0.4
v 0.1 0.5 0.4
v 0.1 0.6 0.4
v 0.1 0.7 0.4
v 0.1 0.9 0.4
v 0.1 1 0.4
v 0.1 1.1 0.4
v 0.1 1.2 0.4
v 0.2 0.2 0.4
v 0.2 0.3 0.4
v 0.2 0.4 0.4
v 0.2 0.5 0.4
v 0.2 0.9 0.4
v 0.2 1 0.4
v 0.2 1.2 0.4
v 0.3 0.2 0.4
v 0.3 0.3 0.4
v 0.3 0.4 0.4
v 0.3 0.5 0.4
v 0.3 0.6 0.4
v 0.3 0.7 0.4
v -0.2 0.3 0.3
v -0.2 0.4 0.3
v 0 0.3 0.3
v 0 0.4 0.3
v 0.3 0.6 0.3
v 0.3 0.7 0.3
v 0.4 0.6 0.3
v 0.4 0.7 0.3
v -0.4 0.5 0.2
v -0.4 0.7 0.2
v -0.3 0.4 0.2
v -0.3 0.5 0.2
v -0.2 0.4 0.2
v -0.2 0.7 0.2
v -0.1 0.6 0.2
v -0.1 1 0.2
v 0.2 0.6 0.2
v 0.2 1 0.2
v 0.3 0.7 0.2
v 0.3 0.8 0.2
v 0.4 0.6 0.2
v 0.4 0.7 0.2
v 0.5 0.6 0.2
v 0.5 0.8 0.2
v -0.2 0.5 0.1
v -0.2 0.7 0.1
v -0.2 0.9 0.1
v -0.1 0 0.1
v -0.1 0.1 0.1
v -0.1 0.2 0.1
v -0.1 0.4 0.1
v -0.1 0.6 0.1
v -0.1 0.9 0.1
v -0.1 1.2 0.1
v -0.1 1.3 0.1
v 0 0 0.1
v 0 0.1 0.1
v 0 0.2 0.1
v 0 0.4 0.1
v 0 1.2 0.1
v 0 1.3 0.1
v 0.1 1.2 0.1
v 0.1 1.3 0.1
v 0.2 0.6 0.1
v 0.2 0.9 0.1
v 0.2 1.2 0.1
v 0.2 1.3 0.1
v 0.3 0.5 0.1
v 0.3 0.6 0.1
v 0.3 0.8 0.1
v 0.3 0.9 0.1
v -0.1 0.1 -5.96046e-08
v -0.1 0.2 -5.96046e-08
v -0.1 0.4 -5.96046e-08
v -0.1 0.5 -5.96046e-08
v 0 0.1 -5.96046e-08
v 0 0.2 -5.96046e-08
v 0 0.3 -5.96046e-08
v 0 0.4 -5.96046e-08
v 0.2 0.3 -5.96046e-08
v 0.2 0.5 -5.96046e-08
v 0.1 0 -0.1
v 0.1 0.1 -0.1
v 0.1 0.2 -0.1
v 0.1 0.3 -0.1
v 0.2 0 -0.1
v 0.2 0.1 -0.1
v 0.2 0.2 -0.1
v 0.2 0.3 -0.1
v 0.1 0.1 -0.2
v 0.1 0.2 -0.2
v 0.2 0.1 -0.2
v 0.2 0.2 -0.2
v -0.2 0.6 0.4
v -0.2 0.7 0.4
v -0.1 0.6 0.4
v -0.1 0.7 0.4
v 0 0.6 0.4
v 0 0.7 0.4
v 0.1 0.6 0.4
v 0.1 0.7 0.4
v 0.2 0.3 0.4
v 0.2 0.4 0.4
v 0.3 0.3 0.4
v 0.3 0.4 0.4
v -0.2 0.5 0.3
v -0.2 0.6 0.3
v -0.2 0.7 0.3
v -0.2 0.8 0.3
v -0.1 0.5 0.3
v -0.1 0.6 0.3
v -0.1 0.7 0.3
v -0.1 0.8 0.3
v -0.1 0.9 0.3
v -0.1 1 0.3
v 0 0.3 0.3
v 0 0.4 0.3
v 0 0.5 0.3
v 0 0.8 0.3
v 0 0.9 0.3
v 0 1 0.3
v 0.1 0.2 0.3
v 0.1 0.3 0.3
v 0.1 0.4 0.3
v 0.1 0.5 0.3
v 0.1 0.6 0.3
v 0.1 0.7 0.3
v 0.1 0.9 0.3
v 0.1 1 0.3
v 0.2 0.2 0.3
v 0.2 0.3 0.3
v 0.2 0.4 0.3
v 0.2 0.5 0.3
v 0.2 0.9 0.3
v 0.2 1 0.3
v 0.3 0.2 0.3
v 0.3 0.3 0.3
v 0.3 0.4 0.3
v 0.3 0.5 0.3
v 0.3 0.6 0.3
v 0.3 0.7 0.3
v -0.2 0.3 0.2
v -0.2 0.4 0.2
v 0 0.3 0.2
v 0 0.4 0.2
v -0.4 0.5 -5.96046e-08
v -0.4 0.7 -5.96046e-08
v -0.3 0.4 -5.96046e-08
v -0.3 0.5 -5.96046e-08
v -0.2 0.4 -5.96046e-08
v -0.2 0.5 -5.96046e-08
v -0.2 0.7 -5.96046e-08
v -0.1 0 -5.96046e-08
v -0.1 0.1 -5.96046e-08
v -0.1 0.2 -5.96046e-08
v -0.1 0.3 -5.96046e-08
v -0.1 0.9 -5.96046e-08
v -0.1 1.3 -5.96046e-08
v 0 0 -5.96046e-08
v 0 0.1 -5.96046e-08
v 0 0.2 -5.96046e-08
v 0 0.3 -5.96046e-08
v 0 1.2 -5.96046e-08
v 0 1.3 -5.96046e-08
v 0.1 1.2 -5.96046e-08
v 0.1 1.3 -5.96046e-08
v 0.2 0.9 -5.96046e-08
v 0.2 1.3 -5.96046e-08
v 0.3 0.6 -5.96046e-08
v 0.3 0.8 -5.96046e-08
v 0.5 0.6 -5.96046e-08
v 0.5 0.8 -5.96046e-08
v -0.2 0.5 -0.1
v -0.2 0.9 -0.1
v -0.1 0.1 -0.1
v -0.1 0.2 -0.1
v -0.1 0.3 -0.1
v -0.1 0.4 -0.1
v -0.1 0.5 -0.1
v 0 0.1 -0.1
v 0 0.2 -0.1
v 0 0.3 -0.1
v 0 0.4 -0.1
v 0.2 0.5 -0.1
v 0.3 0.5 -0.1
v 0.3 0.9 -0.1
v -0.1 0.4 -0.2
v -0.1 0.5 -0.2
v 0 0.3 -0.2
v 0 0.4 -0.2
v 0.1 0 -0.2
v 0.1 0.1 -0.2
v 0.1 0.2 -0.2
v 0.1 0.3 -0.2
v 0.2 0 -0.2
v 0.2 0.1 -0.2
v 0.2 0.2 -0.2
v 0.2 0.5 -0.2
v 0.1 0.1 -0.3
v 0.1 0.2 -0.3
v 0.2 0.1 -0.3
v 0.2 0.2 -0.3
v -0.1 0 0.1
v 0 0 0.1
v -0.1 0 -5.96046e-08
v 0 0 -5.96046e-08
v 0.1 0 -0.1
v 0.2 0 -0.1
v 0.1 0 -0.2
v 0.2 0 -0.2
v -0.1 0.1 -5.96046e-08
v 0 0.1 -5.96046e-08
v -0.1 0.1 -0.1
v 0 0.1 -0.1
v 0.1 0.1 -0.2
v 0.2 0.1 -0.2
v 0.1 0.1 -0.3
v 0.2 0.1 -0.3
v 0.1 0.2 0.4
v 0.2 0.2 0.4
v 0.3 0.2 0.4
v 0.1 0.2 0.3
v 0.2 0.2 0.3
v 0.3 0.2 0.3
v -0.1 0.2 0.1
v 0 0.2 0.1
v -0.1 0.2 -5.96046e-08
v 0 0.2 -5.96046e-08
v 0.1 0.2 -0.1
v 0.2 0.2 -0.1
v 0.1 0.2 -0.2
v 0.2 0.2 -0.2
v 0.1 0.3 0.5
v 0.2 0.3 0.5
v 0.3 0.3 0.5
v 0 0.3 0.4
v 0.1 0.3 0.4
v 0.2 0.3 0.4
v 0.3 0.3 0.4
v -0.2 0.3 0.3
v 0 0.3 0.3
v 0.1 0.3 0.3
v -0.2 0.3 0.2
v 0 0.3 0.2
v -0.1 0.3 -5.96046e-08
v 0 0.3 -5.96046e-08
v 0.2 0.3 -5.96046e-08
v -0.1 0.3 -0.1
v 0 0.3 -0.1
v 0.1 0.3 -0.1
v 0.2 0.3 -0.1
v 0 0.3 -0.2
v 0.1 0.3 -0.2
v 0.2 0.4 0.4
v 0.3 0.4 0.4
v 0.2 0.4 0.3
v 0.3 0.4 0.3
v -0.3 0.4 0.2
v -0.2 0.4 0.2
v -0.3 0.4 -5.96046e-08
v -0.2 0.4 -5.96046e-08
v -0.1 0.4 -0.1
v 0 0.4 -0.1
v -0.1 0.4 -0.2
v 0 0.4 -0.2
v -0.2 0.5 0.4
v -0.1 0.5 0.4
v 0 0.5 0.4
v -0.2 0.5 0.3
v -0.1 0.5 0.3
v 0 0.5 0.3
v -0.4 0.5 0.2
v -0.3 0.5 0.2
v -0.2 0.5 0.1
v 0.3 0.5 0.1
v -0.4 0.5 -5.96046e-08
v -0.3 0.5 -5.96046e-08
v -0.2 0.5 -5.96046e-08
v -0.1 0.5 -5.96046e-08
v 0.2 0.5 -5.96046e-08
v -0.2 0.5 -0.1
v -0.1 0.5 -0.1
v 0.2 0.5 -0.1
v 0.3 0.5 -0.1
v -0.2 0.6 0.5
v -0.1 0.6 0.5
v 0.1 0.6 0.5
v -0.2 0.6 0.4
v -0.1 0.6 0.4
v 0 0.6 0.4
v 0.1 0.6 0.4
v 0.3 0.6 0.4
v 0.1 0.6 0.3
v 0.3 0.6 0.3
v 0.4 0.6 0.3
v -0.1 0.6 0.2
v 0.2 0.6 0.2
v 0.4 0.6 0.2
v 0.5 0.6 0.2
v -0.1 0.6 0.1
v 0.2 0.6 0.1
v 0.3 0.6 0.1
v 0.3 0.6 -5.96046e-08
v 0.5 0.6 -5.96046e-08
v -0.2 0.7 0.4
v -0.1 0.7 0.4
v -0.2 0.7 0.3
v -0.1 0.7 0.3
v -0.1 0.9 0.4
v 0 0.9 0.4
v 0.1 0.9 0.4
v 0.2 0.9 0.4
v -0.1 0.9 0.3
v 0 0.9 0.3
v 0.1 0.9 0.3
v 0.2 0.9 0.3
v 0 1 0.4
v 0.1 1 0.4
v -0.1 1 0.3
v 0 1 0.3
v 0.1 1 0.3
v 0.2 1 0.3
v -0.1 1 0.2
v 0.2 1 0.2
v -0.1 0.1 0.1
v 0 0.1 0.1
v -0.1 0.1 -5.96046e-08
v 0 0.1 -5.96046e-08
v 0.1 0.1 -0.1
v 0.2 0.1 -0.1
v 0.1 0.1 -0.2
v 0.2 0.1 -0.2
v -0.1 0.2 -5.96046e-08
v 0 0.2 -5.96046e-08
v -0.1 0.2 -0.1
v 0 0.2 -0.1
v 0.1 0.2 -0.2
v 0.2 0.2 -0.2
v 0.1 0.2 -0.3
v 0.2 0.2 -0.3
v 0.2 0.3 0.4
v 0.3 0.3 0.4
v 0.2 0.3 0.3
v 0.3 0.3 0.3
v 0.1 0.4 0.5
v 0.2 0.4 0.5
v 0.3 0.4 0.5
v 0 0.4 0.4
v 0.1 0.4 0.4
v 0.2 0.4 0.4
v 0.3 0.4 0.4
v -0.2 0.4 0.3
v 0 0.4 0.3
v 0.1 0.4 0.3
v -0.2 0.4 0.2
v 0 0.4 0.2
v -0.1 0.4 0.1
v 0 0.4 0.1
v -0.1 0.4 -5.96046e-08
v 0 0.4 -5.96046e-08
v 0.1 0.5 0.4
v 0.2 0.5 0.4
v 0.3 0.5 0.4
v 0.1 0.5 0.3
v 0.2 0.5 0.3
v 0.3 0.5 0.3
v -0.1 0.5 -0.1
v 0.2 0.5 -0.1
v -0.1 0.5 -0.2
v 0.2 0.5 -0.2
v -0.2 0.6 0.4
v -0.1 0.6 0.4
v -0.2 0.6 0.3
v -0.1 0.6 0.3
v -0.2 0.7 0.5
v -0.1 0.7 0.5
v 0.1 0.7 0.5
v -0.2 0.7 0.4
v -0.1 0.7 0.4
v 0 0.7 0.4
v 0.1 0.7 0.4
v 0.3 0.7 0.4
v 0.1 0.7 0.3
v 0.3 0.7 0.3
v 0.4 0.7 0.3
v -0.4 0.7 0.2
v -0.2 0.7 0.2
v 0.3 0.7 0.2
v 0.4 0.7 0.2
v -0.2 0.7 0.1
v -0.4 0.7 -5.96046e-08
v -0.2 0.7 -5.96046e-08
v -0.2 0.8 0.4
v -0.1 0.8 0.4
v 0 0.8 0.4
v -0.2 0.8 0.3
v -0.1 0.8 0.3
v 0 0.8 0.3
v 0.3 0.8 0.2
v 0.5 0.8 0.2
v 0.3 0.8 0.1
v 0.3 0.8 -5.96046e-08
v 0.5 0.8 -5.96046e-08
v -0.2 0.9 0.1
v -0.1 0.9 0.1
v 0.2 0.9 0.1
v 0.3 0.9 0.1
v -0.1 0.9 -5.96046e-08
v 0.2 0.9 -5.96046e-08
v -0.2 0.9 -0.1
v 0.3 0.9 -0.1
v -0.1 1.2 0.4
v 0 1.2 0.4
v 0.1 1.2 0.4
v 0.2 1.2 0.4
v 0 1.2 0.3
v 0.1 1.2 0.3
v -0.1 1.2 0.1
v 0 1.2 0.1
v 0.1 1.2 0.1
v 0.2 1.2 0.1
v 0 1.2 -5.96046e-08
v 0.1 1.2 -5.96046e-08
v -0.1 1.3 0.1
v 0 1.3 0.1
v 0.1 1.3 0.1
v 0.2 1.3 0.1
v -0.1 1.3 -5.96046e-08
v 0 1.3 -5.96046e-08
v 0.1 1.3 -5.96046e-08
v 0.2 1.3 -5.96046e-08

# faces
f 3/2/1 2/2/1 1/2/1
f 4/2/1 2/2/1 3/2/1
f 7/2/1 6/2/1 5/2/1
f 8/2/1 6/2/1 7/2/1
f 11/2/1 10/2/1 9/2/1
f 12/2/1 10/2/1 11/2/1
f 18/3/1 14/3/1 13/3/1
f 19/3/1 14/3/1 18/3/1
f 20/3/1 18/3/1 17/3/1
f 21/3/1 18/3/1 20/3/1
f 24/2/1 16/2/1 15/2/1
f 25/3/1 22/3/1 21/3/1
f 26/3/1 22/3/1 25/3/1
f 27/2/1 24/2/1 23/2/1
f 28/2/1 16/2/1 24/2/1
f 28/2/1 24/2/1 27/2/1
f 31/2/1 30/2/1 29/2/1
f 32/2/1 30/2/1 31/2/1
f 35/2/1 33/2/1 32/2/1
f 36/2/1 33/2/1 35/2/1
f 37/2/1 35/2/1 34/2/1
f 39/2/1 37/2/1 34/2/1
f 39/2/1 38/2/1 37/2/1
f 40/2/1 38/2/1 39/2/1
f 41/2/1 38/2/1 40/2/1
f 43/2/1 41/2/1 40/2/1
f 43/2/1 42/2/1 41/2/1
f 44/2/1 42/2/1 43/2/1
f 45/2/1 42/2/1 44/2/1
f 50/2/1 47/2/1 46/2/1
f 51/2/1 47/2/1 50/2/1
f 54/2/1 49/2/1 48/2/1
f 56/3/1 53/3/1 52/3/1
f 57/3/1 53/3/1 56/3/1
f 58/2/1 55/2/1 54/2/1
f 58/2/1 54/2/1 48/2/1
f 59/2/1 57/2/1 56/2/1
f 59/2/1 58/2/1 57/2/1
f 60/2/1 55/2/1 58/2/1
f 60/2/1 58/2/1 59/2/1
f 61/2/1 55/2/1 60/2/1
f 62/2/1 55/2/1 61/2/1
f 67/2/1 64/2/1 63/2/1
f 68/2/1 64/2/1 67/2/1
f 69/2/1 66/2/1 65/2/1
f 70/2/1 66/2/1 69/2/1
f 73/2/1 72/2/1 71/2/1
f 74/2/1 72/2/1 73/2/1
f 79/2/1 75/2/1 74/2/1
f 80/2/1 75/2/1 79/2/1
f 82/2/1 77/2/1 76/2/1
f 83/2/1 77/2/1 82/2/1
f 84/2/1 79/2/1 78/2/1
f 85/2/1 79/2/1 84/2/1
f 86/2/1 82/2/1 81/2/1
f 87/2/1 82/2/1 86/2/1
f 89/2/1 88/2/1 87/2/1
f 90/2/1 88/2/1 89/2/1
f 93/2/1 92/2/1 91/2/1
f 94/2/1 92/2/1 93/2/1
f 97/3/1 96/3/1 95/3/1
f 98/3/1 96/3/1 97/3/1
f 101/2/1 100/2/1 99/2/1
f 102/2/1 100/2/1 101/2/1
f 105/2/1 104/2/1 103/2/1
f 106/2/1 104/2/1 105/2/1
f 107/2/1 104/2/1 106/2/1
f 108/2/1 104/2/1 107/2/1
f 109/2/2 110/2/2 111/2/2
f 111/2/2 110/2/2 112/2/2
f 109/2/2 111/2/2 113/2/2
f 113/2/2 111/2/2 114/2/2
f 115/2/2 116/2/2 117/2/2
f 117/2/2 116/2/2 118/2/2
f 118/2/2 119/2/2 121/2/2
f 121/2/2 119/2/2 122/2/2
f 120/2/2 121/2/2 125/2/2
f 123/2/2 124/2/2 126/2/2
f 126/2/2 124/2/2 127/2/2
f 120/2/2 125/2/2 128/2/2
f 128/2/2 125/2/2 129/2/2
f 130/2/2 131/2/2 132/2/2
f 132/2/2 131/2/2 133/2/2
f 133/2/2 131/2/2 134/2/2
f 134/2/2 131/2/2 135/2/2
f 136/3/2 137/3/2 138/3/2
f 138/3/2 137/3/2 139/3/2
f 140/2/2 141/2/2 142/2/2
f 142/2/2 141/2/2 143/2/2
f 144/2/2 145/2/2 146/2/2
f 146/2/2 145/2/2 147/2/2
f 148/2/2 149/2/2 150/2/2
f 150/2/2 149/2/2 151/2/2
f 151/2/2 152/2/2 154/2/2
f 154/2/2 152/2/2 155/2/2
f 153/2/2 154/2/2 159/2/2
f 156/2/2 157/2/2 160/2/2
f 160/2/2 157/2/2 161/2/2
f 158/2/2 159/2/2 162/2/2
f 159/2/2 154/2/2 163/2/2
f 162/2/2 159/2/2 163/2/2
f 163/2/2 154/2/2 164/2/2
f 165/2/2 166/2/2 169/2/2
f 167/3/2 168/3/2 171/3/2
f 171/3/2 168/3/2 172/3/2
f 169/2/2 170/2/2 173/2/2
f 165/2/2 169/2/2 173/2/2
f 171/2/2 172/2/2 174/2/2
f 172/2/2 173/2/2 174/2/2
f 173/2/2 170/2/2 175/2/2
f 174/2/2 173/2/2 175/2/2
f 175/2/2 170/2/2 176/2/2
f 176/2/2 170/2/2 177/2/2
f 178/3/2 179/3/2 181/3/2
f 181/3/2 179/3/2 182/3/2
f 180/3/2 181/3/2 183/3/2
f 183/3/2 181/3/2 184/3/2
f 184/3/2 185/3/2 186/3/2
f 186/3/2 185/3/2 187/3/2
f 188/2/2 189/2/2 192/2/2
f 192/2/2 189/2/2 193/2/2
f 190/2/2 191/2/2 194/2/2
f 194/2/2 191/2/2 195/2/2
f 193/2/2 189/2/2 197/2/2
f 196/2/2 197/2/2 198/2/2
f 197/2/2 189/2/2 199/2/2
f 198/2/2 197/2/2 199/2/2
f 200/2/2 201/2/2 202/2/2
f 202/2/2 201/2/2 203/2/2
f 204/2/2 205/2/2 206/2/2
f 206/2/2 205/2/2 207/2/2
f 210/3/3 209/3/3 208/3/3
f 211/3/3 209/3/3 210/3/3
f 214/2/3 211/2/3 210/2/3
f 215/2/3 211/2/3 214/2/3
f 216/2/3 213/2/3 212/2/3
f 217/2/3 213/2/3 216/2/3
f 218/3/3 217/3/3 216/3/3
f 219/3/3 217/3/3 218/3/3
f 224/3/3 221/3/3 220/3/3
f 225/3/3 221/3/3 224/3/3
f 226/3/3 223/3/3 222/3/3
f 227/3/3 223/3/3 226/3/3
f 233/2/3 225/2/3 224/2/3
f 234/2/3 225/2/3 233/2/3
f 235/2/3 227/2/3 226/2/3
f 236/2/3 227/2/3 235/2/3
f 237/3/3 229/3/3 228/3/3
f 238/2/3 230/2/3 229/2/3
f 238/3/3 229/3/3 237/3/3
f 239/2/3 230/2/3 238/2/3
f 240/2/3 230/2/3 239/2/3
f 242/2/3 232/2/3 231/2/3
f 243/2/3 232/2/3 242/2/3
f 248/2/3 239/2/3 238/2/3
f 249/1/3 240/1/3 239/1/3
f 249/2/3 239/2/3 248/2/3
f 250/1/3 240/1/3 249/1/3
f 251/2/3 242/2/3 241/2/3
f 252/2/3 242/2/3 251/2/3
f 253/2/3 244/2/3 243/2/3
f 254/2/3 244/2/3 253/2/3
f 255/3/3 248/3/3 247/3/3
f 256/2/3 250/2/3 249/2/3
f 256/3/3 248/3/3 255/3/3
f 256/2/3 249/2/3 248/2/3
f 257/2/3 250/2/3 256/2/3
f 258/3/3 252/3/3 251/3/3
f 259/3/3 252/3/3 258/3/3
f 260/3/3 254/3/3 253/3/3
f 261/3/3 254/3/3 260/3/3
f 262/2/3 246/2/3 245/2/3
f 263/2/3 246/2/3 262/2/3
f 266/2/3 265/2/3 264/2/3
f 267/2/3 265/2/3 266/2/3
f 270/2/3 269/2/3 268/2/3
f 271/2/3 269/2/3 270/2/3
f 275/2/3 273/2/3 272/2/3
f 276/2/3 275/2/3 274/2/3
f 277/2/3 273/2/3 275/2/3
f 277/2/3 275/2/3 276/2/3
f 280/2/3 279/2/3 278/2/3
f 281/2/3 279/2/3 280/2/3
f 285/2/3 283/2/3 282/2/3
f 286/2/3 285/2/3 284/2/3
f 287/2/3 283/2/3 285/2/3
f 287/2/3 285/2/3 286/2/3
f 295/2/3 289/2/3 288/2/3
f 295/2/3 290/2/3 289/2/3
f 296/2/3 290/2/3 295/2/3
f 299/2/3 292/2/3 291/2/3
f 300/2/3 292/2/3 299/2/3
f 301/2/3 294/2/3 293/2/3
f 302/2/3 294/2/3 301/2/3
f 303/2/3 298/2/3 297/2/3
f 304/2/3 298/2/3 303/2/3
f 307/2/3 295/2/3 288/2/3
f 309/2/3 306/2/3 305/2/3
f 310/2/3 306/2/3 309/2/3
f 311/2/3 308/2/3 307/2/3
f 311/2/3 307/2/3 288/2/3
f 312/2/3 308/2/3 311/2/3
f 313/2/3 308/2/3 312/2/3
f 314/2/3 308/2/3 313/2/3
f 319/2/3 316/2/3 315/2/3
f 320/2/3 316/2/3 319/2/3
f 322/2/3 318/2/3 317/2/3
f 323/2/3 322/2/3 321/2/3
f 324/2/3 318/2/3 322/2/3
f 324/2/3 322/2/3 323/2/3
f 329/2/3 326/2/3 325/2/3
f 330/2/3 326/2/3 329/2/3
f 331/2/3 328/2/3 327/2/3
f 332/2/3 328/2/3 331/2/3
f 335/2/3 334/2/3 333/2/3
f 336/2/3 334/2/3 335/2/3
f 337/3/4 338/3/4 339/3/4
f 339/3/4 338/3/4 340/3/4
f 341/2/4 342/2/4 343/2/4
f 343/2/4 342/2/4 344/2/4
f 345/3/4 346/3/4 347/3/4
f 347/3/4 346/3/4 348/3/4
f 349/3/4 350/3/4 353/3/4
f 353/3/4 350/3/4 354/3/4
f 351/3/4 352/3/4 355/3/4
f 355/3/4 352/3/4 356/3/4
f 353/2/4 354/2/4 361/2/4
f 354/2/4 355/2/4 361/2/4
f 355/2/4 356/2/4 361/2/4
f 361/2/4 356/2/4 362/2/4
f 357/3/4 358/3/4 363/3/4
f 363/3/4 358/3/4 364/3/4
f 359/2/4 360/2/4 366/2/4
f 366/2/4 360/2/4 367/2/4
f 365/2/4 366/2/4 373/2/4
f 366/2/4 367/2/4 373/2/4
f 367/2/4 368/2/4 373/2/4
f 373/2/4 368/2/4 374/2/4
f 374/2/4 368/2/4 375/2/4
f 375/2/4 368/2/4 376/2/4
f 371/3/4 372/3/4 377/3/4
f 377/3/4 372/3/4 378/3/4
f 373/3/4 374/3/4 379/3/4
f 379/3/4 374/3/4 380/3/4
f 375/3/4 376/3/4 381/3/4
f 381/3/4 376/3/4 382/3/4
f 369/2/4 370/2/4 383/2/4
f 383/2/4 370/2/4 384/2/4
f 385/2/4 386/2/4 387/2/4
f 387/2/4 386/2/4 388/2/4
f 389/2/4 390/2/4 392/2/4
f 391/2/4 392/2/4 393/2/4
f 392/2/4 390/2/4 394/2/4
f 393/2/4 392/2/4 394/2/4
f 394/2/4 390/2/4 395/2/4
f 396/2/4 397/2/4 402/2/4
f 402/2/4 397/2/4 403/2/4
f 398/2/4 399/2/4 404/2/4
f 404/2/4 399/2/4 405/2/4
f 400/2/4 401/2/4 406/2/4
f 406/2/4 401/2/4 407/2/4
f 400/2/4 406/2/4 408/2/4
f 400/2/4 408/2/4 410/2/4
f 408/2/4 409/2/4 410/2/4
f 410/2/4 409/2/4 411/2/4
f 412/2/4 413/2/4 414/2/4
f 414/2/4 413/2/4 415/2/4
f 416/2/4 417/2/4 422/2/4
f 418/2/4 419/2/4 423/2/4
f 423/2/4 419/2/4 424/2/4
f 420/2/4 421/2/4 425/2/4
f 425/2/4 421/2/4 426/2/4
f 422/2/4 417/2/4 427/2/4
f 427/2/4 417/2/4 428/2/4
f 428/2/4 417/2/4 429/2/4
f 430/2/4 431/2/4 433/2/4
f 432/2/4 433/2/4 437/2/4
f 434/2/4 435/2/4 438/2/4
f 438/2/4 435/2/4 439/2/4
f 436/2/4 437/2/4 440/2/4
f 433/2/4 431/2/4 441/2/4
f 440/2/4 437/2/4 441/2/4
f 437/2/4 433/2/4 441/2/4
f 442/2/4 443/2/4 444/2/4
f 444/2/4 443/2/4 445/2/4
f 448/2/5 447/2/5 446/2/5
f 449/2/5 447/2/5 448/2/5
f 452/2/5 451/2/5 450/2/5
f 453/2/5 451/2/5 452/2/5
f 456/2/5 455/2/5 454/2/5
f 457/2/5 455/2/5 456/2/5
f 460/2/5 459/2/5 458/2/5
f 461/2/5 459/2/5 460/2/5
f 465/2/5 463/2/5 462/2/5
f 466/3/5 464/3/5 463/3/5
f 466/2/5 463/2/5 465/2/5
f 467/3/5 464/3/5 466/3/5
f 470/2/5 469/2/5 468/2/5
f 471/2/5 469/2/5 470/2/5
f 474/2/5 473/2/5 472/2/5
f 475/2/5 473/2/5 474/2/5
f 480/2/5 477/2/5 476/2/5
f 481/3/5 478/3/5 477/3/5
f 481/2/5 477/2/5 480/2/5
f 482/3/5 478/3/5 481/3/5
f 484/2/5 480/2/5 479/2/5
f 485/2/5 480/2/5 484/2/5
f 486/2/5 484/2/5 483/2/5
f 487/2/5 484/2/5 486/2/5
f 491/2/5 489/2/5 488/2/5
f 491/2/5 490/2/5 489/2/5
f 492/2/5 490/2/5 491/2/5
f 493/2/5 490/2/5 492/2/5
f 494/2/5 490/2/5 493/2/5
f 495/2/5 493/2/5 492/2/5
f 496/2/5 493/2/5 495/2/5
f 499/3/5 498/3/5 497/3/5
f 500/3/5 498/3/5 499/3/5
f 503/2/5 502/2/5 501/2/5
f 504/2/5 502/2/5 503/2/5
f 507/2/5 506/2/5 505/2/5
f 508/2/5 506/2/5 507/2/5
f 512/3/5 510/3/5 509/3/5
f 513/2/5 511/2/5 510/2/5
f 513/3/5 510/3/5 512/3/5
f 514/2/5 511/2/5 513/2/5
f 519/2/5 516/2/5 515/2/5
f 520/2/5 516/2/5 519/2/5
f 521/2/5 518/2/5 517/2/5
f 522/2/5 518/2/5 521/2/5
f 523/2/5 518/2/5 522/2/5
f 524/2/5 522/2/5 521/2/5
f 525/2/5 522/2/5 524/2/5
f 526/2/5 518/2/5 523/2/5
f 527/2/5 518/2/5 526/2/5
f 531/3/5 529/3/5 528/3/5
f 532/2/5 530/2/5 529/2/5
f 532/3/5 529/3/5 531/3/5
f 533/2/5 530/2/5 532/2/5
f 534/2/5 530/2/5 533/2/5
f 536/2/5 535/2/5 534/2/5
f 537/2/5 535/2/5 536/2/5
f 541/2/5 538/2/5 537/2/5
f 543/2/5 540/2/5 539/2/5
f 544/2/5 540/2/5 543/2/5
f 545/2/5 542/2/5 541/2/5
f 545/2/5 541/2/5 537/2/5
f 546/2/5 542/2/5 545/2/5
f 547/2/5 542/2/5 546/2/5
f 550/3/5 549/3/5 548/3/5
f 551/3/5 549/3/5 550/3/5
f 556/3/5 553/3/5 552/3/5
f 557/3/5 553/3/5 556/3/5
f 558/3/5 555/3/5 554/3/5
f 559/3/5 555/3/5 558/3/5
f 563/2/5 561/2/5 560/2/5
f 564/2/5 561/2/5 563/2/5
f 566/2/5 563/2/5 562/2/5
f 566/2/5 565/2/5 564/2/5
f 566/2/5 564/2/5 563/2/5
f 567/2/5 565/2/5 566/2/5
f 568/2/6 569/2/6 570/2/6
f 570/2/6 569/2/6 571/2/6
f 572/2/6 573/2/6 574/2/6
f 574/2/6 573/2/6 575/2/6
f 576/2/6 577/2/6 578/2/6
f 578/2/6 577/2/6 579/2/6
f 580/2/6 581/2/6 582/2/6
f 582/2/6 581/2/6 583/2/6
f 584/3/6 585/3/6 586/3/6
f 586/3/6 585/3/6 587/3/6
f 588/2/6 589/2/6 592/2/6
f 589/3/6 590/3/6 593/3/6
f 592/2/6 589/2/6 593/2/6
f 593/3/6 590/3/6 594/3/6
f 591/2/6 592/2/6 596/2/6
f 596/2/6 592/2/6 597/2/6
f 595/2/6 596/2/6 598/2/6
f 598/2/6 596/2/6 599/2/6
f 600/2/6 601/2/6 602/2/6
f 602/2/6 601/2/6 603/2/6
f 604/2/6 605/2/6 607/2/6
f 605/3/6 606/3/6 608/3/6
f 607/2/6 605/2/6 608/2/6
f 608/3/6 606/3/6 609/3/6
f 610/2/6 611/2/6 612/2/6
f 612/2/6 611/2/6 613/2/6
f 614/3/6 615/3/6 616/3/6
f 616/3/6 615/3/6 617/3/6
f 618/3/6 619/3/6 621/3/6
f 619/2/6 620/2/6 622/2/6
f 621/3/6 619/3/6 622/3/6
f 622/2/6 620/2/6 623/2/6
f 623/2/6 620/2/6 624/2/6
f 624/2/6 625/2/6 626/2/6
f 626/2/6 625/2/6 627/2/6
f 627/2/6 628/2/6 631/2/6
f 631/2/6 628/2/6 632/2/6
f 629/2/6 630/2/6 633/2/6
f 629/2/6 633/2/6 634/2/6
f 634/2/6 633/2/6 635/2/6
f 636/3/6 637/3/6 639/3/6
f 637/2/6 638/2/6 640/2/6
f 639/3/6 637/3/6 640/3/6
f 640/2/6 638/2/6 641/2/6
f 642/2/6 643/2/6 644/2/6
f 644/2/6 643/2/6 645/2/6
f 645/2/6 643/2/6 646/2/6
f 647/2/6 648/2/6 651/2/6
f 649/2/6 650/2/6 652/2/6
f 647/2/6 651/2/6 653/2/6
f 651/2/6 652/2/6 653/2/6
f 652/2/6 650/2/6 654/2/6
f 653/2/6 652/2/6 654/2/6
f 655/2/6 656/2/6 659/2/6
f 656/1/6 657/1/6 659/1/6
f 657/2/6 658/2/6 660/2/6
f 659/1/6 657/1/6 660/1/6
f 655/2/6 659/2/6 661/2/6
f 659/2/6 660/2/6 661/2/6
f 661/2/6 660/2/6 662/2/6
f 660/2/6 658/2/6 663/2/6
f 662/2/6 660/2/6 663/2/6
f 663/2/6 658/2/6 664/2/6
f 662/2/6 663/2/6 665/2/6
f 665/2/6 663/2/6 666/2/6
f 667/2/6 668/2/6 671/2/6
f 671/2/6 668/2/6 672/2/6
f 669/2/6 670/2/6 673/2/6
f 673/2/6 670/2/6 674/2/6
