# MagicaVoxel @ Ephtracy

# group
o 

# material
mtllib mimic_f_idle_1.mtl
usemtl palette

# normals
vn -1 0 0
vn 1 0 0
vn 0 0 1
vn 0 0 -1
vn 0 -1 0
vn 0 1 0

# texcoords
vt 0.751953 0.5
vt 0.947266 0.5
vt 0.970703 0.5
vt 0.974609 0.5
vt 0.978516 0.5

# verts
v -0.4 0 0.3
v -0.4 0 -0.4
v -0.4 0.1 0.2
v -0.4 0.1 -0.3
v -0.4 0.4 0.2
v -0.4 0.4 -0.3
v -0.4 0.5 0.3
v -0.4 0.5 0.2
v -0.4 0.5 0.1
v -0.4 0.5 0
v -0.4 0.5 -0.1
v -0.4 0.5 -0.2
v -0.4 0.5 -0.3
v -0.4 0.6 0.3
v -0.4 0.6 0.2
v -0.4 0.6 0.1
v -0.4 0.6 0
v -0.4 0.6 -0.1
v -0.4 0.6 -0.2
v -0.4 0.6 -0.3
v -0.4 0.7 0.3
v -0.4 0.7 0.2
v -0.4 0.7 0.1
v -0.4 0.7 -0.2
v -0.4 0.7 -0.3
v -0.4 0.7 -0.4
v -0.4 0.8 0.2
v -0.4 0.8 0.1
v -0.4 0.8 -0.2
v -0.4 0.8 -0.3
v -0.4 0.9 0.1
v -0.4 0.9 -0.2
v -0.3 0.5 0.3
v -0.3 0.5 0.2
v -0.3 0.5 0.1
v -0.3 0.5 0
v -0.3 0.5 -0.1
v -0.3 0.5 -0.2
v -0.3 0.6 0.3
v -0.3 0.6 0.2
v -0.3 0.6 0.1
v -0.3 0.6 0
v -0.3 0.6 -0.1
v -0.3 0.6 -0.2
v -0.1 0.3 0.4
v -0.1 0.3 0.3
v -0.1 0.4 0.3
v -0.1 0.5 0.3
v -0.1 0.5 0.2
v -0.1 0.6 0.4
v -0.1 0.6 0.3
v -0.1 0.6 0.2
v 0.3 0.5 0.3
v 0.3 0.5 0.2
v 0.3 0.6 0.3
v 0.3 0.6 0.2
v -0.2 0.5 0.3
v -0.2 0.5 0.2
v -0.2 0.6 0.3
v -0.2 0.6 0.2
v 0.2 0.3 0.4
v 0.2 0.3 0.3
v 0.2 0.4 0.3
v 0.2 0.5 0.3
v 0.2 0.5 0.2
v 0.2 0.6 0.4
v 0.2 0.6 0.3
v 0.2 0.6 0.2
v 0.4 0.5 0.3
v 0.4 0.5 0.2
v 0.4 0.5 0.1
v 0.4 0.5 0
v 0.4 0.5 -0.1
v 0.4 0.5 -0.2
v 0.4 0.6 0.3
v 0.4 0.6 0.2
v 0.4 0.6 0.1
v 0.4 0.6 0
v 0.4 0.6 -0.1
v 0.4 0.6 -0.2
v 0.5 0 0.3
v 0.5 0 -0.4
v 0.5 0.1 0.2
v 0.5 0.1 -0.3
v 0.5 0.4 0.2
v 0.5 0.4 -0.3
v 0.5 0.5 0.3
v 0.5 0.5 0.2
v 0.5 0.5 0.1
v 0.5 0.5 0
v 0.5 0.5 -0.1
v 0.5 0.5 -0.2
v 0.5 0.5 -0.3
v 0.5 0.6 0.3
v 0.5 0.6 0.2
v 0.5 0.6 0.1
v 0.5 0.6 0
v 0.5 0.6 -0.1
v 0.5 0.6 -0.2
v 0.5 0.6 -0.3
v 0.5 0.7 0.3
v 0.5 0.7 0.2
v 0.5 0.7 0.1
v 0.5 0.7 -0.2
v 0.5 0.7 -0.3
v 0.5 0.7 -0.4
v 0.5 0.8 0.2
v 0.5 0.8 0.1
v 0.5 0.8 -0.2
v 0.5 0.8 -0.3
v 0.5 0.9 0.1
v 0.5 0.9 -0.2
v -0.1 0.3 0.4
v -0.1 0.6 0.4
v 0.2 0.3 0.4
v 0.2 0.6 0.4
v -0.4 0 0.3
v -0.4 0.5 0.3
v -0.4 0.6 0.3
v -0.4 0.7 0.3
v -0.3 0.1 0.3
v -0.3 0.4 0.3
v -0.3 0.5 0.3
v -0.3 0.6 0.3
v -0.3 0.7 0.3
v -0.2 0.5 0.3
v -0.2 0.6 0.3
v -0.2 0.7 0.3
v -0.1 0.3 0.3
v -0.1 0.4 0.3
v -0.1 0.5 0.3
v -0.1 0.6 0.3
v -0.1 0.7 0.3
v 0.2 0.3 0.3
v 0.2 0.4 0.3
v 0.2 0.5 0.3
v 0.2 0.6 0.3
v 0.2 0.7 0.3
v 0.3 0.5 0.3
v 0.3 0.6 0.3
v 0.3 0.7 0.3
v 0.4 0.1 0.3
v 0.4 0.4 0.3
v 0.4 0.5 0.3
v 0.4 0.6 0.3
v 0.4 0.7 0.3
v 0.5 0 0.3
v 0.5 0.5 0.3
v 0.5 0.6 0.3
v 0.5 0.7 0.3
v -0.4 0.5 0.2
v -0.4 0.6 0.2
v -0.4 0.7 0.2
v -0.4 0.8 0.2
v -0.3 0.5 0.2
v -0.3 0.6 0.2
v -0.3 0.7 0.2
v -0.3 0.8 0.2
v -0.2 0.5 0.2
v -0.2 0.6 0.2
v -0.2 0.7 0.2
v -0.2 0.8 0.2
v -0.1 0.5 0.2
v -0.1 0.6 0.2
v -0.1 0.7 0.2
v -0.1 0.8 0.2
v 0.2 0.5 0.2
v 0.2 0.6 0.2
v 0.2 0.7 0.2
v 0.2 0.8 0.2
v 0.3 0.5 0.2
v 0.3 0.6 0.2
v 0.3 0.7 0.2
v 0.3 0.8 0.2
v 0.4 0.5 0.2
v 0.4 0.6 0.2
v 0.4 0.7 0.2
v 0.4 0.8 0.2
v 0.5 0.5 0.2
v 0.5 0.6 0.2
v 0.5 0.7 0.2
v 0.5 0.8 0.2
v -0.4 0.8 0.1
v -0.4 0.9 0.1
v -0.3 0.8 0.1
v -0.3 0.9 0.1
v -0.2 0.8 0.1
v -0.2 0.9 0.1
v -0.1 0.8 0.1
v -0.1 0.9 0.1
v 0.2 0.8 0.1
v 0.2 0.9 0.1
v 0.3 0.8 0.1
v 0.3 0.9 0.1
v 0.4 0.8 0.1
v 0.4 0.9 0.1
v 0.5 0.8 0.1
v 0.5 0.9 0.1
v -0.4 0.5 0
v -0.4 0.6 0
v -0.3 0.5 0
v -0.3 0.6 0
v 0.4 0.5 0
v 0.4 0.6 0
v 0.5 0.5 0
v 0.5 0.6 0
v -0.4 0.5 -0.2
v -0.4 0.6 -0.2
v -0.3 0.5 -0.2
v -0.3 0.6 -0.2
v 0.4 0.5 -0.2
v 0.4 0.6 -0.2
v 0.5 0.5 -0.2
v 0.5 0.6 -0.2
v -0.4 0.5 0.1
v -0.4 0.6 0.1
v -0.3 0.5 0.1
v -0.3 0.6 0.1
v 0.4 0.5 0.1
v 0.4 0.6 0.1
v 0.5 0.5 0.1
v 0.5 0.6 0.1
v -0.4 0.5 -0.1
v -0.4 0.6 -0.1
v -0.3 0.5 -0.1
v -0.3 0.6 -0.1
v 0.4 0.5 -0.1
v 0.4 0.6 -0.1
v 0.5 0.5 -0.1
v 0.5 0.6 -0.1
v -0.4 0.8 -0.2
v -0.4 0.9 -0.2
v -0.3 0.8 -0.2
v -0.3 0.9 -0.2
v -0.2 0.8 -0.2
v -0.2 0.9 -0.2
v -0.1 0.8 -0.2
v -0.1 0.9 -0.2
v 0.2 0.8 -0.2
v 0.2 0.9 -0.2
v 0.3 0.8 -0.2
v 0.3 0.9 -0.2
v 0.4 0.8 -0.2
v 0.4 0.9 -0.2
v 0.5 0.8 -0.2
v 0.5 0.9 -0.2
v -0.4 0.7 -0.3
v -0.4 0.8 -0.3
v -0.3 0.7 -0.3
v -0.3 0.8 -0.3
v -0.2 0.7 -0.3
v -0.2 0.8 -0.3
v -0.1 0.7 -0.3
v -0.1 0.8 -0.3
v 0.2 0.7 -0.3
v 0.2 0.8 -0.3
v 0.3 0.7 -0.3
v 0.3 0.8 -0.3
v 0.4 0.7 -0.3
v 0.4 0.8 -0.3
v 0.5 0.7 -0.3
v 0.5 0.8 -0.3
v -0.4 0 -0.4
v -0.4 0.7 -0.4
v -0.3 0.1 -0.4
v -0.3 0.4 -0.4
v -0.3 0.6 -0.4
v -0.3 0.7 -0.4
v -0.2 0.6 -0.4
v -0.2 0.7 -0.4
v -0.1 0.6 -0.4
v -0.1 0.7 -0.4
v 0.2 0.6 -0.4
v 0.2 0.7 -0.4
v 0.3 0.6 -0.4
v 0.3 0.7 -0.4
v 0.4 0.1 -0.4
v 0.4 0.4 -0.4
v 0.4 0.6 -0.4
v 0.4 0.7 -0.4
v 0.5 0 -0.4
v 0.5 0.7 -0.4
v -0.4 0 0.3
v 0.5 0 0.3
v -0.4 0 -0.4
v 0.5 0 -0.4
v -0.1 0.3 0.4
v 0.2 0.3 0.4
v -0.1 0.3 0.3
v 0.2 0.3 0.3
v -0.4 0.6 0.3
v -0.3 0.6 0.3
v -0.2 0.6 0.3
v -0.1 0.6 0.3
v 0.2 0.6 0.3
v 0.3 0.6 0.3
v 0.4 0.6 0.3
v 0.5 0.6 0.3
v -0.4 0.6 0.2
v -0.3 0.6 0.2
v -0.2 0.6 0.2
v -0.1 0.6 0.2
v 0.2 0.6 0.2
v 0.3 0.6 0.2
v 0.4 0.6 0.2
v 0.5 0.6 0.2
v -0.4 0.6 0.1
v -0.3 0.6 0.1
v 0.4 0.6 0.1
v 0.5 0.6 0.1
v -0.4 0.6 0
v -0.3 0.6 0
v 0.4 0.6 0
v 0.5 0.6 0
v -0.4 0.6 -0.1
v -0.3 0.6 -0.1
v 0.4 0.6 -0.1
v 0.5 0.6 -0.1
v -0.4 0.6 -0.2
v -0.3 0.6 -0.2
v 0.4 0.6 -0.2
v 0.5 0.6 -0.2
v -0.4 0.5 0.3
v -0.3 0.5 0.3
v -0.2 0.5 0.3
v -0.1 0.5 0.3
v 0.2 0.5 0.3
v 0.3 0.5 0.3
v 0.4 0.5 0.3
v 0.5 0.5 0.3
v -0.4 0.5 0.2
v -0.3 0.5 0.2
v -0.2 0.5 0.2
v -0.1 0.5 0.2
v 0.2 0.5 0.2
v 0.3 0.5 0.2
v 0.4 0.5 0.2
v 0.5 0.5 0.2
v -0.4 0.5 0.1
v -0.3 0.5 0.1
v 0.4 0.5 0.1
v 0.5 0.5 0.1
v -0.4 0.5 0
v -0.3 0.5 0
v 0.4 0.5 0
v 0.5 0.5 0
v -0.4 0.5 -0.1
v -0.3 0.5 -0.1
v 0.4 0.5 -0.1
v 0.5 0.5 -0.1
v -0.4 0.5 -0.2
v -0.3 0.5 -0.2
v 0.4 0.5 -0.2
v 0.5 0.5 -0.2
v -0.1 0.6 0.4
v 0.2 0.6 0.4
v -0.1 0.6 0.3
v 0.2 0.6 0.3
v -0.4 0.7 0.3
v -0.3 0.7 0.3
v -0.2 0.7 0.3
v -0.1 0.7 0.3
v 0.2 0.7 0.3
v 0.3 0.7 0.3
v 0.4 0.7 0.3
v 0.5 0.7 0.3
v -0.4 0.7 0.2
v -0.3 0.7 0.2
v -0.2 0.7 0.2
v -0.1 0.7 0.2
v 0.2 0.7 0.2
v 0.3 0.7 0.2
v 0.4 0.7 0.2
v 0.5 0.7 0.2
v -0.4 0.7 -0.3
v -0.3 0.7 -0.3
v -0.2 0.7 -0.3
v -0.1 0.7 -0.3
v 0.2 0.7 -0.3
v 0.3 0.7 -0.3
v 0.4 0.7 -0.3
v 0.5 0.7 -0.3
v -0.4 0.7 -0.4
v -0.3 0.7 -0.4
v -0.2 0.7 -0.4
v -0.1 0.7 -0.4
v 0.2 0.7 -0.4
v 0.3 0.7 -0.4
v 0.4 0.7 -0.4
v 0.5 0.7 -0.4
v -0.4 0.8 0.2
v -0.3 0.8 0.2
v -0.2 0.8 0.2
v -0.1 0.8 0.2
v 0.2 0.8 0.2
v 0.3 0.8 0.2
v 0.4 0.8 0.2
v 0.5 0.8 0.2
v -0.4 0.8 0.1
v -0.3 0.8 0.1
v -0.2 0.8 0.1
v -0.1 0.8 0.1
v 0.2 0.8 0.1
v 0.3 0.8 0.1
v 0.4 0.8 0.1
v 0.5 0.8 0.1
v -0.4 0.8 -0.2
v -0.3 0.8 -0.2
v -0.2 0.8 -0.2
v -0.1 0.8 -0.2
v 0.2 0.8 -0.2
v 0.3 0.8 -0.2
v 0.4 0.8 -0.2
v 0.5 0.8 -0.2
v -0.4 0.8 -0.3
v -0.3 0.8 -0.3
v -0.2 0.8 -0.3
v -0.1 0.8 -0.3
v 0.2 0.8 -0.3
v 0.3 0.8 -0.3
v 0.4 0.8 -0.3
v 0.5 0.8 -0.3
v -0.4 0.9 0.1
v -0.3 0.9 0.1
v -0.2 0.9 0.1
v -0.1 0.9 0.1
v 0.2 0.9 0.1
v 0.3 0.9 0.1
v 0.4 0.9 0.1
v 0.5 0.9 0.1
v -0.4 0.9 -0.2
v -0.3 0.9 -0.2
v -0.2 0.9 -0.2
v -0.1 0.9 -0.2
v 0.2 0.9 -0.2
v 0.3 0.9 -0.2
v 0.4 0.9 -0.2
v 0.5 0.9 -0.2

# faces
f 3/5/1 2/5/1 1/5/1
f 4/5/1 2/5/1 3/5/1
f 5/5/1 3/5/1 1/5/1
f 5/1/1 4/1/1 3/1/1
f 6/5/1 2/5/1 4/5/1
f 6/1/1 4/1/1 5/1/1
f 7/5/1 5/5/1 1/5/1
f 7/5/1 6/5/1 5/5/1
f 8/5/1 6/5/1 7/5/1
f 9/5/1 6/5/1 8/5/1
f 10/5/1 6/5/1 9/5/1
f 11/5/1 6/5/1 10/5/1
f 12/5/1 6/5/1 11/5/1
f 13/5/1 2/5/1 6/5/1
f 13/5/1 6/5/1 12/5/1
f 15/2/1 9/2/1 8/2/1
f 16/2/1 9/2/1 15/2/1
f 17/2/1 11/2/1 10/2/1
f 18/2/1 11/2/1 17/2/1
f 19/2/1 13/2/1 12/2/1
f 20/5/1 2/5/1 13/5/1
f 20/2/1 13/2/1 19/2/1
f 21/5/1 15/5/1 14/5/1
f 22/1/1 19/1/1 18/1/1
f 22/5/1 15/5/1 21/5/1
f 22/1/1 18/1/1 17/1/1
f 22/1/1 20/1/1 19/1/1
f 22/1/1 16/1/1 15/1/1
f 22/1/1 17/1/1 16/1/1
f 23/1/1 20/1/1 22/1/1
f 24/1/1 20/1/1 23/1/1
f 25/5/1 2/5/1 20/5/1
f 25/1/1 20/1/1 24/1/1
f 26/5/1 2/5/1 25/5/1
f 27/5/1 23/5/1 22/5/1
f 28/1/1 24/1/1 23/1/1
f 28/5/1 23/5/1 27/5/1
f 29/5/1 25/5/1 24/5/1
f 29/1/1 24/1/1 28/1/1
f 30/5/1 25/5/1 29/5/1
f 31/5/1 29/5/1 28/5/1
f 32/5/1 29/5/1 31/5/1
f 39/2/1 34/2/1 33/2/1
f 40/2/1 34/2/1 39/2/1
f 41/3/1 36/3/1 35/3/1
f 42/3/1 36/3/1 41/3/1
f 43/3/1 38/3/1 37/3/1
f 44/3/1 38/3/1 43/3/1
f 47/4/1 46/4/1 45/4/1
f 48/4/1 47/4/1 45/4/1
f 50/4/1 48/4/1 45/4/1
f 50/4/1 49/4/1 48/4/1
f 51/4/1 49/4/1 50/4/1
f 52/4/1 49/4/1 51/4/1
f 55/2/1 54/2/1 53/2/1
f 56/2/1 54/2/1 55/2/1
f 57/2/2 58/2/2 59/2/2
f 59/2/2 58/2/2 60/2/2
f 61/4/2 62/4/2 63/4/2
f 61/4/2 63/4/2 64/4/2
f 61/4/2 64/4/2 66/4/2
f 64/4/2 65/4/2 66/4/2
f 66/4/2 65/4/2 67/4/2
f 67/4/2 65/4/2 68/4/2
f 69/2/2 70/2/2 75/2/2
f 75/2/2 70/2/2 76/2/2
f 71/3/2 72/3/2 77/3/2
f 77/3/2 72/3/2 78/3/2
f 73/3/2 74/3/2 79/3/2
f 79/3/2 74/3/2 80/3/2
f 81/5/2 82/5/2 83/5/2
f 83/5/2 82/5/2 84/5/2
f 81/5/2 83/5/2 85/5/2
f 83/1/2 84/1/2 85/1/2
f 84/5/2 82/5/2 86/5/2
f 85/1/2 84/1/2 86/1/2
f 81/5/2 85/5/2 87/5/2
f 85/5/2 86/5/2 87/5/2
f 87/5/2 86/5/2 88/5/2
f 88/5/2 86/5/2 89/5/2
f 89/5/2 86/5/2 90/5/2
f 90/5/2 86/5/2 91/5/2
f 91/5/2 86/5/2 92/5/2
f 86/5/2 82/5/2 93/5/2
f 92/5/2 86/5/2 93/5/2
f 88/2/2 89/2/2 95/2/2
f 95/2/2 89/2/2 96/2/2
f 90/2/2 91/2/2 97/2/2
f 97/2/2 91/2/2 98/2/2
f 92/2/2 93/2/2 99/2/2
f 93/5/2 82/5/2 100/5/2
f 99/2/2 93/2/2 100/2/2
f 94/5/2 95/5/2 101/5/2
f 98/1/2 99/1/2 102/1/2
f 101/5/2 95/5/2 102/5/2
f 97/1/2 98/1/2 102/1/2
f 99/1/2 100/1/2 102/1/2
f 95/1/2 96/1/2 102/1/2
f 96/1/2 97/1/2 102/1/2
f 102/1/2 100/1/2 103/1/2
f 103/1/2 100/1/2 104/1/2
f 100/5/2 82/5/2 105/5/2
f 104/1/2 100/1/2 105/1/2
f 105/5/2 82/5/2 106/5/2
f 102/5/2 103/5/2 107/5/2
f 103/1/2 104/1/2 108/1/2
f 107/5/2 103/5/2 108/5/2
f 104/5/2 105/5/2 109/5/2
f 108/1/2 104/1/2 109/1/2
f 109/5/2 105/5/2 110/5/2
f 108/5/2 109/5/2 111/5/2
f 111/5/2 109/5/2 112/5/2
f 115/4/3 114/4/3 113/4/3
f 116/4/3 114/4/3 115/4/3
f 121/5/3 118/5/3 117/5/3
f 122/5/3 118/5/3 121/5/3
f 123/5/3 118/5/3 122/5/3
f 124/5/3 120/5/3 119/5/3
f 125/5/3 120/5/3 124/5/3
f 126/5/3 123/5/3 122/5/3
f 126/2/3 124/2/3 123/2/3
f 127/1/3 125/1/3 124/1/3
f 127/2/3 124/2/3 126/2/3
f 128/1/3 125/1/3 127/1/3
f 129/1/3 122/1/3 121/1/3
f 130/5/3 126/5/3 122/5/3
f 130/1/3 122/1/3 129/1/3
f 131/5/3 126/5/3 130/5/3
f 132/5/3 128/5/3 127/5/3
f 133/5/3 128/5/3 132/5/3
f 134/1/3 129/1/3 121/1/3
f 137/1/3 133/1/3 132/1/3
f 138/1/3 133/1/3 137/1/3
f 139/5/3 136/5/3 135/5/3
f 140/5/3 138/5/3 137/5/3
f 141/5/3 138/5/3 140/5/3
f 142/5/3 121/5/3 117/5/3
f 142/1/3 134/1/3 121/1/3
f 142/1/3 135/1/3 134/1/3
f 143/5/3 139/5/3 135/5/3
f 143/1/3 135/1/3 142/1/3
f 144/2/3 140/2/3 139/2/3
f 144/5/3 139/5/3 143/5/3
f 145/1/3 141/1/3 140/1/3
f 145/2/3 140/2/3 144/2/3
f 146/1/3 141/1/3 145/1/3
f 147/5/3 144/5/3 143/5/3
f 147/5/3 143/5/3 142/5/3
f 147/5/3 142/5/3 117/5/3
f 148/5/3 144/5/3 147/5/3
f 149/5/3 146/5/3 145/5/3
f 150/5/3 146/5/3 149/5/3
f 155/2/3 152/2/3 151/2/3
f 156/2/3 152/2/3 155/2/3
f 157/5/3 154/5/3 153/5/3
f 158/5/3 154/5/3 157/5/3
f 161/1/3 158/1/3 157/1/3
f 162/1/3 158/1/3 161/1/3
f 163/3/3 160/3/3 159/3/3
f 164/3/3 160/3/3 163/3/3
f 165/5/3 162/5/3 161/5/3
f 166/5/3 162/5/3 165/5/3
f 169/1/3 166/1/3 165/1/3
f 170/1/3 166/1/3 169/1/3
f 171/3/3 168/3/3 167/3/3
f 172/3/3 168/3/3 171/3/3
f 173/5/3 170/5/3 169/5/3
f 174/5/3 170/5/3 173/5/3
f 177/1/3 174/1/3 173/1/3
f 178/1/3 174/1/3 177/1/3
f 179/2/3 176/2/3 175/2/3
f 180/2/3 176/2/3 179/2/3
f 181/5/3 178/5/3 177/5/3
f 182/5/3 178/5/3 181/5/3
f 185/5/3 184/5/3 183/5/3
f 186/5/3 184/5/3 185/5/3
f 187/1/3 186/1/3 185/1/3
f 188/1/3 186/1/3 187/1/3
f 189/5/3 188/5/3 187/5/3
f 190/5/3 188/5/3 189/5/3
f 191/1/3 190/1/3 189/1/3
f 192/1/3 190/1/3 191/1/3
f 193/5/3 192/5/3 191/5/3
f 194/5/3 192/5/3 193/5/3
f 195/1/3 194/1/3 193/1/3
f 196/1/3 194/1/3 195/1/3
f 197/5/3 196/5/3 195/5/3
f 198/5/3 196/5/3 197/5/3
f 201/2/3 200/2/3 199/2/3
f 202/2/3 200/2/3 201/2/3
f 205/2/3 204/2/3 203/2/3
f 206/2/3 204/2/3 205/2/3
f 209/2/3 208/2/3 207/2/3
f 210/2/3 208/2/3 209/2/3
f 213/2/3 212/2/3 211/2/3
f 214/2/3 212/2/3 213/2/3
f 215/2/4 216/2/4 217/2/4
f 217/2/4 216/2/4 218/2/4
f 219/2/4 220/2/4 221/2/4
f 221/2/4 220/2/4 222/2/4
f 223/2/4 224/2/4 225/2/4
f 225/2/4 224/2/4 226/2/4
f 227/2/4 228/2/4 229/2/4
f 229/2/4 228/2/4 230/2/4
f 231/5/4 232/5/4 233/5/4
f 233/5/4 232/5/4 234/5/4
f 233/1/4 234/1/4 235/1/4
f 235/1/4 234/1/4 236/1/4
f 235/5/4 236/5/4 237/5/4
f 237/5/4 236/5/4 238/5/4
f 237/1/4 238/1/4 239/1/4
f 239/1/4 238/1/4 240/1/4
f 239/5/4 240/5/4 241/5/4
f 241/5/4 240/5/4 242/5/4
f 241/1/4 242/1/4 243/1/4
f 243/1/4 242/1/4 244/1/4
f 243/5/4 244/5/4 245/5/4
f 245/5/4 244/5/4 246/5/4
f 247/5/4 248/5/4 249/5/4
f 249/5/4 248/5/4 250/5/4
f 249/1/4 250/1/4 251/1/4
f 251/1/4 250/1/4 252/1/4
f 251/5/4 252/5/4 253/5/4
f 253/5/4 252/5/4 254/5/4
f 253/1/4 254/1/4 255/1/4
f 255/1/4 254/1/4 256/1/4
f 255/5/4 256/5/4 257/5/4
f 257/5/4 256/5/4 258/5/4
f 257/1/4 258/1/4 259/1/4
f 259/1/4 258/1/4 260/1/4
f 259/5/4 260/5/4 261/5/4
f 261/5/4 260/5/4 262/5/4
f 263/5/4 264/5/4 265/5/4
f 265/5/4 264/5/4 266/5/4
f 266/5/4 264/5/4 267/5/4
f 267/5/4 264/5/4 268/5/4
f 266/5/4 267/5/4 269/5/4
f 267/1/4 268/1/4 269/1/4
f 269/1/4 268/1/4 270/1/4
f 266/5/4 269/5/4 271/5/4
f 269/5/4 270/5/4 271/5/4
f 271/5/4 270/5/4 272/5/4
f 266/5/4 271/5/4 273/5/4
f 271/1/4 272/1/4 273/1/4
f 273/1/4 272/1/4 274/1/4
f 266/5/4 273/5/4 275/5/4
f 273/5/4 274/5/4 275/5/4
f 275/5/4 274/5/4 276/5/4
f 263/5/4 265/5/4 277/5/4
f 265/1/4 266/1/4 277/1/4
f 266/5/4 275/5/4 278/5/4
f 277/1/4 266/1/4 278/1/4
f 275/1/4 276/1/4 279/1/4
f 278/5/4 275/5/4 279/5/4
f 279/1/4 276/1/4 280/1/4
f 277/5/4 278/5/4 281/5/4
f 263/5/4 277/5/4 281/5/4
f 279/5/4 280/5/4 281/5/4
f 278/5/4 279/5/4 281/5/4
f 281/5/4 280/5/4 282/5/4
f 285/5/5 284/5/5 283/5/5
f 286/5/5 284/5/5 285/5/5
f 289/4/5 288/4/5 287/4/5
f 290/4/5 288/4/5 289/4/5
f 299/5/5 292/5/5 291/5/5
f 300/5/5 292/5/5 299/5/5
f 301/5/5 294/5/5 293/5/5
f 302/5/5 294/5/5 301/5/5
f 303/5/5 296/5/5 295/5/5
f 304/5/5 296/5/5 303/5/5
f 305/5/5 298/5/5 297/5/5
f 306/5/5 298/5/5 305/5/5
f 311/1/5 308/1/5 307/1/5
f 312/1/5 308/1/5 311/1/5
f 313/1/5 310/1/5 309/1/5
f 314/1/5 310/1/5 313/1/5
f 319/1/5 316/1/5 315/1/5
f 320/1/5 316/1/5 319/1/5
f 321/1/5 318/1/5 317/1/5
f 322/1/5 318/1/5 321/1/5
f 323/5/6 324/5/6 331/5/6
f 331/5/6 324/5/6 332/5/6
f 325/5/6 326/5/6 333/5/6
f 333/5/6 326/5/6 334/5/6
f 327/5/6 328/5/6 335/5/6
f 335/5/6 328/5/6 336/5/6
f 329/5/6 330/5/6 337/5/6
f 337/5/6 330/5/6 338/5/6
f 339/5/6 340/5/6 343/5/6
f 343/5/6 340/5/6 344/5/6
f 341/5/6 342/5/6 345/5/6
f 345/5/6 342/5/6 346/5/6
f 347/5/6 348/5/6 351/5/6
f 351/5/6 348/5/6 352/5/6
f 349/5/6 350/5/6 353/5/6
f 353/5/6 350/5/6 354/5/6
f 355/4/6 356/4/6 357/4/6
f 357/4/6 356/4/6 358/4/6
f 359/5/6 360/5/6 367/5/6
f 360/1/6 361/1/6 368/1/6
f 367/5/6 360/5/6 368/5/6
f 361/5/6 362/5/6 369/5/6
f 368/1/6 361/1/6 369/1/6
f 362/1/6 363/1/6 370/1/6
f 369/5/6 362/5/6 370/5/6
f 363/5/6 364/5/6 371/5/6
f 370/1/6 363/1/6 371/1/6
f 364/1/6 365/1/6 372/1/6
f 371/5/6 364/5/6 372/5/6
f 365/5/6 366/5/6 373/5/6
f 372/1/6 365/1/6 373/1/6
f 373/5/6 366/5/6 374/5/6
f 375/5/6 376/5/6 383/5/6
f 376/1/6 377/1/6 384/1/6
f 383/5/6 376/5/6 384/5/6
f 377/5/6 378/5/6 385/5/6
f 384/1/6 377/1/6 385/1/6
f 378/1/6 379/1/6 386/1/6
f 385/5/6 378/5/6 386/5/6
f 379/5/6 380/5/6 387/5/6
f 386/1/6 379/1/6 387/1/6
f 380/1/6 381/1/6 388/1/6
f 387/5/6 380/5/6 388/5/6
f 381/5/6 382/5/6 389/5/6
f 388/1/6 381/1/6 389/1/6
f 389/5/6 382/5/6 390/5/6
f 391/5/6 392/5/6 399/5/6
f 392/1/6 393/1/6 400/1/6
f 399/5/6 392/5/6 400/5/6
f 393/5/6 394/5/6 401/5/6
f 400/1/6 393/1/6 401/1/6
f 394/1/6 395/1/6 402/1/6
f 401/5/6 394/5/6 402/5/6
f 395/5/6 396/5/6 403/5/6
f 402/1/6 395/1/6 403/1/6
f 396/1/6 397/1/6 404/1/6
f 403/5/6 396/5/6 404/5/6
f 397/5/6 398/5/6 405/5/6
f 404/1/6 397/1/6 405/1/6
f 405/5/6 398/5/6 406/5/6
f 407/5/6 408/5/6 415/5/6
f 408/1/6 409/1/6 416/1/6
f 415/5/6 408/5/6 416/5/6
f 409/5/6 410/5/6 417/5/6
f 416/1/6 409/1/6 417/1/6
f 410/1/6 411/1/6 418/1/6
f 417/5/6 410/5/6 418/5/6
f 411/5/6 412/5/6 419/5/6
f 418/1/6 411/1/6 419/1/6
f 412/1/6 413/1/6 420/1/6
f 419/5/6 412/5/6 420/5/6
f 413/5/6 414/5/6 421/5/6
f 420/1/6 413/1/6 421/1/6
f 421/5/6 414/5/6 422/5/6
f 423/5/6 424/5/6 431/5/6
f 424/1/6 425/1/6 432/1/6
f 431/5/6 424/5/6 432/5/6
f 425/5/6 426/5/6 433/5/6
f 432/1/6 425/1/6 433/1/6
f 426/1/6 427/1/6 434/1/6
f 433/5/6 426/5/6 434/5/6
f 427/5/6 428/5/6 435/5/6
f 434/1/6 427/1/6 435/1/6
f 428/1/6 429/1/6 436/1/6
f 435/5/6 428/5/6 436/5/6
f 429/5/6 430/5/6 437/5/6
f 436/1/6 429/1/6 437/1/6
f 437/5/6 430/5/6 438/5/6
