# MagicaVoxel @ Ephtracy

# group
o 

# material
mtllib mimic_f_walk_3.mtl
usemtl palette

# normals
vn -1 0 0
vn 1 0 0
vn 0 0 1
vn 0 0 -1
vn 0 -1 0
vn 0 1 0

# texcoords
vt 0.751953 0.5
vt 0.822266 0.5
vt 0.947266 0.5
vt 0.970703 0.5
vt 0.974609 0.5
vt 0.978516 0.5

# verts
v -0.5 0 0.4
v -0.5 0 -0.5
v -0.5 0.1 0.3
v -0.5 0.1 -0.4
v -0.5 0.2 0.3
v -0.5 0.2 -0.4
v -0.5 0.3 0.4
v -0.5 0.3 0.3
v -0.5 0.3 0.2
v -0.5 0.3 0.1
v -0.5 0.3 -5.96046e-08
v -0.5 0.3 -0.1
v -0.5 0.3 -0.2
v -0.5 0.3 -0.3
v -0.5 0.3 -0.4
v -0.5 0.4 0.4
v -0.5 0.4 0.3
v -0.5 0.4 0.2
v -0.5 0.4 0.1
v -0.5 0.4 -5.96046e-08
v -0.5 0.4 -0.1
v -0.5 0.4 -0.2
v -0.5 0.4 -0.3
v -0.5 0.4 -0.4
v -0.5 0.5 0.4
v -0.5 0.5 0.3
v -0.5 0.5 0.1
v -0.5 0.5 -0.2
v -0.5 0.5 -0.4
v -0.5 0.5 -0.5
v -0.5 0.6 0.3
v -0.5 0.6 0.1
v -0.5 0.6 -0.2
v -0.5 0.6 -0.4
v -0.5 0.7 0.1
v -0.5 0.7 -0.2
v -0.4 0.3 0.4
v -0.4 0.3 0.3
v -0.4 0.3 0.2
v -0.4 0.3 0.1
v -0.4 0.3 -5.96046e-08
v -0.4 0.3 -0.1
v -0.4 0.3 -0.2
v -0.4 0.3 -0.3
v -0.4 0.4 0.4
v -0.4 0.4 0.3
v -0.4 0.4 0.2
v -0.4 0.4 0.1
v -0.4 0.4 -5.96046e-08
v -0.4 0.4 -0.1
v -0.4 0.4 -0.2
v -0.4 0.4 -0.3
v -0.2 0.2 0.5
v -0.2 0.2 0.4
v -0.2 0.3 0.4
v -0.2 0.3 0.3
v -0.2 0.4 0.5
v -0.2 0.4 0.4
v -0.2 0.4 0.3
v 0.4 0.3 0.4
v 0.4 0.3 0.3
v 0.4 0.4 0.4
v 0.4 0.4 0.3
v -0.3 0.3 0.4
v -0.3 0.3 0.3
v -0.3 0.4 0.4
v -0.3 0.4 0.3
v 0.3 0.2 0.5
v 0.3 0.2 0.4
v 0.3 0.3 0.4
v 0.3 0.3 0.3
v 0.3 0.4 0.5
v 0.3 0.4 0.4
v 0.3 0.4 0.3
v 0.5 0.3 0.4
v 0.5 0.3 0.3
v 0.5 0.3 0.2
v 0.5 0.3 0.1
v 0.5 0.3 -5.96046e-08
v 0.5 0.3 -0.1
v 0.5 0.3 -0.2
v 0.5 0.3 -0.3
v 0.5 0.4 0.4
v 0.5 0.4 0.3
v 0.5 0.4 0.2
v 0.5 0.4 0.1
v 0.5 0.4 -5.96046e-08
v 0.5 0.4 -0.1
v 0.5 0.4 -0.2
v 0.5 0.4 -0.3
v 0.6 0 0.4
v 0.6 0 -0.5
v 0.6 0.1 0.3
v 0.6 0.1 -0.4
v 0.6 0.2 0.3
v 0.6 0.2 -0.4
v 0.6 0.3 0.4
v 0.6 0.3 0.3
v 0.6 0.3 0.2
v 0.6 0.3 0.1
v 0.6 0.3 -5.96046e-08
v 0.6 0.3 -0.1
v 0.6 0.3 -0.2
v 0.6 0.3 -0.3
v 0.6 0.3 -0.4
v 0.6 0.4 0.4
v 0.6 0.4 0.3
v 0.6 0.4 0.2
v 0.6 0.4 0.1
v 0.6 0.4 -5.96046e-08
v 0.6 0.4 -0.1
v 0.6 0.4 -0.2
v 0.6 0.4 -0.3
v 0.6 0.4 -0.4
v 0.6 0.5 0.4
v 0.6 0.5 0.3
v 0.6 0.5 0.1
v 0.6 0.5 -0.2
v 0.6 0.5 -0.4
v 0.6 0.5 -0.5
v 0.6 0.6 0.3
v 0.6 0.6 0.1
v 0.6 0.6 -0.2
v 0.6 0.6 -0.4
v 0.6 0.7 0.1
v 0.6 0.7 -0.2
v -0.2 0.2 0.5
v -0.2 0.4 0.5
v 0.3 0.2 0.5
v 0.3 0.4 0.5
v -0.5 0 0.4
v -0.5 0.3 0.4
v -0.5 0.4 0.4
v -0.5 0.5 0.4
v -0.4 0.1 0.4
v -0.4 0.2 0.4
v -0.4 0.3 0.4
v -0.4 0.4 0.4
v -0.4 0.5 0.4
v -0.3 0.3 0.4
v -0.3 0.4 0.4
v -0.3 0.5 0.4
v -0.2 0.2 0.4
v -0.2 0.3 0.4
v -0.2 0.4 0.4
v -0.2 0.5 0.4
v 0.3 0.2 0.4
v 0.3 0.3 0.4
v 0.3 0.4 0.4
v 0.3 0.5 0.4
v 0.4 0.3 0.4
v 0.4 0.4 0.4
v 0.4 0.5 0.4
v 0.5 0.1 0.4
v 0.5 0.2 0.4
v 0.5 0.3 0.4
v 0.5 0.4 0.4
v 0.5 0.5 0.4
v 0.6 0 0.4
v 0.6 0.3 0.4
v 0.6 0.4 0.4
v 0.6 0.5 0.4
v -0.5 0.3 0.3
v -0.5 0.4 0.3
v -0.5 0.5 0.3
v -0.5 0.6 0.3
v -0.4 0.3 0.3
v -0.4 0.4 0.3
v -0.4 0.5 0.3
v -0.4 0.6 0.3
v -0.3 0.3 0.3
v -0.3 0.4 0.3
v -0.3 0.5 0.3
v -0.3 0.6 0.3
v -0.2 0.3 0.3
v -0.2 0.4 0.3
v -0.2 0.5 0.3
v -0.2 0.6 0.3
v 0.3 0.3 0.3
v 0.3 0.4 0.3
v 0.3 0.5 0.3
v 0.3 0.6 0.3
v 0.4 0.3 0.3
v 0.4 0.4 0.3
v 0.4 0.5 0.3
v 0.4 0.6 0.3
v 0.5 0.3 0.3
v 0.5 0.4 0.3
v 0.5 0.5 0.3
v 0.5 0.6 0.3
v 0.6 0.3 0.3
v 0.6 0.4 0.3
v 0.6 0.5 0.3
v 0.6 0.6 0.3
v -0.5 0.3 0.1
v -0.5 0.4 0.1
v -0.5 0.6 0.1
v -0.5 0.7 0.1
v -0.4 0.3 0.1
v -0.4 0.4 0.1
v -0.4 0.6 0.1
v -0.4 0.7 0.1
v -0.3 0.6 0.1
v -0.3 0.7 0.1
v -0.2 0.6 0.1
v -0.2 0.7 0.1
v 0.3 0.6 0.1
v 0.3 0.7 0.1
v 0.4 0.6 0.1
v 0.4 0.7 0.1
v 0.5 0.3 0.1
v 0.5 0.4 0.1
v 0.5 0.6 0.1
v 0.5 0.7 0.1
v 0.6 0.3 0.1
v 0.6 0.4 0.1
v 0.6 0.6 0.1
v 0.6 0.7 0.1
v -0.5 0.3 -0.1
v -0.5 0.4 -0.1
v -0.4 0.3 -0.1
v -0.4 0.4 -0.1
v 0.5 0.3 -0.1
v 0.5 0.4 -0.1
v 0.6 0.3 -0.1
v 0.6 0.4 -0.1
v -0.5 0.3 -0.3
v -0.5 0.4 -0.3
v -0.4 0.3 -0.3
v -0.4 0.4 -0.3
v 0.5 0.3 -0.3
v 0.5 0.4 -0.3
v 0.6 0.3 -0.3
v 0.6 0.4 -0.3
v -0.5 0.3 0.2
v -0.5 0.4 0.2
v -0.4 0.3 0.2
v -0.4 0.4 0.2
v 0.5 0.3 0.2
v 0.5 0.4 0.2
v 0.6 0.3 0.2
v 0.6 0.4 0.2
v -0.5 0.3 -5.96046e-08
v -0.5 0.4 -5.96046e-08
v -0.4 0.3 -5.96046e-08
v -0.4 0.4 -5.96046e-08
v 0.5 0.3 -5.96046e-08
v 0.5 0.4 -5.96046e-08
v 0.6 0.3 -5.96046e-08
v 0.6 0.4 -5.96046e-08
v -0.5 0.3 -0.2
v -0.5 0.4 -0.2
v -0.5 0.6 -0.2
v -0.5 0.7 -0.2
v -0.4 0.3 -0.2
v -0.4 0.4 -0.2
v -0.4 0.6 -0.2
v -0.4 0.7 -0.2
v -0.3 0.6 -0.2
v -0.3 0.7 -0.2
v -0.2 0.6 -0.2
v -0.2 0.7 -0.2
v 0.3 0.6 -0.2
v 0.3 0.7 -0.2
v 0.4 0.6 -0.2
v 0.4 0.7 -0.2
v 0.5 0.3 -0.2
v 0.5 0.4 -0.2
v 0.5 0.6 -0.2
v 0.5 0.7 -0.2
v 0.6 0.3 -0.2
v 0.6 0.4 -0.2
v 0.6 0.6 -0.2
v 0.6 0.7 -0.2
v -0.5 0.5 -0.4
v -0.5 0.6 -0.4
v -0.4 0.5 -0.4
v -0.4 0.6 -0.4
v -0.3 0.5 -0.4
v -0.3 0.6 -0.4
v -0.2 0.5 -0.4
v -0.2 0.6 -0.4
v 0.3 0.5 -0.4
v 0.3 0.6 -0.4
v 0.4 0.5 -0.4
v 0.4 0.6 -0.4
v 0.5 0.5 -0.4
v 0.5 0.6 -0.4
v 0.6 0.5 -0.4
v 0.6 0.6 -0.4
v -0.5 0 -0.5
v -0.5 0.5 -0.5
v -0.4 0.1 -0.5
v -0.4 0.2 -0.5
v -0.4 0.3 -0.5
v -0.4 0.5 -0.5
v -0.3 0.3 -0.5
v -0.3 0.5 -0.5
v -0.2 0.3 -0.5
v -0.2 0.5 -0.5
v 0.3 0.3 -0.5
v 0.3 0.5 -0.5
v 0.4 0.3 -0.5
v 0.4 0.5 -0.5
v 0.5 0.1 -0.5
v 0.5 0.2 -0.5
v 0.5 0.3 -0.5
v 0.5 0.5 -0.5
v 0.6 0 -0.5
v 0.6 0.5 -0.5
v -0.5 0 0.4
v 0.6 0 0.4
v -0.5 0 -0.5
v 0.6 0 -0.5
v -0.2 0.2 0.5
v 0.3 0.2 0.5
v -0.2 0.2 0.4
v 0.3 0.2 0.4
v -0.5 0.4 0.4
v -0.4 0.4 0.4
v -0.3 0.4 0.4
v -0.2 0.4 0.4
v 0.3 0.4 0.4
v 0.4 0.4 0.4
v 0.5 0.4 0.4
v 0.6 0.4 0.4
v -0.5 0.4 0.3
v -0.4 0.4 0.3
v -0.3 0.4 0.3
v -0.2 0.4 0.3
v 0.3 0.4 0.3
v 0.4 0.4 0.3
v 0.5 0.4 0.3
v 0.6 0.4 0.3
v -0.5 0.4 0.2
v -0.4 0.4 0.2
v 0.5 0.4 0.2
v 0.6 0.4 0.2
v -0.5 0.4 0.1
v -0.4 0.4 0.1
v 0.5 0.4 0.1
v 0.6 0.4 0.1
v -0.5 0.4 -5.96046e-08
v -0.4 0.4 -5.96046e-08
v 0.5 0.4 -5.96046e-08
v 0.6 0.4 -5.96046e-08
v -0.5 0.4 -0.1
v -0.4 0.4 -0.1
v 0.5 0.4 -0.1
v 0.6 0.4 -0.1
v -0.5 0.4 -0.2
v -0.4 0.4 -0.2
v 0.5 0.4 -0.2
v 0.6 0.4 -0.2
v -0.5 0.4 -0.3
v -0.4 0.4 -0.3
v 0.5 0.4 -0.3
v 0.6 0.4 -0.3
v -0.5 0.3 0.4
v -0.4 0.3 0.4
v -0.3 0.3 0.4
v -0.2 0.3 0.4
v 0.3 0.3 0.4
v 0.4 0.3 0.4
v 0.5 0.3 0.4
v 0.6 0.3 0.4
v -0.5 0.3 0.3
v -0.4 0.3 0.3
v -0.3 0.3 0.3
v -0.2 0.3 0.3
v 0.3 0.3 0.3
v 0.4 0.3 0.3
v 0.5 0.3 0.3
v 0.6 0.3 0.3
v -0.5 0.3 0.2
v -0.4 0.3 0.2
v 0.5 0.3 0.2
v 0.6 0.3 0.2
v -0.5 0.3 0.1
v -0.4 0.3 0.1
v 0.5 0.3 0.1
v 0.6 0.3 0.1
v -0.5 0.3 -5.96046e-08
v -0.4 0.3 -5.96046e-08
v 0.5 0.3 -5.96046e-08
v 0.6 0.3 -5.96046e-08
v -0.5 0.3 -0.1
v -0.4 0.3 -0.1
v 0.5 0.3 -0.1
v 0.6 0.3 -0.1
v -0.5 0.3 -0.2
v -0.4 0.3 -0.2
v 0.5 0.3 -0.2
v 0.6 0.3 -0.2
v -0.5 0.3 -0.3
v -0.4 0.3 -0.3
v 0.5 0.3 -0.3
v 0.6 0.3 -0.3
v -0.2 0.4 0.5
v 0.3 0.4 0.5
v -0.2 0.4 0.4
v 0.3 0.4 0.4
v -0.5 0.5 0.4
v -0.4 0.5 0.4
v -0.3 0.5 0.4
v -0.2 0.5 0.4
v 0.3 0.5 0.4
v 0.4 0.5 0.4
v 0.5 0.5 0.4
v 0.6 0.5 0.4
v -0.5 0.5 0.3
v -0.4 0.5 0.3
v -0.3 0.5 0.3
v -0.2 0.5 0.3
v 0.3 0.5 0.3
v 0.4 0.5 0.3
v 0.5 0.5 0.3
v 0.6 0.5 0.3
v -0.5 0.5 -0.4
v -0.4 0.5 -0.4
v -0.3 0.5 -0.4
v -0.2 0.5 -0.4
v 0.3 0.5 -0.4
v 0.4 0.5 -0.4
v 0.5 0.5 -0.4
v 0.6 0.5 -0.4
v -0.5 0.5 -0.5
v -0.4 0.5 -0.5
v -0.3 0.5 -0.5
v -0.2 0.5 -0.5
v 0.3 0.5 -0.5
v 0.4 0.5 -0.5
v 0.5 0.5 -0.5
v 0.6 0.5 -0.5
v -0.5 0.6 0.3
v -0.4 0.6 0.3
v -0.3 0.6 0.3
v -0.2 0.6 0.3
v 0.3 0.6 0.3
v 0.4 0.6 0.3
v 0.5 0.6 0.3
v 0.6 0.6 0.3
v -0.5 0.6 0.1
v -0.4 0.6 0.1
v -0.3 0.6 0.1
v -0.2 0.6 0.1
v 0.3 0.6 0.1
v 0.4 0.6 0.1
v 0.5 0.6 0.1
v 0.6 0.6 0.1
v -0.5 0.6 -0.2
v -0.4 0.6 -0.2
v -0.3 0.6 -0.2
v -0.2 0.6 -0.2
v 0.3 0.6 -0.2
v 0.4 0.6 -0.2
v 0.5 0.6 -0.2
v 0.6 0.6 -0.2
v -0.5 0.6 -0.4
v -0.4 0.6 -0.4
v -0.3 0.6 -0.4
v -0.2 0.6 -0.4
v 0.3 0.6 -0.4
v 0.4 0.6 -0.4
v 0.5 0.6 -0.4
v 0.6 0.6 -0.4
v -0.5 0.7 0.1
v -0.4 0.7 0.1
v -0.3 0.7 0.1
v -0.2 0.7 0.1
v 0.3 0.7 0.1
v 0.4 0.7 0.1
v 0.5 0.7 0.1
v 0.6 0.7 0.1
v -0.5 0.7 -0.2
v -0.4 0.7 -0.2
v -0.3 0.7 -0.2
v -0.2 0.7 -0.2
v 0.3 0.7 -0.2
v 0.4 0.7 -0.2
v 0.5 0.7 -0.2
v 0.6 0.7 -0.2

# faces
f 3/6/1 2/6/1 1/6/1
f 4/6/1 2/6/1 3/6/1
f 5/6/1 3/6/1 1/6/1
f 5/1/1 4/1/1 3/1/1
f 6/6/1 2/6/1 4/6/1
f 6/1/1 4/1/1 5/1/1
f 7/6/1 5/6/1 1/6/1
f 7/6/1 6/6/1 5/6/1
f 8/6/1 6/6/1 7/6/1
f 9/6/1 6/6/1 8/6/1
f 10/6/1 6/6/1 9/6/1
f 11/6/1 6/6/1 10/6/1
f 12/6/1 6/6/1 11/6/1
f 13/6/1 6/6/1 12/6/1
f 14/6/1 6/6/1 13/6/1
f 15/6/1 2/6/1 6/6/1
f 15/6/1 6/6/1 14/6/1
f 17/3/1 9/3/1 8/3/1
f 18/3/1 9/3/1 17/3/1
f 19/3/1 11/3/1 10/3/1
f 20/3/1 11/3/1 19/3/1
f 21/3/1 13/3/1 12/3/1
f 22/3/1 13/3/1 21/3/1
f 23/3/1 15/3/1 14/3/1
f 24/6/1 2/6/1 15/6/1
f 24/3/1 15/3/1 23/3/1
f 25/6/1 17/6/1 16/6/1
f 26/1/1 23/1/1 22/1/1
f 26/6/1 17/6/1 25/6/1
f 26/1/1 22/1/1 21/1/1
f 26/1/1 24/1/1 23/1/1
f 26/1/1 18/1/1 17/1/1
f 26/1/1 21/1/1 20/1/1
f 26/1/1 20/1/1 19/1/1
f 26/1/1 19/1/1 18/1/1
f 27/1/1 24/1/1 26/1/1
f 28/1/1 24/1/1 27/1/1
f 29/6/1 2/6/1 24/6/1
f 29/1/1 24/1/1 28/1/1
f 30/6/1 2/6/1 29/6/1
f 31/6/1 27/6/1 26/6/1
f 32/1/1 28/1/1 27/1/1
f 32/6/1 27/6/1 31/6/1
f 33/6/1 29/6/1 28/6/1
f 33/1/1 28/1/1 32/1/1
f 34/6/1 29/6/1 33/6/1
f 35/6/1 33/6/1 32/6/1
f 36/6/1 33/6/1 35/6/1
f 45/3/1 38/3/1 37/3/1
f 46/3/1 38/3/1 45/3/1
f 47/4/1 40/4/1 39/4/1
f 48/4/1 40/4/1 47/4/1
f 49/4/1 42/4/1 41/4/1
f 50/4/1 42/4/1 49/4/1
f 51/4/1 44/4/1 43/4/1
f 52/4/1 44/4/1 51/4/1
f 55/5/1 54/5/1 53/5/1
f 57/5/1 55/5/1 53/5/1
f 57/5/1 56/5/1 55/5/1
f 58/5/1 56/5/1 57/5/1
f 59/5/1 56/5/1 58/5/1
f 62/3/1 61/3/1 60/3/1
f 63/3/1 61/3/1 62/3/1
f 64/3/2 65/3/2 66/3/2
f 66/3/2 65/3/2 67/3/2
f 68/5/2 69/5/2 70/5/2
f 68/5/2 70/5/2 72/5/2
f 70/5/2 71/5/2 72/5/2
f 72/5/2 71/5/2 73/5/2
f 73/5/2 71/5/2 74/5/2
f 75/3/2 76/3/2 83/3/2
f 83/3/2 76/3/2 84/3/2
f 77/4/2 78/4/2 85/4/2
f 85/4/2 78/4/2 86/4/2
f 79/4/2 80/4/2 87/4/2
f 87/4/2 80/4/2 88/4/2
f 81/4/2 82/4/2 89/4/2
f 89/4/2 82/4/2 90/4/2
f 91/6/2 92/6/2 93/6/2
f 93/6/2 92/6/2 94/6/2
f 91/6/2 93/6/2 95/6/2
f 93/1/2 94/1/2 95/1/2
f 94/6/2 92/6/2 96/6/2
f 95/1/2 94/1/2 96/1/2
f 91/6/2 95/6/2 97/6/2
f 95/6/2 96/6/2 97/6/2
f 97/6/2 96/6/2 98/6/2
f 98/6/2 96/6/2 99/6/2
f 99/6/2 96/6/2 100/6/2
f 100/6/2 96/6/2 101/6/2
f 101/6/2 96/6/2 102/6/2
f 102/6/2 96/6/2 103/6/2
f 103/6/2 96/6/2 104/6/2
f 96/6/2 92/6/2 105/6/2
f 104/6/2 96/6/2 105/6/2
f 98/3/2 99/3/2 107/3/2
f 107/3/2 99/3/2 108/3/2
f 100/3/2 101/3/2 109/3/2
f 109/3/2 101/3/2 110/3/2
f 102/3/2 103/3/2 111/3/2
f 111/3/2 103/3/2 112/3/2
f 104/3/2 105/3/2 113/3/2
f 105/6/2 92/6/2 114/6/2
f 113/3/2 105/3/2 114/3/2
f 106/6/2 107/6/2 115/6/2
f 112/1/2 113/1/2 116/1/2
f 115/6/2 107/6/2 116/6/2
f 111/1/2 112/1/2 116/1/2
f 113/1/2 114/1/2 116/1/2
f 107/1/2 108/1/2 116/1/2
f 110/1/2 111/1/2 116/1/2
f 109/1/2 110/1/2 116/1/2
f 108/1/2 109/1/2 116/1/2
f 116/1/2 114/1/2 117/1/2
f 117/1/2 114/1/2 118/1/2
f 114/6/2 92/6/2 119/6/2
f 118/1/2 114/1/2 119/1/2
f 119/6/2 92/6/2 120/6/2
f 116/6/2 117/6/2 121/6/2
f 117/1/2 118/1/2 122/1/2
f 121/6/2 117/6/2 122/6/2
f 118/6/2 119/6/2 123/6/2
f 122/1/2 118/1/2 123/1/2
f 123/6/2 119/6/2 124/6/2
f 122/6/2 123/6/2 125/6/2
f 125/6/2 123/6/2 126/6/2
f 129/5/3 128/5/3 127/5/3
f 130/5/3 128/5/3 129/5/3
f 135/6/3 132/6/3 131/6/3
f 136/6/3 132/6/3 135/6/3
f 137/6/3 132/6/3 136/6/3
f 138/6/3 134/6/3 133/6/3
f 139/6/3 134/6/3 138/6/3
f 140/6/3 137/6/3 136/6/3
f 140/3/3 138/3/3 137/3/3
f 141/1/3 139/1/3 138/1/3
f 141/3/3 138/3/3 140/3/3
f 142/1/3 139/1/3 141/1/3
f 143/1/3 136/1/3 135/1/3
f 143/6/3 140/6/3 136/6/3
f 144/6/3 140/6/3 143/6/3
f 145/6/3 142/6/3 141/6/3
f 146/6/3 142/6/3 145/6/3
f 147/1/3 143/1/3 135/1/3
f 149/1/3 146/1/3 145/1/3
f 150/1/3 146/1/3 149/1/3
f 151/6/3 148/6/3 147/6/3
f 152/6/3 150/6/3 149/6/3
f 153/6/3 150/6/3 152/6/3
f 154/6/3 135/6/3 131/6/3
f 154/1/3 147/1/3 135/1/3
f 155/6/3 151/6/3 147/6/3
f 155/1/3 147/1/3 154/1/3
f 156/3/3 152/3/3 151/3/3
f 156/6/3 151/6/3 155/6/3
f 157/1/3 153/1/3 152/1/3
f 157/3/3 152/3/3 156/3/3
f 158/1/3 153/1/3 157/1/3
f 159/6/3 156/6/3 155/6/3
f 159/6/3 154/6/3 131/6/3
f 159/6/3 155/6/3 154/6/3
f 160/6/3 156/6/3 159/6/3
f 161/6/3 158/6/3 157/6/3
f 162/6/3 158/6/3 161/6/3
f 167/3/3 164/3/3 163/3/3
f 168/3/3 164/3/3 167/3/3
f 169/6/3 166/6/3 165/6/3
f 170/6/3 166/6/3 169/6/3
f 173/1/3 170/1/3 169/1/3
f 174/1/3 170/1/3 173/1/3
f 175/4/3 172/4/3 171/4/3
f 176/4/3 172/4/3 175/4/3
f 177/6/3 174/6/3 173/6/3
f 178/6/3 174/6/3 177/6/3
f 181/1/3 178/1/3 177/1/3
f 182/1/3 178/1/3 181/1/3
f 183/4/3 180/4/3 179/4/3
f 184/4/3 180/4/3 183/4/3
f 185/6/3 182/6/3 181/6/3
f 186/6/3 182/6/3 185/6/3
f 189/1/3 186/1/3 185/1/3
f 190/1/3 186/1/3 189/1/3
f 191/3/3 188/3/3 187/3/3
f 192/3/3 188/3/3 191/3/3
f 193/6/3 190/6/3 189/6/3
f 194/6/3 190/6/3 193/6/3
f 199/3/3 196/3/3 195/3/3
f 200/3/3 196/3/3 199/3/3
f 201/6/3 198/6/3 197/6/3
f 202/6/3 198/6/3 201/6/3
f 203/1/3 202/1/3 201/1/3
f 204/1/3 202/1/3 203/1/3
f 205/6/3 204/6/3 203/6/3
f 206/6/3 204/6/3 205/6/3
f 207/1/3 206/1/3 205/1/3
f 208/1/3 206/1/3 207/1/3
f 209/6/3 208/6/3 207/6/3
f 210/6/3 208/6/3 209/6/3
f 213/1/3 210/1/3 209/1/3
f 214/1/3 210/1/3 213/1/3
f 215/3/3 212/3/3 211/3/3
f 216/3/3 212/3/3 215/3/3
f 217/6/3 214/6/3 213/6/3
f 218/6/3 214/6/3 217/6/3
f 221/3/3 220/3/3 219/3/3
f 222/3/3 220/3/3 221/3/3
f 225/3/3 224/3/3 223/3/3
f 226/3/3 224/3/3 225/3/3
f 229/3/3 228/3/3 227/3/3
f 230/3/3 228/3/3 229/3/3
f 233/3/3 232/3/3 231/3/3
f 234/3/3 232/3/3 233/3/3
f 235/3/4 236/3/4 237/3/4
f 237/3/4 236/3/4 238/3/4
f 239/3/4 240/3/4 241/3/4
f 241/3/4 240/3/4 242/3/4
f 243/3/4 244/3/4 245/3/4
f 245/3/4 244/3/4 246/3/4
f 247/3/4 248/3/4 249/3/4
f 249/3/4 248/3/4 250/3/4
f 251/3/4 252/3/4 255/3/4
f 255/3/4 252/3/4 256/3/4
f 253/6/4 254/6/4 257/6/4
f 257/6/4 254/6/4 258/6/4
f 257/1/4 258/1/4 259/1/4
f 259/1/4 258/1/4 260/1/4
f 259/6/4 260/6/4 261/6/4
f 261/6/4 260/6/4 262/6/4
f 261/1/4 262/1/4 263/1/4
f 263/1/4 262/1/4 264/1/4
f 263/6/4 264/6/4 265/6/4
f 265/6/4 264/6/4 266/6/4
f 265/1/4 266/1/4 269/1/4
f 269/1/4 266/1/4 270/1/4
f 267/3/4 268/3/4 271/3/4
f 271/3/4 268/3/4 272/3/4
f 269/6/4 270/6/4 273/6/4
f 273/6/4 270/6/4 274/6/4
f 275/6/4 276/6/4 277/6/4
f 277/6/4 276/6/4 278/6/4
f 277/1/4 278/1/4 279/1/4
f 279/1/4 278/1/4 280/1/4
f 279/6/4 280/6/4 281/6/4
f 281/6/4 280/6/4 282/6/4
f 281/1/4 282/1/4 283/1/4
f 283/1/4 282/1/4 284/1/4
f 283/6/4 284/6/4 285/6/4
f 285/6/4 284/6/4 286/6/4
f 285/1/4 286/1/4 287/1/4
f 287/1/4 286/1/4 288/1/4
f 287/6/4 288/6/4 289/6/4
f 289/6/4 288/6/4 290/6/4
f 291/6/4 292/6/4 293/6/4
f 293/6/4 292/6/4 294/6/4
f 294/6/4 292/6/4 295/6/4
f 295/6/4 292/6/4 296/6/4
f 294/6/4 295/6/4 297/6/4
f 295/1/4 296/1/4 297/1/4
f 297/1/4 296/1/4 298/1/4
f 294/6/4 297/6/4 299/6/4
f 297/6/4 298/6/4 299/6/4
f 299/6/4 298/6/4 300/6/4
f 294/6/4 299/6/4 301/6/4
f 299/1/4 300/1/4 301/1/4
f 301/1/4 300/1/4 302/1/4
f 294/6/4 301/6/4 303/6/4
f 301/6/4 302/6/4 303/6/4
f 303/6/4 302/6/4 304/6/4
f 291/6/4 293/6/4 305/6/4
f 293/1/4 294/1/4 305/1/4
f 294/6/4 303/6/4 306/6/4
f 305/1/4 294/1/4 306/1/4
f 303/1/4 304/1/4 307/1/4
f 306/6/4 303/6/4 307/6/4
f 307/1/4 304/1/4 308/1/4
f 305/6/4 306/6/4 309/6/4
f 291/6/4 305/6/4 309/6/4
f 307/6/4 308/6/4 309/6/4
f 306/6/4 307/6/4 309/6/4
f 309/6/4 308/6/4 310/6/4
f 313/6/5 312/6/5 311/6/5
f 314/6/5 312/6/5 313/6/5
f 317/5/5 316/5/5 315/5/5
f 318/5/5 316/5/5 317/5/5
f 327/6/5 320/6/5 319/6/5
f 328/6/5 320/6/5 327/6/5
f 329/6/5 322/6/5 321/6/5
f 330/6/5 322/6/5 329/6/5
f 331/6/5 324/6/5 323/6/5
f 332/6/5 324/6/5 331/6/5
f 333/6/5 326/6/5 325/6/5
f 334/6/5 326/6/5 333/6/5
f 339/1/5 336/1/5 335/1/5
f 340/1/5 336/1/5 339/1/5
f 341/1/5 338/1/5 337/1/5
f 342/1/5 338/1/5 341/1/5
f 347/1/5 344/1/5 343/1/5
f 348/1/5 344/1/5 347/1/5
f 349/1/5 346/1/5 345/1/5
f 350/1/5 346/1/5 349/1/5
f 355/1/5 352/1/5 351/1/5
f 356/1/5 352/1/5 355/1/5
f 357/1/5 354/1/5 353/1/5
f 358/1/5 354/1/5 357/1/5
f 359/6/6 360/6/6 367/6/6
f 367/6/6 360/6/6 368/6/6
f 361/6/6 362/6/6 369/6/6
f 369/6/6 362/6/6 370/6/6
f 363/6/6 364/6/6 371/6/6
f 371/6/6 364/6/6 372/6/6
f 365/6/6 366/6/6 373/6/6
f 373/6/6 366/6/6 374/6/6
f 375/6/6 376/6/6 379/6/6
f 379/6/6 376/6/6 380/6/6
f 377/6/6 378/6/6 381/6/6
f 381/6/6 378/6/6 382/6/6
f 383/6/6 384/6/6 387/6/6
f 387/6/6 384/6/6 388/6/6
f 385/6/6 386/6/6 389/6/6
f 389/6/6 386/6/6 390/6/6
f 391/6/6 392/6/6 395/6/6
f 395/6/6 392/6/6 396/6/6
f 393/6/6 394/6/6 397/6/6
f 397/6/6 394/6/6 398/6/6
f 399/5/6 400/5/6 401/5/6
f 401/5/6 400/5/6 402/5/6
f 403/6/6 404/6/6 411/6/6
f 404/1/6 405/1/6 412/1/6
f 411/6/6 404/6/6 412/6/6
f 405/6/6 406/6/6 413/6/6
f 412/1/6 405/1/6 413/1/6
f 406/1/6 407/1/6 414/1/6
f 413/6/6 406/6/6 414/6/6
f 407/6/6 408/6/6 415/6/6
f 414/1/6 407/1/6 415/1/6
f 408/1/6 409/1/6 416/1/6
f 415/6/6 408/6/6 416/6/6
f 409/6/6 410/6/6 417/6/6
f 416/1/6 409/1/6 417/1/6
f 417/6/6 410/6/6 418/6/6
f 419/6/6 420/6/6 427/6/6
f 420/1/6 421/1/6 428/1/6
f 427/6/6 420/6/6 428/6/6
f 421/6/6 422/6/6 429/6/6
f 428/1/6 421/1/6 429/1/6
f 422/1/6 423/1/6 430/1/6
f 429/6/6 422/6/6 430/6/6
f 423/6/6 424/6/6 431/6/6
f 430/1/6 423/1/6 431/1/6
f 424/1/6 425/1/6 432/1/6
f 431/6/6 424/6/6 432/6/6
f 425/6/6 426/6/6 433/6/6
f 432/1/6 425/1/6 433/1/6
f 433/6/6 426/6/6 434/6/6
f 435/6/6 436/6/6 443/6/6
f 436/1/6 437/1/6 444/1/6
f 443/6/6 436/6/6 444/6/6
f 437/6/6 438/6/6 445/6/6
f 444/1/6 437/1/6 445/1/6
f 438/1/6 439/1/6 446/1/6
f 445/6/6 438/6/6 446/6/6
f 439/6/6 440/6/6 447/6/6
f 446/1/6 439/1/6 447/1/6
f 440/1/6 441/1/6 448/1/6
f 447/6/6 440/6/6 448/6/6
f 441/6/6 442/6/6 449/6/6
f 448/1/6 441/1/6 449/1/6
f 449/6/6 442/6/6 450/6/6
f 451/6/6 452/6/6 459/6/6
f 452/1/6 453/1/6 460/1/6
f 459/6/6 452/6/6 460/6/6
f 453/6/6 454/6/6 461/6/6
f 460/1/6 453/1/6 461/1/6
f 454/1/6 455/1/6 462/1/6
f 461/6/6 454/6/6 462/6/6
f 455/6/6 456/6/6 463/6/6
f 462/1/6 455/1/6 463/1/6
f 456/1/6 457/1/6 464/1/6
f 463/6/6 456/6/6 464/6/6
f 457/6/6 458/6/6 465/6/6
f 464/1/6 457/1/6 465/1/6
f 465/6/6 458/6/6 466/6/6
f 467/6/6 468/6/6 475/6/6
f 468/1/6 469/1/6 476/1/6
f 475/6/6 468/6/6 476/6/6
f 469/6/6 470/6/6 477/6/6
f 476/1/6 469/1/6 477/1/6
f 470/1/6 471/1/6 478/1/6
f 477/6/6 470/6/6 478/6/6
f 471/6/6 472/6/6 479/6/6
f 478/1/6 471/1/6 479/1/6
f 472/1/6 473/1/6 480/1/6
f 479/6/6 472/6/6 480/6/6
f 473/6/6 474/6/6 481/6/6
f 480/1/6 473/1/6 481/1/6
f 481/6/6 474/6/6 482/6/6
