# MagicaVoxel @ Ephtracy

# group
o 

# material
mtllib mimic_f_walk_0.mtl
usemtl palette

# normals
vn -1 0 0
vn 1 0 0
vn 0 0 1
vn 0 0 -1
vn 0 -1 0
vn 0 1 0

# texcoords
vt 0.751953 0.5
vt 0.947266 0.5
vt 0.970703 0.5
vt 0.974609 0.5
vt 0.978516 0.5

# verts
v -0.4 0 0.3
v -0.4 0 -0.4
v -0.4 0.1 0.2
v -0.4 0.1 -0.3
v -0.4 0.4 0.2
v -0.4 0.4 -0.3
v -0.4 0.5 0.3
v -0.4 0.5 0.2
v -0.4 0.5 0.1
v -0.4 0.5 0
v -0.4 0.5 -0.1
v -0.4 0.5 -0.2
v -0.4 0.5 -0.3
v -0.4 0.6 0.2
v -0.4 0.6 0.1
v -0.4 0.6 0
v -0.4 0.6 -0.1
v -0.4 0.6 -0.2
v -0.4 0.6 -0.3
v -0.4 0.7 0.3
v -0.4 0.7 0.2
v -0.4 0.7 0.1
v -0.4 0.7 0
v -0.4 0.7 -0.1
v -0.4 0.7 -0.2
v -0.4 0.7 -0.3
v -0.4 0.8 0.3
v -0.4 0.8 0.2
v -0.4 0.8 0.1
v -0.4 0.8 0
v -0.4 0.8 -0.2
v -0.4 0.8 -0.3
v -0.4 0.8 -0.4
v -0.4 0.9 0.3
v -0.4 0.9 0.2
v -0.4 0.9 0
v -0.4 0.9 -0.2
v -0.4 0.9 -0.3
v -0.4 1 0.2
v -0.4 1 -0.2
v -0.3 0.5 0.3
v -0.3 0.5 0.2
v -0.3 0.5 0.1
v -0.3 0.5 0
v -0.3 0.5 -0.1
v -0.3 0.5 -0.2
v -0.3 0.6 0.3
v -0.3 0.6 0.2
v -0.3 0.6 0.1
v -0.3 0.6 0
v -0.3 0.6 -0.1
v -0.3 0.6 -0.2
v -0.2 0.7 0.3
v -0.2 0.7 0.2
v -0.2 0.8 0.3
v -0.2 0.8 0.2
v -0.1 0.2 0.4
v -0.1 0.2 0.3
v -0.1 0.4 0.3
v -0.1 0.5 0.3
v -0.1 0.5 0.2
v -0.1 0.6 0.4
v -0.1 0.6 0.2
v 0 0.7 0.3
v 0 0.7 0.2
v 0 0.8 0.3
v 0 0.8 0.2
v 0.2 0.7 0.3
v 0.2 0.7 0.2
v 0.2 0.8 0.3
v 0.2 0.8 0.2
v 0.3 0.5 0.3
v 0.3 0.5 0.2
v 0.3 0.6 0.3
v 0.3 0.6 0.2
v 0.4 0.6 -0.1
v 0.4 0.6 -0.2
v 0.4 0.7 0.3
v 0.4 0.7 0.2
v 0.4 0.7 0.1
v 0.4 0.7 0
v 0.4 0.7 -0.1
v 0.4 0.7 -0.2
v 0.4 0.8 0.3
v 0.4 0.8 0.2
v 0.4 0.8 0.1
v 0.4 0.8 0
v -0.3 0.6 -0.1
v -0.3 0.6 -0.2
v -0.3 0.7 0.3
v -0.3 0.7 0.2
v -0.3 0.7 0.1
v -0.3 0.7 0
v -0.3 0.7 -0.1
v -0.3 0.7 -0.2
v -0.3 0.8 0.3
v -0.3 0.8 0.2
v -0.3 0.8 0.1
v -0.3 0.8 0
v -0.2 0.5 0.3
v -0.2 0.5 0.2
v -0.2 0.6 0.3
v -0.2 0.6 0.2
v -0.1 0.7 0.3
v -0.1 0.7 0.2
v -0.1 0.8 0.3
v -0.1 0.8 0.2
v 0.1 0.7 0.3
v 0.1 0.7 0.2
v 0.1 0.8 0.3
v 0.1 0.8 0.2
v 0.2 0.2 0.4
v 0.2 0.2 0.3
v 0.2 0.4 0.3
v 0.2 0.5 0.3
v 0.2 0.5 0.2
v 0.2 0.6 0.4
v 0.2 0.6 0.2
v 0.3 0.7 0.3
v 0.3 0.7 0.2
v 0.3 0.8 0.3
v 0.3 0.8 0.2
v 0.4 0.5 0.3
v 0.4 0.5 0.2
v 0.4 0.5 0.1
v 0.4 0.5 0
v 0.4 0.5 -0.1
v 0.4 0.5 -0.2
v 0.4 0.6 0.3
v 0.4 0.6 0.2
v 0.4 0.6 0.1
v 0.4 0.6 0
v 0.4 0.6 -0.1
v 0.4 0.6 -0.2
v 0.5 0 0.3
v 0.5 0 -0.4
v 0.5 0.1 0.2
v 0.5 0.1 -0.3
v 0.5 0.4 0.2
v 0.5 0.4 -0.3
v 0.5 0.5 0.3
v 0.5 0.5 0.2
v 0.5 0.5 0.1
v 0.5 0.5 0
v 0.5 0.5 -0.1
v 0.5 0.5 -0.2
v 0.5 0.5 -0.3
v 0.5 0.6 0.2
v 0.5 0.6 0.1
v 0.5 0.6 0
v 0.5 0.6 -0.1
v 0.5 0.6 -0.2
v 0.5 0.6 -0.3
v 0.5 0.7 0.3
v 0.5 0.7 0.2
v 0.5 0.7 0.1
v 0.5 0.7 0
v 0.5 0.7 -0.1
v 0.5 0.7 -0.2
v 0.5 0.7 -0.3
v 0.5 0.8 0.3
v 0.5 0.8 0.2
v 0.5 0.8 0.1
v 0.5 0.8 0
v 0.5 0.8 -0.2
v 0.5 0.8 -0.3
v 0.5 0.8 -0.4
v 0.5 0.9 0.3
v 0.5 0.9 0.2
v 0.5 0.9 0
v 0.5 0.9 -0.2
v 0.5 0.9 -0.3
v 0.5 1 0.2
v 0.5 1 -0.2
v -0.1 0.2 0.4
v -0.1 0.6 0.4
v 0.2 0.2 0.4
v 0.2 0.6 0.4
v -0.4 0 0.3
v -0.4 0.5 0.3
v -0.4 0.7 0.3
v -0.4 0.8 0.3
v -0.4 0.9 0.3
v -0.3 0.1 0.3
v -0.3 0.4 0.3
v -0.3 0.5 0.3
v -0.3 0.6 0.3
v -0.3 0.7 0.3
v -0.3 0.8 0.3
v -0.3 0.9 0.3
v -0.2 0.5 0.3
v -0.2 0.6 0.3
v -0.2 0.7 0.3
v -0.2 0.8 0.3
v -0.2 0.9 0.3
v -0.1 0.2 0.3
v -0.1 0.4 0.3
v -0.1 0.5 0.3
v -0.1 0.7 0.3
v -0.1 0.8 0.3
v -0.1 0.9 0.3
v 0 0.7 0.3
v 0 0.8 0.3
v 0.1 0.7 0.3
v 0.1 0.8 0.3
v 0.2 0.2 0.3
v 0.2 0.4 0.3
v 0.2 0.5 0.3
v 0.2 0.7 0.3
v 0.2 0.8 0.3
v 0.2 0.9 0.3
v 0.3 0.5 0.3
v 0.3 0.6 0.3
v 0.3 0.7 0.3
v 0.3 0.8 0.3
v 0.3 0.9 0.3
v 0.4 0.1 0.3
v 0.4 0.4 0.3
v 0.4 0.5 0.3
v 0.4 0.6 0.3
v 0.4 0.7 0.3
v 0.4 0.8 0.3
v 0.4 0.9 0.3
v 0.5 0 0.3
v 0.5 0.5 0.3
v 0.5 0.7 0.3
v 0.5 0.8 0.3
v 0.5 0.9 0.3
v -0.4 0.5 0.2
v -0.4 0.6 0.2
v -0.4 0.9 0.2
v -0.4 1 0.2
v -0.3 0.5 0.2
v -0.3 0.6 0.2
v -0.3 0.9 0.2
v -0.3 1 0.2
v -0.2 0.5 0.2
v -0.2 0.6 0.2
v -0.2 0.9 0.2
v -0.2 1 0.2
v -0.1 0.5 0.2
v -0.1 0.6 0.2
v -0.1 0.9 0.2
v -0.1 1 0.2
v 0.2 0.5 0.2
v 0.2 0.6 0.2
v 0.2 0.9 0.2
v 0.2 1 0.2
v 0.3 0.5 0.2
v 0.3 0.6 0.2
v 0.3 0.9 0.2
v 0.3 1 0.2
v 0.4 0.5 0.2
v 0.4 0.6 0.2
v 0.4 0.9 0.2
v 0.4 1 0.2
v 0.5 0.5 0.2
v 0.5 0.6 0.2
v 0.5 0.9 0.2
v 0.5 1 0.2
v -0.4 0.7 0.1
v -0.4 0.8 0.1
v -0.3 0.7 0.1
v -0.3 0.8 0.1
v 0.4 0.7 0.1
v 0.4 0.8 0.1
v 0.5 0.7 0.1
v 0.5 0.8 0.1
v -0.4 0.5 0
v -0.4 0.6 0
v -0.3 0.5 0
v -0.3 0.6 0
v -0.3 0.7 0
v -0.3 0.8 0
v 0.4 0.5 0
v 0.4 0.6 0
v 0.4 0.7 0
v 0.4 0.8 0
v 0.5 0.5 0
v 0.5 0.6 0
v -0.4 0.6 -0.1
v -0.4 0.7 -0.1
v -0.3 0.6 -0.1
v -0.3 0.7 -0.1
v 0.4 0.6 -0.1
v 0.4 0.7 -0.1
v 0.5 0.6 -0.1
v 0.5 0.7 -0.1
v -0.4 0.5 -0.2
v -0.4 0.6 -0.2
v -0.3 0.5 -0.2
v -0.3 0.6 -0.2
v -0.3 0.7 -0.2
v 0.4 0.5 -0.2
v 0.4 0.6 -0.2
v 0.4 0.7 -0.2
v 0.5 0.5 -0.2
v 0.5 0.6 -0.2
v -0.4 0.7 0.2
v -0.4 0.8 0.2
v -0.3 0.7 0.2
v -0.3 0.8 0.2
v -0.2 0.7 0.2
v -0.2 0.8 0.2
v -0.1 0.7 0.2
v -0.1 0.8 0.2
v 0 0.7 0.2
v 0 0.8 0.2
v 0.1 0.7 0.2
v 0.1 0.8 0.2
v 0.2 0.7 0.2
v 0.2 0.8 0.2
v 0.3 0.7 0.2
v 0.3 0.8 0.2
v 0.4 0.7 0.2
v 0.4 0.8 0.2
v 0.5 0.7 0.2
v 0.5 0.8 0.2
v -0.4 0.5 0.1
v -0.4 0.6 0.1
v -0.3 0.5 0.1
v -0.3 0.6 0.1
v 0.4 0.5 0.1
v 0.4 0.6 0.1
v 0.5 0.5 0.1
v 0.5 0.6 0.1
v -0.4 0.5 -0.1
v -0.4 0.6 -0.1
v -0.3 0.5 -0.1
v -0.3 0.6 -0.1
v 0.4 0.5 -0.1
v 0.4 0.6 -0.1
v 0.5 0.5 -0.1
v 0.5 0.6 -0.1
v -0.4 0.9 -0.2
v -0.4 1 -0.2
v -0.3 0.9 -0.2
v -0.3 1 -0.2
v -0.2 0.9 -0.2
v -0.2 1 -0.2
v -0.1 0.9 -0.2
v -0.1 1 -0.2
v 0.2 0.9 -0.2
v 0.2 1 -0.2
v 0.3 0.9 -0.2
v 0.3 1 -0.2
v 0.4 0.9 -0.2
v 0.4 1 -0.2
v 0.5 0.9 -0.2
v 0.5 1 -0.2
v -0.4 0.8 -0.3
v -0.4 0.9 -0.3
v -0.3 0.8 -0.3
v -0.3 0.9 -0.3
v -0.2 0.8 -0.3
v -0.2 0.9 -0.3
v -0.1 0.8 -0.3
v -0.1 0.9 -0.3
v 0.2 0.8 -0.3
v 0.2 0.9 -0.3
v 0.3 0.8 -0.3
v 0.3 0.9 -0.3
v 0.4 0.8 -0.3
v 0.4 0.9 -0.3
v 0.5 0.8 -0.3
v 0.5 0.9 -0.3
v -0.4 0 -0.4
v -0.4 0.8 -0.4
v -0.3 0.1 -0.4
v -0.3 0.4 -0.4
v -0.3 0.6 -0.4
v -0.3 0.8 -0.4
v -0.2 0.6 -0.4
v -0.2 0.8 -0.4
v -0.1 0.6 -0.4
v -0.1 0.8 -0.4
v 0.2 0.6 -0.4
v 0.2 0.8 -0.4
v 0.3 0.6 -0.4
v 0.3 0.8 -0.4
v 0.4 0.1 -0.4
v 0.4 0.4 -0.4
v 0.4 0.6 -0.4
v 0.4 0.8 -0.4
v 0.5 0 -0.4
v 0.5 0.8 -0.4
v -0.4 0 0.3
v 0.5 0 0.3
v -0.4 0 -0.4
v 0.5 0 -0.4
v -0.1 0.2 0.4
v 0.2 0.2 0.4
v -0.1 0.2 0.3
v 0.2 0.2 0.3
v -0.4 0.6 -0.1
v -0.3 0.6 -0.1
v 0.4 0.6 -0.1
v 0.5 0.6 -0.1
v -0.4 0.6 -0.2
v -0.3 0.6 -0.2
v 0.4 0.6 -0.2
v 0.5 0.6 -0.2
v -0.4 0.7 0.3
v -0.3 0.7 0.3
v -0.2 0.7 0.3
v -0.1 0.7 0.3
v 0 0.7 0.3
v 0.1 0.7 0.3
v 0.2 0.7 0.3
v 0.3 0.7 0.3
v 0.4 0.7 0.3
v 0.5 0.7 0.3
v -0.4 0.7 0.2
v -0.3 0.7 0.2
v -0.2 0.7 0.2
v -0.1 0.7 0.2
v 0 0.7 0.2
v 0.1 0.7 0.2
v 0.2 0.7 0.2
v 0.3 0.7 0.2
v 0.4 0.7 0.2
v 0.5 0.7 0.2
v -0.4 0.7 0.1
v -0.3 0.7 0.1
v 0.4 0.7 0.1
v 0.5 0.7 0.1
v -0.4 0.7 0
v -0.3 0.7 0
v 0.4 0.7 0
v 0.5 0.7 0
v -0.4 0.7 -0.1
v -0.3 0.7 -0.1
v 0.4 0.7 -0.1
v 0.5 0.7 -0.1
v -0.3 0.7 -0.2
v 0.4 0.7 -0.2
v -0.3 0.8 0.3
v -0.2 0.8 0.3
v -0.1 0.8 0.3
v 0 0.8 0.3
v 0.1 0.8 0.3
v 0.2 0.8 0.3
v 0.3 0.8 0.3
v 0.4 0.8 0.3
v -0.4 0.8 0.2
v -0.3 0.8 0.2
v -0.2 0.8 0.2
v -0.1 0.8 0.2
v 0 0.8 0.2
v 0.1 0.8 0.2
v 0.2 0.8 0.2
v 0.3 0.8 0.2
v 0.4 0.8 0.2
v 0.5 0.8 0.2
v -0.4 0.8 0.1
v -0.3 0.8 0.1
v 0.4 0.8 0.1
v 0.5 0.8 0.1
v -0.3 0.8 0
v 0.4 0.8 0
v -0.4 0.5 0.3
v -0.3 0.5 0.3
v -0.2 0.5 0.3
v -0.1 0.5 0.3
v 0.2 0.5 0.3
v 0.3 0.5 0.3
v 0.4 0.5 0.3
v 0.5 0.5 0.3
v -0.4 0.5 0.2
v -0.3 0.5 0.2
v -0.2 0.5 0.2
v -0.1 0.5 0.2
v 0.2 0.5 0.2
v 0.3 0.5 0.2
v 0.4 0.5 0.2
v 0.5 0.5 0.2
v -0.4 0.5 0.1
v -0.3 0.5 0.1
v 0.4 0.5 0.1
v 0.5 0.5 0.1
v -0.4 0.5 0
v -0.3 0.5 0
v 0.4 0.5 0
v 0.5 0.5 0
v -0.4 0.5 -0.1
v -0.3 0.5 -0.1
v 0.4 0.5 -0.1
v 0.5 0.5 -0.1
v -0.4 0.5 -0.2
v -0.3 0.5 -0.2
v 0.4 0.5 -0.2
v 0.5 0.5 -0.2
v -0.1 0.6 0.4
v 0.2 0.6 0.4
v -0.3 0.6 0.3
v -0.2 0.6 0.3
v 0.3 0.6 0.3
v 0.4 0.6 0.3
v -0.4 0.6 0.2
v -0.3 0.6 0.2
v -0.2 0.6 0.2
v -0.1 0.6 0.2
v 0.2 0.6 0.2
v 0.3 0.6 0.2
v 0.4 0.6 0.2
v 0.5 0.6 0.2
v -0.4 0.6 0.1
v -0.3 0.6 0.1
v -0.1 0.6 0.1
v 0.2 0.6 0.1
v 0.4 0.6 0.1
v 0.5 0.6 0.1
v -0.4 0.6 0
v -0.3 0.6 0
v 0.4 0.6 0
v 0.5 0.6 0
v -0.4 0.6 -0.1
v -0.3 0.6 -0.1
v 0.4 0.6 -0.1
v 0.5 0.6 -0.1
v -0.3 0.6 -0.2
v 0.4 0.6 -0.2
v -0.4 0.8 -0.3
v -0.3 0.8 -0.3
v -0.2 0.8 -0.3
v -0.1 0.8 -0.3
v 0.2 0.8 -0.3
v 0.3 0.8 -0.3
v 0.4 0.8 -0.3
v 0.5 0.8 -0.3
v -0.4 0.8 -0.4
v -0.3 0.8 -0.4
v -0.2 0.8 -0.4
v -0.1 0.8 -0.4
v 0.2 0.8 -0.4
v 0.3 0.8 -0.4
v 0.4 0.8 -0.4
v 0.5 0.8 -0.4
v -0.4 0.9 0.3
v -0.3 0.9 0.3
v -0.2 0.9 0.3
v -0.1 0.9 0.3
v 0.2 0.9 0.3
v 0.3 0.9 0.3
v 0.4 0.9 0.3
v 0.5 0.9 0.3
v -0.4 0.9 0.2
v -0.3 0.9 0.2
v -0.2 0.9 0.2
v -0.1 0.9 0.2
v 0.2 0.9 0.2
v 0.3 0.9 0.2
v 0.4 0.9 0.2
v 0.5 0.9 0.2
v -0.4 0.9 -0.2
v -0.3 0.9 -0.2
v -0.2 0.9 -0.2
v -0.1 0.9 -0.2
v 0.2 0.9 -0.2
v 0.3 0.9 -0.2
v 0.4 0.9 -0.2
v 0.5 0.9 -0.2
v -0.4 0.9 -0.3
v -0.3 0.9 -0.3
v -0.2 0.9 -0.3
v -0.1 0.9 -0.3
v 0.2 0.9 -0.3
v 0.3 0.9 -0.3
v 0.4 0.9 -0.3
v 0.5 0.9 -0.3
v -0.4 1 0.2
v -0.3 1 0.2
v -0.2 1 0.2
v -0.1 1 0.2
v 0.2 1 0.2
v 0.3 1 0.2
v 0.4 1 0.2
v 0.5 1 0.2
v -0.4 1 -0.2
v -0.3 1 -0.2
v -0.2 1 -0.2
v -0.1 1 -0.2
v 0.2 1 -0.2
v 0.3 1 -0.2
v 0.4 1 -0.2
v 0.5 1 -0.2

# faces
f 3/5/1 2/5/1 1/5/1
f 4/5/1 2/5/1 3/5/1
f 5/5/1 3/5/1 1/5/1
f 5/1/1 4/1/1 3/1/1
f 6/5/1 2/5/1 4/5/1
f 6/1/1 4/1/1 5/1/1
f 7/5/1 5/5/1 1/5/1
f 7/5/1 6/5/1 5/5/1
f 8/5/1 6/5/1 7/5/1
f 9/5/1 6/5/1 8/5/1
f 10/5/1 6/5/1 9/5/1
f 11/5/1 6/5/1 10/5/1
f 12/5/1 6/5/1 11/5/1
f 13/5/1 2/5/1 6/5/1
f 13/5/1 6/5/1 12/5/1
f 14/2/1 9/2/1 8/2/1
f 15/2/1 9/2/1 14/2/1
f 16/2/1 11/2/1 10/2/1
f 17/2/1 11/2/1 16/2/1
f 18/2/1 13/2/1 12/2/1
f 19/5/1 2/5/1 13/5/1
f 19/2/1 13/2/1 18/2/1
f 24/2/1 18/2/1 17/2/1
f 25/5/1 19/5/1 18/5/1
f 25/2/1 18/2/1 24/2/1
f 26/5/1 2/5/1 19/5/1
f 26/5/1 19/5/1 25/5/1
f 27/2/1 21/2/1 20/2/1
f 28/2/1 21/2/1 27/2/1
f 29/2/1 23/2/1 22/2/1
f 30/5/1 25/5/1 24/5/1
f 30/5/1 24/5/1 23/5/1
f 30/2/1 23/2/1 29/2/1
f 31/1/1 26/1/1 25/1/1
f 31/5/1 25/5/1 30/5/1
f 32/5/1 2/5/1 26/5/1
f 32/1/1 26/1/1 31/1/1
f 33/5/1 2/5/1 32/5/1
f 34/5/1 28/5/1 27/5/1
f 34/5/1 29/5/1 28/5/1
f 34/5/1 30/5/1 29/5/1
f 35/5/1 30/5/1 34/5/1
f 36/1/1 31/1/1 30/1/1
f 36/5/1 30/5/1 35/5/1
f 37/5/1 32/5/1 31/5/1
f 37/1/1 31/1/1 36/1/1
f 38/5/1 32/5/1 37/5/1
f 39/5/1 36/5/1 35/5/1
f 39/5/1 37/5/1 36/5/1
f 40/5/1 37/5/1 39/5/1
f 47/2/1 42/2/1 41/2/1
f 48/2/1 42/2/1 47/2/1
f 49/3/1 44/3/1 43/3/1
f 50/3/1 44/3/1 49/3/1
f 51/3/1 46/3/1 45/3/1
f 52/3/1 46/3/1 51/3/1
f 55/2/1 54/2/1 53/2/1
f 56/2/1 54/2/1 55/2/1
f 59/4/1 58/4/1 57/4/1
f 60/4/1 59/4/1 57/4/1
f 62/4/1 60/4/1 57/4/1
f 62/4/1 61/4/1 60/4/1
f 63/4/1 61/4/1 62/4/1
f 66/2/1 65/2/1 64/2/1
f 67/2/1 65/2/1 66/2/1
f 70/2/1 69/2/1 68/2/1
f 71/2/1 69/2/1 70/2/1
f 74/2/1 73/2/1 72/2/1
f 75/2/1 73/2/1 74/2/1
f 82/2/1 77/2/1 76/2/1
f 83/2/1 77/2/1 82/2/1
f 84/2/1 79/2/1 78/2/1
f 85/2/1 79/2/1 84/2/1
f 86/2/1 81/2/1 80/2/1
f 87/2/1 81/2/1 86/2/1
f 88/2/2 89/2/2 94/2/2
f 94/2/2 89/2/2 95/2/2
f 90/2/2 91/2/2 96/2/2
f 96/2/2 91/2/2 97/2/2
f 92/2/2 93/2/2 98/2/2
f 98/2/2 93/2/2 99/2/2
f 100/2/2 101/2/2 102/2/2
f 102/2/2 101/2/2 103/2/2
f 104/2/2 105/2/2 106/2/2
f 106/2/2 105/2/2 107/2/2
f 108/2/2 109/2/2 110/2/2
f 110/2/2 109/2/2 111/2/2
f 112/4/2 113/4/2 114/4/2
f 112/4/2 114/4/2 115/4/2
f 112/4/2 115/4/2 117/4/2
f 115/4/2 116/4/2 117/4/2
f 117/4/2 116/4/2 118/4/2
f 119/2/2 120/2/2 121/2/2
f 121/2/2 120/2/2 122/2/2
f 123/2/2 124/2/2 129/2/2
f 129/2/2 124/2/2 130/2/2
f 125/3/2 126/3/2 131/3/2
f 131/3/2 126/3/2 132/3/2
f 127/3/2 128/3/2 133/3/2
f 133/3/2 128/3/2 134/3/2
f 135/5/2 136/5/2 137/5/2
f 137/5/2 136/5/2 138/5/2
f 135/5/2 137/5/2 139/5/2
f 137/1/2 138/1/2 139/1/2
f 138/5/2 136/5/2 140/5/2
f 139/1/2 138/1/2 140/1/2
f 135/5/2 139/5/2 141/5/2
f 139/5/2 140/5/2 141/5/2
f 141/5/2 140/5/2 142/5/2
f 142/5/2 140/5/2 143/5/2
f 143/5/2 140/5/2 144/5/2
f 144/5/2 140/5/2 145/5/2
f 145/5/2 140/5/2 146/5/2
f 140/5/2 136/5/2 147/5/2
f 146/5/2 140/5/2 147/5/2
f 142/2/2 143/2/2 148/2/2
f 148/2/2 143/2/2 149/2/2
f 144/2/2 145/2/2 150/2/2
f 150/2/2 145/2/2 151/2/2
f 146/2/2 147/2/2 152/2/2
f 147/5/2 136/5/2 153/5/2
f 152/2/2 147/2/2 153/2/2
f 151/2/2 152/2/2 158/2/2
f 152/5/2 153/5/2 159/5/2
f 158/2/2 152/2/2 159/2/2
f 153/5/2 136/5/2 160/5/2
f 159/5/2 153/5/2 160/5/2
f 154/2/2 155/2/2 161/2/2
f 161/2/2 155/2/2 162/2/2
f 156/2/2 157/2/2 163/2/2
f 158/5/2 159/5/2 164/5/2
f 157/5/2 158/5/2 164/5/2
f 163/2/2 157/2/2 164/2/2
f 159/1/2 160/1/2 165/1/2
f 164/5/2 159/5/2 165/5/2
f 160/5/2 136/5/2 166/5/2
f 165/1/2 160/1/2 166/1/2
f 166/5/2 136/5/2 167/5/2
f 161/5/2 162/5/2 168/5/2
f 162/5/2 163/5/2 168/5/2
f 163/5/2 164/5/2 168/5/2
f 168/5/2 164/5/2 169/5/2
f 164/1/2 165/1/2 170/1/2
f 169/5/2 164/5/2 170/5/2
f 165/5/2 166/5/2 171/5/2
f 170/1/2 165/1/2 171/1/2
f 171/5/2 166/5/2 172/5/2
f 169/5/2 170/5/2 173/5/2
f 170/5/2 171/5/2 173/5/2
f 173/5/2 171/5/2 174/5/2
f 177/4/3 176/4/3 175/4/3
f 178/4/3 176/4/3 177/4/3
f 184/5/3 180/5/3 179/5/3
f 185/5/3 180/5/3 184/5/3
f 186/5/3 180/5/3 185/5/3
f 188/2/3 182/2/3 181/2/3
f 189/5/3 183/5/3 182/5/3
f 189/2/3 182/2/3 188/2/3
f 190/5/3 183/5/3 189/5/3
f 191/2/3 187/2/3 186/2/3
f 191/5/3 186/5/3 185/5/3
f 192/2/3 187/2/3 191/2/3
f 194/1/3 190/1/3 189/1/3
f 195/1/3 190/1/3 194/1/3
f 196/1/3 185/1/3 184/1/3
f 197/5/3 191/5/3 185/5/3
f 197/1/3 185/1/3 196/1/3
f 198/5/3 191/5/3 197/5/3
f 199/2/3 194/2/3 193/2/3
f 200/5/3 195/5/3 194/5/3
f 200/2/3 194/2/3 199/2/3
f 201/5/3 195/5/3 200/5/3
f 203/1/3 201/1/3 200/1/3
f 204/2/3 203/2/3 202/2/3
f 205/1/3 201/1/3 203/1/3
f 205/2/3 203/2/3 204/2/3
f 206/1/3 196/1/3 184/1/3
f 210/1/3 201/1/3 205/1/3
f 211/1/3 201/1/3 210/1/3
f 212/5/3 208/5/3 207/5/3
f 214/2/3 210/2/3 209/2/3
f 215/5/3 211/5/3 210/5/3
f 215/2/3 210/2/3 214/2/3
f 216/5/3 211/5/3 215/5/3
f 217/5/3 184/5/3 179/5/3
f 217/1/3 206/1/3 184/1/3
f 217/1/3 207/1/3 206/1/3
f 218/5/3 212/5/3 207/5/3
f 218/1/3 207/1/3 217/1/3
f 219/2/3 213/2/3 212/2/3
f 219/5/3 212/5/3 218/5/3
f 220/2/3 213/2/3 219/2/3
f 222/1/3 216/1/3 215/1/3
f 223/1/3 216/1/3 222/1/3
f 224/5/3 217/5/3 179/5/3
f 224/5/3 218/5/3 217/5/3
f 224/5/3 219/5/3 218/5/3
f 225/5/3 219/5/3 224/5/3
f 226/2/3 222/2/3 221/2/3
f 227/5/3 223/5/3 222/5/3
f 227/2/3 222/2/3 226/2/3
f 228/5/3 223/5/3 227/5/3
f 233/2/3 230/2/3 229/2/3
f 234/2/3 230/2/3 233/2/3
f 235/5/3 232/5/3 231/5/3
f 236/5/3 232/5/3 235/5/3
f 239/1/3 236/1/3 235/1/3
f 240/1/3 236/1/3 239/1/3
f 241/3/3 238/3/3 237/3/3
f 242/3/3 238/3/3 241/3/3
f 243/5/3 240/5/3 239/5/3
f 244/5/3 240/5/3 243/5/3
f 247/1/3 244/1/3 243/1/3
f 248/1/3 244/1/3 247/1/3
f 249/3/3 246/3/3 245/3/3
f 250/3/3 246/3/3 249/3/3
f 251/5/3 248/5/3 247/5/3
f 252/5/3 248/5/3 251/5/3
f 255/1/3 252/1/3 251/1/3
f 256/1/3 252/1/3 255/1/3
f 257/2/3 254/2/3 253/2/3
f 258/2/3 254/2/3 257/2/3
f 259/5/3 256/5/3 255/5/3
f 260/5/3 256/5/3 259/5/3
f 263/2/3 262/2/3 261/2/3
f 264/2/3 262/2/3 263/2/3
f 267/2/3 266/2/3 265/2/3
f 268/2/3 266/2/3 267/2/3
f 271/2/3 270/2/3 269/2/3
f 272/2/3 270/2/3 271/2/3
f 277/3/3 274/3/3 273/3/3
f 278/3/3 274/3/3 277/3/3
f 279/2/3 276/2/3 275/2/3
f 280/2/3 276/2/3 279/2/3
f 283/2/3 282/2/3 281/2/3
f 284/2/3 282/2/3 283/2/3
f 287/2/3 286/2/3 285/2/3
f 288/2/3 286/2/3 287/2/3
f 291/2/3 290/2/3 289/2/3
f 292/2/3 290/2/3 291/2/3
f 295/3/3 293/3/3 292/3/3
f 296/3/3 293/3/3 295/3/3
f 297/2/3 295/2/3 294/2/3
f 298/2/3 295/2/3 297/2/3
f 299/2/4 300/2/4 301/2/4
f 301/2/4 300/2/4 302/2/4
f 303/2/4 304/2/4 305/2/4
f 305/2/4 304/2/4 306/2/4
f 307/2/4 308/2/4 309/2/4
f 309/2/4 308/2/4 310/2/4
f 311/2/4 312/2/4 313/2/4
f 313/2/4 312/2/4 314/2/4
f 315/2/4 316/2/4 317/2/4
f 317/2/4 316/2/4 318/2/4
f 319/2/4 320/2/4 321/2/4
f 321/2/4 320/2/4 322/2/4
f 323/2/4 324/2/4 325/2/4
f 325/2/4 324/2/4 326/2/4
f 327/2/4 328/2/4 329/2/4
f 329/2/4 328/2/4 330/2/4
f 331/2/4 332/2/4 333/2/4
f 333/2/4 332/2/4 334/2/4
f 335/5/4 336/5/4 337/5/4
f 337/5/4 336/5/4 338/5/4
f 337/1/4 338/1/4 339/1/4
f 339/1/4 338/1/4 340/1/4
f 339/5/4 340/5/4 341/5/4
f 341/5/4 340/5/4 342/5/4
f 341/1/4 342/1/4 343/1/4
f 343/1/4 342/1/4 344/1/4
f 343/5/4 344/5/4 345/5/4
f 345/5/4 344/5/4 346/5/4
f 345/1/4 346/1/4 347/1/4
f 347/1/4 346/1/4 348/1/4
f 347/5/4 348/5/4 349/5/4
f 349/5/4 348/5/4 350/5/4
f 351/5/4 352/5/4 353/5/4
f 353/5/4 352/5/4 354/5/4
f 353/1/4 354/1/4 355/1/4
f 355/1/4 354/1/4 356/1/4
f 355/5/4 356/5/4 357/5/4
f 357/5/4 356/5/4 358/5/4
f 357/1/4 358/1/4 359/1/4
f 359/1/4 358/1/4 360/1/4
f 359/5/4 360/5/4 361/5/4
f 361/5/4 360/5/4 362/5/4
f 361/1/4 362/1/4 363/1/4
f 363/1/4 362/1/4 364/1/4
f 363/5/4 364/5/4 365/5/4
f 365/5/4 364/5/4 366/5/4
f 367/5/4 368/5/4 369/5/4
f 369/5/4 368/5/4 370/5/4
f 370/5/4 368/5/4 371/5/4
f 371/5/4 368/5/4 372/5/4
f 370/5/4 371/5/4 373/5/4
f 371/1/4 372/1/4 373/1/4
f 373/1/4 372/1/4 374/1/4
f 370/5/4 373/5/4 375/5/4
f 373/5/4 374/5/4 375/5/4
f 375/5/4 374/5/4 376/5/4
f 370/5/4 375/5/4 377/5/4
f 375/1/4 376/1/4 377/1/4
f 377/1/4 376/1/4 378/1/4
f 370/5/4 377/5/4 379/5/4
f 377/5/4 378/5/4 379/5/4
f 379/5/4 378/5/4 380/5/4
f 367/5/4 369/5/4 381/5/4
f 369/1/4 370/1/4 381/1/4
f 370/5/4 379/5/4 382/5/4
f 381/1/4 370/1/4 382/1/4
f 379/1/4 380/1/4 383/1/4
f 382/5/4 379/5/4 383/5/4
f 383/1/4 380/1/4 384/1/4
f 381/5/4 382/5/4 385/5/4
f 367/5/4 381/5/4 385/5/4
f 383/5/4 384/5/4 385/5/4
f 382/5/4 383/5/4 385/5/4
f 385/5/4 384/5/4 386/5/4
f 389/5/5 388/5/5 387/5/5
f 390/5/5 388/5/5 389/5/5
f 393/4/5 392/4/5 391/4/5
f 394/4/5 392/4/5 393/4/5
f 399/2/5 396/2/5 395/2/5
f 400/2/5 396/2/5 399/2/5
f 401/2/5 398/2/5 397/2/5
f 402/2/5 398/2/5 401/2/5
f 413/2/5 404/2/5 403/2/5
f 414/2/5 404/2/5 413/2/5
f 415/2/5 406/2/5 405/2/5
f 416/2/5 406/2/5 415/2/5
f 417/2/5 408/2/5 407/2/5
f 418/2/5 408/2/5 417/2/5
f 419/2/5 410/2/5 409/2/5
f 420/2/5 410/2/5 419/2/5
f 421/2/5 412/2/5 411/2/5
f 422/2/5 412/2/5 421/2/5
f 427/2/5 424/2/5 423/2/5
f 428/2/5 424/2/5 427/2/5
f 429/2/5 426/2/5 425/2/5
f 430/2/5 426/2/5 429/2/5
f 431/5/5 428/5/5 427/5/5
f 432/3/5 429/3/5 428/3/5
f 432/5/5 428/5/5 431/5/5
f 433/5/5 430/5/5 429/5/5
f 433/3/5 429/3/5 432/3/5
f 434/5/5 430/5/5 433/5/5
f 435/3/5 433/3/5 432/3/5
f 436/3/5 433/3/5 435/3/5
f 446/1/5 438/1/5 437/1/5
f 447/1/5 438/1/5 446/1/5
f 448/1/5 440/1/5 439/1/5
f 449/1/5 440/1/5 448/1/5
f 450/1/5 442/1/5 441/1/5
f 451/1/5 442/1/5 450/1/5
f 452/1/5 444/1/5 443/1/5
f 453/1/5 444/1/5 452/1/5
f 455/5/5 446/5/5 445/5/5
f 456/3/5 451/3/5 450/3/5
f 456/5/5 446/5/5 455/5/5
f 456/3/5 447/3/5 446/3/5
f 456/3/5 453/3/5 452/3/5
f 456/3/5 452/3/5 451/3/5
f 456/3/5 449/3/5 448/3/5
f 456/3/5 450/3/5 449/3/5
f 456/3/5 448/3/5 447/3/5
f 457/5/5 454/5/5 453/5/5
f 457/3/5 453/3/5 456/3/5
f 458/5/5 454/5/5 457/5/5
f 459/3/5 457/3/5 456/3/5
f 460/3/5 457/3/5 459/3/5
f 461/5/6 462/5/6 469/5/6
f 469/5/6 462/5/6 470/5/6
f 463/5/6 464/5/6 471/5/6
f 471/5/6 464/5/6 472/5/6
f 465/5/6 466/5/6 473/5/6
f 473/5/6 466/5/6 474/5/6
f 467/5/6 468/5/6 475/5/6
f 475/5/6 468/5/6 476/5/6
f 477/5/6 478/5/6 481/5/6
f 481/5/6 478/5/6 482/5/6
f 479/5/6 480/5/6 483/5/6
f 483/5/6 480/5/6 484/5/6
f 485/5/6 486/5/6 489/5/6
f 489/5/6 486/5/6 490/5/6
f 487/5/6 488/5/6 491/5/6
f 491/5/6 488/5/6 492/5/6
f 495/2/6 496/2/6 500/2/6
f 500/2/6 496/2/6 501/2/6
f 493/4/6 494/4/6 502/4/6
f 502/4/6 494/4/6 503/4/6
f 497/2/6 498/2/6 504/2/6
f 504/2/6 498/2/6 505/2/6
f 499/2/6 500/2/6 507/2/6
f 500/3/6 501/3/6 508/3/6
f 507/2/6 500/2/6 508/2/6
f 501/3/6 502/3/6 508/3/6
f 502/4/6 503/4/6 509/4/6
f 508/3/6 502/3/6 509/3/6
f 504/3/6 505/3/6 510/3/6
f 509/4/6 503/4/6 510/4/6
f 503/3/6 504/3/6 510/3/6
f 505/2/6 506/2/6 511/2/6
f 510/3/6 505/3/6 511/3/6
f 511/2/6 506/2/6 512/2/6
f 509/3/6 510/3/6 514/3/6
f 510/3/6 511/3/6 514/3/6
f 508/3/6 509/3/6 514/3/6
f 514/3/6 511/3/6 515/3/6
f 513/2/6 514/2/6 517/2/6
f 514/3/6 515/3/6 518/3/6
f 517/2/6 514/2/6 518/2/6
f 515/2/6 516/2/6 519/2/6
f 518/3/6 515/3/6 519/3/6
f 519/2/6 516/2/6 520/2/6
f 518/3/6 519/3/6 521/3/6
f 521/3/6 519/3/6 522/3/6
f 523/5/6 524/5/6 531/5/6
f 524/1/6 525/1/6 532/1/6
f 531/5/6 524/5/6 532/5/6
f 525/5/6 526/5/6 533/5/6
f 532/1/6 525/1/6 533/1/6
f 526/1/6 527/1/6 534/1/6
f 533/5/6 526/5/6 534/5/6
f 527/5/6 528/5/6 535/5/6
f 534/1/6 527/1/6 535/1/6
f 528/1/6 529/1/6 536/1/6
f 535/5/6 528/5/6 536/5/6
f 529/5/6 530/5/6 537/5/6
f 536/1/6 529/1/6 537/1/6
f 537/5/6 530/5/6 538/5/6
f 539/5/6 540/5/6 547/5/6
f 540/1/6 541/1/6 548/1/6
f 547/5/6 540/5/6 548/5/6
f 541/5/6 542/5/6 549/5/6
f 548/1/6 541/1/6 549/1/6
f 542/1/6 543/1/6 550/1/6
f 549/5/6 542/5/6 550/5/6
f 543/5/6 544/5/6 551/5/6
f 550/1/6 543/1/6 551/1/6
f 544/1/6 545/1/6 552/1/6
f 551/5/6 544/5/6 552/5/6
f 545/5/6 546/5/6 553/5/6
f 552/1/6 545/1/6 553/1/6
f 553/5/6 546/5/6 554/5/6
f 555/5/6 556/5/6 563/5/6
f 556/1/6 557/1/6 564/1/6
f 563/5/6 556/5/6 564/5/6
f 557/5/6 558/5/6 565/5/6
f 564/1/6 557/1/6 565/1/6
f 558/1/6 559/1/6 566/1/6
f 565/5/6 558/5/6 566/5/6
f 559/5/6 560/5/6 567/5/6
f 566/1/6 559/1/6 567/1/6
f 560/1/6 561/1/6 568/1/6
f 567/5/6 560/5/6 568/5/6
f 561/5/6 562/5/6 569/5/6
f 568/1/6 561/1/6 569/1/6
f 569/5/6 562/5/6 570/5/6
f 571/5/6 572/5/6 579/5/6
f 572/1/6 573/1/6 580/1/6
f 579/5/6 572/5/6 580/5/6
f 573/5/6 574/5/6 581/5/6
f 580/1/6 573/1/6 581/1/6
f 574/1/6 575/1/6 582/1/6
f 581/5/6 574/5/6 582/5/6
f 575/5/6 576/5/6 583/5/6
f 582/1/6 575/1/6 583/1/6
f 576/1/6 577/1/6 584/1/6
f 583/5/6 576/5/6 584/5/6
f 577/5/6 578/5/6 585/5/6
f 584/1/6 577/1/6 585/1/6
f 585/5/6 578/5/6 586/5/6
