# MagicaVoxel @ Ephtracy

# group
o 

# material
mtllib mage_walk_0.mtl
usemtl palette

# normals
vn -1 0 0
vn 1 0 0
vn 0 0 1
vn 0 0 -1
vn 0 -1 0
vn 0 1 0

# texcoords
vt 0.724609 0.5
vt 0.732422 0.5
vt 0.783203 0.5
vt 0.947266 0.5
vt 0.951172 0.5
vt 0.970703 0.5
vt 0.974609 0.5

# verts
v -0.5 0 -5.96046e-08
v -0.5 0 -0.5
v -0.5 0.1 -5.96046e-08
v -0.5 0.1 -0.5
v -0.4 0.1 -5.96046e-08
v -0.4 0.1 -0.4
v -0.4 0.5 -5.96046e-08
v -0.4 0.5 -0.4
v -0.3 0 0.2
v -0.3 0 0.1
v -0.3 0.3 0.2
v -0.3 0.3 0.1
v -0.3 0.3 -5.96046e-08
v -0.3 0.4 0.2
v -0.3 0.4 0.1
v -0.3 0.4 -5.96046e-08
v -0.3 0.5 -5.96046e-08
v -0.3 0.5 -0.3
v -0.3 0.6 0.3
v -0.3 0.6 0.2
v -0.3 0.7 0.2
v -0.3 0.7 0.1
v -0.3 0.7 -5.96046e-08
v -0.3 0.7 -0.3
v -0.3 0.8 0.2
v -0.3 0.8 0.1
v -0.3 0.9 0.3
v -0.3 0.9 -5.96046e-08
v -0.2 0.7 -5.96046e-08
v -0.2 0.7 -0.2
v -0.2 0.8 -5.96046e-08
v -0.2 0.8 -0.2
v -0.2 0.9 0.2
v -0.2 0.9 -5.96046e-08
v -0.2 0.9 -0.2
v -0.2 1 0.2
v -0.2 1 -0.2
v -0.1 0 0.2
v -0.1 0 -5.96046e-08
v -0.1 0.1 0.2
v -0.1 0.1 0.1
v -0.1 0.8 0.1
v -0.1 0.8 -5.96046e-08
v -0.1 0.8 -0.1
v -0.1 0.9 0.1
v -0.1 0.9 -0.1
v -0.1 1 0.1
v -0.1 1 -0.1
v -0.1 1.2 0.1
v -0.1 1.2 -0.1
v 5.96046e-08 1.2 0.1
v 5.96046e-08 1.2 -0.1
v 5.96046e-08 1.3 0.1
v 5.96046e-08 1.3 -5.96046e-08
v 5.96046e-08 1.4 -5.96046e-08
v 5.96046e-08 1.4 -0.1
v 0.1 0.3 0.5
v 0.1 0.3 0.2
v 0.1 0.4 0.5
v 0.1 0.4 0.2
v 0.1 0.5 0.5
v 0.1 0.5 0.2
v 0.2 0.1 0.2
v 0.2 0.1 0.1
v 0.2 0.3 0.2
v 0.2 0.4 0.2
v 0.2 0.5 0.2
v 0.2 0.5 0.1
v 0.3 0.2 0.4
v 0.3 0.2 0.2
v 0.3 0.3 0.4
v 0.3 0.3 0.2
v -0.2 0 0.2
v -0.2 0 0.1
v -0.2 0.3 0.2
v -0.2 0.3 0.1
v -0.2 0.3 -5.96046e-08
v -0.2 0.4 0.2
v -0.2 0.4 0.1
v -0.2 0.4 -5.96046e-08
v -0.2 0.6 0.3
v -0.2 0.6 0.2
v -0.2 0.7 0.2
v -0.2 0.7 0.1
v -0.2 0.7 -5.96046e-08
v -0.2 0.8 0.2
v -0.2 0.8 0.1
v -0.2 0.8 -5.96046e-08
v -0.2 0.9 0.3
v -0.2 0.9 0.2
v -0.2 0.9 -5.96046e-08
v 0.1 1.2 0.1
v 0.1 1.2 -0.1
v 0.1 1.3 0.1
v 0.1 1.3 -5.96046e-08
v 0.1 1.4 -5.96046e-08
v 0.1 1.4 -0.1
v 0.2 0.1 -0.3
v 0.2 0.1 -0.4
v 0.2 0.5 0.1
v 0.2 0.5 -5.96046e-08
v 0.2 0.5 -0.3
v 0.2 0.5 -0.4
v 0.2 0.8 0.1
v 0.2 0.8 -5.96046e-08
v 0.2 0.8 -0.1
v 0.2 0.9 0.1
v 0.2 0.9 -0.1
v 0.2 1 0.1
v 0.2 1 -0.1
v 0.2 1.2 0.1
v 0.2 1.2 -0.1
v 0.3 0 -0.4
v 0.3 0 -0.5
v 0.3 0.1 -0.4
v 0.3 0.1 -0.5
v 0.3 0.7 -5.96046e-08
v 0.3 0.7 -0.2
v 0.3 0.8 -5.96046e-08
v 0.3 0.8 -0.2
v 0.3 0.9 0.2
v 0.3 0.9 -0.2
v 0.3 1 0.2
v 0.3 1 -0.2
v 0.4 0.2 0.4
v 0.4 0.2 0.2
v 0.4 0.3 0.4
v 0.4 0.3 0.2
v 0.4 0.5 -5.96046e-08
v 0.4 0.5 -0.3
v 0.4 0.7 -5.96046e-08
v 0.4 0.7 -0.3
v 0.5 0.1 0.2
v 0.5 0.1 -0.3
v 0.5 0.3 0.2
v 0.5 0.4 0.2
v 0.5 0.5 0.2
v 0.5 0.5 -0.3
v 0.6 0 0.2
v 0.6 0 -0.4
v 0.6 0.1 0.2
v 0.6 0.1 -0.4
v 0.6 0.3 0.5
v 0.6 0.3 0.2
v 0.6 0.4 0.5
v 0.6 0.4 0.2
v 0.6 0.5 0.5
v 0.6 0.5 0.2
v 0.1 0.3 0.5
v 0.1 0.4 0.5
v 0.1 0.5 0.5
v 0.3 0.4 0.5
v 0.3 0.5 0.5
v 0.4 0.4 0.5
v 0.4 0.5 0.5
v 0.6 0.3 0.5
v 0.6 0.4 0.5
v 0.6 0.5 0.5
v 0.3 0.2 0.4
v 0.3 0.3 0.4
v 0.4 0.2 0.4
v 0.4 0.3 0.4
v -0.3 0.6 0.3
v -0.3 0.9 0.3
v -0.2 0.6 0.3
v -0.2 0.9 0.3
v -0.3 0 0.2
v -0.3 0.3 0.2
v -0.3 0.4 0.2
v -0.3 0.6 0.2
v -0.2 0 0.2
v -0.2 0.3 0.2
v -0.2 0.4 0.2
v -0.2 0.6 0.2
v -0.2 0.9 0.2
v -0.2 1 0.2
v -0.1 0 0.2
v -0.1 0.1 0.2
v 0.2 0 0.2
v 0.2 0.1 0.2
v 0.2 0.3 0.2
v 0.3 0 0.2
v 0.3 0.2 0.2
v 0.3 0.3 0.2
v 0.3 0.9 0.2
v 0.3 1 0.2
v 0.4 0 0.2
v 0.4 0.2 0.2
v 0.4 0.3 0.2
v 0.5 0.1 0.2
v 0.5 0.3 0.2
v 0.6 0 0.2
v 0.6 0.1 0.2
v -0.3 0.7 0.1
v -0.3 0.8 0.1
v -0.2 0.7 0.1
v -0.2 0.8 0.1
v -0.1 0.1 0.1
v -0.1 0.8 0.1
v -0.1 0.9 0.1
v -0.1 1 0.1
v -0.1 1.2 0.1
v 5.96046e-08 1.2 0.1
v 5.96046e-08 1.3 0.1
v 0.1 1.2 0.1
v 0.1 1.3 0.1
v 0.2 0.1 0.1
v 0.2 0.5 0.1
v 0.2 0.8 0.1
v 0.2 0.9 0.1
v 0.2 1 0.1
v 0.2 1.2 0.1
v -0.5 0 -5.96046e-08
v -0.5 0.1 -5.96046e-08
v -0.4 0.1 -5.96046e-08
v -0.4 0.5 -5.96046e-08
v -0.3 0 -5.96046e-08
v -0.3 0.3 -5.96046e-08
v -0.3 0.4 -5.96046e-08
v -0.3 0.5 -5.96046e-08
v -0.3 0.7 -5.96046e-08
v -0.2 0 -5.96046e-08
v -0.2 0.3 -5.96046e-08
v -0.2 0.4 -5.96046e-08
v -0.2 0.7 -5.96046e-08
v -0.2 0.8 -5.96046e-08
v -0.1 0 -5.96046e-08
v -0.1 0.8 -5.96046e-08
v 5.96046e-08 1.3 -5.96046e-08
v 5.96046e-08 1.4 -5.96046e-08
v 0.1 1.3 -5.96046e-08
v 0.1 1.4 -5.96046e-08
v 0.2 0.5 -5.96046e-08
v 0.2 0.8 -5.96046e-08
v 0.3 0.7 -5.96046e-08
v 0.3 0.8 -5.96046e-08
v 0.4 0.5 -5.96046e-08
v 0.4 0.7 -5.96046e-08
v -0.3 0.7 0.2
v -0.3 0.8 0.2
v -0.2 0.7 0.2
v -0.2 0.8 0.2
v 0.1 0.3 0.2
v 0.1 0.4 0.2
v 0.1 0.5 0.2
v 0.2 0.3 0.2
v 0.2 0.4 0.2
v 0.2 0.5 0.2
v 0.5 0.3 0.2
v 0.5 0.4 0.2
v 0.5 0.5 0.2
v 0.6 0.3 0.2
v 0.6 0.4 0.2
v 0.6 0.5 0.2
v -0.3 0 0.1
v -0.3 0.3 0.1
v -0.3 0.4 0.1
v -0.3 0.7 0.1
v -0.2 0 0.1
v -0.2 0.3 0.1
v -0.2 0.4 0.1
v -0.2 0.7 0.1
v -0.3 0.7 -5.96046e-08
v -0.3 0.9 -5.96046e-08
v -0.2 0.7 -5.96046e-08
v -0.2 0.8 -5.96046e-08
v -0.2 0.9 -5.96046e-08
v -0.1 0.8 -0.1
v -0.1 0.9 -0.1
v -0.1 1 -0.1
v -0.1 1.2 -0.1
v 5.96046e-08 1.2 -0.1
v 5.96046e-08 1.4 -0.1
v 0.1 1.2 -0.1
v 0.1 1.4 -0.1
v 0.2 0.8 -0.1
v 0.2 0.9 -0.1
v 0.2 1 -0.1
v 0.2 1.2 -0.1
v -0.2 0.7 -0.2
v -0.2 0.8 -0.2
v -0.2 0.9 -0.2
v -0.2 1 -0.2
v 0.3 0.7 -0.2
v 0.3 0.8 -0.2
v 0.3 0.9 -0.2
v 0.3 1 -0.2
v -0.3 0.5 -0.3
v -0.3 0.7 -0.3
v 0.2 0.1 -0.3
v 0.2 0.5 -0.3
v 0.4 0.5 -0.3
v 0.4 0.7 -0.3
v 0.5 0.1 -0.3
v 0.5 0.5 -0.3
v -0.4 0.1 -0.4
v -0.4 0.5 -0.4
v 0.2 0.1 -0.4
v 0.2 0.5 -0.4
v 0.3 0 -0.4
v 0.3 0.1 -0.4
v 0.6 0 -0.4
v 0.6 0.1 -0.4
v -0.5 0 -0.5
v -0.5 0.1 -0.5
v 0.3 0 -0.5
v 0.3 0.1 -0.5
v -0.3 0 0.2
v -0.2 0 0.2
v -0.1 0 0.2
v 0.2 0 0.2
v 0.3 0 0.2
v 0.4 0 0.2
v 0.6 0 0.2
v -0.3 0 0.1
v -0.2 0 0.1
v 0.4 0 0.1
v 0.5 0 0.1
v -0.5 0 -5.96046e-08
v -0.3 0 -5.96046e-08
v -0.2 0 -5.96046e-08
v -0.1 0 -5.96046e-08
v 0.2 0 -5.96046e-08
v -0.4 0 -0.1
v -0.3 0 -0.1
v -0.2 0 -0.1
v 0.3 0 -0.1
v 0.2 0 -0.3
v 0.5 0 -0.3
v -0.4 0 -0.4
v 0.2 0 -0.4
v 0.3 0 -0.4
v 0.6 0 -0.4
v -0.5 0 -0.5
v 0.3 0 -0.5
v 0.3 0.2 0.4
v 0.4 0.2 0.4
v 0.3 0.2 0.2
v 0.4 0.2 0.2
v 0.1 0.3 0.5
v 0.6 0.3 0.5
v 0.3 0.3 0.4
v 0.4 0.3 0.4
v 0.1 0.3 0.2
v 0.2 0.3 0.2
v 0.3 0.3 0.2
v 0.4 0.3 0.2
v 0.5 0.3 0.2
v 0.6 0.3 0.2
v -0.3 0.3 0.1
v -0.2 0.3 0.1
v -0.3 0.3 -5.96046e-08
v -0.2 0.3 -5.96046e-08
v -0.3 0.6 0.3
v -0.2 0.6 0.3
v -0.3 0.6 0.2
v -0.2 0.6 0.2
v -0.3 0.7 0.1
v -0.2 0.7 0.1
v -0.3 0.7 -5.96046e-08
v -0.2 0.7 -5.96046e-08
v -0.3 0.8 0.2
v -0.2 0.8 0.2
v -0.3 0.8 0.1
v -0.2 0.8 0.1
v -0.2 0.9 0.2
v 0.3 0.9 0.2
v -0.1 0.9 0.1
v 0.2 0.9 0.1
v -0.2 0.9 -5.96046e-08
v -0.1 0.9 -0.1
v 0.2 0.9 -0.1
v -0.2 0.9 -0.2
v 0.3 0.9 -0.2
v -0.1 0.1 0.2
v 0.2 0.1 0.2
v 0.5 0.1 0.2
v 0.6 0.1 0.2
v -0.1 0.1 0.1
v 0.2 0.1 0.1
v -0.5 0.1 -5.96046e-08
v -0.4 0.1 -5.96046e-08
v 0.2 0.1 -0.3
v 0.5 0.1 -0.3
v -0.4 0.1 -0.4
v 0.2 0.1 -0.4
v 0.3 0.1 -0.4
v 0.6 0.1 -0.4
v -0.5 0.1 -0.5
v 0.3 0.1 -0.5
v -0.3 0.4 0.1
v -0.2 0.4 0.1
v -0.3 0.4 -5.96046e-08
v -0.2 0.4 -5.96046e-08
v 0.1 0.5 0.5
v 0.3 0.5 0.5
v 0.4 0.5 0.5
v 0.6 0.5 0.5
v 0.1 0.5 0.2
v 0.2 0.5 0.2
v 0.3 0.5 0.2
v 0.4 0.5 0.2
v 0.5 0.5 0.2
v 0.6 0.5 0.2
v 0.2 0.5 0.1
v -0.4 0.5 -5.96046e-08
v -0.3 0.5 -5.96046e-08
v 0.2 0.5 -5.96046e-08
v 0.4 0.5 -5.96046e-08
v -0.3 0.5 -0.3
v 0.2 0.5 -0.3
v 0.4 0.5 -0.3
v 0.5 0.5 -0.3
v -0.4 0.5 -0.4
v 0.2 0.5 -0.4
v -0.3 0.7 0.2
v -0.2 0.7 0.2
v -0.3 0.7 0.1
v -0.2 0.7 0.1
v -0.3 0.7 -5.96046e-08
v -0.2 0.7 -5.96046e-08
v 0.3 0.7 -5.96046e-08
v 0.4 0.7 -5.96046e-08
v -0.2 0.7 -0.2
v 0.3 0.7 -0.2
v -0.3 0.7 -0.3
v 0.4 0.7 -0.3
v -0.2 0.8 -5.96046e-08
v -0.1 0.8 -5.96046e-08
v 0.2 0.8 -5.96046e-08
v 0.3 0.8 -5.96046e-08
v -0.1 0.8 -0.1
v 0.2 0.8 -0.1
v -0.2 0.8 -0.2
v 0.3 0.8 -0.2
v -0.3 0.9 0.3
v -0.2 0.9 0.3
v -0.2 0.9 0.2
v -0.3 0.9 -5.96046e-08
v -0.2 0.9 -5.96046e-08
v -0.2 1 0.2
v 0.3 1 0.2
v -0.1 1 0.1
v 0.2 1 0.1
v -0.1 1 -0.1
v 0.2 1 -0.1
v -0.2 1 -0.2
v 0.3 1 -0.2
v -0.1 1.2 0.1
v 5.96046e-08 1.2 0.1
v 0.1 1.2 0.1
v 0.2 1.2 0.1
v -0.1 1.2 -0.1
v 5.96046e-08 1.2 -0.1
v 0.1 1.2 -0.1
v 0.2 1.2 -0.1
v 5.96046e-08 1.3 0.1
v 0.1 1.3 0.1
v 5.96046e-08 1.3 -5.96046e-08
v 0.1 1.3 -5.96046e-08
v 5.96046e-08 1.4 -5.96046e-08
v 0.1 1.4 -5.96046e-08
v 5.96046e-08 1.4 -0.1
v 0.1 1.4 -0.1

# faces
f 3/1/1 2/1/1 1/1/1
f 4/1/1 2/1/1 3/1/1
f 7/1/1 6/1/1 5/1/1
f 8/1/1 6/1/1 7/1/1
f 11/3/1 10/3/1 9/3/1
f 12/3/1 10/3/1 11/3/1
f 14/2/1 12/2/1 11/2/1
f 14/2/1 13/2/1 12/2/1
f 15/2/1 13/2/1 14/2/1
f 16/2/1 13/2/1 15/2/1
f 20/3/1 15/3/1 14/3/1
f 21/3/1 15/3/1 20/3/1
f 21/3/1 20/3/1 19/3/1
f 22/3/1 15/3/1 21/3/1
f 23/1/1 18/1/1 17/1/1
f 24/1/1 18/1/1 23/1/1
f 25/3/1 21/3/1 19/3/1
f 26/3/1 23/3/1 22/3/1
f 27/3/1 25/3/1 19/3/1
f 27/3/1 26/3/1 25/3/1
f 28/3/1 23/3/1 26/3/1
f 28/3/1 26/3/1 27/3/1
f 31/1/1 30/1/1 29/1/1
f 32/1/1 30/1/1 31/1/1
f 36/1/1 34/1/1 33/1/1
f 36/1/1 35/1/1 34/1/1
f 37/1/1 35/1/1 36/1/1
f 40/4/1 39/4/1 38/4/1
f 41/4/1 39/4/1 40/4/1
f 42/4/1 39/4/1 41/4/1
f 43/4/1 39/4/1 42/4/1
f 45/2/1 43/2/1 42/2/1
f 45/2/1 44/2/1 43/2/1
f 46/2/1 44/2/1 45/2/1
f 49/1/1 48/1/1 47/1/1
f 50/1/1 48/1/1 49/1/1
f 53/1/1 52/1/1 51/1/1
f 54/1/1 52/1/1 53/1/1
f 55/1/1 52/1/1 54/1/1
f 56/1/1 52/1/1 55/1/1
f 59/7/1 58/7/1 57/7/1
f 60/7/1 58/7/1 59/7/1
f 61/5/1 60/5/1 59/5/1
f 62/5/1 60/5/1 61/5/1
f 65/1/1 64/1/1 63/1/1
f 66/1/1 64/1/1 65/1/1
f 67/1/1 64/1/1 66/1/1
f 68/1/1 64/1/1 67/1/1
f 71/2/1 70/2/1 69/2/1
f 72/2/1 70/2/1 71/2/1
f 73/3/2 74/3/2 75/3/2
f 75/3/2 74/3/2 76/3/2
f 75/2/2 76/2/2 78/2/2
f 76/2/2 77/2/2 78/2/2
f 78/2/2 77/2/2 79/2/2
f 79/2/2 77/2/2 80/2/2
f 78/3/2 79/3/2 82/3/2
f 82/3/2 79/3/2 83/3/2
f 81/3/2 82/3/2 83/3/2
f 83/3/2 79/3/2 84/3/2
f 81/3/2 83/3/2 86/3/2
f 84/3/2 85/3/2 87/3/2
f 87/3/2 85/3/2 88/3/2
f 81/3/2 86/3/2 89/3/2
f 86/3/2 87/3/2 89/3/2
f 87/3/2 88/3/2 89/3/2
f 89/3/2 88/3/2 90/3/2
f 90/3/2 88/3/2 91/3/2
f 92/1/2 93/1/2 94/1/2
f 94/1/2 93/1/2 95/1/2
f 95/1/2 93/1/2 96/1/2
f 96/1/2 93/1/2 97/1/2
f 98/1/2 99/1/2 102/1/2
f 102/1/2 99/1/2 103/1/2
f 100/4/2 101/4/2 104/4/2
f 104/4/2 101/4/2 105/4/2
f 104/2/2 105/2/2 107/2/2
f 105/2/2 106/2/2 107/2/2
f 107/2/2 106/2/2 108/2/2
f 109/1/2 110/1/2 111/1/2
f 111/1/2 110/1/2 112/1/2
f 113/1/2 114/1/2 115/1/2
f 115/1/2 114/1/2 116/1/2
f 117/1/2 118/1/2 119/1/2
f 119/1/2 118/1/2 120/1/2
f 121/1/2 122/1/2 123/1/2
f 123/1/2 122/1/2 124/1/2
f 125/2/2 126/2/2 127/2/2
f 127/2/2 126/2/2 128/2/2
f 129/1/2 130/1/2 131/1/2
f 131/1/2 130/1/2 132/1/2
f 133/1/2 134/1/2 135/1/2
f 135/1/2 134/1/2 136/1/2
f 136/1/2 134/1/2 137/1/2
f 137/1/2 134/1/2 138/1/2
f 139/1/2 140/1/2 141/1/2
f 141/1/2 140/1/2 142/1/2
f 143/7/2 144/7/2 145/7/2
f 145/7/2 144/7/2 146/7/2
f 145/5/2 146/5/2 147/5/2
f 147/5/2 146/5/2 148/5/2
f 152/7/3 150/7/3 149/7/3
f 152/5/3 151/5/3 150/5/3
f 153/5/3 151/5/3 152/5/3
f 154/7/3 152/7/3 149/7/3
f 154/4/3 153/4/3 152/4/3
f 155/4/3 153/4/3 154/4/3
f 156/7/3 154/7/3 149/7/3
f 157/5/3 155/5/3 154/5/3
f 157/7/3 154/7/3 156/7/3
f 158/5/3 155/5/3 157/5/3
f 161/2/3 160/2/3 159/2/3
f 162/2/3 160/2/3 161/2/3
f 165/3/3 164/3/3 163/3/3
f 166/3/3 164/3/3 165/3/3
f 171/3/3 168/3/3 167/3/3
f 172/2/3 169/2/3 168/2/3
f 172/3/3 168/3/3 171/3/3
f 173/3/3 170/3/3 169/3/3
f 173/2/3 169/2/3 172/2/3
f 174/3/3 170/3/3 173/3/3
f 179/4/3 178/4/3 177/4/3
f 180/4/3 178/4/3 179/4/3
f 182/1/3 180/1/3 179/1/3
f 182/1/3 181/1/3 180/1/3
f 183/1/3 181/1/3 182/1/3
f 184/1/3 181/1/3 183/1/3
f 185/1/3 176/1/3 175/1/3
f 186/1/3 176/1/3 185/1/3
f 187/6/3 183/6/3 182/6/3
f 188/6/3 183/6/3 187/6/3
f 190/1/3 188/1/3 187/1/3
f 190/1/3 189/1/3 188/1/3
f 191/1/3 189/1/3 190/1/3
f 192/1/3 190/1/3 187/1/3
f 193/1/3 190/1/3 192/1/3
f 196/3/3 195/3/3 194/3/3
f 197/3/3 195/3/3 196/3/3
f 203/1/3 202/1/3 201/1/3
f 205/1/3 203/1/3 201/1/3
f 205/1/3 204/1/3 203/1/3
f 206/1/3 204/1/3 205/1/3
f 207/4/3 199/4/3 198/4/3
f 208/4/3 199/4/3 207/4/3
f 209/2/3 200/2/3 199/2/3
f 209/4/3 199/4/3 208/4/3
f 210/2/3 200/2/3 209/2/3
f 211/1/3 205/1/3 201/1/3
f 212/1/3 205/1/3 211/1/3
f 215/1/3 214/1/3 213/1/3
f 217/1/3 215/1/3 213/1/3
f 217/1/3 216/1/3 215/1/3
f 218/1/3 216/1/3 217/1/3
f 219/1/3 216/1/3 218/1/3
f 220/1/3 216/1/3 219/1/3
f 222/6/3 218/6/3 217/6/3
f 223/6/3 218/6/3 222/6/3
f 224/1/3 221/1/3 220/1/3
f 224/1/3 220/1/3 219/1/3
f 225/1/3 221/1/3 224/1/3
f 227/1/3 223/1/3 222/1/3
f 227/1/3 226/1/3 225/1/3
f 227/1/3 225/1/3 224/1/3
f 227/1/3 224/1/3 223/1/3
f 228/1/3 226/1/3 227/1/3
f 231/1/3 230/1/3 229/1/3
f 232/1/3 230/1/3 231/1/3
f 235/1/3 234/1/3 233/1/3
f 236/1/3 234/1/3 235/1/3
f 237/1/3 235/1/3 233/1/3
f 238/1/3 235/1/3 237/1/3
f 239/3/4 240/3/4 241/3/4
f 241/3/4 240/3/4 242/3/4
f 243/7/4 244/7/4 246/7/4
f 244/5/4 245/5/4 247/5/4
f 246/7/4 244/7/4 247/7/4
f 247/5/4 245/5/4 248/5/4
f 249/7/4 250/7/4 252/7/4
f 250/5/4 251/5/4 253/5/4
f 252/7/4 250/7/4 253/7/4
f 253/5/4 251/5/4 254/5/4
f 255/3/4 256/3/4 259/3/4
f 259/3/4 256/3/4 260/3/4
f 257/3/4 258/3/4 261/3/4
f 261/3/4 258/3/4 262/3/4
f 263/3/4 264/3/4 265/3/4
f 265/3/4 264/3/4 266/3/4
f 266/3/4 264/3/4 267/3/4
f 270/1/4 271/1/4 272/1/4
f 270/1/4 272/1/4 274/1/4
f 272/1/4 273/1/4 274/1/4
f 274/1/4 273/1/4 275/1/4
f 268/2/4 269/2/4 276/2/4
f 276/2/4 269/2/4 277/2/4
f 270/1/4 274/1/4 278/1/4
f 278/1/4 274/1/4 279/1/4
f 280/1/4 281/1/4 284/1/4
f 284/1/4 281/1/4 285/1/4
f 282/1/4 283/1/4 286/1/4
f 286/1/4 283/1/4 287/1/4
f 288/1/4 289/1/4 291/1/4
f 291/1/4 289/1/4 292/1/4
f 290/1/4 291/1/4 292/1/4
f 292/1/4 289/1/4 293/1/4
f 290/1/4 292/1/4 294/1/4
f 294/1/4 292/1/4 295/1/4
f 296/1/4 297/1/4 298/1/4
f 298/1/4 297/1/4 299/1/4
f 300/1/4 301/1/4 302/1/4
f 302/1/4 301/1/4 303/1/4
f 304/1/4 305/1/4 306/1/4
f 306/1/4 305/1/4 307/1/4
f 315/3/5 309/3/5 308/3/5
f 316/3/5 309/3/5 315/3/5
f 317/1/5 314/1/5 313/1/5
f 317/6/5 313/6/5 312/6/5
f 318/1/5 314/1/5 317/1/5
f 322/4/5 311/4/5 310/4/5
f 323/1/5 312/1/5 311/1/5
f 323/4/5 311/4/5 322/4/5
f 324/1/5 320/1/5 319/1/5
f 325/6/5 321/6/5 320/6/5
f 325/1/5 320/1/5 324/1/5
f 326/1/5 322/1/5 321/1/5
f 326/6/5 321/6/5 325/6/5
f 326/1/5 323/1/5 322/1/5
f 327/6/5 317/6/5 312/6/5
f 327/1/5 323/1/5 326/1/5
f 327/6/5 318/6/5 317/6/5
f 327/1/5 312/1/5 323/1/5
f 328/6/5 325/6/5 324/6/5
f 328/6/5 326/6/5 325/6/5
f 328/6/5 327/6/5 326/6/5
f 329/1/5 314/1/5 318/1/5
f 329/6/5 327/6/5 328/6/5
f 329/6/5 318/6/5 327/6/5
f 330/6/5 328/6/5 324/6/5
f 330/1/5 324/1/5 319/1/5
f 331/1/5 329/1/5 328/1/5
f 331/6/5 328/6/5 330/6/5
f 332/1/5 329/1/5 331/1/5
f 333/1/5 314/1/5 329/1/5
f 333/1/5 329/1/5 332/1/5
f 334/1/5 332/1/5 331/1/5
f 334/1/5 330/1/5 319/1/5
f 334/1/5 331/1/5 330/1/5
f 335/1/5 332/1/5 334/1/5
f 338/2/5 337/2/5 336/2/5
f 339/2/5 337/2/5 338/2/5
f 342/7/5 341/7/5 340/7/5
f 343/7/5 341/7/5 342/7/5
f 344/7/5 342/7/5 340/7/5
f 345/7/5 342/7/5 344/7/5
f 346/7/5 342/7/5 345/7/5
f 347/7/5 341/7/5 343/7/5
f 348/7/5 341/7/5 347/7/5
f 349/7/5 341/7/5 348/7/5
f 352/2/5 351/2/5 350/2/5
f 353/2/5 351/2/5 352/2/5
f 356/3/5 355/3/5 354/3/5
f 357/3/5 355/3/5 356/3/5
f 360/3/5 359/3/5 358/3/5
f 361/3/5 359/3/5 360/3/5
f 364/3/5 363/3/5 362/3/5
f 365/3/5 363/3/5 364/3/5
f 368/1/5 367/1/5 366/1/5
f 369/1/5 367/1/5 368/1/5
f 370/1/5 368/1/5 366/1/5
f 371/1/5 368/1/5 370/1/5
f 372/1/5 367/1/5 369/1/5
f 373/1/5 371/1/5 370/1/5
f 373/1/5 372/1/5 371/1/5
f 374/1/5 367/1/5 372/1/5
f 374/1/5 372/1/5 373/1/5
f 375/4/6 376/4/6 379/4/6
f 379/4/6 376/4/6 380/4/6
f 377/1/6 378/1/6 384/1/6
f 381/1/6 382/1/6 385/1/6
f 383/1/6 384/1/6 386/1/6
f 386/1/6 384/1/6 387/1/6
f 384/1/6 378/1/6 388/1/6
f 387/1/6 384/1/6 388/1/6
f 381/1/6 385/1/6 389/1/6
f 386/1/6 387/1/6 389/1/6
f 385/1/6 386/1/6 389/1/6
f 389/1/6 387/1/6 390/1/6
f 391/2/6 392/2/6 393/2/6
f 393/2/6 392/2/6 394/2/6
f 395/5/6 396/5/6 399/5/6
f 399/5/6 396/5/6 400/5/6
f 396/4/6 397/4/6 401/4/6
f 400/5/6 396/5/6 401/5/6
f 397/5/6 398/5/6 402/5/6
f 401/4/6 397/4/6 402/4/6
f 402/5/6 398/5/6 403/5/6
f 403/5/6 398/5/6 404/5/6
f 400/1/6 401/1/6 405/1/6
f 402/1/6 403/1/6 405/1/6
f 401/1/6 402/1/6 405/1/6
f 405/1/6 403/1/6 408/1/6
f 408/1/6 403/1/6 409/1/6
f 406/1/6 407/1/6 410/1/6
f 409/1/6 403/1/6 412/1/6
f 412/1/6 403/1/6 413/1/6
f 410/1/6 411/1/6 414/1/6
f 406/1/6 410/1/6 414/1/6
f 414/1/6 411/1/6 415/1/6
f 416/3/6 417/3/6 418/3/6
f 418/3/6 417/3/6 419/3/6
f 420/1/6 421/1/6 424/1/6
f 422/1/6 423/1/6 425/1/6
f 420/1/6 424/1/6 426/1/6
f 424/1/6 425/1/6 426/1/6
f 425/1/6 423/1/6 427/1/6
f 426/1/6 425/1/6 427/1/6
f 428/1/6 429/1/6 432/1/6
f 430/1/6 431/1/6 433/1/6
f 428/1/6 432/1/6 434/1/6
f 432/1/6 433/1/6 434/1/6
f 433/1/6 431/1/6 435/1/6
f 434/1/6 433/1/6 435/1/6
f 436/3/6 437/3/6 438/3/6
f 436/3/6 438/3/6 439/3/6
f 439/3/6 438/3/6 440/3/6
f 441/1/6 442/1/6 443/1/6
f 443/1/6 442/1/6 444/1/6
f 441/1/6 443/1/6 445/1/6
f 444/1/6 442/1/6 446/1/6
f 441/1/6 445/1/6 447/1/6
f 445/1/6 446/1/6 447/1/6
f 446/1/6 442/1/6 448/1/6
f 447/1/6 446/1/6 448/1/6
f 449/1/6 450/1/6 453/1/6
f 453/1/6 450/1/6 454/1/6
f 451/1/6 452/1/6 455/1/6
f 455/1/6 452/1/6 456/1/6
f 457/1/6 458/1/6 459/1/6
f 459/1/6 458/1/6 460/1/6
f 461/1/6 462/1/6 463/1/6
f 463/1/6 462/1/6 464/1/6
