# MagicaVoxel @ Ephtracy

# group
o 

# material
mtllib barbarian_idle_0.mtl
usemtl palette

# normals
vn -1 0 0
vn 1 0 0
vn 0 0 1
vn 0 0 -1
vn 0 -1 0
vn 0 1 0

# texcoords
vt 0.791016 0.5
vt 0.814453 0.5
vt 0.939453 0.5
vt 0.943359 0.5
vt 0.970703 0.5

# verts
v -0.6 0.6 0.1
v -0.6 0.6 0
v -0.6 0.7 0.1
v -0.6 0.7 0
v -0.5 0.8 -0.1
v -0.5 0.8 -0.3
v -0.5 1 -0.1
v -0.5 1 -0.3
v -0.4 0.6 0
v -0.4 0.6 -0.3
v -0.4 0.7 0
v -0.4 0.7 -0.1
v -0.4 0.8 -0.1
v -0.4 0.8 -0.3
v -0.4 0.9 0
v -0.4 0.9 -0.1
v -0.4 1 -0.1
v -0.4 1 -0.3
v -0.4 1 -0.4
v -0.4 1.1 0
v -0.4 1.1 -0.4
v -0.3 0.1 -0.3
v -0.3 0.1 -0.4
v -0.3 0.6 -0.3
v -0.3 0.7 0
v -0.3 0.7 -0.1
v -0.3 0.9 0
v -0.3 0.9 -0.1
v -0.3 1 -0.3
v -0.3 1 -0.4
v -0.2 0 0
v -0.2 0 -0.2
v -0.2 0.1 0
v -0.2 0.1 -0.1
v -0.2 0.2 0
v -0.2 0.2 -0.1
v -0.2 0.2 -0.2
v -0.2 0.2 -0.3
v -0.2 0.4 -0.1
v -0.2 0.4 -0.2
v -0.2 0.5 0
v -0.2 0.5 -0.3
v -0.2 0.6 0
v -0.2 0.6 -0.3
v -0.2 1 0
v -0.2 1 -0.1
v -0.2 1.1 0
v -0.2 1.1 -0.1
v -0.2 1.1 -0.3
v -0.2 1.2 0.1
v -0.2 1.2 0
v -0.2 1.2 -0.1
v -0.2 1.3 0.1
v -0.2 1.3 -0.1
v -0.2 1.3 -0.2
v -0.2 1.3 -0.3
v -0.2 1.4 -0.1
v -0.2 1.4 -0.2
v -0.1 0.3 -0.3
v -0.1 0.3 -0.4
v -0.1 0.4 -0.3
v -0.1 0.4 -0.4
v 0 0 0
v 0 0 -0.2
v 0 0.1 0
v 0 0.1 -0.1
v 0 0.2 -0.1
v 0 0.2 -0.2
v 0 1.3 -0.1
v 0 1.3 -0.2
v 0 1.4 -0.1
v 0 1.4 -0.2
v 0.1 0.1 -0.3
v 0.1 0.1 -0.4
v 0.1 0.2 -0.3
v 0.1 0.4 -0.3
v 0.1 0.4 -0.4
v 0.2 1 0
v 0.2 1 -0.1
v 0.2 1.1 0
v 0.2 1.1 -0.1
v 0.3 0.6 0.4
v 0.3 0.6 0.3
v 0.3 0.6 0.2
v 0.3 0.7 0.4
v 0.3 0.7 0.3
v 0.3 0.7 0.2
v 0.4 0.6 0.2
v 0.4 0.6 0.1
v 0.4 0.6 0
v 0.4 0.6 -0.1
v 0.4 0.7 0.2
v 0.4 0.7 0.1
v 0.4 0.7 0
v 0.4 0.7 -0.1
v -0.3 1 0
v -0.3 1 -0.1
v -0.3 1.1 0
v -0.3 1.1 -0.1
v -0.2 0.1 -0.3
v -0.2 0.1 -0.4
v -0.2 0.2 -0.3
v -0.2 0.4 -0.3
v -0.2 0.4 -0.4
v -0.1 0 0
v -0.1 0 -0.2
v -0.1 0.1 0
v -0.1 0.1 -0.1
v -0.1 0.2 -0.1
v -0.1 0.2 -0.2
v -0.1 1.3 -0.1
v -0.1 1.3 -0.2
v -0.1 1.4 -0.1
v -0.1 1.4 -0.2
v 0 0.3 -0.3
v 0 0.3 -0.4
v 0 0.4 -0.3
v 0 0.4 -0.4
v 0.1 0 0
v 0.1 0 -0.2
v 0.1 0.1 0
v 0.1 0.1 -0.1
v 0.1 0.2 0
v 0.1 0.2 -0.1
v 0.1 0.2 -0.2
v 0.1 0.2 -0.3
v 0.1 0.4 -0.1
v 0.1 0.4 -0.2
v 0.1 0.5 0
v 0.1 0.5 -0.3
v 0.1 0.6 0
v 0.1 0.6 -0.3
v 0.1 1 0
v 0.1 1 -0.1
v 0.1 1.1 0
v 0.1 1.1 -0.1
v 0.1 1.1 -0.3
v 0.1 1.2 0.1
v 0.1 1.2 0
v 0.1 1.2 -0.1
v 0.1 1.3 0.1
v 0.1 1.3 -0.1
v 0.1 1.3 -0.2
v 0.1 1.3 -0.3
v 0.1 1.4 -0.1
v 0.1 1.4 -0.2
v 0.2 0.1 -0.3
v 0.2 0.1 -0.4
v 0.2 0.6 -0.3
v 0.2 0.7 0
v 0.2 0.7 -0.1
v 0.2 0.9 0
v 0.2 0.9 -0.1
v 0.2 1 -0.3
v 0.2 1 -0.4
v 0.3 0.6 0
v 0.3 0.6 -0.1
v 0.3 0.7 0
v 0.3 0.7 -0.1
v 0.3 0.7 -0.2
v 0.3 0.7 -0.3
v 0.3 0.8 -0.1
v 0.3 0.8 -0.3
v 0.3 0.9 0
v 0.3 0.9 -0.1
v 0.3 1 -0.1
v 0.3 1 -0.3
v 0.3 1 -0.4
v 0.3 1.1 0
v 0.3 1.1 -0.4
v 0.4 0.8 -0.1
v 0.4 0.8 -0.3
v 0.4 1 -0.1
v 0.4 1 -0.3
v 0.6 0.6 0.2
v 0.6 0.6 0.1
v 0.6 0.6 0
v 0.6 0.6 -0.1
v 0.6 0.7 0.2
v 0.6 0.7 0.1
v 0.6 0.7 0
v 0.6 0.7 -0.1
v 0.7 0.6 0.4
v 0.7 0.6 0.3
v 0.7 0.6 0.2
v 0.7 0.6 0.1
v 0.7 0.6 0
v 0.7 0.6 -0.1
v 0.7 0.6 -0.2
v 0.7 0.6 -0.3
v 0.7 0.7 0.4
v 0.7 0.7 0.3
v 0.7 0.7 0.2
v 0.7 0.7 0.1
v 0.7 0.7 0
v 0.7 0.7 -0.1
v 0.7 0.7 -0.2
v 0.7 0.7 -0.3
v 0.3 0.6 0.4
v 0.3 0.7 0.4
v 0.7 0.6 0.4
v 0.7 0.7 0.4
v -0.6 0.6 0.1
v -0.6 0.7 0.1
v -0.4 0.6 0.1
v -0.4 0.7 0.1
v -0.3 0.6 0.1
v -0.3 0.7 0.1
v -0.2 1.2 0.1
v -0.2 1.3 0.1
v 0.1 1.2 0.1
v 0.1 1.3 0.1
v 0.2 0.6 0.1
v 0.2 0.7 0.1
v 0.3 0.6 0.1
v 0.3 0.7 0.1
v 0.4 0.6 0.1
v 0.4 0.7 0.1
v 0.6 0.6 0.1
v 0.6 0.7 0.1
v 0.7 0.6 0.1
v 0.7 0.7 0.1
v -0.4 0.9 0
v -0.4 1.1 0
v -0.3 0.7 0
v -0.3 0.9 0
v -0.3 1 0
v -0.3 1.1 0
v -0.2 0 0
v -0.2 0.1 0
v -0.2 0.2 0
v -0.2 0.5 0
v -0.2 0.6 0
v -0.2 0.9 0
v -0.2 1 0
v -0.2 1.1 0
v -0.2 1.2 0
v -0.1 0 0
v -0.1 0.1 0
v -0.1 0.8 0
v -0.1 0.9 0
v 0 0 0
v 0 0.1 0
v 0 0.8 0
v 0 0.9 0
v 0.1 0 0
v 0.1 0.1 0
v 0.1 0.2 0
v 0.1 0.5 0
v 0.1 0.6 0
v 0.1 0.9 0
v 0.1 1 0
v 0.1 1.1 0
v 0.1 1.2 0
v 0.2 0.7 0
v 0.2 0.9 0
v 0.2 1 0
v 0.2 1.1 0
v 0.3 0.9 0
v 0.3 1.1 0
v -0.5 0.8 -0.1
v -0.5 1 -0.1
v -0.4 0.7 -0.1
v -0.4 0.8 -0.1
v -0.4 0.9 -0.1
v -0.4 1 -0.1
v -0.3 0.7 -0.1
v -0.3 0.9 -0.1
v -0.3 1 -0.1
v -0.3 1.1 -0.1
v -0.2 0.1 -0.1
v -0.2 0.2 -0.1
v -0.2 1 -0.1
v -0.2 1.1 -0.1
v -0.2 1.3 -0.1
v -0.2 1.4 -0.1
v -0.1 0.1 -0.1
v -0.1 0.2 -0.1
v -0.1 1.3 -0.1
v -0.1 1.4 -0.1
v 0 0.1 -0.1
v 0 0.2 -0.1
v 0 1.3 -0.1
v 0 1.4 -0.1
v 0.1 0.1 -0.1
v 0.1 0.2 -0.1
v 0.1 1 -0.1
v 0.1 1.1 -0.1
v 0.1 1.3 -0.1
v 0.1 1.4 -0.1
v 0.2 0.7 -0.1
v 0.2 0.9 -0.1
v 0.2 1 -0.1
v 0.2 1.1 -0.1
v 0.3 0.6 -0.1
v 0.3 0.7 -0.1
v 0.3 0.8 -0.1
v 0.3 0.9 -0.1
v 0.3 1 -0.1
v 0.4 0.6 -0.1
v 0.4 0.7 -0.1
v 0.4 0.8 -0.1
v 0.4 1 -0.1
v 0.6 0.6 -0.1
v 0.6 0.7 -0.1
v 0.7 0.6 -0.1
v 0.7 0.7 -0.1
v -0.3 0.1 -0.3
v -0.3 0.6 -0.3
v -0.2 0.1 -0.3
v -0.2 0.2 -0.3
v -0.2 0.5 -0.3
v -0.2 0.6 -0.3
v 0.1 0.1 -0.3
v 0.1 0.2 -0.3
v 0.1 0.5 -0.3
v 0.1 0.6 -0.3
v 0.2 0.1 -0.3
v 0.2 0.6 -0.3
v 0.3 0.6 0.2
v 0.3 0.7 0.2
v 0.4 0.6 0.2
v 0.4 0.7 0.2
v 0.6 0.6 0.2
v 0.6 0.7 0.2
v 0.7 0.6 0.2
v 0.7 0.7 0.2
v -0.6 0.6 0
v -0.6 0.7 0
v -0.4 0.6 0
v -0.4 0.7 0
v 0.3 0.6 0
v 0.3 0.7 0
v 0.4 0.6 0
v 0.4 0.7 0
v 0.6 0.6 0
v 0.6 0.7 0
v 0.7 0.6 0
v 0.7 0.7 0
v -0.2 0 -0.2
v -0.2 0.2 -0.2
v -0.2 1.3 -0.2
v -0.2 1.4 -0.2
v -0.1 0 -0.2
v -0.1 0.2 -0.2
v -0.1 1.3 -0.2
v -0.1 1.4 -0.2
v 0 0 -0.2
v 0 0.2 -0.2
v 0 1.3 -0.2
v 0 1.4 -0.2
v 0.1 0 -0.2
v 0.1 0.2 -0.2
v 0.1 1.3 -0.2
v 0.1 1.4 -0.2
v -0.5 0.8 -0.3
v -0.5 1 -0.3
v -0.4 0.6 -0.3
v -0.4 0.8 -0.3
v -0.4 1 -0.3
v -0.3 0.6 -0.3
v -0.3 1 -0.3
v -0.2 0.2 -0.3
v -0.2 0.4 -0.3
v -0.2 1.1 -0.3
v -0.2 1.3 -0.3
v -0.1 0.3 -0.3
v -0.1 0.4 -0.3
v 0 0.3 -0.3
v 0 0.4 -0.3
v 0.1 0.2 -0.3
v 0.1 0.4 -0.3
v 0.1 1.1 -0.3
v 0.1 1.3 -0.3
v 0.2 0.6 -0.3
v 0.2 1 -0.3
v 0.3 0.6 -0.3
v 0.3 0.7 -0.3
v 0.3 0.8 -0.3
v 0.3 1 -0.3
v 0.4 0.8 -0.3
v 0.4 1 -0.3
v 0.7 0.6 -0.3
v 0.7 0.7 -0.3
v -0.4 1 -0.4
v -0.4 1.1 -0.4
v -0.3 0.1 -0.4
v -0.3 1 -0.4
v -0.2 0.1 -0.4
v -0.2 0.4 -0.4
v -0.1 0.3 -0.4
v -0.1 0.4 -0.4
v 0 0.3 -0.4
v 0 0.4 -0.4
v 0.1 0.1 -0.4
v 0.1 0.4 -0.4
v 0.2 0.1 -0.4
v 0.2 1 -0.4
v 0.3 1 -0.4
v 0.3 1.1 -0.4
v -0.2 0 0
v -0.1 0 0
v 0 0 0
v 0.1 0 0
v -0.2 0 -0.2
v -0.1 0 -0.2
v 0 0 -0.2
v 0.1 0 -0.2
v -0.3 0.1 -0.3
v -0.2 0.1 -0.3
v 0.1 0.1 -0.3
v 0.2 0.1 -0.3
v -0.3 0.1 -0.4
v -0.2 0.1 -0.4
v 0.1 0.1 -0.4
v 0.2 0.1 -0.4
v -0.2 0.2 0
v 0.1 0.2 0
v -0.2 0.2 -0.1
v -0.1 0.2 -0.1
v 0 0.2 -0.1
v 0.1 0.2 -0.1
v -0.2 0.2 -0.2
v -0.1 0.2 -0.2
v 0 0.2 -0.2
v 0.1 0.2 -0.2
v -0.2 0.2 -0.3
v 0.1 0.2 -0.3
v -0.1 0.3 -0.3
v 0 0.3 -0.3
v -0.1 0.3 -0.4
v 0 0.3 -0.4
v -0.2 0.4 -0.3
v -0.1 0.4 -0.3
v 0 0.4 -0.3
v 0.1 0.4 -0.3
v -0.2 0.4 -0.4
v -0.1 0.4 -0.4
v 0 0.4 -0.4
v 0.1 0.4 -0.4
v 0.3 0.6 0.4
v 0.7 0.6 0.4
v 0.3 0.6 0.3
v 0.7 0.6 0.3
v 0.3 0.6 0.2
v 0.4 0.6 0.2
v 0.6 0.6 0.2
v 0.7 0.6 0.2
v -0.6 0.6 0.1
v -0.4 0.6 0.1
v -0.3 0.6 0.1
v 0.2 0.6 0.1
v 0.3 0.6 0.1
v 0.4 0.6 0.1
v 0.6 0.6 0.1
v 0.7 0.6 0.1
v -0.6 0.6 0
v -0.4 0.6 0
v -0.3 0.6 0
v -0.2 0.6 0
v 0.1 0.6 0
v 0.2 0.6 0
v 0.3 0.6 0
v 0.4 0.6 0
v 0.6 0.6 0
v 0.7 0.6 0
v 0.3 0.6 -0.1
v 0.4 0.6 -0.1
v 0.6 0.6 -0.1
v 0.7 0.6 -0.1
v 0.3 0.6 -0.2
v 0.7 0.6 -0.2
v -0.4 0.6 -0.3
v -0.3 0.6 -0.3
v -0.2 0.6 -0.3
v 0.1 0.6 -0.3
v 0.2 0.6 -0.3
v 0.3 0.6 -0.3
v 0.7 0.6 -0.3
v -0.5 0.8 -0.1
v -0.4 0.8 -0.1
v 0.3 0.8 -0.1
v 0.4 0.8 -0.1
v -0.5 0.8 -0.3
v -0.4 0.8 -0.3
v 0.3 0.8 -0.3
v 0.4 0.8 -0.3
v -0.4 0.9 0
v -0.3 0.9 0
v 0.2 0.9 0
v 0.3 0.9 0
v -0.4 0.9 -0.1
v -0.3 0.9 -0.1
v 0.2 0.9 -0.1
v 0.3 0.9 -0.1
v -0.4 1 -0.3
v -0.3 1 -0.3
v 0.2 1 -0.3
v 0.3 1 -0.3
v -0.4 1 -0.4
v -0.3 1 -0.4
v 0.2 1 -0.4
v 0.3 1 -0.4
v -0.2 1.2 0.1
v 0.1 1.2 0.1
v -0.2 1.2 0
v 0.1 1.2 0
v -0.2 0.1 0
v -0.1 0.1 0
v 0 0.1 0
v 0.1 0.1 0
v -0.2 0.1 -0.1
v -0.1 0.1 -0.1
v 0 0.1 -0.1
v 0.1 0.1 -0.1
v 0.3 0.7 0.4
v 0.7 0.7 0.4
v 0.3 0.7 0.3
v 0.7 0.7 0.3
v 0.3 0.7 0.2
v 0.4 0.7 0.2
v 0.6 0.7 0.2
v 0.7 0.7 0.2
v -0.6 0.7 0.1
v -0.4 0.7 0.1
v -0.3 0.7 0.1
v 0.2 0.7 0.1
v 0.3 0.7 0.1
v 0.4 0.7 0.1
v 0.6 0.7 0.1
v 0.7 0.7 0.1
v -0.6 0.7 0
v -0.4 0.7 0
v -0.3 0.7 0
v 0.2 0.7 0
v 0.3 0.7 0
v 0.4 0.7 0
v 0.6 0.7 0
v 0.7 0.7 0
v -0.4 0.7 -0.1
v -0.3 0.7 -0.1
v 0.2 0.7 -0.1
v 0.3 0.7 -0.1
v 0.4 0.7 -0.1
v 0.6 0.7 -0.1
v 0.7 0.7 -0.1
v 0.3 0.7 -0.2
v 0.7 0.7 -0.2
v 0.3 0.7 -0.3
v 0.7 0.7 -0.3
v -0.3 1 0
v -0.2 1 0
v 0.1 1 0
v 0.2 1 0
v -0.5 1 -0.1
v -0.4 1 -0.1
v -0.3 1 -0.1
v -0.2 1 -0.1
v 0.1 1 -0.1
v 0.2 1 -0.1
v 0.3 1 -0.1
v 0.4 1 -0.1
v -0.5 1 -0.3
v -0.4 1 -0.3
v 0.3 1 -0.3
v 0.4 1 -0.3
v -0.4 1.1 0
v -0.3 1.1 0
v 0.2 1.1 0
v 0.3 1.1 0
v -0.3 1.1 -0.1
v -0.2 1.1 -0.1
v 0.1 1.1 -0.1
v 0.2 1.1 -0.1
v -0.2 1.1 -0.3
v 0.1 1.1 -0.3
v -0.4 1.1 -0.4
v 0.3 1.1 -0.4
v -0.2 1.3 0.1
v 0.1 1.3 0.1
v -0.2 1.3 -0.1
v -0.1 1.3 -0.1
v 0 1.3 -0.1
v 0.1 1.3 -0.1
v -0.2 1.3 -0.2
v -0.1 1.3 -0.2
v 0 1.3 -0.2
v 0.1 1.3 -0.2
v -0.2 1.3 -0.3
v 0.1 1.3 -0.3
v -0.2 1.4 -0.1
v -0.1 1.4 -0.1
v 0 1.4 -0.1
v 0.1 1.4 -0.1
v -0.2 1.4 -0.2
v -0.1 1.4 -0.2
v 0 1.4 -0.2
v 0.1 1.4 -0.2

# faces
f 3/2/1 2/2/1 1/2/1
f 4/2/1 2/2/1 3/2/1
f 7/3/1 6/3/1 5/3/1
f 8/3/1 6/3/1 7/3/1
f 11/3/1 10/3/1 9/3/1
f 12/3/1 10/3/1 11/3/1
f 13/3/1 10/3/1 12/3/1
f 14/3/1 10/3/1 13/3/1
f 17/4/1 16/4/1 15/4/1
f 20/4/1 18/4/1 17/4/1
f 20/4/1 19/4/1 18/4/1
f 20/4/1 17/4/1 15/4/1
f 21/4/1 19/4/1 20/4/1
f 24/4/1 23/4/1 22/4/1
f 27/3/1 26/3/1 25/3/1
f 28/3/1 26/3/1 27/3/1
f 29/4/1 23/4/1 24/4/1
f 30/4/1 23/4/1 29/4/1
f 33/3/1 32/3/1 31/3/1
f 34/3/1 32/3/1 33/3/1
f 36/3/1 32/3/1 34/3/1
f 37/3/1 32/3/1 36/3/1
f 39/2/1 36/2/1 35/2/1
f 39/3/1 37/3/1 36/3/1
f 40/2/1 38/2/1 37/2/1
f 40/3/1 37/3/1 39/3/1
f 41/2/1 39/2/1 35/2/1
f 41/2/1 40/2/1 39/2/1
f 42/2/1 38/2/1 40/2/1
f 42/2/1 40/2/1 41/2/1
f 43/3/1 42/3/1 41/3/1
f 44/3/1 42/3/1 43/3/1
f 47/2/1 46/2/1 45/2/1
f 48/2/1 46/2/1 47/2/1
f 51/3/1 48/3/1 47/3/1
f 52/4/1 49/4/1 48/4/1
f 52/3/1 48/3/1 51/3/1
f 53/4/1 51/4/1 50/4/1
f 53/4/1 52/4/1 51/4/1
f 54/4/1 49/4/1 52/4/1
f 54/4/1 52/4/1 53/4/1
f 55/4/1 49/4/1 54/4/1
f 56/4/1 49/4/1 55/4/1
f 57/4/1 55/4/1 54/4/1
f 58/4/1 55/4/1 57/4/1
f 61/4/1 60/4/1 59/4/1
f 62/4/1 60/4/1 61/4/1
f 65/3/1 64/3/1 63/3/1
f 66/3/1 64/3/1 65/3/1
f 67/3/1 64/3/1 66/3/1
f 68/3/1 64/3/1 67/3/1
f 71/4/1 70/4/1 69/4/1
f 72/4/1 70/4/1 71/4/1
f 75/4/1 74/4/1 73/4/1
f 76/4/1 74/4/1 75/4/1
f 77/4/1 74/4/1 76/4/1
f 80/4/1 79/4/1 78/4/1
f 81/4/1 79/4/1 80/4/1
f 85/1/1 83/1/1 82/1/1
f 86/4/1 84/4/1 83/4/1
f 86/1/1 83/1/1 85/1/1
f 87/4/1 84/4/1 86/4/1
f 92/4/1 89/4/1 88/4/1
f 93/4/1 89/4/1 92/4/1
f 94/4/1 91/4/1 90/4/1
f 95/4/1 91/4/1 94/4/1
f 96/4/2 97/4/2 98/4/2
f 98/4/2 97/4/2 99/4/2
f 100/4/2 101/4/2 102/4/2
f 102/4/2 101/4/2 103/4/2
f 103/4/2 101/4/2 104/4/2
f 105/3/2 106/3/2 107/3/2
f 107/3/2 106/3/2 108/3/2
f 108/3/2 106/3/2 109/3/2
f 109/3/2 106/3/2 110/3/2
f 111/4/2 112/4/2 113/4/2
f 113/4/2 112/4/2 114/4/2
f 115/4/2 116/4/2 117/4/2
f 117/4/2 116/4/2 118/4/2
f 119/3/2 120/3/2 121/3/2
f 121/3/2 120/3/2 122/3/2
f 122/3/2 120/3/2 124/3/2
f 124/3/2 120/3/2 125/3/2
f 123/2/2 124/2/2 127/2/2
f 124/3/2 125/3/2 127/3/2
f 125/2/2 126/2/2 128/2/2
f 127/3/2 125/3/2 128/3/2
f 123/2/2 127/2/2 129/2/2
f 127/2/2 128/2/2 129/2/2
f 128/2/2 126/2/2 130/2/2
f 129/2/2 128/2/2 130/2/2
f 129/3/2 130/3/2 131/3/2
f 131/3/2 130/3/2 132/3/2
f 133/2/2 134/2/2 135/2/2
f 135/2/2 134/2/2 136/2/2
f 135/3/2 136/3/2 139/3/2
f 136/4/2 137/4/2 140/4/2
f 139/3/2 136/3/2 140/3/2
f 138/4/2 139/4/2 141/4/2
f 139/4/2 140/4/2 141/4/2
f 140/4/2 137/4/2 142/4/2
f 141/4/2 140/4/2 142/4/2
f 142/4/2 137/4/2 143/4/2
f 143/4/2 137/4/2 144/4/2
f 142/4/2 143/4/2 145/4/2
f 145/4/2 143/4/2 146/4/2
f 147/4/2 148/4/2 149/4/2
f 150/3/2 151/3/2 152/3/2
f 152/3/2 151/3/2 153/3/2
f 149/4/2 148/4/2 154/4/2
f 154/4/2 148/4/2 155/4/2
f 156/3/2 157/3/2 158/3/2
f 158/3/2 157/3/2 159/3/2
f 160/3/2 161/3/2 162/3/2
f 159/3/2 160/3/2 162/3/2
f 162/3/2 161/3/2 163/3/2
f 164/4/2 165/4/2 166/4/2
f 166/4/2 167/4/2 169/4/2
f 167/4/2 168/4/2 169/4/2
f 164/4/2 166/4/2 169/4/2
f 169/4/2 168/4/2 170/4/2
f 171/3/2 172/3/2 173/3/2
f 173/3/2 172/3/2 174/3/2
f 175/4/2 176/4/2 179/4/2
f 179/4/2 176/4/2 180/4/2
f 177/4/2 178/4/2 181/4/2
f 181/4/2 178/4/2 182/4/2
f 183/1/2 184/1/2 191/1/2
f 184/4/2 185/4/2 192/4/2
f 191/1/2 184/1/2 192/1/2
f 192/4/2 185/4/2 193/4/2
f 186/2/2 187/2/2 194/2/2
f 194/2/2 187/2/2 195/2/2
f 188/4/2 189/4/2 196/4/2
f 189/1/2 190/1/2 197/1/2
f 196/4/2 189/4/2 197/4/2
f 197/1/2 190/1/2 198/1/2
f 201/1/3 200/1/3 199/1/3
f 202/1/3 200/1/3 201/1/3
f 205/2/3 204/2/3 203/2/3
f 206/2/3 204/2/3 205/2/3
f 207/3/3 206/3/3 205/3/3
f 208/3/3 206/3/3 207/3/3
f 211/4/3 210/4/3 209/4/3
f 212/4/3 210/4/3 211/4/3
f 213/2/3 208/2/3 207/2/3
f 214/2/3 208/2/3 213/2/3
f 215/3/3 214/3/3 213/3/3
f 216/3/3 214/3/3 215/3/3
f 217/2/3 216/2/3 215/2/3
f 218/2/3 216/2/3 217/2/3
f 221/2/3 220/2/3 219/2/3
f 222/2/3 220/2/3 221/2/3
f 226/4/3 224/4/3 223/4/3
f 227/4/3 224/4/3 226/4/3
f 228/4/3 224/4/3 227/4/3
f 234/3/3 226/3/3 225/3/3
f 234/3/3 227/3/3 226/3/3
f 235/3/3 227/3/3 234/3/3
f 238/3/3 230/3/3 229/3/3
f 239/3/3 230/3/3 238/3/3
f 240/3/3 234/3/3 225/3/3
f 241/2/3 236/2/3 235/2/3
f 241/3/3 234/3/3 240/3/3
f 241/2/3 235/2/3 234/2/3
f 244/3/3 240/3/3 225/3/3
f 244/2/3 241/2/3 240/2/3
f 245/2/3 236/2/3 241/2/3
f 245/2/3 241/2/3 244/2/3
f 246/3/3 243/3/3 242/3/3
f 247/3/3 243/3/3 246/3/3
f 248/2/3 232/2/3 231/2/3
f 249/3/3 233/3/3 232/3/3
f 249/2/3 232/2/3 248/2/3
f 250/3/3 233/3/3 249/3/3
f 251/2/3 236/2/3 245/2/3
f 251/3/3 245/3/3 244/3/3
f 252/2/3 236/2/3 251/2/3
f 253/3/3 237/3/3 236/3/3
f 253/2/3 236/2/3 252/2/3
f 254/3/3 237/3/3 253/3/3
f 255/3/3 251/3/3 244/3/3
f 255/3/3 252/3/3 251/3/3
f 255/3/3 244/3/3 225/3/3
f 256/3/3 252/3/3 255/3/3
f 257/3/3 252/3/3 256/3/3
f 259/4/3 258/4/3 257/4/3
f 259/4/3 257/4/3 256/4/3
f 260/4/3 258/4/3 259/4/3
f 264/3/3 262/3/3 261/3/3
f 265/3/3 262/3/3 264/3/3
f 266/3/3 262/3/3 265/3/3
f 267/3/3 264/3/3 263/3/3
f 267/3/3 265/3/3 264/3/3
f 268/3/3 265/3/3 267/3/3
f 273/4/3 270/4/3 269/4/3
f 274/4/3 270/4/3 273/4/3
f 277/3/3 272/3/3 271/3/3
f 278/3/3 272/3/3 277/3/3
f 279/4/3 276/4/3 275/4/3
f 280/4/3 276/4/3 279/4/3
f 285/3/3 282/3/3 281/3/3
f 286/3/3 282/3/3 285/3/3
f 289/4/3 284/4/3 283/4/3
f 290/4/3 284/4/3 289/4/3
f 293/4/3 288/4/3 287/4/3
f 294/4/3 288/4/3 293/4/3
f 296/3/3 292/3/3 291/3/3
f 297/3/3 292/3/3 296/3/3
f 298/3/3 292/3/3 297/3/3
f 300/4/3 296/4/3 295/4/3
f 301/4/3 296/4/3 300/4/3
f 302/3/3 299/3/3 298/3/3
f 302/3/3 298/3/3 297/3/3
f 303/3/3 299/3/3 302/3/3
f 306/4/3 305/4/3 304/4/3
f 307/4/3 305/4/3 306/4/3
f 310/4/3 309/4/3 308/4/3
f 311/4/3 309/4/3 310/4/3
f 312/4/3 309/4/3 311/4/3
f 313/4/3 309/4/3 312/4/3
f 318/4/3 315/4/3 314/4/3
f 318/4/3 317/4/3 316/4/3
f 318/4/3 316/4/3 315/4/3
f 319/4/3 317/4/3 318/4/3
f 320/4/4 321/4/4 322/4/4
f 322/4/4 321/4/4 323/4/4
f 324/4/4 325/4/4 326/4/4
f 326/4/4 325/4/4 327/4/4
f 328/2/4 329/2/4 330/2/4
f 330/2/4 329/2/4 331/2/4
f 332/2/4 333/2/4 334/2/4
f 334/2/4 333/2/4 335/2/4
f 336/2/4 337/2/4 338/2/4
f 338/2/4 337/2/4 339/2/4
f 340/3/4 341/3/4 344/3/4
f 344/3/4 341/3/4 345/3/4
f 342/4/4 343/4/4 346/4/4
f 346/4/4 343/4/4 347/4/4
f 348/3/4 349/3/4 352/3/4
f 352/3/4 349/3/4 353/3/4
f 350/4/4 351/4/4 354/4/4
f 354/4/4 351/4/4 355/4/4
f 356/3/4 357/3/4 359/3/4
f 359/3/4 357/3/4 360/3/4
f 358/3/4 359/3/4 361/3/4
f 359/3/4 360/3/4 361/3/4
f 361/3/4 360/3/4 362/3/4
f 363/2/4 364/2/4 367/2/4
f 367/2/4 364/2/4 368/2/4
f 363/2/4 367/2/4 369/2/4
f 363/2/4 369/2/4 371/2/4
f 369/2/4 370/2/4 371/2/4
f 371/2/4 370/2/4 372/2/4
f 365/4/4 366/4/4 373/4/4
f 373/4/4 366/4/4 374/4/4
f 375/3/4 376/3/4 377/3/4
f 377/3/4 376/3/4 378/3/4
f 378/3/4 376/3/4 379/3/4
f 379/3/4 376/3/4 380/3/4
f 379/3/4 380/3/4 381/3/4
f 381/3/4 380/3/4 382/3/4
f 377/1/4 378/1/4 383/1/4
f 383/1/4 378/1/4 384/1/4
f 385/4/4 386/4/4 388/4/4
f 387/4/4 388/4/4 389/4/4
f 389/4/4 388/4/4 390/4/4
f 390/4/4 388/4/4 392/4/4
f 391/4/4 392/4/4 393/4/4
f 392/4/4 388/4/4 394/4/4
f 393/4/4 392/4/4 394/4/4
f 394/4/4 388/4/4 396/4/4
f 395/4/4 396/4/4 397/4/4
f 388/4/4 386/4/4 398/4/4
f 397/4/4 396/4/4 398/4/4
f 396/4/4 388/4/4 398/4/4
f 398/4/4 386/4/4 399/4/4
f 399/4/4 386/4/4 400/4/4
f 405/3/5 402/3/5 401/3/5
f 406/3/5 402/3/5 405/3/5
f 407/3/5 404/3/5 403/3/5
f 408/3/5 404/3/5 407/3/5
f 413/4/5 410/4/5 409/4/5
f 414/4/5 410/4/5 413/4/5
f 415/4/5 412/4/5 411/4/5
f 416/4/5 412/4/5 415/4/5
f 419/2/5 418/2/5 417/2/5
f 420/2/5 418/2/5 419/2/5
f 421/2/5 418/2/5 420/2/5
f 422/2/5 418/2/5 421/2/5
f 424/5/5 421/5/5 420/5/5
f 425/5/5 421/5/5 424/5/5
f 427/2/5 424/2/5 423/2/5
f 427/2/5 426/2/5 425/2/5
f 427/2/5 425/2/5 424/2/5
f 428/2/5 426/2/5 427/2/5
f 431/4/5 430/4/5 429/4/5
f 432/4/5 430/4/5 431/4/5
f 437/4/5 434/4/5 433/4/5
f 438/4/5 434/4/5 437/4/5
f 439/4/5 436/4/5 435/4/5
f 440/4/5 436/4/5 439/4/5
f 443/1/5 442/1/5 441/1/5
f 444/1/5 442/1/5 443/1/5
f 445/4/5 444/4/5 443/4/5
f 446/4/5 444/4/5 445/4/5
f 447/4/5 444/4/5 446/4/5
f 448/4/5 444/4/5 447/4/5
f 454/4/5 447/4/5 446/4/5
f 455/4/5 447/4/5 454/4/5
f 457/2/5 450/2/5 449/2/5
f 458/3/5 451/3/5 450/3/5
f 458/2/5 450/2/5 457/2/5
f 459/2/5 452/2/5 451/2/5
f 459/3/5 451/3/5 458/3/5
f 460/2/5 452/2/5 459/2/5
f 461/2/5 452/2/5 460/2/5
f 462/3/5 453/3/5 452/3/5
f 462/2/5 452/2/5 461/2/5
f 463/2/5 456/2/5 455/2/5
f 463/3/5 453/3/5 462/3/5
f 463/2/5 454/2/5 453/2/5
f 463/2/5 455/2/5 454/2/5
f 464/2/5 456/2/5 463/2/5
f 465/2/5 456/2/5 464/2/5
f 466/2/5 456/2/5 465/2/5
f 467/3/5 462/3/5 461/3/5
f 467/3/5 463/3/5 462/3/5
f 468/4/5 465/4/5 464/4/5
f 469/4/5 465/4/5 468/4/5
f 471/3/5 467/3/5 461/3/5
f 471/4/5 470/4/5 469/4/5
f 471/4/5 469/4/5 468/4/5
f 471/4/5 468/4/5 467/4/5
f 472/4/5 470/4/5 471/4/5
f 473/3/5 459/3/5 458/3/5
f 473/3/5 460/3/5 459/3/5
f 474/3/5 460/3/5 473/3/5
f 475/3/5 460/3/5 474/3/5
f 476/3/5 471/3/5 461/3/5
f 477/3/5 471/3/5 476/3/5
f 478/1/5 472/1/5 471/1/5
f 478/3/5 471/3/5 477/3/5
f 479/1/5 472/1/5 478/1/5
f 484/3/5 481/3/5 480/3/5
f 485/3/5 481/3/5 484/3/5
f 486/3/5 483/3/5 482/3/5
f 487/3/5 483/3/5 486/3/5
f 492/4/5 489/4/5 488/4/5
f 493/4/5 489/4/5 492/4/5
f 494/4/5 491/4/5 490/4/5
f 495/4/5 491/4/5 494/4/5
f 500/4/5 497/4/5 496/4/5
f 501/4/5 497/4/5 500/4/5
f 502/4/5 499/4/5 498/4/5
f 503/4/5 499/4/5 502/4/5
f 506/4/5 505/4/5 504/4/5
f 507/4/5 505/4/5 506/4/5
f 508/3/6 509/3/6 512/3/6
f 512/3/6 509/3/6 513/3/6
f 510/3/6 511/3/6 514/3/6
f 514/3/6 511/3/6 515/3/6
f 516/1/6 517/1/6 518/1/6
f 518/1/6 517/1/6 519/1/6
f 518/4/6 519/4/6 520/4/6
f 520/4/6 519/4/6 521/4/6
f 521/4/6 519/4/6 522/4/6
f 522/4/6 519/4/6 523/4/6
f 521/4/6 522/4/6 529/4/6
f 529/4/6 522/4/6 530/4/6
f 524/2/6 525/2/6 532/2/6
f 525/3/6 526/3/6 533/3/6
f 532/2/6 525/2/6 533/2/6
f 526/2/6 527/2/6 534/2/6
f 533/3/6 526/3/6 534/3/6
f 527/3/6 528/3/6 535/3/6
f 534/2/6 527/2/6 535/2/6
f 530/2/6 531/2/6 536/2/6
f 535/3/6 528/3/6 536/3/6
f 528/2/6 529/2/6 536/2/6
f 529/2/6 530/2/6 536/2/6
f 536/2/6 531/2/6 537/2/6
f 537/2/6 531/2/6 538/2/6
f 538/2/6 531/2/6 539/2/6
f 533/3/6 534/3/6 540/3/6
f 540/3/6 534/3/6 541/3/6
f 535/3/6 536/3/6 542/3/6
f 542/3/6 536/3/6 543/3/6
f 537/4/6 538/4/6 544/4/6
f 544/4/6 538/4/6 545/4/6
f 545/4/6 546/4/6 547/4/6
f 544/4/6 545/4/6 547/4/6
f 543/4/6 544/4/6 547/4/6
f 547/4/6 546/4/6 548/4/6
f 547/1/6 548/1/6 549/1/6
f 549/1/6 548/1/6 550/1/6
f 551/3/6 552/3/6 557/3/6
f 557/3/6 552/3/6 558/3/6
f 553/3/6 554/3/6 559/3/6
f 559/3/6 554/3/6 560/3/6
f 555/3/6 556/3/6 563/3/6
f 563/3/6 556/3/6 564/3/6
f 561/3/6 562/3/6 565/3/6
f 565/3/6 562/3/6 566/3/6
f 567/4/6 568/4/6 571/4/6
f 569/4/6 570/4/6 574/4/6
f 571/4/6 572/4/6 575/4/6
f 573/4/6 574/4/6 576/4/6
f 571/4/6 575/4/6 577/4/6
f 575/4/6 576/4/6 577/4/6
f 567/4/6 571/4/6 577/4/6
f 576/4/6 574/4/6 578/4/6
f 577/4/6 576/4/6 578/4/6
f 574/4/6 570/4/6 578/4/6
f 579/4/6 580/4/6 581/4/6
f 581/4/6 580/4/6 582/4/6
f 582/4/6 580/4/6 583/4/6
f 583/4/6 580/4/6 584/4/6
f 582/4/6 583/4/6 586/4/6
f 586/4/6 583/4/6 587/4/6
f 585/4/6 586/4/6 589/4/6
f 587/4/6 588/4/6 589/4/6
f 586/4/6 587/4/6 589/4/6
f 589/4/6 588/4/6 590/4/6
f 591/4/6 592/4/6 595/4/6
f 595/4/6 592/4/6 596/4/6
f 593/4/6 594/4/6 597/4/6
f 597/4/6 594/4/6 598/4/6
