# MagicaVoxel @ Ephtracy

# group
o 

# material
mtllib alchemist_action_0.mtl
usemtl palette

# normals
vn -1 0 0
vn 1 0 0
vn 0 0 1
vn 0 0 -1
vn 0 -1 0
vn 0 1 0

# texcoords
vt 0.732422 0.5
vt 0.783203 0.5
vt 0.826172 0.5
vt 0.943359 0.5
vt 0.947266 0.5
vt 0.951172 0.5
vt 0.970703 0.5

# verts
v -0.4 0 0.2
v -0.4 0 -0.5
v -0.4 0.1 0.2
v -0.4 0.1 -0.5
v -0.3 0.1 0.5
v -0.3 0.1 0.2
v -0.3 0.1 -0.4
v -0.3 0.3 0.5
v -0.3 0.3 0.2
v -0.3 0.5 0.2
v -0.3 0.5 -5.96046e-08
v -0.3 0.6 -5.96046e-08
v -0.3 0.6 -0.4
v -0.2 0.3 0.4
v -0.2 0.3 0.2
v -0.2 0.4 0.4
v -0.2 0.4 0.3
v -0.2 0.4 0.2
v -0.2 0.5 0.4
v -0.2 0.5 0.3
v -0.2 0.6 -5.96046e-08
v -0.2 0.6 -0.3
v -0.2 0.8 -5.96046e-08
v -0.2 0.8 -0.3
v -0.1 0.7 0.1
v -0.1 0.7 -5.96046e-08
v -0.1 0.8 -5.96046e-08
v -0.1 0.8 -0.2
v -0.1 1.1 0.1
v -0.1 1.1 -0.2
v 0 0.5 0.4
v 0 0.5 0.2
v 0 0.5 0.1
v 0 0.5 -5.96046e-08
v 0 0.6 0.4
v 0 0.6 0.1
v 0 0.6 -5.96046e-08
v 0 0.7 0.4
v 0 0.7 0.1
v 0.2 0.4 0.3
v 0.2 0.4 0.1
v 0.2 0.5 0.3
v 0.2 0.5 0.1
v -0.1 0.3 0.4
v -0.1 0.3 0.2
v -0.1 0.4 0.4
v -0.1 0.4 0.3
v -0.1 0.4 0.2
v -0.1 0.5 0.4
v -0.1 0.5 0.3
v 0 0 0.2
v 0 0 0.1
v 0 0.1 0.5
v 0 0.1 0.2
v 0 0.3 0.5
v 0 0.3 0.2
v 0 0.5 0.2
v 0 0.5 0.1
v 0.2 0.7 0.1
v 0.2 0.7 -5.96046e-08
v 0.2 0.8 -5.96046e-08
v 0.2 0.8 -0.2
v 0.2 1.1 0.1
v 0.2 1.1 -0.2
v 0.3 0.4 0.3
v 0.3 0.4 0.1
v 0.3 0.5 0.3
v 0.3 0.5 0.1
v 0.3 0.6 -5.96046e-08
v 0.3 0.6 -0.3
v 0.3 0.8 -5.96046e-08
v 0.3 0.8 -0.3
v 0.4 0.1 0.1
v 0.4 0.1 -0.4
v 0.4 0.5 0.1
v 0.4 0.6 0.1
v 0.4 0.6 -0.4
v 0.5 0 0.1
v 0.5 0 -0.5
v 0.5 0.1 0.1
v 0.5 0.1 -0.5
v 0.5 0.5 0.4
v 0.5 0.5 0.1
v 0.5 0.6 0.4
v 0.5 0.6 0.1
v 0.5 0.7 0.4
v 0.5 0.7 0.1
v -0.3 0.1 0.5
v -0.3 0.3 0.5
v 0 0.1 0.5
v 0 0.3 0.5
v -0.2 0.3 0.4
v -0.2 0.4 0.4
v -0.2 0.5 0.4
v -0.1 0.3 0.4
v -0.1 0.4 0.4
v -0.1 0.5 0.4
v 0 0.5 0.4
v 0 0.6 0.4
v 0 0.7 0.4
v 0.2 0.6 0.4
v 0.2 0.7 0.4
v 0.3 0.6 0.4
v 0.3 0.7 0.4
v 0.5 0.5 0.4
v 0.5 0.6 0.4
v 0.5 0.7 0.4
v 0.2 0.4 0.3
v 0.2 0.5 0.3
v 0.3 0.4 0.3
v 0.3 0.5 0.3
v -0.4 0 0.2
v -0.4 0.1 0.2
v -0.3 0.1 0.2
v -0.3 0.3 0.2
v -0.3 0.5 0.2
v -0.2 0 0.2
v -0.2 0.1 0.2
v -0.2 0.3 0.2
v -0.2 0.4 0.2
v -0.1 0 0.2
v -0.1 0.1 0.2
v -0.1 0.3 0.2
v -0.1 0.4 0.2
v 0 0 0.2
v 0 0.1 0.2
v 0 0.3 0.2
v 0 0.5 0.2
v -0.1 0.7 0.1
v -0.1 1.1 0.1
v 0 0 0.1
v 0 0.5 0.1
v 0 0.7 0.1
v 0 0.8 0.1
v 0 1 0.1
v 0.1 0.8 0.1
v 0.1 1 0.1
v 0.2 0 0.1
v 0.2 0.4 0.1
v 0.2 0.5 0.1
v 0.2 0.7 0.1
v 0.2 1.1 0.1
v 0.3 0 0.1
v 0.3 0.4 0.1
v 0.3 0.5 0.1
v 0.4 0.1 0.1
v 0.4 0.5 0.1
v 0.5 0 0.1
v 0.5 0.1 0.1
v -0.3 0.5 -5.96046e-08
v -0.3 0.6 -5.96046e-08
v -0.2 0.6 -5.96046e-08
v -0.2 0.8 -5.96046e-08
v -0.1 0.7 -5.96046e-08
v -0.1 0.8 -5.96046e-08
v 0 0.5 -5.96046e-08
v 0 0.6 -5.96046e-08
v 0.2 0.7 -5.96046e-08
v 0.2 0.8 -5.96046e-08
v 0.3 0.6 -5.96046e-08
v 0.3 0.8 -5.96046e-08
v -0.2 0.4 0.3
v -0.2 0.5 0.3
v -0.1 0.4 0.3
v -0.1 0.5 0.3
v 0 0.6 0.1
v 0 0.7 0.1
v 0.2 0.6 0.1
v 0.2 0.7 0.1
v 0.3 0.6 0.1
v 0.3 0.7 0.1
v 0.4 0.5 0.1
v 0.4 0.6 0.1
v 0.5 0.5 0.1
v 0.5 0.6 0.1
v 0.5 0.7 0.1
v -0.1 0.8 -0.2
v -0.1 1.1 -0.2
v 0.2 0.8 -0.2
v 0.2 1.1 -0.2
v -0.2 0.6 -0.3
v -0.2 0.8 -0.3
v 0.3 0.6 -0.3
v 0.3 0.8 -0.3
v -0.3 0.1 -0.4
v -0.3 0.6 -0.4
v 0.4 0.1 -0.4
v 0.4 0.6 -0.4
v -0.4 0 -0.5
v -0.4 0.1 -0.5
v 0.5 0 -0.5
v 0.5 0.1 -0.5
v -0.4 0 0.2
v -0.2 0 0.2
v -0.1 0 0.2
v 0 0 0.2
v -0.3 0 0.1
v -0.2 0 0.1
v 0 0 0.1
v 0.2 0 0.1
v 0.3 0 0.1
v 0.5 0 0.1
v -0.1 0 -5.96046e-08
v 0.2 0 -5.96046e-08
v 0.3 0 -5.96046e-08
v 0.4 0 -5.96046e-08
v -0.3 0 -0.4
v 0.4 0 -0.4
v -0.4 0 -0.5
v 0.5 0 -0.5
v -0.3 0.1 0.5
v 0 0.1 0.5
v -0.3 0.1 0.2
v -0.2 0.1 0.2
v -0.1 0.1 0.2
v 0 0.1 0.2
v 0.2 0.4 0.3
v 0.3 0.4 0.3
v 0.2 0.4 0.1
v 0.3 0.4 0.1
v 0 0.5 0.4
v 0.5 0.5 0.4
v 0.2 0.5 0.3
v 0.3 0.5 0.3
v 0 0.5 0.2
v 0 0.5 0.1
v 0.2 0.5 0.1
v 0.3 0.5 0.1
v 0.4 0.5 0.1
v 0.5 0.5 0.1
v -0.1 0.7 0.1
v 0 0.7 0.1
v 0.2 0.7 0.1
v -0.1 0.7 -5.96046e-08
v 0.2 0.7 -5.96046e-08
v -0.4 0.1 0.2
v -0.3 0.1 0.2
v 0.4 0.1 0.1
v 0.5 0.1 0.1
v -0.3 0.1 -0.4
v 0.4 0.1 -0.4
v -0.4 0.1 -0.5
v 0.5 0.1 -0.5
v -0.3 0.3 0.5
v 0 0.3 0.5
v -0.2 0.3 0.4
v -0.1 0.3 0.4
v -0.3 0.3 0.2
v -0.2 0.3 0.2
v -0.1 0.3 0.2
v 0 0.3 0.2
v -0.2 0.4 0.3
v -0.1 0.4 0.3
v -0.2 0.4 0.2
v -0.1 0.4 0.2
v -0.2 0.5 0.4
v -0.1 0.5 0.4
v -0.2 0.5 0.3
v -0.1 0.5 0.3
v -0.3 0.5 0.2
v 0 0.5 0.2
v 0 0.5 0.1
v -0.3 0.5 -5.96046e-08
v 0 0.5 -5.96046e-08
v 0 0.6 0.1
v 0.2 0.6 0.1
v 0.3 0.6 0.1
v 0.4 0.6 0.1
v -0.3 0.6 -5.96046e-08
v -0.2 0.6 -5.96046e-08
v 0 0.6 -5.96046e-08
v 0.3 0.6 -5.96046e-08
v -0.2 0.6 -0.3
v 0.3 0.6 -0.3
v -0.3 0.6 -0.4
v 0.4 0.6 -0.4
v 0 0.7 0.4
v 0.2 0.7 0.4
v 0.3 0.7 0.4
v 0.5 0.7 0.4
v 0 0.7 0.1
v 0.2 0.7 0.1
v 0.3 0.7 0.1
v 0.5 0.7 0.1
v -0.2 0.8 -5.96046e-08
v -0.1 0.8 -5.96046e-08
v 0.2 0.8 -5.96046e-08
v 0.3 0.8 -5.96046e-08
v -0.1 0.8 -0.2
v 0.2 0.8 -0.2
v -0.2 0.8 -0.3
v 0.3 0.8 -0.3
v -0.1 1.1 0.1
v 0.2 1.1 0.1
v -0.1 1.1 -0.2
v 0.2 1.1 -0.2

# faces
f 3/2/1 2/2/1 1/2/1
f 4/2/1 2/2/1 3/2/1
f 8/3/1 6/3/1 5/3/1
f 9/2/1 7/2/1 6/2/1
f 9/3/1 6/3/1 8/3/1
f 10/2/1 7/2/1 9/2/1
f 11/2/1 7/2/1 10/2/1
f 12/2/1 7/2/1 11/2/1
f 13/2/1 7/2/1 12/2/1
f 16/1/1 15/1/1 14/1/1
f 17/1/1 15/1/1 16/1/1
f 18/1/1 15/1/1 17/1/1
f 19/4/1 17/4/1 16/4/1
f 20/4/1 17/4/1 19/4/1
f 23/2/1 22/2/1 21/2/1
f 24/2/1 22/2/1 23/2/1
f 27/2/1 26/2/1 25/2/1
f 29/2/1 27/2/1 25/2/1
f 29/2/1 28/2/1 27/2/1
f 30/2/1 28/2/1 29/2/1
f 35/3/1 32/3/1 31/3/1
f 35/3/1 33/3/1 32/3/1
f 36/2/1 34/2/1 33/2/1
f 36/3/1 33/3/1 35/3/1
f 37/2/1 34/2/1 36/2/1
f 38/6/1 36/6/1 35/6/1
f 39/6/1 36/6/1 38/6/1
f 42/1/1 41/1/1 40/1/1
f 43/1/1 41/1/1 42/1/1
f 44/1/2 45/1/2 46/1/2
f 46/1/2 45/1/2 47/1/2
f 47/1/2 45/1/2 48/1/2
f 46/4/2 47/4/2 49/4/2
f 49/4/2 47/4/2 50/4/2
f 51/2/2 52/2/2 54/2/2
f 53/3/2 54/3/2 55/3/2
f 54/2/2 52/2/2 56/2/2
f 55/3/2 54/3/2 56/3/2
f 56/2/2 52/2/2 57/2/2
f 57/2/2 52/2/2 58/2/2
f 59/2/2 60/2/2 61/2/2
f 59/2/2 61/2/2 63/2/2
f 61/2/2 62/2/2 63/2/2
f 63/2/2 62/2/2 64/2/2
f 65/1/2 66/1/2 67/1/2
f 67/1/2 66/1/2 68/1/2
f 69/2/2 70/2/2 71/2/2
f 71/2/2 70/2/2 72/2/2
f 73/2/2 74/2/2 75/2/2
f 75/2/2 74/2/2 76/2/2
f 76/2/2 74/2/2 77/2/2
f 78/2/2 79/2/2 80/2/2
f 80/2/2 79/2/2 81/2/2
f 82/3/2 83/3/2 84/3/2
f 84/3/2 83/3/2 85/3/2
f 84/6/2 85/6/2 86/6/2
f 86/6/2 85/6/2 87/6/2
f 90/3/3 89/3/3 88/3/3
f 91/3/3 89/3/3 90/3/3
f 95/1/3 93/1/3 92/1/3
f 96/4/3 94/4/3 93/4/3
f 96/1/3 93/1/3 95/1/3
f 97/4/3 94/4/3 96/4/3
f 101/3/3 99/3/3 98/3/3
f 101/6/3 100/6/3 99/6/3
f 102/6/3 100/6/3 101/6/3
f 103/3/3 101/3/3 98/3/3
f 103/5/3 102/5/3 101/5/3
f 104/5/3 102/5/3 103/5/3
f 105/3/3 103/3/3 98/3/3
f 106/6/3 104/6/3 103/6/3
f 106/3/3 103/3/3 105/3/3
f 107/6/3 104/6/3 106/6/3
f 110/1/3 109/1/3 108/1/3
f 111/1/3 109/1/3 110/1/3
f 114/2/3 113/2/3 112/2/3
f 117/2/3 114/2/3 112/2/3
f 118/2/3 114/2/3 117/2/3
f 119/2/3 116/2/3 115/2/3
f 120/2/3 116/2/3 119/2/3
f 121/7/3 118/7/3 117/7/3
f 122/7/3 118/7/3 121/7/3
f 124/2/3 116/2/3 120/2/3
f 125/2/3 122/2/3 121/2/3
f 126/2/3 122/2/3 125/2/3
f 127/2/3 124/2/3 123/2/3
f 128/2/3 116/2/3 124/2/3
f 128/2/3 124/2/3 127/2/3
f 133/2/3 130/2/3 129/2/3
f 134/2/3 130/2/3 133/2/3
f 135/2/3 130/2/3 134/2/3
f 136/2/3 134/2/3 133/2/3
f 136/7/3 135/7/3 134/7/3
f 137/2/3 130/2/3 135/2/3
f 137/7/3 135/7/3 136/7/3
f 138/2/3 132/2/3 131/2/3
f 139/2/3 132/2/3 138/2/3
f 140/2/3 132/2/3 139/2/3
f 141/2/3 136/2/3 133/2/3
f 141/2/3 137/2/3 136/2/3
f 142/2/3 130/2/3 137/2/3
f 142/2/3 137/2/3 141/2/3
f 143/7/3 139/7/3 138/7/3
f 144/7/3 139/7/3 143/7/3
f 146/2/3 144/2/3 143/2/3
f 146/2/3 145/2/3 144/2/3
f 147/2/3 145/2/3 146/2/3
f 148/2/3 146/2/3 143/2/3
f 149/2/3 146/2/3 148/2/3
f 152/2/3 151/2/3 150/2/3
f 154/2/3 153/2/3 152/2/3
f 155/2/3 153/2/3 154/2/3
f 156/2/3 152/2/3 150/2/3
f 156/2/3 154/2/3 152/2/3
f 157/2/3 154/2/3 156/2/3
f 158/2/3 154/2/3 157/2/3
f 160/2/3 158/2/3 157/2/3
f 160/2/3 159/2/3 158/2/3
f 161/2/3 159/2/3 160/2/3
f 162/4/4 163/4/4 164/4/4
f 164/4/4 163/4/4 165/4/4
f 166/6/4 167/6/4 168/6/4
f 168/6/4 167/6/4 169/6/4
f 168/5/4 169/5/4 170/5/4
f 170/5/4 169/5/4 171/5/4
f 170/6/4 171/6/4 173/6/4
f 172/3/4 173/3/4 174/3/4
f 173/6/4 171/6/4 175/6/4
f 174/3/4 173/3/4 175/3/4
f 175/6/4 171/6/4 176/6/4
f 177/2/4 178/2/4 179/2/4
f 179/2/4 178/2/4 180/2/4
f 181/2/4 182/2/4 183/2/4
f 183/2/4 182/2/4 184/2/4
f 185/2/4 186/2/4 187/2/4
f 187/2/4 186/2/4 188/2/4
f 189/2/4 190/2/4 191/2/4
f 191/2/4 190/2/4 192/2/4
f 197/2/5 194/2/5 193/2/5
f 198/7/5 195/7/5 194/7/5
f 198/2/5 194/2/5 197/2/5
f 199/2/5 196/2/5 195/2/5
f 203/7/5 195/7/5 198/7/5
f 203/7/5 198/7/5 197/7/5
f 203/2/5 199/2/5 195/2/5
f 203/2/5 200/2/5 199/2/5
f 204/7/5 201/7/5 200/7/5
f 204/2/5 200/2/5 203/2/5
f 205/2/5 202/2/5 201/2/5
f 205/7/5 201/7/5 204/7/5
f 206/2/5 202/2/5 205/2/5
f 207/7/5 204/7/5 203/7/5
f 207/2/5 197/2/5 193/2/5
f 207/7/5 206/7/5 205/7/5
f 207/7/5 205/7/5 204/7/5
f 207/7/5 203/7/5 197/7/5
f 208/2/5 202/2/5 206/2/5
f 208/7/5 206/7/5 207/7/5
f 209/2/5 207/2/5 193/2/5
f 209/2/5 208/2/5 207/2/5
f 210/2/5 202/2/5 208/2/5
f 210/2/5 208/2/5 209/2/5
f 213/3/5 212/3/5 211/3/5
f 214/3/5 212/3/5 213/3/5
f 215/3/5 212/3/5 214/3/5
f 216/3/5 212/3/5 215/3/5
f 219/1/5 218/1/5 217/1/5
f 220/1/5 218/1/5 219/1/5
f 223/3/5 222/3/5 221/3/5
f 224/3/5 222/3/5 223/3/5
f 225/3/5 223/3/5 221/3/5
f 226/3/5 223/3/5 225/3/5
f 227/3/5 223/3/5 226/3/5
f 228/3/5 222/3/5 224/3/5
f 229/3/5 222/3/5 228/3/5
f 230/3/5 222/3/5 229/3/5
f 234/2/5 232/2/5 231/2/5
f 234/2/5 233/2/5 232/2/5
f 235/2/5 233/2/5 234/2/5
f 236/2/6 237/2/6 240/2/6
f 238/2/6 239/2/6 241/2/6
f 236/2/6 240/2/6 242/2/6
f 240/2/6 241/2/6 242/2/6
f 241/2/6 239/2/6 243/2/6
f 242/2/6 241/2/6 243/2/6
f 244/3/6 245/3/6 246/3/6
f 246/3/6 245/3/6 247/3/6
f 244/3/6 246/3/6 248/3/6
f 248/3/6 246/3/6 249/3/6
f 247/3/6 245/3/6 250/3/6
f 250/3/6 245/3/6 251/3/6
f 252/1/6 253/1/6 254/1/6
f 254/1/6 253/1/6 255/1/6
f 256/4/6 257/4/6 258/4/6
f 258/4/6 257/4/6 259/4/6
f 260/2/6 261/2/6 262/2/6
f 260/2/6 262/2/6 263/2/6
f 263/2/6 262/2/6 264/2/6
f 265/2/6 266/2/6 271/2/6
f 266/2/6 267/2/6 271/2/6
f 267/2/6 268/2/6 271/2/6
f 271/2/6 268/2/6 272/2/6
f 269/2/6 270/2/6 273/2/6
f 272/2/6 268/2/6 274/2/6
f 269/2/6 273/2/6 275/2/6
f 273/2/6 274/2/6 275/2/6
f 274/2/6 268/2/6 276/2/6
f 275/2/6 274/2/6 276/2/6
f 277/6/6 278/6/6 281/6/6
f 278/5/6 279/5/6 282/5/6
f 281/6/6 278/6/6 282/6/6
f 279/6/6 280/6/6 283/6/6
f 282/5/6 279/5/6 283/5/6
f 283/6/6 280/6/6 284/6/6
f 285/2/6 286/2/6 289/2/6
f 287/2/6 288/2/6 290/2/6
f 285/2/6 289/2/6 291/2/6
f 289/2/6 290/2/6 291/2/6
f 290/2/6 288/2/6 292/2/6
f 291/2/6 290/2/6 292/2/6
f 293/2/6 294/2/6 295/2/6
f 295/2/6 294/2/6 296/2/6
