# MagicaVoxel @ Ephtracy

# group
o 

# material
mtllib alchemist_walk_2.mtl
usemtl palette

# normals
vn -1 0 0
vn 1 0 0
vn 0 0 1
vn 0 0 -1
vn 0 -1 0
vn 0 1 0

# texcoords
vt 0.732422 0.5
vt 0.783203 0.5
vt 0.826172 0.5
vt 0.943359 0.5
vt 0.947266 0.5
vt 0.951172 0.5
vt 0.970703 0.5

# verts
v -0.4 0 0.2
v -0.4 0 -0.4
v -0.4 0.1 0.2
v -0.4 0.1 -0.4
v -0.3 0.1 0.5
v -0.3 0.1 0.2
v -0.3 0.1 -0.3
v -0.3 0.3 0.5
v -0.3 0.3 0.2
v -0.3 0.5 0.2
v -0.3 0.5 -0.3
v -0.2 0.3 0.4
v -0.2 0.3 0.2
v -0.2 0.4 0.4
v -0.2 0.4 0.3
v -0.2 0.4 0.2
v -0.2 0.5 0.4
v -0.2 0.5 0.3
v -0.2 0.5 -5.96046e-08
v -0.2 0.5 -0.3
v -0.2 0.8 -5.96046e-08
v -0.2 0.8 -0.3
v -0.1 0.7 0.1
v -0.1 0.7 -5.96046e-08
v -0.1 0.8 -5.96046e-08
v -0.1 0.8 -0.2
v -0.1 1.1 0.1
v -0.1 1.1 -0.2
v 0 0 -0.4
v 0 0 -0.5
v 0 0.1 -0.4
v 0 0.1 -0.5
v 0 0.4 0.4
v 0 0.4 0.2
v 0 0.5 0.4
v 0 0.5 0.2
v 0 0.5 0.1
v 0 0.6 0.4
v 0 0.6 0.1
v 0.1 0.1 -0.3
v 0.1 0.1 -0.4
v 0.1 0.6 -0.3
v 0.1 0.6 -0.4
v 0.2 0.3 0.3
v 0.2 0.3 0.1
v 0.2 0.4 0.3
v 0.2 0.4 0.1
v -0.1 0.3 0.4
v -0.1 0.3 0.2
v -0.1 0.4 0.4
v -0.1 0.4 0.3
v -0.1 0.4 0.2
v -0.1 0.5 0.4
v -0.1 0.5 0.3
v 0 0.1 0.5
v 0 0.1 0.2
v 0 0.3 0.5
v 0 0.3 0.2
v 0.1 0 0.2
v 0.1 0 0.1
v 0.1 0.4 0.2
v 0.1 0.4 0.1
v 0.2 0.7 0.1
v 0.2 0.7 -5.96046e-08
v 0.2 0.8 -5.96046e-08
v 0.2 0.8 -0.2
v 0.2 1.1 0.1
v 0.2 1.1 -0.2
v 0.3 0.3 0.3
v 0.3 0.3 0.1
v 0.3 0.4 0.3
v 0.3 0.4 0.1
v 0.3 0.6 -5.96046e-08
v 0.3 0.6 -0.3
v 0.3 0.8 -5.96046e-08
v 0.3 0.8 -0.3
v 0.4 0.1 0.1
v 0.4 0.1 -0.4
v 0.4 0.4 0.1
v 0.4 0.5 0.1
v 0.4 0.5 -5.96046e-08
v 0.4 0.6 -5.96046e-08
v 0.4 0.6 -0.4
v 0.5 0 0.1
v 0.5 0 -0.5
v 0.5 0.1 0.1
v 0.5 0.1 -0.5
v 0.5 0.4 0.4
v 0.5 0.4 0.1
v 0.5 0.5 0.4
v 0.5 0.5 0.1
v 0.5 0.6 0.4
v 0.5 0.6 0.1
v -0.3 0.1 0.5
v -0.3 0.3 0.5
v 0 0.1 0.5
v 0 0.3 0.5
v -0.2 0.3 0.4
v -0.2 0.4 0.4
v -0.2 0.5 0.4
v -0.1 0.3 0.4
v -0.1 0.4 0.4
v -0.1 0.5 0.4
v 0 0.4 0.4
v 0 0.5 0.4
v 0 0.6 0.4
v 0.2 0.5 0.4
v 0.2 0.6 0.4
v 0.3 0.5 0.4
v 0.3 0.6 0.4
v 0.5 0.4 0.4
v 0.5 0.5 0.4
v 0.5 0.6 0.4
v 0.2 0.3 0.3
v 0.2 0.4 0.3
v 0.3 0.3 0.3
v 0.3 0.4 0.3
v -0.4 0 0.2
v -0.4 0.1 0.2
v -0.3 0.1 0.2
v -0.3 0.3 0.2
v -0.3 0.5 0.2
v -0.2 0 0.2
v -0.2 0.1 0.2
v -0.2 0.3 0.2
v -0.2 0.4 0.2
v -0.1 0 0.2
v -0.1 0.1 0.2
v -0.1 0.3 0.2
v -0.1 0.4 0.2
v 0 0.1 0.2
v 0 0.3 0.2
v 0 0.4 0.2
v 0 0.5 0.2
v 0.1 0 0.2
v 0.1 0.4 0.2
v -0.1 0.7 0.1
v -0.1 1.1 0.1
v 0 0.8 0.1
v 0 1 0.1
v 0.1 0 0.1
v 0.1 0.4 0.1
v 0.1 0.8 0.1
v 0.1 1 0.1
v 0.2 0 0.1
v 0.2 0.3 0.1
v 0.2 0.4 0.1
v 0.2 0.7 0.1
v 0.2 1.1 0.1
v 0.3 0 0.1
v 0.3 0.3 0.1
v 0.3 0.4 0.1
v 0.4 0.1 0.1
v 0.4 0.4 0.1
v 0.5 0 0.1
v 0.5 0.1 0.1
v -0.2 0.5 -5.96046e-08
v -0.2 0.8 -5.96046e-08
v -0.1 0.7 -5.96046e-08
v -0.1 0.8 -5.96046e-08
v 0.2 0.7 -5.96046e-08
v 0.2 0.8 -5.96046e-08
v 0.3 0.6 -5.96046e-08
v 0.3 0.8 -5.96046e-08
v 0.4 0.5 -5.96046e-08
v 0.4 0.6 -5.96046e-08
v -0.2 0.4 0.3
v -0.2 0.5 0.3
v -0.1 0.4 0.3
v -0.1 0.5 0.3
v 0 0.5 0.1
v 0 0.6 0.1
v 0.2 0.5 0.1
v 0.2 0.6 0.1
v 0.3 0.5 0.1
v 0.3 0.6 0.1
v 0.4 0.4 0.1
v 0.4 0.5 0.1
v 0.5 0.4 0.1
v 0.5 0.5 0.1
v 0.5 0.6 0.1
v -0.1 0.8 -0.2
v -0.1 1.1 -0.2
v 0.2 0.8 -0.2
v 0.2 1.1 -0.2
v -0.3 0.1 -0.3
v -0.3 0.5 -0.3
v -0.2 0.5 -0.3
v -0.2 0.8 -0.3
v 0.1 0.1 -0.3
v 0.1 0.6 -0.3
v 0.3 0.6 -0.3
v 0.3 0.8 -0.3
v -0.4 0 -0.4
v -0.4 0.1 -0.4
v 0 0 -0.4
v 0 0.1 -0.4
v 0.1 0.1 -0.4
v 0.1 0.6 -0.4
v 0.4 0.1 -0.4
v 0.4 0.6 -0.4
v 0 0 -0.5
v 0 0.1 -0.5
v 0.5 0 -0.5
v 0.5 0.1 -0.5
v -0.4 0 0.2
v -0.2 0 0.2
v -0.1 0 0.2
v 0.1 0 0.2
v -0.3 0 0.1
v -0.2 0 0.1
v -0.1 0 0.1
v 0 0 0.1
v 0.1 0 0.1
v 0.2 0 0.1
v 0.3 0 0.1
v 0.5 0 0.1
v 0 0 -5.96046e-08
v 0.2 0 -5.96046e-08
v 0.3 0 -5.96046e-08
v 0.4 0 -5.96046e-08
v -0.3 0 -0.3
v 0.1 0 -0.3
v -0.4 0 -0.4
v 0 0 -0.4
v 0.1 0 -0.4
v 0.4 0 -0.4
v 0 0 -0.5
v 0.5 0 -0.5
v -0.3 0.1 0.5
v 0 0.1 0.5
v -0.3 0.1 0.2
v -0.2 0.1 0.2
v -0.1 0.1 0.2
v 0 0.1 0.2
v 0.2 0.3 0.3
v 0.3 0.3 0.3
v 0.2 0.3 0.1
v 0.3 0.3 0.1
v 0 0.4 0.4
v 0.5 0.4 0.4
v 0.2 0.4 0.3
v 0.3 0.4 0.3
v 0 0.4 0.2
v 0.1 0.4 0.2
v 0.1 0.4 0.1
v 0.2 0.4 0.1
v 0.3 0.4 0.1
v 0.4 0.4 0.1
v 0.5 0.4 0.1
v -0.1 0.7 0.1
v 0.2 0.7 0.1
v -0.1 0.7 -5.96046e-08
v 0.2 0.7 -5.96046e-08
v -0.4 0.1 0.2
v -0.3 0.1 0.2
v 0.4 0.1 0.1
v 0.5 0.1 0.1
v -0.3 0.1 -0.3
v 0.1 0.1 -0.3
v -0.4 0.1 -0.4
v 0 0.1 -0.4
v 0.1 0.1 -0.4
v 0.4 0.1 -0.4
v 0 0.1 -0.5
v 0.5 0.1 -0.5
v -0.3 0.3 0.5
v 0 0.3 0.5
v -0.2 0.3 0.4
v -0.1 0.3 0.4
v -0.3 0.3 0.2
v -0.2 0.3 0.2
v -0.1 0.3 0.2
v 0 0.3 0.2
v -0.2 0.4 0.3
v -0.1 0.4 0.3
v -0.2 0.4 0.2
v -0.1 0.4 0.2
v -0.2 0.5 0.4
v -0.1 0.5 0.4
v -0.2 0.5 0.3
v -0.1 0.5 0.3
v -0.3 0.5 0.2
v 0 0.5 0.2
v 0 0.5 0.1
v 0.2 0.5 0.1
v 0.3 0.5 0.1
v 0.4 0.5 0.1
v -0.2 0.5 -5.96046e-08
v 0.4 0.5 -5.96046e-08
v -0.3 0.5 -0.3
v -0.2 0.5 -0.3
v 0 0.6 0.4
v 0.2 0.6 0.4
v 0.3 0.6 0.4
v 0.5 0.6 0.4
v 0 0.6 0.1
v 0.2 0.6 0.1
v 0.3 0.6 0.1
v 0.5 0.6 0.1
v 0.3 0.6 -5.96046e-08
v 0.4 0.6 -5.96046e-08
v 0.1 0.6 -0.3
v 0.3 0.6 -0.3
v 0.1 0.6 -0.4
v 0.4 0.6 -0.4
v -0.2 0.8 -5.96046e-08
v -0.1 0.8 -5.96046e-08
v 0.2 0.8 -5.96046e-08
v 0.3 0.8 -5.96046e-08
v -0.1 0.8 -0.2
v 0.2 0.8 -0.2
v -0.2 0.8 -0.3
v 0.3 0.8 -0.3
v -0.1 1.1 0.1
v 0.2 1.1 0.1
v -0.1 1.1 -0.2
v 0.2 1.1 -0.2

# faces
f 3/2/1 2/2/1 1/2/1
f 4/2/1 2/2/1 3/2/1
f 8/3/1 6/3/1 5/3/1
f 9/2/1 7/2/1 6/2/1
f 9/3/1 6/3/1 8/3/1
f 10/2/1 7/2/1 9/2/1
f 11/2/1 7/2/1 10/2/1
f 14/1/1 13/1/1 12/1/1
f 15/1/1 13/1/1 14/1/1
f 16/1/1 13/1/1 15/1/1
f 17/4/1 15/4/1 14/4/1
f 18/4/1 15/4/1 17/4/1
f 21/2/1 20/2/1 19/2/1
f 22/2/1 20/2/1 21/2/1
f 25/2/1 24/2/1 23/2/1
f 27/2/1 25/2/1 23/2/1
f 27/2/1 26/2/1 25/2/1
f 28/2/1 26/2/1 27/2/1
f 31/2/1 30/2/1 29/2/1
f 32/2/1 30/2/1 31/2/1
f 35/3/1 34/3/1 33/3/1
f 36/3/1 34/3/1 35/3/1
f 38/6/1 36/6/1 35/6/1
f 38/6/1 37/6/1 36/6/1
f 39/6/1 37/6/1 38/6/1
f 42/2/1 41/2/1 40/2/1
f 43/2/1 41/2/1 42/2/1
f 46/1/1 45/1/1 44/1/1
f 47/1/1 45/1/1 46/1/1
f 48/1/2 49/1/2 50/1/2
f 50/1/2 49/1/2 51/1/2
f 51/1/2 49/1/2 52/1/2
f 50/4/2 51/4/2 53/4/2
f 53/4/2 51/4/2 54/4/2
f 55/3/2 56/3/2 57/3/2
f 57/3/2 56/3/2 58/3/2
f 59/2/2 60/2/2 61/2/2
f 61/2/2 60/2/2 62/2/2
f 63/2/2 64/2/2 65/2/2
f 63/2/2 65/2/2 67/2/2
f 65/2/2 66/2/2 67/2/2
f 67/2/2 66/2/2 68/2/2
f 69/1/2 70/1/2 71/1/2
f 71/1/2 70/1/2 72/1/2
f 73/2/2 74/2/2 75/2/2
f 75/2/2 74/2/2 76/2/2
f 77/2/2 78/2/2 79/2/2
f 79/2/2 78/2/2 80/2/2
f 80/2/2 78/2/2 81/2/2
f 81/2/2 78/2/2 82/2/2
f 82/2/2 78/2/2 83/2/2
f 84/2/2 85/2/2 86/2/2
f 86/2/2 85/2/2 87/2/2
f 88/3/2 89/3/2 90/3/2
f 90/3/2 89/3/2 91/3/2
f 90/6/2 91/6/2 92/6/2
f 92/6/2 91/6/2 93/6/2
f 96/3/3 95/3/3 94/3/3
f 97/3/3 95/3/3 96/3/3
f 101/1/3 99/1/3 98/1/3
f 102/4/3 100/4/3 99/4/3
f 102/1/3 99/1/3 101/1/3
f 103/4/3 100/4/3 102/4/3
f 107/3/3 105/3/3 104/3/3
f 107/6/3 106/6/3 105/6/3
f 108/6/3 106/6/3 107/6/3
f 109/3/3 107/3/3 104/3/3
f 109/5/3 108/5/3 107/5/3
f 110/5/3 108/5/3 109/5/3
f 111/3/3 109/3/3 104/3/3
f 112/6/3 110/6/3 109/6/3
f 112/3/3 109/3/3 111/3/3
f 113/6/3 110/6/3 112/6/3
f 116/1/3 115/1/3 114/1/3
f 117/1/3 115/1/3 116/1/3
f 120/2/3 119/2/3 118/2/3
f 123/2/3 120/2/3 118/2/3
f 124/2/3 120/2/3 123/2/3
f 125/2/3 122/2/3 121/2/3
f 126/2/3 122/2/3 125/2/3
f 127/7/3 124/7/3 123/7/3
f 128/7/3 124/7/3 127/7/3
f 130/2/3 122/2/3 126/2/3
f 131/2/3 128/2/3 127/2/3
f 132/2/3 130/2/3 129/2/3
f 133/2/3 122/2/3 130/2/3
f 133/2/3 130/2/3 132/2/3
f 134/2/3 122/2/3 133/2/3
f 135/2/3 131/2/3 127/2/3
f 135/2/3 132/2/3 131/2/3
f 135/2/3 133/2/3 132/2/3
f 136/2/3 133/2/3 135/2/3
f 139/2/3 138/2/3 137/2/3
f 140/2/3 138/2/3 139/2/3
f 143/2/3 139/2/3 137/2/3
f 143/7/3 140/7/3 139/7/3
f 144/2/3 138/2/3 140/2/3
f 144/7/3 140/7/3 143/7/3
f 145/2/3 142/2/3 141/2/3
f 146/2/3 142/2/3 145/2/3
f 147/2/3 142/2/3 146/2/3
f 148/2/3 143/2/3 137/2/3
f 148/2/3 144/2/3 143/2/3
f 149/2/3 138/2/3 144/2/3
f 149/2/3 144/2/3 148/2/3
f 150/7/3 146/7/3 145/7/3
f 151/7/3 146/7/3 150/7/3
f 153/2/3 151/2/3 150/2/3
f 153/2/3 152/2/3 151/2/3
f 154/2/3 152/2/3 153/2/3
f 155/2/3 153/2/3 150/2/3
f 156/2/3 153/2/3 155/2/3
f 159/2/3 158/2/3 157/2/3
f 160/2/3 158/2/3 159/2/3
f 161/2/3 159/2/3 157/2/3
f 163/2/3 161/2/3 157/2/3
f 163/2/3 162/2/3 161/2/3
f 164/2/3 162/2/3 163/2/3
f 165/2/3 163/2/3 157/2/3
f 166/2/3 163/2/3 165/2/3
f 167/4/4 168/4/4 169/4/4
f 169/4/4 168/4/4 170/4/4
f 171/6/4 172/6/4 173/6/4
f 173/6/4 172/6/4 174/6/4
f 173/5/4 174/5/4 175/5/4
f 175/5/4 174/5/4 176/5/4
f 175/6/4 176/6/4 178/6/4
f 177/3/4 178/3/4 179/3/4
f 178/6/4 176/6/4 180/6/4
f 179/3/4 178/3/4 180/3/4
f 180/6/4 176/6/4 181/6/4
f 182/2/4 183/2/4 184/2/4
f 184/2/4 183/2/4 185/2/4
f 186/2/4 187/2/4 188/2/4
f 186/2/4 188/2/4 190/2/4
f 188/2/4 189/2/4 190/2/4
f 190/2/4 189/2/4 191/2/4
f 191/2/4 189/2/4 192/2/4
f 192/2/4 189/2/4 193/2/4
f 194/2/4 195/2/4 196/2/4
f 196/2/4 195/2/4 197/2/4
f 198/2/4 199/2/4 200/2/4
f 200/2/4 199/2/4 201/2/4
f 202/2/4 203/2/4 204/2/4
f 204/2/4 203/2/4 205/2/4
f 210/2/5 207/2/5 206/2/5
f 211/7/5 208/7/5 207/7/5
f 211/2/5 207/2/5 210/2/5
f 212/2/5 209/2/5 208/2/5
f 212/7/5 208/7/5 211/7/5
f 213/2/5 209/2/5 212/2/5
f 214/2/5 209/2/5 213/2/5
f 218/7/5 211/7/5 210/7/5
f 218/7/5 212/7/5 211/7/5
f 218/7/5 213/7/5 212/7/5
f 218/2/5 215/2/5 214/2/5
f 218/2/5 214/2/5 213/2/5
f 219/7/5 216/7/5 215/7/5
f 219/2/5 215/2/5 218/2/5
f 220/2/5 217/2/5 216/2/5
f 220/7/5 216/7/5 219/7/5
f 221/2/5 217/2/5 220/2/5
f 222/7/5 219/7/5 218/7/5
f 222/2/5 210/2/5 206/2/5
f 222/7/5 221/7/5 220/7/5
f 222/7/5 220/7/5 219/7/5
f 222/7/5 218/7/5 210/7/5
f 223/7/5 221/7/5 222/7/5
f 224/2/5 222/2/5 206/2/5
f 224/2/5 223/2/5 222/2/5
f 225/2/5 223/2/5 224/2/5
f 226/7/5 221/7/5 223/7/5
f 226/2/5 223/2/5 225/2/5
f 227/2/5 217/2/5 221/2/5
f 227/7/5 221/7/5 226/7/5
f 228/2/5 226/2/5 225/2/5
f 228/2/5 227/2/5 226/2/5
f 229/2/5 217/2/5 227/2/5
f 229/2/5 227/2/5 228/2/5
f 232/3/5 231/3/5 230/3/5
f 233/3/5 231/3/5 232/3/5
f 234/3/5 231/3/5 233/3/5
f 235/3/5 231/3/5 234/3/5
f 238/1/5 237/1/5 236/1/5
f 239/1/5 237/1/5 238/1/5
f 242/3/5 241/3/5 240/3/5
f 243/3/5 241/3/5 242/3/5
f 244/3/5 242/3/5 240/3/5
f 245/3/5 242/3/5 244/3/5
f 246/3/5 242/3/5 245/3/5
f 247/3/5 242/3/5 246/3/5
f 248/3/5 241/3/5 243/3/5
f 249/3/5 241/3/5 248/3/5
f 250/3/5 241/3/5 249/3/5
f 253/2/5 252/2/5 251/2/5
f 254/2/5 252/2/5 253/2/5
f 255/2/6 256/2/6 259/2/6
f 255/2/6 259/2/6 261/2/6
f 259/2/6 260/2/6 261/2/6
f 261/2/6 260/2/6 262/2/6
f 262/2/6 260/2/6 263/2/6
f 257/2/6 258/2/6 264/2/6
f 262/2/6 263/2/6 265/2/6
f 263/2/6 264/2/6 265/2/6
f 264/2/6 258/2/6 266/2/6
f 265/2/6 264/2/6 266/2/6
f 267/3/6 268/3/6 269/3/6
f 269/3/6 268/3/6 270/3/6
f 267/3/6 269/3/6 271/3/6
f 271/3/6 269/3/6 272/3/6
f 270/3/6 268/3/6 273/3/6
f 273/3/6 268/3/6 274/3/6
f 275/1/6 276/1/6 277/1/6
f 277/1/6 276/1/6 278/1/6
f 279/4/6 280/4/6 281/4/6
f 281/4/6 280/4/6 282/4/6
f 283/2/6 284/2/6 285/2/6
f 283/2/6 285/2/6 289/2/6
f 287/2/6 288/2/6 289/2/6
f 286/2/6 287/2/6 289/2/6
f 285/2/6 286/2/6 289/2/6
f 289/2/6 288/2/6 290/2/6
f 283/2/6 289/2/6 291/2/6
f 291/2/6 289/2/6 292/2/6
f 293/6/6 294/6/6 297/6/6
f 294/5/6 295/5/6 298/5/6
f 297/6/6 294/6/6 298/6/6
f 295/6/6 296/6/6 299/6/6
f 298/5/6 295/5/6 299/5/6
f 299/6/6 296/6/6 300/6/6
f 301/2/6 302/2/6 304/2/6
f 303/2/6 304/2/6 305/2/6
f 304/2/6 302/2/6 306/2/6
f 305/2/6 304/2/6 306/2/6
f 307/2/6 308/2/6 311/2/6
f 309/2/6 310/2/6 312/2/6
f 307/2/6 311/2/6 313/2/6
f 311/2/6 312/2/6 313/2/6
f 312/2/6 310/2/6 314/2/6
f 313/2/6 312/2/6 314/2/6
f 315/2/6 316/2/6 317/2/6
f 317/2/6 316/2/6 318/2/6
