# MagicaVoxel @ Ephtracy

# group
o 

# material
mtllib alchemist_walk_1.mtl
usemtl palette

# normals
vn -1 0 0
vn 1 0 0
vn 0 0 1
vn 0 0 -1
vn 0 -1 0
vn 0 1 0

# texcoords
vt 0.732422 0.5
vt 0.783203 0.5
vt 0.826172 0.5
vt 0.943359 0.5
vt 0.947266 0.5
vt 0.951172 0.5
vt 0.970703 0.5

# verts
v -0.4 0 0.2
v -0.4 0 -0.5
v -0.4 0.1 0.2
v -0.4 0.1 -0.5
v -0.3 0.1 0.2
v -0.3 0.1 -0.4
v -0.3 0.2 0.5
v -0.3 0.2 0.2
v -0.3 0.4 0.5
v -0.3 0.4 0.2
v -0.3 0.6 0.2
v -0.3 0.6 -0.4
v -0.2 0.4 0.4
v -0.2 0.4 0.2
v -0.2 0.5 0.4
v -0.2 0.5 0.3
v -0.2 0.5 0.2
v -0.2 0.6 0.4
v -0.2 0.6 0.3
v -0.2 0.6 -5.96046e-08
v -0.2 0.6 -0.3
v -0.2 0.7 -5.96046e-08
v -0.2 0.7 -0.3
v -0.1 0.6 0.1
v -0.1 0.6 -5.96046e-08
v -0.1 0.7 -5.96046e-08
v -0.1 0.7 -0.2
v -0.1 1 0.1
v -0.1 1 -0.2
v 0 0.4 0.4
v 0 0.4 0.2
v 0 0.5 0.4
v 0 0.5 0.2
v 0.1 0.3 0.1
v 0.1 0.3 -5.96046e-08
v 0.1 0.4 0.1
v 0.1 0.5 0.1
v 0.1 0.5 -5.96046e-08
v 0.2 0.2 0.3
v 0.2 0.2 0.1
v 0.2 0.3 0.3
v 0.2 0.3 0.1
v -0.1 0.4 0.4
v -0.1 0.4 0.2
v -0.1 0.5 0.4
v -0.1 0.5 0.3
v -0.1 0.5 0.2
v -0.1 0.6 0.4
v -0.1 0.6 0.3
v 0 0 0.2
v 0 0 0.1
v 0 0.2 0.5
v 0 0.2 0.2
v 0 0.3 0.4
v 0 0.3 0.2
v 0 0.3 0.1
v 0 0.3 -5.96046e-08
v 0 0.4 0.5
v 0 0.4 0.4
v 0 0.4 0.1
v 0 0.5 0.2
v 0 0.5 0.1
v 0 0.5 -0.3
v 0 0.5 -0.4
v 0 0.6 0.2
v 0 0.6 0.1
v 0 0.6 -5.96046e-08
v 0 0.6 -0.3
v 0 0.6 -0.4
v 0.2 0.6 0.1
v 0.2 0.6 -5.96046e-08
v 0.2 0.7 -5.96046e-08
v 0.2 0.7 -0.2
v 0.2 1 0.1
v 0.2 1 -0.2
v 0.3 0.2 0.3
v 0.3 0.2 0.1
v 0.3 0.3 0.3
v 0.3 0.3 0.1
v 0.3 0.5 -5.96046e-08
v 0.3 0.5 -0.3
v 0.3 0.7 -5.96046e-08
v 0.3 0.7 -0.3
v 0.4 0.1 0.1
v 0.4 0.1 -0.4
v 0.4 0.3 0.1
v 0.4 0.4 0.1
v 0.4 0.5 0.1
v 0.4 0.5 -0.4
v 0.5 0 0.1
v 0.5 0 -0.5
v 0.5 0.1 0.1
v 0.5 0.1 -0.5
v 0.5 0.3 0.4
v 0.5 0.3 0.1
v 0.5 0.4 0.4
v 0.5 0.4 0.1
v 0.5 0.5 0.4
v 0.5 0.5 0.1
v -0.3 0.2 0.5
v -0.3 0.4 0.5
v 0 0.2 0.5
v 0 0.4 0.5
v -0.2 0.4 0.4
v -0.2 0.5 0.4
v -0.2 0.6 0.4
v -0.1 0.4 0.4
v -0.1 0.5 0.4
v -0.1 0.6 0.4
v 0 0.3 0.4
v 0 0.4 0.4
v 0 0.5 0.4
v 0.2 0.4 0.4
v 0.2 0.5 0.4
v 0.3 0.4 0.4
v 0.3 0.5 0.4
v 0.5 0.3 0.4
v 0.5 0.4 0.4
v 0.5 0.5 0.4
v 0.2 0.2 0.3
v 0.2 0.3 0.3
v 0.3 0.2 0.3
v 0.3 0.3 0.3
v -0.4 0 0.2
v -0.4 0.1 0.2
v -0.3 0.1 0.2
v -0.3 0.2 0.2
v -0.3 0.4 0.2
v -0.3 0.6 0.2
v -0.2 0 0.2
v -0.2 0.2 0.2
v -0.2 0.4 0.2
v -0.2 0.5 0.2
v -0.1 0 0.2
v -0.1 0.2 0.2
v -0.1 0.4 0.2
v -0.1 0.5 0.2
v 0 0 0.2
v 0 0.2 0.2
v 0 0.4 0.2
v 0 0.5 0.2
v 0 0.6 0.2
v -0.1 0.6 0.1
v -0.1 1 0.1
v 0 0 0.1
v 0 0.3 0.1
v 0 0.6 0.1
v 0 0.7 0.1
v 0 0.9 0.1
v 0.1 0.7 0.1
v 0.1 0.9 0.1
v 0.2 0 0.1
v 0.2 0.2 0.1
v 0.2 0.3 0.1
v 0.2 0.6 0.1
v 0.2 1 0.1
v 0.3 0 0.1
v 0.3 0.2 0.1
v 0.3 0.3 0.1
v 0.4 0.1 0.1
v 0.4 0.3 0.1
v 0.5 0 0.1
v 0.5 0.1 0.1
v -0.2 0.6 -5.96046e-08
v -0.2 0.7 -5.96046e-08
v -0.1 0.6 -5.96046e-08
v -0.1 0.7 -5.96046e-08
v 0 0.3 -5.96046e-08
v 0 0.6 -5.96046e-08
v 0.1 0.3 -5.96046e-08
v 0.1 0.5 -5.96046e-08
v 0.2 0.6 -5.96046e-08
v 0.2 0.7 -5.96046e-08
v 0.3 0.5 -5.96046e-08
v 0.3 0.7 -5.96046e-08
v -0.2 0.5 0.3
v -0.2 0.6 0.3
v -0.1 0.5 0.3
v -0.1 0.6 0.3
v 0 0.3 0.1
v 0 0.4 0.1
v 0 0.5 0.1
v 0.1 0.3 0.1
v 0.1 0.4 0.1
v 0.1 0.5 0.1
v 0.4 0.3 0.1
v 0.4 0.4 0.1
v 0.4 0.5 0.1
v 0.5 0.3 0.1
v 0.5 0.4 0.1
v 0.5 0.5 0.1
v -0.1 0.7 -0.2
v -0.1 1 -0.2
v 0.2 0.7 -0.2
v 0.2 1 -0.2
v -0.2 0.6 -0.3
v -0.2 0.7 -0.3
v 0 0.5 -0.3
v 0 0.6 -0.3
v 0.3 0.5 -0.3
v 0.3 0.7 -0.3
v -0.3 0.1 -0.4
v -0.3 0.6 -0.4
v 0 0.5 -0.4
v 0 0.6 -0.4
v 0.4 0.1 -0.4
v 0.4 0.5 -0.4
v -0.4 0 -0.5
v -0.4 0.1 -0.5
v 0.5 0 -0.5
v 0.5 0.1 -0.5
v -0.4 0 0.2
v -0.2 0 0.2
v -0.1 0 0.2
v 0 0 0.2
v -0.3 0 0.1
v -0.2 0 0.1
v 0 0 0.1
v 0.2 0 0.1
v 0.3 0 0.1
v 0.5 0 0.1
v -0.1 0 -5.96046e-08
v 0.2 0 -5.96046e-08
v 0.3 0 -5.96046e-08
v 0.4 0 -5.96046e-08
v -0.3 0 -0.4
v 0.4 0 -0.4
v -0.4 0 -0.5
v 0.5 0 -0.5
v -0.3 0.2 0.5
v 0 0.2 0.5
v 0.2 0.2 0.3
v 0.3 0.2 0.3
v -0.3 0.2 0.2
v -0.2 0.2 0.2
v -0.1 0.2 0.2
v 0 0.2 0.2
v 0.2 0.2 0.1
v 0.3 0.2 0.1
v 0 0.3 0.4
v 0.5 0.3 0.4
v 0.2 0.3 0.3
v 0.3 0.3 0.3
v 0 0.3 0.2
v 0 0.3 0.1
v 0.2 0.3 0.1
v 0.3 0.3 0.1
v 0.4 0.3 0.1
v 0.5 0.3 0.1
v 0 0.6 0.1
v 0.2 0.6 0.1
v 0 0.6 -5.96046e-08
v 0.2 0.6 -5.96046e-08
v -0.4 0.1 0.2
v -0.3 0.1 0.2
v 0.4 0.1 0.1
v 0.5 0.1 0.1
v -0.3 0.1 -0.4
v 0.4 0.1 -0.4
v -0.4 0.1 -0.5
v 0.5 0.1 -0.5
v 0 0.3 0.1
v 0.1 0.3 0.1
v 0 0.3 -5.96046e-08
v 0.1 0.3 -5.96046e-08
v -0.3 0.4 0.5
v 0 0.4 0.5
v -0.2 0.4 0.4
v -0.1 0.4 0.4
v 0 0.4 0.4
v -0.3 0.4 0.2
v -0.2 0.4 0.2
v -0.1 0.4 0.2
v 0 0.4 0.2
v 0 0.5 0.4
v 0.2 0.5 0.4
v 0.3 0.5 0.4
v 0.5 0.5 0.4
v -0.2 0.5 0.3
v -0.1 0.5 0.3
v -0.2 0.5 0.2
v -0.1 0.5 0.2
v 0 0.5 0.2
v 0 0.5 0.1
v 0.1 0.5 0.1
v 0.2 0.5 0.1
v 0.3 0.5 0.1
v 0.4 0.5 0.1
v 0.5 0.5 0.1
v 0.1 0.5 -5.96046e-08
v 0.3 0.5 -5.96046e-08
v 0 0.5 -0.3
v 0.3 0.5 -0.3
v 0 0.5 -0.4
v 0.4 0.5 -0.4
v -0.2 0.6 0.4
v -0.1 0.6 0.4
v -0.2 0.6 0.3
v -0.1 0.6 0.3
v -0.3 0.6 0.2
v 0 0.6 0.2
v -0.1 0.6 0.1
v 0 0.6 0.1
v -0.2 0.6 -5.96046e-08
v -0.1 0.6 -5.96046e-08
v -0.2 0.6 -0.3
v 0 0.6 -0.3
v -0.3 0.6 -0.4
v 0 0.6 -0.4
v -0.2 0.7 -5.96046e-08
v -0.1 0.7 -5.96046e-08
v 0.2 0.7 -5.96046e-08
v 0.3 0.7 -5.96046e-08
v -0.1 0.7 -0.2
v 0.2 0.7 -0.2
v -0.2 0.7 -0.3
v 0.3 0.7 -0.3
v -0.1 1 0.1
v 0.2 1 0.1
v -0.1 1 -0.2
v 0.2 1 -0.2

# faces
f 3/2/1 2/2/1 1/2/1
f 4/2/1 2/2/1 3/2/1
f 8/2/1 6/2/1 5/2/1
f 9/3/1 8/3/1 7/3/1
f 10/2/1 6/2/1 8/2/1
f 10/3/1 8/3/1 9/3/1
f 11/2/1 6/2/1 10/2/1
f 12/2/1 6/2/1 11/2/1
f 15/1/1 14/1/1 13/1/1
f 16/1/1 14/1/1 15/1/1
f 17/1/1 14/1/1 16/1/1
f 18/4/1 16/4/1 15/4/1
f 19/4/1 16/4/1 18/4/1
f 22/2/1 21/2/1 20/2/1
f 23/2/1 21/2/1 22/2/1
f 26/2/1 25/2/1 24/2/1
f 28/2/1 26/2/1 24/2/1
f 28/2/1 27/2/1 26/2/1
f 29/2/1 27/2/1 28/2/1
f 32/6/1 31/6/1 30/6/1
f 33/6/1 31/6/1 32/6/1
f 36/2/1 35/2/1 34/2/1
f 37/2/1 35/2/1 36/2/1
f 38/2/1 35/2/1 37/2/1
f 41/1/1 40/1/1 39/1/1
f 42/1/1 40/1/1 41/1/1
f 43/1/2 44/1/2 45/1/2
f 45/1/2 44/1/2 46/1/2
f 46/1/2 44/1/2 47/1/2
f 45/4/2 46/4/2 48/4/2
f 48/4/2 46/4/2 49/4/2
f 50/2/2 51/2/2 53/2/2
f 52/3/2 53/3/2 54/3/2
f 53/2/2 51/2/2 55/2/2
f 54/3/2 53/3/2 55/3/2
f 55/2/2 51/2/2 56/2/2
f 52/3/2 54/3/2 58/3/2
f 58/3/2 54/3/2 59/3/2
f 56/2/2 57/2/2 60/2/2
f 60/2/2 57/2/2 62/2/2
f 61/2/2 62/2/2 65/2/2
f 62/2/2 57/2/2 66/2/2
f 65/2/2 62/2/2 66/2/2
f 66/2/2 57/2/2 67/2/2
f 63/2/2 64/2/2 68/2/2
f 68/2/2 64/2/2 69/2/2
f 70/2/2 71/2/2 72/2/2
f 70/2/2 72/2/2 74/2/2
f 72/2/2 73/2/2 74/2/2
f 74/2/2 73/2/2 75/2/2
f 76/1/2 77/1/2 78/1/2
f 78/1/2 77/1/2 79/1/2
f 80/2/2 81/2/2 82/2/2
f 82/2/2 81/2/2 83/2/2
f 84/2/2 85/2/2 86/2/2
f 86/2/2 85/2/2 87/2/2
f 87/2/2 85/2/2 88/2/2
f 88/2/2 85/2/2 89/2/2
f 90/2/2 91/2/2 92/2/2
f 92/2/2 91/2/2 93/2/2
f 94/3/2 95/3/2 96/3/2
f 96/3/2 95/3/2 97/3/2
f 96/6/2 97/6/2 98/6/2
f 98/6/2 97/6/2 99/6/2
f 102/3/3 101/3/3 100/3/3
f 103/3/3 101/3/3 102/3/3
f 107/1/3 105/1/3 104/1/3
f 108/4/3 106/4/3 105/4/3
f 108/1/3 105/1/3 107/1/3
f 109/4/3 106/4/3 108/4/3
f 113/3/3 111/3/3 110/3/3
f 113/6/3 112/6/3 111/6/3
f 114/6/3 112/6/3 113/6/3
f 115/3/3 113/3/3 110/3/3
f 115/5/3 114/5/3 113/5/3
f 116/5/3 114/5/3 115/5/3
f 117/3/3 115/3/3 110/3/3
f 118/6/3 116/6/3 115/6/3
f 118/3/3 115/3/3 117/3/3
f 119/6/3 116/6/3 118/6/3
f 122/1/3 121/1/3 120/1/3
f 123/1/3 121/1/3 122/1/3
f 126/2/3 125/2/3 124/2/3
f 130/2/3 126/2/3 124/2/3
f 130/2/3 127/2/3 126/2/3
f 131/2/3 127/2/3 130/2/3
f 132/2/3 129/2/3 128/2/3
f 133/2/3 129/2/3 132/2/3
f 134/7/3 131/7/3 130/7/3
f 135/7/3 131/7/3 134/7/3
f 137/2/3 129/2/3 133/2/3
f 138/2/3 135/2/3 134/2/3
f 139/2/3 135/2/3 138/2/3
f 140/2/3 137/2/3 136/2/3
f 141/2/3 129/2/3 137/2/3
f 141/2/3 137/2/3 140/2/3
f 142/2/3 129/2/3 141/2/3
f 147/2/3 144/2/3 143/2/3
f 148/2/3 144/2/3 147/2/3
f 149/2/3 144/2/3 148/2/3
f 150/2/3 148/2/3 147/2/3
f 150/7/3 149/7/3 148/7/3
f 151/2/3 144/2/3 149/2/3
f 151/7/3 149/7/3 150/7/3
f 152/2/3 146/2/3 145/2/3
f 153/2/3 146/2/3 152/2/3
f 154/2/3 146/2/3 153/2/3
f 155/2/3 150/2/3 147/2/3
f 155/2/3 151/2/3 150/2/3
f 156/2/3 144/2/3 151/2/3
f 156/2/3 151/2/3 155/2/3
f 157/7/3 153/7/3 152/7/3
f 158/7/3 153/7/3 157/7/3
f 160/2/3 158/2/3 157/2/3
f 160/2/3 159/2/3 158/2/3
f 161/2/3 159/2/3 160/2/3
f 162/2/3 160/2/3 157/2/3
f 163/2/3 160/2/3 162/2/3
f 166/2/3 165/2/3 164/2/3
f 167/2/3 165/2/3 166/2/3
f 170/2/3 169/2/3 168/2/3
f 171/2/3 169/2/3 170/2/3
f 172/2/3 169/2/3 171/2/3
f 174/2/3 172/2/3 171/2/3
f 174/2/3 173/2/3 172/2/3
f 175/2/3 173/2/3 174/2/3
f 176/4/4 177/4/4 178/4/4
f 178/4/4 177/4/4 179/4/4
f 180/3/4 181/3/4 183/3/4
f 181/6/4 182/6/4 184/6/4
f 183/3/4 181/3/4 184/3/4
f 184/6/4 182/6/4 185/6/4
f 186/3/4 187/3/4 189/3/4
f 187/6/4 188/6/4 190/6/4
f 189/3/4 187/3/4 190/3/4
f 190/6/4 188/6/4 191/6/4
f 192/2/4 193/2/4 194/2/4
f 194/2/4 193/2/4 195/2/4
f 196/2/4 197/2/4 199/2/4
f 198/2/4 199/2/4 200/2/4
f 199/2/4 197/2/4 201/2/4
f 200/2/4 199/2/4 201/2/4
f 202/2/4 203/2/4 204/2/4
f 204/2/4 203/2/4 205/2/4
f 202/2/4 204/2/4 206/2/4
f 206/2/4 204/2/4 207/2/4
f 208/2/4 209/2/4 210/2/4
f 210/2/4 209/2/4 211/2/4
f 216/2/5 213/2/5 212/2/5
f 217/7/5 214/7/5 213/7/5
f 217/2/5 213/2/5 216/2/5
f 218/2/5 215/2/5 214/2/5
f 222/7/5 214/7/5 217/7/5
f 222/7/5 217/7/5 216/7/5
f 222/2/5 218/2/5 214/2/5
f 222/2/5 219/2/5 218/2/5
f 223/7/5 220/7/5 219/7/5
f 223/2/5 219/2/5 222/2/5
f 224/2/5 221/2/5 220/2/5
f 224/7/5 220/7/5 223/7/5
f 225/2/5 221/2/5 224/2/5
f 226/7/5 223/7/5 222/7/5
f 226/2/5 216/2/5 212/2/5
f 226/7/5 225/7/5 224/7/5
f 226/7/5 224/7/5 223/7/5
f 226/7/5 222/7/5 216/7/5
f 227/2/5 221/2/5 225/2/5
f 227/7/5 225/7/5 226/7/5
f 228/2/5 226/2/5 212/2/5
f 228/2/5 227/2/5 226/2/5
f 229/2/5 221/2/5 227/2/5
f 229/2/5 227/2/5 228/2/5
f 234/3/5 231/3/5 230/3/5
f 235/3/5 231/3/5 234/3/5
f 236/3/5 231/3/5 235/3/5
f 237/3/5 231/3/5 236/3/5
f 238/1/5 233/1/5 232/1/5
f 239/1/5 233/1/5 238/1/5
f 242/3/5 241/3/5 240/3/5
f 243/3/5 241/3/5 242/3/5
f 244/3/5 242/3/5 240/3/5
f 245/3/5 242/3/5 244/3/5
f 246/3/5 242/3/5 245/3/5
f 247/3/5 241/3/5 243/3/5
f 248/3/5 241/3/5 247/3/5
f 249/3/5 241/3/5 248/3/5
f 252/2/5 251/2/5 250/2/5
f 253/2/5 251/2/5 252/2/5
f 254/2/6 255/2/6 258/2/6
f 256/2/6 257/2/6 259/2/6
f 254/2/6 258/2/6 260/2/6
f 258/2/6 259/2/6 260/2/6
f 259/2/6 257/2/6 261/2/6
f 260/2/6 259/2/6 261/2/6
f 262/2/6 263/2/6 264/2/6
f 264/2/6 263/2/6 265/2/6
f 266/3/6 267/3/6 268/3/6
f 268/3/6 267/3/6 269/3/6
f 269/3/6 267/3/6 270/3/6
f 266/3/6 268/3/6 271/3/6
f 271/3/6 268/3/6 272/3/6
f 269/3/6 270/3/6 273/3/6
f 273/3/6 270/3/6 274/3/6
f 279/1/6 280/1/6 281/1/6
f 281/1/6 280/1/6 282/1/6
f 275/6/6 276/6/6 283/6/6
f 283/6/6 276/6/6 284/6/6
f 284/6/6 276/6/6 285/6/6
f 276/5/6 277/5/6 286/5/6
f 285/6/6 276/6/6 286/6/6
f 277/6/6 278/6/6 287/6/6
f 286/5/6 277/5/6 287/5/6
f 287/6/6 278/6/6 288/6/6
f 288/6/6 278/6/6 289/6/6
f 285/2/6 286/2/6 290/2/6
f 287/2/6 288/2/6 290/2/6
f 286/2/6 287/2/6 290/2/6
f 290/2/6 288/2/6 291/2/6
f 291/2/6 288/2/6 293/2/6
f 292/2/6 293/2/6 294/2/6
f 293/2/6 288/2/6 295/2/6
f 294/2/6 293/2/6 295/2/6
f 296/4/6 297/4/6 298/4/6
f 298/4/6 297/4/6 299/4/6
f 300/2/6 301/2/6 302/2/6
f 302/2/6 301/2/6 303/2/6
f 300/2/6 302/2/6 304/2/6
f 304/2/6 302/2/6 305/2/6
f 300/2/6 304/2/6 306/2/6
f 300/2/6 306/2/6 308/2/6
f 306/2/6 307/2/6 308/2/6
f 308/2/6 307/2/6 309/2/6
f 310/2/6 311/2/6 314/2/6
f 312/2/6 313/2/6 315/2/6
f 310/2/6 314/2/6 316/2/6
f 314/2/6 315/2/6 316/2/6
f 315/2/6 313/2/6 317/2/6
f 316/2/6 315/2/6 317/2/6
f 318/2/6 319/2/6 320/2/6
f 320/2/6 319/2/6 321/2/6
