# MagicaVoxel @ Ephtracy

# group
o 

# material
mtllib alchemist_idle_1.mtl
usemtl palette

# normals
vn -1 0 0
vn 1 0 0
vn 0 0 1
vn 0 0 -1
vn 0 -1 0
vn 0 1 0

# texcoords
vt 0.732422 0.5
vt 0.783203 0.5
vt 0.826172 0.5
vt 0.943359 0.5
vt 0.947266 0.5
vt 0.951172 0.5
vt 0.970703 0.5

# verts
v -0.4 0 0.2
v -0.4 0 -0.5
v -0.4 0.1 0.2
v -0.4 0.1 -0.5
v -0.3 0 0.5
v -0.3 0 0.2
v -0.3 0.1 0.2
v -0.3 0.1 -0.4
v -0.3 0.2 0.5
v -0.3 0.2 0.2
v -0.3 0.4 0.2
v -0.3 0.4 -5.96046e-08
v -0.3 0.5 -5.96046e-08
v -0.3 0.5 -0.4
v -0.2 0.2 0.4
v -0.2 0.2 0.2
v -0.2 0.3 0.4
v -0.2 0.3 0.3
v -0.2 0.3 0.2
v -0.2 0.4 0.4
v -0.2 0.4 0.3
v -0.2 0.5 -5.96046e-08
v -0.2 0.5 -0.3
v -0.2 0.7 -5.96046e-08
v -0.2 0.7 -0.3
v -0.1 0.6 0.1
v -0.1 0.6 -5.96046e-08
v -0.1 0.7 -5.96046e-08
v -0.1 0.7 -0.2
v -0.1 1 0.1
v -0.1 1 -0.2
v 0 0.3 0.4
v 0 0.3 0.2
v 0 0.4 0.4
v 0 0.4 0.2
v 0 0.4 0.1
v 0 0.5 0.4
v 0 0.5 0.1
v 0.1 0.3 0.1
v 0.1 0.3 -5.96046e-08
v 0.1 0.4 0.1
v 0.1 0.4 -0.3
v 0.1 0.4 -0.4
v 0.1 0.5 0.1
v 0.1 0.5 -5.96046e-08
v 0.1 0.5 -0.3
v 0.1 0.5 -0.4
v 0.2 0.2 0.3
v 0.2 0.2 0.1
v 0.2 0.3 0.3
v 0.2 0.3 0.1
v -0.1 0.2 0.4
v -0.1 0.2 0.2
v -0.1 0.3 0.4
v -0.1 0.3 0.3
v -0.1 0.3 0.2
v -0.1 0.4 0.4
v -0.1 0.4 0.3
v 0 0 0.5
v 0 0 0.2
v 0 0 0.1
v 0 0.2 0.5
v 0 0.2 0.2
v 0 0.3 0.2
v 0 0.3 0.1
v 0 0.3 -5.96046e-08
v 0 0.4 0.1
v 0 0.4 -5.96046e-08
v 0 0.4 -0.3
v 0 0.4 -0.4
v 0 0.5 -0.3
v 0 0.5 -0.4
v 0.2 0.6 0.1
v 0.2 0.6 -5.96046e-08
v 0.2 0.7 -5.96046e-08
v 0.2 0.7 -0.2
v 0.2 1 0.1
v 0.2 1 -0.2
v 0.3 0.2 0.3
v 0.3 0.2 0.1
v 0.3 0.3 0.3
v 0.3 0.3 0.1
v 0.3 0.5 -5.96046e-08
v 0.3 0.5 -0.3
v 0.3 0.7 -5.96046e-08
v 0.3 0.7 -0.3
v 0.4 0.1 0.1
v 0.4 0.1 -0.4
v 0.4 0.3 0.1
v 0.4 0.4 0.1
v 0.4 0.5 0.1
v 0.4 0.5 -0.4
v 0.5 0 0.1
v 0.5 0 -0.5
v 0.5 0.1 0.1
v 0.5 0.1 -0.5
v 0.5 0.3 0.4
v 0.5 0.3 0.1
v 0.5 0.4 0.4
v 0.5 0.4 0.1
v 0.5 0.5 0.4
v 0.5 0.5 0.1
v -0.3 0 0.5
v -0.3 0.2 0.5
v 0 0 0.5
v 0 0.2 0.5
v -0.2 0.2 0.4
v -0.2 0.3 0.4
v -0.2 0.4 0.4
v -0.1 0.2 0.4
v -0.1 0.3 0.4
v -0.1 0.4 0.4
v 0 0.3 0.4
v 0 0.4 0.4
v 0 0.5 0.4
v 0.2 0.4 0.4
v 0.2 0.5 0.4
v 0.3 0.4 0.4
v 0.3 0.5 0.4
v 0.5 0.3 0.4
v 0.5 0.4 0.4
v 0.5 0.5 0.4
v 0.2 0.2 0.3
v 0.2 0.3 0.3
v 0.3 0.2 0.3
v 0.3 0.3 0.3
v -0.4 0 0.2
v -0.4 0.1 0.2
v -0.3 0 0.2
v -0.3 0.1 0.2
v -0.3 0.2 0.2
v -0.3 0.4 0.2
v -0.2 0.2 0.2
v -0.2 0.3 0.2
v -0.1 0.2 0.2
v -0.1 0.3 0.2
v 0 0.2 0.2
v 0 0.3 0.2
v 0 0.4 0.2
v -0.1 0.6 0.1
v -0.1 1 0.1
v 0 0 0.1
v 0 0.3 0.1
v 0 0.7 0.1
v 0 0.9 0.1
v 0.1 0.7 0.1
v 0.1 0.9 0.1
v 0.2 0 0.1
v 0.2 0.2 0.1
v 0.2 0.3 0.1
v 0.2 0.6 0.1
v 0.2 1 0.1
v 0.3 0 0.1
v 0.3 0.2 0.1
v 0.3 0.3 0.1
v 0.4 0.1 0.1
v 0.4 0.3 0.1
v 0.5 0 0.1
v 0.5 0.1 0.1
v -0.3 0.4 -5.96046e-08
v -0.3 0.5 -5.96046e-08
v -0.2 0.5 -5.96046e-08
v -0.2 0.7 -5.96046e-08
v -0.1 0.6 -5.96046e-08
v -0.1 0.7 -5.96046e-08
v 0 0.3 -5.96046e-08
v 0 0.4 -5.96046e-08
v 0.1 0.3 -5.96046e-08
v 0.1 0.5 -5.96046e-08
v 0.2 0.6 -5.96046e-08
v 0.2 0.7 -5.96046e-08
v 0.3 0.5 -5.96046e-08
v 0.3 0.7 -5.96046e-08
v -0.2 0.3 0.3
v -0.2 0.4 0.3
v -0.1 0.3 0.3
v -0.1 0.4 0.3
v 0 0.3 0.1
v 0 0.4 0.1
v 0 0.5 0.1
v 0.1 0.3 0.1
v 0.1 0.4 0.1
v 0.1 0.5 0.1
v 0.4 0.3 0.1
v 0.4 0.4 0.1
v 0.4 0.5 0.1
v 0.5 0.3 0.1
v 0.5 0.4 0.1
v 0.5 0.5 0.1
v -0.1 0.7 -0.2
v -0.1 1 -0.2
v 0.2 0.7 -0.2
v 0.2 1 -0.2
v -0.2 0.5 -0.3
v -0.2 0.7 -0.3
v 0 0.4 -0.3
v 0 0.5 -0.3
v 0.1 0.4 -0.3
v 0.1 0.5 -0.3
v 0.3 0.5 -0.3
v 0.3 0.7 -0.3
v -0.3 0.1 -0.4
v -0.3 0.5 -0.4
v 0 0.4 -0.4
v 0 0.5 -0.4
v 0.1 0.4 -0.4
v 0.1 0.5 -0.4
v 0.4 0.1 -0.4
v 0.4 0.5 -0.4
v -0.4 0 -0.5
v -0.4 0.1 -0.5
v 0.5 0 -0.5
v 0.5 0.1 -0.5
v -0.3 0 0.5
v 0 0 0.5
v -0.4 0 0.2
v -0.3 0 0.2
v -0.2 0 0.2
v -0.1 0 0.2
v 0 0 0.2
v -0.3 0 0.1
v -0.2 0 0.1
v 0 0 0.1
v 0.2 0 0.1
v 0.3 0 0.1
v 0.5 0 0.1
v -0.1 0 -5.96046e-08
v 0.2 0 -5.96046e-08
v 0.3 0 -5.96046e-08
v 0.4 0 -5.96046e-08
v -0.3 0 -0.4
v 0.4 0 -0.4
v -0.4 0 -0.5
v 0.5 0 -0.5
v 0.2 0.2 0.3
v 0.3 0.2 0.3
v 0.2 0.2 0.1
v 0.3 0.2 0.1
v 0 0.3 0.4
v 0.5 0.3 0.4
v 0.2 0.3 0.3
v 0.3 0.3 0.3
v 0 0.3 0.2
v 0 0.3 0.1
v 0.2 0.3 0.1
v 0.3 0.3 0.1
v 0.4 0.3 0.1
v 0.5 0.3 0.1
v -0.1 0.6 0.1
v 0.2 0.6 0.1
v -0.1 0.6 -5.96046e-08
v 0.2 0.6 -5.96046e-08
v -0.4 0.1 0.2
v -0.3 0.1 0.2
v 0.4 0.1 0.1
v 0.5 0.1 0.1
v -0.3 0.1 -0.4
v 0.4 0.1 -0.4
v -0.4 0.1 -0.5
v 0.5 0.1 -0.5
v -0.3 0.2 0.5
v 0 0.2 0.5
v -0.2 0.2 0.4
v -0.1 0.2 0.4
v -0.3 0.2 0.2
v -0.2 0.2 0.2
v -0.1 0.2 0.2
v 0 0.2 0.2
v -0.2 0.3 0.3
v -0.1 0.3 0.3
v -0.2 0.3 0.2
v -0.1 0.3 0.2
v 0 0.3 0.1
v 0.1 0.3 0.1
v 0 0.3 -5.96046e-08
v 0.1 0.3 -5.96046e-08
v -0.2 0.4 0.4
v -0.1 0.4 0.4
v -0.2 0.4 0.3
v -0.1 0.4 0.3
v -0.3 0.4 0.2
v 0 0.4 0.2
v 0 0.4 0.1
v -0.3 0.4 -5.96046e-08
v 0 0.4 -5.96046e-08
v 0 0.4 -0.3
v 0.1 0.4 -0.3
v 0 0.4 -0.4
v 0.1 0.4 -0.4
v 0 0.5 0.4
v 0.2 0.5 0.4
v 0.3 0.5 0.4
v 0.5 0.5 0.4
v 0 0.5 0.1
v 0.1 0.5 0.1
v 0.2 0.5 0.1
v 0.3 0.5 0.1
v 0.4 0.5 0.1
v 0.5 0.5 0.1
v -0.3 0.5 -5.96046e-08
v -0.2 0.5 -5.96046e-08
v 0.1 0.5 -5.96046e-08
v 0.3 0.5 -5.96046e-08
v -0.2 0.5 -0.3
v 0 0.5 -0.3
v 0.1 0.5 -0.3
v 0.3 0.5 -0.3
v -0.3 0.5 -0.4
v 0 0.5 -0.4
v 0.1 0.5 -0.4
v 0.4 0.5 -0.4
v -0.2 0.7 -5.96046e-08
v -0.1 0.7 -5.96046e-08
v 0.2 0.7 -5.96046e-08
v 0.3 0.7 -5.96046e-08
v -0.1 0.7 -0.2
v 0.2 0.7 -0.2
v -0.2 0.7 -0.3
v 0.3 0.7 -0.3
v -0.1 1 0.1
v 0.2 1 0.1
v -0.1 1 -0.2
v 0.2 1 -0.2

# faces
f 3/2/1 2/2/1 1/2/1
f 4/2/1 2/2/1 3/2/1
f 7/3/1 6/3/1 5/3/1
f 9/3/1 7/3/1 5/3/1
f 10/2/1 8/2/1 7/2/1
f 10/3/1 7/3/1 9/3/1
f 11/2/1 8/2/1 10/2/1
f 12/2/1 8/2/1 11/2/1
f 13/2/1 8/2/1 12/2/1
f 14/2/1 8/2/1 13/2/1
f 17/1/1 16/1/1 15/1/1
f 18/1/1 16/1/1 17/1/1
f 19/1/1 16/1/1 18/1/1
f 20/4/1 18/4/1 17/4/1
f 21/4/1 18/4/1 20/4/1
f 24/2/1 23/2/1 22/2/1
f 25/2/1 23/2/1 24/2/1
f 28/2/1 27/2/1 26/2/1
f 30/2/1 28/2/1 26/2/1
f 30/2/1 29/2/1 28/2/1
f 31/2/1 29/2/1 30/2/1
f 34/3/1 33/3/1 32/3/1
f 35/3/1 33/3/1 34/3/1
f 37/6/1 35/6/1 34/6/1
f 37/6/1 36/6/1 35/6/1
f 38/6/1 36/6/1 37/6/1
f 41/2/1 40/2/1 39/2/1
f 44/2/1 40/2/1 41/2/1
f 45/2/1 40/2/1 44/2/1
f 46/2/1 43/2/1 42/2/1
f 47/2/1 43/2/1 46/2/1
f 50/1/1 49/1/1 48/1/1
f 51/1/1 49/1/1 50/1/1
f 52/1/2 53/1/2 54/1/2
f 54/1/2 53/1/2 55/1/2
f 55/1/2 53/1/2 56/1/2
f 54/4/2 55/4/2 57/4/2
f 57/4/2 55/4/2 58/4/2
f 59/3/2 60/3/2 62/3/2
f 60/2/2 61/2/2 63/2/2
f 62/3/2 60/3/2 63/3/2
f 63/2/2 61/2/2 64/2/2
f 64/2/2 61/2/2 65/2/2
f 65/2/2 66/2/2 67/2/2
f 67/2/2 66/2/2 68/2/2
f 69/2/2 70/2/2 71/2/2
f 71/2/2 70/2/2 72/2/2
f 73/2/2 74/2/2 75/2/2
f 73/2/2 75/2/2 77/2/2
f 75/2/2 76/2/2 77/2/2
f 77/2/2 76/2/2 78/2/2
f 79/1/2 80/1/2 81/1/2
f 81/1/2 80/1/2 82/1/2
f 83/2/2 84/2/2 85/2/2
f 85/2/2 84/2/2 86/2/2
f 87/2/2 88/2/2 89/2/2
f 89/2/2 88/2/2 90/2/2
f 90/2/2 88/2/2 91/2/2
f 91/2/2 88/2/2 92/2/2
f 93/2/2 94/2/2 95/2/2
f 95/2/2 94/2/2 96/2/2
f 97/3/2 98/3/2 99/3/2
f 99/3/2 98/3/2 100/3/2
f 99/6/2 100/6/2 101/6/2
f 101/6/2 100/6/2 102/6/2
f 105/3/3 104/3/3 103/3/3
f 106/3/3 104/3/3 105/3/3
f 110/1/3 108/1/3 107/1/3
f 111/4/3 109/4/3 108/4/3
f 111/1/3 108/1/3 110/1/3
f 112/4/3 109/4/3 111/4/3
f 116/3/3 114/3/3 113/3/3
f 116/6/3 115/6/3 114/6/3
f 117/6/3 115/6/3 116/6/3
f 118/3/3 116/3/3 113/3/3
f 118/5/3 117/5/3 116/5/3
f 119/5/3 117/5/3 118/5/3
f 120/3/3 118/3/3 113/3/3
f 121/6/3 119/6/3 118/6/3
f 121/3/3 118/3/3 120/3/3
f 122/6/3 119/6/3 121/6/3
f 125/1/3 124/1/3 123/1/3
f 126/1/3 124/1/3 125/1/3
f 129/2/3 128/2/3 127/2/3
f 130/2/3 128/2/3 129/2/3
f 133/2/3 132/2/3 131/2/3
f 134/2/3 132/2/3 133/2/3
f 136/2/3 132/2/3 134/2/3
f 137/2/3 136/2/3 135/2/3
f 138/2/3 132/2/3 136/2/3
f 138/2/3 136/2/3 137/2/3
f 139/2/3 132/2/3 138/2/3
f 144/2/3 141/2/3 140/2/3
f 145/2/3 141/2/3 144/2/3
f 146/2/3 144/2/3 140/2/3
f 146/7/3 145/7/3 144/7/3
f 147/2/3 141/2/3 145/2/3
f 147/7/3 145/7/3 146/7/3
f 148/2/3 143/2/3 142/2/3
f 149/2/3 143/2/3 148/2/3
f 150/2/3 143/2/3 149/2/3
f 151/2/3 146/2/3 140/2/3
f 151/2/3 147/2/3 146/2/3
f 152/2/3 141/2/3 147/2/3
f 152/2/3 147/2/3 151/2/3
f 153/7/3 149/7/3 148/7/3
f 154/7/3 149/7/3 153/7/3
f 156/2/3 154/2/3 153/2/3
f 156/2/3 155/2/3 154/2/3
f 157/2/3 155/2/3 156/2/3
f 158/2/3 156/2/3 153/2/3
f 159/2/3 156/2/3 158/2/3
f 162/2/3 161/2/3 160/2/3
f 164/2/3 163/2/3 162/2/3
f 165/2/3 163/2/3 164/2/3
f 167/2/3 162/2/3 160/2/3
f 167/2/3 164/2/3 162/2/3
f 168/2/3 167/2/3 166/2/3
f 169/2/3 164/2/3 167/2/3
f 169/2/3 167/2/3 168/2/3
f 170/2/3 164/2/3 169/2/3
f 172/2/3 170/2/3 169/2/3
f 172/2/3 171/2/3 170/2/3
f 173/2/3 171/2/3 172/2/3
f 174/4/4 175/4/4 176/4/4
f 176/4/4 175/4/4 177/4/4
f 178/3/4 179/3/4 181/3/4
f 179/6/4 180/6/4 182/6/4
f 181/3/4 179/3/4 182/3/4
f 182/6/4 180/6/4 183/6/4
f 184/3/4 185/3/4 187/3/4
f 185/6/4 186/6/4 188/6/4
f 187/3/4 185/3/4 188/3/4
f 188/6/4 186/6/4 189/6/4
f 190/2/4 191/2/4 192/2/4
f 192/2/4 191/2/4 193/2/4
f 194/2/4 195/2/4 197/2/4
f 196/2/4 197/2/4 198/2/4
f 197/2/4 195/2/4 199/2/4
f 198/2/4 197/2/4 199/2/4
f 199/2/4 195/2/4 200/2/4
f 200/2/4 195/2/4 201/2/4
f 202/2/4 203/2/4 204/2/4
f 204/2/4 203/2/4 205/2/4
f 202/2/4 204/2/4 206/2/4
f 202/2/4 206/2/4 208/2/4
f 206/2/4 207/2/4 208/2/4
f 208/2/4 207/2/4 209/2/4
f 210/2/4 211/2/4 212/2/4
f 212/2/4 211/2/4 213/2/4
f 217/3/5 215/3/5 214/3/5
f 218/3/5 215/3/5 217/3/5
f 219/3/5 215/3/5 218/3/5
f 220/3/5 215/3/5 219/3/5
f 221/2/5 217/2/5 216/2/5
f 221/2/5 218/2/5 217/2/5
f 222/7/5 219/7/5 218/7/5
f 222/2/5 218/2/5 221/2/5
f 223/2/5 220/2/5 219/2/5
f 227/2/5 223/2/5 219/2/5
f 227/7/5 219/7/5 222/7/5
f 227/7/5 222/7/5 221/7/5
f 227/2/5 224/2/5 223/2/5
f 228/7/5 225/7/5 224/7/5
f 228/2/5 224/2/5 227/2/5
f 229/2/5 226/2/5 225/2/5
f 229/7/5 225/7/5 228/7/5
f 230/2/5 226/2/5 229/2/5
f 231/7/5 228/7/5 227/7/5
f 231/7/5 227/7/5 221/7/5
f 231/7/5 230/7/5 229/7/5
f 231/7/5 229/7/5 228/7/5
f 231/2/5 221/2/5 216/2/5
f 232/2/5 226/2/5 230/2/5
f 232/7/5 230/7/5 231/7/5
f 233/2/5 231/2/5 216/2/5
f 233/2/5 232/2/5 231/2/5
f 234/2/5 226/2/5 232/2/5
f 234/2/5 232/2/5 233/2/5
f 237/1/5 236/1/5 235/1/5
f 238/1/5 236/1/5 237/1/5
f 241/3/5 240/3/5 239/3/5
f 242/3/5 240/3/5 241/3/5
f 243/3/5 241/3/5 239/3/5
f 244/3/5 241/3/5 243/3/5
f 245/3/5 241/3/5 244/3/5
f 246/3/5 240/3/5 242/3/5
f 247/3/5 240/3/5 246/3/5
f 248/3/5 240/3/5 247/3/5
f 251/2/5 250/2/5 249/2/5
f 252/2/5 250/2/5 251/2/5
f 253/2/6 254/2/6 257/2/6
f 255/2/6 256/2/6 258/2/6
f 253/2/6 257/2/6 259/2/6
f 257/2/6 258/2/6 259/2/6
f 258/2/6 256/2/6 260/2/6
f 259/2/6 258/2/6 260/2/6
f 261/3/6 262/3/6 263/3/6
f 263/3/6 262/3/6 264/3/6
f 261/3/6 263/3/6 265/3/6
f 265/3/6 263/3/6 266/3/6
f 264/3/6 262/3/6 267/3/6
f 267/3/6 262/3/6 268/3/6
f 269/1/6 270/1/6 271/1/6
f 271/1/6 270/1/6 272/1/6
f 273/2/6 274/2/6 275/2/6
f 275/2/6 274/2/6 276/2/6
f 277/4/6 278/4/6 279/4/6
f 279/4/6 278/4/6 280/4/6
f 281/2/6 282/2/6 283/2/6
f 281/2/6 283/2/6 284/2/6
f 284/2/6 283/2/6 285/2/6
f 286/2/6 287/2/6 288/2/6
f 288/2/6 287/2/6 289/2/6
f 290/6/6 291/6/6 294/6/6
f 294/6/6 291/6/6 295/6/6
f 291/5/6 292/5/6 296/5/6
f 295/6/6 291/6/6 296/6/6
f 292/6/6 293/6/6 297/6/6
f 296/5/6 292/5/6 297/5/6
f 297/6/6 293/6/6 298/6/6
f 298/6/6 293/6/6 299/6/6
f 295/2/6 296/2/6 302/2/6
f 296/2/6 297/2/6 302/2/6
f 297/2/6 298/2/6 302/2/6
f 302/2/6 298/2/6 303/2/6
f 300/2/6 301/2/6 304/2/6
f 303/2/6 298/2/6 307/2/6
f 304/2/6 305/2/6 308/2/6
f 300/2/6 304/2/6 308/2/6
f 308/2/6 305/2/6 309/2/6
f 306/2/6 307/2/6 310/2/6
f 307/2/6 298/2/6 311/2/6
f 310/2/6 307/2/6 311/2/6
f 312/2/6 313/2/6 316/2/6
f 314/2/6 315/2/6 317/2/6
f 312/2/6 316/2/6 318/2/6
f 316/2/6 317/2/6 318/2/6
f 317/2/6 315/2/6 319/2/6
f 318/2/6 317/2/6 319/2/6
f 320/2/6 321/2/6 322/2/6
f 322/2/6 321/2/6 323/2/6
