# MagicaVoxel @ Ephtracy

# group
o 

# material
mtllib mimic_g_walk_2.mtl
usemtl palette

# normals
vn -1 0 0
vn 1 0 0
vn 0 0 1
vn 0 0 -1
vn 0 -1 0
vn 0 1 0

# texcoords
vt 0.818359 0.5
vt 0.908203 0.5
vt 0.947266 0.5
vt 0.970703 0.5
vt 0.974609 0.5

# verts
v -0.4 0.2 0.3
v -0.4 0.2 -0.4
v -0.4 0.3 0.2
v -0.4 0.3 -0.3
v -0.4 0.5 0.2
v -0.4 0.5 -0.3
v -0.4 0.6 0.3
v -0.4 0.6 0.2
v -0.4 0.6 0.1
v -0.4 0.6 0
v -0.4 0.6 -0.1
v -0.4 0.6 -0.2
v -0.4 0.6 -0.3
v -0.4 0.7 0.3
v -0.4 0.7 0.2
v -0.4 0.7 0.1
v -0.4 0.7 0
v -0.4 0.7 -0.1
v -0.4 0.7 -0.2
v -0.4 0.7 -0.3
v -0.4 0.8 0.3
v -0.4 0.8 0.2
v -0.4 0.8 -0.3
v -0.4 0.8 -0.4
v -0.4 0.9 0.2
v -0.4 0.9 -0.3
v -0.3 0.6 0.3
v -0.3 0.6 0.2
v -0.3 0.6 0.1
v -0.3 0.6 0
v -0.3 0.6 -0.1
v -0.3 0.6 -0.2
v -0.3 0.7 0.3
v -0.3 0.7 0.2
v -0.3 0.7 0.1
v -0.3 0.7 0
v -0.3 0.7 -0.1
v -0.3 0.7 -0.2
v -0.1 0.4 0.4
v -0.1 0.4 0.3
v -0.1 0.5 0.3
v -0.1 0.6 0.3
v -0.1 0.6 0.2
v -0.1 0.7 0.4
v -0.1 0.7 0.3
v -0.1 0.7 0.2
v 0.3 0.6 0.3
v 0.3 0.6 0.2
v 0.3 0.7 0.3
v 0.3 0.7 0.2
v -0.2 0.6 0.3
v -0.2 0.6 0.2
v -0.2 0.7 0.3
v -0.2 0.7 0.2
v 0.2 0.4 0.4
v 0.2 0.4 0.3
v 0.2 0.5 0.3
v 0.2 0.6 0.3
v 0.2 0.6 0.2
v 0.2 0.7 0.4
v 0.2 0.7 0.3
v 0.2 0.7 0.2
v 0.4 0.6 0.3
v 0.4 0.6 0.2
v 0.4 0.6 0.1
v 0.4 0.6 0
v 0.4 0.6 -0.1
v 0.4 0.6 -0.2
v 0.4 0.7 0.3
v 0.4 0.7 0.2
v 0.4 0.7 0.1
v 0.4 0.7 0
v 0.4 0.7 -0.1
v 0.4 0.7 -0.2
v 0.5 0.2 0.3
v 0.5 0.2 -0.4
v 0.5 0.3 0.2
v 0.5 0.3 -0.3
v 0.5 0.5 0.2
v 0.5 0.5 -0.3
v 0.5 0.6 0.3
v 0.5 0.6 0.2
v 0.5 0.6 0.1
v 0.5 0.6 0
v 0.5 0.6 -0.1
v 0.5 0.6 -0.2
v 0.5 0.6 -0.3
v 0.5 0.7 0.3
v 0.5 0.7 0.2
v 0.5 0.7 0.1
v 0.5 0.7 0
v 0.5 0.7 -0.1
v 0.5 0.7 -0.2
v 0.5 0.7 -0.3
v 0.5 0.8 0.3
v 0.5 0.8 0.2
v 0.5 0.8 -0.3
v 0.5 0.8 -0.4
v 0.5 0.9 0.2
v 0.5 0.9 -0.3
v -0.1 0.4 0.4
v -0.1 0.7 0.4
v 0.2 0.4 0.4
v 0.2 0.7 0.4
v -0.4 0.2 0.3
v -0.4 0.6 0.3
v -0.4 0.7 0.3
v -0.4 0.8 0.3
v -0.3 0.3 0.3
v -0.3 0.5 0.3
v -0.3 0.6 0.3
v -0.3 0.7 0.3
v -0.3 0.8 0.3
v -0.2 0.6 0.3
v -0.2 0.7 0.3
v -0.2 0.8 0.3
v -0.1 0.4 0.3
v -0.1 0.5 0.3
v -0.1 0.6 0.3
v -0.1 0.7 0.3
v -0.1 0.8 0.3
v 0.2 0.4 0.3
v 0.2 0.5 0.3
v 0.2 0.6 0.3
v 0.2 0.7 0.3
v 0.2 0.8 0.3
v 0.3 0.6 0.3
v 0.3 0.7 0.3
v 0.3 0.8 0.3
v 0.4 0.3 0.3
v 0.4 0.5 0.3
v 0.4 0.6 0.3
v 0.4 0.7 0.3
v 0.4 0.8 0.3
v 0.5 0.2 0.3
v 0.5 0.6 0.3
v 0.5 0.7 0.3
v 0.5 0.8 0.3
v -0.4 0.6 0.2
v -0.4 0.7 0.2
v -0.4 0.8 0.2
v -0.4 0.9 0.2
v -0.3 0.6 0.2
v -0.3 0.7 0.2
v -0.3 0.8 0.2
v -0.3 0.9 0.2
v -0.2 0.6 0.2
v -0.2 0.7 0.2
v -0.2 0.8 0.2
v -0.2 0.9 0.2
v -0.1 0.6 0.2
v -0.1 0.7 0.2
v -0.1 0.8 0.2
v -0.1 0.9 0.2
v 0.2 0.6 0.2
v 0.2 0.7 0.2
v 0.2 0.8 0.2
v 0.2 0.9 0.2
v 0.3 0.6 0.2
v 0.3 0.7 0.2
v 0.3 0.8 0.2
v 0.3 0.9 0.2
v 0.4 0.6 0.2
v 0.4 0.7 0.2
v 0.4 0.8 0.2
v 0.4 0.9 0.2
v 0.5 0.6 0.2
v 0.5 0.7 0.2
v 0.5 0.8 0.2
v 0.5 0.9 0.2
v -0.4 0.6 0
v -0.4 0.7 0
v -0.3 0.6 0
v -0.3 0.7 0
v 0.4 0.6 0
v 0.4 0.7 0
v 0.5 0.6 0
v 0.5 0.7 0
v -0.4 0.6 -0.2
v -0.4 0.7 -0.2
v -0.3 0.6 -0.2
v -0.3 0.7 -0.2
v 0.4 0.6 -0.2
v 0.4 0.7 -0.2
v 0.5 0.6 -0.2
v 0.5 0.7 -0.2
v -0.4 0.6 0.1
v -0.4 0.7 0.1
v -0.3 0.6 0.1
v -0.3 0.7 0.1
v 0.4 0.6 0.1
v 0.4 0.7 0.1
v 0.5 0.6 0.1
v 0.5 0.7 0.1
v -0.4 0.6 -0.1
v -0.4 0.7 -0.1
v -0.3 0.6 -0.1
v -0.3 0.7 -0.1
v 0.4 0.6 -0.1
v 0.4 0.7 -0.1
v 0.5 0.6 -0.1
v 0.5 0.7 -0.1
v -0.4 0.8 -0.3
v -0.4 0.9 -0.3
v -0.3 0.8 -0.3
v -0.3 0.9 -0.3
v -0.2 0.8 -0.3
v -0.2 0.9 -0.3
v -0.1 0.8 -0.3
v -0.1 0.9 -0.3
v 0.2 0.8 -0.3
v 0.2 0.9 -0.3
v 0.3 0.8 -0.3
v 0.3 0.9 -0.3
v 0.4 0.8 -0.3
v 0.4 0.9 -0.3
v 0.5 0.8 -0.3
v 0.5 0.9 -0.3
v -0.4 0.2 -0.4
v -0.4 0.8 -0.4
v -0.3 0.3 -0.4
v -0.3 0.5 -0.4
v -0.3 0.7 -0.4
v -0.3 0.8 -0.4
v -0.2 0.7 -0.4
v -0.2 0.8 -0.4
v -0.1 0.7 -0.4
v -0.1 0.8 -0.4
v 0.2 0.7 -0.4
v 0.2 0.8 -0.4
v 0.3 0.7 -0.4
v 0.3 0.8 -0.4
v 0.4 0.3 -0.4
v 0.4 0.5 -0.4
v 0.4 0.7 -0.4
v 0.4 0.8 -0.4
v 0.5 0.2 -0.4
v 0.5 0.8 -0.4
v -0.4 0.2 0.3
v 0.5 0.2 0.3
v -0.4 0.2 -0.4
v 0.5 0.2 -0.4
v -0.1 0.4 0.4
v 0.2 0.4 0.4
v -0.1 0.4 0.3
v 0.2 0.4 0.3
v -0.4 0.7 0.3
v -0.3 0.7 0.3
v -0.2 0.7 0.3
v -0.1 0.7 0.3
v 0.2 0.7 0.3
v 0.3 0.7 0.3
v 0.4 0.7 0.3
v 0.5 0.7 0.3
v -0.4 0.7 0.2
v -0.3 0.7 0.2
v -0.2 0.7 0.2
v -0.1 0.7 0.2
v 0.2 0.7 0.2
v 0.3 0.7 0.2
v 0.4 0.7 0.2
v 0.5 0.7 0.2
v -0.4 0.7 0.1
v -0.3 0.7 0.1
v 0.4 0.7 0.1
v 0.5 0.7 0.1
v -0.4 0.7 0
v -0.3 0.7 0
v 0.4 0.7 0
v 0.5 0.7 0
v -0.4 0.7 -0.1
v -0.3 0.7 -0.1
v 0.4 0.7 -0.1
v 0.5 0.7 -0.1
v -0.4 0.7 -0.2
v -0.3 0.7 -0.2
v 0.4 0.7 -0.2
v 0.5 0.7 -0.2
v -0.4 0.6 0.3
v -0.3 0.6 0.3
v -0.2 0.6 0.3
v -0.1 0.6 0.3
v 0.2 0.6 0.3
v 0.3 0.6 0.3
v 0.4 0.6 0.3
v 0.5 0.6 0.3
v -0.4 0.6 0.2
v -0.3 0.6 0.2
v -0.2 0.6 0.2
v -0.1 0.6 0.2
v 0.2 0.6 0.2
v 0.3 0.6 0.2
v 0.4 0.6 0.2
v 0.5 0.6 0.2
v -0.4 0.6 0.1
v -0.3 0.6 0.1
v 0.4 0.6 0.1
v 0.5 0.6 0.1
v -0.4 0.6 0
v -0.3 0.6 0
v 0.4 0.6 0
v 0.5 0.6 0
v -0.4 0.6 -0.1
v -0.3 0.6 -0.1
v 0.4 0.6 -0.1
v 0.5 0.6 -0.1
v -0.4 0.6 -0.2
v -0.3 0.6 -0.2
v 0.4 0.6 -0.2
v 0.5 0.6 -0.2
v -0.1 0.7 0.4
v 0.2 0.7 0.4
v -0.1 0.7 0.3
v 0.2 0.7 0.3
v -0.4 0.8 0.3
v -0.3 0.8 0.3
v -0.2 0.8 0.3
v -0.1 0.8 0.3
v 0.2 0.8 0.3
v 0.3 0.8 0.3
v 0.4 0.8 0.3
v 0.5 0.8 0.3
v -0.4 0.8 0.2
v -0.3 0.8 0.2
v -0.2 0.8 0.2
v -0.1 0.8 0.2
v 0.2 0.8 0.2
v 0.3 0.8 0.2
v 0.4 0.8 0.2
v 0.5 0.8 0.2
v -0.4 0.8 -0.3
v -0.3 0.8 -0.3
v -0.2 0.8 -0.3
v -0.1 0.8 -0.3
v 0.2 0.8 -0.3
v 0.3 0.8 -0.3
v 0.4 0.8 -0.3
v 0.5 0.8 -0.3
v -0.4 0.8 -0.4
v -0.3 0.8 -0.4
v -0.2 0.8 -0.4
v -0.1 0.8 -0.4
v 0.2 0.8 -0.4
v 0.3 0.8 -0.4
v 0.4 0.8 -0.4
v 0.5 0.8 -0.4
v -0.4 0.9 0.2
v -0.3 0.9 0.2
v -0.2 0.9 0.2
v -0.1 0.9 0.2
v 0.2 0.9 0.2
v 0.3 0.9 0.2
v 0.4 0.9 0.2
v 0.5 0.9 0.2
v -0.4 0.9 -0.3
v -0.3 0.9 -0.3
v -0.2 0.9 -0.3
v -0.1 0.9 -0.3
v 0.2 0.9 -0.3
v 0.3 0.9 -0.3
v 0.4 0.9 -0.3
v 0.5 0.9 -0.3

# faces
f 3/1/1 2/1/1 1/1/1
f 4/1/1 2/1/1 3/1/1
f 5/1/1 3/1/1 1/1/1
f 5/5/1 4/5/1 3/5/1
f 6/1/1 2/1/1 4/1/1
f 6/5/1 4/5/1 5/5/1
f 7/1/1 5/1/1 1/1/1
f 7/1/1 6/1/1 5/1/1
f 8/1/1 6/1/1 7/1/1
f 9/1/1 6/1/1 8/1/1
f 10/1/1 6/1/1 9/1/1
f 11/1/1 6/1/1 10/1/1
f 12/1/1 6/1/1 11/1/1
f 13/1/1 2/1/1 6/1/1
f 13/1/1 6/1/1 12/1/1
f 15/3/1 9/3/1 8/3/1
f 16/3/1 9/3/1 15/3/1
f 17/3/1 11/3/1 10/3/1
f 18/3/1 11/3/1 17/3/1
f 19/3/1 13/3/1 12/3/1
f 20/1/1 2/1/1 13/1/1
f 20/3/1 13/3/1 19/3/1
f 21/1/1 15/1/1 14/1/1
f 22/5/1 19/5/1 18/5/1
f 22/1/1 15/1/1 21/1/1
f 22/5/1 18/5/1 17/5/1
f 22/5/1 20/5/1 19/5/1
f 22/5/1 16/5/1 15/5/1
f 22/5/1 17/5/1 16/5/1
f 23/1/1 2/1/1 20/1/1
f 23/5/1 20/5/1 22/5/1
f 24/1/1 2/1/1 23/1/1
f 25/1/1 23/1/1 22/1/1
f 26/1/1 23/1/1 25/1/1
f 33/3/1 28/3/1 27/3/1
f 34/3/1 28/3/1 33/3/1
f 35/4/1 30/4/1 29/4/1
f 36/4/1 30/4/1 35/4/1
f 37/4/1 32/4/1 31/4/1
f 38/4/1 32/4/1 37/4/1
f 41/2/1 40/2/1 39/2/1
f 42/2/1 41/2/1 39/2/1
f 44/2/1 42/2/1 39/2/1
f 44/2/1 43/2/1 42/2/1
f 45/2/1 43/2/1 44/2/1
f 46/2/1 43/2/1 45/2/1
f 49/3/1 48/3/1 47/3/1
f 50/3/1 48/3/1 49/3/1
f 51/3/2 52/3/2 53/3/2
f 53/3/2 52/3/2 54/3/2
f 55/2/2 56/2/2 57/2/2
f 55/2/2 57/2/2 58/2/2
f 55/2/2 58/2/2 60/2/2
f 58/2/2 59/2/2 60/2/2
f 60/2/2 59/2/2 61/2/2
f 61/2/2 59/2/2 62/2/2
f 63/3/2 64/3/2 69/3/2
f 69/3/2 64/3/2 70/3/2
f 65/4/2 66/4/2 71/4/2
f 71/4/2 66/4/2 72/4/2
f 67/4/2 68/4/2 73/4/2
f 73/4/2 68/4/2 74/4/2
f 75/1/2 76/1/2 77/1/2
f 77/1/2 76/1/2 78/1/2
f 75/1/2 77/1/2 79/1/2
f 77/5/2 78/5/2 79/5/2
f 78/1/2 76/1/2 80/1/2
f 79/5/2 78/5/2 80/5/2
f 75/1/2 79/1/2 81/1/2
f 79/1/2 80/1/2 81/1/2
f 81/1/2 80/1/2 82/1/2
f 82/1/2 80/1/2 83/1/2
f 83/1/2 80/1/2 84/1/2
f 84/1/2 80/1/2 85/1/2
f 85/1/2 80/1/2 86/1/2
f 80/1/2 76/1/2 87/1/2
f 86/1/2 80/1/2 87/1/2
f 82/3/2 83/3/2 89/3/2
f 89/3/2 83/3/2 90/3/2
f 84/3/2 85/3/2 91/3/2
f 91/3/2 85/3/2 92/3/2
f 86/3/2 87/3/2 93/3/2
f 87/1/2 76/1/2 94/1/2
f 93/3/2 87/3/2 94/3/2
f 88/1/2 89/1/2 95/1/2
f 92/5/2 93/5/2 96/5/2
f 95/1/2 89/1/2 96/1/2
f 91/5/2 92/5/2 96/5/2
f 93/5/2 94/5/2 96/5/2
f 89/5/2 90/5/2 96/5/2
f 90/5/2 91/5/2 96/5/2
f 94/1/2 76/1/2 97/1/2
f 96/5/2 94/5/2 97/5/2
f 97/1/2 76/1/2 98/1/2
f 96/1/2 97/1/2 99/1/2
f 99/1/2 97/1/2 100/1/2
f 103/2/3 102/2/3 101/2/3
f 104/2/3 102/2/3 103/2/3
f 109/1/3 106/1/3 105/1/3
f 110/1/3 106/1/3 109/1/3
f 111/1/3 106/1/3 110/1/3
f 112/1/3 108/1/3 107/1/3
f 113/1/3 108/1/3 112/1/3
f 114/1/3 111/1/3 110/1/3
f 114/3/3 112/3/3 111/3/3
f 115/5/3 113/5/3 112/5/3
f 115/3/3 112/3/3 114/3/3
f 116/5/3 113/5/3 115/5/3
f 117/5/3 110/5/3 109/5/3
f 118/1/3 114/1/3 110/1/3
f 118/5/3 110/5/3 117/5/3
f 119/1/3 114/1/3 118/1/3
f 120/1/3 116/1/3 115/1/3
f 121/1/3 116/1/3 120/1/3
f 122/5/3 117/5/3 109/5/3
f 125/5/3 121/5/3 120/5/3
f 126/5/3 121/5/3 125/5/3
f 127/1/3 124/1/3 123/1/3
f 128/1/3 126/1/3 125/1/3
f 129/1/3 126/1/3 128/1/3
f 130/1/3 109/1/3 105/1/3
f 130/5/3 122/5/3 109/5/3
f 130/5/3 123/5/3 122/5/3
f 131/1/3 127/1/3 123/1/3
f 131/5/3 123/5/3 130/5/3
f 132/3/3 128/3/3 127/3/3
f 132/1/3 127/1/3 131/1/3
f 133/5/3 129/5/3 128/5/3
f 133/3/3 128/3/3 132/3/3
f 134/5/3 129/5/3 133/5/3
f 135/1/3 132/1/3 131/1/3
f 135/1/3 131/1/3 130/1/3
f 135/1/3 130/1/3 105/1/3
f 136/1/3 132/1/3 135/1/3
f 137/1/3 134/1/3 133/1/3
f 138/1/3 134/1/3 137/1/3
f 143/3/3 140/3/3 139/3/3
f 144/3/3 140/3/3 143/3/3
f 145/1/3 142/1/3 141/1/3
f 146/1/3 142/1/3 145/1/3
f 149/5/3 146/5/3 145/5/3
f 150/5/3 146/5/3 149/5/3
f 151/4/3 148/4/3 147/4/3
f 152/4/3 148/4/3 151/4/3
f 153/1/3 150/1/3 149/1/3
f 154/1/3 150/1/3 153/1/3
f 157/5/3 154/5/3 153/5/3
f 158/5/3 154/5/3 157/5/3
f 159/4/3 156/4/3 155/4/3
f 160/4/3 156/4/3 159/4/3
f 161/1/3 158/1/3 157/1/3
f 162/1/3 158/1/3 161/1/3
f 165/5/3 162/5/3 161/5/3
f 166/5/3 162/5/3 165/5/3
f 167/3/3 164/3/3 163/3/3
f 168/3/3 164/3/3 167/3/3
f 169/1/3 166/1/3 165/1/3
f 170/1/3 166/1/3 169/1/3
f 173/3/3 172/3/3 171/3/3
f 174/3/3 172/3/3 173/3/3
f 177/3/3 176/3/3 175/3/3
f 178/3/3 176/3/3 177/3/3
f 181/3/3 180/3/3 179/3/3
f 182/3/3 180/3/3 181/3/3
f 185/3/3 184/3/3 183/3/3
f 186/3/3 184/3/3 185/3/3
f 187/3/4 188/3/4 189/3/4
f 189/3/4 188/3/4 190/3/4
f 191/3/4 192/3/4 193/3/4
f 193/3/4 192/3/4 194/3/4
f 195/3/4 196/3/4 197/3/4
f 197/3/4 196/3/4 198/3/4
f 199/3/4 200/3/4 201/3/4
f 201/3/4 200/3/4 202/3/4
f 203/1/4 204/1/4 205/1/4
f 205/1/4 204/1/4 206/1/4
f 205/5/4 206/5/4 207/5/4
f 207/5/4 206/5/4 208/5/4
f 207/1/4 208/1/4 209/1/4
f 209/1/4 208/1/4 210/1/4
f 209/5/4 210/5/4 211/5/4
f 211/5/4 210/5/4 212/5/4
f 211/1/4 212/1/4 213/1/4
f 213/1/4 212/1/4 214/1/4
f 213/5/4 214/5/4 215/5/4
f 215/5/4 214/5/4 216/5/4
f 215/1/4 216/1/4 217/1/4
f 217/1/4 216/1/4 218/1/4
f 219/1/4 220/1/4 221/1/4
f 221/1/4 220/1/4 222/1/4
f 222/1/4 220/1/4 223/1/4
f 223/1/4 220/1/4 224/1/4
f 222/1/4 223/1/4 225/1/4
f 223/5/4 224/5/4 225/5/4
f 225/5/4 224/5/4 226/5/4
f 222/1/4 225/1/4 227/1/4
f 225/1/4 226/1/4 227/1/4
f 227/1/4 226/1/4 228/1/4
f 222/1/4 227/1/4 229/1/4
f 227/5/4 228/5/4 229/5/4
f 229/5/4 228/5/4 230/5/4
f 222/1/4 229/1/4 231/1/4
f 229/1/4 230/1/4 231/1/4
f 231/1/4 230/1/4 232/1/4
f 219/1/4 221/1/4 233/1/4
f 221/5/4 222/5/4 233/5/4
f 222/1/4 231/1/4 234/1/4
f 233/5/4 222/5/4 234/5/4
f 231/5/4 232/5/4 235/5/4
f 234/1/4 231/1/4 235/1/4
f 235/5/4 232/5/4 236/5/4
f 233/1/4 234/1/4 237/1/4
f 219/1/4 233/1/4 237/1/4
f 235/1/4 236/1/4 237/1/4
f 234/1/4 235/1/4 237/1/4
f 237/1/4 236/1/4 238/1/4
f 241/1/5 240/1/5 239/1/5
f 242/1/5 240/1/5 241/1/5
f 245/2/5 244/2/5 243/2/5
f 246/2/5 244/2/5 245/2/5
f 255/1/5 248/1/5 247/1/5
f 256/1/5 248/1/5 255/1/5
f 257/1/5 250/1/5 249/1/5
f 258/1/5 250/1/5 257/1/5
f 259/1/5 252/1/5 251/1/5
f 260/1/5 252/1/5 259/1/5
f 261/1/5 254/1/5 253/1/5
f 262/1/5 254/1/5 261/1/5
f 267/5/5 264/5/5 263/5/5
f 268/5/5 264/5/5 267/5/5
f 269/5/5 266/5/5 265/5/5
f 270/5/5 266/5/5 269/5/5
f 275/5/5 272/5/5 271/5/5
f 276/5/5 272/5/5 275/5/5
f 277/5/5 274/5/5 273/5/5
f 278/5/5 274/5/5 277/5/5
f 279/1/6 280/1/6 287/1/6
f 287/1/6 280/1/6 288/1/6
f 281/1/6 282/1/6 289/1/6
f 289/1/6 282/1/6 290/1/6
f 283/1/6 284/1/6 291/1/6
f 291/1/6 284/1/6 292/1/6
f 285/1/6 286/1/6 293/1/6
f 293/1/6 286/1/6 294/1/6
f 295/1/6 296/1/6 299/1/6
f 299/1/6 296/1/6 300/1/6
f 297/1/6 298/1/6 301/1/6
f 301/1/6 298/1/6 302/1/6
f 303/1/6 304/1/6 307/1/6
f 307/1/6 304/1/6 308/1/6
f 305/1/6 306/1/6 309/1/6
f 309/1/6 306/1/6 310/1/6
f 311/2/6 312/2/6 313/2/6
f 313/2/6 312/2/6 314/2/6
f 315/1/6 316/1/6 323/1/6
f 316/5/6 317/5/6 324/5/6
f 323/1/6 316/1/6 324/1/6
f 317/1/6 318/1/6 325/1/6
f 324/5/6 317/5/6 325/5/6
f 318/5/6 319/5/6 326/5/6
f 325/1/6 318/1/6 326/1/6
f 319/1/6 320/1/6 327/1/6
f 326/5/6 319/5/6 327/5/6
f 320/5/6 321/5/6 328/5/6
f 327/1/6 320/1/6 328/1/6
f 321/1/6 322/1/6 329/1/6
f 328/5/6 321/5/6 329/5/6
f 329/1/6 322/1/6 330/1/6
f 331/1/6 332/1/6 339/1/6
f 332/5/6 333/5/6 340/5/6
f 339/1/6 332/1/6 340/1/6
f 333/1/6 334/1/6 341/1/6
f 340/5/6 333/5/6 341/5/6
f 334/5/6 335/5/6 342/5/6
f 341/1/6 334/1/6 342/1/6
f 335/1/6 336/1/6 343/1/6
f 342/5/6 335/5/6 343/5/6
f 336/5/6 337/5/6 344/5/6
f 343/1/6 336/1/6 344/1/6
f 337/1/6 338/1/6 345/1/6
f 344/5/6 337/5/6 345/5/6
f 345/1/6 338/1/6 346/1/6
f 347/1/6 348/1/6 355/1/6
f 348/5/6 349/5/6 356/5/6
f 355/1/6 348/1/6 356/1/6
f 349/1/6 350/1/6 357/1/6
f 356/5/6 349/5/6 357/5/6
f 350/5/6 351/5/6 358/5/6
f 357/1/6 350/1/6 358/1/6
f 351/1/6 352/1/6 359/1/6
f 358/5/6 351/5/6 359/5/6
f 352/5/6 353/5/6 360/5/6
f 359/1/6 352/1/6 360/1/6
f 353/1/6 354/1/6 361/1/6
f 360/5/6 353/5/6 361/5/6
f 361/1/6 354/1/6 362/1/6
