# MagicaVoxel @ Ephtracy

# group
o 

# material
mtllib mimic_b_idle_1.mtl
usemtl palette

# normals
vn -1 0 0
vn 1 0 0
vn 0 0 1
vn 0 0 -1
vn 0 -1 0
vn 0 1 0

# texcoords
vt 0.728516 0.5
vt 0.787109 0.5
vt 0.814453 0.5
vt 0.822266 0.5
vt 0.947266 0.5
vt 0.970703 0.5

# verts
v -0.4 0 0.3
v -0.4 0 -0.4
v -0.4 0.1 0.2
v -0.4 0.1 0.1
v -0.4 0.1 0
v -0.4 0.1 -0.1
v -0.4 0.1 -0.2
v -0.4 0.1 -0.3
v -0.4 0.4 0.2
v -0.4 0.4 0.1
v -0.4 0.4 0
v -0.4 0.4 -0.1
v -0.4 0.4 -0.2
v -0.4 0.4 -0.3
v -0.4 0.5 0.3
v -0.4 0.5 0.2
v -0.4 0.5 0.1
v -0.4 0.5 0
v -0.4 0.5 -0.1
v -0.4 0.5 -0.2
v -0.4 0.5 -0.3
v -0.4 0.6 0.3
v -0.4 0.6 0.2
v -0.4 0.6 0.1
v -0.4 0.6 0
v -0.4 0.6 -0.1
v -0.4 0.6 -0.2
v -0.4 0.6 -0.3
v -0.4 0.7 0.3
v -0.4 0.7 0.2
v -0.4 0.7 0.1
v -0.4 0.7 -0.2
v -0.4 0.7 -0.3
v -0.4 0.7 -0.4
v -0.4 0.8 0.2
v -0.4 0.8 0.1
v -0.4 0.8 -0.2
v -0.4 0.8 -0.3
v -0.4 0.9 0.1
v -0.4 0.9 -0.2
v -0.3 0.5 0.3
v -0.3 0.5 0.2
v -0.3 0.5 0.1
v -0.3 0.5 0
v -0.3 0.5 -0.1
v -0.3 0.5 -0.2
v -0.3 0.6 0.3
v -0.3 0.6 0.2
v -0.3 0.6 0.1
v -0.3 0.6 0
v -0.3 0.6 -0.1
v -0.3 0.6 -0.2
v -0.1 0.3 0.4
v -0.1 0.3 0.3
v -0.1 0.4 0.3
v -0.1 0.5 0.3
v -0.1 0.5 0.2
v -0.1 0.6 0.4
v -0.1 0.6 0.3
v -0.1 0.6 0.2
v 0.3 0.5 0.3
v 0.3 0.5 0.2
v 0.3 0.6 0.3
v 0.3 0.6 0.2
v -0.2 0.5 0.3
v -0.2 0.5 0.2
v -0.2 0.6 0.3
v -0.2 0.6 0.2
v 0.2 0.3 0.4
v 0.2 0.3 0.3
v 0.2 0.4 0.3
v 0.2 0.5 0.3
v 0.2 0.5 0.2
v 0.2 0.6 0.4
v 0.2 0.6 0.3
v 0.2 0.6 0.2
v 0.4 0.5 0.3
v 0.4 0.5 0.2
v 0.4 0.5 0.1
v 0.4 0.5 0
v 0.4 0.5 -0.1
v 0.4 0.5 -0.2
v 0.4 0.6 0.3
v 0.4 0.6 0.2
v 0.4 0.6 0.1
v 0.4 0.6 0
v 0.4 0.6 -0.1
v 0.4 0.6 -0.2
v 0.5 0 0.3
v 0.5 0 -0.4
v 0.5 0.1 0.2
v 0.5 0.1 0.1
v 0.5 0.1 0
v 0.5 0.1 -0.1
v 0.5 0.1 -0.2
v 0.5 0.1 -0.3
v 0.5 0.4 0.2
v 0.5 0.4 0.1
v 0.5 0.4 0
v 0.5 0.4 -0.1
v 0.5 0.4 -0.2
v 0.5 0.4 -0.3
v 0.5 0.5 0.3
v 0.5 0.5 0.2
v 0.5 0.5 0.1
v 0.5 0.5 0
v 0.5 0.5 -0.1
v 0.5 0.5 -0.2
v 0.5 0.5 -0.3
v 0.5 0.6 0.3
v 0.5 0.6 0.2
v 0.5 0.6 0.1
v 0.5 0.6 0
v 0.5 0.6 -0.1
v 0.5 0.6 -0.2
v 0.5 0.6 -0.3
v 0.5 0.7 0.3
v 0.5 0.7 0.2
v 0.5 0.7 0.1
v 0.5 0.7 -0.2
v 0.5 0.7 -0.3
v 0.5 0.7 -0.4
v 0.5 0.8 0.2
v 0.5 0.8 0.1
v 0.5 0.8 -0.2
v 0.5 0.8 -0.3
v 0.5 0.9 0.1
v 0.5 0.9 -0.2
v -0.1 0.3 0.4
v -0.1 0.6 0.4
v 0.2 0.3 0.4
v 0.2 0.6 0.4
v -0.4 0 0.3
v -0.4 0.5 0.3
v -0.4 0.6 0.3
v -0.4 0.7 0.3
v -0.3 0.1 0.3
v -0.3 0.4 0.3
v -0.3 0.5 0.3
v -0.3 0.6 0.3
v -0.3 0.7 0.3
v -0.2 0.1 0.3
v -0.2 0.4 0.3
v -0.2 0.5 0.3
v -0.2 0.6 0.3
v -0.2 0.7 0.3
v -0.1 0.1 0.3
v -0.1 0.3 0.3
v -0.1 0.4 0.3
v -0.1 0.5 0.3
v -0.1 0.6 0.3
v -0.1 0.7 0.3
v 0 0.1 0.3
v 0 0.3 0.3
v 0 0.6 0.3
v 0 0.7 0.3
v 0.1 0.1 0.3
v 0.1 0.3 0.3
v 0.1 0.6 0.3
v 0.1 0.7 0.3
v 0.2 0.1 0.3
v 0.2 0.3 0.3
v 0.2 0.4 0.3
v 0.2 0.5 0.3
v 0.2 0.6 0.3
v 0.2 0.7 0.3
v 0.3 0.1 0.3
v 0.3 0.4 0.3
v 0.3 0.5 0.3
v 0.3 0.6 0.3
v 0.3 0.7 0.3
v 0.4 0.1 0.3
v 0.4 0.4 0.3
v 0.4 0.5 0.3
v 0.4 0.6 0.3
v 0.4 0.7 0.3
v 0.5 0 0.3
v 0.5 0.5 0.3
v 0.5 0.6 0.3
v 0.5 0.7 0.3
v -0.4 0.5 0.2
v -0.4 0.6 0.2
v -0.4 0.7 0.2
v -0.4 0.8 0.2
v -0.3 0.5 0.2
v -0.3 0.6 0.2
v -0.3 0.7 0.2
v -0.3 0.8 0.2
v -0.2 0.5 0.2
v -0.2 0.6 0.2
v -0.2 0.7 0.2
v -0.2 0.8 0.2
v -0.1 0.5 0.2
v -0.1 0.6 0.2
v -0.1 0.7 0.2
v -0.1 0.8 0.2
v 0 0.7 0.2
v 0 0.8 0.2
v 0.1 0.7 0.2
v 0.1 0.8 0.2
v 0.2 0.5 0.2
v 0.2 0.6 0.2
v 0.2 0.7 0.2
v 0.2 0.8 0.2
v 0.3 0.5 0.2
v 0.3 0.6 0.2
v 0.3 0.7 0.2
v 0.3 0.8 0.2
v 0.4 0.5 0.2
v 0.4 0.6 0.2
v 0.4 0.7 0.2
v 0.4 0.8 0.2
v 0.5 0.5 0.2
v 0.5 0.6 0.2
v 0.5 0.7 0.2
v 0.5 0.8 0.2
v -0.4 0.8 0.1
v -0.4 0.9 0.1
v -0.3 0.8 0.1
v -0.3 0.9 0.1
v -0.2 0.8 0.1
v -0.2 0.9 0.1
v -0.1 0.8 0.1
v -0.1 0.9 0.1
v 0 0.8 0.1
v 0 0.9 0.1
v 0.1 0.8 0.1
v 0.1 0.9 0.1
v 0.2 0.8 0.1
v 0.2 0.9 0.1
v 0.3 0.8 0.1
v 0.3 0.9 0.1
v 0.4 0.8 0.1
v 0.4 0.9 0.1
v 0.5 0.8 0.1
v 0.5 0.9 0.1
v -0.4 0.5 0
v -0.4 0.6 0
v -0.3 0.5 0
v -0.3 0.6 0
v 0.4 0.5 0
v 0.4 0.6 0
v 0.5 0.5 0
v 0.5 0.6 0
v -0.4 0.5 -0.2
v -0.4 0.6 -0.2
v -0.3 0.5 -0.2
v -0.3 0.6 -0.2
v 0.4 0.5 -0.2
v 0.4 0.6 -0.2
v 0.5 0.5 -0.2
v 0.5 0.6 -0.2
v -0.4 0.5 0.1
v -0.4 0.6 0.1
v -0.3 0.5 0.1
v -0.3 0.6 0.1
v 0.4 0.5 0.1
v 0.4 0.6 0.1
v 0.5 0.5 0.1
v 0.5 0.6 0.1
v -0.4 0.5 -0.1
v -0.4 0.6 -0.1
v -0.3 0.5 -0.1
v -0.3 0.6 -0.1
v 0.4 0.5 -0.1
v 0.4 0.6 -0.1
v 0.5 0.5 -0.1
v 0.5 0.6 -0.1
v -0.4 0.8 -0.2
v -0.4 0.9 -0.2
v -0.3 0.8 -0.2
v -0.3 0.9 -0.2
v -0.2 0.8 -0.2
v -0.2 0.9 -0.2
v -0.1 0.8 -0.2
v -0.1 0.9 -0.2
v 0 0.8 -0.2
v 0 0.9 -0.2
v 0.1 0.8 -0.2
v 0.1 0.9 -0.2
v 0.2 0.8 -0.2
v 0.2 0.9 -0.2
v 0.3 0.8 -0.2
v 0.3 0.9 -0.2
v 0.4 0.8 -0.2
v 0.4 0.9 -0.2
v 0.5 0.8 -0.2
v 0.5 0.9 -0.2
v -0.4 0.7 -0.3
v -0.4 0.8 -0.3
v -0.3 0.7 -0.3
v -0.3 0.8 -0.3
v -0.2 0.7 -0.3
v -0.2 0.8 -0.3
v -0.1 0.7 -0.3
v -0.1 0.8 -0.3
v 0 0.7 -0.3
v 0 0.8 -0.3
v 0.1 0.7 -0.3
v 0.1 0.8 -0.3
v 0.2 0.7 -0.3
v 0.2 0.8 -0.3
v 0.3 0.7 -0.3
v 0.3 0.8 -0.3
v 0.4 0.7 -0.3
v 0.4 0.8 -0.3
v 0.5 0.7 -0.3
v 0.5 0.8 -0.3
v -0.4 0 -0.4
v -0.4 0.7 -0.4
v -0.3 0.1 -0.4
v -0.3 0.4 -0.4
v -0.3 0.6 -0.4
v -0.3 0.7 -0.4
v -0.2 0.1 -0.4
v -0.2 0.4 -0.4
v -0.2 0.6 -0.4
v -0.2 0.7 -0.4
v -0.1 0.1 -0.4
v -0.1 0.4 -0.4
v -0.1 0.6 -0.4
v -0.1 0.7 -0.4
v 0 0.1 -0.4
v 0 0.4 -0.4
v 0 0.6 -0.4
v 0 0.7 -0.4
v 0.1 0.1 -0.4
v 0.1 0.4 -0.4
v 0.1 0.6 -0.4
v 0.1 0.7 -0.4
v 0.2 0.1 -0.4
v 0.2 0.4 -0.4
v 0.2 0.6 -0.4
v 0.2 0.7 -0.4
v 0.3 0.1 -0.4
v 0.3 0.4 -0.4
v 0.3 0.6 -0.4
v 0.3 0.7 -0.4
v 0.4 0.1 -0.4
v 0.4 0.4 -0.4
v 0.4 0.6 -0.4
v 0.4 0.7 -0.4
v 0.5 0 -0.4
v 0.5 0.7 -0.4
v -0.4 0 0.3
v 0.5 0 0.3
v -0.4 0 -0.4
v 0.5 0 -0.4
v -0.1 0.3 0.4
v 0.2 0.3 0.4
v -0.1 0.3 0.3
v 0 0.3 0.3
v 0.1 0.3 0.3
v 0.2 0.3 0.3
v -0.4 0.6 0.3
v -0.3 0.6 0.3
v -0.2 0.6 0.3
v -0.1 0.6 0.3
v 0.2 0.6 0.3
v 0.3 0.6 0.3
v 0.4 0.6 0.3
v 0.5 0.6 0.3
v -0.4 0.6 0.2
v -0.3 0.6 0.2
v -0.2 0.6 0.2
v -0.1 0.6 0.2
v 0.2 0.6 0.2
v 0.3 0.6 0.2
v 0.4 0.6 0.2
v 0.5 0.6 0.2
v -0.4 0.6 0.1
v -0.3 0.6 0.1
v 0.4 0.6 0.1
v 0.5 0.6 0.1
v -0.4 0.6 0
v -0.3 0.6 0
v 0.4 0.6 0
v 0.5 0.6 0
v -0.4 0.6 -0.1
v -0.3 0.6 -0.1
v 0.4 0.6 -0.1
v 0.5 0.6 -0.1
v -0.4 0.6 -0.2
v -0.3 0.6 -0.2
v 0.4 0.6 -0.2
v 0.5 0.6 -0.2
v -0.4 0.5 0.3
v -0.3 0.5 0.3
v -0.2 0.5 0.3
v -0.1 0.5 0.3
v 0.2 0.5 0.3
v 0.3 0.5 0.3
v 0.4 0.5 0.3
v 0.5 0.5 0.3
v -0.4 0.5 0.2
v -0.3 0.5 0.2
v -0.2 0.5 0.2
v -0.1 0.5 0.2
v 0.2 0.5 0.2
v 0.3 0.5 0.2
v 0.4 0.5 0.2
v 0.5 0.5 0.2
v -0.4 0.5 0.1
v -0.3 0.5 0.1
v 0.4 0.5 0.1
v 0.5 0.5 0.1
v -0.4 0.5 0
v -0.3 0.5 0
v 0.4 0.5 0
v 0.5 0.5 0
v -0.4 0.5 -0.1
v -0.3 0.5 -0.1
v 0.4 0.5 -0.1
v 0.5 0.5 -0.1
v -0.4 0.5 -0.2
v -0.3 0.5 -0.2
v 0.4 0.5 -0.2
v 0.5 0.5 -0.2
v -0.1 0.6 0.4
v 0.2 0.6 0.4
v -0.1 0.6 0.3
v 0 0.6 0.3
v 0.1 0.6 0.3
v 0.2 0.6 0.3
v -0.4 0.7 0.3
v -0.3 0.7 0.3
v -0.2 0.7 0.3
v -0.1 0.7 0.3
v 0 0.7 0.3
v 0.1 0.7 0.3
v 0.2 0.7 0.3
v 0.3 0.7 0.3
v 0.4 0.7 0.3
v 0.5 0.7 0.3
v -0.4 0.7 0.2
v -0.3 0.7 0.2
v -0.2 0.7 0.2
v -0.1 0.7 0.2
v 0 0.7 0.2
v 0.1 0.7 0.2
v 0.2 0.7 0.2
v 0.3 0.7 0.2
v 0.4 0.7 0.2
v 0.5 0.7 0.2
v -0.4 0.7 -0.3
v -0.3 0.7 -0.3
v -0.2 0.7 -0.3
v -0.1 0.7 -0.3
v 0 0.7 -0.3
v 0.1 0.7 -0.3
v 0.2 0.7 -0.3
v 0.3 0.7 -0.3
v 0.4 0.7 -0.3
v 0.5 0.7 -0.3
v -0.4 0.7 -0.4
v -0.3 0.7 -0.4
v -0.2 0.7 -0.4
v -0.1 0.7 -0.4
v 0 0.7 -0.4
v 0.1 0.7 -0.4
v 0.2 0.7 -0.4
v 0.3 0.7 -0.4
v 0.4 0.7 -0.4
v 0.5 0.7 -0.4
v -0.4 0.8 0.2
v -0.3 0.8 0.2
v -0.2 0.8 0.2
v -0.1 0.8 0.2
v 0 0.8 0.2
v 0.1 0.8 0.2
v 0.2 0.8 0.2
v 0.3 0.8 0.2
v 0.4 0.8 0.2
v 0.5 0.8 0.2
v -0.4 0.8 0.1
v -0.3 0.8 0.1
v -0.2 0.8 0.1
v -0.1 0.8 0.1
v 0 0.8 0.1
v 0.1 0.8 0.1
v 0.2 0.8 0.1
v 0.3 0.8 0.1
v 0.4 0.8 0.1
v 0.5 0.8 0.1
v -0.4 0.8 -0.2
v -0.3 0.8 -0.2
v -0.2 0.8 -0.2
v -0.1 0.8 -0.2
v 0 0.8 -0.2
v 0.1 0.8 -0.2
v 0.2 0.8 -0.2
v 0.3 0.8 -0.2
v 0.4 0.8 -0.2
v 0.5 0.8 -0.2
v -0.4 0.8 -0.3
v -0.3 0.8 -0.3
v -0.2 0.8 -0.3
v -0.1 0.8 -0.3
v 0 0.8 -0.3
v 0.1 0.8 -0.3
v 0.2 0.8 -0.3
v 0.3 0.8 -0.3
v 0.4 0.8 -0.3
v 0.5 0.8 -0.3
v -0.4 0.9 0.1
v -0.3 0.9 0.1
v -0.2 0.9 0.1
v -0.1 0.9 0.1
v 0 0.9 0.1
v 0.1 0.9 0.1
v 0.2 0.9 0.1
v 0.3 0.9 0.1
v 0.4 0.9 0.1
v 0.5 0.9 0.1
v -0.4 0.9 -0.2
v -0.3 0.9 -0.2
v -0.2 0.9 -0.2
v -0.1 0.9 -0.2
v 0 0.9 -0.2
v 0.1 0.9 -0.2
v 0.2 0.9 -0.2
v 0.3 0.9 -0.2
v 0.4 0.9 -0.2
v 0.5 0.9 -0.2

# faces
f 3/3/1 2/3/1 1/3/1
f 4/3/1 2/3/1 3/3/1
f 5/3/1 2/3/1 4/3/1
f 6/3/1 2/3/1 5/3/1
f 7/3/1 2/3/1 6/3/1
f 8/3/1 2/3/1 7/3/1
f 9/3/1 3/3/1 1/3/1
f 9/2/1 4/2/1 3/2/1
f 10/4/1 5/4/1 4/4/1
f 10/2/1 4/2/1 9/2/1
f 11/2/1 6/2/1 5/2/1
f 11/4/1 5/4/1 10/4/1
f 12/4/1 7/4/1 6/4/1
f 12/2/1 6/2/1 11/2/1
f 13/2/1 8/2/1 7/2/1
f 13/4/1 7/4/1 12/4/1
f 14/3/1 2/3/1 8/3/1
f 14/2/1 8/2/1 13/2/1
f 15/3/1 13/3/1 12/3/1
f 15/3/1 12/3/1 11/3/1
f 15/3/1 14/3/1 13/3/1
f 15/3/1 11/3/1 10/3/1
f 15/3/1 10/3/1 9/3/1
f 15/3/1 9/3/1 1/3/1
f 16/3/1 14/3/1 15/3/1
f 17/3/1 14/3/1 16/3/1
f 18/3/1 14/3/1 17/3/1
f 19/3/1 14/3/1 18/3/1
f 20/3/1 14/3/1 19/3/1
f 21/3/1 2/3/1 14/3/1
f 21/3/1 14/3/1 20/3/1
f 23/5/1 17/5/1 16/5/1
f 24/5/1 17/5/1 23/5/1
f 25/5/1 19/5/1 18/5/1
f 26/5/1 19/5/1 25/5/1
f 27/5/1 21/5/1 20/5/1
f 28/3/1 2/3/1 21/3/1
f 28/5/1 21/5/1 27/5/1
f 29/3/1 23/3/1 22/3/1
f 30/2/1 27/2/1 26/2/1
f 30/3/1 23/3/1 29/3/1
f 30/2/1 26/2/1 25/2/1
f 30/2/1 28/2/1 27/2/1
f 30/2/1 24/2/1 23/2/1
f 30/2/1 25/2/1 24/2/1
f 31/2/1 28/2/1 30/2/1
f 32/2/1 28/2/1 31/2/1
f 33/3/1 2/3/1 28/3/1
f 33/2/1 28/2/1 32/2/1
f 34/3/1 2/3/1 33/3/1
f 35/3/1 31/3/1 30/3/1
f 36/2/1 32/2/1 31/2/1
f 36/3/1 31/3/1 35/3/1
f 37/3/1 33/3/1 32/3/1
f 37/2/1 32/2/1 36/2/1
f 38/3/1 33/3/1 37/3/1
f 39/3/1 37/3/1 36/3/1
f 40/3/1 37/3/1 39/3/1
f 47/5/1 42/5/1 41/5/1
f 48/5/1 42/5/1 47/5/1
f 49/6/1 44/6/1 43/6/1
f 50/6/1 44/6/1 49/6/1
f 51/6/1 46/6/1 45/6/1
f 52/6/1 46/6/1 51/6/1
f 55/1/1 54/1/1 53/1/1
f 56/1/1 55/1/1 53/1/1
f 58/1/1 56/1/1 53/1/1
f 58/1/1 57/1/1 56/1/1
f 59/1/1 57/1/1 58/1/1
f 60/1/1 57/1/1 59/1/1
f 63/5/1 62/5/1 61/5/1
f 64/5/1 62/5/1 63/5/1
f 65/5/2 66/5/2 67/5/2
f 67/5/2 66/5/2 68/5/2
f 69/1/2 70/1/2 71/1/2
f 69/1/2 71/1/2 72/1/2
f 69/1/2 72/1/2 74/1/2
f 72/1/2 73/1/2 74/1/2
f 74/1/2 73/1/2 75/1/2
f 75/1/2 73/1/2 76/1/2
f 77/5/2 78/5/2 83/5/2
f 83/5/2 78/5/2 84/5/2
f 79/6/2 80/6/2 85/6/2
f 85/6/2 80/6/2 86/6/2
f 81/6/2 82/6/2 87/6/2
f 87/6/2 82/6/2 88/6/2
f 89/3/2 90/3/2 91/3/2
f 91/3/2 90/3/2 92/3/2
f 92/3/2 90/3/2 93/3/2
f 93/3/2 90/3/2 94/3/2
f 94/3/2 90/3/2 95/3/2
f 95/3/2 90/3/2 96/3/2
f 89/3/2 91/3/2 97/3/2
f 91/2/2 92/2/2 97/2/2
f 92/4/2 93/4/2 98/4/2
f 97/2/2 92/2/2 98/2/2
f 93/2/2 94/2/2 99/2/2
f 98/4/2 93/4/2 99/4/2
f 94/4/2 95/4/2 100/4/2
f 99/2/2 94/2/2 100/2/2
f 95/2/2 96/2/2 101/2/2
f 100/4/2 95/4/2 101/4/2
f 96/3/2 90/3/2 102/3/2
f 101/2/2 96/2/2 102/2/2
f 100/3/2 101/3/2 103/3/2
f 99/3/2 100/3/2 103/3/2
f 101/3/2 102/3/2 103/3/2
f 98/3/2 99/3/2 103/3/2
f 97/3/2 98/3/2 103/3/2
f 89/3/2 97/3/2 103/3/2
f 103/3/2 102/3/2 104/3/2
f 104/3/2 102/3/2 105/3/2
f 105/3/2 102/3/2 106/3/2
f 106/3/2 102/3/2 107/3/2
f 107/3/2 102/3/2 108/3/2
f 102/3/2 90/3/2 109/3/2
f 108/3/2 102/3/2 109/3/2
f 104/5/2 105/5/2 111/5/2
f 111/5/2 105/5/2 112/5/2
f 106/5/2 107/5/2 113/5/2
f 113/5/2 107/5/2 114/5/2
f 108/5/2 109/5/2 115/5/2
f 109/3/2 90/3/2 116/3/2
f 115/5/2 109/5/2 116/5/2
f 110/3/2 111/3/2 117/3/2
f 114/2/2 115/2/2 118/2/2
f 117/3/2 111/3/2 118/3/2
f 113/2/2 114/2/2 118/2/2
f 115/2/2 116/2/2 118/2/2
f 111/2/2 112/2/2 118/2/2
f 112/2/2 113/2/2 118/2/2
f 118/2/2 116/2/2 119/2/2
f 119/2/2 116/2/2 120/2/2
f 116/3/2 90/3/2 121/3/2
f 120/2/2 116/2/2 121/2/2
f 121/3/2 90/3/2 122/3/2
f 118/3/2 119/3/2 123/3/2
f 119/2/2 120/2/2 124/2/2
f 123/3/2 119/3/2 124/3/2
f 120/3/2 121/3/2 125/3/2
f 124/2/2 120/2/2 125/2/2
f 125/3/2 121/3/2 126/3/2
f 124/3/2 125/3/2 127/3/2
f 127/3/2 125/3/2 128/3/2
f 131/1/3 130/1/3 129/1/3
f 132/1/3 130/1/3 131/1/3
f 137/3/3 134/3/3 133/3/3
f 138/3/3 134/3/3 137/3/3
f 139/3/3 134/3/3 138/3/3
f 140/3/3 136/3/3 135/3/3
f 141/3/3 136/3/3 140/3/3
f 142/3/3 137/3/3 133/3/3
f 142/2/3 138/2/3 137/2/3
f 143/3/3 139/3/3 138/3/3
f 143/2/3 138/2/3 142/2/3
f 144/5/3 140/5/3 139/5/3
f 144/3/3 139/3/3 143/3/3
f 145/2/3 141/2/3 140/2/3
f 145/5/3 140/5/3 144/5/3
f 146/2/3 141/2/3 145/2/3
f 147/3/3 142/3/3 133/3/3
f 147/4/3 143/4/3 142/4/3
f 148/4/3 143/4/3 147/4/3
f 149/3/3 144/3/3 143/3/3
f 149/4/3 143/4/3 148/4/3
f 150/3/3 144/3/3 149/3/3
f 151/4/3 146/4/3 145/4/3
f 152/4/3 146/4/3 151/4/3
f 153/2/3 148/2/3 147/2/3
f 153/3/3 147/3/3 133/3/3
f 154/2/3 148/2/3 153/2/3
f 155/2/3 152/2/3 151/2/3
f 156/2/3 152/2/3 155/2/3
f 157/4/3 154/4/3 153/4/3
f 157/3/3 153/3/3 133/3/3
f 158/4/3 154/4/3 157/4/3
f 159/4/3 156/4/3 155/4/3
f 160/4/3 156/4/3 159/4/3
f 161/2/3 158/2/3 157/2/3
f 161/3/3 157/3/3 133/3/3
f 162/2/3 158/2/3 161/2/3
f 165/2/3 160/2/3 159/2/3
f 166/2/3 160/2/3 165/2/3
f 167/3/3 161/3/3 133/3/3
f 167/4/3 162/4/3 161/4/3
f 167/4/3 163/4/3 162/4/3
f 168/3/3 164/3/3 163/3/3
f 168/4/3 163/4/3 167/4/3
f 169/3/3 164/3/3 168/3/3
f 170/4/3 166/4/3 165/4/3
f 171/4/3 166/4/3 170/4/3
f 172/3/3 167/3/3 133/3/3
f 172/2/3 168/2/3 167/2/3
f 173/3/3 169/3/3 168/3/3
f 173/2/3 168/2/3 172/2/3
f 174/5/3 170/5/3 169/5/3
f 174/3/3 169/3/3 173/3/3
f 175/2/3 171/2/3 170/2/3
f 175/5/3 170/5/3 174/5/3
f 176/2/3 171/2/3 175/2/3
f 177/3/3 172/3/3 133/3/3
f 177/3/3 174/3/3 173/3/3
f 177/3/3 173/3/3 172/3/3
f 178/3/3 174/3/3 177/3/3
f 179/3/3 176/3/3 175/3/3
f 180/3/3 176/3/3 179/3/3
f 185/5/3 182/5/3 181/5/3
f 186/5/3 182/5/3 185/5/3
f 187/3/3 184/3/3 183/3/3
f 188/3/3 184/3/3 187/3/3
f 191/2/3 188/2/3 187/2/3
f 192/2/3 188/2/3 191/2/3
f 193/6/3 190/6/3 189/6/3
f 194/6/3 190/6/3 193/6/3
f 195/4/3 192/4/3 191/4/3
f 196/4/3 192/4/3 195/4/3
f 197/2/3 196/2/3 195/2/3
f 198/2/3 196/2/3 197/2/3
f 199/4/3 198/4/3 197/4/3
f 200/4/3 198/4/3 199/4/3
f 203/2/3 200/2/3 199/2/3
f 204/2/3 200/2/3 203/2/3
f 205/6/3 202/6/3 201/6/3
f 206/6/3 202/6/3 205/6/3
f 207/4/3 204/4/3 203/4/3
f 208/4/3 204/4/3 207/4/3
f 211/2/3 208/2/3 207/2/3
f 212/2/3 208/2/3 211/2/3
f 213/5/3 210/5/3 209/5/3
f 214/5/3 210/5/3 213/5/3
f 215/3/3 212/3/3 211/3/3
f 216/3/3 212/3/3 215/3/3
f 219/3/3 218/3/3 217/3/3
f 220/3/3 218/3/3 219/3/3
f 221/2/3 220/2/3 219/2/3
f 222/2/3 220/2/3 221/2/3
f 223/4/3 222/4/3 221/4/3
f 224/4/3 222/4/3 223/4/3
f 225/2/3 224/2/3 223/2/3
f 226/2/3 224/2/3 225/2/3
f 227/4/3 226/4/3 225/4/3
f 228/4/3 226/4/3 227/4/3
f 229/2/3 228/2/3 227/2/3
f 230/2/3 228/2/3 229/2/3
f 231/4/3 230/4/3 229/4/3
f 232/4/3 230/4/3 231/4/3
f 233/2/3 232/2/3 231/2/3
f 234/2/3 232/2/3 233/2/3
f 235/3/3 234/3/3 233/3/3
f 236/3/3 234/3/3 235/3/3
f 239/5/3 238/5/3 237/5/3
f 240/5/3 238/5/3 239/5/3
f 243/5/3 242/5/3 241/5/3
f 244/5/3 242/5/3 243/5/3
f 247/5/3 246/5/3 245/5/3
f 248/5/3 246/5/3 247/5/3
f 251/5/3 250/5/3 249/5/3
f 252/5/3 250/5/3 251/5/3
f 253/5/4 254/5/4 255/5/4
f 255/5/4 254/5/4 256/5/4
f 257/5/4 258/5/4 259/5/4
f 259/5/4 258/5/4 260/5/4
f 261/5/4 262/5/4 263/5/4
f 263/5/4 262/5/4 264/5/4
f 265/5/4 266/5/4 267/5/4
f 267/5/4 266/5/4 268/5/4
f 269/3/4 270/3/4 271/3/4
f 271/3/4 270/3/4 272/3/4
f 271/2/4 272/2/4 273/2/4
f 273/2/4 272/2/4 274/2/4
f 273/4/4 274/4/4 275/4/4
f 275/4/4 274/4/4 276/4/4
f 275/2/4 276/2/4 277/2/4
f 277/2/4 276/2/4 278/2/4
f 277/4/4 278/4/4 279/4/4
f 279/4/4 278/4/4 280/4/4
f 279/2/4 280/2/4 281/2/4
f 281/2/4 280/2/4 282/2/4
f 281/4/4 282/4/4 283/4/4
f 283/4/4 282/4/4 284/4/4
f 283/2/4 284/2/4 285/2/4
f 285/2/4 284/2/4 286/2/4
f 285/3/4 286/3/4 287/3/4
f 287/3/4 286/3/4 288/3/4
f 289/3/4 290/3/4 291/3/4
f 291/3/4 290/3/4 292/3/4
f 291/2/4 292/2/4 293/2/4
f 293/2/4 292/2/4 294/2/4
f 293/4/4 294/4/4 295/4/4
f 295/4/4 294/4/4 296/4/4
f 295/2/4 296/2/4 297/2/4
f 297/2/4 296/2/4 298/2/4
f 297/4/4 298/4/4 299/4/4
f 299/4/4 298/4/4 300/4/4
f 299/2/4 300/2/4 301/2/4
f 301/2/4 300/2/4 302/2/4
f 301/4/4 302/4/4 303/4/4
f 303/4/4 302/4/4 304/4/4
f 303/2/4 304/2/4 305/2/4
f 305/2/4 304/2/4 306/2/4
f 305/3/4 306/3/4 307/3/4
f 307/3/4 306/3/4 308/3/4
f 309/3/4 310/3/4 311/3/4
f 311/3/4 310/3/4 312/3/4
f 312/3/4 310/3/4 313/3/4
f 313/3/4 310/3/4 314/3/4
f 309/3/4 311/3/4 315/3/4
f 311/2/4 312/2/4 315/2/4
f 312/3/4 313/3/4 316/3/4
f 315/2/4 312/2/4 316/2/4
f 313/2/4 314/2/4 317/2/4
f 316/3/4 313/3/4 317/3/4
f 317/2/4 314/2/4 318/2/4
f 315/4/4 316/4/4 319/4/4
f 309/3/4 315/3/4 319/3/4
f 316/3/4 317/3/4 320/3/4
f 319/4/4 316/4/4 320/4/4
f 317/4/4 318/4/4 321/4/4
f 320/3/4 317/3/4 321/3/4
f 321/4/4 318/4/4 322/4/4
f 319/2/4 320/2/4 323/2/4
f 309/3/4 319/3/4 323/3/4
f 320/3/4 321/3/4 324/3/4
f 323/2/4 320/2/4 324/2/4
f 321/2/4 322/2/4 325/2/4
f 324/3/4 321/3/4 325/3/4
f 325/2/4 322/2/4 326/2/4
f 323/4/4 324/4/4 327/4/4
f 309/3/4 323/3/4 327/3/4
f 324/3/4 325/3/4 328/3/4
f 327/4/4 324/4/4 328/4/4
f 325/4/4 326/4/4 329/4/4
f 328/3/4 325/3/4 329/3/4
f 329/4/4 326/4/4 330/4/4
f 327/2/4 328/2/4 331/2/4
f 309/3/4 327/3/4 331/3/4
f 328/3/4 329/3/4 332/3/4
f 331/2/4 328/2/4 332/2/4
f 329/2/4 330/2/4 333/2/4
f 332/3/4 329/3/4 333/3/4
f 333/2/4 330/2/4 334/2/4
f 331/4/4 332/4/4 335/4/4
f 309/3/4 331/3/4 335/3/4
f 332/3/4 333/3/4 336/3/4
f 335/4/4 332/4/4 336/4/4
f 333/4/4 334/4/4 337/4/4
f 336/3/4 333/3/4 337/3/4
f 337/4/4 334/4/4 338/4/4
f 335/2/4 336/2/4 339/2/4
f 309/3/4 335/3/4 339/3/4
f 336/3/4 337/3/4 340/3/4
f 339/2/4 336/2/4 340/2/4
f 337/2/4 338/2/4 341/2/4
f 340/3/4 337/3/4 341/3/4
f 341/2/4 338/2/4 342/2/4
f 339/3/4 340/3/4 343/3/4
f 309/3/4 339/3/4 343/3/4
f 341/3/4 342/3/4 343/3/4
f 340/3/4 341/3/4 343/3/4
f 343/3/4 342/3/4 344/3/4
f 347/3/5 346/3/5 345/3/5
f 348/3/5 346/3/5 347/3/5
f 351/1/5 350/1/5 349/1/5
f 352/1/5 350/1/5 351/1/5
f 353/1/5 350/1/5 352/1/5
f 354/1/5 350/1/5 353/1/5
f 363/3/5 356/3/5 355/3/5
f 364/3/5 356/3/5 363/3/5
f 365/4/5 358/4/5 357/4/5
f 366/4/5 358/4/5 365/4/5
f 367/4/5 360/4/5 359/4/5
f 368/4/5 360/4/5 367/4/5
f 369/3/5 362/3/5 361/3/5
f 370/3/5 362/3/5 369/3/5
f 375/2/5 372/2/5 371/2/5
f 376/2/5 372/2/5 375/2/5
f 377/2/5 374/2/5 373/2/5
f 378/2/5 374/2/5 377/2/5
f 383/2/5 380/2/5 379/2/5
f 384/2/5 380/2/5 383/2/5
f 385/2/5 382/2/5 381/2/5
f 386/2/5 382/2/5 385/2/5
f 387/3/6 388/3/6 395/3/6
f 395/3/6 388/3/6 396/3/6
f 389/3/6 390/3/6 397/3/6
f 397/3/6 390/3/6 398/3/6
f 391/3/6 392/3/6 399/3/6
f 399/3/6 392/3/6 400/3/6
f 393/3/6 394/3/6 401/3/6
f 401/3/6 394/3/6 402/3/6
f 403/3/6 404/3/6 407/3/6
f 407/3/6 404/3/6 408/3/6
f 405/3/6 406/3/6 409/3/6
f 409/3/6 406/3/6 410/3/6
f 411/3/6 412/3/6 415/3/6
f 415/3/6 412/3/6 416/3/6
f 413/3/6 414/3/6 417/3/6
f 417/3/6 414/3/6 418/3/6
f 419/1/6 420/1/6 421/1/6
f 421/1/6 420/1/6 422/1/6
f 422/1/6 420/1/6 423/1/6
f 423/1/6 420/1/6 424/1/6
f 425/3/6 426/3/6 435/3/6
f 426/2/6 427/2/6 436/2/6
f 435/3/6 426/3/6 436/3/6
f 427/4/6 428/4/6 437/4/6
f 436/2/6 427/2/6 437/2/6
f 428/2/6 429/2/6 438/2/6
f 437/4/6 428/4/6 438/4/6
f 429/4/6 430/4/6 439/4/6
f 438/2/6 429/2/6 439/2/6
f 430/2/6 431/2/6 440/2/6
f 439/4/6 430/4/6 440/4/6
f 431/4/6 432/4/6 441/4/6
f 440/2/6 431/2/6 441/2/6
f 432/2/6 433/2/6 442/2/6
f 441/4/6 432/4/6 442/4/6
f 433/3/6 434/3/6 443/3/6
f 442/2/6 433/2/6 443/2/6
f 443/3/6 434/3/6 444/3/6
f 445/3/6 446/3/6 455/3/6
f 446/2/6 447/2/6 456/2/6
f 455/3/6 446/3/6 456/3/6
f 447/4/6 448/4/6 457/4/6
f 456/2/6 447/2/6 457/2/6
f 448/2/6 449/2/6 458/2/6
f 457/4/6 448/4/6 458/4/6
f 449/4/6 450/4/6 459/4/6
f 458/2/6 449/2/6 459/2/6
f 450/2/6 451/2/6 460/2/6
f 459/4/6 450/4/6 460/4/6
f 451/4/6 452/4/6 461/4/6
f 460/2/6 451/2/6 461/2/6
f 452/2/6 453/2/6 462/2/6
f 461/4/6 452/4/6 462/4/6
f 453/3/6 454/3/6 463/3/6
f 462/2/6 453/2/6 463/2/6
f 463/3/6 454/3/6 464/3/6
f 465/3/6 466/3/6 475/3/6
f 466/2/6 467/2/6 476/2/6
f 475/3/6 466/3/6 476/3/6
f 467/4/6 468/4/6 477/4/6
f 476/2/6 467/2/6 477/2/6
f 468/2/6 469/2/6 478/2/6
f 477/4/6 468/4/6 478/4/6
f 469/4/6 470/4/6 479/4/6
f 478/2/6 469/2/6 479/2/6
f 470/2/6 471/2/6 480/2/6
f 479/4/6 470/4/6 480/4/6
f 471/4/6 472/4/6 481/4/6
f 480/2/6 471/2/6 481/2/6
f 472/2/6 473/2/6 482/2/6
f 481/4/6 472/4/6 482/4/6
f 473/3/6 474/3/6 483/3/6
f 482/2/6 473/2/6 483/2/6
f 483/3/6 474/3/6 484/3/6
f 485/3/6 486/3/6 495/3/6
f 486/2/6 487/2/6 496/2/6
f 495/3/6 486/3/6 496/3/6
f 487/4/6 488/4/6 497/4/6
f 496/2/6 487/2/6 497/2/6
f 488/2/6 489/2/6 498/2/6
f 497/4/6 488/4/6 498/4/6
f 489/4/6 490/4/6 499/4/6
f 498/2/6 489/2/6 499/2/6
f 490/2/6 491/2/6 500/2/6
f 499/4/6 490/4/6 500/4/6
f 491/4/6 492/4/6 501/4/6
f 500/2/6 491/2/6 501/2/6
f 492/2/6 493/2/6 502/2/6
f 501/4/6 492/4/6 502/4/6
f 493/3/6 494/3/6 503/3/6
f 502/2/6 493/2/6 503/2/6
f 503/3/6 494/3/6 504/3/6
f 505/3/6 506/3/6 515/3/6
f 506/2/6 507/2/6 516/2/6
f 515/3/6 506/3/6 516/3/6
f 507/4/6 508/4/6 517/4/6
f 516/2/6 507/2/6 517/2/6
f 508/2/6 509/2/6 518/2/6
f 517/4/6 508/4/6 518/4/6
f 509/4/6 510/4/6 519/4/6
f 518/2/6 509/2/6 519/2/6
f 510/2/6 511/2/6 520/2/6
f 519/4/6 510/4/6 520/4/6
f 511/4/6 512/4/6 521/4/6
f 520/2/6 511/2/6 521/2/6
f 512/2/6 513/2/6 522/2/6
f 521/4/6 512/4/6 522/4/6
f 513/3/6 514/3/6 523/3/6
f 522/2/6 513/2/6 523/2/6
f 523/3/6 514/3/6 524/3/6
