# MagicaVoxel @ Ephtracy

# group
o 

# material
mtllib mimic_b_walk_2.mtl
usemtl palette

# normals
vn -1 0 0
vn 1 0 0
vn 0 0 1
vn 0 0 -1
vn 0 -1 0
vn 0 1 0

# texcoords
vt 0.728516 0.5
vt 0.787109 0.5
vt 0.814453 0.5
vt 0.822266 0.5
vt 0.947266 0.5
vt 0.970703 0.5

# verts
v -0.4 0.2 0.3
v -0.4 0.2 -0.4
v -0.4 0.3 0.2
v -0.4 0.3 0.1
v -0.4 0.3 0
v -0.4 0.3 -0.1
v -0.4 0.3 -0.2
v -0.4 0.3 -0.3
v -0.4 0.5 0.2
v -0.4 0.5 0.1
v -0.4 0.5 0
v -0.4 0.5 -0.1
v -0.4 0.5 -0.2
v -0.4 0.5 -0.3
v -0.4 0.6 0.3
v -0.4 0.6 0.2
v -0.4 0.6 0.1
v -0.4 0.6 0
v -0.4 0.6 -0.1
v -0.4 0.6 -0.2
v -0.4 0.6 -0.3
v -0.4 0.7 0.3
v -0.4 0.7 0.2
v -0.4 0.7 0.1
v -0.4 0.7 0
v -0.4 0.7 -0.1
v -0.4 0.7 -0.2
v -0.4 0.7 -0.3
v -0.4 0.8 0.3
v -0.4 0.8 0.2
v -0.4 0.8 0.1
v -0.4 0.8 0
v -0.4 0.8 -0.1
v -0.4 0.8 -0.2
v -0.4 0.8 -0.3
v -0.4 0.8 -0.4
v -0.4 0.9 0.2
v -0.4 0.9 -0.3
v -0.3 0.6 0.3
v -0.3 0.6 0.2
v -0.3 0.6 0.1
v -0.3 0.6 0
v -0.3 0.6 -0.1
v -0.3 0.6 -0.2
v -0.3 0.7 0.3
v -0.3 0.7 0.2
v -0.3 0.7 0.1
v -0.3 0.7 0
v -0.3 0.7 -0.1
v -0.3 0.7 -0.2
v -0.1 0.4 0.4
v -0.1 0.4 0.3
v -0.1 0.5 0.3
v -0.1 0.6 0.3
v -0.1 0.6 0.2
v -0.1 0.7 0.4
v -0.1 0.7 0.3
v -0.1 0.7 0.2
v 0.3 0.6 0.3
v 0.3 0.6 0.2
v 0.3 0.7 0.3
v 0.3 0.7 0.2
v -0.2 0.6 0.3
v -0.2 0.6 0.2
v -0.2 0.7 0.3
v -0.2 0.7 0.2
v 0.2 0.4 0.4
v 0.2 0.4 0.3
v 0.2 0.5 0.3
v 0.2 0.6 0.3
v 0.2 0.6 0.2
v 0.2 0.7 0.4
v 0.2 0.7 0.3
v 0.2 0.7 0.2
v 0.4 0.6 0.3
v 0.4 0.6 0.2
v 0.4 0.6 0.1
v 0.4 0.6 0
v 0.4 0.6 -0.1
v 0.4 0.6 -0.2
v 0.4 0.7 0.3
v 0.4 0.7 0.2
v 0.4 0.7 0.1
v 0.4 0.7 0
v 0.4 0.7 -0.1
v 0.4 0.7 -0.2
v 0.5 0.2 0.3
v 0.5 0.2 -0.4
v 0.5 0.3 0.2
v 0.5 0.3 0.1
v 0.5 0.3 0
v 0.5 0.3 -0.1
v 0.5 0.3 -0.2
v 0.5 0.3 -0.3
v 0.5 0.5 0.2
v 0.5 0.5 0.1
v 0.5 0.5 0
v 0.5 0.5 -0.1
v 0.5 0.5 -0.2
v 0.5 0.5 -0.3
v 0.5 0.6 0.3
v 0.5 0.6 0.2
v 0.5 0.6 0.1
v 0.5 0.6 0
v 0.5 0.6 -0.1
v 0.5 0.6 -0.2
v 0.5 0.6 -0.3
v 0.5 0.7 0.3
v 0.5 0.7 0.2
v 0.5 0.7 0.1
v 0.5 0.7 0
v 0.5 0.7 -0.1
v 0.5 0.7 -0.2
v 0.5 0.7 -0.3
v 0.5 0.8 0.3
v 0.5 0.8 0.2
v 0.5 0.8 0.1
v 0.5 0.8 0
v 0.5 0.8 -0.1
v 0.5 0.8 -0.2
v 0.5 0.8 -0.3
v 0.5 0.8 -0.4
v 0.5 0.9 0.2
v 0.5 0.9 -0.3
v -0.1 0.4 0.4
v -0.1 0.7 0.4
v 0.2 0.4 0.4
v 0.2 0.7 0.4
v -0.4 0.2 0.3
v -0.4 0.6 0.3
v -0.4 0.7 0.3
v -0.4 0.8 0.3
v -0.3 0.3 0.3
v -0.3 0.5 0.3
v -0.3 0.6 0.3
v -0.3 0.7 0.3
v -0.3 0.8 0.3
v -0.2 0.3 0.3
v -0.2 0.5 0.3
v -0.2 0.6 0.3
v -0.2 0.7 0.3
v -0.2 0.8 0.3
v -0.1 0.3 0.3
v -0.1 0.4 0.3
v -0.1 0.5 0.3
v -0.1 0.6 0.3
v -0.1 0.7 0.3
v -0.1 0.8 0.3
v 0 0.3 0.3
v 0 0.4 0.3
v 0 0.7 0.3
v 0 0.8 0.3
v 0.1 0.3 0.3
v 0.1 0.4 0.3
v 0.1 0.7 0.3
v 0.1 0.8 0.3
v 0.2 0.3 0.3
v 0.2 0.4 0.3
v 0.2 0.5 0.3
v 0.2 0.6 0.3
v 0.2 0.7 0.3
v 0.2 0.8 0.3
v 0.3 0.3 0.3
v 0.3 0.5 0.3
v 0.3 0.6 0.3
v 0.3 0.7 0.3
v 0.3 0.8 0.3
v 0.4 0.3 0.3
v 0.4 0.5 0.3
v 0.4 0.6 0.3
v 0.4 0.7 0.3
v 0.4 0.8 0.3
v 0.5 0.2 0.3
v 0.5 0.6 0.3
v 0.5 0.7 0.3
v 0.5 0.8 0.3
v -0.4 0.6 0.2
v -0.4 0.7 0.2
v -0.4 0.8 0.2
v -0.4 0.9 0.2
v -0.3 0.6 0.2
v -0.3 0.7 0.2
v -0.3 0.8 0.2
v -0.3 0.9 0.2
v -0.2 0.6 0.2
v -0.2 0.7 0.2
v -0.2 0.8 0.2
v -0.2 0.9 0.2
v -0.1 0.6 0.2
v -0.1 0.7 0.2
v -0.1 0.8 0.2
v -0.1 0.9 0.2
v 0 0.8 0.2
v 0 0.9 0.2
v 0.1 0.8 0.2
v 0.1 0.9 0.2
v 0.2 0.6 0.2
v 0.2 0.7 0.2
v 0.2 0.8 0.2
v 0.2 0.9 0.2
v 0.3 0.6 0.2
v 0.3 0.7 0.2
v 0.3 0.8 0.2
v 0.3 0.9 0.2
v 0.4 0.6 0.2
v 0.4 0.7 0.2
v 0.4 0.8 0.2
v 0.4 0.9 0.2
v 0.5 0.6 0.2
v 0.5 0.7 0.2
v 0.5 0.8 0.2
v 0.5 0.9 0.2
v -0.4 0.6 0
v -0.4 0.7 0
v -0.3 0.6 0
v -0.3 0.7 0
v 0.4 0.6 0
v 0.4 0.7 0
v 0.5 0.6 0
v 0.5 0.7 0
v -0.4 0.6 -0.2
v -0.4 0.7 -0.2
v -0.3 0.6 -0.2
v -0.3 0.7 -0.2
v 0.4 0.6 -0.2
v 0.4 0.7 -0.2
v 0.5 0.6 -0.2
v 0.5 0.7 -0.2
v -0.4 0.6 0.1
v -0.4 0.7 0.1
v -0.3 0.6 0.1
v -0.3 0.7 0.1
v 0.4 0.6 0.1
v 0.4 0.7 0.1
v 0.5 0.6 0.1
v 0.5 0.7 0.1
v -0.4 0.6 -0.1
v -0.4 0.7 -0.1
v -0.3 0.6 -0.1
v -0.3 0.7 -0.1
v 0.4 0.6 -0.1
v 0.4 0.7 -0.1
v 0.5 0.6 -0.1
v 0.5 0.7 -0.1
v -0.4 0.8 -0.3
v -0.4 0.9 -0.3
v -0.3 0.8 -0.3
v -0.3 0.9 -0.3
v -0.2 0.8 -0.3
v -0.2 0.9 -0.3
v -0.1 0.8 -0.3
v -0.1 0.9 -0.3
v 0 0.8 -0.3
v 0 0.9 -0.3
v 0.1 0.8 -0.3
v 0.1 0.9 -0.3
v 0.2 0.8 -0.3
v 0.2 0.9 -0.3
v 0.3 0.8 -0.3
v 0.3 0.9 -0.3
v 0.4 0.8 -0.3
v 0.4 0.9 -0.3
v 0.5 0.8 -0.3
v 0.5 0.9 -0.3
v -0.4 0.2 -0.4
v -0.4 0.8 -0.4
v -0.3 0.3 -0.4
v -0.3 0.5 -0.4
v -0.3 0.7 -0.4
v -0.3 0.8 -0.4
v -0.2 0.3 -0.4
v -0.2 0.5 -0.4
v -0.2 0.7 -0.4
v -0.2 0.8 -0.4
v -0.1 0.3 -0.4
v -0.1 0.5 -0.4
v -0.1 0.7 -0.4
v -0.1 0.8 -0.4
v 0 0.3 -0.4
v 0 0.5 -0.4
v 0 0.7 -0.4
v 0 0.8 -0.4
v 0.1 0.3 -0.4
v 0.1 0.5 -0.4
v 0.1 0.7 -0.4
v 0.1 0.8 -0.4
v 0.2 0.3 -0.4
v 0.2 0.5 -0.4
v 0.2 0.7 -0.4
v 0.2 0.8 -0.4
v 0.3 0.3 -0.4
v 0.3 0.5 -0.4
v 0.3 0.7 -0.4
v 0.3 0.8 -0.4
v 0.4 0.3 -0.4
v 0.4 0.5 -0.4
v 0.4 0.7 -0.4
v 0.4 0.8 -0.4
v 0.5 0.2 -0.4
v 0.5 0.8 -0.4
v -0.4 0.2 0.3
v 0.5 0.2 0.3
v -0.4 0.2 -0.4
v 0.5 0.2 -0.4
v -0.1 0.4 0.4
v 0.2 0.4 0.4
v -0.1 0.4 0.3
v 0 0.4 0.3
v 0.1 0.4 0.3
v 0.2 0.4 0.3
v -0.4 0.7 0.3
v -0.3 0.7 0.3
v -0.2 0.7 0.3
v -0.1 0.7 0.3
v 0.2 0.7 0.3
v 0.3 0.7 0.3
v 0.4 0.7 0.3
v 0.5 0.7 0.3
v -0.4 0.7 0.2
v -0.3 0.7 0.2
v -0.2 0.7 0.2
v -0.1 0.7 0.2
v 0.2 0.7 0.2
v 0.3 0.7 0.2
v 0.4 0.7 0.2
v 0.5 0.7 0.2
v -0.4 0.7 0.1
v -0.3 0.7 0.1
v 0.4 0.7 0.1
v 0.5 0.7 0.1
v -0.4 0.7 0
v -0.3 0.7 0
v 0.4 0.7 0
v 0.5 0.7 0
v -0.4 0.7 -0.1
v -0.3 0.7 -0.1
v 0.4 0.7 -0.1
v 0.5 0.7 -0.1
v -0.4 0.7 -0.2
v -0.3 0.7 -0.2
v 0.4 0.7 -0.2
v 0.5 0.7 -0.2
v -0.4 0.6 0.3
v -0.3 0.6 0.3
v -0.2 0.6 0.3
v -0.1 0.6 0.3
v 0.2 0.6 0.3
v 0.3 0.6 0.3
v 0.4 0.6 0.3
v 0.5 0.6 0.3
v -0.4 0.6 0.2
v -0.3 0.6 0.2
v -0.2 0.6 0.2
v -0.1 0.6 0.2
v 0.2 0.6 0.2
v 0.3 0.6 0.2
v 0.4 0.6 0.2
v 0.5 0.6 0.2
v -0.4 0.6 0.1
v -0.3 0.6 0.1
v 0.4 0.6 0.1
v 0.5 0.6 0.1
v -0.4 0.6 0
v -0.3 0.6 0
v 0.4 0.6 0
v 0.5 0.6 0
v -0.4 0.6 -0.1
v -0.3 0.6 -0.1
v 0.4 0.6 -0.1
v 0.5 0.6 -0.1
v -0.4 0.6 -0.2
v -0.3 0.6 -0.2
v 0.4 0.6 -0.2
v 0.5 0.6 -0.2
v -0.1 0.7 0.4
v 0.2 0.7 0.4
v -0.1 0.7 0.3
v 0 0.7 0.3
v 0.1 0.7 0.3
v 0.2 0.7 0.3
v -0.4 0.8 0.3
v -0.3 0.8 0.3
v -0.2 0.8 0.3
v -0.1 0.8 0.3
v 0 0.8 0.3
v 0.1 0.8 0.3
v 0.2 0.8 0.3
v 0.3 0.8 0.3
v 0.4 0.8 0.3
v 0.5 0.8 0.3
v -0.4 0.8 0.2
v -0.3 0.8 0.2
v -0.2 0.8 0.2
v -0.1 0.8 0.2
v 0 0.8 0.2
v 0.1 0.8 0.2
v 0.2 0.8 0.2
v 0.3 0.8 0.2
v 0.4 0.8 0.2
v 0.5 0.8 0.2
v -0.4 0.8 -0.3
v -0.3 0.8 -0.3
v -0.2 0.8 -0.3
v -0.1 0.8 -0.3
v 0 0.8 -0.3
v 0.1 0.8 -0.3
v 0.2 0.8 -0.3
v 0.3 0.8 -0.3
v 0.4 0.8 -0.3
v 0.5 0.8 -0.3
v -0.4 0.8 -0.4
v -0.3 0.8 -0.4
v -0.2 0.8 -0.4
v -0.1 0.8 -0.4
v 0 0.8 -0.4
v 0.1 0.8 -0.4
v 0.2 0.8 -0.4
v 0.3 0.8 -0.4
v 0.4 0.8 -0.4
v 0.5 0.8 -0.4
v -0.4 0.9 0.2
v -0.3 0.9 0.2
v -0.2 0.9 0.2
v -0.1 0.9 0.2
v 0 0.9 0.2
v 0.1 0.9 0.2
v 0.2 0.9 0.2
v 0.3 0.9 0.2
v 0.4 0.9 0.2
v 0.5 0.9 0.2
v -0.4 0.9 -0.3
v -0.3 0.9 -0.3
v -0.2 0.9 -0.3
v -0.1 0.9 -0.3
v 0 0.9 -0.3
v 0.1 0.9 -0.3
v 0.2 0.9 -0.3
v 0.3 0.9 -0.3
v 0.4 0.9 -0.3
v 0.5 0.9 -0.3

# faces
f 3/3/1 2/3/1 1/3/1
f 4/3/1 2/3/1 3/3/1
f 5/3/1 2/3/1 4/3/1
f 6/3/1 2/3/1 5/3/1
f 7/3/1 2/3/1 6/3/1
f 8/3/1 2/3/1 7/3/1
f 9/3/1 3/3/1 1/3/1
f 9/2/1 4/2/1 3/2/1
f 10/4/1 5/4/1 4/4/1
f 10/2/1 4/2/1 9/2/1
f 11/2/1 6/2/1 5/2/1
f 11/4/1 5/4/1 10/4/1
f 12/4/1 7/4/1 6/4/1
f 12/2/1 6/2/1 11/2/1
f 13/2/1 8/2/1 7/2/1
f 13/4/1 7/4/1 12/4/1
f 14/3/1 2/3/1 8/3/1
f 14/2/1 8/2/1 13/2/1
f 15/3/1 13/3/1 12/3/1
f 15/3/1 12/3/1 11/3/1
f 15/3/1 14/3/1 13/3/1
f 15/3/1 11/3/1 10/3/1
f 15/3/1 10/3/1 9/3/1
f 15/3/1 9/3/1 1/3/1
f 16/3/1 14/3/1 15/3/1
f 17/3/1 14/3/1 16/3/1
f 18/3/1 14/3/1 17/3/1
f 19/3/1 14/3/1 18/3/1
f 20/3/1 14/3/1 19/3/1
f 21/3/1 2/3/1 14/3/1
f 21/3/1 14/3/1 20/3/1
f 23/5/1 17/5/1 16/5/1
f 24/5/1 17/5/1 23/5/1
f 25/5/1 19/5/1 18/5/1
f 26/5/1 19/5/1 25/5/1
f 27/5/1 21/5/1 20/5/1
f 28/3/1 2/3/1 21/3/1
f 28/5/1 21/5/1 27/5/1
f 29/3/1 23/3/1 22/3/1
f 30/2/1 24/2/1 23/2/1
f 30/3/1 23/3/1 29/3/1
f 31/4/1 25/4/1 24/4/1
f 31/2/1 24/2/1 30/2/1
f 32/2/1 26/2/1 25/2/1
f 32/4/1 25/4/1 31/4/1
f 33/4/1 27/4/1 26/4/1
f 33/2/1 26/2/1 32/2/1
f 34/2/1 28/2/1 27/2/1
f 34/4/1 27/4/1 33/4/1
f 35/3/1 2/3/1 28/3/1
f 35/2/1 28/2/1 34/2/1
f 36/3/1 2/3/1 35/3/1
f 37/3/1 32/3/1 31/3/1
f 37/3/1 31/3/1 30/3/1
f 37/3/1 35/3/1 34/3/1
f 37/3/1 33/3/1 32/3/1
f 37/3/1 34/3/1 33/3/1
f 38/3/1 35/3/1 37/3/1
f 45/5/1 40/5/1 39/5/1
f 46/5/1 40/5/1 45/5/1
f 47/6/1 42/6/1 41/6/1
f 48/6/1 42/6/1 47/6/1
f 49/6/1 44/6/1 43/6/1
f 50/6/1 44/6/1 49/6/1
f 53/1/1 52/1/1 51/1/1
f 54/1/1 53/1/1 51/1/1
f 56/1/1 54/1/1 51/1/1
f 56/1/1 55/1/1 54/1/1
f 57/1/1 55/1/1 56/1/1
f 58/1/1 55/1/1 57/1/1
f 61/5/1 60/5/1 59/5/1
f 62/5/1 60/5/1 61/5/1
f 63/5/2 64/5/2 65/5/2
f 65/5/2 64/5/2 66/5/2
f 67/1/2 68/1/2 69/1/2
f 67/1/2 69/1/2 70/1/2
f 67/1/2 70/1/2 72/1/2
f 70/1/2 71/1/2 72/1/2
f 72/1/2 71/1/2 73/1/2
f 73/1/2 71/1/2 74/1/2
f 75/5/2 76/5/2 81/5/2
f 81/5/2 76/5/2 82/5/2
f 77/6/2 78/6/2 83/6/2
f 83/6/2 78/6/2 84/6/2
f 79/6/2 80/6/2 85/6/2
f 85/6/2 80/6/2 86/6/2
f 87/3/2 88/3/2 89/3/2
f 89/3/2 88/3/2 90/3/2
f 90/3/2 88/3/2 91/3/2
f 91/3/2 88/3/2 92/3/2
f 92/3/2 88/3/2 93/3/2
f 93/3/2 88/3/2 94/3/2
f 87/3/2 89/3/2 95/3/2
f 89/2/2 90/2/2 95/2/2
f 90/4/2 91/4/2 96/4/2
f 95/2/2 90/2/2 96/2/2
f 91/2/2 92/2/2 97/2/2
f 96/4/2 91/4/2 97/4/2
f 92/4/2 93/4/2 98/4/2
f 97/2/2 92/2/2 98/2/2
f 93/2/2 94/2/2 99/2/2
f 98/4/2 93/4/2 99/4/2
f 94/3/2 88/3/2 100/3/2
f 99/2/2 94/2/2 100/2/2
f 98/3/2 99/3/2 101/3/2
f 97/3/2 98/3/2 101/3/2
f 99/3/2 100/3/2 101/3/2
f 96/3/2 97/3/2 101/3/2
f 95/3/2 96/3/2 101/3/2
f 87/3/2 95/3/2 101/3/2
f 101/3/2 100/3/2 102/3/2
f 102/3/2 100/3/2 103/3/2
f 103/3/2 100/3/2 104/3/2
f 104/3/2 100/3/2 105/3/2
f 105/3/2 100/3/2 106/3/2
f 100/3/2 88/3/2 107/3/2
f 106/3/2 100/3/2 107/3/2
f 102/5/2 103/5/2 109/5/2
f 109/5/2 103/5/2 110/5/2
f 104/5/2 105/5/2 111/5/2
f 111/5/2 105/5/2 112/5/2
f 106/5/2 107/5/2 113/5/2
f 107/3/2 88/3/2 114/3/2
f 113/5/2 107/5/2 114/5/2
f 108/3/2 109/3/2 115/3/2
f 109/2/2 110/2/2 116/2/2
f 115/3/2 109/3/2 116/3/2
f 110/4/2 111/4/2 117/4/2
f 116/2/2 110/2/2 117/2/2
f 111/2/2 112/2/2 118/2/2
f 117/4/2 111/4/2 118/4/2
f 112/4/2 113/4/2 119/4/2
f 118/2/2 112/2/2 119/2/2
f 113/2/2 114/2/2 120/2/2
f 119/4/2 113/4/2 120/4/2
f 114/3/2 88/3/2 121/3/2
f 120/2/2 114/2/2 121/2/2
f 121/3/2 88/3/2 122/3/2
f 117/3/2 118/3/2 123/3/2
f 116/3/2 117/3/2 123/3/2
f 120/3/2 121/3/2 123/3/2
f 118/3/2 119/3/2 123/3/2
f 119/3/2 120/3/2 123/3/2
f 123/3/2 121/3/2 124/3/2
f 127/1/3 126/1/3 125/1/3
f 128/1/3 126/1/3 127/1/3
f 133/3/3 130/3/3 129/3/3
f 134/3/3 130/3/3 133/3/3
f 135/3/3 130/3/3 134/3/3
f 136/3/3 132/3/3 131/3/3
f 137/3/3 132/3/3 136/3/3
f 138/3/3 133/3/3 129/3/3
f 138/2/3 134/2/3 133/2/3
f 139/3/3 135/3/3 134/3/3
f 139/2/3 134/2/3 138/2/3
f 140/5/3 136/5/3 135/5/3
f 140/3/3 135/3/3 139/3/3
f 141/2/3 137/2/3 136/2/3
f 141/5/3 136/5/3 140/5/3
f 142/2/3 137/2/3 141/2/3
f 143/3/3 138/3/3 129/3/3
f 143/4/3 139/4/3 138/4/3
f 144/4/3 139/4/3 143/4/3
f 145/3/3 140/3/3 139/3/3
f 145/4/3 139/4/3 144/4/3
f 146/3/3 140/3/3 145/3/3
f 147/4/3 142/4/3 141/4/3
f 148/4/3 142/4/3 147/4/3
f 149/2/3 144/2/3 143/2/3
f 149/3/3 143/3/3 129/3/3
f 150/2/3 144/2/3 149/2/3
f 151/2/3 148/2/3 147/2/3
f 152/2/3 148/2/3 151/2/3
f 153/4/3 150/4/3 149/4/3
f 153/3/3 149/3/3 129/3/3
f 154/4/3 150/4/3 153/4/3
f 155/4/3 152/4/3 151/4/3
f 156/4/3 152/4/3 155/4/3
f 157/2/3 154/2/3 153/2/3
f 157/3/3 153/3/3 129/3/3
f 158/2/3 154/2/3 157/2/3
f 161/2/3 156/2/3 155/2/3
f 162/2/3 156/2/3 161/2/3
f 163/3/3 157/3/3 129/3/3
f 163/4/3 158/4/3 157/4/3
f 163/4/3 159/4/3 158/4/3
f 164/3/3 160/3/3 159/3/3
f 164/4/3 159/4/3 163/4/3
f 165/3/3 160/3/3 164/3/3
f 166/4/3 162/4/3 161/4/3
f 167/4/3 162/4/3 166/4/3
f 168/3/3 163/3/3 129/3/3
f 168/2/3 164/2/3 163/2/3
f 169/3/3 165/3/3 164/3/3
f 169/2/3 164/2/3 168/2/3
f 170/5/3 166/5/3 165/5/3
f 170/3/3 165/3/3 169/3/3
f 171/2/3 167/2/3 166/2/3
f 171/5/3 166/5/3 170/5/3
f 172/2/3 167/2/3 171/2/3
f 173/3/3 168/3/3 129/3/3
f 173/3/3 170/3/3 169/3/3
f 173/3/3 169/3/3 168/3/3
f 174/3/3 170/3/3 173/3/3
f 175/3/3 172/3/3 171/3/3
f 176/3/3 172/3/3 175/3/3
f 181/5/3 178/5/3 177/5/3
f 182/5/3 178/5/3 181/5/3
f 183/3/3 180/3/3 179/3/3
f 184/3/3 180/3/3 183/3/3
f 187/2/3 184/2/3 183/2/3
f 188/2/3 184/2/3 187/2/3
f 189/6/3 186/6/3 185/6/3
f 190/6/3 186/6/3 189/6/3
f 191/4/3 188/4/3 187/4/3
f 192/4/3 188/4/3 191/4/3
f 193/2/3 192/2/3 191/2/3
f 194/2/3 192/2/3 193/2/3
f 195/4/3 194/4/3 193/4/3
f 196/4/3 194/4/3 195/4/3
f 199/2/3 196/2/3 195/2/3
f 200/2/3 196/2/3 199/2/3
f 201/6/3 198/6/3 197/6/3
f 202/6/3 198/6/3 201/6/3
f 203/4/3 200/4/3 199/4/3
f 204/4/3 200/4/3 203/4/3
f 207/2/3 204/2/3 203/2/3
f 208/2/3 204/2/3 207/2/3
f 209/5/3 206/5/3 205/5/3
f 210/5/3 206/5/3 209/5/3
f 211/3/3 208/3/3 207/3/3
f 212/3/3 208/3/3 211/3/3
f 215/5/3 214/5/3 213/5/3
f 216/5/3 214/5/3 215/5/3
f 219/5/3 218/5/3 217/5/3
f 220/5/3 218/5/3 219/5/3
f 223/5/3 222/5/3 221/5/3
f 224/5/3 222/5/3 223/5/3
f 227/5/3 226/5/3 225/5/3
f 228/5/3 226/5/3 227/5/3
f 229/5/4 230/5/4 231/5/4
f 231/5/4 230/5/4 232/5/4
f 233/5/4 234/5/4 235/5/4
f 235/5/4 234/5/4 236/5/4
f 237/5/4 238/5/4 239/5/4
f 239/5/4 238/5/4 240/5/4
f 241/5/4 242/5/4 243/5/4
f 243/5/4 242/5/4 244/5/4
f 245/3/4 246/3/4 247/3/4
f 247/3/4 246/3/4 248/3/4
f 247/2/4 248/2/4 249/2/4
f 249/2/4 248/2/4 250/2/4
f 249/4/4 250/4/4 251/4/4
f 251/4/4 250/4/4 252/4/4
f 251/2/4 252/2/4 253/2/4
f 253/2/4 252/2/4 254/2/4
f 253/4/4 254/4/4 255/4/4
f 255/4/4 254/4/4 256/4/4
f 255/2/4 256/2/4 257/2/4
f 257/2/4 256/2/4 258/2/4
f 257/4/4 258/4/4 259/4/4
f 259/4/4 258/4/4 260/4/4
f 259/2/4 260/2/4 261/2/4
f 261/2/4 260/2/4 262/2/4
f 261/3/4 262/3/4 263/3/4
f 263/3/4 262/3/4 264/3/4
f 265/3/4 266/3/4 267/3/4
f 267/3/4 266/3/4 268/3/4
f 268/3/4 266/3/4 269/3/4
f 269/3/4 266/3/4 270/3/4
f 265/3/4 267/3/4 271/3/4
f 267/2/4 268/2/4 271/2/4
f 268/3/4 269/3/4 272/3/4
f 271/2/4 268/2/4 272/2/4
f 269/2/4 270/2/4 273/2/4
f 272/3/4 269/3/4 273/3/4
f 273/2/4 270/2/4 274/2/4
f 271/4/4 272/4/4 275/4/4
f 265/3/4 271/3/4 275/3/4
f 272/3/4 273/3/4 276/3/4
f 275/4/4 272/4/4 276/4/4
f 273/4/4 274/4/4 277/4/4
f 276/3/4 273/3/4 277/3/4
f 277/4/4 274/4/4 278/4/4
f 275/2/4 276/2/4 279/2/4
f 265/3/4 275/3/4 279/3/4
f 276/3/4 277/3/4 280/3/4
f 279/2/4 276/2/4 280/2/4
f 277/2/4 278/2/4 281/2/4
f 280/3/4 277/3/4 281/3/4
f 281/2/4 278/2/4 282/2/4
f 279/4/4 280/4/4 283/4/4
f 265/3/4 279/3/4 283/3/4
f 280/3/4 281/3/4 284/3/4
f 283/4/4 280/4/4 284/4/4
f 281/4/4 282/4/4 285/4/4
f 284/3/4 281/3/4 285/3/4
f 285/4/4 282/4/4 286/4/4
f 283/2/4 284/2/4 287/2/4
f 265/3/4 283/3/4 287/3/4
f 284/3/4 285/3/4 288/3/4
f 287/2/4 284/2/4 288/2/4
f 285/2/4 286/2/4 289/2/4
f 288/3/4 285/3/4 289/3/4
f 289/2/4 286/2/4 290/2/4
f 287/4/4 288/4/4 291/4/4
f 265/3/4 287/3/4 291/3/4
f 288/3/4 289/3/4 292/3/4
f 291/4/4 288/4/4 292/4/4
f 289/4/4 290/4/4 293/4/4
f 292/3/4 289/3/4 293/3/4
f 293/4/4 290/4/4 294/4/4
f 291/2/4 292/2/4 295/2/4
f 265/3/4 291/3/4 295/3/4
f 292/3/4 293/3/4 296/3/4
f 295/2/4 292/2/4 296/2/4
f 293/2/4 294/2/4 297/2/4
f 296/3/4 293/3/4 297/3/4
f 297/2/4 294/2/4 298/2/4
f 295/3/4 296/3/4 299/3/4
f 265/3/4 295/3/4 299/3/4
f 297/3/4 298/3/4 299/3/4
f 296/3/4 297/3/4 299/3/4
f 299/3/4 298/3/4 300/3/4
f 303/3/5 302/3/5 301/3/5
f 304/3/5 302/3/5 303/3/5
f 307/1/5 306/1/5 305/1/5
f 308/1/5 306/1/5 307/1/5
f 309/1/5 306/1/5 308/1/5
f 310/1/5 306/1/5 309/1/5
f 319/3/5 312/3/5 311/3/5
f 320/3/5 312/3/5 319/3/5
f 321/4/5 314/4/5 313/4/5
f 322/4/5 314/4/5 321/4/5
f 323/4/5 316/4/5 315/4/5
f 324/4/5 316/4/5 323/4/5
f 325/3/5 318/3/5 317/3/5
f 326/3/5 318/3/5 325/3/5
f 331/4/5 328/4/5 327/4/5
f 332/4/5 328/4/5 331/4/5
f 333/4/5 330/4/5 329/4/5
f 334/4/5 330/4/5 333/4/5
f 339/4/5 336/4/5 335/4/5
f 340/4/5 336/4/5 339/4/5
f 341/4/5 338/4/5 337/4/5
f 342/4/5 338/4/5 341/4/5
f 343/3/6 344/3/6 351/3/6
f 351/3/6 344/3/6 352/3/6
f 345/3/6 346/3/6 353/3/6
f 353/3/6 346/3/6 354/3/6
f 347/3/6 348/3/6 355/3/6
f 355/3/6 348/3/6 356/3/6
f 349/3/6 350/3/6 357/3/6
f 357/3/6 350/3/6 358/3/6
f 359/3/6 360/3/6 363/3/6
f 363/3/6 360/3/6 364/3/6
f 361/3/6 362/3/6 365/3/6
f 365/3/6 362/3/6 366/3/6
f 367/3/6 368/3/6 371/3/6
f 371/3/6 368/3/6 372/3/6
f 369/3/6 370/3/6 373/3/6
f 373/3/6 370/3/6 374/3/6
f 375/1/6 376/1/6 377/1/6
f 377/1/6 376/1/6 378/1/6
f 378/1/6 376/1/6 379/1/6
f 379/1/6 376/1/6 380/1/6
f 381/3/6 382/3/6 391/3/6
f 382/2/6 383/2/6 392/2/6
f 391/3/6 382/3/6 392/3/6
f 383/4/6 384/4/6 393/4/6
f 392/2/6 383/2/6 393/2/6
f 384/2/6 385/2/6 394/2/6
f 393/4/6 384/4/6 394/4/6
f 385/4/6 386/4/6 395/4/6
f 394/2/6 385/2/6 395/2/6
f 386/2/6 387/2/6 396/2/6
f 395/4/6 386/4/6 396/4/6
f 387/4/6 388/4/6 397/4/6
f 396/2/6 387/2/6 397/2/6
f 388/2/6 389/2/6 398/2/6
f 397/4/6 388/4/6 398/4/6
f 389/3/6 390/3/6 399/3/6
f 398/2/6 389/2/6 399/2/6
f 399/3/6 390/3/6 400/3/6
f 401/3/6 402/3/6 411/3/6
f 402/2/6 403/2/6 412/2/6
f 411/3/6 402/3/6 412/3/6
f 403/4/6 404/4/6 413/4/6
f 412/2/6 403/2/6 413/2/6
f 404/2/6 405/2/6 414/2/6
f 413/4/6 404/4/6 414/4/6
f 405/4/6 406/4/6 415/4/6
f 414/2/6 405/2/6 415/2/6
f 406/2/6 407/2/6 416/2/6
f 415/4/6 406/4/6 416/4/6
f 407/4/6 408/4/6 417/4/6
f 416/2/6 407/2/6 417/2/6
f 408/2/6 409/2/6 418/2/6
f 417/4/6 408/4/6 418/4/6
f 409/3/6 410/3/6 419/3/6
f 418/2/6 409/2/6 419/2/6
f 419/3/6 410/3/6 420/3/6
f 421/3/6 422/3/6 431/3/6
f 422/2/6 423/2/6 432/2/6
f 431/3/6 422/3/6 432/3/6
f 423/4/6 424/4/6 433/4/6
f 432/2/6 423/2/6 433/2/6
f 424/2/6 425/2/6 434/2/6
f 433/4/6 424/4/6 434/4/6
f 425/4/6 426/4/6 435/4/6
f 434/2/6 425/2/6 435/2/6
f 426/2/6 427/2/6 436/2/6
f 435/4/6 426/4/6 436/4/6
f 427/4/6 428/4/6 437/4/6
f 436/2/6 427/2/6 437/2/6
f 428/2/6 429/2/6 438/2/6
f 437/4/6 428/4/6 438/4/6
f 429/3/6 430/3/6 439/3/6
f 438/2/6 429/2/6 439/2/6
f 439/3/6 430/3/6 440/3/6
