# MagicaVoxel @ Ephtracy

# group
o 

# material
mtllib dungeon_b_b_outer_wall_segment_b_flipped.mtl
usemtl palette

# normals
vn -1 0 0
vn 1 0 0
vn 0 0 1
vn 0 0 -1
vn 0 -1 0
vn 0 1 0

# texcoords
vt 0.783203 0.5
vt 0.939453 0.5

# verts
v -0.7 0 0.7
v -0.7 0 -0.8
v -0.7 0.2 0.7
v -0.7 0.2 0.6
v -0.7 0.2 0.5
v -0.7 0.3 0.6
v -0.7 0.3 0.5
v -0.7 0.4 0.6
v -0.7 0.4 0.5
v -0.7 0.7 0.6
v -0.7 0.7 0.5
v -0.7 0.8 0.6
v -0.7 0.8 0.5
v -0.7 1.1 0.6
v -0.7 1.1 0.5
v -0.7 1.2 0.6
v -0.7 1.2 0.5
v -0.7 1.5 0.6
v -0.7 1.5 0.5
v -0.7 1.6 0.6
v -0.7 1.6 0.5
v -0.7 1.7 0.6
v -0.7 1.7 0.5
v -0.7 1.7 -0.8
v -0.6 0.2 0.7
v -0.6 0.2 0.6
v -0.6 0.3 0.7
v -0.6 0.3 0.6
v -0.6 0.4 0.7
v -0.6 0.4 0.6
v -0.6 0.7 0.7
v -0.6 0.7 0.6
v -0.6 0.8 0.7
v -0.6 0.8 0.6
v -0.6 1.1 0.7
v -0.6 1.1 0.6
v -0.6 1.2 0.7
v -0.6 1.2 0.6
v -0.6 1.5 0.7
v -0.6 1.5 0.6
v -0.6 1.6 0.7
v -0.6 1.6 0.6
v -0.6 1.7 0.7
v -0.6 1.7 0.6
v 0.7 0.2 0.7
v 0.7 0.2 0.6
v 0.7 0.5 0.7
v 0.7 0.5 0.6
v 0.7 0.6 0.7
v 0.7 0.6 0.6
v 0.7 0.9 0.7
v 0.7 0.9 0.6
v 0.7 1 0.7
v 0.7 1 0.6
v 0.7 1.3 0.7
v 0.7 1.3 0.6
v 0.7 1.4 0.7
v 0.7 1.4 0.6
v 0.7 1.7 0.7
v 0.7 1.7 0.6
v 0.8 0 0.7
v 0.8 0 -0.8
v 0.8 0.2 0.7
v 0.8 0.2 0.6
v 0.8 0.2 0.5
v 0.8 0.5 0.6
v 0.8 0.5 0.5
v 0.8 0.6 0.6
v 0.8 0.6 0.5
v 0.8 0.9 0.6
v 0.8 0.9 0.5
v 0.8 1 0.6
v 0.8 1 0.5
v 0.8 1.3 0.6
v 0.8 1.3 0.5
v 0.8 1.4 0.6
v 0.8 1.4 0.5
v 0.8 1.7 0.6
v 0.8 1.7 0.5
v 0.8 1.7 -0.8
v -0.7 0 0.7
v -0.7 0.2 0.7
v -0.6 0.2 0.7
v -0.6 0.3 0.7
v -0.6 0.4 0.7
v -0.6 0.7 0.7
v -0.6 0.8 0.7
v -0.6 1.1 0.7
v -0.6 1.2 0.7
v -0.6 1.5 0.7
v -0.6 1.6 0.7
v -0.6 1.7 0.7
v -0.5 0.2 0.7
v -0.5 0.3 0.7
v -0.5 0.4 0.7
v -0.5 0.7 0.7
v -0.5 0.8 0.7
v -0.5 1.1 0.7
v -0.5 1.2 0.7
v -0.5 1.5 0.7
v -0.5 1.6 0.7
v -0.5 1.7 0.7
v 0.6 0.2 0.7
v 0.6 0.5 0.7
v 0.6 0.6 0.7
v 0.6 0.9 0.7
v 0.6 1 0.7
v 0.6 1.3 0.7
v 0.6 1.4 0.7
v 0.6 1.7 0.7
v 0.7 0.2 0.7
v 0.7 0.5 0.7
v 0.7 0.6 0.7
v 0.7 0.9 0.7
v 0.7 1 0.7
v 0.7 1.3 0.7
v 0.7 1.4 0.7
v 0.7 1.7 0.7
v 0.8 0 0.7
v 0.8 0.2 0.7
v -0.7 0.2 0.6
v -0.7 0.3 0.6
v -0.7 0.4 0.6
v -0.7 0.7 0.6
v -0.7 0.8 0.6
v -0.7 1.1 0.6
v -0.7 1.2 0.6
v -0.7 1.5 0.6
v -0.7 1.6 0.6
v -0.7 1.7 0.6
v -0.6 0.2 0.6
v -0.6 0.3 0.6
v -0.6 0.4 0.6
v -0.6 0.7 0.6
v -0.6 0.8 0.6
v -0.6 1.1 0.6
v -0.6 1.2 0.6
v -0.6 1.5 0.6
v -0.6 1.6 0.6
v -0.6 1.7 0.6
v 0.7 0.2 0.6
v 0.7 0.5 0.6
v 0.7 0.6 0.6
v 0.7 0.9 0.6
v 0.7 1 0.6
v 0.7 1.3 0.6
v 0.7 1.4 0.6
v 0.7 1.7 0.6
v 0.8 0.2 0.6
v 0.8 0.5 0.6
v 0.8 0.6 0.6
v 0.8 0.9 0.6
v 0.8 1 0.6
v 0.8 1.3 0.6
v 0.8 1.4 0.6
v 0.8 1.7 0.6
v -0.7 0 -0.8
v -0.7 1.7 -0.8
v 0.8 0 -0.8
v 0.8 1.7 -0.8
v -0.7 0 0.7
v 0.8 0 0.7
v -0.7 0 -0.8
v 0.8 0 -0.8
v -0.7 0.2 0.7
v -0.6 0.2 0.7
v 0.7 0.2 0.7
v 0.8 0.2 0.7
v -0.7 0.2 0.6
v -0.6 0.2 0.6
v 0.7 0.2 0.6
v 0.8 0.2 0.6
v -0.6 1.7 0.7
v -0.5 1.7 0.7
v 0.6 1.7 0.7
v 0.7 1.7 0.7
v -0.7 1.7 0.6
v -0.6 1.7 0.6
v 0.7 1.7 0.6
v 0.8 1.7 0.6
v -0.7 1.7 0.5
v -0.5 1.7 0.5
v 0.6 1.7 0.5
v 0.8 1.7 0.5
v -0.7 1.7 -0.8
v 0.8 1.7 -0.8

# faces
f 3/1/1 2/1/1 1/1/1
f 4/1/1 2/1/1 3/1/1
f 5/1/1 2/1/1 4/1/1
f 6/2/1 5/2/1 4/2/1
f 7/1/1 2/1/1 5/1/1
f 7/2/1 5/2/1 6/2/1
f 8/1/1 7/1/1 6/1/1
f 9/1/1 2/1/1 7/1/1
f 9/1/1 7/1/1 8/1/1
f 10/2/1 9/2/1 8/2/1
f 11/1/1 2/1/1 9/1/1
f 11/2/1 9/2/1 10/2/1
f 12/1/1 11/1/1 10/1/1
f 13/1/1 2/1/1 11/1/1
f 13/1/1 11/1/1 12/1/1
f 14/2/1 13/2/1 12/2/1
f 15/1/1 2/1/1 13/1/1
f 15/2/1 13/2/1 14/2/1
f 16/1/1 15/1/1 14/1/1
f 17/1/1 2/1/1 15/1/1
f 17/1/1 15/1/1 16/1/1
f 18/2/1 17/2/1 16/2/1
f 19/1/1 2/1/1 17/1/1
f 19/2/1 17/2/1 18/2/1
f 20/1/1 19/1/1 18/1/1
f 21/1/1 2/1/1 19/1/1
f 21/1/1 19/1/1 20/1/1
f 22/2/1 21/2/1 20/2/1
f 23/1/1 2/1/1 21/1/1
f 23/2/1 21/2/1 22/2/1
f 24/1/1 2/1/1 23/1/1
f 27/2/1 26/2/1 25/2/1
f 28/2/1 26/2/1 27/2/1
f 29/1/1 28/1/1 27/1/1
f 30/1/1 28/1/1 29/1/1
f 31/2/1 30/2/1 29/2/1
f 32/2/1 30/2/1 31/2/1
f 33/1/1 32/1/1 31/1/1
f 34/1/1 32/1/1 33/1/1
f 35/2/1 34/2/1 33/2/1
f 36/2/1 34/2/1 35/2/1
f 37/1/1 36/1/1 35/1/1
f 38/1/1 36/1/1 37/1/1
f 39/2/1 38/2/1 37/2/1
f 40/2/1 38/2/1 39/2/1
f 41/1/1 40/1/1 39/1/1
f 42/1/1 40/1/1 41/1/1
f 43/2/1 42/2/1 41/2/1
f 44/2/1 42/2/1 43/2/1
f 45/2/2 46/2/2 47/2/2
f 47/2/2 46/2/2 48/2/2
f 47/1/2 48/1/2 49/1/2
f 49/1/2 48/1/2 50/1/2
f 49/2/2 50/2/2 51/2/2
f 51/2/2 50/2/2 52/2/2
f 51/1/2 52/1/2 53/1/2
f 53/1/2 52/1/2 54/1/2
f 53/2/2 54/2/2 55/2/2
f 55/2/2 54/2/2 56/2/2
f 55/1/2 56/1/2 57/1/2
f 57/1/2 56/1/2 58/1/2
f 57/2/2 58/2/2 59/2/2
f 59/2/2 58/2/2 60/2/2
f 61/1/2 62/1/2 63/1/2
f 63/1/2 62/1/2 64/1/2
f 64/1/2 62/1/2 65/1/2
f 64/2/2 65/2/2 66/2/2
f 65/1/2 62/1/2 67/1/2
f 66/2/2 65/2/2 67/2/2
f 66/1/2 67/1/2 68/1/2
f 67/1/2 62/1/2 69/1/2
f 68/1/2 67/1/2 69/1/2
f 68/2/2 69/2/2 70/2/2
f 69/1/2 62/1/2 71/1/2
f 70/2/2 69/2/2 71/2/2
f 70/1/2 71/1/2 72/1/2
f 71/1/2 62/1/2 73/1/2
f 72/1/2 71/1/2 73/1/2
f 72/2/2 73/2/2 74/2/2
f 73/1/2 62/1/2 75/1/2
f 74/2/2 73/2/2 75/2/2
f 74/1/2 75/1/2 76/1/2
f 75/1/2 62/1/2 77/1/2
f 76/1/2 75/1/2 77/1/2
f 76/2/2 77/2/2 78/2/2
f 77/1/2 62/1/2 79/1/2
f 78/2/2 77/2/2 79/2/2
f 79/1/2 62/1/2 80/1/2
f 83/1/3 82/1/3 81/1/3
f 93/1/3 83/1/3 81/1/3
f 93/2/3 84/2/3 83/2/3
f 94/1/3 85/1/3 84/1/3
f 94/2/3 84/2/3 93/2/3
f 95/2/3 86/2/3 85/2/3
f 95/1/3 85/1/3 94/1/3
f 96/1/3 87/1/3 86/1/3
f 96/2/3 86/2/3 95/2/3
f 97/2/3 88/2/3 87/2/3
f 97/1/3 87/1/3 96/1/3
f 98/1/3 89/1/3 88/1/3
f 98/2/3 88/2/3 97/2/3
f 99/2/3 90/2/3 89/2/3
f 99/1/3 89/1/3 98/1/3
f 100/1/3 91/1/3 90/1/3
f 100/2/3 90/2/3 99/2/3
f 101/2/3 92/2/3 91/2/3
f 101/1/3 91/1/3 100/1/3
f 102/2/3 92/2/3 101/2/3
f 103/1/3 100/1/3 99/1/3
f 103/1/3 99/1/3 98/1/3
f 103/1/3 102/1/3 101/1/3
f 103/1/3 101/1/3 100/1/3
f 103/1/3 98/1/3 97/1/3
f 103/1/3 97/1/3 96/1/3
f 103/1/3 96/1/3 95/1/3
f 103/1/3 95/1/3 94/1/3
f 103/1/3 94/1/3 93/1/3
f 103/1/3 93/1/3 81/1/3
f 104/1/3 102/1/3 103/1/3
f 105/1/3 102/1/3 104/1/3
f 106/1/3 102/1/3 105/1/3
f 107/1/3 102/1/3 106/1/3
f 108/1/3 102/1/3 107/1/3
f 109/1/3 102/1/3 108/1/3
f 110/1/3 102/1/3 109/1/3
f 111/1/3 103/1/3 81/1/3
f 111/2/3 104/2/3 103/2/3
f 112/1/3 105/1/3 104/1/3
f 112/2/3 104/2/3 111/2/3
f 113/2/3 106/2/3 105/2/3
f 113/1/3 105/1/3 112/1/3
f 114/1/3 107/1/3 106/1/3
f 114/2/3 106/2/3 113/2/3
f 115/2/3 108/2/3 107/2/3
f 115/1/3 107/1/3 114/1/3
f 116/1/3 109/1/3 108/1/3
f 116/2/3 108/2/3 115/2/3
f 117/2/3 110/2/3 109/2/3
f 117/1/3 109/1/3 116/1/3
f 118/2/3 110/2/3 117/2/3
f 119/1/3 111/1/3 81/1/3
f 120/1/3 111/1/3 119/1/3
f 131/2/3 122/2/3 121/2/3
f 132/1/3 123/1/3 122/1/3
f 132/2/3 122/2/3 131/2/3
f 133/2/3 124/2/3 123/2/3
f 133/1/3 123/1/3 132/1/3
f 134/1/3 125/1/3 124/1/3
f 134/2/3 124/2/3 133/2/3
f 135/2/3 126/2/3 125/2/3
f 135/1/3 125/1/3 134/1/3
f 136/1/3 127/1/3 126/1/3
f 136/2/3 126/2/3 135/2/3
f 137/2/3 128/2/3 127/2/3
f 137/1/3 127/1/3 136/1/3
f 138/1/3 129/1/3 128/1/3
f 138/2/3 128/2/3 137/2/3
f 139/2/3 130/2/3 129/2/3
f 139/1/3 129/1/3 138/1/3
f 140/2/3 130/2/3 139/2/3
f 149/2/3 142/2/3 141/2/3
f 150/1/3 143/1/3 142/1/3
f 150/2/3 142/2/3 149/2/3
f 151/2/3 144/2/3 143/2/3
f 151/1/3 143/1/3 150/1/3
f 152/1/3 145/1/3 144/1/3
f 152/2/3 144/2/3 151/2/3
f 153/2/3 146/2/3 145/2/3
f 153/1/3 145/1/3 152/1/3
f 154/1/3 147/1/3 146/1/3
f 154/2/3 146/2/3 153/2/3
f 155/2/3 148/2/3 147/2/3
f 155/1/3 147/1/3 154/1/3
f 156/2/3 148/2/3 155/2/3
f 157/1/4 158/1/4 159/1/4
f 159/1/4 158/1/4 160/1/4
f 163/1/5 162/1/5 161/1/5
f 164/1/5 162/1/5 163/1/5
f 165/1/6 166/1/6 169/1/6
f 169/1/6 166/1/6 170/1/6
f 167/1/6 168/1/6 171/1/6
f 171/1/6 168/1/6 172/1/6
f 173/2/6 174/2/6 178/2/6
f 175/2/6 176/2/6 179/2/6
f 177/2/6 178/2/6 181/2/6
f 174/1/6 175/1/6 182/1/6
f 181/2/6 178/2/6 182/2/6
f 178/2/6 174/2/6 182/2/6
f 179/2/6 180/2/6 183/2/6
f 182/1/6 175/1/6 183/1/6
f 175/2/6 179/2/6 183/2/6
f 183/2/6 180/2/6 184/2/6
f 181/1/6 182/1/6 185/1/6
f 182/1/6 183/1/6 185/1/6
f 183/1/6 184/1/6 185/1/6
f 185/1/6 184/1/6 186/1/6
