# MagicaVoxel @ Ephtracy

# group
o 

# material
mtllib devil.mtl
usemtl palette

# normals
vn -1 0 0
vn 1 0 0
vn 0 0 1
vn 0 0 -1
vn 0 -1 0
vn 0 1 0

# texcoords
vt 0.751953 0.5
vt 0.787109 0.5
vt 0.814453 0.5
vt 0.978516 0.5

# verts
v -0.5 0.7 0.3
v -0.5 0.7 0.2
v -0.5 1 0.3
v -0.5 1 0.2
v -0.4 0.7 0.1
v -0.4 0.7 -0.1
v -0.4 0.9 0.1
v -0.4 0.9 -0.1
v -0.3 0 0.3
v -0.3 0 0.2
v -0.3 0.5 0.3
v -0.3 0.5 0.2
v -0.3 0.5 -0.1
v -0.3 0.6 0.3
v -0.3 0.6 0.2
v -0.3 0.6 0.1
v -0.3 0.6 -0.1
v -0.3 0.6 -0.2
v -0.3 0.7 0.3
v -0.3 0.7 0.2
v -0.3 0.7 0.1
v -0.3 0.7 -0.1
v -0.3 0.8 0.3
v -0.3 0.8 0.2
v -0.3 0.9 -0.1
v -0.3 1 -0.1
v -0.3 1 -0.2
v -0.3 1.1 0.3
v -0.3 1.1 0.2
v -0.2 0.6 0.2
v -0.2 0.6 0.1
v -0.2 0.9 0.2
v -0.2 0.9 0.1
v -0.1 0 0.1
v -0.1 0 -2.98023e-08
v -0.1 0.1 0.1
v -0.1 0.1 -2.98023e-08
v -0.1 0.1 -0.1
v -0.1 0.2 0.1
v -0.1 0.2 -2.98023e-08
v -0.1 0.2 -0.1
v -0.1 0.4 0.1
v -0.1 0.4 -0.1
v -0.1 0.6 0.1
v -0.1 0.6 -0.1
v -0.1 0.8 0.3
v -0.1 0.8 0.2
v -0.1 0.9 0.2
v -0.1 0.9 0.1
v -0.1 0.9 -0.1
v -0.1 1 0.3
v -0.1 1 0.2
v -0.1 1 -0.1
v -0.1 1.1 0.2
v -0.1 1.1 0.1
v -0.1 1.2 0.1
v -0.1 1.2 -0.1
v -0.1 1.3 0.2
v -0.1 1.3 0.1
v 5.96046e-08 0.2 -0.1
v 5.96046e-08 0.2 -0.3
v 5.96046e-08 0.3 -0.1
v 5.96046e-08 0.3 -0.2
v 5.96046e-08 0.5 -0.2
v 5.96046e-08 0.5 -0.3
v 0.1 0 0.1
v 0.1 0 -2.98023e-08
v 0.1 0.1 0.1
v 0.1 0.1 -2.98023e-08
v 0.1 0.1 -0.1
v 0.1 0.2 -2.98023e-08
v 0.1 0.2 -0.1
v 0.1 0.8 -0.1
v 0.1 0.8 -0.2
v 0.1 1 -0.1
v 0.1 1 -0.2
v 0.1 1.1 0.2
v 0.1 1.1 0.1
v 0.1 1.2 0.1
v 0.1 1.3 0.2
v 0.1 1.3 0.1
v 0.2 0.7 -0.1
v 0.2 0.7 -0.2
v 0.2 0.8 -0.1
v 0.2 0.8 -0.2
v 0.3 0.3 -2.98023e-08
v 0.3 0.3 -0.1
v 0.3 0.5 0.1
v 0.3 0.5 -2.98023e-08
v 0.3 0.6 0.1
v 0.3 0.6 -0.1
v 0.3 0.6 -0.2
v 0.3 0.7 -0.1
v 0.3 0.7 -0.2
v -0.4 0.8 0.3
v -0.4 0.8 0.2
v -0.4 1 0.3
v -0.4 1 0.2
v -0.2 0 0.3
v -0.2 0 0.2
v -0.2 0.5 0.3
v -0.2 0.5 0.2
v -0.2 0.5 -0.1
v -0.2 0.6 0.3
v -0.2 0.6 0.2
v -0.2 0.6 -0.1
v -0.2 0.6 -0.2
v -0.2 0.7 0.3
v -0.2 0.7 0.2
v -0.2 0.7 -0.1
v -0.2 0.7 -0.2
v -0.2 0.8 0.3
v -0.2 0.8 0.2
v -0.2 0.9 0.2
v -0.2 1.1 0.3
v -0.2 1.1 0.2
v -0.1 0.7 -0.1
v -0.1 0.7 -0.2
v -0.1 0.8 -0.1
v -0.1 0.8 -0.2
v 5.96046e-08 0 0.1
v 5.96046e-08 0 -2.98023e-08
v 5.96046e-08 0.1 0.1
v 5.96046e-08 0.1 -2.98023e-08
v 5.96046e-08 0.1 -0.1
v 5.96046e-08 0.2 -2.98023e-08
v 5.96046e-08 0.2 -0.1
v 5.96046e-08 0.7 0.3
v 5.96046e-08 0.7 0.2
v 5.96046e-08 0.8 -0.1
v 5.96046e-08 0.8 -0.2
v 5.96046e-08 0.9 0.2
v 5.96046e-08 1 0.3
v 5.96046e-08 1 0.2
v 5.96046e-08 1 -0.1
v 5.96046e-08 1 -0.2
v 5.96046e-08 1.1 0.2
v 5.96046e-08 1.1 0.1
v 5.96046e-08 1.2 0.1
v 5.96046e-08 1.3 0.2
v 5.96046e-08 1.3 0.1
v 0.1 0.2 -0.1
v 0.1 0.2 -0.3
v 0.1 0.3 -0.1
v 0.1 0.3 -0.2
v 0.1 0.5 -0.2
v 0.1 0.5 -0.3
v 0.2 0 0.1
v 0.2 0 -2.98023e-08
v 0.2 0.1 0.1
v 0.2 0.1 -2.98023e-08
v 0.2 0.1 -0.1
v 0.2 0.2 0.1
v 0.2 0.2 -2.98023e-08
v 0.2 0.2 -0.1
v 0.2 0.4 0.1
v 0.2 0.4 -0.1
v 0.2 0.6 0.1
v 0.2 0.6 -0.1
v 0.2 0.9 0.1
v 0.2 0.9 -0.1
v 0.2 1 -0.1
v 0.2 1.1 0.2
v 0.2 1.1 0.1
v 0.2 1.2 0.1
v 0.2 1.2 -0.1
v 0.2 1.3 0.2
v 0.2 1.3 0.1
v 0.3 0.6 0.2
v 0.3 0.6 0.1
v 0.3 0.9 0.2
v 0.3 0.9 0.1
v 0.4 0.3 -2.98023e-08
v 0.4 0.3 -0.1
v 0.4 0.5 0.1
v 0.4 0.5 -2.98023e-08
v 0.4 0.6 -0.1
v 0.4 0.6 -0.2
v 0.4 0.7 0.1
v 0.4 0.7 -0.1
v 0.4 0.9 -0.1
v 0.4 1 -0.1
v 0.4 1 -0.2
v 0.5 0.7 0.1
v 0.5 0.7 -0.1
v 0.5 0.9 0.1
v 0.5 0.9 -0.1
v -0.5 0.7 0.3
v -0.5 1 0.3
v -0.4 0.8 0.3
v -0.4 1 0.3
v -0.3 0 0.3
v -0.3 0.5 0.3
v -0.3 0.6 0.3
v -0.3 0.7 0.3
v -0.3 0.8 0.3
v -0.3 1.1 0.3
v -0.2 0 0.3
v -0.2 0.5 0.3
v -0.2 0.6 0.3
v -0.2 0.7 0.3
v -0.2 0.8 0.3
v -0.2 1.1 0.3
v -0.1 0.8 0.3
v -0.1 1 0.3
v 5.96046e-08 0.7 0.3
v 5.96046e-08 1 0.3
v -0.2 0.6 0.2
v -0.2 0.7 0.2
v -0.2 0.8 0.2
v -0.2 0.9 0.2
v -0.1 0.8 0.2
v -0.1 0.9 0.2
v -0.1 1.1 0.2
v -0.1 1.3 0.2
v 5.96046e-08 0.7 0.2
v 5.96046e-08 0.9 0.2
v 5.96046e-08 1.1 0.2
v 5.96046e-08 1.3 0.2
v 0.1 1.1 0.2
v 0.1 1.3 0.2
v 0.2 1.1 0.2
v 0.2 1.3 0.2
v 0.3 0.6 0.2
v 0.3 0.9 0.2
v -0.4 0.7 0.1
v -0.4 0.9 0.1
v -0.3 0.6 0.1
v -0.3 0.7 0.1
v -0.2 0.6 0.1
v -0.2 0.9 0.1
v -0.1 0 0.1
v -0.1 0.1 0.1
v -0.1 0.2 0.1
v -0.1 0.4 0.1
v -0.1 0.6 0.1
v -0.1 0.9 0.1
v -0.1 1.1 0.1
v 5.96046e-08 0 0.1
v 5.96046e-08 0.1 0.1
v 5.96046e-08 1.1 0.1
v 5.96046e-08 1.2 0.1
v 0.1 0 0.1
v 0.1 0.1 0.1
v 0.1 1.1 0.1
v 0.1 1.2 0.1
v 0.2 0 0.1
v 0.2 0.1 0.1
v 0.2 0.2 0.1
v 0.2 0.4 0.1
v 0.2 0.6 0.1
v 0.2 0.9 0.1
v 0.2 1.1 0.1
v 0.3 0.5 0.1
v 0.3 0.6 0.1
v 0.3 0.9 0.1
v 0.4 0.5 0.1
v 0.4 0.7 0.1
v 0.5 0.7 0.1
v 0.5 0.9 0.1
v -0.1 0.1 -2.98023e-08
v -0.1 0.2 -2.98023e-08
v 5.96046e-08 0.1 -2.98023e-08
v 5.96046e-08 0.2 -2.98023e-08
v 0.1 0.1 -2.98023e-08
v 0.1 0.2 -2.98023e-08
v 0.2 0.1 -2.98023e-08
v 0.2 0.2 -2.98023e-08
v 0.3 0.3 -2.98023e-08
v 0.3 0.5 -2.98023e-08
v 0.4 0.3 -2.98023e-08
v 0.4 0.5 -2.98023e-08
v -0.3 0.9 -0.1
v -0.3 1 -0.1
v -0.1 0.9 -0.1
v -0.1 1 -0.1
v 0.2 0.9 -0.1
v 0.2 1 -0.1
v 0.4 0.9 -0.1
v 0.4 1 -0.1
v 5.96046e-08 0.3 -0.2
v 5.96046e-08 0.5 -0.2
v 0.1 0.3 -0.2
v 0.1 0.5 -0.2
v -0.5 0.7 0.2
v -0.5 1 0.2
v -0.4 0.8 0.2
v -0.4 1 0.2
v -0.3 0 0.2
v -0.3 0.5 0.2
v -0.3 0.6 0.2
v -0.3 0.7 0.2
v -0.3 0.8 0.2
v -0.3 1.1 0.2
v -0.2 0 0.2
v -0.2 0.5 0.2
v -0.2 0.6 0.2
v -0.2 0.9 0.2
v -0.2 1.1 0.2
v -0.1 0.9 0.2
v -0.1 1 0.2
v 5.96046e-08 0.9 0.2
v 5.96046e-08 1 0.2
v -0.1 1.2 0.1
v -0.1 1.3 0.1
v 5.96046e-08 1.2 0.1
v 5.96046e-08 1.3 0.1
v 0.1 1.2 0.1
v 0.1 1.3 0.1
v 0.2 1.2 0.1
v 0.2 1.3 0.1
v -0.1 0 -2.98023e-08
v -0.1 0.1 -2.98023e-08
v 5.96046e-08 0 -2.98023e-08
v 5.96046e-08 0.1 -2.98023e-08
v 0.1 0 -2.98023e-08
v 0.1 0.1 -2.98023e-08
v 0.2 0 -2.98023e-08
v 0.2 0.1 -2.98023e-08
v -0.4 0.7 -0.1
v -0.4 0.9 -0.1
v -0.3 0.5 -0.1
v -0.3 0.6 -0.1
v -0.3 0.7 -0.1
v -0.3 0.9 -0.1
v -0.2 0.5 -0.1
v -0.2 0.6 -0.1
v -0.2 0.7 -0.1
v -0.1 0.1 -0.1
v -0.1 0.2 -0.1
v -0.1 0.4 -0.1
v -0.1 0.6 -0.1
v -0.1 0.7 -0.1
v -0.1 0.8 -0.1
v -0.1 1 -0.1
v -0.1 1.2 -0.1
v 5.96046e-08 0.1 -0.1
v 5.96046e-08 0.2 -0.1
v 5.96046e-08 0.3 -0.1
v 5.96046e-08 0.8 -0.1
v 5.96046e-08 1 -0.1
v 0.1 0.1 -0.1
v 0.1 0.2 -0.1
v 0.1 0.3 -0.1
v 0.1 0.8 -0.1
v 0.1 1 -0.1
v 0.2 0.1 -0.1
v 0.2 0.2 -0.1
v 0.2 0.4 -0.1
v 0.2 0.6 -0.1
v 0.2 0.7 -0.1
v 0.2 0.8 -0.1
v 0.2 1 -0.1
v 0.2 1.2 -0.1
v 0.3 0.3 -0.1
v 0.3 0.6 -0.1
v 0.3 0.7 -0.1
v 0.4 0.3 -0.1
v 0.4 0.6 -0.1
v 0.4 0.7 -0.1
v 0.4 0.9 -0.1
v 0.5 0.7 -0.1
v 0.5 0.9 -0.1
v -0.3 0.6 -0.2
v -0.3 1 -0.2
v -0.2 0.6 -0.2
v -0.2 0.7 -0.2
v -0.1 0.7 -0.2
v -0.1 0.8 -0.2
v 5.96046e-08 0.8 -0.2
v 5.96046e-08 1 -0.2
v 0.1 0.8 -0.2
v 0.1 1 -0.2
v 0.2 0.7 -0.2
v 0.2 0.8 -0.2
v 0.3 0.6 -0.2
v 0.3 0.7 -0.2
v 0.4 0.6 -0.2
v 0.4 1 -0.2
v 5.96046e-08 0.2 -0.3
v 5.96046e-08 0.5 -0.3
v 0.1 0.2 -0.3
v 0.1 0.5 -0.3
v -0.3 0 0.3
v -0.2 0 0.3
v -0.3 0 0.2
v -0.2 0 0.2
v -0.1 0 0.1
v 5.96046e-08 0 0.1
v 0.1 0 0.1
v 0.2 0 0.1
v -0.1 0 -2.98023e-08
v 5.96046e-08 0 -2.98023e-08
v 0.1 0 -2.98023e-08
v 0.2 0 -2.98023e-08
v -0.1 0.1 -2.98023e-08
v 5.96046e-08 0.1 -2.98023e-08
v 0.1 0.1 -2.98023e-08
v 0.2 0.1 -2.98023e-08
v -0.1 0.1 -0.1
v 5.96046e-08 0.1 -0.1
v 0.1 0.1 -0.1
v 0.2 0.1 -0.1
v -0.1 0.2 0.1
v 0.2 0.2 0.1
v -0.1 0.2 -2.98023e-08
v 5.96046e-08 0.2 -2.98023e-08
v 0.1 0.2 -2.98023e-08
v 0.2 0.2 -2.98023e-08
v 5.96046e-08 0.2 -0.1
v 0.1 0.2 -0.1
v 5.96046e-08 0.2 -0.3
v 0.1 0.2 -0.3
v 0.3 0.3 -2.98023e-08
v 0.4 0.3 -2.98023e-08
v 0.3 0.3 -0.1
v 0.4 0.3 -0.1
v -0.3 0.5 0.2
v -0.2 0.5 0.2
v 0.3 0.5 0.1
v 0.4 0.5 0.1
v 0.3 0.5 -2.98023e-08
v 0.4 0.5 -2.98023e-08
v -0.3 0.5 -0.1
v -0.2 0.5 -0.1
v -0.2 0.6 0.2
v 0.3 0.6 0.2
v -0.1 0.6 0.1
v 0.2 0.6 0.1
v 0.3 0.6 0.1
v -0.3 0.6 -0.1
v -0.2 0.6 -0.1
v -0.1 0.6 -0.1
v 0.2 0.6 -0.1
v 0.3 0.6 -0.1
v 0.4 0.6 -0.1
v -0.3 0.6 -0.2
v -0.2 0.6 -0.2
v 0.3 0.6 -0.2
v 0.4 0.6 -0.2
v -0.5 0.7 0.3
v -0.3 0.7 0.3
v -0.2 0.7 0.3
v 5.96046e-08 0.7 0.3
v -0.5 0.7 0.2
v -0.3 0.7 0.2
v -0.2 0.7 0.2
v 5.96046e-08 0.7 0.2
v -0.4 0.7 0.1
v -0.3 0.7 0.1
v 0.4 0.7 0.1
v 0.5 0.7 0.1
v -0.4 0.7 -0.1
v -0.3 0.7 -0.1
v -0.2 0.7 -0.1
v -0.1 0.7 -0.1
v 0.2 0.7 -0.1
v 0.3 0.7 -0.1
v 0.4 0.7 -0.1
v 0.5 0.7 -0.1
v -0.2 0.7 -0.2
v -0.1 0.7 -0.2
v 0.2 0.7 -0.2
v 0.3 0.7 -0.2
v -0.1 0.8 -0.1
v 5.96046e-08 0.8 -0.1
v 0.1 0.8 -0.1
v 0.2 0.8 -0.1
v -0.1 0.8 -0.2
v 5.96046e-08 0.8 -0.2
v 0.1 0.8 -0.2
v 0.2 0.8 -0.2
v -0.1 1.1 0.2
v 5.96046e-08 1.1 0.2
v 0.1 1.1 0.2
v 0.2 1.1 0.2
v -0.1 1.1 0.1
v 5.96046e-08 1.1 0.1
v 0.1 1.1 0.1
v 0.2 1.1 0.1
v -0.1 0.1 0.1
v 5.96046e-08 0.1 0.1
v 0.1 0.1 0.1
v 0.2 0.1 0.1
v -0.1 0.1 -2.98023e-08
v 5.96046e-08 0.1 -2.98023e-08
v 0.1 0.1 -2.98023e-08
v 0.2 0.1 -2.98023e-08
v 5.96046e-08 0.3 -0.1
v 0.1 0.3 -0.1
v 5.96046e-08 0.3 -0.2
v 0.1 0.3 -0.2
v 5.96046e-08 0.5 -0.2
v 0.1 0.5 -0.2
v 5.96046e-08 0.5 -0.3
v 0.1 0.5 -0.3
v -0.3 0.6 0.2
v -0.2 0.6 0.2
v -0.3 0.6 0.1
v -0.2 0.6 0.1
v -0.4 0.8 0.3
v -0.3 0.8 0.3
v -0.2 0.8 0.3
v -0.1 0.8 0.3
v -0.4 0.8 0.2
v -0.3 0.8 0.2
v -0.2 0.8 0.2
v -0.1 0.8 0.2
v -0.2 0.9 0.2
v -0.1 0.9 0.2
v 5.96046e-08 0.9 0.2
v 0.3 0.9 0.2
v -0.4 0.9 0.1
v -0.2 0.9 0.1
v -0.1 0.9 0.1
v 0.2 0.9 0.1
v 0.3 0.9 0.1
v 0.5 0.9 0.1
v -0.4 0.9 -0.1
v -0.3 0.9 -0.1
v -0.1 0.9 -0.1
v 0.2 0.9 -0.1
v 0.4 0.9 -0.1
v 0.5 0.9 -0.1
v -0.5 1 0.3
v -0.4 1 0.3
v -0.1 1 0.3
v 5.96046e-08 1 0.3
v -0.5 1 0.2
v -0.4 1 0.2
v -0.1 1 0.2
v 5.96046e-08 1 0.2
v -0.3 1 -0.1
v -0.1 1 -0.1
v 5.96046e-08 1 -0.1
v 0.1 1 -0.1
v 0.2 1 -0.1
v 0.4 1 -0.1
v -0.3 1 -0.2
v 5.96046e-08 1 -0.2
v 0.1 1 -0.2
v 0.4 1 -0.2
v -0.3 1.1 0.3
v -0.2 1.1 0.3
v -0.3 1.1 0.2
v -0.2 1.1 0.2
v -0.1 1.2 0.1
v 5.96046e-08 1.2 0.1
v 0.1 1.2 0.1
v 0.2 1.2 0.1
v -0.1 1.2 -0.1
v 0.2 1.2 -0.1
v -0.1 1.3 0.2
v 5.96046e-08 1.3 0.2
v 0.1 1.3 0.2
v 0.2 1.3 0.2
v -0.1 1.3 0.1
v 5.96046e-08 1.3 0.1
v 0.1 1.3 0.1
v 0.2 1.3 0.1

# faces
f 3/2/1 2/2/1 1/2/1
f 4/2/1 2/2/1 3/2/1
f 7/1/1 6/1/1 5/1/1
f 8/1/1 6/1/1 7/1/1
f 11/2/1 10/2/1 9/2/1
f 12/2/1 10/2/1 11/2/1
f 14/1/1 12/1/1 11/1/1
f 14/1/1 13/1/1 12/1/1
f 15/1/1 13/1/1 14/1/1
f 16/1/1 13/1/1 15/1/1
f 17/1/1 13/1/1 16/1/1
f 19/2/1 15/2/1 14/2/1
f 20/2/1 15/2/1 19/2/1
f 21/1/1 17/1/1 16/1/1
f 22/4/1 18/4/1 17/4/1
f 22/1/1 17/1/1 21/1/1
f 25/4/1 18/4/1 22/4/1
f 26/4/1 18/4/1 25/4/1
f 27/4/1 18/4/1 26/4/1
f 28/2/1 24/2/1 23/2/1
f 29/2/1 24/2/1 28/2/1
f 32/1/1 31/1/1 30/1/1
f 33/1/1 31/1/1 32/1/1
f 36/1/1 35/1/1 34/1/1
f 37/1/1 35/1/1 36/1/1
f 40/1/1 38/1/1 37/1/1
f 41/1/1 38/1/1 40/1/1
f 42/3/1 40/3/1 39/3/1
f 42/3/1 41/3/1 40/3/1
f 43/3/1 41/3/1 42/3/1
f 44/1/1 43/1/1 42/1/1
f 45/1/1 43/1/1 44/1/1
f 48/2/1 47/2/1 46/2/1
f 51/2/1 48/2/1 46/2/1
f 52/2/1 48/2/1 51/2/1
f 53/1/1 50/1/1 49/1/1
f 55/1/1 53/1/1 49/1/1
f 56/1/1 53/1/1 55/1/1
f 56/4/1 55/4/1 54/4/1
f 57/1/1 53/1/1 56/1/1
f 58/4/1 56/4/1 54/4/1
f 59/4/1 56/4/1 58/4/1
f 62/4/1 61/4/1 60/4/1
f 63/4/1 61/4/1 62/4/1
f 64/4/1 61/4/1 63/4/1
f 65/4/1 61/4/1 64/4/1
f 68/1/1 67/1/1 66/1/1
f 69/1/1 67/1/1 68/1/1
f 71/1/1 70/1/1 69/1/1
f 72/1/1 70/1/1 71/1/1
f 75/4/1 74/4/1 73/4/1
f 76/4/1 74/4/1 75/4/1
f 79/4/1 78/4/1 77/4/1
f 80/4/1 79/4/1 77/4/1
f 81/4/1 79/4/1 80/4/1
f 84/4/1 83/4/1 82/4/1
f 85/4/1 83/4/1 84/4/1
f 89/1/1 87/1/1 86/1/1
f 90/1/1 89/1/1 88/1/1
f 91/1/1 87/1/1 89/1/1
f 91/1/1 89/1/1 90/1/1
f 93/4/1 92/4/1 91/4/1
f 94/4/1 92/4/1 93/4/1
f 95/2/2 96/2/2 97/2/2
f 97/2/2 96/2/2 98/2/2
f 99/2/2 100/2/2 101/2/2
f 101/2/2 100/2/2 102/2/2
f 101/1/2 102/1/2 104/1/2
f 102/1/2 103/1/2 104/1/2
f 104/1/2 103/1/2 105/1/2
f 105/1/2 103/1/2 106/1/2
f 104/2/2 105/2/2 108/2/2
f 108/2/2 105/2/2 109/2/2
f 106/4/2 107/4/2 110/4/2
f 110/4/2 107/4/2 111/4/2
f 112/2/2 113/2/2 114/2/2
f 112/2/2 114/2/2 115/2/2
f 115/2/2 114/2/2 116/2/2
f 117/4/2 118/4/2 119/4/2
f 119/4/2 118/4/2 120/4/2
f 121/1/2 122/1/2 123/1/2
f 123/1/2 122/1/2 124/1/2
f 124/1/2 125/1/2 126/1/2
f 126/1/2 125/1/2 127/1/2
f 128/2/2 129/2/2 132/2/2
f 128/2/2 132/2/2 133/2/2
f 133/2/2 132/2/2 134/2/2
f 130/4/2 131/4/2 135/4/2
f 135/4/2 131/4/2 136/4/2
f 137/4/2 138/4/2 139/4/2
f 137/4/2 139/4/2 140/4/2
f 140/4/2 139/4/2 141/4/2
f 142/4/2 143/4/2 144/4/2
f 144/4/2 143/4/2 145/4/2
f 145/4/2 143/4/2 146/4/2
f 146/4/2 143/4/2 147/4/2
f 148/1/2 149/1/2 150/1/2
f 150/1/2 149/1/2 151/1/2
f 151/1/2 152/1/2 154/1/2
f 154/1/2 152/1/2 155/1/2
f 153/3/2 154/3/2 156/3/2
f 154/3/2 155/3/2 156/3/2
f 156/3/2 155/3/2 157/3/2
f 156/1/2 157/1/2 158/1/2
f 158/1/2 157/1/2 159/1/2
f 160/1/2 161/1/2 162/1/2
f 160/1/2 162/1/2 164/1/2
f 164/1/2 162/1/2 165/1/2
f 163/4/2 164/4/2 165/4/2
f 165/1/2 162/1/2 166/1/2
f 163/4/2 165/4/2 167/4/2
f 167/4/2 165/4/2 168/4/2
f 169/1/2 170/1/2 171/1/2
f 171/1/2 170/1/2 172/1/2
f 173/1/2 174/1/2 176/1/2
f 176/1/2 174/1/2 177/1/2
f 175/1/2 176/1/2 177/1/2
f 175/1/2 177/1/2 179/1/2
f 177/4/2 178/4/2 180/4/2
f 179/1/2 177/1/2 180/1/2
f 180/4/2 178/4/2 181/4/2
f 181/4/2 178/4/2 182/4/2
f 182/4/2 178/4/2 183/4/2
f 184/1/2 185/1/2 186/1/2
f 186/1/2 185/1/2 187/1/2
f 190/2/3 189/2/3 188/2/3
f 191/2/3 189/2/3 190/2/3
f 195/2/3 190/2/3 188/2/3
f 196/2/3 190/2/3 195/2/3
f 198/2/3 193/2/3 192/2/3
f 199/1/3 194/1/3 193/1/3
f 199/2/3 193/2/3 198/2/3
f 200/2/3 196/2/3 195/2/3
f 200/1/3 194/1/3 199/1/3
f 200/2/3 197/2/3 196/2/3
f 200/2/3 195/2/3 194/2/3
f 201/2/3 197/2/3 200/2/3
f 202/2/3 197/2/3 201/2/3
f 203/2/3 197/2/3 202/2/3
f 204/2/3 202/2/3 201/2/3
f 206/2/3 204/2/3 201/2/3
f 206/2/3 205/2/3 204/2/3
f 207/2/3 205/2/3 206/2/3
f 212/1/3 211/1/3 210/1/3
f 213/1/3 211/1/3 212/1/3
f 216/1/3 209/1/3 208/1/3
f 218/4/3 215/4/3 214/4/3
f 219/4/3 215/4/3 218/4/3
f 222/4/3 221/4/3 220/4/3
f 223/4/3 221/4/3 222/4/3
f 224/1/3 217/1/3 216/1/3
f 224/1/3 216/1/3 208/1/3
f 225/1/3 217/1/3 224/1/3
f 229/1/3 227/1/3 226/1/3
f 230/1/3 229/1/3 228/1/3
f 231/1/3 227/1/3 229/1/3
f 231/1/3 229/1/3 230/1/3
f 239/1/3 233/1/3 232/1/3
f 240/1/3 233/1/3 239/1/3
f 241/1/3 238/1/3 237/1/3
f 245/1/3 242/1/3 241/1/3
f 245/1/3 241/1/3 237/1/3
f 246/1/3 242/1/3 245/1/3
f 247/1/3 244/1/3 243/1/3
f 248/1/3 244/1/3 247/1/3
f 249/3/3 235/3/3 234/3/3
f 250/1/3 236/1/3 235/1/3
f 250/3/3 235/3/3 249/3/3
f 251/1/3 236/1/3 250/1/3
f 252/1/3 245/1/3 237/1/3
f 253/1/3 245/1/3 252/1/3
f 257/1/3 255/1/3 254/1/3
f 257/1/3 256/1/3 255/1/3
f 258/1/3 256/1/3 257/1/3
f 259/1/3 256/1/3 258/1/3
f 260/1/3 256/1/3 259/1/3
f 263/1/3 262/1/3 261/1/3
f 264/1/3 262/1/3 263/1/3
f 267/1/3 266/1/3 265/1/3
f 268/1/3 266/1/3 267/1/3
f 271/1/3 270/1/3 269/1/3
f 272/1/3 270/1/3 271/1/3
f 275/4/3 274/4/3 273/4/3
f 276/4/3 274/4/3 275/4/3
f 279/4/3 278/4/3 277/4/3
f 280/4/3 278/4/3 279/4/3
f 283/4/3 282/4/3 281/4/3
f 284/4/3 282/4/3 283/4/3
f 285/2/4 286/2/4 287/2/4
f 287/2/4 286/2/4 288/2/4
f 285/2/4 287/2/4 292/2/4
f 292/2/4 287/2/4 293/2/4
f 289/2/4 290/2/4 295/2/4
f 295/2/4 290/2/4 296/2/4
f 293/2/4 294/2/4 297/2/4
f 292/2/4 293/2/4 297/2/4
f 291/2/4 292/2/4 297/2/4
f 297/2/4 294/2/4 298/2/4
f 298/2/4 294/2/4 299/2/4
f 300/2/4 301/2/4 302/2/4
f 302/2/4 301/2/4 303/2/4
f 304/4/4 305/4/4 306/4/4
f 306/4/4 305/4/4 307/4/4
f 308/4/4 309/4/4 310/4/4
f 310/4/4 309/4/4 311/4/4
f 312/1/4 313/1/4 314/1/4
f 314/1/4 313/1/4 315/1/4
f 316/1/4 317/1/4 318/1/4
f 318/1/4 317/1/4 319/1/4
f 320/1/4 321/1/4 324/1/4
f 324/1/4 321/1/4 325/1/4
f 322/1/4 323/1/4 326/1/4
f 326/1/4 323/1/4 327/1/4
f 327/1/4 328/1/4 332/1/4
f 332/1/4 328/1/4 333/1/4
f 329/1/4 330/1/4 337/1/4
f 330/3/4 331/3/4 338/3/4
f 337/1/4 330/1/4 338/1/4
f 338/3/4 331/3/4 339/3/4
f 333/1/4 334/1/4 340/1/4
f 331/1/4 332/1/4 340/1/4
f 332/1/4 333/1/4 340/1/4
f 335/1/4 336/1/4 341/1/4
f 339/3/4 331/3/4 344/3/4
f 331/1/4 340/1/4 345/1/4
f 340/1/4 341/1/4 345/1/4
f 341/1/4 336/1/4 346/1/4
f 345/1/4 341/1/4 346/1/4
f 342/1/4 343/1/4 347/1/4
f 343/3/4 344/3/4 348/3/4
f 347/1/4 343/1/4 348/1/4
f 344/3/4 331/3/4 349/3/4
f 348/3/4 344/3/4 349/3/4
f 331/1/4 345/1/4 349/1/4
f 349/1/4 345/1/4 350/1/4
f 350/1/4 345/1/4 351/1/4
f 351/1/4 345/1/4 352/1/4
f 346/1/4 336/1/4 353/1/4
f 353/1/4 336/1/4 354/1/4
f 350/1/4 351/1/4 356/1/4
f 356/1/4 351/1/4 357/1/4
f 355/1/4 356/1/4 358/1/4
f 358/1/4 356/1/4 359/1/4
f 360/1/4 361/1/4 362/1/4
f 362/1/4 361/1/4 363/1/4
f 364/4/4 365/4/4 366/4/4
f 366/4/4 365/4/4 367/4/4
f 367/4/4 365/4/4 368/4/4
f 368/4/4 365/4/4 369/4/4
f 369/4/4 365/4/4 370/4/4
f 370/4/4 365/4/4 371/4/4
f 372/4/4 373/4/4 375/4/4
f 374/4/4 375/4/4 377/4/4
f 376/4/4 377/4/4 378/4/4
f 375/4/4 373/4/4 379/4/4
f 378/4/4 377/4/4 379/4/4
f 377/4/4 375/4/4 379/4/4
f 380/4/4 381/4/4 382/4/4
f 382/4/4 381/4/4 383/4/4
f 386/2/5 385/2/5 384/2/5
f 387/2/5 385/2/5 386/2/5
f 392/1/5 389/1/5 388/1/5
f 393/1/5 389/1/5 392/1/5
f 394/1/5 391/1/5 390/1/5
f 395/1/5 391/1/5 394/1/5
f 400/1/5 397/1/5 396/1/5
f 401/1/5 397/1/5 400/1/5
f 402/1/5 399/1/5 398/1/5
f 403/1/5 399/1/5 402/1/5
f 406/3/5 405/3/5 404/3/5
f 407/3/5 405/3/5 406/3/5
f 408/3/5 405/3/5 407/3/5
f 409/3/5 405/3/5 408/3/5
f 410/3/5 408/3/5 407/3/5
f 411/3/5 408/3/5 410/3/5
f 412/4/5 411/4/5 410/4/5
f 413/4/5 411/4/5 412/4/5
f 416/1/5 415/1/5 414/1/5
f 417/1/5 415/1/5 416/1/5
f 422/1/5 421/1/5 420/1/5
f 423/1/5 421/1/5 422/1/5
f 424/1/5 419/1/5 418/1/5
f 425/1/5 419/1/5 424/1/5
f 428/1/5 427/1/5 426/1/5
f 429/1/5 427/1/5 428/1/5
f 430/1/5 427/1/5 429/1/5
f 432/1/5 428/1/5 426/1/5
f 433/1/5 428/1/5 432/1/5
f 434/1/5 430/1/5 429/1/5
f 435/1/5 430/1/5 434/1/5
f 437/4/5 432/4/5 431/4/5
f 438/4/5 432/4/5 437/4/5
f 439/4/5 436/4/5 435/4/5
f 440/4/5 436/4/5 439/4/5
f 445/2/5 442/2/5 441/2/5
f 446/2/5 442/2/5 445/2/5
f 447/2/5 444/2/5 443/2/5
f 448/2/5 444/2/5 447/2/5
f 453/1/5 450/1/5 449/1/5
f 454/1/5 450/1/5 453/1/5
f 459/1/5 452/1/5 451/1/5
f 460/1/5 452/1/5 459/1/5
f 461/4/5 456/4/5 455/4/5
f 462/4/5 456/4/5 461/4/5
f 463/4/5 458/4/5 457/4/5
f 464/4/5 458/4/5 463/4/5
f 469/4/5 466/4/5 465/4/5
f 470/4/5 466/4/5 469/4/5
f 471/4/5 468/4/5 467/4/5
f 472/4/5 468/4/5 471/4/5
f 477/4/5 474/4/5 473/4/5
f 478/4/5 474/4/5 477/4/5
f 479/4/5 476/4/5 475/4/5
f 480/4/5 476/4/5 479/4/5
f 481/1/6 482/1/6 485/1/6
f 485/1/6 482/1/6 486/1/6
f 483/1/6 484/1/6 487/1/6
f 487/1/6 484/1/6 488/1/6
f 489/4/6 490/4/6 491/4/6
f 491/4/6 490/4/6 492/4/6
f 493/4/6 494/4/6 495/4/6
f 495/4/6 494/4/6 496/4/6
f 497/1/6 498/1/6 499/1/6
f 499/1/6 498/1/6 500/1/6
f 501/2/6 502/2/6 505/2/6
f 505/2/6 502/2/6 506/2/6
f 503/2/6 504/2/6 507/2/6
f 507/2/6 504/2/6 508/2/6
f 509/1/6 510/1/6 514/1/6
f 511/1/6 512/1/6 514/1/6
f 510/1/6 511/1/6 514/1/6
f 514/1/6 512/1/6 515/1/6
f 515/1/6 512/1/6 516/1/6
f 516/1/6 512/1/6 517/1/6
f 513/1/6 514/1/6 519/1/6
f 514/1/6 515/1/6 519/1/6
f 519/1/6 515/1/6 520/1/6
f 520/1/6 515/1/6 521/1/6
f 517/1/6 518/1/6 522/1/6
f 516/1/6 517/1/6 522/1/6
f 522/1/6 518/1/6 523/1/6
f 523/1/6 518/1/6 524/1/6
f 525/2/6 526/2/6 529/2/6
f 529/2/6 526/2/6 530/2/6
f 527/2/6 528/2/6 531/2/6
f 531/2/6 528/2/6 532/2/6
f 534/4/6 535/4/6 539/4/6
f 533/4/6 534/4/6 539/4/6
f 539/4/6 535/4/6 540/4/6
f 537/4/6 538/4/6 541/4/6
f 536/4/6 537/4/6 541/4/6
f 541/4/6 538/4/6 542/4/6
f 543/2/6 544/2/6 545/2/6
f 545/2/6 544/2/6 546/2/6
f 547/1/6 548/1/6 551/1/6
f 549/1/6 550/1/6 551/1/6
f 548/1/6 549/1/6 551/1/6
f 551/1/6 550/1/6 552/1/6
f 553/4/6 554/4/6 557/4/6
f 557/4/6 554/4/6 558/4/6
f 555/4/6 556/4/6 559/4/6
f 559/4/6 556/4/6 560/4/6
