# MagicaVoxel @ Ephtracy

# group
o 

# material
mtllib devil_idle_1.mtl
usemtl palette

# normals
vn -1 0 0
vn 1 0 0
vn 0 0 1
vn 0 0 -1
vn 0 -1 0
vn 0 1 0

# texcoords
vt 0.751953 0.5
vt 0.787109 0.5
vt 0.814453 0.5
vt 0.978516 0.5

# verts
v -0.5 0.7 0.3
v -0.5 0.7 0.2
v -0.5 1 0.3
v -0.5 1 0.2
v -0.4 0.5 0.1
v -0.4 0.5 -0.1
v -0.4 0.7 0.1
v -0.4 0.7 -0.1
v -0.3 0 0.3
v -0.3 0 0.2
v -0.3 0.3 0.1
v -0.3 0.3 -0.1
v -0.3 0.4 0.2
v -0.3 0.4 0.1
v -0.3 0.5 0.3
v -0.3 0.5 0.2
v -0.3 0.5 0.1
v -0.3 0.5 -0.1
v -0.3 0.5 -0.2
v -0.3 0.6 0.3
v -0.3 0.6 0.2
v -0.3 0.7 0.3
v -0.3 0.7 0.2
v -0.3 0.7 -0.1
v -0.3 0.8 0.3
v -0.3 0.8 0.2
v -0.3 0.9 -0.1
v -0.3 0.9 -0.2
v -0.3 1.1 0.3
v -0.3 1.1 0.2
v -0.2 0.5 0.2
v -0.2 0.5 0.1
v -0.2 0.6 0.2
v -0.2 0.7 0.1
v -0.2 0.7 -0.1
v -0.2 0.8 0.2
v -0.2 0.8 -0.1
v -0.1 0 0.1
v -0.1 0 -2.98023e-08
v -0.1 0.1 0.1
v -0.1 0.1 -2.98023e-08
v -0.1 0.1 -0.1
v -0.1 0.2 0.1
v -0.1 0.2 -2.98023e-08
v -0.1 0.2 -0.1
v -0.1 0.4 0.1
v -0.1 0.4 -0.1
v -0.1 0.5 0.1
v -0.1 0.5 -0.1
v -0.1 0.8 0.3
v -0.1 0.8 0.2
v -0.1 0.8 0.1
v -0.1 0.8 -0.1
v -0.1 0.9 -0.1
v -0.1 1 0.3
v -0.1 1 0.2
v -0.1 1 0.1
v -0.1 1.1 0.1
v -0.1 1.1 -0.1
v -0.1 1.2 0.2
v -0.1 1.2 0.1
v 5.96046e-08 0.2 -0.1
v 5.96046e-08 0.2 -0.3
v 5.96046e-08 0.3 -0.1
v 5.96046e-08 0.3 -0.2
v 5.96046e-08 0.5 -0.2
v 5.96046e-08 0.5 -0.3
v 0.1 0 0.1
v 0.1 0 -2.98023e-08
v 0.1 0.1 0.1
v 0.1 0.1 -2.98023e-08
v 0.1 0.1 -0.1
v 0.1 0.2 -2.98023e-08
v 0.1 0.2 -0.1
v 0.1 0.7 -0.1
v 0.1 0.7 -0.2
v 0.1 0.9 -0.1
v 0.1 0.9 -0.2
v 0.1 1 0.2
v 0.1 1 0.1
v 0.1 1.1 0.1
v 0.1 1.2 0.2
v 0.1 1.2 0.1
v 0.2 0.6 -0.1
v 0.2 0.6 -0.2
v 0.2 0.7 -0.1
v 0.2 0.7 -0.2
v 0.3 0.1 -2.98023e-08
v 0.3 0.1 -0.1
v 0.3 0.3 0.1
v 0.3 0.3 -2.98023e-08
v 0.3 0.5 0.1
v 0.3 0.5 -0.1
v 0.3 0.5 -0.2
v 0.3 0.6 -0.1
v 0.3 0.6 -0.2
v -0.4 0.8 0.3
v -0.4 0.8 0.2
v -0.4 1 0.3
v -0.4 1 0.2
v -0.2 0 0.3
v -0.2 0 0.2
v -0.2 0.3 0.1
v -0.2 0.3 -0.1
v -0.2 0.4 0.2
v -0.2 0.4 0.1
v -0.2 0.5 0.3
v -0.2 0.5 0.2
v -0.2 0.5 -0.1
v -0.2 0.5 -0.2
v -0.2 0.6 0.3
v -0.2 0.6 0.2
v -0.2 0.6 -0.1
v -0.2 0.6 -0.2
v -0.2 0.7 0.3
v -0.2 0.7 0.2
v -0.2 0.8 0.3
v -0.2 0.8 0.2
v -0.2 1.1 0.3
v -0.2 1.1 0.2
v -0.1 0.6 -0.1
v -0.1 0.6 -0.2
v -0.1 0.7 -0.1
v -0.1 0.7 -0.2
v 5.96046e-08 0 0.1
v 5.96046e-08 0 -2.98023e-08
v 5.96046e-08 0.1 0.1
v 5.96046e-08 0.1 -2.98023e-08
v 5.96046e-08 0.1 -0.1
v 5.96046e-08 0.2 -2.98023e-08
v 5.96046e-08 0.2 -0.1
v 5.96046e-08 0.7 0.3
v 5.96046e-08 0.7 0.2
v 5.96046e-08 0.7 -0.1
v 5.96046e-08 0.7 -0.2
v 5.96046e-08 0.8 0.2
v 5.96046e-08 0.9 -0.1
v 5.96046e-08 0.9 -0.2
v 5.96046e-08 1 0.3
v 5.96046e-08 1 0.2
v 5.96046e-08 1 0.1
v 5.96046e-08 1.1 0.1
v 5.96046e-08 1.2 0.2
v 5.96046e-08 1.2 0.1
v 0.1 0.2 -0.1
v 0.1 0.2 -0.3
v 0.1 0.3 -0.1
v 0.1 0.3 -0.2
v 0.1 0.5 -0.2
v 0.1 0.5 -0.3
v 0.2 0 0.1
v 0.2 0 -2.98023e-08
v 0.2 0.1 0.1
v 0.2 0.1 -2.98023e-08
v 0.2 0.1 -0.1
v 0.2 0.2 0.1
v 0.2 0.2 -2.98023e-08
v 0.2 0.2 -0.1
v 0.2 0.4 0.1
v 0.2 0.4 -0.1
v 0.2 0.5 0.1
v 0.2 0.5 -0.1
v 0.2 0.8 0.1
v 0.2 0.8 -0.1
v 0.2 0.9 -0.1
v 0.2 1 0.2
v 0.2 1 0.1
v 0.2 1.1 0.1
v 0.2 1.1 -0.1
v 0.2 1.2 0.2
v 0.2 1.2 0.1
v 0.3 0.5 0.2
v 0.3 0.5 0.1
v 0.3 0.7 0.1
v 0.3 0.7 -0.1
v 0.3 0.8 0.2
v 0.3 0.8 -0.1
v 0.4 0.1 -2.98023e-08
v 0.4 0.1 -0.1
v 0.4 0.3 0.1
v 0.4 0.3 -2.98023e-08
v 0.4 0.5 0.1
v 0.4 0.5 -0.1
v 0.4 0.5 -0.2
v 0.4 0.7 -0.1
v 0.4 0.9 -0.1
v 0.4 0.9 -0.2
v 0.5 0.5 0.1
v 0.5 0.5 -0.1
v 0.5 0.7 0.1
v 0.5 0.7 -0.1
v -0.5 0.7 0.3
v -0.5 1 0.3
v -0.4 0.8 0.3
v -0.4 1 0.3
v -0.3 0 0.3
v -0.3 0.5 0.3
v -0.3 0.6 0.3
v -0.3 0.7 0.3
v -0.3 0.8 0.3
v -0.3 1.1 0.3
v -0.2 0 0.3
v -0.2 0.5 0.3
v -0.2 0.6 0.3
v -0.2 0.7 0.3
v -0.2 0.8 0.3
v -0.2 1.1 0.3
v -0.1 0.8 0.3
v -0.1 1 0.3
v 5.96046e-08 0.7 0.3
v 5.96046e-08 1 0.3
v -0.2 0.5 0.2
v -0.2 0.6 0.2
v -0.2 0.7 0.2
v -0.1 1 0.2
v -0.1 1.2 0.2
v 5.96046e-08 0.7 0.2
v 5.96046e-08 0.8 0.2
v 5.96046e-08 1 0.2
v 5.96046e-08 1.2 0.2
v 0.1 1 0.2
v 0.1 1.2 0.2
v 0.2 1 0.2
v 0.2 1.2 0.2
v 0.3 0.5 0.2
v 0.3 0.8 0.2
v -0.4 0.5 0.1
v -0.4 0.7 0.1
v -0.3 0.3 0.1
v -0.3 0.4 0.1
v -0.3 0.5 0.1
v -0.2 0.3 0.1
v -0.2 0.4 0.1
v -0.2 0.5 0.1
v -0.2 0.7 0.1
v -0.1 0 0.1
v -0.1 0.1 0.1
v -0.1 0.2 0.1
v -0.1 0.4 0.1
v -0.1 0.5 0.1
v -0.1 0.8 0.1
v -0.1 1 0.1
v 5.96046e-08 0 0.1
v 5.96046e-08 0.1 0.1
v 5.96046e-08 1 0.1
v 5.96046e-08 1.1 0.1
v 0.1 0 0.1
v 0.1 0.1 0.1
v 0.1 1 0.1
v 0.1 1.1 0.1
v 0.2 0 0.1
v 0.2 0.1 0.1
v 0.2 0.2 0.1
v 0.2 0.4 0.1
v 0.2 0.5 0.1
v 0.2 0.8 0.1
v 0.2 1 0.1
v 0.3 0.3 0.1
v 0.3 0.5 0.1
v 0.3 0.7 0.1
v 0.4 0.3 0.1
v 0.4 0.5 0.1
v 0.5 0.5 0.1
v 0.5 0.7 0.1
v -0.1 0.1 -2.98023e-08
v -0.1 0.2 -2.98023e-08
v 5.96046e-08 0.1 -2.98023e-08
v 5.96046e-08 0.2 -2.98023e-08
v 0.1 0.1 -2.98023e-08
v 0.1 0.2 -2.98023e-08
v 0.2 0.1 -2.98023e-08
v 0.2 0.2 -2.98023e-08
v 0.3 0.1 -2.98023e-08
v 0.3 0.3 -2.98023e-08
v 0.4 0.1 -2.98023e-08
v 0.4 0.3 -2.98023e-08
v -0.3 0.7 -0.1
v -0.3 0.9 -0.1
v -0.2 0.7 -0.1
v -0.2 0.8 -0.1
v -0.1 0.8 -0.1
v -0.1 0.9 -0.1
v 0.2 0.8 -0.1
v 0.2 0.9 -0.1
v 0.3 0.7 -0.1
v 0.3 0.8 -0.1
v 0.4 0.7 -0.1
v 0.4 0.9 -0.1
v 5.96046e-08 0.3 -0.2
v 5.96046e-08 0.5 -0.2
v 0.1 0.3 -0.2
v 0.1 0.5 -0.2
v -0.5 0.7 0.2
v -0.5 1 0.2
v -0.4 0.8 0.2
v -0.4 1 0.2
v -0.3 0 0.2
v -0.3 0.4 0.2
v -0.3 0.5 0.2
v -0.3 0.6 0.2
v -0.3 0.7 0.2
v -0.3 0.8 0.2
v -0.3 1.1 0.2
v -0.2 0 0.2
v -0.2 0.4 0.2
v -0.2 0.5 0.2
v -0.2 0.6 0.2
v -0.2 0.8 0.2
v -0.2 1.1 0.2
v -0.1 0.8 0.2
v -0.1 1 0.2
v 5.96046e-08 0.8 0.2
v 5.96046e-08 1 0.2
v -0.1 1.1 0.1
v -0.1 1.2 0.1
v 5.96046e-08 1.1 0.1
v 5.96046e-08 1.2 0.1
v 0.1 1.1 0.1
v 0.1 1.2 0.1
v 0.2 1.1 0.1
v 0.2 1.2 0.1
v -0.1 0 -2.98023e-08
v -0.1 0.1 -2.98023e-08
v 5.96046e-08 0 -2.98023e-08
v 5.96046e-08 0.1 -2.98023e-08
v 0.1 0 -2.98023e-08
v 0.1 0.1 -2.98023e-08
v 0.2 0 -2.98023e-08
v 0.2 0.1 -2.98023e-08
v -0.4 0.5 -0.1
v -0.4 0.7 -0.1
v -0.3 0.3 -0.1
v -0.3 0.5 -0.1
v -0.3 0.7 -0.1
v -0.2 0.3 -0.1
v -0.2 0.5 -0.1
v -0.2 0.6 -0.1
v -0.1 0.1 -0.1
v -0.1 0.2 -0.1
v -0.1 0.4 -0.1
v -0.1 0.5 -0.1
v -0.1 0.6 -0.1
v -0.1 0.7 -0.1
v -0.1 0.9 -0.1
v -0.1 1.1 -0.1
v 5.96046e-08 0.1 -0.1
v 5.96046e-08 0.2 -0.1
v 5.96046e-08 0.3 -0.1
v 5.96046e-08 0.7 -0.1
v 5.96046e-08 0.9 -0.1
v 0.1 0.1 -0.1
v 0.1 0.2 -0.1
v 0.1 0.3 -0.1
v 0.1 0.7 -0.1
v 0.1 0.9 -0.1
v 0.2 0.1 -0.1
v 0.2 0.2 -0.1
v 0.2 0.4 -0.1
v 0.2 0.5 -0.1
v 0.2 0.6 -0.1
v 0.2 0.7 -0.1
v 0.2 0.9 -0.1
v 0.2 1.1 -0.1
v 0.3 0.1 -0.1
v 0.3 0.5 -0.1
v 0.3 0.6 -0.1
v 0.4 0.1 -0.1
v 0.4 0.5 -0.1
v 0.4 0.7 -0.1
v 0.5 0.5 -0.1
v 0.5 0.7 -0.1
v -0.3 0.5 -0.2
v -0.3 0.9 -0.2
v -0.2 0.5 -0.2
v -0.2 0.6 -0.2
v -0.1 0.6 -0.2
v -0.1 0.7 -0.2
v 5.96046e-08 0.7 -0.2
v 5.96046e-08 0.9 -0.2
v 0.1 0.7 -0.2
v 0.1 0.9 -0.2
v 0.2 0.6 -0.2
v 0.2 0.7 -0.2
v 0.3 0.5 -0.2
v 0.3 0.6 -0.2
v 0.4 0.5 -0.2
v 0.4 0.9 -0.2
v 5.96046e-08 0.2 -0.3
v 5.96046e-08 0.5 -0.3
v 0.1 0.2 -0.3
v 0.1 0.5 -0.3
v -0.3 0 0.3
v -0.2 0 0.3
v -0.3 0 0.2
v -0.2 0 0.2
v -0.1 0 0.1
v 5.96046e-08 0 0.1
v 0.1 0 0.1
v 0.2 0 0.1
v -0.1 0 -2.98023e-08
v 5.96046e-08 0 -2.98023e-08
v 0.1 0 -2.98023e-08
v 0.2 0 -2.98023e-08
v -0.1 0.1 -2.98023e-08
v 5.96046e-08 0.1 -2.98023e-08
v 0.1 0.1 -2.98023e-08
v 0.2 0.1 -2.98023e-08
v 0.3 0.1 -2.98023e-08
v 0.4 0.1 -2.98023e-08
v -0.1 0.1 -0.1
v 5.96046e-08 0.1 -0.1
v 0.1 0.1 -0.1
v 0.2 0.1 -0.1
v 0.3 0.1 -0.1
v 0.4 0.1 -0.1
v -0.1 0.2 0.1
v 0.2 0.2 0.1
v -0.1 0.2 -2.98023e-08
v 5.96046e-08 0.2 -2.98023e-08
v 0.1 0.2 -2.98023e-08
v 0.2 0.2 -2.98023e-08
v 5.96046e-08 0.2 -0.1
v 0.1 0.2 -0.1
v 5.96046e-08 0.2 -0.3
v 0.1 0.2 -0.3
v -0.3 0.3 0.1
v -0.2 0.3 0.1
v 0.3 0.3 0.1
v 0.4 0.3 0.1
v 0.3 0.3 -2.98023e-08
v 0.4 0.3 -2.98023e-08
v -0.3 0.3 -0.1
v -0.2 0.3 -0.1
v -0.3 0.4 0.2
v -0.2 0.4 0.2
v -0.3 0.4 0.1
v -0.2 0.4 0.1
v -0.2 0.5 0.2
v 0.3 0.5 0.2
v -0.4 0.5 0.1
v -0.3 0.5 0.1
v -0.1 0.5 0.1
v 0.2 0.5 0.1
v 0.3 0.5 0.1
v 0.4 0.5 0.1
v 0.5 0.5 0.1
v -0.4 0.5 -0.1
v -0.3 0.5 -0.1
v -0.2 0.5 -0.1
v -0.1 0.5 -0.1
v 0.2 0.5 -0.1
v 0.3 0.5 -0.1
v 0.4 0.5 -0.1
v 0.5 0.5 -0.1
v -0.3 0.5 -0.2
v -0.2 0.5 -0.2
v 0.3 0.5 -0.2
v 0.4 0.5 -0.2
v -0.2 0.6 -0.1
v -0.1 0.6 -0.1
v 0.2 0.6 -0.1
v 0.3 0.6 -0.1
v -0.2 0.6 -0.2
v -0.1 0.6 -0.2
v 0.2 0.6 -0.2
v 0.3 0.6 -0.2
v -0.5 0.7 0.3
v -0.3 0.7 0.3
v -0.2 0.7 0.3
v 5.96046e-08 0.7 0.3
v -0.5 0.7 0.2
v -0.3 0.7 0.2
v -0.2 0.7 0.2
v 5.96046e-08 0.7 0.2
v -0.1 0.7 -0.1
v 5.96046e-08 0.7 -0.1
v 0.1 0.7 -0.1
v 0.2 0.7 -0.1
v -0.1 0.7 -0.2
v 5.96046e-08 0.7 -0.2
v 0.1 0.7 -0.2
v 0.2 0.7 -0.2
v -0.1 1 0.2
v 5.96046e-08 1 0.2
v 0.1 1 0.2
v 0.2 1 0.2
v -0.1 1 0.1
v 5.96046e-08 1 0.1
v 0.1 1 0.1
v 0.2 1 0.1
v -0.1 0.1 0.1
v 5.96046e-08 0.1 0.1
v 0.1 0.1 0.1
v 0.2 0.1 0.1
v -0.1 0.1 -2.98023e-08
v 5.96046e-08 0.1 -2.98023e-08
v 0.1 0.1 -2.98023e-08
v 0.2 0.1 -2.98023e-08
v 5.96046e-08 0.3 -0.1
v 0.1 0.3 -0.1
v 5.96046e-08 0.3 -0.2
v 0.1 0.3 -0.2
v -0.3 0.5 0.2
v -0.2 0.5 0.2
v -0.3 0.5 0.1
v -0.2 0.5 0.1
v 5.96046e-08 0.5 -0.2
v 0.1 0.5 -0.2
v 5.96046e-08 0.5 -0.3
v 0.1 0.5 -0.3
v -0.4 0.7 0.1
v -0.2 0.7 0.1
v 0.3 0.7 0.1
v 0.5 0.7 0.1
v -0.4 0.7 -0.1
v -0.3 0.7 -0.1
v -0.2 0.7 -0.1
v 0.3 0.7 -0.1
v 0.4 0.7 -0.1
v 0.5 0.7 -0.1
v -0.4 0.8 0.3
v -0.3 0.8 0.3
v -0.2 0.8 0.3
v -0.1 0.8 0.3
v -0.4 0.8 0.2
v -0.3 0.8 0.2
v -0.2 0.8 0.2
v -0.1 0.8 0.2
v 5.96046e-08 0.8 0.2
v 0.3 0.8 0.2
v -0.1 0.8 0.1
v 0.2 0.8 0.1
v -0.2 0.8 -0.1
v -0.1 0.8 -0.1
v 0.2 0.8 -0.1
v 0.3 0.8 -0.1
v -0.3 0.9 -0.1
v -0.1 0.9 -0.1
v 5.96046e-08 0.9 -0.1
v 0.1 0.9 -0.1
v 0.2 0.9 -0.1
v 0.4 0.9 -0.1
v -0.3 0.9 -0.2
v 5.96046e-08 0.9 -0.2
v 0.1 0.9 -0.2
v 0.4 0.9 -0.2
v -0.5 1 0.3
v -0.4 1 0.3
v -0.1 1 0.3
v 5.96046e-08 1 0.3
v -0.5 1 0.2
v -0.4 1 0.2
v -0.1 1 0.2
v 5.96046e-08 1 0.2
v -0.3 1.1 0.3
v -0.2 1.1 0.3
v -0.3 1.1 0.2
v -0.2 1.1 0.2
v -0.1 1.1 0.1
v 5.96046e-08 1.1 0.1
v 0.1 1.1 0.1
v 0.2 1.1 0.1
v -0.1 1.1 -0.1
v 0.2 1.1 -0.1
v -0.1 1.2 0.2
v 5.96046e-08 1.2 0.2
v 0.1 1.2 0.2
v 0.2 1.2 0.2
v -0.1 1.2 0.1
v 5.96046e-08 1.2 0.1
v 0.1 1.2 0.1
v 0.2 1.2 0.1

# faces
f 3/2/1 2/2/1 1/2/1
f 4/2/1 2/2/1 3/2/1
f 7/1/1 6/1/1 5/1/1
f 8/1/1 6/1/1 7/1/1
f 13/2/1 10/2/1 9/2/1
f 14/1/1 12/1/1 11/1/1
f 15/2/1 13/2/1 9/2/1
f 16/1/1 14/1/1 13/1/1
f 16/2/1 13/2/1 15/2/1
f 17/1/1 12/1/1 14/1/1
f 17/1/1 14/1/1 16/1/1
f 18/1/1 12/1/1 17/1/1
f 20/1/1 16/1/1 15/1/1
f 21/1/1 16/1/1 20/1/1
f 22/2/1 21/2/1 20/2/1
f 23/2/1 21/2/1 22/2/1
f 24/4/1 19/4/1 18/4/1
f 27/4/1 19/4/1 24/4/1
f 28/4/1 19/4/1 27/4/1
f 29/2/1 26/2/1 25/2/1
f 30/2/1 26/2/1 29/2/1
f 33/1/1 32/1/1 31/1/1
f 34/1/1 32/1/1 33/1/1
f 36/1/1 34/1/1 33/1/1
f 36/1/1 35/1/1 34/1/1
f 37/1/1 35/1/1 36/1/1
f 40/1/1 39/1/1 38/1/1
f 41/1/1 39/1/1 40/1/1
f 44/1/1 42/1/1 41/1/1
f 45/1/1 42/1/1 44/1/1
f 46/3/1 44/3/1 43/3/1
f 46/3/1 45/3/1 44/3/1
f 47/3/1 45/3/1 46/3/1
f 48/1/1 47/1/1 46/1/1
f 49/1/1 47/1/1 48/1/1
f 54/1/1 53/1/1 52/1/1
f 55/2/1 51/2/1 50/2/1
f 56/2/1 51/2/1 55/2/1
f 57/1/1 54/1/1 52/1/1
f 58/4/1 57/4/1 56/4/1
f 58/1/1 54/1/1 57/1/1
f 59/1/1 54/1/1 58/1/1
f 60/4/1 58/4/1 56/4/1
f 61/4/1 58/4/1 60/4/1
f 64/4/1 63/4/1 62/4/1
f 65/4/1 63/4/1 64/4/1
f 66/4/1 63/4/1 65/4/1
f 67/4/1 63/4/1 66/4/1
f 70/1/1 69/1/1 68/1/1
f 71/1/1 69/1/1 70/1/1
f 73/1/1 72/1/1 71/1/1
f 74/1/1 72/1/1 73/1/1
f 77/4/1 76/4/1 75/4/1
f 78/4/1 76/4/1 77/4/1
f 81/4/1 80/4/1 79/4/1
f 82/4/1 81/4/1 79/4/1
f 83/4/1 81/4/1 82/4/1
f 86/4/1 85/4/1 84/4/1
f 87/4/1 85/4/1 86/4/1
f 91/1/1 89/1/1 88/1/1
f 92/1/1 91/1/1 90/1/1
f 93/1/1 89/1/1 91/1/1
f 93/1/1 91/1/1 92/1/1
f 95/4/1 94/4/1 93/4/1
f 96/4/1 94/4/1 95/4/1
f 97/2/2 98/2/2 99/2/2
f 99/2/2 98/2/2 100/2/2
f 101/2/2 102/2/2 105/2/2
f 103/1/2 104/1/2 106/1/2
f 101/2/2 105/2/2 107/2/2
f 105/1/2 106/1/2 108/1/2
f 107/2/2 105/2/2 108/2/2
f 106/1/2 104/1/2 109/1/2
f 108/1/2 106/1/2 109/1/2
f 107/1/2 108/1/2 111/1/2
f 111/1/2 108/1/2 112/1/2
f 109/4/2 110/4/2 113/4/2
f 113/4/2 110/4/2 114/4/2
f 111/2/2 112/2/2 115/2/2
f 115/2/2 112/2/2 116/2/2
f 117/2/2 118/2/2 119/2/2
f 119/2/2 118/2/2 120/2/2
f 121/4/2 122/4/2 123/4/2
f 123/4/2 122/4/2 124/4/2
f 125/1/2 126/1/2 127/1/2
f 127/1/2 126/1/2 128/1/2
f 128/1/2 129/1/2 130/1/2
f 130/1/2 129/1/2 131/1/2
f 132/2/2 133/2/2 136/2/2
f 134/4/2 135/4/2 137/4/2
f 137/4/2 135/4/2 138/4/2
f 132/2/2 136/2/2 139/2/2
f 139/2/2 136/2/2 140/2/2
f 140/4/2 141/4/2 142/4/2
f 140/4/2 142/4/2 143/4/2
f 143/4/2 142/4/2 144/4/2
f 145/4/2 146/4/2 147/4/2
f 147/4/2 146/4/2 148/4/2
f 148/4/2 146/4/2 149/4/2
f 149/4/2 146/4/2 150/4/2
f 151/1/2 152/1/2 153/1/2
f 153/1/2 152/1/2 154/1/2
f 154/1/2 155/1/2 157/1/2
f 157/1/2 155/1/2 158/1/2
f 156/3/2 157/3/2 159/3/2
f 157/3/2 158/3/2 159/3/2
f 159/3/2 158/3/2 160/3/2
f 159/1/2 160/1/2 161/1/2
f 161/1/2 160/1/2 162/1/2
f 163/1/2 164/1/2 165/1/2
f 163/1/2 165/1/2 167/1/2
f 167/1/2 165/1/2 168/1/2
f 166/4/2 167/4/2 168/4/2
f 168/1/2 165/1/2 169/1/2
f 166/4/2 168/4/2 170/4/2
f 170/4/2 168/4/2 171/4/2
f 172/1/2 173/1/2 174/1/2
f 172/1/2 174/1/2 176/1/2
f 174/1/2 175/1/2 176/1/2
f 176/1/2 175/1/2 177/1/2
f 178/1/2 179/1/2 181/1/2
f 180/1/2 181/1/2 182/1/2
f 181/1/2 179/1/2 183/1/2
f 182/1/2 181/1/2 183/1/2
f 183/4/2 184/4/2 185/4/2
f 185/4/2 184/4/2 186/4/2
f 186/4/2 184/4/2 187/4/2
f 188/1/2 189/1/2 190/1/2
f 190/1/2 189/1/2 191/1/2
f 194/2/3 193/2/3 192/2/3
f 195/2/3 193/2/3 194/2/3
f 199/2/3 194/2/3 192/2/3
f 200/2/3 194/2/3 199/2/3
f 202/2/3 197/2/3 196/2/3
f 203/1/3 198/1/3 197/1/3
f 203/2/3 197/2/3 202/2/3
f 204/2/3 200/2/3 199/2/3
f 204/1/3 198/1/3 203/1/3
f 204/2/3 201/2/3 200/2/3
f 204/2/3 199/2/3 198/2/3
f 205/2/3 201/2/3 204/2/3
f 206/2/3 201/2/3 205/2/3
f 207/2/3 201/2/3 206/2/3
f 208/2/3 206/2/3 205/2/3
f 210/2/3 208/2/3 205/2/3
f 210/2/3 209/2/3 208/2/3
f 211/2/3 209/2/3 210/2/3
f 217/1/3 213/1/3 212/1/3
f 217/1/3 214/1/3 213/1/3
f 219/4/3 216/4/3 215/4/3
f 220/4/3 216/4/3 219/4/3
f 223/4/3 222/4/3 221/4/3
f 224/4/3 222/4/3 223/4/3
f 225/1/3 218/1/3 217/1/3
f 225/1/3 217/1/3 212/1/3
f 226/1/3 218/1/3 225/1/3
f 231/1/3 228/1/3 227/1/3
f 232/1/3 230/1/3 229/1/3
f 233/1/3 230/1/3 232/1/3
f 234/1/3 228/1/3 231/1/3
f 235/1/3 228/1/3 234/1/3
f 243/1/3 237/1/3 236/1/3
f 244/1/3 237/1/3 243/1/3
f 245/1/3 242/1/3 241/1/3
f 249/1/3 246/1/3 245/1/3
f 249/1/3 245/1/3 241/1/3
f 250/1/3 246/1/3 249/1/3
f 251/1/3 248/1/3 247/1/3
f 252/1/3 248/1/3 251/1/3
f 253/3/3 239/3/3 238/3/3
f 254/1/3 240/1/3 239/1/3
f 254/3/3 239/3/3 253/3/3
f 255/1/3 240/1/3 254/1/3
f 256/1/3 249/1/3 241/1/3
f 257/1/3 249/1/3 256/1/3
f 261/1/3 259/1/3 258/1/3
f 261/1/3 260/1/3 259/1/3
f 262/1/3 260/1/3 261/1/3
f 263/1/3 260/1/3 262/1/3
f 264/1/3 260/1/3 263/1/3
f 267/1/3 266/1/3 265/1/3
f 268/1/3 266/1/3 267/1/3
f 271/1/3 270/1/3 269/1/3
f 272/1/3 270/1/3 271/1/3
f 275/1/3 274/1/3 273/1/3
f 276/1/3 274/1/3 275/1/3
f 279/4/3 278/4/3 277/4/3
f 280/4/3 278/4/3 279/4/3
f 281/4/3 278/4/3 280/4/3
f 282/4/3 278/4/3 281/4/3
f 286/4/3 284/4/3 283/4/3
f 287/4/3 286/4/3 285/4/3
f 288/4/3 284/4/3 286/4/3
f 288/4/3 286/4/3 287/4/3
f 291/4/3 290/4/3 289/4/3
f 292/4/3 290/4/3 291/4/3
f 293/2/4 294/2/4 295/2/4
f 295/2/4 294/2/4 296/2/4
f 293/2/4 295/2/4 301/2/4
f 301/2/4 295/2/4 302/2/4
f 297/2/4 298/2/4 304/2/4
f 304/2/4 298/2/4 305/2/4
f 299/1/4 300/1/4 306/1/4
f 301/2/4 302/2/4 307/2/4
f 306/1/4 300/1/4 307/1/4
f 302/2/4 303/2/4 307/2/4
f 300/2/4 301/2/4 307/2/4
f 307/2/4 303/2/4 308/2/4
f 308/2/4 303/2/4 309/2/4
f 310/2/4 311/2/4 312/2/4
f 312/2/4 311/2/4 313/2/4
f 314/4/4 315/4/4 316/4/4
f 316/4/4 315/4/4 317/4/4
f 318/4/4 319/4/4 320/4/4
f 320/4/4 319/4/4 321/4/4
f 322/1/4 323/1/4 324/1/4
f 324/1/4 323/1/4 325/1/4
f 326/1/4 327/1/4 328/1/4
f 328/1/4 327/1/4 329/1/4
f 330/1/4 331/1/4 333/1/4
f 333/1/4 331/1/4 334/1/4
f 332/1/4 333/1/4 335/1/4
f 335/1/4 333/1/4 336/1/4
f 336/1/4 337/1/4 341/1/4
f 341/1/4 337/1/4 342/1/4
f 338/1/4 339/1/4 346/1/4
f 339/3/4 340/3/4 347/3/4
f 346/1/4 339/1/4 347/1/4
f 347/3/4 340/3/4 348/3/4
f 342/1/4 343/1/4 349/1/4
f 340/1/4 341/1/4 349/1/4
f 341/1/4 342/1/4 349/1/4
f 344/1/4 345/1/4 350/1/4
f 348/3/4 340/3/4 353/3/4
f 340/1/4 349/1/4 354/1/4
f 349/1/4 350/1/4 354/1/4
f 350/1/4 345/1/4 355/1/4
f 354/1/4 350/1/4 355/1/4
f 351/1/4 352/1/4 356/1/4
f 352/3/4 353/3/4 357/3/4
f 356/1/4 352/1/4 357/1/4
f 353/3/4 340/3/4 358/3/4
f 357/3/4 353/3/4 358/3/4
f 340/1/4 354/1/4 358/1/4
f 358/1/4 354/1/4 359/1/4
f 359/1/4 354/1/4 360/1/4
f 360/1/4 354/1/4 361/1/4
f 355/1/4 345/1/4 362/1/4
f 362/1/4 345/1/4 363/1/4
f 359/1/4 360/1/4 365/1/4
f 365/1/4 360/1/4 366/1/4
f 364/1/4 365/1/4 367/1/4
f 367/1/4 365/1/4 368/1/4
f 368/1/4 369/1/4 370/1/4
f 370/1/4 369/1/4 371/1/4
f 372/4/4 373/4/4 374/4/4
f 374/4/4 373/4/4 375/4/4
f 375/4/4 373/4/4 376/4/4
f 376/4/4 373/4/4 377/4/4
f 377/4/4 373/4/4 378/4/4
f 378/4/4 373/4/4 379/4/4
f 380/4/4 381/4/4 383/4/4
f 382/4/4 383/4/4 385/4/4
f 384/4/4 385/4/4 386/4/4
f 383/4/4 381/4/4 387/4/4
f 386/4/4 385/4/4 387/4/4
f 385/4/4 383/4/4 387/4/4
f 388/4/4 389/4/4 390/4/4
f 390/4/4 389/4/4 391/4/4
f 394/2/5 393/2/5 392/2/5
f 395/2/5 393/2/5 394/2/5
f 400/1/5 397/1/5 396/1/5
f 401/1/5 397/1/5 400/1/5
f 402/1/5 399/1/5 398/1/5
f 403/1/5 399/1/5 402/1/5
f 410/1/5 405/1/5 404/1/5
f 411/1/5 405/1/5 410/1/5
f 412/1/5 407/1/5 406/1/5
f 413/1/5 407/1/5 412/1/5
f 414/1/5 409/1/5 408/1/5
f 415/1/5 409/1/5 414/1/5
f 418/3/5 417/3/5 416/3/5
f 419/3/5 417/3/5 418/3/5
f 420/3/5 417/3/5 419/3/5
f 421/3/5 417/3/5 420/3/5
f 422/3/5 420/3/5 419/3/5
f 423/3/5 420/3/5 422/3/5
f 424/4/5 423/4/5 422/4/5
f 425/4/5 423/4/5 424/4/5
f 430/1/5 429/1/5 428/1/5
f 431/1/5 429/1/5 430/1/5
f 432/1/5 427/1/5 426/1/5
f 433/1/5 427/1/5 432/1/5
f 436/1/5 435/1/5 434/1/5
f 437/1/5 435/1/5 436/1/5
f 442/1/5 439/1/5 438/1/5
f 443/1/5 439/1/5 442/1/5
f 444/1/5 439/1/5 443/1/5
f 447/1/5 441/1/5 440/1/5
f 448/1/5 441/1/5 447/1/5
f 449/1/5 442/1/5 438/1/5
f 450/1/5 442/1/5 449/1/5
f 451/1/5 444/1/5 443/1/5
f 452/1/5 444/1/5 451/1/5
f 453/1/5 446/1/5 445/1/5
f 454/1/5 446/1/5 453/1/5
f 455/4/5 449/4/5 448/4/5
f 456/4/5 449/4/5 455/4/5
f 457/4/5 453/4/5 452/4/5
f 458/4/5 453/4/5 457/4/5
f 463/4/5 460/4/5 459/4/5
f 464/4/5 460/4/5 463/4/5
f 465/4/5 462/4/5 461/4/5
f 466/4/5 462/4/5 465/4/5
f 471/2/5 468/2/5 467/2/5
f 472/2/5 468/2/5 471/2/5
f 473/2/5 470/2/5 469/2/5
f 474/2/5 470/2/5 473/2/5
f 479/4/5 476/4/5 475/4/5
f 480/4/5 476/4/5 479/4/5
f 481/4/5 478/4/5 477/4/5
f 482/4/5 478/4/5 481/4/5
f 487/4/5 484/4/5 483/4/5
f 488/4/5 484/4/5 487/4/5
f 489/4/5 486/4/5 485/4/5
f 490/4/5 486/4/5 489/4/5
f 491/1/6 492/1/6 495/1/6
f 495/1/6 492/1/6 496/1/6
f 493/1/6 494/1/6 497/1/6
f 497/1/6 494/1/6 498/1/6
f 499/4/6 500/4/6 501/4/6
f 501/4/6 500/4/6 502/4/6
f 503/1/6 504/1/6 505/1/6
f 505/1/6 504/1/6 506/1/6
f 507/4/6 508/4/6 509/4/6
f 509/4/6 508/4/6 510/4/6
f 511/1/6 512/1/6 515/1/6
f 515/1/6 512/1/6 516/1/6
f 516/1/6 512/1/6 517/1/6
f 513/1/6 514/1/6 518/1/6
f 518/1/6 514/1/6 519/1/6
f 519/1/6 514/1/6 520/1/6
f 521/2/6 522/2/6 525/2/6
f 525/2/6 522/2/6 526/2/6
f 523/2/6 524/2/6 527/2/6
f 527/2/6 524/2/6 528/2/6
f 529/1/6 530/1/6 531/1/6
f 528/1/6 529/1/6 531/1/6
f 527/1/6 528/1/6 531/1/6
f 531/1/6 530/1/6 532/1/6
f 527/1/6 531/1/6 533/1/6
f 533/1/6 531/1/6 534/1/6
f 532/1/6 530/1/6 535/1/6
f 535/1/6 530/1/6 536/1/6
f 537/4/6 538/4/6 543/4/6
f 538/4/6 539/4/6 543/4/6
f 543/4/6 539/4/6 544/4/6
f 541/4/6 542/4/6 545/4/6
f 540/4/6 541/4/6 545/4/6
f 545/4/6 542/4/6 546/4/6
f 547/2/6 548/2/6 551/2/6
f 551/2/6 548/2/6 552/2/6
f 549/2/6 550/2/6 553/2/6
f 553/2/6 550/2/6 554/2/6
f 555/2/6 556/2/6 557/2/6
f 557/2/6 556/2/6 558/2/6
f 559/1/6 560/1/6 563/1/6
f 561/1/6 562/1/6 563/1/6
f 560/1/6 561/1/6 563/1/6
f 563/1/6 562/1/6 564/1/6
f 565/4/6 566/4/6 569/4/6
f 569/4/6 566/4/6 570/4/6
f 567/4/6 568/4/6 571/4/6
f 571/4/6 568/4/6 572/4/6
