# MagicaVoxel @ Ephtracy

# group
o 

# material
mtllib wall_torch_c_b.mtl
usemtl palette

# normals
vn -1 0 0
vn 1 0 0
vn 0 0 1
vn 0 0 -1
vn 0 -1 0
vn 0 1 0

# texcoords
vt 0.787109 0.5
vt 0.791016 0.5
vt 0.912109 0.5

# verts
v -0.1 0.5 0.1
v -0.1 0.5 -0.1
v -0.1 0.7 0.1
v -0.1 0.7 -0.1
v 0 0 0.1
v 0 0 0
v 0 0.2 0.1
v 0 0.2 0
v 0 0.2 -0.2
v 0 0.3 0.1
v 0 0.3 0
v 0 0.3 -0.2
v 0 0.5 0.2
v 0 0.5 0.1
v 0 0.5 0
v 0 0.6 0.2
v 0 0.6 0.1
v 0 0.7 0.1
v 0 0.7 0
v 0 1 0.1
v 0 1 0
v 0.1 0.6 0.2
v 0.1 0.6 0.1
v 0.1 0.7 0
v 0.1 0.7 -0.1
v 0.1 0.8 0
v 0.1 0.8 -0.1
v 0.1 0.9 0.2
v 0.1 0.9 0.1
v 0.1 0 0.1
v 0.1 0 0
v 0.1 0.2 0.1
v 0.1 0.2 0
v 0.1 0.2 -0.2
v 0.1 0.3 0.1
v 0.1 0.3 0
v 0.1 0.3 -0.2
v 0.1 0.5 0.1
v 0.1 0.5 0
v 0.1 0.9 0.1
v 0.1 0.9 0
v 0.1 1 0.1
v 0.1 1 0
v 0.2 0.5 0.2
v 0.2 0.5 -0.1
v 0.2 0.8 0
v 0.2 0.8 -0.1
v 0.2 0.9 0.2
v 0.2 0.9 0
v 0 0.5 0.2
v 0 0.6 0.2
v 0.1 0.6 0.2
v 0.1 0.9 0.2
v 0.2 0.5 0.2
v 0.2 0.9 0.2
v -0.1 0.5 0.1
v -0.1 0.7 0.1
v 0 0 0.1
v 0 0.2 0.1
v 0 0.3 0.1
v 0 0.5 0.1
v 0 0.6 0.1
v 0 0.7 0.1
v 0 1 0.1
v 0.1 0 0.1
v 0.1 0.2 0.1
v 0.1 0.3 0.1
v 0.1 0.5 0.1
v 0.1 0.6 0.1
v 0.1 0.9 0.1
v 0.1 1 0.1
v 0 0 0
v 0 0.2 0
v 0 0.3 0
v 0 0.5 0
v 0 0.7 0
v 0 1 0
v 0.1 0 0
v 0.1 0.2 0
v 0.1 0.3 0
v 0.1 0.5 0
v 0.1 0.7 0
v 0.1 0.8 0
v 0.1 0.9 0
v 0.1 1 0
v 0.2 0.8 0
v 0.2 0.9 0
v -0.1 0.5 -0.1
v -0.1 0.7 -0.1
v 0.1 0.7 -0.1
v 0.1 0.8 -0.1
v 0.2 0.5 -0.1
v 0.2 0.8 -0.1
v 0 0.2 -0.2
v 0 0.3 -0.2
v 0.1 0.2 -0.2
v 0.1 0.3 -0.2
v 0 0 0.1
v 0.1 0 0.1
v 0 0 0
v 0.1 0 0
v 0 0.2 0
v 0.1 0.2 0
v 0 0.2 -0.2
v 0.1 0.2 -0.2
v 0 0.5 0.2
v 0.2 0.5 0.2
v -0.1 0.5 0.1
v 0 0.5 0.1
v 0.1 0.5 0.1
v 0 0.5 0
v 0.1 0.5 0
v -0.1 0.5 -0.1
v 0.2 0.5 -0.1
v 0 0.3 0
v 0.1 0.3 0
v 0 0.3 -0.2
v 0.1 0.3 -0.2
v 0 0.6 0.2
v 0.1 0.6 0.2
v 0 0.6 0.1
v 0.1 0.6 0.1
v -0.1 0.7 0.1
v 0 0.7 0.1
v 0 0.7 0
v 0.1 0.7 0
v -0.1 0.7 -0.1
v 0.1 0.7 -0.1
v 0.1 0.8 0
v 0.2 0.8 0
v 0.1 0.8 -0.1
v 0.2 0.8 -0.1
v 0.1 0.9 0.2
v 0.2 0.9 0.2
v 0.1 0.9 0.1
v 0.1 0.9 0
v 0.2 0.9 0
v 0 1 0.1
v 0.1 1 0.1
v 0 1 0
v 0.1 1 0

# faces
f 3/3/1 2/3/1 1/3/1
f 4/3/1 2/3/1 3/3/1
f 7/1/1 6/1/1 5/1/1
f 8/1/1 6/1/1 7/1/1
f 10/2/1 8/2/1 7/2/1
f 10/2/1 9/2/1 8/2/1
f 11/2/1 9/2/1 10/2/1
f 12/2/1 9/2/1 11/2/1
f 14/1/1 11/1/1 10/1/1
f 15/1/1 11/1/1 14/1/1
f 16/3/1 14/3/1 13/3/1
f 17/3/1 14/3/1 16/3/1
f 20/3/1 19/3/1 18/3/1
f 21/3/1 19/3/1 20/3/1
f 26/3/1 25/3/1 24/3/1
f 27/3/1 25/3/1 26/3/1
f 28/3/1 23/3/1 22/3/1
f 29/3/1 23/3/1 28/3/1
f 30/1/2 31/1/2 32/1/2
f 32/1/2 31/1/2 33/1/2
f 32/2/2 33/2/2 35/2/2
f 33/2/2 34/2/2 35/2/2
f 35/2/2 34/2/2 36/2/2
f 36/2/2 34/2/2 37/2/2
f 35/1/2 36/1/2 38/1/2
f 38/1/2 36/1/2 39/1/2
f 40/3/2 41/3/2 42/3/2
f 42/3/2 41/3/2 43/3/2
f 44/3/2 45/3/2 46/3/2
f 46/3/2 45/3/2 47/3/2
f 44/3/2 46/3/2 48/3/2
f 48/3/2 46/3/2 49/3/2
f 52/3/3 51/3/3 50/3/3
f 54/3/3 52/3/3 50/3/3
f 54/3/3 53/3/3 52/3/3
f 55/3/3 53/3/3 54/3/3
f 61/3/3 57/3/3 56/3/3
f 62/3/3 57/3/3 61/3/3
f 63/3/3 57/3/3 62/3/3
f 65/1/3 59/1/3 58/1/3
f 66/2/3 60/2/3 59/2/3
f 66/1/3 59/1/3 65/1/3
f 67/1/3 61/1/3 60/1/3
f 67/2/3 60/2/3 66/2/3
f 68/1/3 61/1/3 67/1/3
f 69/3/3 64/3/3 63/3/3
f 69/3/3 63/3/3 62/3/3
f 70/3/3 64/3/3 69/3/3
f 71/3/3 64/3/3 70/3/3
f 72/1/4 73/1/4 78/1/4
f 78/1/4 73/1/4 79/1/4
f 74/1/4 75/1/4 80/1/4
f 80/1/4 75/1/4 81/1/4
f 76/3/4 77/3/4 82/3/4
f 82/3/4 77/3/4 83/3/4
f 83/3/4 77/3/4 84/3/4
f 84/3/4 77/3/4 85/3/4
f 83/3/4 84/3/4 86/3/4
f 86/3/4 84/3/4 87/3/4
f 88/3/4 89/3/4 90/3/4
f 88/3/4 90/3/4 92/3/4
f 90/3/4 91/3/4 92/3/4
f 92/3/4 91/3/4 93/3/4
f 94/2/4 95/2/4 96/2/4
f 96/2/4 95/2/4 97/2/4
f 100/1/5 99/1/5 98/1/5
f 101/1/5 99/1/5 100/1/5
f 104/2/5 103/2/5 102/2/5
f 105/2/5 103/2/5 104/2/5
f 109/3/5 107/3/5 106/3/5
f 110/3/5 107/3/5 109/3/5
f 111/3/5 109/3/5 108/3/5
f 112/3/5 107/3/5 110/3/5
f 113/3/5 111/3/5 108/3/5
f 113/3/5 112/3/5 111/3/5
f 114/3/5 107/3/5 112/3/5
f 114/3/5 112/3/5 113/3/5
f 115/2/6 116/2/6 117/2/6
f 117/2/6 116/2/6 118/2/6
f 119/3/6 120/3/6 121/3/6
f 121/3/6 120/3/6 122/3/6
f 123/3/6 124/3/6 125/3/6
f 123/3/6 125/3/6 127/3/6
f 125/3/6 126/3/6 127/3/6
f 127/3/6 126/3/6 128/3/6
f 129/3/6 130/3/6 131/3/6
f 131/3/6 130/3/6 132/3/6
f 133/3/6 134/3/6 135/3/6
f 135/3/6 134/3/6 136/3/6
f 136/3/6 134/3/6 137/3/6
f 138/3/6 139/3/6 140/3/6
f 140/3/6 139/3/6 141/3/6
