# MagicaVoxel @ Ephtracy

# group
o 

# material
mtllib wall_torch_a_b.mtl
usemtl palette

# normals
vn -1 0 0
vn 1 0 0
vn 0 0 1
vn 0 0 -1
vn 0 -1 0
vn 0 1 0

# texcoords
vt 0.787109 0.5
vt 0.912109 0.5
vt 0.939453 0.5

# verts
v -0.1 0.5 0.1
v -0.1 0.5 -0.1
v -0.1 0.7 0.1
v -0.1 0.7 -0.1
v 0 0 0.1
v 0 0 0
v 0 0.2 0.1
v 0 0.2 0
v 0 0.2 -0.2
v 0 0.3 0.1
v 0 0.3 0
v 0 0.3 -0.2
v 0 0.5 0.2
v 0 0.5 0.1
v 0 0.5 0
v 0 0.6 0.2
v 0 0.6 0.1
v 0 0.7 0.1
v 0 0.7 0
v 0 1 0.1
v 0 1 0
v 0.1 0.6 0.2
v 0.1 0.6 0.1
v 0.1 0.7 0
v 0.1 0.7 -0.1
v 0.1 0.8 0
v 0.1 0.8 -0.1
v 0.1 0.9 0.2
v 0.1 0.9 0.1
v 0.1 0 0.1
v 0.1 0 0
v 0.1 0.2 0.1
v 0.1 0.2 0
v 0.1 0.2 -0.2
v 0.1 0.3 0.1
v 0.1 0.3 0
v 0.1 0.3 -0.2
v 0.1 0.5 0.1
v 0.1 0.5 0
v 0.1 0.9 0.1
v 0.1 0.9 0
v 0.1 1 0.1
v 0.1 1 0
v 0.2 0.5 0.2
v 0.2 0.5 -0.1
v 0.2 0.8 0
v 0.2 0.8 -0.1
v 0.2 0.9 0.2
v 0.2 0.9 0
v 0 0.5 0.2
v 0 0.6 0.2
v 0.1 0.6 0.2
v 0.1 0.9 0.2
v 0.2 0.5 0.2
v 0.2 0.9 0.2
v -0.1 0.5 0.1
v -0.1 0.7 0.1
v 0 0 0.1
v 0 0.2 0.1
v 0 0.3 0.1
v 0 0.5 0.1
v 0 0.6 0.1
v 0 0.7 0.1
v 0 1 0.1
v 0.1 0 0.1
v 0.1 0.2 0.1
v 0.1 0.3 0.1
v 0.1 0.5 0.1
v 0.1 0.6 0.1
v 0.1 0.9 0.1
v 0.1 1 0.1
v 0 0 0
v 0 0.2 0
v 0 0.3 0
v 0 0.5 0
v 0 0.7 0
v 0 1 0
v 0.1 0 0
v 0.1 0.2 0
v 0.1 0.3 0
v 0.1 0.5 0
v 0.1 0.7 0
v 0.1 0.8 0
v 0.1 0.9 0
v 0.1 1 0
v 0.2 0.8 0
v 0.2 0.9 0
v -0.1 0.5 -0.1
v -0.1 0.7 -0.1
v 0.1 0.7 -0.1
v 0.1 0.8 -0.1
v 0.2 0.5 -0.1
v 0.2 0.8 -0.1
v 0 0.2 -0.2
v 0 0.3 -0.2
v 0.1 0.2 -0.2
v 0.1 0.3 -0.2
v 0 0 0.1
v 0.1 0 0.1
v 0 0 0
v 0.1 0 0
v 0 0.2 0
v 0.1 0.2 0
v 0 0.2 -0.2
v 0.1 0.2 -0.2
v 0 0.5 0.2
v 0.2 0.5 0.2
v -0.1 0.5 0.1
v 0 0.5 0.1
v 0.1 0.5 0.1
v 0 0.5 0
v 0.1 0.5 0
v -0.1 0.5 -0.1
v 0.2 0.5 -0.1
v 0 0.3 0
v 0.1 0.3 0
v 0 0.3 -0.2
v 0.1 0.3 -0.2
v 0 0.6 0.2
v 0.1 0.6 0.2
v 0 0.6 0.1
v 0.1 0.6 0.1
v -0.1 0.7 0.1
v 0 0.7 0.1
v 0 0.7 0
v 0.1 0.7 0
v -0.1 0.7 -0.1
v 0.1 0.7 -0.1
v 0.1 0.8 0
v 0.2 0.8 0
v 0.1 0.8 -0.1
v 0.2 0.8 -0.1
v 0.1 0.9 0.2
v 0.2 0.9 0.2
v 0.1 0.9 0.1
v 0.1 0.9 0
v 0.2 0.9 0
v 0 1 0.1
v 0.1 1 0.1
v 0 1 0
v 0.1 1 0

# faces
f 3/2/1 2/2/1 1/2/1
f 4/2/1 2/2/1 3/2/1
f 7/3/1 6/3/1 5/3/1
f 8/3/1 6/3/1 7/3/1
f 10/1/1 8/1/1 7/1/1
f 10/1/1 9/1/1 8/1/1
f 11/1/1 9/1/1 10/1/1
f 12/1/1 9/1/1 11/1/1
f 14/3/1 11/3/1 10/3/1
f 15/3/1 11/3/1 14/3/1
f 16/2/1 14/2/1 13/2/1
f 17/2/1 14/2/1 16/2/1
f 20/2/1 19/2/1 18/2/1
f 21/2/1 19/2/1 20/2/1
f 26/2/1 25/2/1 24/2/1
f 27/2/1 25/2/1 26/2/1
f 28/2/1 23/2/1 22/2/1
f 29/2/1 23/2/1 28/2/1
f 30/3/2 31/3/2 32/3/2
f 32/3/2 31/3/2 33/3/2
f 32/1/2 33/1/2 35/1/2
f 33/1/2 34/1/2 35/1/2
f 35/1/2 34/1/2 36/1/2
f 36/1/2 34/1/2 37/1/2
f 35/3/2 36/3/2 38/3/2
f 38/3/2 36/3/2 39/3/2
f 40/2/2 41/2/2 42/2/2
f 42/2/2 41/2/2 43/2/2
f 44/2/2 45/2/2 46/2/2
f 46/2/2 45/2/2 47/2/2
f 44/2/2 46/2/2 48/2/2
f 48/2/2 46/2/2 49/2/2
f 52/2/3 51/2/3 50/2/3
f 54/2/3 52/2/3 50/2/3
f 54/2/3 53/2/3 52/2/3
f 55/2/3 53/2/3 54/2/3
f 61/2/3 57/2/3 56/2/3
f 62/2/3 57/2/3 61/2/3
f 63/2/3 57/2/3 62/2/3
f 65/3/3 59/3/3 58/3/3
f 66/1/3 60/1/3 59/1/3
f 66/3/3 59/3/3 65/3/3
f 67/3/3 61/3/3 60/3/3
f 67/1/3 60/1/3 66/1/3
f 68/3/3 61/3/3 67/3/3
f 69/2/3 64/2/3 63/2/3
f 69/2/3 63/2/3 62/2/3
f 70/2/3 64/2/3 69/2/3
f 71/2/3 64/2/3 70/2/3
f 72/3/4 73/3/4 78/3/4
f 78/3/4 73/3/4 79/3/4
f 74/3/4 75/3/4 80/3/4
f 80/3/4 75/3/4 81/3/4
f 76/2/4 77/2/4 82/2/4
f 82/2/4 77/2/4 83/2/4
f 83/2/4 77/2/4 84/2/4
f 84/2/4 77/2/4 85/2/4
f 83/2/4 84/2/4 86/2/4
f 86/2/4 84/2/4 87/2/4
f 88/2/4 89/2/4 90/2/4
f 88/2/4 90/2/4 92/2/4
f 90/2/4 91/2/4 92/2/4
f 92/2/4 91/2/4 93/2/4
f 94/1/4 95/1/4 96/1/4
f 96/1/4 95/1/4 97/1/4
f 100/3/5 99/3/5 98/3/5
f 101/3/5 99/3/5 100/3/5
f 104/1/5 103/1/5 102/1/5
f 105/1/5 103/1/5 104/1/5
f 109/2/5 107/2/5 106/2/5
f 110/2/5 107/2/5 109/2/5
f 111/2/5 109/2/5 108/2/5
f 112/2/5 107/2/5 110/2/5
f 113/2/5 111/2/5 108/2/5
f 113/2/5 112/2/5 111/2/5
f 114/2/5 107/2/5 112/2/5
f 114/2/5 112/2/5 113/2/5
f 115/1/6 116/1/6 117/1/6
f 117/1/6 116/1/6 118/1/6
f 119/2/6 120/2/6 121/2/6
f 121/2/6 120/2/6 122/2/6
f 123/2/6 124/2/6 125/2/6
f 123/2/6 125/2/6 127/2/6
f 125/2/6 126/2/6 127/2/6
f 127/2/6 126/2/6 128/2/6
f 129/2/6 130/2/6 131/2/6
f 131/2/6 130/2/6 132/2/6
f 133/2/6 134/2/6 135/2/6
f 135/2/6 134/2/6 136/2/6
f 136/2/6 134/2/6 137/2/6
f 138/2/6 139/2/6 140/2/6
f 140/2/6 139/2/6 141/2/6
