# MagicaVoxel @ Ephtracy

# group
o 

# material
mtllib wall_torch_a_d.mtl
usemtl palette

# normals
vn -1 0 0
vn 1 0 0
vn 0 0 1
vn 0 0 -1
vn 0 -1 0
vn 0 1 0

# texcoords
vt 0.787109 0.5
vt 0.912109 0.5
vt 0.939453 0.5

# verts
v -0.1 0.5 0.2
v -0.1 0.5 -0.1
v -0.1 0.6 0.2
v -0.1 0.6 0.1
v -0.1 0.7 0.1
v -0.1 0.7 0
v -0.1 0.9 0
v -0.1 0.9 -0.1
v 0 0 0.1
v 0 0 0
v 0 0.2 0.1
v 0 0.2 0
v 0 0.2 -0.2
v 0 0.3 0.1
v 0 0.3 0
v 0 0.3 -0.2
v 0 0.5 0.1
v 0 0.5 0
v 0 0.9 0
v 0 0.9 -0.1
v 0 1 0
v 0 1 -0.1
v 0 0.8 0
v 0 0.8 -0.1
v 0 0.9 0
v 0 0.9 -0.1
v 0.1 0 0.1
v 0.1 0 0
v 0.1 0.2 0.1
v 0.1 0.2 0
v 0.1 0.2 -0.2
v 0.1 0.3 0.1
v 0.1 0.3 0
v 0.1 0.3 -0.2
v 0.1 0.5 0.2
v 0.1 0.5 0.1
v 0.1 0.5 0
v 0.1 0.6 0.2
v 0.1 0.6 0.1
v 0.1 0.7 0
v 0.1 0.7 -0.1
v 0.1 0.8 0
v 0.1 0.8 -0.1
v 0.1 0.9 0
v 0.1 0.9 -0.1
v 0.1 1 0
v 0.1 1 -0.1
v 0.2 0.5 0.1
v 0.2 0.5 -0.1
v 0.2 0.7 0.1
v 0.2 0.7 -0.1
v -0.1 0.5 0.2
v -0.1 0.6 0.2
v 0.1 0.5 0.2
v 0.1 0.6 0.2
v -0.1 0.6 0.1
v -0.1 0.7 0.1
v 0 0 0.1
v 0 0.2 0.1
v 0 0.3 0.1
v 0 0.5 0.1
v 0.1 0 0.1
v 0.1 0.2 0.1
v 0.1 0.3 0.1
v 0.1 0.5 0.1
v 0.1 0.6 0.1
v 0.2 0.5 0.1
v 0.2 0.7 0.1
v -0.1 0.7 0
v -0.1 0.9 0
v 0 0.8 0
v 0 0.9 0
v 0 1 0
v 0.1 0.7 0
v 0.1 0.8 0
v 0.1 0.9 0
v 0.1 1 0
v 0 0 0
v 0 0.2 0
v 0 0.3 0
v 0 0.5 0
v 0.1 0 0
v 0.1 0.2 0
v 0.1 0.3 0
v 0.1 0.5 0
v -0.1 0.5 -0.1
v -0.1 0.9 -0.1
v 0 0.8 -0.1
v 0 0.9 -0.1
v 0 1 -0.1
v 0.1 0.7 -0.1
v 0.1 0.8 -0.1
v 0.1 0.9 -0.1
v 0.1 1 -0.1
v 0.2 0.5 -0.1
v 0.2 0.7 -0.1
v 0 0.2 -0.2
v 0 0.3 -0.2
v 0.1 0.2 -0.2
v 0.1 0.3 -0.2
v 0 0 0.1
v 0.1 0 0.1
v 0 0 0
v 0.1 0 0
v 0 0.2 0
v 0.1 0.2 0
v 0 0.2 -0.2
v 0.1 0.2 -0.2
v -0.1 0.5 0.2
v 0.1 0.5 0.2
v 0 0.5 0.1
v 0.1 0.5 0.1
v 0.2 0.5 0.1
v 0 0.5 0
v 0.1 0.5 0
v -0.1 0.5 -0.1
v 0.2 0.5 -0.1
v 0 0.9 0
v 0.1 0.9 0
v 0 0.9 -0.1
v 0.1 0.9 -0.1
v 0 0.3 0
v 0.1 0.3 0
v 0 0.3 -0.2
v 0.1 0.3 -0.2
v -0.1 0.6 0.2
v 0.1 0.6 0.2
v -0.1 0.6 0.1
v 0.1 0.6 0.1
v -0.1 0.7 0.1
v 0.2 0.7 0.1
v -0.1 0.7 0
v 0.1 0.7 0
v 0.1 0.7 -0.1
v 0.2 0.7 -0.1
v 0 0.8 0
v 0.1 0.8 0
v 0 0.8 -0.1
v 0.1 0.8 -0.1
v -0.1 0.9 0
v 0 0.9 0
v -0.1 0.9 -0.1
v 0 0.9 -0.1
v 0 1 0
v 0.1 1 0
v 0 1 -0.1
v 0.1 1 -0.1

# faces
f 3/2/1 2/2/1 1/2/1
f 4/2/1 2/2/1 3/2/1
f 5/2/1 2/2/1 4/2/1
f 6/2/1 2/2/1 5/2/1
f 7/2/1 2/2/1 6/2/1
f 8/2/1 2/2/1 7/2/1
f 11/3/1 10/3/1 9/3/1
f 12/3/1 10/3/1 11/3/1
f 14/1/1 12/1/1 11/1/1
f 14/1/1 13/1/1 12/1/1
f 15/1/1 13/1/1 14/1/1
f 16/1/1 13/1/1 15/1/1
f 17/3/1 15/3/1 14/3/1
f 18/3/1 15/3/1 17/3/1
f 21/2/1 20/2/1 19/2/1
f 22/2/1 20/2/1 21/2/1
f 23/2/2 24/2/2 25/2/2
f 25/2/2 24/2/2 26/2/2
f 27/3/2 28/3/2 29/3/2
f 29/3/2 28/3/2 30/3/2
f 29/1/2 30/1/2 32/1/2
f 30/1/2 31/1/2 32/1/2
f 32/1/2 31/1/2 33/1/2
f 33/1/2 31/1/2 34/1/2
f 32/3/2 33/3/2 36/3/2
f 36/3/2 33/3/2 37/3/2
f 35/2/2 36/2/2 38/2/2
f 38/2/2 36/2/2 39/2/2
f 40/2/2 41/2/2 42/2/2
f 42/2/2 41/2/2 43/2/2
f 44/2/2 45/2/2 46/2/2
f 46/2/2 45/2/2 47/2/2
f 48/2/2 49/2/2 50/2/2
f 50/2/2 49/2/2 51/2/2
f 54/2/3 53/2/3 52/2/3
f 55/2/3 53/2/3 54/2/3
f 62/3/3 59/3/3 58/3/3
f 63/1/3 60/1/3 59/1/3
f 63/3/3 59/3/3 62/3/3
f 64/3/3 61/3/3 60/3/3
f 64/1/3 60/1/3 63/1/3
f 65/3/3 61/3/3 64/3/3
f 66/2/3 57/2/3 56/2/3
f 67/2/3 66/2/3 65/2/3
f 68/2/3 57/2/3 66/2/3
f 68/2/3 66/2/3 67/2/3
f 71/2/3 70/2/3 69/2/3
f 72/2/3 70/2/3 71/2/3
f 74/2/3 71/2/3 69/2/3
f 75/2/3 71/2/3 74/2/3
f 76/2/3 73/2/3 72/2/3
f 77/2/3 73/2/3 76/2/3
f 78/3/4 79/3/4 82/3/4
f 82/3/4 79/3/4 83/3/4
f 80/3/4 81/3/4 84/3/4
f 84/3/4 81/3/4 85/3/4
f 86/2/4 87/2/4 88/2/4
f 88/2/4 87/2/4 89/2/4
f 86/2/4 88/2/4 91/2/4
f 91/2/4 88/2/4 92/2/4
f 89/2/4 90/2/4 93/2/4
f 93/2/4 90/2/4 94/2/4
f 86/2/4 91/2/4 95/2/4
f 95/2/4 91/2/4 96/2/4
f 97/1/4 98/1/4 99/1/4
f 99/1/4 98/1/4 100/1/4
f 103/3/5 102/3/5 101/3/5
f 104/3/5 102/3/5 103/3/5
f 107/1/5 106/1/5 105/1/5
f 108/1/5 106/1/5 107/1/5
f 111/2/5 110/2/5 109/2/5
f 112/2/5 110/2/5 111/2/5
f 114/2/5 111/2/5 109/2/5
f 115/2/5 113/2/5 112/2/5
f 116/2/5 114/2/5 109/2/5
f 116/2/5 115/2/5 114/2/5
f 117/2/5 113/2/5 115/2/5
f 117/2/5 115/2/5 116/2/5
f 120/2/5 119/2/5 118/2/5
f 121/2/5 119/2/5 120/2/5
f 122/1/6 123/1/6 124/1/6
f 124/1/6 123/1/6 125/1/6
f 126/2/6 127/2/6 128/2/6
f 128/2/6 127/2/6 129/2/6
f 130/2/6 131/2/6 132/2/6
f 132/2/6 131/2/6 133/2/6
f 133/2/6 131/2/6 134/2/6
f 134/2/6 131/2/6 135/2/6
f 136/2/6 137/2/6 138/2/6
f 138/2/6 137/2/6 139/2/6
f 140/2/6 141/2/6 142/2/6
f 142/2/6 141/2/6 143/2/6
f 144/2/6 145/2/6 146/2/6
f 146/2/6 145/2/6 147/2/6
