# MagicaVoxel @ Ephtracy

# group
o 

# material
mtllib wall_torch_b_c.mtl
usemtl palette

# normals
vn -1 0 0
vn 1 0 0
vn 0 0 1
vn 0 0 -1
vn 0 -1 0
vn 0 1 0

# texcoords
vt 0.783203 0.5
vt 0.880859 0.5
vt 0.912109 0.5

# verts
v -0.1 0.5 0.1
v -0.1 0.5 -0.1
v -0.1 0.7 0.1
v -0.1 0.7 0
v -0.1 0.9 0
v -0.1 0.9 -0.1
v 0 0 0.1
v 0 0 0
v 0 0.2 0.1
v 0 0.2 0
v 0 0.2 -0.2
v 0 0.3 0.1
v 0 0.3 0
v 0 0.3 -0.2
v 0 0.5 0.2
v 0 0.5 0.1
v 0 0.5 0
v 0 0.6 0.2
v 0 0.6 0.1
v 0 0.7 0.1
v 0 0.7 0
v 0 0.8 0.1
v 0 0.8 0
v 0 0.9 0
v 0 0.9 -0.1
v 0 1 0
v 0 1 -0.1
v 0.1 0 0.1
v 0.1 0 0
v 0.1 0.2 0.1
v 0.1 0.2 0
v 0.1 0.2 -0.2
v 0.1 0.3 0.1
v 0.1 0.3 0
v 0.1 0.3 -0.2
v 0.1 0.5 0.1
v 0.1 0.5 0
v 0.1 0.7 0.1
v 0.1 0.7 0
v 0.1 0.8 0.1
v 0.1 0.8 0
v 0.1 0.8 -0.1
v 0.1 1 0
v 0.1 1 -0.1
v 0.2 0.5 0.2
v 0.2 0.5 -0.1
v 0.2 0.6 0.2
v 0.2 0.6 0.1
v 0.2 0.7 0.1
v 0.2 0.7 0
v 0.2 0.8 0
v 0.2 0.8 -0.1
v 0 0.5 0.2
v 0 0.6 0.2
v 0.2 0.5 0.2
v 0.2 0.6 0.2
v -0.1 0.5 0.1
v -0.1 0.7 0.1
v 0 0 0.1
v 0 0.2 0.1
v 0 0.3 0.1
v 0 0.5 0.1
v 0 0.6 0.1
v 0 0.7 0.1
v 0 0.8 0.1
v 0.1 0 0.1
v 0.1 0.2 0.1
v 0.1 0.3 0.1
v 0.1 0.5 0.1
v 0.1 0.7 0.1
v 0.1 0.8 0.1
v 0.2 0.6 0.1
v 0.2 0.7 0.1
v -0.1 0.7 0
v -0.1 0.9 0
v 0 0.7 0
v 0 0.8 0
v 0 0.9 0
v 0 1 0
v 0.1 0.7 0
v 0.1 0.8 0
v 0.1 1 0
v 0.2 0.7 0
v 0.2 0.8 0
v 0 0 0
v 0 0.2 0
v 0 0.3 0
v 0 0.5 0
v 0.1 0 0
v 0.1 0.2 0
v 0.1 0.3 0
v 0.1 0.5 0
v -0.1 0.5 -0.1
v -0.1 0.9 -0.1
v 0 0.9 -0.1
v 0 1 -0.1
v 0.1 0.8 -0.1
v 0.1 1 -0.1
v 0.2 0.5 -0.1
v 0.2 0.8 -0.1
v 0 0.2 -0.2
v 0 0.3 -0.2
v 0.1 0.2 -0.2
v 0.1 0.3 -0.2
v 0 0 0.1
v 0.1 0 0.1
v 0 0 0
v 0.1 0 0
v 0 0.2 0
v 0.1 0.2 0
v 0 0.2 -0.2
v 0.1 0.2 -0.2
v 0 0.5 0.2
v 0.2 0.5 0.2
v -0.1 0.5 0.1
v 0 0.5 0.1
v 0.1 0.5 0.1
v 0 0.5 0
v 0.1 0.5 0
v -0.1 0.5 -0.1
v 0.2 0.5 -0.1
v 0 0.3 0
v 0.1 0.3 0
v 0 0.3 -0.2
v 0.1 0.3 -0.2
v 0 0.6 0.2
v 0.2 0.6 0.2
v 0 0.6 0.1
v 0.2 0.6 0.1
v -0.1 0.7 0.1
v 0 0.7 0.1
v 0.1 0.7 0.1
v 0.2 0.7 0.1
v -0.1 0.7 0
v 0 0.7 0
v 0.1 0.7 0
v 0.2 0.7 0
v 0 0.8 0.1
v 0.1 0.8 0.1
v 0 0.8 0
v 0.1 0.8 0
v 0.2 0.8 0
v 0.1 0.8 -0.1
v 0.2 0.8 -0.1
v -0.1 0.9 0
v 0 0.9 0
v -0.1 0.9 -0.1
v 0 0.9 -0.1
v 0 1 0
v 0.1 1 0
v 0 1 -0.1
v 0.1 1 -0.1

# faces
f 3/3/1 2/3/1 1/3/1
f 4/3/1 2/3/1 3/3/1
f 5/3/1 2/3/1 4/3/1
f 6/3/1 2/3/1 5/3/1
f 9/1/1 8/1/1 7/1/1
f 10/1/1 8/1/1 9/1/1
f 12/2/1 10/2/1 9/2/1
f 12/2/1 11/2/1 10/2/1
f 13/2/1 11/2/1 12/2/1
f 14/2/1 11/2/1 13/2/1
f 16/1/1 13/1/1 12/1/1
f 17/1/1 13/1/1 16/1/1
f 18/3/1 16/3/1 15/3/1
f 19/3/1 16/3/1 18/3/1
f 22/3/1 21/3/1 20/3/1
f 23/3/1 21/3/1 22/3/1
f 26/3/1 25/3/1 24/3/1
f 27/3/1 25/3/1 26/3/1
f 28/1/2 29/1/2 30/1/2
f 30/1/2 29/1/2 31/1/2
f 30/2/2 31/2/2 33/2/2
f 31/2/2 32/2/2 33/2/2
f 33/2/2 32/2/2 34/2/2
f 34/2/2 32/2/2 35/2/2
f 33/1/2 34/1/2 36/1/2
f 36/1/2 34/1/2 37/1/2
f 38/3/2 39/3/2 40/3/2
f 40/3/2 39/3/2 41/3/2
f 41/3/2 42/3/2 43/3/2
f 43/3/2 42/3/2 44/3/2
f 45/3/2 46/3/2 47/3/2
f 47/3/2 46/3/2 48/3/2
f 48/3/2 46/3/2 49/3/2
f 49/3/2 46/3/2 50/3/2
f 50/3/2 46/3/2 51/3/2
f 51/3/2 46/3/2 52/3/2
f 55/3/3 54/3/3 53/3/3
f 56/3/3 54/3/3 55/3/3
f 62/3/3 58/3/3 57/3/3
f 63/3/3 58/3/3 62/3/3
f 64/3/3 58/3/3 63/3/3
f 66/1/3 60/1/3 59/1/3
f 67/2/3 61/2/3 60/2/3
f 67/1/3 60/1/3 66/1/3
f 68/1/3 62/1/3 61/1/3
f 68/2/3 61/2/3 67/2/3
f 69/1/3 62/1/3 68/1/3
f 70/3/3 65/3/3 64/3/3
f 70/3/3 64/3/3 63/3/3
f 71/3/3 65/3/3 70/3/3
f 72/3/3 70/3/3 63/3/3
f 73/3/3 70/3/3 72/3/3
f 76/3/3 75/3/3 74/3/3
f 77/3/3 75/3/3 76/3/3
f 78/3/3 75/3/3 77/3/3
f 81/3/3 79/3/3 78/3/3
f 81/3/3 78/3/3 77/3/3
f 82/3/3 79/3/3 81/3/3
f 83/3/3 81/3/3 80/3/3
f 84/3/3 81/3/3 83/3/3
f 85/1/4 86/1/4 89/1/4
f 89/1/4 86/1/4 90/1/4
f 87/1/4 88/1/4 91/1/4
f 91/1/4 88/1/4 92/1/4
f 93/3/4 94/3/4 95/3/4
f 93/3/4 95/3/4 97/3/4
f 95/3/4 96/3/4 97/3/4
f 97/3/4 96/3/4 98/3/4
f 93/3/4 97/3/4 99/3/4
f 99/3/4 97/3/4 100/3/4
f 101/2/4 102/2/4 103/2/4
f 103/2/4 102/2/4 104/2/4
f 107/1/5 106/1/5 105/1/5
f 108/1/5 106/1/5 107/1/5
f 111/2/5 110/2/5 109/2/5
f 112/2/5 110/2/5 111/2/5
f 116/3/5 114/3/5 113/3/5
f 117/3/5 114/3/5 116/3/5
f 118/3/5 116/3/5 115/3/5
f 119/3/5 114/3/5 117/3/5
f 120/3/5 118/3/5 115/3/5
f 120/3/5 119/3/5 118/3/5
f 121/3/5 114/3/5 119/3/5
f 121/3/5 119/3/5 120/3/5
f 122/2/6 123/2/6 124/2/6
f 124/2/6 123/2/6 125/2/6
f 126/3/6 127/3/6 128/3/6
f 128/3/6 127/3/6 129/3/6
f 130/3/6 131/3/6 134/3/6
f 134/3/6 131/3/6 135/3/6
f 132/3/6 133/3/6 136/3/6
f 136/3/6 133/3/6 137/3/6
f 138/3/6 139/3/6 140/3/6
f 140/3/6 139/3/6 141/3/6
f 141/3/6 142/3/6 143/3/6
f 143/3/6 142/3/6 144/3/6
f 145/3/6 146/3/6 147/3/6
f 147/3/6 146/3/6 148/3/6
f 149/3/6 150/3/6 151/3/6
f 151/3/6 150/3/6 152/3/6
