# MagicaVoxel @ Ephtracy

# group
o 

# material
mtllib mimic_c_action_1.mtl
usemtl palette

# normals
vn -1 0 0
vn 1 0 0
vn 0 0 1
vn 0 0 -1
vn 0 -1 0
vn 0 1 0

# texcoords
vt 0.822266 0.5
vt 0.880859 0.5
vt 0.943359 0.5
vt 0.947266 0.5
vt 0.970703 0.5

# verts
v -0.5 0 0.4
v -0.5 0 -0.5
v -0.5 0.1 0.3
v -0.5 0.1 -0.4
v -0.5 0.2 0.3
v -0.5 0.2 -0.4
v -0.5 0.3 0.4
v -0.5 0.3 0.3
v -0.5 0.3 0.2
v -0.5 0.3 0.1
v -0.5 0.3 0
v -0.5 0.3 -0.1
v -0.5 0.3 -0.2
v -0.5 0.3 -0.3
v -0.5 0.3 -0.4
v -0.5 0.4 0.4
v -0.5 0.4 0.3
v -0.5 0.4 0.2
v -0.5 0.4 0.1
v -0.5 0.4 0
v -0.5 0.4 -0.1
v -0.5 0.4 -0.2
v -0.5 0.4 -0.3
v -0.5 0.4 -0.4
v -0.5 0.5 0.4
v -0.5 0.5 0.3
v -0.5 0.5 0.1
v -0.5 0.5 -0.2
v -0.5 0.5 -0.4
v -0.5 0.5 -0.5
v -0.5 0.6 0.3
v -0.5 0.6 0.1
v -0.5 0.6 -0.2
v -0.5 0.6 -0.4
v -0.5 0.7 0.1
v -0.5 0.7 -0.2
v -0.4 0.3 0.4
v -0.4 0.3 0.3
v -0.4 0.3 0.2
v -0.4 0.3 0.1
v -0.4 0.3 0
v -0.4 0.3 -0.1
v -0.4 0.3 -0.2
v -0.4 0.3 -0.3
v -0.4 0.4 0.4
v -0.4 0.4 0.3
v -0.4 0.4 0.2
v -0.4 0.4 0.1
v -0.4 0.4 0
v -0.4 0.4 -0.1
v -0.4 0.4 -0.2
v -0.4 0.4 -0.3
v -0.2 0.3 0.4
v -0.2 0.3 0.3
v -0.2 0.4 0.4
v -0.2 0.4 0.3
v 5.96046e-08 0.3 0.4
v 5.96046e-08 0.3 0.3
v 5.96046e-08 0.4 0.4
v 5.96046e-08 0.4 0.3
v 0.2 0.3 0.4
v 0.2 0.3 0.3
v 0.2 0.4 0.4
v 0.2 0.4 0.3
v 0.4 0.3 0.4
v 0.4 0.3 0.3
v 0.4 0.4 0.4
v 0.4 0.4 0.3
v -0.3 0.3 0.4
v -0.3 0.3 0.3
v -0.3 0.4 0.4
v -0.3 0.4 0.3
v -0.1 0.3 0.4
v -0.1 0.3 0.3
v -0.1 0.4 0.4
v -0.1 0.4 0.3
v 0.1 0.3 0.4
v 0.1 0.3 0.3
v 0.1 0.4 0.4
v 0.1 0.4 0.3
v 0.3 0.3 0.4
v 0.3 0.3 0.3
v 0.3 0.4 0.4
v 0.3 0.4 0.3
v 0.5 0.3 0.4
v 0.5 0.3 0.3
v 0.5 0.3 0.2
v 0.5 0.3 0.1
v 0.5 0.3 0
v 0.5 0.3 -0.1
v 0.5 0.3 -0.2
v 0.5 0.3 -0.3
v 0.5 0.4 0.4
v 0.5 0.4 0.3
v 0.5 0.4 0.2
v 0.5 0.4 0.1
v 0.5 0.4 0
v 0.5 0.4 -0.1
v 0.5 0.4 -0.2
v 0.5 0.4 -0.3
v 0.6 0 0.4
v 0.6 0 -0.5
v 0.6 0.1 0.3
v 0.6 0.1 -0.4
v 0.6 0.2 0.3
v 0.6 0.2 -0.4
v 0.6 0.3 0.4
v 0.6 0.3 0.3
v 0.6 0.3 0.2
v 0.6 0.3 0.1
v 0.6 0.3 0
v 0.6 0.3 -0.1
v 0.6 0.3 -0.2
v 0.6 0.3 -0.3
v 0.6 0.3 -0.4
v 0.6 0.4 0.4
v 0.6 0.4 0.3
v 0.6 0.4 0.2
v 0.6 0.4 0.1
v 0.6 0.4 0
v 0.6 0.4 -0.1
v 0.6 0.4 -0.2
v 0.6 0.4 -0.3
v 0.6 0.4 -0.4
v 0.6 0.5 0.4
v 0.6 0.5 0.3
v 0.6 0.5 0.1
v 0.6 0.5 -0.2
v 0.6 0.5 -0.4
v 0.6 0.5 -0.5
v 0.6 0.6 0.3
v 0.6 0.6 0.1
v 0.6 0.6 -0.2
v 0.6 0.6 -0.4
v 0.6 0.7 0.1
v 0.6 0.7 -0.2
v -0.5 0 0.4
v -0.5 0.3 0.4
v -0.5 0.4 0.4
v -0.5 0.5 0.4
v -0.4 0.1 0.4
v -0.4 0.2 0.4
v -0.4 0.3 0.4
v -0.4 0.4 0.4
v -0.4 0.5 0.4
v -0.3 0.3 0.4
v -0.3 0.4 0.4
v -0.3 0.5 0.4
v -0.2 0.3 0.4
v -0.2 0.4 0.4
v -0.2 0.5 0.4
v -0.1 0.3 0.4
v -0.1 0.4 0.4
v 5.96046e-08 0.3 0.4
v 5.96046e-08 0.4 0.4
v 0.1 0.3 0.4
v 0.1 0.4 0.4
v 0.2 0.3 0.4
v 0.2 0.4 0.4
v 0.3 0.3 0.4
v 0.3 0.4 0.4
v 0.3 0.5 0.4
v 0.4 0.3 0.4
v 0.4 0.4 0.4
v 0.4 0.5 0.4
v 0.5 0.1 0.4
v 0.5 0.2 0.4
v 0.5 0.3 0.4
v 0.5 0.4 0.4
v 0.5 0.5 0.4
v 0.6 0 0.4
v 0.6 0.3 0.4
v 0.6 0.4 0.4
v 0.6 0.5 0.4
v -0.5 0.3 0.3
v -0.5 0.4 0.3
v -0.5 0.5 0.3
v -0.5 0.6 0.3
v -0.4 0.3 0.3
v -0.4 0.4 0.3
v -0.4 0.5 0.3
v -0.4 0.6 0.3
v -0.3 0.3 0.3
v -0.3 0.4 0.3
v -0.3 0.5 0.3
v -0.3 0.6 0.3
v -0.2 0.3 0.3
v -0.2 0.4 0.3
v -0.2 0.5 0.3
v -0.2 0.6 0.3
v -0.1 0.3 0.3
v -0.1 0.4 0.3
v 5.96046e-08 0.3 0.3
v 5.96046e-08 0.4 0.3
v 0.1 0.3 0.3
v 0.1 0.4 0.3
v 0.2 0.3 0.3
v 0.2 0.4 0.3
v 0.3 0.3 0.3
v 0.3 0.4 0.3
v 0.3 0.5 0.3
v 0.3 0.6 0.3
v 0.4 0.3 0.3
v 0.4 0.4 0.3
v 0.4 0.5 0.3
v 0.4 0.6 0.3
v 0.5 0.3 0.3
v 0.5 0.4 0.3
v 0.5 0.5 0.3
v 0.5 0.6 0.3
v 0.6 0.3 0.3
v 0.6 0.4 0.3
v 0.6 0.5 0.3
v 0.6 0.6 0.3
v -0.5 0.3 0.1
v -0.5 0.4 0.1
v -0.5 0.6 0.1
v -0.5 0.7 0.1
v -0.4 0.3 0.1
v -0.4 0.4 0.1
v -0.4 0.6 0.1
v -0.4 0.7 0.1
v -0.3 0.6 0.1
v -0.3 0.7 0.1
v -0.2 0.6 0.1
v -0.2 0.7 0.1
v 0.3 0.6 0.1
v 0.3 0.7 0.1
v 0.4 0.6 0.1
v 0.4 0.7 0.1
v 0.5 0.3 0.1
v 0.5 0.4 0.1
v 0.5 0.6 0.1
v 0.5 0.7 0.1
v 0.6 0.3 0.1
v 0.6 0.4 0.1
v 0.6 0.6 0.1
v 0.6 0.7 0.1
v -0.5 0.3 -0.1
v -0.5 0.4 -0.1
v -0.4 0.3 -0.1
v -0.4 0.4 -0.1
v 0.5 0.3 -0.1
v 0.5 0.4 -0.1
v 0.6 0.3 -0.1
v 0.6 0.4 -0.1
v -0.5 0.3 -0.3
v -0.5 0.4 -0.3
v -0.4 0.3 -0.3
v -0.4 0.4 -0.3
v 0.5 0.3 -0.3
v 0.5 0.4 -0.3
v 0.6 0.3 -0.3
v 0.6 0.4 -0.3
v -0.5 0.3 0.2
v -0.5 0.4 0.2
v -0.4 0.3 0.2
v -0.4 0.4 0.2
v 0.5 0.3 0.2
v 0.5 0.4 0.2
v 0.6 0.3 0.2
v 0.6 0.4 0.2
v -0.5 0.3 0
v -0.5 0.4 0
v -0.4 0.3 0
v -0.4 0.4 0
v 0.5 0.3 0
v 0.5 0.4 0
v 0.6 0.3 0
v 0.6 0.4 0
v -0.5 0.3 -0.2
v -0.5 0.4 -0.2
v -0.5 0.6 -0.2
v -0.5 0.7 -0.2
v -0.4 0.3 -0.2
v -0.4 0.4 -0.2
v -0.4 0.6 -0.2
v -0.4 0.7 -0.2
v -0.3 0.6 -0.2
v -0.3 0.7 -0.2
v -0.2 0.6 -0.2
v -0.2 0.7 -0.2
v 0.3 0.6 -0.2
v 0.3 0.7 -0.2
v 0.4 0.6 -0.2
v 0.4 0.7 -0.2
v 0.5 0.3 -0.2
v 0.5 0.4 -0.2
v 0.5 0.6 -0.2
v 0.5 0.7 -0.2
v 0.6 0.3 -0.2
v 0.6 0.4 -0.2
v 0.6 0.6 -0.2
v 0.6 0.7 -0.2
v -0.5 0.5 -0.4
v -0.5 0.6 -0.4
v -0.4 0.5 -0.4
v -0.4 0.6 -0.4
v -0.3 0.5 -0.4
v -0.3 0.6 -0.4
v -0.2 0.5 -0.4
v -0.2 0.6 -0.4
v 0.3 0.5 -0.4
v 0.3 0.6 -0.4
v 0.4 0.5 -0.4
v 0.4 0.6 -0.4
v 0.5 0.5 -0.4
v 0.5 0.6 -0.4
v 0.6 0.5 -0.4
v 0.6 0.6 -0.4
v -0.5 0 -0.5
v -0.5 0.5 -0.5
v -0.4 0.1 -0.5
v -0.4 0.2 -0.5
v -0.4 0.3 -0.5
v -0.4 0.5 -0.5
v -0.3 0.3 -0.5
v -0.3 0.5 -0.5
v -0.2 0.3 -0.5
v -0.2 0.5 -0.5
v 0.3 0.3 -0.5
v 0.3 0.5 -0.5
v 0.4 0.3 -0.5
v 0.4 0.5 -0.5
v 0.5 0.1 -0.5
v 0.5 0.2 -0.5
v 0.5 0.3 -0.5
v 0.5 0.5 -0.5
v 0.6 0 -0.5
v 0.6 0.5 -0.5
v -0.5 0 0.4
v 0.6 0 0.4
v -0.5 0 -0.5
v 0.6 0 -0.5
v -0.5 0.4 0.4
v -0.4 0.4 0.4
v -0.3 0.4 0.4
v -0.2 0.4 0.4
v -0.1 0.4 0.4
v 5.96046e-08 0.4 0.4
v 0.1 0.4 0.4
v 0.2 0.4 0.4
v 0.3 0.4 0.4
v 0.4 0.4 0.4
v 0.5 0.4 0.4
v 0.6 0.4 0.4
v -0.5 0.4 0.3
v -0.4 0.4 0.3
v -0.3 0.4 0.3
v -0.2 0.4 0.3
v -0.1 0.4 0.3
v 5.96046e-08 0.4 0.3
v 0.1 0.4 0.3
v 0.2 0.4 0.3
v 0.3 0.4 0.3
v 0.4 0.4 0.3
v 0.5 0.4 0.3
v 0.6 0.4 0.3
v -0.5 0.4 0.2
v -0.4 0.4 0.2
v 0.5 0.4 0.2
v 0.6 0.4 0.2
v -0.5 0.4 0.1
v -0.4 0.4 0.1
v 0.5 0.4 0.1
v 0.6 0.4 0.1
v -0.5 0.4 0
v -0.4 0.4 0
v 0.5 0.4 0
v 0.6 0.4 0
v -0.5 0.4 -0.1
v -0.4 0.4 -0.1
v 0.5 0.4 -0.1
v 0.6 0.4 -0.1
v -0.5 0.4 -0.2
v -0.4 0.4 -0.2
v 0.5 0.4 -0.2
v 0.6 0.4 -0.2
v -0.5 0.4 -0.3
v -0.4 0.4 -0.3
v 0.5 0.4 -0.3
v 0.6 0.4 -0.3
v -0.5 0.3 0.4
v -0.4 0.3 0.4
v -0.3 0.3 0.4
v -0.2 0.3 0.4
v -0.1 0.3 0.4
v 5.96046e-08 0.3 0.4
v 0.1 0.3 0.4
v 0.2 0.3 0.4
v 0.3 0.3 0.4
v 0.4 0.3 0.4
v 0.5 0.3 0.4
v 0.6 0.3 0.4
v -0.5 0.3 0.3
v -0.4 0.3 0.3
v -0.3 0.3 0.3
v -0.2 0.3 0.3
v -0.1 0.3 0.3
v 5.96046e-08 0.3 0.3
v 0.1 0.3 0.3
v 0.2 0.3 0.3
v 0.3 0.3 0.3
v 0.4 0.3 0.3
v 0.5 0.3 0.3
v 0.6 0.3 0.3
v -0.5 0.3 0.2
v -0.4 0.3 0.2
v 0.5 0.3 0.2
v 0.6 0.3 0.2
v -0.5 0.3 0.1
v -0.4 0.3 0.1
v 0.5 0.3 0.1
v 0.6 0.3 0.1
v -0.5 0.3 0
v -0.4 0.3 0
v 0.5 0.3 0
v 0.6 0.3 0
v -0.5 0.3 -0.1
v -0.4 0.3 -0.1
v 0.5 0.3 -0.1
v 0.6 0.3 -0.1
v -0.5 0.3 -0.2
v -0.4 0.3 -0.2
v 0.5 0.3 -0.2
v 0.6 0.3 -0.2
v -0.5 0.3 -0.3
v -0.4 0.3 -0.3
v 0.5 0.3 -0.3
v 0.6 0.3 -0.3
v -0.5 0.5 0.4
v -0.4 0.5 0.4
v -0.3 0.5 0.4
v -0.2 0.5 0.4
v 0.3 0.5 0.4
v 0.4 0.5 0.4
v 0.5 0.5 0.4
v 0.6 0.5 0.4
v -0.5 0.5 0.3
v -0.4 0.5 0.3
v -0.3 0.5 0.3
v -0.2 0.5 0.3
v 0.3 0.5 0.3
v 0.4 0.5 0.3
v 0.5 0.5 0.3
v 0.6 0.5 0.3
v -0.5 0.5 -0.4
v -0.4 0.5 -0.4
v -0.3 0.5 -0.4
v -0.2 0.5 -0.4
v 0.3 0.5 -0.4
v 0.4 0.5 -0.4
v 0.5 0.5 -0.4
v 0.6 0.5 -0.4
v -0.5 0.5 -0.5
v -0.4 0.5 -0.5
v -0.3 0.5 -0.5
v -0.2 0.5 -0.5
v 0.3 0.5 -0.5
v 0.4 0.5 -0.5
v 0.5 0.5 -0.5
v 0.6 0.5 -0.5
v -0.5 0.6 0.3
v -0.4 0.6 0.3
v -0.3 0.6 0.3
v -0.2 0.6 0.3
v 0.3 0.6 0.3
v 0.4 0.6 0.3
v 0.5 0.6 0.3
v 0.6 0.6 0.3
v -0.5 0.6 0.1
v -0.4 0.6 0.1
v -0.3 0.6 0.1
v -0.2 0.6 0.1
v 0.3 0.6 0.1
v 0.4 0.6 0.1
v 0.5 0.6 0.1
v 0.6 0.6 0.1
v -0.5 0.6 -0.2
v -0.4 0.6 -0.2
v -0.3 0.6 -0.2
v -0.2 0.6 -0.2
v 0.3 0.6 -0.2
v 0.4 0.6 -0.2
v 0.5 0.6 -0.2
v 0.6 0.6 -0.2
v -0.5 0.6 -0.4
v -0.4 0.6 -0.4
v -0.3 0.6 -0.4
v -0.2 0.6 -0.4
v 0.3 0.6 -0.4
v 0.4 0.6 -0.4
v 0.5 0.6 -0.4
v 0.6 0.6 -0.4
v -0.5 0.7 0.1
v -0.4 0.7 0.1
v -0.3 0.7 0.1
v -0.2 0.7 0.1
v 0.3 0.7 0.1
v 0.4 0.7 0.1
v 0.5 0.7 0.1
v 0.6 0.7 0.1
v -0.5 0.7 -0.2
v -0.4 0.7 -0.2
v -0.3 0.7 -0.2
v -0.2 0.7 -0.2
v 0.3 0.7 -0.2
v 0.4 0.7 -0.2
v 0.5 0.7 -0.2
v 0.6 0.7 -0.2

# faces
f 3/2/1 2/2/1 1/2/1
f 4/2/1 2/2/1 3/2/1
f 5/2/1 3/2/1 1/2/1
f 5/3/1 4/3/1 3/3/1
f 6/2/1 2/2/1 4/2/1
f 6/3/1 4/3/1 5/3/1
f 7/2/1 5/2/1 1/2/1
f 7/2/1 6/2/1 5/2/1
f 8/2/1 6/2/1 7/2/1
f 9/2/1 6/2/1 8/2/1
f 10/2/1 6/2/1 9/2/1
f 11/2/1 6/2/1 10/2/1
f 12/2/1 6/2/1 11/2/1
f 13/2/1 6/2/1 12/2/1
f 14/2/1 6/2/1 13/2/1
f 15/2/1 2/2/1 6/2/1
f 15/2/1 6/2/1 14/2/1
f 17/4/1 9/4/1 8/4/1
f 18/4/1 9/4/1 17/4/1
f 19/4/1 11/4/1 10/4/1
f 20/4/1 11/4/1 19/4/1
f 21/4/1 13/4/1 12/4/1
f 22/4/1 13/4/1 21/4/1
f 23/4/1 15/4/1 14/4/1
f 24/2/1 2/2/1 15/2/1
f 24/4/1 15/4/1 23/4/1
f 25/2/1 17/2/1 16/2/1
f 26/3/1 23/3/1 22/3/1
f 26/2/1 17/2/1 25/2/1
f 26/3/1 22/3/1 21/3/1
f 26/3/1 24/3/1 23/3/1
f 26/3/1 18/3/1 17/3/1
f 26/3/1 21/3/1 20/3/1
f 26/3/1 20/3/1 19/3/1
f 26/3/1 19/3/1 18/3/1
f 27/3/1 24/3/1 26/3/1
f 28/3/1 24/3/1 27/3/1
f 29/2/1 2/2/1 24/2/1
f 29/3/1 24/3/1 28/3/1
f 30/2/1 2/2/1 29/2/1
f 31/2/1 27/2/1 26/2/1
f 32/3/1 28/3/1 27/3/1
f 32/2/1 27/2/1 31/2/1
f 33/2/1 29/2/1 28/2/1
f 33/3/1 28/3/1 32/3/1
f 34/2/1 29/2/1 33/2/1
f 35/2/1 33/2/1 32/2/1
f 36/2/1 33/2/1 35/2/1
f 45/4/1 38/4/1 37/4/1
f 46/4/1 38/4/1 45/4/1
f 47/5/1 40/5/1 39/5/1
f 48/5/1 40/5/1 47/5/1
f 49/5/1 42/5/1 41/5/1
f 50/5/1 42/5/1 49/5/1
f 51/5/1 44/5/1 43/5/1
f 52/5/1 44/5/1 51/5/1
f 55/4/1 54/4/1 53/4/1
f 56/4/1 54/4/1 55/4/1
f 59/4/1 58/4/1 57/4/1
f 60/4/1 58/4/1 59/4/1
f 63/4/1 62/4/1 61/4/1
f 64/4/1 62/4/1 63/4/1
f 67/4/1 66/4/1 65/4/1
f 68/4/1 66/4/1 67/4/1
f 69/4/2 70/4/2 71/4/2
f 71/4/2 70/4/2 72/4/2
f 73/4/2 74/4/2 75/4/2
f 75/4/2 74/4/2 76/4/2
f 77/4/2 78/4/2 79/4/2
f 79/4/2 78/4/2 80/4/2
f 81/4/2 82/4/2 83/4/2
f 83/4/2 82/4/2 84/4/2
f 85/4/2 86/4/2 93/4/2
f 93/4/2 86/4/2 94/4/2
f 87/5/2 88/5/2 95/5/2
f 95/5/2 88/5/2 96/5/2
f 89/5/2 90/5/2 97/5/2
f 97/5/2 90/5/2 98/5/2
f 91/5/2 92/5/2 99/5/2
f 99/5/2 92/5/2 100/5/2
f 101/2/2 102/2/2 103/2/2
f 103/2/2 102/2/2 104/2/2
f 101/2/2 103/2/2 105/2/2
f 103/3/2 104/3/2 105/3/2
f 104/2/2 102/2/2 106/2/2
f 105/3/2 104/3/2 106/3/2
f 101/2/2 105/2/2 107/2/2
f 105/2/2 106/2/2 107/2/2
f 107/2/2 106/2/2 108/2/2
f 108/2/2 106/2/2 109/2/2
f 109/2/2 106/2/2 110/2/2
f 110/2/2 106/2/2 111/2/2
f 111/2/2 106/2/2 112/2/2
f 112/2/2 106/2/2 113/2/2
f 113/2/2 106/2/2 114/2/2
f 106/2/2 102/2/2 115/2/2
f 114/2/2 106/2/2 115/2/2
f 108/4/2 109/4/2 117/4/2
f 117/4/2 109/4/2 118/4/2
f 110/4/2 111/4/2 119/4/2
f 119/4/2 111/4/2 120/4/2
f 112/4/2 113/4/2 121/4/2
f 121/4/2 113/4/2 122/4/2
f 114/4/2 115/4/2 123/4/2
f 115/2/2 102/2/2 124/2/2
f 123/4/2 115/4/2 124/4/2
f 116/2/2 117/2/2 125/2/2
f 122/3/2 123/3/2 126/3/2
f 125/2/2 117/2/2 126/2/2
f 121/3/2 122/3/2 126/3/2
f 123/3/2 124/3/2 126/3/2
f 117/3/2 118/3/2 126/3/2
f 120/3/2 121/3/2 126/3/2
f 119/3/2 120/3/2 126/3/2
f 118/3/2 119/3/2 126/3/2
f 126/3/2 124/3/2 127/3/2
f 127/3/2 124/3/2 128/3/2
f 124/2/2 102/2/2 129/2/2
f 128/3/2 124/3/2 129/3/2
f 129/2/2 102/2/2 130/2/2
f 126/2/2 127/2/2 131/2/2
f 127/3/2 128/3/2 132/3/2
f 131/2/2 127/2/2 132/2/2
f 128/2/2 129/2/2 133/2/2
f 132/3/2 128/3/2 133/3/2
f 133/2/2 129/2/2 134/2/2
f 132/2/2 133/2/2 135/2/2
f 135/2/2 133/2/2 136/2/2
f 141/2/3 138/2/3 137/2/3
f 142/2/3 138/2/3 141/2/3
f 143/2/3 138/2/3 142/2/3
f 144/2/3 140/2/3 139/2/3
f 145/2/3 140/2/3 144/2/3
f 146/2/3 143/2/3 142/2/3
f 146/4/3 144/4/3 143/4/3
f 147/3/3 145/3/3 144/3/3
f 147/4/3 144/4/3 146/4/3
f 148/3/3 145/3/3 147/3/3
f 149/2/3 146/2/3 142/2/3
f 150/2/3 148/2/3 147/2/3
f 151/2/3 148/2/3 150/2/3
f 152/2/3 149/2/3 142/2/3
f 152/4/3 150/4/3 149/4/3
f 153/3/3 151/3/3 150/3/3
f 153/4/3 150/4/3 152/4/3
f 154/2/3 152/2/3 142/2/3
f 155/3/3 151/3/3 153/3/3
f 156/2/3 154/2/3 142/2/3
f 156/4/3 155/4/3 154/4/3
f 157/3/3 151/3/3 155/3/3
f 157/4/3 155/4/3 156/4/3
f 158/2/3 156/2/3 142/2/3
f 159/3/3 151/3/3 157/3/3
f 160/2/3 158/2/3 142/2/3
f 160/4/3 159/4/3 158/4/3
f 161/3/3 151/3/3 159/3/3
f 161/4/3 159/4/3 160/4/3
f 162/3/3 151/3/3 161/3/3
f 163/2/3 160/2/3 142/2/3
f 164/2/3 162/2/3 161/2/3
f 165/2/3 162/2/3 164/2/3
f 166/2/3 141/2/3 137/2/3
f 166/3/3 142/3/3 141/3/3
f 167/2/3 163/2/3 142/2/3
f 167/3/3 142/3/3 166/3/3
f 168/4/3 164/4/3 163/4/3
f 168/2/3 163/2/3 167/2/3
f 169/3/3 165/3/3 164/3/3
f 169/4/3 164/4/3 168/4/3
f 170/3/3 165/3/3 169/3/3
f 171/2/3 168/2/3 167/2/3
f 171/2/3 166/2/3 137/2/3
f 171/2/3 167/2/3 166/2/3
f 172/2/3 168/2/3 171/2/3
f 173/2/3 170/2/3 169/2/3
f 174/2/3 170/2/3 173/2/3
f 179/4/3 176/4/3 175/4/3
f 180/4/3 176/4/3 179/4/3
f 181/2/3 178/2/3 177/2/3
f 182/2/3 178/2/3 181/2/3
f 185/3/3 182/3/3 181/3/3
f 186/3/3 182/3/3 185/3/3
f 187/5/3 184/5/3 183/5/3
f 188/5/3 184/5/3 187/5/3
f 189/2/3 186/2/3 185/2/3
f 190/2/3 186/2/3 189/2/3
f 193/5/3 192/5/3 191/5/3
f 194/5/3 192/5/3 193/5/3
f 197/5/3 196/5/3 195/5/3
f 198/5/3 196/5/3 197/5/3
f 201/3/3 190/3/3 189/3/3
f 202/3/3 190/3/3 201/3/3
f 203/5/3 200/5/3 199/5/3
f 204/5/3 200/5/3 203/5/3
f 205/2/3 202/2/3 201/2/3
f 206/2/3 202/2/3 205/2/3
f 209/3/3 206/3/3 205/3/3
f 210/3/3 206/3/3 209/3/3
f 211/4/3 208/4/3 207/4/3
f 212/4/3 208/4/3 211/4/3
f 213/2/3 210/2/3 209/2/3
f 214/2/3 210/2/3 213/2/3
f 219/4/3 216/4/3 215/4/3
f 220/4/3 216/4/3 219/4/3
f 221/2/3 218/2/3 217/2/3
f 222/2/3 218/2/3 221/2/3
f 223/3/3 222/3/3 221/3/3
f 224/3/3 222/3/3 223/3/3
f 225/2/3 224/2/3 223/2/3
f 226/2/3 224/2/3 225/2/3
f 227/3/3 226/3/3 225/3/3
f 228/3/3 226/3/3 227/3/3
f 229/2/3 228/2/3 227/2/3
f 230/2/3 228/2/3 229/2/3
f 233/3/3 230/3/3 229/3/3
f 234/3/3 230/3/3 233/3/3
f 235/4/3 232/4/3 231/4/3
f 236/4/3 232/4/3 235/4/3
f 237/2/3 234/2/3 233/2/3
f 238/2/3 234/2/3 237/2/3
f 241/4/3 240/4/3 239/4/3
f 242/4/3 240/4/3 241/4/3
f 245/4/3 244/4/3 243/4/3
f 246/4/3 244/4/3 245/4/3
f 249/4/3 248/4/3 247/4/3
f 250/4/3 248/4/3 249/4/3
f 253/4/3 252/4/3 251/4/3
f 254/4/3 252/4/3 253/4/3
f 255/4/4 256/4/4 257/4/4
f 257/4/4 256/4/4 258/4/4
f 259/4/4 260/4/4 261/4/4
f 261/4/4 260/4/4 262/4/4
f 263/4/4 264/4/4 265/4/4
f 265/4/4 264/4/4 266/4/4
f 267/4/4 268/4/4 269/4/4
f 269/4/4 268/4/4 270/4/4
f 271/4/4 272/4/4 275/4/4
f 275/4/4 272/4/4 276/4/4
f 273/2/4 274/2/4 277/2/4
f 277/2/4 274/2/4 278/2/4
f 277/3/4 278/3/4 279/3/4
f 279/3/4 278/3/4 280/3/4
f 279/2/4 280/2/4 281/2/4
f 281/2/4 280/2/4 282/2/4
f 281/3/4 282/3/4 283/3/4
f 283/3/4 282/3/4 284/3/4
f 283/2/4 284/2/4 285/2/4
f 285/2/4 284/2/4 286/2/4
f 285/3/4 286/3/4 289/3/4
f 289/3/4 286/3/4 290/3/4
f 287/4/4 288/4/4 291/4/4
f 291/4/4 288/4/4 292/4/4
f 289/2/4 290/2/4 293/2/4
f 293/2/4 290/2/4 294/2/4
f 295/2/4 296/2/4 297/2/4
f 297/2/4 296/2/4 298/2/4
f 297/3/4 298/3/4 299/3/4
f 299/3/4 298/3/4 300/3/4
f 299/2/4 300/2/4 301/2/4
f 301/2/4 300/2/4 302/2/4
f 301/3/4 302/3/4 303/3/4
f 303/3/4 302/3/4 304/3/4
f 303/2/4 304/2/4 305/2/4
f 305/2/4 304/2/4 306/2/4
f 305/3/4 306/3/4 307/3/4
f 307/3/4 306/3/4 308/3/4
f 307/2/4 308/2/4 309/2/4
f 309/2/4 308/2/4 310/2/4
f 311/2/4 312/2/4 313/2/4
f 313/2/4 312/2/4 314/2/4
f 314/2/4 312/2/4 315/2/4
f 315/2/4 312/2/4 316/2/4
f 314/2/4 315/2/4 317/2/4
f 315/3/4 316/3/4 317/3/4
f 317/3/4 316/3/4 318/3/4
f 314/2/4 317/2/4 319/2/4
f 317/2/4 318/2/4 319/2/4
f 319/2/4 318/2/4 320/2/4
f 314/2/4 319/2/4 321/2/4
f 319/3/4 320/3/4 321/3/4
f 321/3/4 320/3/4 322/3/4
f 314/2/4 321/2/4 323/2/4
f 321/2/4 322/2/4 323/2/4
f 323/2/4 322/2/4 324/2/4
f 311/2/4 313/2/4 325/2/4
f 313/3/4 314/3/4 325/3/4
f 314/2/4 323/2/4 326/2/4
f 325/3/4 314/3/4 326/3/4
f 323/3/4 324/3/4 327/3/4
f 326/2/4 323/2/4 327/2/4
f 327/3/4 324/3/4 328/3/4
f 325/2/4 326/2/4 329/2/4
f 311/2/4 325/2/4 329/2/4
f 327/2/4 328/2/4 329/2/4
f 326/2/4 327/2/4 329/2/4
f 329/2/4 328/2/4 330/2/4
f 333/2/5 332/2/5 331/2/5
f 334/2/5 332/2/5 333/2/5
f 347/2/5 336/2/5 335/2/5
f 348/2/5 336/2/5 347/2/5
f 349/2/5 338/2/5 337/2/5
f 350/2/5 338/2/5 349/2/5
f 351/3/5 340/3/5 339/3/5
f 352/3/5 340/3/5 351/3/5
f 353/3/5 342/3/5 341/3/5
f 354/3/5 342/3/5 353/3/5
f 355/2/5 344/2/5 343/2/5
f 356/2/5 344/2/5 355/2/5
f 357/2/5 346/2/5 345/2/5
f 358/2/5 346/2/5 357/2/5
f 363/3/5 360/3/5 359/3/5
f 364/3/5 360/3/5 363/3/5
f 365/3/5 362/3/5 361/3/5
f 366/3/5 362/3/5 365/3/5
f 371/3/5 368/3/5 367/3/5
f 372/3/5 368/3/5 371/3/5
f 373/3/5 370/3/5 369/3/5
f 374/3/5 370/3/5 373/3/5
f 379/3/5 376/3/5 375/3/5
f 380/3/5 376/3/5 379/3/5
f 381/3/5 378/3/5 377/3/5
f 382/3/5 378/3/5 381/3/5
f 383/2/6 384/2/6 395/2/6
f 395/2/6 384/2/6 396/2/6
f 385/2/6 386/2/6 397/2/6
f 397/2/6 386/2/6 398/2/6
f 387/2/6 388/2/6 399/2/6
f 399/2/6 388/2/6 400/2/6
f 389/2/6 390/2/6 401/2/6
f 401/2/6 390/2/6 402/2/6
f 391/2/6 392/2/6 403/2/6
f 403/2/6 392/2/6 404/2/6
f 393/2/6 394/2/6 405/2/6
f 405/2/6 394/2/6 406/2/6
f 407/2/6 408/2/6 411/2/6
f 411/2/6 408/2/6 412/2/6
f 409/2/6 410/2/6 413/2/6
f 413/2/6 410/2/6 414/2/6
f 415/2/6 416/2/6 419/2/6
f 419/2/6 416/2/6 420/2/6
f 417/2/6 418/2/6 421/2/6
f 421/2/6 418/2/6 422/2/6
f 423/2/6 424/2/6 427/2/6
f 427/2/6 424/2/6 428/2/6
f 425/2/6 426/2/6 429/2/6
f 429/2/6 426/2/6 430/2/6
f 431/2/6 432/2/6 439/2/6
f 432/3/6 433/3/6 440/3/6
f 439/2/6 432/2/6 440/2/6
f 433/2/6 434/2/6 441/2/6
f 440/3/6 433/3/6 441/3/6
f 434/3/6 435/3/6 442/3/6
f 441/2/6 434/2/6 442/2/6
f 435/2/6 436/2/6 443/2/6
f 442/3/6 435/3/6 443/3/6
f 436/3/6 437/3/6 444/3/6
f 443/2/6 436/2/6 444/2/6
f 437/2/6 438/2/6 445/2/6
f 444/3/6 437/3/6 445/3/6
f 445/2/6 438/2/6 446/2/6
f 447/2/6 448/2/6 455/2/6
f 448/3/6 449/3/6 456/3/6
f 455/2/6 448/2/6 456/2/6
f 449/2/6 450/2/6 457/2/6
f 456/3/6 449/3/6 457/3/6
f 450/3/6 451/3/6 458/3/6
f 457/2/6 450/2/6 458/2/6
f 451/2/6 452/2/6 459/2/6
f 458/3/6 451/3/6 459/3/6
f 452/3/6 453/3/6 460/3/6
f 459/2/6 452/2/6 460/2/6
f 453/2/6 454/2/6 461/2/6
f 460/3/6 453/3/6 461/3/6
f 461/2/6 454/2/6 462/2/6
f 463/2/6 464/2/6 471/2/6
f 464/3/6 465/3/6 472/3/6
f 471/2/6 464/2/6 472/2/6
f 465/2/6 466/2/6 473/2/6
f 472/3/6 465/3/6 473/3/6
f 466/3/6 467/3/6 474/3/6
f 473/2/6 466/2/6 474/2/6
f 467/2/6 468/2/6 475/2/6
f 474/3/6 467/3/6 475/3/6
f 468/3/6 469/3/6 476/3/6
f 475/2/6 468/2/6 476/2/6
f 469/2/6 470/2/6 477/2/6
f 476/3/6 469/3/6 477/3/6
f 477/2/6 470/2/6 478/2/6
f 479/2/6 480/2/6 487/2/6
f 480/3/6 481/3/6 488/3/6
f 487/2/6 480/2/6 488/2/6
f 481/2/6 482/2/6 489/2/6
f 488/3/6 481/3/6 489/3/6
f 482/3/6 483/3/6 490/3/6
f 489/2/6 482/2/6 490/2/6
f 483/2/6 484/2/6 491/2/6
f 490/3/6 483/3/6 491/3/6
f 484/3/6 485/3/6 492/3/6
f 491/2/6 484/2/6 492/2/6
f 485/2/6 486/2/6 493/2/6
f 492/3/6 485/3/6 493/3/6
f 493/2/6 486/2/6 494/2/6
f 495/2/6 496/2/6 503/2/6
f 496/3/6 497/3/6 504/3/6
f 503/2/6 496/2/6 504/2/6
f 497/2/6 498/2/6 505/2/6
f 504/3/6 497/3/6 505/3/6
f 498/3/6 499/3/6 506/3/6
f 505/2/6 498/2/6 506/2/6
f 499/2/6 500/2/6 507/2/6
f 506/3/6 499/3/6 507/3/6
f 500/3/6 501/3/6 508/3/6
f 507/2/6 500/2/6 508/2/6
f 501/2/6 502/2/6 509/2/6
f 508/3/6 501/3/6 509/3/6
f 509/2/6 502/2/6 510/2/6
