# MagicaVoxel @ Ephtracy

# group
o 

# material
mtllib door_a_b.mtl
usemtl palette

# normals
vn -1 0 0
vn 1 0 0
vn 0 0 1
vn 0 0 -1
vn 0 -1 0
vn 0 1 0

# texcoords
vt 0.783203 0.5
vt 0.787109 0.5
vt 0.939453 0.5

# verts
v -0.7 0 0.1
v -0.7 0 -0.2
v -0.7 0.3 0.2
v -0.7 0.3 0.1
v -0.7 0.3 -0.2
v -0.7 0.3 -0.3
v -0.7 0.5 0.2
v -0.7 0.5 0.1
v -0.7 0.5 -0.2
v -0.7 0.5 -0.3
v -0.7 1.1 0.2
v -0.7 1.1 0.1
v -0.7 1.1 -0.2
v -0.7 1.1 -0.3
v -0.7 1.3 0.2
v -0.7 1.3 0.1
v -0.7 1.3 -0.2
v -0.7 1.3 -0.3
v -0.7 1.6 0.1
v -0.7 1.6 -0.2
v 0.3 0.6 0.2
v 0.3 0.6 0.1
v 0.3 0.9 0.2
v 0.3 0.9 0.1
v 0.5 0.7 0.2
v 0.5 0.7 0.1
v 0.5 0.8 0.2
v 0.5 0.8 0.1
v 0.4 0.7 0.2
v 0.4 0.7 0.1
v 0.4 0.8 0.2
v 0.4 0.8 0.1
v 0.6 0.6 0.2
v 0.6 0.6 0.1
v 0.6 0.9 0.2
v 0.6 0.9 0.1
v 0.8 0 0.1
v 0.8 0 -0.2
v 0.8 0.3 0.2
v 0.8 0.3 0.1
v 0.8 0.3 -0.2
v 0.8 0.3 -0.3
v 0.8 0.5 0.2
v 0.8 0.5 0.1
v 0.8 0.5 -0.2
v 0.8 0.5 -0.3
v 0.8 1.1 0.2
v 0.8 1.1 0.1
v 0.8 1.1 -0.2
v 0.8 1.1 -0.3
v 0.8 1.3 0.2
v 0.8 1.3 0.1
v 0.8 1.3 -0.2
v 0.8 1.3 -0.3
v 0.8 1.6 0.1
v 0.8 1.6 -0.2
v -0.7 0.3 0.2
v -0.7 0.5 0.2
v -0.7 1.1 0.2
v -0.7 1.3 0.2
v 0.3 0.6 0.2
v 0.3 0.9 0.2
v 0.4 0.7 0.2
v 0.4 0.8 0.2
v 0.5 0.7 0.2
v 0.5 0.8 0.2
v 0.6 0.6 0.2
v 0.6 0.9 0.2
v 0.8 0.3 0.2
v 0.8 0.5 0.2
v 0.8 1.1 0.2
v 0.8 1.3 0.2
v -0.7 0 0.1
v -0.7 0.3 0.1
v -0.7 0.5 0.1
v -0.7 1.1 0.1
v -0.7 1.3 0.1
v -0.7 1.6 0.1
v -0.4 0 0.1
v -0.4 0.3 0.1
v -0.4 0.5 0.1
v -0.4 1.1 0.1
v -0.4 1.3 0.1
v -0.4 1.6 0.1
v -0.3 0 0.1
v -0.3 0.3 0.1
v -0.3 0.5 0.1
v -0.3 1.1 0.1
v -0.3 1.3 0.1
v -0.3 1.6 0.1
v 0 0 0.1
v 0 0.3 0.1
v 0 0.5 0.1
v 0 1.1 0.1
v 0 1.3 0.1
v 0 1.6 0.1
v 0.1 0 0.1
v 0.1 0.3 0.1
v 0.1 0.5 0.1
v 0.1 1.1 0.1
v 0.1 1.3 0.1
v 0.1 1.6 0.1
v 0.3 0.6 0.1
v 0.3 0.9 0.1
v 0.4 0 0.1
v 0.4 0.3 0.1
v 0.4 0.5 0.1
v 0.4 0.6 0.1
v 0.4 0.7 0.1
v 0.4 0.8 0.1
v 0.4 0.9 0.1
v 0.4 1 0.1
v 0.4 1.1 0.1
v 0.4 1.3 0.1
v 0.4 1.6 0.1
v 0.5 0 0.1
v 0.5 0.3 0.1
v 0.5 0.5 0.1
v 0.5 0.6 0.1
v 0.5 0.7 0.1
v 0.5 0.8 0.1
v 0.5 0.9 0.1
v 0.5 1 0.1
v 0.5 1.1 0.1
v 0.5 1.3 0.1
v 0.5 1.6 0.1
v 0.6 0.6 0.1
v 0.6 0.9 0.1
v 0.8 0 0.1
v 0.8 0.3 0.1
v 0.8 0.5 0.1
v 0.8 1.1 0.1
v 0.8 1.3 0.1
v 0.8 1.6 0.1
v -0.7 0 -0.2
v -0.7 0.3 -0.2
v -0.7 0.5 -0.2
v -0.7 1.1 -0.2
v -0.7 1.3 -0.2
v -0.7 1.6 -0.2
v -0.4 0 -0.2
v -0.4 0.3 -0.2
v -0.4 0.5 -0.2
v -0.4 1.1 -0.2
v -0.4 1.3 -0.2
v -0.4 1.6 -0.2
v -0.3 0 -0.2
v -0.3 0.3 -0.2
v -0.3 0.5 -0.2
v -0.3 1.1 -0.2
v -0.3 1.3 -0.2
v -0.3 1.6 -0.2
v 0 0 -0.2
v 0 0.3 -0.2
v 0 0.5 -0.2
v 0 1.1 -0.2
v 0 1.3 -0.2
v 0 1.6 -0.2
v 0.1 0 -0.2
v 0.1 0.3 -0.2
v 0.1 0.5 -0.2
v 0.1 1.1 -0.2
v 0.1 1.3 -0.2
v 0.1 1.6 -0.2
v 0.4 0 -0.2
v 0.4 0.3 -0.2
v 0.4 0.5 -0.2
v 0.4 1.1 -0.2
v 0.4 1.3 -0.2
v 0.4 1.6 -0.2
v 0.5 0 -0.2
v 0.5 0.3 -0.2
v 0.5 0.5 -0.2
v 0.5 1.1 -0.2
v 0.5 1.3 -0.2
v 0.5 1.6 -0.2
v 0.8 0 -0.2
v 0.8 0.3 -0.2
v 0.8 0.5 -0.2
v 0.8 1.1 -0.2
v 0.8 1.3 -0.2
v 0.8 1.6 -0.2
v -0.7 0.3 -0.3
v -0.7 0.5 -0.3
v -0.7 1.1 -0.3
v -0.7 1.3 -0.3
v 0.8 0.3 -0.3
v 0.8 0.5 -0.3
v 0.8 1.1 -0.3
v 0.8 1.3 -0.3
v -0.7 0 0.1
v -0.4 0 0.1
v -0.3 0 0.1
v 0 0 0.1
v 0.1 0 0.1
v 0.4 0 0.1
v 0.5 0 0.1
v 0.8 0 0.1
v -0.7 0 -0.2
v -0.4 0 -0.2
v -0.3 0 -0.2
v 0 0 -0.2
v 0.1 0 -0.2
v 0.4 0 -0.2
v 0.5 0 -0.2
v 0.8 0 -0.2
v -0.7 0.3 0.2
v 0.8 0.3 0.2
v -0.7 0.3 0.1
v -0.4 0.3 0.1
v -0.3 0.3 0.1
v 0 0.3 0.1
v 0.1 0.3 0.1
v 0.4 0.3 0.1
v 0.5 0.3 0.1
v 0.8 0.3 0.1
v -0.7 0.3 -0.2
v -0.4 0.3 -0.2
v -0.3 0.3 -0.2
v 0 0.3 -0.2
v 0.1 0.3 -0.2
v 0.4 0.3 -0.2
v 0.5 0.3 -0.2
v 0.8 0.3 -0.2
v -0.7 0.3 -0.3
v 0.8 0.3 -0.3
v 0.3 0.6 0.2
v 0.6 0.6 0.2
v 0.3 0.6 0.1
v 0.4 0.6 0.1
v 0.5 0.6 0.1
v 0.6 0.6 0.1
v 0.4 0.8 0.2
v 0.5 0.8 0.2
v 0.4 0.8 0.1
v 0.5 0.8 0.1
v -0.7 1.1 0.2
v 0.8 1.1 0.2
v -0.7 1.1 0.1
v -0.4 1.1 0.1
v -0.3 1.1 0.1
v 0 1.1 0.1
v 0.1 1.1 0.1
v 0.4 1.1 0.1
v 0.5 1.1 0.1
v 0.8 1.1 0.1
v -0.7 1.1 -0.2
v -0.4 1.1 -0.2
v -0.3 1.1 -0.2
v 0 1.1 -0.2
v 0.1 1.1 -0.2
v 0.4 1.1 -0.2
v 0.5 1.1 -0.2
v 0.8 1.1 -0.2
v -0.7 1.1 -0.3
v 0.8 1.1 -0.3
v -0.7 0.5 0.2
v 0.8 0.5 0.2
v -0.7 0.5 0.1
v -0.4 0.5 0.1
v -0.3 0.5 0.1
v 0 0.5 0.1
v 0.1 0.5 0.1
v 0.4 0.5 0.1
v 0.5 0.5 0.1
v 0.8 0.5 0.1
v -0.7 0.5 -0.2
v -0.4 0.5 -0.2
v -0.3 0.5 -0.2
v 0 0.5 -0.2
v 0.1 0.5 -0.2
v 0.4 0.5 -0.2
v 0.5 0.5 -0.2
v 0.8 0.5 -0.2
v -0.7 0.5 -0.3
v 0.8 0.5 -0.3
v 0.4 0.7 0.2
v 0.5 0.7 0.2
v 0.4 0.7 0.1
v 0.5 0.7 0.1
v 0.3 0.9 0.2
v 0.6 0.9 0.2
v 0.3 0.9 0.1
v 0.4 0.9 0.1
v 0.5 0.9 0.1
v 0.6 0.9 0.1
v -0.7 1.3 0.2
v 0.8 1.3 0.2
v -0.7 1.3 0.1
v -0.4 1.3 0.1
v -0.3 1.3 0.1
v 0 1.3 0.1
v 0.1 1.3 0.1
v 0.4 1.3 0.1
v 0.5 1.3 0.1
v 0.8 1.3 0.1
v -0.7 1.3 -0.2
v -0.4 1.3 -0.2
v -0.3 1.3 -0.2
v 0 1.3 -0.2
v 0.1 1.3 -0.2
v 0.4 1.3 -0.2
v 0.5 1.3 -0.2
v 0.8 1.3 -0.2
v -0.7 1.3 -0.3
v 0.8 1.3 -0.3
v -0.7 1.6 0.1
v -0.4 1.6 0.1
v -0.3 1.6 0.1
v 0 1.6 0.1
v 0.1 1.6 0.1
v 0.4 1.6 0.1
v 0.5 1.6 0.1
v 0.8 1.6 0.1
v -0.7 1.6 -0.2
v -0.4 1.6 -0.2
v -0.3 1.6 -0.2
v 0 1.6 -0.2
v 0.1 1.6 -0.2
v 0.4 1.6 -0.2
v 0.5 1.6 -0.2
v 0.8 1.6 -0.2

# faces
f 4/3/1 2/3/1 1/3/1
f 5/3/1 2/3/1 4/3/1
f 7/2/1 4/2/1 3/2/1
f 7/2/1 6/2/1 5/2/1
f 7/2/1 5/2/1 4/2/1
f 8/2/1 6/2/1 7/2/1
f 9/2/1 6/2/1 8/2/1
f 10/2/1 6/2/1 9/2/1
f 12/3/1 9/3/1 8/3/1
f 13/3/1 9/3/1 12/3/1
f 15/2/1 12/2/1 11/2/1
f 15/2/1 14/2/1 13/2/1
f 15/2/1 13/2/1 12/2/1
f 16/2/1 14/2/1 15/2/1
f 17/2/1 14/2/1 16/2/1
f 18/2/1 14/2/1 17/2/1
f 19/3/1 17/3/1 16/3/1
f 20/3/1 17/3/1 19/3/1
f 23/2/1 22/2/1 21/2/1
f 24/2/1 22/2/1 23/2/1
f 27/2/1 26/2/1 25/2/1
f 28/2/1 26/2/1 27/2/1
f 29/2/2 30/2/2 31/2/2
f 31/2/2 30/2/2 32/2/2
f 33/2/2 34/2/2 35/2/2
f 35/2/2 34/2/2 36/2/2
f 37/3/2 38/3/2 40/3/2
f 40/3/2 38/3/2 41/3/2
f 39/2/2 40/2/2 43/2/2
f 41/2/2 42/2/2 43/2/2
f 40/2/2 41/2/2 43/2/2
f 43/2/2 42/2/2 44/2/2
f 44/2/2 42/2/2 45/2/2
f 45/2/2 42/2/2 46/2/2
f 44/3/2 45/3/2 48/3/2
f 48/3/2 45/3/2 49/3/2
f 47/2/2 48/2/2 51/2/2
f 49/2/2 50/2/2 51/2/2
f 48/2/2 49/2/2 51/2/2
f 51/2/2 50/2/2 52/2/2
f 52/2/2 50/2/2 53/2/2
f 53/2/2 50/2/2 54/2/2
f 52/3/2 53/3/2 55/3/2
f 55/3/2 53/3/2 56/3/2
f 63/2/3 62/2/3 61/2/3
f 64/2/3 62/2/3 63/2/3
f 65/2/3 63/2/3 61/2/3
f 66/2/3 62/2/3 64/2/3
f 67/2/3 65/2/3 61/2/3
f 67/2/3 66/2/3 65/2/3
f 68/2/3 62/2/3 66/2/3
f 68/2/3 66/2/3 67/2/3
f 69/2/3 58/2/3 57/2/3
f 70/2/3 58/2/3 69/2/3
f 71/2/3 60/2/3 59/2/3
f 72/2/3 60/2/3 71/2/3
f 79/3/3 74/3/3 73/3/3
f 80/3/3 74/3/3 79/3/3
f 81/3/3 76/3/3 75/3/3
f 82/3/3 76/3/3 81/3/3
f 83/3/3 78/3/3 77/3/3
f 84/3/3 78/3/3 83/3/3
f 85/1/3 80/1/3 79/1/3
f 86/1/3 80/1/3 85/1/3
f 87/1/3 82/1/3 81/1/3
f 88/1/3 82/1/3 87/1/3
f 89/1/3 84/1/3 83/1/3
f 90/1/3 84/1/3 89/1/3
f 91/3/3 86/3/3 85/3/3
f 92/3/3 86/3/3 91/3/3
f 93/3/3 88/3/3 87/3/3
f 94/3/3 88/3/3 93/3/3
f 95/3/3 90/3/3 89/3/3
f 96/3/3 90/3/3 95/3/3
f 97/1/3 92/1/3 91/1/3
f 98/1/3 92/1/3 97/1/3
f 99/1/3 94/1/3 93/1/3
f 100/1/3 94/1/3 99/1/3
f 101/1/3 96/1/3 95/1/3
f 102/1/3 96/1/3 101/1/3
f 103/3/3 100/3/3 99/3/3
f 104/3/3 100/3/3 103/3/3
f 105/3/3 98/3/3 97/3/3
f 106/3/3 98/3/3 105/3/3
f 107/3/3 103/3/3 99/3/3
f 108/3/3 103/3/3 107/3/3
f 111/3/3 100/3/3 104/3/3
f 112/3/3 100/3/3 111/3/3
f 113/3/3 100/3/3 112/3/3
f 114/3/3 102/3/3 101/3/3
f 115/3/3 102/3/3 114/3/3
f 116/1/3 106/1/3 105/1/3
f 117/1/3 106/1/3 116/1/3
f 118/1/3 108/1/3 107/1/3
f 119/1/3 108/1/3 118/1/3
f 120/1/3 110/1/3 109/1/3
f 121/1/3 110/1/3 120/1/3
f 122/2/3 112/2/3 111/2/3
f 123/1/3 113/1/3 112/1/3
f 123/2/3 112/2/3 122/2/3
f 124/1/3 113/1/3 123/1/3
f 125/1/3 115/1/3 114/1/3
f 126/1/3 115/1/3 125/1/3
f 127/3/3 119/3/3 118/3/3
f 128/3/3 124/3/3 123/3/3
f 128/3/3 123/3/3 122/3/3
f 129/3/3 117/3/3 116/3/3
f 130/3/3 117/3/3 129/3/3
f 131/3/3 128/3/3 127/3/3
f 131/3/3 127/3/3 118/3/3
f 132/3/3 124/3/3 128/3/3
f 132/3/3 128/3/3 131/3/3
f 133/3/3 126/3/3 125/3/3
f 134/3/3 126/3/3 133/3/3
f 135/3/4 136/3/4 141/3/4
f 141/3/4 136/3/4 142/3/4
f 137/3/4 138/3/4 143/3/4
f 143/3/4 138/3/4 144/3/4
f 139/3/4 140/3/4 145/3/4
f 145/3/4 140/3/4 146/3/4
f 141/1/4 142/1/4 147/1/4
f 147/1/4 142/1/4 148/1/4
f 143/1/4 144/1/4 149/1/4
f 149/1/4 144/1/4 150/1/4
f 145/1/4 146/1/4 151/1/4
f 151/1/4 146/1/4 152/1/4
f 147/3/4 148/3/4 153/3/4
f 153/3/4 148/3/4 154/3/4
f 149/3/4 150/3/4 155/3/4
f 155/3/4 150/3/4 156/3/4
f 151/3/4 152/3/4 157/3/4
f 157/3/4 152/3/4 158/3/4
f 153/1/4 154/1/4 159/1/4
f 159/1/4 154/1/4 160/1/4
f 155/1/4 156/1/4 161/1/4
f 161/1/4 156/1/4 162/1/4
f 157/1/4 158/1/4 163/1/4
f 163/1/4 158/1/4 164/1/4
f 159/3/4 160/3/4 165/3/4
f 165/3/4 160/3/4 166/3/4
f 161/3/4 162/3/4 167/3/4
f 167/3/4 162/3/4 168/3/4
f 163/3/4 164/3/4 169/3/4
f 169/3/4 164/3/4 170/3/4
f 165/1/4 166/1/4 171/1/4
f 171/1/4 166/1/4 172/1/4
f 167/1/4 168/1/4 173/1/4
f 173/1/4 168/1/4 174/1/4
f 169/1/4 170/1/4 175/1/4
f 175/1/4 170/1/4 176/1/4
f 171/3/4 172/3/4 177/3/4
f 177/3/4 172/3/4 178/3/4
f 173/3/4 174/3/4 179/3/4
f 179/3/4 174/3/4 180/3/4
f 175/3/4 176/3/4 181/3/4
f 181/3/4 176/3/4 182/3/4
f 183/2/4 184/2/4 187/2/4
f 187/2/4 184/2/4 188/2/4
f 185/2/4 186/2/4 189/2/4
f 189/2/4 186/2/4 190/2/4
f 199/3/5 192/3/5 191/3/5
f 200/1/5 193/1/5 192/1/5
f 200/3/5 192/3/5 199/3/5
f 201/3/5 194/3/5 193/3/5
f 201/1/5 193/1/5 200/1/5
f 202/1/5 195/1/5 194/1/5
f 202/3/5 194/3/5 201/3/5
f 203/3/5 196/3/5 195/3/5
f 203/1/5 195/1/5 202/1/5
f 204/1/5 197/1/5 196/1/5
f 204/3/5 196/3/5 203/3/5
f 205/3/5 198/3/5 197/3/5
f 205/1/5 197/1/5 204/1/5
f 206/3/5 198/3/5 205/3/5
f 209/2/5 208/2/5 207/2/5
f 210/2/5 208/2/5 209/2/5
f 211/2/5 208/2/5 210/2/5
f 212/2/5 208/2/5 211/2/5
f 213/2/5 208/2/5 212/2/5
f 214/2/5 208/2/5 213/2/5
f 215/2/5 208/2/5 214/2/5
f 216/2/5 208/2/5 215/2/5
f 225/2/5 218/2/5 217/2/5
f 225/2/5 224/2/5 223/2/5
f 225/2/5 223/2/5 222/2/5
f 225/2/5 222/2/5 221/2/5
f 225/2/5 221/2/5 220/2/5
f 225/2/5 220/2/5 219/2/5
f 225/2/5 219/2/5 218/2/5
f 226/2/5 224/2/5 225/2/5
f 229/2/5 228/2/5 227/2/5
f 230/2/5 228/2/5 229/2/5
f 231/2/5 228/2/5 230/2/5
f 232/2/5 228/2/5 231/2/5
f 235/2/5 234/2/5 233/2/5
f 236/2/5 234/2/5 235/2/5
f 239/2/5 238/2/5 237/2/5
f 240/2/5 238/2/5 239/2/5
f 241/2/5 238/2/5 240/2/5
f 242/2/5 238/2/5 241/2/5
f 243/2/5 238/2/5 242/2/5
f 244/2/5 238/2/5 243/2/5
f 245/2/5 238/2/5 244/2/5
f 246/2/5 238/2/5 245/2/5
f 255/2/5 248/2/5 247/2/5
f 255/2/5 254/2/5 253/2/5
f 255/2/5 253/2/5 252/2/5
f 255/2/5 252/2/5 251/2/5
f 255/2/5 251/2/5 250/2/5
f 255/2/5 250/2/5 249/2/5
f 255/2/5 249/2/5 248/2/5
f 256/2/5 254/2/5 255/2/5
f 257/2/6 258/2/6 259/2/6
f 259/2/6 258/2/6 260/2/6
f 260/2/6 258/2/6 261/2/6
f 261/2/6 258/2/6 262/2/6
f 262/2/6 258/2/6 263/2/6
f 263/2/6 258/2/6 264/2/6
f 264/2/6 258/2/6 265/2/6
f 265/2/6 258/2/6 266/2/6
f 267/2/6 268/2/6 275/2/6
f 273/2/6 274/2/6 275/2/6
f 272/2/6 273/2/6 275/2/6
f 271/2/6 272/2/6 275/2/6
f 270/2/6 271/2/6 275/2/6
f 269/2/6 270/2/6 275/2/6
f 268/2/6 269/2/6 275/2/6
f 275/2/6 274/2/6 276/2/6
f 277/2/6 278/2/6 279/2/6
f 279/2/6 278/2/6 280/2/6
f 281/2/6 282/2/6 283/2/6
f 283/2/6 282/2/6 284/2/6
f 284/2/6 282/2/6 285/2/6
f 285/2/6 282/2/6 286/2/6
f 287/2/6 288/2/6 289/2/6
f 289/2/6 288/2/6 290/2/6
f 290/2/6 288/2/6 291/2/6
f 291/2/6 288/2/6 292/2/6
f 292/2/6 288/2/6 293/2/6
f 293/2/6 288/2/6 294/2/6
f 294/2/6 288/2/6 295/2/6
f 295/2/6 288/2/6 296/2/6
f 297/2/6 298/2/6 305/2/6
f 303/2/6 304/2/6 305/2/6
f 302/2/6 303/2/6 305/2/6
f 301/2/6 302/2/6 305/2/6
f 300/2/6 301/2/6 305/2/6
f 299/2/6 300/2/6 305/2/6
f 298/2/6 299/2/6 305/2/6
f 305/2/6 304/2/6 306/2/6
f 307/3/6 308/3/6 315/3/6
f 308/1/6 309/1/6 316/1/6
f 315/3/6 308/3/6 316/3/6
f 309/3/6 310/3/6 317/3/6
f 316/1/6 309/1/6 317/1/6
f 310/1/6 311/1/6 318/1/6
f 317/3/6 310/3/6 318/3/6
f 311/3/6 312/3/6 319/3/6
f 318/1/6 311/1/6 319/1/6
f 312/1/6 313/1/6 320/1/6
f 319/3/6 312/3/6 320/3/6
f 313/3/6 314/3/6 321/3/6
f 320/1/6 313/1/6 321/1/6
f 321/3/6 314/3/6 322/3/6
