# MagicaVoxel @ Ephtracy

# group
o 

# material
mtllib door_a_c.mtl
usemtl palette

# normals
vn -1 0 0
vn 1 0 0
vn 0 0 1
vn 0 0 -1
vn 0 -1 0
vn 0 1 0

# texcoords
vt 0.783203 0.5
vt 0.787109 0.5
vt 0.939453 0.5

# verts
v -0.7 0 0.1
v -0.7 0 -0.2
v -0.7 0.3 0.2
v -0.7 0.3 0.1
v -0.7 0.3 -0.2
v -0.7 0.3 -0.3
v -0.7 0.5 0.2
v -0.7 0.5 0.1
v -0.7 0.5 -0.2
v -0.7 0.5 -0.3
v -0.7 1.1 0.2
v -0.7 1.1 0.1
v -0.7 1.1 -0.2
v -0.7 1.1 -0.3
v -0.7 1.3 0.2
v -0.7 1.3 0.1
v -0.7 1.3 -0.2
v -0.7 1.3 -0.3
v -0.7 1.6 0.1
v -0.7 1.6 -0.2
v -0.4 0.8 0.2
v -0.4 0.8 0.1
v -0.4 0.8 -0.2
v -0.4 0.8 -0.3
v -0.4 1.3 0.2
v -0.4 1.3 0.1
v -0.4 1.3 -0.2
v -0.4 1.3 -0.3
v -0.2 0.9 0
v -0.2 0.9 -0.1
v -0.2 1.2 0
v -0.2 1.2 -0.1
v 0 0.9 0
v 0 0.9 -0.1
v 0 1.2 0
v 0 1.2 -0.1
v 0.2 0.9 0
v 0.2 0.9 -0.1
v 0.2 1.2 0
v 0.2 1.2 -0.1
v 0.3 0.3 0.2
v 0.3 0.3 0.1
v 0.3 0.6 0.2
v 0.3 0.6 0.1
v 0.4 0.9 0.2
v 0.4 0.9 -0.3
v 0.4 1.2 0.2
v 0.4 1.2 -0.3
v 0.5 0.4 0.2
v 0.5 0.4 0.1
v 0.5 0.5 0.2
v 0.5 0.5 0.1
v -0.5 0.3 0.2
v -0.5 0.3 0.1
v -0.5 0.3 -0.2
v -0.5 0.3 -0.3
v -0.5 0.5 0.2
v -0.5 0.5 0.1
v -0.5 0.5 -0.2
v -0.5 0.5 -0.3
v -0.5 1.1 0.2
v -0.5 1.1 0.1
v -0.5 1.1 -0.2
v -0.5 1.1 -0.3
v -0.5 1.3 0.2
v -0.5 1.3 0.1
v -0.5 1.3 -0.2
v -0.5 1.3 -0.3
v -0.3 0.9 0.2
v -0.3 0.9 -0.3
v -0.3 1.2 0.2
v -0.3 1.2 -0.3
v -0.1 0.9 0
v -0.1 0.9 -0.1
v -0.1 1.2 0
v -0.1 1.2 -0.1
v 0.1 0.9 0
v 0.1 0.9 -0.1
v 0.1 1.2 0
v 0.1 1.2 -0.1
v 0.3 0.9 0
v 0.3 0.9 -0.1
v 0.3 1.2 0
v 0.3 1.2 -0.1
v 0.4 0.4 0.2
v 0.4 0.4 0.1
v 0.4 0.5 0.2
v 0.4 0.5 0.1
v 0.5 0.8 0.2
v 0.5 0.8 0.1
v 0.5 0.8 -0.2
v 0.5 0.8 -0.3
v 0.5 1.3 0.2
v 0.5 1.3 0.1
v 0.5 1.3 -0.2
v 0.5 1.3 -0.3
v 0.6 0.3 0.2
v 0.6 0.3 0.1
v 0.6 0.6 0.2
v 0.6 0.6 0.1
v 0.8 0 0.1
v 0.8 0 -0.2
v 0.8 1.6 0.1
v 0.8 1.6 -0.2
v -0.7 0.3 0.2
v -0.7 0.5 0.2
v -0.7 1.1 0.2
v -0.7 1.3 0.2
v -0.5 0.3 0.2
v -0.5 0.5 0.2
v -0.5 1.1 0.2
v -0.5 1.3 0.2
v -0.4 0.8 0.2
v -0.4 1.3 0.2
v -0.3 0.9 0.2
v -0.3 1.2 0.2
v 0.3 0.3 0.2
v 0.3 0.6 0.2
v 0.4 0.4 0.2
v 0.4 0.5 0.2
v 0.4 0.9 0.2
v 0.4 1.2 0.2
v 0.5 0.4 0.2
v 0.5 0.5 0.2
v 0.5 0.8 0.2
v 0.5 1.3 0.2
v 0.6 0.3 0.2
v 0.6 0.6 0.2
v -0.7 0 0.1
v -0.7 0.3 0.1
v -0.7 0.5 0.1
v -0.7 1.1 0.1
v -0.7 1.3 0.1
v -0.7 1.6 0.1
v -0.5 0.3 0.1
v -0.5 0.5 0.1
v -0.5 1.1 0.1
v -0.5 1.3 0.1
v -0.4 0 0.1
v -0.4 0.8 0.1
v -0.4 1.3 0.1
v -0.4 1.6 0.1
v -0.3 0 0.1
v -0.3 0.8 0.1
v -0.3 1.3 0.1
v -0.3 1.6 0.1
v 0 0 0.1
v 0 0.8 0.1
v 0 1.3 0.1
v 0 1.6 0.1
v 0.1 0 0.1
v 0.1 0.8 0.1
v 0.1 1.3 0.1
v 0.1 1.6 0.1
v 0.3 0.3 0.1
v 0.3 0.6 0.1
v 0.4 0 0.1
v 0.4 0.3 0.1
v 0.4 0.4 0.1
v 0.4 0.5 0.1
v 0.4 0.6 0.1
v 0.4 0.7 0.1
v 0.4 0.8 0.1
v 0.4 1.3 0.1
v 0.4 1.6 0.1
v 0.5 0 0.1
v 0.5 0.3 0.1
v 0.5 0.4 0.1
v 0.5 0.5 0.1
v 0.5 0.6 0.1
v 0.5 0.7 0.1
v 0.5 0.8 0.1
v 0.5 1.3 0.1
v 0.5 1.6 0.1
v 0.6 0.3 0.1
v 0.6 0.6 0.1
v 0.8 0 0.1
v 0.8 1.6 0.1
v -0.2 0.9 0
v -0.2 1.2 0
v -0.1 0.9 0
v -0.1 1.2 0
v 0 0.9 0
v 0 1.2 0
v 0.1 0.9 0
v 0.1 1.2 0
v 0.2 0.9 0
v 0.2 1.2 0
v 0.3 0.9 0
v 0.3 1.2 0
v -0.2 0.9 -0.1
v -0.2 1.2 -0.1
v -0.1 0.9 -0.1
v -0.1 1.2 -0.1
v 0 0.9 -0.1
v 0 1.2 -0.1
v 0.1 0.9 -0.1
v 0.1 1.2 -0.1
v 0.2 0.9 -0.1
v 0.2 1.2 -0.1
v 0.3 0.9 -0.1
v 0.3 1.2 -0.1
v -0.7 0 -0.2
v -0.7 0.3 -0.2
v -0.7 0.5 -0.2
v -0.7 1.1 -0.2
v -0.7 1.3 -0.2
v -0.7 1.6 -0.2
v -0.5 0.3 -0.2
v -0.5 0.5 -0.2
v -0.5 1.1 -0.2
v -0.5 1.3 -0.2
v -0.4 0 -0.2
v -0.4 0.8 -0.2
v -0.4 1.3 -0.2
v -0.4 1.6 -0.2
v -0.3 0 -0.2
v -0.3 0.8 -0.2
v -0.3 1.3 -0.2
v -0.3 1.6 -0.2
v 0 0 -0.2
v 0 0.8 -0.2
v 0 1.3 -0.2
v 0 1.6 -0.2
v 0.1 0 -0.2
v 0.1 0.8 -0.2
v 0.1 1.3 -0.2
v 0.1 1.6 -0.2
v 0.4 0 -0.2
v 0.4 0.8 -0.2
v 0.4 1.3 -0.2
v 0.4 1.6 -0.2
v 0.5 0 -0.2
v 0.5 0.8 -0.2
v 0.5 1.3 -0.2
v 0.5 1.6 -0.2
v 0.8 0 -0.2
v 0.8 1.6 -0.2
v -0.7 0.3 -0.3
v -0.7 0.5 -0.3
v -0.7 1.1 -0.3
v -0.7 1.3 -0.3
v -0.5 0.3 -0.3
v -0.5 0.5 -0.3
v -0.5 1.1 -0.3
v -0.5 1.3 -0.3
v -0.4 0.8 -0.3
v -0.4 1.3 -0.3
v -0.3 0.9 -0.3
v -0.3 1.2 -0.3
v 0.4 0.9 -0.3
v 0.4 1.2 -0.3
v 0.5 0.8 -0.3
v 0.5 1.3 -0.3
v -0.7 0 0.1
v -0.4 0 0.1
v -0.3 0 0.1
v 0 0 0.1
v 0.1 0 0.1
v 0.4 0 0.1
v 0.5 0 0.1
v 0.8 0 0.1
v -0.7 0 -0.2
v -0.4 0 -0.2
v -0.3 0 -0.2
v 0 0 -0.2
v 0.1 0 -0.2
v 0.4 0 -0.2
v 0.5 0 -0.2
v 0.8 0 -0.2
v -0.7 0.3 0.2
v -0.5 0.3 0.2
v 0.3 0.3 0.2
v 0.6 0.3 0.2
v -0.7 0.3 0.1
v -0.5 0.3 0.1
v 0.3 0.3 0.1
v 0.4 0.3 0.1
v 0.5 0.3 0.1
v 0.6 0.3 0.1
v -0.7 0.3 -0.2
v -0.5 0.3 -0.2
v -0.7 0.3 -0.3
v -0.5 0.3 -0.3
v 0.4 0.5 0.2
v 0.5 0.5 0.2
v 0.4 0.5 0.1
v 0.5 0.5 0.1
v -0.4 0.8 0.2
v 0.5 0.8 0.2
v -0.4 0.8 0.1
v -0.3 0.8 0.1
v 0 0.8 0.1
v 0.1 0.8 0.1
v 0.4 0.8 0.1
v 0.5 0.8 0.1
v -0.4 0.8 -0.2
v -0.3 0.8 -0.2
v 0 0.8 -0.2
v 0.1 0.8 -0.2
v 0.4 0.8 -0.2
v 0.5 0.8 -0.2
v -0.4 0.8 -0.3
v 0.5 0.8 -0.3
v -0.7 1.1 0.2
v -0.5 1.1 0.2
v -0.7 1.1 0.1
v -0.5 1.1 0.1
v -0.7 1.1 -0.2
v -0.5 1.1 -0.2
v -0.7 1.1 -0.3
v -0.5 1.1 -0.3
v -0.3 1.2 0.2
v 0.4 1.2 0.2
v -0.2 1.2 0
v -0.1 1.2 0
v 0 1.2 0
v 0.1 1.2 0
v 0.2 1.2 0
v 0.3 1.2 0
v -0.2 1.2 -0.1
v -0.1 1.2 -0.1
v 0 1.2 -0.1
v 0.1 1.2 -0.1
v 0.2 1.2 -0.1
v 0.3 1.2 -0.1
v -0.3 1.2 -0.3
v 0.4 1.2 -0.3
v 0.4 0.4 0.2
v 0.5 0.4 0.2
v 0.4 0.4 0.1
v 0.5 0.4 0.1
v -0.7 0.5 0.2
v -0.5 0.5 0.2
v -0.7 0.5 0.1
v -0.5 0.5 0.1
v -0.7 0.5 -0.2
v -0.5 0.5 -0.2
v -0.7 0.5 -0.3
v -0.5 0.5 -0.3
v 0.3 0.6 0.2
v 0.6 0.6 0.2
v 0.3 0.6 0.1
v 0.4 0.6 0.1
v 0.5 0.6 0.1
v 0.6 0.6 0.1
v -0.3 0.9 0.2
v 0.4 0.9 0.2
v -0.2 0.9 0
v -0.1 0.9 0
v 0 0.9 0
v 0.1 0.9 0
v 0.2 0.9 0
v 0.3 0.9 0
v -0.2 0.9 -0.1
v -0.1 0.9 -0.1
v 0 0.9 -0.1
v 0.1 0.9 -0.1
v 0.2 0.9 -0.1
v 0.3 0.9 -0.1
v -0.3 0.9 -0.3
v 0.4 0.9 -0.3
v -0.7 1.3 0.2
v -0.5 1.3 0.2
v -0.4 1.3 0.2
v 0.5 1.3 0.2
v -0.7 1.3 0.1
v -0.5 1.3 0.1
v -0.4 1.3 0.1
v -0.3 1.3 0.1
v 0 1.3 0.1
v 0.1 1.3 0.1
v 0.4 1.3 0.1
v 0.5 1.3 0.1
v -0.7 1.3 -0.2
v -0.5 1.3 -0.2
v -0.4 1.3 -0.2
v -0.3 1.3 -0.2
v 0 1.3 -0.2
v 0.1 1.3 -0.2
v 0.4 1.3 -0.2
v 0.5 1.3 -0.2
v -0.7 1.3 -0.3
v -0.5 1.3 -0.3
v -0.4 1.3 -0.3
v 0.5 1.3 -0.3
v -0.7 1.6 0.1
v -0.4 1.6 0.1
v -0.3 1.6 0.1
v 0 1.6 0.1
v 0.1 1.6 0.1
v 0.4 1.6 0.1
v 0.5 1.6 0.1
v 0.8 1.6 0.1
v -0.7 1.6 -0.2
v -0.4 1.6 -0.2
v -0.3 1.6 -0.2
v 0 1.6 -0.2
v 0.1 1.6 -0.2
v 0.4 1.6 -0.2
v 0.5 1.6 -0.2
v 0.8 1.6 -0.2

# faces
f 4/3/1 2/3/1 1/3/1
f 5/3/1 2/3/1 4/3/1
f 7/2/1 4/2/1 3/2/1
f 7/2/1 6/2/1 5/2/1
f 7/2/1 5/2/1 4/2/1
f 8/2/1 6/2/1 7/2/1
f 9/2/1 6/2/1 8/2/1
f 10/2/1 6/2/1 9/2/1
f 12/3/1 9/3/1 8/3/1
f 13/3/1 9/3/1 12/3/1
f 15/2/1 12/2/1 11/2/1
f 15/2/1 14/2/1 13/2/1
f 15/2/1 13/2/1 12/2/1
f 16/2/1 14/2/1 15/2/1
f 17/2/1 14/2/1 16/2/1
f 18/2/1 14/2/1 17/2/1
f 19/3/1 17/3/1 16/3/1
f 20/3/1 17/3/1 19/3/1
f 25/2/1 22/2/1 21/2/1
f 26/2/1 22/2/1 25/2/1
f 27/2/1 24/2/1 23/2/1
f 28/2/1 24/2/1 27/2/1
f 31/2/1 30/2/1 29/2/1
f 32/2/1 30/2/1 31/2/1
f 35/2/1 34/2/1 33/2/1
f 36/2/1 34/2/1 35/2/1
f 39/2/1 38/2/1 37/2/1
f 40/2/1 38/2/1 39/2/1
f 43/2/1 42/2/1 41/2/1
f 44/2/1 42/2/1 43/2/1
f 47/2/1 46/2/1 45/2/1
f 48/2/1 46/2/1 47/2/1
f 51/2/1 50/2/1 49/2/1
f 52/2/1 50/2/1 51/2/1
f 53/2/2 54/2/2 57/2/2
f 57/2/2 54/2/2 58/2/2
f 55/2/2 56/2/2 59/2/2
f 59/2/2 56/2/2 60/2/2
f 61/2/2 62/2/2 65/2/2
f 65/2/2 62/2/2 66/2/2
f 63/2/2 64/2/2 67/2/2
f 67/2/2 64/2/2 68/2/2
f 69/2/2 70/2/2 71/2/2
f 71/2/2 70/2/2 72/2/2
f 73/2/2 74/2/2 75/2/2
f 75/2/2 74/2/2 76/2/2
f 77/2/2 78/2/2 79/2/2
f 79/2/2 78/2/2 80/2/2
f 81/2/2 82/2/2 83/2/2
f 83/2/2 82/2/2 84/2/2
f 85/2/2 86/2/2 87/2/2
f 87/2/2 86/2/2 88/2/2
f 89/2/2 90/2/2 93/2/2
f 93/2/2 90/2/2 94/2/2
f 91/2/2 92/2/2 95/2/2
f 95/2/2 92/2/2 96/2/2
f 97/2/2 98/2/2 99/2/2
f 99/2/2 98/2/2 100/2/2
f 101/3/2 102/3/2 103/3/2
f 103/3/2 102/3/2 104/3/2
f 109/2/3 106/2/3 105/2/3
f 110/2/3 106/2/3 109/2/3
f 111/2/3 108/2/3 107/2/3
f 112/2/3 108/2/3 111/2/3
f 115/2/3 114/2/3 113/2/3
f 116/2/3 114/2/3 115/2/3
f 119/2/3 118/2/3 117/2/3
f 120/2/3 118/2/3 119/2/3
f 121/2/3 115/2/3 113/2/3
f 122/2/3 114/2/3 116/2/3
f 123/2/3 119/2/3 117/2/3
f 124/2/3 118/2/3 120/2/3
f 125/2/3 121/2/3 113/2/3
f 125/2/3 122/2/3 121/2/3
f 126/2/3 114/2/3 122/2/3
f 126/2/3 122/2/3 125/2/3
f 127/2/3 123/2/3 117/2/3
f 127/2/3 124/2/3 123/2/3
f 128/2/3 118/2/3 124/2/3
f 128/2/3 124/2/3 127/2/3
f 135/3/3 130/3/3 129/3/3
f 136/3/3 132/3/3 131/3/3
f 137/3/3 132/3/3 136/3/3
f 138/3/3 134/3/3 133/3/3
f 139/3/3 137/3/3 136/3/3
f 139/3/3 138/3/3 137/3/3
f 139/3/3 135/3/3 129/3/3
f 139/3/3 136/3/3 135/3/3
f 140/3/3 138/3/3 139/3/3
f 141/3/3 134/3/3 138/3/3
f 141/3/3 138/3/3 140/3/3
f 142/3/3 134/3/3 141/3/3
f 143/1/3 140/1/3 139/1/3
f 144/1/3 140/1/3 143/1/3
f 145/1/3 142/1/3 141/1/3
f 146/1/3 142/1/3 145/1/3
f 147/3/3 144/3/3 143/3/3
f 148/3/3 144/3/3 147/3/3
f 149/3/3 146/3/3 145/3/3
f 150/3/3 146/3/3 149/3/3
f 151/1/3 148/1/3 147/1/3
f 152/1/3 148/1/3 151/1/3
f 153/1/3 150/1/3 149/1/3
f 154/1/3 150/1/3 153/1/3
f 155/3/3 152/3/3 151/3/3
f 156/3/3 152/3/3 155/3/3
f 157/3/3 155/3/3 151/3/3
f 158/3/3 155/3/3 157/3/3
f 161/3/3 152/3/3 156/3/3
f 162/3/3 152/3/3 161/3/3
f 163/3/3 152/3/3 162/3/3
f 164/3/3 154/3/3 153/3/3
f 165/3/3 154/3/3 164/3/3
f 166/1/3 158/1/3 157/1/3
f 167/1/3 158/1/3 166/1/3
f 168/1/3 160/1/3 159/1/3
f 169/1/3 160/1/3 168/1/3
f 170/2/3 162/2/3 161/2/3
f 171/1/3 163/1/3 162/1/3
f 171/2/3 162/2/3 170/2/3
f 172/1/3 163/1/3 171/1/3
f 173/1/3 165/1/3 164/1/3
f 174/1/3 165/1/3 173/1/3
f 175/3/3 167/3/3 166/3/3
f 176/3/3 174/3/3 173/3/3
f 176/3/3 172/3/3 171/3/3
f 176/3/3 173/3/3 172/3/3
f 176/3/3 171/3/3 170/3/3
f 177/3/3 175/3/3 166/3/3
f 177/3/3 176/3/3 175/3/3
f 178/3/3 174/3/3 176/3/3
f 178/3/3 176/3/3 177/3/3
f 181/2/3 180/2/3 179/2/3
f 182/2/3 180/2/3 181/2/3
f 185/2/3 184/2/3 183/2/3
f 186/2/3 184/2/3 185/2/3
f 189/2/3 188/2/3 187/2/3
f 190/2/3 188/2/3 189/2/3
f 191/2/4 192/2/4 193/2/4
f 193/2/4 192/2/4 194/2/4
f 195/2/4 196/2/4 197/2/4
f 197/2/4 196/2/4 198/2/4
f 199/2/4 200/2/4 201/2/4
f 201/2/4 200/2/4 202/2/4
f 203/3/4 204/3/4 209/3/4
f 205/3/4 206/3/4 210/3/4
f 210/3/4 206/3/4 211/3/4
f 207/3/4 208/3/4 212/3/4
f 210/3/4 211/3/4 213/3/4
f 211/3/4 212/3/4 213/3/4
f 203/3/4 209/3/4 213/3/4
f 209/3/4 210/3/4 213/3/4
f 213/3/4 212/3/4 214/3/4
f 212/3/4 208/3/4 215/3/4
f 214/3/4 212/3/4 215/3/4
f 215/3/4 208/3/4 216/3/4
f 213/1/4 214/1/4 217/1/4
f 217/1/4 214/1/4 218/1/4
f 215/1/4 216/1/4 219/1/4
f 219/1/4 216/1/4 220/1/4
f 217/3/4 218/3/4 221/3/4
f 221/3/4 218/3/4 222/3/4
f 219/3/4 220/3/4 223/3/4
f 223/3/4 220/3/4 224/3/4
f 221/1/4 222/1/4 225/1/4
f 225/1/4 222/1/4 226/1/4
f 223/1/4 224/1/4 227/1/4
f 227/1/4 224/1/4 228/1/4
f 225/3/4 226/3/4 229/3/4
f 229/3/4 226/3/4 230/3/4
f 227/3/4 228/3/4 231/3/4
f 231/3/4 228/3/4 232/3/4
f 229/1/4 230/1/4 233/1/4
f 233/1/4 230/1/4 234/1/4
f 231/1/4 232/1/4 235/1/4
f 235/1/4 232/1/4 236/1/4
f 233/3/4 234/3/4 237/3/4
f 234/3/4 235/3/4 237/3/4
f 235/3/4 236/3/4 237/3/4
f 237/3/4 236/3/4 238/3/4
f 239/2/4 240/2/4 243/2/4
f 243/2/4 240/2/4 244/2/4
f 241/2/4 242/2/4 245/2/4
f 245/2/4 242/2/4 246/2/4
f 247/2/4 248/2/4 249/2/4
f 249/2/4 248/2/4 250/2/4
f 247/2/4 249/2/4 251/2/4
f 250/2/4 248/2/4 252/2/4
f 247/2/4 251/2/4 253/2/4
f 251/2/4 252/2/4 253/2/4
f 252/2/4 248/2/4 254/2/4
f 253/2/4 252/2/4 254/2/4
f 263/3/5 256/3/5 255/3/5
f 264/1/5 257/1/5 256/1/5
f 264/3/5 256/3/5 263/3/5
f 265/3/5 258/3/5 257/3/5
f 265/1/5 257/1/5 264/1/5
f 266/1/5 259/1/5 258/1/5
f 266/3/5 258/3/5 265/3/5
f 267/3/5 260/3/5 259/3/5
f 267/1/5 259/1/5 266/1/5
f 268/1/5 261/1/5 260/1/5
f 268/3/5 260/3/5 267/3/5
f 269/3/5 262/3/5 261/3/5
f 269/1/5 261/1/5 268/1/5
f 270/3/5 262/3/5 269/3/5
f 275/2/5 272/2/5 271/2/5
f 276/2/5 272/2/5 275/2/5
f 277/2/5 274/2/5 273/2/5
f 278/2/5 274/2/5 277/2/5
f 279/2/5 274/2/5 278/2/5
f 280/2/5 274/2/5 279/2/5
f 283/2/5 282/2/5 281/2/5
f 284/2/5 282/2/5 283/2/5
f 287/2/5 286/2/5 285/2/5
f 288/2/5 286/2/5 287/2/5
f 291/2/5 290/2/5 289/2/5
f 292/2/5 290/2/5 291/2/5
f 293/2/5 290/2/5 292/2/5
f 294/2/5 290/2/5 293/2/5
f 295/2/5 290/2/5 294/2/5
f 296/2/5 290/2/5 295/2/5
f 303/2/5 298/2/5 297/2/5
f 303/2/5 302/2/5 301/2/5
f 303/2/5 301/2/5 300/2/5
f 303/2/5 300/2/5 299/2/5
f 303/2/5 299/2/5 298/2/5
f 304/2/5 302/2/5 303/2/5
f 307/2/5 306/2/5 305/2/5
f 308/2/5 306/2/5 307/2/5
f 311/2/5 310/2/5 309/2/5
f 312/2/5 310/2/5 311/2/5
f 315/2/5 314/2/5 313/2/5
f 316/2/5 314/2/5 315/2/5
f 317/2/5 314/2/5 316/2/5
f 318/2/5 314/2/5 317/2/5
f 319/2/5 314/2/5 318/2/5
f 320/2/5 314/2/5 319/2/5
f 321/2/5 315/2/5 313/2/5
f 322/2/5 317/2/5 316/2/5
f 323/2/5 317/2/5 322/2/5
f 324/2/5 319/2/5 318/2/5
f 325/2/5 319/2/5 324/2/5
f 326/2/5 314/2/5 320/2/5
f 327/2/5 325/2/5 324/2/5
f 327/2/5 326/2/5 325/2/5
f 327/2/5 323/2/5 322/2/5
f 327/2/5 321/2/5 313/2/5
f 327/2/5 324/2/5 323/2/5
f 327/2/5 322/2/5 321/2/5
f 328/2/5 314/2/5 326/2/5
f 328/2/5 326/2/5 327/2/5
f 329/2/6 330/2/6 331/2/6
f 331/2/6 330/2/6 332/2/6
f 333/2/6 334/2/6 335/2/6
f 335/2/6 334/2/6 336/2/6
f 337/2/6 338/2/6 339/2/6
f 339/2/6 338/2/6 340/2/6
f 341/2/6 342/2/6 343/2/6
f 343/2/6 342/2/6 344/2/6
f 344/2/6 342/2/6 345/2/6
f 345/2/6 342/2/6 346/2/6
f 347/2/6 348/2/6 349/2/6
f 349/2/6 348/2/6 350/2/6
f 350/2/6 348/2/6 351/2/6
f 351/2/6 348/2/6 352/2/6
f 352/2/6 348/2/6 353/2/6
f 353/2/6 348/2/6 354/2/6
f 347/2/6 349/2/6 355/2/6
f 350/2/6 351/2/6 356/2/6
f 356/2/6 351/2/6 357/2/6
f 352/2/6 353/2/6 358/2/6
f 358/2/6 353/2/6 359/2/6
f 354/2/6 348/2/6 360/2/6
f 358/2/6 359/2/6 361/2/6
f 359/2/6 360/2/6 361/2/6
f 356/2/6 357/2/6 361/2/6
f 347/2/6 355/2/6 361/2/6
f 357/2/6 358/2/6 361/2/6
f 355/2/6 356/2/6 361/2/6
f 360/2/6 348/2/6 362/2/6
f 361/2/6 360/2/6 362/2/6
f 363/2/6 364/2/6 367/2/6
f 367/2/6 364/2/6 368/2/6
f 365/2/6 366/2/6 369/2/6
f 369/2/6 366/2/6 370/2/6
f 370/2/6 366/2/6 371/2/6
f 371/2/6 366/2/6 372/2/6
f 372/2/6 366/2/6 373/2/6
f 373/2/6 366/2/6 374/2/6
f 375/2/6 376/2/6 383/2/6
f 383/2/6 376/2/6 384/2/6
f 381/2/6 382/2/6 385/2/6
f 377/2/6 378/2/6 385/2/6
f 378/2/6 379/2/6 385/2/6
f 380/2/6 381/2/6 385/2/6
f 379/2/6 380/2/6 385/2/6
f 385/2/6 382/2/6 386/2/6
f 387/3/6 388/3/6 395/3/6
f 388/1/6 389/1/6 396/1/6
f 395/3/6 388/3/6 396/3/6
f 389/3/6 390/3/6 397/3/6
f 396/1/6 389/1/6 397/1/6
f 390/1/6 391/1/6 398/1/6
f 397/3/6 390/3/6 398/3/6
f 391/3/6 392/3/6 399/3/6
f 398/1/6 391/1/6 399/1/6
f 392/1/6 393/1/6 400/1/6
f 399/3/6 392/3/6 400/3/6
f 393/3/6 394/3/6 401/3/6
f 400/1/6 393/1/6 401/1/6
f 401/3/6 394/3/6 402/3/6
