# MagicaVoxel @ Ephtracy

# group
o 

# material
mtllib mimic_a_walk_1.mtl
usemtl palette

# normals
vn -1 0 0
vn 1 0 0
vn 0 0 1
vn 0 0 -1
vn 0 -1 0
vn 0 1 0

# texcoords
vt 0.783203 0.5
vt 0.822266 0.5
vt 0.908203 0.5
vt 0.939453 0.5
vt 0.947266 0.5
vt 0.970703 0.5

# verts
v -0.3 0.4 0.3
v -0.3 0.4 -0.3
v -0.3 0.5 0.2
v -0.3 0.5 0.1
v -0.3 0.5 -0.1
v -0.3 0.5 -0.2
v -0.3 0.9 0.3
v -0.3 0.9 0.2
v -0.3 0.9 0.1
v -0.3 0.9 -0.1
v -0.3 0.9 -0.2
v -0.3 1 0.3
v -0.3 1 0.2
v -0.3 1 0.1
v -0.3 1 -0.1
v -0.3 1 -0.2
v -0.3 1.1 0.3
v -0.3 1.1 0.2
v -0.3 1.1 0.1
v -0.3 1.1 -0.1
v -0.3 1.1 -0.2
v -0.3 1.1 -0.3
v -0.3 1.2 0.2
v -0.3 1.2 0.1
v -0.3 1.2 -0.1
v -0.3 1.2 -0.2
v -0.3 1.3 0.1
v -0.3 1.3 -0.1
v -0.2 0.9 0.3
v -0.2 0.9 0.2
v -0.2 0.9 0.1
v -0.2 0.9 -0.1
v -0.2 1 0.3
v -0.2 1 0.2
v -0.2 1 0.1
v -0.2 1 -0.1
v 2.98023e-08 0.8 0.4
v 2.98023e-08 0.8 0.3
v 2.98023e-08 0.9 0.3
v 2.98023e-08 0.9 0.2
v 2.98023e-08 1 0.4
v 2.98023e-08 1 0.3
v 2.98023e-08 1 0.2
v 0.3 0.9 0.3
v 0.3 0.9 0.2
v 0.3 1 0.3
v 0.3 1 0.2
v -0.1 0.9 0.3
v -0.1 0.9 0.2
v -0.1 1 0.3
v -0.1 1 0.2
v 0.2 0.8 0.4
v 0.2 0.8 0.3
v 0.2 0.9 0.3
v 0.2 0.9 0.2
v 0.2 1 0.4
v 0.2 1 0.3
v 0.2 1 0.2
v 0.4 0.9 0.3
v 0.4 0.9 0.2
v 0.4 0.9 0.1
v 0.4 0.9 -0.1
v 0.4 1 0.3
v 0.4 1 0.2
v 0.4 1 0.1
v 0.4 1 -0.1
v 0.5 0.4 0.3
v 0.5 0.4 -0.3
v 0.5 0.5 0.2
v 0.5 0.5 0.1
v 0.5 0.5 -0.1
v 0.5 0.5 -0.2
v 0.5 0.9 0.3
v 0.5 0.9 0.2
v 0.5 0.9 0.1
v 0.5 0.9 -0.1
v 0.5 0.9 -0.2
v 0.5 1 0.3
v 0.5 1 0.2
v 0.5 1 0.1
v 0.5 1 -0.1
v 0.5 1 -0.2
v 0.5 1.1 0.3
v 0.5 1.1 0.2
v 0.5 1.1 0.1
v 0.5 1.1 -0.1
v 0.5 1.1 -0.2
v 0.5 1.1 -0.3
v 0.5 1.2 0.2
v 0.5 1.2 0.1
v 0.5 1.2 -0.1
v 0.5 1.2 -0.2
v 0.5 1.3 0.1
v 0.5 1.3 -0.1
v 2.98023e-08 0.8 0.4
v 2.98023e-08 1 0.4
v 0.2 0.8 0.4
v 0.2 1 0.4
v -0.3 0.4 0.3
v -0.3 0.9 0.3
v -0.3 1 0.3
v -0.3 1.1 0.3
v -0.2 0.5 0.3
v -0.2 0.9 0.3
v -0.2 1 0.3
v -0.2 1.1 0.3
v -0.1 0.5 0.3
v -0.1 0.9 0.3
v -0.1 1 0.3
v -0.1 1.1 0.3
v 2.98023e-08 0.5 0.3
v 2.98023e-08 0.8 0.3
v 2.98023e-08 0.9 0.3
v 2.98023e-08 1 0.3
v 2.98023e-08 1.1 0.3
v 0.2 0.5 0.3
v 0.2 0.8 0.3
v 0.2 0.9 0.3
v 0.2 1 0.3
v 0.2 1.1 0.3
v 0.3 0.5 0.3
v 0.3 0.9 0.3
v 0.3 1 0.3
v 0.3 1.1 0.3
v 0.4 0.5 0.3
v 0.4 0.9 0.3
v 0.4 1 0.3
v 0.4 1.1 0.3
v 0.5 0.4 0.3
v 0.5 0.9 0.3
v 0.5 1 0.3
v 0.5 1.1 0.3
v -0.3 0.9 0.2
v -0.3 1 0.2
v -0.3 1.1 0.2
v -0.3 1.2 0.2
v -0.2 0.9 0.2
v -0.2 1 0.2
v -0.2 1.1 0.2
v -0.2 1.2 0.2
v -0.1 0.9 0.2
v -0.1 1 0.2
v -0.1 1.1 0.2
v -0.1 1.2 0.2
v 2.98023e-08 0.9 0.2
v 2.98023e-08 1 0.2
v 2.98023e-08 1.1 0.2
v 2.98023e-08 1.2 0.2
v 0.2 0.9 0.2
v 0.2 1 0.2
v 0.2 1.1 0.2
v 0.2 1.2 0.2
v 0.3 0.9 0.2
v 0.3 1 0.2
v 0.3 1.1 0.2
v 0.3 1.2 0.2
v 0.4 0.9 0.2
v 0.4 1 0.2
v 0.4 1.1 0.2
v 0.4 1.2 0.2
v 0.5 0.9 0.2
v 0.5 1 0.2
v 0.5 1.1 0.2
v 0.5 1.2 0.2
v -0.3 1.2 0.1
v -0.3 1.3 0.1
v -0.2 1.2 0.1
v -0.2 1.3 0.1
v -0.1 1.2 0.1
v -0.1 1.3 0.1
v 2.98023e-08 1.2 0.1
v 2.98023e-08 1.3 0.1
v 0.2 1.2 0.1
v 0.2 1.3 0.1
v 0.3 1.2 0.1
v 0.3 1.3 0.1
v 0.4 1.2 0.1
v 0.4 1.3 0.1
v 0.5 1.2 0.1
v 0.5 1.3 0.1
v -0.3 0.9 -0.1
v -0.3 1 -0.1
v -0.2 0.9 -0.1
v -0.2 1 -0.1
v 0.4 0.9 -0.1
v 0.4 1 -0.1
v 0.5 0.9 -0.1
v 0.5 1 -0.1
v -0.3 0.9 0.1
v -0.3 1 0.1
v -0.2 0.9 0.1
v -0.2 1 0.1
v 0.4 0.9 0.1
v 0.4 1 0.1
v 0.5 0.9 0.1
v 0.5 1 0.1
v -0.3 1.2 -0.1
v -0.3 1.3 -0.1
v -0.2 1.2 -0.1
v -0.2 1.3 -0.1
v -0.1 1.2 -0.1
v -0.1 1.3 -0.1
v 2.98023e-08 1.2 -0.1
v 2.98023e-08 1.3 -0.1
v 0.2 1.2 -0.1
v 0.2 1.3 -0.1
v 0.3 1.2 -0.1
v 0.3 1.3 -0.1
v 0.4 1.2 -0.1
v 0.4 1.3 -0.1
v 0.5 1.2 -0.1
v 0.5 1.3 -0.1
v -0.3 1.1 -0.2
v -0.3 1.2 -0.2
v -0.2 1.1 -0.2
v -0.2 1.2 -0.2
v -0.1 1.1 -0.2
v -0.1 1.2 -0.2
v 2.98023e-08 1.1 -0.2
v 2.98023e-08 1.2 -0.2
v 0.2 1.1 -0.2
v 0.2 1.2 -0.2
v 0.3 1.1 -0.2
v 0.3 1.2 -0.2
v 0.4 1.1 -0.2
v 0.4 1.2 -0.2
v 0.5 1.1 -0.2
v 0.5 1.2 -0.2
v -0.3 0.4 -0.3
v -0.3 1.1 -0.3
v -0.2 0.5 -0.3
v -0.2 0.9 -0.3
v -0.2 1 -0.3
v -0.2 1.1 -0.3
v -0.1 0.5 -0.3
v -0.1 0.9 -0.3
v -0.1 1 -0.3
v -0.1 1.1 -0.3
v 2.98023e-08 0.5 -0.3
v 2.98023e-08 0.9 -0.3
v 2.98023e-08 1 -0.3
v 2.98023e-08 1.1 -0.3
v 0.2 0.5 -0.3
v 0.2 0.9 -0.3
v 0.2 1 -0.3
v 0.2 1.1 -0.3
v 0.3 0.5 -0.3
v 0.3 0.9 -0.3
v 0.3 1 -0.3
v 0.3 1.1 -0.3
v 0.4 0.5 -0.3
v 0.4 0.9 -0.3
v 0.4 1 -0.3
v 0.4 1.1 -0.3
v 0.5 0.4 -0.3
v 0.5 1.1 -0.3
v -0.3 0.4 0.3
v 0.5 0.4 0.3
v -0.3 0.4 -0.3
v 0.5 0.4 -0.3
v 2.98023e-08 0.8 0.4
v 0.2 0.8 0.4
v 2.98023e-08 0.8 0.3
v 0.2 0.8 0.3
v -0.3 1 0.3
v -0.2 1 0.3
v -0.1 1 0.3
v 2.98023e-08 1 0.3
v 0.2 1 0.3
v 0.3 1 0.3
v 0.4 1 0.3
v 0.5 1 0.3
v -0.3 1 0.2
v -0.2 1 0.2
v -0.1 1 0.2
v 2.98023e-08 1 0.2
v 0.2 1 0.2
v 0.3 1 0.2
v 0.4 1 0.2
v 0.5 1 0.2
v -0.3 1 0.1
v -0.2 1 0.1
v 0.4 1 0.1
v 0.5 1 0.1
v -0.3 1 -0.1
v -0.2 1 -0.1
v 0.4 1 -0.1
v 0.5 1 -0.1
v -0.3 0.9 0.3
v -0.2 0.9 0.3
v -0.1 0.9 0.3
v 2.98023e-08 0.9 0.3
v 0.2 0.9 0.3
v 0.3 0.9 0.3
v 0.4 0.9 0.3
v 0.5 0.9 0.3
v -0.3 0.9 0.2
v -0.2 0.9 0.2
v -0.1 0.9 0.2
v 2.98023e-08 0.9 0.2
v 0.2 0.9 0.2
v 0.3 0.9 0.2
v 0.4 0.9 0.2
v 0.5 0.9 0.2
v -0.3 0.9 0.1
v -0.2 0.9 0.1
v 0.4 0.9 0.1
v 0.5 0.9 0.1
v -0.3 0.9 -0.1
v -0.2 0.9 -0.1
v 0.4 0.9 -0.1
v 0.5 0.9 -0.1
v 2.98023e-08 1 0.4
v 0.2 1 0.4
v 2.98023e-08 1 0.3
v 0.2 1 0.3
v -0.3 1.1 0.3
v -0.2 1.1 0.3
v -0.1 1.1 0.3
v 2.98023e-08 1.1 0.3
v 0.2 1.1 0.3
v 0.3 1.1 0.3
v 0.4 1.1 0.3
v 0.5 1.1 0.3
v -0.3 1.1 0.2
v -0.2 1.1 0.2
v -0.1 1.1 0.2
v 2.98023e-08 1.1 0.2
v 0.2 1.1 0.2
v 0.3 1.1 0.2
v 0.4 1.1 0.2
v 0.5 1.1 0.2
v -0.3 1.1 -0.2
v -0.2 1.1 -0.2
v -0.1 1.1 -0.2
v 2.98023e-08 1.1 -0.2
v 0.2 1.1 -0.2
v 0.3 1.1 -0.2
v 0.4 1.1 -0.2
v 0.5 1.1 -0.2
v -0.3 1.1 -0.3
v -0.2 1.1 -0.3
v -0.1 1.1 -0.3
v 2.98023e-08 1.1 -0.3
v 0.2 1.1 -0.3
v 0.3 1.1 -0.3
v 0.4 1.1 -0.3
v 0.5 1.1 -0.3
v -0.3 1.2 0.2
v -0.2 1.2 0.2
v -0.1 1.2 0.2
v 2.98023e-08 1.2 0.2
v 0.2 1.2 0.2
v 0.3 1.2 0.2
v 0.4 1.2 0.2
v 0.5 1.2 0.2
v -0.3 1.2 0.1
v -0.2 1.2 0.1
v -0.1 1.2 0.1
v 2.98023e-08 1.2 0.1
v 0.2 1.2 0.1
v 0.3 1.2 0.1
v 0.4 1.2 0.1
v 0.5 1.2 0.1
v -0.3 1.2 -0.1
v -0.2 1.2 -0.1
v -0.1 1.2 -0.1
v 2.98023e-08 1.2 -0.1
v 0.2 1.2 -0.1
v 0.3 1.2 -0.1
v 0.4 1.2 -0.1
v 0.5 1.2 -0.1
v -0.3 1.2 -0.2
v -0.2 1.2 -0.2
v -0.1 1.2 -0.2
v 2.98023e-08 1.2 -0.2
v 0.2 1.2 -0.2
v 0.3 1.2 -0.2
v 0.4 1.2 -0.2
v 0.5 1.2 -0.2
v -0.3 1.3 0.1
v -0.2 1.3 0.1
v -0.1 1.3 0.1
v 2.98023e-08 1.3 0.1
v 0.2 1.3 0.1
v 0.3 1.3 0.1
v 0.4 1.3 0.1
v 0.5 1.3 0.1
v -0.3 1.3 -0.1
v -0.2 1.3 -0.1
v -0.1 1.3 -0.1
v 2.98023e-08 1.3 -0.1
v 0.2 1.3 -0.1
v 0.3 1.3 -0.1
v 0.4 1.3 -0.1
v 0.5 1.3 -0.1

# faces
f 3/2/1 2/2/1 1/2/1
f 4/2/1 2/2/1 3/2/1
f 5/2/1 2/2/1 4/2/1
f 6/2/1 2/2/1 5/2/1
f 7/2/1 3/2/1 1/2/1
f 8/4/1 4/4/1 3/4/1
f 8/2/1 3/2/1 7/2/1
f 9/1/1 5/1/1 4/1/1
f 9/4/1 4/4/1 8/4/1
f 10/4/1 6/4/1 5/4/1
f 10/1/1 5/1/1 9/1/1
f 11/2/1 2/2/1 6/2/1
f 11/4/1 6/4/1 10/4/1
f 13/5/1 9/5/1 8/5/1
f 14/5/1 9/5/1 13/5/1
f 15/5/1 11/5/1 10/5/1
f 16/2/1 2/2/1 11/2/1
f 16/5/1 11/5/1 15/5/1
f 17/2/1 13/2/1 12/2/1
f 18/4/1 14/4/1 13/4/1
f 18/2/1 13/2/1 17/2/1
f 19/1/1 15/1/1 14/1/1
f 19/4/1 14/4/1 18/4/1
f 20/4/1 16/4/1 15/4/1
f 20/1/1 15/1/1 19/1/1
f 21/2/1 2/2/1 16/2/1
f 21/4/1 16/4/1 20/4/1
f 22/2/1 2/2/1 21/2/1
f 23/2/1 19/2/1 18/2/1
f 24/1/1 20/1/1 19/1/1
f 24/2/1 19/2/1 23/2/1
f 25/2/1 21/2/1 20/2/1
f 25/1/1 20/1/1 24/1/1
f 26/2/1 21/2/1 25/2/1
f 27/2/1 25/2/1 24/2/1
f 28/2/1 25/2/1 27/2/1
f 33/5/1 30/5/1 29/5/1
f 34/5/1 30/5/1 33/5/1
f 35/6/1 32/6/1 31/6/1
f 36/6/1 32/6/1 35/6/1
f 39/3/1 38/3/1 37/3/1
f 41/3/1 39/3/1 37/3/1
f 41/3/1 40/3/1 39/3/1
f 42/3/1 40/3/1 41/3/1
f 43/3/1 40/3/1 42/3/1
f 46/5/1 45/5/1 44/5/1
f 47/5/1 45/5/1 46/5/1
f 48/5/2 49/5/2 50/5/2
f 50/5/2 49/5/2 51/5/2
f 52/3/2 53/3/2 54/3/2
f 52/3/2 54/3/2 56/3/2
f 54/3/2 55/3/2 56/3/2
f 56/3/2 55/3/2 57/3/2
f 57/3/2 55/3/2 58/3/2
f 59/5/2 60/5/2 63/5/2
f 63/5/2 60/5/2 64/5/2
f 61/6/2 62/6/2 65/6/2
f 65/6/2 62/6/2 66/6/2
f 67/2/2 68/2/2 69/2/2
f 69/2/2 68/2/2 70/2/2
f 70/2/2 68/2/2 71/2/2
f 71/2/2 68/2/2 72/2/2
f 67/2/2 69/2/2 73/2/2
f 69/4/2 70/4/2 74/4/2
f 73/2/2 69/2/2 74/2/2
f 70/1/2 71/1/2 75/1/2
f 74/4/2 70/4/2 75/4/2
f 71/4/2 72/4/2 76/4/2
f 75/1/2 71/1/2 76/1/2
f 72/2/2 68/2/2 77/2/2
f 76/4/2 72/4/2 77/4/2
f 74/5/2 75/5/2 79/5/2
f 79/5/2 75/5/2 80/5/2
f 76/5/2 77/5/2 81/5/2
f 77/2/2 68/2/2 82/2/2
f 81/5/2 77/5/2 82/5/2
f 78/2/2 79/2/2 83/2/2
f 79/4/2 80/4/2 84/4/2
f 83/2/2 79/2/2 84/2/2
f 80/1/2 81/1/2 85/1/2
f 84/4/2 80/4/2 85/4/2
f 81/4/2 82/4/2 86/4/2
f 85/1/2 81/1/2 86/1/2
f 82/2/2 68/2/2 87/2/2
f 86/4/2 82/4/2 87/4/2
f 87/2/2 68/2/2 88/2/2
f 84/2/2 85/2/2 89/2/2
f 85/1/2 86/1/2 90/1/2
f 89/2/2 85/2/2 90/2/2
f 86/2/2 87/2/2 91/2/2
f 90/1/2 86/1/2 91/1/2
f 91/2/2 87/2/2 92/2/2
f 90/2/2 91/2/2 93/2/2
f 93/2/2 91/2/2 94/2/2
f 97/3/3 96/3/3 95/3/3
f 98/3/3 96/3/3 97/3/3
f 103/2/3 100/2/3 99/2/3
f 104/2/3 100/2/3 103/2/3
f 105/2/3 102/2/3 101/2/3
f 106/2/3 102/2/3 105/2/3
f 107/4/3 104/4/3 103/4/3
f 107/2/3 103/2/3 99/2/3
f 108/5/3 105/5/3 104/5/3
f 108/4/3 104/4/3 107/4/3
f 109/4/3 106/4/3 105/4/3
f 109/5/3 105/5/3 108/5/3
f 110/4/3 106/4/3 109/4/3
f 111/1/3 108/1/3 107/1/3
f 111/2/3 107/2/3 99/2/3
f 112/1/3 108/1/3 111/1/3
f 113/1/3 108/1/3 112/1/3
f 114/1/3 110/1/3 109/1/3
f 115/1/3 110/1/3 114/1/3
f 116/2/3 111/2/3 99/2/3
f 116/4/3 112/4/3 111/4/3
f 117/4/3 112/4/3 116/4/3
f 119/4/3 115/4/3 114/4/3
f 120/4/3 115/4/3 119/4/3
f 121/1/3 118/1/3 117/1/3
f 121/2/3 116/2/3 99/2/3
f 121/1/3 117/1/3 116/1/3
f 122/1/3 118/1/3 121/1/3
f 123/1/3 120/1/3 119/1/3
f 124/1/3 120/1/3 123/1/3
f 125/4/3 122/4/3 121/4/3
f 125/2/3 121/2/3 99/2/3
f 126/5/3 123/5/3 122/5/3
f 126/4/3 122/4/3 125/4/3
f 127/4/3 124/4/3 123/4/3
f 127/5/3 123/5/3 126/5/3
f 128/4/3 124/4/3 127/4/3
f 129/2/3 126/2/3 125/2/3
f 129/2/3 125/2/3 99/2/3
f 130/2/3 126/2/3 129/2/3
f 131/2/3 128/2/3 127/2/3
f 132/2/3 128/2/3 131/2/3
f 137/5/3 134/5/3 133/5/3
f 138/5/3 134/5/3 137/5/3
f 139/2/3 136/2/3 135/2/3
f 140/2/3 136/2/3 139/2/3
f 143/4/3 140/4/3 139/4/3
f 144/4/3 140/4/3 143/4/3
f 145/6/3 142/6/3 141/6/3
f 146/6/3 142/6/3 145/6/3
f 147/1/3 144/1/3 143/1/3
f 148/1/3 144/1/3 147/1/3
f 151/4/3 148/4/3 147/4/3
f 152/4/3 148/4/3 151/4/3
f 153/6/3 150/6/3 149/6/3
f 154/6/3 150/6/3 153/6/3
f 155/1/3 152/1/3 151/1/3
f 156/1/3 152/1/3 155/1/3
f 159/4/3 156/4/3 155/4/3
f 160/4/3 156/4/3 159/4/3
f 161/5/3 158/5/3 157/5/3
f 162/5/3 158/5/3 161/5/3
f 163/2/3 160/2/3 159/2/3
f 164/2/3 160/2/3 163/2/3
f 167/2/3 166/2/3 165/2/3
f 168/2/3 166/2/3 167/2/3
f 169/4/3 168/4/3 167/4/3
f 170/4/3 168/4/3 169/4/3
f 171/1/3 170/1/3 169/1/3
f 172/1/3 170/1/3 171/1/3
f 173/4/3 172/4/3 171/4/3
f 174/4/3 172/4/3 173/4/3
f 175/1/3 174/1/3 173/1/3
f 176/1/3 174/1/3 175/1/3
f 177/4/3 176/4/3 175/4/3
f 178/4/3 176/4/3 177/4/3
f 179/2/3 178/2/3 177/2/3
f 180/2/3 178/2/3 179/2/3
f 183/5/3 182/5/3 181/5/3
f 184/5/3 182/5/3 183/5/3
f 187/5/3 186/5/3 185/5/3
f 188/5/3 186/5/3 187/5/3
f 189/5/4 190/5/4 191/5/4
f 191/5/4 190/5/4 192/5/4
f 193/5/4 194/5/4 195/5/4
f 195/5/4 194/5/4 196/5/4
f 197/2/4 198/2/4 199/2/4
f 199/2/4 198/2/4 200/2/4
f 199/4/4 200/4/4 201/4/4
f 201/4/4 200/4/4 202/4/4
f 201/1/4 202/1/4 203/1/4
f 203/1/4 202/1/4 204/1/4
f 203/4/4 204/4/4 205/4/4
f 205/4/4 204/4/4 206/4/4
f 205/1/4 206/1/4 207/1/4
f 207/1/4 206/1/4 208/1/4
f 207/4/4 208/4/4 209/4/4
f 209/4/4 208/4/4 210/4/4
f 209/2/4 210/2/4 211/2/4
f 211/2/4 210/2/4 212/2/4
f 213/2/4 214/2/4 215/2/4
f 215/2/4 214/2/4 216/2/4
f 215/4/4 216/4/4 217/4/4
f 217/4/4 216/4/4 218/4/4
f 217/1/4 218/1/4 219/1/4
f 219/1/4 218/1/4 220/1/4
f 219/4/4 220/4/4 221/4/4
f 221/4/4 220/4/4 222/4/4
f 221/1/4 222/1/4 223/1/4
f 223/1/4 222/1/4 224/1/4
f 223/4/4 224/4/4 225/4/4
f 225/4/4 224/4/4 226/4/4
f 225/2/4 226/2/4 227/2/4
f 227/2/4 226/2/4 228/2/4
f 229/2/4 230/2/4 231/2/4
f 231/2/4 230/2/4 232/2/4
f 232/2/4 230/2/4 233/2/4
f 233/2/4 230/2/4 234/2/4
f 229/2/4 231/2/4 235/2/4
f 231/4/4 232/4/4 235/4/4
f 232/2/4 233/2/4 236/2/4
f 235/4/4 232/4/4 236/4/4
f 233/4/4 234/4/4 237/4/4
f 236/2/4 233/2/4 237/2/4
f 237/4/4 234/4/4 238/4/4
f 235/1/4 236/1/4 239/1/4
f 229/2/4 235/2/4 239/2/4
f 236/2/4 237/2/4 240/2/4
f 239/1/4 236/1/4 240/1/4
f 237/1/4 238/1/4 241/1/4
f 240/2/4 237/2/4 241/2/4
f 241/1/4 238/1/4 242/1/4
f 239/4/4 240/4/4 243/4/4
f 229/2/4 239/2/4 243/2/4
f 240/2/4 241/2/4 244/2/4
f 243/4/4 240/4/4 244/4/4
f 241/4/4 242/4/4 245/4/4
f 244/2/4 241/2/4 245/2/4
f 245/4/4 242/4/4 246/4/4
f 243/1/4 244/1/4 247/1/4
f 229/2/4 243/2/4 247/2/4
f 244/2/4 245/2/4 248/2/4
f 247/1/4 244/1/4 248/1/4
f 245/1/4 246/1/4 249/1/4
f 248/2/4 245/2/4 249/2/4
f 249/1/4 246/1/4 250/1/4
f 247/4/4 248/4/4 251/4/4
f 229/2/4 247/2/4 251/2/4
f 248/2/4 249/2/4 252/2/4
f 251/4/4 248/4/4 252/4/4
f 249/4/4 250/4/4 253/4/4
f 252/2/4 249/2/4 253/2/4
f 253/4/4 250/4/4 254/4/4
f 251/2/4 252/2/4 255/2/4
f 229/2/4 251/2/4 255/2/4
f 253/2/4 254/2/4 255/2/4
f 252/2/4 253/2/4 255/2/4
f 255/2/4 254/2/4 256/2/4
f 259/2/5 258/2/5 257/2/5
f 260/2/5 258/2/5 259/2/5
f 263/3/5 262/3/5 261/3/5
f 264/3/5 262/3/5 263/3/5
f 273/2/5 266/2/5 265/2/5
f 274/2/5 266/2/5 273/2/5
f 275/1/5 268/1/5 267/1/5
f 276/1/5 268/1/5 275/1/5
f 277/1/5 270/1/5 269/1/5
f 278/1/5 270/1/5 277/1/5
f 279/2/5 272/2/5 271/2/5
f 280/2/5 272/2/5 279/2/5
f 285/1/5 282/1/5 281/1/5
f 286/1/5 282/1/5 285/1/5
f 287/1/5 284/1/5 283/1/5
f 288/1/5 284/1/5 287/1/5
f 289/2/6 290/2/6 297/2/6
f 297/2/6 290/2/6 298/2/6
f 291/1/6 292/1/6 299/1/6
f 299/1/6 292/1/6 300/1/6
f 293/1/6 294/1/6 301/1/6
f 301/1/6 294/1/6 302/1/6
f 295/2/6 296/2/6 303/2/6
f 303/2/6 296/2/6 304/2/6
f 305/1/6 306/1/6 309/1/6
f 309/1/6 306/1/6 310/1/6
f 307/1/6 308/1/6 311/1/6
f 311/1/6 308/1/6 312/1/6
f 313/3/6 314/3/6 315/3/6
f 315/3/6 314/3/6 316/3/6
f 317/2/6 318/2/6 325/2/6
f 318/4/6 319/4/6 326/4/6
f 325/2/6 318/2/6 326/2/6
f 319/1/6 320/1/6 327/1/6
f 326/4/6 319/4/6 327/4/6
f 320/4/6 321/4/6 328/4/6
f 327/1/6 320/1/6 328/1/6
f 321/1/6 322/1/6 329/1/6
f 328/4/6 321/4/6 329/4/6
f 322/4/6 323/4/6 330/4/6
f 329/1/6 322/1/6 330/1/6
f 323/2/6 324/2/6 331/2/6
f 330/4/6 323/4/6 331/4/6
f 331/2/6 324/2/6 332/2/6
f 333/2/6 334/2/6 341/2/6
f 334/4/6 335/4/6 342/4/6
f 341/2/6 334/2/6 342/2/6
f 335/1/6 336/1/6 343/1/6
f 342/4/6 335/4/6 343/4/6
f 336/4/6 337/4/6 344/4/6
f 343/1/6 336/1/6 344/1/6
f 337/1/6 338/1/6 345/1/6
f 344/4/6 337/4/6 345/4/6
f 338/4/6 339/4/6 346/4/6
f 345/1/6 338/1/6 346/1/6
f 339/2/6 340/2/6 347/2/6
f 346/4/6 339/4/6 347/4/6
f 347/2/6 340/2/6 348/2/6
f 349/2/6 350/2/6 357/2/6
f 350/4/6 351/4/6 358/4/6
f 357/2/6 350/2/6 358/2/6
f 351/1/6 352/1/6 359/1/6
f 358/4/6 351/4/6 359/4/6
f 352/4/6 353/4/6 360/4/6
f 359/1/6 352/1/6 360/1/6
f 353/1/6 354/1/6 361/1/6
f 360/4/6 353/4/6 361/4/6
f 354/4/6 355/4/6 362/4/6
f 361/1/6 354/1/6 362/1/6
f 355/2/6 356/2/6 363/2/6
f 362/4/6 355/4/6 363/4/6
f 363/2/6 356/2/6 364/2/6
f 365/2/6 366/2/6 373/2/6
f 366/4/6 367/4/6 374/4/6
f 373/2/6 366/2/6 374/2/6
f 367/1/6 368/1/6 375/1/6
f 374/4/6 367/4/6 375/4/6
f 368/4/6 369/4/6 376/4/6
f 375/1/6 368/1/6 376/1/6
f 369/1/6 370/1/6 377/1/6
f 376/4/6 369/4/6 377/4/6
f 370/4/6 371/4/6 378/4/6
f 377/1/6 370/1/6 378/1/6
f 371/2/6 372/2/6 379/2/6
f 378/4/6 371/4/6 379/4/6
f 379/2/6 372/2/6 380/2/6
f 381/2/6 382/2/6 389/2/6
f 382/4/6 383/4/6 390/4/6
f 389/2/6 382/2/6 390/2/6
f 383/1/6 384/1/6 391/1/6
f 390/4/6 383/4/6 391/4/6
f 384/4/6 385/4/6 392/4/6
f 391/1/6 384/1/6 392/1/6
f 385/1/6 386/1/6 393/1/6
f 392/4/6 385/4/6 393/4/6
f 386/4/6 387/4/6 394/4/6
f 393/1/6 386/1/6 394/1/6
f 387/2/6 388/2/6 395/2/6
f 394/4/6 387/4/6 395/4/6
f 395/2/6 388/2/6 396/2/6
