# MagicaVoxel @ Ephtracy

# group
o 

# material
mtllib bard_action_0.mtl
usemtl palette

# normals
vn -1 0 0
vn 1 0 0
vn 0 0 1
vn 0 0 -1
vn 0 -1 0
vn 0 1 0

# texcoords
vt 0.732422 0.5
vt 0.783203 0.5
vt 0.814453 0.5
vt 0.826172 0.5
vt 0.912109 0.5
vt 0.939453 0.5
vt 0.947266 0.5

# verts
v -0.3 0.6 0.3
v -0.3 0.6 -2.98023e-08
v -0.3 0.7 0.3
v -0.3 0.7 0.1
v -0.3 0.7 -2.98023e-08
v -0.3 0.7 -0.1
v -0.3 0.9 0.1
v -0.3 0.9 -0.1
v -0.2 0.2 -2.98023e-08
v -0.2 0.2 -0.2
v -0.2 0.3 0.1
v -0.2 0.3 -2.98023e-08
v -0.2 0.4 0.2
v -0.2 0.4 0.1
v -0.2 0.4 -0.2
v -0.2 0.5 0.1
v -0.2 0.5 -0.2
v -0.2 0.6 0.2
v -0.2 0.6 0.1
v -0.2 0.6 -2.98023e-08
v -0.2 0.7 0.2
v -0.2 0.7 0.1
v -0.2 0.7 -2.98023e-08
v -0.2 0.7 -0.1
v -0.2 0.9 0.2
v -0.2 0.9 0.1
v -0.2 0.9 -2.98023e-08
v -0.2 0.9 -0.1
v -0.2 0.9 -0.2
v -0.2 1.1 -2.98023e-08
v -0.2 1.1 -0.1
v -0.2 1.1 -0.2
v -0.2 1.2 -0.1
v -0.2 1.2 -0.2
v -0.2 1.2 -0.3
v -0.2 1.3 -0.2
v -0.2 1.3 -0.3
v -0.2 1.3 -0.4
v -0.2 1.4 -0.3
v -0.2 1.4 -0.4
v -0.1 0 0.1
v -0.1 0 -0.1
v -0.1 0.1 0.1
v -0.1 0.1 -2.98023e-08
v -0.1 0.2 -2.98023e-08
v -0.1 0.2 -0.1
v -0.1 0.7 -0.2
v -0.1 0.7 -0.4
v -0.1 0.9 0.1
v -0.1 0.9 -2.98023e-08
v -0.1 0.9 -0.2
v -0.1 1.1 0.1
v -0.1 1.1 -2.98023e-08
v -0.1 1.1 -0.1
v -0.1 1.1 -0.2
v -0.1 1.1 -0.3
v -0.1 1.1 -0.4
v -0.1 1.2 0.1
v -0.1 1.2 -2.98023e-08
v -0.1 1.2 -0.1
v -0.1 1.2 -0.2
v -0.1 1.2 -0.3
v -0.1 1.3 -2.98023e-08
v -0.1 1.3 -0.2
v 2.98023e-08 0.5 -0.2
v 2.98023e-08 0.5 -0.3
v 2.98023e-08 0.6 -0.2
v 2.98023e-08 0.6 -0.3
v 2.98023e-08 0.7 -0.2
v 2.98023e-08 0.7 -0.3
v 0.1 0 0.1
v 0.1 0 -0.1
v 0.1 0.1 0.1
v 0.1 0.1 -2.98023e-08
v 0.1 0.2 -2.98023e-08
v 0.1 0.2 -0.1
v 0.1 0.2 -0.2
v 0.1 0.3 -2.98023e-08
v 0.1 0.3 -0.2
v -0.1 1.3 -0.3
v -0.1 1.3 -0.4
v -0.1 1.4 -0.3
v -0.1 1.4 -0.4
v 2.98023e-08 0 0.1
v 2.98023e-08 0 -0.1
v 2.98023e-08 0.1 0.1
v 2.98023e-08 0.1 -2.98023e-08
v 2.98023e-08 0.2 -2.98023e-08
v 2.98023e-08 0.2 -0.1
v 2.98023e-08 0.2 -0.2
v 2.98023e-08 0.3 -2.98023e-08
v 2.98023e-08 0.3 -0.2
v 2.98023e-08 0.6 0.3
v 2.98023e-08 0.6 0.2
v 2.98023e-08 0.7 0.3
v 2.98023e-08 0.7 0.2
v 0.1 0.5 -0.2
v 0.1 0.5 -0.3
v 0.1 0.6 -0.2
v 0.1 0.6 -0.3
v 0.1 0.7 -0.2
v 0.1 0.7 -0.3
v 0.1 1.2 -2.98023e-08
v 0.1 1.2 -0.3
v 0.1 1.3 -2.98023e-08
v 0.1 1.3 -0.3
v 0.2 0 0.1
v 0.2 0 -0.1
v 0.2 0.1 0.1
v 0.2 0.1 -2.98023e-08
v 0.2 0.2 -2.98023e-08
v 0.2 0.2 -0.1
v 0.2 0.4 0.2
v 0.2 0.4 0.1
v 0.2 0.5 0.2
v 0.2 0.5 0.1
v 0.2 0.6 0.2
v 0.2 0.6 0.1
v 0.2 0.7 0.2
v 0.2 0.7 0.1
v 0.2 0.7 -0.2
v 0.2 0.7 -0.4
v 0.2 0.9 0.1
v 0.2 0.9 -2.98023e-08
v 0.2 0.9 -0.2
v 0.2 1.1 0.1
v 0.2 1.1 -2.98023e-08
v 0.2 1.1 -0.2
v 0.2 1.1 -0.3
v 0.2 1.1 -0.4
v 0.2 1.2 0.1
v 0.2 1.2 -0.3
v 0.3 0.2 -2.98023e-08
v 0.3 0.2 -0.2
v 0.3 0.3 0.1
v 0.3 0.3 -2.98023e-08
v 0.3 0.4 0.1
v 0.3 0.4 -0.2
v 0.3 0.5 0.1
v 0.3 0.5 -0.1
v 0.3 0.5 -0.2
v 0.3 0.6 0.1
v 0.3 0.6 -2.98023e-08
v 0.3 0.7 0.2
v 0.3 0.7 0.1
v 0.3 0.7 -2.98023e-08
v 0.3 0.7 -0.1
v 0.3 0.7 -0.2
v 0.3 0.9 0.2
v 0.3 0.9 -2.98023e-08
v 0.3 0.9 -0.2
v 0.3 1.1 -2.98023e-08
v 0.3 1.1 -0.2
v 0.4 0.5 0.1
v 0.4 0.5 -0.1
v 0.4 0.6 0.1
v 0.4 0.6 -2.98023e-08
v 0.4 0.7 -2.98023e-08
v 0.4 0.7 -0.1
v 0.4 0.7 -0.2
v 0.4 0.9 -2.98023e-08
v 0.4 0.9 -0.2
v 0.5 0.5 0.2
v 0.5 0.5 0.1
v 0.5 0.6 0.2
v 0.5 0.6 0.1
v -0.3 0.6 0.3
v -0.3 0.7 0.3
v -0.1 0.6 0.3
v -0.1 0.7 0.3
v 2.98023e-08 0.6 0.3
v 2.98023e-08 0.7 0.3
v -0.2 0.4 0.2
v -0.2 0.6 0.2
v -0.2 0.7 0.2
v -0.2 0.9 0.2
v -0.1 0.6 0.2
v -0.1 0.7 0.2
v -0.1 0.8 0.2
v -0.1 0.9 0.2
v 2.98023e-08 0.6 0.2
v 2.98023e-08 0.7 0.2
v 2.98023e-08 0.8 0.2
v 2.98023e-08 0.9 0.2
v 0.1 0.7 0.2
v 0.1 0.8 0.2
v 0.1 0.9 0.2
v 0.2 0.4 0.2
v 0.2 0.5 0.2
v 0.2 0.6 0.2
v 0.2 0.7 0.2
v 0.2 0.8 0.2
v 0.2 0.9 0.2
v 0.3 0.5 0.2
v 0.3 0.6 0.2
v 0.3 0.7 0.2
v 0.3 0.9 0.2
v 0.4 0.5 0.2
v 0.4 0.6 0.2
v 0.5 0.5 0.2
v 0.5 0.6 0.2
v -0.3 0.7 0.1
v -0.3 0.9 0.1
v -0.2 0.3 0.1
v -0.2 0.4 0.1
v -0.2 0.7 0.1
v -0.2 0.9 0.1
v -0.1 0 0.1
v -0.1 0.1 0.1
v -0.1 0.9 0.1
v -0.1 1.1 0.1
v -0.1 1.2 0.1
v 2.98023e-08 0 0.1
v 2.98023e-08 0.1 0.1
v 2.98023e-08 0.9 0.1
v 0.1 0 0.1
v 0.1 0.1 0.1
v 0.1 0.9 0.1
v 0.2 0 0.1
v 0.2 0.1 0.1
v 0.2 0.4 0.1
v 0.2 0.5 0.1
v 0.2 0.6 0.1
v 0.2 0.7 0.1
v 0.2 0.9 0.1
v 0.2 1.1 0.1
v 0.2 1.2 0.1
v 0.3 0.3 0.1
v 0.3 0.4 0.1
v 0.3 0.5 0.1
v 0.3 0.6 0.1
v 0.3 0.7 0.1
v -0.2 0.2 -2.98023e-08
v -0.2 0.3 -2.98023e-08
v -0.2 0.9 -2.98023e-08
v -0.2 1.1 -2.98023e-08
v -0.1 0.1 -2.98023e-08
v -0.1 0.2 -2.98023e-08
v -0.1 0.9 -2.98023e-08
v -0.1 1.1 -2.98023e-08
v -0.1 1.2 -2.98023e-08
v -0.1 1.3 -2.98023e-08
v 2.98023e-08 0.1 -2.98023e-08
v 2.98023e-08 0.2 -2.98023e-08
v 2.98023e-08 0.3 -2.98023e-08
v 0.1 0.1 -2.98023e-08
v 0.1 0.2 -2.98023e-08
v 0.1 0.3 -2.98023e-08
v 0.1 1.2 -2.98023e-08
v 0.1 1.3 -2.98023e-08
v 0.2 0.1 -2.98023e-08
v 0.2 0.2 -2.98023e-08
v 0.2 0.9 -2.98023e-08
v 0.2 1.1 -2.98023e-08
v 0.3 0.2 -2.98023e-08
v 0.3 0.3 -2.98023e-08
v 0.3 0.6 -2.98023e-08
v 0.3 0.7 -2.98023e-08
v 0.3 0.9 -2.98023e-08
v 0.3 1.1 -2.98023e-08
v 0.4 0.6 -2.98023e-08
v 0.4 0.7 -2.98023e-08
v 0.4 0.9 -2.98023e-08
v -0.2 1.1 -0.1
v -0.2 1.2 -0.1
v -0.1 1.1 -0.1
v -0.1 1.2 -0.1
v -0.2 1.2 -0.2
v -0.2 1.3 -0.2
v -0.1 1.2 -0.2
v -0.1 1.3 -0.2
v -0.2 1.3 -0.3
v -0.2 1.4 -0.3
v -0.1 1.3 -0.3
v -0.1 1.4 -0.3
v 0.4 0.5 0.1
v 0.4 0.6 0.1
v 0.5 0.5 0.1
v 0.5 0.6 0.1
v -0.3 0.6 -2.98023e-08
v -0.3 0.7 -2.98023e-08
v -0.2 0.6 -2.98023e-08
v -0.2 0.7 -2.98023e-08
v -0.3 0.7 -0.1
v -0.3 0.9 -0.1
v -0.2 0.7 -0.1
v -0.2 0.9 -0.1
v -0.1 0 -0.1
v -0.1 0.2 -0.1
v 2.98023e-08 0 -0.1
v 2.98023e-08 0.2 -0.1
v 0.1 0 -0.1
v 0.1 0.2 -0.1
v 0.2 0 -0.1
v 0.2 0.2 -0.1
v 0.3 0.5 -0.1
v 0.3 0.7 -0.1
v 0.4 0.5 -0.1
v 0.4 0.7 -0.1
v -0.2 0.2 -0.2
v -0.2 0.4 -0.2
v -0.2 0.5 -0.2
v -0.2 0.9 -0.2
v -0.2 1.1 -0.2
v -0.2 1.2 -0.2
v -0.1 0.7 -0.2
v -0.1 0.9 -0.2
v -0.1 1.1 -0.2
v -0.1 1.2 -0.2
v 2.98023e-08 0.2 -0.2
v 2.98023e-08 0.3 -0.2
v 2.98023e-08 0.5 -0.2
v 2.98023e-08 0.6 -0.2
v 2.98023e-08 0.7 -0.2
v 0.1 0.2 -0.2
v 0.1 0.3 -0.2
v 0.1 0.5 -0.2
v 0.1 0.6 -0.2
v 0.1 0.7 -0.2
v 0.2 0.7 -0.2
v 0.2 0.9 -0.2
v 0.2 1.1 -0.2
v 0.3 0.2 -0.2
v 0.3 0.4 -0.2
v 0.3 0.5 -0.2
v 0.3 0.7 -0.2
v 0.3 0.9 -0.2
v 0.3 1.1 -0.2
v 0.4 0.7 -0.2
v 0.4 0.9 -0.2
v -0.2 1.2 -0.3
v -0.2 1.3 -0.3
v -0.1 1.1 -0.3
v -0.1 1.2 -0.3
v -0.1 1.3 -0.3
v 2.98023e-08 0.5 -0.3
v 2.98023e-08 0.6 -0.3
v 2.98023e-08 0.7 -0.3
v 0.1 0.5 -0.3
v 0.1 0.6 -0.3
v 0.1 0.7 -0.3
v 0.1 1.2 -0.3
v 0.1 1.3 -0.3
v 0.2 1.1 -0.3
v 0.2 1.2 -0.3
v -0.2 1.3 -0.4
v -0.2 1.4 -0.4
v -0.1 0.7 -0.4
v -0.1 1.1 -0.4
v -0.1 1.3 -0.4
v -0.1 1.4 -0.4
v 0.2 0.7 -0.4
v 0.2 1.1 -0.4
v -0.1 0 0.1
v 2.98023e-08 0 0.1
v 0.1 0 0.1
v 0.2 0 0.1
v -0.1 0 -0.1
v 2.98023e-08 0 -0.1
v 0.1 0 -0.1
v 0.2 0 -0.1
v -0.2 0.2 -2.98023e-08
v -0.1 0.2 -2.98023e-08
v 0.2 0.2 -2.98023e-08
v 0.3 0.2 -2.98023e-08
v -0.1 0.2 -0.1
v 2.98023e-08 0.2 -0.1
v 0.1 0.2 -0.1
v 0.2 0.2 -0.1
v -0.2 0.2 -0.2
v 2.98023e-08 0.2 -0.2
v 0.1 0.2 -0.2
v 0.3 0.2 -0.2
v -0.2 0.3 0.1
v 0.3 0.3 0.1
v -0.2 0.3 -2.98023e-08
v 2.98023e-08 0.3 -2.98023e-08
v 0.1 0.3 -2.98023e-08
v 0.3 0.3 -2.98023e-08
v 2.98023e-08 0.3 -0.2
v 0.1 0.3 -0.2
v -0.2 0.4 0.2
v 0.2 0.4 0.2
v -0.2 0.4 0.1
v 0.2 0.4 0.1
v 0.2 0.5 0.2
v 0.3 0.5 0.2
v 0.4 0.5 0.2
v 0.5 0.5 0.2
v 0.2 0.5 0.1
v 0.3 0.5 0.1
v 0.4 0.5 0.1
v 0.5 0.5 0.1
v 0.3 0.5 -0.1
v 0.4 0.5 -0.1
v 2.98023e-08 0.5 -0.2
v 0.1 0.5 -0.2
v 2.98023e-08 0.5 -0.3
v 0.1 0.5 -0.3
v -0.3 0.6 0.3
v -0.1 0.6 0.3
v 2.98023e-08 0.6 0.3
v -0.2 0.6 0.2
v -0.1 0.6 0.2
v 2.98023e-08 0.6 0.2
v -0.2 0.6 0.1
v -0.3 0.6 -2.98023e-08
v -0.2 0.6 -2.98023e-08
v 0.2 0.7 0.2
v 0.3 0.7 0.2
v 0.2 0.7 0.1
v 0.3 0.7 0.1
v -0.3 0.7 -2.98023e-08
v -0.2 0.7 -2.98023e-08
v -0.3 0.7 -0.1
v -0.2 0.7 -0.1
v 0.3 0.7 -0.1
v 0.4 0.7 -0.1
v -0.1 0.7 -0.2
v 2.98023e-08 0.7 -0.2
v 0.1 0.7 -0.2
v 0.2 0.7 -0.2
v 0.3 0.7 -0.2
v 0.4 0.7 -0.2
v 2.98023e-08 0.7 -0.3
v 0.1 0.7 -0.3
v -0.1 0.7 -0.4
v 0.2 0.7 -0.4
v -0.2 1.2 -0.2
v -0.1 1.2 -0.2
v -0.2 1.2 -0.3
v -0.1 1.2 -0.3
v -0.2 1.3 -0.3
v -0.1 1.3 -0.3
v -0.2 1.3 -0.4
v -0.1 1.3 -0.4
v -0.1 0.1 0.1
v 2.98023e-08 0.1 0.1
v 0.1 0.1 0.1
v 0.2 0.1 0.1
v -0.1 0.1 -2.98023e-08
v 2.98023e-08 0.1 -2.98023e-08
v 0.1 0.1 -2.98023e-08
v 0.2 0.1 -2.98023e-08
v 0.2 0.6 0.2
v 0.3 0.6 0.2
v 0.4 0.6 0.2
v 0.5 0.6 0.2
v 0.2 0.6 0.1
v 0.3 0.6 0.1
v 0.4 0.6 0.1
v 0.5 0.6 0.1
v 0.3 0.6 -2.98023e-08
v 0.4 0.6 -2.98023e-08
v -0.3 0.7 0.3
v -0.1 0.7 0.3
v 2.98023e-08 0.7 0.3
v -0.2 0.7 0.2
v -0.1 0.7 0.2
v 2.98023e-08 0.7 0.2
v -0.3 0.7 0.1
v -0.2 0.7 0.1
v -0.2 0.9 0.2
v -0.1 0.9 0.2
v 2.98023e-08 0.9 0.2
v 0.1 0.9 0.2
v 0.2 0.9 0.2
v 0.3 0.9 0.2
v -0.3 0.9 0.1
v -0.2 0.9 0.1
v -0.1 0.9 0.1
v 2.98023e-08 0.9 0.1
v 0.1 0.9 0.1
v 0.2 0.9 0.1
v -0.2 0.9 -2.98023e-08
v -0.1 0.9 -2.98023e-08
v 0.2 0.9 -2.98023e-08
v 0.3 0.9 -2.98023e-08
v 0.4 0.9 -2.98023e-08
v -0.3 0.9 -0.1
v -0.2 0.9 -0.1
v 0.3 0.9 -0.2
v 0.4 0.9 -0.2
v -0.2 1.1 -2.98023e-08
v -0.1 1.1 -2.98023e-08
v 0.2 1.1 -2.98023e-08
v 0.3 1.1 -2.98023e-08
v -0.2 1.1 -0.1
v -0.1 1.1 -0.1
v 0.2 1.1 -0.2
v 0.3 1.1 -0.2
v -0.1 1.1 -0.3
v 0.2 1.1 -0.3
v -0.1 1.1 -0.4
v 0.2 1.1 -0.4
v -0.1 1.2 0.1
v 0.2 1.2 0.1
v -0.1 1.2 -2.98023e-08
v 0.1 1.2 -2.98023e-08
v -0.2 1.2 -0.1
v -0.1 1.2 -0.1
v -0.2 1.2 -0.2
v -0.1 1.2 -0.2
v 0.1 1.2 -0.3
v 0.2 1.2 -0.3
v -0.1 1.3 -2.98023e-08
v 0.1 1.3 -2.98023e-08
v -0.2 1.3 -0.2
v -0.1 1.3 -0.2
v -0.2 1.3 -0.3
v -0.1 1.3 -0.3
v 0.1 1.3 -0.3
v -0.2 1.4 -0.3
v -0.1 1.4 -0.3
v -0.2 1.4 -0.4
v -0.1 1.4 -0.4

# faces
f 3/7/1 2/7/1 1/7/1
f 4/7/1 2/7/1 3/7/1
f 5/7/1 2/7/1 4/7/1
f 7/4/1 6/4/1 5/4/1
f 7/4/1 5/4/1 4/4/1
f 8/4/1 6/4/1 7/4/1
f 12/2/1 10/2/1 9/2/1
f 14/2/1 12/2/1 11/2/1
f 15/2/1 10/2/1 12/2/1
f 15/2/1 12/2/1 14/2/1
f 16/6/1 14/6/1 13/6/1
f 16/3/1 15/3/1 14/3/1
f 17/3/1 15/3/1 16/3/1
f 18/6/1 16/6/1 13/6/1
f 19/4/1 17/4/1 16/4/1
f 19/6/1 16/6/1 18/6/1
f 20/4/1 17/4/1 19/4/1
f 23/4/1 17/4/1 20/4/1
f 24/4/1 17/4/1 23/4/1
f 25/4/1 22/4/1 21/4/1
f 26/4/1 22/4/1 25/4/1
f 28/4/1 17/4/1 24/4/1
f 29/4/1 17/4/1 28/4/1
f 30/5/1 28/5/1 27/5/1
f 30/5/1 29/5/1 28/5/1
f 31/5/1 29/5/1 30/5/1
f 32/5/1 29/5/1 31/5/1
f 33/7/1 32/7/1 31/7/1
f 34/7/1 32/7/1 33/7/1
f 36/7/1 35/7/1 34/7/1
f 37/7/1 35/7/1 36/7/1
f 39/7/1 38/7/1 37/7/1
f 40/7/1 38/7/1 39/7/1
f 43/3/1 42/3/1 41/3/1
f 44/3/1 42/3/1 43/3/1
f 45/3/1 42/3/1 44/3/1
f 46/3/1 42/3/1 45/3/1
f 51/5/1 48/5/1 47/5/1
f 52/1/1 50/1/1 49/1/1
f 53/1/1 50/1/1 52/1/1
f 55/5/1 48/5/1 51/5/1
f 56/5/1 48/5/1 55/5/1
f 57/5/1 48/5/1 56/5/1
f 58/4/1 54/4/1 53/4/1
f 58/4/1 53/4/1 52/4/1
f 59/4/1 54/4/1 58/4/1
f 60/4/1 54/4/1 59/4/1
f 61/4/1 56/4/1 55/4/1
f 62/4/1 56/4/1 61/4/1
f 63/4/1 60/4/1 59/4/1
f 63/4/1 61/4/1 60/4/1
f 64/4/1 61/4/1 63/4/1
f 67/5/1 66/5/1 65/5/1
f 68/5/1 66/5/1 67/5/1
f 69/3/1 68/3/1 67/3/1
f 70/3/1 68/3/1 69/3/1
f 73/3/1 72/3/1 71/3/1
f 74/3/1 72/3/1 73/3/1
f 75/3/1 72/3/1 74/3/1
f 76/3/1 72/3/1 75/3/1
f 78/2/1 76/2/1 75/2/1
f 78/2/1 77/2/1 76/2/1
f 79/2/1 77/2/1 78/2/1
f 80/7/2 81/7/2 82/7/2
f 82/7/2 81/7/2 83/7/2
f 84/3/2 85/3/2 86/3/2
f 86/3/2 85/3/2 87/3/2
f 87/3/2 85/3/2 88/3/2
f 88/3/2 85/3/2 89/3/2
f 88/2/2 89/2/2 91/2/2
f 89/2/2 90/2/2 91/2/2
f 91/2/2 90/2/2 92/2/2
f 93/1/2 94/1/2 95/1/2
f 95/1/2 94/1/2 96/1/2
f 97/5/2 98/5/2 99/5/2
f 99/5/2 98/5/2 100/5/2
f 99/3/2 100/3/2 101/3/2
f 101/3/2 100/3/2 102/3/2
f 103/4/2 104/4/2 105/4/2
f 105/4/2 104/4/2 106/4/2
f 107/3/2 108/3/2 109/3/2
f 109/3/2 108/3/2 110/3/2
f 110/3/2 108/3/2 111/3/2
f 111/3/2 108/3/2 112/3/2
f 113/6/2 114/6/2 115/6/2
f 115/6/2 114/6/2 116/6/2
f 117/6/2 118/6/2 119/6/2
f 119/6/2 118/6/2 120/6/2
f 121/5/2 122/5/2 125/5/2
f 123/1/2 124/1/2 126/1/2
f 126/1/2 124/1/2 127/1/2
f 125/5/2 122/5/2 128/5/2
f 128/5/2 122/5/2 129/5/2
f 129/5/2 122/5/2 130/5/2
f 126/4/2 127/4/2 131/4/2
f 127/4/2 128/4/2 131/4/2
f 128/4/2 129/4/2 131/4/2
f 131/4/2 129/4/2 132/4/2
f 133/2/2 134/2/2 136/2/2
f 135/2/2 136/2/2 137/2/2
f 136/2/2 134/2/2 138/2/2
f 137/2/2 136/2/2 138/2/2
f 137/3/2 138/3/2 139/3/2
f 139/3/2 138/3/2 140/3/2
f 140/3/2 138/3/2 141/3/2
f 142/4/2 143/4/2 145/4/2
f 145/4/2 143/4/2 146/4/2
f 140/4/2 141/4/2 147/4/2
f 147/4/2 141/4/2 148/4/2
f 145/4/2 146/4/2 149/4/2
f 144/4/2 145/4/2 149/4/2
f 149/4/2 146/4/2 150/4/2
f 150/5/2 151/5/2 152/5/2
f 152/5/2 151/5/2 153/5/2
f 154/7/2 155/7/2 156/7/2
f 156/7/2 155/7/2 157/7/2
f 157/7/2 155/7/2 158/7/2
f 158/7/2 155/7/2 159/7/2
f 158/4/2 159/4/2 161/4/2
f 159/4/2 160/4/2 161/4/2
f 161/4/2 160/4/2 162/4/2
f 163/6/2 164/6/2 165/6/2
f 165/6/2 164/6/2 166/6/2
f 169/7/3 168/7/3 167/7/3
f 170/7/3 168/7/3 169/7/3
f 171/1/3 170/1/3 169/1/3
f 172/1/3 170/1/3 171/1/3
f 177/6/3 174/6/3 173/6/3
f 178/4/3 176/4/3 175/4/3
f 179/4/3 176/4/3 178/4/3
f 180/4/3 176/4/3 179/4/3
f 181/6/3 177/6/3 173/6/3
f 182/4/3 179/4/3 178/4/3
f 183/7/3 180/7/3 179/7/3
f 183/4/3 179/4/3 182/4/3
f 184/7/3 180/7/3 183/7/3
f 185/6/3 182/6/3 181/6/3
f 185/7/3 183/7/3 182/7/3
f 186/1/3 184/1/3 183/1/3
f 186/7/3 183/7/3 185/7/3
f 187/1/3 184/1/3 186/1/3
f 188/6/3 181/6/3 173/6/3
f 188/6/3 185/6/3 181/6/3
f 189/6/3 185/6/3 188/6/3
f 190/6/3 185/6/3 189/6/3
f 191/4/3 186/4/3 185/4/3
f 191/6/3 185/6/3 190/6/3
f 192/7/3 187/7/3 186/7/3
f 192/4/3 186/4/3 191/4/3
f 193/7/3 187/7/3 192/7/3
f 194/6/3 190/6/3 189/6/3
f 195/6/3 190/6/3 194/6/3
f 196/4/3 193/4/3 192/4/3
f 196/4/3 192/4/3 191/4/3
f 197/4/3 193/4/3 196/4/3
f 198/1/3 195/1/3 194/1/3
f 199/1/3 195/1/3 198/1/3
f 200/6/3 199/6/3 198/6/3
f 201/6/3 199/6/3 200/6/3
f 206/4/3 203/4/3 202/4/3
f 207/4/3 203/4/3 206/4/3
f 213/3/3 209/3/3 208/3/3
f 214/3/3 209/3/3 213/3/3
f 215/1/3 211/1/3 210/1/3
f 218/1/3 211/1/3 215/1/3
f 219/3/3 217/3/3 216/3/3
f 220/3/3 217/3/3 219/3/3
f 221/2/3 205/2/3 204/2/3
f 225/1/3 211/1/3 218/1/3
f 226/4/3 212/4/3 211/4/3
f 226/1/3 211/1/3 225/1/3
f 227/4/3 212/4/3 226/4/3
f 228/2/3 221/2/3 204/2/3
f 229/3/3 222/3/3 221/3/3
f 229/2/3 221/2/3 228/2/3
f 230/3/3 222/3/3 229/3/3
f 231/4/3 224/4/3 223/4/3
f 232/4/3 224/4/3 231/4/3
f 238/2/3 234/2/3 233/2/3
f 239/5/3 236/5/3 235/5/3
f 240/5/3 236/5/3 239/5/3
f 243/3/3 238/3/3 237/3/3
f 244/2/3 234/2/3 238/2/3
f 244/3/3 238/3/3 243/3/3
f 245/2/3 234/2/3 244/2/3
f 249/4/3 242/4/3 241/4/3
f 250/4/3 242/4/3 249/4/3
f 251/3/3 247/3/3 246/3/3
f 252/2/3 248/2/3 247/2/3
f 252/3/3 247/3/3 251/3/3
f 255/2/3 248/2/3 252/2/3
f 256/2/3 248/2/3 255/2/3
f 259/5/3 254/5/3 253/5/3
f 260/5/3 254/5/3 259/5/3
f 261/7/3 258/7/3 257/7/3
f 262/4/3 259/4/3 258/4/3
f 262/7/3 258/7/3 261/7/3
f 263/4/3 259/4/3 262/4/3
f 266/7/3 265/7/3 264/7/3
f 267/7/3 265/7/3 266/7/3
f 270/7/3 269/7/3 268/7/3
f 271/7/3 269/7/3 270/7/3
f 274/7/3 273/7/3 272/7/3
f 275/7/3 273/7/3 274/7/3
f 276/6/4 277/6/4 278/6/4
f 278/6/4 277/6/4 279/6/4
f 280/7/4 281/7/4 282/7/4
f 282/7/4 281/7/4 283/7/4
f 284/4/4 285/4/4 286/4/4
f 286/4/4 285/4/4 287/4/4
f 288/3/4 289/3/4 290/3/4
f 290/3/4 289/3/4 291/3/4
f 292/3/4 293/3/4 294/3/4
f 294/3/4 293/3/4 295/3/4
f 296/7/4 297/7/4 298/7/4
f 298/7/4 297/7/4 299/7/4
f 302/4/4 303/4/4 306/4/4
f 303/5/4 304/5/4 307/5/4
f 306/4/4 303/4/4 307/4/4
f 304/7/4 305/7/4 308/7/4
f 307/5/4 304/5/4 308/5/4
f 308/7/4 305/7/4 309/7/4
f 300/2/4 301/2/4 310/2/4
f 310/2/4 301/2/4 311/2/4
f 301/3/4 302/3/4 312/3/4
f 302/4/4 306/4/4 312/4/4
f 312/4/4 306/4/4 313/4/4
f 313/4/4 306/4/4 314/4/4
f 311/2/4 301/2/4 316/2/4
f 301/3/4 312/3/4 317/3/4
f 317/4/4 318/4/4 320/4/4
f 318/4/4 319/4/4 320/4/4
f 315/2/4 316/2/4 323/2/4
f 316/2/4 301/2/4 324/2/4
f 323/2/4 316/2/4 324/2/4
f 301/3/4 317/3/4 324/3/4
f 317/4/4 320/4/4 325/4/4
f 324/3/4 317/3/4 325/3/4
f 320/4/4 321/4/4 325/4/4
f 325/4/4 321/4/4 326/4/4
f 321/5/4 322/5/4 327/5/4
f 326/4/4 321/4/4 327/4/4
f 327/5/4 322/5/4 328/5/4
f 326/4/4 327/4/4 329/4/4
f 329/4/4 327/4/4 330/4/4
f 331/7/4 332/7/4 334/7/4
f 334/7/4 332/7/4 335/7/4
f 336/5/4 337/5/4 339/5/4
f 337/3/4 338/3/4 340/3/4
f 339/5/4 337/5/4 340/5/4
f 340/3/4 338/3/4 341/3/4
f 333/4/4 334/4/4 342/4/4
f 334/4/4 335/4/4 342/4/4
f 342/4/4 335/4/4 343/4/4
f 333/4/4 342/4/4 344/4/4
f 344/4/4 342/4/4 345/4/4
f 346/7/4 347/7/4 350/7/4
f 350/7/4 347/7/4 351/7/4
f 348/5/4 349/5/4 352/5/4
f 352/5/4 349/5/4 353/5/4
f 358/3/5 355/3/5 354/3/5
f 359/3/5 355/3/5 358/3/5
f 360/3/5 357/3/5 356/3/5
f 361/3/5 357/3/5 360/3/5
f 366/2/5 363/2/5 362/2/5
f 369/2/5 365/2/5 364/2/5
f 370/2/5 367/2/5 366/2/5
f 370/2/5 366/2/5 362/2/5
f 371/2/5 367/2/5 370/2/5
f 372/2/5 369/2/5 368/2/5
f 373/2/5 365/2/5 369/2/5
f 373/2/5 369/2/5 372/2/5
f 376/2/5 375/2/5 374/2/5
f 377/2/5 375/2/5 376/2/5
f 378/2/5 375/2/5 377/2/5
f 379/2/5 375/2/5 378/2/5
f 380/2/5 378/2/5 377/2/5
f 381/2/5 378/2/5 380/2/5
f 384/6/5 383/6/5 382/6/5
f 385/6/5 383/6/5 384/6/5
f 390/6/5 387/6/5 386/6/5
f 391/1/5 388/1/5 387/1/5
f 391/6/5 387/6/5 390/6/5
f 392/6/5 389/6/5 388/6/5
f 392/1/5 388/1/5 391/1/5
f 393/6/5 389/6/5 392/6/5
f 394/7/5 392/7/5 391/7/5
f 395/7/5 392/7/5 394/7/5
f 398/5/5 397/5/5 396/5/5
f 399/5/5 397/5/5 398/5/5
f 403/7/5 401/7/5 400/7/5
f 404/1/5 402/1/5 401/1/5
f 404/7/5 401/7/5 403/7/5
f 405/1/5 402/1/5 404/1/5
f 406/7/5 403/7/5 400/7/5
f 407/7/5 406/7/5 400/7/5
f 408/7/5 406/7/5 407/7/5
f 411/4/5 410/4/5 409/4/5
f 412/4/5 410/4/5 411/4/5
f 415/4/5 414/4/5 413/4/5
f 416/4/5 414/4/5 415/4/5
f 423/4/5 418/4/5 417/4/5
f 424/4/5 418/4/5 423/4/5
f 425/5/5 420/5/5 419/5/5
f 426/5/5 422/5/5 421/5/5
f 427/5/5 425/5/5 419/5/5
f 427/5/5 426/5/5 425/5/5
f 428/5/5 422/5/5 426/5/5
f 428/5/5 426/5/5 427/5/5
f 431/7/5 430/7/5 429/7/5
f 432/7/5 430/7/5 431/7/5
f 435/7/5 434/7/5 433/7/5
f 436/7/5 434/7/5 435/7/5
f 437/3/6 438/3/6 441/3/6
f 441/3/6 438/3/6 442/3/6
f 439/3/6 440/3/6 443/3/6
f 443/3/6 440/3/6 444/3/6
f 445/6/6 446/6/6 449/6/6
f 446/1/6 447/1/6 450/1/6
f 449/6/6 446/6/6 450/6/6
f 447/6/6 448/6/6 451/6/6
f 450/1/6 447/1/6 451/1/6
f 451/6/6 448/6/6 452/6/6
f 450/7/6 451/7/6 453/7/6
f 453/7/6 451/7/6 454/7/6
f 455/7/6 456/7/6 458/7/6
f 456/1/6 457/1/6 459/1/6
f 458/7/6 456/7/6 459/7/6
f 459/1/6 457/1/6 460/1/6
f 455/7/6 458/7/6 461/7/6
f 461/7/6 458/7/6 462/7/6
f 463/4/6 464/4/6 470/4/6
f 464/7/6 465/7/6 471/7/6
f 470/4/6 464/4/6 471/4/6
f 465/1/6 466/1/6 472/1/6
f 471/7/6 465/7/6 472/7/6
f 466/7/6 467/7/6 473/7/6
f 472/1/6 466/1/6 473/1/6
f 467/4/6 468/4/6 474/4/6
f 473/7/6 467/7/6 474/7/6
f 469/4/6 470/4/6 475/4/6
f 470/4/6 471/4/6 475/4/6
f 475/4/6 471/4/6 476/4/6
f 474/4/6 468/4/6 477/4/6
f 477/4/6 468/4/6 478/4/6
f 469/4/6 475/4/6 480/4/6
f 480/4/6 475/4/6 481/4/6
f 478/4/6 479/4/6 482/4/6
f 482/4/6 479/4/6 483/4/6
f 484/5/6 485/5/6 488/5/6
f 488/5/6 485/5/6 489/5/6
f 486/5/6 487/5/6 490/5/6
f 490/5/6 487/5/6 491/5/6
f 492/5/6 493/5/6 494/5/6
f 494/5/6 493/5/6 495/5/6
f 496/4/6 497/4/6 498/4/6
f 498/4/6 497/4/6 499/4/6
f 500/7/6 501/7/6 502/7/6
f 502/7/6 501/7/6 503/7/6
f 499/4/6 497/4/6 504/4/6
f 504/4/6 497/4/6 505/4/6
f 506/4/6 507/4/6 509/4/6
f 508/7/6 509/7/6 510/7/6
f 509/4/6 507/4/6 511/4/6
f 510/7/6 509/7/6 511/7/6
f 511/4/6 507/4/6 512/4/6
f 513/7/6 514/7/6 515/7/6
f 515/7/6 514/7/6 516/7/6
