# MagicaVoxel @ Ephtracy

# group
o 

# material
mtllib bard_idle_1.mtl
usemtl palette

# normals
vn -1 0 0
vn 1 0 0
vn 0 0 1
vn 0 0 -1
vn 0 -1 0
vn 0 1 0

# texcoords
vt 0.732422 0.5
vt 0.783203 0.5
vt 0.814453 0.5
vt 0.826172 0.5
vt 0.912109 0.5
vt 0.939453 0.5
vt 0.947266 0.5

# verts
v -0.3 0.5 0.3
v -0.3 0.5 0.1
v -0.3 0.5 -0.1
v -0.3 0.6 0.3
v -0.3 0.6 0.1
v -0.3 0.7 0.1
v -0.3 0.7 -0.1
v -0.2 0.2 -2.98023e-08
v -0.2 0.2 -0.2
v -0.2 0.3 0.2
v -0.2 0.3 0.1
v -0.2 0.3 -2.98023e-08
v -0.2 0.4 0.1
v -0.2 0.4 -0.2
v -0.2 0.5 0.2
v -0.2 0.5 0.1
v -0.2 0.5 -0.1
v -0.2 0.5 -0.2
v -0.2 0.6 0.2
v -0.2 0.6 0.1
v -0.2 0.7 0.1
v -0.2 0.7 -0.1
v -0.2 0.8 0.2
v -0.2 0.8 -2.98023e-08
v -0.2 0.8 -0.2
v -0.2 1 -2.98023e-08
v -0.2 1 -0.1
v -0.2 1 -0.2
v -0.2 1.1 -0.1
v -0.2 1.1 -0.2
v -0.2 1.1 -0.3
v -0.2 1.2 -0.2
v -0.2 1.2 -0.3
v -0.2 1.2 -0.4
v -0.2 1.3 -0.3
v -0.2 1.3 -0.4
v -0.1 0 0.1
v -0.1 0 -0.1
v -0.1 0.1 0.1
v -0.1 0.1 -2.98023e-08
v -0.1 0.2 -2.98023e-08
v -0.1 0.2 -0.1
v -0.1 0.6 -0.2
v -0.1 0.6 -0.4
v -0.1 0.8 0.1
v -0.1 0.8 -2.98023e-08
v -0.1 0.8 -0.2
v -0.1 1 0.1
v -0.1 1 -2.98023e-08
v -0.1 1 -0.1
v -0.1 1 -0.2
v -0.1 1 -0.3
v -0.1 1 -0.4
v -0.1 1.1 0.1
v -0.1 1.1 -2.98023e-08
v -0.1 1.1 -0.1
v -0.1 1.1 -0.2
v -0.1 1.1 -0.3
v -0.1 1.2 -2.98023e-08
v -0.1 1.2 -0.2
v 2.98023e-08 0.5 -0.2
v 2.98023e-08 0.5 -0.3
v 2.98023e-08 0.6 -0.2
v 2.98023e-08 0.6 -0.3
v 0.1 0 0.1
v 0.1 0 -0.1
v 0.1 0.1 0.1
v 0.1 0.1 -2.98023e-08
v 0.1 0.2 -2.98023e-08
v 0.1 0.2 -0.1
v 0.1 0.2 -0.2
v 0.1 0.3 -2.98023e-08
v 0.1 0.3 -0.2
v -0.1 1.2 -0.3
v -0.1 1.2 -0.4
v -0.1 1.3 -0.3
v -0.1 1.3 -0.4
v 2.98023e-08 0 0.1
v 2.98023e-08 0 -0.1
v 2.98023e-08 0.1 0.1
v 2.98023e-08 0.1 -2.98023e-08
v 2.98023e-08 0.2 -2.98023e-08
v 2.98023e-08 0.2 -0.1
v 2.98023e-08 0.2 -0.2
v 2.98023e-08 0.3 -2.98023e-08
v 2.98023e-08 0.3 -0.2
v 2.98023e-08 0.5 0.3
v 2.98023e-08 0.5 0.2
v 2.98023e-08 0.6 0.3
v 2.98023e-08 0.6 0.2
v 0.1 0.5 -0.2
v 0.1 0.5 -0.3
v 0.1 0.6 -0.2
v 0.1 0.6 -0.3
v 0.1 1.1 -2.98023e-08
v 0.1 1.1 -0.3
v 0.1 1.2 -2.98023e-08
v 0.1 1.2 -0.3
v 0.2 0 0.1
v 0.2 0 -0.1
v 0.2 0.1 0.1
v 0.2 0.1 -2.98023e-08
v 0.2 0.2 -2.98023e-08
v 0.2 0.2 -0.1
v 0.2 0.3 0.2
v 0.2 0.3 0.1
v 0.2 0.4 0.2
v 0.2 0.4 0.1
v 0.2 0.5 0.2
v 0.2 0.5 0.1
v 0.2 0.6 0.2
v 0.2 0.6 0.1
v 0.2 0.6 -0.2
v 0.2 0.6 -0.4
v 0.2 0.8 0.1
v 0.2 0.8 -2.98023e-08
v 0.2 0.8 -0.2
v 0.2 1 0.1
v 0.2 1 -2.98023e-08
v 0.2 1 -0.2
v 0.2 1 -0.3
v 0.2 1 -0.4
v 0.2 1.1 0.1
v 0.2 1.1 -0.3
v 0.3 0.2 -2.98023e-08
v 0.3 0.2 -0.2
v 0.3 0.3 0.1
v 0.3 0.3 -2.98023e-08
v 0.3 0.4 0.1
v 0.3 0.4 -0.1
v 0.3 0.4 -0.2
v 0.3 0.5 0.1
v 0.3 0.5 -2.98023e-08
v 0.3 0.5 -0.1
v 0.3 0.5 -0.2
v 0.3 0.6 0.2
v 0.3 0.6 0.1
v 0.3 0.7 -2.98023e-08
v 0.3 0.7 -0.2
v 0.3 0.8 0.2
v 0.3 0.8 -2.98023e-08
v 0.3 0.8 -0.2
v 0.3 1 -2.98023e-08
v 0.3 1 -0.2
v 0.4 0.4 0.1
v 0.4 0.4 -0.1
v 0.4 0.5 0.1
v 0.4 0.5 -2.98023e-08
v 0.4 0.5 -0.1
v 0.4 0.5 -0.2
v 0.4 0.7 -2.98023e-08
v 0.4 0.7 -0.2
v 0.5 0.4 0.2
v 0.5 0.4 0.1
v 0.5 0.5 0.2
v 0.5 0.5 0.1
v -0.3 0.5 0.3
v -0.3 0.6 0.3
v -0.1 0.5 0.3
v -0.1 0.6 0.3
v 2.98023e-08 0.5 0.3
v 2.98023e-08 0.6 0.3
v -0.2 0.3 0.2
v -0.2 0.5 0.2
v -0.2 0.6 0.2
v -0.2 0.8 0.2
v -0.1 0.5 0.2
v -0.1 0.6 0.2
v -0.1 0.7 0.2
v -0.1 0.8 0.2
v 2.98023e-08 0.5 0.2
v 2.98023e-08 0.6 0.2
v 2.98023e-08 0.7 0.2
v 2.98023e-08 0.8 0.2
v 0.1 0.6 0.2
v 0.1 0.7 0.2
v 0.1 0.8 0.2
v 0.2 0.3 0.2
v 0.2 0.4 0.2
v 0.2 0.5 0.2
v 0.2 0.6 0.2
v 0.2 0.7 0.2
v 0.2 0.8 0.2
v 0.3 0.4 0.2
v 0.3 0.5 0.2
v 0.3 0.6 0.2
v 0.3 0.8 0.2
v 0.4 0.4 0.2
v 0.4 0.5 0.2
v 0.5 0.4 0.2
v 0.5 0.5 0.2
v -0.3 0.6 0.1
v -0.3 0.7 0.1
v -0.2 0.6 0.1
v -0.2 0.7 0.1
v -0.1 0 0.1
v -0.1 0.1 0.1
v -0.1 0.8 0.1
v -0.1 1 0.1
v -0.1 1.1 0.1
v 2.98023e-08 0 0.1
v 2.98023e-08 0.1 0.1
v 2.98023e-08 0.8 0.1
v 0.1 0 0.1
v 0.1 0.1 0.1
v 0.1 0.8 0.1
v 0.2 0 0.1
v 0.2 0.1 0.1
v 0.2 0.3 0.1
v 0.2 0.4 0.1
v 0.2 0.5 0.1
v 0.2 0.6 0.1
v 0.2 0.8 0.1
v 0.2 1 0.1
v 0.2 1.1 0.1
v 0.3 0.3 0.1
v 0.3 0.4 0.1
v 0.3 0.5 0.1
v 0.3 0.6 0.1
v -0.2 0.2 -2.98023e-08
v -0.2 0.3 -2.98023e-08
v -0.2 0.8 -2.98023e-08
v -0.2 1 -2.98023e-08
v -0.1 0.1 -2.98023e-08
v -0.1 0.2 -2.98023e-08
v -0.1 0.8 -2.98023e-08
v -0.1 1 -2.98023e-08
v -0.1 1.1 -2.98023e-08
v -0.1 1.2 -2.98023e-08
v 2.98023e-08 0.1 -2.98023e-08
v 2.98023e-08 0.2 -2.98023e-08
v 2.98023e-08 0.3 -2.98023e-08
v 0.1 0.1 -2.98023e-08
v 0.1 0.2 -2.98023e-08
v 0.1 0.3 -2.98023e-08
v 0.1 1.1 -2.98023e-08
v 0.1 1.2 -2.98023e-08
v 0.2 0.1 -2.98023e-08
v 0.2 0.2 -2.98023e-08
v 0.2 0.8 -2.98023e-08
v 0.2 1 -2.98023e-08
v 0.3 0.2 -2.98023e-08
v 0.3 0.3 -2.98023e-08
v 0.3 0.5 -2.98023e-08
v 0.3 0.7 -2.98023e-08
v 0.3 0.8 -2.98023e-08
v 0.3 1 -2.98023e-08
v 0.4 0.5 -2.98023e-08
v 0.4 0.7 -2.98023e-08
v -0.2 1 -0.1
v -0.2 1.1 -0.1
v -0.1 1 -0.1
v -0.1 1.1 -0.1
v -0.2 1.1 -0.2
v -0.2 1.2 -0.2
v -0.1 1.1 -0.2
v -0.1 1.2 -0.2
v -0.2 1.2 -0.3
v -0.2 1.3 -0.3
v -0.1 1.2 -0.3
v -0.1 1.3 -0.3
v 0.4 0.4 0.1
v 0.4 0.5 0.1
v 0.5 0.4 0.1
v 0.5 0.5 0.1
v -0.3 0.5 -0.1
v -0.3 0.7 -0.1
v -0.2 0.5 -0.1
v -0.2 0.7 -0.1
v -0.1 0 -0.1
v -0.1 0.2 -0.1
v 2.98023e-08 0 -0.1
v 2.98023e-08 0.2 -0.1
v 0.1 0 -0.1
v 0.1 0.2 -0.1
v 0.2 0 -0.1
v 0.2 0.2 -0.1
v 0.3 0.4 -0.1
v 0.3 0.5 -0.1
v 0.4 0.4 -0.1
v 0.4 0.5 -0.1
v -0.2 0.2 -0.2
v -0.2 0.4 -0.2
v -0.2 0.5 -0.2
v -0.2 0.8 -0.2
v -0.2 1 -0.2
v -0.2 1.1 -0.2
v -0.1 0.6 -0.2
v -0.1 0.8 -0.2
v -0.1 1 -0.2
v -0.1 1.1 -0.2
v 2.98023e-08 0.2 -0.2
v 2.98023e-08 0.3 -0.2
v 2.98023e-08 0.5 -0.2
v 2.98023e-08 0.6 -0.2
v 0.1 0.2 -0.2
v 0.1 0.3 -0.2
v 0.1 0.5 -0.2
v 0.1 0.6 -0.2
v 0.2 0.6 -0.2
v 0.2 0.8 -0.2
v 0.2 1 -0.2
v 0.3 0.2 -0.2
v 0.3 0.4 -0.2
v 0.3 0.5 -0.2
v 0.3 0.7 -0.2
v 0.3 0.8 -0.2
v 0.3 1 -0.2
v 0.4 0.5 -0.2
v 0.4 0.7 -0.2
v -0.2 1.1 -0.3
v -0.2 1.2 -0.3
v -0.1 1 -0.3
v -0.1 1.1 -0.3
v -0.1 1.2 -0.3
v 2.98023e-08 0.5 -0.3
v 2.98023e-08 0.6 -0.3
v 0.1 0.5 -0.3
v 0.1 0.6 -0.3
v 0.1 1.1 -0.3
v 0.1 1.2 -0.3
v 0.2 1 -0.3
v 0.2 1.1 -0.3
v -0.2 1.2 -0.4
v -0.2 1.3 -0.4
v -0.1 0.6 -0.4
v -0.1 1 -0.4
v -0.1 1.2 -0.4
v -0.1 1.3 -0.4
v 0.2 0.6 -0.4
v 0.2 1 -0.4
v -0.1 0 0.1
v 2.98023e-08 0 0.1
v 0.1 0 0.1
v 0.2 0 0.1
v -0.1 0 -0.1
v 2.98023e-08 0 -0.1
v 0.1 0 -0.1
v 0.2 0 -0.1
v -0.2 0.2 -2.98023e-08
v -0.1 0.2 -2.98023e-08
v 0.2 0.2 -2.98023e-08
v 0.3 0.2 -2.98023e-08
v -0.1 0.2 -0.1
v 2.98023e-08 0.2 -0.1
v 0.1 0.2 -0.1
v 0.2 0.2 -0.1
v -0.2 0.2 -0.2
v 2.98023e-08 0.2 -0.2
v 0.1 0.2 -0.2
v 0.3 0.2 -0.2
v -0.2 0.3 0.2
v 0.2 0.3 0.2
v -0.2 0.3 0.1
v 0.2 0.3 0.1
v 0.3 0.3 0.1
v -0.2 0.3 -2.98023e-08
v 2.98023e-08 0.3 -2.98023e-08
v 0.1 0.3 -2.98023e-08
v 0.3 0.3 -2.98023e-08
v 2.98023e-08 0.3 -0.2
v 0.1 0.3 -0.2
v 0.2 0.4 0.2
v 0.3 0.4 0.2
v 0.4 0.4 0.2
v 0.5 0.4 0.2
v 0.2 0.4 0.1
v 0.3 0.4 0.1
v 0.4 0.4 0.1
v 0.5 0.4 0.1
v 0.3 0.4 -0.1
v 0.4 0.4 -0.1
v -0.3 0.5 0.3
v -0.1 0.5 0.3
v 2.98023e-08 0.5 0.3
v -0.2 0.5 0.2
v -0.1 0.5 0.2
v 2.98023e-08 0.5 0.2
v -0.3 0.5 0.1
v -0.2 0.5 0.1
v -0.3 0.5 -0.1
v -0.2 0.5 -0.1
v 0.3 0.5 -0.1
v 0.4 0.5 -0.1
v 2.98023e-08 0.5 -0.2
v 0.1 0.5 -0.2
v 0.3 0.5 -0.2
v 0.4 0.5 -0.2
v 2.98023e-08 0.5 -0.3
v 0.1 0.5 -0.3
v 0.2 0.6 0.2
v 0.3 0.6 0.2
v 0.2 0.6 0.1
v 0.3 0.6 0.1
v -0.1 0.6 -0.2
v 2.98023e-08 0.6 -0.2
v 0.1 0.6 -0.2
v 0.2 0.6 -0.2
v 2.98023e-08 0.6 -0.3
v 0.1 0.6 -0.3
v -0.1 0.6 -0.4
v 0.2 0.6 -0.4
v -0.2 1.1 -0.2
v -0.1 1.1 -0.2
v -0.2 1.1 -0.3
v -0.1 1.1 -0.3
v -0.2 1.2 -0.3
v -0.1 1.2 -0.3
v -0.2 1.2 -0.4
v -0.1 1.2 -0.4
v -0.1 0.1 0.1
v 2.98023e-08 0.1 0.1
v 0.1 0.1 0.1
v 0.2 0.1 0.1
v -0.1 0.1 -2.98023e-08
v 2.98023e-08 0.1 -2.98023e-08
v 0.1 0.1 -2.98023e-08
v 0.2 0.1 -2.98023e-08
v 0.2 0.5 0.2
v 0.3 0.5 0.2
v 0.4 0.5 0.2
v 0.5 0.5 0.2
v 0.2 0.5 0.1
v 0.3 0.5 0.1
v 0.4 0.5 0.1
v 0.5 0.5 0.1
v 0.3 0.5 -2.98023e-08
v 0.4 0.5 -2.98023e-08
v -0.3 0.6 0.3
v -0.1 0.6 0.3
v 2.98023e-08 0.6 0.3
v -0.2 0.6 0.2
v -0.1 0.6 0.2
v 2.98023e-08 0.6 0.2
v -0.3 0.6 0.1
v -0.2 0.6 0.1
v -0.3 0.7 0.1
v -0.2 0.7 0.1
v 0.3 0.7 -2.98023e-08
v 0.4 0.7 -2.98023e-08
v -0.3 0.7 -0.1
v -0.2 0.7 -0.1
v 0.3 0.7 -0.2
v 0.4 0.7 -0.2
v -0.2 0.8 0.2
v -0.1 0.8 0.2
v 2.98023e-08 0.8 0.2
v 0.1 0.8 0.2
v 0.2 0.8 0.2
v 0.3 0.8 0.2
v -0.1 0.8 0.1
v 2.98023e-08 0.8 0.1
v 0.1 0.8 0.1
v 0.2 0.8 0.1
v -0.2 0.8 -2.98023e-08
v -0.1 0.8 -2.98023e-08
v 0.2 0.8 -2.98023e-08
v 0.3 0.8 -2.98023e-08
v -0.2 1 -2.98023e-08
v -0.1 1 -2.98023e-08
v 0.2 1 -2.98023e-08
v 0.3 1 -2.98023e-08
v -0.2 1 -0.1
v -0.1 1 -0.1
v 0.2 1 -0.2
v 0.3 1 -0.2
v -0.1 1 -0.3
v 0.2 1 -0.3
v -0.1 1 -0.4
v 0.2 1 -0.4
v -0.1 1.1 0.1
v 0.2 1.1 0.1
v -0.1 1.1 -2.98023e-08
v 0.1 1.1 -2.98023e-08
v -0.2 1.1 -0.1
v -0.1 1.1 -0.1
v -0.2 1.1 -0.2
v -0.1 1.1 -0.2
v 0.1 1.1 -0.3
v 0.2 1.1 -0.3
v -0.1 1.2 -2.98023e-08
v 0.1 1.2 -2.98023e-08
v -0.2 1.2 -0.2
v -0.1 1.2 -0.2
v -0.2 1.2 -0.3
v -0.1 1.2 -0.3
v 0.1 1.2 -0.3
v -0.2 1.3 -0.3
v -0.1 1.3 -0.3
v -0.2 1.3 -0.4
v -0.1 1.3 -0.4

# faces
f 4/7/1 2/7/1 1/7/1
f 5/4/1 3/4/1 2/4/1
f 5/7/1 2/7/1 4/7/1
f 6/4/1 3/4/1 5/4/1
f 7/4/1 3/4/1 6/4/1
f 12/2/1 9/2/1 8/2/1
f 13/6/1 11/6/1 10/6/1
f 13/2/1 12/2/1 11/2/1
f 14/2/1 9/2/1 12/2/1
f 14/2/1 12/2/1 13/2/1
f 15/6/1 13/6/1 10/6/1
f 16/3/1 14/3/1 13/3/1
f 16/6/1 13/6/1 15/6/1
f 17/3/1 14/3/1 16/3/1
f 18/3/1 14/3/1 17/3/1
f 21/4/1 20/4/1 19/4/1
f 22/4/1 18/4/1 17/4/1
f 23/4/1 21/4/1 19/4/1
f 23/4/1 22/4/1 21/4/1
f 24/4/1 22/4/1 23/4/1
f 25/4/1 18/4/1 22/4/1
f 25/4/1 22/4/1 24/4/1
f 26/5/1 25/5/1 24/5/1
f 27/5/1 25/5/1 26/5/1
f 28/5/1 25/5/1 27/5/1
f 29/7/1 28/7/1 27/7/1
f 30/7/1 28/7/1 29/7/1
f 32/7/1 31/7/1 30/7/1
f 33/7/1 31/7/1 32/7/1
f 35/7/1 34/7/1 33/7/1
f 36/7/1 34/7/1 35/7/1
f 39/3/1 38/3/1 37/3/1
f 40/3/1 38/3/1 39/3/1
f 41/3/1 38/3/1 40/3/1
f 42/3/1 38/3/1 41/3/1
f 47/5/1 44/5/1 43/5/1
f 48/1/1 46/1/1 45/1/1
f 49/1/1 46/1/1 48/1/1
f 51/5/1 44/5/1 47/5/1
f 52/5/1 44/5/1 51/5/1
f 53/5/1 44/5/1 52/5/1
f 54/4/1 50/4/1 49/4/1
f 54/4/1 49/4/1 48/4/1
f 55/4/1 50/4/1 54/4/1
f 56/4/1 50/4/1 55/4/1
f 57/4/1 52/4/1 51/4/1
f 58/4/1 52/4/1 57/4/1
f 59/4/1 56/4/1 55/4/1
f 59/4/1 57/4/1 56/4/1
f 60/4/1 57/4/1 59/4/1
f 63/3/1 62/3/1 61/3/1
f 64/3/1 62/3/1 63/3/1
f 67/3/1 66/3/1 65/3/1
f 68/3/1 66/3/1 67/3/1
f 69/3/1 66/3/1 68/3/1
f 70/3/1 66/3/1 69/3/1
f 72/2/1 70/2/1 69/2/1
f 72/2/1 71/2/1 70/2/1
f 73/2/1 71/2/1 72/2/1
f 74/7/2 75/7/2 76/7/2
f 76/7/2 75/7/2 77/7/2
f 78/3/2 79/3/2 80/3/2
f 80/3/2 79/3/2 81/3/2
f 81/3/2 79/3/2 82/3/2
f 82/3/2 79/3/2 83/3/2
f 82/2/2 83/2/2 85/2/2
f 83/2/2 84/2/2 85/2/2
f 85/2/2 84/2/2 86/2/2
f 87/1/2 88/1/2 89/1/2
f 89/1/2 88/1/2 90/1/2
f 91/3/2 92/3/2 93/3/2
f 93/3/2 92/3/2 94/3/2
f 95/4/2 96/4/2 97/4/2
f 97/4/2 96/4/2 98/4/2
f 99/3/2 100/3/2 101/3/2
f 101/3/2 100/3/2 102/3/2
f 102/3/2 100/3/2 103/3/2
f 103/3/2 100/3/2 104/3/2
f 105/6/2 106/6/2 107/6/2
f 107/6/2 106/6/2 108/6/2
f 109/6/2 110/6/2 111/6/2
f 111/6/2 110/6/2 112/6/2
f 113/5/2 114/5/2 117/5/2
f 115/1/2 116/1/2 118/1/2
f 118/1/2 116/1/2 119/1/2
f 117/5/2 114/5/2 120/5/2
f 120/5/2 114/5/2 121/5/2
f 121/5/2 114/5/2 122/5/2
f 118/4/2 119/4/2 123/4/2
f 119/4/2 120/4/2 123/4/2
f 120/4/2 121/4/2 123/4/2
f 123/4/2 121/4/2 124/4/2
f 125/2/2 126/2/2 128/2/2
f 127/2/2 128/2/2 129/2/2
f 128/2/2 126/2/2 130/2/2
f 129/2/2 128/2/2 130/2/2
f 130/2/2 126/2/2 131/2/2
f 130/3/2 131/3/2 134/3/2
f 134/3/2 131/3/2 135/3/2
f 132/4/2 133/4/2 137/4/2
f 137/4/2 133/4/2 138/4/2
f 136/4/2 137/4/2 138/4/2
f 136/4/2 138/4/2 140/4/2
f 138/4/2 139/4/2 140/4/2
f 140/4/2 139/4/2 141/4/2
f 141/4/2 139/4/2 142/4/2
f 141/5/2 142/5/2 143/5/2
f 143/5/2 142/5/2 144/5/2
f 145/7/2 146/7/2 147/7/2
f 147/7/2 146/7/2 148/7/2
f 148/7/2 146/7/2 149/7/2
f 149/4/2 150/4/2 151/4/2
f 148/4/2 149/4/2 151/4/2
f 151/4/2 150/4/2 152/4/2
f 153/6/2 154/6/2 155/6/2
f 155/6/2 154/6/2 156/6/2
f 159/7/3 158/7/3 157/7/3
f 160/7/3 158/7/3 159/7/3
f 161/1/3 160/1/3 159/1/3
f 162/1/3 160/1/3 161/1/3
f 167/6/3 164/6/3 163/6/3
f 168/4/3 166/4/3 165/4/3
f 169/4/3 166/4/3 168/4/3
f 170/4/3 166/4/3 169/4/3
f 171/6/3 167/6/3 163/6/3
f 172/4/3 169/4/3 168/4/3
f 173/7/3 170/7/3 169/7/3
f 173/4/3 169/4/3 172/4/3
f 174/7/3 170/7/3 173/7/3
f 175/6/3 172/6/3 171/6/3
f 175/7/3 173/7/3 172/7/3
f 176/1/3 174/1/3 173/1/3
f 176/7/3 173/7/3 175/7/3
f 177/1/3 174/1/3 176/1/3
f 178/6/3 171/6/3 163/6/3
f 178/6/3 175/6/3 171/6/3
f 179/6/3 175/6/3 178/6/3
f 180/6/3 175/6/3 179/6/3
f 181/4/3 176/4/3 175/4/3
f 181/6/3 175/6/3 180/6/3
f 182/7/3 177/7/3 176/7/3
f 182/4/3 176/4/3 181/4/3
f 183/7/3 177/7/3 182/7/3
f 184/6/3 180/6/3 179/6/3
f 185/6/3 180/6/3 184/6/3
f 186/4/3 183/4/3 182/4/3
f 186/4/3 182/4/3 181/4/3
f 187/4/3 183/4/3 186/4/3
f 188/1/3 185/1/3 184/1/3
f 189/1/3 185/1/3 188/1/3
f 190/6/3 189/6/3 188/6/3
f 191/6/3 189/6/3 190/6/3
f 194/4/3 193/4/3 192/4/3
f 195/4/3 193/4/3 194/4/3
f 201/3/3 197/3/3 196/3/3
f 202/3/3 197/3/3 201/3/3
f 203/1/3 199/1/3 198/1/3
f 206/1/3 199/1/3 203/1/3
f 207/3/3 205/3/3 204/3/3
f 208/3/3 205/3/3 207/3/3
f 213/1/3 199/1/3 206/1/3
f 214/4/3 200/4/3 199/4/3
f 214/1/3 199/1/3 213/1/3
f 215/4/3 200/4/3 214/4/3
f 216/2/3 210/2/3 209/2/3
f 217/2/3 210/2/3 216/2/3
f 218/4/3 212/4/3 211/4/3
f 219/4/3 212/4/3 218/4/3
f 225/2/3 221/2/3 220/2/3
f 226/5/3 223/5/3 222/5/3
f 227/5/3 223/5/3 226/5/3
f 230/3/3 225/3/3 224/3/3
f 231/2/3 221/2/3 225/2/3
f 231/3/3 225/3/3 230/3/3
f 232/2/3 221/2/3 231/2/3
f 236/4/3 229/4/3 228/4/3
f 237/4/3 229/4/3 236/4/3
f 238/3/3 234/3/3 233/3/3
f 239/2/3 235/2/3 234/2/3
f 239/3/3 234/3/3 238/3/3
f 242/2/3 235/2/3 239/2/3
f 243/2/3 235/2/3 242/2/3
f 246/5/3 241/5/3 240/5/3
f 247/5/3 241/5/3 246/5/3
f 248/4/3 245/4/3 244/4/3
f 249/4/3 245/4/3 248/4/3
f 252/7/3 251/7/3 250/7/3
f 253/7/3 251/7/3 252/7/3
f 256/7/3 255/7/3 254/7/3
f 257/7/3 255/7/3 256/7/3
f 260/7/3 259/7/3 258/7/3
f 261/7/3 259/7/3 260/7/3
f 262/6/4 263/6/4 264/6/4
f 264/6/4 263/6/4 265/6/4
f 266/4/4 267/4/4 268/4/4
f 268/4/4 267/4/4 269/4/4
f 270/3/4 271/3/4 272/3/4
f 272/3/4 271/3/4 273/3/4
f 274/3/4 275/3/4 276/3/4
f 276/3/4 275/3/4 277/3/4
f 278/7/4 279/7/4 280/7/4
f 280/7/4 279/7/4 281/7/4
f 284/4/4 285/4/4 288/4/4
f 285/5/4 286/5/4 289/5/4
f 288/4/4 285/4/4 289/4/4
f 286/7/4 287/7/4 290/7/4
f 289/5/4 286/5/4 290/5/4
f 290/7/4 287/7/4 291/7/4
f 282/2/4 283/2/4 292/2/4
f 292/2/4 283/2/4 293/2/4
f 283/3/4 284/3/4 294/3/4
f 284/4/4 288/4/4 294/4/4
f 294/4/4 288/4/4 295/4/4
f 293/2/4 283/2/4 297/2/4
f 283/3/4 294/3/4 298/3/4
f 298/4/4 299/4/4 300/4/4
f 296/2/4 297/2/4 303/2/4
f 297/2/4 283/2/4 304/2/4
f 303/2/4 297/2/4 304/2/4
f 283/3/4 298/3/4 304/3/4
f 298/4/4 300/4/4 305/4/4
f 304/3/4 298/3/4 305/3/4
f 300/4/4 301/4/4 305/4/4
f 305/4/4 301/4/4 306/4/4
f 301/5/4 302/5/4 307/5/4
f 306/4/4 301/4/4 307/4/4
f 307/5/4 302/5/4 308/5/4
f 305/4/4 306/4/4 309/4/4
f 309/4/4 306/4/4 310/4/4
f 311/7/4 312/7/4 314/7/4
f 314/7/4 312/7/4 315/7/4
f 316/3/4 317/3/4 318/3/4
f 318/3/4 317/3/4 319/3/4
f 313/4/4 314/4/4 320/4/4
f 314/4/4 315/4/4 320/4/4
f 320/4/4 315/4/4 321/4/4
f 313/4/4 320/4/4 322/4/4
f 322/4/4 320/4/4 323/4/4
f 324/7/4 325/7/4 328/7/4
f 328/7/4 325/7/4 329/7/4
f 326/5/4 327/5/4 330/5/4
f 330/5/4 327/5/4 331/5/4
f 336/3/5 333/3/5 332/3/5
f 337/3/5 333/3/5 336/3/5
f 338/3/5 335/3/5 334/3/5
f 339/3/5 335/3/5 338/3/5
f 344/2/5 341/2/5 340/2/5
f 347/2/5 343/2/5 342/2/5
f 348/2/5 345/2/5 344/2/5
f 348/2/5 344/2/5 340/2/5
f 349/2/5 345/2/5 348/2/5
f 350/2/5 347/2/5 346/2/5
f 351/2/5 343/2/5 347/2/5
f 351/2/5 347/2/5 350/2/5
f 354/6/5 353/6/5 352/6/5
f 355/6/5 353/6/5 354/6/5
f 357/2/5 355/2/5 354/2/5
f 357/2/5 356/2/5 355/2/5
f 358/2/5 356/2/5 357/2/5
f 359/2/5 356/2/5 358/2/5
f 360/2/5 356/2/5 359/2/5
f 361/2/5 359/2/5 358/2/5
f 362/2/5 359/2/5 361/2/5
f 367/6/5 364/6/5 363/6/5
f 368/1/5 365/1/5 364/1/5
f 368/6/5 364/6/5 367/6/5
f 369/6/5 366/6/5 365/6/5
f 369/1/5 365/1/5 368/1/5
f 370/6/5 366/6/5 369/6/5
f 371/7/5 369/7/5 368/7/5
f 372/7/5 369/7/5 371/7/5
f 376/7/5 374/7/5 373/7/5
f 377/1/5 375/1/5 374/1/5
f 377/7/5 374/7/5 376/7/5
f 378/1/5 375/1/5 377/1/5
f 379/7/5 376/7/5 373/7/5
f 380/7/5 376/7/5 379/7/5
f 381/4/5 380/4/5 379/4/5
f 382/4/5 380/4/5 381/4/5
f 387/4/5 384/4/5 383/4/5
f 388/4/5 384/4/5 387/4/5
f 389/3/5 386/3/5 385/3/5
f 390/3/5 386/3/5 389/3/5
f 393/4/5 392/4/5 391/4/5
f 394/4/5 392/4/5 393/4/5
f 399/5/5 396/5/5 395/5/5
f 400/5/5 398/5/5 397/5/5
f 401/5/5 399/5/5 395/5/5
f 401/5/5 400/5/5 399/5/5
f 402/5/5 398/5/5 400/5/5
f 402/5/5 400/5/5 401/5/5
f 405/7/5 404/7/5 403/7/5
f 406/7/5 404/7/5 405/7/5
f 409/7/5 408/7/5 407/7/5
f 410/7/5 408/7/5 409/7/5
f 411/3/6 412/3/6 415/3/6
f 415/3/6 412/3/6 416/3/6
f 413/3/6 414/3/6 417/3/6
f 417/3/6 414/3/6 418/3/6
f 419/6/6 420/6/6 423/6/6
f 420/1/6 421/1/6 424/1/6
f 423/6/6 420/6/6 424/6/6
f 421/6/6 422/6/6 425/6/6
f 424/1/6 421/1/6 425/1/6
f 425/6/6 422/6/6 426/6/6
f 424/7/6 425/7/6 427/7/6
f 427/7/6 425/7/6 428/7/6
f 429/7/6 430/7/6 432/7/6
f 430/1/6 431/1/6 433/1/6
f 432/7/6 430/7/6 433/7/6
f 433/1/6 431/1/6 434/1/6
f 429/7/6 432/7/6 435/7/6
f 435/7/6 432/7/6 436/7/6
f 437/4/6 438/4/6 441/4/6
f 441/4/6 438/4/6 442/4/6
f 439/4/6 440/4/6 443/4/6
f 443/4/6 440/4/6 444/4/6
f 445/4/6 446/4/6 451/4/6
f 446/7/6 447/7/6 451/7/6
f 447/1/6 448/1/6 452/1/6
f 451/7/6 447/7/6 452/7/6
f 448/7/6 449/7/6 453/7/6
f 452/1/6 448/1/6 453/1/6
f 449/4/6 450/4/6 454/4/6
f 453/7/6 449/7/6 454/7/6
f 445/4/6 451/4/6 455/4/6
f 455/4/6 451/4/6 456/4/6
f 454/4/6 450/4/6 457/4/6
f 457/4/6 450/4/6 458/4/6
f 459/5/6 460/5/6 463/5/6
f 463/5/6 460/5/6 464/5/6
f 461/5/6 462/5/6 465/5/6
f 465/5/6 462/5/6 466/5/6
f 467/5/6 468/5/6 469/5/6
f 469/5/6 468/5/6 470/5/6
f 471/4/6 472/4/6 473/4/6
f 473/4/6 472/4/6 474/4/6
f 475/7/6 476/7/6 477/7/6
f 477/7/6 476/7/6 478/7/6
f 474/4/6 472/4/6 479/4/6
f 479/4/6 472/4/6 480/4/6
f 481/4/6 482/4/6 484/4/6
f 483/7/6 484/7/6 485/7/6
f 484/4/6 482/4/6 486/4/6
f 485/7/6 484/7/6 486/7/6
f 486/4/6 482/4/6 487/4/6
f 488/7/6 489/7/6 490/7/6
f 490/7/6 489/7/6 491/7/6
