# MagicaVoxel @ Ephtracy

# group
o 

# material
mtllib lever_a_a_green_off.mtl
usemtl palette

# normals
vn -1 0 0
vn 1 0 0
vn 0 0 1
vn 0 0 -1
vn 0 -1 0
vn 0 1 0

# texcoords
vt 0.787109 0.5
vt 0.880859 0.5
vt 0.970703 0.5
vt 0.982422 0.5

# verts
v -0.2 0 0.1
v -0.2 0 -0.2
v -0.2 0.1 0.1
v -0.2 0.1 -0.2
v 0 0.1 0
v 0 0.1 -0.1
v 0 0.2 0.1
v 0 0.2 0
v 0 0.2 -0.1
v 0 0.2 -0.2
v 0 0.3 0.1
v 0 0.3 -0.2
v 0.1 0.1 0
v 0.1 0.1 -0.1
v 0.1 0.2 0.1
v 0.1 0.2 0
v 0.1 0.2 -0.1
v 0.1 0.2 -0.2
v 0.1 0.3 0.1
v 0.1 0.3 -0.2
v 0.3 0 0.1
v 0.3 0 -0.2
v 0.3 0.1 0.1
v 0.3 0.1 -0.2
v -0.2 0 0.1
v -0.2 0.1 0.1
v 0 0.2 0.1
v 0 0.3 0.1
v 0.1 0.2 0.1
v 0.1 0.3 0.1
v 0.3 0 0.1
v 0.3 0.1 0.1
v 0 0.1 0
v 0 0.2 0
v 0.1 0.1 0
v 0.1 0.2 0
v 0 0.1 -0.1
v 0 0.2 -0.1
v 0.1 0.1 -0.1
v 0.1 0.2 -0.1
v -0.2 0 -0.2
v -0.2 0.1 -0.2
v 0 0.2 -0.2
v 0 0.3 -0.2
v 0.1 0.2 -0.2
v 0.1 0.3 -0.2
v 0.3 0 -0.2
v 0.3 0.1 -0.2
v -0.2 0 0.1
v 0.3 0 0.1
v -0.1 0 0
v 0.2 0 0
v -0.1 0 -0.1
v 0.2 0 -0.1
v -0.2 0 -0.2
v 0.3 0 -0.2
v 0 0.2 0.1
v 0.1 0.2 0.1
v 0 0.2 0
v 0.1 0.2 0
v 0 0.2 -0.1
v 0.1 0.2 -0.1
v 0 0.2 -0.2
v 0.1 0.2 -0.2
v -0.2 0.1 0.1
v 0.3 0.1 0.1
v -0.1 0.1 0
v 0 0.1 0
v 0.1 0.1 0
v 0.2 0.1 0
v -0.1 0.1 -0.1
v 0 0.1 -0.1
v 0.1 0.1 -0.1
v 0.2 0.1 -0.1
v -0.2 0.1 -0.2
v 0.3 0.1 -0.2
v 0 0.3 0.1
v 0.1 0.3 0.1
v 0 0.3 -0.2
v 0.1 0.3 -0.2

# faces
f 3/2/1 2/2/1 1/2/1
f 4/2/1 2/2/1 3/2/1
f 8/1/1 6/1/1 5/1/1
f 9/1/1 6/1/1 8/1/1
f 11/4/1 8/4/1 7/4/1
f 11/4/1 10/4/1 9/4/1
f 11/4/1 9/4/1 8/4/1
f 12/4/1 10/4/1 11/4/1
f 13/1/2 14/1/2 16/1/2
f 16/1/2 14/1/2 17/1/2
f 15/4/2 16/4/2 19/4/2
f 17/4/2 18/4/2 19/4/2
f 16/4/2 17/4/2 19/4/2
f 19/4/2 18/4/2 20/4/2
f 21/2/2 22/2/2 23/2/2
f 23/2/2 22/2/2 24/2/2
f 29/4/3 28/4/3 27/4/3
f 30/4/3 28/4/3 29/4/3
f 31/2/3 26/2/3 25/2/3
f 32/2/3 26/2/3 31/2/3
f 35/1/3 34/1/3 33/1/3
f 36/1/3 34/1/3 35/1/3
f 37/1/4 38/1/4 39/1/4
f 39/1/4 38/1/4 40/1/4
f 43/4/4 44/4/4 45/4/4
f 45/4/4 44/4/4 46/4/4
f 41/2/4 42/2/4 47/2/4
f 47/2/4 42/2/4 48/2/4
f 51/2/5 50/2/5 49/2/5
f 52/2/5 50/2/5 51/2/5
f 53/2/5 51/2/5 49/2/5
f 53/3/5 52/3/5 51/3/5
f 54/2/5 50/2/5 52/2/5
f 54/3/5 52/3/5 53/3/5
f 55/2/5 53/2/5 49/2/5
f 55/2/5 54/2/5 53/2/5
f 56/2/5 50/2/5 54/2/5
f 56/2/5 54/2/5 55/2/5
f 59/4/5 58/4/5 57/4/5
f 60/4/5 58/4/5 59/4/5
f 63/4/5 62/4/5 61/4/5
f 64/4/5 62/4/5 63/4/5
f 65/2/6 66/2/6 67/2/6
f 67/2/6 66/2/6 68/2/6
f 68/2/6 66/2/6 69/2/6
f 69/2/6 66/2/6 70/2/6
f 65/2/6 67/2/6 71/2/6
f 67/3/6 68/3/6 71/3/6
f 71/3/6 68/3/6 72/3/6
f 69/3/6 70/3/6 73/3/6
f 70/2/6 66/2/6 74/2/6
f 73/3/6 70/3/6 74/3/6
f 72/2/6 73/2/6 75/2/6
f 71/2/6 72/2/6 75/2/6
f 73/2/6 74/2/6 75/2/6
f 65/2/6 71/2/6 75/2/6
f 74/2/6 66/2/6 76/2/6
f 75/2/6 74/2/6 76/2/6
f 77/4/6 78/4/6 79/4/6
f 79/4/6 78/4/6 80/4/6
