# MagicaVoxel @ Ephtracy

# group
o 

# material
mtllib lever_a_b_green_off.mtl
usemtl palette

# normals
vn -1 0 0
vn 1 0 0
vn 0 0 1
vn 0 0 -1
vn 0 -1 0
vn 0 1 0

# texcoords
vt 0.787109 0.5
vt 0.880859 0.5
vt 0.970703 0.5
vt 0.982422 0.5

# verts
v -0.2 0 0.1
v -0.2 0 -0.2
v -0.2 0.1 0.1
v -0.2 0.1 -0.2
v 0 0.1 0
v 0 0.1 -0.1
v 0 0.3 0
v 0 0.3 -0.1
v 0 0.5 0
v 0 0.5 -0.1
v 0.1 0.1 0
v 0.1 0.1 -0.1
v 0.1 0.3 0
v 0.1 0.3 -0.1
v 0.1 0.5 0
v 0.1 0.5 -0.1
v 0.3 0 0.1
v 0.3 0 -0.2
v 0.3 0.1 0.1
v 0.3 0.1 -0.2
v -0.2 0 0.1
v -0.2 0.1 0.1
v 0.3 0 0.1
v 0.3 0.1 0.1
v 0 0.1 0
v 0 0.3 0
v 0 0.5 0
v 0.1 0.1 0
v 0.1 0.3 0
v 0.1 0.5 0
v 0 0.1 -0.1
v 0 0.3 -0.1
v 0 0.5 -0.1
v 0.1 0.1 -0.1
v 0.1 0.3 -0.1
v 0.1 0.5 -0.1
v -0.2 0 -0.2
v -0.2 0.1 -0.2
v 0.3 0 -0.2
v 0.3 0.1 -0.2
v -0.2 0 0.1
v 0.3 0 0.1
v -0.1 0 0
v 0.2 0 0
v -0.1 0 -0.1
v 0.2 0 -0.1
v -0.2 0 -0.2
v 0.3 0 -0.2
v -0.2 0.1 0.1
v 0.3 0.1 0.1
v -0.1 0.1 0
v 0 0.1 0
v 0.1 0.1 0
v 0.2 0.1 0
v -0.1 0.1 -0.1
v 0 0.1 -0.1
v 0.1 0.1 -0.1
v 0.2 0.1 -0.1
v -0.2 0.1 -0.2
v 0.3 0.1 -0.2
v 0 0.5 0
v 0.1 0.5 0
v 0 0.5 -0.1
v 0.1 0.5 -0.1

# faces
f 3/2/1 2/2/1 1/2/1
f 4/2/1 2/2/1 3/2/1
f 7/1/1 6/1/1 5/1/1
f 8/1/1 6/1/1 7/1/1
f 9/4/1 8/4/1 7/4/1
f 10/4/1 8/4/1 9/4/1
f 11/1/2 12/1/2 13/1/2
f 13/1/2 12/1/2 14/1/2
f 13/4/2 14/4/2 15/4/2
f 15/4/2 14/4/2 16/4/2
f 17/2/2 18/2/2 19/2/2
f 19/2/2 18/2/2 20/2/2
f 23/2/3 22/2/3 21/2/3
f 24/2/3 22/2/3 23/2/3
f 28/1/3 26/1/3 25/1/3
f 29/4/3 27/4/3 26/4/3
f 29/1/3 26/1/3 28/1/3
f 30/4/3 27/4/3 29/4/3
f 31/1/4 32/1/4 34/1/4
f 32/4/4 33/4/4 35/4/4
f 34/1/4 32/1/4 35/1/4
f 35/4/4 33/4/4 36/4/4
f 37/2/4 38/2/4 39/2/4
f 39/2/4 38/2/4 40/2/4
f 43/2/5 42/2/5 41/2/5
f 44/2/5 42/2/5 43/2/5
f 45/2/5 43/2/5 41/2/5
f 45/3/5 44/3/5 43/3/5
f 46/2/5 42/2/5 44/2/5
f 46/3/5 44/3/5 45/3/5
f 47/2/5 45/2/5 41/2/5
f 47/2/5 46/2/5 45/2/5
f 48/2/5 42/2/5 46/2/5
f 48/2/5 46/2/5 47/2/5
f 49/2/6 50/2/6 51/2/6
f 51/2/6 50/2/6 52/2/6
f 52/2/6 50/2/6 53/2/6
f 53/2/6 50/2/6 54/2/6
f 49/2/6 51/2/6 55/2/6
f 51/3/6 52/3/6 55/3/6
f 55/3/6 52/3/6 56/3/6
f 53/3/6 54/3/6 57/3/6
f 54/2/6 50/2/6 58/2/6
f 57/3/6 54/3/6 58/3/6
f 56/2/6 57/2/6 59/2/6
f 55/2/6 56/2/6 59/2/6
f 57/2/6 58/2/6 59/2/6
f 49/2/6 55/2/6 59/2/6
f 58/2/6 50/2/6 60/2/6
f 59/2/6 58/2/6 60/2/6
f 61/4/6 62/4/6 63/4/6
f 63/4/6 62/4/6 64/4/6
