# MagicaVoxel @ Ephtracy

# group
o 

# material
mtllib lever_a_b_blue_off.mtl
usemtl palette

# normals
vn -1 0 0
vn 1 0 0
vn 0 0 1
vn 0 0 -1
vn 0 -1 0
vn 0 1 0

# texcoords
vt 0.720703 0.5
vt 0.787109 0.5
vt 0.880859 0.5
vt 0.970703 0.5

# verts
v -0.2 0 0.1
v -0.2 0 -0.2
v -0.2 0.1 0.1
v -0.2 0.1 -0.2
v 0 0.1 0
v 0 0.1 -0.1
v 0 0.3 0
v 0 0.3 -0.1
v 0 0.5 0
v 0 0.5 -0.1
v 0.1 0.1 0
v 0.1 0.1 -0.1
v 0.1 0.3 0
v 0.1 0.3 -0.1
v 0.1 0.5 0
v 0.1 0.5 -0.1
v 0.3 0 0.1
v 0.3 0 -0.2
v 0.3 0.1 0.1
v 0.3 0.1 -0.2
v -0.2 0 0.1
v -0.2 0.1 0.1
v 0.3 0 0.1
v 0.3 0.1 0.1
v 0 0.1 0
v 0 0.3 0
v 0 0.5 0
v 0.1 0.1 0
v 0.1 0.3 0
v 0.1 0.5 0
v 0 0.1 -0.1
v 0 0.3 -0.1
v 0 0.5 -0.1
v 0.1 0.1 -0.1
v 0.1 0.3 -0.1
v 0.1 0.5 -0.1
v -0.2 0 -0.2
v -0.2 0.1 -0.2
v 0.3 0 -0.2
v 0.3 0.1 -0.2
v -0.2 0 0.1
v 0.3 0 0.1
v -0.1 0 0
v 0.2 0 0
v -0.1 0 -0.1
v 0.2 0 -0.1
v -0.2 0 -0.2
v 0.3 0 -0.2
v -0.2 0.1 0.1
v 0.3 0.1 0.1
v -0.1 0.1 0
v 0 0.1 0
v 0.1 0.1 0
v 0.2 0.1 0
v -0.1 0.1 -0.1
v 0 0.1 -0.1
v 0.1 0.1 -0.1
v 0.2 0.1 -0.1
v -0.2 0.1 -0.2
v 0.3 0.1 -0.2
v 0 0.5 0
v 0.1 0.5 0
v 0 0.5 -0.1
v 0.1 0.5 -0.1

# faces
f 3/3/1 2/3/1 1/3/1
f 4/3/1 2/3/1 3/3/1
f 7/2/1 6/2/1 5/2/1
f 8/2/1 6/2/1 7/2/1
f 9/1/1 8/1/1 7/1/1
f 10/1/1 8/1/1 9/1/1
f 11/2/2 12/2/2 13/2/2
f 13/2/2 12/2/2 14/2/2
f 13/1/2 14/1/2 15/1/2
f 15/1/2 14/1/2 16/1/2
f 17/3/2 18/3/2 19/3/2
f 19/3/2 18/3/2 20/3/2
f 23/3/3 22/3/3 21/3/3
f 24/3/3 22/3/3 23/3/3
f 28/2/3 26/2/3 25/2/3
f 29/1/3 27/1/3 26/1/3
f 29/2/3 26/2/3 28/2/3
f 30/1/3 27/1/3 29/1/3
f 31/2/4 32/2/4 34/2/4
f 32/1/4 33/1/4 35/1/4
f 34/2/4 32/2/4 35/2/4
f 35/1/4 33/1/4 36/1/4
f 37/3/4 38/3/4 39/3/4
f 39/3/4 38/3/4 40/3/4
f 43/3/5 42/3/5 41/3/5
f 44/3/5 42/3/5 43/3/5
f 45/3/5 43/3/5 41/3/5
f 45/4/5 44/4/5 43/4/5
f 46/3/5 42/3/5 44/3/5
f 46/4/5 44/4/5 45/4/5
f 47/3/5 45/3/5 41/3/5
f 47/3/5 46/3/5 45/3/5
f 48/3/5 42/3/5 46/3/5
f 48/3/5 46/3/5 47/3/5
f 49/3/6 50/3/6 51/3/6
f 51/3/6 50/3/6 52/3/6
f 52/3/6 50/3/6 53/3/6
f 53/3/6 50/3/6 54/3/6
f 49/3/6 51/3/6 55/3/6
f 51/4/6 52/4/6 55/4/6
f 55/4/6 52/4/6 56/4/6
f 53/4/6 54/4/6 57/4/6
f 54/3/6 50/3/6 58/3/6
f 57/4/6 54/4/6 58/4/6
f 56/3/6 57/3/6 59/3/6
f 55/3/6 56/3/6 59/3/6
f 57/3/6 58/3/6 59/3/6
f 49/3/6 55/3/6 59/3/6
f 58/3/6 50/3/6 60/3/6
f 59/3/6 58/3/6 60/3/6
f 61/1/6 62/1/6 63/1/6
f 63/1/6 62/1/6 64/1/6
