# MagicaVoxel @ Ephtracy

# group
o 

# material
mtllib lever_a_b_yellow_off.mtl
usemtl palette

# normals
vn -1 0 0
vn 1 0 0
vn 0 0 1
vn 0 0 -1
vn 0 -1 0
vn 0 1 0

# texcoords
vt 0.787109 0.5
vt 0.880859 0.5
vt 0.912109 0.5
vt 0.970703 0.5

# verts
v -0.2 0 0.1
v -0.2 0 -0.2
v -0.2 0.1 0.1
v -0.2 0.1 -0.2
v 0 0.1 0
v 0 0.1 -0.1
v 0 0.3 0
v 0 0.3 -0.1
v 0 0.5 0
v 0 0.5 -0.1
v 0.1 0.1 0
v 0.1 0.1 -0.1
v 0.1 0.3 0
v 0.1 0.3 -0.1
v 0.1 0.5 0
v 0.1 0.5 -0.1
v 0.3 0 0.1
v 0.3 0 -0.2
v 0.3 0.1 0.1
v 0.3 0.1 -0.2
v -0.2 0 0.1
v -0.2 0.1 0.1
v 0.3 0 0.1
v 0.3 0.1 0.1
v 0 0.1 0
v 0 0.3 0
v 0 0.5 0
v 0.1 0.1 0
v 0.1 0.3 0
v 0.1 0.5 0
v 0 0.1 -0.1
v 0 0.3 -0.1
v 0 0.5 -0.1
v 0.1 0.1 -0.1
v 0.1 0.3 -0.1
v 0.1 0.5 -0.1
v -0.2 0 -0.2
v -0.2 0.1 -0.2
v 0.3 0 -0.2
v 0.3 0.1 -0.2
v -0.2 0 0.1
v 0.3 0 0.1
v -0.1 0 0
v 0.2 0 0
v -0.1 0 -0.1
v 0.2 0 -0.1
v -0.2 0 -0.2
v 0.3 0 -0.2
v -0.2 0.1 0.1
v 0.3 0.1 0.1
v -0.1 0.1 0
v 0 0.1 0
v 0.1 0.1 0
v 0.2 0.1 0
v -0.1 0.1 -0.1
v 0 0.1 -0.1
v 0.1 0.1 -0.1
v 0.2 0.1 -0.1
v -0.2 0.1 -0.2
v 0.3 0.1 -0.2
v 0 0.5 0
v 0.1 0.5 0
v 0 0.5 -0.1
v 0.1 0.5 -0.1

# faces
f 3/2/1 2/2/1 1/2/1
f 4/2/1 2/2/1 3/2/1
f 7/1/1 6/1/1 5/1/1
f 8/1/1 6/1/1 7/1/1
f 9/3/1 8/3/1 7/3/1
f 10/3/1 8/3/1 9/3/1
f 11/1/2 12/1/2 13/1/2
f 13/1/2 12/1/2 14/1/2
f 13/3/2 14/3/2 15/3/2
f 15/3/2 14/3/2 16/3/2
f 17/2/2 18/2/2 19/2/2
f 19/2/2 18/2/2 20/2/2
f 23/2/3 22/2/3 21/2/3
f 24/2/3 22/2/3 23/2/3
f 28/1/3 26/1/3 25/1/3
f 29/3/3 27/3/3 26/3/3
f 29/1/3 26/1/3 28/1/3
f 30/3/3 27/3/3 29/3/3
f 31/1/4 32/1/4 34/1/4
f 32/3/4 33/3/4 35/3/4
f 34/1/4 32/1/4 35/1/4
f 35/3/4 33/3/4 36/3/4
f 37/2/4 38/2/4 39/2/4
f 39/2/4 38/2/4 40/2/4
f 43/2/5 42/2/5 41/2/5
f 44/2/5 42/2/5 43/2/5
f 45/2/5 43/2/5 41/2/5
f 45/4/5 44/4/5 43/4/5
f 46/2/5 42/2/5 44/2/5
f 46/4/5 44/4/5 45/4/5
f 47/2/5 45/2/5 41/2/5
f 47/2/5 46/2/5 45/2/5
f 48/2/5 42/2/5 46/2/5
f 48/2/5 46/2/5 47/2/5
f 49/2/6 50/2/6 51/2/6
f 51/2/6 50/2/6 52/2/6
f 52/2/6 50/2/6 53/2/6
f 53/2/6 50/2/6 54/2/6
f 49/2/6 51/2/6 55/2/6
f 51/4/6 52/4/6 55/4/6
f 55/4/6 52/4/6 56/4/6
f 53/4/6 54/4/6 57/4/6
f 54/2/6 50/2/6 58/2/6
f 57/4/6 54/4/6 58/4/6
f 56/2/6 57/2/6 59/2/6
f 55/2/6 56/2/6 59/2/6
f 57/2/6 58/2/6 59/2/6
f 49/2/6 55/2/6 59/2/6
f 58/2/6 50/2/6 60/2/6
f 59/2/6 58/2/6 60/2/6
f 61/3/6 62/3/6 63/3/6
f 63/3/6 62/3/6 64/3/6
