# MagicaVoxel @ Ephtracy

# group
o 

# material
mtllib treasure_chest_e_locked.mtl
usemtl palette

# normals
vn -1 0 0
vn 1 0 0
vn 0 0 1
vn 0 0 -1
vn 0 -1 0
vn 0 1 0

# texcoords
vt 0.724609 0.5
vt 0.822266 0.5
vt 0.970703 0.5

# verts
v -0.4 0 0.3
v -0.4 0 -0.4
v -0.4 0.1 0.2
v -0.4 0.1 -0.3
v -0.4 0.4 0.2
v -0.4 0.4 -0.3
v -0.4 0.5 0.2
v -0.4 0.5 -0.3
v -0.4 0.6 0.3
v -0.4 0.6 0.2
v -0.4 0.6 0.1
v -0.4 0.6 -0.2
v -0.4 0.6 -0.3
v -0.4 0.6 -0.4
v -0.4 0.7 0.2
v -0.4 0.7 0.1
v -0.4 0.7 -0.2
v -0.4 0.7 -0.3
v -0.4 0.8 0.1
v -0.4 0.8 -0.2
v 0.5 0 0.3
v 0.5 0 -0.4
v 0.5 0.1 0.2
v 0.5 0.1 -0.3
v 0.5 0.4 0.2
v 0.5 0.4 -0.3
v 0.5 0.5 0.2
v 0.5 0.5 -0.3
v 0.5 0.6 0.3
v 0.5 0.6 0.2
v 0.5 0.6 0.1
v 0.5 0.6 -0.2
v 0.5 0.6 -0.3
v 0.5 0.6 -0.4
v 0.5 0.7 0.2
v 0.5 0.7 0.1
v 0.5 0.7 -0.2
v 0.5 0.7 -0.3
v 0.5 0.8 0.1
v 0.5 0.8 -0.2
v -0.4 0 0.3
v -0.4 0.6 0.3
v -0.3 0.1 0.3
v -0.3 0.4 0.3
v -0.3 0.5 0.3
v -0.3 0.6 0.3
v -0.2 0.5 0.3
v -0.2 0.6 0.3
v -0.1 0.2 0.3
v -0.1 0.4 0.3
v -0.1 0.5 0.3
v -0.1 0.6 0.3
v 0 0.3 0.3
v 0 0.4 0.3
v 0.1 0.3 0.3
v 0.1 0.4 0.3
v 0.2 0.2 0.3
v 0.2 0.4 0.3
v 0.2 0.5 0.3
v 0.2 0.6 0.3
v 0.3 0.5 0.3
v 0.3 0.6 0.3
v 0.4 0.1 0.3
v 0.4 0.4 0.3
v 0.4 0.5 0.3
v 0.4 0.6 0.3
v 0.5 0 0.3
v 0.5 0.6 0.3
v -0.4 0.6 0.2
v -0.4 0.7 0.2
v -0.3 0.6 0.2
v -0.3 0.7 0.2
v -0.2 0.6 0.2
v -0.2 0.7 0.2
v -0.1 0.6 0.2
v -0.1 0.7 0.2
v 0.2 0.6 0.2
v 0.2 0.7 0.2
v 0.3 0.6 0.2
v 0.3 0.7 0.2
v 0.4 0.6 0.2
v 0.4 0.7 0.2
v 0.5 0.6 0.2
v 0.5 0.7 0.2
v -0.4 0.7 0.1
v -0.4 0.8 0.1
v -0.3 0.7 0.1
v -0.3 0.8 0.1
v -0.2 0.7 0.1
v -0.2 0.8 0.1
v -0.1 0.7 0.1
v -0.1 0.8 0.1
v 0.2 0.7 0.1
v 0.2 0.8 0.1
v 0.3 0.7 0.1
v 0.3 0.8 0.1
v 0.4 0.7 0.1
v 0.4 0.8 0.1
v 0.5 0.7 0.1
v 0.5 0.8 0.1
v -0.4 0.7 -0.2
v -0.4 0.8 -0.2
v -0.3 0.7 -0.2
v -0.3 0.8 -0.2
v -0.2 0.7 -0.2
v -0.2 0.8 -0.2
v -0.1 0.7 -0.2
v -0.1 0.8 -0.2
v 0.2 0.7 -0.2
v 0.2 0.8 -0.2
v 0.3 0.7 -0.2
v 0.3 0.8 -0.2
v 0.4 0.7 -0.2
v 0.4 0.8 -0.2
v 0.5 0.7 -0.2
v 0.5 0.8 -0.2
v -0.4 0.6 -0.3
v -0.4 0.7 -0.3
v -0.3 0.6 -0.3
v -0.3 0.7 -0.3
v -0.2 0.6 -0.3
v -0.2 0.7 -0.3
v -0.1 0.6 -0.3
v -0.1 0.7 -0.3
v 0.2 0.6 -0.3
v 0.2 0.7 -0.3
v 0.3 0.6 -0.3
v 0.3 0.7 -0.3
v 0.4 0.6 -0.3
v 0.4 0.7 -0.3
v 0.5 0.6 -0.3
v 0.5 0.7 -0.3
v -0.4 0 -0.4
v -0.4 0.6 -0.4
v -0.3 0.1 -0.4
v -0.3 0.4 -0.4
v -0.3 0.5 -0.4
v -0.3 0.6 -0.4
v -0.2 0.5 -0.4
v -0.2 0.6 -0.4
v -0.1 0.5 -0.4
v -0.1 0.6 -0.4
v 0.2 0.5 -0.4
v 0.2 0.6 -0.4
v 0.3 0.5 -0.4
v 0.3 0.6 -0.4
v 0.4 0.1 -0.4
v 0.4 0.4 -0.4
v 0.4 0.5 -0.4
v 0.4 0.6 -0.4
v 0.5 0 -0.4
v 0.5 0.6 -0.4
v -0.4 0 0.3
v 0.5 0 0.3
v -0.4 0 -0.4
v 0.5 0 -0.4
v -0.4 0.6 0.3
v -0.3 0.6 0.3
v -0.2 0.6 0.3
v -0.1 0.6 0.3
v 0.2 0.6 0.3
v 0.3 0.6 0.3
v 0.4 0.6 0.3
v 0.5 0.6 0.3
v -0.4 0.6 0.2
v -0.3 0.6 0.2
v -0.2 0.6 0.2
v -0.1 0.6 0.2
v 0.2 0.6 0.2
v 0.3 0.6 0.2
v 0.4 0.6 0.2
v 0.5 0.6 0.2
v -0.4 0.6 -0.3
v -0.3 0.6 -0.3
v -0.2 0.6 -0.3
v -0.1 0.6 -0.3
v 0.2 0.6 -0.3
v 0.3 0.6 -0.3
v 0.4 0.6 -0.3
v 0.5 0.6 -0.3
v -0.4 0.6 -0.4
v -0.3 0.6 -0.4
v -0.2 0.6 -0.4
v -0.1 0.6 -0.4
v 0.2 0.6 -0.4
v 0.3 0.6 -0.4
v 0.4 0.6 -0.4
v 0.5 0.6 -0.4
v -0.4 0.7 0.2
v -0.3 0.7 0.2
v -0.2 0.7 0.2
v -0.1 0.7 0.2
v 0.2 0.7 0.2
v 0.3 0.7 0.2
v 0.4 0.7 0.2
v 0.5 0.7 0.2
v -0.4 0.7 0.1
v -0.3 0.7 0.1
v -0.2 0.7 0.1
v -0.1 0.7 0.1
v 0.2 0.7 0.1
v 0.3 0.7 0.1
v 0.4 0.7 0.1
v 0.5 0.7 0.1
v -0.4 0.7 -0.2
v -0.3 0.7 -0.2
v -0.2 0.7 -0.2
v -0.1 0.7 -0.2
v 0.2 0.7 -0.2
v 0.3 0.7 -0.2
v 0.4 0.7 -0.2
v 0.5 0.7 -0.2
v -0.4 0.7 -0.3
v -0.3 0.7 -0.3
v -0.2 0.7 -0.3
v -0.1 0.7 -0.3
v 0.2 0.7 -0.3
v 0.3 0.7 -0.3
v 0.4 0.7 -0.3
v 0.5 0.7 -0.3
v -0.4 0.8 0.1
v -0.3 0.8 0.1
v -0.2 0.8 0.1
v -0.1 0.8 0.1
v 0.2 0.8 0.1
v 0.3 0.8 0.1
v 0.4 0.8 0.1
v 0.5 0.8 0.1
v -0.4 0.8 -0.2
v -0.3 0.8 -0.2
v -0.2 0.8 -0.2
v -0.1 0.8 -0.2
v 0.2 0.8 -0.2
v 0.3 0.8 -0.2
v 0.4 0.8 -0.2
v 0.5 0.8 -0.2

# faces
f 3/2/1 2/2/1 1/2/1
f 4/2/1 2/2/1 3/2/1
f 5/2/1 3/2/1 1/2/1
f 5/1/1 4/1/1 3/1/1
f 6/2/1 2/2/1 4/2/1
f 6/1/1 4/1/1 5/1/1
f 7/2/1 5/2/1 1/2/1
f 7/2/1 6/2/1 5/2/1
f 8/2/1 2/2/1 6/2/1
f 8/2/1 6/2/1 7/2/1
f 9/2/1 7/2/1 1/2/1
f 10/1/1 8/1/1 7/1/1
f 10/2/1 7/2/1 9/2/1
f 11/1/1 8/1/1 10/1/1
f 12/1/1 8/1/1 11/1/1
f 13/2/1 2/2/1 8/2/1
f 13/1/1 8/1/1 12/1/1
f 14/2/1 2/2/1 13/2/1
f 15/2/1 11/2/1 10/2/1
f 16/1/1 12/1/1 11/1/1
f 16/2/1 11/2/1 15/2/1
f 17/2/1 13/2/1 12/2/1
f 17/1/1 12/1/1 16/1/1
f 18/2/1 13/2/1 17/2/1
f 19/2/1 17/2/1 16/2/1
f 20/2/1 17/2/1 19/2/1
f 21/2/2 22/2/2 23/2/2
f 23/2/2 22/2/2 24/2/2
f 21/2/2 23/2/2 25/2/2
f 23/1/2 24/1/2 25/1/2
f 24/2/2 22/2/2 26/2/2
f 25/1/2 24/1/2 26/1/2
f 21/2/2 25/2/2 27/2/2
f 25/2/2 26/2/2 27/2/2
f 26/2/2 22/2/2 28/2/2
f 27/2/2 26/2/2 28/2/2
f 21/2/2 27/2/2 29/2/2
f 27/1/2 28/1/2 30/1/2
f 29/2/2 27/2/2 30/2/2
f 30/1/2 28/1/2 31/1/2
f 31/1/2 28/1/2 32/1/2
f 28/2/2 22/2/2 33/2/2
f 32/1/2 28/1/2 33/1/2
f 33/2/2 22/2/2 34/2/2
f 30/2/2 31/2/2 35/2/2
f 31/1/2 32/1/2 36/1/2
f 35/2/2 31/2/2 36/2/2
f 32/2/2 33/2/2 37/2/2
f 36/1/2 32/1/2 37/1/2
f 37/2/2 33/2/2 38/2/2
f 36/2/2 37/2/2 39/2/2
f 39/2/2 37/2/2 40/2/2
f 43/2/3 42/2/3 41/2/3
f 44/2/3 42/2/3 43/2/3
f 45/2/3 42/2/3 44/2/3
f 46/2/3 42/2/3 45/2/3
f 47/2/3 45/2/3 44/2/3
f 47/1/3 46/1/3 45/1/3
f 48/1/3 46/1/3 47/1/3
f 49/1/3 44/1/3 43/1/3
f 50/2/3 47/2/3 44/2/3
f 50/1/3 44/1/3 49/1/3
f 50/2/3 48/2/3 47/2/3
f 51/2/3 48/2/3 50/2/3
f 52/2/3 48/2/3 51/2/3
f 53/2/3 50/2/3 49/2/3
f 53/2/3 51/2/3 50/2/3
f 54/2/3 51/2/3 53/2/3
f 55/2/3 53/2/3 49/2/3
f 55/3/3 54/3/3 53/3/3
f 56/2/3 51/2/3 54/2/3
f 56/3/3 54/3/3 55/3/3
f 57/1/3 49/1/3 43/1/3
f 57/2/3 55/2/3 49/2/3
f 57/2/3 56/2/3 55/2/3
f 58/2/3 51/2/3 56/2/3
f 58/2/3 56/2/3 57/2/3
f 59/1/3 52/1/3 51/1/3
f 59/2/3 51/2/3 58/2/3
f 60/1/3 52/1/3 59/1/3
f 61/2/3 59/2/3 58/2/3
f 61/2/3 60/2/3 59/2/3
f 62/2/3 60/2/3 61/2/3
f 63/2/3 43/2/3 41/2/3
f 63/1/3 57/1/3 43/1/3
f 63/1/3 58/1/3 57/1/3
f 64/2/3 61/2/3 58/2/3
f 64/1/3 58/1/3 63/1/3
f 65/1/3 62/1/3 61/1/3
f 65/2/3 61/2/3 64/2/3
f 66/1/3 62/1/3 65/1/3
f 67/2/3 64/2/3 63/2/3
f 67/2/3 63/2/3 41/2/3
f 67/2/3 66/2/3 65/2/3
f 67/2/3 65/2/3 64/2/3
f 68/2/3 66/2/3 67/2/3
f 71/2/3 70/2/3 69/2/3
f 72/2/3 70/2/3 71/2/3
f 73/1/3 72/1/3 71/1/3
f 74/1/3 72/1/3 73/1/3
f 75/2/3 74/2/3 73/2/3
f 76/2/3 74/2/3 75/2/3
f 77/1/3 76/1/3 75/1/3
f 78/1/3 76/1/3 77/1/3
f 79/2/3 78/2/3 77/2/3
f 80/2/3 78/2/3 79/2/3
f 81/1/3 80/1/3 79/1/3
f 82/1/3 80/1/3 81/1/3
f 83/2/3 82/2/3 81/2/3
f 84/2/3 82/2/3 83/2/3
f 87/2/3 86/2/3 85/2/3
f 88/2/3 86/2/3 87/2/3
f 89/1/3 88/1/3 87/1/3
f 90/1/3 88/1/3 89/1/3
f 91/2/3 90/2/3 89/2/3
f 92/2/3 90/2/3 91/2/3
f 93/1/3 92/1/3 91/1/3
f 94/1/3 92/1/3 93/1/3
f 95/2/3 94/2/3 93/2/3
f 96/2/3 94/2/3 95/2/3
f 97/1/3 96/1/3 95/1/3
f 98/1/3 96/1/3 97/1/3
f 99/2/3 98/2/3 97/2/3
f 100/2/3 98/2/3 99/2/3
f 101/2/4 102/2/4 103/2/4
f 103/2/4 102/2/4 104/2/4
f 103/1/4 104/1/4 105/1/4
f 105/1/4 104/1/4 106/1/4
f 105/2/4 106/2/4 107/2/4
f 107/2/4 106/2/4 108/2/4
f 107/1/4 108/1/4 109/1/4
f 109/1/4 108/1/4 110/1/4
f 109/2/4 110/2/4 111/2/4
f 111/2/4 110/2/4 112/2/4
f 111/1/4 112/1/4 113/1/4
f 113/1/4 112/1/4 114/1/4
f 113/2/4 114/2/4 115/2/4
f 115/2/4 114/2/4 116/2/4
f 117/2/4 118/2/4 119/2/4
f 119/2/4 118/2/4 120/2/4
f 119/1/4 120/1/4 121/1/4
f 121/1/4 120/1/4 122/1/4
f 121/2/4 122/2/4 123/2/4
f 123/2/4 122/2/4 124/2/4
f 123/1/4 124/1/4 125/1/4
f 125/1/4 124/1/4 126/1/4
f 125/2/4 126/2/4 127/2/4
f 127/2/4 126/2/4 128/2/4
f 127/1/4 128/1/4 129/1/4
f 129/1/4 128/1/4 130/1/4
f 129/2/4 130/2/4 131/2/4
f 131/2/4 130/2/4 132/2/4
f 133/2/4 134/2/4 135/2/4
f 135/2/4 134/2/4 136/2/4
f 136/2/4 134/2/4 137/2/4
f 137/2/4 134/2/4 138/2/4
f 136/2/4 137/2/4 139/2/4
f 137/1/4 138/1/4 139/1/4
f 139/1/4 138/1/4 140/1/4
f 136/2/4 139/2/4 141/2/4
f 139/2/4 140/2/4 141/2/4
f 141/2/4 140/2/4 142/2/4
f 136/2/4 141/2/4 143/2/4
f 141/1/4 142/1/4 143/1/4
f 143/1/4 142/1/4 144/1/4
f 136/2/4 143/2/4 145/2/4
f 143/2/4 144/2/4 145/2/4
f 145/2/4 144/2/4 146/2/4
f 133/2/4 135/2/4 147/2/4
f 135/1/4 136/1/4 147/1/4
f 136/2/4 145/2/4 148/2/4
f 147/1/4 136/1/4 148/1/4
f 145/1/4 146/1/4 149/1/4
f 148/2/4 145/2/4 149/2/4
f 149/1/4 146/1/4 150/1/4
f 147/2/4 148/2/4 151/2/4
f 133/2/4 147/2/4 151/2/4
f 149/2/4 150/2/4 151/2/4
f 148/2/4 149/2/4 151/2/4
f 151/2/4 150/2/4 152/2/4
f 155/2/5 154/2/5 153/2/5
f 156/2/5 154/2/5 155/2/5
f 157/2/6 158/2/6 165/2/6
f 158/1/6 159/1/6 166/1/6
f 165/2/6 158/2/6 166/2/6
f 159/2/6 160/2/6 167/2/6
f 166/1/6 159/1/6 167/1/6
f 160/1/6 161/1/6 168/1/6
f 167/2/6 160/2/6 168/2/6
f 161/2/6 162/2/6 169/2/6
f 168/1/6 161/1/6 169/1/6
f 162/1/6 163/1/6 170/1/6
f 169/2/6 162/2/6 170/2/6
f 163/2/6 164/2/6 171/2/6
f 170/1/6 163/1/6 171/1/6
f 171/2/6 164/2/6 172/2/6
f 173/2/6 174/2/6 181/2/6
f 174/1/6 175/1/6 182/1/6
f 181/2/6 174/2/6 182/2/6
f 175/2/6 176/2/6 183/2/6
f 182/1/6 175/1/6 183/1/6
f 176/1/6 177/1/6 184/1/6
f 183/2/6 176/2/6 184/2/6
f 177/2/6 178/2/6 185/2/6
f 184/1/6 177/1/6 185/1/6
f 178/1/6 179/1/6 186/1/6
f 185/2/6 178/2/6 186/2/6
f 179/2/6 180/2/6 187/2/6
f 186/1/6 179/1/6 187/1/6
f 187/2/6 180/2/6 188/2/6
f 189/2/6 190/2/6 197/2/6
f 190/1/6 191/1/6 198/1/6
f 197/2/6 190/2/6 198/2/6
f 191/2/6 192/2/6 199/2/6
f 198/1/6 191/1/6 199/1/6
f 192/1/6 193/1/6 200/1/6
f 199/2/6 192/2/6 200/2/6
f 193/2/6 194/2/6 201/2/6
f 200/1/6 193/1/6 201/1/6
f 194/1/6 195/1/6 202/1/6
f 201/2/6 194/2/6 202/2/6
f 195/2/6 196/2/6 203/2/6
f 202/1/6 195/1/6 203/1/6
f 203/2/6 196/2/6 204/2/6
f 205/2/6 206/2/6 213/2/6
f 206/1/6 207/1/6 214/1/6
f 213/2/6 206/2/6 214/2/6
f 207/2/6 208/2/6 215/2/6
f 214/1/6 207/1/6 215/1/6
f 208/1/6 209/1/6 216/1/6
f 215/2/6 208/2/6 216/2/6
f 209/2/6 210/2/6 217/2/6
f 216/1/6 209/1/6 217/1/6
f 210/1/6 211/1/6 218/1/6
f 217/2/6 210/2/6 218/2/6
f 211/2/6 212/2/6 219/2/6
f 218/1/6 211/1/6 219/1/6
f 219/2/6 212/2/6 220/2/6
f 221/2/6 222/2/6 229/2/6
f 222/1/6 223/1/6 230/1/6
f 229/2/6 222/2/6 230/2/6
f 223/2/6 224/2/6 231/2/6
f 230/1/6 223/1/6 231/1/6
f 224/1/6 225/1/6 232/1/6
f 231/2/6 224/2/6 232/2/6
f 225/2/6 226/2/6 233/2/6
f 232/1/6 225/1/6 233/1/6
f 226/1/6 227/1/6 234/1/6
f 233/2/6 226/2/6 234/2/6
f 227/2/6 228/2/6 235/2/6
f 234/1/6 227/1/6 235/1/6
f 235/2/6 228/2/6 236/2/6
