# MagicaVoxel @ Ephtracy

# group
o 

# material
mtllib treasure_chest_e_unlocked.mtl
usemtl palette

# normals
vn -1 0 0
vn 1 0 0
vn 0 0 1
vn 0 0 -1
vn 0 -1 0
vn 0 1 0

# texcoords
vt 0.724609 0.5
vt 0.822266 0.5
vt 0.912109 0.5
vt 0.970703 0.5

# verts
v -0.4 0 0.4
v -0.4 0 -0.3
v -0.4 0.1 0.3
v -0.4 0.1 -0.2
v -0.4 0.4 0.3
v -0.4 0.4 -0.2
v -0.4 0.5 0.4
v -0.4 0.5 -0.1
v -0.4 0.6 -0.2
v -0.4 0.6 -0.3
v -0.4 0.6 -0.4
v -0.4 0.7 -0.3
v -0.4 0.7 -0.4
v -0.4 0.7 -0.5
v -0.4 1 -0.3
v -0.4 1 -0.4
v -0.4 1 -0.5
v -0.4 1.1 -0.2
v -0.4 1.1 -0.3
v -0.4 1.1 -0.4
v -0.4 1.2 -0.1
v -0.4 1.2 -0.3
v -0.3 0.5 0.3
v -0.3 0.5 -0.1
v -0.3 0.6 0.3
v -0.3 0.6 0.2
v -0.3 0.6 0.1
v -0.3 0.6 -0.1
v -0.3 0.7 0.2
v -0.3 0.7 0.1
v -0.2 0.6 0.3
v -0.2 0.6 0.2
v -0.2 0.6 0
v -0.2 0.6 -0.1
v -0.2 0.7 0.3
v -0.2 0.7 0.2
v -0.2 0.7 0
v -0.2 0.7 -0.1
v -0.1 0.6 0.1
v -0.1 0.6 0
v -0.1 0.7 0.1
v -0.1 0.7 0
v 0 0.6 0
v 0 0.6 -0.1
v 0 0.7 0
v 0 0.7 -0.1
v 0.2 0.5 0.3
v 0.2 0.5 0.2
v 0.2 0.6 0.3
v 0.2 0.6 0.2
v 0.2 0.6 0
v 0.2 0.6 -0.1
v 0.2 0.7 0
v 0.2 0.7 -0.1
v 0.3 0.6 0.3
v 0.3 0.6 0.1
v 0.3 0.7 0.3
v 0.3 0.7 0.1
v -0.1 0.6 0.3
v -0.1 0.6 0.2
v -0.1 0.6 0
v -0.1 0.6 -0.1
v -0.1 0.7 0.3
v -0.1 0.7 0.2
v -0.1 0.7 0
v -0.1 0.7 -0.1
v 0 0.5 0.3
v 0 0.5 0.2
v 0 0.6 0.3
v 0 0.6 0.2
v 0 0.6 0
v 0 0.7 0.2
v 0 0.7 0
v 0.1 0.6 0
v 0.1 0.6 -0.1
v 0.1 0.7 0
v 0.1 0.7 -0.1
v 0.4 0.5 0.3
v 0.4 0.5 -0.1
v 0.4 0.6 0.1
v 0.4 0.6 0
v 0.4 0.7 0.3
v 0.4 0.7 0.1
v 0.4 0.7 0
v 0.4 0.7 -0.1
v 0.5 0 0.4
v 0.5 0 -0.3
v 0.5 0.1 0.3
v 0.5 0.1 -0.2
v 0.5 0.4 0.3
v 0.5 0.4 -0.2
v 0.5 0.5 0.4
v 0.5 0.5 -0.1
v 0.5 0.6 -0.2
v 0.5 0.6 -0.3
v 0.5 0.6 -0.4
v 0.5 0.7 -0.3
v 0.5 0.7 -0.4
v 0.5 0.7 -0.5
v 0.5 1 -0.3
v 0.5 1 -0.4
v 0.5 1 -0.5
v 0.5 1.1 -0.2
v 0.5 1.1 -0.3
v 0.5 1.1 -0.4
v 0.5 1.2 -0.1
v 0.5 1.2 -0.3
v -0.4 0 0.4
v -0.4 0.5 0.4
v -0.3 0.1 0.4
v -0.3 0.4 0.4
v -0.1 0.2 0.4
v -0.1 0.4 0.4
v 0 0.3 0.4
v 0 0.4 0.4
v 0.1 0.3 0.4
v 0.1 0.4 0.4
v 0.2 0.2 0.4
v 0.2 0.4 0.4
v 0.4 0.1 0.4
v 0.4 0.4 0.4
v 0.5 0 0.4
v 0.5 0.5 0.4
v -0.3 0.5 0.3
v -0.3 0.6 0.3
v -0.2 0.6 0.3
v -0.2 0.7 0.3
v -0.1 0.6 0.3
v -0.1 0.7 0.3
v 0 0.5 0.3
v 0 0.6 0.3
v 0.2 0.5 0.3
v 0.2 0.6 0.3
v 0.3 0.6 0.3
v 0.3 0.7 0.3
v 0.4 0.5 0.3
v 0.4 0.7 0.3
v -0.3 0.6 0.2
v -0.3 0.7 0.2
v -0.2 0.6 0.2
v -0.2 0.7 0.2
v -0.1 0.6 0.2
v -0.1 0.7 0.2
v 0 0.5 0.2
v 0 0.6 0.2
v 0 0.7 0.2
v 0.2 0.5 0.2
v 0.2 0.6 0.2
v -0.2 0.6 0
v -0.2 0.7 0
v -0.1 0.6 0
v -0.1 0.7 0
v 0 0.6 0
v 0 0.7 0
v 0.1 0.6 0
v 0.1 0.7 0
v 0.2 0.6 0
v 0.2 0.7 0
v 0.4 0.6 0
v 0.4 0.7 0
v -0.4 0.5 -0.1
v -0.4 1.2 -0.1
v -0.3 0.5 -0.1
v -0.3 0.6 -0.1
v -0.3 1.1 -0.1
v -0.2 0.6 -0.1
v -0.2 0.7 -0.1
v -0.1 0.6 -0.1
v -0.1 0.7 -0.1
v 0 0.6 -0.1
v 0 0.7 -0.1
v 0.1 0.6 -0.1
v 0.1 0.7 -0.1
v 0.2 0.6 -0.1
v 0.2 0.7 -0.1
v 0.4 0.5 -0.1
v 0.4 0.7 -0.1
v 0.4 1.1 -0.1
v 0.5 0.5 -0.1
v 0.5 1.2 -0.1
v -0.3 0.6 0.1
v -0.3 0.7 0.1
v -0.1 0.6 0.1
v -0.1 0.7 0.1
v 0.3 0.6 0.1
v 0.3 0.7 0.1
v 0.4 0.6 0.1
v 0.4 0.7 0.1
v -0.1 0.6 0
v -0.1 0.7 0
v 0 0.6 0
v 0 0.7 0
v -0.4 0 -0.3
v -0.4 0.6 -0.3
v -0.4 1.1 -0.3
v -0.4 1.2 -0.3
v -0.3 0.1 -0.3
v -0.3 0.4 -0.3
v -0.3 0.5 -0.3
v -0.3 0.6 -0.3
v -0.3 1.1 -0.3
v -0.3 1.2 -0.3
v -0.2 0.5 -0.3
v -0.2 0.6 -0.3
v -0.2 1.1 -0.3
v -0.2 1.2 -0.3
v -0.1 0.5 -0.3
v -0.1 0.6 -0.3
v -0.1 1.1 -0.3
v -0.1 1.2 -0.3
v 0.2 0.5 -0.3
v 0.2 0.6 -0.3
v 0.2 1.1 -0.3
v 0.2 1.2 -0.3
v 0.3 0.5 -0.3
v 0.3 0.6 -0.3
v 0.3 1.1 -0.3
v 0.3 1.2 -0.3
v 0.4 0.1 -0.3
v 0.4 0.4 -0.3
v 0.4 0.5 -0.3
v 0.4 0.6 -0.3
v 0.4 1.1 -0.3
v 0.4 1.2 -0.3
v 0.5 0 -0.3
v 0.5 0.6 -0.3
v 0.5 1.1 -0.3
v 0.5 1.2 -0.3
v -0.4 0.6 -0.4
v -0.4 0.7 -0.4
v -0.4 1 -0.4
v -0.4 1.1 -0.4
v -0.3 0.6 -0.4
v -0.3 0.7 -0.4
v -0.3 1 -0.4
v -0.3 1.1 -0.4
v -0.2 0.6 -0.4
v -0.2 0.7 -0.4
v -0.2 1 -0.4
v -0.2 1.1 -0.4
v -0.1 0.6 -0.4
v -0.1 0.7 -0.4
v -0.1 1 -0.4
v -0.1 1.1 -0.4
v 0.2 0.6 -0.4
v 0.2 0.7 -0.4
v 0.2 1 -0.4
v 0.2 1.1 -0.4
v 0.3 0.6 -0.4
v 0.3 0.7 -0.4
v 0.3 1 -0.4
v 0.3 1.1 -0.4
v 0.4 0.6 -0.4
v 0.4 0.7 -0.4
v 0.4 1 -0.4
v 0.4 1.1 -0.4
v 0.5 0.6 -0.4
v 0.5 0.7 -0.4
v 0.5 1 -0.4
v 0.5 1.1 -0.4
v -0.4 0.7 -0.5
v -0.4 1 -0.5
v -0.3 0.7 -0.5
v -0.3 1 -0.5
v -0.2 0.7 -0.5
v -0.2 1 -0.5
v -0.1 0.7 -0.5
v -0.1 1 -0.5
v 0.2 0.7 -0.5
v 0.2 1 -0.5
v 0.3 0.7 -0.5
v 0.3 1 -0.5
v 0.4 0.7 -0.5
v 0.4 1 -0.5
v 0.5 0.7 -0.5
v 0.5 1 -0.5
v -0.4 0 0.4
v 0.5 0 0.4
v -0.4 0 -0.3
v 0.5 0 -0.3
v -0.4 0.6 -0.3
v -0.3 0.6 -0.3
v -0.2 0.6 -0.3
v -0.1 0.6 -0.3
v 0.2 0.6 -0.3
v 0.3 0.6 -0.3
v 0.4 0.6 -0.3
v 0.5 0.6 -0.3
v -0.4 0.6 -0.4
v -0.3 0.6 -0.4
v -0.2 0.6 -0.4
v -0.1 0.6 -0.4
v 0.2 0.6 -0.4
v 0.3 0.6 -0.4
v 0.4 0.6 -0.4
v 0.5 0.6 -0.4
v -0.4 0.7 -0.4
v -0.3 0.7 -0.4
v -0.2 0.7 -0.4
v -0.1 0.7 -0.4
v 0.2 0.7 -0.4
v 0.3 0.7 -0.4
v 0.4 0.7 -0.4
v 0.5 0.7 -0.4
v -0.4 0.7 -0.5
v -0.3 0.7 -0.5
v -0.2 0.7 -0.5
v -0.1 0.7 -0.5
v 0.2 0.7 -0.5
v 0.3 0.7 -0.5
v 0.4 0.7 -0.5
v 0.5 0.7 -0.5
v -0.4 0.5 0.4
v 0.5 0.5 0.4
v -0.3 0.5 0.3
v 0 0.5 0.3
v 0.2 0.5 0.3
v 0.4 0.5 0.3
v 0 0.5 0.2
v 0.2 0.5 0.2
v -0.4 0.5 -0.1
v -0.3 0.5 -0.1
v 0.4 0.5 -0.1
v 0.5 0.5 -0.1
v -0.3 0.6 0.3
v -0.2 0.6 0.3
v -0.1 0.6 0.3
v 0 0.6 0.3
v 0.2 0.6 0.3
v 0.3 0.6 0.3
v -0.3 0.6 0.2
v -0.2 0.6 0.2
v -0.1 0.6 0.2
v 0 0.6 0.2
v 0.2 0.6 0.2
v -0.3 0.6 0.1
v -0.1 0.6 0.1
v 0.3 0.6 0.1
v 0.4 0.6 0.1
v -0.2 0.6 0
v -0.1 0.6 0
v 0 0.6 0
v 0.1 0.6 0
v 0.2 0.6 0
v 0.4 0.6 0
v -0.3 0.6 -0.1
v -0.2 0.6 -0.1
v -0.1 0.6 -0.1
v 0 0.6 -0.1
v 0.1 0.6 -0.1
v 0.2 0.6 -0.1
v -0.2 0.7 0.3
v -0.1 0.7 0.3
v 0.3 0.7 0.3
v 0.4 0.7 0.3
v -0.3 0.7 0.2
v -0.2 0.7 0.2
v -0.1 0.7 0.2
v 0 0.7 0.2
v -0.3 0.7 0.1
v -0.1 0.7 0.1
v 0.3 0.7 0.1
v 0.4 0.7 0.1
v -0.2 0.7 0
v -0.1 0.7 0
v 0 0.7 0
v 0.1 0.7 0
v 0.2 0.7 0
v 0.4 0.7 0
v -0.2 0.7 -0.1
v -0.1 0.7 -0.1
v 0 0.7 -0.1
v 0.1 0.7 -0.1
v 0.2 0.7 -0.1
v 0.4 0.7 -0.1
v -0.4 1 -0.4
v -0.3 1 -0.4
v -0.2 1 -0.4
v -0.1 1 -0.4
v 0.2 1 -0.4
v 0.3 1 -0.4
v 0.4 1 -0.4
v 0.5 1 -0.4
v -0.4 1 -0.5
v -0.3 1 -0.5
v -0.2 1 -0.5
v -0.1 1 -0.5
v 0.2 1 -0.5
v 0.3 1 -0.5
v 0.4 1 -0.5
v 0.5 1 -0.5
v -0.4 1.1 -0.3
v -0.3 1.1 -0.3
v -0.2 1.1 -0.3
v -0.1 1.1 -0.3
v 0.2 1.1 -0.3
v 0.3 1.1 -0.3
v 0.4 1.1 -0.3
v 0.5 1.1 -0.3
v -0.4 1.1 -0.4
v -0.3 1.1 -0.4
v -0.2 1.1 -0.4
v -0.1 1.1 -0.4
v 0.2 1.1 -0.4
v 0.3 1.1 -0.4
v 0.4 1.1 -0.4
v 0.5 1.1 -0.4
v -0.4 1.2 -0.1
v 0.5 1.2 -0.1
v -0.3 1.2 -0.2
v -0.2 1.2 -0.2
v -0.1 1.2 -0.2
v 0.2 1.2 -0.2
v 0.3 1.2 -0.2
v 0.4 1.2 -0.2
v -0.4 1.2 -0.3
v -0.3 1.2 -0.3
v -0.2 1.2 -0.3
v -0.1 1.2 -0.3
v 0.2 1.2 -0.3
v 0.3 1.2 -0.3
v 0.4 1.2 -0.3
v 0.5 1.2 -0.3

# faces
f 3/2/1 2/2/1 1/2/1
f 4/2/1 2/2/1 3/2/1
f 5/2/1 3/2/1 1/2/1
f 5/1/1 4/1/1 3/1/1
f 6/2/1 2/2/1 4/2/1
f 6/1/1 4/1/1 5/1/1
f 7/2/1 5/2/1 1/2/1
f 7/2/1 6/2/1 5/2/1
f 8/2/1 6/2/1 7/2/1
f 9/2/1 2/2/1 6/2/1
f 9/2/1 6/2/1 8/2/1
f 10/2/1 2/2/1 9/2/1
f 12/1/1 10/1/1 9/1/1
f 12/2/1 11/2/1 10/2/1
f 13/2/1 11/2/1 12/2/1
f 15/1/1 12/1/1 9/1/1
f 15/1/1 13/1/1 12/1/1
f 16/2/1 14/2/1 13/2/1
f 16/1/1 13/1/1 15/1/1
f 17/2/1 14/2/1 16/2/1
f 18/2/1 9/2/1 8/2/1
f 18/1/1 15/1/1 9/1/1
f 19/2/1 16/2/1 15/2/1
f 19/1/1 15/1/1 18/1/1
f 20/2/1 16/2/1 19/2/1
f 21/2/1 18/2/1 8/2/1
f 21/2/1 19/2/1 18/2/1
f 22/2/1 19/2/1 21/2/1
f 25/3/1 24/3/1 23/3/1
f 26/3/1 24/3/1 25/3/1
f 27/3/1 24/3/1 26/3/1
f 28/3/1 24/3/1 27/3/1
f 29/3/1 27/3/1 26/3/1
f 30/3/1 27/3/1 29/3/1
f 35/3/1 32/3/1 31/3/1
f 36/3/1 32/3/1 35/3/1
f 37/3/1 34/3/1 33/3/1
f 38/3/1 34/3/1 37/3/1
f 41/3/1 40/3/1 39/3/1
f 42/3/1 40/3/1 41/3/1
f 45/3/1 44/3/1 43/3/1
f 46/3/1 44/3/1 45/3/1
f 49/3/1 48/3/1 47/3/1
f 50/3/1 48/3/1 49/3/1
f 53/3/1 52/3/1 51/3/1
f 54/3/1 52/3/1 53/3/1
f 57/3/1 56/3/1 55/3/1
f 58/3/1 56/3/1 57/3/1
f 59/3/2 60/3/2 63/3/2
f 63/3/2 60/3/2 64/3/2
f 61/3/2 62/3/2 65/3/2
f 65/3/2 62/3/2 66/3/2
f 67/3/2 68/3/2 69/3/2
f 69/3/2 68/3/2 70/3/2
f 70/3/2 71/3/2 72/3/2
f 72/3/2 71/3/2 73/3/2
f 74/3/2 75/3/2 76/3/2
f 76/3/2 75/3/2 77/3/2
f 78/3/2 79/3/2 80/3/2
f 80/3/2 79/3/2 81/3/2
f 78/3/2 80/3/2 82/3/2
f 82/3/2 80/3/2 83/3/2
f 81/3/2 79/3/2 84/3/2
f 84/3/2 79/3/2 85/3/2
f 86/2/2 87/2/2 88/2/2
f 88/2/2 87/2/2 89/2/2
f 86/2/2 88/2/2 90/2/2
f 88/1/2 89/1/2 90/1/2
f 89/2/2 87/2/2 91/2/2
f 90/1/2 89/1/2 91/1/2
f 86/2/2 90/2/2 92/2/2
f 90/2/2 91/2/2 92/2/2
f 92/2/2 91/2/2 93/2/2
f 91/2/2 87/2/2 94/2/2
f 93/2/2 91/2/2 94/2/2
f 94/2/2 87/2/2 95/2/2
f 94/1/2 95/1/2 97/1/2
f 95/2/2 96/2/2 97/2/2
f 97/2/2 96/2/2 98/2/2
f 94/1/2 97/1/2 100/1/2
f 97/1/2 98/1/2 100/1/2
f 98/2/2 99/2/2 101/2/2
f 100/1/2 98/1/2 101/1/2
f 101/2/2 99/2/2 102/2/2
f 93/2/2 94/2/2 103/2/2
f 94/1/2 100/1/2 103/1/2
f 100/2/2 101/2/2 104/2/2
f 103/1/2 100/1/2 104/1/2
f 104/2/2 101/2/2 105/2/2
f 93/2/2 103/2/2 106/2/2
f 103/2/2 104/2/2 106/2/2
f 106/2/2 104/2/2 107/2/2
f 110/2/3 109/2/3 108/2/3
f 111/2/3 109/2/3 110/2/3
f 112/1/3 111/1/3 110/1/3
f 113/2/3 109/2/3 111/2/3
f 113/1/3 111/1/3 112/1/3
f 114/2/3 113/2/3 112/2/3
f 115/2/3 109/2/3 113/2/3
f 115/2/3 113/2/3 114/2/3
f 116/2/3 114/2/3 112/2/3
f 116/4/3 115/4/3 114/4/3
f 117/2/3 109/2/3 115/2/3
f 117/4/3 115/4/3 116/4/3
f 118/1/3 112/1/3 110/1/3
f 118/2/3 116/2/3 112/2/3
f 118/2/3 117/2/3 116/2/3
f 119/2/3 109/2/3 117/2/3
f 119/2/3 117/2/3 118/2/3
f 120/2/3 110/2/3 108/2/3
f 120/1/3 118/1/3 110/1/3
f 120/1/3 119/1/3 118/1/3
f 121/2/3 109/2/3 119/2/3
f 121/1/3 119/1/3 120/1/3
f 122/2/3 120/2/3 108/2/3
f 122/2/3 121/2/3 120/2/3
f 123/2/3 109/2/3 121/2/3
f 123/2/3 121/2/3 122/2/3
f 126/3/3 125/3/3 124/3/3
f 128/3/3 126/3/3 124/3/3
f 128/3/3 127/3/3 126/3/3
f 129/3/3 127/3/3 128/3/3
f 130/3/3 128/3/3 124/3/3
f 131/3/3 128/3/3 130/3/3
f 134/3/3 133/3/3 132/3/3
f 136/3/3 134/3/3 132/3/3
f 136/3/3 135/3/3 134/3/3
f 137/3/3 135/3/3 136/3/3
f 140/3/3 139/3/3 138/3/3
f 141/3/3 139/3/3 140/3/3
f 145/3/3 143/3/3 142/3/3
f 146/3/3 143/3/3 145/3/3
f 147/3/3 145/3/3 144/3/3
f 148/3/3 145/3/3 147/3/3
f 151/3/3 150/3/3 149/3/3
f 152/3/3 150/3/3 151/3/3
f 155/3/3 154/3/3 153/3/3
f 156/3/3 154/3/3 155/3/3
f 159/3/3 158/3/3 157/3/3
f 160/3/3 158/3/3 159/3/3
f 163/2/3 162/2/3 161/2/3
f 164/2/3 162/2/3 163/2/3
f 165/2/3 162/2/3 164/2/3
f 166/4/3 165/4/3 164/4/3
f 167/4/3 165/4/3 166/4/3
f 169/4/3 165/4/3 167/4/3
f 170/4/3 169/4/3 168/4/3
f 171/4/3 165/4/3 169/4/3
f 171/4/3 169/4/3 170/4/3
f 173/4/3 165/4/3 171/4/3
f 174/4/3 173/4/3 172/4/3
f 175/4/3 165/4/3 173/4/3
f 175/4/3 173/4/3 174/4/3
f 177/4/3 165/4/3 175/4/3
f 178/2/3 162/2/3 165/2/3
f 178/4/3 165/4/3 177/4/3
f 179/2/3 177/2/3 176/2/3
f 179/2/3 178/2/3 177/2/3
f 180/2/3 162/2/3 178/2/3
f 180/2/3 178/2/3 179/2/3
f 181/3/4 182/3/4 183/3/4
f 183/3/4 182/3/4 184/3/4
f 185/3/4 186/3/4 187/3/4
f 187/3/4 186/3/4 188/3/4
f 189/3/4 190/3/4 191/3/4
f 191/3/4 190/3/4 192/3/4
f 193/2/4 194/2/4 197/2/4
f 197/2/4 194/2/4 198/2/4
f 198/2/4 194/2/4 199/2/4
f 199/2/4 194/2/4 200/2/4
f 195/2/4 196/2/4 201/2/4
f 201/2/4 196/2/4 202/2/4
f 199/1/4 200/1/4 203/1/4
f 198/2/4 199/2/4 203/2/4
f 203/1/4 200/1/4 204/1/4
f 201/1/4 202/1/4 205/1/4
f 205/1/4 202/1/4 206/1/4
f 203/2/4 204/2/4 207/2/4
f 198/2/4 203/2/4 207/2/4
f 207/2/4 204/2/4 208/2/4
f 205/2/4 206/2/4 209/2/4
f 209/2/4 206/2/4 210/2/4
f 207/1/4 208/1/4 211/1/4
f 198/2/4 207/2/4 211/2/4
f 211/1/4 208/1/4 212/1/4
f 209/1/4 210/1/4 213/1/4
f 213/1/4 210/1/4 214/1/4
f 211/2/4 212/2/4 215/2/4
f 198/2/4 211/2/4 215/2/4
f 215/2/4 212/2/4 216/2/4
f 213/2/4 214/2/4 217/2/4
f 217/2/4 214/2/4 218/2/4
f 193/2/4 197/2/4 219/2/4
f 197/1/4 198/1/4 219/1/4
f 198/2/4 215/2/4 220/2/4
f 219/1/4 198/1/4 220/1/4
f 215/1/4 216/1/4 221/1/4
f 220/2/4 215/2/4 221/2/4
f 221/1/4 216/1/4 222/1/4
f 217/1/4 218/1/4 223/1/4
f 223/1/4 218/1/4 224/1/4
f 221/2/4 222/2/4 225/2/4
f 219/2/4 220/2/4 225/2/4
f 193/2/4 219/2/4 225/2/4
f 220/2/4 221/2/4 225/2/4
f 225/2/4 222/2/4 226/2/4
f 223/2/4 224/2/4 227/2/4
f 227/2/4 224/2/4 228/2/4
f 229/2/4 230/2/4 233/2/4
f 233/2/4 230/2/4 234/2/4
f 231/2/4 232/2/4 235/2/4
f 235/2/4 232/2/4 236/2/4
f 233/1/4 234/1/4 237/1/4
f 237/1/4 234/1/4 238/1/4
f 235/1/4 236/1/4 239/1/4
f 239/1/4 236/1/4 240/1/4
f 237/2/4 238/2/4 241/2/4
f 241/2/4 238/2/4 242/2/4
f 239/2/4 240/2/4 243/2/4
f 243/2/4 240/2/4 244/2/4
f 241/1/4 242/1/4 245/1/4
f 245/1/4 242/1/4 246/1/4
f 243/1/4 244/1/4 247/1/4
f 247/1/4 244/1/4 248/1/4
f 245/2/4 246/2/4 249/2/4
f 249/2/4 246/2/4 250/2/4
f 247/2/4 248/2/4 251/2/4
f 251/2/4 248/2/4 252/2/4
f 249/1/4 250/1/4 253/1/4
f 253/1/4 250/1/4 254/1/4
f 251/1/4 252/1/4 255/1/4
f 255/1/4 252/1/4 256/1/4
f 253/2/4 254/2/4 257/2/4
f 257/2/4 254/2/4 258/2/4
f 255/2/4 256/2/4 259/2/4
f 259/2/4 256/2/4 260/2/4
f 261/2/4 262/2/4 263/2/4
f 263/2/4 262/2/4 264/2/4
f 263/1/4 264/1/4 265/1/4
f 265/1/4 264/1/4 266/1/4
f 265/2/4 266/2/4 267/2/4
f 267/2/4 266/2/4 268/2/4
f 267/1/4 268/1/4 269/1/4
f 269/1/4 268/1/4 270/1/4
f 269/2/4 270/2/4 271/2/4
f 271/2/4 270/2/4 272/2/4
f 271/1/4 272/1/4 273/1/4
f 273/1/4 272/1/4 274/1/4
f 273/2/4 274/2/4 275/2/4
f 275/2/4 274/2/4 276/2/4
f 279/2/5 278/2/5 277/2/5
f 280/2/5 278/2/5 279/2/5
f 289/2/5 282/2/5 281/2/5
f 290/1/5 283/1/5 282/1/5
f 290/2/5 282/2/5 289/2/5
f 291/2/5 284/2/5 283/2/5
f 291/1/5 283/1/5 290/1/5
f 292/1/5 285/1/5 284/1/5
f 292/2/5 284/2/5 291/2/5
f 293/2/5 286/2/5 285/2/5
f 293/1/5 285/1/5 292/1/5
f 294/1/5 287/1/5 286/1/5
f 294/2/5 286/2/5 293/2/5
f 295/2/5 288/2/5 287/2/5
f 295/1/5 287/1/5 294/1/5
f 296/2/5 288/2/5 295/2/5
f 305/2/5 298/2/5 297/2/5
f 306/1/5 299/1/5 298/1/5
f 306/2/5 298/2/5 305/2/5
f 307/2/5 300/2/5 299/2/5
f 307/1/5 299/1/5 306/1/5
f 308/1/5 301/1/5 300/1/5
f 308/2/5 300/2/5 307/2/5
f 309/2/5 302/2/5 301/2/5
f 309/1/5 301/1/5 308/1/5
f 310/1/5 303/1/5 302/1/5
f 310/2/5 302/2/5 309/2/5
f 311/2/5 304/2/5 303/2/5
f 311/1/5 303/1/5 310/1/5
f 312/2/5 304/2/5 311/2/5
f 313/2/6 314/2/6 315/2/6
f 315/2/6 314/2/6 316/2/6
f 316/2/6 314/2/6 317/2/6
f 317/2/6 314/2/6 318/2/6
f 316/3/6 317/3/6 319/3/6
f 319/3/6 317/3/6 320/3/6
f 313/2/6 315/2/6 321/2/6
f 321/2/6 315/2/6 322/2/6
f 318/2/6 314/2/6 323/2/6
f 323/2/6 314/2/6 324/2/6
f 325/3/6 326/3/6 331/3/6
f 331/3/6 326/3/6 332/3/6
f 327/3/6 328/3/6 333/3/6
f 333/3/6 328/3/6 334/3/6
f 329/3/6 330/3/6 335/3/6
f 334/3/6 335/3/6 338/3/6
f 335/3/6 330/3/6 338/3/6
f 336/3/6 337/3/6 340/3/6
f 340/3/6 337/3/6 341/3/6
f 338/3/6 339/3/6 342/3/6
f 334/3/6 338/3/6 342/3/6
f 342/3/6 339/3/6 343/3/6
f 343/3/6 339/3/6 344/3/6
f 344/3/6 339/3/6 345/3/6
f 336/3/6 340/3/6 346/3/6
f 346/3/6 340/3/6 347/3/6
f 341/3/6 342/3/6 348/3/6
f 348/3/6 342/3/6 349/3/6
f 343/3/6 344/3/6 350/3/6
f 350/3/6 344/3/6 351/3/6
f 352/3/6 353/3/6 357/3/6
f 357/3/6 353/3/6 358/3/6
f 356/3/6 357/3/6 360/3/6
f 358/3/6 359/3/6 360/3/6
f 357/3/6 358/3/6 360/3/6
f 360/3/6 359/3/6 361/3/6
f 354/3/6 355/3/6 362/3/6
f 362/3/6 355/3/6 363/3/6
f 361/3/6 359/3/6 365/3/6
f 365/3/6 359/3/6 366/3/6
f 364/3/6 365/3/6 370/3/6
f 370/3/6 365/3/6 371/3/6
f 366/3/6 367/3/6 372/3/6
f 372/3/6 367/3/6 373/3/6
f 368/3/6 369/3/6 374/3/6
f 374/3/6 369/3/6 375/3/6
f 376/2/6 377/2/6 384/2/6
f 377/1/6 378/1/6 385/1/6
f 384/2/6 377/2/6 385/2/6
f 378/2/6 379/2/6 386/2/6
f 385/1/6 378/1/6 386/1/6
f 379/1/6 380/1/6 387/1/6
f 386/2/6 379/2/6 387/2/6
f 380/2/6 381/2/6 388/2/6
f 387/1/6 380/1/6 388/1/6
f 381/1/6 382/1/6 389/1/6
f 388/2/6 381/2/6 389/2/6
f 382/2/6 383/2/6 390/2/6
f 389/1/6 382/1/6 390/1/6
f 390/2/6 383/2/6 391/2/6
f 392/2/6 393/2/6 400/2/6
f 393/1/6 394/1/6 401/1/6
f 400/2/6 393/2/6 401/2/6
f 394/2/6 395/2/6 402/2/6
f 401/1/6 394/1/6 402/1/6
f 395/1/6 396/1/6 403/1/6
f 402/2/6 395/2/6 403/2/6
f 396/2/6 397/2/6 404/2/6
f 403/1/6 396/1/6 404/1/6
f 397/1/6 398/1/6 405/1/6
f 404/2/6 397/2/6 405/2/6
f 398/2/6 399/2/6 406/2/6
f 405/1/6 398/1/6 406/1/6
f 406/2/6 399/2/6 407/2/6
f 408/2/6 409/2/6 410/2/6
f 410/2/6 409/2/6 411/2/6
f 411/2/6 409/2/6 412/2/6
f 412/2/6 409/2/6 413/2/6
f 413/2/6 409/2/6 414/2/6
f 414/2/6 409/2/6 415/2/6
f 408/2/6 410/2/6 416/2/6
f 410/1/6 411/1/6 417/1/6
f 416/2/6 410/2/6 417/2/6
f 411/2/6 412/2/6 418/2/6
f 417/1/6 411/1/6 418/1/6
f 412/1/6 413/1/6 419/1/6
f 418/2/6 412/2/6 419/2/6
f 413/2/6 414/2/6 420/2/6
f 419/1/6 413/1/6 420/1/6
f 414/1/6 415/1/6 421/1/6
f 420/2/6 414/2/6 421/2/6
f 415/2/6 409/2/6 422/2/6
f 421/1/6 415/1/6 422/1/6
f 422/2/6 409/2/6 423/2/6
