# MagicaVoxel @ Ephtracy

# group
o 

# material
mtllib small_bookcase_c_blue.mtl
usemtl palette

# normals
vn -1 0 0
vn 1 0 0
vn 0 0 1
vn 0 0 -1
vn 0 -1 0
vn 0 1 0

# texcoords
vt 0.720703 0.5
vt 0.787109 0.5
vt 0.974609 0.5

# verts
v -0.3 0 0.3
v -0.3 0 0.1
v -0.3 0 -0.2
v -0.3 0 -0.4
v -0.3 0.1 0.1
v -0.3 0.1 -0.2
v -0.3 1.4 0.3
v -0.3 1.4 -0.4
v 0.1 0 0.3
v 0.1 0 0.1
v 0.1 0 -0.2
v 0.1 0 -0.4
v 0.1 0.1 0.3
v 0.1 0.1 0.1
v 0.1 0.1 -0.2
v 0.1 0.1 -0.4
v 0.2 0.2 0.3
v 0.2 0.2 0.2
v 0.2 0.5 0.3
v 0.2 0.5 0.2
v 0.2 0.6 0.3
v 0.2 0.6 0.2
v 0.2 0.9 0.3
v 0.2 0.9 0.2
v 0.2 1 0.3
v 0.2 1 0.2
v 0.2 1.3 0.3
v 0.2 1.3 0.2
v -0.2 0.2 0.3
v -0.2 0.2 0.2
v -0.2 0.5 0.3
v -0.2 0.5 0.2
v -0.2 0.6 0.3
v -0.2 0.6 0.2
v -0.2 0.9 0.3
v -0.2 0.9 0.2
v -0.2 1 0.3
v -0.2 1 0.2
v -0.2 1.3 0.3
v -0.2 1.3 0.2
v -0.1 0 0.3
v -0.1 0 0.1
v -0.1 0 -0.2
v -0.1 0 -0.4
v -0.1 0.1 0.3
v -0.1 0.1 0.1
v -0.1 0.1 -0.2
v -0.1 0.1 -0.4
v 0.3 0 0.3
v 0.3 0 0.1
v 0.3 0 -0.2
v 0.3 0 -0.4
v 0.3 0.1 0.1
v 0.3 0.1 -0.2
v 0.3 1.4 0.3
v 0.3 1.4 -0.4
v -0.3 0 0.3
v -0.3 1.4 0.3
v -0.2 0.2 0.3
v -0.2 0.5 0.3
v -0.2 0.6 0.3
v -0.2 0.9 0.3
v -0.2 1 0.3
v -0.2 1.3 0.3
v -0.1 0 0.3
v -0.1 0.1 0.3
v 0.1 0 0.3
v 0.1 0.1 0.3
v 0.2 0.2 0.3
v 0.2 0.5 0.3
v 0.2 0.6 0.3
v 0.2 0.9 0.3
v 0.2 1 0.3
v 0.2 1.3 0.3
v 0.3 0 0.3
v 0.3 1.4 0.3
v -0.2 0.2 0.2
v -0.2 0.5 0.2
v -0.2 0.6 0.2
v -0.2 0.9 0.2
v -0.2 1 0.2
v -0.2 1.3 0.2
v -0.1 0.2 0.2
v -0.1 0.5 0.2
v -0.1 0.6 0.2
v -0.1 0.9 0.2
v -0.1 1 0.2
v -0.1 1.3 0.2
v 0 0.2 0.2
v 0 0.5 0.2
v 0 0.6 0.2
v 0 0.9 0.2
v 0 1 0.2
v 0 1.3 0.2
v 0.1 0.2 0.2
v 0.1 0.5 0.2
v 0.1 0.6 0.2
v 0.1 0.9 0.2
v 0.1 1 0.2
v 0.1 1.3 0.2
v 0.2 0.2 0.2
v 0.2 0.5 0.2
v 0.2 0.6 0.2
v 0.2 0.9 0.2
v 0.2 1 0.2
v 0.2 1.3 0.2
v -0.3 0 -0.2
v -0.3 0.1 -0.2
v -0.1 0 -0.2
v -0.1 0.1 -0.2
v 0.1 0 -0.2
v 0.1 0.1 -0.2
v 0.3 0 -0.2
v 0.3 0.1 -0.2
v -0.3 0 0.1
v -0.3 0.1 0.1
v -0.1 0 0.1
v -0.1 0.1 0.1
v 0.1 0 0.1
v 0.1 0.1 0.1
v 0.3 0 0.1
v 0.3 0.1 0.1
v -0.3 0 -0.4
v -0.3 1.4 -0.4
v -0.1 0 -0.4
v -0.1 0.1 -0.4
v 0.1 0 -0.4
v 0.1 0.1 -0.4
v 0.3 0 -0.4
v 0.3 1.4 -0.4
v -0.3 0 0.3
v -0.1 0 0.3
v 0.1 0 0.3
v 0.3 0 0.3
v -0.3 0 0.1
v -0.1 0 0.1
v 0.1 0 0.1
v 0.3 0 0.1
v -0.3 0 -0.2
v -0.1 0 -0.2
v 0.1 0 -0.2
v 0.3 0 -0.2
v -0.3 0 -0.4
v -0.1 0 -0.4
v 0.1 0 -0.4
v 0.3 0 -0.4
v -0.1 0.1 0.3
v 0.1 0.1 0.3
v -0.3 0.1 0.1
v -0.1 0.1 0.1
v 0.1 0.1 0.1
v 0.3 0.1 0.1
v -0.3 0.1 -0.2
v -0.1 0.1 -0.2
v 0.1 0.1 -0.2
v 0.3 0.1 -0.2
v -0.1 0.1 -0.4
v 0.1 0.1 -0.4
v -0.2 0.5 0.3
v 0.2 0.5 0.3
v -0.2 0.5 0.2
v -0.1 0.5 0.2
v 0 0.5 0.2
v 0.1 0.5 0.2
v 0.2 0.5 0.2
v -0.2 0.9 0.3
v 0.2 0.9 0.3
v -0.2 0.9 0.2
v -0.1 0.9 0.2
v 0 0.9 0.2
v 0.1 0.9 0.2
v 0.2 0.9 0.2
v -0.2 1.3 0.3
v 0.2 1.3 0.3
v -0.2 1.3 0.2
v -0.1 1.3 0.2
v 0 1.3 0.2
v 0.1 1.3 0.2
v 0.2 1.3 0.2
v -0.2 0.2 0.3
v 0.2 0.2 0.3
v -0.2 0.2 0.2
v -0.1 0.2 0.2
v 0 0.2 0.2
v 0.1 0.2 0.2
v 0.2 0.2 0.2
v -0.2 0.6 0.3
v 0.2 0.6 0.3
v -0.2 0.6 0.2
v -0.1 0.6 0.2
v 0 0.6 0.2
v 0.1 0.6 0.2
v 0.2 0.6 0.2
v -0.2 1 0.3
v 0.2 1 0.3
v -0.2 1 0.2
v -0.1 1 0.2
v 0 1 0.2
v 0.1 1 0.2
v 0.2 1 0.2
v -0.3 1.4 0.3
v 0.3 1.4 0.3
v -0.3 1.4 -0.4
v 0.3 1.4 -0.4

# faces
f 5/2/1 2/2/1 1/2/1
f 6/2/1 4/2/1 3/2/1
f 7/2/1 5/2/1 1/2/1
f 7/2/1 6/2/1 5/2/1
f 8/2/1 4/2/1 6/2/1
f 8/2/1 6/2/1 7/2/1
f 13/2/1 10/2/1 9/2/1
f 14/2/1 10/2/1 13/2/1
f 15/2/1 12/2/1 11/2/1
f 16/2/1 12/2/1 15/2/1
f 19/2/1 18/2/1 17/2/1
f 20/2/1 18/2/1 19/2/1
f 23/2/1 22/2/1 21/2/1
f 24/2/1 22/2/1 23/2/1
f 27/2/1 26/2/1 25/2/1
f 28/2/1 26/2/1 27/2/1
f 29/2/2 30/2/2 31/2/2
f 31/2/2 30/2/2 32/2/2
f 33/2/2 34/2/2 35/2/2
f 35/2/2 34/2/2 36/2/2
f 37/2/2 38/2/2 39/2/2
f 39/2/2 38/2/2 40/2/2
f 41/2/2 42/2/2 45/2/2
f 45/2/2 42/2/2 46/2/2
f 43/2/2 44/2/2 47/2/2
f 47/2/2 44/2/2 48/2/2
f 49/2/2 50/2/2 53/2/2
f 51/2/2 52/2/2 54/2/2
f 49/2/2 53/2/2 55/2/2
f 53/2/2 54/2/2 55/2/2
f 54/2/2 52/2/2 56/2/2
f 55/2/2 54/2/2 56/2/2
f 59/2/3 58/2/3 57/2/3
f 60/2/3 58/2/3 59/2/3
f 61/2/3 58/2/3 60/2/3
f 62/2/3 58/2/3 61/2/3
f 63/2/3 58/2/3 62/2/3
f 64/2/3 58/2/3 63/2/3
f 65/2/3 59/2/3 57/2/3
f 66/2/3 59/2/3 65/2/3
f 68/2/3 59/2/3 66/2/3
f 69/2/3 59/2/3 68/2/3
f 69/2/3 68/2/3 67/2/3
f 70/2/3 61/2/3 60/2/3
f 71/2/3 61/2/3 70/2/3
f 72/2/3 63/2/3 62/2/3
f 73/2/3 63/2/3 72/2/3
f 74/2/3 58/2/3 64/2/3
f 75/2/3 73/2/3 72/2/3
f 75/2/3 74/2/3 73/2/3
f 75/2/3 71/2/3 70/2/3
f 75/2/3 69/2/3 67/2/3
f 75/2/3 72/2/3 71/2/3
f 75/2/3 70/2/3 69/2/3
f 76/2/3 58/2/3 74/2/3
f 76/2/3 74/2/3 75/2/3
f 83/3/3 78/3/3 77/3/3
f 84/3/3 78/3/3 83/3/3
f 85/3/3 80/3/3 79/3/3
f 86/3/3 80/3/3 85/3/3
f 87/3/3 82/3/3 81/3/3
f 88/3/3 82/3/3 87/3/3
f 89/1/3 84/1/3 83/1/3
f 90/1/3 84/1/3 89/1/3
f 91/1/3 86/1/3 85/1/3
f 92/1/3 86/1/3 91/1/3
f 93/1/3 88/1/3 87/1/3
f 94/1/3 88/1/3 93/1/3
f 95/3/3 90/3/3 89/3/3
f 96/3/3 90/3/3 95/3/3
f 97/3/3 92/3/3 91/3/3
f 98/3/3 92/3/3 97/3/3
f 99/3/3 94/3/3 93/3/3
f 100/3/3 94/3/3 99/3/3
f 101/1/3 96/1/3 95/1/3
f 102/1/3 96/1/3 101/1/3
f 103/1/3 98/1/3 97/1/3
f 104/1/3 98/1/3 103/1/3
f 105/1/3 100/1/3 99/1/3
f 106/1/3 100/1/3 105/1/3
f 109/2/3 108/2/3 107/2/3
f 110/2/3 108/2/3 109/2/3
f 113/2/3 112/2/3 111/2/3
f 114/2/3 112/2/3 113/2/3
f 115/2/4 116/2/4 117/2/4
f 117/2/4 116/2/4 118/2/4
f 119/2/4 120/2/4 121/2/4
f 121/2/4 120/2/4 122/2/4
f 123/2/4 124/2/4 125/2/4
f 125/2/4 124/2/4 126/2/4
f 126/2/4 124/2/4 128/2/4
f 127/2/4 128/2/4 129/2/4
f 128/2/4 124/2/4 130/2/4
f 129/2/4 128/2/4 130/2/4
f 135/2/5 132/2/5 131/2/5
f 136/2/5 132/2/5 135/2/5
f 137/2/5 134/2/5 133/2/5
f 138/2/5 134/2/5 137/2/5
f 143/2/5 140/2/5 139/2/5
f 144/2/5 140/2/5 143/2/5
f 145/2/5 142/2/5 141/2/5
f 146/2/5 142/2/5 145/2/5
f 150/2/5 148/2/5 147/2/5
f 151/2/5 148/2/5 150/2/5
f 153/2/5 150/2/5 149/2/5
f 153/2/5 152/2/5 151/2/5
f 153/2/5 151/2/5 150/2/5
f 154/2/5 152/2/5 153/2/5
f 155/2/5 152/2/5 154/2/5
f 156/2/5 152/2/5 155/2/5
f 157/2/5 155/2/5 154/2/5
f 158/2/5 155/2/5 157/2/5
f 161/2/5 160/2/5 159/2/5
f 162/2/5 160/2/5 161/2/5
f 163/2/5 160/2/5 162/2/5
f 164/2/5 160/2/5 163/2/5
f 165/2/5 160/2/5 164/2/5
f 168/2/5 167/2/5 166/2/5
f 169/2/5 167/2/5 168/2/5
f 170/2/5 167/2/5 169/2/5
f 171/2/5 167/2/5 170/2/5
f 172/2/5 167/2/5 171/2/5
f 175/2/5 174/2/5 173/2/5
f 176/2/5 174/2/5 175/2/5
f 177/2/5 174/2/5 176/2/5
f 178/2/5 174/2/5 177/2/5
f 179/2/5 174/2/5 178/2/5
f 180/2/6 181/2/6 182/2/6
f 182/2/6 181/2/6 183/2/6
f 183/2/6 181/2/6 184/2/6
f 184/2/6 181/2/6 185/2/6
f 185/2/6 181/2/6 186/2/6
f 187/2/6 188/2/6 189/2/6
f 189/2/6 188/2/6 190/2/6
f 190/2/6 188/2/6 191/2/6
f 191/2/6 188/2/6 192/2/6
f 192/2/6 188/2/6 193/2/6
f 194/2/6 195/2/6 196/2/6
f 196/2/6 195/2/6 197/2/6
f 197/2/6 195/2/6 198/2/6
f 198/2/6 195/2/6 199/2/6
f 199/2/6 195/2/6 200/2/6
f 201/2/6 202/2/6 203/2/6
f 203/2/6 202/2/6 204/2/6
