# MagicaVoxel @ Ephtracy

# group
o 

# material
mtllib priestess_idle_1.mtl
usemtl palette

# normals
vn -1 0 0
vn 1 0 0
vn 0 0 1
vn 0 0 -1
vn 0 -1 0
vn 0 1 0

# texcoords
vt 0.755859 0.5
vt 0.787109 0.5
vt 0.818359 0.5
vt 0.939453 0.5
vt 0.947266 0.5
vt 0.951172 0.5
vt 0.970703 0.5

# verts
v -0.6 0.8 -0.2
v -0.6 0.8 -0.3
v -0.6 0.9 -0.2
v -0.6 0.9 -0.3
v -0.5 0 -0.2
v -0.5 0 -0.3
v -0.5 0.5 -0.2
v -0.5 0.5 -0.3
v -0.5 0.6 -0.2
v -0.5 0.6 -0.3
v -0.5 0.8 -0.2
v -0.5 0.8 -0.3
v -0.5 0.9 -0.2
v -0.5 0.9 -0.3
v -0.5 1 -0.2
v -0.5 1 -0.3
v -0.3 0 -0.1
v -0.3 0 -0.2
v -0.3 0 -0.3
v -0.3 0 -0.5
v -0.3 0.1 -0.4
v -0.3 0.1 -0.5
v -0.3 0.4 -0.2
v -0.3 0.4 -0.3
v -0.3 0.5 -0.2
v -0.3 0.5 -0.3
v -0.3 0.6 -0.1
v -0.3 0.6 -0.4
v -0.2 0.4 0
v -0.2 0.4 -0.1
v -0.2 0.6 -0.1
v -0.2 0.6 -0.4
v -0.2 0.7 0
v -0.2 0.7 -0.4
v -0.1 0.7 -0.1
v -0.1 0.7 -0.4
v -0.1 0.7 -0.5
v -0.1 1.1 -0.1
v -0.1 1.1 -0.5
v 0.2 0.3 0.4
v 0.2 0.3 0.1
v 0.2 0.4 0.4
v 0.2 0.4 0.1
v 0.2 0.5 0.4
v 0.2 0.5 0.1
v 0.3 0 0.1
v 0.3 0 -0.1
v 0.3 0.3 0.1
v 0.3 0.4 0.1
v 0.3 0.4 0
v 0.3 0.4 -0.1
v 0.4 0.2 0.3
v 0.4 0.2 0.1
v 0.4 0.3 0.3
v 0.4 0.3 0.1
v -0.4 0 -0.2
v -0.4 0 -0.3
v -0.4 0.4 -0.2
v -0.4 0.4 -0.3
v -0.4 0.5 -0.2
v -0.4 0.5 -0.3
v -0.4 0.6 -0.2
v -0.4 0.6 -0.3
v -0.4 0.8 -0.2
v -0.4 0.8 -0.3
v -0.4 0.9 -0.2
v -0.4 0.9 -0.3
v -0.4 1 -0.2
v -0.4 1 -0.3
v -0.3 0.8 -0.2
v -0.3 0.8 -0.3
v -0.3 0.9 -0.2
v -0.3 0.9 -0.3
v 0.4 0.7 -0.1
v 0.4 0.7 -0.4
v 0.4 0.7 -0.5
v 0.4 1.1 -0.1
v 0.4 1.1 -0.5
v 0.5 0.2 0.3
v 0.5 0.2 0.1
v 0.5 0.3 0.3
v 0.5 0.3 0.1
v 0.5 0.4 0
v 0.5 0.4 -0.4
v 0.5 0.7 0
v 0.5 0.7 -0.4
v 0.6 0.1 0.1
v 0.6 0.1 -0.4
v 0.6 0.3 0.1
v 0.6 0.4 0.1
v 0.6 0.4 -0.4
v 0.7 0 0.1
v 0.7 0 -0.5
v 0.7 0.1 0.1
v 0.7 0.1 -0.5
v 0.7 0.3 0.4
v 0.7 0.3 0.1
v 0.7 0.4 0.4
v 0.7 0.4 0.1
v 0.7 0.5 0.4
v 0.7 0.5 0.1
v 0.2 0.3 0.4
v 0.2 0.4 0.4
v 0.2 0.5 0.4
v 0.4 0.4 0.4
v 0.4 0.5 0.4
v 0.5 0.4 0.4
v 0.5 0.5 0.4
v 0.7 0.3 0.4
v 0.7 0.4 0.4
v 0.7 0.5 0.4
v 0.4 0.2 0.3
v 0.4 0.3 0.3
v 0.5 0.2 0.3
v 0.5 0.3 0.3
v 0.3 0 0.1
v 0.3 0.3 0.1
v 0.4 0 0.1
v 0.4 0.2 0.1
v 0.4 0.3 0.1
v 0.5 0 0.1
v 0.5 0.2 0.1
v 0.5 0.3 0.1
v 0.6 0.1 0.1
v 0.6 0.3 0.1
v 0.7 0 0.1
v 0.7 0.1 0.1
v -0.2 0.4 0
v -0.2 0.7 0
v 0.1 0.6 0
v 0.1 0.7 0
v 0.2 0.6 0
v 0.2 0.7 0
v 0.3 0.4 0
v 0.5 0.4 0
v 0.5 0.7 0
v -0.3 0 -0.1
v -0.3 0.6 -0.1
v -0.2 0.4 -0.1
v -0.2 0.6 -0.1
v -0.1 0.7 -0.1
v -0.1 1.1 -0.1
v 0 0.7 -0.1
v 0 0.9 -0.1
v 0.1 0.7 -0.1
v 0.2 0.7 -0.1
v 0.3 0 -0.1
v 0.3 0.4 -0.1
v 0.3 0.7 -0.1
v 0.3 0.9 -0.1
v 0.4 0.7 -0.1
v 0.4 1.1 -0.1
v -0.6 0.8 -0.2
v -0.6 0.9 -0.2
v -0.5 0 -0.2
v -0.5 0.5 -0.2
v -0.5 0.6 -0.2
v -0.5 0.8 -0.2
v -0.5 0.9 -0.2
v -0.5 1 -0.2
v -0.4 0 -0.2
v -0.4 0.4 -0.2
v -0.4 0.5 -0.2
v -0.4 0.6 -0.2
v -0.4 0.8 -0.2
v -0.4 0.9 -0.2
v -0.4 1 -0.2
v -0.3 0.4 -0.2
v -0.3 0.5 -0.2
v -0.3 0.8 -0.2
v -0.3 0.9 -0.2
v 0.2 0.3 0.1
v 0.2 0.4 0.1
v 0.2 0.5 0.1
v 0.3 0.3 0.1
v 0.3 0.4 0.1
v 0.4 0.4 0.1
v 0.4 0.5 0.1
v 0.5 0.4 0.1
v 0.5 0.5 0.1
v 0.6 0.3 0.1
v 0.6 0.4 0.1
v 0.7 0.3 0.1
v 0.7 0.4 0.1
v 0.7 0.5 0.1
v -0.6 0.8 -0.3
v -0.6 0.9 -0.3
v -0.5 0 -0.3
v -0.5 0.5 -0.3
v -0.5 0.6 -0.3
v -0.5 0.8 -0.3
v -0.5 0.9 -0.3
v -0.5 1 -0.3
v -0.4 0 -0.3
v -0.4 0.4 -0.3
v -0.4 0.5 -0.3
v -0.4 0.6 -0.3
v -0.4 0.8 -0.3
v -0.4 0.9 -0.3
v -0.4 1 -0.3
v -0.3 0.4 -0.3
v -0.3 0.5 -0.3
v -0.3 0.8 -0.3
v -0.3 0.9 -0.3
v -0.3 0.1 -0.4
v -0.3 0.6 -0.4
v -0.2 0.6 -0.4
v -0.2 0.7 -0.4
v -0.1 0.7 -0.4
v 0.4 0.7 -0.4
v 0.5 0.4 -0.4
v 0.5 0.7 -0.4
v 0.6 0.1 -0.4
v 0.6 0.4 -0.4
v -0.3 0 -0.5
v -0.3 0.1 -0.5
v -0.1 0.7 -0.5
v -0.1 1.1 -0.5
v 0.4 0.7 -0.5
v 0.4 1.1 -0.5
v 0.7 0 -0.5
v 0.7 0.1 -0.5
v 0.3 0 0.1
v 0.4 0 0.1
v 0.5 0 0.1
v 0.7 0 0.1
v 0.5 0 0
v 0.6 0 0
v -0.3 0 -0.1
v 0.3 0 -0.1
v -0.5 0 -0.2
v -0.4 0 -0.2
v -0.3 0 -0.2
v 0.4 0 -0.2
v -0.5 0 -0.3
v -0.4 0 -0.3
v -0.3 0 -0.3
v -0.2 0 -0.3
v -0.2 0 -0.4
v 0.6 0 -0.4
v -0.3 0 -0.5
v 0.7 0 -0.5
v 0.4 0.2 0.3
v 0.5 0.2 0.3
v 0.4 0.2 0.1
v 0.5 0.2 0.1
v 0.2 0.3 0.4
v 0.7 0.3 0.4
v 0.4 0.3 0.3
v 0.5 0.3 0.3
v 0.2 0.3 0.1
v 0.3 0.3 0.1
v 0.4 0.3 0.1
v 0.5 0.3 0.1
v 0.6 0.3 0.1
v 0.7 0.3 0.1
v -0.2 0.4 0
v 0.3 0.4 0
v -0.2 0.4 -0.1
v 0.3 0.4 -0.1
v -0.4 0.4 -0.2
v -0.3 0.4 -0.2
v -0.4 0.4 -0.3
v -0.3 0.4 -0.3
v -0.1 0.7 -0.4
v 0.4 0.7 -0.4
v -0.1 0.7 -0.5
v 0.4 0.7 -0.5
v -0.6 0.8 -0.2
v -0.5 0.8 -0.2
v -0.4 0.8 -0.2
v -0.3 0.8 -0.2
v -0.6 0.8 -0.3
v -0.5 0.8 -0.3
v -0.4 0.8 -0.3
v -0.3 0.8 -0.3
v 0.6 0.1 0.1
v 0.7 0.1 0.1
v -0.3 0.1 -0.4
v 0.6 0.1 -0.4
v -0.3 0.1 -0.5
v 0.7 0.1 -0.5
v 0.3 0.4 0.1
v 0.4 0.4 0.1
v 0.5 0.4 0.1
v 0.6 0.4 0.1
v 0.3 0.4 0
v 0.5 0.4 0
v 0.5 0.4 -0.4
v 0.6 0.4 -0.4
v 0.2 0.5 0.4
v 0.4 0.5 0.4
v 0.5 0.5 0.4
v 0.7 0.5 0.4
v 0.2 0.5 0.1
v 0.4 0.5 0.1
v 0.5 0.5 0.1
v 0.7 0.5 0.1
v -0.4 0.5 -0.2
v -0.3 0.5 -0.2
v -0.4 0.5 -0.3
v -0.3 0.5 -0.3
v -0.3 0.6 -0.1
v -0.2 0.6 -0.1
v -0.3 0.6 -0.4
v -0.2 0.6 -0.4
v -0.2 0.7 0
v 0.1 0.7 0
v 0.2 0.7 0
v 0.5 0.7 0
v -0.1 0.7 -0.1
v 0 0.7 -0.1
v 0.1 0.7 -0.1
v 0.2 0.7 -0.1
v 0.3 0.7 -0.1
v 0.4 0.7 -0.1
v -0.2 0.7 -0.4
v -0.1 0.7 -0.4
v 0.4 0.7 -0.4
v 0.5 0.7 -0.4
v -0.6 0.9 -0.2
v -0.5 0.9 -0.2
v -0.4 0.9 -0.2
v -0.3 0.9 -0.2
v -0.6 0.9 -0.3
v -0.5 0.9 -0.3
v -0.4 0.9 -0.3
v -0.3 0.9 -0.3
v -0.5 1 -0.2
v -0.4 1 -0.2
v -0.5 1 -0.3
v -0.4 1 -0.3
v -0.1 1.1 -0.1
v 0.4 1.1 -0.1
v -0.1 1.1 -0.5
v 0.4 1.1 -0.5

# faces
f 3/2/1 2/2/1 1/2/1
f 4/2/1 2/2/1 3/2/1
f 7/2/1 6/2/1 5/2/1
f 8/2/1 6/2/1 7/2/1
f 9/4/1 8/4/1 7/4/1
f 10/4/1 8/4/1 9/4/1
f 11/2/1 10/2/1 9/2/1
f 12/2/1 10/2/1 11/2/1
f 15/2/1 14/2/1 13/2/1
f 16/2/1 14/2/1 15/2/1
f 21/5/1 20/5/1 19/5/1
f 22/5/1 20/5/1 21/5/1
f 23/5/1 18/5/1 17/5/1
f 23/7/1 19/7/1 18/7/1
f 24/5/1 21/5/1 19/5/1
f 24/7/1 19/7/1 23/7/1
f 25/5/1 23/5/1 17/5/1
f 26/5/1 21/5/1 24/5/1
f 27/5/1 25/5/1 17/5/1
f 27/5/1 26/5/1 25/5/1
f 28/5/1 21/5/1 26/5/1
f 28/5/1 26/5/1 27/5/1
f 31/5/1 30/5/1 29/5/1
f 33/5/1 31/5/1 29/5/1
f 33/5/1 32/5/1 31/5/1
f 34/5/1 32/5/1 33/5/1
f 38/3/1 36/3/1 35/3/1
f 38/3/1 37/3/1 36/3/1
f 39/3/1 37/3/1 38/3/1
f 42/1/1 41/1/1 40/1/1
f 43/1/1 41/1/1 42/1/1
f 44/6/1 43/6/1 42/6/1
f 45/6/1 43/6/1 44/6/1
f 48/5/1 47/5/1 46/5/1
f 49/5/1 47/5/1 48/5/1
f 50/5/1 47/5/1 49/5/1
f 51/5/1 47/5/1 50/5/1
f 54/4/1 53/4/1 52/4/1
f 55/4/1 53/4/1 54/4/1
f 56/2/2 57/2/2 58/2/2
f 58/2/2 57/2/2 59/2/2
f 60/4/2 61/4/2 62/4/2
f 62/4/2 61/4/2 63/4/2
f 62/2/2 63/2/2 64/2/2
f 64/2/2 63/2/2 65/2/2
f 66/2/2 67/2/2 68/2/2
f 68/2/2 67/2/2 69/2/2
f 70/2/2 71/2/2 72/2/2
f 72/2/2 71/2/2 73/2/2
f 74/3/2 75/3/2 77/3/2
f 75/3/2 76/3/2 77/3/2
f 77/3/2 76/3/2 78/3/2
f 79/4/2 80/4/2 81/4/2
f 81/4/2 80/4/2 82/4/2
f 83/5/2 84/5/2 85/5/2
f 85/5/2 84/5/2 86/5/2
f 87/5/2 88/5/2 89/5/2
f 89/5/2 88/5/2 90/5/2
f 90/5/2 88/5/2 91/5/2
f 92/5/2 93/5/2 94/5/2
f 94/5/2 93/5/2 95/5/2
f 96/1/2 97/1/2 98/1/2
f 98/1/2 97/1/2 99/1/2
f 98/6/2 99/6/2 100/6/2
f 100/6/2 99/6/2 101/6/2
f 105/1/3 103/1/3 102/1/3
f 105/6/3 104/6/3 103/6/3
f 106/6/3 104/6/3 105/6/3
f 107/1/3 105/1/3 102/1/3
f 107/5/3 106/5/3 105/5/3
f 108/5/3 106/5/3 107/5/3
f 109/1/3 107/1/3 102/1/3
f 110/6/3 108/6/3 107/6/3
f 110/1/3 107/1/3 109/1/3
f 111/6/3 108/6/3 110/6/3
f 114/4/3 113/4/3 112/4/3
f 115/4/3 113/4/3 114/4/3
f 118/5/3 117/5/3 116/5/3
f 119/5/3 117/5/3 118/5/3
f 120/5/3 117/5/3 119/5/3
f 121/7/3 119/7/3 118/7/3
f 122/7/3 119/7/3 121/7/3
f 124/5/3 122/5/3 121/5/3
f 124/5/3 123/5/3 122/5/3
f 125/5/3 123/5/3 124/5/3
f 126/5/3 124/5/3 121/5/3
f 127/5/3 124/5/3 126/5/3
f 130/5/3 129/5/3 128/5/3
f 131/5/3 129/5/3 130/5/3
f 132/5/3 130/5/3 128/5/3
f 132/4/3 131/4/3 130/4/3
f 133/4/3 131/4/3 132/4/3
f 134/5/3 132/5/3 128/5/3
f 134/5/3 133/5/3 132/5/3
f 135/5/3 133/5/3 134/5/3
f 136/5/3 133/5/3 135/5/3
f 139/5/3 138/5/3 137/5/3
f 140/5/3 138/5/3 139/5/3
f 143/3/3 142/3/3 141/3/3
f 144/3/3 142/3/3 143/3/3
f 145/4/3 144/4/3 143/4/3
f 146/4/3 144/4/3 145/4/3
f 147/5/3 139/5/3 137/5/3
f 148/5/3 139/5/3 147/5/3
f 149/4/3 144/4/3 146/4/3
f 150/3/3 142/3/3 144/3/3
f 150/4/3 144/4/3 149/4/3
f 151/3/3 150/3/3 149/3/3
f 152/3/3 142/3/3 150/3/3
f 152/3/3 150/3/3 151/3/3
f 158/2/3 154/2/3 153/2/3
f 159/2/3 154/2/3 158/2/3
f 161/2/3 156/2/3 155/2/3
f 162/2/3 156/2/3 161/2/3
f 163/4/3 157/4/3 156/4/3
f 163/2/3 156/2/3 162/2/3
f 164/2/3 160/2/3 159/2/3
f 164/4/3 157/4/3 163/4/3
f 164/2/3 158/2/3 157/2/3
f 164/2/3 159/2/3 158/2/3
f 165/2/3 160/2/3 164/2/3
f 166/2/3 160/2/3 165/2/3
f 167/2/3 160/2/3 166/2/3
f 168/4/3 163/4/3 162/4/3
f 169/4/3 163/4/3 168/4/3
f 170/2/3 166/2/3 165/2/3
f 171/2/3 166/2/3 170/2/3
f 172/1/4 173/1/4 175/1/4
f 173/6/4 174/6/4 176/6/4
f 175/1/4 173/1/4 176/1/4
f 176/6/4 174/6/4 177/6/4
f 177/6/4 174/6/4 178/6/4
f 177/5/4 178/5/4 179/5/4
f 179/5/4 178/5/4 180/5/4
f 179/6/4 180/6/4 182/6/4
f 181/1/4 182/1/4 183/1/4
f 182/6/4 180/6/4 184/6/4
f 183/1/4 182/1/4 184/1/4
f 184/6/4 180/6/4 185/6/4
f 186/2/4 187/2/4 191/2/4
f 191/2/4 187/2/4 192/2/4
f 188/2/4 189/2/4 194/2/4
f 194/2/4 189/2/4 195/2/4
f 189/4/4 190/4/4 196/4/4
f 195/2/4 189/2/4 196/2/4
f 192/2/4 193/2/4 197/2/4
f 196/4/4 190/4/4 197/4/4
f 190/2/4 191/2/4 197/2/4
f 191/2/4 192/2/4 197/2/4
f 197/2/4 193/2/4 198/2/4
f 198/2/4 193/2/4 199/2/4
f 199/2/4 193/2/4 200/2/4
f 195/4/4 196/4/4 201/4/4
f 201/4/4 196/4/4 202/4/4
f 198/2/4 199/2/4 203/2/4
f 203/2/4 199/2/4 204/2/4
f 205/5/4 206/5/4 207/5/4
f 207/5/4 208/5/4 209/5/4
f 207/5/4 209/5/4 210/5/4
f 205/5/4 207/5/4 211/5/4
f 207/5/4 210/5/4 211/5/4
f 211/5/4 210/5/4 212/5/4
f 205/5/4 211/5/4 213/5/4
f 213/5/4 211/5/4 214/5/4
f 217/3/4 218/3/4 219/3/4
f 219/3/4 218/3/4 220/3/4
f 215/5/4 216/5/4 221/5/4
f 221/5/4 216/5/4 222/5/4
f 227/7/5 225/7/5 224/7/5
f 227/5/5 226/5/5 225/5/5
f 228/5/5 226/5/5 227/5/5
f 230/5/5 224/5/5 223/5/5
f 233/5/5 230/5/5 229/5/5
f 234/7/5 227/7/5 224/7/5
f 234/5/5 230/5/5 233/5/5
f 234/7/5 228/7/5 227/7/5
f 234/5/5 224/5/5 230/5/5
f 235/2/5 232/2/5 231/2/5
f 236/2/5 232/2/5 235/2/5
f 237/7/5 234/7/5 233/7/5
f 238/7/5 234/7/5 237/7/5
f 239/7/5 234/7/5 238/7/5
f 239/5/5 238/5/5 237/5/5
f 240/5/5 226/5/5 228/5/5
f 240/7/5 234/7/5 239/7/5
f 240/7/5 228/7/5 234/7/5
f 241/5/5 239/5/5 237/5/5
f 241/5/5 240/5/5 239/5/5
f 242/5/5 226/5/5 240/5/5
f 242/5/5 240/5/5 241/5/5
f 245/4/5 244/4/5 243/4/5
f 246/4/5 244/4/5 245/4/5
f 249/1/5 248/1/5 247/1/5
f 250/1/5 248/1/5 249/1/5
f 251/1/5 249/1/5 247/1/5
f 252/1/5 249/1/5 251/1/5
f 253/1/5 249/1/5 252/1/5
f 254/1/5 248/1/5 250/1/5
f 255/1/5 248/1/5 254/1/5
f 256/1/5 248/1/5 255/1/5
f 259/5/5 258/5/5 257/5/5
f 260/5/5 258/5/5 259/5/5
f 263/4/5 262/4/5 261/4/5
f 264/4/5 262/4/5 263/4/5
f 267/3/5 266/3/5 265/3/5
f 268/3/5 266/3/5 267/3/5
f 273/2/5 270/2/5 269/2/5
f 274/2/5 270/2/5 273/2/5
f 275/2/5 272/2/5 271/2/5
f 276/2/5 272/2/5 275/2/5
f 277/5/6 278/5/6 280/5/6
f 279/5/6 280/5/6 281/5/6
f 280/5/6 278/5/6 282/5/6
f 281/5/6 280/5/6 282/5/6
f 283/5/6 284/5/6 287/5/6
f 285/5/6 286/5/6 287/5/6
f 284/5/6 285/5/6 287/5/6
f 287/5/6 286/5/6 288/5/6
f 288/5/6 286/5/6 289/5/6
f 289/5/6 286/5/6 290/5/6
f 291/6/6 292/6/6 295/6/6
f 292/5/6 293/5/6 296/5/6
f 295/6/6 292/6/6 296/6/6
f 293/6/6 294/6/6 297/6/6
f 296/5/6 293/5/6 297/5/6
f 297/6/6 294/6/6 298/6/6
f 299/4/6 300/4/6 301/4/6
f 301/4/6 300/4/6 302/4/6
f 303/5/6 304/5/6 305/5/6
f 305/5/6 304/5/6 306/5/6
f 307/5/6 308/5/6 311/5/6
f 311/5/6 308/5/6 312/5/6
f 308/4/6 309/4/6 313/4/6
f 312/5/6 308/5/6 313/5/6
f 309/5/6 310/5/6 314/5/6
f 313/4/6 309/4/6 314/4/6
f 314/5/6 310/5/6 315/5/6
f 315/5/6 310/5/6 316/5/6
f 307/5/6 311/5/6 317/5/6
f 317/5/6 311/5/6 318/5/6
f 316/5/6 310/5/6 319/5/6
f 319/5/6 310/5/6 320/5/6
f 321/2/6 322/2/6 325/2/6
f 325/2/6 322/2/6 326/2/6
f 323/2/6 324/2/6 327/2/6
f 327/2/6 324/2/6 328/2/6
f 329/2/6 330/2/6 331/2/6
f 331/2/6 330/2/6 332/2/6
f 333/3/6 334/3/6 335/3/6
f 335/3/6 334/3/6 336/3/6
