# MagicaVoxel @ Ephtracy

# group
o 

# material
mtllib priestess_walk_3.mtl
usemtl palette

# normals
vn -1 0 0
vn 1 0 0
vn 0 0 1
vn 0 0 -1
vn 0 -1 0
vn 0 1 0

# texcoords
vt 0.755859 0.5
vt 0.787109 0.5
vt 0.818359 0.5
vt 0.939453 0.5
vt 0.947266 0.5
vt 0.951172 0.5
vt 0.970703 0.5

# verts
v -0.5 0.9 -0.2
v -0.5 0.9 -0.3
v -0.5 1 -0.2
v -0.5 1 -0.3
v -0.4 0.1 -0.2
v -0.4 0.1 -0.3
v -0.4 0.6 -0.2
v -0.4 0.6 -0.3
v -0.4 0.7 -0.2
v -0.4 0.7 -0.3
v -0.4 0.9 -0.2
v -0.4 0.9 -0.3
v -0.4 1 -0.2
v -0.4 1 -0.3
v -0.4 1.1 -0.2
v -0.4 1.1 -0.3
v -0.3 0 -0.1
v -0.3 0 -0.2
v -0.3 0 -0.3
v -0.3 0 -0.5
v -0.3 0.1 -0.2
v -0.3 0.1 -0.3
v -0.3 0.1 -0.4
v -0.3 0.1 -0.5
v -0.3 0.6 -0.2
v -0.3 0.6 -0.3
v -0.3 0.7 -0.2
v -0.3 0.7 -0.3
v -0.3 0.8 -0.1
v -0.3 0.8 -0.2
v -0.3 0.8 -0.3
v -0.3 0.8 -0.4
v -0.2 0.4 0
v -0.2 0.4 -0.1
v -0.2 0.7 0
v -0.2 0.7 -0.1
v -0.1 0.7 -0.4
v -0.1 0.7 -0.5
v -0.1 0.8 -0.1
v -0.1 0.8 -0.4
v -0.1 1.1 -0.1
v -0.1 1.1 -0.5
v 0.2 0.3 0.4
v 0.2 0.3 0.1
v 0.2 0.4 0.4
v 0.2 0.4 0.1
v 0.2 0.5 0.4
v 0.2 0.5 0.1
v 0.3 0 0.1
v 0.3 0 -0.1
v 0.3 0.3 0.1
v 0.3 0.4 0.1
v 0.3 0.4 0
v 0.3 0.4 -0.1
v 0.4 0.2 0.3
v 0.4 0.2 0.1
v 0.4 0.3 0.3
v 0.4 0.3 0.1
v -0.3 0.8 -0.2
v -0.3 0.8 -0.3
v -0.3 0.9 -0.2
v -0.3 0.9 -0.3
v -0.3 1 -0.2
v -0.3 1 -0.3
v -0.3 1.1 -0.2
v -0.3 1.1 -0.3
v -0.2 0.9 -0.2
v -0.2 0.9 -0.3
v -0.2 1 -0.2
v -0.2 1 -0.3
v 0.4 0.7 -0.1
v 0.4 0.7 -0.4
v 0.4 0.7 -0.5
v 0.4 1.1 -0.1
v 0.4 1.1 -0.5
v 0.5 0.2 0.3
v 0.5 0.2 0.1
v 0.5 0.3 0.3
v 0.5 0.3 0.1
v 0.5 0.4 0
v 0.5 0.4 -0.4
v 0.5 0.7 0
v 0.5 0.7 -0.4
v 0.6 0.1 0.1
v 0.6 0.1 -0.4
v 0.6 0.3 0.1
v 0.6 0.4 0.1
v 0.6 0.4 -0.4
v 0.7 0 0.1
v 0.7 0 -0.5
v 0.7 0.1 0.1
v 0.7 0.1 -0.5
v 0.7 0.3 0.4
v 0.7 0.3 0.1
v 0.7 0.4 0.4
v 0.7 0.4 0.1
v 0.7 0.5 0.4
v 0.7 0.5 0.1
v 0.2 0.3 0.4
v 0.2 0.4 0.4
v 0.2 0.5 0.4
v 0.4 0.4 0.4
v 0.4 0.5 0.4
v 0.5 0.4 0.4
v 0.5 0.5 0.4
v 0.7 0.3 0.4
v 0.7 0.4 0.4
v 0.7 0.5 0.4
v 0.4 0.2 0.3
v 0.4 0.3 0.3
v 0.5 0.2 0.3
v 0.5 0.3 0.3
v 0.3 0 0.1
v 0.3 0.3 0.1
v 0.4 0 0.1
v 0.4 0.2 0.1
v 0.4 0.3 0.1
v 0.5 0 0.1
v 0.5 0.2 0.1
v 0.5 0.3 0.1
v 0.6 0.1 0.1
v 0.6 0.3 0.1
v 0.7 0 0.1
v 0.7 0.1 0.1
v -0.2 0.4 0
v -0.2 0.7 0
v 0.1 0.6 0
v 0.1 0.7 0
v 0.2 0.6 0
v 0.2 0.7 0
v 0.3 0.4 0
v 0.5 0.4 0
v 0.5 0.7 0
v -0.3 0 -0.1
v -0.3 0.8 -0.1
v -0.2 0.4 -0.1
v -0.2 0.7 -0.1
v -0.1 0.7 -0.1
v -0.1 0.8 -0.1
v -0.1 1.1 -0.1
v 5.96046e-08 0.7 -0.1
v 5.96046e-08 0.9 -0.1
v 0.1 0.7 -0.1
v 0.2 0.7 -0.1
v 0.3 0 -0.1
v 0.3 0.4 -0.1
v 0.3 0.7 -0.1
v 0.3 0.9 -0.1
v 0.4 0.7 -0.1
v 0.4 1.1 -0.1
v -0.5 0.9 -0.2
v -0.5 1 -0.2
v -0.4 0.1 -0.2
v -0.4 0.6 -0.2
v -0.4 0.7 -0.2
v -0.4 0.9 -0.2
v -0.4 1 -0.2
v -0.4 1.1 -0.2
v -0.3 0.1 -0.2
v -0.3 0.6 -0.2
v -0.3 0.7 -0.2
v -0.3 0.8 -0.2
v -0.3 0.9 -0.2
v -0.3 1 -0.2
v -0.3 1.1 -0.2
v -0.2 0.9 -0.2
v -0.2 1 -0.2
v 0.2 0.3 0.1
v 0.2 0.4 0.1
v 0.2 0.5 0.1
v 0.3 0.3 0.1
v 0.3 0.4 0.1
v 0.4 0.4 0.1
v 0.4 0.5 0.1
v 0.5 0.4 0.1
v 0.5 0.5 0.1
v 0.6 0.3 0.1
v 0.6 0.4 0.1
v 0.7 0.3 0.1
v 0.7 0.4 0.1
v 0.7 0.5 0.1
v -0.5 0.9 -0.3
v -0.5 1 -0.3
v -0.4 0.1 -0.3
v -0.4 0.6 -0.3
v -0.4 0.7 -0.3
v -0.4 0.9 -0.3
v -0.4 1 -0.3
v -0.4 1.1 -0.3
v -0.3 0.1 -0.3
v -0.3 0.6 -0.3
v -0.3 0.7 -0.3
v -0.3 0.8 -0.3
v -0.3 0.9 -0.3
v -0.3 1 -0.3
v -0.3 1.1 -0.3
v -0.2 0.9 -0.3
v -0.2 1 -0.3
v -0.3 0.1 -0.4
v -0.3 0.8 -0.4
v -0.1 0.7 -0.4
v -0.1 0.8 -0.4
v 0.4 0.7 -0.4
v 0.5 0.4 -0.4
v 0.5 0.7 -0.4
v 0.6 0.1 -0.4
v 0.6 0.4 -0.4
v -0.3 0 -0.5
v -0.3 0.1 -0.5
v -0.1 0.7 -0.5
v -0.1 1.1 -0.5
v 0.4 0.7 -0.5
v 0.4 1.1 -0.5
v 0.7 0 -0.5
v 0.7 0.1 -0.5
v 0.3 0 0.1
v 0.4 0 0.1
v 0.5 0 0.1
v 0.7 0 0.1
v 0.5 0 0
v 0.6 0 0
v -0.3 0 -0.1
v 0.3 0 -0.1
v -0.3 0 -0.2
v 0.4 0 -0.2
v -0.3 0 -0.3
v -0.2 0 -0.3
v -0.2 0 -0.4
v 0.6 0 -0.4
v -0.3 0 -0.5
v 0.7 0 -0.5
v -0.4 0.1 -0.2
v -0.3 0.1 -0.2
v -0.4 0.1 -0.3
v -0.3 0.1 -0.3
v 0.4 0.2 0.3
v 0.5 0.2 0.3
v 0.4 0.2 0.1
v 0.5 0.2 0.1
v 0.2 0.3 0.4
v 0.7 0.3 0.4
v 0.4 0.3 0.3
v 0.5 0.3 0.3
v 0.2 0.3 0.1
v 0.3 0.3 0.1
v 0.4 0.3 0.1
v 0.5 0.3 0.1
v 0.6 0.3 0.1
v 0.7 0.3 0.1
v -0.2 0.4 0
v 0.3 0.4 0
v -0.2 0.4 -0.1
v 0.3 0.4 -0.1
v -0.1 0.7 -0.4
v 0.4 0.7 -0.4
v -0.1 0.7 -0.5
v 0.4 0.7 -0.5
v -0.5 0.9 -0.2
v -0.4 0.9 -0.2
v -0.3 0.9 -0.2
v -0.2 0.9 -0.2
v -0.5 0.9 -0.3
v -0.4 0.9 -0.3
v -0.3 0.9 -0.3
v -0.2 0.9 -0.3
v 0.6 0.1 0.1
v 0.7 0.1 0.1
v -0.3 0.1 -0.4
v 0.6 0.1 -0.4
v -0.3 0.1 -0.5
v 0.7 0.1 -0.5
v 0.3 0.4 0.1
v 0.4 0.4 0.1
v 0.5 0.4 0.1
v 0.6 0.4 0.1
v 0.3 0.4 0
v 0.5 0.4 0
v 0.5 0.4 -0.4
v 0.6 0.4 -0.4
v 0.2 0.5 0.4
v 0.4 0.5 0.4
v 0.5 0.5 0.4
v 0.7 0.5 0.4
v 0.2 0.5 0.1
v 0.4 0.5 0.1
v 0.5 0.5 0.1
v 0.7 0.5 0.1
v -0.2 0.7 0
v 0.1 0.7 0
v 0.2 0.7 0
v 0.5 0.7 0
v -0.2 0.7 -0.1
v -0.1 0.7 -0.1
v 5.96046e-08 0.7 -0.1
v 0.1 0.7 -0.1
v 0.2 0.7 -0.1
v 0.3 0.7 -0.1
v 0.4 0.7 -0.1
v 0.4 0.7 -0.4
v 0.5 0.7 -0.4
v -0.3 0.8 -0.1
v -0.1 0.8 -0.1
v -0.3 0.8 -0.2
v -0.3 0.8 -0.3
v -0.3 0.8 -0.4
v -0.1 0.8 -0.4
v -0.5 1 -0.2
v -0.4 1 -0.2
v -0.3 1 -0.2
v -0.2 1 -0.2
v -0.5 1 -0.3
v -0.4 1 -0.3
v -0.3 1 -0.3
v -0.2 1 -0.3
v -0.1 1.1 -0.1
v 0.4 1.1 -0.1
v -0.4 1.1 -0.2
v -0.3 1.1 -0.2
v -0.4 1.1 -0.3
v -0.3 1.1 -0.3
v -0.1 1.1 -0.5
v 0.4 1.1 -0.5

# faces
f 3/2/1 2/2/1 1/2/1
f 4/2/1 2/2/1 3/2/1
f 7/2/1 6/2/1 5/2/1
f 8/2/1 6/2/1 7/2/1
f 9/4/1 8/4/1 7/4/1
f 10/4/1 8/4/1 9/4/1
f 11/2/1 10/2/1 9/2/1
f 12/2/1 10/2/1 11/2/1
f 15/2/1 14/2/1 13/2/1
f 16/2/1 14/2/1 15/2/1
f 21/5/1 18/5/1 17/5/1
f 21/7/1 19/7/1 18/7/1
f 22/5/1 20/5/1 19/5/1
f 22/7/1 19/7/1 21/7/1
f 23/5/1 20/5/1 22/5/1
f 24/5/1 20/5/1 23/5/1
f 25/5/1 21/5/1 17/5/1
f 26/5/1 23/5/1 22/5/1
f 27/5/1 25/5/1 17/5/1
f 28/5/1 23/5/1 26/5/1
f 29/5/1 27/5/1 17/5/1
f 30/5/1 27/5/1 29/5/1
f 31/5/1 23/5/1 28/5/1
f 32/5/1 23/5/1 31/5/1
f 35/5/1 34/5/1 33/5/1
f 36/5/1 34/5/1 35/5/1
f 40/3/1 38/3/1 37/3/1
f 41/3/1 40/3/1 39/3/1
f 42/3/1 38/3/1 40/3/1
f 42/3/1 40/3/1 41/3/1
f 45/1/1 44/1/1 43/1/1
f 46/1/1 44/1/1 45/1/1
f 47/6/1 46/6/1 45/6/1
f 48/6/1 46/6/1 47/6/1
f 51/5/1 50/5/1 49/5/1
f 52/5/1 50/5/1 51/5/1
f 53/5/1 50/5/1 52/5/1
f 54/5/1 50/5/1 53/5/1
f 57/4/1 56/4/1 55/4/1
f 58/4/1 56/4/1 57/4/1
f 59/2/2 60/2/2 61/2/2
f 61/2/2 60/2/2 62/2/2
f 63/2/2 64/2/2 65/2/2
f 65/2/2 64/2/2 66/2/2
f 67/2/2 68/2/2 69/2/2
f 69/2/2 68/2/2 70/2/2
f 71/3/2 72/3/2 74/3/2
f 72/3/2 73/3/2 74/3/2
f 74/3/2 73/3/2 75/3/2
f 76/4/2 77/4/2 78/4/2
f 78/4/2 77/4/2 79/4/2
f 80/5/2 81/5/2 82/5/2
f 82/5/2 81/5/2 83/5/2
f 84/5/2 85/5/2 86/5/2
f 86/5/2 85/5/2 87/5/2
f 87/5/2 85/5/2 88/5/2
f 89/5/2 90/5/2 91/5/2
f 91/5/2 90/5/2 92/5/2
f 93/1/2 94/1/2 95/1/2
f 95/1/2 94/1/2 96/1/2
f 95/6/2 96/6/2 97/6/2
f 97/6/2 96/6/2 98/6/2
f 102/1/3 100/1/3 99/1/3
f 102/6/3 101/6/3 100/6/3
f 103/6/3 101/6/3 102/6/3
f 104/1/3 102/1/3 99/1/3
f 104/5/3 103/5/3 102/5/3
f 105/5/3 103/5/3 104/5/3
f 106/1/3 104/1/3 99/1/3
f 107/6/3 105/6/3 104/6/3
f 107/1/3 104/1/3 106/1/3
f 108/6/3 105/6/3 107/6/3
f 111/4/3 110/4/3 109/4/3
f 112/4/3 110/4/3 111/4/3
f 115/5/3 114/5/3 113/5/3
f 116/5/3 114/5/3 115/5/3
f 117/5/3 114/5/3 116/5/3
f 118/7/3 116/7/3 115/7/3
f 119/7/3 116/7/3 118/7/3
f 121/5/3 119/5/3 118/5/3
f 121/5/3 120/5/3 119/5/3
f 122/5/3 120/5/3 121/5/3
f 123/5/3 121/5/3 118/5/3
f 124/5/3 121/5/3 123/5/3
f 127/5/3 126/5/3 125/5/3
f 128/5/3 126/5/3 127/5/3
f 129/5/3 127/5/3 125/5/3
f 129/4/3 128/4/3 127/4/3
f 130/4/3 128/4/3 129/4/3
f 131/5/3 129/5/3 125/5/3
f 131/5/3 130/5/3 129/5/3
f 132/5/3 130/5/3 131/5/3
f 133/5/3 130/5/3 132/5/3
f 136/5/3 135/5/3 134/5/3
f 137/5/3 135/5/3 136/5/3
f 138/5/3 135/5/3 137/5/3
f 139/5/3 135/5/3 138/5/3
f 141/3/3 139/3/3 138/3/3
f 141/3/3 140/3/3 139/3/3
f 142/3/3 140/3/3 141/3/3
f 143/4/3 142/4/3 141/4/3
f 144/4/3 142/4/3 143/4/3
f 145/5/3 136/5/3 134/5/3
f 146/5/3 136/5/3 145/5/3
f 147/4/3 142/4/3 144/4/3
f 148/3/3 140/3/3 142/3/3
f 148/4/3 142/4/3 147/4/3
f 149/3/3 148/3/3 147/3/3
f 150/3/3 140/3/3 148/3/3
f 150/3/3 148/3/3 149/3/3
f 156/2/3 152/2/3 151/2/3
f 157/2/3 152/2/3 156/2/3
f 159/2/3 154/2/3 153/2/3
f 160/4/3 155/4/3 154/4/3
f 160/2/3 154/2/3 159/2/3
f 161/2/3 158/2/3 157/2/3
f 161/4/3 155/4/3 160/4/3
f 161/2/3 156/2/3 155/2/3
f 161/2/3 157/2/3 156/2/3
f 162/2/3 158/2/3 161/2/3
f 163/2/3 158/2/3 162/2/3
f 164/2/3 158/2/3 163/2/3
f 165/2/3 158/2/3 164/2/3
f 166/2/3 164/2/3 163/2/3
f 167/2/3 164/2/3 166/2/3
f 168/1/4 169/1/4 171/1/4
f 169/6/4 170/6/4 172/6/4
f 171/1/4 169/1/4 172/1/4
f 172/6/4 170/6/4 173/6/4
f 173/6/4 170/6/4 174/6/4
f 173/5/4 174/5/4 175/5/4
f 175/5/4 174/5/4 176/5/4
f 175/6/4 176/6/4 178/6/4
f 177/1/4 178/1/4 179/1/4
f 178/6/4 176/6/4 180/6/4
f 179/1/4 178/1/4 180/1/4
f 180/6/4 176/6/4 181/6/4
f 182/2/4 183/2/4 187/2/4
f 187/2/4 183/2/4 188/2/4
f 184/2/4 185/2/4 190/2/4
f 185/4/4 186/4/4 191/4/4
f 190/2/4 185/2/4 191/2/4
f 188/2/4 189/2/4 192/2/4
f 191/4/4 186/4/4 192/4/4
f 186/2/4 187/2/4 192/2/4
f 187/2/4 188/2/4 192/2/4
f 192/2/4 189/2/4 193/2/4
f 193/2/4 189/2/4 194/2/4
f 194/2/4 189/2/4 195/2/4
f 195/2/4 189/2/4 196/2/4
f 194/2/4 195/2/4 197/2/4
f 197/2/4 195/2/4 198/2/4
f 199/5/4 200/5/4 201/5/4
f 201/5/4 200/5/4 202/5/4
f 199/5/4 201/5/4 203/5/4
f 199/5/4 203/5/4 204/5/4
f 204/5/4 203/5/4 205/5/4
f 199/5/4 204/5/4 206/5/4
f 206/5/4 204/5/4 207/5/4
f 210/3/4 211/3/4 212/3/4
f 212/3/4 211/3/4 213/3/4
f 208/5/4 209/5/4 214/5/4
f 214/5/4 209/5/4 215/5/4
f 220/7/5 218/7/5 217/7/5
f 220/5/5 219/5/5 218/5/5
f 221/5/5 219/5/5 220/5/5
f 223/5/5 217/5/5 216/5/5
f 224/5/5 223/5/5 222/5/5
f 225/7/5 220/7/5 217/7/5
f 225/5/5 223/5/5 224/5/5
f 225/7/5 221/7/5 220/7/5
f 225/5/5 217/5/5 223/5/5
f 226/7/5 225/7/5 224/7/5
f 227/7/5 225/7/5 226/7/5
f 228/5/5 227/5/5 226/5/5
f 228/7/5 225/7/5 227/7/5
f 229/5/5 219/5/5 221/5/5
f 229/7/5 225/7/5 228/7/5
f 229/7/5 221/7/5 225/7/5
f 230/5/5 228/5/5 226/5/5
f 230/5/5 229/5/5 228/5/5
f 231/5/5 219/5/5 229/5/5
f 231/5/5 229/5/5 230/5/5
f 234/2/5 233/2/5 232/2/5
f 235/2/5 233/2/5 234/2/5
f 238/4/5 237/4/5 236/4/5
f 239/4/5 237/4/5 238/4/5
f 242/1/5 241/1/5 240/1/5
f 243/1/5 241/1/5 242/1/5
f 244/1/5 242/1/5 240/1/5
f 245/1/5 242/1/5 244/1/5
f 246/1/5 242/1/5 245/1/5
f 247/1/5 241/1/5 243/1/5
f 248/1/5 241/1/5 247/1/5
f 249/1/5 241/1/5 248/1/5
f 252/5/5 251/5/5 250/5/5
f 253/5/5 251/5/5 252/5/5
f 256/3/5 255/3/5 254/3/5
f 257/3/5 255/3/5 256/3/5
f 262/2/5 259/2/5 258/2/5
f 263/2/5 259/2/5 262/2/5
f 264/2/5 261/2/5 260/2/5
f 265/2/5 261/2/5 264/2/5
f 266/5/6 267/5/6 269/5/6
f 268/5/6 269/5/6 270/5/6
f 269/5/6 267/5/6 271/5/6
f 270/5/6 269/5/6 271/5/6
f 272/5/6 273/5/6 276/5/6
f 274/5/6 275/5/6 276/5/6
f 273/5/6 274/5/6 276/5/6
f 276/5/6 275/5/6 277/5/6
f 277/5/6 275/5/6 278/5/6
f 278/5/6 275/5/6 279/5/6
f 280/6/6 281/6/6 284/6/6
f 281/5/6 282/5/6 285/5/6
f 284/6/6 281/6/6 285/6/6
f 282/6/6 283/6/6 286/6/6
f 285/5/6 282/5/6 286/5/6
f 286/6/6 283/6/6 287/6/6
f 288/5/6 289/5/6 292/5/6
f 292/5/6 289/5/6 293/5/6
f 293/5/6 289/5/6 294/5/6
f 289/4/6 290/4/6 295/4/6
f 294/5/6 289/5/6 295/5/6
f 290/5/6 291/5/6 296/5/6
f 295/4/6 290/4/6 296/4/6
f 296/5/6 291/5/6 297/5/6
f 297/5/6 291/5/6 298/5/6
f 298/5/6 291/5/6 299/5/6
f 299/5/6 291/5/6 300/5/6
f 301/5/6 302/5/6 303/5/6
f 303/5/6 302/5/6 304/5/6
f 304/5/6 302/5/6 305/5/6
f 305/5/6 302/5/6 306/5/6
f 307/2/6 308/2/6 311/2/6
f 311/2/6 308/2/6 312/2/6
f 309/2/6 310/2/6 313/2/6
f 313/2/6 310/2/6 314/2/6
f 317/2/6 318/2/6 319/2/6
f 319/2/6 318/2/6 320/2/6
f 315/3/6 316/3/6 321/3/6
f 321/3/6 316/3/6 322/3/6
