# MagicaVoxel @ Ephtracy

# group
o 

# material
mtllib priestess_walk_2.mtl
usemtl palette

# normals
vn -1 0 0
vn 1 0 0
vn 0 0 1
vn 0 0 -1
vn 0 -1 0
vn 0 1 0

# texcoords
vt 0.755859 0.5
vt 0.787109 0.5
vt 0.818359 0.5
vt 0.939453 0.5
vt 0.947266 0.5
vt 0.951172 0.5
vt 0.970703 0.5

# verts
v -0.6 0.8 -0.1
v -0.6 0.8 -0.2
v -0.6 0.9 -0.1
v -0.6 0.9 -0.2
v -0.5 0 -0.1
v -0.5 0 -0.2
v -0.5 0.5 -0.1
v -0.5 0.5 -0.2
v -0.5 0.6 -0.1
v -0.5 0.6 -0.2
v -0.5 0.8 -0.1
v -0.5 0.8 -0.2
v -0.5 0.9 -0.1
v -0.5 0.9 -0.2
v -0.5 1 -0.1
v -0.5 1 -0.2
v -0.3 0 -2.98023e-08
v -0.3 0 -0.1
v -0.3 0 -0.2
v -0.3 0 -0.5
v -0.3 0.1 -0.3
v -0.3 0.1 -0.5
v -0.3 0.5 -0.1
v -0.3 0.5 -0.2
v -0.3 0.6 -0.1
v -0.3 0.6 -0.2
v -0.3 0.7 -2.98023e-08
v -0.3 0.7 -0.3
v -0.2 0.1 -0.3
v -0.2 0.1 -0.4
v -0.2 0.7 -2.98023e-08
v -0.2 0.7 -0.3
v -0.2 0.8 -2.98023e-08
v -0.2 0.8 -0.4
v -0.1 0.8 -0.1
v -0.1 0.8 -0.4
v -0.1 0.8 -0.5
v -0.1 1.2 -0.1
v -0.1 1.2 -0.5
v 0.1 0 0.1
v 0.1 0 -0.1
v 0.1 0 -0.5
v 0.1 0 -0.6
v 0.1 0.1 -0.5
v 0.1 0.1 -0.6
v 0.1 0.2 0.1
v 0.1 0.2 -2.98023e-08
v 0.1 0.4 -2.98023e-08
v 0.1 0.4 -0.1
v 0.2 0.1 -0.4
v 0.2 0.1 -0.5
v 0.2 0.4 0.3
v 0.2 0.4 -2.98023e-08
v 0.2 0.5 0.3
v 0.2 0.5 -2.98023e-08
v 0.2 0.5 -0.4
v 0.2 0.5 -0.5
v 0.2 0.6 0.3
v 0.2 0.6 -2.98023e-08
v 0.3 0.4 -2.98023e-08
v 0.3 0.4 -0.1
v 0.3 0.5 -2.98023e-08
v 0.3 0.5 -0.1
v 0.4 0.3 0.2
v 0.4 0.3 -2.98023e-08
v 0.4 0.4 0.2
v 0.4 0.4 -2.98023e-08
v -0.4 0 -0.1
v -0.4 0 -0.2
v -0.4 0.5 -0.1
v -0.4 0.5 -0.2
v -0.4 0.6 -0.1
v -0.4 0.6 -0.2
v -0.4 0.8 -0.1
v -0.4 0.8 -0.2
v -0.4 0.9 -0.1
v -0.4 0.9 -0.2
v -0.4 1 -0.1
v -0.4 1 -0.2
v -0.3 0.8 -0.1
v -0.3 0.8 -0.2
v -0.3 0.9 -0.1
v -0.3 0.9 -0.2
v -0.1 0 -2.98023e-08
v -0.1 0 -0.1
v -0.1 0.5 -2.98023e-08
v -0.1 0.5 -0.1
v 0.2 0.5 -2.98023e-08
v 0.2 0.5 -0.1
v 0.2 0.6 -2.98023e-08
v 0.2 0.6 -0.1
v 0.4 0 0.1
v 0.4 0 -2.98023e-08
v 0.4 0.2 0.1
v 0.4 0.2 -2.98023e-08
v 0.4 0.8 -0.1
v 0.4 0.8 -0.4
v 0.4 0.8 -0.5
v 0.4 1.2 -0.1
v 0.4 1.2 -0.5
v 0.5 0.3 0.2
v 0.5 0.3 -2.98023e-08
v 0.5 0.4 0.2
v 0.5 0.4 -2.98023e-08
v 0.5 0.5 -0.1
v 0.5 0.5 -0.4
v 0.5 0.6 -2.98023e-08
v 0.5 0.6 -0.1
v 0.5 0.8 -2.98023e-08
v 0.5 0.8 -0.4
v 0.6 0.1 -2.98023e-08
v 0.6 0.1 -0.5
v 0.6 0.4 -2.98023e-08
v 0.6 0.5 -2.98023e-08
v 0.6 0.5 -0.5
v 0.7 0 -2.98023e-08
v 0.7 0 -0.6
v 0.7 0.1 -2.98023e-08
v 0.7 0.1 -0.6
v 0.7 0.4 0.3
v 0.7 0.4 -2.98023e-08
v 0.7 0.5 0.3
v 0.7 0.5 -2.98023e-08
v 0.7 0.6 0.3
v 0.7 0.6 -2.98023e-08
v 0.2 0.4 0.3
v 0.2 0.5 0.3
v 0.2 0.6 0.3
v 0.4 0.5 0.3
v 0.4 0.6 0.3
v 0.5 0.5 0.3
v 0.5 0.6 0.3
v 0.7 0.4 0.3
v 0.7 0.5 0.3
v 0.7 0.6 0.3
v 0.4 0.3 0.2
v 0.4 0.4 0.2
v 0.5 0.3 0.2
v 0.5 0.4 0.2
v 0.1 0 0.1
v 0.1 0.2 0.1
v 0.4 0 0.1
v 0.4 0.2 0.1
v -0.3 0 -2.98023e-08
v -0.3 0.7 -2.98023e-08
v -0.2 0.7 -2.98023e-08
v -0.2 0.8 -2.98023e-08
v -0.1 0 -2.98023e-08
v -0.1 0.5 -2.98023e-08
v 0.1 0.2 -2.98023e-08
v 0.1 0.4 -2.98023e-08
v 0.1 0.7 -2.98023e-08
v 0.1 0.8 -2.98023e-08
v 0.2 0.4 -2.98023e-08
v 0.2 0.5 -2.98023e-08
v 0.2 0.6 -2.98023e-08
v 0.2 0.7 -2.98023e-08
v 0.2 0.8 -2.98023e-08
v 0.4 0 -2.98023e-08
v 0.4 0.2 -2.98023e-08
v 0.4 0.3 -2.98023e-08
v 0.4 0.4 -2.98023e-08
v 0.4 0.6 -2.98023e-08
v 0.5 0 -2.98023e-08
v 0.5 0.3 -2.98023e-08
v 0.5 0.4 -2.98023e-08
v 0.5 0.6 -2.98023e-08
v 0.5 0.8 -2.98023e-08
v 0.6 0.1 -2.98023e-08
v 0.6 0.4 -2.98023e-08
v 0.7 0 -2.98023e-08
v 0.7 0.1 -2.98023e-08
v -0.6 0.8 -0.1
v -0.6 0.9 -0.1
v -0.5 0 -0.1
v -0.5 0.5 -0.1
v -0.5 0.6 -0.1
v -0.5 0.8 -0.1
v -0.5 0.9 -0.1
v -0.5 1 -0.1
v -0.4 0 -0.1
v -0.4 0.5 -0.1
v -0.4 0.6 -0.1
v -0.4 0.8 -0.1
v -0.4 0.9 -0.1
v -0.4 1 -0.1
v -0.3 0.5 -0.1
v -0.3 0.6 -0.1
v -0.3 0.8 -0.1
v -0.3 0.9 -0.1
v -0.1 0 -0.1
v -0.1 0.5 -0.1
v -0.1 0.8 -0.1
v -0.1 1.2 -0.1
v 0 0.8 -0.1
v 0 1 -0.1
v 0.1 0 -0.1
v 0.1 0.4 -0.1
v 0.1 0.8 -0.1
v 0.2 0.5 -0.1
v 0.2 0.6 -0.1
v 0.2 0.8 -0.1
v 0.3 0.4 -0.1
v 0.3 0.5 -0.1
v 0.3 0.8 -0.1
v 0.3 1 -0.1
v 0.4 0.8 -0.1
v 0.4 1.2 -0.1
v 0.5 0.5 -0.1
v 0.5 0.6 -0.1
v 0.2 0.4 -2.98023e-08
v 0.2 0.5 -2.98023e-08
v 0.2 0.6 -2.98023e-08
v 0.3 0.4 -2.98023e-08
v 0.3 0.5 -2.98023e-08
v 0.4 0.5 -2.98023e-08
v 0.4 0.6 -2.98023e-08
v 0.5 0.5 -2.98023e-08
v 0.5 0.6 -2.98023e-08
v 0.6 0.4 -2.98023e-08
v 0.6 0.5 -2.98023e-08
v 0.7 0.4 -2.98023e-08
v 0.7 0.5 -2.98023e-08
v 0.7 0.6 -2.98023e-08
v -0.6 0.8 -0.2
v -0.6 0.9 -0.2
v -0.5 0 -0.2
v -0.5 0.5 -0.2
v -0.5 0.6 -0.2
v -0.5 0.8 -0.2
v -0.5 0.9 -0.2
v -0.5 1 -0.2
v -0.4 0 -0.2
v -0.4 0.5 -0.2
v -0.4 0.6 -0.2
v -0.4 0.8 -0.2
v -0.4 0.9 -0.2
v -0.4 1 -0.2
v -0.3 0.5 -0.2
v -0.3 0.6 -0.2
v -0.3 0.8 -0.2
v -0.3 0.9 -0.2
v -0.3 0.1 -0.3
v -0.3 0.7 -0.3
v -0.2 0.1 -0.3
v -0.2 0.7 -0.3
v -0.2 0.1 -0.4
v -0.2 0.8 -0.4
v -0.1 0.8 -0.4
v 0.2 0.1 -0.4
v 0.2 0.5 -0.4
v 0.4 0.8 -0.4
v 0.5 0.5 -0.4
v 0.5 0.8 -0.4
v -0.3 0 -0.5
v -0.3 0.1 -0.5
v -0.1 0.8 -0.5
v -0.1 1.2 -0.5
v 0.1 0 -0.5
v 0.1 0.1 -0.5
v 0.2 0.1 -0.5
v 0.2 0.5 -0.5
v 0.4 0.8 -0.5
v 0.4 1.2 -0.5
v 0.6 0.1 -0.5
v 0.6 0.5 -0.5
v 0.1 0 -0.6
v 0.1 0.1 -0.6
v 0.7 0 -0.6
v 0.7 0.1 -0.6
v 0.1 0 0.1
v 0.4 0 0.1
v -0.3 0 -2.98023e-08
v -0.1 0 -2.98023e-08
v 0.2 0 -2.98023e-08
v 0.4 0 -2.98023e-08
v 0.5 0 -2.98023e-08
v 0.7 0 -2.98023e-08
v -0.5 0 -0.1
v -0.4 0 -0.1
v -0.3 0 -0.1
v -0.1 0 -0.1
v 0.1 0 -0.1
v 0.5 0 -0.1
v 0.6 0 -0.1
v -0.5 0 -0.2
v -0.4 0 -0.2
v -0.3 0 -0.2
v -0.2 0 -0.2
v -0.1 0 -0.2
v 0.2 0 -0.2
v -0.2 0 -0.4
v 0.2 0 -0.4
v -0.3 0 -0.5
v 0.1 0 -0.5
v 0.2 0 -0.5
v 0.6 0 -0.5
v 0.1 0 -0.6
v 0.7 0 -0.6
v 0.4 0.3 0.2
v 0.5 0.3 0.2
v 0.4 0.3 -2.98023e-08
v 0.5 0.3 -2.98023e-08
v 0.2 0.4 0.3
v 0.7 0.4 0.3
v 0.4 0.4 0.2
v 0.5 0.4 0.2
v 0.2 0.4 -2.98023e-08
v 0.4 0.4 -2.98023e-08
v 0.5 0.4 -2.98023e-08
v 0.6 0.4 -2.98023e-08
v 0.7 0.4 -2.98023e-08
v -0.1 0.5 -2.98023e-08
v 0.2 0.5 -2.98023e-08
v -0.4 0.5 -0.1
v -0.3 0.5 -0.1
v -0.1 0.5 -0.1
v 0.2 0.5 -0.1
v -0.4 0.5 -0.2
v -0.3 0.5 -0.2
v 0.2 0.6 -2.98023e-08
v 0.4 0.6 -2.98023e-08
v 0.5 0.6 -2.98023e-08
v 0.2 0.6 -0.1
v 0.5 0.6 -0.1
v -0.6 0.8 -0.1
v -0.5 0.8 -0.1
v -0.4 0.8 -0.1
v -0.3 0.8 -0.1
v -0.6 0.8 -0.2
v -0.5 0.8 -0.2
v -0.4 0.8 -0.2
v -0.3 0.8 -0.2
v -0.1 0.8 -0.4
v 0.4 0.8 -0.4
v -0.1 0.8 -0.5
v 0.4 0.8 -0.5
v 0.6 0.1 -2.98023e-08
v 0.7 0.1 -2.98023e-08
v -0.3 0.1 -0.3
v -0.2 0.1 -0.3
v -0.2 0.1 -0.4
v 0.2 0.1 -0.4
v -0.3 0.1 -0.5
v 0.1 0.1 -0.5
v 0.2 0.1 -0.5
v 0.6 0.1 -0.5
v 0.1 0.1 -0.6
v 0.7 0.1 -0.6
v 0.1 0.2 0.1
v 0.4 0.2 0.1
v 0.1 0.2 -2.98023e-08
v 0.4 0.2 -2.98023e-08
v 0.1 0.4 -2.98023e-08
v 0.2 0.4 -2.98023e-08
v 0.3 0.4 -2.98023e-08
v 0.1 0.4 -0.1
v 0.3 0.4 -0.1
v 0.3 0.5 -2.98023e-08
v 0.4 0.5 -2.98023e-08
v 0.5 0.5 -2.98023e-08
v 0.6 0.5 -2.98023e-08
v 0.3 0.5 -0.1
v 0.5 0.5 -0.1
v 0.2 0.5 -0.4
v 0.5 0.5 -0.4
v 0.2 0.5 -0.5
v 0.6 0.5 -0.5
v 0.2 0.6 0.3
v 0.4 0.6 0.3
v 0.5 0.6 0.3
v 0.7 0.6 0.3
v 0.2 0.6 -2.98023e-08
v 0.4 0.6 -2.98023e-08
v 0.5 0.6 -2.98023e-08
v 0.7 0.6 -2.98023e-08
v -0.4 0.6 -0.1
v -0.3 0.6 -0.1
v -0.4 0.6 -0.2
v -0.3 0.6 -0.2
v -0.3 0.7 -2.98023e-08
v -0.2 0.7 -2.98023e-08
v -0.3 0.7 -0.3
v -0.2 0.7 -0.3
v -0.2 0.8 -2.98023e-08
v 0.1 0.8 -2.98023e-08
v 0.2 0.8 -2.98023e-08
v 0.5 0.8 -2.98023e-08
v -0.1 0.8 -0.1
v 0 0.8 -0.1
v 0.1 0.8 -0.1
v 0.2 0.8 -0.1
v 0.3 0.8 -0.1
v 0.4 0.8 -0.1
v -0.2 0.8 -0.4
v -0.1 0.8 -0.4
v 0.4 0.8 -0.4
v 0.5 0.8 -0.4
v -0.6 0.9 -0.1
v -0.5 0.9 -0.1
v -0.4 0.9 -0.1
v -0.3 0.9 -0.1
v -0.6 0.9 -0.2
v -0.5 0.9 -0.2
v -0.4 0.9 -0.2
v -0.3 0.9 -0.2
v -0.5 1 -0.1
v -0.4 1 -0.1
v -0.5 1 -0.2
v -0.4 1 -0.2
v -0.1 1.2 -0.1
v 0.4 1.2 -0.1
v -0.1 1.2 -0.5
v 0.4 1.2 -0.5

# faces
f 3/2/1 2/2/1 1/2/1
f 4/2/1 2/2/1 3/2/1
f 7/2/1 6/2/1 5/2/1
f 8/2/1 6/2/1 7/2/1
f 9/4/1 8/4/1 7/4/1
f 10/4/1 8/4/1 9/4/1
f 11/2/1 10/2/1 9/2/1
f 12/2/1 10/2/1 11/2/1
f 15/2/1 14/2/1 13/2/1
f 16/2/1 14/2/1 15/2/1
f 21/5/1 20/5/1 19/5/1
f 22/5/1 20/5/1 21/5/1
f 23/5/1 18/5/1 17/5/1
f 23/7/1 19/7/1 18/7/1
f 24/5/1 21/5/1 19/5/1
f 24/7/1 19/7/1 23/7/1
f 25/5/1 23/5/1 17/5/1
f 26/5/1 21/5/1 24/5/1
f 27/5/1 25/5/1 17/5/1
f 27/5/1 26/5/1 25/5/1
f 28/5/1 21/5/1 26/5/1
f 28/5/1 26/5/1 27/5/1
f 32/5/1 30/5/1 29/5/1
f 33/5/1 32/5/1 31/5/1
f 34/5/1 30/5/1 32/5/1
f 34/5/1 32/5/1 33/5/1
f 38/3/1 36/3/1 35/3/1
f 38/3/1 37/3/1 36/3/1
f 39/3/1 37/3/1 38/3/1
f 44/5/1 43/5/1 42/5/1
f 45/5/1 43/5/1 44/5/1
f 46/5/1 41/5/1 40/5/1
f 47/5/1 41/5/1 46/5/1
f 48/5/1 41/5/1 47/5/1
f 49/5/1 41/5/1 48/5/1
f 54/1/1 53/1/1 52/1/1
f 55/1/1 53/1/1 54/1/1
f 56/5/1 51/5/1 50/5/1
f 57/5/1 51/5/1 56/5/1
f 58/6/1 55/6/1 54/6/1
f 59/6/1 55/6/1 58/6/1
f 62/5/1 61/5/1 60/5/1
f 63/5/1 61/5/1 62/5/1
f 66/4/1 65/4/1 64/4/1
f 67/4/1 65/4/1 66/4/1
f 68/2/2 69/2/2 70/2/2
f 70/2/2 69/2/2 71/2/2
f 72/2/2 73/2/2 74/2/2
f 74/2/2 73/2/2 75/2/2
f 76/2/2 77/2/2 78/2/2
f 78/2/2 77/2/2 79/2/2
f 80/2/2 81/2/2 82/2/2
f 82/2/2 81/2/2 83/2/2
f 84/5/2 85/5/2 86/5/2
f 86/5/2 85/5/2 87/5/2
f 88/5/2 89/5/2 90/5/2
f 90/5/2 89/5/2 91/5/2
f 92/5/2 93/5/2 94/5/2
f 94/5/2 93/5/2 95/5/2
f 96/3/2 97/3/2 99/3/2
f 97/3/2 98/3/2 99/3/2
f 99/3/2 98/3/2 100/3/2
f 101/4/2 102/4/2 103/4/2
f 103/4/2 102/4/2 104/4/2
f 105/5/2 106/5/2 108/5/2
f 107/5/2 108/5/2 109/5/2
f 108/5/2 106/5/2 110/5/2
f 109/5/2 108/5/2 110/5/2
f 111/5/2 112/5/2 113/5/2
f 113/5/2 112/5/2 114/5/2
f 114/5/2 112/5/2 115/5/2
f 116/5/2 117/5/2 118/5/2
f 118/5/2 117/5/2 119/5/2
f 120/1/2 121/1/2 122/1/2
f 122/1/2 121/1/2 123/1/2
f 122/6/2 123/6/2 124/6/2
f 124/6/2 123/6/2 125/6/2
f 129/1/3 127/1/3 126/1/3
f 129/6/3 128/6/3 127/6/3
f 130/6/3 128/6/3 129/6/3
f 131/1/3 129/1/3 126/1/3
f 131/5/3 130/5/3 129/5/3
f 132/5/3 130/5/3 131/5/3
f 133/1/3 131/1/3 126/1/3
f 134/6/3 132/6/3 131/6/3
f 134/1/3 131/1/3 133/1/3
f 135/6/3 132/6/3 134/6/3
f 138/4/3 137/4/3 136/4/3
f 139/4/3 137/4/3 138/4/3
f 142/5/3 141/5/3 140/5/3
f 143/5/3 141/5/3 142/5/3
f 146/5/3 145/5/3 144/5/3
f 148/5/3 146/5/3 144/5/3
f 148/5/3 147/5/3 146/5/3
f 149/5/3 147/5/3 148/5/3
f 152/5/3 147/5/3 149/5/3
f 153/5/3 147/5/3 152/5/3
f 154/5/3 151/5/3 150/5/3
f 155/5/3 152/5/3 149/5/3
f 156/5/3 152/5/3 155/5/3
f 157/4/3 153/4/3 152/4/3
f 157/5/3 152/5/3 156/5/3
f 158/4/3 153/4/3 157/4/3
f 160/5/3 154/5/3 150/5/3
f 161/5/3 154/5/3 160/5/3
f 162/5/3 154/5/3 161/5/3
f 163/5/3 158/5/3 157/5/3
f 163/5/3 157/5/3 156/5/3
f 164/7/3 161/7/3 160/7/3
f 164/7/3 160/7/3 159/7/3
f 165/7/3 161/7/3 164/7/3
f 167/5/3 158/5/3 163/5/3
f 168/5/3 158/5/3 167/5/3
f 169/5/3 166/5/3 165/5/3
f 169/5/3 165/5/3 164/5/3
f 170/5/3 166/5/3 169/5/3
f 171/5/3 169/5/3 164/5/3
f 172/5/3 169/5/3 171/5/3
f 178/2/3 174/2/3 173/2/3
f 179/2/3 174/2/3 178/2/3
f 181/2/3 176/2/3 175/2/3
f 182/4/3 177/4/3 176/4/3
f 182/2/3 176/2/3 181/2/3
f 183/2/3 180/2/3 179/2/3
f 183/4/3 177/4/3 182/4/3
f 183/2/3 178/2/3 177/2/3
f 183/2/3 179/2/3 178/2/3
f 184/2/3 180/2/3 183/2/3
f 185/2/3 180/2/3 184/2/3
f 186/2/3 180/2/3 185/2/3
f 187/4/3 183/4/3 182/4/3
f 188/4/3 183/4/3 187/4/3
f 189/2/3 185/2/3 184/2/3
f 190/2/3 185/2/3 189/2/3
f 195/3/3 194/3/3 193/3/3
f 196/3/3 194/3/3 195/3/3
f 197/5/3 192/5/3 191/5/3
f 198/5/3 192/5/3 197/5/3
f 199/4/3 196/4/3 195/4/3
f 200/5/3 192/5/3 198/5/3
f 202/4/3 196/4/3 199/4/3
f 203/5/3 201/5/3 200/5/3
f 203/5/3 200/5/3 198/5/3
f 204/5/3 201/5/3 203/5/3
f 205/4/3 196/4/3 202/4/3
f 206/3/3 194/3/3 196/3/3
f 206/4/3 196/4/3 205/4/3
f 207/3/3 206/3/3 205/3/3
f 208/3/3 194/3/3 206/3/3
f 208/3/3 206/3/3 207/3/3
f 209/5/3 201/5/3 204/5/3
f 210/5/3 201/5/3 209/5/3
f 211/1/4 212/1/4 214/1/4
f 212/6/4 213/6/4 215/6/4
f 214/1/4 212/1/4 215/1/4
f 215/6/4 213/6/4 216/6/4
f 216/6/4 213/6/4 217/6/4
f 216/5/4 217/5/4 218/5/4
f 218/5/4 217/5/4 219/5/4
f 218/6/4 219/6/4 221/6/4
f 220/1/4 221/1/4 222/1/4
f 221/6/4 219/6/4 223/6/4
f 222/1/4 221/1/4 223/1/4
f 223/6/4 219/6/4 224/6/4
f 225/2/4 226/2/4 230/2/4
f 230/2/4 226/2/4 231/2/4
f 227/2/4 228/2/4 233/2/4
f 228/4/4 229/4/4 234/4/4
f 233/2/4 228/2/4 234/2/4
f 231/2/4 232/2/4 235/2/4
f 234/4/4 229/4/4 235/4/4
f 229/2/4 230/2/4 235/2/4
f 230/2/4 231/2/4 235/2/4
f 235/2/4 232/2/4 236/2/4
f 236/2/4 232/2/4 237/2/4
f 237/2/4 232/2/4 238/2/4
f 234/4/4 235/4/4 239/4/4
f 239/4/4 235/4/4 240/4/4
f 236/2/4 237/2/4 241/2/4
f 241/2/4 237/2/4 242/2/4
f 243/5/4 244/5/4 245/5/4
f 245/5/4 244/5/4 246/5/4
f 247/5/4 248/5/4 249/5/4
f 247/5/4 249/5/4 250/5/4
f 250/5/4 249/5/4 251/5/4
f 251/5/4 249/5/4 252/5/4
f 251/5/4 252/5/4 253/5/4
f 253/5/4 252/5/4 254/5/4
f 255/5/4 256/5/4 259/5/4
f 259/5/4 256/5/4 260/5/4
f 257/3/4 258/3/4 263/3/4
f 263/3/4 258/3/4 264/3/4
f 261/5/4 262/5/4 265/5/4
f 265/5/4 262/5/4 266/5/4
f 267/5/4 268/5/4 269/5/4
f 269/5/4 268/5/4 270/5/4
f 275/5/5 272/5/5 271/5/5
f 276/5/5 272/5/5 275/5/5
f 281/5/5 274/5/5 273/5/5
f 282/5/5 274/5/5 281/5/5
f 283/5/5 275/5/5 271/5/5
f 284/7/5 276/7/5 275/7/5
f 284/7/5 277/7/5 276/7/5
f 284/5/5 278/5/5 277/5/5
f 285/5/5 278/5/5 284/5/5
f 286/2/5 280/2/5 279/2/5
f 287/2/5 280/2/5 286/2/5
f 288/7/5 282/7/5 281/7/5
f 289/7/5 282/7/5 288/7/5
f 290/5/5 283/5/5 282/5/5
f 290/7/5 282/7/5 289/7/5
f 291/5/5 275/5/5 283/5/5
f 291/5/5 283/5/5 290/5/5
f 291/7/5 284/7/5 275/7/5
f 291/7/5 285/7/5 284/7/5
f 292/5/5 289/5/5 288/5/5
f 292/7/5 291/7/5 290/7/5
f 292/7/5 290/7/5 289/7/5
f 293/7/5 285/7/5 291/7/5
f 293/7/5 291/7/5 292/7/5
f 294/5/5 292/5/5 288/5/5
f 294/5/5 293/5/5 292/5/5
f 295/5/5 293/5/5 294/5/5
f 296/7/5 285/7/5 293/7/5
f 296/5/5 293/5/5 295/5/5
f 297/5/5 278/5/5 285/5/5
f 297/7/5 285/7/5 296/7/5
f 298/5/5 296/5/5 295/5/5
f 298/5/5 297/5/5 296/5/5
f 299/5/5 278/5/5 297/5/5
f 299/5/5 297/5/5 298/5/5
f 302/4/5 301/4/5 300/4/5
f 303/4/5 301/4/5 302/4/5
f 306/1/5 305/1/5 304/1/5
f 307/1/5 305/1/5 306/1/5
f 308/1/5 306/1/5 304/1/5
f 309/1/5 306/1/5 308/1/5
f 310/1/5 305/1/5 307/1/5
f 311/1/5 305/1/5 310/1/5
f 312/1/5 305/1/5 311/1/5
f 317/5/5 314/5/5 313/5/5
f 318/5/5 314/5/5 317/5/5
f 319/4/5 316/4/5 315/4/5
f 320/4/5 316/4/5 319/4/5
f 324/5/5 322/5/5 321/5/5
f 324/5/5 323/5/5 322/5/5
f 325/5/5 323/5/5 324/5/5
f 330/2/5 327/2/5 326/2/5
f 331/2/5 327/2/5 330/2/5
f 332/2/5 329/2/5 328/2/5
f 333/2/5 329/2/5 332/2/5
f 336/3/5 335/3/5 334/3/5
f 337/3/5 335/3/5 336/3/5
f 340/5/6 341/5/6 342/5/6
f 340/5/6 342/5/6 344/5/6
f 342/5/6 343/5/6 344/5/6
f 344/5/6 343/5/6 345/5/6
f 345/5/6 343/5/6 346/5/6
f 338/5/6 339/5/6 347/5/6
f 345/5/6 346/5/6 348/5/6
f 346/5/6 347/5/6 348/5/6
f 347/5/6 339/5/6 349/5/6
f 348/5/6 347/5/6 349/5/6
f 350/5/6 351/5/6 352/5/6
f 352/5/6 351/5/6 353/5/6
f 354/5/6 355/5/6 357/5/6
f 355/5/6 356/5/6 357/5/6
f 357/5/6 356/5/6 358/5/6
f 359/5/6 360/5/6 363/5/6
f 361/5/6 362/5/6 363/5/6
f 360/5/6 361/5/6 363/5/6
f 363/5/6 362/5/6 364/5/6
f 364/5/6 362/5/6 366/5/6
f 365/5/6 366/5/6 367/5/6
f 366/5/6 362/5/6 368/5/6
f 367/5/6 366/5/6 368/5/6
f 369/6/6 370/6/6 373/6/6
f 370/5/6 371/5/6 374/5/6
f 373/6/6 370/6/6 374/6/6
f 371/6/6 372/6/6 375/6/6
f 374/5/6 371/5/6 375/5/6
f 375/6/6 372/6/6 376/6/6
f 377/4/6 378/4/6 379/4/6
f 379/4/6 378/4/6 380/4/6
f 381/5/6 382/5/6 383/5/6
f 383/5/6 382/5/6 384/5/6
f 385/5/6 386/5/6 389/5/6
f 389/5/6 386/5/6 390/5/6
f 386/4/6 387/4/6 391/4/6
f 390/5/6 386/5/6 391/5/6
f 387/5/6 388/5/6 392/5/6
f 391/4/6 387/4/6 392/4/6
f 392/5/6 388/5/6 393/5/6
f 393/5/6 388/5/6 394/5/6
f 385/5/6 389/5/6 395/5/6
f 395/5/6 389/5/6 396/5/6
f 394/5/6 388/5/6 397/5/6
f 397/5/6 388/5/6 398/5/6
f 399/2/6 400/2/6 403/2/6
f 403/2/6 400/2/6 404/2/6
f 401/2/6 402/2/6 405/2/6
f 405/2/6 402/2/6 406/2/6
f 407/2/6 408/2/6 409/2/6
f 409/2/6 408/2/6 410/2/6
f 411/3/6 412/3/6 413/3/6
f 413/3/6 412/3/6 414/3/6
