# MagicaVoxel @ Ephtracy

# group
o 

# material
mtllib priestess_action_1.mtl
usemtl palette

# normals
vn -1 0 0
vn 1 0 0
vn 0 0 1
vn 0 0 -1
vn 0 -1 0
vn 0 1 0

# texcoords
vt 0.755859 0.5
vt 0.787109 0.5
vt 0.818359 0.5
vt 0.939453 0.5
vt 0.947266 0.5
vt 0.951172 0.5
vt 0.970703 0.5

# verts
v -0.5 0 0.2
v -0.5 0 -0.5
v -0.5 0.1 0.2
v -0.5 0.1 -0.5
v -0.4 0.1 0.2
v -0.4 0.1 -0.4
v -0.4 0.5 -0.2
v -0.4 0.5 -0.4
v -0.4 0.7 0
v -0.4 0.7 -0.2
v -0.4 0.9 0.2
v -0.4 0.9 0
v -0.4 1 0.4
v -0.4 1 0.3
v -0.4 1.1 0.4
v -0.4 1.1 0.3
v -0.3 0.2 0.4
v -0.3 0.2 0.3
v -0.3 0.7 0.4
v -0.3 0.7 0.3
v -0.3 0.7 0.2
v -0.3 0.8 0.4
v -0.3 0.8 0.3
v -0.3 0.8 0.2
v -0.3 1 0.4
v -0.3 1 0.3
v -0.3 1.1 0.4
v -0.3 1.1 0.3
v -0.3 1.2 0.4
v -0.3 1.2 0.3
v -0.2 0.5 -0.2
v -0.2 0.5 -0.4
v -0.2 0.7 -0.1
v -0.2 0.7 -0.2
v -0.2 0.8 -0.1
v -0.2 0.8 -0.4
v -0.1 0.7 0
v -0.1 0.7 -0.1
v -0.1 0.8 0
v -0.1 0.8 -0.1
v -0.1 0.8 -0.4
v -0.1 0.8 -0.5
v -0.1 1.2 -0.1
v -0.1 1.2 -0.5
v 0.2 0.3 0.4
v 0.2 0.3 0.1
v 0.2 0.4 0.4
v 0.2 0.4 0.1
v 0.2 0.5 0.4
v 0.2 0.5 0.1
v 0.3 0 0.1
v 0.3 0 -0.1
v 0.3 0.3 0.1
v 0.3 0.4 0.1
v 0.3 0.4 0
v 0.3 0.5 0
v 0.3 0.5 -0.1
v 0.4 0.2 0.3
v 0.4 0.2 0.1
v 0.4 0.3 0.3
v 0.4 0.3 0.1
v -0.2 0.2 0.4
v -0.2 0.2 0.3
v -0.2 0.7 0.4
v -0.2 0.7 0.3
v -0.2 0.7 0.2
v -0.2 0.8 0.4
v -0.2 0.8 0.3
v -0.2 0.8 0.2
v -0.2 1 0.4
v -0.2 1 0.3
v -0.2 1.1 0.4
v -0.2 1.1 0.3
v -0.2 1.2 0.4
v -0.2 1.2 0.3
v -0.1 0 0.2
v -0.1 0 -0.1
v -0.1 0.5 0
v -0.1 0.5 -0.1
v -0.1 0.8 0
v -0.1 0.9 0.2
v -0.1 0.9 0
v -0.1 1 0.4
v -0.1 1 0.3
v -0.1 1.1 0.4
v -0.1 1.1 0.3
v 0.4 0.8 -0.1
v 0.4 0.8 -0.4
v 0.4 0.8 -0.5
v 0.4 1.2 -0.1
v 0.4 1.2 -0.5
v 0.5 0.2 0.3
v 0.5 0.2 0.1
v 0.5 0.3 0.3
v 0.5 0.3 0.1
v 0.5 0.4 0
v 0.5 0.4 -0.4
v 0.5 0.8 0
v 0.5 0.8 -0.4
v 0.6 0.1 0.1
v 0.6 0.1 -0.4
v 0.6 0.3 0.1
v 0.6 0.4 0.1
v 0.6 0.4 -0.4
v 0.7 0 0.1
v 0.7 0 -0.5
v 0.7 0.1 0.1
v 0.7 0.1 -0.5
v 0.7 0.3 0.4
v 0.7 0.3 0.1
v 0.7 0.4 0.4
v 0.7 0.4 0.1
v 0.7 0.5 0.4
v 0.7 0.5 0.1
v -0.4 1 0.4
v -0.4 1.1 0.4
v -0.3 0.2 0.4
v -0.3 0.7 0.4
v -0.3 0.8 0.4
v -0.3 1 0.4
v -0.3 1.1 0.4
v -0.3 1.2 0.4
v -0.2 0.2 0.4
v -0.2 0.7 0.4
v -0.2 0.8 0.4
v -0.2 1 0.4
v -0.2 1.1 0.4
v -0.2 1.2 0.4
v -0.1 1 0.4
v -0.1 1.1 0.4
v 0.2 0.3 0.4
v 0.2 0.4 0.4
v 0.2 0.5 0.4
v 0.4 0.4 0.4
v 0.4 0.5 0.4
v 0.5 0.4 0.4
v 0.5 0.5 0.4
v 0.7 0.3 0.4
v 0.7 0.4 0.4
v 0.7 0.5 0.4
v 0.4 0.2 0.3
v 0.4 0.3 0.3
v 0.5 0.2 0.3
v 0.5 0.3 0.3
v -0.5 0 0.2
v -0.5 0.1 0.2
v -0.4 0.1 0.2
v -0.4 0.9 0.2
v -0.3 0 0.2
v -0.3 0.7 0.2
v -0.3 0.8 0.2
v -0.2 0 0.2
v -0.2 0.7 0.2
v -0.2 0.8 0.2
v -0.1 0 0.2
v -0.1 0.9 0.2
v 0.3 0 0.1
v 0.3 0.3 0.1
v 0.4 0 0.1
v 0.4 0.2 0.1
v 0.4 0.3 0.1
v 0.5 0 0.1
v 0.5 0.2 0.1
v 0.5 0.3 0.1
v 0.6 0.1 0.1
v 0.6 0.3 0.1
v 0.7 0 0.1
v 0.7 0.1 0.1
v -0.1 0.5 0
v -0.1 0.8 0
v 0.1 0.7 0
v 0.1 0.8 0
v 0.2 0.7 0
v 0.2 0.8 0
v 0.3 0.4 0
v 0.3 0.5 0
v 0.5 0.4 0
v 0.5 0.8 0
v -0.2 0.7 -0.1
v -0.2 0.8 -0.1
v -0.1 0 -0.1
v -0.1 0.5 -0.1
v -0.1 0.7 -0.1
v -0.1 0.8 -0.1
v -0.1 1.2 -0.1
v 5.96046e-08 0.8 -0.1
v 5.96046e-08 1 -0.1
v 0.1 0.8 -0.1
v 0.2 0.8 -0.1
v 0.3 0 -0.1
v 0.3 0.5 -0.1
v 0.3 0.8 -0.1
v 0.3 1 -0.1
v 0.4 0.8 -0.1
v 0.4 1.2 -0.1
v -0.4 1 0.3
v -0.4 1.1 0.3
v -0.3 0.2 0.3
v -0.3 0.7 0.3
v -0.3 0.8 0.3
v -0.3 1 0.3
v -0.3 1.1 0.3
v -0.3 1.2 0.3
v -0.2 0.2 0.3
v -0.2 0.7 0.3
v -0.2 0.8 0.3
v -0.2 1 0.3
v -0.2 1.1 0.3
v -0.2 1.2 0.3
v -0.1 1 0.3
v -0.1 1.1 0.3
v 0.2 0.3 0.1
v 0.2 0.4 0.1
v 0.2 0.5 0.1
v 0.3 0.3 0.1
v 0.3 0.4 0.1
v 0.4 0.4 0.1
v 0.4 0.5 0.1
v 0.5 0.4 0.1
v 0.5 0.5 0.1
v 0.6 0.3 0.1
v 0.6 0.4 0.1
v 0.7 0.3 0.1
v 0.7 0.4 0.1
v 0.7 0.5 0.1
v -0.4 0.7 0
v -0.4 0.9 0
v -0.1 0.7 0
v -0.1 0.8 0
v -0.1 0.9 0
v -0.4 0.5 -0.2
v -0.4 0.7 -0.2
v -0.2 0.5 -0.2
v -0.2 0.7 -0.2
v -0.4 0.1 -0.4
v -0.4 0.5 -0.4
v -0.2 0.5 -0.4
v -0.2 0.8 -0.4
v -0.1 0.8 -0.4
v 0.4 0.8 -0.4
v 0.5 0.4 -0.4
v 0.5 0.8 -0.4
v 0.6 0.1 -0.4
v 0.6 0.4 -0.4
v -0.5 0 -0.5
v -0.5 0.1 -0.5
v -0.1 0.8 -0.5
v -0.1 1.2 -0.5
v 0.4 0.8 -0.5
v 0.4 1.2 -0.5
v 0.7 0 -0.5
v 0.7 0.1 -0.5
v -0.5 0 0.2
v -0.3 0 0.2
v -0.2 0 0.2
v -0.1 0 0.2
v -0.4 0 0.1
v -0.3 0 0.1
v 0.3 0 0.1
v 0.4 0 0.1
v 0.5 0 0.1
v 0.7 0 0.1
v 0.5 0 0
v 0.6 0 0
v -0.1 0 -0.1
v 0.3 0 -0.1
v -0.2 0 -0.2
v 0.4 0 -0.2
v -0.4 0 -0.4
v 0.6 0 -0.4
v -0.5 0 -0.5
v 0.7 0 -0.5
v -0.3 0.2 0.4
v -0.2 0.2 0.4
v -0.3 0.2 0.3
v -0.2 0.2 0.3
v 0.4 0.2 0.3
v 0.5 0.2 0.3
v 0.4 0.2 0.1
v 0.5 0.2 0.1
v 0.2 0.3 0.4
v 0.7 0.3 0.4
v 0.4 0.3 0.3
v 0.5 0.3 0.3
v 0.2 0.3 0.1
v 0.3 0.3 0.1
v 0.4 0.3 0.1
v 0.5 0.3 0.1
v 0.6 0.3 0.1
v 0.7 0.3 0.1
v -0.1 0.5 0
v 0.3 0.5 0
v -0.1 0.5 -0.1
v 0.3 0.5 -0.1
v -0.3 0.7 0.3
v -0.2 0.7 0.3
v -0.3 0.7 0.2
v -0.2 0.7 0.2
v -0.1 0.8 -0.4
v 0.4 0.8 -0.4
v -0.1 0.8 -0.5
v 0.4 0.8 -0.5
v -0.4 1 0.4
v -0.3 1 0.4
v -0.2 1 0.4
v -0.1 1 0.4
v -0.4 1 0.3
v -0.3 1 0.3
v -0.2 1 0.3
v -0.1 1 0.3
v -0.5 0.1 0.2
v -0.4 0.1 0.2
v 0.6 0.1 0.1
v 0.7 0.1 0.1
v -0.4 0.1 -0.4
v 0.6 0.1 -0.4
v -0.5 0.1 -0.5
v 0.7 0.1 -0.5
v 0.3 0.4 0.1
v 0.4 0.4 0.1
v 0.5 0.4 0.1
v 0.6 0.4 0.1
v 0.3 0.4 0
v 0.5 0.4 0
v 0.5 0.4 -0.4
v 0.6 0.4 -0.4
v 0.2 0.5 0.4
v 0.4 0.5 0.4
v 0.5 0.5 0.4
v 0.7 0.5 0.4
v 0.2 0.5 0.1
v 0.4 0.5 0.1
v 0.5 0.5 0.1
v 0.7 0.5 0.1
v -0.4 0.5 -0.2
v -0.2 0.5 -0.2
v -0.4 0.5 -0.4
v -0.2 0.5 -0.4
v -0.4 0.7 0
v -0.1 0.7 0
v -0.2 0.7 -0.1
v -0.1 0.7 -0.1
v -0.4 0.7 -0.2
v -0.2 0.7 -0.2
v -0.3 0.8 0.3
v -0.2 0.8 0.3
v -0.3 0.8 0.2
v -0.2 0.8 0.2
v -0.1 0.8 0
v 0.1 0.8 0
v 0.2 0.8 0
v 0.5 0.8 0
v -0.2 0.8 -0.1
v -0.1 0.8 -0.1
v 5.96046e-08 0.8 -0.1
v 0.1 0.8 -0.1
v 0.2 0.8 -0.1
v 0.3 0.8 -0.1
v 0.4 0.8 -0.1
v -0.2 0.8 -0.4
v -0.1 0.8 -0.4
v 0.4 0.8 -0.4
v 0.5 0.8 -0.4
v -0.4 0.9 0.2
v -0.1 0.9 0.2
v -0.4 0.9 0
v -0.1 0.9 0
v -0.4 1.1 0.4
v -0.3 1.1 0.4
v -0.2 1.1 0.4
v -0.1 1.1 0.4
v -0.4 1.1 0.3
v -0.3 1.1 0.3
v -0.2 1.1 0.3
v -0.1 1.1 0.3
v -0.3 1.2 0.4
v -0.2 1.2 0.4
v -0.3 1.2 0.3
v -0.2 1.2 0.3
v -0.1 1.2 -0.1
v 0.4 1.2 -0.1
v -0.1 1.2 -0.5
v 0.4 1.2 -0.5

# faces
f 3/5/1 2/5/1 1/5/1
f 4/5/1 2/5/1 3/5/1
f 7/5/1 6/5/1 5/5/1
f 8/5/1 6/5/1 7/5/1
f 9/5/1 7/5/1 5/5/1
f 10/5/1 7/5/1 9/5/1
f 11/5/1 9/5/1 5/5/1
f 12/5/1 9/5/1 11/5/1
f 15/2/1 14/2/1 13/2/1
f 16/2/1 14/2/1 15/2/1
f 19/2/1 18/2/1 17/2/1
f 20/2/1 18/2/1 19/2/1
f 22/4/1 20/4/1 19/4/1
f 22/4/1 21/4/1 20/4/1
f 23/4/1 21/4/1 22/4/1
f 24/4/1 21/4/1 23/4/1
f 25/2/1 23/2/1 22/2/1
f 26/2/1 23/2/1 25/2/1
f 29/2/1 28/2/1 27/2/1
f 30/2/1 28/2/1 29/2/1
f 34/5/1 32/5/1 31/5/1
f 35/5/1 34/5/1 33/5/1
f 36/5/1 32/5/1 34/5/1
f 36/5/1 34/5/1 35/5/1
f 39/5/1 38/5/1 37/5/1
f 40/5/1 38/5/1 39/5/1
f 43/3/1 42/3/1 41/3/1
f 43/3/1 41/3/1 40/3/1
f 44/3/1 42/3/1 43/3/1
f 47/1/1 46/1/1 45/1/1
f 48/1/1 46/1/1 47/1/1
f 49/6/1 48/6/1 47/6/1
f 50/6/1 48/6/1 49/6/1
f 53/5/1 52/5/1 51/5/1
f 54/5/1 52/5/1 53/5/1
f 55/5/1 52/5/1 54/5/1
f 56/5/1 52/5/1 55/5/1
f 57/5/1 52/5/1 56/5/1
f 60/4/1 59/4/1 58/4/1
f 61/4/1 59/4/1 60/4/1
f 62/2/2 63/2/2 64/2/2
f 64/2/2 63/2/2 65/2/2
f 64/4/2 65/4/2 67/4/2
f 65/4/2 66/4/2 67/4/2
f 67/4/2 66/4/2 68/4/2
f 68/4/2 66/4/2 69/4/2
f 67/2/2 68/2/2 70/2/2
f 70/2/2 68/2/2 71/2/2
f 72/2/2 73/2/2 74/2/2
f 74/2/2 73/2/2 75/2/2
f 76/5/2 77/5/2 78/5/2
f 78/5/2 77/5/2 79/5/2
f 76/5/2 78/5/2 80/5/2
f 76/5/2 80/5/2 81/5/2
f 81/5/2 80/5/2 82/5/2
f 83/2/2 84/2/2 85/2/2
f 85/2/2 84/2/2 86/2/2
f 87/3/2 88/3/2 90/3/2
f 88/3/2 89/3/2 90/3/2
f 90/3/2 89/3/2 91/3/2
f 92/4/2 93/4/2 94/4/2
f 94/4/2 93/4/2 95/4/2
f 96/5/2 97/5/2 98/5/2
f 98/5/2 97/5/2 99/5/2
f 100/5/2 101/5/2 102/5/2
f 102/5/2 101/5/2 103/5/2
f 103/5/2 101/5/2 104/5/2
f 105/5/2 106/5/2 107/5/2
f 107/5/2 106/5/2 108/5/2
f 109/1/2 110/1/2 111/1/2
f 111/1/2 110/1/2 112/1/2
f 111/6/2 112/6/2 113/6/2
f 113/6/2 112/6/2 114/6/2
f 120/2/3 116/2/3 115/2/3
f 121/2/3 116/2/3 120/2/3
f 123/2/3 118/2/3 117/2/3
f 124/4/3 119/4/3 118/4/3
f 124/2/3 118/2/3 123/2/3
f 125/2/3 122/2/3 121/2/3
f 125/4/3 119/4/3 124/4/3
f 125/2/3 120/2/3 119/2/3
f 125/2/3 121/2/3 120/2/3
f 126/2/3 122/2/3 125/2/3
f 127/2/3 122/2/3 126/2/3
f 128/2/3 122/2/3 127/2/3
f 129/2/3 127/2/3 126/2/3
f 130/2/3 127/2/3 129/2/3
f 134/1/3 132/1/3 131/1/3
f 134/6/3 133/6/3 132/6/3
f 135/6/3 133/6/3 134/6/3
f 136/1/3 134/1/3 131/1/3
f 136/5/3 135/5/3 134/5/3
f 137/5/3 135/5/3 136/5/3
f 138/1/3 136/1/3 131/1/3
f 139/6/3 137/6/3 136/6/3
f 139/1/3 136/1/3 138/1/3
f 140/6/3 137/6/3 139/6/3
f 143/4/3 142/4/3 141/4/3
f 144/4/3 142/4/3 143/4/3
f 147/5/3 146/5/3 145/5/3
f 149/5/3 147/5/3 145/5/3
f 149/5/3 148/5/3 147/5/3
f 150/5/3 148/5/3 149/5/3
f 151/5/3 148/5/3 150/5/3
f 152/7/3 150/7/3 149/7/3
f 153/7/3 150/7/3 152/7/3
f 154/5/3 148/5/3 151/5/3
f 155/5/3 153/5/3 152/5/3
f 155/5/3 154/5/3 153/5/3
f 156/5/3 148/5/3 154/5/3
f 156/5/3 154/5/3 155/5/3
f 159/5/3 158/5/3 157/5/3
f 160/5/3 158/5/3 159/5/3
f 161/5/3 158/5/3 160/5/3
f 162/7/3 160/7/3 159/7/3
f 163/7/3 160/7/3 162/7/3
f 165/5/3 163/5/3 162/5/3
f 165/5/3 164/5/3 163/5/3
f 166/5/3 164/5/3 165/5/3
f 167/5/3 165/5/3 162/5/3
f 168/5/3 165/5/3 167/5/3
f 171/5/3 170/5/3 169/5/3
f 172/5/3 170/5/3 171/5/3
f 173/5/3 171/5/3 169/5/3
f 173/4/3 172/4/3 171/4/3
f 174/4/3 172/4/3 173/4/3
f 176/5/3 173/5/3 169/5/3
f 176/5/3 174/5/3 173/5/3
f 177/5/3 176/5/3 175/5/3
f 178/5/3 174/5/3 176/5/3
f 178/5/3 176/5/3 177/5/3
f 183/5/3 180/5/3 179/5/3
f 184/5/3 180/5/3 183/5/3
f 186/3/3 185/3/3 184/3/3
f 187/3/3 185/3/3 186/3/3
f 188/4/3 187/4/3 186/4/3
f 189/4/3 187/4/3 188/4/3
f 190/5/3 182/5/3 181/5/3
f 191/5/3 182/5/3 190/5/3
f 192/4/3 187/4/3 189/4/3
f 193/3/3 185/3/3 187/3/3
f 193/4/3 187/4/3 192/4/3
f 194/3/3 193/3/3 192/3/3
f 195/3/3 185/3/3 193/3/3
f 195/3/3 193/3/3 194/3/3
f 196/2/4 197/2/4 201/2/4
f 201/2/4 197/2/4 202/2/4
f 198/2/4 199/2/4 204/2/4
f 204/2/4 199/2/4 205/2/4
f 202/2/4 203/2/4 206/2/4
f 200/2/4 201/2/4 206/2/4
f 201/2/4 202/2/4 206/2/4
f 206/2/4 203/2/4 207/2/4
f 207/2/4 203/2/4 208/2/4
f 208/2/4 203/2/4 209/2/4
f 207/2/4 208/2/4 210/2/4
f 210/2/4 208/2/4 211/2/4
f 212/1/4 213/1/4 215/1/4
f 213/6/4 214/6/4 216/6/4
f 215/1/4 213/1/4 216/1/4
f 216/6/4 214/6/4 217/6/4
f 217/6/4 214/6/4 218/6/4
f 217/5/4 218/5/4 219/5/4
f 219/5/4 218/5/4 220/5/4
f 219/6/4 220/6/4 222/6/4
f 221/1/4 222/1/4 223/1/4
f 222/6/4 220/6/4 224/6/4
f 223/1/4 222/1/4 224/1/4
f 224/6/4 220/6/4 225/6/4
f 226/5/4 227/5/4 228/5/4
f 228/5/4 227/5/4 229/5/4
f 229/5/4 227/5/4 230/5/4
f 231/5/4 232/5/4 233/5/4
f 233/5/4 232/5/4 234/5/4
f 235/5/4 236/5/4 237/5/4
f 237/5/4 238/5/4 239/5/4
f 237/5/4 239/5/4 240/5/4
f 235/5/4 237/5/4 241/5/4
f 237/5/4 240/5/4 241/5/4
f 241/5/4 240/5/4 242/5/4
f 235/5/4 241/5/4 243/5/4
f 243/5/4 241/5/4 244/5/4
f 247/3/4 248/3/4 249/3/4
f 249/3/4 248/3/4 250/3/4
f 245/5/4 246/5/4 251/5/4
f 251/5/4 246/5/4 252/5/4
f 257/5/5 254/5/5 253/5/5
f 258/7/5 255/7/5 254/7/5
f 258/5/5 254/5/5 257/5/5
f 263/7/5 261/7/5 260/7/5
f 263/5/5 262/5/5 261/5/5
f 264/5/5 262/5/5 263/5/5
f 265/5/5 256/5/5 255/5/5
f 266/5/5 260/5/5 259/5/5
f 267/7/5 258/7/5 257/7/5
f 267/5/5 266/5/5 265/5/5
f 267/7/5 255/7/5 258/7/5
f 267/5/5 265/5/5 255/5/5
f 268/5/5 260/5/5 266/5/5
f 268/5/5 266/5/5 267/5/5
f 268/7/5 264/7/5 263/7/5
f 268/7/5 263/7/5 260/7/5
f 269/5/5 257/5/5 253/5/5
f 269/7/5 267/7/5 257/7/5
f 269/7/5 268/7/5 267/7/5
f 270/5/5 262/5/5 264/5/5
f 270/7/5 268/7/5 269/7/5
f 270/7/5 264/7/5 268/7/5
f 271/5/5 269/5/5 253/5/5
f 271/5/5 270/5/5 269/5/5
f 272/5/5 262/5/5 270/5/5
f 272/5/5 270/5/5 271/5/5
f 275/2/5 274/2/5 273/2/5
f 276/2/5 274/2/5 275/2/5
f 279/4/5 278/4/5 277/4/5
f 280/4/5 278/4/5 279/4/5
f 283/1/5 282/1/5 281/1/5
f 284/1/5 282/1/5 283/1/5
f 285/1/5 283/1/5 281/1/5
f 286/1/5 283/1/5 285/1/5
f 287/1/5 283/1/5 286/1/5
f 288/1/5 282/1/5 284/1/5
f 289/1/5 282/1/5 288/1/5
f 290/1/5 282/1/5 289/1/5
f 293/5/5 292/5/5 291/5/5
f 294/5/5 292/5/5 293/5/5
f 297/4/5 296/4/5 295/4/5
f 298/4/5 296/4/5 297/4/5
f 301/3/5 300/3/5 299/3/5
f 302/3/5 300/3/5 301/3/5
f 307/2/5 304/2/5 303/2/5
f 308/2/5 304/2/5 307/2/5
f 309/2/5 306/2/5 305/2/5
f 310/2/5 306/2/5 309/2/5
f 311/5/6 312/5/6 315/5/6
f 313/5/6 314/5/6 316/5/6
f 311/5/6 315/5/6 317/5/6
f 315/5/6 316/5/6 317/5/6
f 316/5/6 314/5/6 318/5/6
f 317/5/6 316/5/6 318/5/6
f 319/5/6 320/5/6 323/5/6
f 321/5/6 322/5/6 323/5/6
f 320/5/6 321/5/6 323/5/6
f 323/5/6 322/5/6 324/5/6
f 324/5/6 322/5/6 325/5/6
f 325/5/6 322/5/6 326/5/6
f 327/6/6 328/6/6 331/6/6
f 328/5/6 329/5/6 332/5/6
f 331/6/6 328/6/6 332/6/6
f 329/6/6 330/6/6 333/6/6
f 332/5/6 329/5/6 333/5/6
f 333/6/6 330/6/6 334/6/6
f 335/5/6 336/5/6 337/5/6
f 337/5/6 336/5/6 338/5/6
f 339/5/6 340/5/6 341/5/6
f 341/5/6 340/5/6 342/5/6
f 339/5/6 341/5/6 343/5/6
f 343/5/6 341/5/6 344/5/6
f 345/4/6 346/4/6 347/4/6
f 347/4/6 346/4/6 348/4/6
f 349/5/6 350/5/6 354/5/6
f 354/5/6 350/5/6 355/5/6
f 350/4/6 351/4/6 356/4/6
f 355/5/6 350/5/6 356/5/6
f 351/5/6 352/5/6 357/5/6
f 356/4/6 351/4/6 357/4/6
f 357/5/6 352/5/6 358/5/6
f 358/5/6 352/5/6 359/5/6
f 353/5/6 354/5/6 360/5/6
f 360/5/6 354/5/6 361/5/6
f 359/5/6 352/5/6 362/5/6
f 362/5/6 352/5/6 363/5/6
f 364/5/6 365/5/6 366/5/6
f 366/5/6 365/5/6 367/5/6
f 368/2/6 369/2/6 372/2/6
f 372/2/6 369/2/6 373/2/6
f 370/2/6 371/2/6 374/2/6
f 374/2/6 371/2/6 375/2/6
f 376/2/6 377/2/6 378/2/6
f 378/2/6 377/2/6 379/2/6
f 380/3/6 381/3/6 382/3/6
f 382/3/6 381/3/6 383/3/6
