# MagicaVoxel @ Ephtracy

# group
o 

# material
mtllib dungeon_d_a_inner_wall_segment_b.mtl
usemtl palette

# normals
vn -1 0 0
vn 1 0 0
vn 0 0 1
vn 0 0 -1
vn 0 -1 0
vn 0 1 0

# texcoords
vt 0.947266 0.5
vt 0.970703 0.5

# verts
v -0.7 0 0.7
v -0.7 0 -0.8
v -0.7 0.2 0.7
v -0.7 0.2 0.6
v -0.7 0.2 -0.7
v -0.7 0.2 -0.8
v -0.7 0.3 -0.6
v -0.7 0.3 -0.7
v -0.7 0.4 -0.6
v -0.7 0.4 -0.7
v -0.7 0.5 0.6
v -0.7 0.5 0.5
v -0.7 0.6 0.6
v -0.7 0.6 0.5
v -0.7 0.7 -0.6
v -0.7 0.7 -0.7
v -0.7 0.8 -0.6
v -0.7 0.8 -0.7
v -0.7 0.9 0.6
v -0.7 0.9 0.5
v -0.7 1 0.6
v -0.7 1 0.5
v -0.7 1.1 -0.6
v -0.7 1.1 -0.7
v -0.7 1.2 -0.6
v -0.7 1.2 -0.7
v -0.7 1.3 0.6
v -0.7 1.3 0.5
v -0.7 1.4 0.6
v -0.7 1.4 0.5
v -0.7 1.5 -0.6
v -0.7 1.5 -0.7
v -0.7 1.6 0.5
v -0.7 1.6 0.4
v -0.7 1.6 -0.5
v -0.7 1.6 -0.6
v -0.7 1.6 -0.7
v -0.7 1.7 0.6
v -0.7 1.7 0.5
v -0.7 1.7 0.4
v -0.7 1.7 -0.5
v -0.7 1.7 -0.6
v -0.7 1.7 -0.7
v -0.6 0.2 -0.7
v -0.6 0.2 -0.8
v -0.6 0.3 -0.7
v -0.6 0.3 -0.8
v -0.6 0.4 -0.7
v -0.6 0.4 -0.8
v -0.6 0.7 -0.7
v -0.6 0.7 -0.8
v -0.6 0.8 -0.7
v -0.6 0.8 -0.8
v -0.6 1.1 -0.7
v -0.6 1.1 -0.8
v -0.6 1.2 -0.7
v -0.6 1.2 -0.8
v -0.6 1.5 -0.7
v -0.6 1.5 -0.8
v -0.6 1.6 -0.7
v -0.6 1.6 -0.8
v -0.6 1.7 -0.7
v -0.6 1.7 -0.8
v 0.7 0.2 -0.7
v 0.7 0.2 -0.8
v 0.7 0.5 -0.7
v 0.7 0.5 -0.8
v 0.7 0.6 -0.7
v 0.7 0.6 -0.8
v 0.7 0.9 -0.7
v 0.7 0.9 -0.8
v 0.7 1 -0.7
v 0.7 1 -0.8
v 0.7 1.3 -0.7
v 0.7 1.3 -0.8
v 0.7 1.4 -0.7
v 0.7 1.4 -0.8
v 0.7 1.7 -0.7
v 0.7 1.7 -0.8
v 0.8 0 0.7
v 0.8 0 -0.8
v 0.8 0.2 0.7
v 0.8 0.2 0.6
v 0.8 0.2 -0.7
v 0.8 0.2 -0.8
v 0.8 0.3 0.6
v 0.8 0.3 0.5
v 0.8 0.4 0.6
v 0.8 0.4 0.5
v 0.8 0.5 -0.6
v 0.8 0.5 -0.7
v 0.8 0.6 -0.6
v 0.8 0.6 -0.7
v 0.8 0.7 0.6
v 0.8 0.7 0.5
v 0.8 0.8 0.6
v 0.8 0.8 0.5
v 0.8 0.9 -0.6
v 0.8 0.9 -0.7
v 0.8 1 -0.6
v 0.8 1 -0.7
v 0.8 1.1 0.6
v 0.8 1.1 0.5
v 0.8 1.2 0.6
v 0.8 1.2 0.5
v 0.8 1.3 -0.6
v 0.8 1.3 -0.7
v 0.8 1.4 -0.6
v 0.8 1.4 -0.7
v 0.8 1.5 0.6
v 0.8 1.5 0.5
v 0.8 1.6 0.6
v 0.8 1.6 0.5
v 0.8 1.6 0.4
v 0.8 1.6 -0.5
v 0.8 1.6 -0.6
v 0.8 1.7 0.6
v 0.8 1.7 0.5
v 0.8 1.7 0.4
v 0.8 1.7 -0.5
v 0.8 1.7 -0.6
v 0.8 1.7 -0.7
v -0.7 0 0.7
v -0.7 0.2 0.7
v 0.8 0 0.7
v 0.8 0.2 0.7
v -0.7 0.2 0.6
v -0.7 0.5 0.6
v -0.7 0.6 0.6
v -0.7 0.9 0.6
v -0.7 1 0.6
v -0.7 1.3 0.6
v -0.7 1.4 0.6
v -0.7 1.7 0.6
v -0.6 0.3 0.6
v -0.6 0.4 0.6
v -0.6 0.7 0.6
v -0.6 0.8 0.6
v -0.6 1.1 0.6
v -0.6 1.2 0.6
v -0.6 1.5 0.6
v -0.6 1.6 0.6
v -0.5 0.5 0.6
v -0.5 0.6 0.6
v -0.5 0.9 0.6
v -0.5 1 0.6
v -0.5 1.3 0.6
v -0.5 1.4 0.6
v -0.4 0.3 0.6
v -0.4 0.4 0.6
v -0.4 0.5 0.6
v -0.4 0.6 0.6
v -0.4 0.7 0.6
v -0.4 0.8 0.6
v -0.4 0.9 0.6
v -0.4 1 0.6
v -0.4 1.1 0.6
v -0.4 1.2 0.6
v -0.4 1.3 0.6
v -0.4 1.4 0.6
v -0.4 1.5 0.6
v -0.4 1.6 0.6
v -0.3 0.3 0.6
v -0.3 0.4 0.6
v -0.3 0.7 0.6
v -0.3 0.8 0.6
v -0.3 1.1 0.6
v -0.3 1.2 0.6
v -0.3 1.5 0.6
v -0.3 1.6 0.6
v -0.2 0.5 0.6
v -0.2 0.6 0.6
v -0.2 0.9 0.6
v -0.2 1 0.6
v -0.2 1.3 0.6
v -0.2 1.4 0.6
v -0.1 0.3 0.6
v -0.1 0.4 0.6
v -0.1 0.5 0.6
v -0.1 0.6 0.6
v -0.1 0.7 0.6
v -0.1 0.8 0.6
v -0.1 0.9 0.6
v -0.1 1 0.6
v -0.1 1.1 0.6
v -0.1 1.2 0.6
v -0.1 1.3 0.6
v -0.1 1.4 0.6
v -0.1 1.5 0.6
v -0.1 1.6 0.6
v 0 0.3 0.6
v 0 0.4 0.6
v 0 0.7 0.6
v 0 0.8 0.6
v 0 1.1 0.6
v 0 1.2 0.6
v 0 1.5 0.6
v 0 1.6 0.6
v 0.1 0.5 0.6
v 0.1 0.6 0.6
v 0.1 0.9 0.6
v 0.1 1 0.6
v 0.1 1.3 0.6
v 0.1 1.4 0.6
v 0.2 0.3 0.6
v 0.2 0.4 0.6
v 0.2 0.5 0.6
v 0.2 0.6 0.6
v 0.2 0.7 0.6
v 0.2 0.8 0.6
v 0.2 0.9 0.6
v 0.2 1 0.6
v 0.2 1.1 0.6
v 0.2 1.2 0.6
v 0.2 1.3 0.6
v 0.2 1.4 0.6
v 0.2 1.5 0.6
v 0.2 1.6 0.6
v 0.3 0.3 0.6
v 0.3 0.4 0.6
v 0.3 0.7 0.6
v 0.3 0.8 0.6
v 0.3 1.1 0.6
v 0.3 1.2 0.6
v 0.3 1.5 0.6
v 0.3 1.6 0.6
v 0.4 0.5 0.6
v 0.4 0.6 0.6
v 0.4 0.9 0.6
v 0.4 1 0.6
v 0.4 1.3 0.6
v 0.4 1.4 0.6
v 0.5 0.3 0.6
v 0.5 0.4 0.6
v 0.5 0.5 0.6
v 0.5 0.6 0.6
v 0.5 0.7 0.6
v 0.5 0.8 0.6
v 0.5 0.9 0.6
v 0.5 1 0.6
v 0.5 1.1 0.6
v 0.5 1.2 0.6
v 0.5 1.3 0.6
v 0.5 1.4 0.6
v 0.5 1.5 0.6
v 0.5 1.6 0.6
v 0.6 0.3 0.6
v 0.6 0.4 0.6
v 0.6 0.7 0.6
v 0.6 0.8 0.6
v 0.6 1.1 0.6
v 0.6 1.2 0.6
v 0.6 1.5 0.6
v 0.6 1.6 0.6
v 0.7 0.5 0.6
v 0.7 0.6 0.6
v 0.7 0.9 0.6
v 0.7 1 0.6
v 0.7 1.3 0.6
v 0.7 1.4 0.6
v 0.8 0.2 0.6
v 0.8 0.3 0.6
v 0.8 0.4 0.6
v 0.8 0.7 0.6
v 0.8 0.8 0.6
v 0.8 1.1 0.6
v 0.8 1.2 0.6
v 0.8 1.5 0.6
v 0.8 1.6 0.6
v 0.8 1.7 0.6
v -0.7 0.2 -0.7
v -0.7 0.3 -0.7
v -0.7 0.4 -0.7
v -0.7 0.7 -0.7
v -0.7 0.8 -0.7
v -0.7 1.1 -0.7
v -0.7 1.2 -0.7
v -0.7 1.5 -0.7
v -0.7 1.6 -0.7
v -0.7 1.7 -0.7
v -0.6 0.2 -0.7
v -0.6 0.3 -0.7
v -0.6 0.4 -0.7
v -0.6 0.7 -0.7
v -0.6 0.8 -0.7
v -0.6 1.1 -0.7
v -0.6 1.2 -0.7
v -0.6 1.5 -0.7
v -0.6 1.6 -0.7
v -0.6 1.7 -0.7
v 0.7 0.2 -0.7
v 0.7 0.5 -0.7
v 0.7 0.6 -0.7
v 0.7 0.9 -0.7
v 0.7 1 -0.7
v 0.7 1.3 -0.7
v 0.7 1.4 -0.7
v 0.7 1.7 -0.7
v 0.8 0.2 -0.7
v 0.8 0.5 -0.7
v 0.8 0.6 -0.7
v 0.8 0.9 -0.7
v 0.8 1 -0.7
v 0.8 1.3 -0.7
v 0.8 1.4 -0.7
v 0.8 1.7 -0.7
v -0.7 0 -0.8
v -0.7 0.2 -0.8
v -0.6 0.2 -0.8
v -0.6 0.3 -0.8
v -0.6 0.4 -0.8
v -0.6 0.7 -0.8
v -0.6 0.8 -0.8
v -0.6 1.1 -0.8
v -0.6 1.2 -0.8
v -0.6 1.5 -0.8
v -0.6 1.6 -0.8
v -0.6 1.7 -0.8
v -0.5 0.3 -0.8
v -0.5 0.4 -0.8
v -0.5 0.7 -0.8
v -0.5 0.8 -0.8
v -0.5 1.1 -0.8
v -0.5 1.2 -0.8
v -0.5 1.5 -0.8
v -0.5 1.6 -0.8
v -0.5 1.7 -0.8
v -0.4 1.6 -0.8
v -0.4 1.7 -0.8
v 0.5 1.6 -0.8
v 0.5 1.7 -0.8
v 0.6 0.5 -0.8
v 0.6 0.6 -0.8
v 0.6 0.9 -0.8
v 0.6 1 -0.8
v 0.6 1.3 -0.8
v 0.6 1.4 -0.8
v 0.6 1.6 -0.8
v 0.6 1.7 -0.8
v 0.7 0.2 -0.8
v 0.7 0.5 -0.8
v 0.7 0.6 -0.8
v 0.7 0.9 -0.8
v 0.7 1 -0.8
v 0.7 1.3 -0.8
v 0.7 1.4 -0.8
v 0.7 1.7 -0.8
v 0.8 0 -0.8
v 0.8 0.2 -0.8
v -0.7 0 0.7
v 0.8 0 0.7
v -0.7 0 -0.8
v 0.8 0 -0.8
v -0.7 0.2 0.7
v 0.8 0.2 0.7
v -0.7 0.2 0.6
v 0.8 0.2 0.6
v -0.7 0.2 -0.7
v -0.6 0.2 -0.7
v 0.7 0.2 -0.7
v 0.8 0.2 -0.7
v -0.7 0.2 -0.8
v -0.6 0.2 -0.8
v 0.7 0.2 -0.8
v 0.8 0.2 -0.8
v -0.7 1.7 0.6
v 0.8 1.7 0.6
v -0.7 1.7 0.5
v 0.8 1.7 0.5
v -0.7 1.7 0.4
v 0.8 1.7 0.4
v -0.7 1.7 -0.5
v -0.4 1.7 -0.5
v 0.5 1.7 -0.5
v 0.8 1.7 -0.5
v -0.7 1.7 -0.6
v -0.5 1.7 -0.6
v 0.6 1.7 -0.6
v 0.8 1.7 -0.6
v -0.7 1.7 -0.7
v -0.6 1.7 -0.7
v 0.7 1.7 -0.7
v 0.8 1.7 -0.7
v -0.6 1.7 -0.8
v -0.5 1.7 -0.8
v -0.4 1.7 -0.8
v 0.5 1.7 -0.8
v 0.6 1.7 -0.8
v 0.7 1.7 -0.8

# faces
f 3/2/1 2/2/1 1/2/1
f 4/2/1 2/2/1 3/2/1
f 5/2/1 2/2/1 4/2/1
f 6/2/1 2/2/1 5/2/1
f 7/2/1 5/2/1 4/2/1
f 8/2/1 5/2/1 7/2/1
f 9/2/1 7/2/1 4/2/1
f 9/1/1 8/1/1 7/1/1
f 10/1/1 8/1/1 9/1/1
f 11/2/1 9/2/1 4/2/1
f 11/2/1 10/2/1 9/2/1
f 12/2/1 10/2/1 11/2/1
f 13/1/1 12/1/1 11/1/1
f 14/2/1 10/2/1 12/2/1
f 14/1/1 12/1/1 13/1/1
f 15/2/1 14/2/1 13/2/1
f 15/2/1 10/2/1 14/2/1
f 16/2/1 10/2/1 15/2/1
f 17/2/1 15/2/1 13/2/1
f 17/1/1 16/1/1 15/1/1
f 18/1/1 16/1/1 17/1/1
f 19/2/1 17/2/1 13/2/1
f 19/2/1 18/2/1 17/2/1
f 20/2/1 18/2/1 19/2/1
f 21/1/1 20/1/1 19/1/1
f 22/2/1 18/2/1 20/2/1
f 22/1/1 20/1/1 21/1/1
f 23/2/1 22/2/1 21/2/1
f 23/2/1 18/2/1 22/2/1
f 24/2/1 18/2/1 23/2/1
f 25/2/1 23/2/1 21/2/1
f 25/1/1 24/1/1 23/1/1
f 26/1/1 24/1/1 25/1/1
f 27/2/1 25/2/1 21/2/1
f 27/2/1 26/2/1 25/2/1
f 28/2/1 26/2/1 27/2/1
f 29/1/1 28/1/1 27/1/1
f 30/2/1 26/2/1 28/2/1
f 30/1/1 28/1/1 29/1/1
f 31/2/1 30/2/1 29/2/1
f 31/2/1 26/2/1 30/2/1
f 32/2/1 26/2/1 31/2/1
f 33/2/1 31/2/1 29/2/1
f 34/2/1 31/2/1 33/2/1
f 35/2/1 31/2/1 34/2/1
f 36/1/1 32/1/1 31/1/1
f 36/2/1 31/2/1 35/2/1
f 37/1/1 32/1/1 36/1/1
f 38/2/1 33/2/1 29/2/1
f 39/1/1 34/1/1 33/1/1
f 39/2/1 33/2/1 38/2/1
f 40/2/1 35/2/1 34/2/1
f 40/1/1 34/1/1 39/1/1
f 41/1/1 36/1/1 35/1/1
f 41/2/1 35/2/1 40/2/1
f 42/2/1 37/2/1 36/2/1
f 42/1/1 36/1/1 41/1/1
f 43/2/1 37/2/1 42/2/1
f 46/2/1 45/2/1 44/2/1
f 47/2/1 45/2/1 46/2/1
f 48/1/1 47/1/1 46/1/1
f 49/1/1 47/1/1 48/1/1
f 50/2/1 49/2/1 48/2/1
f 51/2/1 49/2/1 50/2/1
f 52/1/1 51/1/1 50/1/1
f 53/1/1 51/1/1 52/1/1
f 54/2/1 53/2/1 52/2/1
f 55/2/1 53/2/1 54/2/1
f 56/1/1 55/1/1 54/1/1
f 57/1/1 55/1/1 56/1/1
f 58/2/1 57/2/1 56/2/1
f 59/2/1 57/2/1 58/2/1
f 60/1/1 59/1/1 58/1/1
f 61/1/1 59/1/1 60/1/1
f 62/2/1 61/2/1 60/2/1
f 63/2/1 61/2/1 62/2/1
f 64/2/2 65/2/2 66/2/2
f 66/2/2 65/2/2 67/2/2
f 66/1/2 67/1/2 68/1/2
f 68/1/2 67/1/2 69/1/2
f 68/2/2 69/2/2 70/2/2
f 70/2/2 69/2/2 71/2/2
f 70/1/2 71/1/2 72/1/2
f 72/1/2 71/1/2 73/1/2
f 72/2/2 73/2/2 74/2/2
f 74/2/2 73/2/2 75/2/2
f 74/1/2 75/1/2 76/1/2
f 76/1/2 75/1/2 77/1/2
f 76/2/2 77/2/2 78/2/2
f 78/2/2 77/2/2 79/2/2
f 80/2/2 81/2/2 82/2/2
f 82/2/2 81/2/2 83/2/2
f 83/2/2 81/2/2 84/2/2
f 84/2/2 81/2/2 85/2/2
f 83/2/2 84/2/2 86/2/2
f 86/2/2 84/2/2 87/2/2
f 86/1/2 87/1/2 88/1/2
f 87/2/2 84/2/2 89/2/2
f 88/1/2 87/1/2 89/1/2
f 88/2/2 89/2/2 90/2/2
f 89/2/2 84/2/2 90/2/2
f 90/2/2 84/2/2 91/2/2
f 88/2/2 90/2/2 92/2/2
f 90/1/2 91/1/2 92/1/2
f 92/1/2 91/1/2 93/1/2
f 88/2/2 92/2/2 94/2/2
f 92/2/2 93/2/2 94/2/2
f 94/2/2 93/2/2 95/2/2
f 94/1/2 95/1/2 96/1/2
f 95/2/2 93/2/2 97/2/2
f 96/1/2 95/1/2 97/1/2
f 96/2/2 97/2/2 98/2/2
f 97/2/2 93/2/2 98/2/2
f 98/2/2 93/2/2 99/2/2
f 96/2/2 98/2/2 100/2/2
f 98/1/2 99/1/2 100/1/2
f 100/1/2 99/1/2 101/1/2
f 96/2/2 100/2/2 102/2/2
f 100/2/2 101/2/2 102/2/2
f 102/2/2 101/2/2 103/2/2
f 102/1/2 103/1/2 104/1/2
f 103/2/2 101/2/2 105/2/2
f 104/1/2 103/1/2 105/1/2
f 104/2/2 105/2/2 106/2/2
f 105/2/2 101/2/2 106/2/2
f 106/2/2 101/2/2 107/2/2
f 104/2/2 106/2/2 108/2/2
f 106/1/2 107/1/2 108/1/2
f 108/1/2 107/1/2 109/1/2
f 104/2/2 108/2/2 110/2/2
f 108/2/2 109/2/2 110/2/2
f 110/2/2 109/2/2 111/2/2
f 110/1/2 111/1/2 112/1/2
f 111/2/2 109/2/2 113/2/2
f 112/1/2 111/1/2 113/1/2
f 113/2/2 109/2/2 114/2/2
f 114/2/2 109/2/2 115/2/2
f 115/2/2 109/2/2 116/2/2
f 112/2/2 113/2/2 117/2/2
f 113/1/2 114/1/2 118/1/2
f 117/2/2 113/2/2 118/2/2
f 114/2/2 115/2/2 119/2/2
f 118/1/2 114/1/2 119/1/2
f 115/1/2 116/1/2 120/1/2
f 119/2/2 115/2/2 120/2/2
f 116/2/2 109/2/2 121/2/2
f 120/1/2 116/1/2 121/1/2
f 121/2/2 109/2/2 122/2/2
f 125/2/3 124/2/3 123/2/3
f 126/2/3 124/2/3 125/2/3
f 135/2/3 128/2/3 127/2/3
f 136/2/3 128/2/3 135/2/3
f 137/2/3 130/2/3 129/2/3
f 138/2/3 130/2/3 137/2/3
f 139/2/3 132/2/3 131/2/3
f 140/2/3 132/2/3 139/2/3
f 141/2/3 134/2/3 133/2/3
f 142/2/3 134/2/3 141/2/3
f 143/1/3 129/1/3 128/1/3
f 143/2/3 128/2/3 136/2/3
f 144/2/3 137/2/3 129/2/3
f 144/1/3 129/1/3 143/1/3
f 145/1/3 131/1/3 130/1/3
f 145/2/3 130/2/3 138/2/3
f 146/2/3 139/2/3 131/2/3
f 146/1/3 131/1/3 145/1/3
f 147/2/3 132/2/3 140/2/3
f 147/1/3 133/1/3 132/1/3
f 148/2/3 141/2/3 133/2/3
f 148/1/3 133/1/3 147/1/3
f 149/2/3 135/2/3 127/2/3
f 149/1/3 136/1/3 135/1/3
f 150/2/3 144/2/3 143/2/3
f 150/1/3 136/1/3 149/1/3
f 150/2/3 143/2/3 136/2/3
f 151/2/3 144/2/3 150/2/3
f 152/2/3 137/2/3 144/2/3
f 152/2/3 144/2/3 151/2/3
f 153/1/3 138/1/3 137/1/3
f 153/2/3 137/2/3 152/2/3
f 154/2/3 146/2/3 145/2/3
f 154/1/3 138/1/3 153/1/3
f 154/2/3 145/2/3 138/2/3
f 155/2/3 146/2/3 154/2/3
f 156/2/3 139/2/3 146/2/3
f 156/2/3 146/2/3 155/2/3
f 157/1/3 140/1/3 139/1/3
f 157/2/3 139/2/3 156/2/3
f 158/2/3 148/2/3 147/2/3
f 158/1/3 140/1/3 157/1/3
f 158/2/3 147/2/3 140/2/3
f 159/2/3 148/2/3 158/2/3
f 160/2/3 141/2/3 148/2/3
f 160/2/3 148/2/3 159/2/3
f 161/1/3 142/1/3 141/1/3
f 161/2/3 141/2/3 160/2/3
f 162/2/3 134/2/3 142/2/3
f 162/1/3 142/1/3 161/1/3
f 163/2/3 151/2/3 150/2/3
f 163/2/3 149/2/3 127/2/3
f 163/2/3 150/2/3 149/2/3
f 164/2/3 151/2/3 163/2/3
f 165/2/3 155/2/3 154/2/3
f 165/2/3 153/2/3 152/2/3
f 165/2/3 154/2/3 153/2/3
f 166/2/3 155/2/3 165/2/3
f 167/2/3 159/2/3 158/2/3
f 167/2/3 157/2/3 156/2/3
f 167/2/3 158/2/3 157/2/3
f 168/2/3 159/2/3 167/2/3
f 169/2/3 161/2/3 160/2/3
f 169/2/3 162/2/3 161/2/3
f 170/2/3 134/2/3 162/2/3
f 170/2/3 162/2/3 169/2/3
f 171/2/3 151/2/3 164/2/3
f 171/1/3 152/1/3 151/1/3
f 172/2/3 165/2/3 152/2/3
f 172/1/3 152/1/3 171/1/3
f 173/2/3 155/2/3 166/2/3
f 173/1/3 156/1/3 155/1/3
f 174/2/3 167/2/3 156/2/3
f 174/1/3 156/1/3 173/1/3
f 175/2/3 159/2/3 168/2/3
f 175/1/3 160/1/3 159/1/3
f 176/2/3 169/2/3 160/2/3
f 176/1/3 160/1/3 175/1/3
f 177/1/3 164/1/3 163/1/3
f 177/2/3 163/2/3 127/2/3
f 178/2/3 171/2/3 164/2/3
f 178/1/3 164/1/3 177/1/3
f 178/2/3 172/2/3 171/2/3
f 179/2/3 172/2/3 178/2/3
f 180/2/3 165/2/3 172/2/3
f 180/2/3 172/2/3 179/2/3
f 181/1/3 166/1/3 165/1/3
f 181/2/3 165/2/3 180/2/3
f 182/2/3 174/2/3 173/2/3
f 182/1/3 166/1/3 181/1/3
f 182/2/3 173/2/3 166/2/3
f 183/2/3 174/2/3 182/2/3
f 184/2/3 167/2/3 174/2/3
f 184/2/3 174/2/3 183/2/3
f 185/1/3 168/1/3 167/1/3
f 185/2/3 167/2/3 184/2/3
f 186/2/3 175/2/3 168/2/3
f 186/1/3 168/1/3 185/1/3
f 186/2/3 176/2/3 175/2/3
f 187/2/3 176/2/3 186/2/3
f 188/2/3 169/2/3 176/2/3
f 188/2/3 176/2/3 187/2/3
f 189/1/3 170/1/3 169/1/3
f 189/2/3 169/2/3 188/2/3
f 190/2/3 134/2/3 170/2/3
f 190/1/3 170/1/3 189/1/3
f 191/2/3 179/2/3 178/2/3
f 191/2/3 177/2/3 127/2/3
f 191/2/3 178/2/3 177/2/3
f 192/2/3 179/2/3 191/2/3
f 193/2/3 183/2/3 182/2/3
f 193/2/3 181/2/3 180/2/3
f 193/2/3 182/2/3 181/2/3
f 194/2/3 183/2/3 193/2/3
f 195/2/3 185/2/3 184/2/3
f 195/2/3 187/2/3 186/2/3
f 195/2/3 186/2/3 185/2/3
f 196/2/3 187/2/3 195/2/3
f 197/2/3 189/2/3 188/2/3
f 197/2/3 190/2/3 189/2/3
f 198/2/3 134/2/3 190/2/3
f 198/2/3 190/2/3 197/2/3
f 199/2/3 179/2/3 192/2/3
f 199/1/3 180/1/3 179/1/3
f 200/2/3 193/2/3 180/2/3
f 200/1/3 180/1/3 199/1/3
f 201/2/3 183/2/3 194/2/3
f 201/1/3 184/1/3 183/1/3
f 202/2/3 195/2/3 184/2/3
f 202/1/3 184/1/3 201/1/3
f 203/2/3 187/2/3 196/2/3
f 203/1/3 188/1/3 187/1/3
f 204/2/3 197/2/3 188/2/3
f 204/1/3 188/1/3 203/1/3
f 205/1/3 192/1/3 191/1/3
f 205/2/3 191/2/3 127/2/3
f 206/2/3 200/2/3 199/2/3
f 206/1/3 192/1/3 205/1/3
f 206/2/3 199/2/3 192/2/3
f 207/2/3 200/2/3 206/2/3
f 208/2/3 193/2/3 200/2/3
f 208/2/3 200/2/3 207/2/3
f 209/1/3 194/1/3 193/1/3
f 209/2/3 193/2/3 208/2/3
f 210/2/3 202/2/3 201/2/3
f 210/1/3 194/1/3 209/1/3
f 210/2/3 201/2/3 194/2/3
f 211/2/3 202/2/3 210/2/3
f 212/2/3 195/2/3 202/2/3
f 212/2/3 202/2/3 211/2/3
f 213/1/3 196/1/3 195/1/3
f 213/2/3 195/2/3 212/2/3
f 214/2/3 203/2/3 196/2/3
f 214/1/3 196/1/3 213/1/3
f 214/2/3 204/2/3 203/2/3
f 215/2/3 204/2/3 214/2/3
f 216/2/3 197/2/3 204/2/3
f 216/2/3 204/2/3 215/2/3
f 217/1/3 198/1/3 197/1/3
f 217/2/3 197/2/3 216/2/3
f 218/2/3 134/2/3 198/2/3
f 218/1/3 198/1/3 217/1/3
f 219/2/3 207/2/3 206/2/3
f 219/2/3 205/2/3 127/2/3
f 219/2/3 206/2/3 205/2/3
f 220/2/3 207/2/3 219/2/3
f 221/2/3 211/2/3 210/2/3
f 221/2/3 210/2/3 209/2/3
f 221/2/3 209/2/3 208/2/3
f 222/2/3 211/2/3 221/2/3
f 223/2/3 215/2/3 214/2/3
f 223/2/3 213/2/3 212/2/3
f 223/2/3 214/2/3 213/2/3
f 224/2/3 215/2/3 223/2/3
f 225/2/3 217/2/3 216/2/3
f 225/2/3 218/2/3 217/2/3
f 226/2/3 134/2/3 218/2/3
f 226/2/3 218/2/3 225/2/3
f 227/2/3 207/2/3 220/2/3
f 227/1/3 208/1/3 207/1/3
f 228/2/3 221/2/3 208/2/3
f 228/1/3 208/1/3 227/1/3
f 229/2/3 211/2/3 222/2/3
f 229/1/3 212/1/3 211/1/3
f 230/2/3 223/2/3 212/2/3
f 230/1/3 212/1/3 229/1/3
f 231/2/3 215/2/3 224/2/3
f 231/1/3 216/1/3 215/1/3
f 232/2/3 225/2/3 216/2/3
f 232/1/3 216/1/3 231/1/3
f 233/1/3 220/1/3 219/1/3
f 233/2/3 219/2/3 127/2/3
f 234/2/3 228/2/3 227/2/3
f 234/1/3 220/1/3 233/1/3
f 234/2/3 227/2/3 220/2/3
f 235/2/3 228/2/3 234/2/3
f 236/2/3 221/2/3 228/2/3
f 236/2/3 228/2/3 235/2/3
f 237/1/3 222/1/3 221/1/3
f 237/2/3 221/2/3 236/2/3
f 238/2/3 230/2/3 229/2/3
f 238/1/3 222/1/3 237/1/3
f 238/2/3 229/2/3 222/2/3
f 239/2/3 230/2/3 238/2/3
f 240/2/3 223/2/3 230/2/3
f 240/2/3 230/2/3 239/2/3
f 241/1/3 224/1/3 223/1/3
f 241/2/3 223/2/3 240/2/3
f 242/2/3 231/2/3 224/2/3
f 242/1/3 224/1/3 241/1/3
f 242/2/3 232/2/3 231/2/3
f 243/2/3 232/2/3 242/2/3
f 244/2/3 225/2/3 232/2/3
f 244/2/3 232/2/3 243/2/3
f 245/1/3 226/1/3 225/1/3
f 245/2/3 225/2/3 244/2/3
f 246/2/3 134/2/3 226/2/3
f 246/1/3 226/1/3 245/1/3
f 247/2/3 235/2/3 234/2/3
f 247/2/3 233/2/3 127/2/3
f 247/2/3 234/2/3 233/2/3
f 248/2/3 235/2/3 247/2/3
f 249/2/3 239/2/3 238/2/3
f 249/2/3 237/2/3 236/2/3
f 249/2/3 238/2/3 237/2/3
f 250/2/3 239/2/3 249/2/3
f 251/2/3 241/2/3 240/2/3
f 251/2/3 243/2/3 242/2/3
f 251/2/3 242/2/3 241/2/3
f 252/2/3 243/2/3 251/2/3
f 253/2/3 245/2/3 244/2/3
f 253/2/3 246/2/3 245/2/3
f 254/2/3 134/2/3 246/2/3
f 254/2/3 246/2/3 253/2/3
f 255/2/3 235/2/3 248/2/3
f 255/1/3 236/1/3 235/1/3
f 256/2/3 249/2/3 236/2/3
f 256/1/3 236/1/3 255/1/3
f 257/2/3 239/2/3 250/2/3
f 257/1/3 240/1/3 239/1/3
f 258/2/3 251/2/3 240/2/3
f 258/1/3 240/1/3 257/1/3
f 259/2/3 243/2/3 252/2/3
f 259/1/3 244/1/3 243/1/3
f 260/2/3 253/2/3 244/2/3
f 260/1/3 244/1/3 259/1/3
f 261/2/3 247/2/3 127/2/3
f 262/1/3 248/1/3 247/1/3
f 262/2/3 247/2/3 261/2/3
f 263/2/3 256/2/3 255/2/3
f 263/1/3 248/1/3 262/1/3
f 263/2/3 255/2/3 248/2/3
f 264/2/3 249/2/3 256/2/3
f 264/2/3 256/2/3 263/2/3
f 264/1/3 250/1/3 249/1/3
f 265/2/3 258/2/3 257/2/3
f 265/1/3 250/1/3 264/1/3
f 265/2/3 257/2/3 250/2/3
f 266/2/3 251/2/3 258/2/3
f 266/2/3 258/2/3 265/2/3
f 266/1/3 252/1/3 251/1/3
f 267/2/3 259/2/3 252/2/3
f 267/1/3 252/1/3 266/1/3
f 267/2/3 260/2/3 259/2/3
f 268/1/3 254/1/3 253/1/3
f 268/2/3 260/2/3 267/2/3
f 268/2/3 253/2/3 260/2/3
f 269/2/3 134/2/3 254/2/3
f 269/1/3 254/1/3 268/1/3
f 270/2/3 134/2/3 269/2/3
f 271/2/4 272/2/4 281/2/4
f 272/1/4 273/1/4 282/1/4
f 281/2/4 272/2/4 282/2/4
f 273/2/4 274/2/4 283/2/4
f 282/1/4 273/1/4 283/1/4
f 274/1/4 275/1/4 284/1/4
f 283/2/4 274/2/4 284/2/4
f 275/2/4 276/2/4 285/2/4
f 284/1/4 275/1/4 285/1/4
f 276/1/4 277/1/4 286/1/4
f 285/2/4 276/2/4 286/2/4
f 277/2/4 278/2/4 287/2/4
f 286/1/4 277/1/4 287/1/4
f 278/1/4 279/1/4 288/1/4
f 287/2/4 278/2/4 288/2/4
f 279/2/4 280/2/4 289/2/4
f 288/1/4 279/1/4 289/1/4
f 289/2/4 280/2/4 290/2/4
f 291/2/4 292/2/4 299/2/4
f 292/1/4 293/1/4 300/1/4
f 299/2/4 292/2/4 300/2/4
f 293/2/4 294/2/4 301/2/4
f 300/1/4 293/1/4 301/1/4
f 294/1/4 295/1/4 302/1/4
f 301/2/4 294/2/4 302/2/4
f 295/2/4 296/2/4 303/2/4
f 302/1/4 295/1/4 303/1/4
f 296/1/4 297/1/4 304/1/4
f 303/2/4 296/2/4 304/2/4
f 297/2/4 298/2/4 305/2/4
f 304/1/4 297/1/4 305/1/4
f 305/2/4 298/2/4 306/2/4
f 307/2/4 308/2/4 309/2/4
f 309/2/4 310/2/4 319/2/4
f 310/1/4 311/1/4 319/1/4
f 311/2/4 312/2/4 320/2/4
f 319/1/4 311/1/4 320/1/4
f 312/1/4 313/1/4 321/1/4
f 320/2/4 312/2/4 321/2/4
f 313/2/4 314/2/4 322/2/4
f 321/1/4 313/1/4 322/1/4
f 314/1/4 315/1/4 323/1/4
f 322/2/4 314/2/4 323/2/4
f 315/2/4 316/2/4 324/2/4
f 323/1/4 315/1/4 324/1/4
f 316/1/4 317/1/4 325/1/4
f 324/2/4 316/2/4 325/2/4
f 317/2/4 318/2/4 326/2/4
f 325/1/4 317/1/4 326/1/4
f 326/2/4 318/2/4 327/2/4
f 324/2/4 325/2/4 328/2/4
f 323/2/4 324/2/4 328/2/4
f 326/1/4 327/1/4 328/1/4
f 325/2/4 326/2/4 328/2/4
f 322/2/4 323/2/4 328/2/4
f 321/2/4 322/2/4 328/2/4
f 320/2/4 321/2/4 328/2/4
f 319/2/4 320/2/4 328/2/4
f 328/1/4 327/1/4 329/1/4
f 319/2/4 328/2/4 330/2/4
f 328/2/4 329/2/4 330/2/4
f 330/2/4 329/2/4 331/2/4
f 319/2/4 330/2/4 332/2/4
f 332/2/4 330/2/4 333/2/4
f 333/2/4 330/2/4 334/2/4
f 334/2/4 330/2/4 335/2/4
f 335/2/4 330/2/4 336/2/4
f 336/2/4 330/2/4 337/2/4
f 330/1/4 331/1/4 338/1/4
f 337/2/4 330/2/4 338/2/4
f 338/1/4 331/1/4 339/1/4
f 307/2/4 309/2/4 340/2/4
f 309/2/4 319/2/4 340/2/4
f 319/2/4 332/2/4 340/2/4
f 332/1/4 333/1/4 341/1/4
f 340/2/4 332/2/4 341/2/4
f 333/2/4 334/2/4 342/2/4
f 341/1/4 333/1/4 342/1/4
f 334/1/4 335/1/4 343/1/4
f 342/2/4 334/2/4 343/2/4
f 335/2/4 336/2/4 344/2/4
f 343/1/4 335/1/4 344/1/4
f 336/1/4 337/1/4 345/1/4
f 344/2/4 336/2/4 345/2/4
f 338/2/4 339/2/4 346/2/4
f 345/1/4 337/1/4 346/1/4
f 337/2/4 338/2/4 346/2/4
f 346/2/4 339/2/4 347/2/4
f 307/2/4 340/2/4 348/2/4
f 348/2/4 340/2/4 349/2/4
f 352/2/5 351/2/5 350/2/5
f 353/2/5 351/2/5 352/2/5
f 354/2/6 355/2/6 356/2/6
f 356/2/6 355/2/6 357/2/6
f 358/2/6 359/2/6 362/2/6
f 362/2/6 359/2/6 363/2/6
f 360/2/6 361/2/6 364/2/6
f 364/2/6 361/2/6 365/2/6
f 366/2/6 367/2/6 368/2/6
f 368/2/6 367/2/6 369/2/6
f 368/1/6 369/1/6 370/1/6
f 370/1/6 369/1/6 371/1/6
f 370/2/6 371/2/6 372/2/6
f 372/2/6 371/2/6 373/2/6
f 373/2/6 371/2/6 374/2/6
f 374/2/6 371/2/6 375/2/6
f 372/1/6 373/1/6 376/1/6
f 376/1/6 373/1/6 377/1/6
f 374/1/6 375/1/6 378/1/6
f 378/1/6 375/1/6 379/1/6
f 376/2/6 377/2/6 380/2/6
f 380/2/6 377/2/6 381/2/6
f 378/2/6 379/2/6 382/2/6
f 382/2/6 379/2/6 383/2/6
f 381/2/6 377/2/6 384/2/6
f 377/1/6 373/1/6 385/1/6
f 384/2/6 377/2/6 385/2/6
f 373/2/6 374/2/6 386/2/6
f 385/1/6 373/1/6 386/1/6
f 374/1/6 378/1/6 387/1/6
f 386/2/6 374/2/6 387/2/6
f 378/2/6 382/2/6 388/2/6
f 387/1/6 378/1/6 388/1/6
f 388/2/6 382/2/6 389/2/6
