# MagicaVoxel @ Ephtracy

# group
o 

# material
mtllib bugbear_action_0.mtl
usemtl palette

# normals
vn -1 0 0
vn 1 0 0
vn 0 0 1
vn 0 0 -1
vn 0 -1 0
vn 0 1 0

# texcoords
vt 0.763672 0.5
vt 0.783203 0.5
vt 0.787109 0.5
vt 0.943359 0.5
vt 0.970703 0.5

# verts
v -0.7 1.2 0.1
v -0.7 1.2 -2.98023e-08
v -0.7 1.3 0.1
v -0.7 1.3 -2.98023e-08
v -0.6 1.1 0.2
v -0.6 1.1 -0.1
v -0.6 1.2 0.1
v -0.6 1.2 -2.98023e-08
v -0.6 1.3 0.1
v -0.6 1.3 -2.98023e-08
v -0.6 1.4 0.2
v -0.6 1.4 -0.1
v -0.6 1.5 0.2
v -0.6 1.5 -0.1
v -0.5 0.7 0.2
v -0.5 0.7 -0.2
v -0.5 0.9 -2.98023e-08
v -0.5 0.9 -0.2
v -0.5 1.1 0.2
v -0.5 1.1 -2.98023e-08
v -0.5 1.2 0.3
v -0.5 1.2 0.2
v -0.5 1.2 -0.1
v -0.5 1.2 -0.2
v -0.5 1.3 0.3
v -0.5 1.3 0.2
v -0.5 1.3 -0.1
v -0.5 1.3 -0.2
v -0.4 0.5 -2.98023e-08
v -0.4 0.5 -0.3
v -0.4 0.7 -2.98023e-08
v -0.4 0.7 -0.2
v -0.4 0.9 -2.98023e-08
v -0.4 0.9 -0.2
v -0.4 1 -2.98023e-08
v -0.4 1 -0.3
v -0.3 0.1 -2.98023e-08
v -0.3 0.1 -0.3
v -0.3 0.3 0.1
v -0.3 0.3 -2.98023e-08
v -0.3 0.3 -0.3
v -0.3 0.5 -2.98023e-08
v -0.3 0.5 -0.3
v -0.3 0.7 0.1
v -0.3 0.7 -2.98023e-08
v -0.2 0.1 0.1
v -0.2 0.1 -2.98023e-08
v -0.2 0.2 0.1
v -0.2 0.2 -2.98023e-08
v -0.2 0.3 0.2
v -0.2 0.3 0.1
v -0.2 0.8 0.2
v -0.2 0.8 0.1
v -0.2 1.1 -2.98023e-08
v -0.2 1.1 -0.1
v -0.2 1.2 -2.98023e-08
v -0.2 1.3 -2.98023e-08
v -0.2 1.4 -2.98023e-08
v -0.2 1.4 -0.1
v -0.1 1 0.1
v -0.1 1 -2.98023e-08
v -0.1 1 -0.2
v -0.1 1.1 -2.98023e-08
v -0.1 1.1 -0.1
v -0.1 1.3 0.1
v -0.1 1.3 -2.98023e-08
v -0.1 1.3 -0.1
v -0.1 1.3 -0.2
v 0.2 0 0.1
v 0.2 0 -0.1
v 0.2 0.1 0.1
v 0.2 0.1 -2.98023e-08
v 0.2 0.1 -0.1
v 0.2 1.3 -2.98023e-08
v 0.2 1.3 -0.1
v 0.2 1.4 -2.98023e-08
v 0.2 1.4 -0.1
v 0.3 1.2 0.1
v 0.3 1.2 -2.98023e-08
v 0.3 1.3 0.1
v 0.3 1.3 -2.98023e-08
v 0.4 0.7 0.2
v 0.4 0.7 0.1
v 0.4 0.9 0.1
v 0.4 0.9 -2.98023e-08
v 0.4 1 -2.98023e-08
v 0.4 1.1 0.2
v 0.4 1.1 -2.98023e-08
v 0.4 1.1 -0.1
v 0.4 1.2 0.1
v 0.4 1.2 -2.98023e-08
v 0.4 1.3 0.1
v 0.4 1.3 -2.98023e-08
v 0.4 1.4 0.2
v 0.4 1.4 -0.1
v 0.4 1.5 0.2
v 0.4 1.5 -0.1
v 0.5 1.2 0.3
v 0.5 1.2 0.2
v 0.5 1.2 -0.1
v 0.5 1.2 -0.2
v 0.5 1.3 0.3
v 0.5 1.3 0.2
v 0.5 1.3 -0.1
v 0.5 1.3 -0.2
v -0.4 1.2 0.3
v -0.4 1.2 0.2
v -0.4 1.2 -0.1
v -0.4 1.2 -0.2
v -0.4 1.3 0.3
v -0.4 1.3 0.2
v -0.4 1.3 -0.1
v -0.4 1.3 -0.2
v -0.3 0.7 0.2
v -0.3 0.7 0.1
v -0.3 0.9 0.1
v -0.3 0.9 -2.98023e-08
v -0.3 1 -2.98023e-08
v -0.3 1.1 0.2
v -0.3 1.1 -2.98023e-08
v -0.3 1.1 -0.1
v -0.3 1.2 0.1
v -0.3 1.2 -2.98023e-08
v -0.3 1.3 0.1
v -0.3 1.3 -2.98023e-08
v -0.3 1.4 0.2
v -0.3 1.4 -0.1
v -0.3 1.5 0.2
v -0.3 1.5 -0.1
v -0.2 1.2 0.1
v -0.2 1.2 -2.98023e-08
v -0.2 1.3 0.1
v -0.2 1.3 -2.98023e-08
v -0.1 0.1 0.1
v -0.1 0.1 -2.98023e-08
v -0.1 0.2 0.1
v -0.1 0.2 -2.98023e-08
v -0.1 1.3 -2.98023e-08
v -0.1 1.3 -0.1
v -0.1 1.4 -2.98023e-08
v -0.1 1.4 -0.1
v 0.2 1 0.1
v 0.2 1 -2.98023e-08
v 0.2 1 -0.2
v 0.2 1.1 -2.98023e-08
v 0.2 1.1 -0.1
v 0.2 1.3 0.1
v 0.2 1.3 -2.98023e-08
v 0.2 1.3 -0.1
v 0.2 1.3 -0.2
v 0.3 0 0.1
v 0.3 0 -0.1
v 0.3 0.1 0.1
v 0.3 0.1 -2.98023e-08
v 0.3 0.1 -0.1
v 0.3 0.3 0.2
v 0.3 0.3 0.1
v 0.3 0.8 0.2
v 0.3 0.8 0.1
v 0.3 1.1 -2.98023e-08
v 0.3 1.1 -0.1
v 0.3 1.2 -2.98023e-08
v 0.3 1.3 -2.98023e-08
v 0.3 1.4 -2.98023e-08
v 0.3 1.4 -0.1
v 0.4 0.1 -2.98023e-08
v 0.4 0.1 -0.3
v 0.4 0.3 0.1
v 0.4 0.3 -2.98023e-08
v 0.4 0.3 -0.3
v 0.4 0.5 -2.98023e-08
v 0.4 0.5 -0.3
v 0.4 0.7 0.1
v 0.4 0.7 -2.98023e-08
v 0.5 0.5 -2.98023e-08
v 0.5 0.5 -0.3
v 0.5 0.7 -2.98023e-08
v 0.5 0.7 -0.2
v 0.5 0.9 -2.98023e-08
v 0.5 0.9 -0.2
v 0.5 1 -2.98023e-08
v 0.5 1 -0.3
v 0.6 0.7 0.2
v 0.6 0.7 -0.2
v 0.6 0.9 -2.98023e-08
v 0.6 0.9 -0.2
v 0.6 1.1 0.2
v 0.6 1.1 -2.98023e-08
v 0.6 1.2 0.3
v 0.6 1.2 0.2
v 0.6 1.2 -0.1
v 0.6 1.2 -0.2
v 0.6 1.3 0.3
v 0.6 1.3 0.2
v 0.6 1.3 -0.1
v 0.6 1.3 -0.2
v 0.7 1.1 0.2
v 0.7 1.1 -0.1
v 0.7 1.2 0.1
v 0.7 1.2 -2.98023e-08
v 0.7 1.3 0.1
v 0.7 1.3 -2.98023e-08
v 0.7 1.4 0.2
v 0.7 1.4 -0.1
v 0.7 1.5 0.2
v 0.7 1.5 -0.1
v 0.8 1.2 0.1
v 0.8 1.2 -2.98023e-08
v 0.8 1.3 0.1
v 0.8 1.3 -2.98023e-08
v -0.5 1.2 0.3
v -0.5 1.3 0.3
v -0.4 1.2 0.3
v -0.4 1.3 0.3
v 0.5 1.2 0.3
v 0.5 1.3 0.3
v 0.6 1.2 0.3
v 0.6 1.3 0.3
v -0.6 1.1 0.2
v -0.6 1.4 0.2
v -0.6 1.5 0.2
v -0.5 0.7 0.2
v -0.5 1.1 0.2
v -0.5 1.2 0.2
v -0.5 1.3 0.2
v -0.4 1.2 0.2
v -0.4 1.3 0.2
v -0.3 0.7 0.2
v -0.3 1.1 0.2
v -0.3 1.4 0.2
v -0.3 1.5 0.2
v -0.2 0.3 0.2
v -0.2 0.8 0.2
v 0.3 0.3 0.2
v 0.3 0.8 0.2
v 0.4 0.7 0.2
v 0.4 1.1 0.2
v 0.4 1.4 0.2
v 0.4 1.5 0.2
v 0.5 1.2 0.2
v 0.5 1.3 0.2
v 0.6 0.7 0.2
v 0.6 1.1 0.2
v 0.6 1.2 0.2
v 0.6 1.3 0.2
v 0.7 1.1 0.2
v 0.7 1.4 0.2
v 0.7 1.5 0.2
v -0.7 1.2 0.1
v -0.7 1.3 0.1
v -0.6 1.2 0.1
v -0.6 1.3 0.1
v -0.3 0.3 0.1
v -0.3 0.7 0.1
v -0.3 0.9 0.1
v -0.3 1.2 0.1
v -0.3 1.3 0.1
v -0.2 0.1 0.1
v -0.2 0.2 0.1
v -0.2 0.3 0.1
v -0.2 0.8 0.1
v -0.2 1.2 0.1
v -0.2 1.3 0.1
v -0.1 0.1 0.1
v -0.1 0.2 0.1
v -0.1 1 0.1
v -0.1 1.3 0.1
v 0.2 0 0.1
v 0.2 0.1 0.1
v 0.2 1 0.1
v 0.2 1.3 0.1
v 0.3 0 0.1
v 0.3 0.1 0.1
v 0.3 0.3 0.1
v 0.3 0.8 0.1
v 0.3 1.2 0.1
v 0.3 1.3 0.1
v 0.4 0.3 0.1
v 0.4 0.7 0.1
v 0.4 0.9 0.1
v 0.4 1.2 0.1
v 0.4 1.3 0.1
v 0.7 1.2 0.1
v 0.7 1.3 0.1
v 0.8 1.2 0.1
v 0.8 1.3 0.1
v -0.4 0.5 -2.98023e-08
v -0.4 0.7 -2.98023e-08
v -0.3 0.1 -2.98023e-08
v -0.3 0.3 -2.98023e-08
v -0.3 0.5 -2.98023e-08
v -0.3 0.7 -2.98023e-08
v -0.3 0.9 -2.98023e-08
v -0.3 1 -2.98023e-08
v -0.2 0.1 -2.98023e-08
v -0.2 0.2 -2.98023e-08
v -0.2 1.1 -2.98023e-08
v -0.2 1.2 -2.98023e-08
v -0.2 1.3 -2.98023e-08
v -0.2 1.4 -2.98023e-08
v -0.1 0.1 -2.98023e-08
v -0.1 0.2 -2.98023e-08
v -0.1 1 -2.98023e-08
v -0.1 1.1 -2.98023e-08
v -0.1 1.3 -2.98023e-08
v -0.1 1.4 -2.98023e-08
v 0.2 0.1 -2.98023e-08
v 0.2 1 -2.98023e-08
v 0.2 1.1 -2.98023e-08
v 0.2 1.3 -2.98023e-08
v 0.2 1.4 -2.98023e-08
v 0.3 0.1 -2.98023e-08
v 0.3 1.1 -2.98023e-08
v 0.3 1.2 -2.98023e-08
v 0.3 1.3 -2.98023e-08
v 0.3 1.4 -2.98023e-08
v 0.4 0.1 -2.98023e-08
v 0.4 0.3 -2.98023e-08
v 0.4 0.5 -2.98023e-08
v 0.4 0.7 -2.98023e-08
v 0.4 0.9 -2.98023e-08
v 0.4 1 -2.98023e-08
v 0.5 0.5 -2.98023e-08
v 0.5 0.7 -2.98023e-08
v -0.7 1.2 -2.98023e-08
v -0.7 1.3 -2.98023e-08
v -0.6 1.2 -2.98023e-08
v -0.6 1.3 -2.98023e-08
v -0.5 0.9 -2.98023e-08
v -0.5 1.1 -2.98023e-08
v -0.4 0.9 -2.98023e-08
v -0.4 1 -2.98023e-08
v -0.3 1 -2.98023e-08
v -0.3 1.1 -2.98023e-08
v -0.3 1.2 -2.98023e-08
v -0.3 1.3 -2.98023e-08
v -0.2 1.2 -2.98023e-08
v -0.2 1.3 -2.98023e-08
v 0.3 1.2 -2.98023e-08
v 0.3 1.3 -2.98023e-08
v 0.4 1 -2.98023e-08
v 0.4 1.1 -2.98023e-08
v 0.4 1.2 -2.98023e-08
v 0.4 1.3 -2.98023e-08
v 0.5 0.9 -2.98023e-08
v 0.5 1 -2.98023e-08
v 0.6 0.9 -2.98023e-08
v 0.6 1.1 -2.98023e-08
v 0.7 1.2 -2.98023e-08
v 0.7 1.3 -2.98023e-08
v 0.8 1.2 -2.98023e-08
v 0.8 1.3 -2.98023e-08
v -0.6 1.1 -0.1
v -0.6 1.4 -0.1
v -0.6 1.5 -0.1
v -0.5 1.2 -0.1
v -0.5 1.3 -0.1
v -0.4 1.2 -0.1
v -0.4 1.3 -0.1
v -0.3 1.1 -0.1
v -0.3 1.4 -0.1
v -0.3 1.5 -0.1
v -0.2 1.1 -0.1
v -0.2 1.4 -0.1
v -0.1 1.1 -0.1
v -0.1 1.3 -0.1
v -0.1 1.4 -0.1
v 0.2 0 -0.1
v 0.2 0.1 -0.1
v 0.2 1.1 -0.1
v 0.2 1.3 -0.1
v 0.2 1.4 -0.1
v 0.3 0 -0.1
v 0.3 0.1 -0.1
v 0.3 1.1 -0.1
v 0.3 1.4 -0.1
v 0.4 1.1 -0.1
v 0.4 1.4 -0.1
v 0.4 1.5 -0.1
v 0.5 1.2 -0.1
v 0.5 1.3 -0.1
v 0.6 1.2 -0.1
v 0.6 1.3 -0.1
v 0.7 1.1 -0.1
v 0.7 1.4 -0.1
v 0.7 1.5 -0.1
v -0.5 0.7 -0.2
v -0.5 0.9 -0.2
v -0.5 1.2 -0.2
v -0.5 1.3 -0.2
v -0.4 0.7 -0.2
v -0.4 0.9 -0.2
v -0.4 1.2 -0.2
v -0.4 1.3 -0.2
v -0.1 1 -0.2
v -0.1 1.3 -0.2
v 0.2 1 -0.2
v 0.2 1.3 -0.2
v 0.5 0.7 -0.2
v 0.5 0.9 -0.2
v 0.5 1.2 -0.2
v 0.5 1.3 -0.2
v 0.6 0.7 -0.2
v 0.6 0.9 -0.2
v 0.6 1.2 -0.2
v 0.6 1.3 -0.2
v -0.4 0.5 -0.3
v -0.4 1 -0.3
v -0.3 0.1 -0.3
v -0.3 0.3 -0.3
v -0.3 0.5 -0.3
v 0.4 0.1 -0.3
v 0.4 0.3 -0.3
v 0.4 0.5 -0.3
v 0.5 0.5 -0.3
v 0.5 1 -0.3
v 0.2 0 0.1
v 0.3 0 0.1
v 0.2 0 -0.1
v 0.3 0 -0.1
v -0.2 0.1 0.1
v -0.1 0.1 0.1
v -0.3 0.1 -2.98023e-08
v -0.2 0.1 -2.98023e-08
v -0.1 0.1 -2.98023e-08
v 0.2 0.1 -2.98023e-08
v 0.3 0.1 -2.98023e-08
v 0.4 0.1 -2.98023e-08
v -0.2 0.1 -0.1
v -0.1 0.1 -0.1
v 0.2 0.1 -0.1
v 0.3 0.1 -0.1
v -0.2 0.1 -0.2
v 0.3 0.1 -0.2
v -0.3 0.1 -0.3
v 0.4 0.1 -0.3
v -0.2 0.3 0.2
v 0.3 0.3 0.2
v -0.3 0.3 0.1
v -0.2 0.3 0.1
v 0.3 0.3 0.1
v 0.4 0.3 0.1
v -0.3 0.3 -2.98023e-08
v 0.4 0.3 -2.98023e-08
v -0.4 0.5 -2.98023e-08
v -0.3 0.5 -2.98023e-08
v 0.4 0.5 -2.98023e-08
v 0.5 0.5 -2.98023e-08
v -0.4 0.5 -0.3
v -0.3 0.5 -0.3
v 0.4 0.5 -0.3
v 0.5 0.5 -0.3
v -0.5 0.7 0.2
v -0.3 0.7 0.2
v 0.4 0.7 0.2
v 0.6 0.7 0.2
v -0.3 0.7 0.1
v 0.4 0.7 0.1
v -0.4 0.7 -2.98023e-08
v -0.3 0.7 -2.98023e-08
v 0.4 0.7 -2.98023e-08
v 0.5 0.7 -2.98023e-08
v -0.5 0.7 -0.2
v -0.4 0.7 -0.2
v 0.5 0.7 -0.2
v 0.6 0.7 -0.2
v -0.1 1 0.1
v 0.2 1 0.1
v -0.1 1 -2.98023e-08
v 0.2 1 -2.98023e-08
v -0.6 1.1 0.2
v -0.5 1.1 0.2
v 0.6 1.1 0.2
v 0.7 1.1 0.2
v -0.5 1.1 -2.98023e-08
v -0.3 1.1 -2.98023e-08
v -0.2 1.1 -2.98023e-08
v -0.1 1.1 -2.98023e-08
v 0.2 1.1 -2.98023e-08
v 0.3 1.1 -2.98023e-08
v 0.4 1.1 -2.98023e-08
v 0.6 1.1 -2.98023e-08
v -0.6 1.1 -0.1
v -0.3 1.1 -0.1
v -0.2 1.1 -0.1
v -0.1 1.1 -0.1
v 0.2 1.1 -0.1
v 0.3 1.1 -0.1
v 0.4 1.1 -0.1
v 0.7 1.1 -0.1
v -0.5 1.2 0.3
v -0.4 1.2 0.3
v 0.5 1.2 0.3
v 0.6 1.2 0.3
v -0.5 1.2 0.2
v -0.4 1.2 0.2
v 0.5 1.2 0.2
v 0.6 1.2 0.2
v -0.7 1.2 0.1
v -0.6 1.2 0.1
v -0.3 1.2 0.1
v -0.2 1.2 0.1
v 0.3 1.2 0.1
v 0.4 1.2 0.1
v 0.7 1.2 0.1
v 0.8 1.2 0.1
v -0.7 1.2 -2.98023e-08
v -0.6 1.2 -2.98023e-08
v -0.3 1.2 -2.98023e-08
v -0.2 1.2 -2.98023e-08
v 0.3 1.2 -2.98023e-08
v 0.4 1.2 -2.98023e-08
v 0.7 1.2 -2.98023e-08
v 0.8 1.2 -2.98023e-08
v -0.5 1.2 -0.1
v -0.4 1.2 -0.1
v 0.5 1.2 -0.1
v 0.6 1.2 -0.1
v -0.5 1.2 -0.2
v -0.4 1.2 -0.2
v 0.5 1.2 -0.2
v 0.6 1.2 -0.2
v 0.2 0.1 0.1
v 0.3 0.1 0.1
v 0.2 0.1 -2.98023e-08
v 0.3 0.1 -2.98023e-08
v -0.2 0.2 0.1
v -0.1 0.2 0.1
v -0.2 0.2 -2.98023e-08
v -0.1 0.2 -2.98023e-08
v -0.2 0.8 0.2
v 0.3 0.8 0.2
v -0.2 0.8 0.1
v 0.3 0.8 0.1
v -0.3 0.9 0.1
v 0.4 0.9 0.1
v -0.5 0.9 -2.98023e-08
v -0.4 0.9 -2.98023e-08
v -0.3 0.9 -2.98023e-08
v 0.4 0.9 -2.98023e-08
v 0.5 0.9 -2.98023e-08
v 0.6 0.9 -2.98023e-08
v -0.5 0.9 -0.2
v -0.4 0.9 -0.2
v 0.5 0.9 -0.2
v 0.6 0.9 -0.2
v -0.4 1 -2.98023e-08
v -0.3 1 -2.98023e-08
v -0.1 1 -2.98023e-08
v 0.2 1 -2.98023e-08
v 0.4 1 -2.98023e-08
v 0.5 1 -2.98023e-08
v -0.1 1 -0.2
v 0.2 1 -0.2
v -0.4 1 -0.3
v 0.5 1 -0.3
v -0.5 1.3 0.3
v -0.4 1.3 0.3
v 0.5 1.3 0.3
v 0.6 1.3 0.3
v -0.5 1.3 0.2
v -0.4 1.3 0.2
v 0.5 1.3 0.2
v 0.6 1.3 0.2
v -0.7 1.3 0.1
v -0.6 1.3 0.1
v -0.3 1.3 0.1
v -0.2 1.3 0.1
v -0.1 1.3 0.1
v 0.2 1.3 0.1
v 0.3 1.3 0.1
v 0.4 1.3 0.1
v 0.7 1.3 0.1
v 0.8 1.3 0.1
v -0.7 1.3 -2.98023e-08
v -0.6 1.3 -2.98023e-08
v -0.3 1.3 -2.98023e-08
v -0.2 1.3 -2.98023e-08
v -0.1 1.3 -2.98023e-08
v 0.2 1.3 -2.98023e-08
v 0.3 1.3 -2.98023e-08
v 0.4 1.3 -2.98023e-08
v 0.7 1.3 -2.98023e-08
v 0.8 1.3 -2.98023e-08
v -0.5 1.3 -0.1
v -0.4 1.3 -0.1
v -0.1 1.3 -0.1
v 0.2 1.3 -0.1
v 0.5 1.3 -0.1
v 0.6 1.3 -0.1
v -0.5 1.3 -0.2
v -0.4 1.3 -0.2
v -0.1 1.3 -0.2
v 0.2 1.3 -0.2
v 0.5 1.3 -0.2
v 0.6 1.3 -0.2
v -0.2 1.4 -2.98023e-08
v -0.1 1.4 -2.98023e-08
v 0.2 1.4 -2.98023e-08
v 0.3 1.4 -2.98023e-08
v -0.2 1.4 -0.1
v -0.1 1.4 -0.1
v 0.2 1.4 -0.1
v 0.3 1.4 -0.1
v -0.6 1.5 0.2
v -0.3 1.5 0.2
v 0.4 1.5 0.2
v 0.7 1.5 0.2
v -0.6 1.5 -0.1
v -0.3 1.5 -0.1
v 0.4 1.5 -0.1
v 0.7 1.5 -0.1

# faces
f 3/4/1 2/4/1 1/4/1
f 4/4/1 2/4/1 3/4/1
f 7/3/1 6/3/1 5/3/1
f 8/3/1 6/3/1 7/3/1
f 9/3/1 7/3/1 5/3/1
f 10/3/1 6/3/1 8/3/1
f 11/3/1 9/3/1 5/3/1
f 11/3/1 10/3/1 9/3/1
f 12/3/1 6/3/1 10/3/1
f 12/3/1 10/3/1 11/3/1
f 13/1/1 12/1/1 11/1/1
f 14/1/1 12/1/1 13/1/1
f 17/1/1 16/1/1 15/1/1
f 18/1/1 16/1/1 17/1/1
f 19/1/1 17/1/1 15/1/1
f 20/1/1 17/1/1 19/1/1
f 25/4/1 22/4/1 21/4/1
f 26/4/1 22/4/1 25/4/1
f 27/4/1 24/4/1 23/4/1
f 28/4/1 24/4/1 27/4/1
f 31/1/1 30/1/1 29/1/1
f 32/1/1 30/1/1 31/1/1
f 34/1/1 30/1/1 32/1/1
f 35/1/1 34/1/1 33/1/1
f 36/1/1 30/1/1 34/1/1
f 36/1/1 34/1/1 35/1/1
f 40/2/1 38/2/1 37/2/1
f 41/2/1 38/2/1 40/2/1
f 42/1/1 40/1/1 39/1/1
f 42/1/1 41/1/1 40/1/1
f 43/1/1 41/1/1 42/1/1
f 44/1/1 42/1/1 39/1/1
f 45/1/1 42/1/1 44/1/1
f 48/1/1 47/1/1 46/1/1
f 49/1/1 47/1/1 48/1/1
f 52/1/1 51/1/1 50/1/1
f 53/1/1 51/1/1 52/1/1
f 56/1/1 55/1/1 54/1/1
f 57/1/1 55/1/1 56/1/1
f 58/1/1 55/1/1 57/1/1
f 59/1/1 55/1/1 58/1/1
f 63/1/1 61/1/1 60/1/1
f 63/1/1 62/1/1 61/1/1
f 64/1/1 62/1/1 63/1/1
f 65/1/1 63/1/1 60/1/1
f 66/1/1 63/1/1 65/1/1
f 67/1/1 62/1/1 64/1/1
f 68/1/1 62/1/1 67/1/1
f 71/1/1 70/1/1 69/1/1
f 72/1/1 70/1/1 71/1/1
f 73/1/1 70/1/1 72/1/1
f 76/1/1 75/1/1 74/1/1
f 77/1/1 75/1/1 76/1/1
f 80/4/1 79/4/1 78/4/1
f 81/4/1 79/4/1 80/4/1
f 84/1/1 83/1/1 82/1/1
f 86/1/1 85/1/1 84/1/1
f 87/1/1 84/1/1 82/1/1
f 87/1/1 86/1/1 84/1/1
f 88/1/1 86/1/1 87/1/1
f 90/3/1 88/3/1 87/3/1
f 90/3/1 89/3/1 88/3/1
f 91/3/1 89/3/1 90/3/1
f 92/3/1 90/3/1 87/3/1
f 93/3/1 89/3/1 91/3/1
f 94/3/1 92/3/1 87/3/1
f 94/3/1 93/3/1 92/3/1
f 95/3/1 89/3/1 93/3/1
f 95/3/1 93/3/1 94/3/1
f 96/1/1 95/1/1 94/1/1
f 97/1/1 95/1/1 96/1/1
f 102/4/1 99/4/1 98/4/1
f 103/4/1 99/4/1 102/4/1
f 104/4/1 101/4/1 100/4/1
f 105/4/1 101/4/1 104/4/1
f 106/4/2 107/4/2 110/4/2
f 110/4/2 107/4/2 111/4/2
f 108/4/2 109/4/2 112/4/2
f 112/4/2 109/4/2 113/4/2
f 114/1/2 115/1/2 116/1/2
f 116/1/2 117/1/2 118/1/2
f 114/1/2 116/1/2 119/1/2
f 116/1/2 118/1/2 119/1/2
f 119/1/2 118/1/2 120/1/2
f 119/3/2 120/3/2 122/3/2
f 120/3/2 121/3/2 122/3/2
f 122/3/2 121/3/2 123/3/2
f 119/3/2 122/3/2 124/3/2
f 123/3/2 121/3/2 125/3/2
f 119/3/2 124/3/2 126/3/2
f 124/3/2 125/3/2 126/3/2
f 125/3/2 121/3/2 127/3/2
f 126/3/2 125/3/2 127/3/2
f 126/1/2 127/1/2 128/1/2
f 128/1/2 127/1/2 129/1/2
f 130/4/2 131/4/2 132/4/2
f 132/4/2 131/4/2 133/4/2
f 134/1/2 135/1/2 136/1/2
f 136/1/2 135/1/2 137/1/2
f 138/1/2 139/1/2 140/1/2
f 140/1/2 139/1/2 141/1/2
f 142/1/2 143/1/2 145/1/2
f 143/1/2 144/1/2 145/1/2
f 145/1/2 144/1/2 146/1/2
f 142/1/2 145/1/2 147/1/2
f 147/1/2 145/1/2 148/1/2
f 146/1/2 144/1/2 149/1/2
f 149/1/2 144/1/2 150/1/2
f 151/1/2 152/1/2 153/1/2
f 153/1/2 152/1/2 154/1/2
f 154/1/2 152/1/2 155/1/2
f 156/1/2 157/1/2 158/1/2
f 158/1/2 157/1/2 159/1/2
f 160/1/2 161/1/2 162/1/2
f 162/1/2 161/1/2 163/1/2
f 163/1/2 161/1/2 164/1/2
f 164/1/2 161/1/2 165/1/2
f 166/2/2 167/2/2 169/2/2
f 169/2/2 167/2/2 170/2/2
f 168/1/2 169/1/2 171/1/2
f 169/1/2 170/1/2 171/1/2
f 171/1/2 170/1/2 172/1/2
f 168/1/2 171/1/2 173/1/2
f 173/1/2 171/1/2 174/1/2
f 175/1/2 176/1/2 177/1/2
f 177/1/2 176/1/2 178/1/2
f 178/1/2 176/1/2 180/1/2
f 179/1/2 180/1/2 181/1/2
f 180/1/2 176/1/2 182/1/2
f 181/1/2 180/1/2 182/1/2
f 183/1/2 184/1/2 185/1/2
f 185/1/2 184/1/2 186/1/2
f 183/1/2 185/1/2 187/1/2
f 187/1/2 185/1/2 188/1/2
f 189/4/2 190/4/2 193/4/2
f 193/4/2 190/4/2 194/4/2
f 191/4/2 192/4/2 195/4/2
f 195/4/2 192/4/2 196/4/2
f 197/3/2 198/3/2 199/3/2
f 199/3/2 198/3/2 200/3/2
f 197/3/2 199/3/2 201/3/2
f 200/3/2 198/3/2 202/3/2
f 197/3/2 201/3/2 203/3/2
f 201/3/2 202/3/2 203/3/2
f 202/3/2 198/3/2 204/3/2
f 203/3/2 202/3/2 204/3/2
f 203/1/2 204/1/2 205/1/2
f 205/1/2 204/1/2 206/1/2
f 207/4/2 208/4/2 209/4/2
f 209/4/2 208/4/2 210/4/2
f 213/4/3 212/4/3 211/4/3
f 214/4/3 212/4/3 213/4/3
f 217/4/3 216/4/3 215/4/3
f 218/4/3 216/4/3 217/4/3
f 223/3/3 220/3/3 219/3/3
f 224/3/3 220/3/3 223/3/3
f 225/3/3 220/3/3 224/3/3
f 226/3/3 224/3/3 223/3/3
f 227/3/3 220/3/3 225/3/3
f 228/1/3 223/1/3 222/1/3
f 229/3/3 227/3/3 226/3/3
f 229/1/3 223/1/3 228/1/3
f 229/3/3 226/3/3 223/3/3
f 230/1/3 221/1/3 220/1/3
f 230/3/3 227/3/3 229/3/3
f 230/3/3 220/3/3 227/3/3
f 231/1/3 221/1/3 230/1/3
f 234/1/3 233/1/3 232/1/3
f 235/1/3 233/1/3 234/1/3
f 240/3/3 238/3/3 237/3/3
f 241/3/3 238/3/3 240/3/3
f 242/1/3 237/1/3 236/1/3
f 243/3/3 240/3/3 237/3/3
f 243/1/3 237/1/3 242/1/3
f 244/3/3 240/3/3 243/3/3
f 245/3/3 238/3/3 241/3/3
f 246/3/3 244/3/3 243/3/3
f 246/3/3 245/3/3 244/3/3
f 247/3/3 238/3/3 245/3/3
f 247/3/3 245/3/3 246/3/3
f 247/1/3 239/1/3 238/1/3
f 248/1/3 239/1/3 247/1/3
f 251/4/3 250/4/3 249/4/3
f 252/4/3 250/4/3 251/4/3
f 260/1/3 254/1/3 253/1/3
f 260/1/3 255/1/3 254/1/3
f 261/1/3 255/1/3 260/1/3
f 262/4/3 257/4/3 256/4/3
f 263/4/3 257/4/3 262/4/3
f 264/1/3 259/1/3 258/1/3
f 265/1/3 259/1/3 264/1/3
f 270/1/3 267/1/3 266/1/3
f 271/1/3 267/1/3 270/1/3
f 272/1/3 269/1/3 268/1/3
f 273/1/3 269/1/3 272/1/3
f 275/1/3 255/1/3 261/1/3
f 278/1/3 275/1/3 274/1/3
f 279/1/3 275/1/3 278/1/3
f 280/1/3 255/1/3 275/1/3
f 280/1/3 275/1/3 279/1/3
f 281/4/3 277/4/3 276/4/3
f 282/4/3 277/4/3 281/4/3
f 285/4/3 284/4/3 283/4/3
f 286/4/3 284/4/3 285/4/3
f 291/1/3 288/1/3 287/1/3
f 292/1/3 288/1/3 291/1/3
f 295/2/3 290/2/3 289/2/3
f 296/2/3 290/2/3 295/2/3
f 302/2/3 290/2/3 296/2/3
f 303/1/3 294/1/3 293/1/3
f 304/1/3 300/1/3 299/1/3
f 304/1/3 299/1/3 298/1/3
f 304/1/3 298/1/3 297/1/3
f 305/1/3 300/1/3 304/1/3
f 306/1/3 300/1/3 305/1/3
f 307/2/3 302/2/3 301/2/3
f 308/1/3 303/1/3 293/1/3
f 312/2/3 302/2/3 307/2/3
f 313/1/3 311/1/3 310/1/3
f 313/1/3 310/1/3 309/1/3
f 314/1/3 311/1/3 313/1/3
f 315/1/3 311/1/3 314/1/3
f 316/1/3 311/1/3 315/1/3
f 317/2/3 302/2/3 312/2/3
f 318/2/3 290/2/3 302/2/3
f 318/2/3 302/2/3 317/2/3
f 321/1/3 308/1/3 293/1/3
f 322/1/3 308/1/3 321/1/3
f 323/1/3 320/1/3 319/1/3
f 324/1/3 320/1/3 323/1/3
f 325/4/4 326/4/4 327/4/4
f 327/4/4 326/4/4 328/4/4
f 329/1/4 330/1/4 331/1/4
f 331/1/4 330/1/4 332/1/4
f 332/1/4 330/1/4 333/1/4
f 333/1/4 330/1/4 334/1/4
f 335/4/4 336/4/4 337/4/4
f 337/4/4 336/4/4 338/4/4
f 339/4/4 340/4/4 343/4/4
f 343/4/4 340/4/4 344/4/4
f 341/1/4 342/1/4 346/1/4
f 345/1/4 346/1/4 347/1/4
f 346/1/4 342/1/4 348/1/4
f 347/1/4 346/1/4 348/1/4
f 349/4/4 350/4/4 351/4/4
f 351/4/4 350/4/4 352/4/4
f 353/3/4 354/3/4 356/3/4
f 356/3/4 354/3/4 357/3/4
f 353/3/4 356/3/4 358/3/4
f 357/3/4 354/3/4 359/3/4
f 353/3/4 358/3/4 360/3/4
f 358/3/4 359/3/4 360/3/4
f 354/1/4 355/1/4 361/1/4
f 360/3/4 359/3/4 361/3/4
f 359/3/4 354/3/4 361/3/4
f 361/1/4 355/1/4 362/1/4
f 363/1/4 364/1/4 365/1/4
f 365/1/4 364/1/4 366/1/4
f 366/1/4 364/1/4 367/1/4
f 368/1/4 369/1/4 373/1/4
f 373/1/4 369/1/4 374/1/4
f 371/1/4 372/1/4 375/1/4
f 370/1/4 371/1/4 375/1/4
f 375/1/4 372/1/4 376/1/4
f 377/3/4 378/3/4 380/3/4
f 380/3/4 378/3/4 381/3/4
f 377/3/4 380/3/4 382/3/4
f 381/3/4 378/3/4 383/3/4
f 377/3/4 382/3/4 384/3/4
f 382/3/4 383/3/4 384/3/4
f 378/1/4 379/1/4 385/1/4
f 384/3/4 383/3/4 385/3/4
f 383/3/4 378/3/4 385/3/4
f 385/1/4 379/1/4 386/1/4
f 387/1/4 388/1/4 391/1/4
f 391/1/4 388/1/4 392/1/4
f 389/4/4 390/4/4 393/4/4
f 393/4/4 390/4/4 394/4/4
f 395/1/4 396/1/4 397/1/4
f 397/1/4 396/1/4 398/1/4
f 399/1/4 400/1/4 403/1/4
f 403/1/4 400/1/4 404/1/4
f 401/4/4 402/4/4 405/4/4
f 405/4/4 402/4/4 406/4/4
f 407/1/4 408/1/4 411/1/4
f 409/2/4 410/2/4 412/2/4
f 410/1/4 411/1/4 413/1/4
f 412/2/4 410/2/4 413/2/4
f 411/1/4 408/1/4 414/1/4
f 413/1/4 411/1/4 414/1/4
f 414/1/4 408/1/4 415/1/4
f 415/1/4 408/1/4 416/1/4
f 419/1/5 418/1/5 417/1/5
f 420/1/5 418/1/5 419/1/5
f 424/1/5 422/1/5 421/1/5
f 425/1/5 422/1/5 424/1/5
f 429/2/5 424/2/5 423/2/5
f 429/1/5 425/1/5 424/1/5
f 430/2/5 426/2/5 425/2/5
f 430/1/5 425/1/5 429/1/5
f 431/2/5 426/2/5 430/2/5
f 432/2/5 428/2/5 427/2/5
f 433/5/5 431/5/5 430/5/5
f 433/5/5 432/5/5 431/5/5
f 433/2/5 429/2/5 423/2/5
f 433/5/5 430/5/5 429/5/5
f 434/2/5 428/2/5 432/2/5
f 434/5/5 432/5/5 433/5/5
f 435/2/5 433/2/5 423/2/5
f 435/2/5 434/2/5 433/2/5
f 436/2/5 428/2/5 434/2/5
f 436/2/5 434/2/5 435/2/5
f 440/1/5 438/1/5 437/1/5
f 441/1/5 438/1/5 440/1/5
f 443/1/5 440/1/5 439/1/5
f 443/1/5 442/1/5 441/1/5
f 443/1/5 441/1/5 440/1/5
f 444/1/5 442/1/5 443/1/5
f 449/1/5 446/1/5 445/1/5
f 450/1/5 446/1/5 449/1/5
f 451/1/5 448/1/5 447/1/5
f 452/1/5 448/1/5 451/1/5
f 457/1/5 454/1/5 453/1/5
f 458/1/5 456/1/5 455/1/5
f 459/1/5 457/1/5 453/1/5
f 460/1/5 457/1/5 459/1/5
f 461/1/5 456/1/5 458/1/5
f 462/1/5 456/1/5 461/1/5
f 463/1/5 459/1/5 453/1/5
f 464/1/5 459/1/5 463/1/5
f 465/1/5 456/1/5 462/1/5
f 466/1/5 456/1/5 465/1/5
f 469/1/5 468/1/5 467/1/5
f 470/1/5 468/1/5 469/1/5
f 475/3/5 472/3/5 471/3/5
f 482/3/5 474/3/5 473/3/5
f 483/3/5 475/3/5 471/3/5
f 483/3/5 476/3/5 475/3/5
f 484/3/5 476/3/5 483/3/5
f 485/1/5 478/1/5 477/1/5
f 486/1/5 478/1/5 485/1/5
f 487/1/5 480/1/5 479/1/5
f 488/1/5 480/1/5 487/1/5
f 489/3/5 482/3/5 481/3/5
f 490/3/5 474/3/5 482/3/5
f 490/3/5 482/3/5 489/3/5
f 495/4/5 492/4/5 491/4/5
f 496/4/5 492/4/5 495/4/5
f 497/4/5 494/4/5 493/4/5
f 498/4/5 494/4/5 497/4/5
f 507/4/5 500/4/5 499/4/5
f 508/4/5 500/4/5 507/4/5
f 509/4/5 502/4/5 501/4/5
f 510/4/5 502/4/5 509/4/5
f 511/4/5 504/4/5 503/4/5
f 512/4/5 504/4/5 511/4/5
f 513/4/5 506/4/5 505/4/5
f 514/4/5 506/4/5 513/4/5
f 519/4/5 516/4/5 515/4/5
f 520/4/5 516/4/5 519/4/5
f 521/4/5 518/4/5 517/4/5
f 522/4/5 518/4/5 521/4/5
f 523/1/6 524/1/6 525/1/6
f 525/1/6 524/1/6 526/1/6
f 527/1/6 528/1/6 529/1/6
f 529/1/6 528/1/6 530/1/6
f 531/1/6 532/1/6 533/1/6
f 533/1/6 532/1/6 534/1/6
f 535/1/6 536/1/6 539/1/6
f 539/1/6 536/1/6 540/1/6
f 537/1/6 538/1/6 543/1/6
f 543/1/6 538/1/6 544/1/6
f 541/1/6 542/1/6 545/1/6
f 545/1/6 542/1/6 546/1/6
f 547/1/6 548/1/6 553/1/6
f 548/1/6 549/1/6 553/1/6
f 551/1/6 552/1/6 554/1/6
f 550/1/6 551/1/6 554/1/6
f 547/1/6 553/1/6 555/1/6
f 553/1/6 554/1/6 555/1/6
f 554/1/6 552/1/6 556/1/6
f 555/1/6 554/1/6 556/1/6
f 557/4/6 558/4/6 561/4/6
f 561/4/6 558/4/6 562/4/6
f 559/4/6 560/4/6 563/4/6
f 563/4/6 560/4/6 564/4/6
f 565/4/6 566/4/6 575/4/6
f 575/4/6 566/4/6 576/4/6
f 567/4/6 568/4/6 577/4/6
f 577/4/6 568/4/6 578/4/6
f 569/1/6 570/1/6 579/1/6
f 579/1/6 570/1/6 580/1/6
f 571/4/6 572/4/6 581/4/6
f 581/4/6 572/4/6 582/4/6
f 573/4/6 574/4/6 583/4/6
f 583/4/6 574/4/6 584/4/6
f 579/1/6 580/1/6 587/1/6
f 587/1/6 580/1/6 588/1/6
f 585/4/6 586/4/6 591/4/6
f 591/4/6 586/4/6 592/4/6
f 587/1/6 588/1/6 593/1/6
f 593/1/6 588/1/6 594/1/6
f 589/4/6 590/4/6 595/4/6
f 595/4/6 590/4/6 596/4/6
f 597/1/6 598/1/6 601/1/6
f 601/1/6 598/1/6 602/1/6
f 599/1/6 600/1/6 603/1/6
f 603/1/6 600/1/6 604/1/6
f 605/1/6 606/1/6 609/1/6
f 609/1/6 606/1/6 610/1/6
f 607/1/6 608/1/6 611/1/6
f 611/1/6 608/1/6 612/1/6
