# MagicaVoxel @ Ephtracy

# group
o 

# material
mtllib bugbear_walk_0.mtl
usemtl palette

# normals
vn -1 0 0
vn 1 0 0
vn 0 0 1
vn 0 0 -1
vn 0 -1 0
vn 0 1 0

# texcoords
vt 0.763672 0.5
vt 0.783203 0.5
vt 0.787109 0.5
vt 0.943359 0.5
vt 0.970703 0.5

# verts
v -0.7 0.2 -0.2
v -0.7 0.2 -0.3
v -0.7 0.3 -0.2
v -0.7 0.3 -0.3
v -0.6 0 -0.1
v -0.6 0 -0.4
v -0.6 0.1 -0.1
v -0.6 0.1 -0.4
v -0.6 0.2 -0.2
v -0.6 0.2 -0.3
v -0.6 0.3 -0.2
v -0.6 0.3 -0.3
v -0.6 0.4 -0.1
v -0.6 0.4 -0.4
v -0.5 0.2 0
v -0.5 0.2 -0.1
v -0.5 0.2 -0.4
v -0.5 0.2 -0.5
v -0.5 0.3 0
v -0.5 0.3 -0.1
v -0.5 0.3 -0.4
v -0.5 0.3 -0.5
v -0.5 0.4 -0.2
v -0.5 0.4 -0.4
v -0.5 1 -0.2
v -0.5 1 -0.4
v -0.3 0.1 0.2
v -0.3 0.1 -0.1
v -0.3 0.3 0.2
v -0.3 0.3 0.1
v -0.3 0.3 -0.1
v -0.3 0.4 -0.1
v -0.3 0.4 -0.2
v -0.3 0.9 0.1
v -0.3 0.9 0
v -0.3 1 0
v -0.3 1 -0.2
v -0.2 0 0.3
v -0.2 0 0.1
v -0.2 0.1 0.3
v -0.2 0.1 0.2
v -0.2 0.1 0.1
v -0.2 0.3 0.2
v -0.2 0.3 0.1
v -0.2 0.8 0.2
v -0.2 0.8 0.1
v -0.2 1.1 0
v -0.2 1.1 -0.1
v -0.2 1.4 0
v -0.2 1.4 -0.1
v -0.1 1 0.1
v -0.1 1 0
v -0.1 1 -0.2
v -0.1 1.1 0
v -0.1 1.1 -0.1
v -0.1 1.3 0.1
v -0.1 1.3 0
v -0.1 1.3 -0.1
v -0.1 1.3 -0.2
v 0 0.1 -0.1
v 0 0.1 -0.2
v 0 0.1 -0.3
v 0 0.2 -0.1
v 0 0.2 -0.2
v 0 0.3 -0.1
v 0 0.3 -0.3
v 0.2 0 0.1
v 0.2 0 -0.1
v 0.2 0.1 0.1
v 0.2 0.1 0
v 0.2 0.1 -0.1
v 0.2 1.3 0
v 0.2 1.3 -0.1
v 0.2 1.4 0
v 0.2 1.4 -0.1
v 0.3 0.2 0.2
v 0.3 0.2 0.1
v 0.3 0.3 0.2
v 0.3 0.3 0.1
v 0.4 0 0.3
v 0.4 0 0
v 0.4 0.1 0.3
v 0.4 0.1 0
v 0.4 0.2 0.2
v 0.4 0.2 0.1
v 0.4 0.3 0.2
v 0.4 0.3 0.1
v 0.4 0.3 0
v 0.4 0.4 0.3
v 0.4 0.4 0.2
v 0.4 0.4 0.1
v 0.4 0.9 0.1
v 0.4 0.9 0
v 0.4 1 0.2
v 0.4 1 0
v 0.5 0.2 0.4
v 0.5 0.2 0.3
v 0.5 0.2 0
v 0.5 0.2 -0.1
v 0.5 0.3 0.4
v 0.5 0.3 0.3
v 0.5 0.3 0
v 0.5 0.3 -0.1
v -0.4 0.2 0
v -0.4 0.2 -0.1
v -0.4 0.2 -0.4
v -0.4 0.2 -0.5
v -0.4 0.3 0
v -0.4 0.3 -0.1
v -0.4 0.3 -0.4
v -0.4 0.3 -0.5
v -0.3 0 -0.1
v -0.3 0 -0.4
v -0.3 0.1 -0.1
v -0.3 0.1 -0.4
v -0.3 0.2 -0.2
v -0.3 0.2 -0.3
v -0.3 0.3 -0.1
v -0.3 0.3 -0.2
v -0.3 0.3 -0.3
v -0.3 0.4 -0.3
v -0.3 0.4 -0.4
v -0.3 1 -0.3
v -0.3 1 -0.4
v -0.2 0.2 -0.2
v -0.2 0.2 -0.3
v -0.2 0.3 -0.2
v -0.2 0.3 -0.3
v -0.1 0 0.3
v -0.1 0 0.1
v -0.1 0.1 0.3
v -0.1 0.1 0.2
v -0.1 0.1 0.1
v -0.1 1.3 0
v -0.1 1.3 -0.1
v -0.1 1.4 0
v -0.1 1.4 -0.1
v 0 0.1 0.2
v 0 0.1 0.1
v 0 0.1 0
v 0 0.2 0.1
v 0 0.2 0
v 0 0.3 0.2
v 0 0.3 0
v 0.2 1 0.1
v 0.2 1 0
v 0.2 1 -0.2
v 0.2 1.1 0
v 0.2 1.1 -0.1
v 0.2 1.3 0.1
v 0.2 1.3 0
v 0.2 1.3 -0.1
v 0.2 1.3 -0.2
v 0.3 0 0.1
v 0.3 0 -0.1
v 0.3 0.1 0.1
v 0.3 0.1 0
v 0.3 0.1 -0.1
v 0.3 0.3 0.2
v 0.3 0.3 0.1
v 0.3 0.8 0.2
v 0.3 0.8 0.1
v 0.3 1.1 0
v 0.3 1.1 -0.1
v 0.3 1.4 0
v 0.3 1.4 -0.1
v 0.4 0.1 0
v 0.4 0.1 -0.3
v 0.4 0.3 0
v 0.4 0.3 -0.3
v 0.4 0.4 0
v 0.4 1 0
v 0.4 1 -0.3
v 0.6 0.2 0.4
v 0.6 0.2 0.3
v 0.6 0.2 0
v 0.6 0.2 -0.1
v 0.6 0.3 0.4
v 0.6 0.3 0.3
v 0.6 0.3 0
v 0.6 0.3 -0.1
v 0.6 0.4 0.2
v 0.6 0.4 0
v 0.6 1 0.2
v 0.6 1 0
v 0.7 0 0.3
v 0.7 0 0
v 0.7 0.1 0.3
v 0.7 0.1 0
v 0.7 0.2 0.2
v 0.7 0.2 0.1
v 0.7 0.3 0.2
v 0.7 0.3 0.1
v 0.7 0.4 0.3
v 0.7 0.4 0
v 0.8 0.2 0.2
v 0.8 0.2 0.1
v 0.8 0.3 0.2
v 0.8 0.3 0.1
v 0.5 0.2 0.4
v 0.5 0.3 0.4
v 0.6 0.2 0.4
v 0.6 0.3 0.4
v -0.2 0 0.3
v -0.2 0.1 0.3
v -0.1 0 0.3
v -0.1 0.1 0.3
v 0.4 0 0.3
v 0.4 0.1 0.3
v 0.4 0.4 0.3
v 0.5 0.2 0.3
v 0.5 0.3 0.3
v 0.6 0.2 0.3
v 0.6 0.3 0.3
v 0.7 0 0.3
v 0.7 0.1 0.3
v 0.7 0.4 0.3
v -0.3 0.1 0.2
v -0.3 0.3 0.2
v -0.2 0.1 0.2
v -0.2 0.3 0.2
v -0.2 0.8 0.2
v -0.1 0.1 0.2
v 0 0.1 0.2
v 0 0.3 0.2
v 0.3 0.2 0.2
v 0.3 0.3 0.2
v 0.3 0.8 0.2
v 0.4 0.2 0.2
v 0.4 0.3 0.2
v 0.4 0.4 0.2
v 0.4 1 0.2
v 0.6 0.4 0.2
v 0.6 1 0.2
v 0.7 0.2 0.2
v 0.7 0.3 0.2
v 0.8 0.2 0.2
v 0.8 0.3 0.2
v -0.3 0.3 0.1
v -0.3 0.9 0.1
v -0.2 0.3 0.1
v -0.2 0.8 0.1
v -0.1 1 0.1
v -0.1 1.3 0.1
v 0.2 0 0.1
v 0.2 0.1 0.1
v 0.2 1 0.1
v 0.2 1.3 0.1
v 0.3 0 0.1
v 0.3 0.1 0.1
v 0.3 0.3 0.1
v 0.3 0.8 0.1
v 0.4 0.3 0.1
v 0.4 0.4 0.1
v 0.4 0.9 0.1
v -0.5 0.2 0
v -0.5 0.3 0
v -0.4 0.2 0
v -0.4 0.3 0
v -0.3 0.9 0
v -0.3 1 0
v -0.2 1.1 0
v -0.2 1.4 0
v -0.1 1 0
v -0.1 1.1 0
v -0.1 1.3 0
v -0.1 1.4 0
v 0 0.1 0
v 0 0.2 0
v 0 0.3 0
v 0.2 0.1 0
v 0.2 1 0
v 0.2 1.1 0
v 0.2 1.3 0
v 0.2 1.4 0
v 0.3 0.1 0
v 0.3 1.1 0
v 0.3 1.4 0
v 0.4 0.1 0
v 0.4 0.3 0
v 0.4 0.9 0
v 0.4 1 0
v -0.6 0 -0.1
v -0.6 0.1 -0.1
v -0.6 0.4 -0.1
v -0.5 0.2 -0.1
v -0.5 0.3 -0.1
v -0.4 0.2 -0.1
v -0.4 0.3 -0.1
v -0.3 0 -0.1
v -0.3 0.1 -0.1
v -0.3 0.3 -0.1
v -0.3 0.4 -0.1
v -0.7 0.2 -0.2
v -0.7 0.3 -0.2
v -0.6 0.2 -0.2
v -0.6 0.3 -0.2
v -0.5 0.4 -0.2
v -0.5 1 -0.2
v -0.3 0.2 -0.2
v -0.3 0.3 -0.2
v -0.3 0.4 -0.2
v -0.3 1 -0.2
v -0.2 0.2 -0.2
v -0.2 0.3 -0.2
v -0.2 0 0.1
v -0.2 0.1 0.1
v -0.1 0 0.1
v -0.1 0.1 0.1
v 0.3 0.2 0.1
v 0.3 0.3 0.1
v 0.4 0.2 0.1
v 0.4 0.3 0.1
v 0.7 0.2 0.1
v 0.7 0.3 0.1
v 0.8 0.2 0.1
v 0.8 0.3 0.1
v 0.4 0 0
v 0.4 0.1 0
v 0.4 0.3 0
v 0.4 0.4 0
v 0.4 1 0
v 0.5 0.2 0
v 0.5 0.3 0
v 0.6 0.2 0
v 0.6 0.3 0
v 0.6 0.4 0
v 0.6 1 0
v 0.7 0 0
v 0.7 0.1 0
v 0.7 0.4 0
v -0.3 0.1 -0.1
v -0.3 0.3 -0.1
v -0.2 1.1 -0.1
v -0.2 1.4 -0.1
v -0.1 1.1 -0.1
v -0.1 1.3 -0.1
v -0.1 1.4 -0.1
v 0 0.1 -0.1
v 0 0.2 -0.1
v 0 0.3 -0.1
v 0.2 0 -0.1
v 0.2 0.1 -0.1
v 0.2 1.1 -0.1
v 0.2 1.3 -0.1
v 0.2 1.4 -0.1
v 0.3 0 -0.1
v 0.3 0.1 -0.1
v 0.3 1.1 -0.1
v 0.3 1.4 -0.1
v 0.5 0.2 -0.1
v 0.5 0.3 -0.1
v 0.6 0.2 -0.1
v 0.6 0.3 -0.1
v -0.1 1 -0.2
v -0.1 1.3 -0.2
v 0.2 1 -0.2
v 0.2 1.3 -0.2
v -0.7 0.2 -0.3
v -0.7 0.3 -0.3
v -0.6 0.2 -0.3
v -0.6 0.3 -0.3
v -0.3 0.2 -0.3
v -0.3 0.3 -0.3
v -0.3 0.4 -0.3
v -0.3 1 -0.3
v -0.2 0.2 -0.3
v -0.2 0.3 -0.3
v 0 0.1 -0.3
v 0 0.3 -0.3
v 0.4 0.1 -0.3
v 0.4 0.3 -0.3
v 0.4 1 -0.3
v -0.6 0 -0.4
v -0.6 0.1 -0.4
v -0.6 0.4 -0.4
v -0.5 0.2 -0.4
v -0.5 0.3 -0.4
v -0.5 0.4 -0.4
v -0.5 1 -0.4
v -0.4 0.2 -0.4
v -0.4 0.3 -0.4
v -0.3 0 -0.4
v -0.3 0.1 -0.4
v -0.3 0.4 -0.4
v -0.3 1 -0.4
v -0.5 0.2 -0.5
v -0.5 0.3 -0.5
v -0.4 0.2 -0.5
v -0.4 0.3 -0.5
v -0.2 0 0.3
v -0.1 0 0.3
v 0.4 0 0.3
v 0.7 0 0.3
v -0.2 0 0.1
v -0.1 0 0.1
v 0.2 0 0.1
v 0.3 0 0.1
v 0.4 0 0
v 0.7 0 0
v -0.6 0 -0.1
v -0.3 0 -0.1
v 0.2 0 -0.1
v 0.3 0 -0.1
v -0.6 0 -0.4
v -0.3 0 -0.4
v -0.3 0.1 0.2
v -0.2 0.1 0.2
v -0.1 0.1 0.2
v 0 0.1 0.2
v -0.2 0.1 0.1
v -0.1 0.1 0.1
v 0 0.1 0.1
v -0.2 0.1 0
v 0 0.1 0
v 0.2 0.1 0
v 0.3 0.1 0
v 0.4 0.1 0
v -0.3 0.1 -0.1
v 0 0.1 -0.1
v 0.2 0.1 -0.1
v 0.3 0.1 -0.1
v 0 0.1 -0.2
v 0.3 0.1 -0.2
v 0 0.1 -0.3
v 0.4 0.1 -0.3
v 0.5 0.2 0.4
v 0.6 0.2 0.4
v 0.5 0.2 0.3
v 0.6 0.2 0.3
v 0.3 0.2 0.2
v 0.4 0.2 0.2
v 0.7 0.2 0.2
v 0.8 0.2 0.2
v 0.3 0.2 0.1
v 0.4 0.2 0.1
v 0.7 0.2 0.1
v 0.8 0.2 0.1
v -0.5 0.2 0
v -0.4 0.2 0
v 0.5 0.2 0
v 0.6 0.2 0
v -0.5 0.2 -0.1
v -0.4 0.2 -0.1
v 0.5 0.2 -0.1
v 0.6 0.2 -0.1
v -0.7 0.2 -0.2
v -0.6 0.2 -0.2
v -0.3 0.2 -0.2
v -0.2 0.2 -0.2
v -0.7 0.2 -0.3
v -0.6 0.2 -0.3
v -0.3 0.2 -0.3
v -0.2 0.2 -0.3
v -0.5 0.2 -0.4
v -0.4 0.2 -0.4
v -0.5 0.2 -0.5
v -0.4 0.2 -0.5
v 0 0.3 0.2
v 0.3 0.3 0.2
v 0.3 0.3 0.1
v 0.4 0.3 0.1
v 0 0.3 0
v 0.4 0.3 0
v -0.3 0.3 -0.1
v 0 0.3 -0.1
v -0.3 0.3 -0.2
v -0.2 0.3 -0.2
v -0.2 0.3 -0.3
v 0 0.3 -0.3
v -0.1 1 0.1
v 0.2 1 0.1
v -0.1 1 0
v 0.2 1 0
v -0.2 1.1 0
v -0.1 1.1 0
v 0.2 1.1 0
v 0.3 1.1 0
v -0.2 1.1 -0.1
v -0.1 1.1 -0.1
v 0.2 1.1 -0.1
v 0.3 1.1 -0.1
v -0.2 0.1 0.3
v -0.1 0.1 0.3
v -0.2 0.1 0.2
v -0.1 0.1 0.2
v 0.2 0.1 0.1
v 0.3 0.1 0.1
v 0.2 0.1 0
v 0.3 0.1 0
v 0.5 0.3 0.4
v 0.6 0.3 0.4
v 0.5 0.3 0.3
v 0.6 0.3 0.3
v -0.3 0.3 0.2
v -0.2 0.3 0.2
v 0.3 0.3 0.2
v 0.4 0.3 0.2
v 0.7 0.3 0.2
v 0.8 0.3 0.2
v -0.3 0.3 0.1
v -0.2 0.3 0.1
v 0.3 0.3 0.1
v 0.4 0.3 0.1
v 0.7 0.3 0.1
v 0.8 0.3 0.1
v -0.5 0.3 0
v -0.4 0.3 0
v 0.5 0.3 0
v 0.6 0.3 0
v -0.5 0.3 -0.1
v -0.4 0.3 -0.1
v 0.5 0.3 -0.1
v 0.6 0.3 -0.1
v -0.7 0.3 -0.2
v -0.6 0.3 -0.2
v -0.7 0.3 -0.3
v -0.6 0.3 -0.3
v -0.5 0.3 -0.4
v -0.4 0.3 -0.4
v -0.5 0.3 -0.5
v -0.4 0.3 -0.5
v 0.4 0.4 0.3
v 0.7 0.4 0.3
v 0.4 0.4 0.2
v 0.6 0.4 0.2
v 0.6 0.4 0
v 0.7 0.4 0
v -0.6 0.4 -0.1
v -0.3 0.4 -0.1
v -0.5 0.4 -0.2
v -0.3 0.4 -0.2
v -0.6 0.4 -0.4
v -0.5 0.4 -0.4
v -0.2 0.8 0.2
v 0.3 0.8 0.2
v -0.2 0.8 0.1
v 0.3 0.8 0.1
v -0.3 0.9 0.1
v 0.4 0.9 0.1
v -0.3 0.9 0
v 0.4 0.9 0
v 0.4 1 0.2
v 0.6 1 0.2
v -0.3 1 0
v -0.1 1 0
v 0.2 1 0
v 0.4 1 0
v 0.6 1 0
v -0.5 1 -0.2
v -0.3 1 -0.2
v -0.1 1 -0.2
v 0.2 1 -0.2
v -0.3 1 -0.3
v 0.4 1 -0.3
v -0.5 1 -0.4
v -0.3 1 -0.4
v -0.1 1.3 0.1
v 0.2 1.3 0.1
v -0.1 1.3 0
v 0.2 1.3 0
v -0.1 1.3 -0.1
v 0.2 1.3 -0.1
v -0.1 1.3 -0.2
v 0.2 1.3 -0.2
v -0.2 1.4 0
v -0.1 1.4 0
v 0.2 1.4 0
v 0.3 1.4 0
v -0.2 1.4 -0.1
v -0.1 1.4 -0.1
v 0.2 1.4 -0.1
v 0.3 1.4 -0.1

# faces
f 3/4/1 2/4/1 1/4/1
f 4/4/1 2/4/1 3/4/1
f 7/1/1 6/1/1 5/1/1
f 8/1/1 6/1/1 7/1/1
f 9/3/1 8/3/1 7/3/1
f 10/3/1 8/3/1 9/3/1
f 11/3/1 9/3/1 7/3/1
f 12/3/1 8/3/1 10/3/1
f 13/3/1 11/3/1 7/3/1
f 13/3/1 12/3/1 11/3/1
f 14/3/1 8/3/1 12/3/1
f 14/3/1 12/3/1 13/3/1
f 19/4/1 16/4/1 15/4/1
f 20/4/1 16/4/1 19/4/1
f 21/4/1 18/4/1 17/4/1
f 22/4/1 18/4/1 21/4/1
f 25/1/1 24/1/1 23/1/1
f 26/1/1 24/1/1 25/1/1
f 29/2/1 28/2/1 27/2/1
f 30/2/1 28/2/1 29/2/1
f 31/2/1 28/2/1 30/2/1
f 32/1/1 31/1/1 30/1/1
f 34/1/1 32/1/1 30/1/1
f 34/1/1 33/1/1 32/1/1
f 35/1/1 33/1/1 34/1/1
f 36/1/1 33/1/1 35/1/1
f 37/1/1 33/1/1 36/1/1
f 40/1/1 39/1/1 38/1/1
f 41/1/1 39/1/1 40/1/1
f 42/1/1 39/1/1 41/1/1
f 45/1/1 44/1/1 43/1/1
f 46/1/1 44/1/1 45/1/1
f 49/1/1 48/1/1 47/1/1
f 50/1/1 48/1/1 49/1/1
f 54/1/1 52/1/1 51/1/1
f 54/1/1 53/1/1 52/1/1
f 55/1/1 53/1/1 54/1/1
f 56/1/1 54/1/1 51/1/1
f 57/1/1 54/1/1 56/1/1
f 58/1/1 53/1/1 55/1/1
f 59/1/1 53/1/1 58/1/1
f 63/5/1 61/5/1 60/5/1
f 64/2/1 62/2/1 61/2/1
f 64/5/1 61/5/1 63/5/1
f 65/2/1 64/2/1 63/2/1
f 66/2/1 62/2/1 64/2/1
f 66/2/1 64/2/1 65/2/1
f 69/1/1 68/1/1 67/1/1
f 70/1/1 68/1/1 69/1/1
f 71/1/1 68/1/1 70/1/1
f 74/1/1 73/1/1 72/1/1
f 75/1/1 73/1/1 74/1/1
f 78/4/1 77/4/1 76/4/1
f 79/4/1 77/4/1 78/4/1
f 82/1/1 81/1/1 80/1/1
f 83/1/1 81/1/1 82/1/1
f 84/3/1 83/3/1 82/3/1
f 85/3/1 83/3/1 84/3/1
f 86/3/1 84/3/1 82/3/1
f 87/3/1 83/3/1 85/3/1
f 88/3/1 83/3/1 87/3/1
f 89/3/1 86/3/1 82/3/1
f 89/3/1 87/3/1 86/3/1
f 90/3/1 87/3/1 89/3/1
f 91/3/1 87/3/1 90/3/1
f 92/1/1 91/1/1 90/1/1
f 94/1/1 92/1/1 90/1/1
f 94/1/1 93/1/1 92/1/1
f 95/1/1 93/1/1 94/1/1
f 100/4/1 97/4/1 96/4/1
f 101/4/1 97/4/1 100/4/1
f 102/4/1 99/4/1 98/4/1
f 103/4/1 99/4/1 102/4/1
f 104/4/2 105/4/2 108/4/2
f 108/4/2 105/4/2 109/4/2
f 106/4/2 107/4/2 110/4/2
f 110/4/2 107/4/2 111/4/2
f 112/1/2 113/1/2 114/1/2
f 114/1/2 113/1/2 115/1/2
f 114/3/2 115/3/2 116/3/2
f 116/3/2 115/3/2 117/3/2
f 114/3/2 116/3/2 118/3/2
f 118/3/2 116/3/2 119/3/2
f 117/3/2 115/3/2 120/3/2
f 120/3/2 115/3/2 121/3/2
f 121/3/2 115/3/2 122/3/2
f 121/1/2 122/1/2 123/1/2
f 123/1/2 122/1/2 124/1/2
f 125/4/2 126/4/2 127/4/2
f 127/4/2 126/4/2 128/4/2
f 129/1/2 130/1/2 131/1/2
f 131/1/2 130/1/2 132/1/2
f 132/1/2 130/1/2 133/1/2
f 134/1/2 135/1/2 136/1/2
f 136/1/2 135/1/2 137/1/2
f 138/2/2 139/2/2 141/2/2
f 139/5/2 140/5/2 141/5/2
f 141/5/2 140/5/2 142/5/2
f 138/2/2 141/2/2 143/2/2
f 141/2/2 142/2/2 143/2/2
f 143/2/2 142/2/2 144/2/2
f 145/1/2 146/1/2 148/1/2
f 146/1/2 147/1/2 148/1/2
f 148/1/2 147/1/2 149/1/2
f 145/1/2 148/1/2 150/1/2
f 150/1/2 148/1/2 151/1/2
f 149/1/2 147/1/2 152/1/2
f 152/1/2 147/1/2 153/1/2
f 154/1/2 155/1/2 156/1/2
f 156/1/2 155/1/2 157/1/2
f 157/1/2 155/1/2 158/1/2
f 159/1/2 160/1/2 161/1/2
f 161/1/2 160/1/2 162/1/2
f 163/1/2 164/1/2 165/1/2
f 165/1/2 164/1/2 166/1/2
f 167/2/2 168/2/2 169/2/2
f 169/2/2 168/2/2 170/2/2
f 169/1/2 170/1/2 171/1/2
f 171/1/2 170/1/2 172/1/2
f 172/1/2 170/1/2 173/1/2
f 174/4/2 175/4/2 178/4/2
f 178/4/2 175/4/2 179/4/2
f 176/4/2 177/4/2 180/4/2
f 180/4/2 177/4/2 181/4/2
f 182/1/2 183/1/2 184/1/2
f 184/1/2 183/1/2 185/1/2
f 186/1/2 187/1/2 188/1/2
f 188/1/2 187/1/2 189/1/2
f 188/3/2 189/3/2 190/3/2
f 190/3/2 189/3/2 191/3/2
f 188/3/2 190/3/2 192/3/2
f 191/3/2 189/3/2 193/3/2
f 188/3/2 192/3/2 194/3/2
f 192/3/2 193/3/2 194/3/2
f 193/3/2 189/3/2 195/3/2
f 194/3/2 193/3/2 195/3/2
f 196/4/2 197/4/2 198/4/2
f 198/4/2 197/4/2 199/4/2
f 202/4/3 201/4/3 200/4/3
f 203/4/3 201/4/3 202/4/3
f 206/1/3 205/1/3 204/1/3
f 207/1/3 205/1/3 206/1/3
f 211/3/3 210/3/3 209/3/3
f 212/3/3 210/3/3 211/3/3
f 213/3/3 211/3/3 209/3/3
f 214/3/3 210/3/3 212/3/3
f 215/1/3 209/1/3 208/1/3
f 216/3/3 214/3/3 213/3/3
f 216/1/3 209/1/3 215/1/3
f 216/3/3 213/3/3 209/3/3
f 217/3/3 210/3/3 214/3/3
f 217/3/3 214/3/3 216/3/3
f 220/2/3 219/2/3 218/2/3
f 221/2/3 219/2/3 220/2/3
f 223/2/3 221/2/3 220/2/3
f 224/2/3 221/2/3 223/2/3
f 225/1/3 222/1/3 221/1/3
f 225/2/3 221/2/3 224/2/3
f 227/1/3 222/1/3 225/1/3
f 228/1/3 222/1/3 227/1/3
f 229/4/3 227/4/3 226/4/3
f 230/4/3 227/4/3 229/4/3
f 233/1/3 232/1/3 231/1/3
f 234/1/3 232/1/3 233/1/3
f 237/4/3 236/4/3 235/4/3
f 238/4/3 236/4/3 237/4/3
f 241/1/3 240/1/3 239/1/3
f 242/1/3 240/1/3 241/1/3
f 247/1/3 244/1/3 243/1/3
f 248/1/3 244/1/3 247/1/3
f 249/1/3 246/1/3 245/1/3
f 250/1/3 246/1/3 249/1/3
f 252/1/3 240/1/3 242/1/3
f 253/1/3 252/1/3 251/1/3
f 254/1/3 252/1/3 253/1/3
f 255/1/3 240/1/3 252/1/3
f 255/1/3 252/1/3 254/1/3
f 258/4/3 257/4/3 256/4/3
f 259/4/3 257/4/3 258/4/3
f 264/1/3 261/1/3 260/1/3
f 265/1/3 263/1/3 262/1/3
f 266/1/3 263/1/3 265/1/3
f 267/1/3 263/1/3 266/1/3
f 271/2/3 269/2/3 268/2/3
f 271/2/3 270/2/3 269/2/3
f 272/1/3 264/1/3 260/1/3
f 276/2/3 270/2/3 271/2/3
f 277/1/3 275/1/3 274/1/3
f 277/1/3 274/1/3 273/1/3
f 278/1/3 275/1/3 277/1/3
f 279/2/3 270/2/3 276/2/3
f 280/2/3 270/2/3 279/2/3
f 281/1/3 272/1/3 260/1/3
f 282/1/3 272/1/3 281/1/3
f 286/3/3 285/3/3 284/3/3
f 287/3/3 285/3/3 286/3/3
f 288/3/3 286/3/3 284/3/3
f 289/3/3 285/3/3 287/3/3
f 290/1/3 284/1/3 283/1/3
f 291/3/3 289/3/3 288/3/3
f 291/1/3 284/1/3 290/1/3
f 291/3/3 288/3/3 284/3/3
f 292/3/3 285/3/3 289/3/3
f 292/3/3 289/3/3 291/3/3
f 293/3/3 285/3/3 292/3/3
f 296/4/3 295/4/3 294/4/3
f 297/4/3 295/4/3 296/4/3
f 302/1/3 299/1/3 298/1/3
f 303/1/3 299/1/3 302/1/3
f 304/4/3 301/4/3 300/4/3
f 305/4/3 301/4/3 304/4/3
f 306/1/4 307/1/4 308/1/4
f 308/1/4 307/1/4 309/1/4
f 310/4/4 311/4/4 312/4/4
f 312/4/4 311/4/4 313/4/4
f 314/4/4 315/4/4 316/4/4
f 316/4/4 315/4/4 317/4/4
f 319/3/4 320/3/4 323/3/4
f 320/3/4 321/3/4 323/3/4
f 323/3/4 321/3/4 324/3/4
f 319/3/4 323/3/4 325/3/4
f 324/3/4 321/3/4 326/3/4
f 321/1/4 322/1/4 327/1/4
f 326/3/4 321/3/4 327/3/4
f 327/1/4 322/1/4 328/1/4
f 318/1/4 319/1/4 329/1/4
f 325/3/4 326/3/4 330/3/4
f 329/1/4 319/1/4 330/1/4
f 319/3/4 325/3/4 330/3/4
f 326/3/4 327/3/4 330/3/4
f 330/3/4 327/3/4 331/3/4
f 334/1/4 335/1/4 336/1/4
f 336/1/4 335/1/4 337/1/4
f 337/1/4 335/1/4 338/1/4
f 332/2/4 333/2/4 339/2/4
f 339/2/4 333/2/4 340/2/4
f 340/2/4 333/2/4 341/2/4
f 342/1/4 343/1/4 347/1/4
f 347/1/4 343/1/4 348/1/4
f 345/1/4 346/1/4 349/1/4
f 344/1/4 345/1/4 349/1/4
f 349/1/4 346/1/4 350/1/4
f 351/4/4 352/4/4 353/4/4
f 353/4/4 352/4/4 354/4/4
f 355/1/4 356/1/4 357/1/4
f 357/1/4 356/1/4 358/1/4
f 359/4/4 360/4/4 361/4/4
f 361/4/4 360/4/4 362/4/4
f 363/4/4 364/4/4 367/4/4
f 365/1/4 366/1/4 368/1/4
f 367/4/4 364/4/4 368/4/4
f 364/1/4 365/1/4 368/1/4
f 368/1/4 366/1/4 370/1/4
f 369/2/4 370/2/4 371/2/4
f 370/1/4 366/1/4 372/1/4
f 371/2/4 370/2/4 372/2/4
f 372/1/4 366/1/4 373/1/4
f 375/3/4 376/3/4 377/3/4
f 377/3/4 376/3/4 378/3/4
f 378/3/4 376/3/4 379/3/4
f 375/3/4 377/3/4 381/3/4
f 378/3/4 379/3/4 382/3/4
f 374/1/4 375/1/4 383/1/4
f 381/3/4 382/3/4 384/3/4
f 383/1/4 375/1/4 384/1/4
f 375/3/4 381/3/4 384/3/4
f 379/1/4 380/1/4 385/1/4
f 384/3/4 382/3/4 385/3/4
f 382/3/4 379/3/4 385/3/4
f 385/1/4 380/1/4 386/1/4
f 387/4/4 388/4/4 389/4/4
f 389/4/4 388/4/4 390/4/4
f 395/1/5 392/1/5 391/1/5
f 396/1/5 392/1/5 395/1/5
f 399/1/5 394/1/5 393/1/5
f 400/1/5 394/1/5 399/1/5
f 403/1/5 398/1/5 397/1/5
f 404/1/5 398/1/5 403/1/5
f 405/1/5 402/1/5 401/1/5
f 406/1/5 402/1/5 405/1/5
f 411/2/5 408/2/5 407/2/5
f 412/2/5 410/2/5 409/2/5
f 413/2/5 410/2/5 412/2/5
f 414/2/5 411/2/5 407/2/5
f 414/5/5 412/5/5 411/5/5
f 414/5/5 413/5/5 412/5/5
f 415/5/5 413/5/5 414/5/5
f 419/2/5 415/2/5 414/2/5
f 419/2/5 414/2/5 407/2/5
f 419/2/5 416/2/5 415/2/5
f 420/2/5 416/2/5 419/2/5
f 421/2/5 416/2/5 420/2/5
f 422/2/5 418/2/5 417/2/5
f 423/5/5 421/5/5 420/5/5
f 423/5/5 422/5/5 421/5/5
f 424/2/5 418/2/5 422/2/5
f 424/5/5 422/5/5 423/5/5
f 425/2/5 424/2/5 423/2/5
f 426/2/5 418/2/5 424/2/5
f 426/2/5 424/2/5 425/2/5
f 429/4/5 428/4/5 427/4/5
f 430/4/5 428/4/5 429/4/5
f 435/4/5 432/4/5 431/4/5
f 436/4/5 432/4/5 435/4/5
f 437/4/5 434/4/5 433/4/5
f 438/4/5 434/4/5 437/4/5
f 443/4/5 440/4/5 439/4/5
f 444/4/5 440/4/5 443/4/5
f 445/4/5 442/4/5 441/4/5
f 446/4/5 442/4/5 445/4/5
f 451/4/5 448/4/5 447/4/5
f 452/4/5 448/4/5 451/4/5
f 453/4/5 450/4/5 449/4/5
f 454/4/5 450/4/5 453/4/5
f 457/4/5 456/4/5 455/4/5
f 458/4/5 456/4/5 457/4/5
f 461/1/5 460/1/5 459/1/5
f 463/1/5 461/1/5 459/1/5
f 463/1/5 462/1/5 461/1/5
f 464/1/5 462/1/5 463/1/5
f 467/1/5 466/1/5 465/1/5
f 468/1/5 466/1/5 467/1/5
f 469/1/5 466/1/5 468/1/5
f 470/1/5 466/1/5 469/1/5
f 473/1/5 472/1/5 471/1/5
f 474/1/5 472/1/5 473/1/5
f 479/1/5 476/1/5 475/1/5
f 480/1/5 476/1/5 479/1/5
f 481/1/5 478/1/5 477/1/5
f 482/1/5 478/1/5 481/1/5
f 483/1/6 484/1/6 485/1/6
f 485/1/6 484/1/6 486/1/6
f 487/1/6 488/1/6 489/1/6
f 489/1/6 488/1/6 490/1/6
f 491/4/6 492/4/6 493/4/6
f 493/4/6 492/4/6 494/4/6
f 495/2/6 496/2/6 501/2/6
f 501/2/6 496/2/6 502/2/6
f 497/4/6 498/4/6 503/4/6
f 503/4/6 498/4/6 504/4/6
f 499/4/6 500/4/6 505/4/6
f 505/4/6 500/4/6 506/4/6
f 507/4/6 508/4/6 511/4/6
f 511/4/6 508/4/6 512/4/6
f 509/4/6 510/4/6 513/4/6
f 513/4/6 510/4/6 514/4/6
f 515/4/6 516/4/6 517/4/6
f 517/4/6 516/4/6 518/4/6
f 519/4/6 520/4/6 521/4/6
f 521/4/6 520/4/6 522/4/6
f 523/3/6 524/3/6 525/3/6
f 525/3/6 524/3/6 526/3/6
f 526/3/6 524/3/6 527/3/6
f 527/3/6 524/3/6 528/3/6
f 529/3/6 530/3/6 531/3/6
f 531/3/6 530/3/6 532/3/6
f 529/3/6 531/3/6 533/3/6
f 533/3/6 531/3/6 534/3/6
f 535/1/6 536/1/6 537/1/6
f 537/1/6 536/1/6 538/1/6
f 539/1/6 540/1/6 541/1/6
f 541/1/6 540/1/6 542/1/6
f 543/1/6 544/1/6 548/1/6
f 548/1/6 544/1/6 549/1/6
f 545/1/6 546/1/6 551/1/6
f 551/1/6 546/1/6 552/1/6
f 547/1/6 548/1/6 553/1/6
f 551/1/6 552/1/6 554/1/6
f 552/1/6 553/1/6 554/1/6
f 550/1/6 551/1/6 554/1/6
f 553/1/6 548/1/6 555/1/6
f 554/1/6 553/1/6 555/1/6
f 550/1/6 554/1/6 556/1/6
f 556/1/6 554/1/6 557/1/6
f 558/1/6 559/1/6 560/1/6
f 560/1/6 559/1/6 561/1/6
f 560/1/6 561/1/6 562/1/6
f 562/1/6 561/1/6 563/1/6
f 562/1/6 563/1/6 564/1/6
f 564/1/6 563/1/6 565/1/6
f 566/1/6 567/1/6 570/1/6
f 570/1/6 567/1/6 571/1/6
f 568/1/6 569/1/6 572/1/6
f 572/1/6 569/1/6 573/1/6
