# MagicaVoxel @ Ephtracy

# group
o 

# material
mtllib bugbear_walk_3.mtl
usemtl palette

# normals
vn -1 0 0
vn 1 0 0
vn 0 0 1
vn 0 0 -1
vn 0 -1 0
vn 0 1 0

# texcoords
vt 0.763672 0.5
vt 0.783203 0.5
vt 0.787109 0.5
vt 0.943359 0.5
vt 0.970703 0.5

# verts
v -0.7 0.3 -2.98023e-08
v -0.7 0.3 -0.1
v -0.7 0.4 -2.98023e-08
v -0.7 0.4 -0.1
v -0.6 0.1 0.1
v -0.6 0.1 -0.2
v -0.6 0.2 0.1
v -0.6 0.2 -0.2
v -0.6 0.3 -2.98023e-08
v -0.6 0.3 -0.1
v -0.6 0.4 -2.98023e-08
v -0.6 0.4 -0.1
v -0.6 0.5 0.1
v -0.6 0.5 -0.2
v -0.5 0.3 0.2
v -0.5 0.3 0.1
v -0.5 0.3 -0.2
v -0.5 0.3 -0.3
v -0.5 0.4 0.2
v -0.5 0.4 0.1
v -0.5 0.4 -0.2
v -0.5 0.4 -0.3
v -0.5 0.5 -2.98023e-08
v -0.5 0.5 -0.2
v -0.5 0.8 -2.98023e-08
v -0.5 0.8 -0.2
v -0.4 0.5 -0.2
v -0.4 0.5 -0.3
v -0.4 0.8 -0.2
v -0.4 0.8 -0.3
v -0.3 0.1 -0.2
v -0.3 0.1 -0.3
v -0.3 0.2 -0.2
v -0.3 0.3 -0.2
v -0.3 0.3 -0.3
v -0.3 0.5 0.1
v -0.3 0.5 -2.98023e-08
v -0.3 0.5 -0.2
v -0.3 0.5 -0.3
v -0.3 0.8 0.1
v -0.3 0.8 -2.98023e-08
v -0.3 0.8 -0.3
v -0.3 0.9 -2.98023e-08
v -0.3 0.9 -0.3
v -0.2 0.1 0.1
v -0.2 0.1 -2.98023e-08
v -0.2 0.2 0.1
v -0.2 0.2 -2.98023e-08
v -0.2 0.3 0.2
v -0.2 0.3 0.1
v -0.2 0.7 0.2
v -0.2 0.7 0.1
v -0.2 1 -2.98023e-08
v -0.2 1 -0.1
v -0.2 1.3 -2.98023e-08
v -0.2 1.3 -0.1
v -0.1 0.9 0.1
v -0.1 0.9 -2.98023e-08
v -0.1 0.9 -0.2
v -0.1 1 -2.98023e-08
v -0.1 1 -0.1
v -0.1 1.2 0.1
v -0.1 1.2 -2.98023e-08
v -0.1 1.2 -0.1
v -0.1 1.2 -0.2
v 0.2 0 0.1
v 0.2 0 -0.1
v 0.2 0.1 0.1
v 0.2 0.1 -2.98023e-08
v 0.2 0.1 -0.1
v 0.2 1.2 -2.98023e-08
v 0.2 1.2 -0.1
v 0.2 1.3 -2.98023e-08
v 0.2 1.3 -0.1
v 0.4 0.1 0.1
v 0.4 0.1 -2.98023e-08
v 0.4 0.2 0.1
v 0.4 0.2 -2.98023e-08
v 0.4 0.3 0.1
v 0.4 0.3 -2.98023e-08
v 0.5 0.3 0.2
v 0.5 0.3 0.1
v 0.5 0.3 -0.2
v 0.5 0.3 -0.3
v 0.5 0.4 0.2
v 0.5 0.4 0.1
v 0.5 0.4 -0.2
v 0.5 0.4 -0.3
v -0.4 0.3 0.2
v -0.4 0.3 0.1
v -0.4 0.3 -0.2
v -0.4 0.3 -0.3
v -0.4 0.4 0.2
v -0.4 0.4 0.1
v -0.4 0.4 -0.2
v -0.4 0.4 -0.3
v -0.3 0.1 0.1
v -0.3 0.1 -2.98023e-08
v -0.3 0.2 0.1
v -0.3 0.2 -2.98023e-08
v -0.3 0.3 0.1
v -0.3 0.3 -2.98023e-08
v -0.1 0.1 0.1
v -0.1 0.1 -2.98023e-08
v -0.1 0.2 0.1
v -0.1 0.2 -2.98023e-08
v -0.1 1.2 -2.98023e-08
v -0.1 1.2 -0.1
v -0.1 1.3 -2.98023e-08
v -0.1 1.3 -0.1
v 0.2 0.9 0.1
v 0.2 0.9 -2.98023e-08
v 0.2 0.9 -0.2
v 0.2 1 -2.98023e-08
v 0.2 1 -0.1
v 0.2 1.2 0.1
v 0.2 1.2 -2.98023e-08
v 0.2 1.2 -0.1
v 0.2 1.2 -0.2
v 0.3 0 0.1
v 0.3 0 -0.1
v 0.3 0.1 0.1
v 0.3 0.1 -2.98023e-08
v 0.3 0.1 -0.1
v 0.3 0.3 0.2
v 0.3 0.3 0.1
v 0.3 0.7 0.2
v 0.3 0.7 0.1
v 0.3 1 -2.98023e-08
v 0.3 1 -0.1
v 0.3 1.3 -2.98023e-08
v 0.3 1.3 -0.1
v 0.4 0.1 -0.2
v 0.4 0.1 -0.3
v 0.4 0.2 -0.2
v 0.4 0.3 -0.2
v 0.4 0.3 -0.3
v 0.4 0.5 0.1
v 0.4 0.5 -2.98023e-08
v 0.4 0.5 -0.2
v 0.4 0.5 -0.3
v 0.4 0.8 0.1
v 0.4 0.8 -2.98023e-08
v 0.4 0.8 -0.3
v 0.4 0.9 -2.98023e-08
v 0.4 0.9 -0.3
v 0.5 0.5 -0.2
v 0.5 0.5 -0.3
v 0.5 0.8 -0.2
v 0.5 0.8 -0.3
v 0.6 0.3 0.2
v 0.6 0.3 0.1
v 0.6 0.3 -0.2
v 0.6 0.3 -0.3
v 0.6 0.4 0.2
v 0.6 0.4 0.1
v 0.6 0.4 -0.2
v 0.6 0.4 -0.3
v 0.6 0.5 -2.98023e-08
v 0.6 0.5 -0.2
v 0.6 0.8 -2.98023e-08
v 0.6 0.8 -0.2
v 0.7 0.1 0.1
v 0.7 0.1 -0.2
v 0.7 0.2 0.1
v 0.7 0.2 -0.2
v 0.7 0.3 -2.98023e-08
v 0.7 0.3 -0.1
v 0.7 0.4 -2.98023e-08
v 0.7 0.4 -0.1
v 0.7 0.5 0.1
v 0.7 0.5 -0.2
v 0.8 0.3 -2.98023e-08
v 0.8 0.3 -0.1
v 0.8 0.4 -2.98023e-08
v 0.8 0.4 -0.1
v -0.5 0.3 0.2
v -0.5 0.4 0.2
v -0.4 0.3 0.2
v -0.4 0.4 0.2
v -0.2 0.3 0.2
v -0.2 0.7 0.2
v 0.3 0.3 0.2
v 0.3 0.7 0.2
v 0.5 0.3 0.2
v 0.5 0.4 0.2
v 0.6 0.3 0.2
v 0.6 0.4 0.2
v -0.6 0.1 0.1
v -0.6 0.2 0.1
v -0.6 0.5 0.1
v -0.5 0.3 0.1
v -0.5 0.4 0.1
v -0.4 0.3 0.1
v -0.4 0.4 0.1
v -0.3 0.1 0.1
v -0.3 0.2 0.1
v -0.3 0.3 0.1
v -0.3 0.5 0.1
v -0.3 0.8 0.1
v -0.2 0.1 0.1
v -0.2 0.2 0.1
v -0.2 0.3 0.1
v -0.2 0.7 0.1
v -0.1 0.1 0.1
v -0.1 0.2 0.1
v -0.1 0.9 0.1
v -0.1 1.2 0.1
v 0.2 0 0.1
v 0.2 0.1 0.1
v 0.2 0.9 0.1
v 0.2 1.2 0.1
v 0.3 0 0.1
v 0.3 0.1 0.1
v 0.3 0.3 0.1
v 0.3 0.7 0.1
v 0.4 0.1 0.1
v 0.4 0.2 0.1
v 0.4 0.3 0.1
v 0.4 0.5 0.1
v 0.4 0.8 0.1
v 0.5 0.3 0.1
v 0.5 0.4 0.1
v 0.6 0.3 0.1
v 0.6 0.4 0.1
v 0.7 0.1 0.1
v 0.7 0.2 0.1
v 0.7 0.5 0.1
v -0.7 0.3 -2.98023e-08
v -0.7 0.4 -2.98023e-08
v -0.6 0.3 -2.98023e-08
v -0.6 0.4 -2.98023e-08
v -0.5 0.5 -2.98023e-08
v -0.5 0.8 -2.98023e-08
v -0.3 0.1 -2.98023e-08
v -0.3 0.2 -2.98023e-08
v -0.3 0.3 -2.98023e-08
v -0.3 0.5 -2.98023e-08
v -0.3 0.8 -2.98023e-08
v -0.3 0.9 -2.98023e-08
v -0.2 0.1 -2.98023e-08
v -0.2 0.2 -2.98023e-08
v -0.2 1 -2.98023e-08
v -0.2 1.3 -2.98023e-08
v -0.1 0.1 -2.98023e-08
v -0.1 0.2 -2.98023e-08
v -0.1 0.9 -2.98023e-08
v -0.1 1 -2.98023e-08
v -0.1 1.2 -2.98023e-08
v -0.1 1.3 -2.98023e-08
v 0.2 0.1 -2.98023e-08
v 0.2 0.9 -2.98023e-08
v 0.2 1 -2.98023e-08
v 0.2 1.2 -2.98023e-08
v 0.2 1.3 -2.98023e-08
v 0.3 0.1 -2.98023e-08
v 0.3 1 -2.98023e-08
v 0.3 1.3 -2.98023e-08
v 0.4 0.1 -2.98023e-08
v 0.4 0.2 -2.98023e-08
v 0.4 0.3 -2.98023e-08
v 0.4 0.5 -2.98023e-08
v 0.4 0.8 -2.98023e-08
v 0.4 0.9 -2.98023e-08
v 0.6 0.5 -2.98023e-08
v 0.6 0.8 -2.98023e-08
v 0.7 0.3 -2.98023e-08
v 0.7 0.4 -2.98023e-08
v 0.8 0.3 -2.98023e-08
v 0.8 0.4 -2.98023e-08
v -0.7 0.3 -0.1
v -0.7 0.4 -0.1
v -0.6 0.3 -0.1
v -0.6 0.4 -0.1
v -0.2 1 -0.1
v -0.2 1.3 -0.1
v -0.1 1 -0.1
v -0.1 1.2 -0.1
v -0.1 1.3 -0.1
v 0.2 0 -0.1
v 0.2 0.1 -0.1
v 0.2 1 -0.1
v 0.2 1.2 -0.1
v 0.2 1.3 -0.1
v 0.3 0 -0.1
v 0.3 0.1 -0.1
v 0.3 1 -0.1
v 0.3 1.3 -0.1
v 0.7 0.3 -0.1
v 0.7 0.4 -0.1
v 0.8 0.3 -0.1
v 0.8 0.4 -0.1
v -0.6 0.1 -0.2
v -0.6 0.2 -0.2
v -0.6 0.5 -0.2
v -0.5 0.3 -0.2
v -0.5 0.4 -0.2
v -0.5 0.5 -0.2
v -0.5 0.8 -0.2
v -0.4 0.3 -0.2
v -0.4 0.4 -0.2
v -0.4 0.5 -0.2
v -0.4 0.8 -0.2
v -0.3 0.1 -0.2
v -0.3 0.2 -0.2
v -0.3 0.3 -0.2
v -0.3 0.5 -0.2
v -0.1 0.9 -0.2
v -0.1 1.2 -0.2
v 0.2 0.9 -0.2
v 0.2 1.2 -0.2
v 0.4 0.1 -0.2
v 0.4 0.2 -0.2
v 0.4 0.3 -0.2
v 0.4 0.5 -0.2
v 0.5 0.3 -0.2
v 0.5 0.4 -0.2
v 0.5 0.5 -0.2
v 0.5 0.8 -0.2
v 0.6 0.3 -0.2
v 0.6 0.4 -0.2
v 0.6 0.5 -0.2
v 0.6 0.8 -0.2
v 0.7 0.1 -0.2
v 0.7 0.2 -0.2
v 0.7 0.5 -0.2
v -0.5 0.3 -0.3
v -0.5 0.4 -0.3
v -0.4 0.3 -0.3
v -0.4 0.4 -0.3
v -0.4 0.5 -0.3
v -0.4 0.8 -0.3
v -0.3 0.1 -0.3
v -0.3 0.3 -0.3
v -0.3 0.5 -0.3
v -0.3 0.8 -0.3
v -0.3 0.9 -0.3
v 0.4 0.1 -0.3
v 0.4 0.3 -0.3
v 0.4 0.5 -0.3
v 0.4 0.8 -0.3
v 0.4 0.9 -0.3
v 0.5 0.3 -0.3
v 0.5 0.4 -0.3
v 0.5 0.5 -0.3
v 0.5 0.8 -0.3
v 0.6 0.3 -0.3
v 0.6 0.4 -0.3
v 0.2 0 0.1
v 0.3 0 0.1
v 0.2 0 -0.1
v 0.3 0 -0.1
v -0.6 0.1 0.1
v -0.3 0.1 0.1
v -0.2 0.1 0.1
v -0.1 0.1 0.1
v 0.4 0.1 0.1
v 0.7 0.1 0.1
v -0.3 0.1 -2.98023e-08
v -0.2 0.1 -2.98023e-08
v -0.1 0.1 -2.98023e-08
v 0.2 0.1 -2.98023e-08
v 0.3 0.1 -2.98023e-08
v 0.4 0.1 -2.98023e-08
v -0.2 0.1 -0.1
v -0.1 0.1 -0.1
v 0.2 0.1 -0.1
v 0.3 0.1 -0.1
v -0.6 0.1 -0.2
v -0.3 0.1 -0.2
v -0.2 0.1 -0.2
v 0.3 0.1 -0.2
v 0.4 0.1 -0.2
v 0.7 0.1 -0.2
v -0.3 0.1 -0.3
v 0.4 0.1 -0.3
v -0.5 0.3 0.2
v -0.4 0.3 0.2
v -0.2 0.3 0.2
v 0.3 0.3 0.2
v 0.5 0.3 0.2
v 0.6 0.3 0.2
v -0.5 0.3 0.1
v -0.4 0.3 0.1
v -0.3 0.3 0.1
v -0.2 0.3 0.1
v 0.3 0.3 0.1
v 0.4 0.3 0.1
v 0.5 0.3 0.1
v 0.6 0.3 0.1
v -0.7 0.3 -2.98023e-08
v -0.6 0.3 -2.98023e-08
v -0.3 0.3 -2.98023e-08
v 0.4 0.3 -2.98023e-08
v 0.7 0.3 -2.98023e-08
v 0.8 0.3 -2.98023e-08
v -0.7 0.3 -0.1
v -0.6 0.3 -0.1
v 0.7 0.3 -0.1
v 0.8 0.3 -0.1
v -0.5 0.3 -0.2
v -0.4 0.3 -0.2
v 0.5 0.3 -0.2
v 0.6 0.3 -0.2
v -0.5 0.3 -0.3
v -0.4 0.3 -0.3
v 0.5 0.3 -0.3
v 0.6 0.3 -0.3
v -0.4 0.5 -0.2
v -0.3 0.5 -0.2
v 0.4 0.5 -0.2
v 0.5 0.5 -0.2
v -0.4 0.5 -0.3
v -0.3 0.5 -0.3
v 0.4 0.5 -0.3
v 0.5 0.5 -0.3
v -0.1 0.9 0.1
v 0.2 0.9 0.1
v -0.1 0.9 -2.98023e-08
v 0.2 0.9 -2.98023e-08
v -0.2 1 -2.98023e-08
v -0.1 1 -2.98023e-08
v 0.2 1 -2.98023e-08
v 0.3 1 -2.98023e-08
v -0.2 1 -0.1
v -0.1 1 -0.1
v 0.2 1 -0.1
v 0.3 1 -0.1
v 0.2 0.1 0.1
v 0.3 0.1 0.1
v 0.2 0.1 -2.98023e-08
v 0.3 0.1 -2.98023e-08
v -0.2 0.2 0.1
v -0.1 0.2 0.1
v -0.2 0.2 -2.98023e-08
v -0.1 0.2 -2.98023e-08
v -0.5 0.4 0.2
v -0.4 0.4 0.2
v 0.5 0.4 0.2
v 0.6 0.4 0.2
v -0.5 0.4 0.1
v -0.4 0.4 0.1
v 0.5 0.4 0.1
v 0.6 0.4 0.1
v -0.7 0.4 -2.98023e-08
v -0.6 0.4 -2.98023e-08
v 0.7 0.4 -2.98023e-08
v 0.8 0.4 -2.98023e-08
v -0.7 0.4 -0.1
v -0.6 0.4 -0.1
v 0.7 0.4 -0.1
v 0.8 0.4 -0.1
v -0.5 0.4 -0.2
v -0.4 0.4 -0.2
v 0.5 0.4 -0.2
v 0.6 0.4 -0.2
v -0.5 0.4 -0.3
v -0.4 0.4 -0.3
v 0.5 0.4 -0.3
v 0.6 0.4 -0.3
v -0.6 0.5 0.1
v -0.3 0.5 0.1
v 0.4 0.5 0.1
v 0.7 0.5 0.1
v -0.5 0.5 -2.98023e-08
v -0.3 0.5 -2.98023e-08
v 0.4 0.5 -2.98023e-08
v 0.6 0.5 -2.98023e-08
v -0.6 0.5 -0.2
v -0.5 0.5 -0.2
v 0.6 0.5 -0.2
v 0.7 0.5 -0.2
v -0.2 0.7 0.2
v 0.3 0.7 0.2
v -0.2 0.7 0.1
v 0.3 0.7 0.1
v -0.3 0.8 0.1
v 0.4 0.8 0.1
v -0.5 0.8 -2.98023e-08
v -0.3 0.8 -2.98023e-08
v 0.4 0.8 -2.98023e-08
v 0.6 0.8 -2.98023e-08
v -0.5 0.8 -0.2
v -0.4 0.8 -0.2
v 0.5 0.8 -0.2
v 0.6 0.8 -0.2
v -0.4 0.8 -0.3
v -0.3 0.8 -0.3
v 0.4 0.8 -0.3
v 0.5 0.8 -0.3
v -0.3 0.9 -2.98023e-08
v -0.1 0.9 -2.98023e-08
v 0.2 0.9 -2.98023e-08
v 0.4 0.9 -2.98023e-08
v -0.1 0.9 -0.2
v 0.2 0.9 -0.2
v -0.3 0.9 -0.3
v 0.4 0.9 -0.3
v -0.1 1.2 0.1
v 0.2 1.2 0.1
v -0.1 1.2 -2.98023e-08
v 0.2 1.2 -2.98023e-08
v -0.1 1.2 -0.1
v 0.2 1.2 -0.1
v -0.1 1.2 -0.2
v 0.2 1.2 -0.2
v -0.2 1.3 -2.98023e-08
v -0.1 1.3 -2.98023e-08
v 0.2 1.3 -2.98023e-08
v 0.3 1.3 -2.98023e-08
v -0.2 1.3 -0.1
v -0.1 1.3 -0.1
v 0.2 1.3 -0.1
v 0.3 1.3 -0.1

# faces
f 3/4/1 2/4/1 1/4/1
f 4/4/1 2/4/1 3/4/1
f 7/1/1 6/1/1 5/1/1
f 8/1/1 6/1/1 7/1/1
f 9/3/1 8/3/1 7/3/1
f 10/3/1 8/3/1 9/3/1
f 11/3/1 9/3/1 7/3/1
f 12/3/1 8/3/1 10/3/1
f 13/3/1 11/3/1 7/3/1
f 13/3/1 12/3/1 11/3/1
f 14/3/1 8/3/1 12/3/1
f 14/3/1 12/3/1 13/3/1
f 19/4/1 16/4/1 15/4/1
f 20/4/1 16/4/1 19/4/1
f 21/4/1 18/4/1 17/4/1
f 22/4/1 18/4/1 21/4/1
f 25/1/1 24/1/1 23/1/1
f 26/1/1 24/1/1 25/1/1
f 29/1/1 28/1/1 27/1/1
f 30/1/1 28/1/1 29/1/1
f 33/2/1 32/2/1 31/2/1
f 34/2/1 32/2/1 33/2/1
f 35/2/1 32/2/1 34/2/1
f 38/1/1 35/1/1 34/1/1
f 39/1/1 35/1/1 38/1/1
f 40/1/1 37/1/1 36/1/1
f 41/1/1 37/1/1 40/1/1
f 43/1/1 42/1/1 41/1/1
f 44/1/1 42/1/1 43/1/1
f 47/1/1 46/1/1 45/1/1
f 48/1/1 46/1/1 47/1/1
f 51/1/1 50/1/1 49/1/1
f 52/1/1 50/1/1 51/1/1
f 55/1/1 54/1/1 53/1/1
f 56/1/1 54/1/1 55/1/1
f 60/1/1 58/1/1 57/1/1
f 60/1/1 59/1/1 58/1/1
f 61/1/1 59/1/1 60/1/1
f 62/1/1 60/1/1 57/1/1
f 63/1/1 60/1/1 62/1/1
f 64/1/1 59/1/1 61/1/1
f 65/1/1 59/1/1 64/1/1
f 68/1/1 67/1/1 66/1/1
f 69/1/1 67/1/1 68/1/1
f 70/1/1 67/1/1 69/1/1
f 73/1/1 72/1/1 71/1/1
f 74/1/1 72/1/1 73/1/1
f 77/1/1 76/1/1 75/1/1
f 78/1/1 76/1/1 77/1/1
f 79/3/1 78/3/1 77/3/1
f 80/3/1 78/3/1 79/3/1
f 85/4/1 82/4/1 81/4/1
f 86/4/1 82/4/1 85/4/1
f 87/4/1 84/4/1 83/4/1
f 88/4/1 84/4/1 87/4/1
f 89/4/2 90/4/2 93/4/2
f 93/4/2 90/4/2 94/4/2
f 91/4/2 92/4/2 95/4/2
f 95/4/2 92/4/2 96/4/2
f 97/1/2 98/1/2 99/1/2
f 99/1/2 98/1/2 100/1/2
f 99/3/2 100/3/2 101/3/2
f 101/3/2 100/3/2 102/3/2
f 103/1/2 104/1/2 105/1/2
f 105/1/2 104/1/2 106/1/2
f 107/1/2 108/1/2 109/1/2
f 109/1/2 108/1/2 110/1/2
f 111/1/2 112/1/2 114/1/2
f 112/1/2 113/1/2 114/1/2
f 114/1/2 113/1/2 115/1/2
f 111/1/2 114/1/2 116/1/2
f 116/1/2 114/1/2 117/1/2
f 115/1/2 113/1/2 118/1/2
f 118/1/2 113/1/2 119/1/2
f 120/1/2 121/1/2 122/1/2
f 122/1/2 121/1/2 123/1/2
f 123/1/2 121/1/2 124/1/2
f 125/1/2 126/1/2 127/1/2
f 127/1/2 126/1/2 128/1/2
f 129/1/2 130/1/2 131/1/2
f 131/1/2 130/1/2 132/1/2
f 133/2/2 134/2/2 135/2/2
f 135/2/2 134/2/2 136/2/2
f 136/2/2 134/2/2 137/2/2
f 136/1/2 137/1/2 140/1/2
f 140/1/2 137/1/2 141/1/2
f 138/1/2 139/1/2 142/1/2
f 142/1/2 139/1/2 143/1/2
f 143/1/2 144/1/2 145/1/2
f 145/1/2 144/1/2 146/1/2
f 147/1/2 148/1/2 149/1/2
f 149/1/2 148/1/2 150/1/2
f 151/4/2 152/4/2 155/4/2
f 155/4/2 152/4/2 156/4/2
f 153/4/2 154/4/2 157/4/2
f 157/4/2 154/4/2 158/4/2
f 159/1/2 160/1/2 161/1/2
f 161/1/2 160/1/2 162/1/2
f 163/1/2 164/1/2 165/1/2
f 165/1/2 164/1/2 166/1/2
f 165/3/2 166/3/2 167/3/2
f 167/3/2 166/3/2 168/3/2
f 165/3/2 167/3/2 169/3/2
f 168/3/2 166/3/2 170/3/2
f 165/3/2 169/3/2 171/3/2
f 169/3/2 170/3/2 171/3/2
f 170/3/2 166/3/2 172/3/2
f 171/3/2 170/3/2 172/3/2
f 173/4/2 174/4/2 175/4/2
f 175/4/2 174/4/2 176/4/2
f 179/4/3 178/4/3 177/4/3
f 180/4/3 178/4/3 179/4/3
f 183/1/3 182/1/3 181/1/3
f 184/1/3 182/1/3 183/1/3
f 187/4/3 186/4/3 185/4/3
f 188/4/3 186/4/3 187/4/3
f 192/3/3 191/3/3 190/3/3
f 193/3/3 191/3/3 192/3/3
f 194/3/3 192/3/3 190/3/3
f 195/3/3 191/3/3 193/3/3
f 196/1/3 190/1/3 189/1/3
f 197/3/3 195/3/3 194/3/3
f 197/1/3 190/1/3 196/1/3
f 197/3/3 194/3/3 190/3/3
f 198/3/3 195/3/3 197/3/3
f 199/3/3 191/3/3 195/3/3
f 199/3/3 195/3/3 198/3/3
f 203/1/3 200/1/3 199/1/3
f 203/1/3 199/1/3 198/1/3
f 204/1/3 200/1/3 203/1/3
f 205/1/3 202/1/3 201/1/3
f 206/1/3 202/1/3 205/1/3
f 211/1/3 208/1/3 207/1/3
f 212/1/3 208/1/3 211/1/3
f 213/1/3 210/1/3 209/1/3
f 214/1/3 210/1/3 213/1/3
f 216/1/3 200/1/3 204/1/3
f 219/1/3 216/1/3 215/1/3
f 220/1/3 216/1/3 219/1/3
f 221/1/3 200/1/3 216/1/3
f 221/1/3 216/1/3 220/1/3
f 222/3/3 220/3/3 219/3/3
f 222/3/3 219/3/3 218/3/3
f 223/3/3 220/3/3 222/3/3
f 224/3/3 222/3/3 218/3/3
f 225/3/3 220/3/3 223/3/3
f 226/1/3 218/1/3 217/1/3
f 227/3/3 225/3/3 224/3/3
f 227/1/3 218/1/3 226/1/3
f 227/3/3 224/3/3 218/3/3
f 228/3/3 220/3/3 225/3/3
f 228/3/3 225/3/3 227/3/3
f 231/4/3 230/4/3 229/4/3
f 232/4/3 230/4/3 231/4/3
f 238/1/3 234/1/3 233/1/3
f 239/1/3 234/1/3 238/1/3
f 241/2/3 237/2/3 236/2/3
f 241/2/3 236/2/3 235/2/3
f 242/2/3 237/2/3 241/2/3
f 246/2/3 237/2/3 242/2/3
f 247/1/3 240/1/3 239/1/3
f 248/1/3 244/1/3 243/1/3
f 249/1/3 244/1/3 248/1/3
f 250/1/3 244/1/3 249/1/3
f 251/2/3 246/2/3 245/2/3
f 252/1/3 247/1/3 239/1/3
f 256/2/3 246/2/3 251/2/3
f 257/1/3 255/1/3 254/1/3
f 257/1/3 254/1/3 253/1/3
f 258/1/3 255/1/3 257/1/3
f 259/2/3 246/2/3 256/2/3
f 260/2/3 237/2/3 246/2/3
f 260/2/3 246/2/3 259/2/3
f 261/2/3 237/2/3 260/2/3
f 263/1/3 252/1/3 239/1/3
f 264/1/3 252/1/3 263/1/3
f 265/1/3 263/1/3 262/1/3
f 266/1/3 263/1/3 265/1/3
f 269/4/3 268/4/3 267/4/3
f 270/4/3 268/4/3 269/4/3
f 271/4/4 272/4/4 273/4/4
f 273/4/4 272/4/4 274/4/4
f 275/1/4 276/1/4 277/1/4
f 277/1/4 276/1/4 278/1/4
f 278/1/4 276/1/4 279/1/4
f 280/1/4 281/1/4 285/1/4
f 285/1/4 281/1/4 286/1/4
f 283/1/4 284/1/4 287/1/4
f 282/1/4 283/1/4 287/1/4
f 287/1/4 284/1/4 288/1/4
f 289/4/4 290/4/4 291/4/4
f 291/4/4 290/4/4 292/4/4
f 294/3/4 295/3/4 296/3/4
f 296/3/4 295/3/4 297/3/4
f 297/3/4 295/3/4 298/3/4
f 294/3/4 296/3/4 300/3/4
f 297/3/4 298/3/4 301/3/4
f 298/1/4 299/1/4 302/1/4
f 301/3/4 298/3/4 302/3/4
f 302/1/4 299/1/4 303/1/4
f 293/1/4 294/1/4 304/1/4
f 300/3/4 301/3/4 305/3/4
f 304/1/4 294/1/4 305/1/4
f 294/3/4 300/3/4 305/3/4
f 301/3/4 302/3/4 305/3/4
f 305/3/4 302/3/4 306/3/4
f 306/3/4 302/3/4 307/3/4
f 308/1/4 309/1/4 310/1/4
f 310/1/4 309/1/4 311/1/4
f 313/3/4 314/3/4 316/3/4
f 314/3/4 315/3/4 316/3/4
f 316/3/4 315/3/4 317/3/4
f 317/3/4 315/3/4 318/3/4
f 313/3/4 316/3/4 320/3/4
f 317/3/4 318/3/4 321/3/4
f 318/1/4 319/1/4 322/1/4
f 321/3/4 318/3/4 322/3/4
f 322/1/4 319/1/4 323/1/4
f 312/1/4 313/1/4 324/1/4
f 320/3/4 321/3/4 325/3/4
f 324/1/4 313/1/4 325/1/4
f 313/3/4 320/3/4 325/3/4
f 321/3/4 322/3/4 325/3/4
f 325/3/4 322/3/4 326/3/4
f 327/4/4 328/4/4 329/4/4
f 329/4/4 328/4/4 330/4/4
f 331/1/4 332/1/4 335/1/4
f 335/1/4 332/1/4 336/1/4
f 333/2/4 334/2/4 338/2/4
f 336/1/4 337/1/4 339/1/4
f 338/2/4 334/2/4 339/2/4
f 334/1/4 335/1/4 339/1/4
f 335/1/4 336/1/4 339/1/4
f 339/1/4 337/1/4 340/1/4
f 340/1/4 337/1/4 341/1/4
f 341/1/4 337/1/4 342/1/4
f 340/1/4 341/1/4 345/1/4
f 345/1/4 341/1/4 346/1/4
f 343/4/4 344/4/4 347/4/4
f 347/4/4 344/4/4 348/4/4
f 351/1/5 350/1/5 349/1/5
f 352/1/5 350/1/5 351/1/5
f 359/1/5 354/1/5 353/1/5
f 360/1/5 356/1/5 355/1/5
f 361/1/5 356/1/5 360/1/5
f 364/1/5 358/1/5 357/1/5
f 365/2/5 360/2/5 359/2/5
f 365/1/5 361/1/5 360/1/5
f 366/2/5 362/2/5 361/2/5
f 366/1/5 361/1/5 365/1/5
f 367/2/5 362/2/5 366/2/5
f 368/2/5 364/2/5 363/2/5
f 369/1/5 359/1/5 353/1/5
f 370/2/5 365/2/5 359/2/5
f 370/1/5 359/1/5 369/1/5
f 371/5/5 368/5/5 367/5/5
f 371/2/5 365/2/5 370/2/5
f 371/5/5 367/5/5 366/5/5
f 371/5/5 366/5/5 365/5/5
f 372/2/5 364/2/5 368/2/5
f 372/5/5 368/5/5 371/5/5
f 373/1/5 358/1/5 364/1/5
f 373/2/5 364/2/5 372/2/5
f 374/1/5 358/1/5 373/1/5
f 375/2/5 371/2/5 370/2/5
f 375/2/5 373/2/5 372/2/5
f 375/2/5 372/2/5 371/2/5
f 376/2/5 373/2/5 375/2/5
f 383/4/5 378/4/5 377/4/5
f 384/4/5 378/4/5 383/4/5
f 386/1/5 380/1/5 379/1/5
f 387/1/5 380/1/5 386/1/5
f 389/4/5 382/4/5 381/4/5
f 390/4/5 382/4/5 389/4/5
f 393/1/5 388/1/5 387/1/5
f 393/1/5 386/1/5 385/1/5
f 393/1/5 387/1/5 386/1/5
f 394/1/5 388/1/5 393/1/5
f 397/4/5 392/4/5 391/4/5
f 398/4/5 392/4/5 397/4/5
f 399/4/5 396/4/5 395/4/5
f 400/4/5 396/4/5 399/4/5
f 405/4/5 402/4/5 401/4/5
f 406/4/5 402/4/5 405/4/5
f 407/4/5 404/4/5 403/4/5
f 408/4/5 404/4/5 407/4/5
f 413/1/5 410/1/5 409/1/5
f 414/1/5 410/1/5 413/1/5
f 415/1/5 412/1/5 411/1/5
f 416/1/5 412/1/5 415/1/5
f 419/1/5 418/1/5 417/1/5
f 420/1/5 418/1/5 419/1/5
f 425/1/5 422/1/5 421/1/5
f 426/1/5 422/1/5 425/1/5
f 427/1/5 424/1/5 423/1/5
f 428/1/5 424/1/5 427/1/5
f 429/1/6 430/1/6 431/1/6
f 431/1/6 430/1/6 432/1/6
f 433/1/6 434/1/6 435/1/6
f 435/1/6 434/1/6 436/1/6
f 437/4/6 438/4/6 441/4/6
f 441/4/6 438/4/6 442/4/6
f 439/4/6 440/4/6 443/4/6
f 443/4/6 440/4/6 444/4/6
f 445/4/6 446/4/6 449/4/6
f 449/4/6 446/4/6 450/4/6
f 447/4/6 448/4/6 451/4/6
f 451/4/6 448/4/6 452/4/6
f 453/4/6 454/4/6 457/4/6
f 457/4/6 454/4/6 458/4/6
f 455/4/6 456/4/6 459/4/6
f 459/4/6 456/4/6 460/4/6
f 461/3/6 462/3/6 465/3/6
f 465/3/6 462/3/6 466/3/6
f 463/3/6 464/3/6 467/3/6
f 467/3/6 464/3/6 468/3/6
f 461/3/6 465/3/6 469/3/6
f 469/3/6 465/3/6 470/3/6
f 468/3/6 464/3/6 471/3/6
f 471/3/6 464/3/6 472/3/6
f 473/1/6 474/1/6 475/1/6
f 475/1/6 474/1/6 476/1/6
f 477/1/6 478/1/6 480/1/6
f 480/1/6 478/1/6 481/1/6
f 479/1/6 480/1/6 483/1/6
f 483/1/6 480/1/6 484/1/6
f 481/1/6 482/1/6 485/1/6
f 485/1/6 482/1/6 486/1/6
f 484/1/6 480/1/6 487/1/6
f 487/1/6 480/1/6 488/1/6
f 481/1/6 485/1/6 489/1/6
f 489/1/6 485/1/6 490/1/6
f 491/1/6 492/1/6 495/1/6
f 493/1/6 494/1/6 496/1/6
f 491/1/6 495/1/6 497/1/6
f 495/1/6 496/1/6 497/1/6
f 496/1/6 494/1/6 498/1/6
f 497/1/6 496/1/6 498/1/6
f 499/1/6 500/1/6 501/1/6
f 501/1/6 500/1/6 502/1/6
f 501/1/6 502/1/6 503/1/6
f 503/1/6 502/1/6 504/1/6
f 503/1/6 504/1/6 505/1/6
f 505/1/6 504/1/6 506/1/6
f 507/1/6 508/1/6 511/1/6
f 511/1/6 508/1/6 512/1/6
f 509/1/6 510/1/6 513/1/6
f 513/1/6 510/1/6 514/1/6
