# MagicaVoxel @ Ephtracy

# group
o 

# material
mtllib bugbear_idle_0.mtl
usemtl palette

# normals
vn -1 0 0
vn 1 0 0
vn 0 0 1
vn 0 0 -1
vn 0 -1 0
vn 0 1 0

# texcoords
vt 0.763672 0.5
vt 0.783203 0.5
vt 0.787109 0.5
vt 0.943359 0.5
vt 0.970703 0.5

# verts
v -0.7 0.2 -2.98023e-08
v -0.7 0.2 -0.1
v -0.7 0.3 -2.98023e-08
v -0.7 0.3 -0.1
v -0.6 0 0.1
v -0.6 0 -0.2
v -0.6 0.1 0.1
v -0.6 0.1 -0.2
v -0.6 0.2 -2.98023e-08
v -0.6 0.2 -0.1
v -0.6 0.3 -2.98023e-08
v -0.6 0.3 -0.1
v -0.6 0.4 0.1
v -0.6 0.4 -0.2
v -0.5 0.2 0.2
v -0.5 0.2 0.1
v -0.5 0.2 -0.2
v -0.5 0.2 -0.3
v -0.5 0.3 0.2
v -0.5 0.3 0.1
v -0.5 0.3 -0.2
v -0.5 0.3 -0.3
v -0.5 0.4 -2.98023e-08
v -0.5 0.4 -0.2
v -0.5 1 -2.98023e-08
v -0.5 1 -0.2
v -0.4 0.5 -0.2
v -0.4 0.5 -0.3
v -0.4 1 -0.2
v -0.4 1 -0.3
v -0.3 0.1 -0.2
v -0.3 0.1 -0.3
v -0.3 0.3 -0.2
v -0.3 0.3 -0.3
v -0.3 0.4 0.1
v -0.3 0.4 -2.98023e-08
v -0.3 0.4 -0.2
v -0.3 0.5 -0.2
v -0.3 0.5 -0.3
v -0.3 0.9 0.1
v -0.3 0.9 -2.98023e-08
v -0.2 0 0.1
v -0.2 0 -0.1
v -0.2 0.1 0.1
v -0.2 0.1 -2.98023e-08
v -0.2 0.1 -0.1
v -0.2 0.3 0.2
v -0.2 0.3 0.1
v -0.2 0.8 0.2
v -0.2 0.8 0.1
v -0.2 1.1 -2.98023e-08
v -0.2 1.1 -0.1
v -0.2 1.4 -2.98023e-08
v -0.2 1.4 -0.1
v -0.1 1 0.1
v -0.1 1 -2.98023e-08
v -0.1 1 -0.2
v -0.1 1.1 -2.98023e-08
v -0.1 1.1 -0.1
v -0.1 1.3 0.1
v -0.1 1.3 -2.98023e-08
v -0.1 1.3 -0.1
v -0.1 1.3 -0.2
v 0.2 0 0.1
v 0.2 0 -0.1
v 0.2 0.1 0.1
v 0.2 0.1 -2.98023e-08
v 0.2 0.1 -0.1
v 0.2 1.3 -2.98023e-08
v 0.2 1.3 -0.1
v 0.2 1.4 -2.98023e-08
v 0.2 1.4 -0.1
v 0.4 0 0.1
v 0.4 0 -0.2
v 0.4 0.1 0.1
v 0.4 0.1 -2.98023e-08
v 0.4 0.1 -0.2
v 0.4 0.3 0.1
v 0.4 0.3 -2.98023e-08
v 0.5 0.2 0.2
v 0.5 0.2 0.1
v 0.5 0.2 -0.2
v 0.5 0.2 -0.3
v 0.5 0.3 0.2
v 0.5 0.3 0.1
v 0.5 0.3 -0.2
v 0.5 0.3 -0.3
v -0.4 0.2 0.2
v -0.4 0.2 0.1
v -0.4 0.2 -0.2
v -0.4 0.2 -0.3
v -0.4 0.3 0.2
v -0.4 0.3 0.1
v -0.4 0.3 -0.2
v -0.4 0.3 -0.3
v -0.3 0 0.1
v -0.3 0 -0.2
v -0.3 0.1 0.1
v -0.3 0.1 -2.98023e-08
v -0.3 0.1 -0.2
v -0.3 0.3 0.1
v -0.3 0.3 -2.98023e-08
v -0.1 0 0.1
v -0.1 0 -0.1
v -0.1 0.1 0.1
v -0.1 0.1 -2.98023e-08
v -0.1 0.1 -0.1
v -0.1 1.3 -2.98023e-08
v -0.1 1.3 -0.1
v -0.1 1.4 -2.98023e-08
v -0.1 1.4 -0.1
v 0.2 1 0.1
v 0.2 1 -2.98023e-08
v 0.2 1 -0.2
v 0.2 1.1 -2.98023e-08
v 0.2 1.1 -0.1
v 0.2 1.3 0.1
v 0.2 1.3 -2.98023e-08
v 0.2 1.3 -0.1
v 0.2 1.3 -0.2
v 0.3 0 0.1
v 0.3 0 -0.1
v 0.3 0.1 0.1
v 0.3 0.1 -2.98023e-08
v 0.3 0.1 -0.1
v 0.3 0.3 0.2
v 0.3 0.3 0.1
v 0.3 0.8 0.2
v 0.3 0.8 0.1
v 0.3 1.1 -2.98023e-08
v 0.3 1.1 -0.1
v 0.3 1.4 -2.98023e-08
v 0.3 1.4 -0.1
v 0.4 0.1 -0.2
v 0.4 0.1 -0.3
v 0.4 0.3 -0.2
v 0.4 0.3 -0.3
v 0.4 0.4 0.1
v 0.4 0.4 -2.98023e-08
v 0.4 0.4 -0.2
v 0.4 0.5 -0.2
v 0.4 0.5 -0.3
v 0.4 0.9 0.1
v 0.4 0.9 -2.98023e-08
v 0.5 0.5 -0.2
v 0.5 0.5 -0.3
v 0.5 1 -0.2
v 0.5 1 -0.3
v 0.6 0.2 0.2
v 0.6 0.2 0.1
v 0.6 0.2 -0.2
v 0.6 0.2 -0.3
v 0.6 0.3 0.2
v 0.6 0.3 0.1
v 0.6 0.3 -0.2
v 0.6 0.3 -0.3
v 0.6 0.4 -2.98023e-08
v 0.6 0.4 -0.2
v 0.6 1 -2.98023e-08
v 0.6 1 -0.2
v 0.7 0 0.1
v 0.7 0 -0.2
v 0.7 0.1 0.1
v 0.7 0.1 -0.2
v 0.7 0.2 -2.98023e-08
v 0.7 0.2 -0.1
v 0.7 0.3 -2.98023e-08
v 0.7 0.3 -0.1
v 0.7 0.4 0.1
v 0.7 0.4 -0.2
v 0.8 0.2 -2.98023e-08
v 0.8 0.2 -0.1
v 0.8 0.3 -2.98023e-08
v 0.8 0.3 -0.1
v -0.5 0.2 0.2
v -0.5 0.3 0.2
v -0.4 0.2 0.2
v -0.4 0.3 0.2
v -0.2 0.3 0.2
v -0.2 0.8 0.2
v 0.3 0.3 0.2
v 0.3 0.8 0.2
v 0.5 0.2 0.2
v 0.5 0.3 0.2
v 0.6 0.2 0.2
v 0.6 0.3 0.2
v -0.6 0 0.1
v -0.6 0.1 0.1
v -0.6 0.4 0.1
v -0.5 0.2 0.1
v -0.5 0.3 0.1
v -0.4 0.2 0.1
v -0.4 0.3 0.1
v -0.3 0 0.1
v -0.3 0.1 0.1
v -0.3 0.3 0.1
v -0.3 0.4 0.1
v -0.3 0.9 0.1
v -0.2 0 0.1
v -0.2 0.1 0.1
v -0.2 0.3 0.1
v -0.2 0.8 0.1
v -0.1 0 0.1
v -0.1 0.1 0.1
v -0.1 1 0.1
v -0.1 1.3 0.1
v 0.2 0 0.1
v 0.2 0.1 0.1
v 0.2 1 0.1
v 0.2 1.3 0.1
v 0.3 0 0.1
v 0.3 0.1 0.1
v 0.3 0.3 0.1
v 0.3 0.8 0.1
v 0.4 0 0.1
v 0.4 0.1 0.1
v 0.4 0.3 0.1
v 0.4 0.4 0.1
v 0.4 0.9 0.1
v 0.5 0.2 0.1
v 0.5 0.3 0.1
v 0.6 0.2 0.1
v 0.6 0.3 0.1
v 0.7 0 0.1
v 0.7 0.1 0.1
v 0.7 0.4 0.1
v -0.7 0.2 -2.98023e-08
v -0.7 0.3 -2.98023e-08
v -0.6 0.2 -2.98023e-08
v -0.6 0.3 -2.98023e-08
v -0.5 0.4 -2.98023e-08
v -0.5 1 -2.98023e-08
v -0.3 0.1 -2.98023e-08
v -0.3 0.3 -2.98023e-08
v -0.3 0.4 -2.98023e-08
v -0.3 0.9 -2.98023e-08
v -0.2 0.1 -2.98023e-08
v -0.2 1.1 -2.98023e-08
v -0.2 1.4 -2.98023e-08
v -0.1 0.1 -2.98023e-08
v -0.1 1 -2.98023e-08
v -0.1 1.1 -2.98023e-08
v -0.1 1.3 -2.98023e-08
v -0.1 1.4 -2.98023e-08
v 0.2 0.1 -2.98023e-08
v 0.2 1 -2.98023e-08
v 0.2 1.1 -2.98023e-08
v 0.2 1.3 -2.98023e-08
v 0.2 1.4 -2.98023e-08
v 0.3 0.1 -2.98023e-08
v 0.3 1.1 -2.98023e-08
v 0.3 1.4 -2.98023e-08
v 0.4 0.1 -2.98023e-08
v 0.4 0.3 -2.98023e-08
v 0.4 0.4 -2.98023e-08
v 0.4 0.9 -2.98023e-08
v 0.6 0.4 -2.98023e-08
v 0.6 1 -2.98023e-08
v 0.7 0.2 -2.98023e-08
v 0.7 0.3 -2.98023e-08
v 0.8 0.2 -2.98023e-08
v 0.8 0.3 -2.98023e-08
v -0.7 0.2 -0.1
v -0.7 0.3 -0.1
v -0.6 0.2 -0.1
v -0.6 0.3 -0.1
v -0.2 0 -0.1
v -0.2 0.1 -0.1
v -0.2 1.1 -0.1
v -0.2 1.4 -0.1
v -0.1 0 -0.1
v -0.1 0.1 -0.1
v -0.1 1.1 -0.1
v -0.1 1.3 -0.1
v -0.1 1.4 -0.1
v 0.2 0 -0.1
v 0.2 0.1 -0.1
v 0.2 1.1 -0.1
v 0.2 1.3 -0.1
v 0.2 1.4 -0.1
v 0.3 0 -0.1
v 0.3 0.1 -0.1
v 0.3 1.1 -0.1
v 0.3 1.4 -0.1
v 0.7 0.2 -0.1
v 0.7 0.3 -0.1
v 0.8 0.2 -0.1
v 0.8 0.3 -0.1
v -0.6 0 -0.2
v -0.6 0.1 -0.2
v -0.6 0.4 -0.2
v -0.5 0.2 -0.2
v -0.5 0.3 -0.2
v -0.5 0.4 -0.2
v -0.5 1 -0.2
v -0.4 0.2 -0.2
v -0.4 0.3 -0.2
v -0.4 0.5 -0.2
v -0.4 1 -0.2
v -0.3 0 -0.2
v -0.3 0.1 -0.2
v -0.3 0.3 -0.2
v -0.3 0.4 -0.2
v -0.3 0.5 -0.2
v -0.1 1 -0.2
v -0.1 1.3 -0.2
v 0.2 1 -0.2
v 0.2 1.3 -0.2
v 0.4 0 -0.2
v 0.4 0.1 -0.2
v 0.4 0.3 -0.2
v 0.4 0.4 -0.2
v 0.4 0.5 -0.2
v 0.5 0.2 -0.2
v 0.5 0.3 -0.2
v 0.5 0.5 -0.2
v 0.5 1 -0.2
v 0.6 0.2 -0.2
v 0.6 0.3 -0.2
v 0.6 0.4 -0.2
v 0.6 1 -0.2
v 0.7 0 -0.2
v 0.7 0.1 -0.2
v 0.7 0.4 -0.2
v -0.5 0.2 -0.3
v -0.5 0.3 -0.3
v -0.4 0.2 -0.3
v -0.4 0.3 -0.3
v -0.4 0.5 -0.3
v -0.4 1 -0.3
v -0.3 0.1 -0.3
v -0.3 0.3 -0.3
v -0.3 0.5 -0.3
v 0.4 0.1 -0.3
v 0.4 0.3 -0.3
v 0.4 0.5 -0.3
v 0.5 0.2 -0.3
v 0.5 0.3 -0.3
v 0.5 0.5 -0.3
v 0.5 1 -0.3
v 0.6 0.2 -0.3
v 0.6 0.3 -0.3
v -0.6 0 0.1
v -0.3 0 0.1
v -0.2 0 0.1
v -0.1 0 0.1
v 0.2 0 0.1
v 0.3 0 0.1
v 0.4 0 0.1
v 0.7 0 0.1
v -0.2 0 -0.1
v -0.1 0 -0.1
v 0.2 0 -0.1
v 0.3 0 -0.1
v -0.6 0 -0.2
v -0.3 0 -0.2
v 0.4 0 -0.2
v 0.7 0 -0.2
v -0.3 0.1 -2.98023e-08
v -0.2 0.1 -2.98023e-08
v -0.1 0.1 -2.98023e-08
v 0.2 0.1 -2.98023e-08
v 0.3 0.1 -2.98023e-08
v 0.4 0.1 -2.98023e-08
v -0.2 0.1 -0.1
v -0.1 0.1 -0.1
v 0.2 0.1 -0.1
v 0.3 0.1 -0.1
v -0.3 0.1 -0.2
v -0.2 0.1 -0.2
v 0.3 0.1 -0.2
v 0.4 0.1 -0.2
v -0.3 0.1 -0.3
v 0.4 0.1 -0.3
v -0.5 0.2 0.2
v -0.4 0.2 0.2
v 0.5 0.2 0.2
v 0.6 0.2 0.2
v -0.5 0.2 0.1
v -0.4 0.2 0.1
v 0.5 0.2 0.1
v 0.6 0.2 0.1
v -0.7 0.2 -2.98023e-08
v -0.6 0.2 -2.98023e-08
v 0.7 0.2 -2.98023e-08
v 0.8 0.2 -2.98023e-08
v -0.7 0.2 -0.1
v -0.6 0.2 -0.1
v 0.7 0.2 -0.1
v 0.8 0.2 -0.1
v -0.5 0.2 -0.2
v -0.4 0.2 -0.2
v 0.5 0.2 -0.2
v 0.6 0.2 -0.2
v -0.5 0.2 -0.3
v -0.4 0.2 -0.3
v 0.5 0.2 -0.3
v 0.6 0.2 -0.3
v -0.2 0.3 0.2
v 0.3 0.3 0.2
v -0.3 0.3 0.1
v -0.2 0.3 0.1
v 0.3 0.3 0.1
v 0.4 0.3 0.1
v -0.3 0.3 -2.98023e-08
v 0.4 0.3 -2.98023e-08
v -0.4 0.5 -0.2
v -0.3 0.5 -0.2
v 0.4 0.5 -0.2
v 0.5 0.5 -0.2
v -0.4 0.5 -0.3
v -0.3 0.5 -0.3
v 0.4 0.5 -0.3
v 0.5 0.5 -0.3
v -0.1 1 0.1
v 0.2 1 0.1
v -0.1 1 -2.98023e-08
v 0.2 1 -2.98023e-08
v -0.2 1.1 -2.98023e-08
v -0.1 1.1 -2.98023e-08
v 0.2 1.1 -2.98023e-08
v 0.3 1.1 -2.98023e-08
v -0.2 1.1 -0.1
v -0.1 1.1 -0.1
v 0.2 1.1 -0.1
v 0.3 1.1 -0.1
v -0.2 0.1 0.1
v -0.1 0.1 0.1
v 0.2 0.1 0.1
v 0.3 0.1 0.1
v -0.2 0.1 -2.98023e-08
v -0.1 0.1 -2.98023e-08
v 0.2 0.1 -2.98023e-08
v 0.3 0.1 -2.98023e-08
v -0.5 0.3 0.2
v -0.4 0.3 0.2
v 0.5 0.3 0.2
v 0.6 0.3 0.2
v -0.5 0.3 0.1
v -0.4 0.3 0.1
v 0.5 0.3 0.1
v 0.6 0.3 0.1
v -0.7 0.3 -2.98023e-08
v -0.6 0.3 -2.98023e-08
v 0.7 0.3 -2.98023e-08
v 0.8 0.3 -2.98023e-08
v -0.7 0.3 -0.1
v -0.6 0.3 -0.1
v 0.7 0.3 -0.1
v 0.8 0.3 -0.1
v -0.5 0.3 -0.2
v -0.4 0.3 -0.2
v 0.5 0.3 -0.2
v 0.6 0.3 -0.2
v -0.5 0.3 -0.3
v -0.4 0.3 -0.3
v 0.5 0.3 -0.3
v 0.6 0.3 -0.3
v -0.6 0.4 0.1
v -0.3 0.4 0.1
v 0.4 0.4 0.1
v 0.7 0.4 0.1
v -0.5 0.4 -2.98023e-08
v -0.3 0.4 -2.98023e-08
v 0.4 0.4 -2.98023e-08
v 0.6 0.4 -2.98023e-08
v -0.6 0.4 -0.2
v -0.5 0.4 -0.2
v 0.6 0.4 -0.2
v 0.7 0.4 -0.2
v -0.2 0.8 0.2
v 0.3 0.8 0.2
v -0.2 0.8 0.1
v 0.3 0.8 0.1
v -0.3 0.9 0.1
v 0.4 0.9 0.1
v -0.3 0.9 -2.98023e-08
v 0.4 0.9 -2.98023e-08
v -0.5 1 -2.98023e-08
v -0.1 1 -2.98023e-08
v 0.2 1 -2.98023e-08
v 0.6 1 -2.98023e-08
v -0.5 1 -0.2
v -0.4 1 -0.2
v -0.1 1 -0.2
v 0.2 1 -0.2
v 0.5 1 -0.2
v 0.6 1 -0.2
v -0.4 1 -0.3
v 0.5 1 -0.3
v -0.1 1.3 0.1
v 0.2 1.3 0.1
v -0.1 1.3 -2.98023e-08
v 0.2 1.3 -2.98023e-08
v -0.1 1.3 -0.1
v 0.2 1.3 -0.1
v -0.1 1.3 -0.2
v 0.2 1.3 -0.2
v -0.2 1.4 -2.98023e-08
v -0.1 1.4 -2.98023e-08
v 0.2 1.4 -2.98023e-08
v 0.3 1.4 -2.98023e-08
v -0.2 1.4 -0.1
v -0.1 1.4 -0.1
v 0.2 1.4 -0.1
v 0.3 1.4 -0.1

# faces
f 3/4/1 2/4/1 1/4/1
f 4/4/1 2/4/1 3/4/1
f 7/1/1 6/1/1 5/1/1
f 8/1/1 6/1/1 7/1/1
f 9/3/1 8/3/1 7/3/1
f 10/3/1 8/3/1 9/3/1
f 11/3/1 9/3/1 7/3/1
f 12/3/1 8/3/1 10/3/1
f 13/3/1 11/3/1 7/3/1
f 13/3/1 12/3/1 11/3/1
f 14/3/1 8/3/1 12/3/1
f 14/3/1 12/3/1 13/3/1
f 19/4/1 16/4/1 15/4/1
f 20/4/1 16/4/1 19/4/1
f 21/4/1 18/4/1 17/4/1
f 22/4/1 18/4/1 21/4/1
f 25/1/1 24/1/1 23/1/1
f 26/1/1 24/1/1 25/1/1
f 29/1/1 28/1/1 27/1/1
f 30/1/1 28/1/1 29/1/1
f 33/2/1 32/2/1 31/2/1
f 34/2/1 32/2/1 33/2/1
f 37/1/1 34/1/1 33/1/1
f 38/1/1 34/1/1 37/1/1
f 39/1/1 34/1/1 38/1/1
f 40/1/1 36/1/1 35/1/1
f 41/1/1 36/1/1 40/1/1
f 44/1/1 43/1/1 42/1/1
f 45/1/1 43/1/1 44/1/1
f 46/1/1 43/1/1 45/1/1
f 49/1/1 48/1/1 47/1/1
f 50/1/1 48/1/1 49/1/1
f 53/1/1 52/1/1 51/1/1
f 54/1/1 52/1/1 53/1/1
f 58/1/1 56/1/1 55/1/1
f 58/1/1 57/1/1 56/1/1
f 59/1/1 57/1/1 58/1/1
f 60/1/1 58/1/1 55/1/1
f 61/1/1 58/1/1 60/1/1
f 62/1/1 57/1/1 59/1/1
f 63/1/1 57/1/1 62/1/1
f 66/1/1 65/1/1 64/1/1
f 67/1/1 65/1/1 66/1/1
f 68/1/1 65/1/1 67/1/1
f 71/1/1 70/1/1 69/1/1
f 72/1/1 70/1/1 71/1/1
f 75/1/1 74/1/1 73/1/1
f 76/1/1 74/1/1 75/1/1
f 77/1/1 74/1/1 76/1/1
f 78/3/1 76/3/1 75/3/1
f 79/3/1 76/3/1 78/3/1
f 84/4/1 81/4/1 80/4/1
f 85/4/1 81/4/1 84/4/1
f 86/4/1 83/4/1 82/4/1
f 87/4/1 83/4/1 86/4/1
f 88/4/2 89/4/2 92/4/2
f 92/4/2 89/4/2 93/4/2
f 90/4/2 91/4/2 94/4/2
f 94/4/2 91/4/2 95/4/2
f 96/1/2 97/1/2 98/1/2
f 98/1/2 97/1/2 99/1/2
f 99/1/2 97/1/2 100/1/2
f 98/3/2 99/3/2 101/3/2
f 101/3/2 99/3/2 102/3/2
f 103/1/2 104/1/2 105/1/2
f 105/1/2 104/1/2 106/1/2
f 106/1/2 104/1/2 107/1/2
f 108/1/2 109/1/2 110/1/2
f 110/1/2 109/1/2 111/1/2
f 112/1/2 113/1/2 115/1/2
f 113/1/2 114/1/2 115/1/2
f 115/1/2 114/1/2 116/1/2
f 112/1/2 115/1/2 117/1/2
f 117/1/2 115/1/2 118/1/2
f 116/1/2 114/1/2 119/1/2
f 119/1/2 114/1/2 120/1/2
f 121/1/2 122/1/2 123/1/2
f 123/1/2 122/1/2 124/1/2
f 124/1/2 122/1/2 125/1/2
f 126/1/2 127/1/2 128/1/2
f 128/1/2 127/1/2 129/1/2
f 130/1/2 131/1/2 132/1/2
f 132/1/2 131/1/2 133/1/2
f 134/2/2 135/2/2 136/2/2
f 136/2/2 135/2/2 137/2/2
f 136/1/2 137/1/2 140/1/2
f 140/1/2 137/1/2 141/1/2
f 141/1/2 137/1/2 142/1/2
f 138/1/2 139/1/2 143/1/2
f 143/1/2 139/1/2 144/1/2
f 145/1/2 146/1/2 147/1/2
f 147/1/2 146/1/2 148/1/2
f 149/4/2 150/4/2 153/4/2
f 153/4/2 150/4/2 154/4/2
f 151/4/2 152/4/2 155/4/2
f 155/4/2 152/4/2 156/4/2
f 157/1/2 158/1/2 159/1/2
f 159/1/2 158/1/2 160/1/2
f 161/1/2 162/1/2 163/1/2
f 163/1/2 162/1/2 164/1/2
f 163/3/2 164/3/2 165/3/2
f 165/3/2 164/3/2 166/3/2
f 163/3/2 165/3/2 167/3/2
f 166/3/2 164/3/2 168/3/2
f 163/3/2 167/3/2 169/3/2
f 167/3/2 168/3/2 169/3/2
f 168/3/2 164/3/2 170/3/2
f 169/3/2 168/3/2 170/3/2
f 171/4/2 172/4/2 173/4/2
f 173/4/2 172/4/2 174/4/2
f 177/4/3 176/4/3 175/4/3
f 178/4/3 176/4/3 177/4/3
f 181/1/3 180/1/3 179/1/3
f 182/1/3 180/1/3 181/1/3
f 185/4/3 184/4/3 183/4/3
f 186/4/3 184/4/3 185/4/3
f 190/3/3 189/3/3 188/3/3
f 191/3/3 189/3/3 190/3/3
f 192/3/3 190/3/3 188/3/3
f 193/3/3 189/3/3 191/3/3
f 194/1/3 188/1/3 187/1/3
f 195/3/3 193/3/3 192/3/3
f 195/1/3 188/1/3 194/1/3
f 195/3/3 192/3/3 188/3/3
f 196/3/3 189/3/3 193/3/3
f 196/3/3 193/3/3 195/3/3
f 197/3/3 189/3/3 196/3/3
f 201/1/3 198/1/3 197/1/3
f 201/1/3 197/1/3 196/1/3
f 202/1/3 198/1/3 201/1/3
f 203/1/3 200/1/3 199/1/3
f 204/1/3 200/1/3 203/1/3
f 209/1/3 206/1/3 205/1/3
f 210/1/3 206/1/3 209/1/3
f 211/1/3 208/1/3 207/1/3
f 212/1/3 208/1/3 211/1/3
f 214/1/3 198/1/3 202/1/3
f 217/1/3 214/1/3 213/1/3
f 218/1/3 214/1/3 217/1/3
f 219/1/3 198/1/3 214/1/3
f 219/1/3 214/1/3 218/1/3
f 220/3/3 218/3/3 217/3/3
f 220/3/3 217/3/3 216/3/3
f 221/3/3 218/3/3 220/3/3
f 222/3/3 220/3/3 216/3/3
f 223/3/3 218/3/3 221/3/3
f 224/1/3 216/1/3 215/1/3
f 225/3/3 223/3/3 222/3/3
f 225/1/3 216/1/3 224/1/3
f 225/3/3 222/3/3 216/3/3
f 226/3/3 218/3/3 223/3/3
f 226/3/3 223/3/3 225/3/3
f 229/4/3 228/4/3 227/4/3
f 230/4/3 228/4/3 229/4/3
f 235/1/3 232/1/3 231/1/3
f 236/1/3 232/1/3 235/1/3
f 237/2/3 234/2/3 233/2/3
f 240/2/3 234/2/3 237/2/3
f 241/1/3 232/1/3 236/1/3
f 242/1/3 239/1/3 238/1/3
f 243/1/3 239/1/3 242/1/3
f 244/1/3 239/1/3 243/1/3
f 245/2/3 234/2/3 240/2/3
f 246/1/3 241/1/3 236/1/3
f 250/2/3 234/2/3 245/2/3
f 251/1/3 249/1/3 248/1/3
f 251/1/3 248/1/3 247/1/3
f 252/1/3 249/1/3 251/1/3
f 253/2/3 234/2/3 250/2/3
f 254/2/3 234/2/3 253/2/3
f 256/1/3 246/1/3 236/1/3
f 257/1/3 256/1/3 255/1/3
f 258/1/3 246/1/3 256/1/3
f 258/1/3 256/1/3 257/1/3
f 261/4/3 260/4/3 259/4/3
f 262/4/3 260/4/3 261/4/3
f 263/4/4 264/4/4 265/4/4
f 265/4/4 264/4/4 266/4/4
f 267/1/4 268/1/4 271/1/4
f 271/1/4 268/1/4 272/1/4
f 269/1/4 270/1/4 273/1/4
f 273/1/4 270/1/4 274/1/4
f 274/1/4 270/1/4 275/1/4
f 276/1/4 277/1/4 281/1/4
f 281/1/4 277/1/4 282/1/4
f 279/1/4 280/1/4 283/1/4
f 278/1/4 279/1/4 283/1/4
f 283/1/4 280/1/4 284/1/4
f 285/4/4 286/4/4 287/4/4
f 287/4/4 286/4/4 288/4/4
f 290/3/4 291/3/4 292/3/4
f 292/3/4 291/3/4 293/3/4
f 293/3/4 291/3/4 294/3/4
f 290/3/4 292/3/4 296/3/4
f 293/3/4 294/3/4 297/3/4
f 294/1/4 295/1/4 298/1/4
f 298/1/4 295/1/4 299/1/4
f 289/1/4 290/1/4 300/1/4
f 296/3/4 297/3/4 301/3/4
f 300/1/4 290/1/4 301/1/4
f 290/3/4 296/3/4 301/3/4
f 297/3/4 294/3/4 302/3/4
f 301/3/4 297/3/4 302/3/4
f 294/1/4 298/1/4 303/1/4
f 302/3/4 294/3/4 303/3/4
f 303/1/4 298/1/4 304/1/4
f 305/1/4 306/1/4 307/1/4
f 307/1/4 306/1/4 308/1/4
f 310/3/4 311/3/4 314/3/4
f 311/3/4 312/3/4 314/3/4
f 314/3/4 312/3/4 315/3/4
f 312/1/4 313/1/4 316/1/4
f 310/3/4 314/3/4 318/3/4
f 315/3/4 312/3/4 319/3/4
f 316/1/4 317/1/4 320/1/4
f 312/1/4 316/1/4 320/1/4
f 319/3/4 312/3/4 320/3/4
f 320/1/4 317/1/4 321/1/4
f 309/1/4 310/1/4 322/1/4
f 310/3/4 318/3/4 323/3/4
f 322/1/4 310/1/4 323/1/4
f 318/3/4 319/3/4 323/3/4
f 319/3/4 320/3/4 323/3/4
f 323/3/4 320/3/4 324/3/4
f 325/4/4 326/4/4 327/4/4
f 327/4/4 326/4/4 328/4/4
f 329/1/4 330/1/4 333/1/4
f 331/2/4 332/2/4 334/2/4
f 332/1/4 333/1/4 335/1/4
f 334/2/4 332/2/4 335/2/4
f 333/1/4 330/1/4 336/1/4
f 335/1/4 333/1/4 336/1/4
f 336/1/4 330/1/4 339/1/4
f 339/1/4 330/1/4 340/1/4
f 337/4/4 338/4/4 341/4/4
f 341/4/4 338/4/4 342/4/4
f 351/1/5 346/1/5 345/1/5
f 352/1/5 346/1/5 351/1/5
f 353/1/5 348/1/5 347/1/5
f 354/1/5 348/1/5 353/1/5
f 355/1/5 344/1/5 343/1/5
f 356/1/5 344/1/5 355/1/5
f 357/1/5 350/1/5 349/1/5
f 358/1/5 350/1/5 357/1/5
f 365/2/5 360/2/5 359/2/5
f 366/2/5 362/2/5 361/2/5
f 367/2/5 362/2/5 366/2/5
f 368/2/5 364/2/5 363/2/5
f 369/2/5 365/2/5 359/2/5
f 370/5/5 367/5/5 366/5/5
f 370/2/5 365/2/5 369/2/5
f 370/5/5 368/5/5 367/5/5
f 370/5/5 366/5/5 365/5/5
f 371/2/5 364/2/5 368/2/5
f 371/5/5 368/5/5 370/5/5
f 372/2/5 364/2/5 371/2/5
f 373/2/5 370/2/5 369/2/5
f 373/2/5 371/2/5 370/2/5
f 373/2/5 372/2/5 371/2/5
f 374/2/5 372/2/5 373/2/5
f 379/4/5 376/4/5 375/4/5
f 380/4/5 376/4/5 379/4/5
f 381/4/5 378/4/5 377/4/5
f 382/4/5 378/4/5 381/4/5
f 387/4/5 384/4/5 383/4/5
f 388/4/5 384/4/5 387/4/5
f 389/4/5 386/4/5 385/4/5
f 390/4/5 386/4/5 389/4/5
f 395/4/5 392/4/5 391/4/5
f 396/4/5 392/4/5 395/4/5
f 397/4/5 394/4/5 393/4/5
f 398/4/5 394/4/5 397/4/5
f 402/1/5 400/1/5 399/1/5
f 403/1/5 400/1/5 402/1/5
f 405/1/5 402/1/5 401/1/5
f 405/1/5 404/1/5 403/1/5
f 405/1/5 403/1/5 402/1/5
f 406/1/5 404/1/5 405/1/5
f 411/1/5 408/1/5 407/1/5
f 412/1/5 408/1/5 411/1/5
f 413/1/5 410/1/5 409/1/5
f 414/1/5 410/1/5 413/1/5
f 417/1/5 416/1/5 415/1/5
f 418/1/5 416/1/5 417/1/5
f 423/1/5 420/1/5 419/1/5
f 424/1/5 420/1/5 423/1/5
f 425/1/5 422/1/5 421/1/5
f 426/1/5 422/1/5 425/1/5
f 427/1/6 428/1/6 431/1/6
f 431/1/6 428/1/6 432/1/6
f 429/1/6 430/1/6 433/1/6
f 433/1/6 430/1/6 434/1/6
f 435/4/6 436/4/6 439/4/6
f 439/4/6 436/4/6 440/4/6
f 437/4/6 438/4/6 441/4/6
f 441/4/6 438/4/6 442/4/6
f 443/4/6 444/4/6 447/4/6
f 447/4/6 444/4/6 448/4/6
f 445/4/6 446/4/6 449/4/6
f 449/4/6 446/4/6 450/4/6
f 451/4/6 452/4/6 455/4/6
f 455/4/6 452/4/6 456/4/6
f 453/4/6 454/4/6 457/4/6
f 457/4/6 454/4/6 458/4/6
f 459/3/6 460/3/6 463/3/6
f 463/3/6 460/3/6 464/3/6
f 461/3/6 462/3/6 465/3/6
f 465/3/6 462/3/6 466/3/6
f 459/3/6 463/3/6 467/3/6
f 467/3/6 463/3/6 468/3/6
f 466/3/6 462/3/6 469/3/6
f 469/3/6 462/3/6 470/3/6
f 471/1/6 472/1/6 473/1/6
f 473/1/6 472/1/6 474/1/6
f 475/1/6 476/1/6 477/1/6
f 477/1/6 476/1/6 478/1/6
f 479/1/6 480/1/6 483/1/6
f 483/1/6 480/1/6 484/1/6
f 484/1/6 480/1/6 485/1/6
f 481/1/6 482/1/6 486/1/6
f 486/1/6 482/1/6 487/1/6
f 487/1/6 482/1/6 488/1/6
f 484/1/6 485/1/6 489/1/6
f 486/1/6 487/1/6 489/1/6
f 485/1/6 486/1/6 489/1/6
f 489/1/6 487/1/6 490/1/6
f 491/1/6 492/1/6 493/1/6
f 493/1/6 492/1/6 494/1/6
f 493/1/6 494/1/6 495/1/6
f 495/1/6 494/1/6 496/1/6
f 495/1/6 496/1/6 497/1/6
f 497/1/6 496/1/6 498/1/6
f 499/1/6 500/1/6 503/1/6
f 503/1/6 500/1/6 504/1/6
f 501/1/6 502/1/6 505/1/6
f 505/1/6 502/1/6 506/1/6
