# MagicaVoxel @ Ephtracy

# group
o 

# material
mtllib bugbear_idle_1.mtl
usemtl palette

# normals
vn -1 0 0
vn 1 0 0
vn 0 0 1
vn 0 0 -1
vn 0 -1 0
vn 0 1 0

# texcoords
vt 0.763672 0.5
vt 0.783203 0.5
vt 0.787109 0.5
vt 0.943359 0.5
vt 0.970703 0.5

# verts
v -0.7 0.2 -2.98023e-08
v -0.7 0.2 -0.1
v -0.7 0.3 -2.98023e-08
v -0.7 0.3 -0.1
v -0.6 0 0.1
v -0.6 0 -0.2
v -0.6 0.1 0.1
v -0.6 0.1 -0.2
v -0.6 0.2 -2.98023e-08
v -0.6 0.2 -0.1
v -0.6 0.3 -2.98023e-08
v -0.6 0.3 -0.1
v -0.6 0.4 0.1
v -0.6 0.4 -0.2
v -0.5 0.2 0.2
v -0.5 0.2 0.1
v -0.5 0.2 -0.2
v -0.5 0.2 -0.3
v -0.5 0.3 0.2
v -0.5 0.3 0.1
v -0.5 0.3 -0.2
v -0.5 0.3 -0.3
v -0.5 0.4 -2.98023e-08
v -0.5 0.4 -0.2
v -0.5 0.8 -2.98023e-08
v -0.5 0.8 -0.2
v -0.4 0.4 -0.2
v -0.4 0.4 -0.3
v -0.4 0.8 -0.2
v -0.4 0.8 -0.3
v -0.3 0.1 -0.2
v -0.3 0.1 -0.3
v -0.3 0.3 -0.2
v -0.3 0.3 -0.3
v -0.3 0.4 0.1
v -0.3 0.4 -2.98023e-08
v -0.3 0.4 -0.2
v -0.3 0.4 -0.3
v -0.3 0.8 0.1
v -0.3 0.8 -2.98023e-08
v -0.3 0.8 -0.3
v -0.3 0.9 -2.98023e-08
v -0.3 0.9 -0.3
v -0.2 0 0.1
v -0.2 0 -0.1
v -0.2 0.1 0.1
v -0.2 0.1 -2.98023e-08
v -0.2 0.1 -0.1
v -0.2 0.3 0.2
v -0.2 0.3 0.1
v -0.2 0.7 0.2
v -0.2 0.7 0.1
v -0.2 1 -2.98023e-08
v -0.2 1 -0.1
v -0.2 1.3 -2.98023e-08
v -0.2 1.3 -0.1
v -0.1 0.9 0.1
v -0.1 0.9 -2.98023e-08
v -0.1 0.9 -0.2
v -0.1 1 -2.98023e-08
v -0.1 1 -0.1
v -0.1 1.2 0.1
v -0.1 1.2 -2.98023e-08
v -0.1 1.2 -0.1
v -0.1 1.2 -0.2
v 0.2 0 0.1
v 0.2 0 -0.1
v 0.2 0.1 0.1
v 0.2 0.1 -2.98023e-08
v 0.2 0.1 -0.1
v 0.2 1.2 -2.98023e-08
v 0.2 1.2 -0.1
v 0.2 1.3 -2.98023e-08
v 0.2 1.3 -0.1
v 0.4 0 0.1
v 0.4 0 -0.2
v 0.4 0.1 0.1
v 0.4 0.1 -2.98023e-08
v 0.4 0.1 -0.2
v 0.4 0.3 0.1
v 0.4 0.3 -2.98023e-08
v 0.5 0.2 0.2
v 0.5 0.2 0.1
v 0.5 0.2 -0.2
v 0.5 0.2 -0.3
v 0.5 0.3 0.2
v 0.5 0.3 0.1
v 0.5 0.3 -0.2
v 0.5 0.3 -0.3
v -0.4 0.2 0.2
v -0.4 0.2 0.1
v -0.4 0.2 -0.2
v -0.4 0.2 -0.3
v -0.4 0.3 0.2
v -0.4 0.3 0.1
v -0.4 0.3 -0.2
v -0.4 0.3 -0.3
v -0.3 0 0.1
v -0.3 0 -0.2
v -0.3 0.1 0.1
v -0.3 0.1 -2.98023e-08
v -0.3 0.1 -0.2
v -0.3 0.3 0.1
v -0.3 0.3 -2.98023e-08
v -0.1 0 0.1
v -0.1 0 -0.1
v -0.1 0.1 0.1
v -0.1 0.1 -2.98023e-08
v -0.1 0.1 -0.1
v -0.1 1.2 -2.98023e-08
v -0.1 1.2 -0.1
v -0.1 1.3 -2.98023e-08
v -0.1 1.3 -0.1
v 0.2 0.9 0.1
v 0.2 0.9 -2.98023e-08
v 0.2 0.9 -0.2
v 0.2 1 -2.98023e-08
v 0.2 1 -0.1
v 0.2 1.2 0.1
v 0.2 1.2 -2.98023e-08
v 0.2 1.2 -0.1
v 0.2 1.2 -0.2
v 0.3 0 0.1
v 0.3 0 -0.1
v 0.3 0.1 0.1
v 0.3 0.1 -2.98023e-08
v 0.3 0.1 -0.1
v 0.3 0.3 0.2
v 0.3 0.3 0.1
v 0.3 0.7 0.2
v 0.3 0.7 0.1
v 0.3 1 -2.98023e-08
v 0.3 1 -0.1
v 0.3 1.3 -2.98023e-08
v 0.3 1.3 -0.1
v 0.4 0.1 -0.2
v 0.4 0.1 -0.3
v 0.4 0.3 -0.2
v 0.4 0.3 -0.3
v 0.4 0.4 0.1
v 0.4 0.4 -2.98023e-08
v 0.4 0.4 -0.2
v 0.4 0.4 -0.3
v 0.4 0.8 0.1
v 0.4 0.8 -2.98023e-08
v 0.4 0.8 -0.3
v 0.4 0.9 -2.98023e-08
v 0.4 0.9 -0.3
v 0.5 0.4 -0.2
v 0.5 0.4 -0.3
v 0.5 0.8 -0.2
v 0.5 0.8 -0.3
v 0.6 0.2 0.2
v 0.6 0.2 0.1
v 0.6 0.2 -0.2
v 0.6 0.2 -0.3
v 0.6 0.3 0.2
v 0.6 0.3 0.1
v 0.6 0.3 -0.2
v 0.6 0.3 -0.3
v 0.6 0.4 -2.98023e-08
v 0.6 0.4 -0.2
v 0.6 0.8 -2.98023e-08
v 0.6 0.8 -0.2
v 0.7 0 0.1
v 0.7 0 -0.2
v 0.7 0.1 0.1
v 0.7 0.1 -0.2
v 0.7 0.2 -2.98023e-08
v 0.7 0.2 -0.1
v 0.7 0.3 -2.98023e-08
v 0.7 0.3 -0.1
v 0.7 0.4 0.1
v 0.7 0.4 -0.2
v 0.8 0.2 -2.98023e-08
v 0.8 0.2 -0.1
v 0.8 0.3 -2.98023e-08
v 0.8 0.3 -0.1
v -0.5 0.2 0.2
v -0.5 0.3 0.2
v -0.4 0.2 0.2
v -0.4 0.3 0.2
v -0.2 0.3 0.2
v -0.2 0.7 0.2
v 0.3 0.3 0.2
v 0.3 0.7 0.2
v 0.5 0.2 0.2
v 0.5 0.3 0.2
v 0.6 0.2 0.2
v 0.6 0.3 0.2
v -0.6 0 0.1
v -0.6 0.1 0.1
v -0.6 0.4 0.1
v -0.5 0.2 0.1
v -0.5 0.3 0.1
v -0.4 0.2 0.1
v -0.4 0.3 0.1
v -0.3 0 0.1
v -0.3 0.1 0.1
v -0.3 0.3 0.1
v -0.3 0.4 0.1
v -0.3 0.8 0.1
v -0.2 0 0.1
v -0.2 0.1 0.1
v -0.2 0.3 0.1
v -0.2 0.7 0.1
v -0.1 0 0.1
v -0.1 0.1 0.1
v -0.1 0.9 0.1
v -0.1 1.2 0.1
v 0.2 0 0.1
v 0.2 0.1 0.1
v 0.2 0.9 0.1
v 0.2 1.2 0.1
v 0.3 0 0.1
v 0.3 0.1 0.1
v 0.3 0.3 0.1
v 0.3 0.7 0.1
v 0.4 0 0.1
v 0.4 0.1 0.1
v 0.4 0.3 0.1
v 0.4 0.4 0.1
v 0.4 0.8 0.1
v 0.5 0.2 0.1
v 0.5 0.3 0.1
v 0.6 0.2 0.1
v 0.6 0.3 0.1
v 0.7 0 0.1
v 0.7 0.1 0.1
v 0.7 0.4 0.1
v -0.7 0.2 -2.98023e-08
v -0.7 0.3 -2.98023e-08
v -0.6 0.2 -2.98023e-08
v -0.6 0.3 -2.98023e-08
v -0.5 0.4 -2.98023e-08
v -0.5 0.8 -2.98023e-08
v -0.3 0.1 -2.98023e-08
v -0.3 0.3 -2.98023e-08
v -0.3 0.4 -2.98023e-08
v -0.3 0.8 -2.98023e-08
v -0.3 0.9 -2.98023e-08
v -0.2 0.1 -2.98023e-08
v -0.2 1 -2.98023e-08
v -0.2 1.3 -2.98023e-08
v -0.1 0.1 -2.98023e-08
v -0.1 0.9 -2.98023e-08
v -0.1 1 -2.98023e-08
v -0.1 1.2 -2.98023e-08
v -0.1 1.3 -2.98023e-08
v 0.2 0.1 -2.98023e-08
v 0.2 0.9 -2.98023e-08
v 0.2 1 -2.98023e-08
v 0.2 1.2 -2.98023e-08
v 0.2 1.3 -2.98023e-08
v 0.3 0.1 -2.98023e-08
v 0.3 1 -2.98023e-08
v 0.3 1.3 -2.98023e-08
v 0.4 0.1 -2.98023e-08
v 0.4 0.3 -2.98023e-08
v 0.4 0.4 -2.98023e-08
v 0.4 0.8 -2.98023e-08
v 0.4 0.9 -2.98023e-08
v 0.6 0.4 -2.98023e-08
v 0.6 0.8 -2.98023e-08
v 0.7 0.2 -2.98023e-08
v 0.7 0.3 -2.98023e-08
v 0.8 0.2 -2.98023e-08
v 0.8 0.3 -2.98023e-08
v -0.7 0.2 -0.1
v -0.7 0.3 -0.1
v -0.6 0.2 -0.1
v -0.6 0.3 -0.1
v -0.2 0 -0.1
v -0.2 0.1 -0.1
v -0.2 1 -0.1
v -0.2 1.3 -0.1
v -0.1 0 -0.1
v -0.1 0.1 -0.1
v -0.1 1 -0.1
v -0.1 1.2 -0.1
v -0.1 1.3 -0.1
v 0.2 0 -0.1
v 0.2 0.1 -0.1
v 0.2 1 -0.1
v 0.2 1.2 -0.1
v 0.2 1.3 -0.1
v 0.3 0 -0.1
v 0.3 0.1 -0.1
v 0.3 1 -0.1
v 0.3 1.3 -0.1
v 0.7 0.2 -0.1
v 0.7 0.3 -0.1
v 0.8 0.2 -0.1
v 0.8 0.3 -0.1
v -0.6 0 -0.2
v -0.6 0.1 -0.2
v -0.6 0.4 -0.2
v -0.5 0.2 -0.2
v -0.5 0.3 -0.2
v -0.5 0.4 -0.2
v -0.5 0.8 -0.2
v -0.4 0.2 -0.2
v -0.4 0.3 -0.2
v -0.4 0.4 -0.2
v -0.4 0.8 -0.2
v -0.3 0 -0.2
v -0.3 0.1 -0.2
v -0.3 0.3 -0.2
v -0.3 0.4 -0.2
v -0.1 0.9 -0.2
v -0.1 1.2 -0.2
v 0.2 0.9 -0.2
v 0.2 1.2 -0.2
v 0.4 0 -0.2
v 0.4 0.1 -0.2
v 0.4 0.3 -0.2
v 0.4 0.4 -0.2
v 0.5 0.2 -0.2
v 0.5 0.3 -0.2
v 0.5 0.4 -0.2
v 0.5 0.8 -0.2
v 0.6 0.2 -0.2
v 0.6 0.3 -0.2
v 0.6 0.4 -0.2
v 0.6 0.8 -0.2
v 0.7 0 -0.2
v 0.7 0.1 -0.2
v 0.7 0.4 -0.2
v -0.5 0.2 -0.3
v -0.5 0.3 -0.3
v -0.4 0.2 -0.3
v -0.4 0.3 -0.3
v -0.4 0.4 -0.3
v -0.4 0.8 -0.3
v -0.3 0.1 -0.3
v -0.3 0.3 -0.3
v -0.3 0.4 -0.3
v -0.3 0.8 -0.3
v -0.3 0.9 -0.3
v 0.4 0.1 -0.3
v 0.4 0.3 -0.3
v 0.4 0.4 -0.3
v 0.4 0.8 -0.3
v 0.4 0.9 -0.3
v 0.5 0.2 -0.3
v 0.5 0.3 -0.3
v 0.5 0.4 -0.3
v 0.5 0.8 -0.3
v 0.6 0.2 -0.3
v 0.6 0.3 -0.3
v -0.6 0 0.1
v -0.3 0 0.1
v -0.2 0 0.1
v -0.1 0 0.1
v 0.2 0 0.1
v 0.3 0 0.1
v 0.4 0 0.1
v 0.7 0 0.1
v -0.2 0 -0.1
v -0.1 0 -0.1
v 0.2 0 -0.1
v 0.3 0 -0.1
v -0.6 0 -0.2
v -0.3 0 -0.2
v 0.4 0 -0.2
v 0.7 0 -0.2
v -0.3 0.1 -2.98023e-08
v -0.2 0.1 -2.98023e-08
v -0.1 0.1 -2.98023e-08
v 0.2 0.1 -2.98023e-08
v 0.3 0.1 -2.98023e-08
v 0.4 0.1 -2.98023e-08
v -0.2 0.1 -0.1
v -0.1 0.1 -0.1
v 0.2 0.1 -0.1
v 0.3 0.1 -0.1
v -0.3 0.1 -0.2
v -0.2 0.1 -0.2
v 0.3 0.1 -0.2
v 0.4 0.1 -0.2
v -0.3 0.1 -0.3
v 0.4 0.1 -0.3
v -0.5 0.2 0.2
v -0.4 0.2 0.2
v 0.5 0.2 0.2
v 0.6 0.2 0.2
v -0.5 0.2 0.1
v -0.4 0.2 0.1
v 0.5 0.2 0.1
v 0.6 0.2 0.1
v -0.7 0.2 -2.98023e-08
v -0.6 0.2 -2.98023e-08
v 0.7 0.2 -2.98023e-08
v 0.8 0.2 -2.98023e-08
v -0.7 0.2 -0.1
v -0.6 0.2 -0.1
v 0.7 0.2 -0.1
v 0.8 0.2 -0.1
v -0.5 0.2 -0.2
v -0.4 0.2 -0.2
v 0.5 0.2 -0.2
v 0.6 0.2 -0.2
v -0.5 0.2 -0.3
v -0.4 0.2 -0.3
v 0.5 0.2 -0.3
v 0.6 0.2 -0.3
v -0.2 0.3 0.2
v 0.3 0.3 0.2
v -0.3 0.3 0.1
v -0.2 0.3 0.1
v 0.3 0.3 0.1
v 0.4 0.3 0.1
v -0.3 0.3 -2.98023e-08
v 0.4 0.3 -2.98023e-08
v -0.4 0.4 -0.2
v -0.3 0.4 -0.2
v 0.4 0.4 -0.2
v 0.5 0.4 -0.2
v -0.4 0.4 -0.3
v -0.3 0.4 -0.3
v 0.4 0.4 -0.3
v 0.5 0.4 -0.3
v -0.1 0.9 0.1
v 0.2 0.9 0.1
v -0.1 0.9 -2.98023e-08
v 0.2 0.9 -2.98023e-08
v -0.2 1 -2.98023e-08
v -0.1 1 -2.98023e-08
v 0.2 1 -2.98023e-08
v 0.3 1 -2.98023e-08
v -0.2 1 -0.1
v -0.1 1 -0.1
v 0.2 1 -0.1
v 0.3 1 -0.1
v -0.2 0.1 0.1
v -0.1 0.1 0.1
v 0.2 0.1 0.1
v 0.3 0.1 0.1
v -0.2 0.1 -2.98023e-08
v -0.1 0.1 -2.98023e-08
v 0.2 0.1 -2.98023e-08
v 0.3 0.1 -2.98023e-08
v -0.5 0.3 0.2
v -0.4 0.3 0.2
v 0.5 0.3 0.2
v 0.6 0.3 0.2
v -0.5 0.3 0.1
v -0.4 0.3 0.1
v 0.5 0.3 0.1
v 0.6 0.3 0.1
v -0.7 0.3 -2.98023e-08
v -0.6 0.3 -2.98023e-08
v 0.7 0.3 -2.98023e-08
v 0.8 0.3 -2.98023e-08
v -0.7 0.3 -0.1
v -0.6 0.3 -0.1
v 0.7 0.3 -0.1
v 0.8 0.3 -0.1
v -0.5 0.3 -0.2
v -0.4 0.3 -0.2
v 0.5 0.3 -0.2
v 0.6 0.3 -0.2
v -0.5 0.3 -0.3
v -0.4 0.3 -0.3
v 0.5 0.3 -0.3
v 0.6 0.3 -0.3
v -0.6 0.4 0.1
v -0.3 0.4 0.1
v 0.4 0.4 0.1
v 0.7 0.4 0.1
v -0.5 0.4 -2.98023e-08
v -0.3 0.4 -2.98023e-08
v 0.4 0.4 -2.98023e-08
v 0.6 0.4 -2.98023e-08
v -0.6 0.4 -0.2
v -0.5 0.4 -0.2
v 0.6 0.4 -0.2
v 0.7 0.4 -0.2
v -0.2 0.7 0.2
v 0.3 0.7 0.2
v -0.2 0.7 0.1
v 0.3 0.7 0.1
v -0.3 0.8 0.1
v 0.4 0.8 0.1
v -0.5 0.8 -2.98023e-08
v -0.3 0.8 -2.98023e-08
v 0.4 0.8 -2.98023e-08
v 0.6 0.8 -2.98023e-08
v -0.5 0.8 -0.2
v -0.4 0.8 -0.2
v 0.5 0.8 -0.2
v 0.6 0.8 -0.2
v -0.4 0.8 -0.3
v -0.3 0.8 -0.3
v 0.4 0.8 -0.3
v 0.5 0.8 -0.3
v -0.3 0.9 -2.98023e-08
v -0.1 0.9 -2.98023e-08
v 0.2 0.9 -2.98023e-08
v 0.4 0.9 -2.98023e-08
v -0.1 0.9 -0.2
v 0.2 0.9 -0.2
v -0.3 0.9 -0.3
v 0.4 0.9 -0.3
v -0.1 1.2 0.1
v 0.2 1.2 0.1
v -0.1 1.2 -2.98023e-08
v 0.2 1.2 -2.98023e-08
v -0.1 1.2 -0.1
v 0.2 1.2 -0.1
v -0.1 1.2 -0.2
v 0.2 1.2 -0.2
v -0.2 1.3 -2.98023e-08
v -0.1 1.3 -2.98023e-08
v 0.2 1.3 -2.98023e-08
v 0.3 1.3 -2.98023e-08
v -0.2 1.3 -0.1
v -0.1 1.3 -0.1
v 0.2 1.3 -0.1
v 0.3 1.3 -0.1

# faces
f 3/4/1 2/4/1 1/4/1
f 4/4/1 2/4/1 3/4/1
f 7/1/1 6/1/1 5/1/1
f 8/1/1 6/1/1 7/1/1
f 9/3/1 8/3/1 7/3/1
f 10/3/1 8/3/1 9/3/1
f 11/3/1 9/3/1 7/3/1
f 12/3/1 8/3/1 10/3/1
f 13/3/1 11/3/1 7/3/1
f 13/3/1 12/3/1 11/3/1
f 14/3/1 8/3/1 12/3/1
f 14/3/1 12/3/1 13/3/1
f 19/4/1 16/4/1 15/4/1
f 20/4/1 16/4/1 19/4/1
f 21/4/1 18/4/1 17/4/1
f 22/4/1 18/4/1 21/4/1
f 25/1/1 24/1/1 23/1/1
f 26/1/1 24/1/1 25/1/1
f 29/1/1 28/1/1 27/1/1
f 30/1/1 28/1/1 29/1/1
f 33/2/1 32/2/1 31/2/1
f 34/2/1 32/2/1 33/2/1
f 37/1/1 34/1/1 33/1/1
f 38/1/1 34/1/1 37/1/1
f 39/1/1 36/1/1 35/1/1
f 40/1/1 36/1/1 39/1/1
f 42/1/1 41/1/1 40/1/1
f 43/1/1 41/1/1 42/1/1
f 46/1/1 45/1/1 44/1/1
f 47/1/1 45/1/1 46/1/1
f 48/1/1 45/1/1 47/1/1
f 51/1/1 50/1/1 49/1/1
f 52/1/1 50/1/1 51/1/1
f 55/1/1 54/1/1 53/1/1
f 56/1/1 54/1/1 55/1/1
f 60/1/1 58/1/1 57/1/1
f 60/1/1 59/1/1 58/1/1
f 61/1/1 59/1/1 60/1/1
f 62/1/1 60/1/1 57/1/1
f 63/1/1 60/1/1 62/1/1
f 64/1/1 59/1/1 61/1/1
f 65/1/1 59/1/1 64/1/1
f 68/1/1 67/1/1 66/1/1
f 69/1/1 67/1/1 68/1/1
f 70/1/1 67/1/1 69/1/1
f 73/1/1 72/1/1 71/1/1
f 74/1/1 72/1/1 73/1/1
f 77/1/1 76/1/1 75/1/1
f 78/1/1 76/1/1 77/1/1
f 79/1/1 76/1/1 78/1/1
f 80/3/1 78/3/1 77/3/1
f 81/3/1 78/3/1 80/3/1
f 86/4/1 83/4/1 82/4/1
f 87/4/1 83/4/1 86/4/1
f 88/4/1 85/4/1 84/4/1
f 89/4/1 85/4/1 88/4/1
f 90/4/2 91/4/2 94/4/2
f 94/4/2 91/4/2 95/4/2
f 92/4/2 93/4/2 96/4/2
f 96/4/2 93/4/2 97/4/2
f 98/1/2 99/1/2 100/1/2
f 100/1/2 99/1/2 101/1/2
f 101/1/2 99/1/2 102/1/2
f 100/3/2 101/3/2 103/3/2
f 103/3/2 101/3/2 104/3/2
f 105/1/2 106/1/2 107/1/2
f 107/1/2 106/1/2 108/1/2
f 108/1/2 106/1/2 109/1/2
f 110/1/2 111/1/2 112/1/2
f 112/1/2 111/1/2 113/1/2
f 114/1/2 115/1/2 117/1/2
f 115/1/2 116/1/2 117/1/2
f 117/1/2 116/1/2 118/1/2
f 114/1/2 117/1/2 119/1/2
f 119/1/2 117/1/2 120/1/2
f 118/1/2 116/1/2 121/1/2
f 121/1/2 116/1/2 122/1/2
f 123/1/2 124/1/2 125/1/2
f 125/1/2 124/1/2 126/1/2
f 126/1/2 124/1/2 127/1/2
f 128/1/2 129/1/2 130/1/2
f 130/1/2 129/1/2 131/1/2
f 132/1/2 133/1/2 134/1/2
f 134/1/2 133/1/2 135/1/2
f 136/2/2 137/2/2 138/2/2
f 138/2/2 137/2/2 139/2/2
f 138/1/2 139/1/2 142/1/2
f 142/1/2 139/1/2 143/1/2
f 140/1/2 141/1/2 144/1/2
f 144/1/2 141/1/2 145/1/2
f 145/1/2 146/1/2 147/1/2
f 147/1/2 146/1/2 148/1/2
f 149/1/2 150/1/2 151/1/2
f 151/1/2 150/1/2 152/1/2
f 153/4/2 154/4/2 157/4/2
f 157/4/2 154/4/2 158/4/2
f 155/4/2 156/4/2 159/4/2
f 159/4/2 156/4/2 160/4/2
f 161/1/2 162/1/2 163/1/2
f 163/1/2 162/1/2 164/1/2
f 165/1/2 166/1/2 167/1/2
f 167/1/2 166/1/2 168/1/2
f 167/3/2 168/3/2 169/3/2
f 169/3/2 168/3/2 170/3/2
f 167/3/2 169/3/2 171/3/2
f 170/3/2 168/3/2 172/3/2
f 167/3/2 171/3/2 173/3/2
f 171/3/2 172/3/2 173/3/2
f 172/3/2 168/3/2 174/3/2
f 173/3/2 172/3/2 174/3/2
f 175/4/2 176/4/2 177/4/2
f 177/4/2 176/4/2 178/4/2
f 181/4/3 180/4/3 179/4/3
f 182/4/3 180/4/3 181/4/3
f 185/1/3 184/1/3 183/1/3
f 186/1/3 184/1/3 185/1/3
f 189/4/3 188/4/3 187/4/3
f 190/4/3 188/4/3 189/4/3
f 194/3/3 193/3/3 192/3/3
f 195/3/3 193/3/3 194/3/3
f 196/3/3 194/3/3 192/3/3
f 197/3/3 193/3/3 195/3/3
f 198/1/3 192/1/3 191/1/3
f 199/3/3 197/3/3 196/3/3
f 199/1/3 192/1/3 198/1/3
f 199/3/3 196/3/3 192/3/3
f 200/3/3 193/3/3 197/3/3
f 200/3/3 197/3/3 199/3/3
f 201/3/3 193/3/3 200/3/3
f 205/1/3 202/1/3 201/1/3
f 205/1/3 201/1/3 200/1/3
f 206/1/3 202/1/3 205/1/3
f 207/1/3 204/1/3 203/1/3
f 208/1/3 204/1/3 207/1/3
f 213/1/3 210/1/3 209/1/3
f 214/1/3 210/1/3 213/1/3
f 215/1/3 212/1/3 211/1/3
f 216/1/3 212/1/3 215/1/3
f 218/1/3 202/1/3 206/1/3
f 221/1/3 218/1/3 217/1/3
f 222/1/3 218/1/3 221/1/3
f 223/1/3 202/1/3 218/1/3
f 223/1/3 218/1/3 222/1/3
f 224/3/3 222/3/3 221/3/3
f 224/3/3 221/3/3 220/3/3
f 225/3/3 222/3/3 224/3/3
f 226/3/3 224/3/3 220/3/3
f 227/3/3 222/3/3 225/3/3
f 228/1/3 220/1/3 219/1/3
f 229/3/3 227/3/3 226/3/3
f 229/1/3 220/1/3 228/1/3
f 229/3/3 226/3/3 220/3/3
f 230/3/3 222/3/3 227/3/3
f 230/3/3 227/3/3 229/3/3
f 233/4/3 232/4/3 231/4/3
f 234/4/3 232/4/3 233/4/3
f 239/1/3 236/1/3 235/1/3
f 240/1/3 236/1/3 239/1/3
f 242/2/3 238/2/3 237/2/3
f 245/2/3 238/2/3 242/2/3
f 246/1/3 241/1/3 240/1/3
f 247/1/3 244/1/3 243/1/3
f 248/1/3 244/1/3 247/1/3
f 249/1/3 244/1/3 248/1/3
f 250/2/3 238/2/3 245/2/3
f 251/1/3 246/1/3 240/1/3
f 255/2/3 238/2/3 250/2/3
f 256/1/3 254/1/3 253/1/3
f 256/1/3 253/1/3 252/1/3
f 257/1/3 254/1/3 256/1/3
f 258/2/3 238/2/3 255/2/3
f 259/2/3 238/2/3 258/2/3
f 261/1/3 251/1/3 240/1/3
f 262/1/3 251/1/3 261/1/3
f 263/1/3 261/1/3 260/1/3
f 264/1/3 261/1/3 263/1/3
f 267/4/3 266/4/3 265/4/3
f 268/4/3 266/4/3 267/4/3
f 269/4/4 270/4/4 271/4/4
f 271/4/4 270/4/4 272/4/4
f 273/1/4 274/1/4 277/1/4
f 277/1/4 274/1/4 278/1/4
f 275/1/4 276/1/4 279/1/4
f 279/1/4 276/1/4 280/1/4
f 280/1/4 276/1/4 281/1/4
f 282/1/4 283/1/4 287/1/4
f 287/1/4 283/1/4 288/1/4
f 285/1/4 286/1/4 289/1/4
f 284/1/4 285/1/4 289/1/4
f 289/1/4 286/1/4 290/1/4
f 291/4/4 292/4/4 293/4/4
f 293/4/4 292/4/4 294/4/4
f 296/3/4 297/3/4 298/3/4
f 298/3/4 297/3/4 299/3/4
f 299/3/4 297/3/4 300/3/4
f 296/3/4 298/3/4 302/3/4
f 299/3/4 300/3/4 303/3/4
f 300/1/4 301/1/4 304/1/4
f 303/3/4 300/3/4 304/3/4
f 304/1/4 301/1/4 305/1/4
f 295/1/4 296/1/4 306/1/4
f 302/3/4 303/3/4 307/3/4
f 306/1/4 296/1/4 307/1/4
f 296/3/4 302/3/4 307/3/4
f 303/3/4 304/3/4 307/3/4
f 307/3/4 304/3/4 308/3/4
f 308/3/4 304/3/4 309/3/4
f 310/1/4 311/1/4 312/1/4
f 312/1/4 311/1/4 313/1/4
f 315/3/4 316/3/4 318/3/4
f 316/3/4 317/3/4 318/3/4
f 318/3/4 317/3/4 319/3/4
f 319/3/4 317/3/4 320/3/4
f 315/3/4 318/3/4 322/3/4
f 319/3/4 320/3/4 323/3/4
f 320/1/4 321/1/4 324/1/4
f 323/3/4 320/3/4 324/3/4
f 324/1/4 321/1/4 325/1/4
f 314/1/4 315/1/4 326/1/4
f 322/3/4 323/3/4 327/3/4
f 326/1/4 315/1/4 327/1/4
f 315/3/4 322/3/4 327/3/4
f 323/3/4 324/3/4 327/3/4
f 327/3/4 324/3/4 328/3/4
f 329/4/4 330/4/4 331/4/4
f 331/4/4 330/4/4 332/4/4
f 333/1/4 334/1/4 337/1/4
f 337/1/4 334/1/4 338/1/4
f 335/2/4 336/2/4 340/2/4
f 338/1/4 339/1/4 341/1/4
f 340/2/4 336/2/4 341/2/4
f 336/1/4 337/1/4 341/1/4
f 337/1/4 338/1/4 341/1/4
f 341/1/4 339/1/4 342/1/4
f 342/1/4 339/1/4 343/1/4
f 343/1/4 339/1/4 344/1/4
f 342/1/4 343/1/4 347/1/4
f 347/1/4 343/1/4 348/1/4
f 345/4/4 346/4/4 349/4/4
f 349/4/4 346/4/4 350/4/4
f 359/1/5 354/1/5 353/1/5
f 360/1/5 354/1/5 359/1/5
f 361/1/5 356/1/5 355/1/5
f 362/1/5 356/1/5 361/1/5
f 363/1/5 352/1/5 351/1/5
f 364/1/5 352/1/5 363/1/5
f 365/1/5 358/1/5 357/1/5
f 366/1/5 358/1/5 365/1/5
f 373/2/5 368/2/5 367/2/5
f 374/2/5 370/2/5 369/2/5
f 375/2/5 370/2/5 374/2/5
f 376/2/5 372/2/5 371/2/5
f 377/2/5 373/2/5 367/2/5
f 378/5/5 375/5/5 374/5/5
f 378/2/5 373/2/5 377/2/5
f 378/5/5 376/5/5 375/5/5
f 378/5/5 374/5/5 373/5/5
f 379/2/5 372/2/5 376/2/5
f 379/5/5 376/5/5 378/5/5
f 380/2/5 372/2/5 379/2/5
f 381/2/5 378/2/5 377/2/5
f 381/2/5 379/2/5 378/2/5
f 381/2/5 380/2/5 379/2/5
f 382/2/5 380/2/5 381/2/5
f 387/4/5 384/4/5 383/4/5
f 388/4/5 384/4/5 387/4/5
f 389/4/5 386/4/5 385/4/5
f 390/4/5 386/4/5 389/4/5
f 395/4/5 392/4/5 391/4/5
f 396/4/5 392/4/5 395/4/5
f 397/4/5 394/4/5 393/4/5
f 398/4/5 394/4/5 397/4/5
f 403/4/5 400/4/5 399/4/5
f 404/4/5 400/4/5 403/4/5
f 405/4/5 402/4/5 401/4/5
f 406/4/5 402/4/5 405/4/5
f 410/1/5 408/1/5 407/1/5
f 411/1/5 408/1/5 410/1/5
f 413/1/5 410/1/5 409/1/5
f 413/1/5 412/1/5 411/1/5
f 413/1/5 411/1/5 410/1/5
f 414/1/5 412/1/5 413/1/5
f 419/1/5 416/1/5 415/1/5
f 420/1/5 416/1/5 419/1/5
f 421/1/5 418/1/5 417/1/5
f 422/1/5 418/1/5 421/1/5
f 425/1/5 424/1/5 423/1/5
f 426/1/5 424/1/5 425/1/5
f 431/1/5 428/1/5 427/1/5
f 432/1/5 428/1/5 431/1/5
f 433/1/5 430/1/5 429/1/5
f 434/1/5 430/1/5 433/1/5
f 435/1/6 436/1/6 439/1/6
f 439/1/6 436/1/6 440/1/6
f 437/1/6 438/1/6 441/1/6
f 441/1/6 438/1/6 442/1/6
f 443/4/6 444/4/6 447/4/6
f 447/4/6 444/4/6 448/4/6
f 445/4/6 446/4/6 449/4/6
f 449/4/6 446/4/6 450/4/6
f 451/4/6 452/4/6 455/4/6
f 455/4/6 452/4/6 456/4/6
f 453/4/6 454/4/6 457/4/6
f 457/4/6 454/4/6 458/4/6
f 459/4/6 460/4/6 463/4/6
f 463/4/6 460/4/6 464/4/6
f 461/4/6 462/4/6 465/4/6
f 465/4/6 462/4/6 466/4/6
f 467/3/6 468/3/6 471/3/6
f 471/3/6 468/3/6 472/3/6
f 469/3/6 470/3/6 473/3/6
f 473/3/6 470/3/6 474/3/6
f 467/3/6 471/3/6 475/3/6
f 475/3/6 471/3/6 476/3/6
f 474/3/6 470/3/6 477/3/6
f 477/3/6 470/3/6 478/3/6
f 479/1/6 480/1/6 481/1/6
f 481/1/6 480/1/6 482/1/6
f 483/1/6 484/1/6 486/1/6
f 486/1/6 484/1/6 487/1/6
f 485/1/6 486/1/6 489/1/6
f 489/1/6 486/1/6 490/1/6
f 487/1/6 488/1/6 491/1/6
f 491/1/6 488/1/6 492/1/6
f 490/1/6 486/1/6 493/1/6
f 493/1/6 486/1/6 494/1/6
f 487/1/6 491/1/6 495/1/6
f 495/1/6 491/1/6 496/1/6
f 497/1/6 498/1/6 501/1/6
f 499/1/6 500/1/6 502/1/6
f 497/1/6 501/1/6 503/1/6
f 501/1/6 502/1/6 503/1/6
f 502/1/6 500/1/6 504/1/6
f 503/1/6 502/1/6 504/1/6
f 505/1/6 506/1/6 507/1/6
f 507/1/6 506/1/6 508/1/6
f 507/1/6 508/1/6 509/1/6
f 509/1/6 508/1/6 510/1/6
f 509/1/6 510/1/6 511/1/6
f 511/1/6 510/1/6 512/1/6
f 513/1/6 514/1/6 517/1/6
f 517/1/6 514/1/6 518/1/6
f 515/1/6 516/1/6 519/1/6
f 519/1/6 516/1/6 520/1/6
