# MagicaVoxel @ Ephtracy

# group
o 

# material
mtllib blob_b_action_0.mtl
usemtl palette

# normals
vn -1 0 0
vn 1 0 0
vn 0 0 1
vn 0 0 -1
vn 0 -1 0
vn 0 1 0

# texcoords
vt 0.876953 0.5
vt 0.951172 0.5
vt 0.970703 0.5

# verts
v -0.2 0 0.2
v -0.2 0 -0.3
v -0.2 0.1 0.1
v -0.2 0.1 -2.98023e-08
v -0.2 0.1 -0.1
v -0.2 0.1 -0.2
v -0.2 0.2 0.2
v -0.2 0.2 0.1
v -0.2 0.2 -2.98023e-08
v -0.2 0.2 -0.1
v -0.2 0.4 0.2
v -0.2 0.4 0.1
v -0.2 0.4 -2.98023e-08
v -0.2 0.4 -0.1
v -0.2 0.5 0.1
v -0.2 0.5 -2.98023e-08
v -0.2 0.5 -0.1
v -0.2 0.5 -0.2
v -0.2 0.6 0.2
v -0.2 0.6 -0.3
v -0.1 0.1 0.1
v -0.1 0.1 -2.98023e-08
v -0.1 0.1 -0.1
v -0.1 0.1 -0.2
v -0.1 0.2 0.1
v -0.1 0.2 -2.98023e-08
v -0.1 0.2 -0.1
v -0.1 0.4 0.1
v -0.1 0.4 -2.98023e-08
v -0.1 0.4 -0.1
v -0.1 0.5 0.1
v -0.1 0.5 -2.98023e-08
v -0.1 0.5 -0.1
v -0.1 0.5 -0.2
v 2.98023e-08 0.1 0.2
v 2.98023e-08 0.1 0.1
v 2.98023e-08 0.2 0.2
v 2.98023e-08 0.2 0.1
v 2.98023e-08 0.4 0.2
v 2.98023e-08 0.4 0.1
v 2.98023e-08 0.5 0.2
v 2.98023e-08 0.5 0.1
v 0.2 0.1 0.2
v 0.2 0.1 0.1
v 0.2 0.2 0.2
v 0.2 0.2 0.1
v 0.2 0.4 0.2
v 0.2 0.4 0.1
v 0.2 0.5 0.2
v 0.2 0.5 0.1
v -0.1 0.1 0.2
v -0.1 0.1 0.1
v -0.1 0.2 0.2
v -0.1 0.2 0.1
v -0.1 0.4 0.2
v -0.1 0.4 0.1
v -0.1 0.5 0.2
v -0.1 0.5 0.1
v 0.1 0.1 0.2
v 0.1 0.1 0.1
v 0.1 0.2 0.2
v 0.1 0.2 0.1
v 0.1 0.4 0.2
v 0.1 0.4 0.1
v 0.1 0.5 0.2
v 0.1 0.5 0.1
v 0.2 0.1 0.1
v 0.2 0.1 -2.98023e-08
v 0.2 0.1 -0.1
v 0.2 0.1 -0.2
v 0.2 0.2 0.1
v 0.2 0.2 -2.98023e-08
v 0.2 0.2 -0.1
v 0.2 0.4 0.1
v 0.2 0.4 -2.98023e-08
v 0.2 0.4 -0.1
v 0.2 0.5 0.1
v 0.2 0.5 -2.98023e-08
v 0.2 0.5 -0.1
v 0.2 0.5 -0.2
v 0.3 0 0.2
v 0.3 0 -0.3
v 0.3 0.1 0.1
v 0.3 0.1 -2.98023e-08
v 0.3 0.1 -0.1
v 0.3 0.1 -0.2
v 0.3 0.2 0.2
v 0.3 0.2 0.1
v 0.3 0.2 -2.98023e-08
v 0.3 0.2 -0.1
v 0.3 0.4 0.2
v 0.3 0.4 0.1
v 0.3 0.4 -2.98023e-08
v 0.3 0.4 -0.1
v 0.3 0.5 0.1
v 0.3 0.5 -2.98023e-08
v 0.3 0.5 -0.1
v 0.3 0.5 -0.2
v 0.3 0.6 0.2
v 0.3 0.6 -0.3
v -0.2 0 0.2
v -0.2 0.2 0.2
v -0.2 0.4 0.2
v -0.2 0.6 0.2
v -0.1 0.1 0.2
v -0.1 0.2 0.2
v -0.1 0.4 0.2
v -0.1 0.5 0.2
v 2.98023e-08 0.1 0.2
v 2.98023e-08 0.2 0.2
v 2.98023e-08 0.4 0.2
v 2.98023e-08 0.5 0.2
v 0.1 0.1 0.2
v 0.1 0.2 0.2
v 0.1 0.4 0.2
v 0.1 0.5 0.2
v 0.2 0.1 0.2
v 0.2 0.2 0.2
v 0.2 0.4 0.2
v 0.2 0.5 0.2
v 0.3 0 0.2
v 0.3 0.2 0.2
v 0.3 0.4 0.2
v 0.3 0.6 0.2
v -0.1 0.1 0.1
v -0.1 0.2 0.1
v -0.1 0.4 0.1
v -0.1 0.5 0.1
v 2.98023e-08 0.1 0.1
v 2.98023e-08 0.2 0.1
v 2.98023e-08 0.4 0.1
v 2.98023e-08 0.5 0.1
v 0.1 0.1 0.1
v 0.1 0.2 0.1
v 0.1 0.4 0.1
v 0.1 0.5 0.1
v 0.2 0.1 0.1
v 0.2 0.2 0.1
v 0.2 0.4 0.1
v 0.2 0.5 0.1
v -0.2 0.1 -2.98023e-08
v -0.2 0.2 -2.98023e-08
v -0.2 0.4 -2.98023e-08
v -0.2 0.5 -2.98023e-08
v -0.1 0.1 -2.98023e-08
v -0.1 0.2 -2.98023e-08
v -0.1 0.4 -2.98023e-08
v -0.1 0.5 -2.98023e-08
v 0.2 0.1 -2.98023e-08
v 0.2 0.2 -2.98023e-08
v 0.2 0.4 -2.98023e-08
v 0.2 0.5 -2.98023e-08
v 0.3 0.1 -2.98023e-08
v 0.3 0.2 -2.98023e-08
v 0.3 0.4 -2.98023e-08
v 0.3 0.5 -2.98023e-08
v -0.2 0.1 -0.2
v -0.2 0.5 -0.2
v -0.1 0.1 -0.2
v -0.1 0.5 -0.2
v 0.2 0.1 -0.2
v 0.2 0.5 -0.2
v 0.3 0.1 -0.2
v 0.3 0.5 -0.2
v -0.2 0.1 0.1
v -0.2 0.2 0.1
v -0.2 0.4 0.1
v -0.2 0.5 0.1
v -0.1 0.1 0.1
v -0.1 0.2 0.1
v -0.1 0.4 0.1
v -0.1 0.5 0.1
v 0.2 0.1 0.1
v 0.2 0.2 0.1
v 0.2 0.4 0.1
v 0.2 0.5 0.1
v 0.3 0.1 0.1
v 0.3 0.2 0.1
v 0.3 0.4 0.1
v 0.3 0.5 0.1
v -0.2 0.1 -0.1
v -0.2 0.2 -0.1
v -0.2 0.4 -0.1
v -0.2 0.5 -0.1
v -0.1 0.1 -0.1
v -0.1 0.2 -0.1
v -0.1 0.4 -0.1
v -0.1 0.5 -0.1
v 0.2 0.1 -0.1
v 0.2 0.2 -0.1
v 0.2 0.4 -0.1
v 0.2 0.5 -0.1
v 0.3 0.1 -0.1
v 0.3 0.2 -0.1
v 0.3 0.4 -0.1
v 0.3 0.5 -0.1
v -0.2 0 -0.3
v -0.2 0.6 -0.3
v 0.3 0 -0.3
v 0.3 0.6 -0.3
v -0.2 0 0.2
v 0.3 0 0.2
v -0.2 0 -0.3
v 0.3 0 -0.3
v -0.2 0.4 0.2
v -0.1 0.4 0.2
v 2.98023e-08 0.4 0.2
v 0.1 0.4 0.2
v 0.2 0.4 0.2
v 0.3 0.4 0.2
v -0.2 0.4 0.1
v -0.1 0.4 0.1
v 2.98023e-08 0.4 0.1
v 0.1 0.4 0.1
v 0.2 0.4 0.1
v 0.3 0.4 0.1
v -0.2 0.4 -2.98023e-08
v -0.1 0.4 -2.98023e-08
v 0.2 0.4 -2.98023e-08
v 0.3 0.4 -2.98023e-08
v -0.2 0.4 -0.1
v -0.1 0.4 -0.1
v 0.2 0.4 -0.1
v 0.3 0.4 -0.1
v -0.1 0.5 0.2
v 2.98023e-08 0.5 0.2
v 0.1 0.5 0.2
v 0.2 0.5 0.2
v -0.2 0.5 0.1
v -0.1 0.5 0.1
v 2.98023e-08 0.5 0.1
v 0.1 0.5 0.1
v 0.2 0.5 0.1
v 0.3 0.5 0.1
v -0.2 0.5 -2.98023e-08
v -0.1 0.5 -2.98023e-08
v 0.2 0.5 -2.98023e-08
v 0.3 0.5 -2.98023e-08
v -0.2 0.5 -0.1
v -0.1 0.5 -0.1
v 0.2 0.5 -0.1
v 0.3 0.5 -0.1
v -0.2 0.5 -0.2
v -0.1 0.5 -0.2
v 0.2 0.5 -0.2
v 0.3 0.5 -0.2
v -0.1 0.1 0.2
v 2.98023e-08 0.1 0.2
v 0.1 0.1 0.2
v 0.2 0.1 0.2
v -0.2 0.1 0.1
v -0.1 0.1 0.1
v 2.98023e-08 0.1 0.1
v 0.1 0.1 0.1
v 0.2 0.1 0.1
v 0.3 0.1 0.1
v -0.2 0.1 -2.98023e-08
v -0.1 0.1 -2.98023e-08
v 0.2 0.1 -2.98023e-08
v 0.3 0.1 -2.98023e-08
v -0.2 0.1 -0.1
v -0.1 0.1 -0.1
v 0.2 0.1 -0.1
v 0.3 0.1 -0.1
v -0.2 0.1 -0.2
v -0.1 0.1 -0.2
v 0.2 0.1 -0.2
v 0.3 0.1 -0.2
v -0.2 0.2 0.2
v -0.1 0.2 0.2
v 2.98023e-08 0.2 0.2
v 0.1 0.2 0.2
v 0.2 0.2 0.2
v 0.3 0.2 0.2
v -0.2 0.2 0.1
v -0.1 0.2 0.1
v 2.98023e-08 0.2 0.1
v 0.1 0.2 0.1
v 0.2 0.2 0.1
v 0.3 0.2 0.1
v -0.2 0.2 -2.98023e-08
v -0.1 0.2 -2.98023e-08
v 0.2 0.2 -2.98023e-08
v 0.3 0.2 -2.98023e-08
v -0.2 0.2 -0.1
v -0.1 0.2 -0.1
v 0.2 0.2 -0.1
v 0.3 0.2 -0.1
v -0.2 0.6 0.2
v 0.3 0.6 0.2
v 2.98023e-08 0.6 -2.98023e-08
v 0.1 0.6 -2.98023e-08
v 2.98023e-08 0.6 -0.1
v 0.1 0.6 -0.1
v 0.2 0.6 -0.1
v 0.1 0.6 -0.2
v 0.2 0.6 -0.2
v -0.2 0.6 -0.3
v 0.3 0.6 -0.3

# faces
f 3/1/1 2/1/1 1/1/1
f 4/1/1 2/1/1 3/1/1
f 5/1/1 2/1/1 4/1/1
f 6/1/1 2/1/1 5/1/1
f 7/1/1 3/1/1 1/1/1
f 8/1/1 3/1/1 7/1/1
f 9/1/1 5/1/1 4/1/1
f 10/1/1 5/1/1 9/1/1
f 15/1/1 12/1/1 11/1/1
f 16/1/1 14/1/1 13/1/1
f 17/1/1 14/1/1 16/1/1
f 18/1/1 2/1/1 6/1/1
f 19/1/1 17/1/1 16/1/1
f 19/1/1 18/1/1 17/1/1
f 19/1/1 16/1/1 15/1/1
f 19/1/1 15/1/1 11/1/1
f 20/1/1 2/1/1 18/1/1
f 20/1/1 18/1/1 19/1/1
f 25/3/1 22/3/1 21/3/1
f 26/3/1 22/3/1 25/3/1
f 27/3/1 24/3/1 23/3/1
f 28/3/1 26/3/1 25/3/1
f 28/3/1 27/3/1 26/3/1
f 29/3/1 27/3/1 28/3/1
f 30/3/1 24/3/1 27/3/1
f 30/3/1 27/3/1 29/3/1
f 31/3/1 29/3/1 28/3/1
f 32/3/1 29/3/1 31/3/1
f 33/3/1 24/3/1 30/3/1
f 34/3/1 24/3/1 33/3/1
f 37/1/1 36/1/1 35/1/1
f 38/1/1 36/1/1 37/1/1
f 41/1/1 40/1/1 39/1/1
f 42/1/1 40/1/1 41/1/1
f 45/1/1 44/1/1 43/1/1
f 46/1/1 44/1/1 45/1/1
f 49/1/1 48/1/1 47/1/1
f 50/1/1 48/1/1 49/1/1
f 51/1/2 52/1/2 53/1/2
f 53/1/2 52/1/2 54/1/2
f 55/1/2 56/1/2 57/1/2
f 57/1/2 56/1/2 58/1/2
f 59/1/2 60/1/2 61/1/2
f 61/1/2 60/1/2 62/1/2
f 63/1/2 64/1/2 65/1/2
f 65/1/2 64/1/2 66/1/2
f 67/3/2 68/3/2 71/3/2
f 71/3/2 68/3/2 72/3/2
f 69/3/2 70/3/2 73/3/2
f 71/3/2 72/3/2 74/3/2
f 72/3/2 73/3/2 74/3/2
f 74/3/2 73/3/2 75/3/2
f 73/3/2 70/3/2 76/3/2
f 75/3/2 73/3/2 76/3/2
f 74/3/2 75/3/2 77/3/2
f 77/3/2 75/3/2 78/3/2
f 76/3/2 70/3/2 79/3/2
f 79/3/2 70/3/2 80/3/2
f 81/1/2 82/1/2 83/1/2
f 83/1/2 82/1/2 84/1/2
f 84/1/2 82/1/2 85/1/2
f 85/1/2 82/1/2 86/1/2
f 81/1/2 83/1/2 87/1/2
f 87/1/2 83/1/2 88/1/2
f 84/1/2 85/1/2 89/1/2
f 89/1/2 85/1/2 90/1/2
f 91/1/2 92/1/2 95/1/2
f 93/1/2 94/1/2 96/1/2
f 96/1/2 94/1/2 97/1/2
f 86/1/2 82/1/2 98/1/2
f 96/1/2 97/1/2 99/1/2
f 97/1/2 98/1/2 99/1/2
f 95/1/2 96/1/2 99/1/2
f 91/1/2 95/1/2 99/1/2
f 98/1/2 82/1/2 100/1/2
f 99/1/2 98/1/2 100/1/2
f 105/1/3 102/1/3 101/1/3
f 106/1/3 102/1/3 105/1/3
f 107/1/3 104/1/3 103/1/3
f 108/1/3 104/1/3 107/1/3
f 109/1/3 105/1/3 101/1/3
f 112/1/3 104/1/3 108/1/3
f 113/1/3 110/1/3 109/1/3
f 113/1/3 109/1/3 101/1/3
f 114/1/3 110/1/3 113/1/3
f 115/1/3 112/1/3 111/1/3
f 116/1/3 104/1/3 112/1/3
f 116/1/3 112/1/3 115/1/3
f 117/1/3 113/1/3 101/1/3
f 120/1/3 104/1/3 116/1/3
f 121/1/3 118/1/3 117/1/3
f 121/1/3 117/1/3 101/1/3
f 122/1/3 118/1/3 121/1/3
f 123/1/3 120/1/3 119/1/3
f 124/1/3 104/1/3 120/1/3
f 124/1/3 120/1/3 123/1/3
f 129/3/3 126/3/3 125/3/3
f 129/3/3 128/3/3 127/3/3
f 129/3/3 127/3/3 126/3/3
f 130/3/3 128/3/3 129/3/3
f 131/3/3 128/3/3 130/3/3
f 132/3/3 128/3/3 131/3/3
f 134/3/3 131/3/3 130/3/3
f 135/3/3 131/3/3 134/3/3
f 137/3/3 134/3/3 133/3/3
f 137/3/3 136/3/3 135/3/3
f 137/3/3 135/3/3 134/3/3
f 138/3/3 136/3/3 137/3/3
f 139/3/3 136/3/3 138/3/3
f 140/3/3 136/3/3 139/3/3
f 145/1/3 142/1/3 141/1/3
f 146/1/3 142/1/3 145/1/3
f 147/1/3 144/1/3 143/1/3
f 148/1/3 144/1/3 147/1/3
f 153/1/3 150/1/3 149/1/3
f 154/1/3 150/1/3 153/1/3
f 155/1/3 152/1/3 151/1/3
f 156/1/3 152/1/3 155/1/3
f 159/1/3 158/1/3 157/1/3
f 160/1/3 158/1/3 159/1/3
f 163/1/3 162/1/3 161/1/3
f 164/1/3 162/1/3 163/1/3
f 165/1/4 166/1/4 169/1/4
f 169/1/4 166/1/4 170/1/4
f 167/1/4 168/1/4 171/1/4
f 171/1/4 168/1/4 172/1/4
f 173/1/4 174/1/4 177/1/4
f 177/1/4 174/1/4 178/1/4
f 175/1/4 176/1/4 179/1/4
f 179/1/4 176/1/4 180/1/4
f 181/1/4 182/1/4 185/1/4
f 185/1/4 182/1/4 186/1/4
f 183/1/4 184/1/4 187/1/4
f 187/1/4 184/1/4 188/1/4
f 189/1/4 190/1/4 193/1/4
f 193/1/4 190/1/4 194/1/4
f 191/1/4 192/1/4 195/1/4
f 195/1/4 192/1/4 196/1/4
f 197/1/4 198/1/4 199/1/4
f 199/1/4 198/1/4 200/1/4
f 203/1/5 202/1/5 201/1/5
f 204/1/5 202/1/5 203/1/5
f 211/1/5 206/1/5 205/1/5
f 212/1/5 206/1/5 211/1/5
f 213/1/5 208/1/5 207/1/5
f 214/1/5 208/1/5 213/1/5
f 215/1/5 210/1/5 209/1/5
f 216/1/5 210/1/5 215/1/5
f 221/1/5 218/1/5 217/1/5
f 222/1/5 218/1/5 221/1/5
f 223/1/5 220/1/5 219/1/5
f 224/1/5 220/1/5 223/1/5
f 230/1/5 226/1/5 225/1/5
f 231/1/5 226/1/5 230/1/5
f 232/1/5 228/1/5 227/1/5
f 233/1/5 228/1/5 232/1/5
f 235/1/5 230/1/5 229/1/5
f 236/1/5 230/1/5 235/1/5
f 237/1/5 234/1/5 233/1/5
f 238/1/5 234/1/5 237/1/5
f 243/1/5 240/1/5 239/1/5
f 244/1/5 240/1/5 243/1/5
f 245/1/5 242/1/5 241/1/5
f 246/1/5 242/1/5 245/1/5
f 247/1/6 248/1/6 252/1/6
f 252/1/6 248/1/6 253/1/6
f 249/1/6 250/1/6 254/1/6
f 254/1/6 250/1/6 255/1/6
f 251/1/6 252/1/6 257/1/6
f 257/1/6 252/1/6 258/1/6
f 255/1/6 256/1/6 259/1/6
f 259/1/6 256/1/6 260/1/6
f 261/1/6 262/1/6 265/1/6
f 265/1/6 262/1/6 266/1/6
f 263/1/6 264/1/6 267/1/6
f 267/1/6 264/1/6 268/1/6
f 269/1/6 270/1/6 275/1/6
f 275/1/6 270/1/6 276/1/6
f 271/1/6 272/1/6 277/1/6
f 277/1/6 272/1/6 278/1/6
f 273/1/6 274/1/6 279/1/6
f 279/1/6 274/1/6 280/1/6
f 281/1/6 282/1/6 285/1/6
f 285/1/6 282/1/6 286/1/6
f 283/1/6 284/1/6 287/1/6
f 287/1/6 284/1/6 288/1/6
f 289/1/6 290/1/6 291/1/6
f 291/1/6 290/1/6 292/1/6
f 289/1/6 291/1/6 293/1/6
f 291/2/6 292/2/6 293/2/6
f 292/1/6 290/1/6 294/1/6
f 293/2/6 292/2/6 294/2/6
f 294/1/6 290/1/6 295/1/6
f 293/1/6 294/1/6 296/1/6
f 294/2/6 295/2/6 296/2/6
f 295/1/6 290/1/6 297/1/6
f 296/2/6 295/2/6 297/2/6
f 289/1/6 293/1/6 298/1/6
f 293/1/6 296/1/6 298/1/6
f 296/1/6 297/1/6 298/1/6
f 297/1/6 290/1/6 299/1/6
f 298/1/6 297/1/6 299/1/6
