# MagicaVoxel @ Ephtracy

# group
o 

# material
mtllib swinging_axe_trap_a.mtl
usemtl palette

# normals
vn -1 0 0
vn 1 0 0
vn 0 0 1
vn 0 0 -1
vn 0 -1 0
vn 0 1 0

# texcoords
vt 0.791016 0.5
vt 0.939453 0.5
vt 0.943359 0.5

# verts
v -0.5 -1 0
v -0.5 -1 -0.1
v -0.5 -0.6 0
v -0.5 -0.6 -0.1
v -0.4 -1.1 0
v -0.4 -1.1 -0.1
v -0.4 -1 0
v -0.4 -1 -0.1
v -0.4 -0.6 0
v -0.4 -0.6 -0.1
v -0.4 -0.5 0
v -0.4 -0.5 -0.1
v -0.3 -1.2 0
v -0.3 -1.2 -0.1
v -0.3 -1.1 0
v -0.3 -1.1 -0.1
v -0.3 -0.5 0
v -0.3 -0.5 -0.1
v -0.3 -0.4 0
v -0.3 -0.4 -0.1
v 0 -1 0
v 0 -1 -0.1
v 0 -0.9 0
v 0 -0.9 -0.1
v 0 -0.7 0
v 0 -0.7 -0.1
v 0 -0.6 0
v 0 -0.6 -0.1
v 0 1.3 0
v 0 1.3 -0.1
v 0.2 -1 0
v 0.2 -1 -0.1
v 0.2 -0.9 0
v 0.2 -0.9 -0.1
v 0.2 -0.7 0
v 0.2 -0.7 -0.1
v 0.2 -0.6 0
v 0.2 -0.6 -0.1
v 0.3 -1.2 0
v 0.3 -1.2 -0.1
v 0.3 -1.1 0
v 0.3 -1.1 -0.1
v 0.3 -1 0
v 0.3 -1 -0.1
v 0.3 -0.6 0
v 0.3 -0.6 -0.1
v 0.3 -0.5 0
v 0.3 -0.5 -0.1
v 0.3 -0.4 0
v 0.3 -0.4 -0.1
v -0.2 -1.2 0
v -0.2 -1.2 -0.1
v -0.2 -1.1 0
v -0.2 -1.1 -0.1
v -0.2 -1 0
v -0.2 -1 -0.1
v -0.2 -0.6 0
v -0.2 -0.6 -0.1
v -0.2 -0.5 0
v -0.2 -0.5 -0.1
v -0.2 -0.4 0
v -0.2 -0.4 -0.1
v -0.1 -1 0
v -0.1 -1 -0.1
v -0.1 -0.9 0
v -0.1 -0.9 -0.1
v -0.1 -0.7 0
v -0.1 -0.7 -0.1
v -0.1 -0.6 0
v -0.1 -0.6 -0.1
v 0.1 -1 0
v 0.1 -1 -0.1
v 0.1 -0.9 0
v 0.1 -0.9 -0.1
v 0.1 -0.7 0
v 0.1 -0.7 -0.1
v 0.1 -0.6 0
v 0.1 -0.6 -0.1
v 0.1 1.3 0
v 0.1 1.3 -0.1
v 0.4 -1.2 0
v 0.4 -1.2 -0.1
v 0.4 -1.1 0
v 0.4 -1.1 -0.1
v 0.4 -0.5 0
v 0.4 -0.5 -0.1
v 0.4 -0.4 0
v 0.4 -0.4 -0.1
v 0.5 -1.1 0
v 0.5 -1.1 -0.1
v 0.5 -1 0
v 0.5 -1 -0.1
v 0.5 -0.6 0
v 0.5 -0.6 -0.1
v 0.5 -0.5 0
v 0.5 -0.5 -0.1
v 0.6 -1 0
v 0.6 -1 -0.1
v 0.6 -0.6 0
v 0.6 -0.6 -0.1
v -0.5 -1 0
v -0.5 -0.6 0
v -0.4 -1.1 0
v -0.4 -1 0
v -0.4 -0.6 0
v -0.4 -0.5 0
v -0.3 -1.2 0
v -0.3 -1.1 0
v -0.3 -1 0
v -0.3 -0.6 0
v -0.3 -0.5 0
v -0.3 -0.4 0
v -0.2 -1.2 0
v -0.2 -1.1 0
v -0.2 -1 0
v -0.2 -0.6 0
v -0.2 -0.5 0
v -0.2 -0.4 0
v -0.1 -1 0
v -0.1 -0.9 0
v -0.1 -0.7 0
v -0.1 -0.6 0
v 0 -1 0
v 0 -0.9 0
v 0 -0.7 0
v 0 -0.6 0
v 0 1.3 0
v 0.1 -1 0
v 0.1 -0.9 0
v 0.1 -0.7 0
v 0.1 -0.6 0
v 0.1 1.3 0
v 0.2 -1 0
v 0.2 -0.9 0
v 0.2 -0.7 0
v 0.2 -0.6 0
v 0.3 -1.2 0
v 0.3 -1.1 0
v 0.3 -1 0
v 0.3 -0.6 0
v 0.3 -0.5 0
v 0.3 -0.4 0
v 0.4 -1.2 0
v 0.4 -1.1 0
v 0.4 -1 0
v 0.4 -0.6 0
v 0.4 -0.5 0
v 0.4 -0.4 0
v 0.5 -1.1 0
v 0.5 -1 0
v 0.5 -0.6 0
v 0.5 -0.5 0
v 0.6 -1 0
v 0.6 -0.6 0
v -0.5 -1 -0.1
v -0.5 -0.6 -0.1
v -0.4 -1.1 -0.1
v -0.4 -1 -0.1
v -0.4 -0.6 -0.1
v -0.4 -0.5 -0.1
v -0.3 -1.2 -0.1
v -0.3 -1.1 -0.1
v -0.3 -1 -0.1
v -0.3 -0.6 -0.1
v -0.3 -0.5 -0.1
v -0.3 -0.4 -0.1
v -0.2 -1.2 -0.1
v -0.2 -1.1 -0.1
v -0.2 -1 -0.1
v -0.2 -0.6 -0.1
v -0.2 -0.5 -0.1
v -0.2 -0.4 -0.1
v -0.1 -1 -0.1
v -0.1 -0.9 -0.1
v -0.1 -0.7 -0.1
v -0.1 -0.6 -0.1
v 0 -1 -0.1
v 0 -0.9 -0.1
v 0 -0.7 -0.1
v 0 -0.6 -0.1
v 0 1.3 -0.1
v 0.1 -1 -0.1
v 0.1 -0.9 -0.1
v 0.1 -0.7 -0.1
v 0.1 -0.6 -0.1
v 0.1 1.3 -0.1
v 0.2 -1 -0.1
v 0.2 -0.9 -0.1
v 0.2 -0.7 -0.1
v 0.2 -0.6 -0.1
v 0.3 -1.2 -0.1
v 0.3 -1.1 -0.1
v 0.3 -1 -0.1
v 0.3 -0.6 -0.1
v 0.3 -0.5 -0.1
v 0.3 -0.4 -0.1
v 0.4 -1.2 -0.1
v 0.4 -1.1 -0.1
v 0.4 -1 -0.1
v 0.4 -0.6 -0.1
v 0.4 -0.5 -0.1
v 0.4 -0.4 -0.1
v 0.5 -1.1 -0.1
v 0.5 -1 -0.1
v 0.5 -0.6 -0.1
v 0.5 -0.5 -0.1
v 0.6 -1 -0.1
v 0.6 -0.6 -0.1
v -0.3 -1.2 0
v -0.2 -1.2 0
v 0.3 -1.2 0
v 0.4 -1.2 0
v -0.3 -1.2 -0.1
v -0.2 -1.2 -0.1
v 0.3 -1.2 -0.1
v 0.4 -1.2 -0.1
v -0.4 -1.1 0
v -0.3 -1.1 0
v 0.4 -1.1 0
v 0.5 -1.1 0
v -0.4 -1.1 -0.1
v -0.3 -1.1 -0.1
v 0.4 -1.1 -0.1
v 0.5 -1.1 -0.1
v -0.5 -1 0
v -0.4 -1 0
v -0.2 -1 0
v -0.1 -1 0
v 0 -1 0
v 0.1 -1 0
v 0.2 -1 0
v 0.3 -1 0
v 0.5 -1 0
v 0.6 -1 0
v -0.5 -1 -0.1
v -0.4 -1 -0.1
v -0.2 -1 -0.1
v -0.1 -1 -0.1
v 0 -1 -0.1
v 0.1 -1 -0.1
v 0.2 -1 -0.1
v 0.3 -1 -0.1
v 0.5 -1 -0.1
v 0.6 -1 -0.1
v -0.1 -0.9 0
v 0 -0.9 0
v 0.1 -0.9 0
v 0.2 -0.9 0
v -0.1 -0.9 -0.1
v 0 -0.9 -0.1
v 0.1 -0.9 -0.1
v 0.2 -0.9 -0.1
v -0.1 -0.7 0
v 0 -0.7 0
v 0.1 -0.7 0
v 0.2 -0.7 0
v -0.1 -0.7 -0.1
v 0 -0.7 -0.1
v 0.1 -0.7 -0.1
v 0.2 -0.7 -0.1
v -0.5 -0.6 0
v -0.4 -0.6 0
v -0.2 -0.6 0
v -0.1 -0.6 0
v 0.2 -0.6 0
v 0.3 -0.6 0
v 0.5 -0.6 0
v 0.6 -0.6 0
v -0.5 -0.6 -0.1
v -0.4 -0.6 -0.1
v -0.2 -0.6 -0.1
v -0.1 -0.6 -0.1
v 0.2 -0.6 -0.1
v 0.3 -0.6 -0.1
v 0.5 -0.6 -0.1
v 0.6 -0.6 -0.1
v -0.4 -0.5 0
v -0.3 -0.5 0
v 0.4 -0.5 0
v 0.5 -0.5 0
v -0.4 -0.5 -0.1
v -0.3 -0.5 -0.1
v 0.4 -0.5 -0.1
v 0.5 -0.5 -0.1
v -0.3 -0.4 0
v -0.2 -0.4 0
v 0.3 -0.4 0
v 0.4 -0.4 0
v -0.3 -0.4 -0.1
v -0.2 -0.4 -0.1
v 0.3 -0.4 -0.1
v 0.4 -0.4 -0.1
v 0 1.3 0
v 0.1 1.3 0
v 0 1.3 -0.1
v 0.1 1.3 -0.1

# faces
f 3/1/1 2/1/1 1/1/1
f 4/1/1 2/1/1 3/1/1
f 7/1/1 6/1/1 5/1/1
f 8/1/1 6/1/1 7/1/1
f 11/1/1 10/1/1 9/1/1
f 12/1/1 10/1/1 11/1/1
f 15/1/1 14/1/1 13/1/1
f 16/1/1 14/1/1 15/1/1
f 19/1/1 18/1/1 17/1/1
f 20/1/1 18/1/1 19/1/1
f 23/3/1 22/3/1 21/3/1
f 24/3/1 22/3/1 23/3/1
f 27/3/1 26/3/1 25/3/1
f 28/3/1 26/3/1 27/3/1
f 29/2/1 28/2/1 27/2/1
f 30/2/1 28/2/1 29/2/1
f 33/3/1 32/3/1 31/3/1
f 34/3/1 32/3/1 33/3/1
f 37/3/1 36/3/1 35/3/1
f 38/3/1 36/3/1 37/3/1
f 41/1/1 40/1/1 39/1/1
f 42/1/1 40/1/1 41/1/1
f 43/3/1 42/3/1 41/3/1
f 44/3/1 42/3/1 43/3/1
f 47/3/1 46/3/1 45/3/1
f 48/3/1 46/3/1 47/3/1
f 49/1/1 48/1/1 47/1/1
f 50/1/1 48/1/1 49/1/1
f 51/1/2 52/1/2 53/1/2
f 53/1/2 52/1/2 54/1/2
f 53/3/2 54/3/2 55/3/2
f 55/3/2 54/3/2 56/3/2
f 57/3/2 58/3/2 59/3/2
f 59/3/2 58/3/2 60/3/2
f 59/1/2 60/1/2 61/1/2
f 61/1/2 60/1/2 62/1/2
f 63/3/2 64/3/2 65/3/2
f 65/3/2 64/3/2 66/3/2
f 67/3/2 68/3/2 69/3/2
f 69/3/2 68/3/2 70/3/2
f 71/3/2 72/3/2 73/3/2
f 73/3/2 72/3/2 74/3/2
f 75/3/2 76/3/2 77/3/2
f 77/3/2 76/3/2 78/3/2
f 77/2/2 78/2/2 79/2/2
f 79/2/2 78/2/2 80/2/2
f 81/1/2 82/1/2 83/1/2
f 83/1/2 82/1/2 84/1/2
f 85/1/2 86/1/2 87/1/2
f 87/1/2 86/1/2 88/1/2
f 89/1/2 90/1/2 91/1/2
f 91/1/2 90/1/2 92/1/2
f 93/1/2 94/1/2 95/1/2
f 95/1/2 94/1/2 96/1/2
f 97/1/2 98/1/2 99/1/2
f 99/1/2 98/1/2 100/1/2
f 104/1/3 102/1/3 101/1/3
f 105/1/3 102/1/3 104/1/3
f 108/1/3 104/1/3 103/1/3
f 109/3/3 105/3/3 104/3/3
f 109/1/3 104/1/3 108/1/3
f 110/1/3 106/1/3 105/1/3
f 110/3/3 105/3/3 109/3/3
f 111/1/3 106/1/3 110/1/3
f 113/1/3 108/1/3 107/1/3
f 114/3/3 109/3/3 108/3/3
f 114/1/3 108/1/3 113/1/3
f 114/3/3 110/3/3 109/3/3
f 114/3/3 111/3/3 110/3/3
f 115/3/3 111/3/3 114/3/3
f 116/3/3 111/3/3 115/3/3
f 117/1/3 112/1/3 111/1/3
f 117/3/3 111/3/3 116/3/3
f 118/1/3 112/1/3 117/1/3
f 119/3/3 116/3/3 115/3/3
f 120/3/3 116/3/3 119/3/3
f 121/3/3 116/3/3 120/3/3
f 122/3/3 116/3/3 121/3/3
f 124/3/3 121/3/3 120/3/3
f 125/3/3 121/3/3 124/3/3
f 128/3/3 126/3/3 125/3/3
f 128/3/3 125/3/3 124/3/3
f 128/3/3 124/3/3 123/3/3
f 129/3/3 126/3/3 128/3/3
f 130/3/3 126/3/3 129/3/3
f 131/2/3 127/2/3 126/2/3
f 131/3/3 126/3/3 130/3/3
f 132/2/3 127/2/3 131/2/3
f 134/3/3 130/3/3 129/3/3
f 135/3/3 130/3/3 134/3/3
f 139/3/3 134/3/3 133/3/3
f 139/3/3 135/3/3 134/3/3
f 139/3/3 136/3/3 135/3/3
f 140/3/3 136/3/3 139/3/3
f 143/1/3 138/1/3 137/1/3
f 144/3/3 139/3/3 138/3/3
f 144/1/3 138/1/3 143/1/3
f 144/3/3 140/3/3 139/3/3
f 144/3/3 141/3/3 140/3/3
f 145/3/3 141/3/3 144/3/3
f 146/3/3 141/3/3 145/3/3
f 147/1/3 142/1/3 141/1/3
f 147/3/3 141/3/3 146/3/3
f 148/1/3 142/1/3 147/1/3
f 149/1/3 145/1/3 144/1/3
f 150/3/3 146/3/3 145/3/3
f 150/1/3 145/1/3 149/1/3
f 151/1/3 147/1/3 146/1/3
f 151/3/3 146/3/3 150/3/3
f 152/1/3 147/1/3 151/1/3
f 153/1/3 151/1/3 150/1/3
f 154/1/3 151/1/3 153/1/3
f 155/1/4 156/1/4 158/1/4
f 158/1/4 156/1/4 159/1/4
f 157/1/4 158/1/4 162/1/4
f 158/3/4 159/3/4 163/3/4
f 162/1/4 158/1/4 163/1/4
f 159/1/4 160/1/4 164/1/4
f 163/3/4 159/3/4 164/3/4
f 164/1/4 160/1/4 165/1/4
f 161/1/4 162/1/4 167/1/4
f 162/3/4 163/3/4 168/3/4
f 167/1/4 162/1/4 168/1/4
f 163/3/4 164/3/4 168/3/4
f 164/3/4 165/3/4 168/3/4
f 168/3/4 165/3/4 169/3/4
f 169/3/4 165/3/4 170/3/4
f 165/1/4 166/1/4 171/1/4
f 170/3/4 165/3/4 171/3/4
f 171/1/4 166/1/4 172/1/4
f 169/3/4 170/3/4 173/3/4
f 173/3/4 170/3/4 174/3/4
f 174/3/4 170/3/4 175/3/4
f 175/3/4 170/3/4 176/3/4
f 174/3/4 175/3/4 178/3/4
f 178/3/4 175/3/4 179/3/4
f 179/3/4 180/3/4 182/3/4
f 178/3/4 179/3/4 182/3/4
f 177/3/4 178/3/4 182/3/4
f 182/3/4 180/3/4 183/3/4
f 183/3/4 180/3/4 184/3/4
f 180/2/4 181/2/4 185/2/4
f 184/3/4 180/3/4 185/3/4
f 185/2/4 181/2/4 186/2/4
f 183/3/4 184/3/4 188/3/4
f 188/3/4 184/3/4 189/3/4
f 187/3/4 188/3/4 193/3/4
f 188/3/4 189/3/4 193/3/4
f 189/3/4 190/3/4 193/3/4
f 193/3/4 190/3/4 194/3/4
f 191/1/4 192/1/4 197/1/4
f 192/3/4 193/3/4 198/3/4
f 197/1/4 192/1/4 198/1/4
f 193/3/4 194/3/4 198/3/4
f 194/3/4 195/3/4 198/3/4
f 198/3/4 195/3/4 199/3/4
f 199/3/4 195/3/4 200/3/4
f 195/1/4 196/1/4 201/1/4
f 200/3/4 195/3/4 201/3/4
f 201/1/4 196/1/4 202/1/4
f 198/1/4 199/1/4 203/1/4
f 199/3/4 200/3/4 204/3/4
f 203/1/4 199/1/4 204/1/4
f 200/1/4 201/1/4 205/1/4
f 204/3/4 200/3/4 205/3/4
f 205/1/4 201/1/4 206/1/4
f 204/1/4 205/1/4 207/1/4
f 207/1/4 205/1/4 208/1/4
f 213/1/5 210/1/5 209/1/5
f 214/1/5 210/1/5 213/1/5
f 215/1/5 212/1/5 211/1/5
f 216/1/5 212/1/5 215/1/5
f 221/1/5 218/1/5 217/1/5
f 222/1/5 218/1/5 221/1/5
f 223/1/5 220/1/5 219/1/5
f 224/1/5 220/1/5 223/1/5
f 235/1/5 226/1/5 225/1/5
f 236/1/5 226/1/5 235/1/5
f 237/3/5 228/3/5 227/3/5
f 238/3/5 228/3/5 237/3/5
f 239/3/5 230/3/5 229/3/5
f 240/3/5 230/3/5 239/3/5
f 241/3/5 232/3/5 231/3/5
f 242/3/5 232/3/5 241/3/5
f 243/1/5 234/1/5 233/1/5
f 244/1/5 234/1/5 243/1/5
f 249/3/5 246/3/5 245/3/5
f 250/3/5 246/3/5 249/3/5
f 251/3/5 248/3/5 247/3/5
f 252/3/5 248/3/5 251/3/5
f 253/3/6 254/3/6 257/3/6
f 257/3/6 254/3/6 258/3/6
f 255/3/6 256/3/6 259/3/6
f 259/3/6 256/3/6 260/3/6
f 261/1/6 262/1/6 269/1/6
f 269/1/6 262/1/6 270/1/6
f 263/3/6 264/3/6 271/3/6
f 271/3/6 264/3/6 272/3/6
f 265/3/6 266/3/6 273/3/6
f 273/3/6 266/3/6 274/3/6
f 267/1/6 268/1/6 275/1/6
f 275/1/6 268/1/6 276/1/6
f 277/1/6 278/1/6 281/1/6
f 281/1/6 278/1/6 282/1/6
f 279/1/6 280/1/6 283/1/6
f 283/1/6 280/1/6 284/1/6
f 285/1/6 286/1/6 289/1/6
f 289/1/6 286/1/6 290/1/6
f 287/1/6 288/1/6 291/1/6
f 291/1/6 288/1/6 292/1/6
f 293/2/6 294/2/6 295/2/6
f 295/2/6 294/2/6 296/2/6
