# MagicaVoxel @ Ephtracy

# group
o 

# material
mtllib zombie_action_1.mtl
usemtl palette

# normals
vn -1 0 0
vn 1 0 0
vn 0 0 1
vn 0 0 -1
vn 0 -1 0
vn 0 1 0

# texcoords
vt 0.732422 0.5
vt 0.759766 0.5
vt 0.783203 0.5
vt 0.814453 0.5
vt 0.947266 0.5
vt 0.974609 0.5

# verts
v -0.2 0.4 0.1
v -0.2 0.4 -0.2
v -0.2 0.5 0.1
v -0.2 0.5 -0.1
v -0.2 0.5 -0.2
v -0.2 0.6 0.1
v -0.2 0.6 -0.1
v -0.2 0.7 0.3
v -0.2 0.7 0.2
v -0.2 0.7 -2.98023e-08
v -0.2 0.7 -0.1
v -0.2 0.7 -0.2
v -0.2 0.8 0.2
v -0.2 0.8 0.1
v -0.2 0.9 0.3
v -0.2 0.9 0.2
v -0.2 0.9 -2.98023e-08
v -0.2 0.9 -0.1
v -0.1 0 0.3
v -0.1 0 0.1
v -0.1 0.1 0.3
v -0.1 0.1 0.2
v -0.1 0.1 0.1
v -0.1 0.2 0.2
v -0.1 0.2 0.1
v -0.1 0.2 -2.98023e-08
v -0.1 0.4 0.2
v -0.1 0.4 0.1
v -0.1 0.4 -2.98023e-08
v -0.1 0.5 -2.98023e-08
v -0.1 0.5 -0.1
v -0.1 0.6 -2.98023e-08
v -0.1 0.6 -0.1
v -0.1 0.9 0.3
v -0.1 0.9 0.2
v -0.1 0.9 0.1
v -0.1 1.1 0.3
v -0.1 1.1 0.1
v -0.1 1.2 0.3
v -0.1 1.2 0.1
v 2.98023e-08 0.3 -2.98023e-08
v 2.98023e-08 0.3 -0.2
v 2.98023e-08 0.4 -2.98023e-08
v 2.98023e-08 0.4 -0.2
v 2.98023e-08 0.5 0.2
v 2.98023e-08 0.5 0.1
v 2.98023e-08 0.5 -2.98023e-08
v 2.98023e-08 0.6 0.2
v 2.98023e-08 0.6 0.1
v 2.98023e-08 0.6 -2.98023e-08
v 2.98023e-08 0.7 0.2
v 2.98023e-08 0.7 0.1
v 2.98023e-08 0.8 0.2
v 2.98023e-08 0.8 0.1
v 0.1 0 -2.98023e-08
v 0.1 0 -0.2
v 0.1 0.1 -2.98023e-08
v 0.1 0.1 -0.1
v 0.1 0.1 -0.2
v 0.1 0.2 -0.1
v 0.1 0.2 -0.2
v 0.1 0.3 -0.1
v 0.1 0.3 -0.2
v 0.2 0.6 0.2
v 0.2 0.6 0.1
v 0.2 0.7 0.2
v 0.2 0.7 0.1
v -0.1 0.8 0.3
v -0.1 0.8 0.2
v -0.1 0.9 0.3
v -0.1 0.9 0.2
v 2.98023e-08 0 0.3
v 2.98023e-08 0 0.1
v 2.98023e-08 0.1 0.3
v 2.98023e-08 0.1 0.2
v 2.98023e-08 0.1 0.1
v 2.98023e-08 0.2 0.2
v 2.98023e-08 0.2 0.1
v 2.98023e-08 0.2 -2.98023e-08
v 2.98023e-08 0.3 0.1
v 2.98023e-08 0.3 -2.98023e-08
v 2.98023e-08 0.4 0.2
v 2.98023e-08 0.4 0.1
v 0.1 0.7 0.3
v 0.1 0.7 0.2
v 0.1 0.8 0.3
v 0.1 0.8 0.2
v 0.2 0 -2.98023e-08
v 0.2 0 -0.2
v 0.2 0.1 -2.98023e-08
v 0.2 0.1 -0.1
v 0.2 0.1 -0.2
v 0.2 0.2 -0.1
v 0.2 0.2 -0.2
v 0.2 0.3 0.1
v 0.2 0.3 -0.1
v 0.2 0.4 0.1
v 0.2 0.4 -0.2
v 0.2 0.9 0.3
v 0.2 0.9 0.2
v 0.2 0.9 0.1
v 0.2 1.1 0.3
v 0.2 1.1 0.1
v 0.2 1.2 0.3
v 0.2 1.2 0.1
v 0.3 0.4 0.1
v 0.3 0.4 -0.2
v 0.3 0.5 0.2
v 0.3 0.5 0.1
v 0.3 0.7 -0.1
v 0.3 0.7 -0.2
v 0.3 0.9 0.2
v 0.3 0.9 -0.1
v -0.2 0.7 0.3
v -0.2 0.9 0.3
v -0.1 0 0.3
v -0.1 0.1 0.3
v -0.1 0.8 0.3
v -0.1 0.9 0.3
v -0.1 1.1 0.3
v -0.1 1.2 0.3
v 2.98023e-08 0 0.3
v 2.98023e-08 0.1 0.3
v 0.1 0.7 0.3
v 0.1 0.8 0.3
v 0.2 0.9 0.3
v 0.2 1.1 0.3
v 0.2 1.2 0.3
v -0.1 0.1 0.2
v -0.1 0.2 0.2
v -0.1 0.4 0.2
v -0.1 0.8 0.2
v -0.1 0.9 0.2
v 2.98023e-08 0.1 0.2
v 2.98023e-08 0.2 0.2
v 2.98023e-08 0.4 0.2
v 2.98023e-08 0.5 0.2
v 2.98023e-08 0.6 0.2
v 0.1 0.7 0.2
v 0.1 0.8 0.2
v 0.1 0.9 0.2
v 0.2 0.5 0.2
v 0.2 0.6 0.2
v 0.2 0.7 0.2
v 0.2 0.9 0.2
v 0.3 0.5 0.2
v 0.3 0.9 0.2
v -0.2 0.4 0.1
v -0.2 0.5 0.1
v -0.2 0.6 0.1
v -0.2 0.8 0.1
v -0.1 0.4 0.1
v 2.98023e-08 0.3 0.1
v 2.98023e-08 0.4 0.1
v 2.98023e-08 0.5 0.1
v 2.98023e-08 0.6 0.1
v 2.98023e-08 0.7 0.1
v 2.98023e-08 0.8 0.1
v 0.1 0.6 0.1
v 0.1 0.7 0.1
v 0.2 0.3 0.1
v 0.2 0.4 0.1
v 0.2 0.5 0.1
v 0.2 0.6 0.1
v 0.2 0.7 0.1
v 0.3 0.4 0.1
v 0.3 0.5 0.1
v -0.1 0.5 -2.98023e-08
v -0.1 0.6 -2.98023e-08
v 2.98023e-08 0.5 -2.98023e-08
v 2.98023e-08 0.6 -2.98023e-08
v 0.1 0 -2.98023e-08
v 0.1 0.1 -2.98023e-08
v 0.2 0 -2.98023e-08
v 0.2 0.1 -2.98023e-08
v -0.2 0.5 -0.1
v -0.2 0.6 -0.1
v -0.1 0.5 -0.1
v -0.1 0.6 -0.1
v 0.1 0.1 -0.1
v 0.1 0.2 -0.1
v 0.1 0.3 -0.1
v 0.2 0.1 -0.1
v 0.2 0.2 -0.1
v 0.2 0.3 -0.1
v -0.2 0.7 0.2
v -0.2 0.8 0.2
v 2.98023e-08 0.7 0.2
v 2.98023e-08 0.8 0.2
v -0.1 0 0.1
v -0.1 0.1 0.1
v -0.1 0.2 0.1
v -0.1 0.9 0.1
v -0.1 1.1 0.1
v -0.1 1.2 0.1
v 2.98023e-08 0 0.1
v 2.98023e-08 0.1 0.1
v 2.98023e-08 0.2 0.1
v 2.98023e-08 0.9 0.1
v 0.1 0.9 0.1
v 0.2 0.9 0.1
v 0.2 1.1 0.1
v 0.2 1.2 0.1
v -0.1 0.2 -2.98023e-08
v -0.1 0.4 -2.98023e-08
v 2.98023e-08 0.2 -2.98023e-08
v 2.98023e-08 0.3 -2.98023e-08
v 2.98023e-08 0.4 -2.98023e-08
v -0.2 0.7 -0.1
v -0.2 0.9 -0.1
v 0.1 0.7 -0.1
v 0.1 0.9 -0.1
v 0.3 0.7 -0.1
v 0.3 0.9 -0.1
v -0.2 0.4 -0.2
v -0.2 0.5 -0.2
v -0.2 0.7 -0.2
v 2.98023e-08 0.3 -0.2
v 2.98023e-08 0.4 -0.2
v 2.98023e-08 0.5 -0.2
v 2.98023e-08 0.6 -0.2
v 0.1 0 -0.2
v 0.1 0.1 -0.2
v 0.1 0.2 -0.2
v 0.1 0.3 -0.2
v 0.1 0.6 -0.2
v 0.1 0.7 -0.2
v 0.2 0 -0.2
v 0.2 0.1 -0.2
v 0.2 0.2 -0.2
v 0.2 0.4 -0.2
v 0.3 0.4 -0.2
v 0.3 0.7 -0.2
v -0.1 0 0.3
v 2.98023e-08 0 0.3
v -0.1 0 0.1
v 2.98023e-08 0 0.1
v 0.1 0 -2.98023e-08
v 0.2 0 -2.98023e-08
v 0.1 0 -0.2
v 0.2 0 -0.2
v -0.1 0.2 0.1
v 2.98023e-08 0.2 0.1
v -0.1 0.2 -2.98023e-08
v 2.98023e-08 0.2 -2.98023e-08
v 2.98023e-08 0.3 0.1
v 0.2 0.3 0.1
v 2.98023e-08 0.3 -2.98023e-08
v 0.1 0.3 -0.1
v 0.2 0.3 -0.1
v 2.98023e-08 0.3 -0.2
v 0.1 0.3 -0.2
v -0.2 0.4 0.1
v -0.1 0.4 0.1
v 0.2 0.4 0.1
v 0.3 0.4 0.1
v -0.1 0.4 -2.98023e-08
v 2.98023e-08 0.4 -2.98023e-08
v -0.2 0.4 -0.2
v 2.98023e-08 0.4 -0.2
v 0.2 0.4 -0.2
v 0.3 0.4 -0.2
v 2.98023e-08 0.5 0.2
v 0.2 0.5 0.2
v 0.3 0.5 0.2
v 2.98023e-08 0.5 0.1
v 0.2 0.5 0.1
v 0.3 0.5 0.1
v -0.2 0.6 0.1
v 2.98023e-08 0.6 0.1
v -0.1 0.6 -2.98023e-08
v 2.98023e-08 0.6 -2.98023e-08
v -0.2 0.6 -0.1
v -0.1 0.6 -0.1
v -0.2 0.7 0.3
v 0.1 0.7 0.3
v -0.2 0.7 0.2
v 2.98023e-08 0.7 0.2
v 0.1 0.7 0.2
v 0.2 0.7 0.2
v 2.98023e-08 0.7 0.1
v 0.1 0.7 0.1
v 0.2 0.7 0.1
v -0.2 0.8 0.2
v 2.98023e-08 0.8 0.2
v -0.2 0.8 0.1
v 2.98023e-08 0.8 0.1
v -0.1 0.9 0.3
v 0.2 0.9 0.3
v -0.1 0.9 0.2
v 0.1 0.9 0.2
v 0.2 0.9 0.2
v -0.1 0.1 0.3
v 2.98023e-08 0.1 0.3
v -0.1 0.1 0.2
v 2.98023e-08 0.1 0.2
v 0.1 0.1 -2.98023e-08
v 0.2 0.1 -2.98023e-08
v 0.1 0.1 -0.1
v 0.2 0.1 -0.1
v -0.1 0.4 0.2
v 2.98023e-08 0.4 0.2
v -0.1 0.4 0.1
v 2.98023e-08 0.4 0.1
v -0.2 0.5 0.1
v 2.98023e-08 0.5 0.1
v -0.1 0.5 -2.98023e-08
v 2.98023e-08 0.5 -2.98023e-08
v -0.2 0.5 -0.1
v -0.1 0.5 -0.1
v 2.98023e-08 0.6 0.2
v 0.2 0.6 0.2
v 2.98023e-08 0.6 0.1
v 0.1 0.6 0.1
v 0.2 0.6 0.1
v -0.2 0.7 -0.1
v 0.1 0.7 -0.1
v 0.3 0.7 -0.1
v -0.2 0.7 -0.2
v 0.1 0.7 -0.2
v 0.3 0.7 -0.2
v -0.1 0.8 0.3
v 0.1 0.8 0.3
v -0.1 0.8 0.2
v 0.1 0.8 0.2
v -0.2 0.9 0.3
v -0.1 0.9 0.3
v -0.2 0.9 0.2
v -0.1 0.9 0.2
v 0.2 0.9 0.2
v 0.3 0.9 0.2
v -0.1 0.9 0.1
v 2.98023e-08 0.9 0.1
v 0.1 0.9 0.1
v 0.2 0.9 0.1
v -0.2 0.9 -2.98023e-08
v 2.98023e-08 0.9 -2.98023e-08
v -0.2 0.9 -0.1
v 0.1 0.9 -0.1
v 0.3 0.9 -0.1
v -0.1 1.2 0.3
v 0.2 1.2 0.3
v -0.1 1.2 0.1
v 0.2 1.2 0.1

# faces
f 3/6/1 2/6/1 1/6/1
f 4/6/1 2/6/1 3/6/1
f 5/6/1 2/6/1 4/6/1
f 7/2/1 5/2/1 4/2/1
f 10/5/1 7/5/1 6/5/1
f 11/2/1 5/2/1 7/2/1
f 11/5/1 7/5/1 10/5/1
f 12/2/1 5/2/1 11/2/1
f 13/2/1 9/2/1 8/2/1
f 14/5/1 10/5/1 6/5/1
f 15/2/1 13/2/1 8/2/1
f 16/5/1 14/5/1 13/5/1
f 16/2/1 13/2/1 15/2/1
f 17/2/1 11/2/1 10/2/1
f 17/5/1 14/5/1 16/5/1
f 17/5/1 10/5/1 14/5/1
f 18/2/1 11/2/1 17/2/1
f 21/4/1 20/4/1 19/4/1
f 22/4/1 20/4/1 21/4/1
f 23/4/1 20/4/1 22/4/1
f 24/2/1 23/2/1 22/2/1
f 25/2/1 23/2/1 24/2/1
f 27/3/1 25/3/1 24/3/1
f 27/3/1 26/3/1 25/3/1
f 28/3/1 26/3/1 27/3/1
f 29/3/1 26/3/1 28/3/1
f 32/5/1 31/5/1 30/5/1
f 33/5/1 31/5/1 32/5/1
f 37/2/1 35/2/1 34/2/1
f 37/2/1 36/2/1 35/2/1
f 38/2/1 36/2/1 37/2/1
f 39/1/1 38/1/1 37/1/1
f 40/1/1 38/1/1 39/1/1
f 43/3/1 42/3/1 41/3/1
f 44/3/1 42/3/1 43/3/1
f 48/2/1 46/2/1 45/2/1
f 49/6/1 47/6/1 46/6/1
f 49/2/1 46/2/1 48/2/1
f 50/6/1 47/6/1 49/6/1
f 53/5/1 52/5/1 51/5/1
f 54/5/1 52/5/1 53/5/1
f 57/4/1 56/4/1 55/4/1
f 58/4/1 56/4/1 57/4/1
f 59/4/1 56/4/1 58/4/1
f 60/2/1 59/2/1 58/2/1
f 61/2/1 59/2/1 60/2/1
f 62/3/1 61/3/1 60/3/1
f 63/3/1 61/3/1 62/3/1
f 66/6/1 65/6/1 64/6/1
f 67/6/1 65/6/1 66/6/1
f 68/2/2 69/2/2 70/2/2
f 70/2/2 69/2/2 71/2/2
f 72/4/2 73/4/2 74/4/2
f 74/4/2 73/4/2 75/4/2
f 75/4/2 73/4/2 76/4/2
f 75/2/2 76/2/2 77/2/2
f 77/2/2 76/2/2 78/2/2
f 77/3/2 78/3/2 80/3/2
f 78/3/2 79/3/2 80/3/2
f 80/3/2 79/3/2 81/3/2
f 77/3/2 80/3/2 82/3/2
f 82/3/2 80/3/2 83/3/2
f 84/2/2 85/2/2 86/2/2
f 86/2/2 85/2/2 87/2/2
f 88/4/2 89/4/2 90/4/2
f 90/4/2 89/4/2 91/4/2
f 91/4/2 89/4/2 92/4/2
f 91/2/2 92/2/2 93/2/2
f 93/2/2 92/2/2 94/2/2
f 93/3/2 94/3/2 96/3/2
f 95/3/2 96/3/2 97/3/2
f 96/3/2 94/3/2 98/3/2
f 97/3/2 96/3/2 98/3/2
f 99/2/2 100/2/2 102/2/2
f 100/2/2 101/2/2 102/2/2
f 102/2/2 101/2/2 103/2/2
f 102/1/2 103/1/2 104/1/2
f 104/1/2 103/1/2 105/1/2
f 106/6/2 107/6/2 109/6/2
f 109/6/2 107/6/2 110/6/2
f 108/6/2 109/6/2 110/6/2
f 110/6/2 107/6/2 111/6/2
f 108/6/2 110/6/2 112/6/2
f 112/6/2 110/6/2 113/6/2
f 118/2/3 115/2/3 114/2/3
f 119/2/3 115/2/3 118/2/3
f 122/4/3 117/4/3 116/4/3
f 123/4/3 117/4/3 122/4/3
f 124/2/3 118/2/3 114/2/3
f 125/2/3 118/2/3 124/2/3
f 126/2/3 120/2/3 119/2/3
f 127/1/3 121/1/3 120/1/3
f 127/2/3 120/2/3 126/2/3
f 128/1/3 121/1/3 127/1/3
f 134/2/3 130/2/3 129/2/3
f 135/3/3 131/3/3 130/3/3
f 135/2/3 130/2/3 134/2/3
f 136/3/3 131/3/3 135/3/3
f 140/5/3 133/5/3 132/5/3
f 141/5/3 133/5/3 140/5/3
f 142/2/3 138/2/3 137/2/3
f 143/2/3 138/2/3 142/2/3
f 144/6/3 140/6/3 139/6/3
f 144/6/3 141/6/3 140/6/3
f 145/6/3 141/6/3 144/6/3
f 146/6/3 143/6/3 142/6/3
f 146/6/3 144/6/3 143/6/3
f 146/6/3 145/6/3 144/6/3
f 147/6/3 145/6/3 146/6/3
f 152/6/3 149/6/3 148/6/3
f 154/6/3 149/6/3 152/6/3
f 155/6/3 149/6/3 154/6/3
f 156/5/3 151/5/3 150/5/3
f 157/5/3 151/5/3 156/5/3
f 158/5/3 151/5/3 157/5/3
f 159/5/3 157/5/3 156/5/3
f 160/5/3 157/5/3 159/5/3
f 161/3/3 154/3/3 153/3/3
f 162/6/3 155/6/3 154/6/3
f 162/3/3 154/3/3 161/3/3
f 163/6/3 155/6/3 162/6/3
f 164/6/3 160/6/3 159/6/3
f 165/6/3 160/6/3 164/6/3
f 166/6/3 163/6/3 162/6/3
f 167/6/3 163/6/3 166/6/3
f 170/5/3 169/5/3 168/5/3
f 171/5/3 169/5/3 170/5/3
f 174/4/3 173/4/3 172/4/3
f 175/4/3 173/4/3 174/4/3
f 178/2/3 177/2/3 176/2/3
f 179/2/3 177/2/3 178/2/3
f 183/2/3 181/2/3 180/2/3
f 184/3/3 182/3/3 181/3/3
f 184/2/3 181/2/3 183/2/3
f 185/3/3 182/3/3 184/3/3
f 186/2/4 187/2/4 188/2/4
f 188/2/4 187/2/4 189/2/4
f 190/4/4 191/4/4 196/4/4
f 191/2/4 192/2/4 197/2/4
f 196/4/4 191/4/4 197/4/4
f 197/2/4 192/2/4 198/2/4
f 193/2/4 194/2/4 199/2/4
f 199/2/4 194/2/4 200/2/4
f 200/2/4 194/2/4 201/2/4
f 194/1/4 195/1/4 202/1/4
f 201/2/4 194/2/4 202/2/4
f 202/1/4 195/1/4 203/1/4
f 204/3/4 205/3/4 206/3/4
f 206/3/4 205/3/4 207/3/4
f 207/3/4 205/3/4 208/3/4
f 209/2/4 210/2/4 211/2/4
f 211/2/4 210/2/4 212/2/4
f 211/6/4 212/6/4 213/6/4
f 213/6/4 212/6/4 214/6/4
f 215/6/4 216/6/4 219/6/4
f 216/2/4 217/2/4 220/2/4
f 219/6/4 216/6/4 220/6/4
f 220/2/4 217/2/4 221/2/4
f 218/3/4 219/3/4 225/3/4
f 219/6/4 220/6/4 226/6/4
f 220/6/4 221/6/4 226/6/4
f 221/2/4 217/2/4 226/2/4
f 226/2/4 217/2/4 227/2/4
f 222/4/4 223/4/4 228/4/4
f 223/2/4 224/2/4 229/2/4
f 228/4/4 223/4/4 229/4/4
f 224/3/4 225/3/4 230/3/4
f 229/2/4 224/2/4 230/2/4
f 225/3/4 219/3/4 231/3/4
f 230/3/4 225/3/4 231/3/4
f 219/6/4 226/6/4 231/6/4
f 226/6/4 227/6/4 231/6/4
f 231/6/4 227/6/4 232/6/4
f 232/6/4 227/6/4 233/6/4
f 236/4/5 235/4/5 234/4/5
f 237/4/5 235/4/5 236/4/5
f 240/4/5 239/4/5 238/4/5
f 241/4/5 239/4/5 240/4/5
f 244/3/5 243/3/5 242/3/5
f 245/3/5 243/3/5 244/3/5
f 248/3/5 247/3/5 246/3/5
f 249/3/5 247/3/5 248/3/5
f 250/3/5 247/3/5 249/3/5
f 251/3/5 249/3/5 248/3/5
f 252/3/5 249/3/5 251/3/5
f 257/6/5 254/6/5 253/6/5
f 259/6/5 257/6/5 253/6/5
f 259/6/5 258/6/5 257/6/5
f 260/6/5 258/6/5 259/6/5
f 261/6/5 256/6/5 255/6/5
f 262/6/5 256/6/5 261/6/5
f 266/2/5 264/2/5 263/2/5
f 267/6/5 265/6/5 264/6/5
f 267/2/5 264/2/5 266/2/5
f 268/6/5 265/6/5 267/6/5
f 271/5/5 270/5/5 269/5/5
f 272/5/5 270/5/5 271/5/5
f 273/5/5 271/5/5 269/5/5
f 274/5/5 271/5/5 273/5/5
f 277/2/5 276/2/5 275/2/5
f 278/2/5 276/2/5 277/2/5
f 279/2/5 276/2/5 278/2/5
f 281/5/5 279/5/5 278/5/5
f 282/6/5 280/6/5 279/6/5
f 282/5/5 279/5/5 281/5/5
f 283/6/5 280/6/5 282/6/5
f 286/5/5 285/5/5 284/5/5
f 287/5/5 285/5/5 286/5/5
f 290/2/5 289/2/5 288/2/5
f 291/2/5 289/2/5 290/2/5
f 292/2/5 289/2/5 291/2/5
f 293/4/6 294/4/6 295/4/6
f 295/4/6 294/4/6 296/4/6
f 297/4/6 298/4/6 299/4/6
f 299/4/6 298/4/6 300/4/6
f 301/3/6 302/3/6 303/3/6
f 303/3/6 302/3/6 304/3/6
f 305/6/6 306/6/6 307/6/6
f 307/6/6 306/6/6 308/6/6
f 305/6/6 307/6/6 309/6/6
f 309/6/6 307/6/6 310/6/6
f 311/2/6 312/2/6 313/2/6
f 313/2/6 312/2/6 314/2/6
f 314/2/6 312/2/6 315/2/6
f 316/2/6 317/2/6 319/2/6
f 317/6/6 318/6/6 320/6/6
f 319/2/6 317/2/6 320/2/6
f 320/6/6 318/6/6 321/6/6
f 322/2/6 323/2/6 324/2/6
f 324/2/6 323/2/6 325/2/6
f 326/2/6 327/2/6 328/2/6
f 328/2/6 327/2/6 329/2/6
f 328/5/6 329/5/6 332/5/6
f 330/6/6 331/6/6 335/6/6
f 328/5/6 332/5/6 336/5/6
f 332/5/6 333/5/6 336/5/6
f 333/2/6 334/2/6 337/2/6
f 336/5/6 333/5/6 337/5/6
f 336/2/6 337/2/6 338/2/6
f 334/6/6 335/6/6 339/6/6
f 338/2/6 337/2/6 339/2/6
f 337/2/6 334/2/6 339/2/6
f 335/6/6 331/6/6 340/6/6
f 339/6/6 335/6/6 340/6/6
f 341/1/6 342/1/6 343/1/6
f 343/1/6 342/1/6 344/1/6
