# MagicaVoxel @ Ephtracy

# group
o 

# material
mtllib zombie_idle_0.mtl
usemtl palette

# normals
vn -1 0 0
vn 1 0 0
vn 0 0 1
vn 0 0 -1
vn 0 -1 0
vn 0 1 0

# texcoords
vt 0.732422 0.5
vt 0.759766 0.5
vt 0.783203 0.5
vt 0.814453 0.5
vt 0.947266 0.5
vt 0.974609 0.5

# verts
v -0.3 0.7 0.3
v -0.3 0.7 0.2
v -0.3 0.7 0.1
v -0.3 0.7 -0.2
v -0.3 0.8 0.3
v -0.3 0.8 0.2
v -0.3 0.8 0.1
v -0.3 0.8 -0.2
v -0.2 0.4 -2.98023e-08
v -0.2 0.4 -0.3
v -0.2 0.5 -2.98023e-08
v -0.2 0.5 -0.2
v -0.2 0.5 -0.3
v -0.2 0.6 -2.98023e-08
v -0.2 0.6 -0.2
v -0.2 0.7 -2.98023e-08
v -0.2 0.7 -0.2
v -0.2 0.8 -2.98023e-08
v -0.2 0.8 -0.2
v -0.2 0.9 -2.98023e-08
v -0.2 0.9 -0.2
v -0.2 0.9 -0.3
v -0.1 0 -2.98023e-08
v -0.1 0 -0.2
v -0.1 0.1 -2.98023e-08
v -0.1 0.1 -0.1
v -0.1 0.1 -0.2
v -0.1 0.2 -0.1
v -0.1 0.2 -0.2
v -0.1 0.3 -2.98023e-08
v -0.1 0.3 -0.1
v -0.1 0.4 -2.98023e-08
v -0.1 0.4 -0.2
v -0.1 0.5 -0.1
v -0.1 0.5 -0.2
v -0.1 0.6 -0.1
v -0.1 0.6 -0.2
v -0.1 0.9 0.1
v -0.1 0.9 -2.98023e-08
v -0.1 0.9 -0.1
v -0.1 1.1 0.1
v -0.1 1.1 -0.1
v -0.1 1.2 0.1
v -0.1 1.2 -0.1
v 2.98023e-08 0.5 -2.98023e-08
v 2.98023e-08 0.5 -0.1
v 2.98023e-08 0.6 -2.98023e-08
v 2.98023e-08 0.6 -0.1
v 2.98023e-08 0.7 -2.98023e-08
v 2.98023e-08 0.7 -0.1
v 2.98023e-08 0.8 -2.98023e-08
v 2.98023e-08 0.8 -0.1
v 0.1 0 -2.98023e-08
v 0.1 0 -0.2
v 0.1 0.1 -2.98023e-08
v 0.1 0.1 -0.1
v 0.1 0.1 -0.2
v 0.1 0.2 -0.1
v 0.1 0.2 -0.2
v 0.1 0.3 -0.1
v 0.1 0.3 -0.2
v 0.3 0.7 0.3
v 0.3 0.7 0.1
v 0.3 0.7 -2.98023e-08
v 0.3 0.8 0.3
v 0.3 0.8 0.1
v 0.3 0.8 -2.98023e-08
v -0.2 0.7 0.3
v -0.2 0.7 0.2
v -0.2 0.7 0.1
v -0.2 0.7 -2.98023e-08
v -0.2 0.7 -0.1
v -0.2 0.8 0.3
v -0.2 0.8 0.2
v -0.2 0.8 0.1
v -0.2 0.8 -2.98023e-08
v -0.2 0.8 -0.1
v 2.98023e-08 0 -2.98023e-08
v 2.98023e-08 0 -0.2
v 2.98023e-08 0.1 -2.98023e-08
v 2.98023e-08 0.1 -0.1
v 2.98023e-08 0.1 -0.2
v 2.98023e-08 0.2 -0.1
v 2.98023e-08 0.2 -0.2
v 2.98023e-08 0.3 -0.1
v 2.98023e-08 0.3 -0.2
v 0.2 0 -2.98023e-08
v 0.2 0 -0.2
v 0.2 0.1 -2.98023e-08
v 0.2 0.1 -0.1
v 0.2 0.1 -0.2
v 0.2 0.2 -0.1
v 0.2 0.2 -0.2
v 0.2 0.3 -2.98023e-08
v 0.2 0.3 -0.1
v 0.2 0.4 -2.98023e-08
v 0.2 0.4 -0.2
v 0.2 0.9 0.1
v 0.2 0.9 -2.98023e-08
v 0.2 0.9 -0.1
v 0.2 1.1 0.1
v 0.2 1.1 -0.1
v 0.2 1.2 0.1
v 0.2 1.2 -0.1
v 0.3 0.4 -2.98023e-08
v 0.3 0.4 -0.3
v 0.3 0.7 -2.98023e-08
v 0.3 0.7 -0.2
v 0.3 0.8 -2.98023e-08
v 0.3 0.8 -0.2
v 0.3 0.9 -2.98023e-08
v 0.3 0.9 -0.3
v 0.4 0.7 0.3
v 0.4 0.7 0.1
v 0.4 0.7 -0.2
v 0.4 0.8 0.3
v 0.4 0.8 0.1
v 0.4 0.8 -0.2
v -0.3 0.7 0.3
v -0.3 0.8 0.3
v -0.2 0.7 0.3
v -0.2 0.8 0.3
v 0.3 0.7 0.3
v 0.3 0.8 0.3
v 0.4 0.7 0.3
v 0.4 0.8 0.3
v -0.1 0.9 0.1
v -0.1 1.1 0.1
v -0.1 1.2 0.1
v 0.2 0.9 0.1
v 0.2 1.1 0.1
v 0.2 1.2 0.1
v -0.2 0.4 -2.98023e-08
v -0.2 0.5 -2.98023e-08
v -0.2 0.6 -2.98023e-08
v -0.2 0.7 -2.98023e-08
v -0.2 0.8 -2.98023e-08
v -0.2 0.9 -2.98023e-08
v -0.1 0 -2.98023e-08
v -0.1 0.1 -2.98023e-08
v -0.1 0.3 -2.98023e-08
v -0.1 0.4 -2.98023e-08
v -0.1 0.9 -2.98023e-08
v 2.98023e-08 0 -2.98023e-08
v 2.98023e-08 0.1 -2.98023e-08
v 2.98023e-08 0.5 -2.98023e-08
v 2.98023e-08 0.6 -2.98023e-08
v 2.98023e-08 0.7 -2.98023e-08
v 2.98023e-08 0.8 -2.98023e-08
v 0.1 0 -2.98023e-08
v 0.1 0.1 -2.98023e-08
v 0.1 0.6 -2.98023e-08
v 0.1 0.9 -2.98023e-08
v 0.2 0 -2.98023e-08
v 0.2 0.1 -2.98023e-08
v 0.2 0.3 -2.98023e-08
v 0.2 0.4 -2.98023e-08
v 0.2 0.9 -2.98023e-08
v 0.3 0.4 -2.98023e-08
v 0.3 0.7 -2.98023e-08
v 0.3 0.8 -2.98023e-08
v 0.3 0.9 -2.98023e-08
v -0.2 0.7 -0.1
v -0.2 0.8 -0.1
v -0.1 0.1 -0.1
v -0.1 0.2 -0.1
v -0.1 0.3 -0.1
v -0.1 0.5 -0.1
v -0.1 0.6 -0.1
v 2.98023e-08 0.1 -0.1
v 2.98023e-08 0.2 -0.1
v 2.98023e-08 0.3 -0.1
v 2.98023e-08 0.5 -0.1
v 2.98023e-08 0.6 -0.1
v 2.98023e-08 0.7 -0.1
v 2.98023e-08 0.8 -0.1
v 0.1 0.1 -0.1
v 0.1 0.2 -0.1
v 0.1 0.3 -0.1
v 0.2 0.1 -0.1
v 0.2 0.2 -0.1
v 0.2 0.3 -0.1
v -0.2 0.5 -0.2
v -0.2 0.6 -0.2
v -0.1 0.5 -0.2
v -0.1 0.6 -0.2
v -0.1 0.9 -0.1
v -0.1 1.1 -0.1
v -0.1 1.2 -0.1
v 2.98023e-08 0.9 -0.1
v 0.1 0.9 -0.1
v 0.2 0.9 -0.1
v 0.2 1.1 -0.1
v 0.2 1.2 -0.1
v -0.3 0.7 -0.2
v -0.3 0.8 -0.2
v -0.2 0.7 -0.2
v -0.2 0.8 -0.2
v -0.1 0 -0.2
v -0.1 0.1 -0.2
v -0.1 0.2 -0.2
v -0.1 0.4 -0.2
v 2.98023e-08 0 -0.2
v 2.98023e-08 0.1 -0.2
v 2.98023e-08 0.2 -0.2
v 2.98023e-08 0.3 -0.2
v 0.1 0 -0.2
v 0.1 0.1 -0.2
v 0.1 0.2 -0.2
v 0.1 0.3 -0.2
v 0.2 0 -0.2
v 0.2 0.1 -0.2
v 0.2 0.2 -0.2
v 0.2 0.4 -0.2
v 0.3 0.7 -0.2
v 0.3 0.8 -0.2
v 0.4 0.7 -0.2
v 0.4 0.8 -0.2
v -0.2 0.4 -0.3
v -0.2 0.5 -0.3
v -0.2 0.9 -0.3
v 2.98023e-08 0.5 -0.3
v 2.98023e-08 0.6 -0.3
v 0.1 0.6 -0.3
v 0.1 0.9 -0.3
v 0.3 0.4 -0.3
v 0.3 0.9 -0.3
v -0.1 0 -2.98023e-08
v 2.98023e-08 0 -2.98023e-08
v 0.1 0 -2.98023e-08
v 0.2 0 -2.98023e-08
v -0.1 0 -0.2
v 2.98023e-08 0 -0.2
v 0.1 0 -0.2
v 0.2 0 -0.2
v -0.1 0.3 -2.98023e-08
v 0.2 0.3 -2.98023e-08
v -0.1 0.3 -0.1
v 2.98023e-08 0.3 -0.1
v 0.1 0.3 -0.1
v 0.2 0.3 -0.1
v 2.98023e-08 0.3 -0.2
v 0.1 0.3 -0.2
v -0.2 0.4 -2.98023e-08
v -0.1 0.4 -2.98023e-08
v 0.2 0.4 -2.98023e-08
v 0.3 0.4 -2.98023e-08
v -0.1 0.4 -0.2
v 0.2 0.4 -0.2
v -0.2 0.4 -0.3
v 0.3 0.4 -0.3
v -0.2 0.6 -2.98023e-08
v 2.98023e-08 0.6 -2.98023e-08
v -0.1 0.6 -0.1
v 2.98023e-08 0.6 -0.1
v -0.2 0.6 -0.2
v -0.1 0.6 -0.2
v -0.3 0.7 0.3
v -0.2 0.7 0.3
v 0.3 0.7 0.3
v 0.4 0.7 0.3
v -0.3 0.7 0.2
v -0.2 0.7 0.2
v -0.3 0.7 0.1
v -0.2 0.7 0.1
v 0.3 0.7 0.1
v 0.4 0.7 0.1
v -0.2 0.7 -2.98023e-08
v 0.3 0.7 -2.98023e-08
v -0.3 0.7 -0.2
v -0.2 0.7 -0.2
v 0.3 0.7 -0.2
v 0.4 0.7 -0.2
v -0.2 0.8 -2.98023e-08
v 2.98023e-08 0.8 -2.98023e-08
v -0.2 0.8 -0.1
v 2.98023e-08 0.8 -0.1
v -0.1 0.9 0.1
v 0.2 0.9 0.1
v -0.1 0.9 -2.98023e-08
v 0.1 0.9 -2.98023e-08
v 0.2 0.9 -2.98023e-08
v -0.1 0.1 -2.98023e-08
v 2.98023e-08 0.1 -2.98023e-08
v 0.1 0.1 -2.98023e-08
v 0.2 0.1 -2.98023e-08
v -0.1 0.1 -0.1
v 2.98023e-08 0.1 -0.1
v 0.1 0.1 -0.1
v 0.2 0.1 -0.1
v -0.2 0.5 -2.98023e-08
v 2.98023e-08 0.5 -2.98023e-08
v -0.1 0.5 -0.1
v 2.98023e-08 0.5 -0.1
v -0.2 0.5 -0.2
v -0.1 0.5 -0.2
v -0.2 0.7 -2.98023e-08
v 2.98023e-08 0.7 -2.98023e-08
v -0.2 0.7 -0.1
v 2.98023e-08 0.7 -0.1
v -0.3 0.8 0.3
v -0.2 0.8 0.3
v 0.3 0.8 0.3
v 0.4 0.8 0.3
v -0.3 0.8 0.2
v -0.2 0.8 0.2
v -0.3 0.8 0.1
v -0.2 0.8 0.1
v 0.3 0.8 0.1
v 0.4 0.8 0.1
v -0.2 0.8 -2.98023e-08
v 0.3 0.8 -2.98023e-08
v -0.3 0.8 -0.2
v -0.2 0.8 -0.2
v 0.3 0.8 -0.2
v 0.4 0.8 -0.2
v -0.2 0.9 -2.98023e-08
v -0.1 0.9 -2.98023e-08
v 0.2 0.9 -2.98023e-08
v 0.3 0.9 -2.98023e-08
v -0.1 0.9 -0.1
v 2.98023e-08 0.9 -0.1
v 0.1 0.9 -0.1
v 0.2 0.9 -0.1
v -0.2 0.9 -0.2
v 2.98023e-08 0.9 -0.2
v -0.2 0.9 -0.3
v 0.1 0.9 -0.3
v 0.3 0.9 -0.3
v -0.1 1.2 0.1
v 0.2 1.2 0.1
v -0.1 1.2 -0.1
v 0.2 1.2 -0.1

# faces
f 5/2/1 2/2/1 1/2/1
f 6/6/1 3/6/1 2/6/1
f 6/2/1 2/2/1 5/2/1
f 7/2/1 4/2/1 3/2/1
f 7/6/1 3/6/1 6/6/1
f 8/2/1 4/2/1 7/2/1
f 11/6/1 10/6/1 9/6/1
f 12/6/1 10/6/1 11/6/1
f 13/6/1 10/6/1 12/6/1
f 15/2/1 13/2/1 12/2/1
f 16/5/1 15/5/1 14/5/1
f 17/2/1 13/2/1 15/2/1
f 17/5/1 15/5/1 16/5/1
f 19/2/1 13/2/1 17/2/1
f 20/5/1 19/5/1 18/5/1
f 21/2/1 13/2/1 19/2/1
f 21/5/1 19/5/1 20/5/1
f 22/2/1 13/2/1 21/2/1
f 25/4/1 24/4/1 23/4/1
f 26/4/1 24/4/1 25/4/1
f 27/4/1 24/4/1 26/4/1
f 28/2/1 27/2/1 26/2/1
f 29/2/1 27/2/1 28/2/1
f 31/3/1 29/3/1 28/3/1
f 32/3/1 31/3/1 30/3/1
f 33/3/1 29/3/1 31/3/1
f 33/3/1 31/3/1 32/3/1
f 36/5/1 35/5/1 34/5/1
f 37/5/1 35/5/1 36/5/1
f 41/2/1 39/2/1 38/2/1
f 41/2/1 40/2/1 39/2/1
f 42/2/1 40/2/1 41/2/1
f 43/1/1 42/1/1 41/1/1
f 44/1/1 42/1/1 43/1/1
f 47/6/1 46/6/1 45/6/1
f 48/6/1 46/6/1 47/6/1
f 51/5/1 50/5/1 49/5/1
f 52/5/1 50/5/1 51/5/1
f 55/4/1 54/4/1 53/4/1
f 56/4/1 54/4/1 55/4/1
f 57/4/1 54/4/1 56/4/1
f 58/2/1 57/2/1 56/2/1
f 59/2/1 57/2/1 58/2/1
f 60/3/1 59/3/1 58/3/1
f 61/3/1 59/3/1 60/3/1
f 65/2/1 63/2/1 62/2/1
f 66/6/1 64/6/1 63/6/1
f 66/2/1 63/2/1 65/2/1
f 67/6/1 64/6/1 66/6/1
f 68/2/2 69/2/2 73/2/2
f 69/6/2 70/6/2 74/6/2
f 73/2/2 69/2/2 74/2/2
f 71/2/2 72/2/2 75/2/2
f 74/6/2 70/6/2 75/6/2
f 70/2/2 71/2/2 75/2/2
f 75/2/2 72/2/2 76/2/2
f 76/2/2 72/2/2 77/2/2
f 78/4/2 79/4/2 80/4/2
f 80/4/2 79/4/2 81/4/2
f 81/4/2 79/4/2 82/4/2
f 81/2/2 82/2/2 83/2/2
f 83/2/2 82/2/2 84/2/2
f 83/3/2 84/3/2 85/3/2
f 85/3/2 84/3/2 86/3/2
f 87/4/2 88/4/2 89/4/2
f 89/4/2 88/4/2 90/4/2
f 90/4/2 88/4/2 91/4/2
f 90/2/2 91/2/2 92/2/2
f 92/2/2 91/2/2 93/2/2
f 92/3/2 93/3/2 95/3/2
f 94/3/2 95/3/2 96/3/2
f 95/3/2 93/3/2 97/3/2
f 96/3/2 95/3/2 97/3/2
f 98/2/2 99/2/2 101/2/2
f 99/2/2 100/2/2 101/2/2
f 101/2/2 100/2/2 102/2/2
f 101/1/2 102/1/2 103/1/2
f 103/1/2 102/1/2 104/1/2
f 105/6/2 106/6/2 107/6/2
f 107/6/2 106/6/2 108/6/2
f 108/6/2 106/6/2 110/6/2
f 109/6/2 110/6/2 111/6/2
f 110/6/2 106/6/2 112/6/2
f 111/6/2 110/6/2 112/6/2
f 113/2/2 114/2/2 116/2/2
f 114/6/2 115/6/2 117/6/2
f 116/2/2 114/2/2 117/2/2
f 117/6/2 115/6/2 118/6/2
f 121/2/3 120/2/3 119/2/3
f 122/2/3 120/2/3 121/2/3
f 125/2/3 124/2/3 123/2/3
f 126/2/3 124/2/3 125/2/3
f 130/2/3 128/2/3 127/2/3
f 131/1/3 129/1/3 128/1/3
f 131/2/3 128/2/3 130/2/3
f 132/1/3 129/1/3 131/1/3
f 142/6/3 134/6/3 133/6/3
f 143/5/3 138/5/3 137/5/3
f 144/4/3 140/4/3 139/4/3
f 145/4/3 140/4/3 144/4/3
f 146/6/3 134/6/3 142/6/3
f 147/5/3 136/5/3 135/5/3
f 148/5/3 136/5/3 147/5/3
f 149/5/3 143/5/3 137/5/3
f 152/5/3 149/5/3 148/5/3
f 152/5/3 148/5/3 147/5/3
f 152/6/3 147/6/3 146/6/3
f 153/5/3 143/5/3 149/5/3
f 153/5/3 149/5/3 152/5/3
f 154/4/3 151/4/3 150/4/3
f 155/4/3 151/4/3 154/4/3
f 156/3/3 142/3/3 141/3/3
f 157/6/3 146/6/3 142/6/3
f 157/3/3 142/3/3 156/3/3
f 157/6/3 152/6/3 146/6/3
f 157/6/3 153/6/3 152/6/3
f 158/6/3 153/6/3 157/6/3
f 159/6/3 158/6/3 157/6/3
f 160/6/3 158/6/3 159/6/3
f 161/6/3 158/6/3 160/6/3
f 162/6/3 158/6/3 161/6/3
f 170/2/3 166/2/3 165/2/3
f 171/3/3 167/3/3 166/3/3
f 171/2/3 166/2/3 170/2/3
f 172/3/3 167/3/3 171/3/3
f 173/5/3 169/5/3 168/5/3
f 174/5/3 169/5/3 173/5/3
f 175/5/3 164/5/3 163/5/3
f 176/5/3 164/5/3 175/5/3
f 180/2/3 178/2/3 177/2/3
f 181/3/3 179/3/3 178/3/3
f 181/2/3 178/2/3 180/2/3
f 182/3/3 179/3/3 181/3/3
f 185/2/3 184/2/3 183/2/3
f 186/2/3 184/2/3 185/2/3
f 187/2/4 188/2/4 190/2/4
f 190/2/4 188/2/4 191/2/4
f 191/2/4 188/2/4 192/2/4
f 188/1/4 189/1/4 193/1/4
f 192/2/4 188/2/4 193/2/4
f 193/1/4 189/1/4 194/1/4
f 195/2/4 196/2/4 197/2/4
f 197/2/4 196/2/4 198/2/4
f 199/4/4 200/4/4 203/4/4
f 200/2/4 201/2/4 204/2/4
f 203/4/4 200/4/4 204/4/4
f 201/3/4 202/3/4 205/3/4
f 204/2/4 201/2/4 205/2/4
f 205/3/4 202/3/4 206/3/4
f 206/3/4 202/3/4 210/3/4
f 207/4/4 208/4/4 211/4/4
f 208/2/4 209/2/4 212/2/4
f 211/4/4 208/4/4 212/4/4
f 209/3/4 210/3/4 213/3/4
f 212/2/4 209/2/4 213/2/4
f 210/3/4 202/3/4 214/3/4
f 213/3/4 210/3/4 214/3/4
f 215/6/4 216/6/4 217/6/4
f 217/6/4 216/6/4 218/6/4
f 219/6/4 220/6/4 222/6/4
f 220/2/4 221/2/4 222/2/4
f 222/2/4 221/2/4 223/2/4
f 222/6/4 223/6/4 224/6/4
f 223/2/4 221/2/4 224/2/4
f 224/2/4 221/2/4 225/2/4
f 219/6/4 222/6/4 226/6/4
f 222/6/4 224/6/4 226/6/4
f 224/6/4 225/6/4 226/6/4
f 226/6/4 225/6/4 227/6/4
f 232/4/5 229/4/5 228/4/5
f 233/4/5 229/4/5 232/4/5
f 234/4/5 231/4/5 230/4/5
f 235/4/5 231/4/5 234/4/5
f 238/3/5 237/3/5 236/3/5
f 239/3/5 237/3/5 238/3/5
f 240/3/5 237/3/5 239/3/5
f 241/3/5 237/3/5 240/3/5
f 242/3/5 240/3/5 239/3/5
f 243/3/5 240/3/5 242/3/5
f 248/6/5 245/6/5 244/6/5
f 249/6/5 247/6/5 246/6/5
f 250/6/5 248/6/5 244/6/5
f 250/6/5 249/6/5 248/6/5
f 251/6/5 247/6/5 249/6/5
f 251/6/5 249/6/5 250/6/5
f 254/5/5 253/5/5 252/5/5
f 255/5/5 253/5/5 254/5/5
f 256/5/5 254/5/5 252/5/5
f 257/5/5 254/5/5 256/5/5
f 262/2/5 259/2/5 258/2/5
f 263/2/5 259/2/5 262/2/5
f 264/6/5 263/6/5 262/6/5
f 265/6/5 263/6/5 264/6/5
f 266/2/5 261/2/5 260/2/5
f 267/2/5 261/2/5 266/2/5
f 268/2/5 265/2/5 264/2/5
f 269/6/5 267/6/5 266/6/5
f 270/2/5 268/2/5 264/2/5
f 271/2/5 268/2/5 270/2/5
f 272/6/5 267/6/5 269/6/5
f 273/6/5 267/6/5 272/6/5
f 276/5/5 275/5/5 274/5/5
f 277/5/5 275/5/5 276/5/5
f 280/2/5 279/2/5 278/2/5
f 281/2/5 279/2/5 280/2/5
f 282/2/5 279/2/5 281/2/5
f 283/4/6 284/4/6 287/4/6
f 287/4/6 284/4/6 288/4/6
f 285/4/6 286/4/6 289/4/6
f 289/4/6 286/4/6 290/4/6
f 291/6/6 292/6/6 293/6/6
f 293/6/6 292/6/6 294/6/6
f 291/6/6 293/6/6 295/6/6
f 295/6/6 293/6/6 296/6/6
f 297/5/6 298/5/6 299/5/6
f 299/5/6 298/5/6 300/5/6
f 301/2/6 302/2/6 305/2/6
f 305/2/6 302/2/6 306/2/6
f 305/6/6 306/6/6 307/6/6
f 307/6/6 306/6/6 308/6/6
f 303/2/6 304/2/6 309/2/6
f 309/2/6 304/2/6 310/2/6
f 307/2/6 308/2/6 311/2/6
f 309/6/6 310/6/6 312/6/6
f 307/2/6 311/2/6 313/2/6
f 313/2/6 311/2/6 314/2/6
f 312/6/6 310/6/6 315/6/6
f 315/6/6 310/6/6 316/6/6
f 317/5/6 318/5/6 321/5/6
f 319/6/6 320/6/6 324/6/6
f 317/5/6 321/5/6 325/5/6
f 321/5/6 322/5/6 325/5/6
f 322/2/6 323/2/6 326/2/6
f 325/5/6 322/5/6 326/5/6
f 325/2/6 326/2/6 327/2/6
f 323/6/6 324/6/6 328/6/6
f 327/2/6 326/2/6 328/2/6
f 326/2/6 323/2/6 328/2/6
f 324/6/6 320/6/6 329/6/6
f 328/6/6 324/6/6 329/6/6
f 330/1/6 331/1/6 332/1/6
f 332/1/6 331/1/6 333/1/6
