# MagicaVoxel @ Ephtracy

# group
o 

# material
mtllib treasure_chest_d_unlocked.mtl
usemtl palette

# normals
vn -1 0 0
vn 1 0 0
vn 0 0 1
vn 0 0 -1
vn 0 -1 0
vn 0 1 0

# texcoords
vt 0.912109 0.5
vt 0.939453 0.5
vt 0.970703 0.5

# verts
v -0.4 0 0.4
v -0.4 0 -0.3
v -0.4 0.1 0.3
v -0.4 0.1 -0.2
v -0.4 0.4 0.3
v -0.4 0.4 -0.2
v -0.4 0.5 0.4
v -0.4 0.5 -0.1
v -0.4 0.6 -0.2
v -0.4 0.6 -0.3
v -0.4 0.6 -0.4
v -0.4 0.7 -0.3
v -0.4 0.7 -0.4
v -0.4 0.7 -0.5
v -0.4 1 -0.3
v -0.4 1 -0.4
v -0.4 1 -0.5
v -0.4 1.1 -0.2
v -0.4 1.1 -0.3
v -0.4 1.1 -0.4
v -0.4 1.2 -0.1
v -0.4 1.2 -0.3
v -0.3 0.5 0.3
v -0.3 0.5 -0.1
v -0.3 0.6 0.3
v -0.3 0.6 0.2
v -0.3 0.6 0.1
v -0.3 0.6 -0.1
v -0.3 0.7 0.2
v -0.3 0.7 0.1
v -0.2 0.6 0.3
v -0.2 0.6 0.2
v -0.2 0.6 0
v -0.2 0.6 -0.1
v -0.2 0.7 0.3
v -0.2 0.7 0.2
v -0.2 0.7 0
v -0.2 0.7 -0.1
v -0.1 0.6 0.1
v -0.1 0.6 0
v -0.1 0.7 0.1
v -0.1 0.7 0
v 0 0.6 0
v 0 0.6 -0.1
v 0 0.7 0
v 0 0.7 -0.1
v 0.2 0.5 0.3
v 0.2 0.5 0.2
v 0.2 0.6 0.3
v 0.2 0.6 0.2
v 0.2 0.6 0
v 0.2 0.6 -0.1
v 0.2 0.7 0
v 0.2 0.7 -0.1
v 0.3 0.6 0.3
v 0.3 0.6 0.1
v 0.3 0.7 0.3
v 0.3 0.7 0.1
v -0.1 0.6 0.3
v -0.1 0.6 0.2
v -0.1 0.6 0
v -0.1 0.6 -0.1
v -0.1 0.7 0.3
v -0.1 0.7 0.2
v -0.1 0.7 0
v -0.1 0.7 -0.1
v 0 0.5 0.3
v 0 0.5 0.2
v 0 0.6 0.3
v 0 0.6 0.2
v 0 0.6 0
v 0 0.7 0.2
v 0 0.7 0
v 0.1 0.6 0
v 0.1 0.6 -0.1
v 0.1 0.7 0
v 0.1 0.7 -0.1
v 0.4 0.5 0.3
v 0.4 0.5 -0.1
v 0.4 0.6 0.1
v 0.4 0.6 0
v 0.4 0.7 0.3
v 0.4 0.7 0.1
v 0.4 0.7 0
v 0.4 0.7 -0.1
v 0.5 0 0.4
v 0.5 0 -0.3
v 0.5 0.1 0.3
v 0.5 0.1 -0.2
v 0.5 0.4 0.3
v 0.5 0.4 -0.2
v 0.5 0.5 0.4
v 0.5 0.5 -0.1
v 0.5 0.6 -0.2
v 0.5 0.6 -0.3
v 0.5 0.6 -0.4
v 0.5 0.7 -0.3
v 0.5 0.7 -0.4
v 0.5 0.7 -0.5
v 0.5 1 -0.3
v 0.5 1 -0.4
v 0.5 1 -0.5
v 0.5 1.1 -0.2
v 0.5 1.1 -0.3
v 0.5 1.1 -0.4
v 0.5 1.2 -0.1
v 0.5 1.2 -0.3
v -0.4 0 0.4
v -0.4 0.5 0.4
v -0.3 0.1 0.4
v -0.3 0.4 0.4
v -0.1 0.2 0.4
v -0.1 0.4 0.4
v 0 0.3 0.4
v 0 0.4 0.4
v 0.1 0.3 0.4
v 0.1 0.4 0.4
v 0.2 0.2 0.4
v 0.2 0.4 0.4
v 0.4 0.1 0.4
v 0.4 0.4 0.4
v 0.5 0 0.4
v 0.5 0.5 0.4
v -0.3 0.5 0.3
v -0.3 0.6 0.3
v -0.2 0.6 0.3
v -0.2 0.7 0.3
v -0.1 0.6 0.3
v -0.1 0.7 0.3
v 0 0.5 0.3
v 0 0.6 0.3
v 0.2 0.5 0.3
v 0.2 0.6 0.3
v 0.3 0.6 0.3
v 0.3 0.7 0.3
v 0.4 0.5 0.3
v 0.4 0.7 0.3
v -0.3 0.6 0.2
v -0.3 0.7 0.2
v -0.2 0.6 0.2
v -0.2 0.7 0.2
v -0.1 0.6 0.2
v -0.1 0.7 0.2
v 0 0.5 0.2
v 0 0.6 0.2
v 0 0.7 0.2
v 0.2 0.5 0.2
v 0.2 0.6 0.2
v -0.2 0.6 0
v -0.2 0.7 0
v -0.1 0.6 0
v -0.1 0.7 0
v 0 0.6 0
v 0 0.7 0
v 0.1 0.6 0
v 0.1 0.7 0
v 0.2 0.6 0
v 0.2 0.7 0
v 0.4 0.6 0
v 0.4 0.7 0
v -0.4 0.5 -0.1
v -0.4 1.2 -0.1
v -0.3 0.5 -0.1
v -0.3 0.6 -0.1
v -0.3 1.1 -0.1
v -0.2 0.6 -0.1
v -0.2 0.7 -0.1
v -0.1 0.6 -0.1
v -0.1 0.7 -0.1
v 0 0.6 -0.1
v 0 0.7 -0.1
v 0.1 0.6 -0.1
v 0.1 0.7 -0.1
v 0.2 0.6 -0.1
v 0.2 0.7 -0.1
v 0.4 0.5 -0.1
v 0.4 0.7 -0.1
v 0.4 1.1 -0.1
v 0.5 0.5 -0.1
v 0.5 1.2 -0.1
v -0.3 0.6 0.1
v -0.3 0.7 0.1
v -0.1 0.6 0.1
v -0.1 0.7 0.1
v 0.3 0.6 0.1
v 0.3 0.7 0.1
v 0.4 0.6 0.1
v 0.4 0.7 0.1
v -0.1 0.6 0
v -0.1 0.7 0
v 0 0.6 0
v 0 0.7 0
v -0.4 0 -0.3
v -0.4 0.6 -0.3
v -0.4 1.1 -0.3
v -0.4 1.2 -0.3
v -0.3 0.1 -0.3
v -0.3 0.4 -0.3
v -0.3 0.5 -0.3
v -0.3 0.6 -0.3
v -0.3 1.1 -0.3
v -0.3 1.2 -0.3
v -0.2 0.5 -0.3
v -0.2 0.6 -0.3
v -0.2 1.1 -0.3
v -0.2 1.2 -0.3
v -0.1 0.5 -0.3
v -0.1 0.6 -0.3
v -0.1 1.1 -0.3
v -0.1 1.2 -0.3
v 0.2 0.5 -0.3
v 0.2 0.6 -0.3
v 0.2 1.1 -0.3
v 0.2 1.2 -0.3
v 0.3 0.5 -0.3
v 0.3 0.6 -0.3
v 0.3 1.1 -0.3
v 0.3 1.2 -0.3
v 0.4 0.1 -0.3
v 0.4 0.4 -0.3
v 0.4 0.5 -0.3
v 0.4 0.6 -0.3
v 0.4 1.1 -0.3
v 0.4 1.2 -0.3
v 0.5 0 -0.3
v 0.5 0.6 -0.3
v 0.5 1.1 -0.3
v 0.5 1.2 -0.3
v -0.4 0.6 -0.4
v -0.4 0.7 -0.4
v -0.4 1 -0.4
v -0.4 1.1 -0.4
v -0.3 0.6 -0.4
v -0.3 0.7 -0.4
v -0.3 1 -0.4
v -0.3 1.1 -0.4
v -0.2 0.6 -0.4
v -0.2 0.7 -0.4
v -0.2 1 -0.4
v -0.2 1.1 -0.4
v -0.1 0.6 -0.4
v -0.1 0.7 -0.4
v -0.1 1 -0.4
v -0.1 1.1 -0.4
v 0.2 0.6 -0.4
v 0.2 0.7 -0.4
v 0.2 1 -0.4
v 0.2 1.1 -0.4
v 0.3 0.6 -0.4
v 0.3 0.7 -0.4
v 0.3 1 -0.4
v 0.3 1.1 -0.4
v 0.4 0.6 -0.4
v 0.4 0.7 -0.4
v 0.4 1 -0.4
v 0.4 1.1 -0.4
v 0.5 0.6 -0.4
v 0.5 0.7 -0.4
v 0.5 1 -0.4
v 0.5 1.1 -0.4
v -0.4 0.7 -0.5
v -0.4 1 -0.5
v -0.3 0.7 -0.5
v -0.3 1 -0.5
v -0.2 0.7 -0.5
v -0.2 1 -0.5
v -0.1 0.7 -0.5
v -0.1 1 -0.5
v 0.2 0.7 -0.5
v 0.2 1 -0.5
v 0.3 0.7 -0.5
v 0.3 1 -0.5
v 0.4 0.7 -0.5
v 0.4 1 -0.5
v 0.5 0.7 -0.5
v 0.5 1 -0.5
v -0.4 0 0.4
v 0.5 0 0.4
v -0.4 0 -0.3
v 0.5 0 -0.3
v -0.4 0.6 -0.3
v -0.3 0.6 -0.3
v -0.2 0.6 -0.3
v -0.1 0.6 -0.3
v 0.2 0.6 -0.3
v 0.3 0.6 -0.3
v 0.4 0.6 -0.3
v 0.5 0.6 -0.3
v -0.4 0.6 -0.4
v -0.3 0.6 -0.4
v -0.2 0.6 -0.4
v -0.1 0.6 -0.4
v 0.2 0.6 -0.4
v 0.3 0.6 -0.4
v 0.4 0.6 -0.4
v 0.5 0.6 -0.4
v -0.4 0.7 -0.4
v -0.3 0.7 -0.4
v -0.2 0.7 -0.4
v -0.1 0.7 -0.4
v 0.2 0.7 -0.4
v 0.3 0.7 -0.4
v 0.4 0.7 -0.4
v 0.5 0.7 -0.4
v -0.4 0.7 -0.5
v -0.3 0.7 -0.5
v -0.2 0.7 -0.5
v -0.1 0.7 -0.5
v 0.2 0.7 -0.5
v 0.3 0.7 -0.5
v 0.4 0.7 -0.5
v 0.5 0.7 -0.5
v -0.4 0.5 0.4
v 0.5 0.5 0.4
v -0.3 0.5 0.3
v 0 0.5 0.3
v 0.2 0.5 0.3
v 0.4 0.5 0.3
v 0 0.5 0.2
v 0.2 0.5 0.2
v -0.4 0.5 -0.1
v -0.3 0.5 -0.1
v 0.4 0.5 -0.1
v 0.5 0.5 -0.1
v -0.3 0.6 0.3
v -0.2 0.6 0.3
v -0.1 0.6 0.3
v 0 0.6 0.3
v 0.2 0.6 0.3
v 0.3 0.6 0.3
v -0.3 0.6 0.2
v -0.2 0.6 0.2
v -0.1 0.6 0.2
v 0 0.6 0.2
v 0.2 0.6 0.2
v -0.3 0.6 0.1
v -0.1 0.6 0.1
v 0.3 0.6 0.1
v 0.4 0.6 0.1
v -0.2 0.6 0
v -0.1 0.6 0
v 0 0.6 0
v 0.1 0.6 0
v 0.2 0.6 0
v 0.4 0.6 0
v -0.3 0.6 -0.1
v -0.2 0.6 -0.1
v -0.1 0.6 -0.1
v 0 0.6 -0.1
v 0.1 0.6 -0.1
v 0.2 0.6 -0.1
v -0.2 0.7 0.3
v -0.1 0.7 0.3
v 0.3 0.7 0.3
v 0.4 0.7 0.3
v -0.3 0.7 0.2
v -0.2 0.7 0.2
v -0.1 0.7 0.2
v 0 0.7 0.2
v -0.3 0.7 0.1
v -0.1 0.7 0.1
v 0.3 0.7 0.1
v 0.4 0.7 0.1
v -0.2 0.7 0
v -0.1 0.7 0
v 0 0.7 0
v 0.1 0.7 0
v 0.2 0.7 0
v 0.4 0.7 0
v -0.2 0.7 -0.1
v -0.1 0.7 -0.1
v 0 0.7 -0.1
v 0.1 0.7 -0.1
v 0.2 0.7 -0.1
v 0.4 0.7 -0.1
v -0.4 1 -0.4
v -0.3 1 -0.4
v -0.2 1 -0.4
v -0.1 1 -0.4
v 0.2 1 -0.4
v 0.3 1 -0.4
v 0.4 1 -0.4
v 0.5 1 -0.4
v -0.4 1 -0.5
v -0.3 1 -0.5
v -0.2 1 -0.5
v -0.1 1 -0.5
v 0.2 1 -0.5
v 0.3 1 -0.5
v 0.4 1 -0.5
v 0.5 1 -0.5
v -0.4 1.1 -0.3
v -0.3 1.1 -0.3
v -0.2 1.1 -0.3
v -0.1 1.1 -0.3
v 0.2 1.1 -0.3
v 0.3 1.1 -0.3
v 0.4 1.1 -0.3
v 0.5 1.1 -0.3
v -0.4 1.1 -0.4
v -0.3 1.1 -0.4
v -0.2 1.1 -0.4
v -0.1 1.1 -0.4
v 0.2 1.1 -0.4
v 0.3 1.1 -0.4
v 0.4 1.1 -0.4
v 0.5 1.1 -0.4
v -0.4 1.2 -0.1
v 0.5 1.2 -0.1
v -0.3 1.2 -0.2
v -0.2 1.2 -0.2
v -0.1 1.2 -0.2
v 0.2 1.2 -0.2
v 0.3 1.2 -0.2
v 0.4 1.2 -0.2
v -0.4 1.2 -0.3
v -0.3 1.2 -0.3
v -0.2 1.2 -0.3
v -0.1 1.2 -0.3
v 0.2 1.2 -0.3
v 0.3 1.2 -0.3
v 0.4 1.2 -0.3
v 0.5 1.2 -0.3

# faces
f 3/1/1 2/1/1 1/1/1
f 4/1/1 2/1/1 3/1/1
f 5/1/1 3/1/1 1/1/1
f 5/2/1 4/2/1 3/2/1
f 6/1/1 2/1/1 4/1/1
f 6/2/1 4/2/1 5/2/1
f 7/1/1 5/1/1 1/1/1
f 7/1/1 6/1/1 5/1/1
f 8/1/1 6/1/1 7/1/1
f 9/1/1 2/1/1 6/1/1
f 9/1/1 6/1/1 8/1/1
f 10/1/1 2/1/1 9/1/1
f 12/2/1 10/2/1 9/2/1
f 12/1/1 11/1/1 10/1/1
f 13/1/1 11/1/1 12/1/1
f 15/2/1 12/2/1 9/2/1
f 15/2/1 13/2/1 12/2/1
f 16/1/1 14/1/1 13/1/1
f 16/2/1 13/2/1 15/2/1
f 17/1/1 14/1/1 16/1/1
f 18/1/1 9/1/1 8/1/1
f 18/2/1 15/2/1 9/2/1
f 19/1/1 16/1/1 15/1/1
f 19/2/1 15/2/1 18/2/1
f 20/1/1 16/1/1 19/1/1
f 21/1/1 18/1/1 8/1/1
f 21/1/1 19/1/1 18/1/1
f 22/1/1 19/1/1 21/1/1
f 25/1/1 24/1/1 23/1/1
f 26/1/1 24/1/1 25/1/1
f 27/1/1 24/1/1 26/1/1
f 28/1/1 24/1/1 27/1/1
f 29/1/1 27/1/1 26/1/1
f 30/1/1 27/1/1 29/1/1
f 35/1/1 32/1/1 31/1/1
f 36/1/1 32/1/1 35/1/1
f 37/1/1 34/1/1 33/1/1
f 38/1/1 34/1/1 37/1/1
f 41/1/1 40/1/1 39/1/1
f 42/1/1 40/1/1 41/1/1
f 45/1/1 44/1/1 43/1/1
f 46/1/1 44/1/1 45/1/1
f 49/1/1 48/1/1 47/1/1
f 50/1/1 48/1/1 49/1/1
f 53/1/1 52/1/1 51/1/1
f 54/1/1 52/1/1 53/1/1
f 57/1/1 56/1/1 55/1/1
f 58/1/1 56/1/1 57/1/1
f 59/1/2 60/1/2 63/1/2
f 63/1/2 60/1/2 64/1/2
f 61/1/2 62/1/2 65/1/2
f 65/1/2 62/1/2 66/1/2
f 67/1/2 68/1/2 69/1/2
f 69/1/2 68/1/2 70/1/2
f 70/1/2 71/1/2 72/1/2
f 72/1/2 71/1/2 73/1/2
f 74/1/2 75/1/2 76/1/2
f 76/1/2 75/1/2 77/1/2
f 78/1/2 79/1/2 80/1/2
f 80/1/2 79/1/2 81/1/2
f 78/1/2 80/1/2 82/1/2
f 82/1/2 80/1/2 83/1/2
f 81/1/2 79/1/2 84/1/2
f 84/1/2 79/1/2 85/1/2
f 86/1/2 87/1/2 88/1/2
f 88/1/2 87/1/2 89/1/2
f 86/1/2 88/1/2 90/1/2
f 88/2/2 89/2/2 90/2/2
f 89/1/2 87/1/2 91/1/2
f 90/2/2 89/2/2 91/2/2
f 86/1/2 90/1/2 92/1/2
f 90/1/2 91/1/2 92/1/2
f 92/1/2 91/1/2 93/1/2
f 91/1/2 87/1/2 94/1/2
f 93/1/2 91/1/2 94/1/2
f 94/1/2 87/1/2 95/1/2
f 94/2/2 95/2/2 97/2/2
f 95/1/2 96/1/2 97/1/2
f 97/1/2 96/1/2 98/1/2
f 94/2/2 97/2/2 100/2/2
f 97/2/2 98/2/2 100/2/2
f 98/1/2 99/1/2 101/1/2
f 100/2/2 98/2/2 101/2/2
f 101/1/2 99/1/2 102/1/2
f 93/1/2 94/1/2 103/1/2
f 94/2/2 100/2/2 103/2/2
f 100/1/2 101/1/2 104/1/2
f 103/2/2 100/2/2 104/2/2
f 104/1/2 101/1/2 105/1/2
f 93/1/2 103/1/2 106/1/2
f 103/1/2 104/1/2 106/1/2
f 106/1/2 104/1/2 107/1/2
f 110/1/3 109/1/3 108/1/3
f 111/1/3 109/1/3 110/1/3
f 112/2/3 111/2/3 110/2/3
f 113/1/3 109/1/3 111/1/3
f 113/2/3 111/2/3 112/2/3
f 114/1/3 113/1/3 112/1/3
f 115/1/3 109/1/3 113/1/3
f 115/1/3 113/1/3 114/1/3
f 116/1/3 114/1/3 112/1/3
f 116/3/3 115/3/3 114/3/3
f 117/1/3 109/1/3 115/1/3
f 117/3/3 115/3/3 116/3/3
f 118/2/3 112/2/3 110/2/3
f 118/1/3 116/1/3 112/1/3
f 118/1/3 117/1/3 116/1/3
f 119/1/3 109/1/3 117/1/3
f 119/1/3 117/1/3 118/1/3
f 120/1/3 110/1/3 108/1/3
f 120/2/3 118/2/3 110/2/3
f 120/2/3 119/2/3 118/2/3
f 121/1/3 109/1/3 119/1/3
f 121/2/3 119/2/3 120/2/3
f 122/1/3 120/1/3 108/1/3
f 122/1/3 121/1/3 120/1/3
f 123/1/3 109/1/3 121/1/3
f 123/1/3 121/1/3 122/1/3
f 126/1/3 125/1/3 124/1/3
f 128/1/3 126/1/3 124/1/3
f 128/1/3 127/1/3 126/1/3
f 129/1/3 127/1/3 128/1/3
f 130/1/3 128/1/3 124/1/3
f 131/1/3 128/1/3 130/1/3
f 134/1/3 133/1/3 132/1/3
f 136/1/3 134/1/3 132/1/3
f 136/1/3 135/1/3 134/1/3
f 137/1/3 135/1/3 136/1/3
f 140/1/3 139/1/3 138/1/3
f 141/1/3 139/1/3 140/1/3
f 145/1/3 143/1/3 142/1/3
f 146/1/3 143/1/3 145/1/3
f 147/1/3 145/1/3 144/1/3
f 148/1/3 145/1/3 147/1/3
f 151/1/3 150/1/3 149/1/3
f 152/1/3 150/1/3 151/1/3
f 155/1/3 154/1/3 153/1/3
f 156/1/3 154/1/3 155/1/3
f 159/1/3 158/1/3 157/1/3
f 160/1/3 158/1/3 159/1/3
f 163/1/3 162/1/3 161/1/3
f 164/1/3 162/1/3 163/1/3
f 165/1/3 162/1/3 164/1/3
f 166/3/3 165/3/3 164/3/3
f 167/3/3 165/3/3 166/3/3
f 169/3/3 165/3/3 167/3/3
f 170/3/3 169/3/3 168/3/3
f 171/3/3 165/3/3 169/3/3
f 171/3/3 169/3/3 170/3/3
f 173/3/3 165/3/3 171/3/3
f 174/3/3 173/3/3 172/3/3
f 175/3/3 165/3/3 173/3/3
f 175/3/3 173/3/3 174/3/3
f 177/3/3 165/3/3 175/3/3
f 178/1/3 162/1/3 165/1/3
f 178/3/3 165/3/3 177/3/3
f 179/1/3 177/1/3 176/1/3
f 179/1/3 178/1/3 177/1/3
f 180/1/3 162/1/3 178/1/3
f 180/1/3 178/1/3 179/1/3
f 181/1/4 182/1/4 183/1/4
f 183/1/4 182/1/4 184/1/4
f 185/1/4 186/1/4 187/1/4
f 187/1/4 186/1/4 188/1/4
f 189/1/4 190/1/4 191/1/4
f 191/1/4 190/1/4 192/1/4
f 193/1/4 194/1/4 197/1/4
f 197/1/4 194/1/4 198/1/4
f 198/1/4 194/1/4 199/1/4
f 199/1/4 194/1/4 200/1/4
f 195/1/4 196/1/4 201/1/4
f 201/1/4 196/1/4 202/1/4
f 199/2/4 200/2/4 203/2/4
f 198/1/4 199/1/4 203/1/4
f 203/2/4 200/2/4 204/2/4
f 201/2/4 202/2/4 205/2/4
f 205/2/4 202/2/4 206/2/4
f 203/1/4 204/1/4 207/1/4
f 198/1/4 203/1/4 207/1/4
f 207/1/4 204/1/4 208/1/4
f 205/1/4 206/1/4 209/1/4
f 209/1/4 206/1/4 210/1/4
f 207/2/4 208/2/4 211/2/4
f 198/1/4 207/1/4 211/1/4
f 211/2/4 208/2/4 212/2/4
f 209/2/4 210/2/4 213/2/4
f 213/2/4 210/2/4 214/2/4
f 211/1/4 212/1/4 215/1/4
f 198/1/4 211/1/4 215/1/4
f 215/1/4 212/1/4 216/1/4
f 213/1/4 214/1/4 217/1/4
f 217/1/4 214/1/4 218/1/4
f 193/1/4 197/1/4 219/1/4
f 197/2/4 198/2/4 219/2/4
f 198/1/4 215/1/4 220/1/4
f 219/2/4 198/2/4 220/2/4
f 215/2/4 216/2/4 221/2/4
f 220/1/4 215/1/4 221/1/4
f 221/2/4 216/2/4 222/2/4
f 217/2/4 218/2/4 223/2/4
f 223/2/4 218/2/4 224/2/4
f 221/1/4 222/1/4 225/1/4
f 219/1/4 220/1/4 225/1/4
f 193/1/4 219/1/4 225/1/4
f 220/1/4 221/1/4 225/1/4
f 225/1/4 222/1/4 226/1/4
f 223/1/4 224/1/4 227/1/4
f 227/1/4 224/1/4 228/1/4
f 229/1/4 230/1/4 233/1/4
f 233/1/4 230/1/4 234/1/4
f 231/1/4 232/1/4 235/1/4
f 235/1/4 232/1/4 236/1/4
f 233/2/4 234/2/4 237/2/4
f 237/2/4 234/2/4 238/2/4
f 235/2/4 236/2/4 239/2/4
f 239/2/4 236/2/4 240/2/4
f 237/1/4 238/1/4 241/1/4
f 241/1/4 238/1/4 242/1/4
f 239/1/4 240/1/4 243/1/4
f 243/1/4 240/1/4 244/1/4
f 241/2/4 242/2/4 245/2/4
f 245/2/4 242/2/4 246/2/4
f 243/2/4 244/2/4 247/2/4
f 247/2/4 244/2/4 248/2/4
f 245/1/4 246/1/4 249/1/4
f 249/1/4 246/1/4 250/1/4
f 247/1/4 248/1/4 251/1/4
f 251/1/4 248/1/4 252/1/4
f 249/2/4 250/2/4 253/2/4
f 253/2/4 250/2/4 254/2/4
f 251/2/4 252/2/4 255/2/4
f 255/2/4 252/2/4 256/2/4
f 253/1/4 254/1/4 257/1/4
f 257/1/4 254/1/4 258/1/4
f 255/1/4 256/1/4 259/1/4
f 259/1/4 256/1/4 260/1/4
f 261/1/4 262/1/4 263/1/4
f 263/1/4 262/1/4 264/1/4
f 263/2/4 264/2/4 265/2/4
f 265/2/4 264/2/4 266/2/4
f 265/1/4 266/1/4 267/1/4
f 267/1/4 266/1/4 268/1/4
f 267/2/4 268/2/4 269/2/4
f 269/2/4 268/2/4 270/2/4
f 269/1/4 270/1/4 271/1/4
f 271/1/4 270/1/4 272/1/4
f 271/2/4 272/2/4 273/2/4
f 273/2/4 272/2/4 274/2/4
f 273/1/4 274/1/4 275/1/4
f 275/1/4 274/1/4 276/1/4
f 279/1/5 278/1/5 277/1/5
f 280/1/5 278/1/5 279/1/5
f 289/1/5 282/1/5 281/1/5
f 290/2/5 283/2/5 282/2/5
f 290/1/5 282/1/5 289/1/5
f 291/1/5 284/1/5 283/1/5
f 291/2/5 283/2/5 290/2/5
f 292/2/5 285/2/5 284/2/5
f 292/1/5 284/1/5 291/1/5
f 293/1/5 286/1/5 285/1/5
f 293/2/5 285/2/5 292/2/5
f 294/2/5 287/2/5 286/2/5
f 294/1/5 286/1/5 293/1/5
f 295/1/5 288/1/5 287/1/5
f 295/2/5 287/2/5 294/2/5
f 296/1/5 288/1/5 295/1/5
f 305/1/5 298/1/5 297/1/5
f 306/2/5 299/2/5 298/2/5
f 306/1/5 298/1/5 305/1/5
f 307/1/5 300/1/5 299/1/5
f 307/2/5 299/2/5 306/2/5
f 308/2/5 301/2/5 300/2/5
f 308/1/5 300/1/5 307/1/5
f 309/1/5 302/1/5 301/1/5
f 309/2/5 301/2/5 308/2/5
f 310/2/5 303/2/5 302/2/5
f 310/1/5 302/1/5 309/1/5
f 311/1/5 304/1/5 303/1/5
f 311/2/5 303/2/5 310/2/5
f 312/1/5 304/1/5 311/1/5
f 313/1/6 314/1/6 315/1/6
f 315/1/6 314/1/6 316/1/6
f 316/1/6 314/1/6 317/1/6
f 317/1/6 314/1/6 318/1/6
f 316/1/6 317/1/6 319/1/6
f 319/1/6 317/1/6 320/1/6
f 313/1/6 315/1/6 321/1/6
f 321/1/6 315/1/6 322/1/6
f 318/1/6 314/1/6 323/1/6
f 323/1/6 314/1/6 324/1/6
f 325/1/6 326/1/6 331/1/6
f 331/1/6 326/1/6 332/1/6
f 327/1/6 328/1/6 333/1/6
f 333/1/6 328/1/6 334/1/6
f 329/1/6 330/1/6 335/1/6
f 334/1/6 335/1/6 338/1/6
f 335/1/6 330/1/6 338/1/6
f 336/1/6 337/1/6 340/1/6
f 340/1/6 337/1/6 341/1/6
f 338/1/6 339/1/6 342/1/6
f 334/1/6 338/1/6 342/1/6
f 342/1/6 339/1/6 343/1/6
f 343/1/6 339/1/6 344/1/6
f 344/1/6 339/1/6 345/1/6
f 336/1/6 340/1/6 346/1/6
f 346/1/6 340/1/6 347/1/6
f 341/1/6 342/1/6 348/1/6
f 348/1/6 342/1/6 349/1/6
f 343/1/6 344/1/6 350/1/6
f 350/1/6 344/1/6 351/1/6
f 352/1/6 353/1/6 357/1/6
f 357/1/6 353/1/6 358/1/6
f 356/1/6 357/1/6 360/1/6
f 358/1/6 359/1/6 360/1/6
f 357/1/6 358/1/6 360/1/6
f 360/1/6 359/1/6 361/1/6
f 354/1/6 355/1/6 362/1/6
f 362/1/6 355/1/6 363/1/6
f 361/1/6 359/1/6 365/1/6
f 365/1/6 359/1/6 366/1/6
f 364/1/6 365/1/6 370/1/6
f 370/1/6 365/1/6 371/1/6
f 366/1/6 367/1/6 372/1/6
f 372/1/6 367/1/6 373/1/6
f 368/1/6 369/1/6 374/1/6
f 374/1/6 369/1/6 375/1/6
f 376/1/6 377/1/6 384/1/6
f 377/2/6 378/2/6 385/2/6
f 384/1/6 377/1/6 385/1/6
f 378/1/6 379/1/6 386/1/6
f 385/2/6 378/2/6 386/2/6
f 379/2/6 380/2/6 387/2/6
f 386/1/6 379/1/6 387/1/6
f 380/1/6 381/1/6 388/1/6
f 387/2/6 380/2/6 388/2/6
f 381/2/6 382/2/6 389/2/6
f 388/1/6 381/1/6 389/1/6
f 382/1/6 383/1/6 390/1/6
f 389/2/6 382/2/6 390/2/6
f 390/1/6 383/1/6 391/1/6
f 392/1/6 393/1/6 400/1/6
f 393/2/6 394/2/6 401/2/6
f 400/1/6 393/1/6 401/1/6
f 394/1/6 395/1/6 402/1/6
f 401/2/6 394/2/6 402/2/6
f 395/2/6 396/2/6 403/2/6
f 402/1/6 395/1/6 403/1/6
f 396/1/6 397/1/6 404/1/6
f 403/2/6 396/2/6 404/2/6
f 397/2/6 398/2/6 405/2/6
f 404/1/6 397/1/6 405/1/6
f 398/1/6 399/1/6 406/1/6
f 405/2/6 398/2/6 406/2/6
f 406/1/6 399/1/6 407/1/6
f 408/1/6 409/1/6 410/1/6
f 410/1/6 409/1/6 411/1/6
f 411/1/6 409/1/6 412/1/6
f 412/1/6 409/1/6 413/1/6
f 413/1/6 409/1/6 414/1/6
f 414/1/6 409/1/6 415/1/6
f 408/1/6 410/1/6 416/1/6
f 410/2/6 411/2/6 417/2/6
f 416/1/6 410/1/6 417/1/6
f 411/1/6 412/1/6 418/1/6
f 417/2/6 411/2/6 418/2/6
f 412/2/6 413/2/6 419/2/6
f 418/1/6 412/1/6 419/1/6
f 413/1/6 414/1/6 420/1/6
f 419/2/6 413/2/6 420/2/6
f 414/2/6 415/2/6 421/2/6
f 420/1/6 414/1/6 421/1/6
f 415/1/6 409/1/6 422/1/6
f 421/2/6 415/2/6 422/2/6
f 422/1/6 409/1/6 423/1/6
