# MagicaVoxel @ Ephtracy

# group
o 

# material
mtllib minotaur_action_0.mtl
usemtl palette

# normals
vn -1 0 0
vn 1 0 0
vn 0 0 1
vn 0 0 -1
vn 0 -1 0
vn 0 1 0

# texcoords
vt 0.783203 0.5
vt 0.791016 0.5
vt 0.814453 0.5
vt 0.818359 0.5
vt 0.943359 0.5
vt 0.947266 0.5
vt 0.970703 0.5

# verts
v -0.3 0.8 0.2
v -0.3 0.8 -0.1
v -0.3 1.1 0.2
v -0.3 1.1 -0.1
v -0.3 1.2 -0.1
v -0.3 1.2 -0.2
v -0.3 1.4 -0.1
v -0.3 1.4 -0.2
v -0.2 0.7 0.1
v -0.2 0.7 -0.2
v -0.2 0.8 0.1
v -0.2 0.8 -0.1
v -0.2 1.1 -0.1
v -0.2 1.1 -0.2
v -0.1 0.1 0.1
v -0.1 0.1 0
v -0.1 0.2 0.1
v -0.1 0.2 0
v -0.1 0.2 -0.1
v -0.1 0.3 0.2
v -0.1 0.3 0
v -0.1 0.3 -0.1
v -0.1 0.3 -0.2
v -0.1 0.5 0.2
v -0.1 0.5 0.1
v -0.1 0.5 0
v -0.1 0.6 0.1
v -0.1 0.6 -0.2
v -0.1 0.7 0.1
v -0.1 0.7 -0.2
v -0.1 1.1 0.1
v -0.1 1.1 -0.2
v -0.1 1.2 -0.1
v -0.1 1.2 -0.2
v -0.1 1.3 0.1
v -0.1 1.3 -0.1
v 2.98023e-08 1.1 0.3
v 2.98023e-08 1.1 0.2
v 2.98023e-08 1.1 0.1
v 2.98023e-08 1.3 0.3
v 2.98023e-08 1.3 0.2
v 2.98023e-08 1.3 0.1
v 2.98023e-08 1.3 -0.2
v 2.98023e-08 1.4 0.2
v 2.98023e-08 1.4 -0.2
v 0.2 0 0
v 0.2 0 -0.1
v 0.2 0.1 0
v 0.2 0.1 -0.1
v 0.2 0.1 -0.2
v 0.2 0.2 0.1
v 0.2 0.2 -0.1
v 0.2 0.2 -0.2
v 0.2 0.3 0.1
v 0.2 0.3 0
v 0.2 0.3 -0.1
v 0.3 0.7 -0.3
v 0.3 0.7 -0.7
v 0.3 0.8 -0.3
v 0.3 0.8 -0.7
v 0.3 0.9 -0.3
v 0.3 0.9 -0.4
v 0.3 0.9 -0.6
v 0.3 0.9 -0.7
v 0.3 1 0.7
v 0.3 1 0.2
v 0.3 1 -0.2
v 0.3 1 -0.4
v 0.3 1 -0.6
v 0.3 1 -0.7
v 0.3 1.1 0.7
v 0.3 1.1 0.2
v 0.3 1.1 -0.2
v 0.3 1.1 -0.4
v 0.3 1.1 -0.6
v 0.3 1.1 -0.7
v 0.3 1.2 -0.3
v 0.3 1.2 -0.4
v 0.3 1.2 -0.6
v 0.3 1.2 -0.7
v 0.3 1.3 -0.3
v 0.3 1.3 -0.7
v 0.3 1.4 -0.3
v 0.3 1.4 -0.7
v 0.4 1.3 -0.1
v 0.4 1.3 -0.2
v 0.4 1.4 -0.1
v 0.4 1.4 -0.2
v -0.2 1.3 -0.1
v -0.2 1.3 -0.2
v -0.2 1.4 -0.1
v -0.2 1.4 -0.2
v 2.98023e-08 0.1 0.1
v 2.98023e-08 0.1 0
v 2.98023e-08 0.2 0.1
v 2.98023e-08 0.2 0
v 2.98023e-08 0.2 -0.1
v 2.98023e-08 0.3 0.2
v 2.98023e-08 0.3 0.1
v 2.98023e-08 0.3 0
v 2.98023e-08 0.3 -0.1
v 2.98023e-08 0.5 0.2
v 2.98023e-08 0.5 0.1
v 2.98023e-08 0.8 0.2
v 2.98023e-08 0.8 0.1
v 2.98023e-08 1 0.2
v 2.98023e-08 1 0.1
v 0.2 1.1 0.3
v 0.2 1.1 0.2
v 0.2 1.1 0.1
v 0.2 1.3 0.3
v 0.2 1.3 0.2
v 0.2 1.3 0.1
v 0.2 1.3 -0.2
v 0.2 1.4 0.2
v 0.2 1.4 -0.2
v 0.3 0 0
v 0.3 0 -0.1
v 0.3 0.1 0
v 0.3 0.1 -0.1
v 0.3 0.1 -0.2
v 0.3 0.2 0.1
v 0.3 0.2 -0.1
v 0.3 0.2 -0.2
v 0.3 0.3 0.1
v 0.3 0.3 -0.1
v 0.3 0.3 -0.2
v 0.3 0.6 0.1
v 0.3 0.6 -0.2
v 0.3 0.7 0.1
v 0.3 0.7 -0.2
v 0.3 1.1 0.1
v 0.3 1.1 0
v 0.3 1.1 -0.1
v 0.3 1.1 -0.2
v 0.3 1.2 0
v 0.3 1.2 -0.1
v 0.3 1.2 -0.2
v 0.3 1.3 0.1
v 0.3 1.3 -0.1
v 0.4 0.7 0.1
v 0.4 0.7 0
v 0.4 0.7 -0.1
v 0.4 0.7 -0.2
v 0.4 0.7 -0.3
v 0.4 0.7 -0.7
v 0.4 0.8 -0.3
v 0.4 0.8 -0.7
v 0.4 0.9 -0.3
v 0.4 0.9 -0.4
v 0.4 0.9 -0.6
v 0.4 0.9 -0.7
v 0.4 1 0.7
v 0.4 1 0.2
v 0.4 1 0.1
v 0.4 1 0
v 0.4 1 -0.1
v 0.4 1 -0.2
v 0.4 1 -0.4
v 0.4 1 -0.6
v 0.4 1 -0.7
v 0.4 1.1 0.7
v 0.4 1.1 0.2
v 0.4 1.1 0.1
v 0.4 1.1 0
v 0.4 1.1 -0.1
v 0.4 1.1 -0.4
v 0.4 1.1 -0.6
v 0.4 1.1 -0.7
v 0.4 1.2 -0.3
v 0.4 1.2 -0.4
v 0.4 1.2 -0.6
v 0.4 1.2 -0.7
v 0.4 1.3 -0.3
v 0.4 1.3 -0.7
v 0.4 1.4 -0.3
v 0.4 1.4 -0.7
v 0.5 0.7 0
v 0.5 0.7 -0.1
v 0.5 1.2 0
v 0.5 1.2 -0.1
v 0.5 1.2 -0.2
v 0.5 1.4 -0.1
v 0.5 1.4 -0.2
v 0.3 1 0.7
v 0.3 1.1 0.7
v 0.4 1 0.7
v 0.4 1.1 0.7
v 2.98023e-08 1.1 0.3
v 2.98023e-08 1.3 0.3
v 0.2 1.1 0.3
v 0.2 1.3 0.3
v -0.3 0.8 0.2
v -0.3 1.1 0.2
v -0.1 0.3 0.2
v -0.1 0.5 0.2
v 2.98023e-08 0.3 0.2
v 2.98023e-08 0.5 0.2
v 2.98023e-08 0.8 0.2
v 2.98023e-08 1 0.2
v 2.98023e-08 1.1 0.2
v 2.98023e-08 1.3 0.2
v 2.98023e-08 1.4 0.2
v 0.2 1.1 0.2
v 0.2 1.3 0.2
v 0.2 1.4 0.2
v 0.3 1 0.2
v 0.3 1.1 0.2
v -0.2 0.7 0.1
v -0.2 0.8 0.1
v -0.1 0.1 0.1
v -0.1 0.2 0.1
v -0.1 0.5 0.1
v -0.1 0.6 0.1
v -0.1 0.7 0.1
v -0.1 1.1 0.1
v -0.1 1.3 0.1
v 2.98023e-08 0.1 0.1
v 2.98023e-08 0.2 0.1
v 2.98023e-08 0.3 0.1
v 2.98023e-08 0.5 0.1
v 2.98023e-08 0.8 0.1
v 2.98023e-08 1 0.1
v 2.98023e-08 1.1 0.1
v 2.98023e-08 1.3 0.1
v 0.2 0.2 0.1
v 0.2 0.3 0.1
v 0.2 1.1 0.1
v 0.2 1.3 0.1
v 0.3 0.2 0.1
v 0.3 0.3 0.1
v 0.3 0.6 0.1
v 0.3 0.7 0.1
v 0.3 1.1 0.1
v 0.3 1.3 0.1
v 0.4 0.7 0.1
v 0.4 1 0.1
v -0.1 0.2 0
v -0.1 0.3 0
v 2.98023e-08 0.2 0
v 2.98023e-08 0.3 0
v 0.2 0 0
v 0.2 0.1 0
v 0.3 0 0
v 0.3 0.1 0
v 0.3 1.1 0
v 0.3 1.2 0
v 0.4 0.7 0
v 0.4 1 0
v 0.4 1.1 0
v 0.5 0.7 0
v 0.5 1.2 0
v -0.3 1.2 -0.1
v -0.3 1.4 -0.1
v -0.2 1.3 -0.1
v -0.2 1.4 -0.1
v -0.1 1.2 -0.1
v -0.1 1.3 -0.1
v 0.2 0.1 -0.1
v 0.2 0.2 -0.1
v 0.3 0.1 -0.1
v 0.3 0.2 -0.1
v 0.3 1.2 -0.1
v 0.3 1.3 -0.1
v 0.4 1.3 -0.1
v 0.4 1.4 -0.1
v 0.5 1.2 -0.1
v 0.5 1.4 -0.1
v 0.3 0.7 -0.3
v 0.3 0.8 -0.3
v 0.3 0.9 -0.3
v 0.3 1.2 -0.3
v 0.3 1.3 -0.3
v 0.3 1.4 -0.3
v 0.4 0.7 -0.3
v 0.4 0.8 -0.3
v 0.4 0.9 -0.3
v 0.4 1.2 -0.3
v 0.4 1.3 -0.3
v 0.4 1.4 -0.3
v 0.3 0.9 -0.4
v 0.3 1 -0.4
v 0.3 1.1 -0.4
v 0.3 1.2 -0.4
v 0.4 0.9 -0.4
v 0.4 1 -0.4
v 0.4 1.1 -0.4
v 0.4 1.2 -0.4
v -0.1 0.1 0
v -0.1 0.2 0
v 2.98023e-08 0.1 0
v 2.98023e-08 0.2 0
v -0.3 0.8 -0.1
v -0.3 1.1 -0.1
v -0.2 0.8 -0.1
v -0.2 1.1 -0.1
v -0.1 0.2 -0.1
v -0.1 0.3 -0.1
v 2.98023e-08 0.2 -0.1
v 2.98023e-08 0.3 -0.1
v 0.2 0 -0.1
v 0.2 0.1 -0.1
v 0.2 0.2 -0.1
v 0.2 0.3 -0.1
v 0.3 0 -0.1
v 0.3 0.1 -0.1
v 0.3 0.2 -0.1
v 0.3 0.3 -0.1
v 0.3 1.1 -0.1
v 0.3 1.2 -0.1
v 0.4 0.7 -0.1
v 0.4 1 -0.1
v 0.4 1.1 -0.1
v 0.5 0.7 -0.1
v 0.5 1.2 -0.1
v -0.3 1.2 -0.2
v -0.3 1.4 -0.2
v -0.2 0.7 -0.2
v -0.2 1.1 -0.2
v -0.2 1.3 -0.2
v -0.2 1.4 -0.2
v -0.1 0.3 -0.2
v -0.1 0.6 -0.2
v -0.1 0.7 -0.2
v -0.1 1.1 -0.2
v -0.1 1.2 -0.2
v -0.1 1.3 -0.2
v 2.98023e-08 1.3 -0.2
v 2.98023e-08 1.4 -0.2
v 0.2 0.1 -0.2
v 0.2 0.2 -0.2
v 0.2 1.3 -0.2
v 0.2 1.4 -0.2
v 0.3 0.1 -0.2
v 0.3 0.2 -0.2
v 0.3 0.3 -0.2
v 0.3 0.6 -0.2
v 0.3 0.7 -0.2
v 0.3 1 -0.2
v 0.3 1.1 -0.2
v 0.3 1.2 -0.2
v 0.3 1.3 -0.2
v 0.4 0.7 -0.2
v 0.4 1 -0.2
v 0.4 1.3 -0.2
v 0.4 1.4 -0.2
v 0.5 1.2 -0.2
v 0.5 1.4 -0.2
v 0.3 0.9 -0.6
v 0.3 1 -0.6
v 0.3 1.1 -0.6
v 0.3 1.2 -0.6
v 0.4 0.9 -0.6
v 0.4 1 -0.6
v 0.4 1.1 -0.6
v 0.4 1.2 -0.6
v 0.3 0.7 -0.7
v 0.3 0.8 -0.7
v 0.3 0.9 -0.7
v 0.3 1 -0.7
v 0.3 1.1 -0.7
v 0.3 1.2 -0.7
v 0.3 1.3 -0.7
v 0.3 1.4 -0.7
v 0.4 0.7 -0.7
v 0.4 0.8 -0.7
v 0.4 0.9 -0.7
v 0.4 1 -0.7
v 0.4 1.1 -0.7
v 0.4 1.2 -0.7
v 0.4 1.3 -0.7
v 0.4 1.4 -0.7
v 0.2 0 0
v 0.3 0 0
v 0.2 0 -0.1
v 0.3 0 -0.1
v -0.1 0.1 0.1
v 2.98023e-08 0.1 0.1
v -0.1 0.1 0
v 2.98023e-08 0.1 0
v 0.2 0.1 -0.1
v 0.3 0.1 -0.1
v 0.2 0.1 -0.2
v 0.3 0.1 -0.2
v 0.2 0.2 0.1
v 0.3 0.2 0.1
v -0.1 0.2 0
v 2.98023e-08 0.2 0
v -0.1 0.2 -0.1
v 2.98023e-08 0.2 -0.1
v 0.2 0.2 -0.1
v 0.3 0.2 -0.1
v -0.1 0.3 0.2
v 2.98023e-08 0.3 0.2
v 2.98023e-08 0.3 0.1
v 0.2 0.3 0.1
v -0.1 0.3 0
v 2.98023e-08 0.3 0
v 0.2 0.3 0
v -0.1 0.3 -0.1
v 2.98023e-08 0.3 -0.1
v 0.2 0.3 -0.1
v 0.3 0.3 -0.1
v -0.1 0.3 -0.2
v 0.3 0.3 -0.2
v -0.2 0.7 0.1
v -0.1 0.7 0.1
v 0.3 0.7 0.1
v 0.4 0.7 0.1
v 0.4 0.7 0
v 0.5 0.7 0
v 0.4 0.7 -0.1
v 0.5 0.7 -0.1
v -0.2 0.7 -0.2
v -0.1 0.7 -0.2
v 0.3 0.7 -0.2
v 0.4 0.7 -0.2
v 0.3 0.7 -0.3
v 0.4 0.7 -0.3
v 0.3 0.7 -0.7
v 0.4 0.7 -0.7
v -0.3 0.8 0.2
v 2.98023e-08 0.8 0.2
v -0.2 0.8 0.1
v 2.98023e-08 0.8 0.1
v -0.3 0.8 -0.1
v -0.2 0.8 -0.1
v 0.3 1 0.7
v 0.4 1 0.7
v 2.98023e-08 1 0.2
v 0.3 1 0.2
v 0.4 1 0.2
v 2.98023e-08 1 0.1
v 0.4 1 0.1
v 0.3 1 -0.2
v 0.4 1 -0.2
v 0.3 1 -0.4
v 0.4 1 -0.4
v 0.3 1 -0.6
v 0.4 1 -0.6
v 0.3 1 -0.7
v 0.4 1 -0.7
v 2.98023e-08 1.1 0.3
v 0.2 1.1 0.3
v 2.98023e-08 1.1 0.2
v 0.2 1.1 0.2
v -0.3 1.2 -0.1
v -0.1 1.2 -0.1
v 0.3 1.2 -0.1
v 0.5 1.2 -0.1
v -0.3 1.2 -0.2
v -0.1 1.2 -0.2
v 0.3 1.2 -0.2
v 0.5 1.2 -0.2
v 0.3 1.2 -0.3
v 0.4 1.2 -0.3
v 0.3 1.2 -0.4
v 0.4 1.2 -0.4
v 0.3 1.2 -0.6
v 0.4 1.2 -0.6
v 0.3 1.2 -0.7
v 0.4 1.2 -0.7
v 0.2 0.1 0
v 0.3 0.1 0
v 0.2 0.1 -0.1
v 0.3 0.1 -0.1
v -0.1 0.2 0.1
v 2.98023e-08 0.2 0.1
v -0.1 0.2 0
v 2.98023e-08 0.2 0
v 0.2 0.2 -0.1
v 0.3 0.2 -0.1
v 0.2 0.2 -0.2
v 0.3 0.2 -0.2
v -0.1 0.5 0.2
v 2.98023e-08 0.5 0.2
v -0.1 0.5 0.1
v 2.98023e-08 0.5 0.1
v 0.3 0.9 -0.3
v 0.4 0.9 -0.3
v 0.3 0.9 -0.4
v 0.4 0.9 -0.4
v 0.3 0.9 -0.6
v 0.4 0.9 -0.6
v 0.3 0.9 -0.7
v 0.4 0.9 -0.7
v 0.3 1.1 0.7
v 0.4 1.1 0.7
v -0.3 1.1 0.2
v 2.98023e-08 1.1 0.2
v 0.2 1.1 0.2
v 0.3 1.1 0.2
v 0.4 1.1 0.2
v -0.1 1.1 0.1
v 2.98023e-08 1.1 0.1
v 0.2 1.1 0.1
v 0.3 1.1 0.1
v 0.4 1.1 0.1
v 0.3 1.1 0
v 0.4 1.1 0
v -0.3 1.1 -0.1
v -0.2 1.1 -0.1
v 0.3 1.1 -0.1
v 0.4 1.1 -0.1
v -0.2 1.1 -0.2
v -0.1 1.1 -0.2
v 0.3 1.1 -0.2
v 0.3 1.1 -0.4
v 0.4 1.1 -0.4
v 0.3 1.1 -0.6
v 0.4 1.1 -0.6
v 0.3 1.1 -0.7
v 0.4 1.1 -0.7
v 0.3 1.2 0
v 0.5 1.2 0
v 0.3 1.2 -0.1
v 0.5 1.2 -0.1
v 2.98023e-08 1.3 0.3
v 0.2 1.3 0.3
v 2.98023e-08 1.3 0.2
v 0.2 1.3 0.2
v -0.1 1.3 0.1
v 2.98023e-08 1.3 0.1
v 0.2 1.3 0.1
v 0.3 1.3 0.1
v -0.2 1.3 -0.1
v -0.1 1.3 -0.1
v 0.3 1.3 -0.1
v 0.4 1.3 -0.1
v -0.2 1.3 -0.2
v -0.1 1.3 -0.2
v 2.98023e-08 1.3 -0.2
v 0.2 1.3 -0.2
v 0.3 1.3 -0.2
v 0.4 1.3 -0.2
v 2.98023e-08 1.4 0.2
v 0.2 1.4 0.2
v -0.3 1.4 -0.1
v -0.2 1.4 -0.1
v 0.4 1.4 -0.1
v 0.5 1.4 -0.1
v -0.3 1.4 -0.2
v -0.2 1.4 -0.2
v 2.98023e-08 1.4 -0.2
v 0.2 1.4 -0.2
v 0.4 1.4 -0.2
v 0.5 1.4 -0.2
v 0.3 1.4 -0.3
v 0.4 1.4 -0.3
v 0.3 1.4 -0.7
v 0.4 1.4 -0.7

# faces
f 3/1/1 2/1/1 1/1/1
f 4/1/1 2/1/1 3/1/1
f 7/6/1 6/6/1 5/6/1
f 8/6/1 6/6/1 7/6/1
f 11/1/1 10/1/1 9/1/1
f 12/1/1 10/1/1 11/1/1
f 13/1/1 10/1/1 12/1/1
f 14/1/1 10/1/1 13/1/1
f 17/1/1 16/1/1 15/1/1
f 18/1/1 16/1/1 17/1/1
f 21/1/1 19/1/1 18/1/1
f 22/1/1 19/1/1 21/1/1
f 24/1/1 21/1/1 20/1/1
f 25/1/1 21/1/1 24/1/1
f 26/4/1 23/4/1 22/4/1
f 26/1/1 21/1/1 25/1/1
f 26/4/1 22/4/1 21/4/1
f 27/4/1 26/4/1 25/4/1
f 28/4/1 23/4/1 26/4/1
f 28/4/1 26/4/1 27/4/1
f 29/1/1 28/1/1 27/1/1
f 30/1/1 28/1/1 29/1/1
f 33/1/1 32/1/1 31/1/1
f 34/1/1 32/1/1 33/1/1
f 35/1/1 33/1/1 31/1/1
f 36/1/1 33/1/1 35/1/1
f 40/1/1 38/1/1 37/1/1
f 40/1/1 39/1/1 38/1/1
f 41/1/1 39/1/1 40/1/1
f 42/1/1 39/1/1 41/1/1
f 44/1/1 43/1/1 42/1/1
f 44/1/1 42/1/1 41/1/1
f 45/1/1 43/1/1 44/1/1
f 48/1/1 47/1/1 46/1/1
f 49/1/1 47/1/1 48/1/1
f 52/1/1 50/1/1 49/1/1
f 53/1/1 50/1/1 52/1/1
f 54/1/1 52/1/1 51/1/1
f 55/1/1 52/1/1 54/1/1
f 56/1/1 52/1/1 55/1/1
f 59/2/1 58/2/1 57/2/1
f 60/2/1 58/2/1 59/2/1
f 61/5/1 60/5/1 59/5/1
f 62/5/1 60/5/1 61/5/1
f 63/5/1 60/5/1 62/5/1
f 64/5/1 60/5/1 63/5/1
f 68/5/1 63/5/1 62/5/1
f 69/5/1 63/5/1 68/5/1
f 71/3/1 66/3/1 65/3/1
f 72/3/1 66/3/1 71/3/1
f 73/3/1 70/3/1 69/3/1
f 73/3/1 68/3/1 67/3/1
f 73/3/1 69/3/1 68/3/1
f 74/3/1 70/3/1 73/3/1
f 75/3/1 70/3/1 74/3/1
f 76/3/1 70/3/1 75/3/1
f 78/5/1 75/5/1 74/5/1
f 79/5/1 75/5/1 78/5/1
f 81/5/1 78/5/1 77/5/1
f 81/5/1 80/5/1 79/5/1
f 81/5/1 79/5/1 78/5/1
f 82/5/1 80/5/1 81/5/1
f 83/2/1 82/2/1 81/2/1
f 84/2/1 82/2/1 83/2/1
f 87/6/1 86/6/1 85/6/1
f 88/6/1 86/6/1 87/6/1
f 89/6/2 90/6/2 91/6/2
f 91/6/2 90/6/2 92/6/2
f 93/1/2 94/1/2 95/1/2
f 95/1/2 94/1/2 96/1/2
f 96/1/2 97/1/2 100/1/2
f 100/1/2 97/1/2 101/1/2
f 98/1/2 99/1/2 102/1/2
f 102/1/2 99/1/2 103/1/2
f 104/1/2 105/1/2 106/1/2
f 106/1/2 105/1/2 107/1/2
f 108/1/2 109/1/2 111/1/2
f 109/1/2 110/1/2 111/1/2
f 111/1/2 110/1/2 112/1/2
f 112/1/2 110/1/2 113/1/2
f 113/1/2 114/1/2 115/1/2
f 112/1/2 113/1/2 115/1/2
f 115/1/2 114/1/2 116/1/2
f 117/1/2 118/1/2 119/1/2
f 119/1/2 118/1/2 120/1/2
f 120/1/2 121/1/2 123/1/2
f 123/1/2 121/1/2 124/1/2
f 122/1/2 123/1/2 125/1/2
f 125/1/2 123/1/2 126/1/2
f 125/4/2 126/4/2 128/4/2
f 126/4/2 127/4/2 128/4/2
f 128/4/2 127/4/2 129/4/2
f 128/1/2 129/1/2 130/1/2
f 130/1/2 129/1/2 131/1/2
f 132/1/2 133/1/2 136/1/2
f 134/1/2 135/1/2 137/1/2
f 137/1/2 135/1/2 138/1/2
f 132/1/2 136/1/2 139/1/2
f 136/1/2 137/1/2 139/1/2
f 139/1/2 137/1/2 140/1/2
f 145/2/2 146/2/2 147/2/2
f 147/2/2 146/2/2 148/2/2
f 147/5/2 148/5/2 149/5/2
f 149/5/2 148/5/2 150/5/2
f 150/5/2 148/5/2 151/5/2
f 151/5/2 148/5/2 152/5/2
f 141/1/2 142/1/2 155/1/2
f 155/1/2 142/1/2 156/1/2
f 143/1/2 144/1/2 157/1/2
f 157/1/2 144/1/2 158/1/2
f 150/5/2 151/5/2 159/5/2
f 159/5/2 151/5/2 160/5/2
f 153/3/2 154/3/2 162/3/2
f 154/1/2 155/1/2 163/1/2
f 162/3/2 154/3/2 163/3/2
f 155/3/2 156/3/2 164/3/2
f 163/1/2 155/1/2 164/1/2
f 164/3/2 156/3/2 165/3/2
f 160/3/2 161/3/2 166/3/2
f 157/3/2 158/3/2 166/3/2
f 158/3/2 159/3/2 166/3/2
f 159/3/2 160/3/2 166/3/2
f 166/3/2 161/3/2 167/3/2
f 167/3/2 161/3/2 168/3/2
f 168/3/2 161/3/2 169/3/2
f 167/5/2 168/5/2 171/5/2
f 171/5/2 168/5/2 172/5/2
f 170/5/2 171/5/2 174/5/2
f 172/5/2 173/5/2 174/5/2
f 171/5/2 172/5/2 174/5/2
f 174/5/2 173/5/2 175/5/2
f 174/2/2 175/2/2 176/2/2
f 176/2/2 175/2/2 177/2/2
f 178/1/2 179/1/2 180/1/2
f 180/1/2 179/1/2 181/1/2
f 181/6/2 182/6/2 183/6/2
f 183/6/2 182/6/2 184/6/2
f 187/3/3 186/3/3 185/3/3
f 188/3/3 186/3/3 187/3/3
f 191/1/3 190/1/3 189/1/3
f 192/1/3 190/1/3 191/1/3
f 197/1/3 196/1/3 195/1/3
f 198/1/3 196/1/3 197/1/3
f 199/1/3 194/1/3 193/1/3
f 200/1/3 194/1/3 199/1/3
f 201/1/3 194/1/3 200/1/3
f 204/1/3 201/1/3 200/1/3
f 205/1/3 203/1/3 202/1/3
f 206/1/3 203/1/3 205/1/3
f 207/1/3 204/1/3 200/1/3
f 208/1/3 204/1/3 207/1/3
f 215/1/3 210/1/3 209/1/3
f 218/1/3 212/1/3 211/1/3
f 219/1/3 212/1/3 218/1/3
f 221/4/3 214/4/3 213/4/3
f 222/1/3 210/1/3 215/1/3
f 222/1/3 215/1/3 214/1/3
f 224/1/3 217/1/3 216/1/3
f 225/1/3 217/1/3 224/1/3
f 227/4/3 221/4/3 220/4/3
f 230/1/3 227/1/3 226/1/3
f 231/4/3 221/4/3 227/4/3
f 231/1/3 227/1/3 230/1/3
f 232/1/3 223/1/3 222/1/3
f 232/4/3 221/4/3 231/4/3
f 232/4/3 214/4/3 221/4/3
f 232/1/3 222/1/3 214/1/3
f 233/1/3 223/1/3 232/1/3
f 234/1/3 229/1/3 228/1/3
f 235/1/3 229/1/3 234/1/3
f 236/1/3 223/1/3 233/1/3
f 237/1/3 223/1/3 236/1/3
f 240/1/3 239/1/3 238/1/3
f 241/1/3 239/1/3 240/1/3
f 244/1/3 243/1/3 242/1/3
f 245/1/3 243/1/3 244/1/3
f 250/1/3 247/1/3 246/1/3
f 251/1/3 249/1/3 248/1/3
f 251/1/3 250/1/3 249/1/3
f 252/1/3 247/1/3 250/1/3
f 252/1/3 250/1/3 251/1/3
f 255/6/3 254/6/3 253/6/3
f 256/6/3 254/6/3 255/6/3
f 257/6/3 255/6/3 253/6/3
f 258/6/3 255/6/3 257/6/3
f 261/1/3 260/1/3 259/1/3
f 262/1/3 260/1/3 261/1/3
f 265/6/3 264/6/3 263/6/3
f 267/6/3 265/6/3 263/6/3
f 267/6/3 266/6/3 265/6/3
f 268/6/3 266/6/3 267/6/3
f 275/2/3 270/2/3 269/2/3
f 276/5/3 271/5/3 270/5/3
f 276/2/3 270/2/3 275/2/3
f 277/5/3 271/5/3 276/5/3
f 278/5/3 273/5/3 272/5/3
f 279/2/3 274/2/3 273/2/3
f 279/5/3 273/5/3 278/5/3
f 280/2/3 274/2/3 279/2/3
f 285/5/3 282/5/3 281/5/3
f 286/5/3 282/5/3 285/5/3
f 287/5/3 284/5/3 283/5/3
f 288/5/3 284/5/3 287/5/3
f 289/1/4 290/1/4 291/1/4
f 291/1/4 290/1/4 292/1/4
f 293/1/4 294/1/4 295/1/4
f 295/1/4 294/1/4 296/1/4
f 297/1/4 298/1/4 299/1/4
f 299/1/4 298/1/4 300/1/4
f 301/1/4 302/1/4 305/1/4
f 305/1/4 302/1/4 306/1/4
f 303/1/4 304/1/4 307/1/4
f 307/1/4 304/1/4 308/1/4
f 309/1/4 310/1/4 313/1/4
f 311/1/4 312/1/4 314/1/4
f 312/1/4 313/1/4 314/1/4
f 313/1/4 310/1/4 315/1/4
f 314/1/4 313/1/4 315/1/4
f 316/6/4 317/6/4 320/6/4
f 320/6/4 317/6/4 321/6/4
f 318/1/4 319/1/4 324/1/4
f 324/1/4 319/1/4 325/1/4
f 316/6/4 320/6/4 326/6/4
f 326/6/4 320/6/4 327/6/4
f 324/1/4 325/1/4 328/1/4
f 323/1/4 324/1/4 328/1/4
f 326/1/4 327/1/4 328/1/4
f 325/1/4 326/1/4 328/1/4
f 323/1/4 328/1/4 332/1/4
f 328/1/4 329/1/4 332/1/4
f 332/1/4 329/1/4 333/1/4
f 330/1/4 331/1/4 334/1/4
f 334/1/4 331/1/4 335/1/4
f 322/4/4 323/4/4 336/4/4
f 323/1/4 332/1/4 337/1/4
f 336/4/4 323/4/4 337/4/4
f 337/1/4 332/1/4 338/1/4
f 338/1/4 332/1/4 339/1/4
f 339/1/4 332/1/4 340/1/4
f 340/1/4 332/1/4 341/1/4
f 341/1/4 332/1/4 342/1/4
f 338/1/4 339/1/4 343/1/4
f 343/1/4 339/1/4 344/1/4
f 341/6/4 342/6/4 345/6/4
f 341/6/4 345/6/4 347/6/4
f 345/6/4 346/6/4 347/6/4
f 347/6/4 346/6/4 348/6/4
f 349/5/4 350/5/4 353/5/4
f 353/5/4 350/5/4 354/5/4
f 351/5/4 352/5/4 355/5/4
f 355/5/4 352/5/4 356/5/4
f 357/2/4 358/2/4 365/2/4
f 358/5/4 359/5/4 366/5/4
f 365/2/4 358/2/4 366/2/4
f 366/5/4 359/5/4 367/5/4
f 360/3/4 361/3/4 368/3/4
f 368/3/4 361/3/4 369/3/4
f 362/5/4 363/5/4 370/5/4
f 363/2/4 364/2/4 371/2/4
f 370/5/4 363/5/4 371/5/4
f 371/2/4 364/2/4 372/2/4
f 375/1/5 374/1/5 373/1/5
f 376/1/5 374/1/5 375/1/5
f 379/1/5 378/1/5 377/1/5
f 380/1/5 378/1/5 379/1/5
f 383/1/5 382/1/5 381/1/5
f 384/1/5 382/1/5 383/1/5
f 389/1/5 388/1/5 387/1/5
f 390/1/5 388/1/5 389/1/5
f 391/1/5 386/1/5 385/1/5
f 392/1/5 386/1/5 391/1/5
f 395/1/5 394/1/5 393/1/5
f 397/1/5 395/1/5 393/1/5
f 398/4/5 396/4/5 395/4/5
f 398/1/5 395/1/5 397/1/5
f 399/4/5 396/4/5 398/4/5
f 401/7/5 399/7/5 398/7/5
f 402/7/5 399/7/5 401/7/5
f 404/4/5 402/4/5 401/4/5
f 404/4/5 403/4/5 402/4/5
f 404/4/5 401/4/5 400/4/5
f 405/4/5 403/4/5 404/4/5
f 410/1/5 409/1/5 408/1/5
f 412/1/5 410/1/5 408/1/5
f 412/1/5 411/1/5 410/1/5
f 413/1/5 411/1/5 412/1/5
f 414/1/5 407/1/5 406/1/5
f 415/1/5 407/1/5 414/1/5
f 416/1/5 412/1/5 408/1/5
f 417/1/5 412/1/5 416/1/5
f 420/2/5 419/2/5 418/2/5
f 421/2/5 419/2/5 420/2/5
f 424/1/5 423/1/5 422/1/5
f 425/1/5 423/1/5 424/1/5
f 426/1/5 424/1/5 422/1/5
f 427/1/5 424/1/5 426/1/5
f 431/3/5 429/3/5 428/3/5
f 432/3/5 429/3/5 431/3/5
f 433/1/5 431/1/5 430/1/5
f 433/1/5 432/1/5 431/1/5
f 434/1/5 432/1/5 433/1/5
f 437/3/5 436/3/5 435/3/5
f 438/3/5 436/3/5 437/3/5
f 441/3/5 440/3/5 439/3/5
f 442/3/5 440/3/5 441/3/5
f 445/1/5 444/1/5 443/1/5
f 446/1/5 444/1/5 445/1/5
f 451/6/5 448/6/5 447/6/5
f 452/6/5 448/6/5 451/6/5
f 453/6/5 450/6/5 449/6/5
f 454/6/5 450/6/5 453/6/5
f 457/5/5 456/5/5 455/5/5
f 458/5/5 456/5/5 457/5/5
f 461/5/5 460/5/5 459/5/5
f 462/5/5 460/5/5 461/5/5
f 463/1/6 464/1/6 465/1/6
f 465/1/6 464/1/6 466/1/6
f 467/1/6 468/1/6 469/1/6
f 469/1/6 468/1/6 470/1/6
f 471/1/6 472/1/6 473/1/6
f 473/1/6 472/1/6 474/1/6
f 475/1/6 476/1/6 477/1/6
f 477/1/6 476/1/6 478/1/6
f 479/5/6 480/5/6 481/5/6
f 481/5/6 480/5/6 482/5/6
f 483/5/6 484/5/6 485/5/6
f 485/5/6 484/5/6 486/5/6
f 487/3/6 488/3/6 492/3/6
f 492/3/6 488/3/6 493/3/6
f 489/1/6 490/1/6 494/1/6
f 494/1/6 490/1/6 495/1/6
f 491/1/6 492/1/6 496/1/6
f 492/1/6 493/1/6 496/1/6
f 496/1/6 493/1/6 497/1/6
f 497/1/6 493/1/6 498/1/6
f 497/3/6 498/3/6 499/3/6
f 499/3/6 498/3/6 500/3/6
f 489/1/6 494/1/6 501/1/6
f 501/1/6 494/1/6 502/1/6
f 502/1/6 494/1/6 505/1/6
f 505/1/6 494/1/6 506/1/6
f 503/3/6 504/3/6 507/3/6
f 507/3/6 504/3/6 508/3/6
f 508/3/6 504/3/6 509/3/6
f 510/3/6 511/3/6 512/3/6
f 512/3/6 511/3/6 513/3/6
f 514/1/6 515/1/6 516/1/6
f 516/1/6 515/1/6 517/1/6
f 518/1/6 519/1/6 520/1/6
f 520/1/6 519/1/6 521/1/6
f 522/1/6 523/1/6 527/1/6
f 524/1/6 525/1/6 528/1/6
f 526/6/6 527/6/6 530/6/6
f 527/1/6 523/1/6 531/1/6
f 530/6/6 527/6/6 531/6/6
f 531/1/6 523/1/6 532/1/6
f 524/1/6 528/1/6 533/1/6
f 528/6/6 529/6/6 534/6/6
f 533/1/6 528/1/6 534/1/6
f 534/6/6 529/6/6 535/6/6
f 538/6/6 539/6/6 542/6/6
f 542/6/6 539/6/6 543/6/6
f 536/1/6 537/1/6 544/1/6
f 544/1/6 537/1/6 545/1/6
f 540/6/6 541/6/6 546/6/6
f 546/6/6 541/6/6 547/6/6
f 548/2/6 549/2/6 550/2/6
f 550/2/6 549/2/6 551/2/6
