# MagicaVoxel @ Ephtracy

# group
o 

# material
mtllib minotaur_idle_0.mtl
usemtl palette

# normals
vn -1 0 0
vn 1 0 0
vn 0 0 1
vn 0 0 -1
vn 0 -1 0
vn 0 1 0

# texcoords
vt 0.783203 0.5
vt 0.791016 0.5
vt 0.814453 0.5
vt 0.818359 0.5
vt 0.943359 0.5
vt 0.947266 0.5
vt 0.970703 0.5

# verts
v -0.7 0.7 0.5
v -0.7 0.7 0.4
v -0.7 0.7 0.3
v -0.7 0.7 0.2
v -0.7 0.7 0.1
v -0.7 0.7 -5.96046e-08
v -0.7 0.7 -0.1
v -0.7 0.7 -0.2
v -0.7 0.8 0.5
v -0.7 0.8 0.4
v -0.7 0.8 0.3
v -0.7 0.8 0.2
v -0.7 0.8 0.1
v -0.7 0.8 -5.96046e-08
v -0.7 0.8 -0.1
v -0.7 0.8 -0.2
v -0.6 0.7 0.3
v -0.6 0.7 0.2
v -0.6 0.7 0.1
v -0.6 0.7 -5.96046e-08
v -0.6 0.8 0.3
v -0.6 0.8 0.2
v -0.6 0.8 0.1
v -0.6 0.8 -5.96046e-08
v -0.4 0.9 -5.96046e-08
v -0.4 0.9 -0.2
v -0.4 1.1 -5.96046e-08
v -0.4 1.1 -0.2
v -0.3 0.7 0.1
v -0.3 0.7 -5.96046e-08
v -0.3 0.8 0.1
v -0.3 0.8 -5.96046e-08
v -0.3 0.8 -0.1
v -0.3 0.8 -0.2
v -0.3 0.9 -5.96046e-08
v -0.3 0.9 -0.2
v -0.3 1.2 -0.1
v -0.3 1.2 -0.2
v -0.3 1.4 -0.1
v -0.3 1.4 -0.2
v -0.2 0.8 0.1
v -0.2 0.8 -5.96046e-08
v -0.2 1.1 0.1
v -0.2 1.1 -5.96046e-08
v -0.1 0 -5.96046e-08
v -0.1 0 -0.1
v -0.1 0.1 -5.96046e-08
v -0.1 0.1 -0.1
v -0.1 0.1 -0.2
v -0.1 0.2 0.1
v -0.1 0.2 -0.1
v -0.1 0.2 -0.2
v -0.1 0.3 0.1
v -0.1 0.3 -0.1
v -0.1 0.3 -0.2
v -0.1 0.6 0.1
v -0.1 0.6 -0.2
v -0.1 0.7 0.1
v -0.1 0.7 -0.2
v -0.1 1.1 0.1
v -0.1 1.1 -0.2
v -0.1 1.2 -0.1
v -0.1 1.2 -0.2
v -0.1 1.3 0.1
v -0.1 1.3 -0.1
v 0 1.1 0.3
v 0 1.1 0.1
v 0 1.3 0.3
v 0 1.3 0.2
v 0 1.3 0.1
v 0 1.3 -0.2
v 0 1.4 0.2
v 0 1.4 -0.2
v 0.2 0 -5.96046e-08
v 0.2 0 -0.1
v 0.2 0.1 -5.96046e-08
v 0.2 0.1 -0.1
v 0.2 0.1 -0.2
v 0.2 0.2 0.1
v 0.2 0.2 -0.1
v 0.2 0.2 -0.2
v 0.2 0.3 0.1
v 0.2 0.3 -5.96046e-08
v 0.2 0.3 -0.1
v 0.4 1.3 -0.1
v 0.4 1.3 -0.2
v 0.4 1.4 -0.1
v 0.4 1.4 -0.2
v -0.4 0.7 0.3
v -0.4 0.7 0.2
v -0.4 0.7 0.1
v -0.4 0.7 -5.96046e-08
v -0.4 0.8 0.3
v -0.4 0.8 0.2
v -0.4 0.8 0.1
v -0.4 0.8 -5.96046e-08
v -0.3 0.7 0.5
v -0.3 0.7 0.4
v -0.3 0.7 0.3
v -0.3 0.8 0.5
v -0.3 0.8 0.4
v -0.3 0.8 0.3
v -0.2 1.3 -0.1
v -0.2 1.3 -0.2
v -0.2 1.4 -0.1
v -0.2 1.4 -0.2
v 0 0 -5.96046e-08
v 0 0 -0.1
v 0 0.1 -5.96046e-08
v 0 0.1 -0.1
v 0 0.1 -0.2
v 0 0.2 0.1
v 0 0.2 -0.1
v 0 0.2 -0.2
v 0 0.3 0.1
v 0 0.3 -5.96046e-08
v 0 0.3 -0.1
v 0.2 1.1 0.3
v 0.2 1.1 0.1
v 0.2 1.3 0.3
v 0.2 1.3 0.2
v 0.2 1.3 0.1
v 0.2 1.3 -0.2
v 0.2 1.4 0.2
v 0.2 1.4 -0.2
v 0.3 0 -5.96046e-08
v 0.3 0 -0.1
v 0.3 0.1 -5.96046e-08
v 0.3 0.1 -0.1
v 0.3 0.1 -0.2
v 0.3 0.2 0.1
v 0.3 0.2 -0.1
v 0.3 0.2 -0.2
v 0.3 0.3 0.1
v 0.3 0.3 -0.1
v 0.3 0.3 -0.2
v 0.3 0.6 0.1
v 0.3 0.6 -0.2
v 0.3 0.7 0.1
v 0.3 0.7 -0.2
v 0.3 1.1 0.1
v 0.3 1.1 -0.2
v 0.3 1.2 -0.1
v 0.3 1.2 -0.2
v 0.3 1.3 0.1
v 0.3 1.3 -0.1
v 0.4 0.8 0.1
v 0.4 0.8 -5.96046e-08
v 0.4 1.1 0.1
v 0.4 1.1 -5.96046e-08
v 0.5 0.7 0.1
v 0.5 0.7 -0.2
v 0.5 0.8 0.1
v 0.5 0.8 -5.96046e-08
v 0.5 0.9 -5.96046e-08
v 0.5 0.9 -0.2
v 0.5 1.2 -0.1
v 0.5 1.2 -0.2
v 0.5 1.4 -0.1
v 0.5 1.4 -0.2
v 0.6 0.9 -5.96046e-08
v 0.6 0.9 -0.2
v 0.6 1.1 -5.96046e-08
v 0.6 1.1 -0.2
v 0.7 0.7 0.2
v 0.7 0.7 0.1
v 0.7 0.8 0.2
v 0.7 0.8 0.1
v -0.7 0.7 0.5
v -0.7 0.8 0.5
v -0.3 0.7 0.5
v -0.3 0.8 0.5
v 0 1.1 0.3
v 0 1.3 0.3
v 0.2 1.1 0.3
v 0.2 1.3 0.3
v -0.7 0.7 0.2
v -0.7 0.8 0.2
v -0.6 0.7 0.2
v -0.6 0.8 0.2
v -0.4 0.7 0.2
v -0.4 0.8 0.2
v -0.3 0.7 0.2
v -0.3 0.8 0.2
v -0.2 0.7 0.2
v -0.2 0.8 0.2
v 0 1.3 0.2
v 0 1.4 0.2
v 0.2 1.3 0.2
v 0.2 1.4 0.2
v 0.4 0.7 0.2
v 0.4 0.8 0.2
v 0.5 0.7 0.2
v 0.5 0.8 0.2
v 0.7 0.7 0.2
v 0.7 0.8 0.2
v -0.2 0.8 0.1
v -0.2 1.1 0.1
v -0.1 0.2 0.1
v -0.1 0.3 0.1
v -0.1 0.6 0.1
v -0.1 0.7 0.1
v -0.1 1.1 0.1
v -0.1 1.3 0.1
v 0 0.2 0.1
v 0 0.3 0.1
v 0 1.1 0.1
v 0 1.3 0.1
v 0.2 0.2 0.1
v 0.2 0.3 0.1
v 0.2 1.1 0.1
v 0.2 1.3 0.1
v 0.3 0.2 0.1
v 0.3 0.3 0.1
v 0.3 0.6 0.1
v 0.3 0.7 0.1
v 0.3 1.1 0.1
v 0.3 1.3 0.1
v 0.4 0.8 0.1
v 0.4 1.1 0.1
v -0.7 0.7 -5.96046e-08
v -0.7 0.8 -5.96046e-08
v -0.6 0.7 -5.96046e-08
v -0.6 0.8 -5.96046e-08
v -0.4 0.7 -5.96046e-08
v -0.4 0.8 -5.96046e-08
v -0.4 0.9 -5.96046e-08
v -0.4 1.1 -5.96046e-08
v -0.3 0.7 -5.96046e-08
v -0.3 0.8 -5.96046e-08
v -0.3 0.9 -5.96046e-08
v -0.2 0.8 -5.96046e-08
v -0.2 1.1 -5.96046e-08
v -0.1 0 -5.96046e-08
v -0.1 0.1 -5.96046e-08
v 0 0 -5.96046e-08
v 0 0.1 -5.96046e-08
v 0.2 0 -5.96046e-08
v 0.2 0.1 -5.96046e-08
v 0.3 0 -5.96046e-08
v 0.3 0.1 -5.96046e-08
v 0.4 0.8 -5.96046e-08
v 0.4 1.1 -5.96046e-08
v 0.5 0.8 -5.96046e-08
v 0.5 0.9 -5.96046e-08
v 0.6 0.9 -5.96046e-08
v 0.6 1.1 -5.96046e-08
v -0.3 1.2 -0.1
v -0.3 1.4 -0.1
v -0.2 1.3 -0.1
v -0.2 1.4 -0.1
v -0.1 0.1 -0.1
v -0.1 0.2 -0.1
v -0.1 1.2 -0.1
v -0.1 1.3 -0.1
v 0 0.1 -0.1
v 0 0.2 -0.1
v 0.2 0.1 -0.1
v 0.2 0.2 -0.1
v 0.3 0.1 -0.1
v 0.3 0.2 -0.1
v 0.3 1.2 -0.1
v 0.3 1.3 -0.1
v 0.4 1.3 -0.1
v 0.4 1.4 -0.1
v 0.5 1.2 -0.1
v 0.5 1.4 -0.1
v -0.7 0.7 0.3
v -0.7 0.8 0.3
v -0.6 0.7 0.3
v -0.6 0.8 0.3
v -0.4 0.7 0.3
v -0.4 0.8 0.3
v -0.3 0.7 0.3
v -0.3 0.8 0.3
v -0.7 0.7 0.1
v -0.7 0.8 0.1
v -0.6 0.7 0.1
v -0.6 0.8 0.1
v -0.4 0.7 0.1
v -0.4 0.8 0.1
v -0.3 0.7 0.1
v -0.3 0.8 0.1
v 0.5 0.7 0.1
v 0.5 0.8 0.1
v 0.7 0.7 0.1
v 0.7 0.8 0.1
v -0.1 0 -0.1
v -0.1 0.1 -0.1
v -0.1 0.2 -0.1
v -0.1 0.3 -0.1
v 0 0 -0.1
v 0 0.1 -0.1
v 0 0.2 -0.1
v 0 0.3 -0.1
v 0.2 0 -0.1
v 0.2 0.1 -0.1
v 0.2 0.2 -0.1
v 0.2 0.3 -0.1
v 0.3 0 -0.1
v 0.3 0.1 -0.1
v 0.3 0.2 -0.1
v 0.3 0.3 -0.1
v -0.7 0.7 -0.2
v -0.7 0.8 -0.2
v -0.4 0.9 -0.2
v -0.4 1.1 -0.2
v -0.3 0.7 -0.2
v -0.3 0.8 -0.2
v -0.3 0.9 -0.2
v -0.3 1.2 -0.2
v -0.3 1.4 -0.2
v -0.2 1.3 -0.2
v -0.2 1.4 -0.2
v -0.1 0.1 -0.2
v -0.1 0.2 -0.2
v -0.1 0.3 -0.2
v -0.1 0.6 -0.2
v -0.1 0.7 -0.2
v -0.1 1.1 -0.2
v -0.1 1.2 -0.2
v -0.1 1.3 -0.2
v 0 0.1 -0.2
v 0 0.2 -0.2
v 0 1.3 -0.2
v 0 1.4 -0.2
v 0.2 0.1 -0.2
v 0.2 0.2 -0.2
v 0.2 1.3 -0.2
v 0.2 1.4 -0.2
v 0.3 0.1 -0.2
v 0.3 0.2 -0.2
v 0.3 0.3 -0.2
v 0.3 0.6 -0.2
v 0.3 0.7 -0.2
v 0.3 1.1 -0.2
v 0.3 1.2 -0.2
v 0.3 1.3 -0.2
v 0.4 1.3 -0.2
v 0.4 1.4 -0.2
v 0.5 0.7 -0.2
v 0.5 0.9 -0.2
v 0.5 1.2 -0.2
v 0.5 1.4 -0.2
v 0.6 0.9 -0.2
v 0.6 1.1 -0.2
v -0.1 0 -5.96046e-08
v 0 0 -5.96046e-08
v 0.2 0 -5.96046e-08
v 0.3 0 -5.96046e-08
v -0.1 0 -0.1
v 0 0 -0.1
v 0.2 0 -0.1
v 0.3 0 -0.1
v -0.1 0.1 -0.1
v 0 0.1 -0.1
v 0.2 0.1 -0.1
v 0.3 0.1 -0.1
v -0.1 0.1 -0.2
v 0 0.1 -0.2
v 0.2 0.1 -0.2
v 0.3 0.1 -0.2
v -0.1 0.2 0.1
v 0 0.2 0.1
v 0.2 0.2 0.1
v 0.3 0.2 0.1
v -0.1 0.2 -0.1
v 0 0.2 -0.1
v 0.2 0.2 -0.1
v 0.3 0.2 -0.1
v 0 0.3 0.1
v 0.2 0.3 0.1
v 0 0.3 -5.96046e-08
v 0.2 0.3 -5.96046e-08
v -0.1 0.3 -0.1
v 0 0.3 -0.1
v 0.2 0.3 -0.1
v 0.3 0.3 -0.1
v -0.1 0.3 -0.2
v 0.3 0.3 -0.2
v -0.7 0.7 0.5
v -0.3 0.7 0.5
v -0.7 0.7 0.4
v -0.3 0.7 0.4
v -0.7 0.7 0.3
v -0.6 0.7 0.3
v -0.4 0.7 0.3
v -0.3 0.7 0.3
v -0.7 0.7 0.2
v -0.6 0.7 0.2
v -0.4 0.7 0.2
v -0.3 0.7 0.2
v -0.2 0.7 0.2
v 0.4 0.7 0.2
v 0.5 0.7 0.2
v 0.7 0.7 0.2
v -0.7 0.7 0.1
v -0.6 0.7 0.1
v -0.4 0.7 0.1
v -0.3 0.7 0.1
v -0.2 0.7 0.1
v -0.1 0.7 0.1
v 0.3 0.7 0.1
v 0.4 0.7 0.1
v 0.5 0.7 0.1
v 0.7 0.7 0.1
v -0.7 0.7 -5.96046e-08
v -0.6 0.7 -5.96046e-08
v -0.4 0.7 -5.96046e-08
v -0.3 0.7 -5.96046e-08
v -0.7 0.7 -0.1
v -0.3 0.7 -0.1
v -0.7 0.7 -0.2
v -0.3 0.7 -0.2
v -0.1 0.7 -0.2
v 0.3 0.7 -0.2
v 0.5 0.7 -0.2
v -0.4 0.9 -5.96046e-08
v -0.3 0.9 -5.96046e-08
v 0.5 0.9 -5.96046e-08
v 0.6 0.9 -5.96046e-08
v -0.4 0.9 -0.2
v -0.3 0.9 -0.2
v 0.5 0.9 -0.2
v 0.6 0.9 -0.2
v 0 1.1 0.3
v 0.2 1.1 0.3
v 0 1.1 0.1
v 0.2 1.1 0.1
v -0.3 1.2 -0.1
v -0.1 1.2 -0.1
v 0.3 1.2 -0.1
v 0.5 1.2 -0.1
v -0.3 1.2 -0.2
v -0.1 1.2 -0.2
v 0.3 1.2 -0.2
v 0.5 1.2 -0.2
v -0.1 0.1 -5.96046e-08
v 0 0.1 -5.96046e-08
v 0.2 0.1 -5.96046e-08
v 0.3 0.1 -5.96046e-08
v -0.1 0.1 -0.1
v 0 0.1 -0.1
v 0.2 0.1 -0.1
v 0.3 0.1 -0.1
v -0.1 0.2 -0.1
v 0 0.2 -0.1
v 0.2 0.2 -0.1
v 0.3 0.2 -0.1
v -0.1 0.2 -0.2
v 0 0.2 -0.2
v 0.2 0.2 -0.2
v 0.3 0.2 -0.2
v -0.7 0.8 0.5
v -0.3 0.8 0.5
v -0.7 0.8 0.4
v -0.3 0.8 0.4
v -0.7 0.8 0.3
v -0.6 0.8 0.3
v -0.4 0.8 0.3
v -0.3 0.8 0.3
v -0.7 0.8 0.2
v -0.6 0.8 0.2
v -0.4 0.8 0.2
v -0.3 0.8 0.2
v -0.2 0.8 0.2
v 0.4 0.8 0.2
v 0.5 0.8 0.2
v 0.7 0.8 0.2
v -0.7 0.8 0.1
v -0.6 0.8 0.1
v -0.4 0.8 0.1
v -0.3 0.8 0.1
v -0.2 0.8 0.1
v 0.4 0.8 0.1
v 0.5 0.8 0.1
v 0.7 0.8 0.1
v -0.7 0.8 -5.96046e-08
v -0.6 0.8 -5.96046e-08
v -0.4 0.8 -5.96046e-08
v -0.3 0.8 -5.96046e-08
v -0.2 0.8 -5.96046e-08
v 0.4 0.8 -5.96046e-08
v 0.5 0.8 -5.96046e-08
v -0.7 0.8 -0.1
v -0.3 0.8 -0.1
v -0.7 0.8 -0.2
v -0.3 0.8 -0.2
v -0.2 1.1 0.1
v -0.1 1.1 0.1
v 0.3 1.1 0.1
v 0.4 1.1 0.1
v -0.4 1.1 -5.96046e-08
v -0.2 1.1 -5.96046e-08
v 0.4 1.1 -5.96046e-08
v 0.6 1.1 -5.96046e-08
v -0.4 1.1 -0.2
v -0.1 1.1 -0.2
v 0.3 1.1 -0.2
v 0.6 1.1 -0.2
v 0 1.3 0.3
v 0.2 1.3 0.3
v 0 1.3 0.2
v 0.2 1.3 0.2
v -0.1 1.3 0.1
v 0 1.3 0.1
v 0.2 1.3 0.1
v 0.3 1.3 0.1
v -0.2 1.3 -0.1
v -0.1 1.3 -0.1
v 0.3 1.3 -0.1
v 0.4 1.3 -0.1
v -0.2 1.3 -0.2
v -0.1 1.3 -0.2
v 0 1.3 -0.2
v 0.2 1.3 -0.2
v 0.3 1.3 -0.2
v 0.4 1.3 -0.2
v 0 1.4 0.2
v 0.2 1.4 0.2
v -0.3 1.4 -0.1
v -0.2 1.4 -0.1
v 0.4 1.4 -0.1
v 0.5 1.4 -0.1
v -0.3 1.4 -0.2
v -0.2 1.4 -0.2
v 0 1.4 -0.2
v 0.2 1.4 -0.2
v 0.4 1.4 -0.2
v 0.5 1.4 -0.2

# faces
f 9/2/1 2/2/1 1/2/1
f 10/5/1 3/5/1 2/5/1
f 10/2/1 2/2/1 9/2/1
f 11/5/1 3/5/1 10/5/1
f 12/3/1 5/3/1 4/3/1
f 13/3/1 5/3/1 12/3/1
f 14/5/1 7/5/1 6/5/1
f 15/2/1 8/2/1 7/2/1
f 15/5/1 7/5/1 14/5/1
f 16/2/1 8/2/1 15/2/1
f 21/5/1 18/5/1 17/5/1
f 22/5/1 18/5/1 21/5/1
f 23/5/1 20/5/1 19/5/1
f 24/5/1 20/5/1 23/5/1
f 27/1/1 26/1/1 25/1/1
f 28/1/1 26/1/1 27/1/1
f 31/1/1 30/1/1 29/1/1
f 32/1/1 30/1/1 31/1/1
f 35/1/1 34/1/1 33/1/1
f 35/1/1 33/1/1 32/1/1
f 36/1/1 34/1/1 35/1/1
f 39/6/1 38/6/1 37/6/1
f 40/6/1 38/6/1 39/6/1
f 43/1/1 42/1/1 41/1/1
f 44/1/1 42/1/1 43/1/1
f 47/1/1 46/1/1 45/1/1
f 48/1/1 46/1/1 47/1/1
f 51/1/1 49/1/1 48/1/1
f 52/1/1 49/1/1 51/1/1
f 53/1/1 51/1/1 50/1/1
f 54/1/1 51/1/1 53/1/1
f 56/4/1 54/4/1 53/4/1
f 56/4/1 55/4/1 54/4/1
f 57/4/1 55/4/1 56/4/1
f 58/1/1 57/1/1 56/1/1
f 59/1/1 57/1/1 58/1/1
f 62/1/1 61/1/1 60/1/1
f 63/1/1 61/1/1 62/1/1
f 64/1/1 62/1/1 60/1/1
f 65/1/1 62/1/1 64/1/1
f 68/1/1 67/1/1 66/1/1
f 69/1/1 67/1/1 68/1/1
f 70/1/1 67/1/1 69/1/1
f 72/1/1 71/1/1 70/1/1
f 72/1/1 70/1/1 69/1/1
f 73/1/1 71/1/1 72/1/1
f 76/1/1 75/1/1 74/1/1
f 77/1/1 75/1/1 76/1/1
f 80/1/1 78/1/1 77/1/1
f 81/1/1 78/1/1 80/1/1
f 82/1/1 80/1/1 79/1/1
f 83/1/1 80/1/1 82/1/1
f 84/1/1 80/1/1 83/1/1
f 87/6/1 86/6/1 85/6/1
f 88/6/1 86/6/1 87/6/1
f 89/5/2 90/5/2 93/5/2
f 93/5/2 90/5/2 94/5/2
f 91/5/2 92/5/2 95/5/2
f 95/5/2 92/5/2 96/5/2
f 97/2/2 98/2/2 100/2/2
f 98/5/2 99/5/2 101/5/2
f 100/2/2 98/2/2 101/2/2
f 101/5/2 99/5/2 102/5/2
f 103/6/2 104/6/2 105/6/2
f 105/6/2 104/6/2 106/6/2
f 107/1/2 108/1/2 109/1/2
f 109/1/2 108/1/2 110/1/2
f 110/1/2 111/1/2 113/1/2
f 113/1/2 111/1/2 114/1/2
f 112/1/2 113/1/2 115/1/2
f 115/1/2 113/1/2 116/1/2
f 116/1/2 113/1/2 117/1/2
f 118/1/2 119/1/2 120/1/2
f 120/1/2 119/1/2 121/1/2
f 121/1/2 119/1/2 122/1/2
f 122/1/2 123/1/2 124/1/2
f 121/1/2 122/1/2 124/1/2
f 124/1/2 123/1/2 125/1/2
f 126/1/2 127/1/2 128/1/2
f 128/1/2 127/1/2 129/1/2
f 129/1/2 130/1/2 132/1/2
f 132/1/2 130/1/2 133/1/2
f 131/1/2 132/1/2 134/1/2
f 134/1/2 132/1/2 135/1/2
f 134/4/2 135/4/2 137/4/2
f 135/4/2 136/4/2 137/4/2
f 137/4/2 136/4/2 138/4/2
f 137/1/2 138/1/2 139/1/2
f 139/1/2 138/1/2 140/1/2
f 141/1/2 142/1/2 143/1/2
f 143/1/2 142/1/2 144/1/2
f 141/1/2 143/1/2 145/1/2
f 145/1/2 143/1/2 146/1/2
f 147/1/2 148/1/2 149/1/2
f 149/1/2 148/1/2 150/1/2
f 151/1/2 152/1/2 153/1/2
f 153/1/2 152/1/2 154/1/2
f 154/1/2 152/1/2 155/1/2
f 155/1/2 152/1/2 156/1/2
f 157/6/2 158/6/2 159/6/2
f 159/6/2 158/6/2 160/6/2
f 161/1/2 162/1/2 163/1/2
f 163/1/2 162/1/2 164/1/2
f 165/3/2 166/3/2 167/3/2
f 167/3/2 166/3/2 168/3/2
f 171/2/3 170/2/3 169/2/3
f 172/2/3 170/2/3 171/2/3
f 175/1/3 174/1/3 173/1/3
f 176/1/3 174/1/3 175/1/3
f 179/3/3 178/3/3 177/3/3
f 180/3/3 178/3/3 179/3/3
f 183/3/3 182/3/3 181/3/3
f 184/3/3 182/3/3 183/3/3
f 185/1/3 184/1/3 183/1/3
f 186/1/3 184/1/3 185/1/3
f 189/1/3 188/1/3 187/1/3
f 190/1/3 188/1/3 189/1/3
f 191/3/3 186/3/3 185/3/3
f 192/3/3 186/3/3 191/3/3
f 193/1/3 192/1/3 191/1/3
f 194/1/3 192/1/3 193/1/3
f 195/3/3 194/3/3 193/3/3
f 196/3/3 194/3/3 195/3/3
f 203/1/3 198/1/3 197/1/3
f 205/1/3 200/1/3 199/1/3
f 206/4/3 201/4/3 200/4/3
f 206/1/3 200/1/3 205/1/3
f 207/1/3 204/1/3 203/1/3
f 207/1/3 203/1/3 197/1/3
f 208/1/3 204/1/3 207/1/3
f 210/4/3 201/4/3 206/4/3
f 211/1/3 207/1/3 197/1/3
f 213/1/3 210/1/3 209/1/3
f 214/4/3 201/4/3 210/4/3
f 214/1/3 210/1/3 213/1/3
f 215/1/3 202/1/3 201/1/3
f 215/4/3 201/4/3 214/4/3
f 216/1/3 202/1/3 215/1/3
f 217/1/3 212/1/3 211/1/3
f 217/1/3 211/1/3 197/1/3
f 218/1/3 212/1/3 217/1/3
f 219/1/3 217/1/3 197/1/3
f 220/1/3 217/1/3 219/1/3
f 223/5/3 222/5/3 221/5/3
f 224/5/3 222/5/3 223/5/3
f 229/5/3 226/5/3 225/5/3
f 230/5/3 226/5/3 229/5/3
f 231/1/3 228/1/3 227/1/3
f 232/1/3 231/1/3 230/1/3
f 233/1/3 228/1/3 231/1/3
f 233/1/3 231/1/3 232/1/3
f 236/1/3 235/1/3 234/1/3
f 237/1/3 235/1/3 236/1/3
f 240/1/3 239/1/3 238/1/3
f 241/1/3 239/1/3 240/1/3
f 244/1/3 243/1/3 242/1/3
f 245/1/3 243/1/3 244/1/3
f 246/1/3 243/1/3 245/1/3
f 247/1/3 243/1/3 246/1/3
f 250/6/3 249/6/3 248/6/3
f 251/6/3 249/6/3 250/6/3
f 254/6/3 250/6/3 248/6/3
f 255/6/3 250/6/3 254/6/3
f 256/1/3 253/1/3 252/1/3
f 257/1/3 253/1/3 256/1/3
f 260/1/3 259/1/3 258/1/3
f 261/1/3 259/1/3 260/1/3
f 264/6/3 263/6/3 262/6/3
f 266/6/3 264/6/3 262/6/3
f 266/6/3 265/6/3 264/6/3
f 267/6/3 265/6/3 266/6/3
f 268/5/4 269/5/4 270/5/4
f 270/5/4 269/5/4 271/5/4
f 272/5/4 273/5/4 274/5/4
f 274/5/4 273/5/4 275/5/4
f 276/3/4 277/3/4 278/3/4
f 278/3/4 277/3/4 279/3/4
f 280/3/4 281/3/4 282/3/4
f 282/3/4 281/3/4 283/3/4
f 284/3/4 285/3/4 286/3/4
f 286/3/4 285/3/4 287/3/4
f 288/1/4 289/1/4 292/1/4
f 292/1/4 289/1/4 293/1/4
f 290/1/4 291/1/4 294/1/4
f 294/1/4 291/1/4 295/1/4
f 296/1/4 297/1/4 300/1/4
f 300/1/4 297/1/4 301/1/4
f 298/1/4 299/1/4 302/1/4
f 302/1/4 299/1/4 303/1/4
f 304/2/4 305/2/4 308/2/4
f 308/2/4 305/2/4 309/2/4
f 306/1/4 307/1/4 310/1/4
f 311/6/4 312/6/4 313/6/4
f 313/6/4 312/6/4 314/6/4
f 308/1/4 309/1/4 319/1/4
f 309/1/4 310/1/4 319/1/4
f 310/1/4 307/1/4 320/1/4
f 319/1/4 310/1/4 320/1/4
f 311/6/4 313/6/4 321/6/4
f 321/6/4 313/6/4 322/6/4
f 315/1/4 316/1/4 323/1/4
f 323/1/4 316/1/4 324/1/4
f 318/1/4 319/1/4 325/1/4
f 319/1/4 320/1/4 325/1/4
f 320/1/4 321/1/4 325/1/4
f 321/1/4 322/1/4 325/1/4
f 325/1/4 326/1/4 329/1/4
f 318/1/4 325/1/4 329/1/4
f 329/1/4 326/1/4 330/1/4
f 327/1/4 328/1/4 331/1/4
f 331/1/4 328/1/4 332/1/4
f 317/4/4 318/4/4 333/4/4
f 318/1/4 329/1/4 334/1/4
f 333/4/4 318/4/4 334/4/4
f 334/1/4 329/1/4 335/1/4
f 335/1/4 329/1/4 336/1/4
f 336/1/4 329/1/4 337/1/4
f 337/1/4 329/1/4 338/1/4
f 337/6/4 338/6/4 339/6/4
f 335/1/4 336/1/4 341/1/4
f 341/1/4 336/1/4 342/1/4
f 337/6/4 339/6/4 343/6/4
f 339/6/4 340/6/4 343/6/4
f 343/6/4 340/6/4 344/6/4
f 342/1/4 336/1/4 345/1/4
f 345/1/4 336/1/4 346/1/4
f 351/1/5 348/1/5 347/1/5
f 352/1/5 348/1/5 351/1/5
f 353/1/5 350/1/5 349/1/5
f 354/1/5 350/1/5 353/1/5
f 359/1/5 356/1/5 355/1/5
f 360/1/5 356/1/5 359/1/5
f 361/1/5 358/1/5 357/1/5
f 362/1/5 358/1/5 361/1/5
f 367/1/5 364/1/5 363/1/5
f 368/1/5 364/1/5 367/1/5
f 369/1/5 366/1/5 365/1/5
f 370/1/5 366/1/5 369/1/5
f 373/4/5 372/4/5 371/4/5
f 374/4/5 372/4/5 373/4/5
f 376/7/5 374/7/5 373/7/5
f 377/7/5 374/7/5 376/7/5
f 379/4/5 377/4/5 376/4/5
f 379/4/5 378/4/5 377/4/5
f 379/4/5 376/4/5 375/4/5
f 380/4/5 378/4/5 379/4/5
f 383/2/5 382/2/5 381/2/5
f 384/2/5 382/2/5 383/2/5
f 385/5/5 384/5/5 383/5/5
f 386/5/5 384/5/5 385/5/5
f 387/5/5 384/5/5 386/5/5
f 388/5/5 384/5/5 387/5/5
f 390/5/5 387/5/5 386/5/5
f 391/5/5 387/5/5 390/5/5
f 397/3/5 392/3/5 391/3/5
f 397/3/5 391/3/5 390/3/5
f 397/3/5 390/3/5 389/3/5
f 398/3/5 392/3/5 397/3/5
f 399/3/5 392/3/5 398/3/5
f 400/1/5 393/1/5 392/1/5
f 400/3/5 392/3/5 399/3/5
f 401/3/5 394/3/5 393/3/5
f 401/1/5 393/1/5 400/1/5
f 402/3/5 394/3/5 401/3/5
f 403/3/5 394/3/5 402/3/5
f 404/1/5 395/1/5 394/1/5
f 404/3/5 394/3/5 403/3/5
f 405/3/5 396/3/5 395/3/5
f 405/1/5 395/1/5 404/1/5
f 406/3/5 396/3/5 405/3/5
f 408/5/5 399/5/5 398/5/5
f 409/5/5 399/5/5 408/5/5
f 410/1/5 401/1/5 400/1/5
f 410/1/5 402/1/5 401/1/5
f 411/5/5 409/5/5 408/5/5
f 411/5/5 410/5/5 409/5/5
f 411/5/5 408/5/5 407/5/5
f 412/1/5 402/1/5 410/1/5
f 412/5/5 410/5/5 411/5/5
f 413/2/5 412/2/5 411/2/5
f 414/1/5 402/1/5 412/1/5
f 414/2/5 412/2/5 413/2/5
f 415/1/5 402/1/5 414/1/5
f 416/1/5 404/1/5 403/1/5
f 416/1/5 405/1/5 404/1/5
f 417/1/5 405/1/5 416/1/5
f 422/1/5 419/1/5 418/1/5
f 423/1/5 419/1/5 422/1/5
f 424/1/5 421/1/5 420/1/5
f 425/1/5 421/1/5 424/1/5
f 428/1/5 427/1/5 426/1/5
f 429/1/5 427/1/5 428/1/5
f 434/6/5 431/6/5 430/6/5
f 435/6/5 431/6/5 434/6/5
f 436/6/5 433/6/5 432/6/5
f 437/6/5 433/6/5 436/6/5
f 438/1/6 439/1/6 442/1/6
f 442/1/6 439/1/6 443/1/6
f 440/1/6 441/1/6 444/1/6
f 444/1/6 441/1/6 445/1/6
f 446/1/6 447/1/6 450/1/6
f 450/1/6 447/1/6 451/1/6
f 448/1/6 449/1/6 452/1/6
f 452/1/6 449/1/6 453/1/6
f 454/2/6 455/2/6 456/2/6
f 456/2/6 455/2/6 457/2/6
f 456/5/6 457/5/6 458/5/6
f 458/5/6 457/5/6 459/5/6
f 459/5/6 457/5/6 460/5/6
f 460/5/6 457/5/6 461/5/6
f 459/5/6 460/5/6 463/5/6
f 463/5/6 460/5/6 464/5/6
f 464/3/6 465/3/6 470/3/6
f 463/3/6 464/3/6 470/3/6
f 462/3/6 463/3/6 470/3/6
f 470/3/6 465/3/6 471/3/6
f 471/3/6 465/3/6 472/3/6
f 465/1/6 466/1/6 473/1/6
f 472/3/6 465/3/6 473/3/6
f 466/3/6 467/3/6 474/3/6
f 473/1/6 466/1/6 474/1/6
f 467/1/6 468/1/6 475/1/6
f 474/3/6 467/3/6 475/3/6
f 468/3/6 469/3/6 476/3/6
f 475/1/6 468/1/6 476/1/6
f 476/3/6 469/3/6 477/3/6
f 471/5/6 472/5/6 479/5/6
f 479/5/6 472/5/6 480/5/6
f 473/1/6 474/1/6 481/1/6
f 481/1/6 474/1/6 482/1/6
f 475/1/6 476/1/6 483/1/6
f 483/1/6 476/1/6 484/1/6
f 479/5/6 480/5/6 485/5/6
f 478/5/6 479/5/6 485/5/6
f 480/5/6 481/5/6 485/5/6
f 485/5/6 481/5/6 486/5/6
f 485/2/6 486/2/6 487/2/6
f 487/2/6 486/2/6 488/2/6
f 489/1/6 490/1/6 494/1/6
f 491/1/6 492/1/6 495/1/6
f 493/1/6 494/1/6 497/1/6
f 494/1/6 490/1/6 498/1/6
f 497/1/6 494/1/6 498/1/6
f 495/1/6 496/1/6 499/1/6
f 491/1/6 495/1/6 499/1/6
f 499/1/6 496/1/6 500/1/6
f 501/1/6 502/1/6 503/1/6
f 503/1/6 502/1/6 504/1/6
f 505/1/6 506/1/6 510/1/6
f 507/1/6 508/1/6 511/1/6
f 509/6/6 510/6/6 513/6/6
f 510/1/6 506/1/6 514/1/6
f 513/6/6 510/6/6 514/6/6
f 514/1/6 506/1/6 515/1/6
f 507/1/6 511/1/6 516/1/6
f 511/6/6 512/6/6 517/6/6
f 516/1/6 511/1/6 517/1/6
f 517/6/6 512/6/6 518/6/6
f 521/6/6 522/6/6 525/6/6
f 525/6/6 522/6/6 526/6/6
f 519/1/6 520/1/6 527/1/6
f 527/1/6 520/1/6 528/1/6
f 523/6/6 524/6/6 529/6/6
f 529/6/6 524/6/6 530/6/6
