# MagicaVoxel @ Ephtracy

# group
o 

# material
mtllib minotaur_walk_2.mtl
usemtl palette

# normals
vn -1 0 0
vn 1 0 0
vn 0 0 1
vn 0 0 -1
vn 0 -1 0
vn 0 1 0

# texcoords
vt 0.783203 0.5
vt 0.791016 0.5
vt 0.814453 0.5
vt 0.818359 0.5
vt 0.943359 0.5
vt 0.947266 0.5
vt 0.970703 0.5

# verts
v -0.7 0.7 0.7
v -0.7 0.7 0.6
v -0.7 0.7 0.5
v -0.7 0.7 0.4
v -0.7 0.7 0.3
v -0.7 0.7 0.2
v -0.7 0.7 0.1
v -0.7 0.7 0
v -0.7 0.8 0.7
v -0.7 0.8 0.6
v -0.7 0.8 0.5
v -0.7 0.8 0.4
v -0.7 0.8 0.3
v -0.7 0.8 0.2
v -0.7 0.8 0.1
v -0.7 0.8 0
v -0.6 0.7 0.5
v -0.6 0.7 0.4
v -0.6 0.7 0.3
v -0.6 0.7 0.2
v -0.6 0.8 0.5
v -0.6 0.8 0.4
v -0.6 0.8 0.3
v -0.6 0.8 0.2
v -0.4 0.9 0.2
v -0.4 0.9 0
v -0.4 1.1 0.2
v -0.4 1.1 0
v -0.3 0.7 0.3
v -0.3 0.7 0.2
v -0.3 0.8 0.3
v -0.3 0.8 0.2
v -0.3 0.8 0.1
v -0.3 0.8 0
v -0.3 0.9 0.2
v -0.3 0.9 0
v -0.3 1.2 -0.1
v -0.3 1.2 -0.2
v -0.3 1.4 -0.1
v -0.3 1.4 -0.2
v -0.2 0.7 0
v -0.2 0.7 -0.2
v -0.2 1.1 0
v -0.2 1.1 -0.2
v -0.1 0 -0.1
v -0.1 0 -0.2
v -0.1 0.1 -0.1
v -0.1 0.1 -0.2
v -0.1 0.1 -0.3
v -0.1 0.2 0
v -0.1 0.2 -0.2
v -0.1 0.2 -0.3
v -0.1 0.3 0.1
v -0.1 0.3 0
v -0.1 0.3 -0.2
v -0.1 0.6 0.1
v -0.1 0.6 -0.2
v -0.1 0.7 0.1
v -0.1 0.7 -0.2
v -0.1 1.1 0.1
v -0.1 1.1 -0.2
v -0.1 1.2 -0.1
v -0.1 1.2 -0.2
v -0.1 1.3 0.1
v -0.1 1.3 -0.1
v 0 0.7 0.3
v 0 0.7 0.2
v 0 0.8 0.3
v 0 0.8 0.2
v 0 1.1 0.3
v 0 1.1 0.1
v 0 1.3 0.3
v 0 1.3 0.2
v 0 1.3 0.1
v 0 1.3 -0.2
v 0 1.4 0.2
v 0 1.4 -0.2
v 0.1 0.3 0.2
v 0.1 0.3 0.1
v 0.1 0.5 0.2
v 0.1 0.5 0.1
v 0.2 0 0.2
v 0.2 0 0.1
v 0.2 0.1 0.2
v 0.2 0.1 0.1
v 0.2 0.1 0
v 0.2 0.2 0.2
v 0.2 0.2 0.1
v 0.2 0.2 0
v 0.2 0.3 0.2
v 0.2 0.3 0.1
v 0.2 0.7 0.2
v 0.2 0.7 0.1
v 0.2 0.8 0.2
v 0.2 0.8 0.1
v 0.4 0.7 -0.2
v 0.4 0.7 -0.3
v 0.4 1.1 -0.2
v 0.4 1.1 -0.3
v 0.4 1.3 -0.1
v 0.4 1.3 -0.2
v 0.4 1.4 -0.1
v 0.4 1.4 -0.2
v -0.4 0.7 0.5
v -0.4 0.7 0.4
v -0.4 0.7 0.3
v -0.4 0.7 0.2
v -0.4 0.8 0.5
v -0.4 0.8 0.4
v -0.4 0.8 0.3
v -0.4 0.8 0.2
v -0.3 0.7 0.7
v -0.3 0.7 0.6
v -0.3 0.7 0.5
v -0.3 0.8 0.7
v -0.3 0.8 0.6
v -0.3 0.8 0.5
v -0.2 0.7 0.3
v -0.2 0.7 0.1
v -0.2 0.8 0.3
v -0.2 0.8 0.2
v -0.2 1.1 0.2
v -0.2 1.1 0.1
v -0.2 1.3 -0.1
v -0.2 1.3 -0.2
v -0.2 1.4 -0.1
v -0.2 1.4 -0.2
v 0 0 -0.1
v 0 0 -0.2
v 0 0.1 -0.1
v 0 0.1 -0.2
v 0 0.1 -0.3
v 0 0.2 0
v 0 0.2 -0.2
v 0 0.2 -0.3
v 0 0.3 0
v 0 0.3 -0.1
v 0 0.3 -0.2
v 0 0.7 0.4
v 0 0.7 0.3
v 0 0.8 0.4
v 0 0.8 0.3
v 0.1 0.3 -0.1
v 0.1 0.3 -0.2
v 0.1 0.5 -0.1
v 0.1 0.5 -0.2
v 0.2 0.7 0.3
v 0.2 0.7 0.2
v 0.2 0.8 0.3
v 0.2 0.8 0.2
v 0.2 1.1 0.3
v 0.2 1.1 0.1
v 0.2 1.3 0.3
v 0.2 1.3 0.2
v 0.2 1.3 0.1
v 0.2 1.3 -0.2
v 0.2 1.4 0.2
v 0.2 1.4 -0.2
v 0.3 0 0.2
v 0.3 0 0.1
v 0.3 0.1 0.2
v 0.3 0.1 0.1
v 0.3 0.1 0
v 0.3 0.2 0.2
v 0.3 0.2 0.1
v 0.3 0.2 0
v 0.3 0.3 0.2
v 0.3 0.3 0.1
v 0.3 0.3 -0.1
v 0.3 0.5 0.2
v 0.3 0.5 0.1
v 0.3 0.5 -0.1
v 0.3 0.5 -0.2
v 0.3 0.6 0.1
v 0.3 0.6 -0.2
v 0.3 0.7 0.1
v 0.3 0.7 -0.2
v 0.3 1.1 0.1
v 0.3 1.1 -0.2
v 0.3 1.2 -0.1
v 0.3 1.2 -0.2
v 0.3 1.3 0.1
v 0.3 1.3 -0.1
v 0.4 0.7 0.2
v 0.4 0.7 0.1
v 0.4 0.8 0.2
v 0.4 0.8 0.1
v 0.4 0.8 -0.1
v 0.4 1.1 0.1
v 0.4 1.1 -0.1
v 0.5 0.7 0
v 0.5 0.7 -0.3
v 0.5 0.8 0
v 0.5 0.8 -0.1
v 0.5 0.9 -0.1
v 0.5 0.9 -0.3
v 0.5 1.2 -0.1
v 0.5 1.2 -0.2
v 0.5 1.4 -0.1
v 0.5 1.4 -0.2
v 0.6 0.9 -0.1
v 0.6 0.9 -0.3
v 0.6 1.1 -0.1
v 0.6 1.1 -0.3
v 0.7 0.7 0.1
v 0.7 0.7 0
v 0.7 0.8 0.1
v 0.7 0.8 0
v -0.7 0.7 0.7
v -0.7 0.8 0.7
v -0.3 0.7 0.7
v -0.3 0.8 0.7
v -0.7 0.7 0.4
v -0.7 0.8 0.4
v -0.6 0.7 0.4
v -0.6 0.8 0.4
v -0.4 0.7 0.4
v -0.4 0.8 0.4
v -0.3 0.7 0.4
v -0.3 0.8 0.4
v -0.2 0.7 0.4
v -0.2 0.8 0.4
v 0 0.7 0.4
v 0 0.8 0.4
v 0 0.7 0.3
v 0 0.8 0.3
v 0 1.1 0.3
v 0 1.3 0.3
v 0.2 0.7 0.3
v 0.2 0.8 0.3
v 0.2 1.1 0.3
v 0.2 1.3 0.3
v -0.7 0.7 0.2
v -0.7 0.8 0.2
v -0.6 0.7 0.2
v -0.6 0.8 0.2
v -0.4 0.7 0.2
v -0.4 0.8 0.2
v -0.4 0.9 0.2
v -0.4 1.1 0.2
v -0.3 0.7 0.2
v -0.3 0.8 0.2
v -0.3 0.9 0.2
v -0.2 0.8 0.2
v -0.2 1.1 0.2
v 0 1.3 0.2
v 0 1.4 0.2
v 0.1 0.3 0.2
v 0.1 0.5 0.2
v 0.2 0 0.2
v 0.2 0.1 0.2
v 0.2 0.2 0.2
v 0.2 0.3 0.2
v 0.2 0.7 0.2
v 0.2 0.8 0.2
v 0.2 1.3 0.2
v 0.2 1.4 0.2
v 0.3 0 0.2
v 0.3 0.1 0.2
v 0.3 0.2 0.2
v 0.3 0.3 0.2
v 0.3 0.5 0.2
v 0.4 0.7 0.2
v 0.4 0.8 0.2
v -0.2 0.7 0.1
v -0.2 1.1 0.1
v -0.1 0.3 0.1
v -0.1 0.6 0.1
v -0.1 0.7 0.1
v -0.1 1.1 0.1
v -0.1 1.3 0.1
v 0 1.1 0.1
v 0 1.3 0.1
v 0.1 0.3 0.1
v 0.1 0.5 0.1
v 0.2 0.1 0.1
v 0.2 0.2 0.1
v 0.2 0.7 0.1
v 0.2 0.8 0.1
v 0.2 1.1 0.1
v 0.2 1.3 0.1
v 0.3 0.1 0.1
v 0.3 0.2 0.1
v 0.3 0.5 0.1
v 0.3 0.6 0.1
v 0.3 0.7 0.1
v 0.3 1.1 0.1
v 0.3 1.3 0.1
v 0.4 0.7 0.1
v 0.4 0.8 0.1
v 0.4 1.1 0.1
v 0.5 0.7 0.1
v 0.5 0.8 0.1
v 0.7 0.7 0.1
v 0.7 0.8 0.1
v -0.1 0.2 0
v -0.1 0.3 0
v 0 0.2 0
v 0 0.3 0
v -0.3 1.2 -0.1
v -0.3 1.4 -0.1
v -0.2 1.3 -0.1
v -0.2 1.4 -0.1
v -0.1 0 -0.1
v -0.1 0.1 -0.1
v -0.1 1.2 -0.1
v -0.1 1.3 -0.1
v 0 0 -0.1
v 0 0.1 -0.1
v 0.3 1.2 -0.1
v 0.3 1.3 -0.1
v 0.4 0.8 -0.1
v 0.4 1.1 -0.1
v 0.4 1.3 -0.1
v 0.4 1.4 -0.1
v 0.5 0.8 -0.1
v 0.5 0.9 -0.1
v 0.5 1.2 -0.1
v 0.5 1.4 -0.1
v 0.6 0.9 -0.1
v 0.6 1.1 -0.1
v -0.1 0.1 -0.2
v -0.1 0.2 -0.2
v 0 0.1 -0.2
v 0 0.2 -0.2
v -0.7 0.7 0.5
v -0.7 0.8 0.5
v -0.6 0.7 0.5
v -0.6 0.8 0.5
v -0.4 0.7 0.5
v -0.4 0.8 0.5
v -0.3 0.7 0.5
v -0.3 0.8 0.5
v -0.7 0.7 0.3
v -0.7 0.8 0.3
v -0.6 0.7 0.3
v -0.6 0.8 0.3
v -0.4 0.7 0.3
v -0.4 0.8 0.3
v -0.3 0.7 0.3
v -0.3 0.8 0.3
v -0.2 0.7 0.3
v -0.2 0.8 0.3
v 0 0.7 0.3
v 0 0.8 0.3
v 0 0.7 0.2
v 0 0.8 0.2
v 0.2 0.7 0.2
v 0.2 0.8 0.2
v 0.2 0 0.1
v 0.2 0.1 0.1
v 0.2 0.2 0.1
v 0.2 0.3 0.1
v 0.3 0 0.1
v 0.3 0.1 0.1
v 0.3 0.2 0.1
v 0.3 0.3 0.1
v -0.7 0.7 0
v -0.7 0.8 0
v -0.4 0.9 0
v -0.4 1.1 0
v -0.3 0.7 0
v -0.3 0.8 0
v -0.3 0.9 0
v -0.2 0.7 0
v -0.2 1.1 0
v 0.2 0.1 0
v 0.2 0.2 0
v 0.3 0.1 0
v 0.3 0.2 0
v 0.5 0.7 0
v 0.5 0.8 0
v 0.7 0.7 0
v 0.7 0.8 0
v 0.1 0.3 -0.1
v 0.1 0.5 -0.1
v 0.3 0.3 -0.1
v 0.3 0.5 -0.1
v -0.3 1.2 -0.2
v -0.3 1.4 -0.2
v -0.2 0.7 -0.2
v -0.2 1.1 -0.2
v -0.2 1.3 -0.2
v -0.2 1.4 -0.2
v -0.1 0 -0.2
v -0.1 0.1 -0.2
v -0.1 0.2 -0.2
v -0.1 0.3 -0.2
v -0.1 0.6 -0.2
v -0.1 0.7 -0.2
v -0.1 1.1 -0.2
v -0.1 1.2 -0.2
v -0.1 1.3 -0.2
v 0 0 -0.2
v 0 0.1 -0.2
v 0 0.2 -0.2
v 0 0.3 -0.2
v 0 1.3 -0.2
v 0 1.4 -0.2
v 0.1 0.3 -0.2
v 0.1 0.5 -0.2
v 0.2 1.3 -0.2
v 0.2 1.4 -0.2
v 0.3 0.5 -0.2
v 0.3 0.6 -0.2
v 0.3 0.7 -0.2
v 0.3 1.1 -0.2
v 0.3 1.2 -0.2
v 0.3 1.3 -0.2
v 0.4 0.7 -0.2
v 0.4 1.1 -0.2
v 0.4 1.3 -0.2
v 0.4 1.4 -0.2
v 0.5 1.2 -0.2
v 0.5 1.4 -0.2
v -0.1 0.1 -0.3
v -0.1 0.2 -0.3
v 0 0.1 -0.3
v 0 0.2 -0.3
v 0.4 0.7 -0.3
v 0.4 1.1 -0.3
v 0.5 0.7 -0.3
v 0.5 0.9 -0.3
v 0.6 0.9 -0.3
v 0.6 1.1 -0.3
v 0.2 0 0.2
v 0.3 0 0.2
v 0.2 0 0.1
v 0.3 0 0.1
v -0.1 0 -0.1
v 0 0 -0.1
v -0.1 0 -0.2
v 0 0 -0.2
v 0.2 0.1 0.1
v 0.3 0.1 0.1
v 0.2 0.1 0
v 0.3 0.1 0
v -0.1 0.1 -0.2
v 0 0.1 -0.2
v -0.1 0.1 -0.3
v 0 0.1 -0.3
v 0.2 0.2 0.2
v 0.3 0.2 0.2
v 0.2 0.2 0.1
v 0.3 0.2 0.1
v -0.1 0.2 0
v 0 0.2 0
v -0.1 0.2 -0.2
v 0 0.2 -0.2
v 0.1 0.3 0.2
v 0.2 0.3 0.2
v -0.1 0.3 0.1
v 0.1 0.3 0.1
v 0.2 0.3 0.1
v 0.3 0.3 0.1
v -0.1 0.3 0
v 0 0.3 0
v 0.1 0.3 0
v 0.2 0.3 0
v 0 0.3 -0.1
v 0.1 0.3 -0.1
v 0.3 0.3 -0.1
v 0 0.3 -0.2
v 0.1 0.3 -0.2
v 0.1 0.5 -0.1
v 0.3 0.5 -0.1
v 0.1 0.5 -0.2
v 0.3 0.5 -0.2
v -0.7 0.7 0.7
v -0.3 0.7 0.7
v -0.7 0.7 0.6
v -0.3 0.7 0.6
v -0.7 0.7 0.5
v -0.6 0.7 0.5
v -0.4 0.7 0.5
v -0.3 0.7 0.5
v -0.7 0.7 0.4
v -0.6 0.7 0.4
v -0.4 0.7 0.4
v -0.3 0.7 0.4
v -0.2 0.7 0.4
v 0 0.7 0.4
v -0.7 0.7 0.3
v -0.6 0.7 0.3
v -0.4 0.7 0.3
v -0.3 0.7 0.3
v -0.2 0.7 0.3
v 0 0.7 0.3
v 0.2 0.7 0.3
v -0.7 0.7 0.2
v -0.6 0.7 0.2
v -0.4 0.7 0.2
v -0.3 0.7 0.2
v 0 0.7 0.2
v 0.2 0.7 0.2
v 0.4 0.7 0.2
v -0.7 0.7 0.1
v -0.3 0.7 0.1
v -0.2 0.7 0.1
v -0.1 0.7 0.1
v 0.2 0.7 0.1
v 0.3 0.7 0.1
v 0.4 0.7 0.1
v 0.5 0.7 0.1
v 0.7 0.7 0.1
v -0.7 0.7 0
v -0.3 0.7 0
v -0.2 0.7 0
v 0.5 0.7 0
v 0.7 0.7 0
v -0.2 0.7 -0.2
v -0.1 0.7 -0.2
v 0.3 0.7 -0.2
v 0.4 0.7 -0.2
v 0.4 0.7 -0.3
v 0.5 0.7 -0.3
v -0.4 0.9 0.2
v -0.3 0.9 0.2
v -0.4 0.9 0
v -0.3 0.9 0
v 0.5 0.9 -0.1
v 0.6 0.9 -0.1
v 0.5 0.9 -0.3
v 0.6 0.9 -0.3
v 0 1.1 0.3
v 0.2 1.1 0.3
v 0 1.1 0.1
v 0.2 1.1 0.1
v -0.3 1.2 -0.1
v -0.1 1.2 -0.1
v 0.3 1.2 -0.1
v 0.5 1.2 -0.1
v -0.3 1.2 -0.2
v -0.1 1.2 -0.2
v 0.3 1.2 -0.2
v 0.5 1.2 -0.2
v 0.2 0.1 0.2
v 0.3 0.1 0.2
v 0.2 0.1 0.1
v 0.3 0.1 0.1
v -0.1 0.1 -0.1
v 0 0.1 -0.1
v -0.1 0.1 -0.2
v 0 0.1 -0.2
v 0.2 0.2 0.1
v 0.3 0.2 0.1
v 0.2 0.2 0
v 0.3 0.2 0
v -0.1 0.2 -0.2
v 0 0.2 -0.2
v -0.1 0.2 -0.3
v 0 0.2 -0.3
v 0.1 0.5 0.2
v 0.3 0.5 0.2
v 0.1 0.5 0.1
v 0.3 0.5 0.1
v -0.7 0.8 0.7
v -0.3 0.8 0.7
v -0.7 0.8 0.6
v -0.3 0.8 0.6
v -0.7 0.8 0.5
v -0.6 0.8 0.5
v -0.4 0.8 0.5
v -0.3 0.8 0.5
v -0.7 0.8 0.4
v -0.6 0.8 0.4
v -0.4 0.8 0.4
v -0.3 0.8 0.4
v -0.2 0.8 0.4
v 0 0.8 0.4
v -0.7 0.8 0.3
v -0.6 0.8 0.3
v -0.4 0.8 0.3
v -0.3 0.8 0.3
v -0.2 0.8 0.3
v 0 0.8 0.3
v 0.2 0.8 0.3
v -0.7 0.8 0.2
v -0.6 0.8 0.2
v -0.4 0.8 0.2
v -0.3 0.8 0.2
v -0.2 0.8 0.2
v 0 0.8 0.2
v 0.2 0.8 0.2
v 0.4 0.8 0.2
v -0.7 0.8 0.1
v -0.3 0.8 0.1
v 0.2 0.8 0.1
v 0.4 0.8 0.1
v 0.5 0.8 0.1
v 0.7 0.8 0.1
v -0.7 0.8 0
v -0.3 0.8 0
v 0.5 0.8 0
v 0.7 0.8 0
v 0.4 0.8 -0.1
v 0.5 0.8 -0.1
v -0.4 1.1 0.2
v -0.2 1.1 0.2
v -0.2 1.1 0.1
v -0.1 1.1 0.1
v 0.3 1.1 0.1
v 0.4 1.1 0.1
v -0.4 1.1 0
v -0.2 1.1 0
v 0.4 1.1 -0.1
v 0.6 1.1 -0.1
v -0.2 1.1 -0.2
v -0.1 1.1 -0.2
v 0.3 1.1 -0.2
v 0.4 1.1 -0.2
v 0.4 1.1 -0.3
v 0.6 1.1 -0.3
v 0 1.3 0.3
v 0.2 1.3 0.3
v 0 1.3 0.2
v 0.2 1.3 0.2
v -0.1 1.3 0.1
v 0 1.3 0.1
v 0.2 1.3 0.1
v 0.3 1.3 0.1
v -0.2 1.3 -0.1
v -0.1 1.3 -0.1
v 0.3 1.3 -0.1
v 0.4 1.3 -0.1
v -0.2 1.3 -0.2
v -0.1 1.3 -0.2
v 0 1.3 -0.2
v 0.2 1.3 -0.2
v 0.3 1.3 -0.2
v 0.4 1.3 -0.2
v 0 1.4 0.2
v 0.2 1.4 0.2
v -0.3 1.4 -0.1
v -0.2 1.4 -0.1
v 0.4 1.4 -0.1
v 0.5 1.4 -0.1
v -0.3 1.4 -0.2
v -0.2 1.4 -0.2
v 0 1.4 -0.2
v 0.2 1.4 -0.2
v 0.4 1.4 -0.2
v 0.5 1.4 -0.2

# faces
f 9/2/1 2/2/1 1/2/1
f 10/5/1 3/5/1 2/5/1
f 10/2/1 2/2/1 9/2/1
f 11/5/1 3/5/1 10/5/1
f 12/3/1 5/3/1 4/3/1
f 13/3/1 5/3/1 12/3/1
f 14/5/1 7/5/1 6/5/1
f 15/2/1 8/2/1 7/2/1
f 15/5/1 7/5/1 14/5/1
f 16/2/1 8/2/1 15/2/1
f 21/5/1 18/5/1 17/5/1
f 22/5/1 18/5/1 21/5/1
f 23/5/1 20/5/1 19/5/1
f 24/5/1 20/5/1 23/5/1
f 27/1/1 26/1/1 25/1/1
f 28/1/1 26/1/1 27/1/1
f 31/1/1 30/1/1 29/1/1
f 32/1/1 30/1/1 31/1/1
f 35/1/1 34/1/1 33/1/1
f 35/1/1 33/1/1 32/1/1
f 36/1/1 34/1/1 35/1/1
f 39/6/1 38/6/1 37/6/1
f 40/6/1 38/6/1 39/6/1
f 43/1/1 42/1/1 41/1/1
f 44/1/1 42/1/1 43/1/1
f 47/1/1 46/1/1 45/1/1
f 48/1/1 46/1/1 47/1/1
f 51/1/1 49/1/1 48/1/1
f 52/1/1 49/1/1 51/1/1
f 54/1/1 51/1/1 50/1/1
f 55/1/1 51/1/1 54/1/1
f 56/4/1 54/4/1 53/4/1
f 56/4/1 55/4/1 54/4/1
f 57/4/1 55/4/1 56/4/1
f 58/1/1 57/1/1 56/1/1
f 59/1/1 57/1/1 58/1/1
f 62/1/1 61/1/1 60/1/1
f 63/1/1 61/1/1 62/1/1
f 64/1/1 62/1/1 60/1/1
f 65/1/1 62/1/1 64/1/1
f 68/3/1 67/3/1 66/3/1
f 69/3/1 67/3/1 68/3/1
f 72/1/1 71/1/1 70/1/1
f 73/1/1 71/1/1 72/1/1
f 74/1/1 71/1/1 73/1/1
f 76/1/1 75/1/1 74/1/1
f 76/1/1 74/1/1 73/1/1
f 77/1/1 75/1/1 76/1/1
f 80/4/1 79/4/1 78/4/1
f 81/4/1 79/4/1 80/4/1
f 84/1/1 83/1/1 82/1/1
f 85/1/1 83/1/1 84/1/1
f 88/1/1 86/1/1 85/1/1
f 89/1/1 86/1/1 88/1/1
f 90/1/1 88/1/1 87/1/1
f 91/1/1 88/1/1 90/1/1
f 94/3/1 93/3/1 92/3/1
f 95/3/1 93/3/1 94/3/1
f 98/1/1 97/1/1 96/1/1
f 99/1/1 97/1/1 98/1/1
f 102/6/1 101/6/1 100/6/1
f 103/6/1 101/6/1 102/6/1
f 104/5/2 105/5/2 108/5/2
f 108/5/2 105/5/2 109/5/2
f 106/5/2 107/5/2 110/5/2
f 110/5/2 107/5/2 111/5/2
f 112/2/2 113/2/2 115/2/2
f 113/5/2 114/5/2 116/5/2
f 115/2/2 113/2/2 116/2/2
f 116/5/2 114/5/2 117/5/2
f 118/1/2 119/1/2 120/1/2
f 120/1/2 119/1/2 121/1/2
f 121/1/2 119/1/2 122/1/2
f 122/1/2 119/1/2 123/1/2
f 124/6/2 125/6/2 126/6/2
f 126/6/2 125/6/2 127/6/2
f 128/1/2 129/1/2 130/1/2
f 130/1/2 129/1/2 131/1/2
f 131/1/2 132/1/2 134/1/2
f 134/1/2 132/1/2 135/1/2
f 133/1/2 134/1/2 136/1/2
f 136/1/2 134/1/2 137/1/2
f 137/1/2 134/1/2 138/1/2
f 139/3/2 140/3/2 141/3/2
f 141/3/2 140/3/2 142/3/2
f 143/4/2 144/4/2 145/4/2
f 145/4/2 144/4/2 146/4/2
f 147/3/2 148/3/2 149/3/2
f 149/3/2 148/3/2 150/3/2
f 151/1/2 152/1/2 153/1/2
f 153/1/2 152/1/2 154/1/2
f 154/1/2 152/1/2 155/1/2
f 155/1/2 156/1/2 157/1/2
f 154/1/2 155/1/2 157/1/2
f 157/1/2 156/1/2 158/1/2
f 159/1/2 160/1/2 161/1/2
f 161/1/2 160/1/2 162/1/2
f 162/1/2 163/1/2 165/1/2
f 165/1/2 163/1/2 166/1/2
f 164/1/2 165/1/2 167/1/2
f 167/1/2 165/1/2 168/1/2
f 167/4/2 168/4/2 170/4/2
f 168/4/2 169/4/2 170/4/2
f 170/4/2 169/4/2 171/4/2
f 171/4/2 169/4/2 172/4/2
f 172/4/2 173/4/2 174/4/2
f 171/4/2 172/4/2 174/4/2
f 174/4/2 173/4/2 175/4/2
f 174/1/2 175/1/2 176/1/2
f 176/1/2 175/1/2 177/1/2
f 178/1/2 179/1/2 180/1/2
f 180/1/2 179/1/2 181/1/2
f 178/1/2 180/1/2 182/1/2
f 182/1/2 180/1/2 183/1/2
f 184/3/2 185/3/2 186/3/2
f 186/3/2 185/3/2 187/3/2
f 187/1/2 188/1/2 189/1/2
f 189/1/2 188/1/2 190/1/2
f 191/1/2 192/1/2 193/1/2
f 193/1/2 192/1/2 194/1/2
f 194/1/2 192/1/2 195/1/2
f 195/1/2 192/1/2 196/1/2
f 197/6/2 198/6/2 199/6/2
f 199/6/2 198/6/2 200/6/2
f 201/1/2 202/1/2 203/1/2
f 203/1/2 202/1/2 204/1/2
f 205/3/2 206/3/2 207/3/2
f 207/3/2 206/3/2 208/3/2
f 211/2/3 210/2/3 209/2/3
f 212/2/3 210/2/3 211/2/3
f 215/3/3 214/3/3 213/3/3
f 216/3/3 214/3/3 215/3/3
f 219/3/3 218/3/3 217/3/3
f 220/3/3 218/3/3 219/3/3
f 221/1/3 220/1/3 219/1/3
f 222/1/3 220/1/3 221/1/3
f 223/3/3 222/3/3 221/3/3
f 224/3/3 222/3/3 223/3/3
f 229/3/3 226/3/3 225/3/3
f 230/3/3 226/3/3 229/3/3
f 231/1/3 228/1/3 227/1/3
f 232/1/3 228/1/3 231/1/3
f 235/5/3 234/5/3 233/5/3
f 236/5/3 234/5/3 235/5/3
f 241/5/3 238/5/3 237/5/3
f 242/5/3 238/5/3 241/5/3
f 243/1/3 240/1/3 239/1/3
f 244/1/3 243/1/3 242/1/3
f 245/1/3 240/1/3 243/1/3
f 245/1/3 243/1/3 244/1/3
f 253/4/3 249/4/3 248/4/3
f 256/1/3 247/1/3 246/1/3
f 257/1/3 247/1/3 256/1/3
f 258/1/3 251/1/3 250/1/3
f 259/1/3 251/1/3 258/1/3
f 260/1/3 253/1/3 252/1/3
f 261/4/3 249/4/3 253/4/3
f 261/1/3 253/1/3 260/1/3
f 262/4/3 249/4/3 261/4/3
f 263/3/3 255/3/3 254/3/3
f 264/3/3 255/3/3 263/3/3
f 269/1/3 266/1/3 265/1/3
f 270/1/3 266/1/3 269/1/3
f 272/1/3 269/1/3 268/1/3
f 272/1/3 271/1/3 270/1/3
f 272/1/3 270/1/3 269/1/3
f 273/1/3 271/1/3 272/1/3
f 274/4/3 268/4/3 267/4/3
f 275/4/3 268/4/3 274/4/3
f 278/1/3 272/1/3 268/1/3
f 279/1/3 272/1/3 278/1/3
f 280/1/3 272/1/3 279/1/3
f 282/1/3 277/1/3 276/1/3
f 283/1/3 277/1/3 282/1/3
f 284/4/3 268/4/3 275/4/3
f 285/1/3 278/1/3 268/1/3
f 285/4/3 268/4/3 284/4/3
f 286/1/3 278/1/3 285/1/3
f 287/1/3 281/1/3 280/1/3
f 287/1/3 280/1/3 279/1/3
f 288/1/3 281/1/3 287/1/3
f 290/1/3 287/1/3 279/1/3
f 291/1/3 287/1/3 290/1/3
f 292/1/3 290/1/3 289/1/3
f 293/1/3 290/1/3 292/1/3
f 294/3/3 293/3/3 292/3/3
f 295/3/3 293/3/3 294/3/3
f 298/1/3 297/1/3 296/1/3
f 299/1/3 297/1/3 298/1/3
f 302/6/3 301/6/3 300/6/3
f 303/6/3 301/6/3 302/6/3
f 306/6/3 302/6/3 300/6/3
f 307/6/3 302/6/3 306/6/3
f 308/1/3 305/1/3 304/1/3
f 309/1/3 305/1/3 308/1/3
f 314/6/3 311/6/3 310/6/3
f 316/1/3 313/1/3 312/1/3
f 317/1/3 313/1/3 316/1/3
f 318/6/3 314/6/3 310/6/3
f 318/6/3 315/6/3 314/6/3
f 319/6/3 315/6/3 318/6/3
f 320/1/3 313/1/3 317/1/3
f 321/1/3 313/1/3 320/1/3
f 324/1/3 323/1/3 322/1/3
f 325/1/3 323/1/3 324/1/3
f 326/5/4 327/5/4 328/5/4
f 328/5/4 327/5/4 329/5/4
f 330/5/4 331/5/4 332/5/4
f 332/5/4 331/5/4 333/5/4
f 334/3/4 335/3/4 336/3/4
f 336/3/4 335/3/4 337/3/4
f 338/3/4 339/3/4 340/3/4
f 340/3/4 339/3/4 341/3/4
f 342/3/4 343/3/4 344/3/4
f 344/3/4 343/3/4 345/3/4
f 346/3/4 347/3/4 348/3/4
f 348/3/4 347/3/4 349/3/4
f 350/1/4 351/1/4 354/1/4
f 354/1/4 351/1/4 355/1/4
f 352/1/4 353/1/4 356/1/4
f 356/1/4 353/1/4 357/1/4
f 358/2/4 359/2/4 362/2/4
f 362/2/4 359/2/4 363/2/4
f 360/1/4 361/1/4 364/1/4
f 362/1/4 363/1/4 365/1/4
f 363/1/4 364/1/4 365/1/4
f 364/1/4 361/1/4 366/1/4
f 365/1/4 364/1/4 366/1/4
f 367/1/4 368/1/4 369/1/4
f 369/1/4 368/1/4 370/1/4
f 371/3/4 372/3/4 373/3/4
f 373/3/4 372/3/4 374/3/4
f 375/4/4 376/4/4 377/4/4
f 377/4/4 376/4/4 378/4/4
f 379/6/4 380/6/4 383/6/4
f 383/6/4 380/6/4 384/6/4
f 381/1/4 382/1/4 390/1/4
f 390/1/4 382/1/4 391/1/4
f 379/6/4 383/6/4 392/6/4
f 392/6/4 383/6/4 393/6/4
f 385/1/4 386/1/4 394/1/4
f 394/1/4 386/1/4 395/1/4
f 387/1/4 388/1/4 396/1/4
f 388/4/4 389/4/4 397/4/4
f 396/1/4 388/1/4 397/1/4
f 390/1/4 391/1/4 398/1/4
f 389/1/4 390/1/4 398/1/4
f 391/1/4 392/1/4 398/1/4
f 392/1/4 393/1/4 398/1/4
f 397/4/4 389/4/4 400/4/4
f 400/4/4 389/4/4 401/4/4
f 398/1/4 399/1/4 402/1/4
f 389/1/4 398/1/4 402/1/4
f 402/1/4 399/1/4 403/1/4
f 401/4/4 389/4/4 404/4/4
f 389/1/4 402/1/4 405/1/4
f 404/4/4 389/4/4 405/4/4
f 405/1/4 402/1/4 406/1/4
f 406/1/4 402/1/4 407/1/4
f 407/1/4 402/1/4 408/1/4
f 408/1/4 402/1/4 409/1/4
f 406/1/4 407/1/4 410/1/4
f 410/1/4 407/1/4 411/1/4
f 408/6/4 409/6/4 412/6/4
f 408/6/4 412/6/4 414/6/4
f 412/6/4 413/6/4 414/6/4
f 414/6/4 413/6/4 415/6/4
f 416/1/4 417/1/4 418/1/4
f 418/1/4 417/1/4 419/1/4
f 420/1/4 421/1/4 422/1/4
f 422/1/4 421/1/4 423/1/4
f 423/1/4 421/1/4 424/1/4
f 424/1/4 421/1/4 425/1/4
f 428/1/5 427/1/5 426/1/5
f 429/1/5 427/1/5 428/1/5
f 432/1/5 431/1/5 430/1/5
f 433/1/5 431/1/5 432/1/5
f 436/1/5 435/1/5 434/1/5
f 437/1/5 435/1/5 436/1/5
f 440/1/5 439/1/5 438/1/5
f 441/1/5 439/1/5 440/1/5
f 444/1/5 443/1/5 442/1/5
f 445/1/5 443/1/5 444/1/5
f 448/1/5 447/1/5 446/1/5
f 449/1/5 447/1/5 448/1/5
f 453/4/5 451/4/5 450/4/5
f 454/4/5 451/4/5 453/4/5
f 456/4/5 453/4/5 452/4/5
f 457/4/5 453/4/5 456/4/5
f 458/7/5 454/7/5 453/7/5
f 458/4/5 453/4/5 457/4/5
f 459/4/5 455/4/5 454/4/5
f 459/7/5 454/7/5 458/7/5
f 460/7/5 458/7/5 457/7/5
f 461/4/5 459/4/5 458/4/5
f 461/7/5 458/7/5 460/7/5
f 462/4/5 455/4/5 459/4/5
f 462/4/5 459/4/5 461/4/5
f 463/4/5 461/4/5 460/4/5
f 464/4/5 461/4/5 463/4/5
f 467/4/5 466/4/5 465/4/5
f 468/4/5 466/4/5 467/4/5
f 471/2/5 470/2/5 469/2/5
f 472/2/5 470/2/5 471/2/5
f 473/5/5 472/5/5 471/5/5
f 474/5/5 472/5/5 473/5/5
f 475/5/5 472/5/5 474/5/5
f 476/5/5 472/5/5 475/5/5
f 478/5/5 475/5/5 474/5/5
f 479/5/5 475/5/5 478/5/5
f 483/3/5 480/3/5 479/3/5
f 483/3/5 479/3/5 478/3/5
f 483/3/5 478/3/5 477/3/5
f 484/3/5 480/3/5 483/3/5
f 485/3/5 480/3/5 484/3/5
f 486/1/5 481/1/5 480/1/5
f 486/3/5 480/3/5 485/3/5
f 487/3/5 482/3/5 481/3/5
f 487/1/5 481/1/5 486/1/5
f 488/3/5 482/3/5 487/3/5
f 491/5/5 485/5/5 484/5/5
f 492/5/5 485/5/5 491/5/5
f 493/1/5 487/1/5 486/1/5
f 494/3/5 489/3/5 488/3/5
f 495/3/5 489/3/5 494/3/5
f 497/5/5 493/5/5 492/5/5
f 497/5/5 492/5/5 491/5/5
f 497/5/5 491/5/5 490/5/5
f 498/1/5 487/1/5 493/1/5
f 498/5/5 493/5/5 497/5/5
f 499/1/5 487/1/5 498/1/5
f 501/3/5 496/3/5 495/3/5
f 502/3/5 496/3/5 501/3/5
f 503/3/5 496/3/5 502/3/5
f 506/2/5 498/2/5 497/2/5
f 507/1/5 500/1/5 499/1/5
f 507/2/5 498/2/5 506/2/5
f 507/1/5 499/1/5 498/1/5
f 508/1/5 500/1/5 507/1/5
f 509/3/5 505/3/5 504/3/5
f 509/1/5 503/1/5 502/1/5
f 509/1/5 504/1/5 503/1/5
f 510/3/5 505/3/5 509/3/5
f 511/1/5 500/1/5 508/1/5
f 512/1/5 500/1/5 511/1/5
f 513/1/5 509/1/5 502/1/5
f 514/1/5 509/1/5 513/1/5
f 515/1/5 509/1/5 514/1/5
f 516/1/5 509/1/5 515/1/5
f 519/1/5 518/1/5 517/1/5
f 520/1/5 518/1/5 519/1/5
f 523/1/5 522/1/5 521/1/5
f 524/1/5 522/1/5 523/1/5
f 527/1/5 526/1/5 525/1/5
f 528/1/5 526/1/5 527/1/5
f 533/6/5 530/6/5 529/6/5
f 534/6/5 530/6/5 533/6/5
f 535/6/5 532/6/5 531/6/5
f 536/6/5 532/6/5 535/6/5
f 537/1/6 538/1/6 539/1/6
f 539/1/6 538/1/6 540/1/6
f 541/1/6 542/1/6 543/1/6
f 543/1/6 542/1/6 544/1/6
f 545/1/6 546/1/6 547/1/6
f 547/1/6 546/1/6 548/1/6
f 549/1/6 550/1/6 551/1/6
f 551/1/6 550/1/6 552/1/6
f 553/4/6 554/4/6 555/4/6
f 555/4/6 554/4/6 556/4/6
f 557/2/6 558/2/6 559/2/6
f 559/2/6 558/2/6 560/2/6
f 559/5/6 560/5/6 561/5/6
f 561/5/6 560/5/6 562/5/6
f 562/5/6 560/5/6 563/5/6
f 563/5/6 560/5/6 564/5/6
f 562/5/6 563/5/6 566/5/6
f 566/5/6 563/5/6 567/5/6
f 567/3/6 568/3/6 571/3/6
f 566/3/6 567/3/6 571/3/6
f 565/3/6 566/3/6 571/3/6
f 571/3/6 568/3/6 572/3/6
f 572/3/6 568/3/6 573/3/6
f 568/1/6 569/1/6 574/1/6
f 573/3/6 568/3/6 574/3/6
f 569/3/6 570/3/6 575/3/6
f 574/1/6 569/1/6 575/1/6
f 575/3/6 570/3/6 576/3/6
f 572/5/6 573/5/6 579/5/6
f 579/5/6 573/5/6 580/5/6
f 574/1/6 575/1/6 581/1/6
f 581/1/6 575/1/6 582/1/6
f 576/3/6 577/3/6 583/3/6
f 583/3/6 577/3/6 584/3/6
f 579/5/6 580/5/6 586/5/6
f 578/5/6 579/5/6 586/5/6
f 580/5/6 581/5/6 586/5/6
f 586/5/6 581/5/6 587/5/6
f 584/3/6 585/3/6 588/3/6
f 588/3/6 585/3/6 589/3/6
f 586/2/6 587/2/6 592/2/6
f 592/2/6 587/2/6 593/2/6
f 590/3/6 591/3/6 594/3/6
f 589/1/6 590/1/6 594/1/6
f 594/3/6 591/3/6 595/3/6
f 589/1/6 594/1/6 596/1/6
f 596/1/6 594/1/6 597/1/6
f 598/1/6 599/1/6 600/1/6
f 598/1/6 600/1/6 604/1/6
f 600/1/6 601/1/6 604/1/6
f 604/1/6 601/1/6 605/1/6
f 602/1/6 603/1/6 606/1/6
f 605/1/6 601/1/6 608/1/6
f 608/1/6 601/1/6 609/1/6
f 606/1/6 607/1/6 610/1/6
f 602/1/6 606/1/6 610/1/6
f 610/1/6 607/1/6 611/1/6
f 611/1/6 607/1/6 612/1/6
f 612/1/6 607/1/6 613/1/6
f 614/1/6 615/1/6 616/1/6
f 616/1/6 615/1/6 617/1/6
f 618/1/6 619/1/6 623/1/6
f 620/1/6 621/1/6 624/1/6
f 622/6/6 623/6/6 626/6/6
f 623/1/6 619/1/6 627/1/6
f 626/6/6 623/6/6 627/6/6
f 627/1/6 619/1/6 628/1/6
f 620/1/6 624/1/6 629/1/6
f 624/6/6 625/6/6 630/6/6
f 629/1/6 624/1/6 630/1/6
f 630/6/6 625/6/6 631/6/6
f 634/6/6 635/6/6 638/6/6
f 638/6/6 635/6/6 639/6/6
f 632/1/6 633/1/6 640/1/6
f 640/1/6 633/1/6 641/1/6
f 636/6/6 637/6/6 642/6/6
f 642/6/6 637/6/6 643/6/6
