# MagicaVoxel @ Ephtracy

# group
o 

# material
mtllib minotaur_walk_1.mtl
usemtl palette

# normals
vn -1 0 0
vn 1 0 0
vn 0 0 1
vn 0 0 -1
vn 0 -1 0
vn 0 1 0

# texcoords
vt 0.783203 0.5
vt 0.791016 0.5
vt 0.814453 0.5
vt 0.818359 0.5
vt 0.943359 0.5
vt 0.947266 0.5
vt 0.970703 0.5

# verts
v -0.7 0.6 0.5
v -0.7 0.6 0.4
v -0.7 0.6 0.3
v -0.7 0.6 0.2
v -0.7 0.6 0.1
v -0.7 0.6 -5.96046e-08
v -0.7 0.6 -0.1
v -0.7 0.6 -0.2
v -0.7 0.7 0.5
v -0.7 0.7 0.4
v -0.7 0.7 0.3
v -0.7 0.7 0.2
v -0.7 0.7 0.1
v -0.7 0.7 -5.96046e-08
v -0.7 0.7 -0.1
v -0.7 0.7 -0.2
v -0.6 0.6 0.3
v -0.6 0.6 0.2
v -0.6 0.6 0.1
v -0.6 0.6 -5.96046e-08
v -0.6 0.7 0.3
v -0.6 0.7 0.2
v -0.6 0.7 0.1
v -0.6 0.7 -5.96046e-08
v -0.4 0.7 -5.96046e-08
v -0.4 0.7 -0.1
v -0.4 0.7 -0.2
v -0.4 0.9 -5.96046e-08
v -0.4 0.9 -0.2
v -0.3 0.6 0.1
v -0.3 0.6 -5.96046e-08
v -0.3 0.7 0.1
v -0.3 0.7 -5.96046e-08
v -0.3 1.1 -0.1
v -0.3 1.1 -0.2
v -0.3 1.3 -0.1
v -0.3 1.3 -0.2
v -0.2 0.7 0.1
v -0.2 0.7 -5.96046e-08
v -0.2 0.9 -5.96046e-08
v -0.2 0.9 -0.2
v -0.2 1 0.1
v -0.2 1 -0.2
v -0.1 0 -5.96046e-08
v -0.1 0 -0.1
v -0.1 0.1 -5.96046e-08
v -0.1 0.1 -0.1
v -0.1 0.1 -0.2
v -0.1 0.2 0.1
v -0.1 0.2 -0.1
v -0.1 0.2 -0.2
v -0.1 0.3 0.1
v -0.1 0.3 -0.1
v -0.1 0.3 -0.2
v -0.1 0.6 0.1
v -0.1 0.6 -0.2
v -0.1 0.7 0.1
v -0.1 0.7 -0.2
v -0.1 1 0.1
v -0.1 1 -0.2
v -0.1 1.1 -0.1
v -0.1 1.1 -0.2
v -0.1 1.2 0.1
v -0.1 1.2 -0.1
v 0 1 0.3
v 0 1 0.1
v 0 1.2 0.3
v 0 1.2 0.2
v 0 1.2 0.1
v 0 1.2 -0.2
v 0 1.3 0.2
v 0 1.3 -0.2
v 0.2 0.1 0.1
v 0.2 0.1 -5.96046e-08
v 0.2 0.2 0.1
v 0.2 0.2 -5.96046e-08
v 0.2 0.2 -0.1
v 0.2 0.3 0.2
v 0.2 0.3 0.1
v 0.2 0.3 -5.96046e-08
v 0.2 0.3 -0.1
v 0.2 0.5 0.2
v 0.2 0.5 0.1
v 0.4 0.6 0.1
v 0.4 0.6 -0.2
v 0.4 0.7 0.1
v 0.4 0.7 -0.2
v 0.4 1.2 -0.1
v 0.4 1.2 -0.2
v 0.4 1.3 -0.1
v 0.4 1.3 -0.2
v -0.4 0.6 0.3
v -0.4 0.6 0.2
v -0.4 0.6 0.1
v -0.4 0.6 -5.96046e-08
v -0.4 0.7 0.3
v -0.4 0.7 0.2
v -0.4 0.7 0.1
v -0.4 0.7 -5.96046e-08
v -0.3 0.6 0.5
v -0.3 0.6 0.4
v -0.3 0.6 0.3
v -0.3 0.7 0.5
v -0.3 0.7 0.4
v -0.3 0.7 0.3
v -0.2 0.6 0.1
v -0.2 0.6 -0.2
v -0.2 0.7 0.1
v -0.2 0.7 -0.2
v -0.2 1.2 -0.1
v -0.2 1.2 -0.2
v -0.2 1.3 -0.1
v -0.2 1.3 -0.2
v 0 0 -5.96046e-08
v 0 0 -0.1
v 0 0.1 -5.96046e-08
v 0 0.1 -0.1
v 0 0.1 -0.2
v 0 0.2 0.1
v 0 0.2 -0.1
v 0 0.2 -0.2
v 0 0.3 0.1
v 0 0.3 -5.96046e-08
v 0 0.3 -0.1
v 0.2 1 0.3
v 0.2 1 0.1
v 0.2 1.2 0.3
v 0.2 1.2 0.2
v 0.2 1.2 0.1
v 0.2 1.2 -0.2
v 0.2 1.3 0.2
v 0.2 1.3 -0.2
v 0.3 0.1 0.1
v 0.3 0.1 -5.96046e-08
v 0.3 0.2 0.1
v 0.3 0.2 -5.96046e-08
v 0.3 0.2 -0.1
v 0.3 0.3 0.2
v 0.3 0.3 -5.96046e-08
v 0.3 0.3 -0.1
v 0.3 0.3 -0.2
v 0.3 0.5 0.2
v 0.3 0.5 0.1
v 0.3 0.5 -5.96046e-08
v 0.3 0.6 0.1
v 0.3 0.6 -0.2
v 0.3 0.7 0.1
v 0.3 0.7 -0.2
v 0.3 1 0.1
v 0.3 1 -0.2
v 0.3 1.1 -0.1
v 0.3 1.1 -0.2
v 0.3 1.2 0.1
v 0.3 1.2 -0.1
v 0.4 0.7 0.1
v 0.4 0.7 -5.96046e-08
v 0.4 0.9 -5.96046e-08
v 0.4 0.9 -0.2
v 0.4 1 0.1
v 0.4 1 -0.2
v 0.5 0.6 0.1
v 0.5 0.6 -0.2
v 0.5 0.7 0.1
v 0.5 0.7 -5.96046e-08
v 0.5 0.7 -0.2
v 0.5 1.1 -0.1
v 0.5 1.1 -0.2
v 0.5 1.3 -0.1
v 0.5 1.3 -0.2
v 0.6 0.7 -5.96046e-08
v 0.6 0.7 -0.2
v 0.6 0.9 -5.96046e-08
v 0.6 0.9 -0.2
v 0.7 0.6 0.2
v 0.7 0.6 0.1
v 0.7 0.7 0.2
v 0.7 0.7 0.1
v -0.7 0.6 0.5
v -0.7 0.7 0.5
v -0.3 0.6 0.5
v -0.3 0.7 0.5
v 0 1 0.3
v 0 1.2 0.3
v 0.2 1 0.3
v 0.2 1.2 0.3
v -0.7 0.6 0.2
v -0.7 0.7 0.2
v -0.6 0.6 0.2
v -0.6 0.7 0.2
v -0.4 0.6 0.2
v -0.4 0.7 0.2
v -0.3 0.6 0.2
v -0.3 0.7 0.2
v -0.2 0.6 0.2
v -0.2 0.7 0.2
v 0 1.2 0.2
v 0 1.3 0.2
v 0.2 0.3 0.2
v 0.2 0.5 0.2
v 0.2 1.2 0.2
v 0.2 1.3 0.2
v 0.3 0.3 0.2
v 0.3 0.5 0.2
v 0.4 0.6 0.2
v 0.4 0.7 0.2
v 0.5 0.6 0.2
v 0.5 0.7 0.2
v 0.7 0.6 0.2
v 0.7 0.7 0.2
v -0.2 0.7 0.1
v -0.2 1 0.1
v -0.1 0.2 0.1
v -0.1 0.3 0.1
v -0.1 0.6 0.1
v -0.1 1 0.1
v -0.1 1.2 0.1
v 0 0.2 0.1
v 0 0.3 0.1
v 0 1 0.1
v 0 1.2 0.1
v 0.2 0.1 0.1
v 0.2 0.2 0.1
v 0.2 0.3 0.1
v 0.2 0.5 0.1
v 0.2 1 0.1
v 0.2 1.2 0.1
v 0.3 0.1 0.1
v 0.3 0.2 0.1
v 0.3 0.5 0.1
v 0.3 0.6 0.1
v 0.3 1 0.1
v 0.3 1.2 0.1
v 0.4 0.7 0.1
v 0.4 1 0.1
v -0.7 0.6 -5.96046e-08
v -0.7 0.7 -5.96046e-08
v -0.6 0.6 -5.96046e-08
v -0.6 0.7 -5.96046e-08
v -0.4 0.6 -5.96046e-08
v -0.4 0.7 -5.96046e-08
v -0.4 0.9 -5.96046e-08
v -0.3 0.6 -5.96046e-08
v -0.3 0.7 -5.96046e-08
v -0.2 0.7 -5.96046e-08
v -0.2 0.9 -5.96046e-08
v -0.1 0 -5.96046e-08
v -0.1 0.1 -5.96046e-08
v 0 0 -5.96046e-08
v 0 0.1 -5.96046e-08
v 0.2 0.2 -5.96046e-08
v 0.2 0.3 -5.96046e-08
v 0.3 0.2 -5.96046e-08
v 0.3 0.3 -5.96046e-08
v 0.4 0.7 -5.96046e-08
v 0.4 0.9 -5.96046e-08
v 0.5 0.7 -5.96046e-08
v 0.6 0.7 -5.96046e-08
v 0.6 0.9 -5.96046e-08
v -0.3 1.1 -0.1
v -0.3 1.3 -0.1
v -0.2 1.2 -0.1
v -0.2 1.3 -0.1
v -0.1 0.1 -0.1
v -0.1 0.2 -0.1
v -0.1 1.1 -0.1
v -0.1 1.2 -0.1
v 0 0.1 -0.1
v 0 0.2 -0.1
v 0.3 1.1 -0.1
v 0.3 1.2 -0.1
v 0.4 1.2 -0.1
v 0.4 1.3 -0.1
v 0.5 1.1 -0.1
v 0.5 1.3 -0.1
v -0.7 0.6 0.3
v -0.7 0.7 0.3
v -0.6 0.6 0.3
v -0.6 0.7 0.3
v -0.4 0.6 0.3
v -0.4 0.7 0.3
v -0.3 0.6 0.3
v -0.3 0.7 0.3
v -0.7 0.6 0.1
v -0.7 0.7 0.1
v -0.6 0.6 0.1
v -0.6 0.7 0.1
v -0.4 0.6 0.1
v -0.4 0.7 0.1
v -0.3 0.6 0.1
v -0.3 0.7 0.1
v -0.2 0.6 0.1
v -0.2 0.7 0.1
v -0.1 0.6 0.1
v -0.1 0.7 0.1
v 0.3 0.6 0.1
v 0.3 0.7 0.1
v 0.4 0.6 0.1
v 0.4 0.7 0.1
v 0.5 0.6 0.1
v 0.5 0.7 0.1
v 0.7 0.6 0.1
v 0.7 0.7 0.1
v 0.2 0.1 -5.96046e-08
v 0.2 0.2 -5.96046e-08
v 0.3 0.1 -5.96046e-08
v 0.3 0.2 -5.96046e-08
v -0.1 0 -0.1
v -0.1 0.1 -0.1
v -0.1 0.2 -0.1
v -0.1 0.3 -0.1
v 0 0 -0.1
v 0 0.1 -0.1
v 0 0.2 -0.1
v 0 0.3 -0.1
v 0.2 0.2 -0.1
v 0.2 0.3 -0.1
v 0.3 0.2 -0.1
v 0.3 0.3 -0.1
v -0.7 0.6 -0.2
v -0.7 0.7 -0.2
v -0.4 0.7 -0.2
v -0.4 0.9 -0.2
v -0.3 0.6 -0.2
v -0.3 0.7 -0.2
v -0.3 1.1 -0.2
v -0.3 1.3 -0.2
v -0.2 0.6 -0.2
v -0.2 0.7 -0.2
v -0.2 0.9 -0.2
v -0.2 1 -0.2
v -0.2 1.2 -0.2
v -0.2 1.3 -0.2
v -0.1 0.1 -0.2
v -0.1 0.2 -0.2
v -0.1 0.3 -0.2
v -0.1 0.6 -0.2
v -0.1 0.7 -0.2
v -0.1 1 -0.2
v -0.1 1.1 -0.2
v -0.1 1.2 -0.2
v 0 0.1 -0.2
v 0 0.2 -0.2
v 0 1.2 -0.2
v 0 1.3 -0.2
v 0.2 1.2 -0.2
v 0.2 1.3 -0.2
v 0.3 0.3 -0.2
v 0.3 0.6 -0.2
v 0.3 0.7 -0.2
v 0.3 1 -0.2
v 0.3 1.1 -0.2
v 0.3 1.2 -0.2
v 0.4 0.6 -0.2
v 0.4 0.7 -0.2
v 0.4 0.9 -0.2
v 0.4 1 -0.2
v 0.4 1.2 -0.2
v 0.4 1.3 -0.2
v 0.5 0.6 -0.2
v 0.5 0.7 -0.2
v 0.5 1.1 -0.2
v 0.5 1.3 -0.2
v 0.6 0.7 -0.2
v 0.6 0.9 -0.2
v -0.1 0 -5.96046e-08
v 0 0 -5.96046e-08
v -0.1 0 -0.1
v 0 0 -0.1
v 0.2 0.1 0.1
v 0.3 0.1 0.1
v 0.2 0.1 -5.96046e-08
v 0.3 0.1 -5.96046e-08
v -0.1 0.1 -0.1
v 0 0.1 -0.1
v -0.1 0.1 -0.2
v 0 0.1 -0.2
v -0.1 0.2 0.1
v 0 0.2 0.1
v 0.2 0.2 -5.96046e-08
v 0.3 0.2 -5.96046e-08
v -0.1 0.2 -0.1
v 0 0.2 -0.1
v 0.2 0.2 -0.1
v 0.3 0.2 -0.1
v 0.2 0.3 0.2
v 0.3 0.3 0.2
v 0 0.3 0.1
v 0.2 0.3 0.1
v 0 0.3 -5.96046e-08
v 0.2 0.3 -5.96046e-08
v 0.3 0.3 -5.96046e-08
v -0.1 0.3 -0.1
v 0 0.3 -0.1
v 0.2 0.3 -0.1
v 0.3 0.3 -0.1
v -0.1 0.3 -0.2
v 0.3 0.3 -0.2
v -0.7 0.6 0.5
v -0.3 0.6 0.5
v -0.7 0.6 0.4
v -0.3 0.6 0.4
v -0.7 0.6 0.3
v -0.6 0.6 0.3
v -0.4 0.6 0.3
v -0.3 0.6 0.3
v -0.7 0.6 0.2
v -0.6 0.6 0.2
v -0.4 0.6 0.2
v -0.3 0.6 0.2
v -0.2 0.6 0.2
v 0.4 0.6 0.2
v 0.5 0.6 0.2
v 0.7 0.6 0.2
v -0.7 0.6 0.1
v -0.6 0.6 0.1
v -0.4 0.6 0.1
v -0.3 0.6 0.1
v -0.2 0.6 0.1
v -0.1 0.6 0.1
v 0.3 0.6 0.1
v 0.4 0.6 0.1
v 0.5 0.6 0.1
v 0.7 0.6 0.1
v -0.7 0.6 -5.96046e-08
v -0.6 0.6 -5.96046e-08
v -0.4 0.6 -5.96046e-08
v -0.3 0.6 -5.96046e-08
v -0.7 0.6 -0.1
v -0.3 0.6 -0.1
v -0.7 0.6 -0.2
v -0.3 0.6 -0.2
v -0.2 0.6 -0.2
v 0.4 0.6 -0.2
v 0.5 0.6 -0.2
v -0.2 0.7 0.1
v -0.1 0.7 0.1
v 0.3 0.7 0.1
v 0.4 0.7 0.1
v 0.5 0.7 -5.96046e-08
v 0.6 0.7 -5.96046e-08
v -0.2 0.7 -0.2
v -0.1 0.7 -0.2
v 0.3 0.7 -0.2
v 0.4 0.7 -0.2
v 0.5 0.7 -0.2
v 0.6 0.7 -0.2
v 0 1 0.3
v 0.2 1 0.3
v 0 1 0.1
v 0.2 1 0.1
v -0.3 1.1 -0.1
v -0.1 1.1 -0.1
v 0.3 1.1 -0.1
v 0.5 1.1 -0.1
v -0.3 1.1 -0.2
v -0.1 1.1 -0.2
v 0.3 1.1 -0.2
v 0.5 1.1 -0.2
v -0.1 0.1 -5.96046e-08
v 0 0.1 -5.96046e-08
v -0.1 0.1 -0.1
v 0 0.1 -0.1
v 0.2 0.2 0.1
v 0.3 0.2 0.1
v 0.2 0.2 -5.96046e-08
v 0.3 0.2 -5.96046e-08
v -0.1 0.2 -0.1
v 0 0.2 -0.1
v -0.1 0.2 -0.2
v 0 0.2 -0.2
v 0.2 0.5 0.2
v 0.3 0.5 0.2
v 0.2 0.5 0.1
v 0.3 0.5 0.1
v -0.7 0.7 0.5
v -0.3 0.7 0.5
v -0.7 0.7 0.4
v -0.3 0.7 0.4
v -0.7 0.7 0.3
v -0.6 0.7 0.3
v -0.4 0.7 0.3
v -0.3 0.7 0.3
v -0.7 0.7 0.2
v -0.6 0.7 0.2
v -0.4 0.7 0.2
v -0.3 0.7 0.2
v -0.2 0.7 0.2
v 0.4 0.7 0.2
v 0.5 0.7 0.2
v 0.7 0.7 0.2
v -0.7 0.7 0.1
v -0.6 0.7 0.1
v -0.4 0.7 0.1
v -0.3 0.7 0.1
v -0.2 0.7 0.1
v 0.4 0.7 0.1
v 0.5 0.7 0.1
v 0.7 0.7 0.1
v -0.7 0.7 -5.96046e-08
v -0.6 0.7 -5.96046e-08
v -0.4 0.7 -5.96046e-08
v -0.3 0.7 -5.96046e-08
v -0.2 0.7 -5.96046e-08
v 0.4 0.7 -5.96046e-08
v 0.5 0.7 -5.96046e-08
v -0.7 0.7 -0.1
v -0.4 0.7 -0.1
v -0.7 0.7 -0.2
v -0.4 0.7 -0.2
v -0.4 0.9 -5.96046e-08
v -0.2 0.9 -5.96046e-08
v 0.4 0.9 -5.96046e-08
v 0.6 0.9 -5.96046e-08
v -0.4 0.9 -0.2
v -0.2 0.9 -0.2
v 0.4 0.9 -0.2
v 0.6 0.9 -0.2
v -0.2 1 0.1
v -0.1 1 0.1
v 0.3 1 0.1
v 0.4 1 0.1
v -0.2 1 -0.2
v -0.1 1 -0.2
v 0.3 1 -0.2
v 0.4 1 -0.2
v 0 1.2 0.3
v 0.2 1.2 0.3
v 0 1.2 0.2
v 0.2 1.2 0.2
v -0.1 1.2 0.1
v 0 1.2 0.1
v 0.2 1.2 0.1
v 0.3 1.2 0.1
v -0.2 1.2 -0.1
v -0.1 1.2 -0.1
v 0.3 1.2 -0.1
v 0.4 1.2 -0.1
v -0.2 1.2 -0.2
v -0.1 1.2 -0.2
v 0 1.2 -0.2
v 0.2 1.2 -0.2
v 0.3 1.2 -0.2
v 0.4 1.2 -0.2
v 0 1.3 0.2
v 0.2 1.3 0.2
v -0.3 1.3 -0.1
v -0.2 1.3 -0.1
v 0.4 1.3 -0.1
v 0.5 1.3 -0.1
v -0.3 1.3 -0.2
v -0.2 1.3 -0.2
v 0 1.3 -0.2
v 0.2 1.3 -0.2
v 0.4 1.3 -0.2
v 0.5 1.3 -0.2

# faces
f 9/2/1 2/2/1 1/2/1
f 10/5/1 3/5/1 2/5/1
f 10/2/1 2/2/1 9/2/1
f 11/5/1 3/5/1 10/5/1
f 12/3/1 5/3/1 4/3/1
f 13/3/1 5/3/1 12/3/1
f 14/5/1 7/5/1 6/5/1
f 15/2/1 8/2/1 7/2/1
f 15/5/1 7/5/1 14/5/1
f 16/2/1 8/2/1 15/2/1
f 21/5/1 18/5/1 17/5/1
f 22/5/1 18/5/1 21/5/1
f 23/5/1 20/5/1 19/5/1
f 24/5/1 20/5/1 23/5/1
f 28/1/1 26/1/1 25/1/1
f 28/1/1 27/1/1 26/1/1
f 29/1/1 27/1/1 28/1/1
f 32/1/1 31/1/1 30/1/1
f 33/1/1 31/1/1 32/1/1
f 36/6/1 35/6/1 34/6/1
f 37/6/1 35/6/1 36/6/1
f 40/1/1 39/1/1 38/1/1
f 42/1/1 40/1/1 38/1/1
f 42/1/1 41/1/1 40/1/1
f 43/1/1 41/1/1 42/1/1
f 46/1/1 45/1/1 44/1/1
f 47/1/1 45/1/1 46/1/1
f 50/1/1 48/1/1 47/1/1
f 51/1/1 48/1/1 50/1/1
f 52/1/1 50/1/1 49/1/1
f 53/1/1 50/1/1 52/1/1
f 55/4/1 53/4/1 52/4/1
f 55/4/1 54/4/1 53/4/1
f 56/4/1 54/4/1 55/4/1
f 57/1/1 56/1/1 55/1/1
f 58/1/1 56/1/1 57/1/1
f 61/1/1 60/1/1 59/1/1
f 62/1/1 60/1/1 61/1/1
f 63/1/1 61/1/1 59/1/1
f 64/1/1 61/1/1 63/1/1
f 67/1/1 66/1/1 65/1/1
f 68/1/1 66/1/1 67/1/1
f 69/1/1 66/1/1 68/1/1
f 71/1/1 70/1/1 69/1/1
f 71/1/1 69/1/1 68/1/1
f 72/1/1 70/1/1 71/1/1
f 75/1/1 74/1/1 73/1/1
f 76/1/1 74/1/1 75/1/1
f 80/1/1 77/1/1 76/1/1
f 81/1/1 77/1/1 80/1/1
f 82/1/1 79/1/1 78/1/1
f 83/1/1 79/1/1 82/1/1
f 86/1/1 85/1/1 84/1/1
f 87/1/1 85/1/1 86/1/1
f 90/6/1 89/6/1 88/6/1
f 91/6/1 89/6/1 90/6/1
f 92/5/2 93/5/2 96/5/2
f 96/5/2 93/5/2 97/5/2
f 94/5/2 95/5/2 98/5/2
f 98/5/2 95/5/2 99/5/2
f 100/2/2 101/2/2 103/2/2
f 101/5/2 102/5/2 104/5/2
f 103/2/2 101/2/2 104/2/2
f 104/5/2 102/5/2 105/5/2
f 106/1/2 107/1/2 108/1/2
f 108/1/2 107/1/2 109/1/2
f 110/6/2 111/6/2 112/6/2
f 112/6/2 111/6/2 113/6/2
f 114/1/2 115/1/2 116/1/2
f 116/1/2 115/1/2 117/1/2
f 117/1/2 118/1/2 120/1/2
f 120/1/2 118/1/2 121/1/2
f 119/1/2 120/1/2 122/1/2
f 122/1/2 120/1/2 123/1/2
f 123/1/2 120/1/2 124/1/2
f 125/1/2 126/1/2 127/1/2
f 127/1/2 126/1/2 128/1/2
f 128/1/2 126/1/2 129/1/2
f 129/1/2 130/1/2 131/1/2
f 128/1/2 129/1/2 131/1/2
f 131/1/2 130/1/2 132/1/2
f 133/1/2 134/1/2 135/1/2
f 135/1/2 134/1/2 136/1/2
f 136/1/2 137/1/2 139/1/2
f 139/1/2 137/1/2 140/1/2
f 138/1/2 139/1/2 142/1/2
f 142/1/2 139/1/2 143/1/2
f 140/4/2 141/4/2 144/4/2
f 143/1/2 139/1/2 144/1/2
f 139/4/2 140/4/2 144/4/2
f 143/4/2 144/4/2 145/4/2
f 144/4/2 141/4/2 146/4/2
f 145/4/2 144/4/2 146/4/2
f 145/1/2 146/1/2 147/1/2
f 147/1/2 146/1/2 148/1/2
f 149/1/2 150/1/2 151/1/2
f 151/1/2 150/1/2 152/1/2
f 149/1/2 151/1/2 153/1/2
f 153/1/2 151/1/2 154/1/2
f 155/1/2 156/1/2 157/1/2
f 155/1/2 157/1/2 159/1/2
f 157/1/2 158/1/2 159/1/2
f 159/1/2 158/1/2 160/1/2
f 161/1/2 162/1/2 163/1/2
f 163/1/2 162/1/2 164/1/2
f 164/1/2 162/1/2 165/1/2
f 166/6/2 167/6/2 168/6/2
f 168/6/2 167/6/2 169/6/2
f 170/1/2 171/1/2 172/1/2
f 172/1/2 171/1/2 173/1/2
f 174/3/2 175/3/2 176/3/2
f 176/3/2 175/3/2 177/3/2
f 180/2/3 179/2/3 178/2/3
f 181/2/3 179/2/3 180/2/3
f 184/1/3 183/1/3 182/1/3
f 185/1/3 183/1/3 184/1/3
f 188/3/3 187/3/3 186/3/3
f 189/3/3 187/3/3 188/3/3
f 192/3/3 191/3/3 190/3/3
f 193/3/3 191/3/3 192/3/3
f 194/1/3 193/1/3 192/1/3
f 195/1/3 193/1/3 194/1/3
f 200/1/3 197/1/3 196/1/3
f 201/1/3 197/1/3 200/1/3
f 202/1/3 199/1/3 198/1/3
f 203/1/3 199/1/3 202/1/3
f 204/3/3 195/3/3 194/3/3
f 205/3/3 195/3/3 204/3/3
f 206/1/3 205/1/3 204/1/3
f 207/1/3 205/1/3 206/1/3
f 208/3/3 207/3/3 206/3/3
f 209/3/3 207/3/3 208/3/3
f 215/1/3 211/1/3 210/1/3
f 217/1/3 213/1/3 212/1/3
f 218/4/3 214/4/3 213/4/3
f 218/1/3 213/1/3 217/1/3
f 219/1/3 216/1/3 215/1/3
f 219/1/3 215/1/3 210/1/3
f 220/1/3 216/1/3 219/1/3
f 223/4/3 214/4/3 218/4/3
f 224/4/3 214/4/3 223/4/3
f 225/1/3 219/1/3 210/1/3
f 227/1/3 222/1/3 221/1/3
f 228/1/3 222/1/3 227/1/3
f 229/4/3 214/4/3 224/4/3
f 230/4/3 214/4/3 229/4/3
f 231/1/3 226/1/3 225/1/3
f 231/1/3 225/1/3 210/1/3
f 232/1/3 226/1/3 231/1/3
f 233/1/3 231/1/3 210/1/3
f 234/1/3 231/1/3 233/1/3
f 237/5/3 236/5/3 235/5/3
f 238/5/3 236/5/3 237/5/3
f 242/5/3 240/5/3 239/5/3
f 243/1/3 241/1/3 240/1/3
f 243/5/3 240/5/3 242/5/3
f 244/1/3 241/1/3 243/1/3
f 245/1/3 241/1/3 244/1/3
f 248/1/3 247/1/3 246/1/3
f 249/1/3 247/1/3 248/1/3
f 252/1/3 251/1/3 250/1/3
f 253/1/3 251/1/3 252/1/3
f 256/1/3 255/1/3 254/1/3
f 257/1/3 255/1/3 256/1/3
f 258/1/3 255/1/3 257/1/3
f 261/6/3 260/6/3 259/6/3
f 262/6/3 260/6/3 261/6/3
f 265/6/3 261/6/3 259/6/3
f 266/6/3 261/6/3 265/6/3
f 267/1/3 264/1/3 263/1/3
f 268/1/3 264/1/3 267/1/3
f 271/6/3 270/6/3 269/6/3
f 273/6/3 271/6/3 269/6/3
f 273/6/3 272/6/3 271/6/3
f 274/6/3 272/6/3 273/6/3
f 275/5/4 276/5/4 277/5/4
f 277/5/4 276/5/4 278/5/4
f 279/5/4 280/5/4 281/5/4
f 281/5/4 280/5/4 282/5/4
f 283/3/4 284/3/4 285/3/4
f 285/3/4 284/3/4 286/3/4
f 287/3/4 288/3/4 289/3/4
f 289/3/4 288/3/4 290/3/4
f 291/3/4 292/3/4 293/3/4
f 293/3/4 292/3/4 294/3/4
f 295/3/4 296/3/4 297/3/4
f 297/3/4 296/3/4 298/3/4
f 299/3/4 300/3/4 301/3/4
f 301/3/4 300/3/4 302/3/4
f 303/1/4 304/1/4 305/1/4
f 305/1/4 304/1/4 306/1/4
f 307/1/4 308/1/4 311/1/4
f 311/1/4 308/1/4 312/1/4
f 309/1/4 310/1/4 313/1/4
f 313/1/4 310/1/4 314/1/4
f 315/1/4 316/1/4 317/1/4
f 317/1/4 316/1/4 318/1/4
f 319/2/4 320/2/4 321/2/4
f 319/2/4 321/2/4 323/2/4
f 321/1/4 322/1/4 324/1/4
f 323/2/4 321/2/4 324/2/4
f 323/1/4 324/1/4 327/1/4
f 324/1/4 322/1/4 328/1/4
f 327/1/4 324/1/4 328/1/4
f 328/1/4 322/1/4 329/1/4
f 325/6/4 326/6/4 331/6/4
f 331/6/4 326/6/4 332/6/4
f 329/1/4 330/1/4 337/1/4
f 328/1/4 329/1/4 337/1/4
f 337/1/4 330/1/4 338/1/4
f 325/6/4 331/6/4 339/6/4
f 339/6/4 331/6/4 340/6/4
f 333/1/4 334/1/4 341/1/4
f 341/1/4 334/1/4 342/1/4
f 337/1/4 338/1/4 343/1/4
f 336/1/4 337/1/4 343/1/4
f 338/1/4 339/1/4 343/1/4
f 339/1/4 340/1/4 343/1/4
f 336/1/4 343/1/4 345/1/4
f 343/1/4 344/1/4 345/1/4
f 345/1/4 344/1/4 346/1/4
f 335/4/4 336/4/4 347/4/4
f 336/1/4 345/1/4 348/1/4
f 347/4/4 336/4/4 348/4/4
f 348/1/4 345/1/4 349/1/4
f 349/1/4 345/1/4 350/1/4
f 350/1/4 345/1/4 351/1/4
f 351/1/4 345/1/4 352/1/4
f 349/1/4 350/1/4 354/1/4
f 354/1/4 350/1/4 355/1/4
f 355/1/4 350/1/4 356/1/4
f 351/6/4 352/6/4 357/6/4
f 353/1/4 354/1/4 359/1/4
f 354/1/4 355/1/4 359/1/4
f 359/1/4 355/1/4 360/1/4
f 351/6/4 357/6/4 361/6/4
f 357/6/4 358/6/4 361/6/4
f 361/6/4 358/6/4 362/6/4
f 360/1/4 355/1/4 363/1/4
f 363/1/4 355/1/4 364/1/4
f 367/1/5 366/1/5 365/1/5
f 368/1/5 366/1/5 367/1/5
f 371/1/5 370/1/5 369/1/5
f 372/1/5 370/1/5 371/1/5
f 375/1/5 374/1/5 373/1/5
f 376/1/5 374/1/5 375/1/5
f 381/1/5 378/1/5 377/1/5
f 382/1/5 378/1/5 381/1/5
f 383/1/5 380/1/5 379/1/5
f 384/1/5 380/1/5 383/1/5
f 388/1/5 386/1/5 385/1/5
f 389/4/5 388/4/5 387/4/5
f 390/1/5 386/1/5 388/1/5
f 390/4/5 388/4/5 389/4/5
f 391/1/5 386/1/5 390/1/5
f 393/7/5 390/7/5 389/7/5
f 394/7/5 390/7/5 393/7/5
f 396/4/5 393/4/5 392/4/5
f 396/4/5 395/4/5 394/4/5
f 396/4/5 394/4/5 393/4/5
f 397/4/5 395/4/5 396/4/5
f 400/2/5 399/2/5 398/2/5
f 401/2/5 399/2/5 400/2/5
f 402/5/5 401/5/5 400/5/5
f 403/5/5 401/5/5 402/5/5
f 404/5/5 401/5/5 403/5/5
f 405/5/5 401/5/5 404/5/5
f 407/5/5 404/5/5 403/5/5
f 408/5/5 404/5/5 407/5/5
f 414/3/5 409/3/5 408/3/5
f 414/3/5 408/3/5 407/3/5
f 414/3/5 407/3/5 406/3/5
f 415/3/5 409/3/5 414/3/5
f 416/3/5 409/3/5 415/3/5
f 417/1/5 410/1/5 409/1/5
f 417/3/5 409/3/5 416/3/5
f 418/3/5 411/3/5 410/3/5
f 418/1/5 410/1/5 417/1/5
f 419/3/5 411/3/5 418/3/5
f 420/3/5 411/3/5 419/3/5
f 421/1/5 412/1/5 411/1/5
f 421/3/5 411/3/5 420/3/5
f 422/3/5 413/3/5 412/3/5
f 422/1/5 412/1/5 421/1/5
f 423/3/5 413/3/5 422/3/5
f 425/5/5 416/5/5 415/5/5
f 426/5/5 416/5/5 425/5/5
f 427/1/5 418/1/5 417/1/5
f 428/5/5 426/5/5 425/5/5
f 428/5/5 427/5/5 426/5/5
f 428/5/5 425/5/5 424/5/5
f 429/1/5 418/1/5 427/1/5
f 429/5/5 427/5/5 428/5/5
f 430/2/5 429/2/5 428/2/5
f 431/1/5 418/1/5 429/1/5
f 431/2/5 429/2/5 430/2/5
f 432/1/5 418/1/5 431/1/5
f 433/1/5 422/1/5 421/1/5
f 434/1/5 422/1/5 433/1/5
f 441/1/5 436/1/5 435/1/5
f 442/1/5 436/1/5 441/1/5
f 443/1/5 438/1/5 437/1/5
f 444/1/5 438/1/5 443/1/5
f 445/1/5 440/1/5 439/1/5
f 446/1/5 440/1/5 445/1/5
f 449/1/5 448/1/5 447/1/5
f 450/1/5 448/1/5 449/1/5
f 455/6/5 452/6/5 451/6/5
f 456/6/5 452/6/5 455/6/5
f 457/6/5 454/6/5 453/6/5
f 458/6/5 454/6/5 457/6/5
f 459/1/6 460/1/6 461/1/6
f 461/1/6 460/1/6 462/1/6
f 463/1/6 464/1/6 465/1/6
f 465/1/6 464/1/6 466/1/6
f 467/1/6 468/1/6 469/1/6
f 469/1/6 468/1/6 470/1/6
f 471/1/6 472/1/6 473/1/6
f 473/1/6 472/1/6 474/1/6
f 475/2/6 476/2/6 477/2/6
f 477/2/6 476/2/6 478/2/6
f 477/5/6 478/5/6 479/5/6
f 479/5/6 478/5/6 480/5/6
f 480/5/6 478/5/6 481/5/6
f 481/5/6 478/5/6 482/5/6
f 480/5/6 481/5/6 484/5/6
f 484/5/6 481/5/6 485/5/6
f 485/3/6 486/3/6 491/3/6
f 484/3/6 485/3/6 491/3/6
f 483/3/6 484/3/6 491/3/6
f 491/3/6 486/3/6 492/3/6
f 492/3/6 486/3/6 493/3/6
f 486/1/6 487/1/6 494/1/6
f 493/3/6 486/3/6 494/3/6
f 487/3/6 488/3/6 495/3/6
f 494/1/6 487/1/6 495/1/6
f 488/1/6 489/1/6 496/1/6
f 495/3/6 488/3/6 496/3/6
f 489/3/6 490/3/6 497/3/6
f 496/1/6 489/1/6 497/1/6
f 497/3/6 490/3/6 498/3/6
f 492/5/6 493/5/6 500/5/6
f 500/5/6 493/5/6 501/5/6
f 494/1/6 495/1/6 502/1/6
f 502/1/6 495/1/6 503/1/6
f 496/1/6 497/1/6 504/1/6
f 504/1/6 497/1/6 505/1/6
f 500/5/6 501/5/6 506/5/6
f 499/5/6 500/5/6 506/5/6
f 506/5/6 501/5/6 507/5/6
f 506/2/6 507/2/6 508/2/6
f 508/2/6 507/2/6 509/2/6
f 510/1/6 511/1/6 514/1/6
f 514/1/6 511/1/6 515/1/6
f 512/1/6 513/1/6 516/1/6
f 516/1/6 513/1/6 517/1/6
f 518/1/6 519/1/6 522/1/6
f 522/1/6 519/1/6 523/1/6
f 520/1/6 521/1/6 524/1/6
f 524/1/6 521/1/6 525/1/6
f 526/1/6 527/1/6 528/1/6
f 528/1/6 527/1/6 529/1/6
f 530/1/6 531/1/6 535/1/6
f 532/1/6 533/1/6 536/1/6
f 534/6/6 535/6/6 538/6/6
f 535/1/6 531/1/6 539/1/6
f 538/6/6 535/6/6 539/6/6
f 539/1/6 531/1/6 540/1/6
f 532/1/6 536/1/6 541/1/6
f 536/6/6 537/6/6 542/6/6
f 541/1/6 536/1/6 542/1/6
f 542/6/6 537/6/6 543/6/6
f 546/6/6 547/6/6 550/6/6
f 550/6/6 547/6/6 551/6/6
f 544/1/6 545/1/6 552/1/6
f 552/1/6 545/1/6 553/1/6
f 548/6/6 549/6/6 554/6/6
f 554/6/6 549/6/6 555/6/6
