# MagicaVoxel @ Ephtracy

# group
o 

# material
mtllib swinging_mace_trap_b.mtl
usemtl palette

# normals
vn -1 0 0
vn 1 0 0
vn 0 0 1
vn 0 0 -1
vn 0 -1 0
vn 0 1 0

# texcoords
vt 0.787109 0.5
vt 0.791016 0.5

# verts
v -0.2 -0.8 0
v -0.2 -0.8 -0.1
v -0.2 -0.7 0
v -0.2 -0.7 -0.1
v -0.2 -0.6 0
v -0.2 -0.6 -0.1
v -0.2 -0.5 0
v -0.2 -0.5 -0.1
v -0.2 -0.4 0
v -0.2 -0.4 -0.1
v -0.2 -0.3 0
v -0.2 -0.3 -0.1
v -0.1 -0.9 0.1
v -0.1 -0.9 -0.2
v -0.1 -0.8 0
v -0.1 -0.8 -0.1
v -0.1 -0.7 0
v -0.1 -0.7 -0.1
v -0.1 -0.6 0
v -0.1 -0.6 -0.1
v -0.1 -0.5 0
v -0.1 -0.5 -0.1
v -0.1 -0.4 0
v -0.1 -0.4 -0.1
v -0.1 -0.3 0
v -0.1 -0.3 -0.1
v -0.1 -0.2 0.1
v -0.1 -0.2 -0.2
v 0 -1 0
v 0 -1 -0.1
v 0 -0.9 0
v 0 -0.9 -0.1
v 0 -0.8 0.2
v 0 -0.8 0.1
v 0 -0.8 -0.2
v 0 -0.8 -0.3
v 0 -0.7 0.2
v 0 -0.7 0.1
v 0 -0.7 -0.2
v 0 -0.7 -0.3
v 0 -0.6 0.2
v 0 -0.6 0.1
v 0 -0.6 -0.2
v 0 -0.6 -0.3
v 0 -0.5 0.2
v 0 -0.5 0.1
v 0 -0.5 -0.2
v 0 -0.5 -0.3
v 0 -0.4 0.2
v 0 -0.4 0.1
v 0 -0.4 -0.2
v 0 -0.4 -0.3
v 0 -0.3 0.2
v 0 -0.3 0.1
v 0 -0.3 -0.2
v 0 -0.3 -0.3
v 0 -0.2 0
v 0 -0.2 -0.1
v 0 -0.1 0.1
v 0 -0.1 0
v 0 -0.1 -0.1
v 0 -0.1 -0.2
v 0 0 0
v 0 0 -0.1
v 0 0.1 0
v 0 0.1 -0.1
v 0 0.2 0.1
v 0 0.2 0
v 0 0.2 -0.1
v 0 0.2 -0.2
v 0 0.3 0.1
v 0 0.3 0
v 0 0.3 -0.1
v 0 0.3 -0.2
v 0 0.4 0
v 0 0.4 -0.1
v 0 0.5 0
v 0 0.5 -0.1
v 0 0.6 0.1
v 0 0.6 0
v 0 0.6 -0.1
v 0 0.6 -0.2
v 0 0.7 0.1
v 0 0.7 0
v 0 0.7 -0.1
v 0 0.7 -0.2
v 0 0.8 0
v 0 0.8 -0.1
v 0 0.9 0
v 0 0.9 -0.1
v 0 1 0.1
v 0 1 0
v 0 1 -0.1
v 0 1 -0.2
v 0 1.1 0.1
v 0 1.1 0
v 0 1.1 -0.1
v 0 1.1 -0.2
v 0 1.2 0
v 0 1.2 -0.1
v 0 1.3 0
v 0 1.3 -0.1
v 0 1.4 0.1
v 0 1.4 0
v 0 1.4 -0.1
v 0 1.4 -0.2
v 0 1.5 0
v 0 1.5 -0.1
v 0.1 -1 0
v 0.1 -1 -0.1
v 0.1 -0.9 0
v 0.1 -0.9 -0.1
v 0.1 -0.8 0.2
v 0.1 -0.8 0.1
v 0.1 -0.8 -0.2
v 0.1 -0.8 -0.3
v 0.1 -0.7 0.2
v 0.1 -0.7 0.1
v 0.1 -0.7 -0.2
v 0.1 -0.7 -0.3
v 0.1 -0.6 0.2
v 0.1 -0.6 0.1
v 0.1 -0.6 -0.2
v 0.1 -0.6 -0.3
v 0.1 -0.5 0.2
v 0.1 -0.5 0.1
v 0.1 -0.5 -0.2
v 0.1 -0.5 -0.3
v 0.1 -0.4 0.2
v 0.1 -0.4 0.1
v 0.1 -0.4 -0.2
v 0.1 -0.4 -0.3
v 0.1 -0.3 0.2
v 0.1 -0.3 0.1
v 0.1 -0.3 -0.2
v 0.1 -0.3 -0.3
v 0.1 -0.2 0
v 0.1 -0.2 -0.1
v 0.1 -0.1 0.1
v 0.1 -0.1 0
v 0.1 -0.1 -0.1
v 0.1 -0.1 -0.2
v 0.1 0 0
v 0.1 0 -0.1
v 0.1 0.1 0
v 0.1 0.1 -0.1
v 0.1 0.2 0.1
v 0.1 0.2 0
v 0.1 0.2 -0.1
v 0.1 0.2 -0.2
v 0.1 0.3 0.1
v 0.1 0.3 0
v 0.1 0.3 -0.1
v 0.1 0.3 -0.2
v 0.1 0.4 0
v 0.1 0.4 -0.1
v 0.1 0.5 0
v 0.1 0.5 -0.1
v 0.1 0.6 0.1
v 0.1 0.6 0
v 0.1 0.6 -0.1
v 0.1 0.6 -0.2
v 0.1 0.7 0.1
v 0.1 0.7 0
v 0.1 0.7 -0.1
v 0.1 0.7 -0.2
v 0.1 0.8 0
v 0.1 0.8 -0.1
v 0.1 0.9 0
v 0.1 0.9 -0.1
v 0.1 1 0.1
v 0.1 1 0
v 0.1 1 -0.1
v 0.1 1 -0.2
v 0.1 1.1 0.1
v 0.1 1.1 0
v 0.1 1.1 -0.1
v 0.1 1.1 -0.2
v 0.1 1.2 0
v 0.1 1.2 -0.1
v 0.1 1.3 0
v 0.1 1.3 -0.1
v 0.1 1.4 0.1
v 0.1 1.4 0
v 0.1 1.4 -0.1
v 0.1 1.4 -0.2
v 0.1 1.5 0
v 0.1 1.5 -0.1
v 0.2 -0.9 0.1
v 0.2 -0.9 -0.2
v 0.2 -0.8 0
v 0.2 -0.8 -0.1
v 0.2 -0.7 0
v 0.2 -0.7 -0.1
v 0.2 -0.6 0
v 0.2 -0.6 -0.1
v 0.2 -0.5 0
v 0.2 -0.5 -0.1
v 0.2 -0.4 0
v 0.2 -0.4 -0.1
v 0.2 -0.3 0
v 0.2 -0.3 -0.1
v 0.2 -0.2 0.1
v 0.2 -0.2 -0.2
v 0.3 -0.8 0
v 0.3 -0.8 -0.1
v 0.3 -0.7 0
v 0.3 -0.7 -0.1
v 0.3 -0.6 0
v 0.3 -0.6 -0.1
v 0.3 -0.5 0
v 0.3 -0.5 -0.1
v 0.3 -0.4 0
v 0.3 -0.4 -0.1
v 0.3 -0.3 0
v 0.3 -0.3 -0.1
v 0 -0.8 0.2
v 0 -0.7 0.2
v 0 -0.6 0.2
v 0 -0.5 0.2
v 0 -0.4 0.2
v 0 -0.3 0.2
v 0.1 -0.8 0.2
v 0.1 -0.7 0.2
v 0.1 -0.6 0.2
v 0.1 -0.5 0.2
v 0.1 -0.4 0.2
v 0.1 -0.3 0.2
v -0.1 -0.9 0.1
v -0.1 -0.2 0.1
v 0 -0.8 0.1
v 0 -0.7 0.1
v 0 -0.6 0.1
v 0 -0.5 0.1
v 0 -0.4 0.1
v 0 -0.3 0.1
v 0 -0.1 0.1
v 0 0.2 0.1
v 0 0.3 0.1
v 0 0.6 0.1
v 0 0.7 0.1
v 0 1 0.1
v 0 1.1 0.1
v 0 1.4 0.1
v 0.1 -0.8 0.1
v 0.1 -0.7 0.1
v 0.1 -0.6 0.1
v 0.1 -0.5 0.1
v 0.1 -0.4 0.1
v 0.1 -0.3 0.1
v 0.1 -0.1 0.1
v 0.1 0.2 0.1
v 0.1 0.3 0.1
v 0.1 0.6 0.1
v 0.1 0.7 0.1
v 0.1 1 0.1
v 0.1 1.1 0.1
v 0.1 1.4 0.1
v 0.2 -0.9 0.1
v 0.2 -0.2 0.1
v -0.2 -0.8 0
v -0.2 -0.7 0
v -0.2 -0.6 0
v -0.2 -0.5 0
v -0.2 -0.4 0
v -0.2 -0.3 0
v -0.1 -0.8 0
v -0.1 -0.7 0
v -0.1 -0.6 0
v -0.1 -0.5 0
v -0.1 -0.4 0
v -0.1 -0.3 0
v 0 -1 0
v 0 -0.9 0
v 0 -0.2 0
v 0 -0.1 0
v 0 0.2 0
v 0 0.3 0
v 0 0.6 0
v 0 0.7 0
v 0 1 0
v 0 1.1 0
v 0 1.4 0
v 0 1.5 0
v 0.1 -1 0
v 0.1 -0.9 0
v 0.1 -0.2 0
v 0.1 -0.1 0
v 0.1 0.2 0
v 0.1 0.3 0
v 0.1 0.6 0
v 0.1 0.7 0
v 0.1 1 0
v 0.1 1.1 0
v 0.1 1.4 0
v 0.1 1.5 0
v 0.2 -0.8 0
v 0.2 -0.7 0
v 0.2 -0.6 0
v 0.2 -0.5 0
v 0.2 -0.4 0
v 0.2 -0.3 0
v 0.3 -0.8 0
v 0.3 -0.7 0
v 0.3 -0.6 0
v 0.3 -0.5 0
v 0.3 -0.4 0
v 0.3 -0.3 0
v 0 0 -0.1
v 0 0.1 -0.1
v 0 0.4 -0.1
v 0 0.5 -0.1
v 0 0.8 -0.1
v 0 0.9 -0.1
v 0 1.2 -0.1
v 0 1.3 -0.1
v 0.1 0 -0.1
v 0.1 0.1 -0.1
v 0.1 0.4 -0.1
v 0.1 0.5 -0.1
v 0.1 0.8 -0.1
v 0.1 0.9 -0.1
v 0.1 1.2 -0.1
v 0.1 1.3 -0.1
v 0 0 0
v 0 0.1 0
v 0 0.4 0
v 0 0.5 0
v 0 0.8 0
v 0 0.9 0
v 0 1.2 0
v 0 1.3 0
v 0.1 0 0
v 0.1 0.1 0
v 0.1 0.4 0
v 0.1 0.5 0
v 0.1 0.8 0
v 0.1 0.9 0
v 0.1 1.2 0
v 0.1 1.3 0
v -0.2 -0.8 -0.1
v -0.2 -0.7 -0.1
v -0.2 -0.6 -0.1
v -0.2 -0.5 -0.1
v -0.2 -0.4 -0.1
v -0.2 -0.3 -0.1
v -0.1 -0.8 -0.1
v -0.1 -0.7 -0.1
v -0.1 -0.6 -0.1
v -0.1 -0.5 -0.1
v -0.1 -0.4 -0.1
v -0.1 -0.3 -0.1
v 0 -1 -0.1
v 0 -0.9 -0.1
v 0 -0.2 -0.1
v 0 -0.1 -0.1
v 0 0.2 -0.1
v 0 0.3 -0.1
v 0 0.6 -0.1
v 0 0.7 -0.1
v 0 1 -0.1
v 0 1.1 -0.1
v 0 1.4 -0.1
v 0 1.5 -0.1
v 0.1 -1 -0.1
v 0.1 -0.9 -0.1
v 0.1 -0.2 -0.1
v 0.1 -0.1 -0.1
v 0.1 0.2 -0.1
v 0.1 0.3 -0.1
v 0.1 0.6 -0.1
v 0.1 0.7 -0.1
v 0.1 1 -0.1
v 0.1 1.1 -0.1
v 0.1 1.4 -0.1
v 0.1 1.5 -0.1
v 0.2 -0.8 -0.1
v 0.2 -0.7 -0.1
v 0.2 -0.6 -0.1
v 0.2 -0.5 -0.1
v 0.2 -0.4 -0.1
v 0.2 -0.3 -0.1
v 0.3 -0.8 -0.1
v 0.3 -0.7 -0.1
v 0.3 -0.6 -0.1
v 0.3 -0.5 -0.1
v 0.3 -0.4 -0.1
v 0.3 -0.3 -0.1
v -0.1 -0.9 -0.2
v -0.1 -0.2 -0.2
v 0 -0.8 -0.2
v 0 -0.7 -0.2
v 0 -0.6 -0.2
v 0 -0.5 -0.2
v 0 -0.4 -0.2
v 0 -0.3 -0.2
v 0 -0.1 -0.2
v 0 0.2 -0.2
v 0 0.3 -0.2
v 0 0.6 -0.2
v 0 0.7 -0.2
v 0 1 -0.2
v 0 1.1 -0.2
v 0 1.4 -0.2
v 0.1 -0.8 -0.2
v 0.1 -0.7 -0.2
v 0.1 -0.6 -0.2
v 0.1 -0.5 -0.2
v 0.1 -0.4 -0.2
v 0.1 -0.3 -0.2
v 0.1 -0.1 -0.2
v 0.1 0.2 -0.2
v 0.1 0.3 -0.2
v 0.1 0.6 -0.2
v 0.1 0.7 -0.2
v 0.1 1 -0.2
v 0.1 1.1 -0.2
v 0.1 1.4 -0.2
v 0.2 -0.9 -0.2
v 0.2 -0.2 -0.2
v 0 -0.8 -0.3
v 0 -0.7 -0.3
v 0 -0.6 -0.3
v 0 -0.5 -0.3
v 0 -0.4 -0.3
v 0 -0.3 -0.3
v 0.1 -0.8 -0.3
v 0.1 -0.7 -0.3
v 0.1 -0.6 -0.3
v 0.1 -0.5 -0.3
v 0.1 -0.4 -0.3
v 0.1 -0.3 -0.3
v 0 -1 0
v 0.1 -1 0
v 0 -1 -0.1
v 0.1 -1 -0.1
v -0.1 -0.9 0.1
v 0.2 -0.9 0.1
v 0 -0.9 0
v 0.1 -0.9 0
v 0 -0.9 -0.1
v 0.1 -0.9 -0.1
v -0.1 -0.9 -0.2
v 0.2 -0.9 -0.2
v 0 -0.8 0.2
v 0.1 -0.8 0.2
v 0 -0.8 0.1
v 0.1 -0.8 0.1
v -0.2 -0.8 0
v -0.1 -0.8 0
v 0.2 -0.8 0
v 0.3 -0.8 0
v -0.2 -0.8 -0.1
v -0.1 -0.8 -0.1
v 0.2 -0.8 -0.1
v 0.3 -0.8 -0.1
v 0 -0.8 -0.2
v 0.1 -0.8 -0.2
v 0 -0.8 -0.3
v 0.1 -0.8 -0.3
v 0 -0.6 0.2
v 0.1 -0.6 0.2
v 0 -0.6 0.1
v 0.1 -0.6 0.1
v -0.2 -0.6 0
v -0.1 -0.6 0
v 0.2 -0.6 0
v 0.3 -0.6 0
v -0.2 -0.6 -0.1
v -0.1 -0.6 -0.1
v 0.2 -0.6 -0.1
v 0.3 -0.6 -0.1
v 0 -0.6 -0.2
v 0.1 -0.6 -0.2
v 0 -0.6 -0.3
v 0.1 -0.6 -0.3
v 0 -0.4 0.2
v 0.1 -0.4 0.2
v 0 -0.4 0.1
v 0.1 -0.4 0.1
v -0.2 -0.4 0
v -0.1 -0.4 0
v 0.2 -0.4 0
v 0.3 -0.4 0
v -0.2 -0.4 -0.1
v -0.1 -0.4 -0.1
v 0.2 -0.4 -0.1
v 0.3 -0.4 -0.1
v 0 -0.4 -0.2
v 0.1 -0.4 -0.2
v 0 -0.4 -0.3
v 0.1 -0.4 -0.3
v 0 -0.1 0.1
v 0.1 -0.1 0.1
v 0 -0.1 0
v 0.1 -0.1 0
v 0 -0.1 -0.1
v 0.1 -0.1 -0.1
v 0 -0.1 -0.2
v 0.1 -0.1 -0.2
v 0 0.1 0
v 0.1 0.1 0
v 0 0.1 -0.1
v 0.1 0.1 -0.1
v 0 0.3 0.1
v 0.1 0.3 0.1
v 0 0.3 0
v 0.1 0.3 0
v 0 0.3 -0.1
v 0.1 0.3 -0.1
v 0 0.3 -0.2
v 0.1 0.3 -0.2
v 0 0.5 0
v 0.1 0.5 0
v 0 0.5 -0.1
v 0.1 0.5 -0.1
v 0 0.7 0.1
v 0.1 0.7 0.1
v 0 0.7 0
v 0.1 0.7 0
v 0 0.7 -0.1
v 0.1 0.7 -0.1
v 0 0.7 -0.2
v 0.1 0.7 -0.2
v 0 0.9 0
v 0.1 0.9 0
v 0 0.9 -0.1
v 0.1 0.9 -0.1
v 0 1.1 0.1
v 0.1 1.1 0.1
v 0 1.1 0
v 0.1 1.1 0
v 0 1.1 -0.1
v 0.1 1.1 -0.1
v 0 1.1 -0.2
v 0.1 1.1 -0.2
v 0 1.3 0
v 0.1 1.3 0
v 0 1.3 -0.1
v 0.1 1.3 -0.1
v 0 -0.7 0.2
v 0.1 -0.7 0.2
v 0 -0.7 0.1
v 0.1 -0.7 0.1
v -0.2 -0.7 0
v -0.1 -0.7 0
v 0.2 -0.7 0
v 0.3 -0.7 0
v -0.2 -0.7 -0.1
v -0.1 -0.7 -0.1
v 0.2 -0.7 -0.1
v 0.3 -0.7 -0.1
v 0 -0.7 -0.2
v 0.1 -0.7 -0.2
v 0 -0.7 -0.3
v 0.1 -0.7 -0.3
v 0 -0.5 0.2
v 0.1 -0.5 0.2
v 0 -0.5 0.1
v 0.1 -0.5 0.1
v -0.2 -0.5 0
v -0.1 -0.5 0
v 0.2 -0.5 0
v 0.3 -0.5 0
v -0.2 -0.5 -0.1
v -0.1 -0.5 -0.1
v 0.2 -0.5 -0.1
v 0.3 -0.5 -0.1
v 0 -0.5 -0.2
v 0.1 -0.5 -0.2
v 0 -0.5 -0.3
v 0.1 -0.5 -0.3
v 0 -0.3 0.2
v 0.1 -0.3 0.2
v 0 -0.3 0.1
v 0.1 -0.3 0.1
v -0.2 -0.3 0
v -0.1 -0.3 0
v 0.2 -0.3 0
v 0.3 -0.3 0
v -0.2 -0.3 -0.1
v -0.1 -0.3 -0.1
v 0.2 -0.3 -0.1
v 0.3 -0.3 -0.1
v 0 -0.3 -0.2
v 0.1 -0.3 -0.2
v 0 -0.3 -0.3
v 0.1 -0.3 -0.3
v -0.1 -0.2 0.1
v 0.2 -0.2 0.1
v 0 -0.2 0
v 0.1 -0.2 0
v 0 -0.2 -0.1
v 0.1 -0.2 -0.1
v -0.1 -0.2 -0.2
v 0.2 -0.2 -0.2
v 0 0 0
v 0.1 0 0
v 0 0 -0.1
v 0.1 0 -0.1
v 0 0.2 0.1
v 0.1 0.2 0.1
v 0 0.2 0
v 0.1 0.2 0
v 0 0.2 -0.1
v 0.1 0.2 -0.1
v 0 0.2 -0.2
v 0.1 0.2 -0.2
v 0 0.4 0
v 0.1 0.4 0
v 0 0.4 -0.1
v 0.1 0.4 -0.1
v 0 0.6 0.1
v 0.1 0.6 0.1
v 0 0.6 0
v 0.1 0.6 0
v 0 0.6 -0.1
v 0.1 0.6 -0.1
v 0 0.6 -0.2
v 0.1 0.6 -0.2
v 0 0.8 0
v 0.1 0.8 0
v 0 0.8 -0.1
v 0.1 0.8 -0.1
v 0 1 0.1
v 0.1 1 0.1
v 0 1 0
v 0.1 1 0
v 0 1 -0.1
v 0.1 1 -0.1
v 0 1 -0.2
v 0.1 1 -0.2
v 0 1.2 0
v 0.1 1.2 0
v 0 1.2 -0.1
v 0.1 1.2 -0.1
v 0 1.4 0.1
v 0.1 1.4 0.1
v 0 1.4 0
v 0.1 1.4 0
v 0 1.4 -0.1
v 0.1 1.4 -0.1
v 0 1.4 -0.2
v 0.1 1.4 -0.2
v 0 1.5 0
v 0.1 1.5 0
v 0 1.5 -0.1
v 0.1 1.5 -0.1

# faces
f 3/2/1 2/2/1 1/2/1
f 4/2/1 2/2/1 3/2/1
f 7/2/1 6/2/1 5/2/1
f 8/2/1 6/2/1 7/2/1
f 11/2/1 10/2/1 9/2/1
f 12/2/1 10/2/1 11/2/1
f 15/1/1 14/1/1 13/1/1
f 16/1/1 14/1/1 15/1/1
f 17/1/1 15/1/1 13/1/1
f 18/1/1 14/1/1 16/1/1
f 19/1/1 17/1/1 13/1/1
f 19/1/1 18/1/1 17/1/1
f 20/1/1 14/1/1 18/1/1
f 20/1/1 18/1/1 19/1/1
f 21/1/1 19/1/1 13/1/1
f 22/1/1 14/1/1 20/1/1
f 23/1/1 21/1/1 13/1/1
f 23/1/1 22/1/1 21/1/1
f 24/1/1 14/1/1 22/1/1
f 24/1/1 22/1/1 23/1/1
f 25/1/1 23/1/1 13/1/1
f 26/1/1 14/1/1 24/1/1
f 27/1/1 25/1/1 13/1/1
f 27/1/1 26/1/1 25/1/1
f 28/1/1 14/1/1 26/1/1
f 28/1/1 26/1/1 27/1/1
f 31/2/1 30/2/1 29/2/1
f 32/2/1 30/2/1 31/2/1
f 37/2/1 34/2/1 33/2/1
f 38/2/1 34/2/1 37/2/1
f 39/2/1 36/2/1 35/2/1
f 40/2/1 36/2/1 39/2/1
f 45/2/1 42/2/1 41/2/1
f 46/2/1 42/2/1 45/2/1
f 47/2/1 44/2/1 43/2/1
f 48/2/1 44/2/1 47/2/1
f 53/2/1 50/2/1 49/2/1
f 54/2/1 50/2/1 53/2/1
f 55/2/1 52/2/1 51/2/1
f 56/2/1 52/2/1 55/2/1
f 60/1/1 58/1/1 57/1/1
f 61/1/1 58/1/1 60/1/1
f 63/1/1 60/1/1 59/1/1
f 63/1/1 62/1/1 61/1/1
f 63/1/1 61/1/1 60/1/1
f 64/1/1 62/1/1 63/1/1
f 65/1/1 63/1/1 59/1/1
f 66/1/1 62/1/1 64/1/1
f 67/1/1 65/1/1 59/1/1
f 67/1/1 66/1/1 65/1/1
f 68/1/1 66/1/1 67/1/1
f 69/1/1 62/1/1 66/1/1
f 69/1/1 66/1/1 68/1/1
f 70/1/1 62/1/1 69/1/1
f 72/1/1 69/1/1 68/1/1
f 73/1/1 69/1/1 72/1/1
f 75/1/1 72/1/1 71/1/1
f 75/1/1 74/1/1 73/1/1
f 75/1/1 73/1/1 72/1/1
f 76/1/1 74/1/1 75/1/1
f 77/1/1 75/1/1 71/1/1
f 78/1/1 74/1/1 76/1/1
f 79/1/1 77/1/1 71/1/1
f 79/1/1 78/1/1 77/1/1
f 80/1/1 78/1/1 79/1/1
f 81/1/1 74/1/1 78/1/1
f 81/1/1 78/1/1 80/1/1
f 82/1/1 74/1/1 81/1/1
f 84/1/1 81/1/1 80/1/1
f 85/1/1 81/1/1 84/1/1
f 87/1/1 84/1/1 83/1/1
f 87/1/1 86/1/1 85/1/1
f 87/1/1 85/1/1 84/1/1
f 88/1/1 86/1/1 87/1/1
f 89/1/1 87/1/1 83/1/1
f 90/1/1 86/1/1 88/1/1
f 91/1/1 89/1/1 83/1/1
f 91/1/1 90/1/1 89/1/1
f 92/1/1 90/1/1 91/1/1
f 93/1/1 86/1/1 90/1/1
f 93/1/1 90/1/1 92/1/1
f 94/1/1 86/1/1 93/1/1
f 96/1/1 93/1/1 92/1/1
f 97/1/1 93/1/1 96/1/1
f 99/1/1 96/1/1 95/1/1
f 99/1/1 98/1/1 97/1/1
f 99/1/1 97/1/1 96/1/1
f 100/1/1 98/1/1 99/1/1
f 101/1/1 99/1/1 95/1/1
f 102/1/1 98/1/1 100/1/1
f 103/1/1 101/1/1 95/1/1
f 103/1/1 102/1/1 101/1/1
f 104/1/1 102/1/1 103/1/1
f 105/1/1 98/1/1 102/1/1
f 105/1/1 102/1/1 104/1/1
f 106/1/1 98/1/1 105/1/1
f 107/1/1 105/1/1 104/1/1
f 108/1/1 105/1/1 107/1/1
f 109/2/2 110/2/2 111/2/2
f 111/2/2 110/2/2 112/2/2
f 113/2/2 114/2/2 117/2/2
f 117/2/2 114/2/2 118/2/2
f 115/2/2 116/2/2 119/2/2
f 119/2/2 116/2/2 120/2/2
f 121/2/2 122/2/2 125/2/2
f 125/2/2 122/2/2 126/2/2
f 123/2/2 124/2/2 127/2/2
f 127/2/2 124/2/2 128/2/2
f 129/2/2 130/2/2 133/2/2
f 133/2/2 130/2/2 134/2/2
f 131/2/2 132/2/2 135/2/2
f 135/2/2 132/2/2 136/2/2
f 137/1/2 138/1/2 140/1/2
f 140/1/2 138/1/2 141/1/2
f 139/1/2 140/1/2 143/1/2
f 141/1/2 142/1/2 143/1/2
f 140/1/2 141/1/2 143/1/2
f 143/1/2 142/1/2 144/1/2
f 139/1/2 143/1/2 145/1/2
f 144/1/2 142/1/2 146/1/2
f 139/1/2 145/1/2 147/1/2
f 145/1/2 146/1/2 147/1/2
f 147/1/2 146/1/2 148/1/2
f 146/1/2 142/1/2 149/1/2
f 148/1/2 146/1/2 149/1/2
f 149/1/2 142/1/2 150/1/2
f 148/1/2 149/1/2 152/1/2
f 152/1/2 149/1/2 153/1/2
f 151/1/2 152/1/2 155/1/2
f 153/1/2 154/1/2 155/1/2
f 152/1/2 153/1/2 155/1/2
f 155/1/2 154/1/2 156/1/2
f 151/1/2 155/1/2 157/1/2
f 156/1/2 154/1/2 158/1/2
f 151/1/2 157/1/2 159/1/2
f 157/1/2 158/1/2 159/1/2
f 159/1/2 158/1/2 160/1/2
f 158/1/2 154/1/2 161/1/2
f 160/1/2 158/1/2 161/1/2
f 161/1/2 154/1/2 162/1/2
f 160/1/2 161/1/2 164/1/2
f 164/1/2 161/1/2 165/1/2
f 163/1/2 164/1/2 167/1/2
f 165/1/2 166/1/2 167/1/2
f 164/1/2 165/1/2 167/1/2
f 167/1/2 166/1/2 168/1/2
f 163/1/2 167/1/2 169/1/2
f 168/1/2 166/1/2 170/1/2
f 163/1/2 169/1/2 171/1/2
f 169/1/2 170/1/2 171/1/2
f 171/1/2 170/1/2 172/1/2
f 170/1/2 166/1/2 173/1/2
f 172/1/2 170/1/2 173/1/2
f 173/1/2 166/1/2 174/1/2
f 172/1/2 173/1/2 176/1/2
f 176/1/2 173/1/2 177/1/2
f 175/1/2 176/1/2 179/1/2
f 177/1/2 178/1/2 179/1/2
f 176/1/2 177/1/2 179/1/2
f 179/1/2 178/1/2 180/1/2
f 175/1/2 179/1/2 181/1/2
f 180/1/2 178/1/2 182/1/2
f 175/1/2 181/1/2 183/1/2
f 181/1/2 182/1/2 183/1/2
f 183/1/2 182/1/2 184/1/2
f 182/1/2 178/1/2 185/1/2
f 184/1/2 182/1/2 185/1/2
f 185/1/2 178/1/2 186/1/2
f 184/1/2 185/1/2 187/1/2
f 187/1/2 185/1/2 188/1/2
f 189/1/2 190/1/2 191/1/2
f 191/1/2 190/1/2 192/1/2
f 189/1/2 191/1/2 193/1/2
f 192/1/2 190/1/2 194/1/2
f 189/1/2 193/1/2 195/1/2
f 193/1/2 194/1/2 195/1/2
f 194/1/2 190/1/2 196/1/2
f 195/1/2 194/1/2 196/1/2
f 189/1/2 195/1/2 197/1/2
f 196/1/2 190/1/2 198/1/2
f 189/1/2 197/1/2 199/1/2
f 197/1/2 198/1/2 199/1/2
f 198/1/2 190/1/2 200/1/2
f 199/1/2 198/1/2 200/1/2
f 189/1/2 199/1/2 201/1/2
f 200/1/2 190/1/2 202/1/2
f 189/1/2 201/1/2 203/1/2
f 201/1/2 202/1/2 203/1/2
f 202/1/2 190/1/2 204/1/2
f 203/1/2 202/1/2 204/1/2
f 205/2/2 206/2/2 207/2/2
f 207/2/2 206/2/2 208/2/2
f 209/2/2 210/2/2 211/2/2
f 211/2/2 210/2/2 212/2/2
f 213/2/2 214/2/2 215/2/2
f 215/2/2 214/2/2 216/2/2
f 223/2/3 218/2/3 217/2/3
f 224/2/3 218/2/3 223/2/3
f 225/2/3 220/2/3 219/2/3
f 226/2/3 220/2/3 225/2/3
f 227/2/3 222/2/3 221/2/3
f 228/2/3 222/2/3 227/2/3
f 231/1/3 230/1/3 229/1/3
f 232/1/3 230/1/3 231/1/3
f 233/1/3 230/1/3 232/1/3
f 234/1/3 230/1/3 233/1/3
f 235/1/3 230/1/3 234/1/3
f 236/1/3 230/1/3 235/1/3
f 245/1/3 231/1/3 229/1/3
f 246/1/3 233/1/3 232/1/3
f 247/1/3 233/1/3 246/1/3
f 248/1/3 235/1/3 234/1/3
f 249/1/3 235/1/3 248/1/3
f 250/1/3 230/1/3 236/1/3
f 251/1/3 238/1/3 237/1/3
f 252/1/3 238/1/3 251/1/3
f 253/1/3 240/1/3 239/1/3
f 254/1/3 240/1/3 253/1/3
f 255/1/3 242/1/3 241/1/3
f 256/1/3 242/1/3 255/1/3
f 257/1/3 244/1/3 243/1/3
f 258/1/3 244/1/3 257/1/3
f 259/1/3 245/1/3 229/1/3
f 259/1/3 247/1/3 246/1/3
f 259/1/3 250/1/3 249/1/3
f 259/1/3 249/1/3 248/1/3
f 259/1/3 246/1/3 245/1/3
f 259/1/3 248/1/3 247/1/3
f 260/1/3 230/1/3 250/1/3
f 260/1/3 250/1/3 259/1/3
f 267/2/3 262/2/3 261/2/3
f 268/2/3 262/2/3 267/2/3
f 269/2/3 264/2/3 263/2/3
f 270/2/3 264/2/3 269/2/3
f 271/2/3 266/2/3 265/2/3
f 272/2/3 266/2/3 271/2/3
f 285/2/3 274/2/3 273/2/3
f 286/2/3 274/2/3 285/2/3
f 287/1/3 276/1/3 275/1/3
f 288/1/3 276/1/3 287/1/3
f 289/1/3 278/1/3 277/1/3
f 290/1/3 278/1/3 289/1/3
f 291/1/3 280/1/3 279/1/3
f 292/1/3 280/1/3 291/1/3
f 293/1/3 282/1/3 281/1/3
f 294/1/3 282/1/3 293/1/3
f 295/1/3 284/1/3 283/1/3
f 296/1/3 284/1/3 295/1/3
f 303/2/3 298/2/3 297/2/3
f 304/2/3 298/2/3 303/2/3
f 305/2/3 300/2/3 299/2/3
f 306/2/3 300/2/3 305/2/3
f 307/2/3 302/2/3 301/2/3
f 308/2/3 302/2/3 307/2/3
f 317/1/3 310/1/3 309/1/3
f 318/1/3 310/1/3 317/1/3
f 319/1/3 312/1/3 311/1/3
f 320/1/3 312/1/3 319/1/3
f 321/1/3 314/1/3 313/1/3
f 322/1/3 314/1/3 321/1/3
f 323/1/3 316/1/3 315/1/3
f 324/1/3 316/1/3 323/1/3
f 325/1/4 326/1/4 333/1/4
f 333/1/4 326/1/4 334/1/4
f 327/1/4 328/1/4 335/1/4
f 335/1/4 328/1/4 336/1/4
f 329/1/4 330/1/4 337/1/4
f 337/1/4 330/1/4 338/1/4
f 331/1/4 332/1/4 339/1/4
f 339/1/4 332/1/4 340/1/4
f 341/2/4 342/2/4 347/2/4
f 347/2/4 342/2/4 348/2/4
f 343/2/4 344/2/4 349/2/4
f 349/2/4 344/2/4 350/2/4
f 345/2/4 346/2/4 351/2/4
f 351/2/4 346/2/4 352/2/4
f 353/2/4 354/2/4 365/2/4
f 365/2/4 354/2/4 366/2/4
f 355/1/4 356/1/4 367/1/4
f 367/1/4 356/1/4 368/1/4
f 357/1/4 358/1/4 369/1/4
f 369/1/4 358/1/4 370/1/4
f 359/1/4 360/1/4 371/1/4
f 371/1/4 360/1/4 372/1/4
f 361/1/4 362/1/4 373/1/4
f 373/1/4 362/1/4 374/1/4
f 363/1/4 364/1/4 375/1/4
f 375/1/4 364/1/4 376/1/4
f 377/2/4 378/2/4 383/2/4
f 383/2/4 378/2/4 384/2/4
f 379/2/4 380/2/4 385/2/4
f 385/2/4 380/2/4 386/2/4
f 381/2/4 382/2/4 387/2/4
f 387/2/4 382/2/4 388/2/4
f 389/1/4 390/1/4 391/1/4
f 391/1/4 390/1/4 392/1/4
f 392/1/4 390/1/4 393/1/4
f 393/1/4 390/1/4 394/1/4
f 394/1/4 390/1/4 395/1/4
f 395/1/4 390/1/4 396/1/4
f 389/1/4 391/1/4 405/1/4
f 392/1/4 393/1/4 406/1/4
f 406/1/4 393/1/4 407/1/4
f 394/1/4 395/1/4 408/1/4
f 408/1/4 395/1/4 409/1/4
f 396/1/4 390/1/4 410/1/4
f 397/1/4 398/1/4 411/1/4
f 411/1/4 398/1/4 412/1/4
f 399/1/4 400/1/4 413/1/4
f 413/1/4 400/1/4 414/1/4
f 401/1/4 402/1/4 415/1/4
f 415/1/4 402/1/4 416/1/4
f 403/1/4 404/1/4 417/1/4
f 417/1/4 404/1/4 418/1/4
f 389/1/4 405/1/4 419/1/4
f 406/1/4 407/1/4 419/1/4
f 409/1/4 410/1/4 419/1/4
f 408/1/4 409/1/4 419/1/4
f 405/1/4 406/1/4 419/1/4
f 407/1/4 408/1/4 419/1/4
f 410/1/4 390/1/4 420/1/4
f 419/1/4 410/1/4 420/1/4
f 421/2/4 422/2/4 427/2/4
f 427/2/4 422/2/4 428/2/4
f 423/2/4 424/2/4 429/2/4
f 429/2/4 424/2/4 430/2/4
f 425/2/4 426/2/4 431/2/4
f 431/2/4 426/2/4 432/2/4
f 435/2/5 434/2/5 433/2/5
f 436/2/5 434/2/5 435/2/5
f 439/1/5 438/1/5 437/1/5
f 440/1/5 438/1/5 439/1/5
f 441/1/5 439/1/5 437/1/5
f 442/1/5 438/1/5 440/1/5
f 443/1/5 441/1/5 437/1/5
f 443/1/5 442/1/5 441/1/5
f 444/1/5 438/1/5 442/1/5
f 444/1/5 442/1/5 443/1/5
f 447/2/5 446/2/5 445/2/5
f 448/2/5 446/2/5 447/2/5
f 453/2/5 450/2/5 449/2/5
f 454/2/5 450/2/5 453/2/5
f 455/2/5 452/2/5 451/2/5
f 456/2/5 452/2/5 455/2/5
f 459/2/5 458/2/5 457/2/5
f 460/2/5 458/2/5 459/2/5
f 463/2/5 462/2/5 461/2/5
f 464/2/5 462/2/5 463/2/5
f 469/2/5 466/2/5 465/2/5
f 470/2/5 466/2/5 469/2/5
f 471/2/5 468/2/5 467/2/5
f 472/2/5 468/2/5 471/2/5
f 475/2/5 474/2/5 473/2/5
f 476/2/5 474/2/5 475/2/5
f 479/2/5 478/2/5 477/2/5
f 480/2/5 478/2/5 479/2/5
f 485/2/5 482/2/5 481/2/5
f 486/2/5 482/2/5 485/2/5
f 487/2/5 484/2/5 483/2/5
f 488/2/5 484/2/5 487/2/5
f 491/2/5 490/2/5 489/2/5
f 492/2/5 490/2/5 491/2/5
f 495/1/5 494/1/5 493/1/5
f 496/1/5 494/1/5 495/1/5
f 499/1/5 498/1/5 497/1/5
f 500/1/5 498/1/5 499/1/5
f 503/1/5 502/1/5 501/1/5
f 504/1/5 502/1/5 503/1/5
f 507/1/5 506/1/5 505/1/5
f 508/1/5 506/1/5 507/1/5
f 511/1/5 510/1/5 509/1/5
f 512/1/5 510/1/5 511/1/5
f 515/1/5 514/1/5 513/1/5
f 516/1/5 514/1/5 515/1/5
f 519/1/5 518/1/5 517/1/5
f 520/1/5 518/1/5 519/1/5
f 523/1/5 522/1/5 521/1/5
f 524/1/5 522/1/5 523/1/5
f 527/1/5 526/1/5 525/1/5
f 528/1/5 526/1/5 527/1/5
f 531/1/5 530/1/5 529/1/5
f 532/1/5 530/1/5 531/1/5
f 535/1/5 534/1/5 533/1/5
f 536/1/5 534/1/5 535/1/5
f 539/1/5 538/1/5 537/1/5
f 540/1/5 538/1/5 539/1/5
f 541/2/6 542/2/6 543/2/6
f 543/2/6 542/2/6 544/2/6
f 545/2/6 546/2/6 549/2/6
f 549/2/6 546/2/6 550/2/6
f 547/2/6 548/2/6 551/2/6
f 551/2/6 548/2/6 552/2/6
f 553/2/6 554/2/6 555/2/6
f 555/2/6 554/2/6 556/2/6
f 557/2/6 558/2/6 559/2/6
f 559/2/6 558/2/6 560/2/6
f 561/2/6 562/2/6 565/2/6
f 565/2/6 562/2/6 566/2/6
f 563/2/6 564/2/6 567/2/6
f 567/2/6 564/2/6 568/2/6
f 569/2/6 570/2/6 571/2/6
f 571/2/6 570/2/6 572/2/6
f 573/2/6 574/2/6 575/2/6
f 575/2/6 574/2/6 576/2/6
f 577/2/6 578/2/6 581/2/6
f 581/2/6 578/2/6 582/2/6
f 579/2/6 580/2/6 583/2/6
f 583/2/6 580/2/6 584/2/6
f 585/2/6 586/2/6 587/2/6
f 587/2/6 586/2/6 588/2/6
f 589/1/6 590/1/6 591/1/6
f 591/1/6 590/1/6 592/1/6
f 589/1/6 591/1/6 593/1/6
f 592/1/6 590/1/6 594/1/6
f 589/1/6 593/1/6 595/1/6
f 593/1/6 594/1/6 595/1/6
f 594/1/6 590/1/6 596/1/6
f 595/1/6 594/1/6 596/1/6
f 597/1/6 598/1/6 599/1/6
f 599/1/6 598/1/6 600/1/6
f 601/1/6 602/1/6 603/1/6
f 603/1/6 602/1/6 604/1/6
f 605/1/6 606/1/6 607/1/6
f 607/1/6 606/1/6 608/1/6
f 609/1/6 610/1/6 611/1/6
f 611/1/6 610/1/6 612/1/6
f 613/1/6 614/1/6 615/1/6
f 615/1/6 614/1/6 616/1/6
f 617/1/6 618/1/6 619/1/6
f 619/1/6 618/1/6 620/1/6
f 621/1/6 622/1/6 623/1/6
f 623/1/6 622/1/6 624/1/6
f 625/1/6 626/1/6 627/1/6
f 627/1/6 626/1/6 628/1/6
f 629/1/6 630/1/6 631/1/6
f 631/1/6 630/1/6 632/1/6
f 633/1/6 634/1/6 635/1/6
f 635/1/6 634/1/6 636/1/6
f 637/1/6 638/1/6 639/1/6
f 639/1/6 638/1/6 640/1/6
f 641/1/6 642/1/6 643/1/6
f 643/1/6 642/1/6 644/1/6
f 645/1/6 646/1/6 647/1/6
f 647/1/6 646/1/6 648/1/6
