# MagicaVoxel @ Ephtracy

# group
o 

# material
mtllib goblin_walk_2.mtl
usemtl palette

# normals
vn -1 0 0
vn 1 0 0
vn 0 0 1
vn 0 0 -1
vn 0 -1 0
vn 0 1 0

# texcoords
vt 0.763672 0.5
vt 0.783203 0.5
vt 0.791016 0.5
vt 0.939453 0.5
vt 0.943359 0.5

# verts
v -0.2 0.3 0.1
v -0.2 0.3 -2.98023e-08
v -0.2 0.4 0.1
v -0.2 0.4 -2.98023e-08
v -0.2 0.4 -0.2
v -0.2 0.5 0.1
v -0.2 0.5 -2.98023e-08
v -0.2 0.5 -0.1
v -0.2 0.6 0.3
v -0.2 0.6 0.2
v -0.2 0.6 0.1
v -0.2 0.6 -2.98023e-08
v -0.2 0.6 -0.1
v -0.2 0.6 -0.2
v -0.2 0.7 -0.2
v -0.2 0.7 -0.3
v -0.2 0.8 0.3
v -0.2 0.8 0.2
v -0.2 0.8 -2.98023e-08
v -0.2 1 -0.2
v -0.2 1 -0.3
v -0.1 0.1 -0.4
v -0.1 0.1 -0.5
v -0.1 0.2 -0.1
v -0.1 0.2 -0.3
v -0.1 0.2 -0.4
v -0.1 0.3 -0.3
v -0.1 0.3 -0.5
v -0.1 0.4 -0.1
v -0.1 0.4 -0.2
v -0.1 0.4 -0.3
v -0.1 0.6 -0.1
v -0.1 0.6 -0.2
v -0.1 0.7 -0.2
v -0.1 0.7 -0.3
v -0.1 0.9 -0.1
v -0.1 0.9 -0.2
v 0.1 0 0.1
v 0.1 0 -0.1
v 0.1 0.1 0.1
v 0.1 0.1 -2.98023e-08
v 0.1 0.2 -2.98023e-08
v 0.1 0.2 -0.1
v 0.1 0.4 -2.98023e-08
v 0.1 0.4 -0.1
v 0.2 0.4 -0.3
v 0.2 0.4 -0.4
v 0.2 0.6 0.1
v 0.2 0.6 -2.98023e-08
v 0.2 0.6 -0.1
v 0.2 0.6 -0.3
v 0.2 0.6 -0.4
v 0.2 0.8 0.1
v 0.2 0.8 -2.98023e-08
v 0.2 0.8 -0.1
v 0.2 0.9 -0.2
v 0.2 0.9 -0.3
v 0.2 1 -0.2
v 0.2 1 -0.3
v -0.1 0.3 0.1
v -0.1 0.3 -2.98023e-08
v -0.1 0.4 0.1
v -0.1 0.4 -2.98023e-08
v -0.1 0.4 -0.1
v -0.1 0.5 0.1
v -0.1 0.5 -2.98023e-08
v -0.1 0.5 -0.1
v -0.1 0.6 0.3
v -0.1 0.6 0.2
v -0.1 0.6 0.1
v -0.1 0.6 -2.98023e-08
v -0.1 0.8 0.3
v -0.1 0.8 0.2
v -0.1 0.8 -2.98023e-08
v -0.1 0.9 -0.2
v -0.1 0.9 -0.3
v -0.1 1 -0.2
v -0.1 1 -0.3
v 2.98023e-08 0.1 -0.4
v 2.98023e-08 0.1 -0.5
v 2.98023e-08 0.2 -0.3
v 2.98023e-08 0.2 -0.4
v 2.98023e-08 0.3 -0.3
v 2.98023e-08 0.3 -0.5
v 0.1 0.2 -0.2
v 0.1 0.2 -0.3
v 0.1 0.4 -0.2
v 0.1 0.4 -0.3
v 0.2 0 0.1
v 0.2 0 -0.1
v 0.2 0.1 0.1
v 0.2 0.1 -2.98023e-08
v 0.2 0.2 -2.98023e-08
v 0.2 0.2 -0.1
v 0.2 0.2 -0.2
v 0.2 0.3 -0.1
v 0.2 0.3 -0.2
v 0.2 0.4 -2.98023e-08
v 0.2 0.4 -0.1
v 0.2 0.5 -0.2
v 0.2 0.5 -0.3
v 0.2 0.6 -0.2
v 0.2 0.6 -0.3
v 0.2 0.7 -0.2
v 0.2 0.7 -0.3
v 0.2 0.8 -0.1
v 0.2 0.8 -0.2
v 0.2 0.9 -0.1
v 0.2 0.9 -0.2
v 0.3 0.3 -0.1
v 0.3 0.3 -0.2
v 0.3 0.4 -0.1
v 0.3 0.4 -0.2
v 0.3 0.4 -0.4
v 0.3 0.5 -0.1
v 0.3 0.5 -0.2
v 0.3 0.5 -0.3
v 0.3 0.6 0.1
v 0.3 0.6 -2.98023e-08
v 0.3 0.6 -0.1
v 0.3 0.6 -0.2
v 0.3 0.6 -0.3
v 0.3 0.6 -0.4
v 0.3 0.7 -0.2
v 0.3 0.7 -0.3
v 0.3 0.8 0.1
v 0.3 0.8 -2.98023e-08
v 0.3 0.8 -0.2
v 0.3 1 -0.2
v 0.3 1 -0.3
v -0.2 0.6 0.3
v -0.2 0.8 0.3
v -0.1 0.6 0.3
v -0.1 0.8 0.3
v -0.2 0.3 0.1
v -0.2 0.4 0.1
v -0.2 0.5 0.1
v -0.2 0.6 0.1
v -0.1 0.3 0.1
v -0.1 0.4 0.1
v -0.1 0.5 0.1
v -0.1 0.6 0.1
v 0.1 0 0.1
v 0.1 0.1 0.1
v 0.2 0 0.1
v 0.2 0.1 0.1
v 0.2 0.6 0.1
v 0.2 0.8 0.1
v 0.3 0.6 0.1
v 0.3 0.8 0.1
v 0.1 0.1 -2.98023e-08
v 0.1 0.2 -2.98023e-08
v 0.1 0.4 -2.98023e-08
v 0.2 0.1 -2.98023e-08
v 0.2 0.2 -2.98023e-08
v 0.2 0.4 -2.98023e-08
v -0.2 0.5 -0.1
v -0.2 0.6 -0.1
v -0.1 0.2 -0.1
v -0.1 0.4 -0.1
v -0.1 0.5 -0.1
v -0.1 0.6 -0.1
v -0.1 0.9 -0.1
v 0.1 0.2 -0.1
v 0.1 0.4 -0.1
v 0.2 0.3 -0.1
v 0.2 0.4 -0.1
v 0.2 0.5 -0.1
v 0.2 0.6 -0.1
v 0.2 0.8 -0.1
v 0.2 0.9 -0.1
v 0.3 0.3 -0.1
v 0.3 0.4 -0.1
v 0.3 0.5 -0.1
v 0.3 0.6 -0.1
v -0.2 0.7 -0.2
v -0.2 1 -0.2
v -0.1 0.7 -0.2
v -0.1 0.9 -0.2
v -0.1 1 -0.2
v 0.2 0.8 -0.2
v 0.2 0.9 -0.2
v 0.2 1 -0.2
v 0.3 0.8 -0.2
v 0.3 1 -0.2
v 0.2 0.5 -0.3
v 0.2 0.6 -0.3
v 0.3 0.5 -0.3
v 0.3 0.6 -0.3
v -0.1 0.1 -0.4
v -0.1 0.2 -0.4
v 2.98023e-08 0.1 -0.4
v 2.98023e-08 0.2 -0.4
v -0.2 0.3 -2.98023e-08
v -0.2 0.4 -2.98023e-08
v -0.2 0.5 -2.98023e-08
v -0.2 0.6 -2.98023e-08
v -0.2 0.8 -2.98023e-08
v -0.1 0.3 -2.98023e-08
v -0.1 0.4 -2.98023e-08
v -0.1 0.5 -2.98023e-08
v -0.1 0.6 -2.98023e-08
v -0.1 0.8 -2.98023e-08
v 0.1 0 -0.1
v 0.1 0.2 -0.1
v 0.2 0 -0.1
v 0.2 0.2 -0.1
v -0.2 0.4 -0.2
v -0.2 0.6 -0.2
v -0.1 0.4 -0.2
v -0.1 0.6 -0.2
v 0.1 0.2 -0.2
v 0.1 0.4 -0.2
v 0.2 0.2 -0.2
v 0.2 0.3 -0.2
v 0.2 0.4 -0.2
v 0.2 0.5 -0.2
v 0.2 0.6 -0.2
v 0.2 0.7 -0.2
v 0.3 0.3 -0.2
v 0.3 0.4 -0.2
v 0.3 0.5 -0.2
v 0.3 0.6 -0.2
v 0.3 0.7 -0.2
v -0.2 0.7 -0.3
v -0.2 1 -0.3
v -0.1 0.3 -0.3
v -0.1 0.4 -0.3
v -0.1 0.7 -0.3
v -0.1 0.9 -0.3
v -0.1 1 -0.3
v 2.98023e-08 0.2 -0.3
v 2.98023e-08 0.3 -0.3
v 0.1 0.2 -0.3
v 0.1 0.4 -0.3
v 0.2 0.4 -0.3
v 0.2 0.6 -0.3
v 0.2 0.7 -0.3
v 0.2 0.9 -0.3
v 0.2 1 -0.3
v 0.3 0.7 -0.3
v 0.3 1 -0.3
v 0.2 0.4 -0.4
v 0.2 0.6 -0.4
v 0.3 0.4 -0.4
v 0.3 0.6 -0.4
v -0.1 0.1 -0.5
v -0.1 0.3 -0.5
v 2.98023e-08 0.1 -0.5
v 2.98023e-08 0.3 -0.5
v 0.1 0 0.1
v 0.2 0 0.1
v 0.1 0 -0.1
v 0.2 0 -0.1
v -0.1 0.1 -0.4
v 2.98023e-08 0.1 -0.4
v -0.1 0.1 -0.5
v 2.98023e-08 0.1 -0.5
v -0.1 0.2 -0.1
v 0.1 0.2 -0.1
v 0.2 0.2 -0.1
v 0.1 0.2 -0.2
v 0.2 0.2 -0.2
v -0.1 0.2 -0.3
v 2.98023e-08 0.2 -0.3
v 0.1 0.2 -0.3
v -0.1 0.2 -0.4
v 2.98023e-08 0.2 -0.4
v -0.2 0.3 0.1
v -0.1 0.3 0.1
v -0.2 0.3 -2.98023e-08
v -0.1 0.3 -2.98023e-08
v 0.2 0.3 -0.1
v 0.3 0.3 -0.1
v 0.2 0.3 -0.2
v 0.3 0.3 -0.2
v -0.2 0.4 -2.98023e-08
v -0.1 0.4 -2.98023e-08
v -0.1 0.4 -0.1
v -0.2 0.4 -0.2
v -0.1 0.4 -0.2
v 0.1 0.4 -0.2
v 0.2 0.4 -0.2
v 0.3 0.4 -0.2
v 0.1 0.4 -0.3
v 0.2 0.4 -0.3
v 0.2 0.4 -0.4
v 0.3 0.4 -0.4
v -0.2 0.6 0.3
v -0.1 0.6 0.3
v -0.2 0.6 0.2
v -0.1 0.6 0.2
v -0.2 0.6 0.1
v -0.1 0.6 0.1
v 0.2 0.6 0.1
v 0.3 0.6 0.1
v 0.2 0.6 -2.98023e-08
v 0.3 0.6 -2.98023e-08
v 0.2 0.6 -0.1
v 0.3 0.6 -0.1
v -0.2 0.7 -0.2
v -0.1 0.7 -0.2
v 0.2 0.7 -0.2
v 0.3 0.7 -0.2
v -0.2 0.7 -0.3
v -0.1 0.7 -0.3
v 0.2 0.7 -0.3
v 0.3 0.7 -0.3
v 0.1 0.1 0.1
v 0.2 0.1 0.1
v 0.1 0.1 -2.98023e-08
v 0.2 0.1 -2.98023e-08
v -0.1 0.3 -0.3
v 2.98023e-08 0.3 -0.3
v -0.1 0.3 -0.5
v 2.98023e-08 0.3 -0.5
v 0.1 0.4 -2.98023e-08
v 0.2 0.4 -2.98023e-08
v 0.1 0.4 -0.1
v 0.2 0.4 -0.1
v -0.2 0.5 -2.98023e-08
v -0.1 0.5 -2.98023e-08
v -0.2 0.5 -0.1
v -0.1 0.5 -0.1
v 0.2 0.5 -0.2
v 0.3 0.5 -0.2
v 0.2 0.5 -0.3
v 0.3 0.5 -0.3
v -0.2 0.6 -0.1
v -0.1 0.6 -0.1
v -0.2 0.6 -0.2
v -0.1 0.6 -0.2
v 0.2 0.6 -0.3
v 0.3 0.6 -0.3
v 0.2 0.6 -0.4
v 0.3 0.6 -0.4
v -0.2 0.8 0.3
v -0.1 0.8 0.3
v -0.2 0.8 0.2
v -0.1 0.8 0.2
v 0.2 0.8 0.1
v 0.3 0.8 0.1
v -0.2 0.8 -2.98023e-08
v -0.1 0.8 -2.98023e-08
v 0.2 0.8 -2.98023e-08
v 0.3 0.8 -2.98023e-08
v 0.2 0.8 -0.1
v 0.2 0.8 -0.2
v 0.3 0.8 -0.2
v -0.1 0.9 -0.1
v 0.2 0.9 -0.1
v -0.1 0.9 -0.2
v 0.2 0.9 -0.2
v -0.1 0.9 -0.3
v 0.2 0.9 -0.3
v -0.2 1 -0.2
v -0.1 1 -0.2
v 0.2 1 -0.2
v 0.3 1 -0.2
v -0.2 1 -0.3
v -0.1 1 -0.3
v 0.2 1 -0.3
v 0.3 1 -0.3

# faces
f 3/4/1 2/4/1 1/4/1
f 4/4/1 2/4/1 3/4/1
f 6/1/1 4/1/1 3/1/1
f 6/1/1 5/1/1 4/1/1
f 7/1/1 5/1/1 6/1/1
f 8/1/1 5/1/1 7/1/1
f 11/4/1 7/4/1 6/4/1
f 12/4/1 7/4/1 11/4/1
f 13/1/1 5/1/1 8/1/1
f 14/1/1 5/1/1 13/1/1
f 17/3/1 10/3/1 9/3/1
f 18/5/1 12/5/1 11/5/1
f 18/3/1 10/3/1 17/3/1
f 18/5/1 11/5/1 10/5/1
f 19/5/1 12/5/1 18/5/1
f 20/1/1 16/1/1 15/1/1
f 21/1/1 16/1/1 20/1/1
f 26/1/1 23/1/1 22/1/1
f 27/2/1 25/2/1 24/2/1
f 27/1/1 26/1/1 25/1/1
f 28/1/1 23/1/1 26/1/1
f 28/1/1 26/1/1 27/1/1
f 29/2/1 27/2/1 24/2/1
f 30/2/1 27/2/1 29/2/1
f 31/2/1 27/2/1 30/2/1
f 33/1/1 31/1/1 30/1/1
f 34/1/1 31/1/1 33/1/1
f 34/1/1 33/1/1 32/1/1
f 35/1/1 31/1/1 34/1/1
f 36/1/1 34/1/1 32/1/1
f 37/1/1 34/1/1 36/1/1
f 40/1/1 39/1/1 38/1/1
f 41/1/1 39/1/1 40/1/1
f 42/1/1 39/1/1 41/1/1
f 43/1/1 39/1/1 42/1/1
f 44/2/1 43/2/1 42/2/1
f 45/2/1 43/2/1 44/2/1
f 51/1/1 47/1/1 46/1/1
f 52/1/1 47/1/1 51/1/1
f 53/3/1 49/3/1 48/3/1
f 54/5/1 50/5/1 49/5/1
f 54/3/1 49/3/1 53/3/1
f 55/5/1 50/5/1 54/5/1
f 58/1/1 57/1/1 56/1/1
f 59/1/1 57/1/1 58/1/1
f 60/4/2 61/4/2 62/4/2
f 62/4/2 61/4/2 63/4/2
f 62/1/2 63/1/2 65/1/2
f 63/1/2 64/1/2 65/1/2
f 65/1/2 64/1/2 66/1/2
f 66/1/2 64/1/2 67/1/2
f 65/4/2 66/4/2 70/4/2
f 70/4/2 66/4/2 71/4/2
f 68/3/2 69/3/2 72/3/2
f 69/5/2 70/5/2 73/5/2
f 72/3/2 69/3/2 73/3/2
f 70/5/2 71/5/2 73/5/2
f 73/5/2 71/5/2 74/5/2
f 75/1/2 76/1/2 77/1/2
f 77/1/2 76/1/2 78/1/2
f 79/1/2 80/1/2 82/1/2
f 81/1/2 82/1/2 83/1/2
f 82/1/2 80/1/2 84/1/2
f 83/1/2 82/1/2 84/1/2
f 85/2/2 86/2/2 87/2/2
f 87/2/2 86/2/2 88/2/2
f 89/1/2 90/1/2 91/1/2
f 91/1/2 90/1/2 92/1/2
f 92/1/2 90/1/2 93/1/2
f 93/1/2 90/1/2 94/1/2
f 93/2/2 94/2/2 96/2/2
f 94/2/2 95/2/2 96/2/2
f 96/2/2 95/2/2 97/2/2
f 93/2/2 96/2/2 98/2/2
f 98/2/2 96/2/2 99/2/2
f 100/1/2 101/1/2 102/1/2
f 102/1/2 101/1/2 103/1/2
f 102/1/2 103/1/2 104/1/2
f 104/1/2 103/1/2 105/1/2
f 106/1/2 107/1/2 108/1/2
f 108/1/2 107/1/2 109/1/2
f 110/4/2 111/4/2 112/4/2
f 112/4/2 111/4/2 113/4/2
f 112/1/2 113/1/2 115/1/2
f 113/1/2 114/1/2 115/1/2
f 115/1/2 114/1/2 116/1/2
f 116/1/2 114/1/2 117/1/2
f 115/4/2 116/4/2 120/4/2
f 120/4/2 116/4/2 121/4/2
f 117/1/2 114/1/2 122/1/2
f 122/1/2 114/1/2 123/1/2
f 120/5/2 121/5/2 124/5/2
f 119/5/2 120/5/2 124/5/2
f 118/3/2 119/3/2 126/3/2
f 119/5/2 124/5/2 127/5/2
f 126/3/2 119/3/2 127/3/2
f 124/1/2 125/1/2 128/1/2
f 127/5/2 124/5/2 128/5/2
f 128/1/2 125/1/2 129/1/2
f 129/1/2 125/1/2 130/1/2
f 133/3/3 132/3/3 131/3/3
f 134/3/3 132/3/3 133/3/3
f 139/4/3 136/4/3 135/4/3
f 140/1/3 137/1/3 136/1/3
f 140/4/3 136/4/3 139/4/3
f 141/4/3 138/4/3 137/4/3
f 141/1/3 137/1/3 140/1/3
f 142/4/3 138/4/3 141/4/3
f 145/1/3 144/1/3 143/1/3
f 146/1/3 144/1/3 145/1/3
f 149/3/3 148/3/3 147/3/3
f 150/3/3 148/3/3 149/3/3
f 154/1/3 152/1/3 151/1/3
f 155/2/3 153/2/3 152/2/3
f 155/1/3 152/1/3 154/1/3
f 156/2/3 153/2/3 155/2/3
f 161/1/3 158/1/3 157/1/3
f 162/1/3 158/1/3 161/1/3
f 164/2/3 160/2/3 159/2/3
f 165/1/3 163/1/3 162/1/3
f 165/2/3 160/2/3 164/2/3
f 165/1/3 161/1/3 160/1/3
f 165/1/3 162/1/3 161/1/3
f 167/1/3 163/1/3 165/1/3
f 168/1/3 163/1/3 167/1/3
f 169/1/3 163/1/3 168/1/3
f 170/1/3 163/1/3 169/1/3
f 171/1/3 163/1/3 170/1/3
f 172/4/3 167/4/3 166/4/3
f 173/1/3 168/1/3 167/1/3
f 173/4/3 167/4/3 172/4/3
f 174/4/3 169/4/3 168/4/3
f 174/1/3 168/1/3 173/1/3
f 175/4/3 169/4/3 174/4/3
f 178/1/3 177/1/3 176/1/3
f 179/1/3 177/1/3 178/1/3
f 180/1/3 177/1/3 179/1/3
f 184/1/3 182/1/3 181/1/3
f 184/1/3 183/1/3 182/1/3
f 185/1/3 183/1/3 184/1/3
f 188/1/3 187/1/3 186/1/3
f 189/1/3 187/1/3 188/1/3
f 192/1/3 191/1/3 190/1/3
f 193/1/3 191/1/3 192/1/3
f 194/4/4 195/4/4 199/4/4
f 199/4/4 195/4/4 200/4/4
f 196/4/4 197/4/4 201/4/4
f 197/5/4 198/5/4 202/5/4
f 201/4/4 197/4/4 202/4/4
f 202/5/4 198/5/4 203/5/4
f 204/1/4 205/1/4 206/1/4
f 206/1/4 205/1/4 207/1/4
f 208/1/4 209/1/4 210/1/4
f 210/1/4 209/1/4 211/1/4
f 212/2/4 213/2/4 214/2/4
f 214/2/4 213/2/4 215/2/4
f 215/2/4 213/2/4 216/2/4
f 215/4/4 216/4/4 220/4/4
f 220/4/4 216/4/4 221/4/4
f 217/4/4 218/4/4 222/4/4
f 218/5/4 219/5/4 223/5/4
f 222/4/4 218/4/4 223/4/4
f 223/5/4 219/5/4 224/5/4
f 225/1/4 226/1/4 229/1/4
f 229/1/4 226/1/4 230/1/4
f 230/1/4 226/1/4 231/1/4
f 227/2/4 228/2/4 233/2/4
f 232/2/4 233/2/4 234/2/4
f 228/1/4 229/1/4 235/1/4
f 234/2/4 233/2/4 235/2/4
f 229/1/4 230/1/4 235/1/4
f 233/2/4 228/2/4 235/2/4
f 235/1/4 230/1/4 236/1/4
f 236/1/4 230/1/4 237/1/4
f 237/1/4 230/1/4 238/1/4
f 238/1/4 230/1/4 239/1/4
f 239/1/4 240/1/4 241/1/4
f 238/1/4 239/1/4 241/1/4
f 241/1/4 240/1/4 242/1/4
f 243/1/4 244/1/4 245/1/4
f 245/1/4 244/1/4 246/1/4
f 247/1/4 248/1/4 249/1/4
f 249/1/4 248/1/4 250/1/4
f 253/1/5 252/1/5 251/1/5
f 254/1/5 252/1/5 253/1/5
f 257/1/5 256/1/5 255/1/5
f 258/1/5 256/1/5 257/1/5
f 262/2/5 260/2/5 259/2/5
f 262/2/5 261/2/5 260/2/5
f 263/2/5 261/2/5 262/2/5
f 264/2/5 262/2/5 259/2/5
f 265/2/5 262/2/5 264/2/5
f 266/2/5 262/2/5 265/2/5
f 267/1/5 265/1/5 264/1/5
f 268/1/5 265/1/5 267/1/5
f 271/4/5 270/4/5 269/4/5
f 272/4/5 270/4/5 271/4/5
f 275/4/5 274/4/5 273/4/5
f 276/4/5 274/4/5 275/4/5
f 279/1/5 278/1/5 277/1/5
f 280/1/5 279/1/5 277/1/5
f 281/1/5 279/1/5 280/1/5
f 285/1/5 284/1/5 283/1/5
f 285/1/5 283/1/5 282/1/5
f 286/1/5 284/1/5 285/1/5
f 287/1/5 284/1/5 286/1/5
f 288/1/5 284/1/5 287/1/5
f 291/3/5 290/3/5 289/3/5
f 292/3/5 290/3/5 291/3/5
f 293/5/5 292/5/5 291/5/5
f 294/5/5 292/5/5 293/5/5
f 297/3/5 296/3/5 295/3/5
f 298/3/5 296/3/5 297/3/5
f 299/5/5 298/5/5 297/5/5
f 300/5/5 298/5/5 299/5/5
f 305/1/5 302/1/5 301/1/5
f 306/1/5 302/1/5 305/1/5
f 307/1/5 304/1/5 303/1/5
f 308/1/5 304/1/5 307/1/5
f 309/1/6 310/1/6 311/1/6
f 311/1/6 310/1/6 312/1/6
f 313/1/6 314/1/6 315/1/6
f 315/1/6 314/1/6 316/1/6
f 317/2/6 318/2/6 319/2/6
f 319/2/6 318/2/6 320/2/6
f 321/1/6 322/1/6 323/1/6
f 323/1/6 322/1/6 324/1/6
f 325/1/6 326/1/6 327/1/6
f 327/1/6 326/1/6 328/1/6
f 329/1/6 330/1/6 331/1/6
f 331/1/6 330/1/6 332/1/6
f 333/1/6 334/1/6 335/1/6
f 335/1/6 334/1/6 336/1/6
f 337/3/6 338/3/6 339/3/6
f 339/3/6 338/3/6 340/3/6
f 339/5/6 340/5/6 343/5/6
f 343/5/6 340/5/6 344/5/6
f 341/3/6 342/3/6 345/3/6
f 345/3/6 342/3/6 346/3/6
f 345/5/6 346/5/6 347/5/6
f 347/5/6 346/5/6 348/5/6
f 348/5/6 346/5/6 349/5/6
f 350/1/6 351/1/6 352/1/6
f 352/1/6 351/1/6 353/1/6
f 352/1/6 353/1/6 354/1/6
f 354/1/6 353/1/6 355/1/6
f 356/1/6 357/1/6 360/1/6
f 360/1/6 357/1/6 361/1/6
f 358/1/6 359/1/6 362/1/6
f 362/1/6 359/1/6 363/1/6
