# MagicaVoxel @ Ephtracy

# group
o 

# material
mtllib goblin_walk_3.mtl
usemtl palette

# normals
vn -1 0 0
vn 1 0 0
vn 0 0 1
vn 0 0 -1
vn 0 -1 0
vn 0 1 0

# texcoords
vt 0.763672 0.5
vt 0.783203 0.5
vt 0.791016 0.5
vt 0.939453 0.5
vt 0.943359 0.5

# verts
v -0.2 0.2 -2.98023e-08
v -0.2 0.2 -0.1
v -0.2 0.3 -2.98023e-08
v -0.2 0.3 -0.1
v -0.2 0.3 -0.3
v -0.2 0.4 -2.98023e-08
v -0.2 0.4 -0.1
v -0.2 0.4 -0.2
v -0.2 0.5 0.2
v -0.2 0.5 0.1
v -0.2 0.5 -2.98023e-08
v -0.2 0.5 -0.1
v -0.2 0.5 -0.2
v -0.2 0.5 -0.3
v -0.2 0.6 -0.2
v -0.2 0.6 -0.3
v -0.2 0.7 0.2
v -0.2 0.7 0.1
v -0.2 0.7 -0.1
v -0.2 0.9 -0.2
v -0.2 0.9 -0.3
v -0.1 0.1 0.1
v -0.1 0.1 -0.1
v -0.1 0.2 0.1
v -0.1 0.2 -2.98023e-08
v -0.1 0.2 -0.1
v -0.1 0.2 -0.3
v -0.1 0.3 -0.1
v -0.1 0.3 -0.3
v -0.1 0.4 -0.1
v -0.1 0.4 -0.2
v -0.1 0.5 -0.1
v -0.1 0.5 -0.2
v -0.1 0.5 -0.3
v -0.1 0.6 -0.2
v -0.1 0.6 -0.3
v -0.1 0.7 -0.1
v -0.1 0.8 -0.1
v -0.1 0.8 -0.2
v 0.1 0 -0.1
v 0.1 0 -0.3
v 0.1 0.1 -0.1
v 0.1 0.1 -0.2
v 0.1 0.2 -0.2
v 0.1 0.2 -0.3
v 0.2 0.2 -2.98023e-08
v 0.2 0.2 -0.1
v 0.2 0.3 -2.98023e-08
v 0.2 0.3 -0.1
v 0.2 0.4 -2.98023e-08
v 0.2 0.4 -0.1
v 0.2 0.5 0.2
v 0.2 0.5 0.1
v 0.2 0.5 -2.98023e-08
v 0.2 0.5 -0.1
v 0.2 0.7 0.2
v 0.2 0.7 0.1
v 0.2 0.7 -0.1
v 0.2 0.8 -0.2
v 0.2 0.8 -0.3
v 0.2 0.9 -0.2
v 0.2 0.9 -0.3
v -0.1 0.3 -2.98023e-08
v -0.1 0.3 -0.1
v -0.1 0.4 -2.98023e-08
v -0.1 0.4 -0.1
v -0.1 0.5 0.2
v -0.1 0.5 0.1
v -0.1 0.5 -2.98023e-08
v -0.1 0.5 -0.1
v -0.1 0.7 0.2
v -0.1 0.7 0.1
v -0.1 0.7 -0.1
v -0.1 0.8 -0.2
v -0.1 0.8 -0.3
v -0.1 0.9 -0.2
v -0.1 0.9 -0.3
v 2.98023e-08 0.1 0.1
v 2.98023e-08 0.1 -0.1
v 2.98023e-08 0.2 0.1
v 2.98023e-08 0.2 -2.98023e-08
v 2.98023e-08 0.2 -0.1
v 2.98023e-08 0.3 -2.98023e-08
v 2.98023e-08 0.3 -0.1
v 0.2 0 -0.1
v 0.2 0 -0.3
v 0.2 0.1 -0.1
v 0.2 0.1 -0.2
v 0.2 0.2 -0.1
v 0.2 0.2 -0.2
v 0.2 0.2 -0.3
v 0.2 0.3 -0.1
v 0.2 0.3 -0.3
v 0.2 0.4 -0.1
v 0.2 0.4 -0.2
v 0.2 0.5 -0.1
v 0.2 0.5 -0.2
v 0.2 0.5 -0.3
v 0.2 0.6 -0.2
v 0.2 0.6 -0.3
v 0.2 0.7 -0.1
v 0.2 0.8 -0.1
v 0.2 0.8 -0.2
v 0.3 0.2 -2.98023e-08
v 0.3 0.2 -0.1
v 0.3 0.3 -2.98023e-08
v 0.3 0.3 -0.1
v 0.3 0.3 -0.3
v 0.3 0.4 -2.98023e-08
v 0.3 0.4 -0.1
v 0.3 0.4 -0.2
v 0.3 0.5 0.2
v 0.3 0.5 0.1
v 0.3 0.5 -2.98023e-08
v 0.3 0.5 -0.1
v 0.3 0.5 -0.2
v 0.3 0.5 -0.3
v 0.3 0.6 -0.2
v 0.3 0.6 -0.3
v 0.3 0.7 0.2
v 0.3 0.7 0.1
v 0.3 0.7 -0.1
v 0.3 0.9 -0.2
v 0.3 0.9 -0.3
v -0.2 0.5 0.2
v -0.2 0.7 0.2
v -0.1 0.5 0.2
v -0.1 0.7 0.2
v 0.2 0.5 0.2
v 0.2 0.7 0.2
v 0.3 0.5 0.2
v 0.3 0.7 0.2
v -0.1 0.1 0.1
v -0.1 0.2 0.1
v 2.98023e-08 0.1 0.1
v 2.98023e-08 0.2 0.1
v -0.2 0.2 -2.98023e-08
v -0.2 0.3 -2.98023e-08
v -0.2 0.4 -2.98023e-08
v -0.2 0.5 -2.98023e-08
v -0.1 0.2 -2.98023e-08
v -0.1 0.3 -2.98023e-08
v -0.1 0.4 -2.98023e-08
v -0.1 0.5 -2.98023e-08
v 2.98023e-08 0.2 -2.98023e-08
v 2.98023e-08 0.3 -2.98023e-08
v 0.2 0.2 -2.98023e-08
v 0.2 0.3 -2.98023e-08
v 0.2 0.4 -2.98023e-08
v 0.2 0.5 -2.98023e-08
v 0.3 0.2 -2.98023e-08
v 0.3 0.3 -2.98023e-08
v 0.3 0.4 -2.98023e-08
v 0.3 0.5 -2.98023e-08
v -0.1 0.3 -0.1
v -0.1 0.4 -0.1
v -0.1 0.5 -0.1
v -0.1 0.7 -0.1
v -0.1 0.8 -0.1
v 2.98023e-08 0.2 -0.1
v 2.98023e-08 0.3 -0.1
v 0.1 0 -0.1
v 0.1 0.1 -0.1
v 0.2 0 -0.1
v 0.2 0.1 -0.1
v 0.2 0.2 -0.1
v 0.2 0.3 -0.1
v 0.2 0.4 -0.1
v 0.2 0.5 -0.1
v 0.2 0.7 -0.1
v 0.2 0.8 -0.1
v -0.2 0.4 -0.2
v -0.2 0.5 -0.2
v -0.2 0.6 -0.2
v -0.2 0.9 -0.2
v -0.1 0.4 -0.2
v -0.1 0.5 -0.2
v -0.1 0.6 -0.2
v -0.1 0.8 -0.2
v -0.1 0.9 -0.2
v 0.1 0.1 -0.2
v 0.1 0.2 -0.2
v 0.2 0.1 -0.2
v 0.2 0.2 -0.2
v 0.2 0.4 -0.2
v 0.2 0.5 -0.2
v 0.2 0.6 -0.2
v 0.2 0.8 -0.2
v 0.2 0.9 -0.2
v 0.3 0.4 -0.2
v 0.3 0.5 -0.2
v 0.3 0.6 -0.2
v 0.3 0.9 -0.2
v -0.2 0.2 -0.1
v -0.2 0.3 -0.1
v -0.2 0.4 -0.1
v -0.2 0.5 -0.1
v -0.2 0.7 -0.1
v -0.1 0.1 -0.1
v -0.1 0.2 -0.1
v -0.1 0.3 -0.1
v -0.1 0.4 -0.1
v -0.1 0.5 -0.1
v -0.1 0.7 -0.1
v 2.98023e-08 0.1 -0.1
v 2.98023e-08 0.2 -0.1
v 0.2 0.2 -0.1
v 0.2 0.3 -0.1
v 0.2 0.4 -0.1
v 0.2 0.5 -0.1
v 0.2 0.7 -0.1
v 0.3 0.2 -0.1
v 0.3 0.3 -0.1
v 0.3 0.4 -0.1
v 0.3 0.5 -0.1
v 0.3 0.7 -0.1
v -0.2 0.3 -0.3
v -0.2 0.5 -0.3
v -0.2 0.6 -0.3
v -0.2 0.9 -0.3
v -0.1 0.2 -0.3
v -0.1 0.3 -0.3
v -0.1 0.4 -0.3
v -0.1 0.5 -0.3
v -0.1 0.6 -0.3
v -0.1 0.8 -0.3
v -0.1 0.9 -0.3
v 0.1 0 -0.3
v 0.1 0.2 -0.3
v 0.2 0 -0.3
v 0.2 0.2 -0.3
v 0.2 0.3 -0.3
v 0.2 0.4 -0.3
v 0.2 0.5 -0.3
v 0.2 0.6 -0.3
v 0.2 0.8 -0.3
v 0.2 0.9 -0.3
v 0.3 0.3 -0.3
v 0.3 0.5 -0.3
v 0.3 0.6 -0.3
v 0.3 0.9 -0.3
v 0.1 0 -0.1
v 0.2 0 -0.1
v 0.1 0 -0.3
v 0.2 0 -0.3
v -0.1 0.1 0.1
v 2.98023e-08 0.1 0.1
v -0.1 0.1 -0.1
v 2.98023e-08 0.1 -0.1
v -0.2 0.2 -2.98023e-08
v -0.1 0.2 -2.98023e-08
v 0.2 0.2 -2.98023e-08
v 0.3 0.2 -2.98023e-08
v -0.2 0.2 -0.1
v -0.1 0.2 -0.1
v 2.98023e-08 0.2 -0.1
v 0.2 0.2 -0.1
v 0.3 0.2 -0.1
v 0.1 0.2 -0.2
v 0.2 0.2 -0.2
v -0.1 0.2 -0.3
v 0.1 0.2 -0.3
v -0.2 0.3 -0.1
v -0.1 0.3 -0.1
v 0.2 0.3 -0.1
v 0.3 0.3 -0.1
v -0.2 0.3 -0.3
v -0.1 0.3 -0.3
v 0.2 0.3 -0.3
v 0.3 0.3 -0.3
v -0.2 0.5 0.2
v -0.1 0.5 0.2
v 0.2 0.5 0.2
v 0.3 0.5 0.2
v -0.2 0.5 0.1
v -0.1 0.5 0.1
v 0.2 0.5 0.1
v 0.3 0.5 0.1
v -0.2 0.5 -2.98023e-08
v -0.1 0.5 -2.98023e-08
v 0.2 0.5 -2.98023e-08
v 0.3 0.5 -2.98023e-08
v -0.2 0.6 -0.2
v -0.1 0.6 -0.2
v 0.2 0.6 -0.2
v 0.3 0.6 -0.2
v -0.2 0.6 -0.3
v -0.1 0.6 -0.3
v 0.2 0.6 -0.3
v 0.3 0.6 -0.3
v 0.1 0.1 -0.1
v 0.2 0.1 -0.1
v 0.1 0.1 -0.2
v 0.2 0.1 -0.2
v -0.1 0.2 0.1
v 2.98023e-08 0.2 0.1
v -0.1 0.2 -2.98023e-08
v 2.98023e-08 0.2 -2.98023e-08
v -0.1 0.3 -2.98023e-08
v 2.98023e-08 0.3 -2.98023e-08
v -0.1 0.3 -0.1
v 2.98023e-08 0.3 -0.1
v -0.2 0.4 -0.1
v -0.1 0.4 -0.1
v 0.2 0.4 -0.1
v 0.3 0.4 -0.1
v -0.2 0.4 -0.2
v -0.1 0.4 -0.2
v 0.2 0.4 -0.2
v 0.3 0.4 -0.2
v -0.2 0.5 -0.2
v -0.1 0.5 -0.2
v 0.2 0.5 -0.2
v 0.3 0.5 -0.2
v -0.2 0.5 -0.3
v -0.1 0.5 -0.3
v 0.2 0.5 -0.3
v 0.3 0.5 -0.3
v -0.2 0.7 0.2
v -0.1 0.7 0.2
v 0.2 0.7 0.2
v 0.3 0.7 0.2
v -0.2 0.7 0.1
v -0.1 0.7 0.1
v 0.2 0.7 0.1
v 0.3 0.7 0.1
v -0.2 0.7 -0.1
v -0.1 0.7 -0.1
v 0.2 0.7 -0.1
v 0.3 0.7 -0.1
v -0.1 0.8 -0.1
v 0.2 0.8 -0.1
v -0.1 0.8 -0.2
v 0.2 0.8 -0.2
v -0.1 0.8 -0.3
v 0.2 0.8 -0.3
v -0.2 0.9 -0.2
v -0.1 0.9 -0.2
v 0.2 0.9 -0.2
v 0.3 0.9 -0.2
v -0.2 0.9 -0.3
v -0.1 0.9 -0.3
v 0.2 0.9 -0.3
v 0.3 0.9 -0.3

# faces
f 3/4/1 2/4/1 1/4/1
f 4/4/1 2/4/1 3/4/1
f 6/1/1 4/1/1 3/1/1
f 6/1/1 5/1/1 4/1/1
f 7/1/1 5/1/1 6/1/1
f 8/1/1 5/1/1 7/1/1
f 11/4/1 7/4/1 6/4/1
f 12/4/1 7/4/1 11/4/1
f 13/1/1 5/1/1 8/1/1
f 14/1/1 5/1/1 13/1/1
f 17/3/1 10/3/1 9/3/1
f 18/5/1 12/5/1 11/5/1
f 18/3/1 10/3/1 17/3/1
f 18/5/1 11/5/1 10/5/1
f 19/5/1 12/5/1 18/5/1
f 20/1/1 16/1/1 15/1/1
f 21/1/1 16/1/1 20/1/1
f 24/1/1 23/1/1 22/1/1
f 25/1/1 23/1/1 24/1/1
f 26/1/1 23/1/1 25/1/1
f 28/2/1 27/2/1 26/2/1
f 29/2/1 27/2/1 28/2/1
f 32/1/1 31/1/1 30/1/1
f 33/1/1 31/1/1 32/1/1
f 35/1/1 33/1/1 32/1/1
f 35/1/1 34/1/1 33/1/1
f 36/1/1 34/1/1 35/1/1
f 37/1/1 35/1/1 32/1/1
f 38/1/1 35/1/1 37/1/1
f 39/1/1 35/1/1 38/1/1
f 42/1/1 41/1/1 40/1/1
f 43/1/1 41/1/1 42/1/1
f 44/1/1 41/1/1 43/1/1
f 45/1/1 41/1/1 44/1/1
f 48/4/1 47/4/1 46/4/1
f 49/4/1 47/4/1 48/4/1
f 50/1/1 49/1/1 48/1/1
f 51/1/1 49/1/1 50/1/1
f 54/4/1 51/4/1 50/4/1
f 55/4/1 51/4/1 54/4/1
f 56/3/1 53/3/1 52/3/1
f 57/5/1 54/5/1 53/5/1
f 57/3/1 53/3/1 56/3/1
f 57/5/1 55/5/1 54/5/1
f 58/5/1 55/5/1 57/5/1
f 61/1/1 60/1/1 59/1/1
f 62/1/1 60/1/1 61/1/1
f 63/1/2 64/1/2 65/1/2
f 65/1/2 64/1/2 66/1/2
f 65/4/2 66/4/2 69/4/2
f 69/4/2 66/4/2 70/4/2
f 67/3/2 68/3/2 71/3/2
f 68/5/2 69/5/2 72/5/2
f 71/3/2 68/3/2 72/3/2
f 69/5/2 70/5/2 72/5/2
f 72/5/2 70/5/2 73/5/2
f 74/1/2 75/1/2 76/1/2
f 76/1/2 75/1/2 77/1/2
f 78/1/2 79/1/2 80/1/2
f 80/1/2 79/1/2 81/1/2
f 81/1/2 79/1/2 82/1/2
f 81/1/2 82/1/2 83/1/2
f 83/1/2 82/1/2 84/1/2
f 85/1/2 86/1/2 87/1/2
f 87/1/2 86/1/2 88/1/2
f 88/1/2 86/1/2 90/1/2
f 90/1/2 86/1/2 91/1/2
f 89/2/2 90/2/2 92/2/2
f 90/2/2 91/2/2 92/2/2
f 92/2/2 91/2/2 93/2/2
f 94/1/2 95/1/2 96/1/2
f 96/1/2 95/1/2 97/1/2
f 96/1/2 97/1/2 99/1/2
f 97/1/2 98/1/2 99/1/2
f 99/1/2 98/1/2 100/1/2
f 96/1/2 99/1/2 101/1/2
f 101/1/2 99/1/2 102/1/2
f 102/1/2 99/1/2 103/1/2
f 104/4/2 105/4/2 106/4/2
f 106/4/2 105/4/2 107/4/2
f 106/1/2 107/1/2 109/1/2
f 107/1/2 108/1/2 109/1/2
f 109/1/2 108/1/2 110/1/2
f 110/1/2 108/1/2 111/1/2
f 109/4/2 110/4/2 114/4/2
f 114/4/2 110/4/2 115/4/2
f 111/1/2 108/1/2 116/1/2
f 116/1/2 108/1/2 117/1/2
f 112/3/2 113/3/2 120/3/2
f 114/5/2 115/5/2 121/5/2
f 120/3/2 113/3/2 121/3/2
f 113/5/2 114/5/2 121/5/2
f 121/5/2 115/5/2 122/5/2
f 118/1/2 119/1/2 123/1/2
f 123/1/2 119/1/2 124/1/2
f 127/3/3 126/3/3 125/3/3
f 128/3/3 126/3/3 127/3/3
f 131/3/3 130/3/3 129/3/3
f 132/3/3 130/3/3 131/3/3
f 135/1/3 134/1/3 133/1/3
f 136/1/3 134/1/3 135/1/3
f 141/4/3 138/4/3 137/4/3
f 142/1/3 139/1/3 138/1/3
f 142/4/3 138/4/3 141/4/3
f 143/4/3 140/4/3 139/4/3
f 143/1/3 139/1/3 142/1/3
f 144/4/3 140/4/3 143/4/3
f 145/1/3 142/1/3 141/1/3
f 146/1/3 142/1/3 145/1/3
f 151/4/3 148/4/3 147/4/3
f 152/1/3 149/1/3 148/1/3
f 152/4/3 148/4/3 151/4/3
f 153/4/3 150/4/3 149/4/3
f 153/1/3 149/1/3 152/1/3
f 154/4/3 150/4/3 153/4/3
f 161/2/3 156/2/3 155/2/3
f 164/1/3 163/1/3 162/1/3
f 165/1/3 163/1/3 164/1/3
f 166/2/3 161/2/3 160/2/3
f 167/2/3 156/2/3 161/2/3
f 167/2/3 161/2/3 166/2/3
f 168/1/3 159/1/3 158/1/3
f 168/2/3 156/2/3 167/2/3
f 168/1/3 157/1/3 156/1/3
f 168/1/3 158/1/3 157/1/3
f 169/1/3 159/1/3 168/1/3
f 170/1/3 159/1/3 169/1/3
f 171/1/3 159/1/3 170/1/3
f 176/1/3 173/1/3 172/1/3
f 177/1/3 173/1/3 176/1/3
f 178/1/3 175/1/3 174/1/3
f 179/1/3 175/1/3 178/1/3
f 180/1/3 175/1/3 179/1/3
f 183/1/3 182/1/3 181/1/3
f 184/1/3 182/1/3 183/1/3
f 190/1/3 186/1/3 185/1/3
f 191/1/3 186/1/3 190/1/3
f 192/1/3 189/1/3 188/1/3
f 192/1/3 188/1/3 187/1/3
f 193/1/3 189/1/3 192/1/3
f 194/4/4 195/4/4 200/4/4
f 200/4/4 195/4/4 201/4/4
f 196/4/4 197/4/4 202/4/4
f 197/5/4 198/5/4 203/5/4
f 202/4/4 197/4/4 203/4/4
f 203/5/4 198/5/4 204/5/4
f 199/1/4 200/1/4 205/1/4
f 205/1/4 200/1/4 206/1/4
f 207/4/4 208/4/4 212/4/4
f 212/4/4 208/4/4 213/4/4
f 209/4/4 210/4/4 214/4/4
f 210/5/4 211/5/4 215/5/4
f 214/4/4 210/4/4 215/4/4
f 215/5/4 211/5/4 216/5/4
f 217/1/4 218/1/4 222/1/4
f 222/1/4 218/1/4 223/1/4
f 223/1/4 218/1/4 224/1/4
f 219/1/4 220/1/4 225/1/4
f 225/1/4 220/1/4 226/1/4
f 226/1/4 220/1/4 227/1/4
f 221/2/4 222/2/4 229/2/4
f 222/2/4 223/2/4 229/2/4
f 228/1/4 229/1/4 230/1/4
f 229/2/4 223/2/4 231/2/4
f 230/1/4 229/1/4 231/1/4
f 231/2/4 223/2/4 232/2/4
f 223/1/4 224/1/4 233/1/4
f 232/2/4 223/2/4 233/2/4
f 225/1/4 226/1/4 233/1/4
f 224/1/4 225/1/4 233/1/4
f 233/1/4 226/1/4 234/1/4
f 234/1/4 226/1/4 235/1/4
f 235/1/4 226/1/4 236/1/4
f 232/1/4 233/1/4 238/1/4
f 233/1/4 234/1/4 238/1/4
f 238/1/4 234/1/4 239/1/4
f 236/1/4 237/1/4 240/1/4
f 235/1/4 236/1/4 240/1/4
f 240/1/4 237/1/4 241/1/4
f 244/1/5 243/1/5 242/1/5
f 245/1/5 243/1/5 244/1/5
f 248/1/5 247/1/5 246/1/5
f 249/1/5 247/1/5 248/1/5
f 254/4/5 251/4/5 250/4/5
f 255/4/5 251/4/5 254/4/5
f 257/4/5 253/4/5 252/4/5
f 258/4/5 253/4/5 257/4/5
f 259/2/5 256/2/5 255/2/5
f 259/2/5 257/2/5 256/2/5
f 260/2/5 257/2/5 259/2/5
f 261/2/5 259/2/5 255/2/5
f 262/2/5 259/2/5 261/2/5
f 267/1/5 264/1/5 263/1/5
f 268/1/5 264/1/5 267/1/5
f 269/1/5 266/1/5 265/1/5
f 270/1/5 266/1/5 269/1/5
f 275/3/5 272/3/5 271/3/5
f 276/3/5 272/3/5 275/3/5
f 277/3/5 274/3/5 273/3/5
f 278/3/5 274/3/5 277/3/5
f 279/5/5 276/5/5 275/5/5
f 280/5/5 276/5/5 279/5/5
f 281/5/5 278/5/5 277/5/5
f 282/5/5 278/5/5 281/5/5
f 287/1/5 284/1/5 283/1/5
f 288/1/5 284/1/5 287/1/5
f 289/1/5 286/1/5 285/1/5
f 290/1/5 286/1/5 289/1/5
f 291/1/6 292/1/6 293/1/6
f 293/1/6 292/1/6 294/1/6
f 295/1/6 296/1/6 297/1/6
f 297/1/6 296/1/6 298/1/6
f 299/1/6 300/1/6 301/1/6
f 301/1/6 300/1/6 302/1/6
f 303/1/6 304/1/6 307/1/6
f 307/1/6 304/1/6 308/1/6
f 305/1/6 306/1/6 309/1/6
f 309/1/6 306/1/6 310/1/6
f 311/1/6 312/1/6 315/1/6
f 315/1/6 312/1/6 316/1/6
f 313/1/6 314/1/6 317/1/6
f 317/1/6 314/1/6 318/1/6
f 319/3/6 320/3/6 323/3/6
f 323/3/6 320/3/6 324/3/6
f 321/3/6 322/3/6 325/3/6
f 325/3/6 322/3/6 326/3/6
f 323/5/6 324/5/6 327/5/6
f 327/5/6 324/5/6 328/5/6
f 325/5/6 326/5/6 329/5/6
f 329/5/6 326/5/6 330/5/6
f 331/1/6 332/1/6 333/1/6
f 333/1/6 332/1/6 334/1/6
f 333/1/6 334/1/6 335/1/6
f 335/1/6 334/1/6 336/1/6
f 337/1/6 338/1/6 341/1/6
f 341/1/6 338/1/6 342/1/6
f 339/1/6 340/1/6 343/1/6
f 343/1/6 340/1/6 344/1/6
