# MagicaVoxel @ Ephtracy

# group
o 

# material
mtllib dungeon_a_b_entrance_c.mtl
usemtl palette

# normals
vn -1 0 0
vn 1 0 0
vn 0 0 1
vn 0 0 -1
vn 0 -1 0
vn 0 1 0

# texcoords
vt 0.791016 0.5
vt 0.970703 0.5

# verts
v -0.6 0 0.1
v -0.6 0 -0.2
v -0.6 1.6 0.1
v -0.6 1.6 -0.2
v 0.6 0 0.1
v 0.6 0 0
v 0.6 1.5 0.1
v 0.6 1.5 0
v -0.5 0 0.1
v -0.5 0 0
v -0.5 1.5 0.1
v -0.5 1.5 0
v 0.7 0 0.1
v 0.7 0 -0.2
v 0.7 1.6 0.1
v 0.7 1.6 -0.2
v -0.6 0 0.1
v -0.6 1.6 0.1
v -0.5 0 0.1
v -0.5 1.5 0.1
v 0.6 0 0.1
v 0.6 1.5 0.1
v 0.7 0 0.1
v 0.7 1.6 0.1
v -0.5 0 0
v -0.5 1.5 0
v -0.4 0 0
v -0.4 0.2 0
v -0.3 0.3 0
v -0.3 0.4 0
v -0.2 0.5 0
v -0.2 0.6 0
v -0.1 0.7 0
v -0.1 0.8 0
v 0.2 0.7 0
v 0.2 0.8 0
v 0.3 0.5 0
v 0.3 0.6 0
v 0.4 0.3 0
v 0.4 0.4 0
v 0.5 0 0
v 0.5 0.2 0
v 0.6 0 0
v 0.6 1.5 0
v -0.6 0 -0.2
v -0.6 1.6 -0.2
v 0.7 0 -0.2
v 0.7 1.6 -0.2
v -0.6 0 0.1
v -0.5 0 0.1
v 0.6 0 0.1
v 0.7 0 0.1
v -0.5 0 0
v -0.4 0 0
v 0.5 0 0
v 0.6 0 0
v -0.5 0 -0.1
v -0.4 0 -0.1
v 0.5 0 -0.1
v 0.6 0 -0.1
v -0.6 0 -0.2
v 0.7 0 -0.2
v -0.5 1.5 0.1
v 0.6 1.5 0.1
v -0.5 1.5 0
v 0.6 1.5 0
v -0.6 1.6 0.1
v 0.7 1.6 0.1
v -0.6 1.6 -0.2
v 0.7 1.6 -0.2

# faces
f 3/1/1 2/1/1 1/1/1
f 4/1/1 2/1/1 3/1/1
f 7/1/1 6/1/1 5/1/1
f 8/1/1 6/1/1 7/1/1
f 9/1/2 10/1/2 11/1/2
f 11/1/2 10/1/2 12/1/2
f 13/1/2 14/1/2 15/1/2
f 15/1/2 14/1/2 16/1/2
f 19/1/3 18/1/3 17/1/3
f 20/1/3 18/1/3 19/1/3
f 22/1/3 18/1/3 20/1/3
f 23/1/3 22/1/3 21/1/3
f 24/1/3 18/1/3 22/1/3
f 24/1/3 22/1/3 23/1/3
f 27/2/3 26/2/3 25/2/3
f 28/2/3 26/2/3 27/2/3
f 29/2/3 26/2/3 28/2/3
f 30/2/3 26/2/3 29/2/3
f 31/2/3 26/2/3 30/2/3
f 32/2/3 26/2/3 31/2/3
f 33/2/3 26/2/3 32/2/3
f 34/2/3 26/2/3 33/2/3
f 35/2/3 33/2/3 32/2/3
f 35/1/3 34/1/3 33/1/3
f 36/2/3 26/2/3 34/2/3
f 36/1/3 34/1/3 35/1/3
f 37/2/3 31/2/3 30/2/3
f 37/1/3 32/1/3 31/1/3
f 38/2/3 36/2/3 35/2/3
f 38/1/3 32/1/3 37/1/3
f 38/2/3 35/2/3 32/2/3
f 39/2/3 29/2/3 28/2/3
f 39/1/3 30/1/3 29/1/3
f 40/2/3 38/2/3 37/2/3
f 40/1/3 30/1/3 39/1/3
f 40/2/3 37/2/3 30/2/3
f 41/1/3 28/1/3 27/1/3
f 42/2/3 39/2/3 28/2/3
f 42/1/3 28/1/3 41/1/3
f 42/2/3 40/2/3 39/2/3
f 43/2/3 42/2/3 41/2/3
f 44/2/3 38/2/3 40/2/3
f 44/2/3 42/2/3 43/2/3
f 44/2/3 36/2/3 38/2/3
f 44/2/3 40/2/3 42/2/3
f 44/2/3 26/2/3 36/2/3
f 45/1/4 46/1/4 47/1/4
f 47/1/4 46/1/4 48/1/4
f 53/1/5 50/1/5 49/1/5
f 56/1/5 52/1/5 51/1/5
f 57/1/5 53/1/5 49/1/5
f 57/2/5 54/2/5 53/2/5
f 58/1/5 55/1/5 54/1/5
f 58/2/5 54/2/5 57/2/5
f 59/2/5 56/2/5 55/2/5
f 59/1/5 55/1/5 58/1/5
f 60/1/5 52/1/5 56/1/5
f 60/2/5 56/2/5 59/2/5
f 61/1/5 57/1/5 49/1/5
f 61/1/5 58/1/5 57/1/5
f 61/1/5 60/1/5 59/1/5
f 61/1/5 59/1/5 58/1/5
f 62/1/5 52/1/5 60/1/5
f 62/1/5 60/1/5 61/1/5
f 65/1/5 64/1/5 63/1/5
f 66/1/5 64/1/5 65/1/5
f 67/1/6 68/1/6 69/1/6
f 69/1/6 68/1/6 70/1/6
