# MagicaVoxel @ Ephtracy

# group
o 

# material
mtllib treasure_chest_b_locked.mtl
usemtl palette

# normals
vn -1 0 0
vn 1 0 0
vn 0 0 1
vn 0 0 -1
vn 0 -1 0
vn 0 1 0

# texcoords
vt 0.787109 0.5
vt 0.814453 0.5
vt 0.822266 0.5
vt 0.970703 0.5

# verts
v -0.4 0 0.3
v -0.4 0 -0.4
v -0.4 0.1 0.2
v -0.4 0.1 0.1
v -0.4 0.1 0
v -0.4 0.1 -0.1
v -0.4 0.1 -0.2
v -0.4 0.1 -0.3
v -0.4 0.4 0.2
v -0.4 0.4 0.1
v -0.4 0.4 0
v -0.4 0.4 -0.1
v -0.4 0.4 -0.2
v -0.4 0.4 -0.3
v -0.4 0.5 0.2
v -0.4 0.5 0.1
v -0.4 0.5 0
v -0.4 0.5 -0.1
v -0.4 0.5 -0.2
v -0.4 0.5 -0.3
v -0.4 0.6 0.3
v -0.4 0.6 0.2
v -0.4 0.6 0.1
v -0.4 0.6 -0.2
v -0.4 0.6 -0.3
v -0.4 0.6 -0.4
v -0.4 0.7 0.2
v -0.4 0.7 0.1
v -0.4 0.7 0
v -0.4 0.7 -0.1
v -0.4 0.7 -0.2
v -0.4 0.7 -0.3
v -0.4 0.8 0.1
v -0.4 0.8 -0.2
v 0.5 0 0.3
v 0.5 0 -0.4
v 0.5 0.1 0.2
v 0.5 0.1 0.1
v 0.5 0.1 0
v 0.5 0.1 -0.1
v 0.5 0.1 -0.2
v 0.5 0.1 -0.3
v 0.5 0.4 0.2
v 0.5 0.4 0.1
v 0.5 0.4 0
v 0.5 0.4 -0.1
v 0.5 0.4 -0.2
v 0.5 0.4 -0.3
v 0.5 0.5 0.2
v 0.5 0.5 0.1
v 0.5 0.5 0
v 0.5 0.5 -0.1
v 0.5 0.5 -0.2
v 0.5 0.5 -0.3
v 0.5 0.6 0.3
v 0.5 0.6 0.2
v 0.5 0.6 0.1
v 0.5 0.6 -0.2
v 0.5 0.6 -0.3
v 0.5 0.6 -0.4
v 0.5 0.7 0.2
v 0.5 0.7 0.1
v 0.5 0.7 0
v 0.5 0.7 -0.1
v 0.5 0.7 -0.2
v 0.5 0.7 -0.3
v 0.5 0.8 0.1
v 0.5 0.8 -0.2
v -0.4 0 0.3
v -0.4 0.6 0.3
v -0.3 0.1 0.3
v -0.3 0.4 0.3
v -0.3 0.5 0.3
v -0.3 0.6 0.3
v -0.2 0.1 0.3
v -0.2 0.4 0.3
v -0.2 0.5 0.3
v -0.2 0.6 0.3
v -0.1 0.1 0.3
v -0.1 0.2 0.3
v -0.1 0.4 0.3
v -0.1 0.5 0.3
v -0.1 0.6 0.3
v 0 0.1 0.3
v 0 0.2 0.3
v 0 0.3 0.3
v 0 0.4 0.3
v 0 0.5 0.3
v 0 0.6 0.3
v 0.1 0.1 0.3
v 0.1 0.2 0.3
v 0.1 0.3 0.3
v 0.1 0.4 0.3
v 0.1 0.5 0.3
v 0.1 0.6 0.3
v 0.2 0.1 0.3
v 0.2 0.2 0.3
v 0.2 0.4 0.3
v 0.2 0.5 0.3
v 0.2 0.6 0.3
v 0.3 0.1 0.3
v 0.3 0.4 0.3
v 0.3 0.5 0.3
v 0.3 0.6 0.3
v 0.4 0.1 0.3
v 0.4 0.4 0.3
v 0.4 0.5 0.3
v 0.4 0.6 0.3
v 0.5 0 0.3
v 0.5 0.6 0.3
v -0.4 0.6 0.2
v -0.4 0.7 0.2
v -0.3 0.6 0.2
v -0.3 0.7 0.2
v -0.2 0.6 0.2
v -0.2 0.7 0.2
v -0.1 0.6 0.2
v -0.1 0.7 0.2
v 0 0.6 0.2
v 0 0.7 0.2
v 0.1 0.6 0.2
v 0.1 0.7 0.2
v 0.2 0.6 0.2
v 0.2 0.7 0.2
v 0.3 0.6 0.2
v 0.3 0.7 0.2
v 0.4 0.6 0.2
v 0.4 0.7 0.2
v 0.5 0.6 0.2
v 0.5 0.7 0.2
v -0.4 0.7 0.1
v -0.4 0.8 0.1
v -0.3 0.7 0.1
v -0.3 0.8 0.1
v -0.2 0.7 0.1
v -0.2 0.8 0.1
v -0.1 0.7 0.1
v -0.1 0.8 0.1
v 0 0.7 0.1
v 0 0.8 0.1
v 0.1 0.7 0.1
v 0.1 0.8 0.1
v 0.2 0.7 0.1
v 0.2 0.8 0.1
v 0.3 0.7 0.1
v 0.3 0.8 0.1
v 0.4 0.7 0.1
v 0.4 0.8 0.1
v 0.5 0.7 0.1
v 0.5 0.8 0.1
v -0.4 0.7 -0.2
v -0.4 0.8 -0.2
v -0.3 0.7 -0.2
v -0.3 0.8 -0.2
v -0.2 0.7 -0.2
v -0.2 0.8 -0.2
v -0.1 0.7 -0.2
v -0.1 0.8 -0.2
v 0 0.7 -0.2
v 0 0.8 -0.2
v 0.1 0.7 -0.2
v 0.1 0.8 -0.2
v 0.2 0.7 -0.2
v 0.2 0.8 -0.2
v 0.3 0.7 -0.2
v 0.3 0.8 -0.2
v 0.4 0.7 -0.2
v 0.4 0.8 -0.2
v 0.5 0.7 -0.2
v 0.5 0.8 -0.2
v -0.4 0.6 -0.3
v -0.4 0.7 -0.3
v -0.3 0.6 -0.3
v -0.3 0.7 -0.3
v -0.2 0.6 -0.3
v -0.2 0.7 -0.3
v -0.1 0.6 -0.3
v -0.1 0.7 -0.3
v 0 0.6 -0.3
v 0 0.7 -0.3
v 0.1 0.6 -0.3
v 0.1 0.7 -0.3
v 0.2 0.6 -0.3
v 0.2 0.7 -0.3
v 0.3 0.6 -0.3
v 0.3 0.7 -0.3
v 0.4 0.6 -0.3
v 0.4 0.7 -0.3
v 0.5 0.6 -0.3
v 0.5 0.7 -0.3
v -0.4 0 -0.4
v -0.4 0.6 -0.4
v -0.3 0.1 -0.4
v -0.3 0.4 -0.4
v -0.3 0.5 -0.4
v -0.3 0.6 -0.4
v -0.2 0.1 -0.4
v -0.2 0.4 -0.4
v -0.2 0.5 -0.4
v -0.2 0.6 -0.4
v -0.1 0.1 -0.4
v -0.1 0.4 -0.4
v -0.1 0.5 -0.4
v -0.1 0.6 -0.4
v 0 0.1 -0.4
v 0 0.4 -0.4
v 0 0.5 -0.4
v 0 0.6 -0.4
v 0.1 0.1 -0.4
v 0.1 0.4 -0.4
v 0.1 0.5 -0.4
v 0.1 0.6 -0.4
v 0.2 0.1 -0.4
v 0.2 0.4 -0.4
v 0.2 0.5 -0.4
v 0.2 0.6 -0.4
v 0.3 0.1 -0.4
v 0.3 0.4 -0.4
v 0.3 0.5 -0.4
v 0.3 0.6 -0.4
v 0.4 0.1 -0.4
v 0.4 0.4 -0.4
v 0.4 0.5 -0.4
v 0.4 0.6 -0.4
v 0.5 0 -0.4
v 0.5 0.6 -0.4
v -0.4 0 0.3
v 0.5 0 0.3
v -0.4 0 -0.4
v 0.5 0 -0.4
v -0.4 0.6 0.3
v -0.3 0.6 0.3
v -0.2 0.6 0.3
v -0.1 0.6 0.3
v 0 0.6 0.3
v 0.1 0.6 0.3
v 0.2 0.6 0.3
v 0.3 0.6 0.3
v 0.4 0.6 0.3
v 0.5 0.6 0.3
v -0.4 0.6 0.2
v -0.3 0.6 0.2
v -0.2 0.6 0.2
v -0.1 0.6 0.2
v 0 0.6 0.2
v 0.1 0.6 0.2
v 0.2 0.6 0.2
v 0.3 0.6 0.2
v 0.4 0.6 0.2
v 0.5 0.6 0.2
v -0.4 0.6 -0.3
v -0.3 0.6 -0.3
v -0.2 0.6 -0.3
v -0.1 0.6 -0.3
v 0 0.6 -0.3
v 0.1 0.6 -0.3
v 0.2 0.6 -0.3
v 0.3 0.6 -0.3
v 0.4 0.6 -0.3
v 0.5 0.6 -0.3
v -0.4 0.6 -0.4
v -0.3 0.6 -0.4
v -0.2 0.6 -0.4
v -0.1 0.6 -0.4
v 0 0.6 -0.4
v 0.1 0.6 -0.4
v 0.2 0.6 -0.4
v 0.3 0.6 -0.4
v 0.4 0.6 -0.4
v 0.5 0.6 -0.4
v -0.4 0.7 0.2
v -0.3 0.7 0.2
v -0.2 0.7 0.2
v -0.1 0.7 0.2
v 0 0.7 0.2
v 0.1 0.7 0.2
v 0.2 0.7 0.2
v 0.3 0.7 0.2
v 0.4 0.7 0.2
v 0.5 0.7 0.2
v -0.4 0.7 0.1
v -0.3 0.7 0.1
v -0.2 0.7 0.1
v -0.1 0.7 0.1
v 0 0.7 0.1
v 0.1 0.7 0.1
v 0.2 0.7 0.1
v 0.3 0.7 0.1
v 0.4 0.7 0.1
v 0.5 0.7 0.1
v -0.4 0.7 -0.2
v -0.3 0.7 -0.2
v -0.2 0.7 -0.2
v -0.1 0.7 -0.2
v 0 0.7 -0.2
v 0.1 0.7 -0.2
v 0.2 0.7 -0.2
v 0.3 0.7 -0.2
v 0.4 0.7 -0.2
v 0.5 0.7 -0.2
v -0.4 0.7 -0.3
v -0.3 0.7 -0.3
v -0.2 0.7 -0.3
v -0.1 0.7 -0.3
v 0 0.7 -0.3
v 0.1 0.7 -0.3
v 0.2 0.7 -0.3
v 0.3 0.7 -0.3
v 0.4 0.7 -0.3
v 0.5 0.7 -0.3
v -0.4 0.8 0.1
v -0.3 0.8 0.1
v -0.2 0.8 0.1
v -0.1 0.8 0.1
v 0 0.8 0.1
v 0.1 0.8 0.1
v 0.2 0.8 0.1
v 0.3 0.8 0.1
v 0.4 0.8 0.1
v 0.5 0.8 0.1
v -0.4 0.8 -0.2
v -0.3 0.8 -0.2
v -0.2 0.8 -0.2
v -0.1 0.8 -0.2
v 0 0.8 -0.2
v 0.1 0.8 -0.2
v 0.2 0.8 -0.2
v 0.3 0.8 -0.2
v 0.4 0.8 -0.2
v 0.5 0.8 -0.2

# faces
f 3/2/1 2/2/1 1/2/1
f 4/2/1 2/2/1 3/2/1
f 5/2/1 2/2/1 4/2/1
f 6/2/1 2/2/1 5/2/1
f 7/2/1 2/2/1 6/2/1
f 8/2/1 2/2/1 7/2/1
f 9/2/1 3/2/1 1/2/1
f 9/1/1 4/1/1 3/1/1
f 10/3/1 5/3/1 4/3/1
f 10/1/1 4/1/1 9/1/1
f 11/1/1 6/1/1 5/1/1
f 11/3/1 5/3/1 10/3/1
f 12/3/1 7/3/1 6/3/1
f 12/1/1 6/1/1 11/1/1
f 13/1/1 8/1/1 7/1/1
f 13/3/1 7/3/1 12/3/1
f 14/2/1 2/2/1 8/2/1
f 14/1/1 8/1/1 13/1/1
f 15/2/1 13/2/1 12/2/1
f 15/2/1 12/2/1 11/2/1
f 15/2/1 14/2/1 13/2/1
f 15/2/1 11/2/1 10/2/1
f 15/2/1 10/2/1 9/2/1
f 15/2/1 9/2/1 1/2/1
f 16/2/1 14/2/1 15/2/1
f 17/2/1 14/2/1 16/2/1
f 18/2/1 14/2/1 17/2/1
f 19/2/1 14/2/1 18/2/1
f 20/2/1 2/2/1 14/2/1
f 20/2/1 14/2/1 19/2/1
f 21/2/1 15/2/1 1/2/1
f 22/1/1 16/1/1 15/1/1
f 22/2/1 15/2/1 21/2/1
f 23/3/1 17/3/1 16/3/1
f 23/1/1 16/1/1 22/1/1
f 24/3/1 19/3/1 18/3/1
f 24/1/1 20/1/1 19/1/1
f 25/2/1 2/2/1 20/2/1
f 25/1/1 20/1/1 24/1/1
f 26/2/1 2/2/1 25/2/1
f 27/2/1 23/2/1 22/2/1
f 28/3/1 17/3/1 23/3/1
f 28/2/1 23/2/1 27/2/1
f 29/1/1 18/1/1 17/1/1
f 29/3/1 17/3/1 28/3/1
f 30/3/1 24/3/1 18/3/1
f 30/1/1 18/1/1 29/1/1
f 31/2/1 25/2/1 24/2/1
f 31/3/1 24/3/1 30/3/1
f 32/2/1 25/2/1 31/2/1
f 33/2/1 29/2/1 28/2/1
f 33/2/1 31/2/1 30/2/1
f 33/2/1 30/2/1 29/2/1
f 34/2/1 31/2/1 33/2/1
f 35/2/2 36/2/2 37/2/2
f 37/2/2 36/2/2 38/2/2
f 38/2/2 36/2/2 39/2/2
f 39/2/2 36/2/2 40/2/2
f 40/2/2 36/2/2 41/2/2
f 41/2/2 36/2/2 42/2/2
f 35/2/2 37/2/2 43/2/2
f 37/1/2 38/1/2 43/1/2
f 38/3/2 39/3/2 44/3/2
f 43/1/2 38/1/2 44/1/2
f 39/1/2 40/1/2 45/1/2
f 44/3/2 39/3/2 45/3/2
f 40/3/2 41/3/2 46/3/2
f 45/1/2 40/1/2 46/1/2
f 41/1/2 42/1/2 47/1/2
f 46/3/2 41/3/2 47/3/2
f 42/2/2 36/2/2 48/2/2
f 47/1/2 42/1/2 48/1/2
f 46/2/2 47/2/2 49/2/2
f 45/2/2 46/2/2 49/2/2
f 47/2/2 48/2/2 49/2/2
f 44/2/2 45/2/2 49/2/2
f 43/2/2 44/2/2 49/2/2
f 35/2/2 43/2/2 49/2/2
f 49/2/2 48/2/2 50/2/2
f 50/2/2 48/2/2 51/2/2
f 51/2/2 48/2/2 52/2/2
f 52/2/2 48/2/2 53/2/2
f 48/2/2 36/2/2 54/2/2
f 53/2/2 48/2/2 54/2/2
f 35/2/2 49/2/2 55/2/2
f 49/1/2 50/1/2 56/1/2
f 55/2/2 49/2/2 56/2/2
f 50/3/2 51/3/2 57/3/2
f 56/1/2 50/1/2 57/1/2
f 52/3/2 53/3/2 58/3/2
f 53/1/2 54/1/2 58/1/2
f 54/2/2 36/2/2 59/2/2
f 58/1/2 54/1/2 59/1/2
f 59/2/2 36/2/2 60/2/2
f 56/2/2 57/2/2 61/2/2
f 57/3/2 51/3/2 62/3/2
f 61/2/2 57/2/2 62/2/2
f 51/1/2 52/1/2 63/1/2
f 62/3/2 51/3/2 63/3/2
f 52/3/2 58/3/2 64/3/2
f 63/1/2 52/1/2 64/1/2
f 58/2/2 59/2/2 65/2/2
f 64/3/2 58/3/2 65/3/2
f 65/2/2 59/2/2 66/2/2
f 62/2/2 63/2/2 67/2/2
f 64/2/2 65/2/2 67/2/2
f 63/2/2 64/2/2 67/2/2
f 67/2/2 65/2/2 68/2/2
f 71/2/3 70/2/3 69/2/3
f 72/2/3 70/2/3 71/2/3
f 73/2/3 70/2/3 72/2/3
f 74/2/3 70/2/3 73/2/3
f 75/2/3 71/2/3 69/2/3
f 75/1/3 72/1/3 71/1/3
f 76/2/3 73/2/3 72/2/3
f 76/1/3 72/1/3 75/1/3
f 77/1/3 74/1/3 73/1/3
f 77/2/3 73/2/3 76/2/3
f 78/1/3 74/1/3 77/1/3
f 79/3/3 76/3/3 75/3/3
f 79/2/3 75/2/3 69/2/3
f 80/3/3 76/3/3 79/3/3
f 81/2/3 77/2/3 76/2/3
f 81/3/3 76/3/3 80/3/3
f 82/3/3 78/3/3 77/3/3
f 82/2/3 77/2/3 81/2/3
f 83/3/3 78/3/3 82/3/3
f 84/1/3 80/1/3 79/1/3
f 84/2/3 79/2/3 69/2/3
f 85/2/3 81/2/3 80/2/3
f 85/1/3 80/1/3 84/1/3
f 85/2/3 82/2/3 81/2/3
f 86/2/3 82/2/3 85/2/3
f 87/2/3 82/2/3 86/2/3
f 88/1/3 83/1/3 82/1/3
f 88/2/3 82/2/3 87/2/3
f 89/1/3 83/1/3 88/1/3
f 90/2/3 84/2/3 69/2/3
f 90/3/3 85/3/3 84/3/3
f 91/2/3 86/2/3 85/2/3
f 91/3/3 85/3/3 90/3/3
f 92/4/3 87/4/3 86/4/3
f 92/2/3 86/2/3 91/2/3
f 93/2/3 88/2/3 87/2/3
f 93/4/3 87/4/3 92/4/3
f 94/3/3 89/3/3 88/3/3
f 94/2/3 88/2/3 93/2/3
f 95/3/3 89/3/3 94/3/3
f 96/1/3 91/1/3 90/1/3
f 96/2/3 90/2/3 69/2/3
f 97/2/3 93/2/3 92/2/3
f 97/1/3 91/1/3 96/1/3
f 97/2/3 92/2/3 91/2/3
f 97/2/3 94/2/3 93/2/3
f 98/2/3 94/2/3 97/2/3
f 99/1/3 95/1/3 94/1/3
f 99/2/3 94/2/3 98/2/3
f 100/1/3 95/1/3 99/1/3
f 101/2/3 96/2/3 69/2/3
f 101/3/3 98/3/3 97/3/3
f 101/3/3 97/3/3 96/3/3
f 102/2/3 99/2/3 98/2/3
f 102/3/3 98/3/3 101/3/3
f 103/3/3 100/3/3 99/3/3
f 103/2/3 99/2/3 102/2/3
f 104/3/3 100/3/3 103/3/3
f 105/1/3 102/1/3 101/1/3
f 105/2/3 101/2/3 69/2/3
f 106/2/3 103/2/3 102/2/3
f 106/1/3 102/1/3 105/1/3
f 107/1/3 104/1/3 103/1/3
f 107/2/3 103/2/3 106/2/3
f 108/1/3 104/1/3 107/1/3
f 109/2/3 106/2/3 105/2/3
f 109/2/3 105/2/3 69/2/3
f 109/2/3 108/2/3 107/2/3
f 109/2/3 107/2/3 106/2/3
f 110/2/3 108/2/3 109/2/3
f 113/2/3 112/2/3 111/2/3
f 114/2/3 112/2/3 113/2/3
f 115/1/3 114/1/3 113/1/3
f 116/1/3 114/1/3 115/1/3
f 117/3/3 116/3/3 115/3/3
f 118/3/3 116/3/3 117/3/3
f 119/1/3 118/1/3 117/1/3
f 120/1/3 118/1/3 119/1/3
f 121/3/3 120/3/3 119/3/3
f 122/3/3 120/3/3 121/3/3
f 123/1/3 122/1/3 121/1/3
f 124/1/3 122/1/3 123/1/3
f 125/3/3 124/3/3 123/3/3
f 126/3/3 124/3/3 125/3/3
f 127/1/3 126/1/3 125/1/3
f 128/1/3 126/1/3 127/1/3
f 129/2/3 128/2/3 127/2/3
f 130/2/3 128/2/3 129/2/3
f 133/2/3 132/2/3 131/2/3
f 134/2/3 132/2/3 133/2/3
f 135/1/3 134/1/3 133/1/3
f 136/1/3 134/1/3 135/1/3
f 137/3/3 136/3/3 135/3/3
f 138/3/3 136/3/3 137/3/3
f 139/1/3 138/1/3 137/1/3
f 140/1/3 138/1/3 139/1/3
f 141/3/3 140/3/3 139/3/3
f 142/3/3 140/3/3 141/3/3
f 143/1/3 142/1/3 141/1/3
f 144/1/3 142/1/3 143/1/3
f 145/3/3 144/3/3 143/3/3
f 146/3/3 144/3/3 145/3/3
f 147/1/3 146/1/3 145/1/3
f 148/1/3 146/1/3 147/1/3
f 149/2/3 148/2/3 147/2/3
f 150/2/3 148/2/3 149/2/3
f 151/2/4 152/2/4 153/2/4
f 153/2/4 152/2/4 154/2/4
f 153/1/4 154/1/4 155/1/4
f 155/1/4 154/1/4 156/1/4
f 155/3/4 156/3/4 157/3/4
f 157/3/4 156/3/4 158/3/4
f 157/1/4 158/1/4 159/1/4
f 159/1/4 158/1/4 160/1/4
f 159/3/4 160/3/4 161/3/4
f 161/3/4 160/3/4 162/3/4
f 161/1/4 162/1/4 163/1/4
f 163/1/4 162/1/4 164/1/4
f 163/3/4 164/3/4 165/3/4
f 165/3/4 164/3/4 166/3/4
f 165/1/4 166/1/4 167/1/4
f 167/1/4 166/1/4 168/1/4
f 167/2/4 168/2/4 169/2/4
f 169/2/4 168/2/4 170/2/4
f 171/2/4 172/2/4 173/2/4
f 173/2/4 172/2/4 174/2/4
f 173/1/4 174/1/4 175/1/4
f 175/1/4 174/1/4 176/1/4
f 175/3/4 176/3/4 177/3/4
f 177/3/4 176/3/4 178/3/4
f 177/1/4 178/1/4 179/1/4
f 179/1/4 178/1/4 180/1/4
f 179/3/4 180/3/4 181/3/4
f 181/3/4 180/3/4 182/3/4
f 181/1/4 182/1/4 183/1/4
f 183/1/4 182/1/4 184/1/4
f 183/3/4 184/3/4 185/3/4
f 185/3/4 184/3/4 186/3/4
f 185/1/4 186/1/4 187/1/4
f 187/1/4 186/1/4 188/1/4
f 187/2/4 188/2/4 189/2/4
f 189/2/4 188/2/4 190/2/4
f 191/2/4 192/2/4 193/2/4
f 193/2/4 192/2/4 194/2/4
f 194/2/4 192/2/4 195/2/4
f 195/2/4 192/2/4 196/2/4
f 191/2/4 193/2/4 197/2/4
f 193/1/4 194/1/4 197/1/4
f 194/2/4 195/2/4 198/2/4
f 197/1/4 194/1/4 198/1/4
f 195/1/4 196/1/4 199/1/4
f 198/2/4 195/2/4 199/2/4
f 199/1/4 196/1/4 200/1/4
f 197/3/4 198/3/4 201/3/4
f 191/2/4 197/2/4 201/2/4
f 198/2/4 199/2/4 202/2/4
f 201/3/4 198/3/4 202/3/4
f 199/3/4 200/3/4 203/3/4
f 202/2/4 199/2/4 203/2/4
f 203/3/4 200/3/4 204/3/4
f 201/1/4 202/1/4 205/1/4
f 191/2/4 201/2/4 205/2/4
f 202/2/4 203/2/4 206/2/4
f 205/1/4 202/1/4 206/1/4
f 203/1/4 204/1/4 207/1/4
f 206/2/4 203/2/4 207/2/4
f 207/1/4 204/1/4 208/1/4
f 205/3/4 206/3/4 209/3/4
f 191/2/4 205/2/4 209/2/4
f 206/2/4 207/2/4 210/2/4
f 209/3/4 206/3/4 210/3/4
f 207/3/4 208/3/4 211/3/4
f 210/2/4 207/2/4 211/2/4
f 211/3/4 208/3/4 212/3/4
f 209/1/4 210/1/4 213/1/4
f 191/2/4 209/2/4 213/2/4
f 210/2/4 211/2/4 214/2/4
f 213/1/4 210/1/4 214/1/4
f 211/1/4 212/1/4 215/1/4
f 214/2/4 211/2/4 215/2/4
f 215/1/4 212/1/4 216/1/4
f 213/3/4 214/3/4 217/3/4
f 191/2/4 213/2/4 217/2/4
f 214/2/4 215/2/4 218/2/4
f 217/3/4 214/3/4 218/3/4
f 215/3/4 216/3/4 219/3/4
f 218/2/4 215/2/4 219/2/4
f 219/3/4 216/3/4 220/3/4
f 217/1/4 218/1/4 221/1/4
f 191/2/4 217/2/4 221/2/4
f 218/2/4 219/2/4 222/2/4
f 221/1/4 218/1/4 222/1/4
f 219/1/4 220/1/4 223/1/4
f 222/2/4 219/2/4 223/2/4
f 223/1/4 220/1/4 224/1/4
f 221/2/4 222/2/4 225/2/4
f 191/2/4 221/2/4 225/2/4
f 223/2/4 224/2/4 225/2/4
f 222/2/4 223/2/4 225/2/4
f 225/2/4 224/2/4 226/2/4
f 229/2/5 228/2/5 227/2/5
f 230/2/5 228/2/5 229/2/5
f 231/2/6 232/2/6 241/2/6
f 232/1/6 233/1/6 242/1/6
f 241/2/6 232/2/6 242/2/6
f 233/3/6 234/3/6 243/3/6
f 242/1/6 233/1/6 243/1/6
f 234/1/6 235/1/6 244/1/6
f 243/3/6 234/3/6 244/3/6
f 235/3/6 236/3/6 245/3/6
f 244/1/6 235/1/6 245/1/6
f 236/1/6 237/1/6 246/1/6
f 245/3/6 236/3/6 246/3/6
f 237/3/6 238/3/6 247/3/6
f 246/1/6 237/1/6 247/1/6
f 238/1/6 239/1/6 248/1/6
f 247/3/6 238/3/6 248/3/6
f 239/2/6 240/2/6 249/2/6
f 248/1/6 239/1/6 249/1/6
f 249/2/6 240/2/6 250/2/6
f 251/2/6 252/2/6 261/2/6
f 252/1/6 253/1/6 262/1/6
f 261/2/6 252/2/6 262/2/6
f 253/3/6 254/3/6 263/3/6
f 262/1/6 253/1/6 263/1/6
f 254/1/6 255/1/6 264/1/6
f 263/3/6 254/3/6 264/3/6
f 255/3/6 256/3/6 265/3/6
f 264/1/6 255/1/6 265/1/6
f 256/1/6 257/1/6 266/1/6
f 265/3/6 256/3/6 266/3/6
f 257/3/6 258/3/6 267/3/6
f 266/1/6 257/1/6 267/1/6
f 258/1/6 259/1/6 268/1/6
f 267/3/6 258/3/6 268/3/6
f 259/2/6 260/2/6 269/2/6
f 268/1/6 259/1/6 269/1/6
f 269/2/6 260/2/6 270/2/6
f 271/2/6 272/2/6 281/2/6
f 272/1/6 273/1/6 282/1/6
f 281/2/6 272/2/6 282/2/6
f 273/3/6 274/3/6 283/3/6
f 282/1/6 273/1/6 283/1/6
f 274/1/6 275/1/6 284/1/6
f 283/3/6 274/3/6 284/3/6
f 275/3/6 276/3/6 285/3/6
f 284/1/6 275/1/6 285/1/6
f 276/1/6 277/1/6 286/1/6
f 285/3/6 276/3/6 286/3/6
f 277/3/6 278/3/6 287/3/6
f 286/1/6 277/1/6 287/1/6
f 278/1/6 279/1/6 288/1/6
f 287/3/6 278/3/6 288/3/6
f 279/2/6 280/2/6 289/2/6
f 288/1/6 279/1/6 289/1/6
f 289/2/6 280/2/6 290/2/6
f 291/2/6 292/2/6 301/2/6
f 292/1/6 293/1/6 302/1/6
f 301/2/6 292/2/6 302/2/6
f 293/3/6 294/3/6 303/3/6
f 302/1/6 293/1/6 303/1/6
f 294/1/6 295/1/6 304/1/6
f 303/3/6 294/3/6 304/3/6
f 295/3/6 296/3/6 305/3/6
f 304/1/6 295/1/6 305/1/6
f 296/1/6 297/1/6 306/1/6
f 305/3/6 296/3/6 306/3/6
f 297/3/6 298/3/6 307/3/6
f 306/1/6 297/1/6 307/1/6
f 298/1/6 299/1/6 308/1/6
f 307/3/6 298/3/6 308/3/6
f 299/2/6 300/2/6 309/2/6
f 308/1/6 299/1/6 309/1/6
f 309/2/6 300/2/6 310/2/6
f 311/2/6 312/2/6 321/2/6
f 312/1/6 313/1/6 322/1/6
f 321/2/6 312/2/6 322/2/6
f 313/3/6 314/3/6 323/3/6
f 322/1/6 313/1/6 323/1/6
f 314/1/6 315/1/6 324/1/6
f 323/3/6 314/3/6 324/3/6
f 315/3/6 316/3/6 325/3/6
f 324/1/6 315/1/6 325/1/6
f 316/1/6 317/1/6 326/1/6
f 325/3/6 316/3/6 326/3/6
f 317/3/6 318/3/6 327/3/6
f 326/1/6 317/1/6 327/1/6
f 318/1/6 319/1/6 328/1/6
f 327/3/6 318/3/6 328/3/6
f 319/2/6 320/2/6 329/2/6
f 328/1/6 319/1/6 329/1/6
f 329/2/6 320/2/6 330/2/6
