# MagicaVoxel @ Ephtracy

# group
o 

# material
mtllib wolf.mtl
usemtl palette

# normals
vn -1 0 0
vn 1 0 0
vn 0 0 1
vn 0 0 -1
vn 0 -1 0
vn 0 1 0

# texcoords
vt 0.814453 0.5
vt 0.943359 0.5
vt 0.947266 0.5

# verts
v -0.2 0 0.4
v -0.2 0 0.3
v -0.2 0.1 0.4
v -0.2 0.1 0.3
v -0.2 0.1 0.2
v -0.2 0.2 0.4
v -0.2 0.2 0.3
v -0.2 0.2 0.2
v -0.2 0.2 -0.1
v -0.2 0.6 0.4
v -0.2 0.6 -0.1
v -0.1 0 -0.2
v -0.1 0 -0.3
v -0.1 0.1 -0.2
v -0.1 0.1 -0.3
v -0.1 0.1 -0.4
v -0.1 0.2 -0.1
v -0.1 0.2 -0.3
v -0.1 0.3 0.5
v -0.1 0.3 0.4
v -0.1 0.5 0.7
v -0.1 0.5 0.6
v -0.1 0.5 -0.1
v -0.1 0.5 -0.4
v -0.1 0.6 0.7
v -0.1 0.6 0.6
v -0.1 0.6 0.5
v -0.1 0.6 0.4
v -0.1 0.6 0.3
v -0.1 0.8 0.7
v -0.1 0.8 0.4
v -0.1 0.9 0.4
v -0.1 0.9 0.3
v 2.98023e-08 0.4 -0.4
v 2.98023e-08 0.4 -0.5
v 2.98023e-08 0.5 -0.3
v 2.98023e-08 0.5 -0.4
v 2.98023e-08 0.5 -0.5
v 2.98023e-08 0.5 -0.7
v 2.98023e-08 0.6 -0.3
v 2.98023e-08 0.6 -0.5
v 2.98023e-08 0.6 -0.7
v 2.98023e-08 0.6 -0.8
v 2.98023e-08 0.7 -0.5
v 2.98023e-08 0.7 -0.6
v 2.98023e-08 0.8 -0.6
v 2.98023e-08 0.8 -0.8
v 0.1 0 -0.2
v 0.1 0 -0.3
v 0.1 0.1 -0.2
v 0.1 0.1 -0.3
v 0.1 0.1 -0.4
v 0.1 0.2 -0.3
v 0.1 0.2 -0.4
v 0.1 0.5 0.7
v 0.1 0.5 0.6
v 0.1 0.6 0.7
v 0.1 0.6 0.6
v 0.1 0.8 0.4
v 0.1 0.8 0.3
v 0.1 0.9 0.4
v 0.1 0.9 0.3
v 0.2 0 0.4
v 0.2 0 0.3
v 0.2 0.1 0.4
v 0.2 0.1 0.3
v 0.2 0.1 0.2
v 0.2 0.2 0.3
v 0.2 0.2 0.2
v -0.1 0 0.4
v -0.1 0 0.3
v -0.1 0.1 0.4
v -0.1 0.1 0.3
v -0.1 0.1 0.2
v -0.1 0.2 0.3
v -0.1 0.2 0.2
v 2.98023e-08 0 -0.2
v 2.98023e-08 0 -0.3
v 2.98023e-08 0.1 -0.2
v 2.98023e-08 0.1 -0.3
v 2.98023e-08 0.1 -0.4
v 2.98023e-08 0.2 -0.3
v 2.98023e-08 0.2 -0.4
v 2.98023e-08 0.5 0.7
v 2.98023e-08 0.5 0.6
v 2.98023e-08 0.6 0.7
v 2.98023e-08 0.6 0.6
v 2.98023e-08 0.8 0.4
v 2.98023e-08 0.8 0.3
v 2.98023e-08 0.9 0.4
v 2.98023e-08 0.9 0.3
v 0.1 0.4 -0.4
v 0.1 0.4 -0.5
v 0.1 0.5 -0.3
v 0.1 0.5 -0.4
v 0.1 0.5 -0.5
v 0.1 0.5 -0.7
v 0.1 0.6 -0.3
v 0.1 0.6 -0.5
v 0.1 0.6 -0.7
v 0.1 0.6 -0.8
v 0.1 0.7 -0.5
v 0.1 0.7 -0.6
v 0.1 0.8 -0.6
v 0.1 0.8 -0.8
v 0.2 0 -0.2
v 0.2 0 -0.3
v 0.2 0.1 -0.2
v 0.2 0.1 -0.3
v 0.2 0.1 -0.4
v 0.2 0.2 -0.1
v 0.2 0.2 -0.3
v 0.2 0.3 0.5
v 0.2 0.3 0.4
v 0.2 0.5 0.7
v 0.2 0.5 0.6
v 0.2 0.5 -0.1
v 0.2 0.5 -0.4
v 0.2 0.6 0.7
v 0.2 0.6 0.6
v 0.2 0.6 0.5
v 0.2 0.6 0.4
v 0.2 0.6 0.3
v 0.2 0.8 0.7
v 0.2 0.8 0.4
v 0.2 0.9 0.4
v 0.2 0.9 0.3
v 0.3 0 0.4
v 0.3 0 0.3
v 0.3 0.1 0.4
v 0.3 0.1 0.3
v 0.3 0.1 0.2
v 0.3 0.2 0.4
v 0.3 0.2 0.3
v 0.3 0.2 0.2
v 0.3 0.2 -0.1
v 0.3 0.6 0.4
v 0.3 0.6 -0.1
v -0.1 0.5 0.7
v -0.1 0.6 0.7
v -0.1 0.8 0.7
v 2.98023e-08 0.5 0.7
v 2.98023e-08 0.6 0.7
v 2.98023e-08 0.7 0.7
v 2.98023e-08 0.8 0.7
v 0.1 0.5 0.7
v 0.1 0.6 0.7
v 0.1 0.7 0.7
v 0.1 0.8 0.7
v 0.2 0.5 0.7
v 0.2 0.6 0.7
v 0.2 0.8 0.7
v -0.1 0.3 0.5
v -0.1 0.6 0.5
v 0.2 0.3 0.5
v 0.2 0.6 0.5
v -0.2 0 0.4
v -0.2 0.1 0.4
v -0.2 0.2 0.4
v -0.2 0.6 0.4
v -0.1 0 0.4
v -0.1 0.1 0.4
v -0.1 0.3 0.4
v -0.1 0.6 0.4
v -0.1 0.8 0.4
v -0.1 0.9 0.4
v 2.98023e-08 0.8 0.4
v 2.98023e-08 0.9 0.4
v 0.1 0.8 0.4
v 0.1 0.9 0.4
v 0.2 0 0.4
v 0.2 0.1 0.4
v 0.2 0.3 0.4
v 0.2 0.6 0.4
v 0.2 0.8 0.4
v 0.2 0.9 0.4
v 0.3 0 0.4
v 0.3 0.1 0.4
v 0.3 0.2 0.4
v 0.3 0.6 0.4
v -0.2 0.1 0.3
v -0.2 0.2 0.3
v -0.1 0.1 0.3
v -0.1 0.2 0.3
v 0.2 0.1 0.3
v 0.2 0.2 0.3
v 0.3 0.1 0.3
v 0.3 0.2 0.3
v -0.1 0 -0.2
v -0.1 0.1 -0.2
v 2.98023e-08 0 -0.2
v 2.98023e-08 0.1 -0.2
v 0.1 0 -0.2
v 0.1 0.1 -0.2
v 0.2 0 -0.2
v 0.2 0.1 -0.2
v -0.1 0.1 -0.3
v -0.1 0.2 -0.3
v 2.98023e-08 0.1 -0.3
v 2.98023e-08 0.2 -0.3
v 2.98023e-08 0.5 -0.3
v 2.98023e-08 0.6 -0.3
v 0.1 0.1 -0.3
v 0.1 0.2 -0.3
v 0.1 0.5 -0.3
v 0.1 0.6 -0.3
v 0.2 0.1 -0.3
v 0.2 0.2 -0.3
v 2.98023e-08 0.6 -0.5
v 2.98023e-08 0.7 -0.5
v 0.1 0.6 -0.5
v 0.1 0.7 -0.5
v 2.98023e-08 0.7 -0.6
v 2.98023e-08 0.8 -0.6
v 0.1 0.7 -0.6
v 0.1 0.8 -0.6
v -0.1 0.5 0.6
v -0.1 0.6 0.6
v 2.98023e-08 0.5 0.6
v 2.98023e-08 0.6 0.6
v 0.1 0.5 0.6
v 0.1 0.6 0.6
v 0.2 0.5 0.6
v 0.2 0.6 0.6
v -0.2 0 0.3
v -0.2 0.1 0.3
v -0.1 0 0.3
v -0.1 0.1 0.3
v -0.1 0.6 0.3
v -0.1 0.9 0.3
v 2.98023e-08 0.8 0.3
v 2.98023e-08 0.9 0.3
v 0.1 0.8 0.3
v 0.1 0.9 0.3
v 0.2 0 0.3
v 0.2 0.1 0.3
v 0.2 0.6 0.3
v 0.2 0.9 0.3
v 0.3 0 0.3
v 0.3 0.1 0.3
v -0.2 0.1 0.2
v -0.2 0.2 0.2
v -0.1 0.1 0.2
v -0.1 0.2 0.2
v 0.2 0.1 0.2
v 0.2 0.2 0.2
v 0.3 0.1 0.2
v 0.3 0.2 0.2
v -0.2 0.2 -0.1
v -0.2 0.6 -0.1
v -0.1 0.2 -0.1
v -0.1 0.5 -0.1
v 0.2 0.2 -0.1
v 0.2 0.5 -0.1
v 0.3 0.2 -0.1
v 0.3 0.6 -0.1
v -0.1 0 -0.3
v -0.1 0.1 -0.3
v 2.98023e-08 0 -0.3
v 2.98023e-08 0.1 -0.3
v 0.1 0 -0.3
v 0.1 0.1 -0.3
v 0.2 0 -0.3
v 0.2 0.1 -0.3
v -0.1 0.1 -0.4
v -0.1 0.5 -0.4
v 2.98023e-08 0.1 -0.4
v 2.98023e-08 0.2 -0.4
v 2.98023e-08 0.4 -0.4
v 2.98023e-08 0.5 -0.4
v 0.1 0.1 -0.4
v 0.1 0.2 -0.4
v 0.1 0.4 -0.4
v 0.1 0.5 -0.4
v 0.2 0.1 -0.4
v 0.2 0.5 -0.4
v 2.98023e-08 0.4 -0.5
v 2.98023e-08 0.5 -0.5
v 0.1 0.4 -0.5
v 0.1 0.5 -0.5
v 2.98023e-08 0.5 -0.7
v 2.98023e-08 0.6 -0.7
v 0.1 0.5 -0.7
v 0.1 0.6 -0.7
v 2.98023e-08 0.6 -0.8
v 2.98023e-08 0.8 -0.8
v 0.1 0.6 -0.8
v 0.1 0.8 -0.8
v -0.2 0 0.4
v -0.1 0 0.4
v 0.2 0 0.4
v 0.3 0 0.4
v -0.2 0 0.3
v -0.1 0 0.3
v 0.2 0 0.3
v 0.3 0 0.3
v -0.1 0 -0.2
v 2.98023e-08 0 -0.2
v 0.1 0 -0.2
v 0.2 0 -0.2
v -0.1 0 -0.3
v 2.98023e-08 0 -0.3
v 0.1 0 -0.3
v 0.2 0 -0.3
v -0.2 0.1 0.3
v -0.1 0.1 0.3
v 0.2 0.1 0.3
v 0.3 0.1 0.3
v -0.2 0.1 0.2
v -0.1 0.1 0.2
v 0.2 0.1 0.2
v 0.3 0.1 0.2
v -0.1 0.1 -0.3
v 2.98023e-08 0.1 -0.3
v 0.1 0.1 -0.3
v 0.2 0.1 -0.3
v -0.1 0.1 -0.4
v 2.98023e-08 0.1 -0.4
v 0.1 0.1 -0.4
v 0.2 0.1 -0.4
v -0.2 0.2 0.4
v 0.3 0.2 0.4
v -0.2 0.2 0.3
v -0.1 0.2 0.3
v 0.2 0.2 0.3
v 0.3 0.2 0.3
v -0.2 0.2 0.2
v -0.1 0.2 0.2
v 0.2 0.2 0.2
v 0.3 0.2 0.2
v -0.2 0.2 -0.1
v -0.1 0.2 -0.1
v 0.2 0.2 -0.1
v 0.3 0.2 -0.1
v -0.1 0.2 -0.3
v 2.98023e-08 0.2 -0.3
v 0.1 0.2 -0.3
v 0.2 0.2 -0.3
v 2.98023e-08 0.2 -0.4
v 0.1 0.2 -0.4
v -0.1 0.3 0.5
v 0.2 0.3 0.5
v -0.1 0.3 0.4
v 0.2 0.3 0.4
v 2.98023e-08 0.4 -0.4
v 0.1 0.4 -0.4
v 2.98023e-08 0.4 -0.5
v 0.1 0.4 -0.5
v -0.1 0.5 0.7
v 2.98023e-08 0.5 0.7
v 0.1 0.5 0.7
v 0.2 0.5 0.7
v -0.1 0.5 0.6
v 2.98023e-08 0.5 0.6
v 0.1 0.5 0.6
v 0.2 0.5 0.6
v 2.98023e-08 0.5 -0.5
v 0.1 0.5 -0.5
v 2.98023e-08 0.5 -0.7
v 0.1 0.5 -0.7
v 2.98023e-08 0.6 0.7
v 0.1 0.6 0.7
v -0.1 0.6 0.6
v 2.98023e-08 0.6 0.6
v 0.1 0.6 0.6
v 0.2 0.6 0.6
v -0.1 0.6 0.5
v 0.2 0.6 0.5
v 2.98023e-08 0.6 -0.7
v 0.1 0.6 -0.7
v 2.98023e-08 0.6 -0.8
v 0.1 0.6 -0.8
v -0.2 0.1 0.4
v -0.1 0.1 0.4
v 0.2 0.1 0.4
v 0.3 0.1 0.4
v -0.2 0.1 0.3
v -0.1 0.1 0.3
v 0.2 0.1 0.3
v 0.3 0.1 0.3
v -0.1 0.1 -0.2
v 2.98023e-08 0.1 -0.2
v 0.1 0.1 -0.2
v 0.2 0.1 -0.2
v -0.1 0.1 -0.3
v 2.98023e-08 0.1 -0.3
v 0.1 0.1 -0.3
v 0.2 0.1 -0.3
v -0.1 0.5 -0.1
v 0.2 0.5 -0.1
v 2.98023e-08 0.5 -0.3
v 0.1 0.5 -0.3
v -0.1 0.5 -0.4
v 2.98023e-08 0.5 -0.4
v 0.1 0.5 -0.4
v 0.2 0.5 -0.4
v -0.2 0.6 0.4
v -0.1 0.6 0.4
v 0.2 0.6 0.4
v 0.3 0.6 0.4
v -0.1 0.6 0.3
v 0.2 0.6 0.3
v -0.2 0.6 -0.1
v 0.3 0.6 -0.1
v 2.98023e-08 0.6 -0.3
v 0.1 0.6 -0.3
v 2.98023e-08 0.6 -0.5
v 0.1 0.6 -0.5
v 2.98023e-08 0.7 -0.5
v 0.1 0.7 -0.5
v 2.98023e-08 0.7 -0.6
v 0.1 0.7 -0.6
v -0.1 0.8 0.7
v 2.98023e-08 0.8 0.7
v 0.1 0.8 0.7
v 0.2 0.8 0.7
v 2.98023e-08 0.8 0.6
v 0.1 0.8 0.6
v -0.1 0.8 0.4
v 2.98023e-08 0.8 0.4
v 0.1 0.8 0.4
v 0.2 0.8 0.4
v 2.98023e-08 0.8 0.3
v 0.1 0.8 0.3
v 2.98023e-08 0.8 -0.6
v 0.1 0.8 -0.6
v 2.98023e-08 0.8 -0.8
v 0.1 0.8 -0.8
v -0.1 0.9 0.4
v 2.98023e-08 0.9 0.4
v 0.1 0.9 0.4
v 0.2 0.9 0.4
v -0.1 0.9 0.3
v 2.98023e-08 0.9 0.3
v 0.1 0.9 0.3
v 0.2 0.9 0.3

# faces
f 3/2/1 2/2/1 1/2/1
f 4/2/1 2/2/1 3/2/1
f 7/2/1 5/2/1 4/2/1
f 8/2/1 5/2/1 7/2/1
f 10/2/1 7/2/1 6/2/1
f 10/2/1 9/2/1 8/2/1
f 10/2/1 8/2/1 7/2/1
f 11/2/1 9/2/1 10/2/1
f 14/2/1 13/2/1 12/2/1
f 15/2/1 13/2/1 14/2/1
f 18/2/1 16/2/1 15/2/1
f 23/2/1 18/2/1 17/2/1
f 24/2/1 16/2/1 18/2/1
f 24/2/1 18/2/1 23/2/1
f 25/3/1 22/3/1 21/3/1
f 26/3/1 22/3/1 25/3/1
f 27/2/1 20/2/1 19/2/1
f 28/2/1 20/2/1 27/2/1
f 30/2/1 26/2/1 25/2/1
f 30/2/1 29/2/1 28/2/1
f 30/2/1 28/2/1 27/2/1
f 30/2/1 27/2/1 26/2/1
f 31/2/1 29/2/1 30/2/1
f 32/2/1 29/2/1 31/2/1
f 33/2/1 29/2/1 32/2/1
f 37/2/1 35/2/1 34/2/1
f 38/2/1 35/2/1 37/2/1
f 40/2/1 37/2/1 36/2/1
f 40/2/1 39/2/1 38/2/1
f 40/2/1 38/2/1 37/2/1
f 41/2/1 39/2/1 40/2/1
f 42/2/1 39/2/1 41/2/1
f 44/2/1 43/2/1 42/2/1
f 44/2/1 42/2/1 41/2/1
f 45/2/1 43/2/1 44/2/1
f 46/2/1 43/2/1 45/2/1
f 47/2/1 43/2/1 46/2/1
f 50/2/1 49/2/1 48/2/1
f 51/2/1 49/2/1 50/2/1
f 53/2/1 52/2/1 51/2/1
f 54/2/1 52/2/1 53/2/1
f 57/3/1 56/3/1 55/3/1
f 58/3/1 56/3/1 57/3/1
f 61/2/1 60/2/1 59/2/1
f 62/2/1 60/2/1 61/2/1
f 65/2/1 64/2/1 63/2/1
f 66/2/1 64/2/1 65/2/1
f 68/2/1 67/2/1 66/2/1
f 69/2/1 67/2/1 68/2/1
f 70/2/2 71/2/2 72/2/2
f 72/2/2 71/2/2 73/2/2
f 73/2/2 74/2/2 75/2/2
f 75/2/2 74/2/2 76/2/2
f 77/2/2 78/2/2 79/2/2
f 79/2/2 78/2/2 80/2/2
f 80/2/2 81/2/2 82/2/2
f 82/2/2 81/2/2 83/2/2
f 84/3/2 85/3/2 86/3/2
f 86/3/2 85/3/2 87/3/2
f 88/2/2 89/2/2 90/2/2
f 90/2/2 89/2/2 91/2/2
f 92/2/2 93/2/2 95/2/2
f 95/2/2 93/2/2 96/2/2
f 94/2/2 95/2/2 98/2/2
f 96/2/2 97/2/2 98/2/2
f 95/2/2 96/2/2 98/2/2
f 98/2/2 97/2/2 99/2/2
f 99/2/2 97/2/2 100/2/2
f 100/2/2 101/2/2 102/2/2
f 99/2/2 100/2/2 102/2/2
f 102/2/2 101/2/2 103/2/2
f 103/2/2 101/2/2 104/2/2
f 104/2/2 101/2/2 105/2/2
f 106/2/2 107/2/2 108/2/2
f 108/2/2 107/2/2 109/2/2
f 109/2/2 110/2/2 112/2/2
f 111/2/2 112/2/2 117/2/2
f 112/2/2 110/2/2 118/2/2
f 117/2/2 112/2/2 118/2/2
f 115/3/2 116/3/2 119/3/2
f 119/3/2 116/3/2 120/3/2
f 113/2/2 114/2/2 121/2/2
f 121/2/2 114/2/2 122/2/2
f 119/2/2 120/2/2 124/2/2
f 122/2/2 123/2/2 124/2/2
f 121/2/2 122/2/2 124/2/2
f 120/2/2 121/2/2 124/2/2
f 124/2/2 123/2/2 125/2/2
f 125/2/2 123/2/2 126/2/2
f 126/2/2 123/2/2 127/2/2
f 128/2/2 129/2/2 130/2/2
f 130/2/2 129/2/2 131/2/2
f 131/2/2 132/2/2 134/2/2
f 134/2/2 132/2/2 135/2/2
f 133/2/2 134/2/2 137/2/2
f 135/2/2 136/2/2 137/2/2
f 134/2/2 135/2/2 137/2/2
f 137/2/2 136/2/2 138/2/2
f 142/3/3 140/3/3 139/3/3
f 143/2/3 141/2/3 140/2/3
f 143/3/3 140/3/3 142/3/3
f 144/2/3 141/2/3 143/2/3
f 145/2/3 141/2/3 144/2/3
f 147/2/3 144/2/3 143/2/3
f 148/1/3 145/1/3 144/1/3
f 148/2/3 144/2/3 147/2/3
f 149/1/3 145/1/3 148/1/3
f 150/3/3 147/3/3 146/3/3
f 151/2/3 148/2/3 147/2/3
f 151/3/3 147/3/3 150/3/3
f 151/2/3 149/2/3 148/2/3
f 152/2/3 149/2/3 151/2/3
f 155/2/3 154/2/3 153/2/3
f 156/2/3 154/2/3 155/2/3
f 161/2/3 158/2/3 157/2/3
f 162/2/3 158/2/3 161/2/3
f 163/2/3 160/2/3 159/2/3
f 164/2/3 160/2/3 163/2/3
f 167/2/3 166/2/3 165/2/3
f 168/2/3 166/2/3 167/2/3
f 173/2/3 163/2/3 159/2/3
f 175/2/3 170/2/3 169/2/3
f 176/2/3 170/2/3 175/2/3
f 177/2/3 172/2/3 171/2/3
f 178/2/3 172/2/3 177/2/3
f 179/2/3 174/2/3 173/2/3
f 179/2/3 173/2/3 159/2/3
f 180/2/3 174/2/3 179/2/3
f 183/2/3 182/2/3 181/2/3
f 184/2/3 182/2/3 183/2/3
f 187/2/3 186/2/3 185/2/3
f 188/2/3 186/2/3 187/2/3
f 191/2/3 190/2/3 189/2/3
f 192/2/3 190/2/3 191/2/3
f 195/2/3 194/2/3 193/2/3
f 196/2/3 194/2/3 195/2/3
f 199/2/3 198/2/3 197/2/3
f 200/2/3 198/2/3 199/2/3
f 205/2/3 202/2/3 201/2/3
f 206/2/3 202/2/3 205/2/3
f 207/2/3 204/2/3 203/2/3
f 208/2/3 204/2/3 207/2/3
f 211/2/3 210/2/3 209/2/3
f 212/2/3 210/2/3 211/2/3
f 215/2/3 214/2/3 213/2/3
f 216/2/3 214/2/3 215/2/3
f 217/3/4 218/3/4 219/3/4
f 219/3/4 218/3/4 220/3/4
f 221/3/4 222/3/4 223/3/4
f 223/3/4 222/3/4 224/3/4
f 225/2/4 226/2/4 227/2/4
f 227/2/4 226/2/4 228/2/4
f 229/2/4 230/2/4 231/2/4
f 231/2/4 230/2/4 232/2/4
f 229/2/4 231/2/4 233/2/4
f 229/2/4 233/2/4 237/2/4
f 233/2/4 234/2/4 237/2/4
f 237/2/4 234/2/4 238/2/4
f 235/2/4 236/2/4 239/2/4
f 239/2/4 236/2/4 240/2/4
f 241/2/4 242/2/4 243/2/4
f 243/2/4 242/2/4 244/2/4
f 245/2/4 246/2/4 247/2/4
f 247/2/4 246/2/4 248/2/4
f 249/2/4 250/2/4 251/2/4
f 251/2/4 250/2/4 252/2/4
f 252/2/4 250/2/4 254/2/4
f 253/2/4 254/2/4 255/2/4
f 254/2/4 250/2/4 256/2/4
f 255/2/4 254/2/4 256/2/4
f 257/2/4 258/2/4 259/2/4
f 259/2/4 258/2/4 260/2/4
f 261/2/4 262/2/4 263/2/4
f 263/2/4 262/2/4 264/2/4
f 265/2/4 266/2/4 267/2/4
f 267/2/4 266/2/4 268/2/4
f 268/2/4 266/2/4 269/2/4
f 269/2/4 266/2/4 270/2/4
f 268/2/4 269/2/4 272/2/4
f 272/2/4 269/2/4 273/2/4
f 271/2/4 272/2/4 275/2/4
f 273/2/4 274/2/4 275/2/4
f 272/2/4 273/2/4 275/2/4
f 275/2/4 274/2/4 276/2/4
f 277/2/4 278/2/4 279/2/4
f 279/2/4 278/2/4 280/2/4
f 281/2/4 282/2/4 283/2/4
f 283/2/4 282/2/4 284/2/4
f 285/2/4 286/2/4 287/2/4
f 287/2/4 286/2/4 288/2/4
f 293/2/5 290/2/5 289/2/5
f 294/2/5 290/2/5 293/2/5
f 295/2/5 292/2/5 291/2/5
f 296/2/5 292/2/5 295/2/5
f 301/2/5 298/2/5 297/2/5
f 302/2/5 298/2/5 301/2/5
f 303/2/5 300/2/5 299/2/5
f 304/2/5 300/2/5 303/2/5
f 309/2/5 306/2/5 305/2/5
f 310/2/5 306/2/5 309/2/5
f 311/2/5 308/2/5 307/2/5
f 312/2/5 308/2/5 311/2/5
f 317/2/5 314/2/5 313/2/5
f 318/2/5 314/2/5 317/2/5
f 319/2/5 316/2/5 315/2/5
f 320/2/5 316/2/5 319/2/5
f 323/2/5 322/2/5 321/2/5
f 324/2/5 322/2/5 323/2/5
f 325/2/5 322/2/5 324/2/5
f 326/2/5 322/2/5 325/2/5
f 328/2/5 325/2/5 324/2/5
f 329/2/5 325/2/5 328/2/5
f 331/2/5 328/2/5 327/2/5
f 331/2/5 330/2/5 329/2/5
f 331/2/5 329/2/5 328/2/5
f 332/2/5 330/2/5 331/2/5
f 333/2/5 330/2/5 332/2/5
f 334/2/5 330/2/5 333/2/5
f 335/2/5 333/2/5 332/2/5
f 336/2/5 333/2/5 335/2/5
f 337/2/5 333/2/5 336/2/5
f 338/2/5 333/2/5 337/2/5
f 339/2/5 337/2/5 336/2/5
f 340/2/5 337/2/5 339/2/5
f 343/2/5 342/2/5 341/2/5
f 344/2/5 342/2/5 343/2/5
f 347/2/5 346/2/5 345/2/5
f 348/2/5 346/2/5 347/2/5
f 353/3/5 350/3/5 349/3/5
f 354/3/5 350/3/5 353/3/5
f 355/3/5 352/3/5 351/3/5
f 356/3/5 352/3/5 355/3/5
f 359/2/5 358/2/5 357/2/5
f 360/2/5 358/2/5 359/2/5
f 364/2/5 362/2/5 361/2/5
f 365/2/5 362/2/5 364/2/5
f 367/2/5 364/2/5 363/2/5
f 367/2/5 366/2/5 365/2/5
f 367/2/5 365/2/5 364/2/5
f 368/2/5 366/2/5 367/2/5
f 371/2/5 370/2/5 369/2/5
f 372/2/5 370/2/5 371/2/5
f 373/2/6 374/2/6 377/2/6
f 377/2/6 374/2/6 378/2/6
f 375/2/6 376/2/6 379/2/6
f 379/2/6 376/2/6 380/2/6
f 381/2/6 382/2/6 385/2/6
f 385/2/6 382/2/6 386/2/6
f 383/2/6 384/2/6 387/2/6
f 387/2/6 384/2/6 388/2/6
f 389/2/6 390/2/6 391/2/6
f 391/2/6 390/2/6 392/2/6
f 389/2/6 391/2/6 393/2/6
f 393/2/6 391/2/6 394/2/6
f 392/2/6 390/2/6 395/2/6
f 395/2/6 390/2/6 396/2/6
f 397/2/6 398/2/6 401/2/6
f 399/2/6 400/2/6 402/2/6
f 397/2/6 401/2/6 403/2/6
f 401/2/6 402/2/6 403/2/6
f 402/2/6 400/2/6 404/2/6
f 403/2/6 402/2/6 404/2/6
f 405/2/6 406/2/6 407/2/6
f 407/2/6 406/2/6 408/2/6
f 409/2/6 410/2/6 411/2/6
f 411/2/6 410/2/6 412/2/6
f 413/2/6 414/2/6 417/2/6
f 414/1/6 415/1/6 417/1/6
f 415/2/6 416/2/6 418/2/6
f 417/1/6 415/1/6 418/1/6
f 413/2/6 417/2/6 419/2/6
f 417/2/6 418/2/6 419/2/6
f 419/2/6 418/2/6 420/2/6
f 418/2/6 416/2/6 421/2/6
f 420/2/6 418/2/6 421/2/6
f 421/2/6 416/2/6 422/2/6
f 420/2/6 421/2/6 423/2/6
f 423/2/6 421/2/6 424/2/6
f 425/2/6 426/2/6 427/2/6
f 427/2/6 426/2/6 428/2/6
f 429/2/6 430/2/6 433/2/6
f 433/2/6 430/2/6 434/2/6
f 431/2/6 432/2/6 435/2/6
f 435/2/6 432/2/6 436/2/6
