# MagicaVoxel @ Ephtracy

# group
o 

# material
mtllib imp_action_1.mtl
usemtl palette

# normals
vn -1 0 0
vn 1 0 0
vn 0 0 1
vn 0 0 -1
vn 0 -1 0
vn 0 1 0

# texcoords
vt 0.751953 0.5
vt 0.787109 0.5
vt 0.814453 0.5
vt 0.978516 0.5

# verts
v -0.3 0.2 0.5
v -0.3 0.2 0.2
v -0.3 0.3 0.5
v -0.3 0.3 0.3
v -0.3 0.4 0.6
v -0.3 0.4 0.3
v -0.3 0.4 0.2
v -0.3 0.4 0.1
v -0.3 0.4 -0.4
v -0.3 0.5 0.6
v -0.3 0.5 0.3
v -0.3 0.5 0.2
v -0.3 0.5 0.1
v -0.3 0.5 -0.1
v -0.3 0.5 -0.2
v -0.3 0.5 -0.4
v -0.3 0.6 0.5
v -0.3 0.6 0.3
v -0.3 0.6 -0.1
v -0.3 0.6 -0.2
v -0.3 0.7 0.5
v -0.3 0.7 0.2
v -0.2 0.6 0.1
v -0.2 0.6 -0.1
v -0.2 0.8 0.2
v -0.2 0.8 0.1
v -0.2 0.9 0.1
v -0.2 0.9 -0.1
v -0.2 1 0.2
v -0.2 1 0.1
v -0.1 0.1 -0.3
v -0.1 0.1 -0.4
v -0.1 0.2 0
v -0.1 0.2 -0.2
v -0.1 0.2 -0.3
v -0.1 0.2 -0.4
v -0.1 0.3 -0.2
v -0.1 0.3 -0.3
v -0.1 0.4 0.1
v -0.1 0.4 0
v -0.1 0.4 -0.2
v -0.1 0.5 0.1
v -0.1 0.5 -0.1
v -0.1 0.5 -0.2
v -0.1 0.6 0.1
v -0.1 0.6 -0.1
v 2.98023e-08 0 0.2
v 2.98023e-08 0 0.1
v 2.98023e-08 0.1 0.2
v 2.98023e-08 0.1 0.1
v 2.98023e-08 0.1 0
v 2.98023e-08 0.2 0.1
v 2.98023e-08 0.2 0
v 2.98023e-08 0.4 0.1
v 2.98023e-08 0.4 0
v 2.98023e-08 0.5 0.2
v 2.98023e-08 0.5 0.1
v 2.98023e-08 0.6 0.2
v 2.98023e-08 0.6 0.1
v 2.98023e-08 0.8 0.2
v 2.98023e-08 0.8 0.1
v 2.98023e-08 0.9 0.1
v 2.98023e-08 1 0.2
v 2.98023e-08 1 0.1
v 0.1 0.4 -0.2
v 0.1 0.4 -0.3
v 0.1 0.6 0.2
v 0.1 0.6 0.1
v 0.1 0.6 -0.1
v 0.1 0.6 -0.2
v 0.1 0.7 0.2
v 0.1 0.7 0.1
v 0.1 0.7 -0.1
v 0.1 0.7 -0.3
v 0.2 0.3 0
v 0.2 0.3 -0.1
v 0.2 0.5 0
v 0.2 0.5 -0.1
v -0.2 0.2 0.5
v -0.2 0.2 0.2
v -0.2 0.3 0.5
v -0.2 0.3 0.3
v -0.2 0.4 0.6
v -0.2 0.4 0.3
v -0.2 0.4 0.2
v -0.2 0.4 0.1
v -0.2 0.4 -0.4
v -0.2 0.5 0.6
v -0.2 0.5 0.3
v -0.2 0.5 0.2
v -0.2 0.5 0.1
v -0.2 0.5 -0.1
v -0.2 0.5 -0.2
v -0.2 0.5 -0.4
v -0.2 0.6 0.5
v -0.2 0.6 0.3
v -0.2 0.7 0.5
v -0.2 0.7 0.2
v -0.1 0.8 0.2
v -0.1 0.8 0.1
v -0.1 0.9 0.1
v -0.1 1 0.2
v -0.1 1 0.1
v 2.98023e-08 0.1 -0.3
v 2.98023e-08 0.1 -0.4
v 2.98023e-08 0.2 -0.2
v 2.98023e-08 0.2 -0.3
v 2.98023e-08 0.2 -0.4
v 2.98023e-08 0.3 -0.2
v 2.98023e-08 0.3 -0.3
v 0.1 0 0.2
v 0.1 0 0.1
v 0.1 0.1 0.2
v 0.1 0.1 0.1
v 0.1 0.1 0
v 0.1 0.2 0.1
v 0.1 0.2 0
v 0.1 0.2 -0.1
v 0.1 0.2 -0.2
v 0.1 0.3 0
v 0.1 0.3 -0.1
v 0.1 0.4 0.1
v 0.1 0.4 -0.2
v 0.1 0.5 0.1
v 0.1 0.5 0
v 0.1 0.5 -0.1
v 0.1 0.5 -0.2
v 0.1 0.7 0.1
v 0.1 0.7 0
v 0.1 0.7 -0.1
v 0.1 0.8 0.2
v 0.1 0.8 0.1
v 0.1 0.9 0.1
v 0.1 0.9 -0.1
v 0.1 1 0.2
v 0.1 1 0.1
v 0.2 0.4 0.2
v 0.2 0.4 0.1
v 0.2 0.4 -0.2
v 0.2 0.4 -0.3
v 0.2 0.5 0.1
v 0.2 0.5 0
v 0.2 0.5 -0.1
v 0.2 0.5 -0.2
v 0.2 0.7 0.2
v 0.2 0.7 0
v 0.2 0.7 -0.1
v 0.2 0.7 -0.3
v 0.3 0.2 0
v 0.3 0.2 -0.1
v 0.3 0.5 0
v 0.3 0.5 -0.1
v -0.3 0.4 0.6
v -0.3 0.5 0.6
v -0.2 0.4 0.6
v -0.2 0.5 0.6
v -0.3 0.2 0.5
v -0.3 0.3 0.5
v -0.3 0.6 0.5
v -0.3 0.7 0.5
v -0.2 0.2 0.5
v -0.2 0.3 0.5
v -0.2 0.6 0.5
v -0.2 0.7 0.5
v -0.3 0.3 0.3
v -0.3 0.4 0.3
v -0.3 0.5 0.3
v -0.3 0.6 0.3
v -0.2 0.3 0.3
v -0.2 0.4 0.3
v -0.2 0.5 0.3
v -0.2 0.6 0.3
v -0.2 0.4 0.2
v -0.2 0.5 0.2
v -0.2 0.8 0.2
v -0.2 1 0.2
v -0.1 0.8 0.2
v -0.1 1 0.2
v 2.98023e-08 0 0.2
v 2.98023e-08 0.1 0.2
v 2.98023e-08 0.5 0.2
v 2.98023e-08 0.6 0.2
v 2.98023e-08 0.8 0.2
v 2.98023e-08 1 0.2
v 0.1 0 0.2
v 0.1 0.1 0.2
v 0.1 0.4 0.2
v 0.1 0.6 0.2
v 0.1 0.7 0.2
v 0.1 0.8 0.2
v 0.1 1 0.2
v 0.2 0.4 0.2
v 0.2 0.7 0.2
v -0.2 0.6 0.1
v -0.2 0.8 0.1
v -0.1 0.5 0.1
v -0.1 0.6 0.1
v -0.1 0.8 0.1
v -0.1 0.9 0.1
v 2.98023e-08 0.1 0.1
v 2.98023e-08 0.2 0.1
v 2.98023e-08 0.4 0.1
v 2.98023e-08 0.5 0.1
v 2.98023e-08 0.6 0.1
v 2.98023e-08 0.8 0.1
v 2.98023e-08 0.9 0.1
v 0.1 0.1 0.1
v 0.1 0.2 0.1
v 0.1 0.4 0.1
v 0.1 0.6 0.1
v 0.1 0.7 0.1
v 0.1 0.8 0.1
v -0.1 0.2 0
v -0.1 0.4 0
v 2.98023e-08 0.2 0
v 2.98023e-08 0.4 0
v 0.1 0.2 0
v 0.1 0.3 0
v 0.2 0.3 0
v 0.2 0.5 0
v 0.3 0.2 0
v 0.3 0.5 0
v -0.3 0.5 -0.1
v -0.3 0.6 -0.1
v -0.2 0.5 -0.1
v -0.2 0.6 -0.1
v -0.1 0.5 -0.1
v -0.1 0.6 -0.1
v 0.1 0.5 -0.1
v 0.1 0.7 -0.1
v 0.2 0.5 -0.1
v 0.2 0.7 -0.1
v 0.1 0.4 -0.2
v 0.1 0.5 -0.2
v 0.2 0.4 -0.2
v 0.2 0.5 -0.2
v -0.1 0.1 -0.3
v -0.1 0.2 -0.3
v 2.98023e-08 0.1 -0.3
v 2.98023e-08 0.2 -0.3
v -0.3 0.2 0.2
v -0.3 0.4 0.2
v -0.3 0.5 0.2
v -0.3 0.7 0.2
v -0.2 0.2 0.2
v -0.2 0.4 0.2
v -0.2 0.5 0.2
v -0.2 0.7 0.2
v -0.2 0.4 0.1
v -0.2 0.5 0.1
v -0.2 0.9 0.1
v -0.2 1 0.1
v -0.1 0.4 0.1
v -0.1 0.5 0.1
v -0.1 0.9 0.1
v -0.1 1 0.1
v 2.98023e-08 0 0.1
v 2.98023e-08 0.1 0.1
v 2.98023e-08 0.9 0.1
v 2.98023e-08 1 0.1
v 0.1 0 0.1
v 0.1 0.1 0.1
v 0.1 0.4 0.1
v 0.1 0.5 0.1
v 0.1 0.9 0.1
v 0.1 1 0.1
v 0.2 0.4 0.1
v 0.2 0.5 0.1
v 2.98023e-08 0.1 0
v 2.98023e-08 0.2 0
v 0.1 0.1 0
v 0.1 0.2 0
v 0.1 0.5 0
v 0.1 0.7 0
v 0.2 0.5 0
v 0.2 0.7 0
v -0.2 0.6 -0.1
v -0.2 0.9 -0.1
v 0.1 0.2 -0.1
v 0.1 0.3 -0.1
v 0.1 0.6 -0.1
v 0.1 0.7 -0.1
v 0.1 0.9 -0.1
v 0.2 0.3 -0.1
v 0.2 0.5 -0.1
v 0.3 0.2 -0.1
v 0.3 0.5 -0.1
v -0.3 0.5 -0.2
v -0.3 0.6 -0.2
v -0.2 0.5 -0.2
v -0.1 0.3 -0.2
v -0.1 0.4 -0.2
v -0.1 0.5 -0.2
v 2.98023e-08 0.2 -0.2
v 2.98023e-08 0.3 -0.2
v 0.1 0.2 -0.2
v 0.1 0.4 -0.2
v 0.1 0.6 -0.2
v -0.1 0.2 -0.3
v -0.1 0.3 -0.3
v 2.98023e-08 0.2 -0.3
v 2.98023e-08 0.3 -0.3
v 0.1 0.4 -0.3
v 0.1 0.7 -0.3
v 0.2 0.4 -0.3
v 0.2 0.7 -0.3
v -0.3 0.4 -0.4
v -0.3 0.5 -0.4
v -0.2 0.4 -0.4
v -0.2 0.5 -0.4
v -0.1 0.1 -0.4
v -0.1 0.2 -0.4
v 2.98023e-08 0.1 -0.4
v 2.98023e-08 0.2 -0.4
v 2.98023e-08 0 0.2
v 0.1 0 0.2
v 2.98023e-08 0 0.1
v 0.1 0 0.1
v 2.98023e-08 0.1 0.1
v 0.1 0.1 0.1
v 2.98023e-08 0.1 0
v 0.1 0.1 0
v -0.1 0.1 -0.3
v 2.98023e-08 0.1 -0.3
v -0.1 0.1 -0.4
v 2.98023e-08 0.1 -0.4
v -0.3 0.2 0.5
v -0.2 0.2 0.5
v -0.3 0.2 0.2
v -0.2 0.2 0.2
v -0.1 0.2 0
v 2.98023e-08 0.2 0
v 0.1 0.2 0
v 0.3 0.2 0
v 0.1 0.2 -0.1
v 0.3 0.2 -0.1
v -0.1 0.2 -0.2
v 2.98023e-08 0.2 -0.2
v 0.1 0.2 -0.2
v -0.1 0.2 -0.3
v 2.98023e-08 0.2 -0.3
v -0.3 0.4 0.6
v -0.2 0.4 0.6
v -0.3 0.4 0.3
v -0.2 0.4 0.3
v -0.3 0.4 0.2
v -0.2 0.4 0.2
v 0.1 0.4 0.2
v 0.2 0.4 0.2
v -0.3 0.4 0.1
v -0.2 0.4 0.1
v -0.1 0.4 0.1
v 2.98023e-08 0.4 0.1
v 0.1 0.4 0.1
v 0.2 0.4 0.1
v -0.1 0.4 0
v 2.98023e-08 0.4 0
v 0.1 0.4 -0.2
v 0.2 0.4 -0.2
v 0.1 0.4 -0.3
v 0.2 0.4 -0.3
v -0.3 0.4 -0.4
v -0.2 0.4 -0.4
v 0.1 0.5 0.1
v 0.2 0.5 0.1
v 0.1 0.5 0
v 0.2 0.5 0
v -0.2 0.5 -0.1
v -0.1 0.5 -0.1
v 0.1 0.5 -0.1
v 0.2 0.5 -0.1
v -0.2 0.5 -0.2
v -0.1 0.5 -0.2
v 0.1 0.5 -0.2
v 0.2 0.5 -0.2
v -0.3 0.6 0.5
v -0.2 0.6 0.5
v -0.3 0.6 0.3
v -0.2 0.6 0.3
v -0.2 0.6 0.1
v -0.1 0.6 0.1
v -0.2 0.6 -0.1
v -0.1 0.6 -0.1
v -0.2 0.8 0.2
v -0.1 0.8 0.2
v 2.98023e-08 0.8 0.2
v 0.1 0.8 0.2
v -0.2 0.8 0.1
v -0.1 0.8 0.1
v 2.98023e-08 0.8 0.1
v 0.1 0.8 0.1
v 2.98023e-08 0.1 0.2
v 0.1 0.1 0.2
v 2.98023e-08 0.1 0.1
v 0.1 0.1 0.1
v -0.1 0.2 -0.3
v 2.98023e-08 0.2 -0.3
v -0.1 0.2 -0.4
v 2.98023e-08 0.2 -0.4
v -0.3 0.3 0.5
v -0.2 0.3 0.5
v -0.3 0.3 0.3
v -0.2 0.3 0.3
v 0.1 0.3 0
v 0.2 0.3 0
v 0.1 0.3 -0.1
v 0.2 0.3 -0.1
v -0.1 0.3 -0.2
v 2.98023e-08 0.3 -0.2
v -0.1 0.3 -0.3
v 2.98023e-08 0.3 -0.3
v -0.3 0.5 0.6
v -0.2 0.5 0.6
v -0.3 0.5 0.3
v -0.2 0.5 0.3
v -0.3 0.5 0.2
v -0.2 0.5 0.2
v 2.98023e-08 0.5 0.2
v -0.3 0.5 0.1
v -0.2 0.5 0.1
v -0.1 0.5 0.1
v 2.98023e-08 0.5 0.1
v 0.2 0.5 0
v 0.3 0.5 0
v -0.3 0.5 -0.1
v -0.2 0.5 -0.1
v 0.2 0.5 -0.1
v 0.3 0.5 -0.1
v -0.3 0.5 -0.2
v -0.2 0.5 -0.2
v -0.3 0.5 -0.4
v -0.2 0.5 -0.4
v 2.98023e-08 0.6 0.2
v 0.1 0.6 0.2
v 2.98023e-08 0.6 0.1
v 0.1 0.6 0.1
v -0.3 0.6 -0.1
v -0.2 0.6 -0.1
v 0.1 0.6 -0.1
v -0.3 0.6 -0.2
v 0.1 0.6 -0.2
v -0.3 0.7 0.5
v -0.2 0.7 0.5
v -0.3 0.7 0.2
v -0.2 0.7 0.2
v 0.1 0.7 0.2
v 0.2 0.7 0.2
v 0.1 0.7 0.1
v 0.1 0.7 0
v 0.2 0.7 0
v 0.1 0.7 -0.1
v 0.2 0.7 -0.1
v 0.1 0.7 -0.3
v 0.2 0.7 -0.3
v -0.2 0.9 0.1
v -0.1 0.9 0.1
v 2.98023e-08 0.9 0.1
v 0.1 0.9 0.1
v -0.2 0.9 -0.1
v 0.1 0.9 -0.1
v -0.2 1 0.2
v -0.1 1 0.2
v 2.98023e-08 1 0.2
v 0.1 1 0.2
v -0.2 1 0.1
v -0.1 1 0.1
v 2.98023e-08 1 0.1
v 0.1 1 0.1

# faces
f 3/2/1 2/2/1 1/2/1
f 4/2/1 2/2/1 3/2/1
f 6/2/1 2/2/1 4/2/1
f 7/2/1 2/2/1 6/2/1
f 10/2/1 6/2/1 5/2/1
f 10/2/1 7/2/1 6/2/1
f 11/2/1 7/2/1 10/2/1
f 12/1/1 8/1/1 7/1/1
f 12/2/1 7/2/1 11/2/1
f 13/2/1 9/2/1 8/2/1
f 13/1/1 8/1/1 12/1/1
f 14/2/1 9/2/1 13/2/1
f 15/2/1 9/2/1 14/2/1
f 16/2/1 9/2/1 15/2/1
f 18/2/1 12/2/1 11/2/1
f 19/1/1 15/1/1 14/1/1
f 20/1/1 15/1/1 19/1/1
f 21/2/1 18/2/1 17/2/1
f 22/2/1 12/2/1 18/2/1
f 22/2/1 18/2/1 21/2/1
f 26/1/1 24/1/1 23/1/1
f 27/1/1 24/1/1 26/1/1
f 27/4/1 26/4/1 25/4/1
f 28/1/1 24/1/1 27/1/1
f 29/4/1 27/4/1 25/4/1
f 30/4/1 27/4/1 29/4/1
f 35/1/1 32/1/1 31/1/1
f 36/1/1 32/1/1 35/1/1
f 37/3/1 34/3/1 33/3/1
f 37/1/1 35/1/1 34/1/1
f 38/1/1 35/1/1 37/1/1
f 40/3/1 37/3/1 33/3/1
f 41/3/1 37/3/1 40/3/1
f 42/1/1 40/1/1 39/1/1
f 42/1/1 41/1/1 40/1/1
f 43/1/1 41/1/1 42/1/1
f 44/1/1 41/1/1 43/1/1
f 45/1/1 43/1/1 42/1/1
f 46/1/1 43/1/1 45/1/1
f 49/1/1 48/1/1 47/1/1
f 50/1/1 48/1/1 49/1/1
f 52/1/1 51/1/1 50/1/1
f 53/1/1 51/1/1 52/1/1
f 54/3/1 53/3/1 52/3/1
f 55/3/1 53/3/1 54/3/1
f 58/1/1 57/1/1 56/1/1
f 59/1/1 57/1/1 58/1/1
f 62/4/1 61/4/1 60/4/1
f 63/4/1 62/4/1 60/4/1
f 64/4/1 62/4/1 63/4/1
f 70/4/1 66/4/1 65/4/1
f 71/4/1 68/4/1 67/4/1
f 72/4/1 68/4/1 71/4/1
f 73/4/1 70/4/1 69/4/1
f 74/4/1 66/4/1 70/4/1
f 74/4/1 70/4/1 73/4/1
f 77/4/1 76/4/1 75/4/1
f 78/4/1 76/4/1 77/4/1
f 79/2/2 80/2/2 81/2/2
f 81/2/2 80/2/2 82/2/2
f 82/2/2 80/2/2 84/2/2
f 84/2/2 80/2/2 85/2/2
f 83/2/2 84/2/2 88/2/2
f 84/2/2 85/2/2 88/2/2
f 88/2/2 85/2/2 89/2/2
f 89/2/2 85/2/2 90/2/2
f 86/2/2 87/2/2 91/2/2
f 91/2/2 87/2/2 92/2/2
f 92/2/2 87/2/2 93/2/2
f 93/2/2 87/2/2 94/2/2
f 89/2/2 90/2/2 96/2/2
f 95/2/2 96/2/2 97/2/2
f 96/2/2 90/2/2 98/2/2
f 97/2/2 96/2/2 98/2/2
f 99/4/2 100/4/2 101/4/2
f 99/4/2 101/4/2 102/4/2
f 102/4/2 101/4/2 103/4/2
f 104/1/2 105/1/2 107/1/2
f 107/1/2 105/1/2 108/1/2
f 106/1/2 107/1/2 109/1/2
f 109/1/2 107/1/2 110/1/2
f 111/1/2 112/1/2 113/1/2
f 113/1/2 112/1/2 114/1/2
f 114/1/2 115/1/2 116/1/2
f 116/1/2 115/1/2 117/1/2
f 116/3/2 117/3/2 120/3/2
f 118/3/2 119/3/2 121/3/2
f 116/3/2 120/3/2 122/3/2
f 120/3/2 121/3/2 122/3/2
f 121/3/2 119/3/2 123/3/2
f 122/3/2 121/3/2 123/3/2
f 122/1/2 123/1/2 124/1/2
f 124/1/2 123/1/2 125/1/2
f 125/1/2 123/1/2 126/1/2
f 126/1/2 123/1/2 127/1/2
f 125/1/2 126/1/2 129/1/2
f 129/1/2 126/1/2 130/1/2
f 128/1/2 129/1/2 132/1/2
f 129/1/2 130/1/2 132/1/2
f 132/1/2 130/1/2 133/1/2
f 131/4/2 132/4/2 133/4/2
f 133/1/2 130/1/2 134/1/2
f 131/4/2 133/4/2 135/4/2
f 135/4/2 133/4/2 136/4/2
f 137/4/2 138/4/2 141/4/2
f 139/4/2 140/4/2 144/4/2
f 141/4/2 142/4/2 145/4/2
f 137/4/2 141/4/2 145/4/2
f 145/4/2 142/4/2 146/4/2
f 143/4/2 144/4/2 147/4/2
f 144/4/2 140/4/2 148/4/2
f 147/4/2 144/4/2 148/4/2
f 149/4/2 150/4/2 151/4/2
f 151/4/2 150/4/2 152/4/2
f 155/2/3 154/2/3 153/2/3
f 156/2/3 154/2/3 155/2/3
f 161/2/3 158/2/3 157/2/3
f 162/2/3 158/2/3 161/2/3
f 163/2/3 160/2/3 159/2/3
f 164/2/3 160/2/3 163/2/3
f 169/2/3 166/2/3 165/2/3
f 170/2/3 166/2/3 169/2/3
f 171/2/3 168/2/3 167/2/3
f 172/2/3 168/2/3 171/2/3
f 177/4/3 176/4/3 175/4/3
f 178/4/3 176/4/3 177/4/3
f 181/1/3 174/1/3 173/1/3
f 185/1/3 180/1/3 179/1/3
f 186/1/3 180/1/3 185/1/3
f 187/1/3 181/1/3 173/1/3
f 187/1/3 182/1/3 181/1/3
f 188/1/3 182/1/3 187/1/3
f 190/4/3 184/4/3 183/4/3
f 191/4/3 184/4/3 190/4/3
f 192/4/3 189/4/3 188/4/3
f 192/4/3 188/4/3 187/4/3
f 193/4/3 189/4/3 192/4/3
f 197/1/3 195/1/3 194/1/3
f 198/1/3 195/1/3 197/1/3
f 203/1/3 197/1/3 196/1/3
f 203/1/3 198/1/3 197/1/3
f 203/1/3 199/1/3 198/1/3
f 204/1/3 199/1/3 203/1/3
f 205/1/3 199/1/3 204/1/3
f 206/1/3 199/1/3 205/1/3
f 207/1/3 201/1/3 200/1/3
f 208/3/3 202/3/3 201/3/3
f 208/1/3 201/1/3 207/1/3
f 209/3/3 202/3/3 208/3/3
f 210/1/3 205/1/3 204/1/3
f 211/1/3 205/1/3 210/1/3
f 212/1/3 205/1/3 211/1/3
f 215/3/3 214/3/3 213/3/3
f 216/3/3 214/3/3 215/3/3
f 219/4/3 218/4/3 217/4/3
f 221/4/3 219/4/3 217/4/3
f 221/4/3 220/4/3 219/4/3
f 222/4/3 220/4/3 221/4/3
f 225/1/3 224/1/3 223/1/3
f 226/1/3 224/1/3 225/1/3
f 227/1/3 226/1/3 225/1/3
f 228/1/3 226/1/3 227/1/3
f 231/4/3 230/4/3 229/4/3
f 232/4/3 230/4/3 231/4/3
f 235/4/3 234/4/3 233/4/3
f 236/4/3 234/4/3 235/4/3
f 239/1/3 238/1/3 237/1/3
f 240/1/3 238/1/3 239/1/3
f 241/2/4 242/2/4 245/2/4
f 245/2/4 242/2/4 246/2/4
f 243/2/4 244/2/4 247/2/4
f 247/2/4 244/2/4 248/2/4
f 249/1/4 250/1/4 253/1/4
f 253/1/4 250/1/4 254/1/4
f 251/4/4 252/4/4 255/4/4
f 255/4/4 252/4/4 256/4/4
f 257/1/4 258/1/4 261/1/4
f 261/1/4 258/1/4 262/1/4
f 259/4/4 260/4/4 265/4/4
f 265/4/4 260/4/4 266/4/4
f 263/4/4 264/4/4 267/4/4
f 267/4/4 264/4/4 268/4/4
f 269/1/4 270/1/4 271/1/4
f 271/1/4 270/1/4 272/1/4
f 273/4/4 274/4/4 275/4/4
f 275/4/4 274/4/4 276/4/4
f 277/1/4 278/1/4 281/1/4
f 281/1/4 278/1/4 282/1/4
f 282/1/4 278/1/4 283/1/4
f 279/4/4 280/4/4 284/4/4
f 279/4/4 284/4/4 286/4/4
f 284/4/4 285/4/4 286/4/4
f 286/4/4 285/4/4 287/4/4
f 288/1/4 289/1/4 290/1/4
f 290/1/4 289/1/4 293/1/4
f 291/3/4 292/3/4 295/3/4
f 294/3/4 295/3/4 296/3/4
f 292/1/4 293/1/4 297/1/4
f 296/3/4 295/3/4 297/3/4
f 295/3/4 292/3/4 297/3/4
f 293/1/4 289/1/4 298/1/4
f 297/1/4 293/1/4 298/1/4
f 299/1/4 300/1/4 301/1/4
f 301/1/4 300/1/4 302/1/4
f 303/4/4 304/4/4 305/4/4
f 305/4/4 304/4/4 306/4/4
f 307/2/4 308/2/4 309/2/4
f 309/2/4 308/2/4 310/2/4
f 311/1/4 312/1/4 313/1/4
f 313/1/4 312/1/4 314/1/4
f 317/1/5 316/1/5 315/1/5
f 318/1/5 316/1/5 317/1/5
f 321/1/5 320/1/5 319/1/5
f 322/1/5 320/1/5 321/1/5
f 325/1/5 324/1/5 323/1/5
f 326/1/5 324/1/5 325/1/5
f 329/2/5 328/2/5 327/2/5
f 330/2/5 328/2/5 329/2/5
f 335/3/5 332/3/5 331/3/5
f 335/4/5 334/4/5 333/4/5
f 335/3/5 333/3/5 332/3/5
f 336/4/5 334/4/5 335/4/5
f 337/3/5 335/3/5 331/3/5
f 338/3/5 335/3/5 337/3/5
f 339/3/5 335/3/5 338/3/5
f 340/1/5 338/1/5 337/1/5
f 341/1/5 338/1/5 340/1/5
f 344/2/5 343/2/5 342/2/5
f 345/2/5 343/2/5 344/2/5
f 350/1/5 347/1/5 346/1/5
f 350/1/5 348/1/5 347/1/5
f 351/1/5 348/1/5 350/1/5
f 352/1/5 348/1/5 351/1/5
f 353/1/5 348/1/5 352/1/5
f 354/4/5 349/4/5 348/4/5
f 354/1/5 348/1/5 353/1/5
f 355/4/5 349/4/5 354/4/5
f 356/1/5 353/1/5 352/1/5
f 357/1/5 353/1/5 356/1/5
f 360/4/5 359/4/5 358/4/5
f 361/4/5 359/4/5 360/4/5
f 362/2/5 351/2/5 350/2/5
f 363/2/5 351/2/5 362/2/5
f 366/4/5 365/4/5 364/4/5
f 367/4/5 365/4/5 366/4/5
f 372/1/5 369/1/5 368/1/5
f 373/1/5 369/1/5 372/1/5
f 374/4/5 371/4/5 370/4/5
f 375/4/5 371/4/5 374/4/5
f 378/2/5 377/2/5 376/2/5
f 379/2/5 377/2/5 378/2/5
f 382/1/5 381/1/5 380/1/5
f 383/1/5 381/1/5 382/1/5
f 388/4/5 385/4/5 384/4/5
f 389/4/5 385/4/5 388/4/5
f 390/4/5 387/4/5 386/4/5
f 391/4/5 387/4/5 390/4/5
f 392/1/6 393/1/6 394/1/6
f 394/1/6 393/1/6 395/1/6
f 396/1/6 397/1/6 398/1/6
f 398/1/6 397/1/6 399/1/6
f 400/2/6 401/2/6 402/2/6
f 402/2/6 401/2/6 403/2/6
f 404/4/6 405/4/6 406/4/6
f 406/4/6 405/4/6 407/4/6
f 408/1/6 409/1/6 410/1/6
f 410/1/6 409/1/6 411/1/6
f 412/2/6 413/2/6 414/2/6
f 414/2/6 413/2/6 415/2/6
f 416/1/6 417/1/6 419/1/6
f 417/1/6 418/1/6 419/1/6
f 419/1/6 418/1/6 420/1/6
f 420/1/6 418/1/6 421/1/6
f 421/1/6 418/1/6 422/1/6
f 419/2/6 420/2/6 425/2/6
f 425/2/6 420/2/6 426/2/6
f 423/4/6 424/4/6 427/4/6
f 427/4/6 424/4/6 428/4/6
f 429/2/6 430/2/6 431/2/6
f 431/2/6 430/2/6 432/2/6
f 433/1/6 434/1/6 435/1/6
f 435/1/6 434/1/6 436/1/6
f 437/1/6 438/1/6 440/1/6
f 438/1/6 439/1/6 440/1/6
f 440/1/6 439/1/6 441/1/6
f 442/2/6 443/2/6 444/2/6
f 444/2/6 443/2/6 445/2/6
f 446/4/6 447/4/6 448/4/6
f 448/4/6 447/4/6 449/4/6
f 449/4/6 447/4/6 450/4/6
f 451/4/6 452/4/6 453/4/6
f 453/4/6 452/4/6 454/4/6
f 455/1/6 456/1/6 459/1/6
f 457/1/6 458/1/6 459/1/6
f 456/1/6 457/1/6 459/1/6
f 459/1/6 458/1/6 460/1/6
f 461/4/6 462/4/6 465/4/6
f 465/4/6 462/4/6 466/4/6
f 463/4/6 464/4/6 467/4/6
f 467/4/6 464/4/6 468/4/6
