# MagicaVoxel @ Ephtracy

# group
o 

# material
mtllib imp_walk_0.mtl
usemtl palette

# normals
vn -1 0 0
vn 1 0 0
vn 0 0 1
vn 0 0 -1
vn 0 -1 0
vn 0 1 0

# texcoords
vt 0.751953 0.5
vt 0.787109 0.5
vt 0.814453 0.5
vt 0.978516 0.5

# verts
v -0.4 0 -0.1
v -0.4 0 -0.2
v -0.4 0.4 -0.1
v -0.4 0.4 -0.2
v -0.4 0.5 -0.1
v -0.4 0.5 -0.2
v -0.4 0.6 0.1
v -0.4 0.6 -0.1
v -0.4 0.6 -0.2
v -0.4 0.6 -0.4
v -0.4 0.7 -2.98023e-08
v -0.4 0.7 -0.1
v -0.4 0.7 -0.2
v -0.4 0.7 -0.3
v -0.4 0.9 0.1
v -0.4 0.9 -2.98023e-08
v -0.4 0.9 -0.3
v -0.4 0.9 -0.4
v -0.4 1 -0.1
v -0.4 1 -0.2
v -0.2 0.4 -2.98023e-08
v -0.2 0.4 -0.1
v -0.2 0.5 -0.1
v -0.2 0.5 -0.2
v -0.2 0.6 -2.98023e-08
v -0.2 0.6 -0.1
v -0.2 0.7 -0.1
v -0.2 0.7 -0.2
v -0.1 0 0.2
v -0.1 0 0.1
v -0.1 0.1 0.2
v -0.1 0.1 0.1
v -0.1 0.1 -2.98023e-08
v -0.1 0.2 0.2
v -0.1 0.2 0.1
v -0.1 0.2 -2.98023e-08
v -0.1 0.4 0.2
v -0.1 0.4 0.1
v -0.1 0.4 -2.98023e-08
v -0.1 0.6 -2.98023e-08
v -0.1 0.6 -0.1
v -0.1 0.7 -0.1
v -0.1 0.8 0.2
v -0.1 0.8 0.1
v -0.1 0.9 0.1
v -0.1 0.9 -0.1
v -0.1 1 0.2
v -0.1 1 0.1
v 0 0.2 -2.98023e-08
v 0 0.2 -0.1
v 0 0.2 -0.3
v 0 0.3 -0.1
v 0 0.3 -0.2
v 0 0.4 -2.98023e-08
v 0 0.4 -0.1
v 0 0.5 -0.2
v 0 0.5 -0.3
v 0.1 0.1 -0.2
v 0.1 0.1 -0.3
v 0.1 0.2 -0.2
v 0.1 0.2 -0.3
v 0.1 0.5 -0.1
v 0.1 0.5 -0.2
v 0.1 0.7 -0.1
v 0.1 0.7 -0.2
v 0.1 0.8 0.2
v 0.1 0.8 0.1
v 0.1 0.9 0.1
v 0.1 1 0.2
v 0.1 1 0.1
v 0.2 0.4 0.2
v 0.2 0.4 0.1
v 0.2 0.4 -0.1
v 0.2 0.4 -0.2
v 0.2 0.5 0.2
v 0.2 0.5 0.1
v 0.2 0.5 -0.1
v 0.2 0.5 -0.2
v -0.3 0 -0.1
v -0.3 0 -0.2
v -0.3 0.4 -0.1
v -0.3 0.4 -0.2
v -0.3 0.5 -0.1
v -0.3 0.5 -0.2
v -0.3 0.6 0.1
v -0.3 0.6 -0.1
v -0.3 0.6 -0.2
v -0.3 0.6 -0.4
v -0.3 0.7 -2.98023e-08
v -0.3 0.7 -0.1
v -0.3 0.7 -0.2
v -0.3 0.7 -0.3
v -0.3 0.9 0.1
v -0.3 0.9 -2.98023e-08
v -0.3 0.9 -0.3
v -0.3 0.9 -0.4
v -0.3 1 -0.1
v -0.3 1 -0.2
v -0.1 0.4 -0.1
v -0.1 0.4 -0.2
v -0.1 0.5 -0.1
v -0.1 0.5 -0.2
v 0 0 0.2
v 0 0 0.1
v 0 0.1 0.2
v 0 0.1 0.1
v 0 0.1 -2.98023e-08
v 0 0.2 0.2
v 0 0.2 0.1
v 0 0.2 -2.98023e-08
v 0 0.4 0.2
v 0 0.4 0.1
v 0 0.5 -0.1
v 0 0.5 -0.2
v 0 0.7 -0.1
v 0 0.7 -0.2
v 0 0.8 0.2
v 0 0.8 0.1
v 0 0.9 0.1
v 0 1 0.2
v 0 1 0.1
v 0.1 0.2 -0.2
v 0.1 0.2 -0.3
v 0.1 0.3 -0.2
v 0.1 0.5 -0.2
v 0.1 0.5 -0.3
v 0.2 0.1 -0.2
v 0.2 0.1 -0.3
v 0.2 0.2 0.1
v 0.2 0.2 -0.1
v 0.2 0.2 -0.2
v 0.2 0.2 -0.3
v 0.2 0.3 -0.1
v 0.2 0.3 -0.2
v 0.2 0.4 0.1
v 0.2 0.4 -2.98023e-08
v 0.2 0.4 -0.1
v 0.2 0.6 0.1
v 0.2 0.6 -2.98023e-08
v 0.2 0.7 -0.1
v 0.2 0.8 0.2
v 0.2 0.8 0.1
v 0.2 0.9 0.1
v 0.2 0.9 -0.1
v 0.2 1 0.2
v 0.2 1 0.1
v 0.3 0.4 0.2
v 0.3 0.4 -2.98023e-08
v 0.3 0.4 -0.1
v 0.3 0.4 -0.2
v 0.3 0.5 0.2
v 0.3 0.5 0.1
v 0.3 0.6 0.1
v 0.3 0.6 -2.98023e-08
v 0.3 0.7 -0.1
v 0.3 0.7 -0.2
v -0.1 0 0.2
v -0.1 0.1 0.2
v -0.1 0.2 0.2
v -0.1 0.4 0.2
v -0.1 0.8 0.2
v -0.1 1 0.2
v 0 0 0.2
v 0 0.1 0.2
v 0 0.2 0.2
v 0 0.4 0.2
v 0 0.8 0.2
v 0 1 0.2
v 0.1 0.8 0.2
v 0.1 1 0.2
v 0.2 0.4 0.2
v 0.2 0.5 0.2
v 0.2 0.8 0.2
v 0.2 1 0.2
v 0.3 0.4 0.2
v 0.3 0.5 0.2
v -0.4 0.6 0.1
v -0.4 0.9 0.1
v -0.3 0.6 0.1
v -0.3 0.9 0.1
v -0.1 0.1 0.1
v -0.1 0.2 0.1
v -0.1 0.4 0.1
v -0.1 0.8 0.1
v 0 0.1 0.1
v 0 0.2 0.1
v 0 0.4 0.1
v 0 0.8 0.1
v 0 0.9 0.1
v 0.1 0.8 0.1
v 0.1 0.9 0.1
v 0.2 0.2 0.1
v 0.2 0.4 0.1
v 0.2 0.5 0.1
v 0.2 0.6 0.1
v 0.2 0.8 0.1
v 0.3 0.5 0.1
v 0.3 0.6 0.1
v -0.2 0.4 -2.98023e-08
v -0.2 0.6 -2.98023e-08
v -0.1 0.4 -2.98023e-08
v -0.1 0.6 -2.98023e-08
v -0.4 0 -0.1
v -0.4 0.4 -0.1
v -0.4 0.5 -0.1
v -0.4 0.6 -0.1
v -0.4 0.7 -0.1
v -0.4 1 -0.1
v -0.3 0 -0.1
v -0.3 0.4 -0.1
v -0.3 0.5 -0.1
v -0.3 0.6 -0.1
v -0.3 0.7 -0.1
v -0.3 1 -0.1
v -0.2 0.4 -0.1
v -0.2 0.5 -0.1
v -0.2 0.6 -0.1
v -0.2 0.7 -0.1
v -0.1 0.6 -0.1
v -0.1 0.7 -0.1
v 0.2 0.4 -0.1
v 0.2 0.7 -0.1
v 0.3 0.4 -0.1
v 0.3 0.7 -0.1
v 0 0.3 -0.2
v 0 0.5 -0.2
v 0.1 0.1 -0.2
v 0.1 0.2 -0.2
v 0.1 0.3 -0.2
v 0.1 0.5 -0.2
v 0.2 0.1 -0.2
v 0.2 0.2 -0.2
v -0.4 0.7 -0.3
v -0.4 0.9 -0.3
v -0.3 0.7 -0.3
v -0.3 0.9 -0.3
v -0.1 0 0.1
v -0.1 0.1 0.1
v -0.1 0.9 0.1
v -0.1 1 0.1
v 0 0 0.1
v 0 0.1 0.1
v 0 0.9 0.1
v 0 1 0.1
v 0.1 0.9 0.1
v 0.1 1 0.1
v 0.2 0.9 0.1
v 0.2 1 0.1
v -0.4 0.7 -2.98023e-08
v -0.4 0.9 -2.98023e-08
v -0.3 0.7 -2.98023e-08
v -0.3 0.9 -2.98023e-08
v -0.1 0.1 -2.98023e-08
v -0.1 0.2 -2.98023e-08
v -0.1 0.4 -2.98023e-08
v 0 0.1 -2.98023e-08
v 0 0.2 -2.98023e-08
v 0 0.4 -2.98023e-08
v 0.2 0.4 -2.98023e-08
v 0.2 0.6 -2.98023e-08
v 0.3 0.4 -2.98023e-08
v 0.3 0.6 -2.98023e-08
v -0.1 0.4 -0.1
v -0.1 0.5 -0.1
v -0.1 0.7 -0.1
v -0.1 0.9 -0.1
v 0 0.3 -0.1
v 0 0.4 -0.1
v 0 0.5 -0.1
v 0 0.7 -0.1
v 0.1 0.3 -0.1
v 0.1 0.5 -0.1
v 0.1 0.7 -0.1
v 0.2 0.3 -0.1
v 0.2 0.4 -0.1
v 0.2 0.5 -0.1
v 0.2 0.7 -0.1
v 0.2 0.9 -0.1
v -0.4 0 -0.2
v -0.4 0.4 -0.2
v -0.4 0.5 -0.2
v -0.4 0.6 -0.2
v -0.4 0.7 -0.2
v -0.4 1 -0.2
v -0.3 0 -0.2
v -0.3 0.4 -0.2
v -0.3 0.5 -0.2
v -0.3 0.6 -0.2
v -0.3 0.7 -0.2
v -0.3 1 -0.2
v -0.2 0.4 -0.2
v -0.2 0.5 -0.2
v -0.2 0.7 -0.2
v -0.1 0.4 -0.2
v -0.1 0.5 -0.2
v 0 0.5 -0.2
v 0 0.7 -0.2
v 0.1 0.2 -0.2
v 0.1 0.3 -0.2
v 0.1 0.5 -0.2
v 0.1 0.7 -0.2
v 0.2 0.2 -0.2
v 0.2 0.3 -0.2
v 0.2 0.4 -0.2
v 0.2 0.5 -0.2
v 0.3 0.4 -0.2
v 0.3 0.7 -0.2
v 0 0.2 -0.3
v 0 0.5 -0.3
v 0.1 0.1 -0.3
v 0.1 0.2 -0.3
v 0.1 0.5 -0.3
v 0.2 0.1 -0.3
v 0.2 0.2 -0.3
v -0.4 0.6 -0.4
v -0.4 0.9 -0.4
v -0.3 0.6 -0.4
v -0.3 0.9 -0.4
v -0.1 0 0.2
v 0 0 0.2
v -0.1 0 0.1
v 0 0 0.1
v -0.4 0 -0.1
v -0.3 0 -0.1
v -0.4 0 -0.2
v -0.3 0 -0.2
v -0.1 0.1 0.1
v 0 0.1 0.1
v -0.1 0.1 -2.98023e-08
v 0 0.1 -2.98023e-08
v 0.1 0.1 -0.2
v 0.2 0.1 -0.2
v 0.1 0.1 -0.3
v 0.2 0.1 -0.3
v -0.1 0.2 0.2
v 0 0.2 0.2
v -0.1 0.2 0.1
v 0 0.2 0.1
v 0.2 0.2 0.1
v 0 0.2 -2.98023e-08
v 0 0.2 -0.1
v 0.1 0.2 -0.1
v 0.2 0.2 -0.1
v 0.1 0.2 -0.2
v 0.2 0.2 -0.2
v 0 0.2 -0.3
v 0.1 0.2 -0.3
v 0.2 0.4 0.2
v 0.3 0.4 0.2
v 0.2 0.4 0.1
v -0.2 0.4 -2.98023e-08
v -0.1 0.4 -2.98023e-08
v 0 0.4 -2.98023e-08
v 0.2 0.4 -2.98023e-08
v 0.3 0.4 -2.98023e-08
v -0.3 0.4 -0.1
v -0.2 0.4 -0.1
v -0.1 0.4 -0.1
v 0 0.4 -0.1
v 0.2 0.4 -0.1
v 0.3 0.4 -0.1
v -0.3 0.4 -0.2
v -0.2 0.4 -0.2
v -0.1 0.4 -0.2
v 0.2 0.4 -0.2
v 0.3 0.4 -0.2
v -0.1 0.5 -0.1
v 0 0.5 -0.1
v 0.1 0.5 -0.1
v 0.2 0.5 -0.1
v -0.1 0.5 -0.2
v 0 0.5 -0.2
v 0.1 0.5 -0.2
v 0.2 0.5 -0.2
v -0.4 0.6 0.1
v -0.3 0.6 0.1
v -0.4 0.6 -0.1
v -0.3 0.6 -0.1
v -0.4 0.6 -0.2
v -0.3 0.6 -0.2
v -0.4 0.6 -0.4
v -0.3 0.6 -0.4
v -0.1 0.8 0.2
v 0 0.8 0.2
v 0.1 0.8 0.2
v 0.2 0.8 0.2
v -0.1 0.8 0.1
v 0 0.8 0.1
v 0.1 0.8 0.1
v 0.2 0.8 0.1
v -0.1 0.1 0.2
v 0 0.1 0.2
v -0.1 0.1 0.1
v 0 0.1 0.1
v 0.1 0.2 -0.2
v 0.2 0.2 -0.2
v 0.1 0.2 -0.3
v 0.2 0.2 -0.3
v 0 0.3 -0.1
v 0.1 0.3 -0.1
v 0.2 0.3 -0.1
v 0 0.3 -0.2
v 0.1 0.3 -0.2
v 0.2 0.3 -0.2
v -0.1 0.4 0.2
v 0 0.4 0.2
v -0.1 0.4 0.1
v 0 0.4 0.1
v 0.2 0.5 0.2
v 0.3 0.5 0.2
v 0.2 0.5 0.1
v 0.3 0.5 0.1
v -0.3 0.5 -0.1
v -0.2 0.5 -0.1
v -0.3 0.5 -0.2
v -0.2 0.5 -0.2
v 0 0.5 -0.2
v 0.1 0.5 -0.2
v 0 0.5 -0.3
v 0.1 0.5 -0.3
v 0.2 0.6 0.1
v 0.3 0.6 0.1
v -0.2 0.6 -2.98023e-08
v -0.1 0.6 -2.98023e-08
v 0.2 0.6 -2.98023e-08
v 0.3 0.6 -2.98023e-08
v -0.2 0.6 -0.1
v -0.1 0.6 -0.1
v -0.4 0.7 -2.98023e-08
v -0.3 0.7 -2.98023e-08
v -0.4 0.7 -0.1
v -0.3 0.7 -0.1
v -0.2 0.7 -0.1
v -0.1 0.7 -0.1
v 0 0.7 -0.1
v 0.1 0.7 -0.1
v 0.2 0.7 -0.1
v 0.3 0.7 -0.1
v -0.4 0.7 -0.2
v -0.3 0.7 -0.2
v -0.2 0.7 -0.2
v 0 0.7 -0.2
v 0.1 0.7 -0.2
v 0.3 0.7 -0.2
v -0.4 0.7 -0.3
v -0.3 0.7 -0.3
v -0.4 0.9 0.1
v -0.3 0.9 0.1
v -0.1 0.9 0.1
v 0 0.9 0.1
v 0.1 0.9 0.1
v 0.2 0.9 0.1
v -0.4 0.9 -2.98023e-08
v -0.3 0.9 -2.98023e-08
v -0.1 0.9 -0.1
v 0.2 0.9 -0.1
v -0.4 0.9 -0.3
v -0.3 0.9 -0.3
v -0.4 0.9 -0.4
v -0.3 0.9 -0.4
v -0.1 1 0.2
v 0 1 0.2
v 0.1 1 0.2
v 0.2 1 0.2
v -0.1 1 0.1
v 0 1 0.1
v 0.1 1 0.1
v 0.2 1 0.1
v -0.4 1 -0.1
v -0.3 1 -0.1
v -0.4 1 -0.2
v -0.3 1 -0.2

# faces
f 3/2/1 2/2/1 1/2/1
f 4/2/1 2/2/1 3/2/1
f 5/1/1 4/1/1 3/1/1
f 6/1/1 4/1/1 5/1/1
f 8/2/1 6/2/1 5/2/1
f 9/2/1 6/2/1 8/2/1
f 11/2/1 9/2/1 8/2/1
f 11/2/1 10/2/1 9/2/1
f 11/2/1 8/2/1 7/2/1
f 12/2/1 10/2/1 11/2/1
f 13/2/1 10/2/1 12/2/1
f 14/2/1 10/2/1 13/2/1
f 15/2/1 11/2/1 7/2/1
f 16/2/1 11/2/1 15/2/1
f 17/2/1 10/2/1 14/2/1
f 18/2/1 10/2/1 17/2/1
f 19/2/1 13/2/1 12/2/1
f 20/2/1 13/2/1 19/2/1
f 23/1/1 22/1/1 21/1/1
f 25/1/1 23/1/1 21/1/1
f 26/4/1 24/4/1 23/4/1
f 26/1/1 23/1/1 25/1/1
f 27/4/1 24/4/1 26/4/1
f 28/4/1 24/4/1 27/4/1
f 31/1/1 30/1/1 29/1/1
f 32/1/1 30/1/1 31/1/1
f 35/1/1 33/1/1 32/1/1
f 36/1/1 33/1/1 35/1/1
f 37/3/1 35/3/1 34/3/1
f 37/3/1 36/3/1 35/3/1
f 38/3/1 36/3/1 37/3/1
f 39/3/1 36/3/1 38/3/1
f 40/1/1 39/1/1 38/1/1
f 42/1/1 41/1/1 40/1/1
f 44/1/1 40/1/1 38/1/1
f 44/1/1 42/1/1 40/1/1
f 45/1/1 42/1/1 44/1/1
f 45/4/1 44/4/1 43/4/1
f 46/1/1 42/1/1 45/1/1
f 47/4/1 45/4/1 43/4/1
f 48/4/1 45/4/1 47/4/1
f 52/3/1 50/3/1 49/3/1
f 52/4/1 51/4/1 50/4/1
f 53/4/1 51/4/1 52/4/1
f 54/3/1 52/3/1 49/3/1
f 55/3/1 52/3/1 54/3/1
f 56/4/1 51/4/1 53/4/1
f 57/4/1 51/4/1 56/4/1
f 60/1/1 59/1/1 58/1/1
f 61/1/1 59/1/1 60/1/1
f 64/4/1 63/4/1 62/4/1
f 65/4/1 63/4/1 64/4/1
f 68/4/1 67/4/1 66/4/1
f 69/4/1 68/4/1 66/4/1
f 70/4/1 68/4/1 69/4/1
f 75/1/1 72/1/1 71/1/1
f 76/1/1 72/1/1 75/1/1
f 77/4/1 74/4/1 73/4/1
f 78/4/1 74/4/1 77/4/1
f 79/2/2 80/2/2 81/2/2
f 81/2/2 80/2/2 82/2/2
f 83/2/2 84/2/2 86/2/2
f 86/2/2 84/2/2 87/2/2
f 86/2/2 87/2/2 89/2/2
f 87/2/2 88/2/2 89/2/2
f 85/2/2 86/2/2 89/2/2
f 89/2/2 88/2/2 90/2/2
f 90/2/2 88/2/2 91/2/2
f 91/2/2 88/2/2 92/2/2
f 85/2/2 89/2/2 93/2/2
f 93/2/2 89/2/2 94/2/2
f 92/2/2 88/2/2 95/2/2
f 95/2/2 88/2/2 96/2/2
f 90/2/2 91/2/2 97/2/2
f 97/2/2 91/2/2 98/2/2
f 99/4/2 100/4/2 101/4/2
f 101/4/2 100/4/2 102/4/2
f 103/1/2 104/1/2 105/1/2
f 105/1/2 104/1/2 106/1/2
f 106/1/2 107/1/2 109/1/2
f 109/1/2 107/1/2 110/1/2
f 108/3/2 109/3/2 111/3/2
f 111/3/2 109/3/2 112/3/2
f 113/4/2 114/4/2 115/4/2
f 115/4/2 114/4/2 116/4/2
f 117/4/2 118/4/2 119/4/2
f 117/4/2 119/4/2 120/4/2
f 120/4/2 119/4/2 121/4/2
f 122/4/2 123/4/2 124/4/2
f 124/4/2 123/4/2 125/4/2
f 125/4/2 123/4/2 126/4/2
f 127/1/2 128/1/2 131/1/2
f 131/1/2 128/1/2 132/1/2
f 129/3/2 130/3/2 133/3/2
f 130/1/2 131/1/2 133/1/2
f 133/1/2 131/1/2 134/1/2
f 129/3/2 133/3/2 135/3/2
f 135/3/2 133/3/2 136/3/2
f 136/3/2 133/3/2 137/3/2
f 136/1/2 137/1/2 139/1/2
f 139/1/2 137/1/2 140/1/2
f 138/1/2 139/1/2 140/1/2
f 138/1/2 140/1/2 142/1/2
f 142/1/2 140/1/2 143/1/2
f 141/4/2 142/4/2 143/4/2
f 143/1/2 140/1/2 144/1/2
f 141/4/2 143/4/2 145/4/2
f 145/4/2 143/4/2 146/4/2
f 147/1/2 148/1/2 151/1/2
f 151/1/2 148/1/2 152/1/2
f 152/1/2 148/1/2 153/1/2
f 153/1/2 148/1/2 154/1/2
f 149/4/2 150/4/2 155/4/2
f 155/4/2 150/4/2 156/4/2
f 163/1/3 158/1/3 157/1/3
f 164/1/3 158/1/3 163/1/3
f 165/3/3 160/3/3 159/3/3
f 166/3/3 160/3/3 165/3/3
f 167/4/3 162/4/3 161/4/3
f 168/4/3 162/4/3 167/4/3
f 173/4/3 170/4/3 169/4/3
f 174/4/3 170/4/3 173/4/3
f 175/1/3 172/1/3 171/1/3
f 176/1/3 172/1/3 175/1/3
f 179/2/3 178/2/3 177/2/3
f 180/2/3 178/2/3 179/2/3
f 185/1/3 182/1/3 181/1/3
f 186/1/3 182/1/3 185/1/3
f 187/1/3 184/1/3 183/1/3
f 188/1/3 184/1/3 187/1/3
f 190/1/3 189/1/3 188/1/3
f 190/1/3 188/1/3 187/1/3
f 191/1/3 189/1/3 190/1/3
f 192/3/3 187/3/3 186/3/3
f 193/1/3 190/1/3 187/1/3
f 193/3/3 187/3/3 192/3/3
f 194/1/3 190/1/3 193/1/3
f 195/1/3 190/1/3 194/1/3
f 196/1/3 190/1/3 195/1/3
f 197/1/3 195/1/3 194/1/3
f 198/1/3 195/1/3 197/1/3
f 201/1/3 200/1/3 199/1/3
f 202/1/3 200/1/3 201/1/3
f 209/2/3 204/2/3 203/2/3
f 210/1/3 205/1/3 204/1/3
f 210/2/3 204/2/3 209/2/3
f 211/2/3 206/2/3 205/2/3
f 211/1/3 205/1/3 210/1/3
f 212/2/3 206/2/3 211/2/3
f 213/2/3 208/2/3 207/2/3
f 214/2/3 208/2/3 213/2/3
f 215/1/3 211/1/3 210/1/3
f 216/1/3 211/1/3 215/1/3
f 219/4/3 218/4/3 217/4/3
f 220/4/3 218/4/3 219/4/3
f 223/4/3 222/4/3 221/4/3
f 224/4/3 222/4/3 223/4/3
f 229/4/3 226/4/3 225/4/3
f 230/4/3 226/4/3 229/4/3
f 231/1/3 228/1/3 227/1/3
f 232/1/3 228/1/3 231/1/3
f 235/2/3 234/2/3 233/2/3
f 236/2/3 234/2/3 235/2/3
f 237/1/4 238/1/4 241/1/4
f 241/1/4 238/1/4 242/1/4
f 239/4/4 240/4/4 243/4/4
f 243/4/4 240/4/4 244/4/4
f 245/4/4 246/4/4 247/4/4
f 247/4/4 246/4/4 248/4/4
f 249/2/4 250/2/4 251/2/4
f 251/2/4 250/2/4 252/2/4
f 253/1/4 254/1/4 256/1/4
f 254/3/4 255/3/4 257/3/4
f 256/1/4 254/1/4 257/1/4
f 257/3/4 255/3/4 258/3/4
f 259/1/4 260/1/4 261/1/4
f 261/1/4 260/1/4 262/1/4
f 263/1/4 264/1/4 268/1/4
f 268/1/4 264/1/4 269/1/4
f 265/1/4 266/1/4 270/1/4
f 267/3/4 268/3/4 271/3/4
f 268/1/4 269/1/4 272/1/4
f 269/1/4 270/1/4 272/1/4
f 270/1/4 266/1/4 273/1/4
f 272/1/4 270/1/4 273/1/4
f 271/3/4 268/3/4 274/3/4
f 268/1/4 272/1/4 275/1/4
f 274/3/4 268/3/4 275/3/4
f 275/1/4 272/1/4 276/1/4
f 273/1/4 266/1/4 277/1/4
f 277/1/4 266/1/4 278/1/4
f 279/2/4 280/2/4 285/2/4
f 280/1/4 281/1/4 286/1/4
f 285/2/4 280/2/4 286/2/4
f 281/2/4 282/2/4 287/2/4
f 286/1/4 281/1/4 287/1/4
f 287/2/4 282/2/4 288/2/4
f 283/2/4 284/2/4 289/2/4
f 289/2/4 284/2/4 290/2/4
f 286/1/4 287/1/4 291/1/4
f 291/1/4 287/1/4 292/1/4
f 291/4/4 292/4/4 294/4/4
f 292/4/4 293/4/4 294/4/4
f 294/4/4 293/4/4 295/4/4
f 295/4/4 293/4/4 296/4/4
f 296/4/4 293/4/4 297/4/4
f 298/1/4 299/1/4 302/1/4
f 302/1/4 299/1/4 303/1/4
f 300/4/4 301/4/4 305/4/4
f 304/4/4 305/4/4 306/4/4
f 305/4/4 301/4/4 307/4/4
f 306/4/4 305/4/4 307/4/4
f 308/4/4 309/4/4 311/4/4
f 311/4/4 309/4/4 312/4/4
f 310/1/4 311/1/4 313/1/4
f 313/1/4 311/1/4 314/1/4
f 315/2/4 316/2/4 317/2/4
f 317/2/4 316/2/4 318/2/4
f 321/1/5 320/1/5 319/1/5
f 322/1/5 320/1/5 321/1/5
f 325/2/5 324/2/5 323/2/5
f 326/2/5 324/2/5 325/2/5
f 329/1/5 328/1/5 327/1/5
f 330/1/5 328/1/5 329/1/5
f 333/1/5 332/1/5 331/1/5
f 334/1/5 332/1/5 333/1/5
f 337/3/5 336/3/5 335/3/5
f 338/3/5 336/3/5 337/3/5
f 340/3/5 339/3/5 338/3/5
f 341/3/5 339/3/5 340/3/5
f 342/3/5 339/3/5 341/3/5
f 343/3/5 339/3/5 342/3/5
f 344/4/5 342/4/5 341/4/5
f 344/1/5 343/1/5 342/1/5
f 345/1/5 343/1/5 344/1/5
f 346/4/5 344/4/5 341/4/5
f 347/4/5 344/4/5 346/4/5
f 350/1/5 349/1/5 348/1/5
f 354/1/5 349/1/5 350/1/5
f 355/1/5 349/1/5 354/1/5
f 357/1/5 353/1/5 352/1/5
f 357/1/5 352/1/5 351/1/5
f 358/1/5 353/1/5 357/1/5
f 359/1/5 353/1/5 358/1/5
f 362/1/5 357/1/5 356/1/5
f 363/4/5 358/4/5 357/4/5
f 363/1/5 357/1/5 362/1/5
f 364/4/5 358/4/5 363/4/5
f 365/4/5 361/4/5 360/4/5
f 366/4/5 361/4/5 365/4/5
f 371/4/5 368/4/5 367/4/5
f 372/4/5 368/4/5 371/4/5
f 373/4/5 370/4/5 369/4/5
f 374/4/5 370/4/5 373/4/5
f 377/2/5 376/2/5 375/2/5
f 378/2/5 376/2/5 377/2/5
f 381/2/5 380/2/5 379/2/5
f 382/2/5 380/2/5 381/2/5
f 387/4/5 384/4/5 383/4/5
f 388/4/5 384/4/5 387/4/5
f 389/4/5 386/4/5 385/4/5
f 390/4/5 386/4/5 389/4/5
f 391/1/6 392/1/6 393/1/6
f 393/1/6 392/1/6 394/1/6
f 395/1/6 396/1/6 397/1/6
f 397/1/6 396/1/6 398/1/6
f 399/4/6 400/4/6 402/4/6
f 400/1/6 401/1/6 403/1/6
f 402/4/6 400/4/6 403/4/6
f 403/1/6 401/1/6 404/1/6
f 405/3/6 406/3/6 407/3/6
f 407/3/6 406/3/6 408/3/6
f 409/1/6 410/1/6 411/1/6
f 411/1/6 410/1/6 412/1/6
f 413/1/6 414/1/6 415/1/6
f 415/1/6 414/1/6 416/1/6
f 417/4/6 418/4/6 419/4/6
f 419/4/6 418/4/6 420/4/6
f 421/1/6 422/1/6 425/1/6
f 425/1/6 422/1/6 426/1/6
f 423/1/6 424/1/6 427/1/6
f 427/1/6 424/1/6 428/1/6
f 429/2/6 430/2/6 431/2/6
f 431/2/6 430/2/6 432/2/6
f 433/4/6 434/4/6 441/4/6
f 434/4/6 435/4/6 441/4/6
f 441/4/6 435/4/6 442/4/6
f 437/4/6 438/4/6 443/4/6
f 436/4/6 437/4/6 443/4/6
f 443/4/6 438/4/6 444/4/6
f 439/2/6 440/2/6 445/2/6
f 445/2/6 440/2/6 446/2/6
f 447/2/6 448/2/6 453/2/6
f 453/2/6 448/2/6 454/2/6
f 451/1/6 452/1/6 455/1/6
f 449/1/6 450/1/6 455/1/6
f 450/1/6 451/1/6 455/1/6
f 455/1/6 452/1/6 456/1/6
f 457/2/6 458/2/6 459/2/6
f 459/2/6 458/2/6 460/2/6
f 461/4/6 462/4/6 465/4/6
f 465/4/6 462/4/6 466/4/6
f 463/4/6 464/4/6 467/4/6
f 467/4/6 464/4/6 468/4/6
f 469/2/6 470/2/6 471/2/6
f 471/2/6 470/2/6 472/2/6
