# MagicaVoxel @ Ephtracy

# group
o 

# material
mtllib imp_action_0.mtl
usemtl palette

# normals
vn -1 0 0
vn 1 0 0
vn 0 0 1
vn 0 0 -1
vn 0 -1 0
vn 0 1 0

# texcoords
vt 0.751953 0.5
vt 0.787109 0.5
vt 0.814453 0.5
vt 0.978516 0.5

# verts
v -0.3 0.2 0.4
v -0.3 0.2 0.1
v -0.3 0.3 0.4
v -0.3 0.3 0.2
v -0.3 0.4 0.5
v -0.3 0.4 0.2
v -0.3 0.4 0.1
v -0.3 0.4 -5.96046e-08
v -0.3 0.4 -0.2
v -0.3 0.4 -0.3
v -0.3 0.4 -0.5
v -0.3 0.5 0.5
v -0.3 0.5 0.2
v -0.3 0.5 0.1
v -0.3 0.5 -5.96046e-08
v -0.3 0.5 -0.2
v -0.3 0.5 -0.3
v -0.3 0.5 -0.5
v -0.3 0.6 0.4
v -0.3 0.6 0.2
v -0.3 0.7 0.4
v -0.3 0.7 0.1
v -0.2 0.6 -5.96046e-08
v -0.2 0.6 -0.2
v -0.2 0.8 0.1
v -0.2 0.8 -5.96046e-08
v -0.2 0.9 -5.96046e-08
v -0.2 0.9 -0.2
v -0.2 1 0.1
v -0.2 1 -5.96046e-08
v -0.1 0 -0.2
v -0.1 0 -0.3
v -0.1 0.1 -0.2
v -0.1 0.1 -0.3
v -0.1 0.2 -5.96046e-08
v -0.1 0.2 -0.3
v -0.1 0.4 -5.96046e-08
v -0.1 0.4 -0.2
v -0.1 0.4 -0.3
v -0.1 0.5 -5.96046e-08
v -0.1 0.5 -0.2
v -0.1 0.5 -0.3
v -0.1 0.6 -5.96046e-08
v -0.1 0.6 -0.2
v -0.1 0.6 -0.3
v 2.98023e-08 0.1 0.1
v 2.98023e-08 0.1 -5.96046e-08
v 2.98023e-08 0.1 -0.2
v 2.98023e-08 0.1 -0.3
v 2.98023e-08 0.2 0.1
v 2.98023e-08 0.2 -5.96046e-08
v 2.98023e-08 0.2 -0.2
v 2.98023e-08 0.2 -0.3
v 2.98023e-08 0.5 0.1
v 2.98023e-08 0.5 -5.96046e-08
v 2.98023e-08 0.6 0.1
v 2.98023e-08 0.6 -5.96046e-08
v 2.98023e-08 0.8 0.1
v 2.98023e-08 0.8 -5.96046e-08
v 2.98023e-08 0.9 -5.96046e-08
v 2.98023e-08 1 0.1
v 2.98023e-08 1 -5.96046e-08
v 0.1 0.4 -0.3
v 0.1 0.4 -0.4
v 0.1 0.6 0.1
v 0.1 0.6 -5.96046e-08
v 0.1 0.6 -0.2
v 0.1 0.6 -0.3
v 0.1 0.7 0.1
v 0.1 0.7 -5.96046e-08
v 0.1 0.7 -0.2
v 0.1 0.7 -0.4
v 0.2 0.3 -0.1
v 0.2 0.3 -0.2
v 0.2 0.5 -0.1
v 0.2 0.5 -0.2
v -0.2 0.2 0.4
v -0.2 0.2 0.1
v -0.2 0.3 0.4
v -0.2 0.3 0.2
v -0.2 0.4 0.5
v -0.2 0.4 0.2
v -0.2 0.4 0.1
v -0.2 0.4 -5.96046e-08
v -0.2 0.4 -0.2
v -0.2 0.4 -0.3
v -0.2 0.4 -0.5
v -0.2 0.5 0.5
v -0.2 0.5 0.2
v -0.2 0.5 0.1
v -0.2 0.5 -5.96046e-08
v -0.2 0.5 -0.2
v -0.2 0.5 -0.3
v -0.2 0.5 -0.5
v -0.2 0.6 0.4
v -0.2 0.6 0.2
v -0.2 0.7 0.4
v -0.2 0.7 0.1
v -0.1 0.8 0.1
v -0.1 0.8 -5.96046e-08
v -0.1 0.9 -5.96046e-08
v -0.1 1 0.1
v -0.1 1 -5.96046e-08
v 2.98023e-08 0 -0.2
v 2.98023e-08 0 -0.3
v 2.98023e-08 0.1 -0.2
v 2.98023e-08 0.1 -0.3
v 0.1 0.1 0.1
v 0.1 0.1 -5.96046e-08
v 0.1 0.1 -0.2
v 0.1 0.1 -0.3
v 0.1 0.2 0.1
v 0.1 0.2 -5.96046e-08
v 0.1 0.2 -0.1
v 0.1 0.2 -0.2
v 0.1 0.2 -0.3
v 0.1 0.3 -5.96046e-08
v 0.1 0.3 -0.1
v 0.1 0.3 -0.2
v 0.1 0.4 -5.96046e-08
v 0.1 0.4 -0.3
v 0.1 0.5 -5.96046e-08
v 0.1 0.5 -0.1
v 0.1 0.5 -0.2
v 0.1 0.5 -0.3
v 0.1 0.7 -5.96046e-08
v 0.1 0.7 -0.1
v 0.1 0.7 -0.2
v 0.1 0.8 0.1
v 0.1 0.8 -5.96046e-08
v 0.1 0.9 -5.96046e-08
v 0.1 0.9 -0.2
v 0.1 1 0.1
v 0.1 1 -5.96046e-08
v 0.2 0.4 0.1
v 0.2 0.4 -5.96046e-08
v 0.2 0.4 -0.3
v 0.2 0.4 -0.4
v 0.2 0.5 -5.96046e-08
v 0.2 0.5 -0.1
v 0.2 0.5 -0.2
v 0.2 0.5 -0.3
v 0.2 0.7 0.1
v 0.2 0.7 -0.1
v 0.2 0.7 -0.2
v 0.2 0.7 -0.4
v 0.3 0.2 -0.1
v 0.3 0.2 -0.2
v 0.3 0.5 -0.1
v 0.3 0.5 -0.2
v -0.3 0.4 0.5
v -0.3 0.5 0.5
v -0.2 0.4 0.5
v -0.2 0.5 0.5
v -0.3 0.2 0.4
v -0.3 0.3 0.4
v -0.3 0.6 0.4
v -0.3 0.7 0.4
v -0.2 0.2 0.4
v -0.2 0.3 0.4
v -0.2 0.6 0.4
v -0.2 0.7 0.4
v -0.3 0.3 0.2
v -0.3 0.4 0.2
v -0.3 0.5 0.2
v -0.3 0.6 0.2
v -0.2 0.3 0.2
v -0.2 0.4 0.2
v -0.2 0.5 0.2
v -0.2 0.6 0.2
v -0.2 0.4 0.1
v -0.2 0.5 0.1
v -0.2 0.8 0.1
v -0.2 1 0.1
v -0.1 0.8 0.1
v -0.1 1 0.1
v 2.98023e-08 0.1 0.1
v 2.98023e-08 0.2 0.1
v 2.98023e-08 0.5 0.1
v 2.98023e-08 0.6 0.1
v 2.98023e-08 0.8 0.1
v 2.98023e-08 1 0.1
v 0.1 0.1 0.1
v 0.1 0.2 0.1
v 0.1 0.4 0.1
v 0.1 0.6 0.1
v 0.1 0.7 0.1
v 0.1 0.8 0.1
v 0.1 1 0.1
v 0.2 0.4 0.1
v 0.2 0.7 0.1
v -0.2 0.6 -5.96046e-08
v -0.2 0.8 -5.96046e-08
v -0.1 0.2 -5.96046e-08
v -0.1 0.4 -5.96046e-08
v -0.1 0.5 -5.96046e-08
v -0.1 0.6 -5.96046e-08
v -0.1 0.8 -5.96046e-08
v -0.1 0.9 -5.96046e-08
v 2.98023e-08 0.2 -5.96046e-08
v 2.98023e-08 0.3 -5.96046e-08
v 2.98023e-08 0.5 -5.96046e-08
v 2.98023e-08 0.6 -5.96046e-08
v 2.98023e-08 0.8 -5.96046e-08
v 2.98023e-08 0.9 -5.96046e-08
v 0.1 0.2 -5.96046e-08
v 0.1 0.3 -5.96046e-08
v 0.1 0.4 -5.96046e-08
v 0.1 0.6 -5.96046e-08
v 0.1 0.7 -5.96046e-08
v 0.1 0.8 -5.96046e-08
v 0.1 0.2 -0.1
v 0.1 0.3 -0.1
v 0.2 0.3 -0.1
v 0.2 0.5 -0.1
v 0.3 0.2 -0.1
v 0.3 0.5 -0.1
v -0.2 0.4 -0.2
v -0.2 0.5 -0.2
v -0.1 0 -0.2
v -0.1 0.1 -0.2
v -0.1 0.4 -0.2
v -0.1 0.5 -0.2
v 2.98023e-08 0 -0.2
v 2.98023e-08 0.1 -0.2
v 2.98023e-08 0.2 -0.2
v 0.1 0.1 -0.2
v 0.1 0.2 -0.2
v 0.1 0.5 -0.2
v 0.1 0.7 -0.2
v 0.2 0.5 -0.2
v 0.2 0.7 -0.2
v 0.1 0.4 -0.3
v 0.1 0.5 -0.3
v 0.2 0.4 -0.3
v 0.2 0.5 -0.3
v -0.3 0.2 0.1
v -0.3 0.4 0.1
v -0.3 0.5 0.1
v -0.3 0.7 0.1
v -0.2 0.2 0.1
v -0.2 0.4 0.1
v -0.2 0.5 0.1
v -0.2 0.7 0.1
v -0.2 0.4 -5.96046e-08
v -0.2 0.5 -5.96046e-08
v -0.2 0.9 -5.96046e-08
v -0.2 1 -5.96046e-08
v -0.1 0.4 -5.96046e-08
v -0.1 0.5 -5.96046e-08
v -0.1 0.9 -5.96046e-08
v -0.1 1 -5.96046e-08
v 2.98023e-08 0.1 -5.96046e-08
v 2.98023e-08 0.2 -5.96046e-08
v 2.98023e-08 0.9 -5.96046e-08
v 2.98023e-08 1 -5.96046e-08
v 0.1 0.1 -5.96046e-08
v 0.1 0.2 -5.96046e-08
v 0.1 0.4 -5.96046e-08
v 0.1 0.5 -5.96046e-08
v 0.1 0.9 -5.96046e-08
v 0.1 1 -5.96046e-08
v 0.2 0.4 -5.96046e-08
v 0.2 0.5 -5.96046e-08
v 0.1 0.5 -0.1
v 0.1 0.7 -0.1
v 0.2 0.5 -0.1
v 0.2 0.7 -0.1
v -0.2 0.6 -0.2
v -0.2 0.9 -0.2
v -0.1 0.6 -0.2
v 0.1 0.2 -0.2
v 0.1 0.3 -0.2
v 0.1 0.6 -0.2
v 0.1 0.7 -0.2
v 0.1 0.9 -0.2
v 0.2 0.3 -0.2
v 0.2 0.5 -0.2
v 0.3 0.2 -0.2
v 0.3 0.5 -0.2
v -0.2 0.4 -0.3
v -0.2 0.5 -0.3
v -0.1 0 -0.3
v -0.1 0.1 -0.3
v -0.1 0.2 -0.3
v -0.1 0.4 -0.3
v -0.1 0.5 -0.3
v -0.1 0.6 -0.3
v 2.98023e-08 0 -0.3
v 2.98023e-08 0.1 -0.3
v 2.98023e-08 0.2 -0.3
v 0.1 0.1 -0.3
v 0.1 0.2 -0.3
v 0.1 0.4 -0.3
v 0.1 0.6 -0.3
v 0.1 0.4 -0.4
v 0.1 0.7 -0.4
v 0.2 0.4 -0.4
v 0.2 0.7 -0.4
v -0.3 0.4 -0.5
v -0.3 0.5 -0.5
v -0.2 0.4 -0.5
v -0.2 0.5 -0.5
v -0.1 0 -0.2
v 2.98023e-08 0 -0.2
v -0.1 0 -0.3
v 2.98023e-08 0 -0.3
v 2.98023e-08 0.1 0.1
v 0.1 0.1 0.1
v 2.98023e-08 0.1 -5.96046e-08
v 0.1 0.1 -5.96046e-08
v 2.98023e-08 0.1 -0.2
v 0.1 0.1 -0.2
v 2.98023e-08 0.1 -0.3
v 0.1 0.1 -0.3
v -0.3 0.2 0.4
v -0.2 0.2 0.4
v -0.3 0.2 0.1
v -0.2 0.2 0.1
v -0.1 0.2 -5.96046e-08
v 2.98023e-08 0.2 -5.96046e-08
v 0.1 0.2 -5.96046e-08
v 2.98023e-08 0.2 -0.1
v 0.1 0.2 -0.1
v 0.3 0.2 -0.1
v 2.98023e-08 0.2 -0.2
v 0.1 0.2 -0.2
v 0.3 0.2 -0.2
v -0.1 0.2 -0.3
v 2.98023e-08 0.2 -0.3
v -0.3 0.4 0.5
v -0.2 0.4 0.5
v -0.3 0.4 0.2
v -0.2 0.4 0.2
v -0.3 0.4 0.1
v -0.2 0.4 0.1
v 0.1 0.4 0.1
v 0.2 0.4 0.1
v -0.3 0.4 -5.96046e-08
v -0.2 0.4 -5.96046e-08
v -0.1 0.4 -5.96046e-08
v 0.1 0.4 -5.96046e-08
v 0.2 0.4 -5.96046e-08
v -0.3 0.4 -0.2
v -0.2 0.4 -0.2
v -0.1 0.4 -0.2
v -0.3 0.4 -0.3
v -0.2 0.4 -0.3
v -0.1 0.4 -0.3
v 0.1 0.4 -0.3
v 0.2 0.4 -0.3
v 0.1 0.4 -0.4
v 0.2 0.4 -0.4
v -0.3 0.4 -0.5
v -0.2 0.4 -0.5
v 0.1 0.5 -5.96046e-08
v 0.2 0.5 -5.96046e-08
v 0.1 0.5 -0.1
v 0.2 0.5 -0.1
v 0.1 0.5 -0.2
v 0.2 0.5 -0.2
v 0.1 0.5 -0.3
v 0.2 0.5 -0.3
v -0.3 0.6 0.4
v -0.2 0.6 0.4
v -0.3 0.6 0.2
v -0.2 0.6 0.2
v -0.2 0.6 -5.96046e-08
v -0.1 0.6 -5.96046e-08
v -0.2 0.6 -0.2
v -0.1 0.6 -0.2
v -0.2 0.8 0.1
v -0.1 0.8 0.1
v 2.98023e-08 0.8 0.1
v 0.1 0.8 0.1
v -0.2 0.8 -5.96046e-08
v -0.1 0.8 -5.96046e-08
v 2.98023e-08 0.8 -5.96046e-08
v 0.1 0.8 -5.96046e-08
v -0.1 0.1 -0.2
v 2.98023e-08 0.1 -0.2
v -0.1 0.1 -0.3
v 2.98023e-08 0.1 -0.3
v 2.98023e-08 0.2 0.1
v 0.1 0.2 0.1
v 2.98023e-08 0.2 -5.96046e-08
v 0.1 0.2 -5.96046e-08
v -0.3 0.3 0.4
v -0.2 0.3 0.4
v -0.3 0.3 0.2
v -0.2 0.3 0.2
v 0.1 0.3 -0.1
v 0.2 0.3 -0.1
v 0.1 0.3 -0.2
v 0.2 0.3 -0.2
v -0.3 0.5 0.5
v -0.2 0.5 0.5
v -0.3 0.5 0.2
v -0.2 0.5 0.2
v -0.3 0.5 0.1
v -0.2 0.5 0.1
v 2.98023e-08 0.5 0.1
v -0.3 0.5 -5.96046e-08
v -0.2 0.5 -5.96046e-08
v -0.1 0.5 -5.96046e-08
v 2.98023e-08 0.5 -5.96046e-08
v 0.2 0.5 -0.1
v 0.3 0.5 -0.1
v -0.3 0.5 -0.2
v -0.2 0.5 -0.2
v -0.1 0.5 -0.2
v 0.2 0.5 -0.2
v 0.3 0.5 -0.2
v -0.3 0.5 -0.3
v -0.2 0.5 -0.3
v -0.1 0.5 -0.3
v -0.3 0.5 -0.5
v -0.2 0.5 -0.5
v 2.98023e-08 0.6 0.1
v 0.1 0.6 0.1
v 2.98023e-08 0.6 -5.96046e-08
v 0.1 0.6 -5.96046e-08
v -0.1 0.6 -0.2
v 0.1 0.6 -0.2
v -0.1 0.6 -0.3
v 0.1 0.6 -0.3
v -0.3 0.7 0.4
v -0.2 0.7 0.4
v -0.3 0.7 0.1
v -0.2 0.7 0.1
v 0.1 0.7 0.1
v 0.2 0.7 0.1
v 0.1 0.7 -5.96046e-08
v 0.1 0.7 -0.1
v 0.2 0.7 -0.1
v 0.1 0.7 -0.2
v 0.2 0.7 -0.2
v 0.1 0.7 -0.4
v 0.2 0.7 -0.4
v -0.2 0.9 -5.96046e-08
v -0.1 0.9 -5.96046e-08
v 2.98023e-08 0.9 -5.96046e-08
v 0.1 0.9 -5.96046e-08
v -0.2 0.9 -0.2
v 0.1 0.9 -0.2
v -0.2 1 0.1
v -0.1 1 0.1
v 2.98023e-08 1 0.1
v 0.1 1 0.1
v -0.2 1 -5.96046e-08
v -0.1 1 -5.96046e-08
v 2.98023e-08 1 -5.96046e-08
v 0.1 1 -5.96046e-08

# faces
f 3/2/1 2/2/1 1/2/1
f 4/2/1 2/2/1 3/2/1
f 6/2/1 2/2/1 4/2/1
f 7/2/1 2/2/1 6/2/1
f 12/2/1 6/2/1 5/2/1
f 12/2/1 7/2/1 6/2/1
f 13/2/1 7/2/1 12/2/1
f 14/1/1 8/1/1 7/1/1
f 14/2/1 7/2/1 13/2/1
f 15/2/1 9/2/1 8/2/1
f 15/1/1 8/1/1 14/1/1
f 16/1/1 10/1/1 9/1/1
f 16/2/1 9/2/1 15/2/1
f 17/2/1 11/2/1 10/2/1
f 17/1/1 10/1/1 16/1/1
f 18/2/1 11/2/1 17/2/1
f 20/2/1 14/2/1 13/2/1
f 21/2/1 20/2/1 19/2/1
f 22/2/1 14/2/1 20/2/1
f 22/2/1 20/2/1 21/2/1
f 26/1/1 24/1/1 23/1/1
f 27/1/1 24/1/1 26/1/1
f 27/4/1 26/4/1 25/4/1
f 28/1/1 24/1/1 27/1/1
f 29/4/1 27/4/1 25/4/1
f 30/4/1 27/4/1 29/4/1
f 33/1/1 32/1/1 31/1/1
f 34/1/1 32/1/1 33/1/1
f 37/3/1 36/3/1 35/3/1
f 38/3/1 36/3/1 37/3/1
f 39/3/1 36/3/1 38/3/1
f 40/1/1 38/1/1 37/1/1
f 41/1/1 38/1/1 40/1/1
f 43/1/1 41/1/1 40/1/1
f 43/1/1 42/1/1 41/1/1
f 44/1/1 42/1/1 43/1/1
f 45/1/1 42/1/1 44/1/1
f 50/1/1 47/1/1 46/1/1
f 51/1/1 47/1/1 50/1/1
f 52/1/1 49/1/1 48/1/1
f 53/1/1 49/1/1 52/1/1
f 56/1/1 55/1/1 54/1/1
f 57/1/1 55/1/1 56/1/1
f 60/4/1 59/4/1 58/4/1
f 61/4/1 60/4/1 58/4/1
f 62/4/1 60/4/1 61/4/1
f 68/4/1 64/4/1 63/4/1
f 69/4/1 66/4/1 65/4/1
f 70/4/1 66/4/1 69/4/1
f 71/4/1 68/4/1 67/4/1
f 72/4/1 64/4/1 68/4/1
f 72/4/1 68/4/1 71/4/1
f 75/4/1 74/4/1 73/4/1
f 76/4/1 74/4/1 75/4/1
f 77/2/2 78/2/2 79/2/2
f 79/2/2 78/2/2 80/2/2
f 80/2/2 78/2/2 82/2/2
f 82/2/2 78/2/2 83/2/2
f 81/2/2 82/2/2 88/2/2
f 82/2/2 83/2/2 88/2/2
f 88/2/2 83/2/2 89/2/2
f 89/2/2 83/2/2 90/2/2
f 84/2/2 85/2/2 91/2/2
f 91/2/2 85/2/2 92/2/2
f 86/2/2 87/2/2 93/2/2
f 93/2/2 87/2/2 94/2/2
f 89/2/2 90/2/2 96/2/2
f 95/2/2 96/2/2 97/2/2
f 96/2/2 90/2/2 98/2/2
f 97/2/2 96/2/2 98/2/2
f 99/4/2 100/4/2 101/4/2
f 99/4/2 101/4/2 102/4/2
f 102/4/2 101/4/2 103/4/2
f 104/1/2 105/1/2 106/1/2
f 106/1/2 105/1/2 107/1/2
f 108/1/2 109/1/2 112/1/2
f 112/1/2 109/1/2 113/1/2
f 110/1/2 111/1/2 115/1/2
f 115/1/2 111/1/2 116/1/2
f 113/1/2 114/1/2 117/1/2
f 117/1/2 114/1/2 118/1/2
f 115/3/2 116/3/2 119/3/2
f 117/3/2 118/3/2 120/3/2
f 118/3/2 119/3/2 120/3/2
f 119/3/2 116/3/2 121/3/2
f 120/3/2 119/3/2 121/3/2
f 120/1/2 121/1/2 122/1/2
f 122/1/2 121/1/2 123/1/2
f 123/1/2 121/1/2 124/1/2
f 124/1/2 121/1/2 125/1/2
f 123/1/2 124/1/2 127/1/2
f 127/1/2 124/1/2 128/1/2
f 126/1/2 127/1/2 130/1/2
f 127/1/2 128/1/2 130/1/2
f 130/1/2 128/1/2 131/1/2
f 129/4/2 130/4/2 131/4/2
f 131/1/2 128/1/2 132/1/2
f 129/4/2 131/4/2 133/4/2
f 133/4/2 131/4/2 134/4/2
f 135/4/2 136/4/2 139/4/2
f 137/4/2 138/4/2 142/4/2
f 139/4/2 140/4/2 143/4/2
f 135/4/2 139/4/2 143/4/2
f 143/4/2 140/4/2 144/4/2
f 141/4/2 142/4/2 145/4/2
f 142/4/2 138/4/2 146/4/2
f 145/4/2 142/4/2 146/4/2
f 147/4/2 148/4/2 149/4/2
f 149/4/2 148/4/2 150/4/2
f 153/2/3 152/2/3 151/2/3
f 154/2/3 152/2/3 153/2/3
f 159/2/3 156/2/3 155/2/3
f 160/2/3 156/2/3 159/2/3
f 161/2/3 158/2/3 157/2/3
f 162/2/3 158/2/3 161/2/3
f 167/2/3 164/2/3 163/2/3
f 168/2/3 164/2/3 167/2/3
f 169/2/3 166/2/3 165/2/3
f 170/2/3 166/2/3 169/2/3
f 175/4/3 174/4/3 173/4/3
f 176/4/3 174/4/3 175/4/3
f 179/1/3 172/1/3 171/1/3
f 183/1/3 178/1/3 177/1/3
f 184/1/3 178/1/3 183/1/3
f 185/1/3 179/1/3 171/1/3
f 185/1/3 180/1/3 179/1/3
f 186/1/3 180/1/3 185/1/3
f 188/4/3 182/4/3 181/4/3
f 189/4/3 182/4/3 188/4/3
f 190/4/3 187/4/3 186/4/3
f 190/4/3 186/4/3 185/4/3
f 191/4/3 187/4/3 190/4/3
f 197/1/3 193/1/3 192/1/3
f 198/1/3 193/1/3 197/1/3
f 200/3/3 195/3/3 194/3/3
f 201/3/3 195/3/3 200/3/3
f 202/1/3 199/1/3 198/1/3
f 202/1/3 197/1/3 196/1/3
f 202/1/3 198/1/3 197/1/3
f 203/1/3 199/1/3 202/1/3
f 204/1/3 199/1/3 203/1/3
f 205/1/3 199/1/3 204/1/3
f 206/1/3 201/1/3 200/1/3
f 207/3/3 195/3/3 201/3/3
f 207/1/3 201/1/3 206/1/3
f 208/3/3 195/3/3 207/3/3
f 209/1/3 204/1/3 203/1/3
f 210/1/3 204/1/3 209/1/3
f 211/1/3 204/1/3 210/1/3
f 214/4/3 213/4/3 212/4/3
f 216/4/3 214/4/3 212/4/3
f 216/4/3 215/4/3 214/4/3
f 217/4/3 215/4/3 216/4/3
f 222/1/3 219/1/3 218/1/3
f 223/1/3 219/1/3 222/1/3
f 224/1/3 221/1/3 220/1/3
f 225/1/3 221/1/3 224/1/3
f 227/1/3 226/1/3 225/1/3
f 228/1/3 226/1/3 227/1/3
f 231/4/3 230/4/3 229/4/3
f 232/4/3 230/4/3 231/4/3
f 235/4/3 234/4/3 233/4/3
f 236/4/3 234/4/3 235/4/3
f 237/2/4 238/2/4 241/2/4
f 241/2/4 238/2/4 242/2/4
f 239/2/4 240/2/4 243/2/4
f 243/2/4 240/2/4 244/2/4
f 245/1/4 246/1/4 249/1/4
f 249/1/4 246/1/4 250/1/4
f 247/4/4 248/4/4 251/4/4
f 251/4/4 248/4/4 252/4/4
f 253/1/4 254/1/4 257/1/4
f 257/1/4 254/1/4 258/1/4
f 255/4/4 256/4/4 261/4/4
f 261/4/4 256/4/4 262/4/4
f 259/4/4 260/4/4 263/4/4
f 263/4/4 260/4/4 264/4/4
f 265/4/4 266/4/4 267/4/4
f 267/4/4 266/4/4 268/4/4
f 269/1/4 270/1/4 271/1/4
f 271/1/4 270/1/4 274/1/4
f 274/1/4 270/1/4 275/1/4
f 275/1/4 270/1/4 276/1/4
f 272/4/4 273/4/4 277/4/4
f 272/4/4 277/4/4 279/4/4
f 277/4/4 278/4/4 279/4/4
f 279/4/4 278/4/4 280/4/4
f 281/1/4 282/1/4 286/1/4
f 286/1/4 282/1/4 287/1/4
f 283/1/4 284/1/4 289/1/4
f 289/1/4 284/1/4 290/1/4
f 285/3/4 286/3/4 291/3/4
f 290/1/4 291/1/4 292/1/4
f 291/3/4 286/3/4 293/3/4
f 292/1/4 291/1/4 293/1/4
f 287/1/4 288/1/4 294/1/4
f 293/3/4 286/3/4 294/3/4
f 286/1/4 287/1/4 294/1/4
f 294/1/4 288/1/4 295/1/4
f 296/4/4 297/4/4 298/4/4
f 298/4/4 297/4/4 299/4/4
f 300/2/4 301/2/4 302/2/4
f 302/2/4 301/2/4 303/2/4
f 306/1/5 305/1/5 304/1/5
f 307/1/5 305/1/5 306/1/5
f 310/1/5 309/1/5 308/1/5
f 311/1/5 309/1/5 310/1/5
f 314/1/5 313/1/5 312/1/5
f 315/1/5 313/1/5 314/1/5
f 318/2/5 317/2/5 316/2/5
f 319/2/5 317/2/5 318/2/5
f 323/3/5 321/3/5 320/3/5
f 323/1/5 322/1/5 321/1/5
f 324/1/5 322/1/5 323/1/5
f 326/3/5 323/3/5 320/3/5
f 326/3/5 324/3/5 323/3/5
f 327/4/5 325/4/5 324/4/5
f 327/3/5 324/3/5 326/3/5
f 328/4/5 325/4/5 327/4/5
f 329/3/5 326/3/5 320/3/5
f 330/3/5 326/3/5 329/3/5
f 333/2/5 332/2/5 331/2/5
f 334/2/5 332/2/5 333/2/5
f 339/1/5 336/1/5 335/1/5
f 339/1/5 337/1/5 336/1/5
f 340/1/5 337/1/5 339/1/5
f 341/1/5 337/1/5 340/1/5
f 342/4/5 338/4/5 337/4/5
f 342/1/5 337/1/5 341/1/5
f 343/4/5 338/4/5 342/4/5
f 344/2/5 340/2/5 339/2/5
f 345/2/5 340/2/5 344/2/5
f 347/1/5 345/1/5 344/1/5
f 347/1/5 346/1/5 345/1/5
f 348/1/5 346/1/5 347/1/5
f 349/1/5 346/1/5 348/1/5
f 352/4/5 351/4/5 350/4/5
f 353/4/5 351/4/5 352/4/5
f 354/2/5 348/2/5 347/2/5
f 355/2/5 348/2/5 354/2/5
f 358/4/5 357/4/5 356/4/5
f 359/4/5 357/4/5 358/4/5
f 362/4/5 361/4/5 360/4/5
f 363/4/5 361/4/5 362/4/5
f 366/2/5 365/2/5 364/2/5
f 367/2/5 365/2/5 366/2/5
f 370/1/5 369/1/5 368/1/5
f 371/1/5 369/1/5 370/1/5
f 376/4/5 373/4/5 372/4/5
f 377/4/5 373/4/5 376/4/5
f 378/4/5 375/4/5 374/4/5
f 379/4/5 375/4/5 378/4/5
f 380/1/6 381/1/6 382/1/6
f 382/1/6 381/1/6 383/1/6
f 384/1/6 385/1/6 386/1/6
f 386/1/6 385/1/6 387/1/6
f 388/2/6 389/2/6 390/2/6
f 390/2/6 389/2/6 391/2/6
f 392/4/6 393/4/6 394/4/6
f 394/4/6 393/4/6 395/4/6
f 396/2/6 397/2/6 398/2/6
f 398/2/6 397/2/6 399/2/6
f 400/1/6 401/1/6 403/1/6
f 401/1/6 402/1/6 403/1/6
f 403/1/6 402/1/6 404/1/6
f 404/1/6 402/1/6 405/1/6
f 405/1/6 402/1/6 406/1/6
f 403/2/6 404/2/6 409/2/6
f 409/2/6 404/2/6 410/2/6
f 407/4/6 408/4/6 412/4/6
f 412/4/6 408/4/6 413/4/6
f 410/1/6 411/1/6 414/1/6
f 409/1/6 410/1/6 414/1/6
f 414/1/6 411/1/6 415/1/6
f 415/1/6 411/1/6 416/1/6
f 414/2/6 415/2/6 417/2/6
f 417/2/6 415/2/6 418/2/6
f 419/1/6 420/1/6 421/1/6
f 421/1/6 420/1/6 422/1/6
f 423/1/6 424/1/6 425/1/6
f 425/1/6 424/1/6 426/1/6
f 427/2/6 428/2/6 429/2/6
f 429/2/6 428/2/6 430/2/6
f 431/4/6 432/4/6 433/4/6
f 433/4/6 432/4/6 434/4/6
f 434/4/6 432/4/6 435/4/6
f 436/4/6 437/4/6 438/4/6
f 438/4/6 437/4/6 439/4/6
f 440/1/6 441/1/6 444/1/6
f 442/1/6 443/1/6 444/1/6
f 441/1/6 442/1/6 444/1/6
f 444/1/6 443/1/6 445/1/6
f 446/4/6 447/4/6 450/4/6
f 450/4/6 447/4/6 451/4/6
f 448/4/6 449/4/6 452/4/6
f 452/4/6 449/4/6 453/4/6
