# MagicaVoxel @ Ephtracy

# group
o 

# material
mtllib hobgoblin_action_1.mtl
usemtl palette

# normals
vn -1 0 0
vn 1 0 0
vn 0 0 1
vn 0 0 -1
vn 0 -1 0
vn 0 1 0

# texcoords
vt 0.763672 0.5
vt 0.783203 0.5
vt 0.939453 0.5

# verts
v -0.7 0.3 0.5
v -0.7 0.3 0.4
v -0.7 0.3 0.3
v -0.7 0.3 0.2
v -0.7 0.4 0.5
v -0.7 0.4 0.4
v -0.7 0.4 0.3
v -0.7 0.4 0.2
v -0.7 0.6 -0.1
v -0.7 0.6 -0.3
v -0.7 0.8 -0.1
v -0.7 0.8 -0.3
v -0.6 0.2 0.6
v -0.6 0.2 0.1
v -0.6 0.3 0.5
v -0.6 0.3 0.4
v -0.6 0.3 0.3
v -0.6 0.3 0.2
v -0.6 0.3 0.1
v -0.6 0.3 0
v -0.6 0.4 0.5
v -0.6 0.4 0.4
v -0.6 0.4 0.3
v -0.6 0.4 0.2
v -0.6 0.4 0.1
v -0.6 0.4 0
v -0.6 0.4 -0.1
v -0.6 0.5 0.6
v -0.6 0.5 0.1
v -0.6 0.5 0
v -0.6 0.5 -0.1
v -0.6 0.5 -0.3
v -0.6 0.6 -0.1
v -0.6 0.6 -0.3
v -0.5 0.1 0.5
v -0.5 0.1 0.4
v -0.5 0.1 0.3
v -0.5 0.1 0.2
v -0.5 0.2 0.5
v -0.5 0.2 0.4
v -0.5 0.2 0.3
v -0.5 0.2 0.2
v -0.5 0.3 0.7
v -0.5 0.3 0.6
v -0.5 0.3 0
v -0.5 0.3 -0.1
v -0.5 0.4 0.7
v -0.5 0.4 0.6
v -0.5 0.4 0
v -0.5 0.4 -0.1
v -0.5 0.4 -0.3
v -0.5 0.5 0.5
v -0.5 0.5 0.4
v -0.5 0.5 0.3
v -0.5 0.5 0.2
v -0.5 0.5 0.1
v -0.5 0.5 0
v -0.5 0.5 -0.1
v -0.5 0.5 -0.3
v -0.5 0.5 -0.5
v -0.5 0.6 0.5
v -0.5 0.6 0.4
v -0.5 0.6 0.3
v -0.5 0.6 0.2
v -0.5 0.6 0.1
v -0.5 0.6 -0.3
v -0.5 0.6 -0.5
v -0.5 0.6 -0.7
v -0.5 0.7 -0.5
v -0.5 0.7 -0.7
v -0.5 0.8 0.1
v -0.5 0.8 -0.1
v -0.5 0.9 -0.1
v -0.5 0.9 -0.2
v -0.5 1.2 -0.1
v -0.5 1.2 -0.2
v -0.4 0 0
v -0.4 0 -0.2
v -0.4 0.1 0
v -0.4 0.1 -0.1
v -0.4 0.2 0
v -0.4 0.2 -0.1
v -0.4 0.2 -0.2
v -0.4 0.3 0
v -0.4 0.3 -0.1
v -0.4 0.4 0.1
v -0.4 0.4 -0.1
v -0.4 0.4 -0.2
v -0.4 0.5 0.1
v -0.4 0.5 -0.1
v -0.4 0.8 0
v -0.4 0.8 -0.2
v -0.4 0.9 -0.1
v -0.4 0.9 -0.2
v -0.4 1.1 0
v -0.4 1.1 -0.1
v -0.2 0 0.1
v -0.2 0 -0.1
v -0.2 0.1 0.1
v -0.2 0.1 0
v -0.2 0.2 0.1
v -0.2 0.2 0
v -0.2 0.2 -0.1
v -0.2 0.4 0.1
v -0.2 0.4 0
v -0.1 0.6 0.2
v -0.1 0.6 0.1
v -0.1 0.8 0.2
v -0.1 0.8 0.1
v -0.1 1.1 -0.1
v -0.1 1.1 -0.2
v -0.1 1.2 -0.1
v -0.1 1.2 -0.2
v -0.5 0.4 0
v -0.5 0.4 -0.1
v -0.5 0.5 0
v -0.5 0.5 -0.1
v -0.5 0.5 -0.2
v -0.5 0.5 -0.3
v -0.5 0.6 -0.3
v -0.5 0.8 -0.2
v -0.5 0.8 -0.3
v -0.4 0.1 0.5
v -0.4 0.1 0.4
v -0.4 0.1 0.3
v -0.4 0.1 0.2
v -0.4 0.2 0.5
v -0.4 0.2 0.4
v -0.4 0.2 0.3
v -0.4 0.2 0.2
v -0.4 0.3 0.7
v -0.4 0.3 0.6
v -0.4 0.3 0.1
v -0.4 0.3 0
v -0.4 0.4 0.7
v -0.4 0.4 0.6
v -0.4 0.4 0.1
v -0.4 0.4 0
v -0.4 0.4 -0.2
v -0.4 0.4 -0.3
v -0.4 0.5 0.5
v -0.4 0.5 0.4
v -0.4 0.5 0.3
v -0.4 0.5 0.2
v -0.4 0.5 -0.2
v -0.4 0.5 -0.3
v -0.4 0.5 -0.5
v -0.4 0.6 0.5
v -0.4 0.6 0.4
v -0.4 0.6 0.3
v -0.4 0.6 0.2
v -0.4 0.6 -0.3
v -0.4 0.6 -0.5
v -0.4 0.6 -0.7
v -0.4 0.7 -0.5
v -0.4 0.7 -0.7
v -0.4 1.1 -0.1
v -0.4 1.1 -0.2
v -0.4 1.2 -0.1
v -0.4 1.2 -0.2
v -0.3 0 0
v -0.3 0 -0.2
v -0.3 0.1 0
v -0.3 0.1 -0.1
v -0.3 0.2 0.6
v -0.3 0.2 0.1
v -0.3 0.2 -0.1
v -0.3 0.2 -0.2
v -0.3 0.3 0.5
v -0.3 0.3 0.4
v -0.3 0.3 0.3
v -0.3 0.3 0.2
v -0.3 0.4 0.5
v -0.3 0.4 0.4
v -0.3 0.4 0.3
v -0.3 0.4 0.2
v -0.3 0.4 0.1
v -0.3 0.4 0
v -0.3 0.5 0.6
v -0.3 0.5 0.2
v -0.3 0.5 0.1
v -0.3 0.5 0
v -0.2 0.2 -0.1
v -0.2 0.2 -0.2
v -0.2 0.3 0.5
v -0.2 0.3 0.4
v -0.2 0.3 0.3
v -0.2 0.3 0.2
v -0.2 0.4 0.5
v -0.2 0.4 0.4
v -0.2 0.4 0.3
v -0.2 0.4 0.2
v -0.2 0.4 -0.1
v -0.2 0.4 -0.2
v -0.1 0 0.1
v -0.1 0 -0.1
v -0.1 0.1 0.1
v -0.1 0.1 0
v -0.1 0.2 0.1
v -0.1 0.2 0
v -0.1 0.2 -0.1
v -0.1 0.4 0.1
v -0.1 0.4 0
v -0.1 0.4 -0.1
v -0.1 0.4 -0.2
v -0.1 0.5 0
v -0.1 0.5 -0.2
v -0.1 0.8 0
v -0.1 0.8 -0.2
v -0.1 0.9 -0.1
v -0.1 0.9 -0.2
v -0.1 1.1 0
v -0.1 1.1 -0.1
v 0 0.5 0.2
v 0 0.5 -0.2
v 0 0.6 0.2
v 0 0.6 -0.2
v 0 0.9 -0.1
v 0 0.9 -0.2
v 0 1.2 -0.1
v 0 1.2 -0.2
v 0.1 0.6 0.2
v 0.1 0.6 -0.2
v 0.1 0.8 0.2
v 0.1 0.8 -0.2
v -0.5 0.3 0.7
v -0.5 0.4 0.7
v -0.4 0.3 0.7
v -0.4 0.4 0.7
v -0.6 0.2 0.6
v -0.6 0.5 0.6
v -0.5 0.3 0.6
v -0.5 0.4 0.6
v -0.4 0.3 0.6
v -0.4 0.4 0.6
v -0.3 0.2 0.6
v -0.3 0.5 0.6
v -0.7 0.3 0.5
v -0.7 0.4 0.5
v -0.6 0.3 0.5
v -0.6 0.4 0.5
v -0.5 0.1 0.5
v -0.5 0.2 0.5
v -0.5 0.5 0.5
v -0.5 0.6 0.5
v -0.4 0.1 0.5
v -0.4 0.2 0.5
v -0.4 0.5 0.5
v -0.4 0.6 0.5
v -0.3 0.3 0.5
v -0.3 0.4 0.5
v -0.2 0.3 0.5
v -0.2 0.4 0.5
v -0.7 0.3 0.3
v -0.7 0.4 0.3
v -0.6 0.3 0.3
v -0.6 0.4 0.3
v -0.5 0.1 0.3
v -0.5 0.2 0.3
v -0.5 0.5 0.3
v -0.5 0.6 0.3
v -0.4 0.1 0.3
v -0.4 0.2 0.3
v -0.4 0.5 0.3
v -0.4 0.6 0.3
v -0.3 0.3 0.3
v -0.3 0.4 0.3
v -0.2 0.3 0.3
v -0.2 0.4 0.3
v -0.4 0.5 0.2
v -0.4 0.6 0.2
v -0.3 0.5 0.2
v -0.1 0.6 0.2
v -0.1 0.8 0.2
v 0 0.5 0.2
v 0 0.6 0.2
v 0.1 0.6 0.2
v 0.1 0.8 0.2
v -0.5 0.6 0.1
v -0.5 0.8 0.1
v -0.2 0 0.1
v -0.2 0.1 0.1
v -0.2 0.2 0.1
v -0.2 0.4 0.1
v -0.1 0 0.1
v -0.1 0.1 0.1
v -0.1 0.2 0.1
v -0.1 0.4 0.1
v -0.1 0.6 0.1
v -0.1 0.8 0.1
v -0.6 0.4 0
v -0.6 0.5 0
v -0.5 0.4 0
v -0.5 0.5 0
v -0.4 0 0
v -0.4 0.1 0
v -0.4 0.2 0
v -0.4 0.3 0
v -0.4 0.4 0
v -0.4 0.8 0
v -0.4 1.1 0
v -0.3 0 0
v -0.3 0.1 0
v -0.3 0.4 0
v -0.3 0.5 0
v -0.2 0.1 0
v -0.2 0.2 0
v -0.2 0.4 0
v -0.1 0.1 0
v -0.1 0.2 0
v -0.1 0.4 0
v -0.1 0.5 0
v -0.1 0.8 0
v -0.1 1.1 0
v -0.7 0.6 -0.1
v -0.7 0.8 -0.1
v -0.6 0.5 -0.1
v -0.6 0.6 -0.1
v -0.5 0.4 -0.1
v -0.5 0.5 -0.1
v -0.5 0.8 -0.1
v -0.5 0.9 -0.1
v -0.5 1.2 -0.1
v -0.4 0.1 -0.1
v -0.4 0.2 -0.1
v -0.4 0.4 -0.1
v -0.4 0.5 -0.1
v -0.4 0.9 -0.1
v -0.4 1.1 -0.1
v -0.4 1.2 -0.1
v -0.3 0.1 -0.1
v -0.3 0.2 -0.1
v -0.1 0.9 -0.1
v -0.1 1.1 -0.1
v -0.1 1.2 -0.1
v 0 0.9 -0.1
v 0 1.2 -0.1
v -0.5 0.5 -0.3
v -0.5 0.6 -0.3
v -0.4 0.5 -0.3
v -0.4 0.6 -0.3
v -0.5 0.6 -0.5
v -0.5 0.7 -0.5
v -0.4 0.6 -0.5
v -0.4 0.7 -0.5
v -0.7 0.3 0.4
v -0.7 0.4 0.4
v -0.6 0.3 0.4
v -0.6 0.4 0.4
v -0.5 0.1 0.4
v -0.5 0.2 0.4
v -0.5 0.5 0.4
v -0.5 0.6 0.4
v -0.4 0.1 0.4
v -0.4 0.2 0.4
v -0.4 0.5 0.4
v -0.4 0.6 0.4
v -0.3 0.3 0.4
v -0.3 0.4 0.4
v -0.2 0.3 0.4
v -0.2 0.4 0.4
v -0.7 0.3 0.2
v -0.7 0.4 0.2
v -0.6 0.3 0.2
v -0.6 0.4 0.2
v -0.5 0.1 0.2
v -0.5 0.2 0.2
v -0.4 0.1 0.2
v -0.4 0.2 0.2
v -0.3 0.3 0.2
v -0.3 0.4 0.2
v -0.2 0.3 0.2
v -0.2 0.4 0.2
v -0.6 0.2 0.1
v -0.6 0.3 0.1
v -0.6 0.4 0.1
v -0.6 0.5 0.1
v -0.5 0.3 0.1
v -0.5 0.4 0.1
v -0.5 0.5 0.1
v -0.4 0.3 0.1
v -0.4 0.4 0.1
v -0.4 0.5 0.1
v -0.3 0.2 0.1
v -0.3 0.4 0.1
v -0.6 0.3 0
v -0.6 0.4 0
v -0.5 0.3 0
v -0.5 0.4 0
v -0.6 0.4 -0.1
v -0.6 0.5 -0.1
v -0.5 0.3 -0.1
v -0.5 0.4 -0.1
v -0.5 0.5 -0.1
v -0.4 0.3 -0.1
v -0.4 0.4 -0.1
v -0.2 0 -0.1
v -0.2 0.2 -0.1
v -0.2 0.4 -0.1
v -0.1 0 -0.1
v -0.1 0.2 -0.1
v -0.1 0.4 -0.1
v -0.5 0.5 -0.2
v -0.5 0.8 -0.2
v -0.5 0.9 -0.2
v -0.5 1.2 -0.2
v -0.4 0 -0.2
v -0.4 0.2 -0.2
v -0.4 0.4 -0.2
v -0.4 0.5 -0.2
v -0.4 0.8 -0.2
v -0.4 0.9 -0.2
v -0.4 1.1 -0.2
v -0.4 1.2 -0.2
v -0.3 0 -0.2
v -0.3 0.2 -0.2
v -0.2 0.2 -0.2
v -0.2 0.4 -0.2
v -0.1 0.4 -0.2
v -0.1 0.5 -0.2
v -0.1 0.8 -0.2
v -0.1 0.9 -0.2
v -0.1 1.1 -0.2
v -0.1 1.2 -0.2
v 0 0.5 -0.2
v 0 0.6 -0.2
v 0 0.9 -0.2
v 0 1.2 -0.2
v 0.1 0.6 -0.2
v 0.1 0.8 -0.2
v -0.7 0.6 -0.3
v -0.7 0.8 -0.3
v -0.6 0.5 -0.3
v -0.6 0.6 -0.3
v -0.5 0.4 -0.3
v -0.5 0.5 -0.3
v -0.5 0.6 -0.3
v -0.5 0.8 -0.3
v -0.4 0.4 -0.3
v -0.4 0.5 -0.3
v -0.5 0.5 -0.5
v -0.5 0.6 -0.5
v -0.4 0.5 -0.5
v -0.4 0.6 -0.5
v -0.5 0.6 -0.7
v -0.5 0.7 -0.7
v -0.4 0.6 -0.7
v -0.4 0.7 -0.7
v -0.2 0 0.1
v -0.1 0 0.1
v -0.4 0 0
v -0.3 0 0
v -0.2 0 -0.1
v -0.1 0 -0.1
v -0.4 0 -0.2
v -0.3 0 -0.2
v -0.5 0.1 0.5
v -0.4 0.1 0.5
v -0.5 0.1 0.4
v -0.4 0.1 0.4
v -0.5 0.1 0.3
v -0.4 0.1 0.3
v -0.5 0.1 0.2
v -0.4 0.1 0.2
v -0.6 0.2 0.6
v -0.3 0.2 0.6
v -0.5 0.2 0.5
v -0.4 0.2 0.5
v -0.5 0.2 0.4
v -0.4 0.2 0.4
v -0.5 0.2 0.3
v -0.4 0.2 0.3
v -0.5 0.2 0.2
v -0.4 0.2 0.2
v -0.6 0.2 0.1
v -0.3 0.2 0.1
v -0.2 0.2 0.1
v -0.1 0.2 0.1
v -0.4 0.2 0
v -0.2 0.2 0
v -0.1 0.2 0
v -0.4 0.2 -0.1
v -0.3 0.2 -0.1
v -0.2 0.2 -0.1
v -0.3 0.2 -0.2
v -0.2 0.2 -0.2
v -0.5 0.3 0.7
v -0.4 0.3 0.7
v -0.5 0.3 0.6
v -0.4 0.3 0.6
v -0.7 0.3 0.5
v -0.6 0.3 0.5
v -0.3 0.3 0.5
v -0.2 0.3 0.5
v -0.7 0.3 0.4
v -0.6 0.3 0.4
v -0.3 0.3 0.4
v -0.2 0.3 0.4
v -0.7 0.3 0.3
v -0.6 0.3 0.3
v -0.3 0.3 0.3
v -0.2 0.3 0.3
v -0.7 0.3 0.2
v -0.6 0.3 0.2
v -0.3 0.3 0.2
v -0.2 0.3 0.2
v -0.6 0.3 0.1
v -0.5 0.3 0.1
v -0.4 0.3 0.1
v -0.6 0.3 0
v -0.5 0.3 0
v -0.4 0.3 0
v -0.5 0.3 -0.1
v -0.4 0.3 -0.1
v -0.4 0.4 0.1
v -0.3 0.4 0.1
v -0.6 0.4 0
v -0.5 0.4 0
v -0.4 0.4 0
v -0.3 0.4 0
v -0.6 0.4 -0.1
v -0.5 0.4 -0.1
v -0.4 0.4 -0.1
v -0.2 0.4 -0.1
v -0.1 0.4 -0.1
v -0.4 0.4 -0.2
v -0.2 0.4 -0.2
v -0.1 0.4 -0.2
v -0.5 0.4 -0.3
v -0.4 0.4 -0.3
v -0.3 0.5 0.2
v 0 0.5 0.2
v -0.5 0.5 0.1
v -0.4 0.5 0.1
v -0.3 0.5 0.1
v -0.5 0.5 0
v -0.3 0.5 0
v -0.1 0.5 0
v -0.6 0.5 -0.1
v -0.5 0.5 -0.1
v -0.4 0.5 -0.1
v -0.1 0.5 -0.2
v 0 0.5 -0.2
v -0.6 0.5 -0.3
v -0.5 0.5 -0.3
v -0.4 0.5 -0.3
v -0.5 0.5 -0.5
v -0.4 0.5 -0.5
v 0 0.6 0.2
v 0.1 0.6 0.2
v -0.7 0.6 -0.1
v -0.6 0.6 -0.1
v 0 0.6 -0.2
v 0.1 0.6 -0.2
v -0.7 0.6 -0.3
v -0.6 0.6 -0.3
v -0.5 0.6 -0.5
v -0.4 0.6 -0.5
v -0.5 0.6 -0.7
v -0.4 0.6 -0.7
v -0.5 0.9 -0.1
v -0.4 0.9 -0.1
v -0.1 0.9 -0.1
v 0 0.9 -0.1
v -0.5 0.9 -0.2
v -0.4 0.9 -0.2
v -0.1 0.9 -0.2
v 0 0.9 -0.2
v -0.2 0.1 0.1
v -0.1 0.1 0.1
v -0.4 0.1 0
v -0.3 0.1 0
v -0.2 0.1 0
v -0.1 0.1 0
v -0.4 0.1 -0.1
v -0.3 0.1 -0.1
v -0.5 0.4 0.7
v -0.4 0.4 0.7
v -0.5 0.4 0.6
v -0.4 0.4 0.6
v -0.7 0.4 0.5
v -0.6 0.4 0.5
v -0.3 0.4 0.5
v -0.2 0.4 0.5
v -0.7 0.4 0.4
v -0.6 0.4 0.4
v -0.3 0.4 0.4
v -0.2 0.4 0.4
v -0.7 0.4 0.3
v -0.6 0.4 0.3
v -0.3 0.4 0.3
v -0.2 0.4 0.3
v -0.7 0.4 0.2
v -0.6 0.4 0.2
v -0.3 0.4 0.2
v -0.2 0.4 0.2
v -0.6 0.4 0.1
v -0.5 0.4 0.1
v -0.4 0.4 0.1
v -0.2 0.4 0.1
v -0.1 0.4 0.1
v -0.6 0.4 0
v -0.5 0.4 0
v -0.2 0.4 0
v -0.1 0.4 0
v -0.5 0.4 -0.1
v -0.4 0.4 -0.1
v -0.6 0.5 0.6
v -0.3 0.5 0.6
v -0.5 0.5 0.5
v -0.4 0.5 0.5
v -0.5 0.5 0.4
v -0.4 0.5 0.4
v -0.5 0.5 0.3
v -0.4 0.5 0.3
v -0.5 0.5 0.2
v -0.4 0.5 0.2
v -0.3 0.5 0.2
v -0.6 0.5 0.1
v -0.5 0.5 0.1
v -0.6 0.5 0
v -0.5 0.5 0
v -0.6 0.5 -0.1
v -0.5 0.5 -0.1
v -0.5 0.5 -0.2
v -0.4 0.5 -0.2
v -0.5 0.5 -0.3
v -0.4 0.5 -0.3
v -0.5 0.6 0.5
v -0.4 0.6 0.5
v -0.5 0.6 0.4
v -0.4 0.6 0.4
v -0.5 0.6 0.3
v -0.4 0.6 0.3
v -0.5 0.6 0.2
v -0.4 0.6 0.2
v -0.1 0.6 0.2
v -0.5 0.6 0.1
v -0.1 0.6 0.1
v -0.5 0.6 -0.3
v -0.4 0.6 -0.3
v -0.5 0.6 -0.5
v -0.4 0.6 -0.5
v -0.5 0.7 -0.5
v -0.4 0.7 -0.5
v -0.5 0.7 -0.7
v -0.4 0.7 -0.7
v -0.1 0.8 0.2
v 0.1 0.8 0.2
v -0.5 0.8 0.1
v -0.1 0.8 0.1
v -0.4 0.8 0
v -0.1 0.8 0
v -0.7 0.8 -0.1
v -0.5 0.8 -0.1
v -0.5 0.8 -0.2
v -0.4 0.8 -0.2
v -0.1 0.8 -0.2
v 0.1 0.8 -0.2
v -0.7 0.8 -0.3
v -0.5 0.8 -0.3
v -0.4 1.1 0
v -0.1 1.1 0
v -0.4 1.1 -0.1
v -0.1 1.1 -0.1
v -0.4 1.1 -0.2
v -0.1 1.1 -0.2
v -0.5 1.2 -0.1
v -0.4 1.2 -0.1
v -0.1 1.2 -0.1
v 0 1.2 -0.1
v -0.5 1.2 -0.2
v -0.4 1.2 -0.2
v -0.1 1.2 -0.2
v 0 1.2 -0.2

# faces
f 5/3/1 2/3/1 1/3/1
f 6/3/1 2/3/1 5/3/1
f 7/3/1 4/3/1 3/3/1
f 8/3/1 4/3/1 7/3/1
f 11/1/1 10/1/1 9/1/1
f 12/1/1 10/1/1 11/1/1
f 15/2/1 14/2/1 13/2/1
f 16/2/1 14/2/1 15/2/1
f 17/2/1 14/2/1 16/2/1
f 18/2/1 14/2/1 17/2/1
f 19/2/1 14/2/1 18/2/1
f 21/2/1 15/2/1 13/2/1
f 22/2/1 17/2/1 16/2/1
f 23/2/1 17/2/1 22/2/1
f 24/2/1 19/2/1 18/2/1
f 25/1/1 20/1/1 19/1/1
f 25/2/1 19/2/1 24/2/1
f 26/1/1 20/1/1 25/1/1
f 28/2/1 24/2/1 23/2/1
f 28/2/1 23/2/1 22/2/1
f 28/2/1 25/2/1 24/2/1
f 28/2/1 21/2/1 13/2/1
f 28/2/1 22/2/1 21/2/1
f 29/2/1 25/2/1 28/2/1
f 30/1/1 27/1/1 26/1/1
f 31/1/1 27/1/1 30/1/1
f 33/1/1 32/1/1 31/1/1
f 34/1/1 32/1/1 33/1/1
f 39/3/1 36/3/1 35/3/1
f 40/3/1 36/3/1 39/3/1
f 41/3/1 38/3/1 37/3/1
f 42/3/1 38/3/1 41/3/1
f 47/3/1 44/3/1 43/3/1
f 48/3/1 44/3/1 47/3/1
f 49/2/1 46/2/1 45/2/1
f 50/2/1 46/2/1 49/2/1
f 58/2/1 51/2/1 50/2/1
f 59/2/1 51/2/1 58/2/1
f 61/3/1 53/3/1 52/3/1
f 62/3/1 53/3/1 61/3/1
f 63/3/1 55/3/1 54/3/1
f 64/1/1 57/1/1 56/1/1
f 64/3/1 55/3/1 63/3/1
f 64/1/1 56/1/1 55/1/1
f 64/1/1 58/1/1 57/1/1
f 65/1/1 58/1/1 64/1/1
f 66/2/1 60/2/1 59/2/1
f 67/2/1 60/2/1 66/2/1
f 69/2/1 68/2/1 67/2/1
f 70/2/1 68/2/1 69/2/1
f 71/1/1 58/1/1 65/1/1
f 72/1/1 58/1/1 71/1/1
f 75/1/1 74/1/1 73/1/1
f 76/1/1 74/1/1 75/1/1
f 79/1/1 78/1/1 77/1/1
f 80/1/1 78/1/1 79/1/1
f 82/1/1 78/1/1 80/1/1
f 83/1/1 78/1/1 82/1/1
f 84/2/1 82/2/1 81/2/1
f 84/2/1 83/2/1 82/2/1
f 85/2/1 83/2/1 84/2/1
f 87/2/1 83/2/1 85/2/1
f 88/2/1 83/2/1 87/2/1
f 89/1/1 87/1/1 86/1/1
f 90/1/1 87/1/1 89/1/1
f 93/1/1 92/1/1 91/1/1
f 94/1/1 92/1/1 93/1/1
f 95/1/1 93/1/1 91/1/1
f 96/1/1 93/1/1 95/1/1
f 99/1/1 98/1/1 97/1/1
f 100/1/1 98/1/1 99/1/1
f 102/1/1 98/1/1 100/1/1
f 103/1/1 98/1/1 102/1/1
f 104/2/1 102/2/1 101/2/1
f 105/2/1 102/2/1 104/2/1
f 108/1/1 107/1/1 106/1/1
f 109/1/1 107/1/1 108/1/1
f 112/1/1 111/1/1 110/1/1
f 113/1/1 111/1/1 112/1/1
f 114/1/2 115/1/2 116/1/2
f 116/1/2 115/1/2 117/1/2
f 118/1/2 119/1/2 120/1/2
f 118/1/2 120/1/2 121/1/2
f 121/1/2 120/1/2 122/1/2
f 123/3/2 124/3/2 127/3/2
f 127/3/2 124/3/2 128/3/2
f 125/3/2 126/3/2 129/3/2
f 129/3/2 126/3/2 130/3/2
f 131/3/2 132/3/2 135/3/2
f 135/3/2 132/3/2 136/3/2
f 133/2/2 134/2/2 137/2/2
f 137/2/2 134/2/2 138/2/2
f 139/2/2 140/2/2 145/2/2
f 145/2/2 140/2/2 146/2/2
f 141/3/2 142/3/2 148/3/2
f 148/3/2 142/3/2 149/3/2
f 143/3/2 144/3/2 150/3/2
f 150/3/2 144/3/2 151/3/2
f 146/2/2 147/2/2 152/2/2
f 152/2/2 147/2/2 153/2/2
f 153/2/2 154/2/2 155/2/2
f 155/2/2 154/2/2 156/2/2
f 157/1/2 158/1/2 159/1/2
f 159/1/2 158/1/2 160/1/2
f 161/1/2 162/1/2 163/1/2
f 163/1/2 162/1/2 164/1/2
f 164/1/2 162/1/2 167/1/2
f 167/1/2 162/1/2 168/1/2
f 165/2/2 166/2/2 169/2/2
f 169/2/2 166/2/2 170/2/2
f 170/2/2 166/2/2 171/2/2
f 171/2/2 166/2/2 172/2/2
f 165/2/2 169/2/2 173/2/2
f 170/2/2 171/2/2 174/2/2
f 174/2/2 171/2/2 175/2/2
f 172/2/2 166/2/2 176/2/2
f 176/2/2 166/2/2 177/2/2
f 174/2/2 175/2/2 179/2/2
f 165/2/2 173/2/2 179/2/2
f 176/2/2 177/2/2 179/2/2
f 175/2/2 176/2/2 179/2/2
f 173/2/2 174/2/2 179/2/2
f 179/2/2 177/2/2 180/2/2
f 177/1/2 178/1/2 181/1/2
f 180/2/2 177/2/2 181/2/2
f 181/1/2 178/1/2 182/1/2
f 185/3/2 186/3/2 189/3/2
f 189/3/2 186/3/2 190/3/2
f 187/3/2 188/3/2 191/3/2
f 191/3/2 188/3/2 192/3/2
f 183/2/2 184/2/2 193/2/2
f 193/2/2 184/2/2 194/2/2
f 195/1/2 196/1/2 197/1/2
f 197/1/2 196/1/2 198/1/2
f 198/1/2 196/1/2 200/1/2
f 200/1/2 196/1/2 201/1/2
f 199/2/2 200/2/2 202/2/2
f 200/2/2 201/2/2 202/2/2
f 202/2/2 201/2/2 203/2/2
f 203/2/2 201/2/2 204/2/2
f 203/1/2 204/1/2 206/1/2
f 204/1/2 205/1/2 206/1/2
f 206/1/2 205/1/2 207/1/2
f 208/1/2 209/1/2 210/1/2
f 210/1/2 209/1/2 211/1/2
f 208/1/2 210/1/2 212/1/2
f 212/1/2 210/1/2 213/1/2
f 214/1/2 215/1/2 216/1/2
f 216/1/2 215/1/2 217/1/2
f 218/1/2 219/1/2 220/1/2
f 220/1/2 219/1/2 221/1/2
f 222/1/2 223/1/2 224/1/2
f 224/1/2 223/1/2 225/1/2
f 228/3/3 227/3/3 226/3/3
f 229/3/3 227/3/3 228/3/3
f 232/2/3 231/2/3 230/2/3
f 233/2/3 231/2/3 232/2/3
f 234/2/3 232/2/3 230/2/3
f 235/2/3 231/2/3 233/2/3
f 236/2/3 234/2/3 230/2/3
f 236/2/3 235/2/3 234/2/3
f 237/2/3 231/2/3 235/2/3
f 237/2/3 235/2/3 236/2/3
f 240/3/3 239/3/3 238/3/3
f 241/3/3 239/3/3 240/3/3
f 246/3/3 243/3/3 242/3/3
f 247/3/3 243/3/3 246/3/3
f 248/3/3 245/3/3 244/3/3
f 249/3/3 245/3/3 248/3/3
f 252/3/3 251/3/3 250/3/3
f 253/3/3 251/3/3 252/3/3
f 256/3/3 255/3/3 254/3/3
f 257/3/3 255/3/3 256/3/3
f 262/3/3 259/3/3 258/3/3
f 263/3/3 259/3/3 262/3/3
f 264/3/3 261/3/3 260/3/3
f 265/3/3 261/3/3 264/3/3
f 268/3/3 267/3/3 266/3/3
f 269/3/3 267/3/3 268/3/3
f 272/1/3 271/1/3 270/1/3
f 273/1/3 271/1/3 272/1/3
f 275/1/3 273/1/3 272/1/3
f 275/1/3 274/1/3 273/1/3
f 276/1/3 274/1/3 275/1/3
f 277/1/3 274/1/3 276/1/3
f 278/1/3 274/1/3 277/1/3
f 285/1/3 282/1/3 281/1/3
f 286/1/3 282/1/3 285/1/3
f 287/2/3 284/2/3 283/2/3
f 288/2/3 284/2/3 287/2/3
f 289/1/3 280/1/3 279/1/3
f 290/1/3 280/1/3 289/1/3
f 293/1/3 292/1/3 291/1/3
f 294/1/3 292/1/3 293/1/3
f 302/1/3 296/1/3 295/1/3
f 303/1/3 296/1/3 302/1/3
f 304/2/3 299/2/3 298/2/3
f 304/2/3 298/2/3 297/2/3
f 307/2/3 304/2/3 297/2/3
f 308/1/3 305/1/3 304/1/3
f 308/2/3 304/2/3 307/2/3
f 309/1/3 307/1/3 306/1/3
f 310/1/3 307/1/3 309/1/3
f 311/1/3 305/1/3 308/1/3
f 312/1/3 305/1/3 311/1/3
f 313/1/3 301/1/3 300/1/3
f 314/1/3 301/1/3 313/1/3
f 318/1/3 316/1/3 315/1/3
f 320/1/3 318/1/3 317/1/3
f 321/1/3 316/1/3 318/1/3
f 321/1/3 318/1/3 320/1/3
f 326/2/3 320/2/3 319/2/3
f 327/2/3 320/2/3 326/2/3
f 328/1/3 323/1/3 322/1/3
f 329/1/3 323/1/3 328/1/3
f 330/1/3 323/1/3 329/1/3
f 331/1/3 325/1/3 324/1/3
f 332/1/3 325/1/3 331/1/3
f 336/1/3 334/1/3 333/1/3
f 336/1/3 335/1/3 334/1/3
f 337/1/3 335/1/3 336/1/3
f 340/2/3 339/2/3 338/2/3
f 341/2/3 339/2/3 340/2/3
f 344/2/3 343/2/3 342/2/3
f 345/2/3 343/2/3 344/2/3
f 346/3/4 347/3/4 348/3/4
f 348/3/4 347/3/4 349/3/4
f 350/3/4 351/3/4 354/3/4
f 354/3/4 351/3/4 355/3/4
f 352/3/4 353/3/4 356/3/4
f 356/3/4 353/3/4 357/3/4
f 358/3/4 359/3/4 360/3/4
f 360/3/4 359/3/4 361/3/4
f 362/3/4 363/3/4 364/3/4
f 364/3/4 363/3/4 365/3/4
f 366/3/4 367/3/4 368/3/4
f 368/3/4 367/3/4 369/3/4
f 370/3/4 371/3/4 372/3/4
f 372/3/4 371/3/4 373/3/4
f 374/2/4 375/2/4 378/2/4
f 376/2/4 377/2/4 379/2/4
f 379/2/4 377/2/4 380/2/4
f 374/2/4 378/2/4 381/2/4
f 379/2/4 380/2/4 382/2/4
f 382/2/4 380/2/4 383/2/4
f 374/2/4 381/2/4 384/2/4
f 381/2/4 382/2/4 384/2/4
f 384/2/4 382/2/4 385/2/4
f 386/1/4 387/1/4 388/1/4
f 388/1/4 387/1/4 389/1/4
f 390/1/4 391/1/4 393/1/4
f 393/1/4 391/1/4 394/1/4
f 392/2/4 393/2/4 395/2/4
f 395/2/4 393/2/4 396/2/4
f 397/1/4 398/1/4 400/1/4
f 398/2/4 399/2/4 401/2/4
f 400/1/4 398/1/4 401/1/4
f 401/2/4 399/2/4 402/2/4
f 403/1/4 404/1/4 410/1/4
f 410/1/4 404/1/4 411/1/4
f 405/1/4 406/1/4 412/1/4
f 412/1/4 406/1/4 413/1/4
f 413/1/4 406/1/4 414/1/4
f 407/1/4 408/1/4 415/1/4
f 408/2/4 409/2/4 416/2/4
f 415/1/4 408/1/4 416/1/4
f 416/2/4 409/2/4 417/2/4
f 410/1/4 411/1/4 418/1/4
f 417/2/4 409/2/4 418/2/4
f 409/1/4 410/1/4 418/1/4
f 412/1/4 413/1/4 418/1/4
f 411/1/4 412/1/4 418/1/4
f 418/1/4 413/1/4 419/1/4
f 419/1/4 413/1/4 420/1/4
f 420/1/4 413/1/4 421/1/4
f 421/1/4 413/1/4 422/1/4
f 422/1/4 413/1/4 423/1/4
f 420/1/4 421/1/4 425/1/4
f 425/1/4 421/1/4 426/1/4
f 423/1/4 424/1/4 427/1/4
f 422/1/4 423/1/4 427/1/4
f 427/1/4 424/1/4 428/1/4
f 426/1/4 421/1/4 429/1/4
f 429/1/4 421/1/4 430/1/4
f 431/1/4 432/1/4 434/1/4
f 433/1/4 434/1/4 436/1/4
f 434/1/4 432/1/4 437/1/4
f 436/1/4 434/1/4 437/1/4
f 437/1/4 432/1/4 438/1/4
f 435/2/4 436/2/4 439/2/4
f 439/2/4 436/2/4 440/2/4
f 441/2/4 442/2/4 443/2/4
f 443/2/4 442/2/4 444/2/4
f 445/2/4 446/2/4 447/2/4
f 447/2/4 446/2/4 448/2/4
f 453/1/5 450/1/5 449/1/5
f 454/1/5 450/1/5 453/1/5
f 455/1/5 452/1/5 451/1/5
f 456/1/5 452/1/5 455/1/5
f 459/3/5 458/3/5 457/3/5
f 460/3/5 458/3/5 459/3/5
f 463/3/5 462/3/5 461/3/5
f 464/3/5 462/3/5 463/3/5
f 467/2/5 466/2/5 465/2/5
f 468/2/5 466/2/5 467/2/5
f 469/2/5 467/2/5 465/2/5
f 470/2/5 466/2/5 468/2/5
f 471/2/5 469/2/5 465/2/5
f 471/2/5 470/2/5 469/2/5
f 472/2/5 466/2/5 470/2/5
f 472/2/5 470/2/5 471/2/5
f 473/2/5 471/2/5 465/2/5
f 474/2/5 466/2/5 472/2/5
f 475/2/5 473/2/5 465/2/5
f 475/2/5 474/2/5 473/2/5
f 476/2/5 466/2/5 474/2/5
f 476/2/5 474/2/5 475/2/5
f 480/2/5 478/2/5 477/2/5
f 481/2/5 478/2/5 480/2/5
f 482/2/5 480/2/5 479/2/5
f 483/2/5 480/2/5 482/2/5
f 484/2/5 480/2/5 483/2/5
f 485/2/5 484/2/5 483/2/5
f 486/2/5 484/2/5 485/2/5
f 489/3/5 488/3/5 487/3/5
f 490/3/5 488/3/5 489/3/5
f 495/3/5 492/3/5 491/3/5
f 496/3/5 492/3/5 495/3/5
f 497/3/5 494/3/5 493/3/5
f 498/3/5 494/3/5 497/3/5
f 503/3/5 500/3/5 499/3/5
f 504/3/5 500/3/5 503/3/5
f 505/3/5 502/3/5 501/3/5
f 506/3/5 502/3/5 505/3/5
f 510/1/5 508/1/5 507/1/5
f 511/2/5 509/2/5 508/2/5
f 511/1/5 508/1/5 510/1/5
f 512/2/5 509/2/5 511/2/5
f 513/2/5 512/2/5 511/2/5
f 514/2/5 512/2/5 513/2/5
f 519/1/5 516/1/5 515/1/5
f 520/1/5 516/1/5 519/1/5
f 521/1/5 518/1/5 517/1/5
f 522/1/5 518/1/5 521/1/5
f 526/2/5 523/2/5 522/2/5
f 527/1/5 525/1/5 524/1/5
f 528/1/5 525/1/5 527/1/5
f 529/2/5 526/2/5 522/2/5
f 530/2/5 526/2/5 529/2/5
f 535/1/5 532/1/5 531/1/5
f 536/1/5 534/1/5 533/1/5
f 537/1/5 532/1/5 535/1/5
f 538/1/5 532/1/5 537/1/5
f 540/1/5 534/1/5 536/1/5
f 541/1/5 534/1/5 540/1/5
f 542/1/5 532/1/5 538/1/5
f 543/1/5 532/1/5 542/1/5
f 544/1/5 540/1/5 539/1/5
f 545/1/5 540/1/5 544/1/5
f 547/2/5 546/2/5 545/2/5
f 548/2/5 546/2/5 547/2/5
f 553/1/5 550/1/5 549/1/5
f 554/1/5 550/1/5 553/1/5
f 555/1/5 552/1/5 551/1/5
f 556/1/5 552/1/5 555/1/5
f 559/2/5 558/2/5 557/2/5
f 560/2/5 558/2/5 559/2/5
f 565/1/5 562/1/5 561/1/5
f 566/1/5 562/1/5 565/1/5
f 567/1/5 564/1/5 563/1/5
f 568/1/5 564/1/5 567/1/5
f 569/1/6 570/1/6 573/1/6
f 573/1/6 570/1/6 574/1/6
f 571/1/6 572/1/6 575/1/6
f 575/1/6 572/1/6 576/1/6
f 577/3/6 578/3/6 579/3/6
f 579/3/6 578/3/6 580/3/6
f 581/3/6 582/3/6 585/3/6
f 585/3/6 582/3/6 586/3/6
f 583/3/6 584/3/6 587/3/6
f 587/3/6 584/3/6 588/3/6
f 589/3/6 590/3/6 593/3/6
f 593/3/6 590/3/6 594/3/6
f 591/3/6 592/3/6 595/3/6
f 595/3/6 592/3/6 596/3/6
f 597/1/6 598/1/6 602/1/6
f 598/2/6 599/2/6 603/2/6
f 602/1/6 598/1/6 603/1/6
f 600/2/6 601/2/6 604/2/6
f 604/2/6 601/2/6 605/2/6
f 603/2/6 599/2/6 606/2/6
f 606/2/6 599/2/6 607/2/6
f 608/2/6 609/2/6 610/2/6
f 610/2/6 609/2/6 611/2/6
f 608/2/6 610/2/6 612/2/6
f 611/2/6 609/2/6 613/2/6
f 608/2/6 612/2/6 614/2/6
f 612/2/6 613/2/6 614/2/6
f 613/2/6 609/2/6 615/2/6
f 614/2/6 613/2/6 615/2/6
f 608/2/6 614/2/6 616/2/6
f 615/2/6 609/2/6 617/2/6
f 617/2/6 609/2/6 618/2/6
f 608/2/6 616/2/6 619/2/6
f 619/2/6 616/2/6 620/2/6
f 621/1/6 622/1/6 623/1/6
f 623/1/6 622/1/6 624/1/6
f 625/2/6 626/2/6 627/2/6
f 627/2/6 626/2/6 628/2/6
f 629/3/6 630/3/6 631/3/6
f 631/3/6 630/3/6 632/3/6
f 633/3/6 634/3/6 635/3/6
f 635/3/6 634/3/6 636/3/6
f 635/1/6 636/1/6 638/1/6
f 636/1/6 637/1/6 638/1/6
f 638/1/6 637/1/6 639/1/6
f 640/2/6 641/2/6 642/2/6
f 642/2/6 641/2/6 643/2/6
f 644/2/6 645/2/6 646/2/6
f 646/2/6 645/2/6 647/2/6
f 648/1/6 649/1/6 651/1/6
f 650/1/6 651/1/6 652/1/6
f 651/1/6 649/1/6 653/1/6
f 652/1/6 651/1/6 653/1/6
f 650/1/6 652/1/6 655/1/6
f 655/1/6 652/1/6 656/1/6
f 654/1/6 655/1/6 656/1/6
f 656/1/6 652/1/6 657/1/6
f 653/1/6 649/1/6 658/1/6
f 658/1/6 649/1/6 659/1/6
f 654/1/6 656/1/6 660/1/6
f 660/1/6 656/1/6 661/1/6
f 662/1/6 663/1/6 664/1/6
f 664/1/6 663/1/6 665/1/6
f 664/1/6 665/1/6 666/1/6
f 666/1/6 665/1/6 667/1/6
f 668/1/6 669/1/6 672/1/6
f 672/1/6 669/1/6 673/1/6
f 670/1/6 671/1/6 674/1/6
f 674/1/6 671/1/6 675/1/6
