# MagicaVoxel @ Ephtracy

# group
o 

# material
mtllib hobgoblin_idle_1.mtl
usemtl palette

# normals
vn -1 0 0
vn 1 0 0
vn 0 0 1
vn 0 0 -1
vn 0 -1 0
vn 0 1 0

# texcoords
vt 0.763672 0.5
vt 0.783203 0.5
vt 0.939453 0.5

# verts
v -0.7 0.4 0.1
v -0.7 0.4 -2.98023e-08
v -0.7 0.5 0.1
v -0.7 0.5 -2.98023e-08
v -0.7 0.5 -0.1
v -0.7 0.5 -0.3
v -0.7 0.7 -0.1
v -0.7 0.7 -0.3
v -0.6 0.4 -2.98023e-08
v -0.6 0.4 -0.3
v -0.6 0.5 -2.98023e-08
v -0.6 0.5 -0.1
v -0.6 0.5 -0.3
v -0.5 0.5 -2.98023e-08
v -0.5 0.5 -0.1
v -0.5 0.7 -0.1
v -0.5 0.7 -0.3
v -0.5 0.8 -2.98023e-08
v -0.5 0.8 -0.3
v -0.5 0.9 -0.2
v -0.5 0.9 -0.3
v -0.5 1.2 -0.2
v -0.5 1.2 -0.3
v -0.4 0 -0.1
v -0.4 0 -0.3
v -0.4 0.1 -0.1
v -0.4 0.1 -0.2
v -0.4 0.2 -0.1
v -0.4 0.2 -0.2
v -0.4 0.2 -0.3
v -0.4 0.4 -0.1
v -0.4 0.4 -0.3
v -0.4 0.5 -0.1
v -0.4 0.5 -0.3
v -0.4 0.8 -0.1
v -0.4 0.8 -0.3
v -0.4 0.9 -0.2
v -0.4 0.9 -0.3
v -0.4 1.1 -0.1
v -0.4 1.1 -0.2
v -0.2 0 -0.1
v -0.2 0 -0.3
v -0.2 0.1 -0.1
v -0.2 0.1 -0.2
v -0.2 0.2 -0.2
v -0.2 0.2 -0.3
v -0.1 1.1 -0.2
v -0.1 1.1 -0.3
v -0.1 1.2 -0.2
v -0.1 1.2 -0.3
v 0 0.4 -2.98023e-08
v 0 0.4 -0.3
v 0 0.5 -2.98023e-08
v 0 0.5 -0.3
v 0.1 0.3 0.2
v 0.1 0.3 -0.1
v 0.1 0.4 0.1
v 0.1 0.4 -0.1
v 0.1 0.5 0.1
v 0.1 0.5 -0.1
v 0.1 0.6 0.2
v 0.1 0.6 -0.1
v 0.2 0.2 0.1
v 0.2 0.2 -2.98023e-08
v 0.2 0.3 0.1
v 0.2 0.3 -2.98023e-08
v 0.2 0.4 0.3
v 0.2 0.4 0.2
v 0.2 0.4 -0.1
v 0.2 0.4 -0.2
v 0.2 0.5 0.3
v 0.2 0.5 0.2
v 0.2 0.5 -0.1
v 0.2 0.5 -0.2
v 0.2 0.6 0.1
v 0.2 0.6 -2.98023e-08
v 0.2 0.7 0.1
v 0.2 0.7 -2.98023e-08
v 0.4 0.2 0.1
v 0.4 0.2 -2.98023e-08
v 0.4 0.3 0.1
v 0.4 0.3 -2.98023e-08
v 0.4 0.4 0.3
v 0.4 0.4 0.2
v 0.4 0.4 -0.1
v 0.4 0.4 -0.2
v 0.4 0.5 0.3
v 0.4 0.5 0.2
v 0.4 0.5 -0.1
v 0.4 0.5 -0.2
v 0.4 0.6 0.1
v 0.4 0.6 -2.98023e-08
v 0.4 0.7 0.1
v 0.4 0.7 -2.98023e-08
v -0.5 0.4 -2.98023e-08
v -0.5 0.4 -0.3
v -0.5 0.5 -2.98023e-08
v -0.5 0.5 -0.3
v -0.4 1.1 -0.2
v -0.4 1.1 -0.3
v -0.4 1.2 -0.2
v -0.4 1.2 -0.3
v -0.3 0 -0.1
v -0.3 0 -0.3
v -0.3 0.1 -0.1
v -0.3 0.1 -0.2
v -0.3 0.2 -0.2
v -0.3 0.2 -0.3
v -0.1 0 -0.1
v -0.1 0 -0.3
v -0.1 0.1 -0.1
v -0.1 0.1 -0.2
v -0.1 0.2 -0.1
v -0.1 0.2 -0.2
v -0.1 0.2 -0.3
v -0.1 0.4 -0.1
v -0.1 0.4 -0.3
v -0.1 0.5 -0.1
v -0.1 0.5 -0.3
v -0.1 0.8 -0.1
v -0.1 0.8 -0.3
v -0.1 0.9 -0.2
v -0.1 0.9 -0.3
v -0.1 1.1 -0.1
v -0.1 1.1 -0.2
v 0 0.5 -2.98023e-08
v 0 0.5 -0.1
v 0 0.7 -0.1
v 0 0.7 -0.3
v 0 0.8 -2.98023e-08
v 0 0.8 -0.3
v 0 0.9 -0.2
v 0 0.9 -0.3
v 0 1.2 -0.2
v 0 1.2 -0.3
v 0.1 0.4 -0.1
v 0.1 0.4 -0.3
v 0.1 0.5 -0.1
v 0.1 0.5 -0.3
v 0.2 0.5 -0.1
v 0.2 0.5 -0.2
v 0.2 0.5 -0.3
v 0.2 0.6 -0.1
v 0.2 0.7 -0.1
v 0.2 0.7 -0.3
v 0.3 0.2 0.1
v 0.3 0.2 -2.98023e-08
v 0.3 0.3 0.1
v 0.3 0.3 -2.98023e-08
v 0.3 0.4 0.3
v 0.3 0.4 0.2
v 0.3 0.4 -0.1
v 0.3 0.4 -0.2
v 0.3 0.5 0.3
v 0.3 0.5 0.2
v 0.3 0.5 -0.1
v 0.3 0.5 -0.2
v 0.3 0.6 0.1
v 0.3 0.6 -2.98023e-08
v 0.3 0.7 0.1
v 0.3 0.7 -2.98023e-08
v 0.5 0.2 0.1
v 0.5 0.2 -2.98023e-08
v 0.5 0.3 0.1
v 0.5 0.3 -2.98023e-08
v 0.5 0.4 0.3
v 0.5 0.4 0.2
v 0.5 0.4 -0.1
v 0.5 0.4 -0.2
v 0.5 0.5 0.3
v 0.5 0.5 0.2
v 0.5 0.5 -0.1
v 0.5 0.5 -0.2
v 0.5 0.6 0.1
v 0.5 0.6 -2.98023e-08
v 0.5 0.7 0.1
v 0.5 0.7 -2.98023e-08
v 0.6 0.3 0.2
v 0.6 0.3 -0.1
v 0.6 0.4 0.1
v 0.6 0.4 -2.98023e-08
v 0.6 0.5 0.1
v 0.6 0.5 -2.98023e-08
v 0.6 0.6 0.2
v 0.6 0.6 -0.1
v 0.7 0.4 0.1
v 0.7 0.4 -2.98023e-08
v 0.7 0.5 0.1
v 0.7 0.5 -2.98023e-08
v 0.2 0.4 0.3
v 0.2 0.5 0.3
v 0.3 0.4 0.3
v 0.3 0.5 0.3
v 0.4 0.4 0.3
v 0.4 0.5 0.3
v 0.5 0.4 0.3
v 0.5 0.5 0.3
v 0.1 0.3 0.2
v 0.1 0.6 0.2
v 0.2 0.4 0.2
v 0.2 0.5 0.2
v 0.3 0.4 0.2
v 0.3 0.5 0.2
v 0.4 0.4 0.2
v 0.4 0.5 0.2
v 0.5 0.4 0.2
v 0.5 0.5 0.2
v 0.6 0.3 0.2
v 0.6 0.6 0.2
v -0.7 0.4 0.1
v -0.7 0.5 0.1
v -0.6 0.4 0.1
v -0.6 0.5 0.1
v -0.5 0.4 0.1
v -0.5 0.5 0.1
v 0 0.4 0.1
v 0 0.5 0.1
v 0.1 0.4 0.1
v 0.1 0.5 0.1
v 0.2 0.2 0.1
v 0.2 0.3 0.1
v 0.2 0.6 0.1
v 0.2 0.7 0.1
v 0.3 0.2 0.1
v 0.3 0.3 0.1
v 0.3 0.6 0.1
v 0.3 0.7 0.1
v 0.4 0.2 0.1
v 0.4 0.3 0.1
v 0.4 0.6 0.1
v 0.4 0.7 0.1
v 0.5 0.2 0.1
v 0.5 0.3 0.1
v 0.5 0.6 0.1
v 0.5 0.7 0.1
v 0.6 0.4 0.1
v 0.6 0.5 0.1
v 0.7 0.4 0.1
v 0.7 0.5 0.1
v -0.5 0.5 -2.98023e-08
v -0.5 0.8 -2.98023e-08
v 0 0.5 -2.98023e-08
v 0 0.8 -2.98023e-08
v -0.7 0.5 -0.1
v -0.7 0.7 -0.1
v -0.6 0.5 -0.1
v -0.5 0.5 -0.1
v -0.5 0.7 -0.1
v -0.4 0 -0.1
v -0.4 0.1 -0.1
v -0.4 0.2 -0.1
v -0.4 0.4 -0.1
v -0.4 0.5 -0.1
v -0.4 0.8 -0.1
v -0.4 1.1 -0.1
v -0.3 0 -0.1
v -0.3 0.1 -0.1
v -0.2 0 -0.1
v -0.2 0.1 -0.1
v -0.1 0 -0.1
v -0.1 0.1 -0.1
v -0.1 0.2 -0.1
v -0.1 0.4 -0.1
v -0.1 0.5 -0.1
v -0.1 0.8 -0.1
v -0.1 1.1 -0.1
v 0 0.5 -0.1
v 0 0.7 -0.1
v 0.1 0.5 -0.1
v 0.1 0.6 -0.1
v 0.2 0.6 -0.1
v 0.2 0.7 -0.1
v -0.5 0.9 -0.2
v -0.5 1.2 -0.2
v -0.4 0.1 -0.2
v -0.4 0.2 -0.2
v -0.4 0.9 -0.2
v -0.4 1.1 -0.2
v -0.4 1.2 -0.2
v -0.3 0.1 -0.2
v -0.3 0.2 -0.2
v -0.2 0.1 -0.2
v -0.2 0.2 -0.2
v -0.1 0.1 -0.2
v -0.1 0.2 -0.2
v -0.1 0.9 -0.2
v -0.1 1.1 -0.2
v -0.1 1.2 -0.2
v 0 0.9 -0.2
v 0 1.2 -0.2
v -0.7 0.4 -2.98023e-08
v -0.7 0.5 -2.98023e-08
v -0.6 0.4 -2.98023e-08
v -0.6 0.5 -2.98023e-08
v -0.5 0.4 -2.98023e-08
v -0.5 0.5 -2.98023e-08
v 0 0.4 -2.98023e-08
v 0 0.5 -2.98023e-08
v 0.2 0.2 -2.98023e-08
v 0.2 0.3 -2.98023e-08
v 0.2 0.6 -2.98023e-08
v 0.2 0.7 -2.98023e-08
v 0.3 0.2 -2.98023e-08
v 0.3 0.3 -2.98023e-08
v 0.3 0.6 -2.98023e-08
v 0.3 0.7 -2.98023e-08
v 0.4 0.2 -2.98023e-08
v 0.4 0.3 -2.98023e-08
v 0.4 0.6 -2.98023e-08
v 0.4 0.7 -2.98023e-08
v 0.5 0.2 -2.98023e-08
v 0.5 0.3 -2.98023e-08
v 0.5 0.6 -2.98023e-08
v 0.5 0.7 -2.98023e-08
v 0.6 0.4 -2.98023e-08
v 0.6 0.5 -2.98023e-08
v 0.7 0.4 -2.98023e-08
v 0.7 0.5 -2.98023e-08
v 0.1 0.3 -0.1
v 0.1 0.4 -0.1
v 0.1 0.5 -0.1
v 0.2 0.4 -0.1
v 0.2 0.5 -0.1
v 0.2 0.6 -0.1
v 0.3 0.4 -0.1
v 0.3 0.5 -0.1
v 0.4 0.4 -0.1
v 0.4 0.5 -0.1
v 0.5 0.4 -0.1
v 0.5 0.5 -0.1
v 0.6 0.3 -0.1
v 0.6 0.6 -0.1
v 0.2 0.4 -0.2
v 0.2 0.5 -0.2
v 0.3 0.4 -0.2
v 0.3 0.5 -0.2
v 0.4 0.4 -0.2
v 0.4 0.5 -0.2
v 0.5 0.4 -0.2
v 0.5 0.5 -0.2
v -0.7 0.5 -0.3
v -0.7 0.7 -0.3
v -0.6 0.4 -0.3
v -0.6 0.5 -0.3
v -0.5 0.4 -0.3
v -0.5 0.5 -0.3
v -0.5 0.7 -0.3
v -0.5 0.8 -0.3
v -0.5 0.9 -0.3
v -0.5 1.2 -0.3
v -0.4 0 -0.3
v -0.4 0.2 -0.3
v -0.4 0.4 -0.3
v -0.4 0.5 -0.3
v -0.4 0.8 -0.3
v -0.4 0.9 -0.3
v -0.4 1.1 -0.3
v -0.4 1.2 -0.3
v -0.3 0 -0.3
v -0.3 0.2 -0.3
v -0.2 0 -0.3
v -0.2 0.2 -0.3
v -0.1 0 -0.3
v -0.1 0.2 -0.3
v -0.1 0.4 -0.3
v -0.1 0.5 -0.3
v -0.1 0.8 -0.3
v -0.1 0.9 -0.3
v -0.1 1.1 -0.3
v -0.1 1.2 -0.3
v 0 0.4 -0.3
v 0 0.5 -0.3
v 0 0.7 -0.3
v 0 0.8 -0.3
v 0 0.9 -0.3
v 0 1.2 -0.3
v 0.1 0.4 -0.3
v 0.1 0.5 -0.3
v 0.2 0.5 -0.3
v 0.2 0.7 -0.3
v -0.4 0 -0.1
v -0.3 0 -0.1
v -0.2 0 -0.1
v -0.1 0 -0.1
v -0.4 0 -0.3
v -0.3 0 -0.3
v -0.2 0 -0.3
v -0.1 0 -0.3
v 0.2 0.2 0.1
v 0.3 0.2 0.1
v 0.4 0.2 0.1
v 0.5 0.2 0.1
v 0.2 0.2 -2.98023e-08
v 0.3 0.2 -2.98023e-08
v 0.4 0.2 -2.98023e-08
v 0.5 0.2 -2.98023e-08
v -0.4 0.2 -0.1
v -0.1 0.2 -0.1
v -0.4 0.2 -0.2
v -0.3 0.2 -0.2
v -0.2 0.2 -0.2
v -0.1 0.2 -0.2
v -0.3 0.2 -0.3
v -0.2 0.2 -0.3
v 0.1 0.3 0.2
v 0.6 0.3 0.2
v 0.2 0.3 0.1
v 0.3 0.3 0.1
v 0.4 0.3 0.1
v 0.5 0.3 0.1
v 0.2 0.3 -2.98023e-08
v 0.3 0.3 -2.98023e-08
v 0.4 0.3 -2.98023e-08
v 0.5 0.3 -2.98023e-08
v 0.1 0.3 -0.1
v 0.6 0.3 -0.1
v 0.2 0.4 0.3
v 0.3 0.4 0.3
v 0.4 0.4 0.3
v 0.5 0.4 0.3
v 0.2 0.4 0.2
v 0.3 0.4 0.2
v 0.4 0.4 0.2
v 0.5 0.4 0.2
v -0.7 0.4 0.1
v -0.6 0.4 0.1
v -0.5 0.4 0.1
v 0 0.4 0.1
v 0.1 0.4 0.1
v 0.6 0.4 0.1
v 0.7 0.4 0.1
v -0.7 0.4 -2.98023e-08
v -0.6 0.4 -2.98023e-08
v -0.5 0.4 -2.98023e-08
v 0 0.4 -2.98023e-08
v 0.6 0.4 -2.98023e-08
v 0.7 0.4 -2.98023e-08
v 0.1 0.4 -0.1
v 0.2 0.4 -0.1
v 0.3 0.4 -0.1
v 0.4 0.4 -0.1
v 0.5 0.4 -0.1
v 0.2 0.4 -0.2
v 0.3 0.4 -0.2
v 0.4 0.4 -0.2
v 0.5 0.4 -0.2
v -0.6 0.4 -0.3
v -0.5 0.4 -0.3
v 0 0.4 -0.3
v 0.1 0.4 -0.3
v -0.5 0.5 -2.98023e-08
v 0 0.5 -2.98023e-08
v -0.7 0.5 -0.1
v -0.6 0.5 -0.1
v -0.4 0.5 -0.1
v -0.1 0.5 -0.1
v 0.1 0.5 -0.1
v 0.2 0.5 -0.1
v 0.2 0.5 -0.2
v -0.7 0.5 -0.3
v -0.6 0.5 -0.3
v -0.5 0.5 -0.3
v -0.4 0.5 -0.3
v -0.1 0.5 -0.3
v 0 0.5 -0.3
v 0.1 0.5 -0.3
v 0.2 0.5 -0.3
v -0.5 0.9 -0.2
v -0.4 0.9 -0.2
v -0.1 0.9 -0.2
v 0 0.9 -0.2
v -0.5 0.9 -0.3
v -0.4 0.9 -0.3
v -0.1 0.9 -0.3
v 0 0.9 -0.3
v -0.4 0.1 -0.1
v -0.3 0.1 -0.1
v -0.2 0.1 -0.1
v -0.1 0.1 -0.1
v -0.4 0.1 -0.2
v -0.3 0.1 -0.2
v -0.2 0.1 -0.2
v -0.1 0.1 -0.2
v 0.2 0.5 0.3
v 0.3 0.5 0.3
v 0.4 0.5 0.3
v 0.5 0.5 0.3
v 0.2 0.5 0.2
v 0.3 0.5 0.2
v 0.4 0.5 0.2
v 0.5 0.5 0.2
v -0.7 0.5 0.1
v -0.6 0.5 0.1
v -0.5 0.5 0.1
v 0 0.5 0.1
v 0.1 0.5 0.1
v 0.6 0.5 0.1
v 0.7 0.5 0.1
v -0.7 0.5 -2.98023e-08
v -0.6 0.5 -2.98023e-08
v -0.5 0.5 -2.98023e-08
v 0 0.5 -2.98023e-08
v 0.6 0.5 -2.98023e-08
v 0.7 0.5 -2.98023e-08
v -0.6 0.5 -0.1
v -0.5 0.5 -0.1
v 0 0.5 -0.1
v 0.1 0.5 -0.1
v 0.2 0.5 -0.1
v 0.3 0.5 -0.1
v 0.4 0.5 -0.1
v 0.5 0.5 -0.1
v 0.2 0.5 -0.2
v 0.3 0.5 -0.2
v 0.4 0.5 -0.2
v 0.5 0.5 -0.2
v 0.1 0.6 0.2
v 0.6 0.6 0.2
v 0.2 0.6 0.1
v 0.3 0.6 0.1
v 0.4 0.6 0.1
v 0.5 0.6 0.1
v 0.2 0.6 -2.98023e-08
v 0.3 0.6 -2.98023e-08
v 0.4 0.6 -2.98023e-08
v 0.5 0.6 -2.98023e-08
v 0.1 0.6 -0.1
v 0.2 0.6 -0.1
v 0.6 0.6 -0.1
v 0.2 0.7 0.1
v 0.3 0.7 0.1
v 0.4 0.7 0.1
v 0.5 0.7 0.1
v 0.2 0.7 -2.98023e-08
v 0.3 0.7 -2.98023e-08
v 0.4 0.7 -2.98023e-08
v 0.5 0.7 -2.98023e-08
v -0.7 0.7 -0.1
v -0.5 0.7 -0.1
v 0 0.7 -0.1
v 0.2 0.7 -0.1
v -0.7 0.7 -0.3
v -0.5 0.7 -0.3
v 0 0.7 -0.3
v 0.2 0.7 -0.3
v -0.5 0.8 -2.98023e-08
v 0 0.8 -2.98023e-08
v -0.4 0.8 -0.1
v -0.1 0.8 -0.1
v -0.5 0.8 -0.3
v -0.4 0.8 -0.3
v -0.1 0.8 -0.3
v 0 0.8 -0.3
v -0.4 1.1 -0.1
v -0.1 1.1 -0.1
v -0.4 1.1 -0.2
v -0.1 1.1 -0.2
v -0.4 1.1 -0.3
v -0.1 1.1 -0.3
v -0.5 1.2 -0.2
v -0.4 1.2 -0.2
v -0.1 1.2 -0.2
v 0 1.2 -0.2
v -0.5 1.2 -0.3
v -0.4 1.2 -0.3
v -0.1 1.2 -0.3
v 0 1.2 -0.3

# faces
f 3/2/1 2/2/1 1/2/1
f 4/2/1 2/2/1 3/2/1
f 7/1/1 6/1/1 5/1/1
f 8/1/1 6/1/1 7/1/1
f 11/1/1 10/1/1 9/1/1
f 12/1/1 10/1/1 11/1/1
f 13/1/1 10/1/1 12/1/1
f 16/1/1 15/1/1 14/1/1
f 18/1/1 16/1/1 14/1/1
f 18/1/1 17/1/1 16/1/1
f 19/1/1 17/1/1 18/1/1
f 22/1/1 21/1/1 20/1/1
f 23/1/1 21/1/1 22/1/1
f 26/1/1 25/1/1 24/1/1
f 27/1/1 25/1/1 26/1/1
f 29/1/1 25/1/1 27/1/1
f 30/1/1 25/1/1 29/1/1
f 31/2/1 29/2/1 28/2/1
f 31/2/1 30/2/1 29/2/1
f 32/2/1 30/2/1 31/2/1
f 33/1/1 32/1/1 31/1/1
f 34/1/1 32/1/1 33/1/1
f 37/1/1 36/1/1 35/1/1
f 38/1/1 36/1/1 37/1/1
f 39/1/1 37/1/1 35/1/1
f 40/1/1 37/1/1 39/1/1
f 43/1/1 42/1/1 41/1/1
f 44/1/1 42/1/1 43/1/1
f 45/1/1 42/1/1 44/1/1
f 46/1/1 42/1/1 45/1/1
f 49/1/1 48/1/1 47/1/1
f 50/1/1 48/1/1 49/1/1
f 53/1/1 52/1/1 51/1/1
f 54/1/1 52/1/1 53/1/1
f 57/2/1 56/2/1 55/2/1
f 58/2/1 56/2/1 57/2/1
f 59/2/1 57/2/1 55/2/1
f 61/2/1 59/2/1 55/2/1
f 61/2/1 60/2/1 59/2/1
f 62/2/1 60/2/1 61/2/1
f 65/3/1 64/3/1 63/3/1
f 66/3/1 64/3/1 65/3/1
f 71/3/1 68/3/1 67/3/1
f 72/3/1 68/3/1 71/3/1
f 73/3/1 70/3/1 69/3/1
f 74/3/1 70/3/1 73/3/1
f 77/3/1 76/3/1 75/3/1
f 78/3/1 76/3/1 77/3/1
f 81/3/1 80/3/1 79/3/1
f 82/3/1 80/3/1 81/3/1
f 87/3/1 84/3/1 83/3/1
f 88/3/1 84/3/1 87/3/1
f 89/3/1 86/3/1 85/3/1
f 90/3/1 86/3/1 89/3/1
f 93/3/1 92/3/1 91/3/1
f 94/3/1 92/3/1 93/3/1
f 95/1/2 96/1/2 97/1/2
f 97/1/2 96/1/2 98/1/2
f 99/1/2 100/1/2 101/1/2
f 101/1/2 100/1/2 102/1/2
f 103/1/2 104/1/2 105/1/2
f 105/1/2 104/1/2 106/1/2
f 106/1/2 104/1/2 107/1/2
f 107/1/2 104/1/2 108/1/2
f 109/1/2 110/1/2 111/1/2
f 111/1/2 110/1/2 112/1/2
f 112/1/2 110/1/2 114/1/2
f 114/1/2 110/1/2 115/1/2
f 113/2/2 114/2/2 116/2/2
f 114/2/2 115/2/2 116/2/2
f 116/2/2 115/2/2 117/2/2
f 116/1/2 117/1/2 118/1/2
f 118/1/2 117/1/2 119/1/2
f 120/1/2 121/1/2 122/1/2
f 122/1/2 121/1/2 123/1/2
f 120/1/2 122/1/2 124/1/2
f 124/1/2 122/1/2 125/1/2
f 126/1/2 127/1/2 128/1/2
f 126/1/2 128/1/2 130/1/2
f 128/1/2 129/1/2 130/1/2
f 130/1/2 129/1/2 131/1/2
f 132/1/2 133/1/2 134/1/2
f 134/1/2 133/1/2 135/1/2
f 136/1/2 137/1/2 138/1/2
f 138/1/2 137/1/2 139/1/2
f 140/1/2 141/1/2 143/1/2
f 141/1/2 142/1/2 143/1/2
f 143/1/2 142/1/2 144/1/2
f 144/1/2 142/1/2 145/1/2
f 146/3/2 147/3/2 148/3/2
f 148/3/2 147/3/2 149/3/2
f 150/3/2 151/3/2 154/3/2
f 154/3/2 151/3/2 155/3/2
f 152/3/2 153/3/2 156/3/2
f 156/3/2 153/3/2 157/3/2
f 158/3/2 159/3/2 160/3/2
f 160/3/2 159/3/2 161/3/2
f 162/3/2 163/3/2 164/3/2
f 164/3/2 163/3/2 165/3/2
f 166/3/2 167/3/2 170/3/2
f 170/3/2 167/3/2 171/3/2
f 168/3/2 169/3/2 172/3/2
f 172/3/2 169/3/2 173/3/2
f 174/3/2 175/3/2 176/3/2
f 176/3/2 175/3/2 177/3/2
f 178/2/2 179/2/2 180/2/2
f 180/2/2 179/2/2 181/2/2
f 178/2/2 180/2/2 182/2/2
f 181/2/2 179/2/2 183/2/2
f 178/2/2 182/2/2 184/2/2
f 182/2/2 183/2/2 184/2/2
f 183/2/2 179/2/2 185/2/2
f 184/2/2 183/2/2 185/2/2
f 186/3/2 187/3/2 188/3/2
f 188/3/2 187/3/2 189/3/2
f 192/3/3 191/3/3 190/3/3
f 193/3/3 191/3/3 192/3/3
f 196/3/3 195/3/3 194/3/3
f 197/3/3 195/3/3 196/3/3
f 200/2/3 199/2/3 198/2/3
f 201/2/3 199/2/3 200/2/3
f 202/2/3 200/2/3 198/2/3
f 203/2/3 199/2/3 201/2/3
f 204/2/3 202/2/3 198/2/3
f 204/2/3 203/2/3 202/2/3
f 205/2/3 199/2/3 203/2/3
f 205/2/3 203/2/3 204/2/3
f 206/2/3 204/2/3 198/2/3
f 207/2/3 199/2/3 205/2/3
f 208/2/3 206/2/3 198/2/3
f 208/2/3 207/2/3 206/2/3
f 209/2/3 199/2/3 207/2/3
f 209/2/3 207/2/3 208/2/3
f 212/2/3 211/2/3 210/2/3
f 213/2/3 211/2/3 212/2/3
f 214/1/3 213/1/3 212/1/3
f 215/1/3 213/1/3 214/1/3
f 216/2/3 215/2/3 214/2/3
f 217/2/3 215/2/3 216/2/3
f 218/1/3 217/1/3 216/1/3
f 219/1/3 217/1/3 218/1/3
f 224/3/3 221/3/3 220/3/3
f 225/3/3 221/3/3 224/3/3
f 226/3/3 223/3/3 222/3/3
f 227/3/3 223/3/3 226/3/3
f 232/3/3 229/3/3 228/3/3
f 233/3/3 229/3/3 232/3/3
f 234/3/3 231/3/3 230/3/3
f 235/3/3 231/3/3 234/3/3
f 238/3/3 237/3/3 236/3/3
f 239/3/3 237/3/3 238/3/3
f 242/1/3 241/1/3 240/1/3
f 243/1/3 241/1/3 242/1/3
f 246/1/3 245/1/3 244/1/3
f 247/1/3 245/1/3 246/1/3
f 248/1/3 245/1/3 247/1/3
f 256/1/3 250/1/3 249/1/3
f 257/1/3 250/1/3 256/1/3
f 260/1/3 259/1/3 258/1/3
f 261/1/3 259/1/3 260/1/3
f 262/2/3 252/2/3 251/2/3
f 263/1/3 253/1/3 252/1/3
f 263/2/3 252/2/3 262/2/3
f 264/1/3 253/1/3 263/1/3
f 265/1/3 255/1/3 254/1/3
f 266/1/3 255/1/3 265/1/3
f 269/1/3 268/1/3 267/1/3
f 270/1/3 268/1/3 269/1/3
f 271/1/3 268/1/3 270/1/3
f 272/1/3 268/1/3 271/1/3
f 277/1/3 274/1/3 273/1/3
f 278/1/3 274/1/3 277/1/3
f 279/1/3 274/1/3 278/1/3
f 280/1/3 276/1/3 275/1/3
f 281/1/3 276/1/3 280/1/3
f 284/1/3 283/1/3 282/1/3
f 285/1/3 283/1/3 284/1/3
f 289/1/3 288/1/3 287/1/3
f 289/1/3 287/1/3 286/1/3
f 290/1/3 288/1/3 289/1/3
f 291/2/4 292/2/4 293/2/4
f 293/2/4 292/2/4 294/2/4
f 295/2/4 296/2/4 297/2/4
f 297/2/4 296/2/4 298/2/4
f 299/3/4 300/3/4 303/3/4
f 303/3/4 300/3/4 304/3/4
f 301/3/4 302/3/4 305/3/4
f 305/3/4 302/3/4 306/3/4
f 307/3/4 308/3/4 311/3/4
f 311/3/4 308/3/4 312/3/4
f 309/3/4 310/3/4 313/3/4
f 313/3/4 310/3/4 314/3/4
f 315/3/4 316/3/4 317/3/4
f 317/3/4 316/3/4 318/3/4
f 319/2/4 320/2/4 322/2/4
f 320/2/4 321/2/4 322/2/4
f 322/2/4 321/2/4 323/2/4
f 319/2/4 322/2/4 325/2/4
f 323/2/4 324/2/4 326/2/4
f 319/2/4 325/2/4 327/2/4
f 325/2/4 326/2/4 327/2/4
f 326/2/4 324/2/4 328/2/4
f 327/2/4 326/2/4 328/2/4
f 319/2/4 327/2/4 329/2/4
f 328/2/4 324/2/4 330/2/4
f 319/2/4 329/2/4 331/2/4
f 329/2/4 330/2/4 331/2/4
f 330/2/4 324/2/4 332/2/4
f 331/2/4 330/2/4 332/2/4
f 333/3/4 334/3/4 335/3/4
f 335/3/4 334/3/4 336/3/4
f 337/3/4 338/3/4 339/3/4
f 339/3/4 338/3/4 340/3/4
f 341/1/4 342/1/4 344/1/4
f 343/1/4 344/1/4 345/1/4
f 344/1/4 342/1/4 346/1/4
f 345/1/4 344/1/4 346/1/4
f 346/1/4 342/1/4 347/1/4
f 346/1/4 347/1/4 354/1/4
f 347/1/4 348/1/4 354/1/4
f 354/1/4 348/1/4 355/1/4
f 349/1/4 350/1/4 356/1/4
f 356/1/4 350/1/4 357/1/4
f 357/1/4 350/1/4 358/1/4
f 351/1/4 352/1/4 359/1/4
f 352/2/4 353/2/4 360/2/4
f 359/1/4 352/1/4 360/1/4
f 360/2/4 353/2/4 362/2/4
f 361/1/4 362/1/4 363/1/4
f 362/2/4 353/2/4 364/2/4
f 363/1/4 362/1/4 364/1/4
f 354/1/4 355/1/4 365/1/4
f 364/2/4 353/2/4 365/2/4
f 353/1/4 354/1/4 365/1/4
f 355/1/4 356/1/4 365/1/4
f 356/1/4 357/1/4 365/1/4
f 365/1/4 357/1/4 366/1/4
f 366/1/4 357/1/4 367/1/4
f 367/1/4 357/1/4 368/1/4
f 368/1/4 357/1/4 369/1/4
f 366/1/4 367/1/4 372/1/4
f 372/1/4 367/1/4 373/1/4
f 373/1/4 367/1/4 374/1/4
f 369/1/4 370/1/4 375/1/4
f 368/1/4 369/1/4 375/1/4
f 375/1/4 370/1/4 376/1/4
f 372/1/4 373/1/4 377/1/4
f 371/1/4 372/1/4 377/1/4
f 377/1/4 373/1/4 378/1/4
f 378/1/4 373/1/4 379/1/4
f 379/1/4 373/1/4 380/1/4
f 385/1/5 382/1/5 381/1/5
f 386/1/5 382/1/5 385/1/5
f 387/1/5 384/1/5 383/1/5
f 388/1/5 384/1/5 387/1/5
f 393/3/5 390/3/5 389/3/5
f 394/3/5 390/3/5 393/3/5
f 395/3/5 392/3/5 391/3/5
f 396/3/5 392/3/5 395/3/5
f 399/2/5 398/2/5 397/2/5
f 400/2/5 398/2/5 399/2/5
f 401/2/5 398/2/5 400/2/5
f 402/2/5 398/2/5 401/2/5
f 403/2/5 401/2/5 400/2/5
f 404/2/5 401/2/5 403/2/5
f 407/2/5 406/2/5 405/2/5
f 408/2/5 406/2/5 407/2/5
f 409/2/5 406/2/5 408/2/5
f 410/2/5 406/2/5 409/2/5
f 411/2/5 407/2/5 405/2/5
f 412/2/5 409/2/5 408/2/5
f 413/2/5 409/2/5 412/2/5
f 414/2/5 406/2/5 410/2/5
f 415/2/5 413/2/5 412/2/5
f 415/2/5 414/2/5 413/2/5
f 415/2/5 411/2/5 405/2/5
f 415/2/5 412/2/5 411/2/5
f 416/2/5 406/2/5 414/2/5
f 416/2/5 414/2/5 415/2/5
f 421/3/5 418/3/5 417/3/5
f 422/3/5 418/3/5 421/3/5
f 423/3/5 420/3/5 419/3/5
f 424/3/5 420/3/5 423/3/5
f 432/2/5 426/2/5 425/2/5
f 433/1/5 427/1/5 426/1/5
f 433/2/5 426/2/5 432/2/5
f 434/2/5 428/2/5 427/2/5
f 434/1/5 427/1/5 433/1/5
f 435/1/5 429/1/5 428/1/5
f 435/2/5 428/2/5 434/2/5
f 436/3/5 431/3/5 430/3/5
f 437/3/5 431/3/5 436/3/5
f 438/1/5 429/1/5 435/1/5
f 443/3/5 440/3/5 439/3/5
f 444/3/5 440/3/5 443/3/5
f 445/3/5 442/3/5 441/3/5
f 446/3/5 442/3/5 445/3/5
f 447/1/5 434/1/5 433/1/5
f 448/1/5 434/1/5 447/1/5
f 449/1/5 438/1/5 435/1/5
f 450/1/5 438/1/5 449/1/5
f 455/1/5 452/1/5 451/1/5
f 456/1/5 452/1/5 455/1/5
f 459/1/5 458/1/5 457/1/5
f 460/1/5 454/1/5 453/1/5
f 461/1/5 454/1/5 460/1/5
f 462/1/5 455/1/5 451/1/5
f 463/1/5 455/1/5 462/1/5
f 464/1/5 452/1/5 456/1/5
f 465/1/5 452/1/5 464/1/5
f 466/1/5 459/1/5 457/1/5
f 467/1/5 459/1/5 466/1/5
f 472/1/5 469/1/5 468/1/5
f 473/1/5 469/1/5 472/1/5
f 474/1/5 471/1/5 470/1/5
f 475/1/5 471/1/5 474/1/5
f 476/1/6 477/1/6 480/1/6
f 480/1/6 477/1/6 481/1/6
f 478/1/6 479/1/6 482/1/6
f 482/1/6 479/1/6 483/1/6
f 484/3/6 485/3/6 488/3/6
f 488/3/6 485/3/6 489/3/6
f 486/3/6 487/3/6 490/3/6
f 490/3/6 487/3/6 491/3/6
f 492/2/6 493/2/6 499/2/6
f 493/1/6 494/1/6 500/1/6
f 499/2/6 493/2/6 500/2/6
f 494/2/6 495/2/6 501/2/6
f 500/1/6 494/1/6 501/1/6
f 495/1/6 496/1/6 502/1/6
f 501/2/6 495/2/6 502/2/6
f 497/3/6 498/3/6 503/3/6
f 503/3/6 498/3/6 504/3/6
f 500/1/6 501/1/6 505/1/6
f 505/1/6 501/1/6 506/1/6
f 502/1/6 496/1/6 507/1/6
f 507/1/6 496/1/6 508/1/6
f 509/3/6 510/3/6 513/3/6
f 513/3/6 510/3/6 514/3/6
f 511/3/6 512/3/6 515/3/6
f 515/3/6 512/3/6 516/3/6
f 517/2/6 518/2/6 519/2/6
f 519/2/6 518/2/6 520/2/6
f 520/2/6 518/2/6 521/2/6
f 521/2/6 518/2/6 522/2/6
f 517/2/6 519/2/6 523/2/6
f 520/2/6 521/2/6 524/2/6
f 524/2/6 521/2/6 525/2/6
f 522/2/6 518/2/6 526/2/6
f 524/2/6 525/2/6 527/2/6
f 525/2/6 526/2/6 527/2/6
f 517/2/6 523/2/6 527/2/6
f 523/2/6 524/2/6 527/2/6
f 527/2/6 526/2/6 528/2/6
f 526/2/6 518/2/6 529/2/6
f 528/2/6 526/2/6 529/2/6
f 530/3/6 531/3/6 534/3/6
f 534/3/6 531/3/6 535/3/6
f 532/3/6 533/3/6 536/3/6
f 536/3/6 533/3/6 537/3/6
f 538/1/6 539/1/6 542/1/6
f 542/1/6 539/1/6 543/1/6
f 540/1/6 541/1/6 544/1/6
f 544/1/6 541/1/6 545/1/6
f 546/1/6 547/1/6 548/1/6
f 548/1/6 547/1/6 549/1/6
f 546/1/6 548/1/6 550/1/6
f 550/1/6 548/1/6 551/1/6
f 549/1/6 547/1/6 552/1/6
f 552/1/6 547/1/6 553/1/6
f 554/1/6 555/1/6 556/1/6
f 556/1/6 555/1/6 557/1/6
f 556/1/6 557/1/6 558/1/6
f 558/1/6 557/1/6 559/1/6
f 560/1/6 561/1/6 564/1/6
f 564/1/6 561/1/6 565/1/6
f 562/1/6 563/1/6 566/1/6
f 566/1/6 563/1/6 567/1/6
