# MagicaVoxel @ Ephtracy

# group
o 

# material
mtllib treasure_chest_f_unlocked.mtl
usemtl palette

# normals
vn -1 0 0
vn 1 0 0
vn 0 0 1
vn 0 0 -1
vn 0 -1 0
vn 0 1 0

# texcoords
vt 0.751953 0.5
vt 0.912109 0.5
vt 0.970703 0.5
vt 0.978516 0.5

# verts
v -0.4 0 0.4
v -0.4 0 -0.3
v -0.4 0.1 0.3
v -0.4 0.1 -0.2
v -0.4 0.4 0.3
v -0.4 0.4 -0.2
v -0.4 0.5 0.4
v -0.4 0.5 -0.1
v -0.4 0.6 -0.2
v -0.4 0.6 -0.3
v -0.4 0.6 -0.4
v -0.4 0.7 -0.3
v -0.4 0.7 -0.4
v -0.4 0.7 -0.5
v -0.4 1 -0.3
v -0.4 1 -0.4
v -0.4 1 -0.5
v -0.4 1.1 -0.2
v -0.4 1.1 -0.3
v -0.4 1.1 -0.4
v -0.4 1.2 -0.1
v -0.4 1.2 -0.3
v -0.3 0.5 0.3
v -0.3 0.5 -0.1
v -0.3 0.6 0.3
v -0.3 0.6 0.2
v -0.3 0.6 0.1
v -0.3 0.6 -0.1
v -0.3 0.7 0.2
v -0.3 0.7 0.1
v -0.2 0.6 0.3
v -0.2 0.6 0.2
v -0.2 0.6 0
v -0.2 0.6 -0.1
v -0.2 0.7 0.3
v -0.2 0.7 0.2
v -0.2 0.7 0
v -0.2 0.7 -0.1
v -0.1 0.6 0.1
v -0.1 0.6 0
v -0.1 0.7 0.1
v -0.1 0.7 0
v 0 0.6 0
v 0 0.6 -0.1
v 0 0.7 0
v 0 0.7 -0.1
v 0.2 0.5 0.3
v 0.2 0.5 0.2
v 0.2 0.6 0.3
v 0.2 0.6 0.2
v 0.2 0.6 0
v 0.2 0.6 -0.1
v 0.2 0.7 0
v 0.2 0.7 -0.1
v 0.3 0.6 0.3
v 0.3 0.6 0.1
v 0.3 0.7 0.3
v 0.3 0.7 0.1
v -0.1 0.6 0.3
v -0.1 0.6 0.2
v -0.1 0.6 0
v -0.1 0.6 -0.1
v -0.1 0.7 0.3
v -0.1 0.7 0.2
v -0.1 0.7 0
v -0.1 0.7 -0.1
v 0 0.5 0.3
v 0 0.5 0.2
v 0 0.6 0.3
v 0 0.6 0.2
v 0 0.6 0
v 0 0.7 0.2
v 0 0.7 0
v 0.1 0.6 0
v 0.1 0.6 -0.1
v 0.1 0.7 0
v 0.1 0.7 -0.1
v 0.4 0.5 0.3
v 0.4 0.5 -0.1
v 0.4 0.6 0.1
v 0.4 0.6 0
v 0.4 0.7 0.3
v 0.4 0.7 0.1
v 0.4 0.7 0
v 0.4 0.7 -0.1
v 0.5 0 0.4
v 0.5 0 -0.3
v 0.5 0.1 0.3
v 0.5 0.1 -0.2
v 0.5 0.4 0.3
v 0.5 0.4 -0.2
v 0.5 0.5 0.4
v 0.5 0.5 -0.1
v 0.5 0.6 -0.2
v 0.5 0.6 -0.3
v 0.5 0.6 -0.4
v 0.5 0.7 -0.3
v 0.5 0.7 -0.4
v 0.5 0.7 -0.5
v 0.5 1 -0.3
v 0.5 1 -0.4
v 0.5 1 -0.5
v 0.5 1.1 -0.2
v 0.5 1.1 -0.3
v 0.5 1.1 -0.4
v 0.5 1.2 -0.1
v 0.5 1.2 -0.3
v -0.4 0 0.4
v -0.4 0.5 0.4
v -0.3 0.1 0.4
v -0.3 0.4 0.4
v -0.1 0.2 0.4
v -0.1 0.4 0.4
v 0 0.3 0.4
v 0 0.4 0.4
v 0.1 0.3 0.4
v 0.1 0.4 0.4
v 0.2 0.2 0.4
v 0.2 0.4 0.4
v 0.4 0.1 0.4
v 0.4 0.4 0.4
v 0.5 0 0.4
v 0.5 0.5 0.4
v -0.3 0.5 0.3
v -0.3 0.6 0.3
v -0.2 0.6 0.3
v -0.2 0.7 0.3
v -0.1 0.6 0.3
v -0.1 0.7 0.3
v 0 0.5 0.3
v 0 0.6 0.3
v 0.2 0.5 0.3
v 0.2 0.6 0.3
v 0.3 0.6 0.3
v 0.3 0.7 0.3
v 0.4 0.5 0.3
v 0.4 0.7 0.3
v -0.3 0.6 0.2
v -0.3 0.7 0.2
v -0.2 0.6 0.2
v -0.2 0.7 0.2
v -0.1 0.6 0.2
v -0.1 0.7 0.2
v 0 0.5 0.2
v 0 0.6 0.2
v 0 0.7 0.2
v 0.2 0.5 0.2
v 0.2 0.6 0.2
v -0.2 0.6 0
v -0.2 0.7 0
v -0.1 0.6 0
v -0.1 0.7 0
v 0 0.6 0
v 0 0.7 0
v 0.1 0.6 0
v 0.1 0.7 0
v 0.2 0.6 0
v 0.2 0.7 0
v 0.4 0.6 0
v 0.4 0.7 0
v -0.4 0.5 -0.1
v -0.4 1.2 -0.1
v -0.3 0.5 -0.1
v -0.3 0.6 -0.1
v -0.3 1.1 -0.1
v -0.2 0.6 -0.1
v -0.2 0.7 -0.1
v -0.1 0.6 -0.1
v -0.1 0.7 -0.1
v 0 0.6 -0.1
v 0 0.7 -0.1
v 0.1 0.6 -0.1
v 0.1 0.7 -0.1
v 0.2 0.6 -0.1
v 0.2 0.7 -0.1
v 0.4 0.5 -0.1
v 0.4 0.7 -0.1
v 0.4 1.1 -0.1
v 0.5 0.5 -0.1
v 0.5 1.2 -0.1
v -0.3 0.6 0.1
v -0.3 0.7 0.1
v -0.1 0.6 0.1
v -0.1 0.7 0.1
v 0.3 0.6 0.1
v 0.3 0.7 0.1
v 0.4 0.6 0.1
v 0.4 0.7 0.1
v -0.1 0.6 0
v -0.1 0.7 0
v 0 0.6 0
v 0 0.7 0
v -0.4 0 -0.3
v -0.4 0.6 -0.3
v -0.4 1.1 -0.3
v -0.4 1.2 -0.3
v -0.3 0.1 -0.3
v -0.3 0.4 -0.3
v -0.3 0.5 -0.3
v -0.3 0.6 -0.3
v -0.3 1.1 -0.3
v -0.3 1.2 -0.3
v -0.2 0.5 -0.3
v -0.2 0.6 -0.3
v -0.2 1.1 -0.3
v -0.2 1.2 -0.3
v -0.1 0.5 -0.3
v -0.1 0.6 -0.3
v -0.1 1.1 -0.3
v -0.1 1.2 -0.3
v 0.2 0.5 -0.3
v 0.2 0.6 -0.3
v 0.2 1.1 -0.3
v 0.2 1.2 -0.3
v 0.3 0.5 -0.3
v 0.3 0.6 -0.3
v 0.3 1.1 -0.3
v 0.3 1.2 -0.3
v 0.4 0.1 -0.3
v 0.4 0.4 -0.3
v 0.4 0.5 -0.3
v 0.4 0.6 -0.3
v 0.4 1.1 -0.3
v 0.4 1.2 -0.3
v 0.5 0 -0.3
v 0.5 0.6 -0.3
v 0.5 1.1 -0.3
v 0.5 1.2 -0.3
v -0.4 0.6 -0.4
v -0.4 0.7 -0.4
v -0.4 1 -0.4
v -0.4 1.1 -0.4
v -0.3 0.6 -0.4
v -0.3 0.7 -0.4
v -0.3 1 -0.4
v -0.3 1.1 -0.4
v -0.2 0.6 -0.4
v -0.2 0.7 -0.4
v -0.2 1 -0.4
v -0.2 1.1 -0.4
v -0.1 0.6 -0.4
v -0.1 0.7 -0.4
v -0.1 1 -0.4
v -0.1 1.1 -0.4
v 0.2 0.6 -0.4
v 0.2 0.7 -0.4
v 0.2 1 -0.4
v 0.2 1.1 -0.4
v 0.3 0.6 -0.4
v 0.3 0.7 -0.4
v 0.3 1 -0.4
v 0.3 1.1 -0.4
v 0.4 0.6 -0.4
v 0.4 0.7 -0.4
v 0.4 1 -0.4
v 0.4 1.1 -0.4
v 0.5 0.6 -0.4
v 0.5 0.7 -0.4
v 0.5 1 -0.4
v 0.5 1.1 -0.4
v -0.4 0.7 -0.5
v -0.4 1 -0.5
v -0.3 0.7 -0.5
v -0.3 1 -0.5
v -0.2 0.7 -0.5
v -0.2 1 -0.5
v -0.1 0.7 -0.5
v -0.1 1 -0.5
v 0.2 0.7 -0.5
v 0.2 1 -0.5
v 0.3 0.7 -0.5
v 0.3 1 -0.5
v 0.4 0.7 -0.5
v 0.4 1 -0.5
v 0.5 0.7 -0.5
v 0.5 1 -0.5
v -0.4 0 0.4
v 0.5 0 0.4
v -0.4 0 -0.3
v 0.5 0 -0.3
v -0.4 0.6 -0.3
v -0.3 0.6 -0.3
v -0.2 0.6 -0.3
v -0.1 0.6 -0.3
v 0.2 0.6 -0.3
v 0.3 0.6 -0.3
v 0.4 0.6 -0.3
v 0.5 0.6 -0.3
v -0.4 0.6 -0.4
v -0.3 0.6 -0.4
v -0.2 0.6 -0.4
v -0.1 0.6 -0.4
v 0.2 0.6 -0.4
v 0.3 0.6 -0.4
v 0.4 0.6 -0.4
v 0.5 0.6 -0.4
v -0.4 0.7 -0.4
v -0.3 0.7 -0.4
v -0.2 0.7 -0.4
v -0.1 0.7 -0.4
v 0.2 0.7 -0.4
v 0.3 0.7 -0.4
v 0.4 0.7 -0.4
v 0.5 0.7 -0.4
v -0.4 0.7 -0.5
v -0.3 0.7 -0.5
v -0.2 0.7 -0.5
v -0.1 0.7 -0.5
v 0.2 0.7 -0.5
v 0.3 0.7 -0.5
v 0.4 0.7 -0.5
v 0.5 0.7 -0.5
v -0.4 0.5 0.4
v 0.5 0.5 0.4
v -0.3 0.5 0.3
v 0 0.5 0.3
v 0.2 0.5 0.3
v 0.4 0.5 0.3
v 0 0.5 0.2
v 0.2 0.5 0.2
v -0.4 0.5 -0.1
v -0.3 0.5 -0.1
v 0.4 0.5 -0.1
v 0.5 0.5 -0.1
v -0.3 0.6 0.3
v -0.2 0.6 0.3
v -0.1 0.6 0.3
v 0 0.6 0.3
v 0.2 0.6 0.3
v 0.3 0.6 0.3
v -0.3 0.6 0.2
v -0.2 0.6 0.2
v -0.1 0.6 0.2
v 0 0.6 0.2
v 0.2 0.6 0.2
v -0.3 0.6 0.1
v -0.1 0.6 0.1
v 0.3 0.6 0.1
v 0.4 0.6 0.1
v -0.2 0.6 0
v -0.1 0.6 0
v 0 0.6 0
v 0.1 0.6 0
v 0.2 0.6 0
v 0.4 0.6 0
v -0.3 0.6 -0.1
v -0.2 0.6 -0.1
v -0.1 0.6 -0.1
v 0 0.6 -0.1
v 0.1 0.6 -0.1
v 0.2 0.6 -0.1
v -0.2 0.7 0.3
v -0.1 0.7 0.3
v 0.3 0.7 0.3
v 0.4 0.7 0.3
v -0.3 0.7 0.2
v -0.2 0.7 0.2
v -0.1 0.7 0.2
v 0 0.7 0.2
v -0.3 0.7 0.1
v -0.1 0.7 0.1
v 0.3 0.7 0.1
v 0.4 0.7 0.1
v -0.2 0.7 0
v -0.1 0.7 0
v 0 0.7 0
v 0.1 0.7 0
v 0.2 0.7 0
v 0.4 0.7 0
v -0.2 0.7 -0.1
v -0.1 0.7 -0.1
v 0 0.7 -0.1
v 0.1 0.7 -0.1
v 0.2 0.7 -0.1
v 0.4 0.7 -0.1
v -0.4 1 -0.4
v -0.3 1 -0.4
v -0.2 1 -0.4
v -0.1 1 -0.4
v 0.2 1 -0.4
v 0.3 1 -0.4
v 0.4 1 -0.4
v 0.5 1 -0.4
v -0.4 1 -0.5
v -0.3 1 -0.5
v -0.2 1 -0.5
v -0.1 1 -0.5
v 0.2 1 -0.5
v 0.3 1 -0.5
v 0.4 1 -0.5
v 0.5 1 -0.5
v -0.4 1.1 -0.3
v -0.3 1.1 -0.3
v -0.2 1.1 -0.3
v -0.1 1.1 -0.3
v 0.2 1.1 -0.3
v 0.3 1.1 -0.3
v 0.4 1.1 -0.3
v 0.5 1.1 -0.3
v -0.4 1.1 -0.4
v -0.3 1.1 -0.4
v -0.2 1.1 -0.4
v -0.1 1.1 -0.4
v 0.2 1.1 -0.4
v 0.3 1.1 -0.4
v 0.4 1.1 -0.4
v 0.5 1.1 -0.4
v -0.4 1.2 -0.1
v 0.5 1.2 -0.1
v -0.3 1.2 -0.2
v -0.2 1.2 -0.2
v -0.1 1.2 -0.2
v 0.2 1.2 -0.2
v 0.3 1.2 -0.2
v 0.4 1.2 -0.2
v -0.4 1.2 -0.3
v -0.3 1.2 -0.3
v -0.2 1.2 -0.3
v -0.1 1.2 -0.3
v 0.2 1.2 -0.3
v 0.3 1.2 -0.3
v 0.4 1.2 -0.3
v 0.5 1.2 -0.3

# faces
f 3/4/1 2/4/1 1/4/1
f 4/4/1 2/4/1 3/4/1
f 5/4/1 3/4/1 1/4/1
f 5/1/1 4/1/1 3/1/1
f 6/4/1 2/4/1 4/4/1
f 6/1/1 4/1/1 5/1/1
f 7/4/1 5/4/1 1/4/1
f 7/4/1 6/4/1 5/4/1
f 8/4/1 6/4/1 7/4/1
f 9/4/1 2/4/1 6/4/1
f 9/4/1 6/4/1 8/4/1
f 10/4/1 2/4/1 9/4/1
f 12/1/1 10/1/1 9/1/1
f 12/4/1 11/4/1 10/4/1
f 13/4/1 11/4/1 12/4/1
f 15/1/1 12/1/1 9/1/1
f 15/1/1 13/1/1 12/1/1
f 16/4/1 14/4/1 13/4/1
f 16/1/1 13/1/1 15/1/1
f 17/4/1 14/4/1 16/4/1
f 18/4/1 9/4/1 8/4/1
f 18/1/1 15/1/1 9/1/1
f 19/4/1 16/4/1 15/4/1
f 19/1/1 15/1/1 18/1/1
f 20/4/1 16/4/1 19/4/1
f 21/4/1 18/4/1 8/4/1
f 21/4/1 19/4/1 18/4/1
f 22/4/1 19/4/1 21/4/1
f 25/2/1 24/2/1 23/2/1
f 26/2/1 24/2/1 25/2/1
f 27/2/1 24/2/1 26/2/1
f 28/2/1 24/2/1 27/2/1
f 29/2/1 27/2/1 26/2/1
f 30/2/1 27/2/1 29/2/1
f 35/2/1 32/2/1 31/2/1
f 36/2/1 32/2/1 35/2/1
f 37/2/1 34/2/1 33/2/1
f 38/2/1 34/2/1 37/2/1
f 41/2/1 40/2/1 39/2/1
f 42/2/1 40/2/1 41/2/1
f 45/2/1 44/2/1 43/2/1
f 46/2/1 44/2/1 45/2/1
f 49/2/1 48/2/1 47/2/1
f 50/2/1 48/2/1 49/2/1
f 53/2/1 52/2/1 51/2/1
f 54/2/1 52/2/1 53/2/1
f 57/2/1 56/2/1 55/2/1
f 58/2/1 56/2/1 57/2/1
f 59/2/2 60/2/2 63/2/2
f 63/2/2 60/2/2 64/2/2
f 61/2/2 62/2/2 65/2/2
f 65/2/2 62/2/2 66/2/2
f 67/2/2 68/2/2 69/2/2
f 69/2/2 68/2/2 70/2/2
f 70/2/2 71/2/2 72/2/2
f 72/2/2 71/2/2 73/2/2
f 74/2/2 75/2/2 76/2/2
f 76/2/2 75/2/2 77/2/2
f 78/2/2 79/2/2 80/2/2
f 80/2/2 79/2/2 81/2/2
f 78/2/2 80/2/2 82/2/2
f 82/2/2 80/2/2 83/2/2
f 81/2/2 79/2/2 84/2/2
f 84/2/2 79/2/2 85/2/2
f 86/4/2 87/4/2 88/4/2
f 88/4/2 87/4/2 89/4/2
f 86/4/2 88/4/2 90/4/2
f 88/1/2 89/1/2 90/1/2
f 89/4/2 87/4/2 91/4/2
f 90/1/2 89/1/2 91/1/2
f 86/4/2 90/4/2 92/4/2
f 90/4/2 91/4/2 92/4/2
f 92/4/2 91/4/2 93/4/2
f 91/4/2 87/4/2 94/4/2
f 93/4/2 91/4/2 94/4/2
f 94/4/2 87/4/2 95/4/2
f 94/1/2 95/1/2 97/1/2
f 95/4/2 96/4/2 97/4/2
f 97/4/2 96/4/2 98/4/2
f 94/1/2 97/1/2 100/1/2
f 97/1/2 98/1/2 100/1/2
f 98/4/2 99/4/2 101/4/2
f 100/1/2 98/1/2 101/1/2
f 101/4/2 99/4/2 102/4/2
f 93/4/2 94/4/2 103/4/2
f 94/1/2 100/1/2 103/1/2
f 100/4/2 101/4/2 104/4/2
f 103/1/2 100/1/2 104/1/2
f 104/4/2 101/4/2 105/4/2
f 93/4/2 103/4/2 106/4/2
f 103/4/2 104/4/2 106/4/2
f 106/4/2 104/4/2 107/4/2
f 110/4/3 109/4/3 108/4/3
f 111/4/3 109/4/3 110/4/3
f 112/1/3 111/1/3 110/1/3
f 113/4/3 109/4/3 111/4/3
f 113/1/3 111/1/3 112/1/3
f 114/4/3 113/4/3 112/4/3
f 115/4/3 109/4/3 113/4/3
f 115/4/3 113/4/3 114/4/3
f 116/4/3 114/4/3 112/4/3
f 116/3/3 115/3/3 114/3/3
f 117/4/3 109/4/3 115/4/3
f 117/3/3 115/3/3 116/3/3
f 118/1/3 112/1/3 110/1/3
f 118/4/3 116/4/3 112/4/3
f 118/4/3 117/4/3 116/4/3
f 119/4/3 109/4/3 117/4/3
f 119/4/3 117/4/3 118/4/3
f 120/4/3 110/4/3 108/4/3
f 120/1/3 118/1/3 110/1/3
f 120/1/3 119/1/3 118/1/3
f 121/4/3 109/4/3 119/4/3
f 121/1/3 119/1/3 120/1/3
f 122/4/3 120/4/3 108/4/3
f 122/4/3 121/4/3 120/4/3
f 123/4/3 109/4/3 121/4/3
f 123/4/3 121/4/3 122/4/3
f 126/2/3 125/2/3 124/2/3
f 128/2/3 126/2/3 124/2/3
f 128/2/3 127/2/3 126/2/3
f 129/2/3 127/2/3 128/2/3
f 130/2/3 128/2/3 124/2/3
f 131/2/3 128/2/3 130/2/3
f 134/2/3 133/2/3 132/2/3
f 136/2/3 134/2/3 132/2/3
f 136/2/3 135/2/3 134/2/3
f 137/2/3 135/2/3 136/2/3
f 140/2/3 139/2/3 138/2/3
f 141/2/3 139/2/3 140/2/3
f 145/2/3 143/2/3 142/2/3
f 146/2/3 143/2/3 145/2/3
f 147/2/3 145/2/3 144/2/3
f 148/2/3 145/2/3 147/2/3
f 151/2/3 150/2/3 149/2/3
f 152/2/3 150/2/3 151/2/3
f 155/2/3 154/2/3 153/2/3
f 156/2/3 154/2/3 155/2/3
f 159/2/3 158/2/3 157/2/3
f 160/2/3 158/2/3 159/2/3
f 163/4/3 162/4/3 161/4/3
f 164/4/3 162/4/3 163/4/3
f 165/4/3 162/4/3 164/4/3
f 166/3/3 165/3/3 164/3/3
f 167/3/3 165/3/3 166/3/3
f 169/3/3 165/3/3 167/3/3
f 170/3/3 169/3/3 168/3/3
f 171/3/3 165/3/3 169/3/3
f 171/3/3 169/3/3 170/3/3
f 173/3/3 165/3/3 171/3/3
f 174/3/3 173/3/3 172/3/3
f 175/3/3 165/3/3 173/3/3
f 175/3/3 173/3/3 174/3/3
f 177/3/3 165/3/3 175/3/3
f 178/4/3 162/4/3 165/4/3
f 178/3/3 165/3/3 177/3/3
f 179/4/3 177/4/3 176/4/3
f 179/4/3 178/4/3 177/4/3
f 180/4/3 162/4/3 178/4/3
f 180/4/3 178/4/3 179/4/3
f 181/2/4 182/2/4 183/2/4
f 183/2/4 182/2/4 184/2/4
f 185/2/4 186/2/4 187/2/4
f 187/2/4 186/2/4 188/2/4
f 189/2/4 190/2/4 191/2/4
f 191/2/4 190/2/4 192/2/4
f 193/4/4 194/4/4 197/4/4
f 197/4/4 194/4/4 198/4/4
f 198/4/4 194/4/4 199/4/4
f 199/4/4 194/4/4 200/4/4
f 195/4/4 196/4/4 201/4/4
f 201/4/4 196/4/4 202/4/4
f 199/1/4 200/1/4 203/1/4
f 198/4/4 199/4/4 203/4/4
f 203/1/4 200/1/4 204/1/4
f 201/1/4 202/1/4 205/1/4
f 205/1/4 202/1/4 206/1/4
f 203/4/4 204/4/4 207/4/4
f 198/4/4 203/4/4 207/4/4
f 207/4/4 204/4/4 208/4/4
f 205/4/4 206/4/4 209/4/4
f 209/4/4 206/4/4 210/4/4
f 207/1/4 208/1/4 211/1/4
f 198/4/4 207/4/4 211/4/4
f 211/1/4 208/1/4 212/1/4
f 209/1/4 210/1/4 213/1/4
f 213/1/4 210/1/4 214/1/4
f 211/4/4 212/4/4 215/4/4
f 198/4/4 211/4/4 215/4/4
f 215/4/4 212/4/4 216/4/4
f 213/4/4 214/4/4 217/4/4
f 217/4/4 214/4/4 218/4/4
f 193/4/4 197/4/4 219/4/4
f 197/1/4 198/1/4 219/1/4
f 198/4/4 215/4/4 220/4/4
f 219/1/4 198/1/4 220/1/4
f 215/1/4 216/1/4 221/1/4
f 220/4/4 215/4/4 221/4/4
f 221/1/4 216/1/4 222/1/4
f 217/1/4 218/1/4 223/1/4
f 223/1/4 218/1/4 224/1/4
f 221/4/4 222/4/4 225/4/4
f 219/4/4 220/4/4 225/4/4
f 193/4/4 219/4/4 225/4/4
f 220/4/4 221/4/4 225/4/4
f 225/4/4 222/4/4 226/4/4
f 223/4/4 224/4/4 227/4/4
f 227/4/4 224/4/4 228/4/4
f 229/4/4 230/4/4 233/4/4
f 233/4/4 230/4/4 234/4/4
f 231/4/4 232/4/4 235/4/4
f 235/4/4 232/4/4 236/4/4
f 233/1/4 234/1/4 237/1/4
f 237/1/4 234/1/4 238/1/4
f 235/1/4 236/1/4 239/1/4
f 239/1/4 236/1/4 240/1/4
f 237/4/4 238/4/4 241/4/4
f 241/4/4 238/4/4 242/4/4
f 239/4/4 240/4/4 243/4/4
f 243/4/4 240/4/4 244/4/4
f 241/1/4 242/1/4 245/1/4
f 245/1/4 242/1/4 246/1/4
f 243/1/4 244/1/4 247/1/4
f 247/1/4 244/1/4 248/1/4
f 245/4/4 246/4/4 249/4/4
f 249/4/4 246/4/4 250/4/4
f 247/4/4 248/4/4 251/4/4
f 251/4/4 248/4/4 252/4/4
f 249/1/4 250/1/4 253/1/4
f 253/1/4 250/1/4 254/1/4
f 251/1/4 252/1/4 255/1/4
f 255/1/4 252/1/4 256/1/4
f 253/4/4 254/4/4 257/4/4
f 257/4/4 254/4/4 258/4/4
f 255/4/4 256/4/4 259/4/4
f 259/4/4 256/4/4 260/4/4
f 261/4/4 262/4/4 263/4/4
f 263/4/4 262/4/4 264/4/4
f 263/1/4 264/1/4 265/1/4
f 265/1/4 264/1/4 266/1/4
f 265/4/4 266/4/4 267/4/4
f 267/4/4 266/4/4 268/4/4
f 267/1/4 268/1/4 269/1/4
f 269/1/4 268/1/4 270/1/4
f 269/4/4 270/4/4 271/4/4
f 271/4/4 270/4/4 272/4/4
f 271/1/4 272/1/4 273/1/4
f 273/1/4 272/1/4 274/1/4
f 273/4/4 274/4/4 275/4/4
f 275/4/4 274/4/4 276/4/4
f 279/4/5 278/4/5 277/4/5
f 280/4/5 278/4/5 279/4/5
f 289/4/5 282/4/5 281/4/5
f 290/1/5 283/1/5 282/1/5
f 290/4/5 282/4/5 289/4/5
f 291/4/5 284/4/5 283/4/5
f 291/1/5 283/1/5 290/1/5
f 292/1/5 285/1/5 284/1/5
f 292/4/5 284/4/5 291/4/5
f 293/4/5 286/4/5 285/4/5
f 293/1/5 285/1/5 292/1/5
f 294/1/5 287/1/5 286/1/5
f 294/4/5 286/4/5 293/4/5
f 295/4/5 288/4/5 287/4/5
f 295/1/5 287/1/5 294/1/5
f 296/4/5 288/4/5 295/4/5
f 305/4/5 298/4/5 297/4/5
f 306/1/5 299/1/5 298/1/5
f 306/4/5 298/4/5 305/4/5
f 307/4/5 300/4/5 299/4/5
f 307/1/5 299/1/5 306/1/5
f 308/1/5 301/1/5 300/1/5
f 308/4/5 300/4/5 307/4/5
f 309/4/5 302/4/5 301/4/5
f 309/1/5 301/1/5 308/1/5
f 310/1/5 303/1/5 302/1/5
f 310/4/5 302/4/5 309/4/5
f 311/4/5 304/4/5 303/4/5
f 311/1/5 303/1/5 310/1/5
f 312/4/5 304/4/5 311/4/5
f 313/4/6 314/4/6 315/4/6
f 315/4/6 314/4/6 316/4/6
f 316/4/6 314/4/6 317/4/6
f 317/4/6 314/4/6 318/4/6
f 316/2/6 317/2/6 319/2/6
f 319/2/6 317/2/6 320/2/6
f 313/4/6 315/4/6 321/4/6
f 321/4/6 315/4/6 322/4/6
f 318/4/6 314/4/6 323/4/6
f 323/4/6 314/4/6 324/4/6
f 325/2/6 326/2/6 331/2/6
f 331/2/6 326/2/6 332/2/6
f 327/2/6 328/2/6 333/2/6
f 333/2/6 328/2/6 334/2/6
f 329/2/6 330/2/6 335/2/6
f 334/2/6 335/2/6 338/2/6
f 335/2/6 330/2/6 338/2/6
f 336/2/6 337/2/6 340/2/6
f 340/2/6 337/2/6 341/2/6
f 338/2/6 339/2/6 342/2/6
f 334/2/6 338/2/6 342/2/6
f 342/2/6 339/2/6 343/2/6
f 343/2/6 339/2/6 344/2/6
f 344/2/6 339/2/6 345/2/6
f 336/2/6 340/2/6 346/2/6
f 346/2/6 340/2/6 347/2/6
f 341/2/6 342/2/6 348/2/6
f 348/2/6 342/2/6 349/2/6
f 343/2/6 344/2/6 350/2/6
f 350/2/6 344/2/6 351/2/6
f 352/2/6 353/2/6 357/2/6
f 357/2/6 353/2/6 358/2/6
f 356/2/6 357/2/6 360/2/6
f 358/2/6 359/2/6 360/2/6
f 357/2/6 358/2/6 360/2/6
f 360/2/6 359/2/6 361/2/6
f 354/2/6 355/2/6 362/2/6
f 362/2/6 355/2/6 363/2/6
f 361/2/6 359/2/6 365/2/6
f 365/2/6 359/2/6 366/2/6
f 364/2/6 365/2/6 370/2/6
f 370/2/6 365/2/6 371/2/6
f 366/2/6 367/2/6 372/2/6
f 372/2/6 367/2/6 373/2/6
f 368/2/6 369/2/6 374/2/6
f 374/2/6 369/2/6 375/2/6
f 376/4/6 377/4/6 384/4/6
f 377/1/6 378/1/6 385/1/6
f 384/4/6 377/4/6 385/4/6
f 378/4/6 379/4/6 386/4/6
f 385/1/6 378/1/6 386/1/6
f 379/1/6 380/1/6 387/1/6
f 386/4/6 379/4/6 387/4/6
f 380/4/6 381/4/6 388/4/6
f 387/1/6 380/1/6 388/1/6
f 381/1/6 382/1/6 389/1/6
f 388/4/6 381/4/6 389/4/6
f 382/4/6 383/4/6 390/4/6
f 389/1/6 382/1/6 390/1/6
f 390/4/6 383/4/6 391/4/6
f 392/4/6 393/4/6 400/4/6
f 393/1/6 394/1/6 401/1/6
f 400/4/6 393/4/6 401/4/6
f 394/4/6 395/4/6 402/4/6
f 401/1/6 394/1/6 402/1/6
f 395/1/6 396/1/6 403/1/6
f 402/4/6 395/4/6 403/4/6
f 396/4/6 397/4/6 404/4/6
f 403/1/6 396/1/6 404/1/6
f 397/1/6 398/1/6 405/1/6
f 404/4/6 397/4/6 405/4/6
f 398/4/6 399/4/6 406/4/6
f 405/1/6 398/1/6 406/1/6
f 406/4/6 399/4/6 407/4/6
f 408/4/6 409/4/6 410/4/6
f 410/4/6 409/4/6 411/4/6
f 411/4/6 409/4/6 412/4/6
f 412/4/6 409/4/6 413/4/6
f 413/4/6 409/4/6 414/4/6
f 414/4/6 409/4/6 415/4/6
f 408/4/6 410/4/6 416/4/6
f 410/1/6 411/1/6 417/1/6
f 416/4/6 410/4/6 417/4/6
f 411/4/6 412/4/6 418/4/6
f 417/1/6 411/1/6 418/1/6
f 412/1/6 413/1/6 419/1/6
f 418/4/6 412/4/6 419/4/6
f 413/4/6 414/4/6 420/4/6
f 419/1/6 413/1/6 420/1/6
f 414/1/6 415/1/6 421/1/6
f 420/4/6 414/4/6 421/4/6
f 415/4/6 409/4/6 422/4/6
f 421/1/6 415/1/6 422/1/6
f 422/4/6 409/4/6 423/4/6
