# MagicaVoxel @ Ephtracy

# group
o 

# material
mtllib rat_action_0.mtl
usemtl palette

# normals
vn -1 0 0
vn 1 0 0
vn 0 0 1
vn 0 0 -1
vn 0 -1 0
vn 0 1 0

# texcoords
vt 0.884766 0.5
vt 0.943359 0.5

# verts
v -0.2 0.3 0.3
v -0.2 0.3 0.2
v -0.2 0.4 0.3
v -0.2 0.4 0.2
v -0.2 0.5 0.3
v -0.2 0.5 0.2
v -0.2 0.7 0.3
v -0.2 0.7 0.2
v -0.1 0.2 -0.3
v -0.1 0.2 -0.4
v -0.1 0.3 0.2
v -0.1 0.3 -0.3
v -0.1 0.3 -0.4
v -0.1 0.4 0.4
v -0.1 0.4 0.3
v -0.1 0.4 0.2
v -0.1 0.5 0.3
v -0.1 0.5 0.2
v -0.1 0.5 -0.1
v -0.1 0.5 -0.3
v -0.1 0.6 0.4
v -0.1 0.6 0.3
v -0.1 0.6 0.2
v -0.1 0.6 -0.1
v 2.98023e-08 0.4 0.5
v 2.98023e-08 0.4 0.4
v 2.98023e-08 0.4 -0.3
v 2.98023e-08 0.4 -0.4
v 2.98023e-08 0.5 0.5
v 2.98023e-08 0.5 0.4
v 2.98023e-08 0.5 -0.3
v 2.98023e-08 0.5 -0.4
v 2.98023e-08 0.5 -0.5
v 2.98023e-08 0.6 -0.4
v 2.98023e-08 0.6 -0.5
v 2.98023e-08 0.6 -0.6
v 2.98023e-08 0.7 -0.5
v 2.98023e-08 0.7 -0.6
v 0.1 0.2 -0.3
v 0.1 0.2 -0.4
v 0.1 0.3 -0.3
v 0.1 0.3 -0.4
v 0.1 0.6 0.3
v 0.1 0.6 0.2
v 0.1 0.7 0.3
v 0.1 0.7 0.2
v 0.2 0.3 0.3
v 0.2 0.3 0.2
v 0.2 0.4 0.3
v 0.2 0.4 0.2
v -0.1 0.3 0.3
v -0.1 0.3 0.2
v -0.1 0.4 0.3
v -0.1 0.4 0.2
v 2.98023e-08 0.2 -0.3
v 2.98023e-08 0.2 -0.4
v 2.98023e-08 0.3 -0.3
v 2.98023e-08 0.3 -0.4
v 2.98023e-08 0.6 0.3
v 2.98023e-08 0.6 0.2
v 2.98023e-08 0.7 0.3
v 2.98023e-08 0.7 0.2
v 0.1 0.4 0.5
v 0.1 0.4 0.4
v 0.1 0.4 -0.3
v 0.1 0.4 -0.4
v 0.1 0.5 0.5
v 0.1 0.5 0.4
v 0.1 0.5 -0.3
v 0.1 0.5 -0.4
v 0.1 0.5 -0.5
v 0.1 0.6 -0.4
v 0.1 0.6 -0.5
v 0.1 0.6 -0.6
v 0.1 0.7 -0.5
v 0.1 0.7 -0.6
v 0.2 0.2 -0.3
v 0.2 0.2 -0.4
v 0.2 0.3 0.2
v 0.2 0.3 -0.3
v 0.2 0.3 -0.4
v 0.2 0.4 0.4
v 0.2 0.4 0.3
v 0.2 0.4 0.2
v 0.2 0.5 0.3
v 0.2 0.5 0.2
v 0.2 0.5 -0.1
v 0.2 0.5 -0.3
v 0.2 0.6 0.4
v 0.2 0.6 0.3
v 0.2 0.6 0.2
v 0.2 0.6 -0.1
v 0.3 0.3 0.3
v 0.3 0.3 0.2
v 0.3 0.4 0.3
v 0.3 0.4 0.2
v 0.3 0.5 0.3
v 0.3 0.5 0.2
v 0.3 0.7 0.3
v 0.3 0.7 0.2
v 2.98023e-08 0.4 0.5
v 2.98023e-08 0.5 0.5
v 0.1 0.4 0.5
v 0.1 0.5 0.5
v -0.1 0.4 0.4
v -0.1 0.6 0.4
v 2.98023e-08 0.4 0.4
v 2.98023e-08 0.5 0.4
v 0.1 0.4 0.4
v 0.1 0.5 0.4
v 0.2 0.4 0.4
v 0.2 0.6 0.4
v -0.2 0.3 0.3
v -0.2 0.4 0.3
v -0.2 0.5 0.3
v -0.2 0.7 0.3
v -0.1 0.3 0.3
v -0.1 0.4 0.3
v -0.1 0.5 0.3
v -0.1 0.6 0.3
v 2.98023e-08 0.6 0.3
v 2.98023e-08 0.7 0.3
v 0.1 0.6 0.3
v 0.1 0.7 0.3
v 0.2 0.3 0.3
v 0.2 0.4 0.3
v 0.2 0.5 0.3
v 0.2 0.6 0.3
v 0.3 0.3 0.3
v 0.3 0.4 0.3
v 0.3 0.5 0.3
v 0.3 0.7 0.3
v -0.1 0.3 0.2
v -0.1 0.4 0.2
v 0.2 0.3 0.2
v 0.2 0.4 0.2
v -0.1 0.2 -0.3
v -0.1 0.3 -0.3
v 2.98023e-08 0.2 -0.3
v 2.98023e-08 0.3 -0.3
v 0.1 0.2 -0.3
v 0.1 0.3 -0.3
v 0.2 0.2 -0.3
v 0.2 0.3 -0.3
v 2.98023e-08 0.5 -0.4
v 2.98023e-08 0.6 -0.4
v 0.1 0.5 -0.4
v 0.1 0.6 -0.4
v 2.98023e-08 0.6 -0.5
v 2.98023e-08 0.7 -0.5
v 0.1 0.6 -0.5
v 0.1 0.7 -0.5
v -0.2 0.3 0.2
v -0.2 0.4 0.2
v -0.2 0.5 0.2
v -0.2 0.7 0.2
v -0.1 0.3 0.2
v -0.1 0.4 0.2
v -0.1 0.5 0.2
v -0.1 0.6 0.2
v 2.98023e-08 0.6 0.2
v 2.98023e-08 0.7 0.2
v 0.1 0.6 0.2
v 0.1 0.7 0.2
v 0.2 0.3 0.2
v 0.2 0.4 0.2
v 0.2 0.5 0.2
v 0.2 0.6 0.2
v 0.3 0.3 0.2
v 0.3 0.4 0.2
v 0.3 0.5 0.2
v 0.3 0.7 0.2
v -0.1 0.5 -0.1
v -0.1 0.6 -0.1
v 0.2 0.5 -0.1
v 0.2 0.6 -0.1
v -0.1 0.3 -0.3
v -0.1 0.5 -0.3
v 2.98023e-08 0.3 -0.3
v 2.98023e-08 0.4 -0.3
v 2.98023e-08 0.5 -0.3
v 0.1 0.3 -0.3
v 0.1 0.4 -0.3
v 0.1 0.5 -0.3
v 0.2 0.3 -0.3
v 0.2 0.5 -0.3
v -0.1 0.2 -0.4
v -0.1 0.3 -0.4
v 2.98023e-08 0.2 -0.4
v 2.98023e-08 0.3 -0.4
v 2.98023e-08 0.4 -0.4
v 2.98023e-08 0.5 -0.4
v 0.1 0.2 -0.4
v 0.1 0.3 -0.4
v 0.1 0.4 -0.4
v 0.1 0.5 -0.4
v 0.2 0.2 -0.4
v 0.2 0.3 -0.4
v 2.98023e-08 0.5 -0.5
v 2.98023e-08 0.6 -0.5
v 0.1 0.5 -0.5
v 0.1 0.6 -0.5
v 2.98023e-08 0.6 -0.6
v 2.98023e-08 0.7 -0.6
v 0.1 0.6 -0.6
v 0.1 0.7 -0.6
v -0.1 0.2 -0.3
v 2.98023e-08 0.2 -0.3
v 0.1 0.2 -0.3
v 0.2 0.2 -0.3
v -0.1 0.2 -0.4
v 2.98023e-08 0.2 -0.4
v 0.1 0.2 -0.4
v 0.2 0.2 -0.4
v -0.2 0.3 0.3
v -0.1 0.3 0.3
v 0.2 0.3 0.3
v 0.3 0.3 0.3
v -0.2 0.3 0.2
v -0.1 0.3 0.2
v 0.2 0.3 0.2
v 0.3 0.3 0.2
v -0.1 0.3 -0.3
v 2.98023e-08 0.3 -0.3
v 0.1 0.3 -0.3
v 0.2 0.3 -0.3
v 2.98023e-08 0.4 0.5
v 0.1 0.4 0.5
v -0.1 0.4 0.4
v 2.98023e-08 0.4 0.4
v 0.1 0.4 0.4
v 0.2 0.4 0.4
v -0.1 0.4 0.3
v 0.2 0.4 0.3
v -0.1 0.4 0.2
v 0.2 0.4 0.2
v 2.98023e-08 0.4 -0.3
v 0.1 0.4 -0.3
v 2.98023e-08 0.4 -0.4
v 0.1 0.4 -0.4
v -0.2 0.5 0.3
v -0.1 0.5 0.3
v 0.2 0.5 0.3
v 0.3 0.5 0.3
v -0.2 0.5 0.2
v -0.1 0.5 0.2
v 0.2 0.5 0.2
v 0.3 0.5 0.2
v 2.98023e-08 0.5 -0.4
v 0.1 0.5 -0.4
v 2.98023e-08 0.5 -0.5
v 0.1 0.5 -0.5
v 2.98023e-08 0.6 -0.5
v 0.1 0.6 -0.5
v 2.98023e-08 0.6 -0.6
v 0.1 0.6 -0.6
v -0.1 0.3 -0.3
v 2.98023e-08 0.3 -0.3
v 0.1 0.3 -0.3
v 0.2 0.3 -0.3
v -0.1 0.3 -0.4
v 2.98023e-08 0.3 -0.4
v 0.1 0.3 -0.4
v 0.2 0.3 -0.4
v -0.2 0.4 0.3
v -0.1 0.4 0.3
v 0.2 0.4 0.3
v 0.3 0.4 0.3
v -0.2 0.4 0.2
v -0.1 0.4 0.2
v 0.2 0.4 0.2
v 0.3 0.4 0.2
v 2.98023e-08 0.5 0.5
v 0.1 0.5 0.5
v 2.98023e-08 0.5 0.4
v 0.1 0.5 0.4
v -0.1 0.5 -0.1
v 0.2 0.5 -0.1
v -0.1 0.5 -0.3
v 2.98023e-08 0.5 -0.3
v 0.1 0.5 -0.3
v 0.2 0.5 -0.3
v 2.98023e-08 0.5 -0.4
v 0.1 0.5 -0.4
v -0.1 0.6 0.4
v 0.2 0.6 0.4
v -0.1 0.6 0.3
v 2.98023e-08 0.6 0.3
v 0.1 0.6 0.3
v 0.2 0.6 0.3
v -0.1 0.6 0.2
v 2.98023e-08 0.6 0.2
v 0.1 0.6 0.2
v 0.2 0.6 0.2
v -0.1 0.6 -0.1
v 0.2 0.6 -0.1
v 2.98023e-08 0.6 -0.4
v 0.1 0.6 -0.4
v 2.98023e-08 0.6 -0.5
v 0.1 0.6 -0.5
v -0.2 0.7 0.3
v 2.98023e-08 0.7 0.3
v 0.1 0.7 0.3
v 0.3 0.7 0.3
v -0.2 0.7 0.2
v 2.98023e-08 0.7 0.2
v 0.1 0.7 0.2
v 0.3 0.7 0.2
v 2.98023e-08 0.7 -0.5
v 0.1 0.7 -0.5
v 2.98023e-08 0.7 -0.6
v 0.1 0.7 -0.6

# faces
f 3/2/1 2/2/1 1/2/1
f 4/2/1 2/2/1 3/2/1
f 7/2/1 6/2/1 5/2/1
f 8/2/1 6/2/1 7/2/1
f 12/2/1 10/2/1 9/2/1
f 13/2/1 10/2/1 12/2/1
f 16/2/1 12/2/1 11/2/1
f 17/2/1 15/2/1 14/2/1
f 17/2/1 16/2/1 15/2/1
f 18/2/1 12/2/1 16/2/1
f 18/2/1 16/2/1 17/2/1
f 19/2/1 12/2/1 18/2/1
f 20/2/1 12/2/1 19/2/1
f 21/2/1 17/2/1 14/2/1
f 22/2/1 17/2/1 21/2/1
f 23/2/1 19/2/1 18/2/1
f 24/2/1 19/2/1 23/2/1
f 29/1/1 26/1/1 25/1/1
f 30/1/1 26/1/1 29/1/1
f 31/1/1 28/1/1 27/1/1
f 32/1/1 28/1/1 31/1/1
f 34/1/1 33/1/1 32/1/1
f 35/1/1 33/1/1 34/1/1
f 37/1/1 36/1/1 35/1/1
f 38/1/1 36/1/1 37/1/1
f 41/2/1 40/2/1 39/2/1
f 42/2/1 40/2/1 41/2/1
f 45/2/1 44/2/1 43/2/1
f 46/2/1 44/2/1 45/2/1
f 49/2/1 48/2/1 47/2/1
f 50/2/1 48/2/1 49/2/1
f 51/2/2 52/2/2 53/2/2
f 53/2/2 52/2/2 54/2/2
f 55/2/2 56/2/2 57/2/2
f 57/2/2 56/2/2 58/2/2
f 59/2/2 60/2/2 61/2/2
f 61/2/2 60/2/2 62/2/2
f 63/1/2 64/1/2 67/1/2
f 67/1/2 64/1/2 68/1/2
f 65/1/2 66/1/2 69/1/2
f 69/1/2 66/1/2 70/1/2
f 70/1/2 71/1/2 72/1/2
f 72/1/2 71/1/2 73/1/2
f 73/1/2 74/1/2 75/1/2
f 75/1/2 74/1/2 76/1/2
f 77/2/2 78/2/2 80/2/2
f 80/2/2 78/2/2 81/2/2
f 79/2/2 80/2/2 84/2/2
f 82/2/2 83/2/2 85/2/2
f 83/2/2 84/2/2 85/2/2
f 84/2/2 80/2/2 86/2/2
f 85/2/2 84/2/2 86/2/2
f 86/2/2 80/2/2 87/2/2
f 87/2/2 80/2/2 88/2/2
f 82/2/2 85/2/2 89/2/2
f 89/2/2 85/2/2 90/2/2
f 86/2/2 87/2/2 91/2/2
f 91/2/2 87/2/2 92/2/2
f 93/2/2 94/2/2 95/2/2
f 95/2/2 94/2/2 96/2/2
f 97/2/2 98/2/2 99/2/2
f 99/2/2 98/2/2 100/2/2
f 103/1/3 102/1/3 101/1/3
f 104/1/3 102/1/3 103/1/3
f 107/2/3 106/2/3 105/2/3
f 108/2/3 106/2/3 107/2/3
f 110/2/3 106/2/3 108/2/3
f 111/2/3 110/2/3 109/2/3
f 112/2/3 106/2/3 110/2/3
f 112/2/3 110/2/3 111/2/3
f 117/2/3 114/2/3 113/2/3
f 118/2/3 114/2/3 117/2/3
f 119/2/3 116/2/3 115/2/3
f 120/2/3 116/2/3 119/2/3
f 121/2/3 116/2/3 120/2/3
f 122/2/3 116/2/3 121/2/3
f 128/2/3 124/2/3 123/2/3
f 129/2/3 126/2/3 125/2/3
f 130/2/3 126/2/3 129/2/3
f 131/2/3 128/2/3 127/2/3
f 132/2/3 124/2/3 128/2/3
f 132/2/3 128/2/3 131/2/3
f 135/2/3 134/2/3 133/2/3
f 136/2/3 134/2/3 135/2/3
f 139/2/3 138/2/3 137/2/3
f 140/2/3 138/2/3 139/2/3
f 143/2/3 142/2/3 141/2/3
f 144/2/3 142/2/3 143/2/3
f 147/1/3 146/1/3 145/1/3
f 148/1/3 146/1/3 147/1/3
f 151/1/3 150/1/3 149/1/3
f 152/1/3 150/1/3 151/1/3
f 153/2/4 154/2/4 157/2/4
f 157/2/4 154/2/4 158/2/4
f 155/2/4 156/2/4 159/2/4
f 159/2/4 156/2/4 160/2/4
f 160/2/4 156/2/4 161/2/4
f 161/2/4 156/2/4 162/2/4
f 163/2/4 164/2/4 168/2/4
f 165/2/4 166/2/4 169/2/4
f 169/2/4 166/2/4 170/2/4
f 167/2/4 168/2/4 171/2/4
f 168/2/4 164/2/4 172/2/4
f 171/2/4 168/2/4 172/2/4
f 173/2/4 174/2/4 175/2/4
f 175/2/4 174/2/4 176/2/4
f 177/2/4 178/2/4 179/2/4
f 179/2/4 178/2/4 180/2/4
f 180/2/4 178/2/4 181/2/4
f 179/2/4 180/2/4 182/2/4
f 182/2/4 180/2/4 183/2/4
f 182/2/4 183/2/4 185/2/4
f 183/2/4 184/2/4 185/2/4
f 185/2/4 184/2/4 186/2/4
f 187/2/4 188/2/4 189/2/4
f 189/2/4 188/2/4 190/2/4
f 191/1/4 192/1/4 195/1/4
f 195/1/4 192/1/4 196/1/4
f 193/2/4 194/2/4 197/2/4
f 197/2/4 194/2/4 198/2/4
f 199/1/4 200/1/4 201/1/4
f 201/1/4 200/1/4 202/1/4
f 203/1/4 204/1/4 205/1/4
f 205/1/4 204/1/4 206/1/4
f 211/2/5 208/2/5 207/2/5
f 212/2/5 208/2/5 211/2/5
f 213/2/5 210/2/5 209/2/5
f 214/2/5 210/2/5 213/2/5
f 219/2/5 216/2/5 215/2/5
f 220/2/5 216/2/5 219/2/5
f 221/2/5 218/2/5 217/2/5
f 222/2/5 218/2/5 221/2/5
f 223/2/5 221/2/5 220/2/5
f 224/2/5 221/2/5 223/2/5
f 225/2/5 221/2/5 224/2/5
f 226/2/5 221/2/5 225/2/5
f 230/1/5 228/1/5 227/1/5
f 231/1/5 228/1/5 230/1/5
f 233/2/5 230/2/5 229/2/5
f 233/2/5 232/2/5 231/2/5
f 233/2/5 231/2/5 230/2/5
f 234/2/5 232/2/5 233/2/5
f 235/2/5 234/2/5 233/2/5
f 236/2/5 234/2/5 235/2/5
f 239/1/5 238/1/5 237/1/5
f 240/1/5 238/1/5 239/1/5
f 245/2/5 242/2/5 241/2/5
f 246/2/5 242/2/5 245/2/5
f 247/2/5 244/2/5 243/2/5
f 248/2/5 244/2/5 247/2/5
f 251/1/5 250/1/5 249/1/5
f 252/1/5 250/1/5 251/1/5
f 255/1/5 254/1/5 253/1/5
f 256/1/5 254/1/5 255/1/5
f 257/2/6 258/2/6 261/2/6
f 261/2/6 258/2/6 262/2/6
f 259/2/6 260/2/6 263/2/6
f 263/2/6 260/2/6 264/2/6
f 265/2/6 266/2/6 269/2/6
f 269/2/6 266/2/6 270/2/6
f 267/2/6 268/2/6 271/2/6
f 271/2/6 268/2/6 272/2/6
f 273/1/6 274/1/6 275/1/6
f 275/1/6 274/1/6 276/1/6
f 277/2/6 278/2/6 279/2/6
f 279/2/6 278/2/6 280/2/6
f 280/2/6 278/2/6 281/2/6
f 281/2/6 278/2/6 282/2/6
f 280/1/6 281/1/6 283/1/6
f 283/1/6 281/1/6 284/1/6
f 285/2/6 286/2/6 287/2/6
f 287/2/6 286/2/6 288/2/6
f 288/2/6 286/2/6 289/2/6
f 289/2/6 286/2/6 290/2/6
f 288/2/6 289/2/6 292/2/6
f 292/2/6 289/2/6 293/2/6
f 291/2/6 292/2/6 295/2/6
f 293/2/6 294/2/6 295/2/6
f 292/2/6 293/2/6 295/2/6
f 295/2/6 294/2/6 296/2/6
f 297/1/6 298/1/6 299/1/6
f 299/1/6 298/1/6 300/1/6
f 301/2/6 302/2/6 305/2/6
f 305/2/6 302/2/6 306/2/6
f 303/2/6 304/2/6 307/2/6
f 307/2/6 304/2/6 308/2/6
f 309/1/6 310/1/6 311/1/6
f 311/1/6 310/1/6 312/1/6
