# MagicaVoxel @ Ephtracy

# group
o 

# material
mtllib rat_walk_1.mtl
usemtl palette

# normals
vn -1 0 0
vn 1 0 0
vn 0 0 1
vn 0 0 -1
vn 0 -1 0
vn 0 1 0

# texcoords
vt 0.884766 0.5
vt 0.943359 0.5

# verts
v -0.3 0 -0.1
v -0.3 0 -0.2
v -0.3 0.1 -0.1
v -0.3 0.1 -0.2
v -0.2 0 0.3
v -0.2 0 0.2
v -0.2 0 0.1
v -0.2 0 -0.1
v -0.2 0 -0.2
v -0.2 0 -0.3
v -0.2 0.1 -0.1
v -0.2 0.1 -0.2
v -0.2 0.3 0.3
v -0.2 0.3 0.2
v -0.2 0.3 0.1
v -0.2 0.3 -0.3
v -0.1 0 0.4
v -0.1 0 0.3
v -0.1 0 0.2
v -0.1 0 0.1
v -0.1 0.1 -0.4
v -0.1 0.1 -0.6
v -0.1 0.2 0.4
v -0.1 0.2 0.3
v -0.1 0.2 0.2
v -0.1 0.2 0.1
v -0.1 0.2 -0.4
v -0.1 0.2 -0.6
v 2.98023e-08 0 0.5
v 2.98023e-08 0 0.4
v 2.98023e-08 0.1 0.5
v 2.98023e-08 0.1 0.4
v 2.98023e-08 0.1 -0.3
v 2.98023e-08 0.1 -0.4
v 2.98023e-08 0.2 -0.3
v 2.98023e-08 0.2 -0.4
v 0.1 0.2 0.3
v 0.1 0.2 0.2
v 0.1 0.3 0.3
v 0.1 0.3 0.2
v 2.98023e-08 0.1 -0.5
v 2.98023e-08 0.1 -0.6
v 2.98023e-08 0.2 0.3
v 2.98023e-08 0.2 0.2
v 2.98023e-08 0.2 -0.5
v 2.98023e-08 0.2 -0.6
v 2.98023e-08 0.3 0.3
v 2.98023e-08 0.3 0.2
v 0.1 0 0.5
v 0.1 0 0.4
v 0.1 0.1 0.5
v 0.1 0.1 0.4
v 0.1 0.1 -0.3
v 0.1 0.1 -0.5
v 0.1 0.2 -0.3
v 0.1 0.2 -0.5
v 0.2 0 0.4
v 0.2 0 0.3
v 0.2 0 0.2
v 0.2 0 0.1
v 0.2 0.2 0.4
v 0.2 0.2 0.3
v 0.2 0.2 0.2
v 0.2 0.2 0.1
v 0.3 0 0.3
v 0.3 0 0.2
v 0.3 0 0.1
v 0.3 0 -0.1
v 0.3 0 -0.2
v 0.3 0 -0.3
v 0.3 0.1 -0.1
v 0.3 0.1 -0.2
v 0.3 0.3 0.3
v 0.3 0.3 0.2
v 0.3 0.3 0.1
v 0.3 0.3 -0.3
v 0.4 0 -0.1
v 0.4 0 -0.2
v 0.4 0.1 -0.1
v 0.4 0.1 -0.2
v 2.98023e-08 0 0.5
v 2.98023e-08 0.1 0.5
v 0.1 0 0.5
v 0.1 0.1 0.5
v -0.1 0 0.4
v -0.1 0.2 0.4
v 2.98023e-08 0 0.4
v 2.98023e-08 0.1 0.4
v 0.1 0 0.4
v 0.1 0.1 0.4
v 0.2 0 0.4
v 0.2 0.2 0.4
v -0.2 0 0.3
v -0.2 0.3 0.3
v -0.1 0 0.3
v -0.1 0.2 0.3
v 2.98023e-08 0.2 0.3
v 2.98023e-08 0.3 0.3
v 0.1 0.2 0.3
v 0.1 0.3 0.3
v 0.2 0 0.3
v 0.2 0.2 0.3
v 0.3 0 0.3
v 0.3 0.3 0.3
v -0.2 0 0.1
v -0.2 0.3 0.1
v -0.1 0 0.1
v -0.1 0.2 0.1
v 0.2 0 0.1
v 0.2 0.2 0.1
v 0.3 0 0.1
v 0.3 0.3 0.1
v -0.3 0 -0.1
v -0.3 0.1 -0.1
v -0.2 0 -0.1
v -0.2 0.1 -0.1
v 0.3 0 -0.1
v 0.3 0.1 -0.1
v 0.4 0 -0.1
v 0.4 0.1 -0.1
v -0.1 0.1 -0.4
v -0.1 0.2 -0.4
v 2.98023e-08 0.1 -0.4
v 2.98023e-08 0.2 -0.4
v -0.2 0 0.2
v -0.2 0.3 0.2
v -0.1 0 0.2
v -0.1 0.2 0.2
v 2.98023e-08 0.2 0.2
v 2.98023e-08 0.3 0.2
v 0.1 0.2 0.2
v 0.1 0.3 0.2
v 0.2 0 0.2
v 0.2 0.2 0.2
v 0.3 0 0.2
v 0.3 0.3 0.2
v -0.3 0 -0.2
v -0.3 0.1 -0.2
v -0.2 0 -0.2
v -0.2 0.1 -0.2
v 0.3 0 -0.2
v 0.3 0.1 -0.2
v 0.4 0 -0.2
v 0.4 0.1 -0.2
v -0.2 0 -0.3
v -0.2 0.3 -0.3
v 2.98023e-08 0.1 -0.3
v 2.98023e-08 0.2 -0.3
v 0.1 0.1 -0.3
v 0.1 0.2 -0.3
v 0.3 0 -0.3
v 0.3 0.3 -0.3
v 2.98023e-08 0.1 -0.5
v 2.98023e-08 0.2 -0.5
v 0.1 0.1 -0.5
v 0.1 0.2 -0.5
v -0.1 0.1 -0.6
v -0.1 0.2 -0.6
v 2.98023e-08 0.1 -0.6
v 2.98023e-08 0.2 -0.6
v 2.98023e-08 0 0.5
v 0.1 0 0.5
v -0.1 0 0.4
v 2.98023e-08 0 0.4
v 0.1 0 0.4
v 0.2 0 0.4
v -0.2 0 0.3
v -0.1 0 0.3
v 0.2 0 0.3
v 0.3 0 0.3
v -0.2 0 0.2
v -0.1 0 0.2
v 0.2 0 0.2
v 0.3 0 0.2
v -0.2 0 0.1
v -0.1 0 0.1
v 0.2 0 0.1
v 0.3 0 0.1
v -0.3 0 -0.1
v -0.2 0 -0.1
v 0.3 0 -0.1
v 0.4 0 -0.1
v -0.3 0 -0.2
v -0.2 0 -0.2
v 0.3 0 -0.2
v 0.4 0 -0.2
v -0.2 0 -0.3
v 0.3 0 -0.3
v 2.98023e-08 0.1 -0.3
v 0.1 0.1 -0.3
v -0.1 0.1 -0.4
v 2.98023e-08 0.1 -0.4
v 2.98023e-08 0.1 -0.5
v 0.1 0.1 -0.5
v -0.1 0.1 -0.6
v 2.98023e-08 0.1 -0.6
v 2.98023e-08 0.1 0.5
v 0.1 0.1 0.5
v 2.98023e-08 0.1 0.4
v 0.1 0.1 0.4
v -0.3 0.1 -0.1
v -0.2 0.1 -0.1
v 0.3 0.1 -0.1
v 0.4 0.1 -0.1
v -0.3 0.1 -0.2
v -0.2 0.1 -0.2
v 0.3 0.1 -0.2
v 0.4 0.1 -0.2
v -0.1 0.2 0.4
v 0.2 0.2 0.4
v -0.1 0.2 0.3
v 2.98023e-08 0.2 0.3
v 0.1 0.2 0.3
v 0.2 0.2 0.3
v -0.1 0.2 0.2
v 2.98023e-08 0.2 0.2
v 0.1 0.2 0.2
v 0.2 0.2 0.2
v -0.1 0.2 0.1
v 0.2 0.2 0.1
v 2.98023e-08 0.2 -0.3
v 0.1 0.2 -0.3
v -0.1 0.2 -0.4
v 2.98023e-08 0.2 -0.4
v 2.98023e-08 0.2 -0.5
v 0.1 0.2 -0.5
v -0.1 0.2 -0.6
v 2.98023e-08 0.2 -0.6
v -0.2 0.3 0.3
v 2.98023e-08 0.3 0.3
v 0.1 0.3 0.3
v 0.3 0.3 0.3
v -0.2 0.3 0.2
v 2.98023e-08 0.3 0.2
v 0.1 0.3 0.2
v 0.3 0.3 0.2
v -0.2 0.3 0.1
v 0.3 0.3 0.1
v -0.2 0.3 -0.3
v 0.3 0.3 -0.3

# faces
f 3/2/1 2/2/1 1/2/1
f 4/2/1 2/2/1 3/2/1
f 11/2/1 8/2/1 7/2/1
f 12/2/1 10/2/1 9/2/1
f 13/2/1 6/2/1 5/2/1
f 14/2/1 6/2/1 13/2/1
f 15/2/1 12/2/1 11/2/1
f 15/2/1 11/2/1 7/2/1
f 16/2/1 10/2/1 12/2/1
f 16/2/1 12/2/1 15/2/1
f 23/2/1 18/2/1 17/2/1
f 24/2/1 18/2/1 23/2/1
f 25/2/1 20/2/1 19/2/1
f 26/2/1 20/2/1 25/2/1
f 27/1/1 22/1/1 21/1/1
f 28/1/1 22/1/1 27/1/1
f 31/1/1 30/1/1 29/1/1
f 32/1/1 30/1/1 31/1/1
f 35/1/1 34/1/1 33/1/1
f 36/1/1 34/1/1 35/1/1
f 39/2/1 38/2/1 37/2/1
f 40/2/1 38/2/1 39/2/1
f 41/1/2 42/1/2 45/1/2
f 45/1/2 42/1/2 46/1/2
f 43/2/2 44/2/2 47/2/2
f 47/2/2 44/2/2 48/2/2
f 49/1/2 50/1/2 51/1/2
f 51/1/2 50/1/2 52/1/2
f 53/1/2 54/1/2 55/1/2
f 55/1/2 54/1/2 56/1/2
f 57/2/2 58/2/2 61/2/2
f 61/2/2 58/2/2 62/2/2
f 59/2/2 60/2/2 63/2/2
f 63/2/2 60/2/2 64/2/2
f 67/2/2 68/2/2 71/2/2
f 69/2/2 70/2/2 72/2/2
f 65/2/2 66/2/2 73/2/2
f 73/2/2 66/2/2 74/2/2
f 71/2/2 72/2/2 75/2/2
f 67/2/2 71/2/2 75/2/2
f 72/2/2 70/2/2 76/2/2
f 75/2/2 72/2/2 76/2/2
f 77/2/2 78/2/2 79/2/2
f 79/2/2 78/2/2 80/2/2
f 83/1/3 82/1/3 81/1/3
f 84/1/3 82/1/3 83/1/3
f 87/2/3 86/2/3 85/2/3
f 88/2/3 86/2/3 87/2/3
f 90/2/3 86/2/3 88/2/3
f 91/2/3 90/2/3 89/2/3
f 92/2/3 86/2/3 90/2/3
f 92/2/3 90/2/3 91/2/3
f 95/2/3 94/2/3 93/2/3
f 96/2/3 94/2/3 95/2/3
f 97/2/3 94/2/3 96/2/3
f 98/2/3 94/2/3 97/2/3
f 102/2/3 100/2/3 99/2/3
f 103/2/3 102/2/3 101/2/3
f 104/2/3 100/2/3 102/2/3
f 104/2/3 102/2/3 103/2/3
f 107/2/3 106/2/3 105/2/3
f 108/2/3 106/2/3 107/2/3
f 110/2/3 106/2/3 108/2/3
f 111/2/3 110/2/3 109/2/3
f 112/2/3 106/2/3 110/2/3
f 112/2/3 110/2/3 111/2/3
f 115/2/3 114/2/3 113/2/3
f 116/2/3 114/2/3 115/2/3
f 119/2/3 118/2/3 117/2/3
f 120/2/3 118/2/3 119/2/3
f 123/1/3 122/1/3 121/1/3
f 124/1/3 122/1/3 123/1/3
f 125/2/4 126/2/4 127/2/4
f 127/2/4 126/2/4 128/2/4
f 128/2/4 126/2/4 129/2/4
f 129/2/4 126/2/4 130/2/4
f 131/2/4 132/2/4 134/2/4
f 133/2/4 134/2/4 135/2/4
f 134/2/4 132/2/4 136/2/4
f 135/2/4 134/2/4 136/2/4
f 137/2/4 138/2/4 139/2/4
f 139/2/4 138/2/4 140/2/4
f 141/2/4 142/2/4 143/2/4
f 143/2/4 142/2/4 144/2/4
f 145/2/4 146/2/4 147/2/4
f 147/2/4 146/2/4 148/2/4
f 145/2/4 147/2/4 149/2/4
f 148/2/4 146/2/4 150/2/4
f 145/2/4 149/2/4 151/2/4
f 149/2/4 150/2/4 151/2/4
f 150/2/4 146/2/4 152/2/4
f 151/2/4 150/2/4 152/2/4
f 153/1/4 154/1/4 155/1/4
f 155/1/4 154/1/4 156/1/4
f 157/1/4 158/1/4 159/1/4
f 159/1/4 158/1/4 160/1/4
f 164/1/5 162/1/5 161/1/5
f 165/1/5 162/1/5 164/1/5
f 168/2/5 164/2/5 163/2/5
f 168/2/5 166/2/5 165/2/5
f 168/2/5 165/2/5 164/2/5
f 169/2/5 166/2/5 168/2/5
f 171/2/5 168/2/5 167/2/5
f 171/2/5 170/2/5 169/2/5
f 171/2/5 169/2/5 168/2/5
f 172/2/5 170/2/5 171/2/5
f 173/2/5 170/2/5 172/2/5
f 174/2/5 170/2/5 173/2/5
f 176/2/5 173/2/5 172/2/5
f 177/2/5 173/2/5 176/2/5
f 180/2/5 176/2/5 175/2/5
f 180/2/5 178/2/5 177/2/5
f 180/2/5 177/2/5 176/2/5
f 181/2/5 178/2/5 180/2/5
f 183/2/5 181/2/5 180/2/5
f 183/2/5 182/2/5 181/2/5
f 183/2/5 180/2/5 179/2/5
f 184/2/5 182/2/5 183/2/5
f 185/2/5 182/2/5 184/2/5
f 186/2/5 182/2/5 185/2/5
f 187/2/5 185/2/5 184/2/5
f 188/2/5 185/2/5 187/2/5
f 192/1/5 190/1/5 189/1/5
f 193/1/5 190/1/5 192/1/5
f 193/1/5 192/1/5 191/1/5
f 194/1/5 190/1/5 193/1/5
f 195/1/5 193/1/5 191/1/5
f 196/1/5 193/1/5 195/1/5
f 197/1/6 198/1/6 199/1/6
f 199/1/6 198/1/6 200/1/6
f 201/2/6 202/2/6 205/2/6
f 205/2/6 202/2/6 206/2/6
f 203/2/6 204/2/6 207/2/6
f 207/2/6 204/2/6 208/2/6
f 209/2/6 210/2/6 211/2/6
f 211/2/6 210/2/6 212/2/6
f 212/2/6 210/2/6 213/2/6
f 213/2/6 210/2/6 214/2/6
f 212/2/6 213/2/6 216/2/6
f 216/2/6 213/2/6 217/2/6
f 215/2/6 216/2/6 219/2/6
f 217/2/6 218/2/6 219/2/6
f 216/2/6 217/2/6 219/2/6
f 219/2/6 218/2/6 220/2/6
f 221/1/6 222/1/6 224/1/6
f 224/1/6 222/1/6 225/1/6
f 223/1/6 224/1/6 225/1/6
f 225/1/6 222/1/6 226/1/6
f 223/1/6 225/1/6 227/1/6
f 227/1/6 225/1/6 228/1/6
f 229/2/6 230/2/6 233/2/6
f 233/2/6 230/2/6 234/2/6
f 231/2/6 232/2/6 235/2/6
f 235/2/6 232/2/6 236/2/6
f 237/2/6 238/2/6 239/2/6
f 239/2/6 238/2/6 240/2/6
