# MagicaVoxel @ Ephtracy

# group
o 

# material
mtllib rat_walk_2.mtl
usemtl palette

# normals
vn -1 0 0
vn 1 0 0
vn 0 0 1
vn 0 0 -1
vn 0 -1 0
vn 0 1 0

# texcoords
vt 0.884766 0.5
vt 0.943359 0.5

# verts
v -0.3 0 -0.2
v -0.3 0 -0.3
v -0.3 0.2 -0.2
v -0.3 0.2 -0.3
v -0.2 0 0.2
v -0.2 0 0.1
v -0.2 0.1 0.1
v -0.2 0.1 -0.2
v -0.2 0.2 0.3
v -0.2 0.2 0.2
v -0.2 0.2 0.1
v -0.2 0.2 -0.2
v -0.2 0.2 -0.3
v -0.2 0.4 0.3
v -0.2 0.4 0.2
v -0.2 0.4 0.1
v -0.2 0.4 -0.3
v -0.1 0.1 0.4
v -0.1 0.1 0.2
v -0.1 0.2 0.3
v -0.1 0.2 0.2
v -0.1 0.2 0.1
v -0.1 0.2 -0.4
v -0.1 0.2 -0.6
v -0.1 0.3 0.4
v -0.1 0.3 0.3
v -0.1 0.3 0.2
v -0.1 0.3 0.1
v -0.1 0.3 -0.4
v -0.1 0.3 -0.6
v 2.98023e-08 0.1 0.5
v 2.98023e-08 0.1 0.4
v 2.98023e-08 0.2 0.5
v 2.98023e-08 0.2 0.4
v 2.98023e-08 0.2 -0.3
v 2.98023e-08 0.2 -0.4
v 2.98023e-08 0.3 -0.3
v 2.98023e-08 0.3 -0.4
v 0.1 0.3 0.3
v 0.1 0.3 0.2
v 0.1 0.4 0.3
v 0.1 0.4 0.2
v 0.2 0 0.4
v 0.2 0 0.3
v 0.2 0.1 0.4
v 0.2 0.1 0.3
v 0.3 0 -5.96046e-08
v 0.3 0 -0.1
v 0.3 0.1 -5.96046e-08
v 0.3 0.1 -0.1
v -0.2 0 -0.2
v -0.2 0 -0.3
v -0.2 0.1 -0.2
v -0.2 0.1 -0.3
v -0.1 0 0.2
v -0.1 0 0.1
v -0.1 0.1 0.2
v -0.1 0.1 0.1
v 2.98023e-08 0.2 -0.5
v 2.98023e-08 0.2 -0.6
v 2.98023e-08 0.3 0.3
v 2.98023e-08 0.3 0.2
v 2.98023e-08 0.3 -0.5
v 2.98023e-08 0.3 -0.6
v 2.98023e-08 0.4 0.3
v 2.98023e-08 0.4 0.2
v 0.1 0.1 0.5
v 0.1 0.1 0.4
v 0.1 0.2 0.5
v 0.1 0.2 0.4
v 0.1 0.2 -0.3
v 0.1 0.2 -0.5
v 0.1 0.3 -0.3
v 0.1 0.3 -0.5
v 0.2 0.1 0.3
v 0.2 0.1 0.1
v 0.2 0.2 0.4
v 0.2 0.2 0.3
v 0.2 0.2 0.2
v 0.2 0.3 0.4
v 0.2 0.3 0.3
v 0.2 0.3 0.2
v 0.2 0.3 0.1
v 0.3 0 0.4
v 0.3 0 0.3
v 0.3 0.1 0.1
v 0.3 0.1 -5.96046e-08
v 0.3 0.1 -0.1
v 0.3 0.1 -0.3
v 0.3 0.2 0.4
v 0.3 0.2 0.3
v 0.3 0.2 0.2
v 0.3 0.2 -5.96046e-08
v 0.3 0.2 -0.1
v 0.3 0.4 0.3
v 0.3 0.4 0.2
v 0.3 0.4 0.1
v 0.3 0.4 -0.3
v 0.4 0 -5.96046e-08
v 0.4 0 -0.1
v 0.4 0.2 -5.96046e-08
v 0.4 0.2 -0.1
v 2.98023e-08 0.1 0.5
v 2.98023e-08 0.2 0.5
v 0.1 0.1 0.5
v 0.1 0.2 0.5
v -0.1 0.1 0.4
v -0.1 0.3 0.4
v 2.98023e-08 0.1 0.4
v 2.98023e-08 0.2 0.4
v 0.1 0.1 0.4
v 0.1 0.2 0.4
v 0.2 0 0.4
v 0.2 0.1 0.4
v 0.2 0.2 0.4
v 0.2 0.3 0.4
v 0.3 0 0.4
v 0.3 0.2 0.4
v -0.2 0.2 0.3
v -0.2 0.4 0.3
v -0.1 0.2 0.3
v -0.1 0.3 0.3
v 2.98023e-08 0.3 0.3
v 2.98023e-08 0.4 0.3
v 0.1 0.3 0.3
v 0.1 0.4 0.3
v 0.2 0.2 0.3
v 0.2 0.3 0.3
v 0.3 0.2 0.3
v 0.3 0.4 0.3
v -0.2 0 0.2
v -0.2 0.2 0.2
v -0.1 0 0.2
v -0.1 0.1 0.2
v -0.1 0.2 0.2
v -0.2 0.2 0.1
v -0.2 0.4 0.1
v -0.1 0.2 0.1
v -0.1 0.3 0.1
v 0.2 0.1 0.1
v 0.2 0.3 0.1
v 0.3 0.1 0.1
v 0.3 0.4 0.1
v 0.3 0 -5.96046e-08
v 0.3 0.1 -5.96046e-08
v 0.3 0.2 -5.96046e-08
v 0.4 0 -5.96046e-08
v 0.4 0.2 -5.96046e-08
v -0.3 0 -0.2
v -0.3 0.2 -0.2
v -0.2 0 -0.2
v -0.2 0.1 -0.2
v -0.2 0.2 -0.2
v -0.1 0.2 -0.4
v -0.1 0.3 -0.4
v 2.98023e-08 0.2 -0.4
v 2.98023e-08 0.3 -0.4
v 0.2 0 0.3
v 0.2 0.1 0.3
v 0.2 0.2 0.3
v 0.3 0 0.3
v 0.3 0.2 0.3
v -0.2 0.2 0.2
v -0.2 0.4 0.2
v -0.1 0.2 0.2
v -0.1 0.3 0.2
v 2.98023e-08 0.3 0.2
v 2.98023e-08 0.4 0.2
v 0.1 0.3 0.2
v 0.1 0.4 0.2
v 0.2 0.2 0.2
v 0.2 0.3 0.2
v 0.3 0.2 0.2
v 0.3 0.4 0.2
v -0.2 0 0.1
v -0.2 0.1 0.1
v -0.1 0 0.1
v -0.1 0.1 0.1
v 0.3 0 -0.1
v 0.3 0.1 -0.1
v 0.3 0.2 -0.1
v 0.4 0 -0.1
v 0.4 0.2 -0.1
v -0.3 0 -0.3
v -0.3 0.2 -0.3
v -0.2 0 -0.3
v -0.2 0.1 -0.3
v -0.2 0.2 -0.3
v -0.2 0.4 -0.3
v 2.98023e-08 0.2 -0.3
v 2.98023e-08 0.3 -0.3
v 0.1 0.2 -0.3
v 0.1 0.3 -0.3
v 0.3 0.1 -0.3
v 0.3 0.4 -0.3
v 2.98023e-08 0.2 -0.5
v 2.98023e-08 0.3 -0.5
v 0.1 0.2 -0.5
v 0.1 0.3 -0.5
v -0.1 0.2 -0.6
v -0.1 0.3 -0.6
v 2.98023e-08 0.2 -0.6
v 2.98023e-08 0.3 -0.6
v 0.2 0 0.4
v 0.3 0 0.4
v 0.2 0 0.3
v 0.3 0 0.3
v -0.2 0 0.2
v -0.1 0 0.2
v -0.2 0 0.1
v -0.1 0 0.1
v 0.3 0 -5.96046e-08
v 0.4 0 -5.96046e-08
v 0.3 0 -0.1
v 0.4 0 -0.1
v -0.3 0 -0.2
v -0.2 0 -0.2
v -0.3 0 -0.3
v -0.2 0 -0.3
v 2.98023e-08 0.1 0.5
v 0.1 0.1 0.5
v -0.1 0.1 0.4
v 2.98023e-08 0.1 0.4
v 0.1 0.1 0.4
v 0.2 0.1 0.4
v 0.2 0.1 0.3
v -0.1 0.1 0.2
v -0.2 0.1 0.1
v -0.1 0.1 0.1
v 0.2 0.1 0.1
v 0.3 0.1 0.1
v 0.3 0.1 -5.96046e-08
v 0.3 0.1 -0.1
v -0.2 0.1 -0.2
v -0.2 0.1 -0.3
v 0.3 0.1 -0.3
v -0.2 0.2 0.3
v -0.1 0.2 0.3
v 0.2 0.2 0.3
v 0.3 0.2 0.3
v -0.2 0.2 0.2
v -0.1 0.2 0.2
v 0.2 0.2 0.2
v 0.3 0.2 0.2
v 2.98023e-08 0.2 -0.3
v 0.1 0.2 -0.3
v -0.1 0.2 -0.4
v 2.98023e-08 0.2 -0.4
v 2.98023e-08 0.2 -0.5
v 0.1 0.2 -0.5
v -0.1 0.2 -0.6
v 2.98023e-08 0.2 -0.6
v 2.98023e-08 0.2 0.5
v 0.1 0.2 0.5
v 2.98023e-08 0.2 0.4
v 0.1 0.2 0.4
v 0.2 0.2 0.4
v 0.3 0.2 0.4
v 0.2 0.2 0.3
v 0.3 0.2 0.3
v -0.2 0.2 0.2
v -0.1 0.2 0.2
v -0.2 0.2 0.1
v -0.1 0.2 0.1
v 0.3 0.2 -5.96046e-08
v 0.4 0.2 -5.96046e-08
v 0.3 0.2 -0.1
v 0.4 0.2 -0.1
v -0.3 0.2 -0.2
v -0.2 0.2 -0.2
v -0.3 0.2 -0.3
v -0.2 0.2 -0.3
v -0.1 0.3 0.4
v 0.2 0.3 0.4
v -0.1 0.3 0.3
v 2.98023e-08 0.3 0.3
v 0.1 0.3 0.3
v 0.2 0.3 0.3
v -0.1 0.3 0.2
v 2.98023e-08 0.3 0.2
v 0.1 0.3 0.2
v 0.2 0.3 0.2
v -0.1 0.3 0.1
v 0.2 0.3 0.1
v 2.98023e-08 0.3 -0.3
v 0.1 0.3 -0.3
v -0.1 0.3 -0.4
v 2.98023e-08 0.3 -0.4
v 2.98023e-08 0.3 -0.5
v 0.1 0.3 -0.5
v -0.1 0.3 -0.6
v 2.98023e-08 0.3 -0.6
v -0.2 0.4 0.3
v 2.98023e-08 0.4 0.3
v 0.1 0.4 0.3
v 0.3 0.4 0.3
v -0.2 0.4 0.2
v 2.98023e-08 0.4 0.2
v 0.1 0.4 0.2
v 0.3 0.4 0.2
v -0.2 0.4 0.1
v 0.3 0.4 0.1
v -0.2 0.4 -0.3
v 0.3 0.4 -0.3

# faces
f 3/2/1 2/2/1 1/2/1
f 4/2/1 2/2/1 3/2/1
f 7/2/1 6/2/1 5/2/1
f 10/2/1 7/2/1 5/2/1
f 10/2/1 8/2/1 7/2/1
f 11/2/1 8/2/1 10/2/1
f 12/2/1 8/2/1 11/2/1
f 14/2/1 10/2/1 9/2/1
f 15/2/1 10/2/1 14/2/1
f 16/2/1 13/2/1 12/2/1
f 16/2/1 12/2/1 11/2/1
f 17/2/1 13/2/1 16/2/1
f 20/2/1 19/2/1 18/2/1
f 21/2/1 19/2/1 20/2/1
f 25/2/1 20/2/1 18/2/1
f 26/2/1 20/2/1 25/2/1
f 27/2/1 22/2/1 21/2/1
f 28/2/1 22/2/1 27/2/1
f 29/1/1 24/1/1 23/1/1
f 30/1/1 24/1/1 29/1/1
f 33/1/1 32/1/1 31/1/1
f 34/1/1 32/1/1 33/1/1
f 37/1/1 36/1/1 35/1/1
f 38/1/1 36/1/1 37/1/1
f 41/2/1 40/2/1 39/2/1
f 42/2/1 40/2/1 41/2/1
f 45/2/1 44/2/1 43/2/1
f 46/2/1 44/2/1 45/2/1
f 49/2/1 48/2/1 47/2/1
f 50/2/1 48/2/1 49/2/1
f 51/2/2 52/2/2 53/2/2
f 53/2/2 52/2/2 54/2/2
f 55/2/2 56/2/2 57/2/2
f 57/2/2 56/2/2 58/2/2
f 59/1/2 60/1/2 63/1/2
f 63/1/2 60/1/2 64/1/2
f 61/2/2 62/2/2 65/2/2
f 65/2/2 62/2/2 66/2/2
f 67/1/2 68/1/2 69/1/2
f 69/1/2 68/1/2 70/1/2
f 71/1/2 72/1/2 73/1/2
f 73/1/2 72/1/2 74/1/2
f 75/2/2 76/2/2 78/2/2
f 78/2/2 76/2/2 79/2/2
f 77/2/2 78/2/2 80/2/2
f 80/2/2 78/2/2 81/2/2
f 79/2/2 76/2/2 82/2/2
f 82/2/2 76/2/2 83/2/2
f 84/2/2 85/2/2 90/2/2
f 90/2/2 85/2/2 91/2/2
f 86/2/2 87/2/2 93/2/2
f 88/2/2 89/2/2 94/2/2
f 91/2/2 92/2/2 95/2/2
f 95/2/2 92/2/2 96/2/2
f 86/2/2 93/2/2 97/2/2
f 93/2/2 94/2/2 97/2/2
f 94/2/2 89/2/2 98/2/2
f 97/2/2 94/2/2 98/2/2
f 99/2/2 100/2/2 101/2/2
f 101/2/2 100/2/2 102/2/2
f 105/1/3 104/1/3 103/1/3
f 106/1/3 104/1/3 105/1/3
f 109/2/3 108/2/3 107/2/3
f 110/2/3 108/2/3 109/2/3
f 112/2/3 108/2/3 110/2/3
f 114/2/3 112/2/3 111/2/3
f 115/2/3 108/2/3 112/2/3
f 115/2/3 112/2/3 114/2/3
f 116/2/3 108/2/3 115/2/3
f 117/2/3 114/2/3 113/2/3
f 117/2/3 115/2/3 114/2/3
f 118/2/3 115/2/3 117/2/3
f 121/2/3 120/2/3 119/2/3
f 122/2/3 120/2/3 121/2/3
f 123/2/3 120/2/3 122/2/3
f 124/2/3 120/2/3 123/2/3
f 128/2/3 126/2/3 125/2/3
f 129/2/3 128/2/3 127/2/3
f 130/2/3 126/2/3 128/2/3
f 130/2/3 128/2/3 129/2/3
f 133/2/3 132/2/3 131/2/3
f 134/2/3 132/2/3 133/2/3
f 135/2/3 132/2/3 134/2/3
f 138/2/3 137/2/3 136/2/3
f 139/2/3 137/2/3 138/2/3
f 141/2/3 137/2/3 139/2/3
f 142/2/3 141/2/3 140/2/3
f 143/2/3 137/2/3 141/2/3
f 143/2/3 141/2/3 142/2/3
f 147/2/3 145/2/3 144/2/3
f 147/2/3 146/2/3 145/2/3
f 148/2/3 146/2/3 147/2/3
f 151/2/3 150/2/3 149/2/3
f 152/2/3 150/2/3 151/2/3
f 153/2/3 150/2/3 152/2/3
f 156/1/3 155/1/3 154/1/3
f 157/1/3 155/1/3 156/1/3
f 158/2/4 159/2/4 161/2/4
f 159/2/4 160/2/4 161/2/4
f 161/2/4 160/2/4 162/2/4
f 163/2/4 164/2/4 165/2/4
f 165/2/4 164/2/4 166/2/4
f 166/2/4 164/2/4 167/2/4
f 167/2/4 164/2/4 168/2/4
f 169/2/4 170/2/4 172/2/4
f 171/2/4 172/2/4 173/2/4
f 172/2/4 170/2/4 174/2/4
f 173/2/4 172/2/4 174/2/4
f 175/2/4 176/2/4 177/2/4
f 177/2/4 176/2/4 178/2/4
f 179/2/4 180/2/4 182/2/4
f 180/2/4 181/2/4 182/2/4
f 182/2/4 181/2/4 183/2/4
f 184/2/4 185/2/4 186/2/4
f 186/2/4 185/2/4 187/2/4
f 187/2/4 185/2/4 188/2/4
f 188/2/4 189/2/4 190/2/4
f 187/2/4 188/2/4 190/2/4
f 190/2/4 189/2/4 191/2/4
f 187/2/4 190/2/4 192/2/4
f 191/2/4 189/2/4 193/2/4
f 187/2/4 192/2/4 194/2/4
f 192/2/4 193/2/4 194/2/4
f 193/2/4 189/2/4 195/2/4
f 194/2/4 193/2/4 195/2/4
f 196/1/4 197/1/4 198/1/4
f 198/1/4 197/1/4 199/1/4
f 200/1/4 201/1/4 202/1/4
f 202/1/4 201/1/4 203/1/4
f 206/2/5 205/2/5 204/2/5
f 207/2/5 205/2/5 206/2/5
f 210/2/5 209/2/5 208/2/5
f 211/2/5 209/2/5 210/2/5
f 214/2/5 213/2/5 212/2/5
f 215/2/5 213/2/5 214/2/5
f 218/2/5 217/2/5 216/2/5
f 219/2/5 217/2/5 218/2/5
f 223/1/5 221/1/5 220/1/5
f 224/1/5 221/1/5 223/1/5
f 226/2/5 223/2/5 222/2/5
f 226/2/5 225/2/5 224/2/5
f 226/2/5 224/2/5 223/2/5
f 227/2/5 226/2/5 222/2/5
f 229/2/5 226/2/5 227/2/5
f 230/2/5 226/2/5 229/2/5
f 232/2/5 230/2/5 229/2/5
f 232/2/5 231/2/5 230/2/5
f 232/2/5 229/2/5 228/2/5
f 233/2/5 232/2/5 228/2/5
f 234/2/5 233/2/5 228/2/5
f 235/2/5 233/2/5 234/2/5
f 236/2/5 233/2/5 235/2/5
f 241/2/5 238/2/5 237/2/5
f 242/2/5 238/2/5 241/2/5
f 243/2/5 240/2/5 239/2/5
f 244/2/5 240/2/5 243/2/5
f 248/1/5 246/1/5 245/1/5
f 249/1/5 246/1/5 248/1/5
f 249/1/5 248/1/5 247/1/5
f 250/1/5 246/1/5 249/1/5
f 251/1/5 249/1/5 247/1/5
f 252/1/5 249/1/5 251/1/5
f 253/1/6 254/1/6 255/1/6
f 255/1/6 254/1/6 256/1/6
f 257/2/6 258/2/6 259/2/6
f 259/2/6 258/2/6 260/2/6
f 261/2/6 262/2/6 263/2/6
f 263/2/6 262/2/6 264/2/6
f 265/2/6 266/2/6 267/2/6
f 267/2/6 266/2/6 268/2/6
f 269/2/6 270/2/6 271/2/6
f 271/2/6 270/2/6 272/2/6
f 273/2/6 274/2/6 275/2/6
f 275/2/6 274/2/6 276/2/6
f 276/2/6 274/2/6 277/2/6
f 277/2/6 274/2/6 278/2/6
f 276/2/6 277/2/6 280/2/6
f 280/2/6 277/2/6 281/2/6
f 279/2/6 280/2/6 283/2/6
f 281/2/6 282/2/6 283/2/6
f 280/2/6 281/2/6 283/2/6
f 283/2/6 282/2/6 284/2/6
f 285/1/6 286/1/6 288/1/6
f 288/1/6 286/1/6 289/1/6
f 287/1/6 288/1/6 289/1/6
f 289/1/6 286/1/6 290/1/6
f 287/1/6 289/1/6 291/1/6
f 291/1/6 289/1/6 292/1/6
f 293/2/6 294/2/6 297/2/6
f 297/2/6 294/2/6 298/2/6
f 295/2/6 296/2/6 299/2/6
f 299/2/6 296/2/6 300/2/6
f 301/2/6 302/2/6 303/2/6
f 303/2/6 302/2/6 304/2/6
