# MagicaVoxel @ Ephtracy

# group
o 

# material
mtllib bat_walk_1.mtl
usemtl palette

# normals
vn -1 0 0
vn 1 0 0
vn 0 0 1
vn 0 0 -1
vn 0 -1 0
vn 0 1 0

# texcoords
vt 0.884766 0.5
vt 0.978516 0.5

# verts
v -0.6 0.5 0.2
v -0.6 0.5 -0.4
v -0.6 0.6 0.2
v -0.6 0.6 -0.4
v -0.2 0.7 0.2
v -0.2 0.7 0.1
v -0.2 0.9 0.2
v -0.2 0.9 0.1
v -0.1 0.5 0
v -0.1 0.5 -0.1
v -0.1 0.6 0.4
v -0.1 0.6 0.2
v -0.1 0.6 0.1
v -0.1 0.6 0
v -0.1 0.7 0.2
v -0.1 0.7 0.1
v -0.1 0.7 -0.1
v -0.1 0.8 0.4
v -0.1 0.8 0.2
v 0.1 0.8 0.2
v 0.1 0.8 0.1
v 0.1 0.9 0.2
v 0.1 0.9 0.1
v 0.2 0.5 0
v 0.2 0.5 -0.1
v 0.2 0.6 0
v 0.2 0.6 -0.1
v 0.3 0.5 -0.1
v 0.3 0.5 -0.2
v 0.3 0.6 -0.1
v 0.3 0.6 -0.2
v 0.4 0.5 -0.2
v 0.4 0.5 -0.3
v 0.4 0.6 -0.2
v 0.4 0.6 -0.3
v 0.5 0.5 -0.3
v 0.5 0.5 -0.4
v 0.5 0.6 -0.3
v 0.5 0.6 -0.4
v -0.5 0.5 -0.3
v -0.5 0.5 -0.4
v -0.5 0.6 -0.3
v -0.5 0.6 -0.4
v -0.4 0.5 -0.2
v -0.4 0.5 -0.3
v -0.4 0.6 -0.2
v -0.4 0.6 -0.3
v -0.3 0.5 -0.1
v -0.3 0.5 -0.2
v -0.3 0.6 -0.1
v -0.3 0.6 -0.2
v -0.2 0.5 0
v -0.2 0.5 -0.1
v -0.2 0.6 0
v -0.2 0.6 -0.1
v -0.1 0.8 0.2
v -0.1 0.8 0.1
v -0.1 0.9 0.2
v -0.1 0.9 0.1
v 0.1 0.5 0
v 0.1 0.5 -0.1
v 0.1 0.6 0.4
v 0.1 0.6 0.2
v 0.1 0.6 0.1
v 0.1 0.6 0
v 0.1 0.7 0.2
v 0.1 0.7 0.1
v 0.1 0.7 -0.1
v 0.1 0.8 0.4
v 0.1 0.8 0.2
v 0.2 0.7 0.2
v 0.2 0.7 0.1
v 0.2 0.9 0.2
v 0.2 0.9 0.1
v 0.6 0.5 0.2
v 0.6 0.5 -0.4
v 0.6 0.6 0.2
v 0.6 0.6 -0.4
v -0.1 0.6 0.4
v -0.1 0.8 0.4
v 0.1 0.6 0.4
v 0.1 0.8 0.4
v -0.6 0.5 0.2
v -0.6 0.6 0.2
v -0.2 0.7 0.2
v -0.2 0.9 0.2
v -0.1 0.6 0.2
v -0.1 0.7 0.2
v -0.1 0.8 0.2
v -0.1 0.9 0.2
v 0.1 0.6 0.2
v 0.1 0.7 0.2
v 0.1 0.8 0.2
v 0.1 0.9 0.2
v 0.2 0.7 0.2
v 0.2 0.9 0.2
v 0.6 0.5 0.2
v 0.6 0.6 0.2
v -0.2 0.7 0.1
v -0.2 0.9 0.1
v -0.1 0.7 0.1
v -0.1 0.8 0.1
v -0.1 0.9 0.1
v 0.1 0.7 0.1
v 0.1 0.8 0.1
v 0.1 0.9 0.1
v 0.2 0.7 0.1
v 0.2 0.9 0.1
v -0.2 0.5 0
v -0.2 0.6 0
v -0.1 0.5 0
v -0.1 0.6 0
v 0.1 0.5 0
v 0.1 0.6 0
v 0.2 0.5 0
v 0.2 0.6 0
v -0.3 0.5 -0.1
v -0.3 0.6 -0.1
v -0.2 0.5 -0.1
v -0.2 0.6 -0.1
v -0.1 0.5 -0.1
v -0.1 0.7 -0.1
v 0.1 0.5 -0.1
v 0.1 0.7 -0.1
v 0.2 0.5 -0.1
v 0.2 0.6 -0.1
v 0.3 0.5 -0.1
v 0.3 0.6 -0.1
v -0.4 0.5 -0.2
v -0.4 0.6 -0.2
v -0.3 0.5 -0.2
v -0.3 0.6 -0.2
v 0.3 0.5 -0.2
v 0.3 0.6 -0.2
v 0.4 0.5 -0.2
v 0.4 0.6 -0.2
v -0.5 0.5 -0.3
v -0.5 0.6 -0.3
v -0.4 0.5 -0.3
v -0.4 0.6 -0.3
v 0.4 0.5 -0.3
v 0.4 0.6 -0.3
v 0.5 0.5 -0.3
v 0.5 0.6 -0.3
v -0.6 0.5 -0.4
v -0.6 0.6 -0.4
v -0.5 0.5 -0.4
v -0.5 0.6 -0.4
v 0.5 0.5 -0.4
v 0.5 0.6 -0.4
v 0.6 0.5 -0.4
v 0.6 0.6 -0.4
v -0.6 0.5 0.2
v 0.6 0.5 0.2
v -0.5 0.5 0.1
v -0.1 0.5 0.1
v 0.1 0.5 0.1
v 0.5 0.5 0.1
v -0.2 0.5 0
v -0.1 0.5 0
v 0.1 0.5 0
v 0.2 0.5 0
v -0.3 0.5 -0.1
v -0.2 0.5 -0.1
v -0.1 0.5 -0.1
v 0.1 0.5 -0.1
v 0.2 0.5 -0.1
v 0.3 0.5 -0.1
v -0.4 0.5 -0.2
v -0.3 0.5 -0.2
v 0.3 0.5 -0.2
v 0.4 0.5 -0.2
v -0.5 0.5 -0.3
v -0.4 0.5 -0.3
v 0.4 0.5 -0.3
v 0.5 0.5 -0.3
v -0.6 0.5 -0.4
v -0.5 0.5 -0.4
v 0.5 0.5 -0.4
v 0.6 0.5 -0.4
v -0.1 0.6 0.4
v 0.1 0.6 0.4
v -0.1 0.6 0.2
v 0.1 0.6 0.2
v -0.2 0.7 0.2
v -0.1 0.7 0.2
v 0.1 0.7 0.2
v 0.2 0.7 0.2
v -0.2 0.7 0.1
v -0.1 0.7 0.1
v 0.1 0.7 0.1
v 0.2 0.7 0.1
v -0.6 0.6 0.2
v -0.1 0.6 0.2
v 0.1 0.6 0.2
v 0.6 0.6 0.2
v -0.5 0.6 0.1
v -0.1 0.6 0.1
v 0.1 0.6 0.1
v 0.5 0.6 0.1
v -0.2 0.6 0
v -0.1 0.6 0
v 0.1 0.6 0
v 0.2 0.6 0
v -0.3 0.6 -0.1
v -0.2 0.6 -0.1
v 0.2 0.6 -0.1
v 0.3 0.6 -0.1
v -0.4 0.6 -0.2
v -0.3 0.6 -0.2
v 0.3 0.6 -0.2
v 0.4 0.6 -0.2
v -0.5 0.6 -0.3
v -0.4 0.6 -0.3
v 0.4 0.6 -0.3
v 0.5 0.6 -0.3
v -0.6 0.6 -0.4
v -0.5 0.6 -0.4
v 0.5 0.6 -0.4
v 0.6 0.6 -0.4
v -0.1 0.7 0.1
v 0.1 0.7 0.1
v -0.1 0.7 -0.1
v 0.1 0.7 -0.1
v -0.1 0.8 0.4
v 0.1 0.8 0.4
v -0.1 0.8 0.2
v 0.1 0.8 0.2
v -0.1 0.8 0.1
v 0.1 0.8 0.1
v -0.2 0.9 0.2
v -0.1 0.9 0.2
v 0.1 0.9 0.2
v 0.2 0.9 0.2
v -0.2 0.9 0.1
v -0.1 0.9 0.1
v 0.1 0.9 0.1
v 0.2 0.9 0.1

# faces
f 3/2/1 2/2/1 1/2/1
f 4/2/1 2/2/1 3/2/1
f 7/2/1 6/2/1 5/2/1
f 8/2/1 6/2/1 7/2/1
f 14/2/1 10/2/1 9/2/1
f 15/2/1 13/2/1 12/2/1
f 15/2/1 14/2/1 13/2/1
f 15/2/1 12/2/1 11/2/1
f 16/2/1 14/2/1 15/2/1
f 17/2/1 10/2/1 14/2/1
f 17/2/1 14/2/1 16/2/1
f 18/2/1 15/2/1 11/2/1
f 19/2/1 15/2/1 18/2/1
f 22/2/1 21/2/1 20/2/1
f 23/2/1 21/2/1 22/2/1
f 26/1/1 25/1/1 24/1/1
f 27/1/1 25/1/1 26/1/1
f 30/1/1 29/1/1 28/1/1
f 31/1/1 29/1/1 30/1/1
f 34/1/1 33/1/1 32/1/1
f 35/1/1 33/1/1 34/1/1
f 38/2/1 37/2/1 36/2/1
f 39/2/1 37/2/1 38/2/1
f 40/2/2 41/2/2 42/2/2
f 42/2/2 41/2/2 43/2/2
f 44/1/2 45/1/2 46/1/2
f 46/1/2 45/1/2 47/1/2
f 48/1/2 49/1/2 50/1/2
f 50/1/2 49/1/2 51/1/2
f 52/1/2 53/1/2 54/1/2
f 54/1/2 53/1/2 55/1/2
f 56/2/2 57/2/2 58/2/2
f 58/2/2 57/2/2 59/2/2
f 60/2/2 61/2/2 65/2/2
f 63/2/2 64/2/2 66/2/2
f 64/2/2 65/2/2 66/2/2
f 62/2/2 63/2/2 66/2/2
f 66/2/2 65/2/2 67/2/2
f 65/2/2 61/2/2 68/2/2
f 67/2/2 65/2/2 68/2/2
f 62/2/2 66/2/2 69/2/2
f 69/2/2 66/2/2 70/2/2
f 71/2/2 72/2/2 73/2/2
f 73/2/2 72/2/2 74/2/2
f 75/2/2 76/2/2 77/2/2
f 77/2/2 76/2/2 78/2/2
f 81/2/3 80/2/3 79/2/3
f 82/2/3 80/2/3 81/2/3
f 87/2/3 84/2/3 83/2/3
f 88/2/3 86/2/3 85/2/3
f 89/2/3 86/2/3 88/2/3
f 90/2/3 86/2/3 89/2/3
f 91/2/3 87/2/3 83/2/3
f 95/2/3 93/2/3 92/2/3
f 95/2/3 94/2/3 93/2/3
f 96/2/3 94/2/3 95/2/3
f 97/2/3 91/2/3 83/2/3
f 98/2/3 91/2/3 97/2/3
f 99/2/4 100/2/4 101/2/4
f 101/2/4 100/2/4 102/2/4
f 102/2/4 100/2/4 103/2/4
f 101/2/4 102/2/4 104/2/4
f 104/2/4 102/2/4 105/2/4
f 104/2/4 105/2/4 107/2/4
f 105/2/4 106/2/4 107/2/4
f 107/2/4 106/2/4 108/2/4
f 109/1/4 110/1/4 111/1/4
f 111/1/4 110/1/4 112/1/4
f 113/1/4 114/1/4 115/1/4
f 115/1/4 114/1/4 116/1/4
f 117/1/4 118/1/4 119/1/4
f 119/1/4 118/1/4 120/1/4
f 121/2/4 122/2/4 123/2/4
f 123/2/4 122/2/4 124/2/4
f 125/1/4 126/1/4 127/1/4
f 127/1/4 126/1/4 128/1/4
f 129/1/4 130/1/4 131/1/4
f 131/1/4 130/1/4 132/1/4
f 133/1/4 134/1/4 135/1/4
f 135/1/4 134/1/4 136/1/4
f 137/1/4 138/1/4 139/1/4
f 139/1/4 138/1/4 140/1/4
f 141/1/4 142/1/4 143/1/4
f 143/1/4 142/1/4 144/1/4
f 145/2/4 146/2/4 147/2/4
f 147/2/4 146/2/4 148/2/4
f 149/2/4 150/2/4 151/2/4
f 151/2/4 150/2/4 152/2/4
f 155/2/5 154/2/5 153/2/5
f 156/2/5 154/2/5 155/2/5
f 157/2/5 154/2/5 156/2/5
f 158/2/5 154/2/5 157/2/5
f 159/1/5 156/1/5 155/1/5
f 160/2/5 157/2/5 156/2/5
f 160/1/5 156/1/5 159/1/5
f 161/1/5 158/1/5 157/1/5
f 161/2/5 157/2/5 160/2/5
f 162/1/5 158/1/5 161/1/5
f 163/1/5 159/1/5 155/1/5
f 164/1/5 159/1/5 163/1/5
f 165/2/5 161/2/5 160/2/5
f 166/2/5 161/2/5 165/2/5
f 167/1/5 158/1/5 162/1/5
f 168/1/5 158/1/5 167/1/5
f 169/1/5 163/1/5 155/1/5
f 170/1/5 163/1/5 169/1/5
f 171/1/5 158/1/5 168/1/5
f 172/1/5 158/1/5 171/1/5
f 173/2/5 155/2/5 153/2/5
f 173/1/5 169/1/5 155/1/5
f 174/1/5 169/1/5 173/1/5
f 175/1/5 158/1/5 172/1/5
f 176/2/5 154/2/5 158/2/5
f 176/1/5 158/1/5 175/1/5
f 177/2/5 173/2/5 153/2/5
f 178/2/5 173/2/5 177/2/5
f 179/2/5 154/2/5 176/2/5
f 180/2/5 154/2/5 179/2/5
f 183/2/5 182/2/5 181/2/5
f 184/2/5 182/2/5 183/2/5
f 189/2/5 186/2/5 185/2/5
f 190/2/5 186/2/5 189/2/5
f 191/2/5 188/2/5 187/2/5
f 192/2/5 188/2/5 191/2/5
f 193/2/6 194/2/6 197/2/6
f 197/2/6 194/2/6 198/2/6
f 195/2/6 196/2/6 199/2/6
f 199/2/6 196/2/6 200/2/6
f 197/1/6 198/1/6 201/1/6
f 201/1/6 198/1/6 202/1/6
f 199/1/6 200/1/6 203/1/6
f 203/1/6 200/1/6 204/1/6
f 197/1/6 201/1/6 205/1/6
f 205/1/6 201/1/6 206/1/6
f 204/1/6 200/1/6 207/1/6
f 207/1/6 200/1/6 208/1/6
f 197/1/6 205/1/6 209/1/6
f 209/1/6 205/1/6 210/1/6
f 208/1/6 200/1/6 211/1/6
f 211/1/6 200/1/6 212/1/6
f 193/2/6 197/2/6 213/2/6
f 197/1/6 209/1/6 213/1/6
f 213/1/6 209/1/6 214/1/6
f 212/1/6 200/1/6 215/1/6
f 200/2/6 196/2/6 216/2/6
f 215/1/6 200/1/6 216/1/6
f 193/2/6 213/2/6 217/2/6
f 217/2/6 213/2/6 218/2/6
f 216/2/6 196/2/6 219/2/6
f 219/2/6 196/2/6 220/2/6
f 221/2/6 222/2/6 223/2/6
f 223/2/6 222/2/6 224/2/6
f 225/2/6 226/2/6 227/2/6
f 227/2/6 226/2/6 228/2/6
f 227/2/6 228/2/6 229/2/6
f 229/2/6 228/2/6 230/2/6
f 231/2/6 232/2/6 235/2/6
f 235/2/6 232/2/6 236/2/6
f 233/2/6 234/2/6 237/2/6
f 237/2/6 234/2/6 238/2/6
