# MagicaVoxel @ Ephtracy

# group
o 

# material
mtllib bat_walk_0.mtl
usemtl palette

# normals
vn -1 0 0
vn 1 0 0
vn 0 0 1
vn 0 0 -1
vn 0 -1 0
vn 0 1 0

# texcoords
vt 0.884766 0.5
vt 0.978516 0.5

# verts
v -0.6 1 0.2
v -0.6 1 -0.4
v -0.6 1.1 0.2
v -0.6 1.1 -0.4
v -0.5 0.9 0.2
v -0.5 0.9 0.1
v -0.5 0.9 -0.3
v -0.5 1 0.2
v -0.5 1 0.1
v -0.5 1 -0.3
v -0.4 0.8 0.2
v -0.4 0.8 0.1
v -0.4 0.8 -0.2
v -0.4 0.9 0.2
v -0.4 0.9 0.1
v -0.4 0.9 -0.2
v -0.3 0.7 0.2
v -0.3 0.7 0.1
v -0.3 0.7 -0.1
v -0.3 0.8 0.2
v -0.3 0.8 0.1
v -0.3 0.8 -0.1
v -0.2 0.6 0.2
v -0.2 0.6 0.1
v -0.2 0.6 0
v -0.2 0.7 0.2
v -0.2 0.7 0.1
v -0.2 0.7 0
v -0.2 0.8 0.2
v -0.2 0.8 0.1
v -0.2 1 0.2
v -0.2 1 0.1
v -0.1 0.6 0
v -0.1 0.6 -0.1
v -0.1 0.7 0.4
v -0.1 0.7 0.2
v -0.1 0.7 0.1
v -0.1 0.7 0
v -0.1 0.8 0.2
v -0.1 0.8 0.1
v -0.1 0.8 -0.1
v -0.1 0.9 0.4
v -0.1 0.9 0.2
v 0.1 0.9 0.2
v 0.1 0.9 0.1
v 0.1 1 0.2
v 0.1 1 0.1
v 0.2 0.7 0.2
v 0.2 0.7 0.1
v 0.2 0.7 0
v 0.2 0.7 -0.1
v 0.2 0.8 0.2
v 0.2 0.8 0.1
v 0.2 0.8 -0.1
v 0.3 0.8 0.2
v 0.3 0.8 0.1
v 0.3 0.8 -0.1
v 0.3 0.8 -0.2
v 0.3 0.9 0.2
v 0.3 0.9 0.1
v 0.3 0.9 -0.2
v 0.4 0.9 0.2
v 0.4 0.9 0.1
v 0.4 0.9 -0.2
v 0.4 0.9 -0.3
v 0.4 1 0.2
v 0.4 1 0.1
v 0.4 1 -0.3
v 0.5 1 0.2
v 0.5 1 0.1
v 0.5 1 -0.3
v 0.5 1 -0.4
v 0.5 1.1 0.2
v 0.5 1.1 -0.4
v -0.5 1 0.2
v -0.5 1 0.1
v -0.5 1 -0.3
v -0.5 1 -0.4
v -0.5 1.1 0.2
v -0.5 1.1 -0.4
v -0.4 0.9 0.2
v -0.4 0.9 0.1
v -0.4 0.9 -0.2
v -0.4 0.9 -0.3
v -0.4 1 0.2
v -0.4 1 0.1
v -0.4 1 -0.3
v -0.3 0.8 0.2
v -0.3 0.8 0.1
v -0.3 0.8 -0.1
v -0.3 0.8 -0.2
v -0.3 0.9 0.2
v -0.3 0.9 0.1
v -0.3 0.9 -0.2
v -0.2 0.7 0.2
v -0.2 0.7 0.1
v -0.2 0.7 0
v -0.2 0.7 -0.1
v -0.2 0.8 0.2
v -0.2 0.8 0.1
v -0.2 0.8 -0.1
v -0.1 0.9 0.2
v -0.1 0.9 0.1
v -0.1 1 0.2
v -0.1 1 0.1
v 0.1 0.6 0
v 0.1 0.6 -0.1
v 0.1 0.7 0.4
v 0.1 0.7 0.2
v 0.1 0.7 0.1
v 0.1 0.7 0
v 0.1 0.8 0.2
v 0.1 0.8 0.1
v 0.1 0.8 -0.1
v 0.1 0.9 0.4
v 0.1 0.9 0.2
v 0.2 0.6 0.2
v 0.2 0.6 0.1
v 0.2 0.6 0
v 0.2 0.7 0.2
v 0.2 0.7 0.1
v 0.2 0.7 0
v 0.2 0.8 0.2
v 0.2 0.8 0.1
v 0.2 1 0.2
v 0.2 1 0.1
v 0.3 0.7 0.2
v 0.3 0.7 0.1
v 0.3 0.7 -0.1
v 0.3 0.8 0.2
v 0.3 0.8 0.1
v 0.3 0.8 -0.1
v 0.4 0.8 0.2
v 0.4 0.8 0.1
v 0.4 0.8 -0.2
v 0.4 0.9 0.2
v 0.4 0.9 0.1
v 0.4 0.9 -0.2
v 0.5 0.9 0.2
v 0.5 0.9 0.1
v 0.5 0.9 -0.3
v 0.5 1 0.2
v 0.5 1 0.1
v 0.5 1 -0.3
v 0.6 1 0.2
v 0.6 1 -0.4
v 0.6 1.1 0.2
v 0.6 1.1 -0.4
v -0.1 0.7 0.4
v -0.1 0.9 0.4
v 0.1 0.7 0.4
v 0.1 0.9 0.4
v -0.6 1 0.2
v -0.6 1.1 0.2
v -0.5 0.9 0.2
v -0.5 1 0.2
v -0.5 1.1 0.2
v -0.4 0.8 0.2
v -0.4 0.9 0.2
v -0.4 1 0.2
v -0.3 0.7 0.2
v -0.3 0.8 0.2
v -0.3 0.9 0.2
v -0.2 0.6 0.2
v -0.2 0.7 0.2
v -0.2 0.8 0.2
v -0.2 1 0.2
v -0.1 0.7 0.2
v -0.1 0.8 0.2
v -0.1 0.9 0.2
v -0.1 1 0.2
v 0.1 0.7 0.2
v 0.1 0.8 0.2
v 0.1 0.9 0.2
v 0.1 1 0.2
v 0.2 0.6 0.2
v 0.2 0.7 0.2
v 0.2 0.8 0.2
v 0.2 1 0.2
v 0.3 0.7 0.2
v 0.3 0.8 0.2
v 0.3 0.9 0.2
v 0.4 0.8 0.2
v 0.4 0.9 0.2
v 0.4 1 0.2
v 0.5 0.9 0.2
v 0.5 1 0.2
v 0.5 1.1 0.2
v 0.6 1 0.2
v 0.6 1.1 0.2
v -0.2 0.8 0.1
v -0.2 1 0.1
v -0.1 0.8 0.1
v -0.1 0.9 0.1
v -0.1 1 0.1
v 0.1 0.8 0.1
v 0.1 0.9 0.1
v 0.1 1 0.1
v 0.2 0.8 0.1
v 0.2 1 0.1
v -0.2 0.6 0
v -0.2 0.7 0
v -0.1 0.6 0
v -0.1 0.7 0
v 0.1 0.6 0
v 0.1 0.7 0
v 0.2 0.6 0
v 0.2 0.7 0
v -0.3 0.7 -0.1
v -0.3 0.8 -0.1
v -0.2 0.7 -0.1
v -0.2 0.8 -0.1
v -0.1 0.6 -0.1
v -0.1 0.8 -0.1
v 0.1 0.6 -0.1
v 0.1 0.8 -0.1
v 0.2 0.7 -0.1
v 0.2 0.8 -0.1
v 0.3 0.7 -0.1
v 0.3 0.8 -0.1
v -0.4 0.8 -0.2
v -0.4 0.9 -0.2
v -0.3 0.8 -0.2
v -0.3 0.9 -0.2
v 0.3 0.8 -0.2
v 0.3 0.9 -0.2
v 0.4 0.8 -0.2
v 0.4 0.9 -0.2
v -0.5 0.9 -0.3
v -0.5 1 -0.3
v -0.4 0.9 -0.3
v -0.4 1 -0.3
v 0.4 0.9 -0.3
v 0.4 1 -0.3
v 0.5 0.9 -0.3
v 0.5 1 -0.3
v -0.6 1 -0.4
v -0.6 1.1 -0.4
v -0.5 1 -0.4
v -0.5 1.1 -0.4
v 0.5 1 -0.4
v 0.5 1.1 -0.4
v 0.6 1 -0.4
v 0.6 1.1 -0.4
v -0.2 0.6 0.2
v 0.2 0.6 0.2
v -0.2 0.6 0.1
v -0.1 0.6 0.1
v 0.1 0.6 0.1
v 0.2 0.6 0.1
v -0.2 0.6 0
v -0.1 0.6 0
v 0.1 0.6 0
v 0.2 0.6 0
v -0.1 0.6 -0.1
v 0.1 0.6 -0.1
v -0.1 0.7 0.4
v 0.1 0.7 0.4
v -0.3 0.7 0.2
v -0.2 0.7 0.2
v -0.1 0.7 0.2
v 0.1 0.7 0.2
v 0.2 0.7 0.2
v 0.3 0.7 0.2
v -0.3 0.7 0.1
v -0.2 0.7 0.1
v 0.2 0.7 0.1
v 0.3 0.7 0.1
v -0.2 0.7 0
v 0.2 0.7 0
v -0.3 0.7 -0.1
v -0.2 0.7 -0.1
v 0.2 0.7 -0.1
v 0.3 0.7 -0.1
v -0.4 0.8 0.2
v -0.3 0.8 0.2
v -0.2 0.8 0.2
v -0.1 0.8 0.2
v 0.1 0.8 0.2
v 0.2 0.8 0.2
v 0.3 0.8 0.2
v 0.4 0.8 0.2
v -0.4 0.8 0.1
v -0.3 0.8 0.1
v -0.2 0.8 0.1
v -0.1 0.8 0.1
v 0.1 0.8 0.1
v 0.2 0.8 0.1
v 0.3 0.8 0.1
v 0.4 0.8 0.1
v -0.3 0.8 -0.1
v 0.3 0.8 -0.1
v -0.4 0.8 -0.2
v -0.3 0.8 -0.2
v 0.3 0.8 -0.2
v 0.4 0.8 -0.2
v -0.5 0.9 0.2
v -0.4 0.9 0.2
v 0.4 0.9 0.2
v 0.5 0.9 0.2
v -0.5 0.9 0.1
v -0.4 0.9 0.1
v 0.4 0.9 0.1
v 0.5 0.9 0.1
v -0.4 0.9 -0.2
v 0.4 0.9 -0.2
v -0.5 0.9 -0.3
v -0.4 0.9 -0.3
v 0.4 0.9 -0.3
v 0.5 0.9 -0.3
v -0.6 1 0.2
v -0.5 1 0.2
v 0.5 1 0.2
v 0.6 1 0.2
v -0.5 1 0.1
v 0.5 1 0.1
v -0.5 1 -0.3
v 0.5 1 -0.3
v -0.6 1 -0.4
v -0.5 1 -0.4
v 0.5 1 -0.4
v 0.6 1 -0.4
v -0.2 0.7 0.2
v -0.1 0.7 0.2
v 0.1 0.7 0.2
v 0.2 0.7 0.2
v -0.2 0.7 0.1
v -0.1 0.7 0.1
v 0.1 0.7 0.1
v 0.2 0.7 0.1
v -0.2 0.7 0
v -0.1 0.7 0
v 0.1 0.7 0
v 0.2 0.7 0
v -0.3 0.8 0.2
v -0.2 0.8 0.2
v 0.2 0.8 0.2
v 0.3 0.8 0.2
v -0.3 0.8 0.1
v -0.2 0.8 0.1
v -0.1 0.8 0.1
v 0.1 0.8 0.1
v 0.2 0.8 0.1
v 0.3 0.8 0.1
v -0.3 0.8 -0.1
v -0.2 0.8 -0.1
v -0.1 0.8 -0.1
v 0.1 0.8 -0.1
v 0.2 0.8 -0.1
v 0.3 0.8 -0.1
v -0.1 0.9 0.4
v 0.1 0.9 0.4
v -0.4 0.9 0.2
v -0.3 0.9 0.2
v -0.1 0.9 0.2
v 0.1 0.9 0.2
v 0.3 0.9 0.2
v 0.4 0.9 0.2
v -0.4 0.9 0.1
v -0.3 0.9 0.1
v -0.1 0.9 0.1
v 0.1 0.9 0.1
v 0.3 0.9 0.1
v 0.4 0.9 0.1
v -0.4 0.9 -0.2
v -0.3 0.9 -0.2
v 0.3 0.9 -0.2
v 0.4 0.9 -0.2
v -0.5 1 0.2
v -0.4 1 0.2
v -0.2 1 0.2
v -0.1 1 0.2
v 0.1 1 0.2
v 0.2 1 0.2
v 0.4 1 0.2
v 0.5 1 0.2
v -0.5 1 0.1
v -0.4 1 0.1
v -0.2 1 0.1
v -0.1 1 0.1
v 0.1 1 0.1
v 0.2 1 0.1
v 0.4 1 0.1
v 0.5 1 0.1
v -0.5 1 -0.3
v -0.4 1 -0.3
v 0.4 1 -0.3
v 0.5 1 -0.3
v -0.6 1.1 0.2
v -0.5 1.1 0.2
v 0.5 1.1 0.2
v 0.6 1.1 0.2
v -0.6 1.1 -0.4
v -0.5 1.1 -0.4
v 0.5 1.1 -0.4
v 0.6 1.1 -0.4

# faces
f 3/2/1 2/2/1 1/2/1
f 4/2/1 2/2/1 3/2/1
f 8/2/1 6/2/1 5/2/1
f 9/1/1 7/1/1 6/1/1
f 9/2/1 6/2/1 8/2/1
f 10/1/1 7/1/1 9/1/1
f 14/2/1 12/2/1 11/2/1
f 15/1/1 13/1/1 12/1/1
f 15/2/1 12/2/1 14/2/1
f 16/1/1 13/1/1 15/1/1
f 20/2/1 18/2/1 17/2/1
f 21/1/1 19/1/1 18/1/1
f 21/2/1 18/2/1 20/2/1
f 22/1/1 19/1/1 21/1/1
f 26/2/1 24/2/1 23/2/1
f 27/1/1 25/1/1 24/1/1
f 27/2/1 24/2/1 26/2/1
f 28/1/1 25/1/1 27/1/1
f 31/2/1 30/2/1 29/2/1
f 32/2/1 30/2/1 31/2/1
f 38/2/1 34/2/1 33/2/1
f 39/2/1 37/2/1 36/2/1
f 39/2/1 38/2/1 37/2/1
f 39/2/1 36/2/1 35/2/1
f 40/2/1 38/2/1 39/2/1
f 41/2/1 34/2/1 38/2/1
f 41/2/1 38/2/1 40/2/1
f 42/2/1 39/2/1 35/2/1
f 43/2/1 39/2/1 42/2/1
f 46/2/1 45/2/1 44/2/1
f 47/2/1 45/2/1 46/2/1
f 52/2/1 49/2/1 48/2/1
f 53/1/1 51/1/1 50/1/1
f 53/2/1 49/2/1 52/2/1
f 53/1/1 50/1/1 49/1/1
f 54/1/1 51/1/1 53/1/1
f 59/2/1 56/2/1 55/2/1
f 60/1/1 58/1/1 57/1/1
f 60/2/1 56/2/1 59/2/1
f 60/1/1 57/1/1 56/1/1
f 61/1/1 58/1/1 60/1/1
f 66/2/1 63/2/1 62/2/1
f 67/1/1 65/1/1 64/1/1
f 67/2/1 63/2/1 66/2/1
f 67/1/1 64/1/1 63/1/1
f 68/1/1 65/1/1 67/1/1
f 73/2/1 70/2/1 69/2/1
f 73/2/1 72/2/1 71/2/1
f 73/2/1 71/2/1 70/2/1
f 74/2/1 72/2/1 73/2/1
f 75/2/2 76/2/2 79/2/2
f 77/2/2 78/2/2 79/2/2
f 76/2/2 77/2/2 79/2/2
f 79/2/2 78/2/2 80/2/2
f 81/2/2 82/2/2 85/2/2
f 83/1/2 84/1/2 86/1/2
f 85/2/2 82/2/2 86/2/2
f 82/1/2 83/1/2 86/1/2
f 86/1/2 84/1/2 87/1/2
f 88/2/2 89/2/2 92/2/2
f 90/1/2 91/1/2 93/1/2
f 92/2/2 89/2/2 93/2/2
f 89/1/2 90/1/2 93/1/2
f 93/1/2 91/1/2 94/1/2
f 95/2/2 96/2/2 99/2/2
f 97/1/2 98/1/2 100/1/2
f 99/2/2 96/2/2 100/2/2
f 96/1/2 97/1/2 100/1/2
f 100/1/2 98/1/2 101/1/2
f 102/2/2 103/2/2 104/2/2
f 104/2/2 103/2/2 105/2/2
f 106/2/2 107/2/2 111/2/2
f 109/2/2 110/2/2 112/2/2
f 110/2/2 111/2/2 112/2/2
f 108/2/2 109/2/2 112/2/2
f 112/2/2 111/2/2 113/2/2
f 111/2/2 107/2/2 114/2/2
f 113/2/2 111/2/2 114/2/2
f 108/2/2 112/2/2 115/2/2
f 115/2/2 112/2/2 116/2/2
f 117/2/2 118/2/2 120/2/2
f 118/1/2 119/1/2 121/1/2
f 120/2/2 118/2/2 121/2/2
f 121/1/2 119/1/2 122/1/2
f 123/2/2 124/2/2 125/2/2
f 125/2/2 124/2/2 126/2/2
f 127/2/2 128/2/2 130/2/2
f 128/1/2 129/1/2 131/1/2
f 130/2/2 128/2/2 131/2/2
f 131/1/2 129/1/2 132/1/2
f 133/2/2 134/2/2 136/2/2
f 134/1/2 135/1/2 137/1/2
f 136/2/2 134/2/2 137/2/2
f 137/1/2 135/1/2 138/1/2
f 139/2/2 140/2/2 142/2/2
f 140/1/2 141/1/2 143/1/2
f 142/2/2 140/2/2 143/2/2
f 143/1/2 141/1/2 144/1/2
f 145/2/2 146/2/2 147/2/2
f 147/2/2 146/2/2 148/2/2
f 151/2/3 150/2/3 149/2/3
f 152/2/3 150/2/3 151/2/3
f 156/2/3 154/2/3 153/2/3
f 157/2/3 154/2/3 156/2/3
f 159/2/3 156/2/3 155/2/3
f 160/2/3 156/2/3 159/2/3
f 162/2/3 159/2/3 158/2/3
f 163/2/3 159/2/3 162/2/3
f 165/2/3 162/2/3 161/2/3
f 166/2/3 162/2/3 165/2/3
f 168/2/3 165/2/3 164/2/3
f 169/2/3 167/2/3 166/2/3
f 170/2/3 167/2/3 169/2/3
f 171/2/3 167/2/3 170/2/3
f 172/2/3 168/2/3 164/2/3
f 176/2/3 172/2/3 164/2/3
f 177/2/3 172/2/3 176/2/3
f 178/2/3 175/2/3 174/2/3
f 178/2/3 174/2/3 173/2/3
f 179/2/3 175/2/3 178/2/3
f 180/2/3 178/2/3 177/2/3
f 181/2/3 178/2/3 180/2/3
f 183/2/3 182/2/3 181/2/3
f 184/2/3 182/2/3 183/2/3
f 186/2/3 185/2/3 184/2/3
f 187/2/3 185/2/3 186/2/3
f 189/2/3 188/2/3 187/2/3
f 190/2/3 188/2/3 189/2/3
f 191/2/4 192/2/4 193/2/4
f 193/2/4 192/2/4 194/2/4
f 194/2/4 192/2/4 195/2/4
f 193/2/4 194/2/4 196/2/4
f 196/2/4 194/2/4 197/2/4
f 196/2/4 197/2/4 199/2/4
f 197/2/4 198/2/4 199/2/4
f 199/2/4 198/2/4 200/2/4
f 201/1/4 202/1/4 203/1/4
f 203/1/4 202/1/4 204/1/4
f 205/1/4 206/1/4 207/1/4
f 207/1/4 206/1/4 208/1/4
f 209/1/4 210/1/4 211/1/4
f 211/1/4 210/1/4 212/1/4
f 213/2/4 214/2/4 215/2/4
f 215/2/4 214/2/4 216/2/4
f 217/1/4 218/1/4 219/1/4
f 219/1/4 218/1/4 220/1/4
f 221/1/4 222/1/4 223/1/4
f 223/1/4 222/1/4 224/1/4
f 225/1/4 226/1/4 227/1/4
f 227/1/4 226/1/4 228/1/4
f 229/1/4 230/1/4 231/1/4
f 231/1/4 230/1/4 232/1/4
f 233/1/4 234/1/4 235/1/4
f 235/1/4 234/1/4 236/1/4
f 237/2/4 238/2/4 239/2/4
f 239/2/4 238/2/4 240/2/4
f 241/2/4 242/2/4 243/2/4
f 243/2/4 242/2/4 244/2/4
f 247/2/5 246/2/5 245/2/5
f 248/2/5 246/2/5 247/2/5
f 249/2/5 246/2/5 248/2/5
f 250/2/5 246/2/5 249/2/5
f 251/1/5 248/1/5 247/1/5
f 252/2/5 249/2/5 248/2/5
f 252/1/5 248/1/5 251/1/5
f 253/1/5 250/1/5 249/1/5
f 253/2/5 249/2/5 252/2/5
f 254/1/5 250/1/5 253/1/5
f 255/2/5 253/2/5 252/2/5
f 256/2/5 253/2/5 255/2/5
f 261/2/5 258/2/5 257/2/5
f 262/2/5 258/2/5 261/2/5
f 265/2/5 260/2/5 259/2/5
f 266/2/5 260/2/5 265/2/5
f 267/2/5 264/2/5 263/2/5
f 268/2/5 264/2/5 267/2/5
f 269/1/5 266/1/5 265/1/5
f 270/1/5 268/1/5 267/1/5
f 271/1/5 269/1/5 265/1/5
f 272/1/5 269/1/5 271/1/5
f 273/1/5 268/1/5 270/1/5
f 274/1/5 268/1/5 273/1/5
f 283/2/5 276/2/5 275/2/5
f 284/2/5 276/2/5 283/2/5
f 285/2/5 278/2/5 277/2/5
f 286/2/5 278/2/5 285/2/5
f 287/2/5 280/2/5 279/2/5
f 288/2/5 280/2/5 287/2/5
f 289/2/5 282/2/5 281/2/5
f 290/2/5 282/2/5 289/2/5
f 291/1/5 284/1/5 283/1/5
f 292/1/5 290/1/5 289/1/5
f 293/1/5 291/1/5 283/1/5
f 294/1/5 291/1/5 293/1/5
f 295/1/5 290/1/5 292/1/5
f 296/1/5 290/1/5 295/1/5
f 301/2/5 298/2/5 297/2/5
f 302/2/5 298/2/5 301/2/5
f 303/2/5 300/2/5 299/2/5
f 304/2/5 300/2/5 303/2/5
f 305/1/5 302/1/5 301/1/5
f 306/1/5 304/1/5 303/1/5
f 307/1/5 305/1/5 301/1/5
f 308/1/5 305/1/5 307/1/5
f 309/1/5 304/1/5 306/1/5
f 310/1/5 304/1/5 309/1/5
f 315/2/5 312/2/5 311/2/5
f 316/2/5 314/2/5 313/2/5
f 317/2/5 315/2/5 311/2/5
f 318/2/5 314/2/5 316/2/5
f 319/2/5 317/2/5 311/2/5
f 320/2/5 317/2/5 319/2/5
f 321/2/5 314/2/5 318/2/5
f 322/2/5 314/2/5 321/2/5
f 323/2/6 324/2/6 327/2/6
f 327/2/6 324/2/6 328/2/6
f 325/2/6 326/2/6 329/2/6
f 329/2/6 326/2/6 330/2/6
f 327/1/6 328/1/6 331/1/6
f 331/1/6 328/1/6 332/1/6
f 329/1/6 330/1/6 333/1/6
f 333/1/6 330/1/6 334/1/6
f 335/2/6 336/2/6 339/2/6
f 339/2/6 336/2/6 340/2/6
f 337/2/6 338/2/6 343/2/6
f 343/2/6 338/2/6 344/2/6
f 339/1/6 340/1/6 345/1/6
f 345/1/6 340/1/6 346/1/6
f 341/2/6 342/2/6 347/2/6
f 347/2/6 342/2/6 348/2/6
f 343/1/6 344/1/6 349/1/6
f 349/1/6 344/1/6 350/1/6
f 351/2/6 352/2/6 355/2/6
f 355/2/6 352/2/6 356/2/6
f 353/2/6 354/2/6 359/2/6
f 359/2/6 354/2/6 360/2/6
f 355/2/6 356/2/6 361/2/6
f 361/2/6 356/2/6 362/2/6
f 357/2/6 358/2/6 363/2/6
f 363/2/6 358/2/6 364/2/6
f 359/1/6 360/1/6 365/1/6
f 365/1/6 360/1/6 366/1/6
f 363/1/6 364/1/6 367/1/6
f 367/1/6 364/1/6 368/1/6
f 369/2/6 370/2/6 377/2/6
f 377/2/6 370/2/6 378/2/6
f 371/2/6 372/2/6 379/2/6
f 379/2/6 372/2/6 380/2/6
f 373/2/6 374/2/6 381/2/6
f 381/2/6 374/2/6 382/2/6
f 375/2/6 376/2/6 383/2/6
f 383/2/6 376/2/6 384/2/6
f 377/1/6 378/1/6 385/1/6
f 385/1/6 378/1/6 386/1/6
f 383/1/6 384/1/6 387/1/6
f 387/1/6 384/1/6 388/1/6
f 389/2/6 390/2/6 393/2/6
f 393/2/6 390/2/6 394/2/6
f 391/2/6 392/2/6 395/2/6
f 395/2/6 392/2/6 396/2/6
