# MagicaVoxel @ Ephtracy

# group
o 

# material
mtllib banner_c_green.mtl
usemtl palette

# normals
vn -1 0 0
vn 1 0 0
vn 0 0 1
vn 0 0 -1
vn 0 -1 0
vn 0 1 0

# texcoords
vt 0.947266 0.5
vt 0.982422 0.5

# verts
v -0.3 0 0
v -0.3 0 -0.1
v -0.3 1 0
v -0.3 1 -0.1
v 0.1 0.2 0
v 0.1 0.2 -0.1
v 0.1 0.3 0
v 0.1 0.3 -0.1
v 0.2 0.1 0
v 0.2 0.1 -0.1
v 0.2 0.2 0
v 0.2 0.2 -0.1
v 0.3 0 0
v 0.3 0 -0.1
v 0.3 0.1 0
v 0.3 0.1 -0.1
v -0.2 0 0
v -0.2 0 -0.1
v -0.2 0.1 0
v -0.2 0.1 -0.1
v -0.1 0.1 0
v -0.1 0.1 -0.1
v -0.1 0.2 0
v -0.1 0.2 -0.1
v 0 0.2 0
v 0 0.2 -0.1
v 0 0.3 0
v 0 0.3 -0.1
v 0.4 0 0
v 0.4 0 -0.1
v 0.4 1 0
v 0.4 1 -0.1
v -0.3 0 0
v -0.3 1 0
v -0.2 0 0
v -0.2 0.1 0
v -0.2 0.3 0
v -0.2 1 0
v -0.1 0.1 0
v -0.1 0.2 0
v -0.1 0.3 0
v -0.1 0.4 0
v -0.1 0.5 0
v -0.1 1 0
v 0 0.2 0
v 0 0.3 0
v 0 0.4 0
v 0 0.5 0
v 0 0.6 0
v 0.1 0.2 0
v 0.1 0.3 0
v 0.1 0.4 0
v 0.1 0.5 0
v 0.1 0.6 0
v 0.2 0.1 0
v 0.2 0.2 0
v 0.2 0.3 0
v 0.2 0.4 0
v 0.2 0.5 0
v 0.2 1 0
v 0.3 0 0
v 0.3 0.1 0
v 0.3 0.3 0
v 0.3 1 0
v 0.4 0 0
v 0.4 1 0
v -0.3 0 -0.1
v -0.3 1 -0.1
v -0.2 0 -0.1
v -0.2 0.1 -0.1
v -0.2 0.3 -0.1
v -0.2 1 -0.1
v -0.1 0.1 -0.1
v -0.1 0.2 -0.1
v -0.1 0.3 -0.1
v -0.1 0.4 -0.1
v -0.1 0.5 -0.1
v -0.1 1 -0.1
v 0 0.2 -0.1
v 0 0.3 -0.1
v 0 0.4 -0.1
v 0 0.5 -0.1
v 0 0.6 -0.1
v 0.1 0.2 -0.1
v 0.1 0.3 -0.1
v 0.1 0.4 -0.1
v 0.1 0.5 -0.1
v 0.1 0.6 -0.1
v 0.2 0.1 -0.1
v 0.2 0.2 -0.1
v 0.2 0.3 -0.1
v 0.2 0.4 -0.1
v 0.2 0.5 -0.1
v 0.2 1 -0.1
v 0.3 0 -0.1
v 0.3 0.1 -0.1
v 0.3 0.3 -0.1
v 0.3 1 -0.1
v 0.4 0 -0.1
v 0.4 1 -0.1
v -0.3 0 0
v -0.2 0 0
v 0.3 0 0
v 0.4 0 0
v -0.3 0 -0.1
v -0.2 0 -0.1
v 0.3 0 -0.1
v 0.4 0 -0.1
v -0.2 0.1 0
v -0.1 0.1 0
v 0.2 0.1 0
v 0.3 0.1 0
v -0.2 0.1 -0.1
v -0.1 0.1 -0.1
v 0.2 0.1 -0.1
v 0.3 0.1 -0.1
v -0.1 0.2 0
v 0 0.2 0
v 0.1 0.2 0
v 0.2 0.2 0
v -0.1 0.2 -0.1
v 0 0.2 -0.1
v 0.1 0.2 -0.1
v 0.2 0.2 -0.1
v 0 0.3 0
v 0.1 0.3 0
v 0 0.3 -0.1
v 0.1 0.3 -0.1
v -0.3 1 0
v -0.2 1 0
v -0.1 1 0
v 0.2 1 0
v 0.3 1 0
v 0.4 1 0
v -0.3 1 -0.1
v -0.2 1 -0.1
v -0.1 1 -0.1
v 0.2 1 -0.1
v 0.3 1 -0.1
v 0.4 1 -0.1

# faces
f 3/2/1 2/2/1 1/2/1
f 4/2/1 2/2/1 3/2/1
f 7/2/1 6/2/1 5/2/1
f 8/2/1 6/2/1 7/2/1
f 11/2/1 10/2/1 9/2/1
f 12/2/1 10/2/1 11/2/1
f 15/2/1 14/2/1 13/2/1
f 16/2/1 14/2/1 15/2/1
f 17/2/2 18/2/2 19/2/2
f 19/2/2 18/2/2 20/2/2
f 21/2/2 22/2/2 23/2/2
f 23/2/2 22/2/2 24/2/2
f 25/2/2 26/2/2 27/2/2
f 27/2/2 26/2/2 28/2/2
f 29/2/2 30/2/2 31/2/2
f 31/2/2 30/2/2 32/2/2
f 35/2/3 34/2/3 33/2/3
f 36/2/3 34/2/3 35/2/3
f 37/2/3 34/2/3 36/2/3
f 38/2/3 34/2/3 37/2/3
f 39/2/3 37/2/3 36/2/3
f 40/2/3 37/2/3 39/2/3
f 41/1/3 38/1/3 37/1/3
f 41/2/3 37/2/3 40/2/3
f 42/1/3 38/1/3 41/1/3
f 43/1/3 38/1/3 42/1/3
f 44/1/3 38/1/3 43/1/3
f 45/2/3 41/2/3 40/2/3
f 45/2/3 42/2/3 41/2/3
f 46/2/3 42/2/3 45/2/3
f 47/1/3 43/1/3 42/1/3
f 47/2/3 42/2/3 46/2/3
f 48/2/3 44/2/3 43/2/3
f 48/1/3 43/1/3 47/1/3
f 49/2/3 44/2/3 48/2/3
f 51/2/3 47/2/3 46/2/3
f 51/2/3 48/2/3 47/2/3
f 52/2/3 48/2/3 51/2/3
f 53/1/3 49/1/3 48/1/3
f 53/2/3 48/2/3 52/2/3
f 54/2/3 44/2/3 49/2/3
f 54/1/3 49/1/3 53/1/3
f 56/2/3 52/2/3 51/2/3
f 56/2/3 51/2/3 50/2/3
f 57/2/3 52/2/3 56/2/3
f 58/1/3 53/1/3 52/1/3
f 58/2/3 52/2/3 57/2/3
f 59/2/3 54/2/3 53/2/3
f 59/1/3 53/1/3 58/1/3
f 60/2/3 44/2/3 54/2/3
f 60/2/3 54/2/3 59/2/3
f 62/2/3 57/2/3 56/2/3
f 62/2/3 56/2/3 55/2/3
f 63/1/3 59/1/3 58/1/3
f 63/1/3 58/1/3 57/1/3
f 63/2/3 57/2/3 62/2/3
f 63/1/3 60/1/3 59/1/3
f 64/1/3 60/1/3 63/1/3
f 65/2/3 62/2/3 61/2/3
f 65/2/3 63/2/3 62/2/3
f 65/2/3 64/2/3 63/2/3
f 66/2/3 64/2/3 65/2/3
f 67/2/4 68/2/4 69/2/4
f 69/2/4 68/2/4 70/2/4
f 70/2/4 68/2/4 71/2/4
f 71/2/4 68/2/4 72/2/4
f 70/2/4 71/2/4 73/2/4
f 73/2/4 71/2/4 74/2/4
f 71/1/4 72/1/4 75/1/4
f 74/2/4 71/2/4 75/2/4
f 75/1/4 72/1/4 76/1/4
f 76/1/4 72/1/4 77/1/4
f 77/1/4 72/1/4 78/1/4
f 74/2/4 75/2/4 79/2/4
f 75/2/4 76/2/4 79/2/4
f 79/2/4 76/2/4 80/2/4
f 76/1/4 77/1/4 81/1/4
f 80/2/4 76/2/4 81/2/4
f 77/2/4 78/2/4 82/2/4
f 81/1/4 77/1/4 82/1/4
f 82/2/4 78/2/4 83/2/4
f 80/2/4 81/2/4 85/2/4
f 81/2/4 82/2/4 85/2/4
f 85/2/4 82/2/4 86/2/4
f 82/1/4 83/1/4 87/1/4
f 86/2/4 82/2/4 87/2/4
f 83/2/4 78/2/4 88/2/4
f 87/1/4 83/1/4 88/1/4
f 85/2/4 86/2/4 90/2/4
f 84/2/4 85/2/4 90/2/4
f 90/2/4 86/2/4 91/2/4
f 86/1/4 87/1/4 92/1/4
f 91/2/4 86/2/4 92/2/4
f 87/2/4 88/2/4 93/2/4
f 92/1/4 87/1/4 93/1/4
f 88/2/4 78/2/4 94/2/4
f 93/2/4 88/2/4 94/2/4
f 90/2/4 91/2/4 96/2/4
f 89/2/4 90/2/4 96/2/4
f 92/1/4 93/1/4 97/1/4
f 91/1/4 92/1/4 97/1/4
f 96/2/4 91/2/4 97/2/4
f 93/1/4 94/1/4 97/1/4
f 97/1/4 94/1/4 98/1/4
f 95/2/4 96/2/4 99/2/4
f 96/2/4 97/2/4 99/2/4
f 97/2/4 98/2/4 99/2/4
f 99/2/4 98/2/4 100/2/4
f 105/2/5 102/2/5 101/2/5
f 106/2/5 102/2/5 105/2/5
f 107/2/5 104/2/5 103/2/5
f 108/2/5 104/2/5 107/2/5
f 113/2/5 110/2/5 109/2/5
f 114/2/5 110/2/5 113/2/5
f 115/2/5 112/2/5 111/2/5
f 116/2/5 112/2/5 115/2/5
f 121/2/5 118/2/5 117/2/5
f 122/2/5 118/2/5 121/2/5
f 123/2/5 120/2/5 119/2/5
f 124/2/5 120/2/5 123/2/5
f 127/2/5 126/2/5 125/2/5
f 128/2/5 126/2/5 127/2/5
f 129/2/6 130/2/6 135/2/6
f 130/1/6 131/1/6 136/1/6
f 135/2/6 130/2/6 136/2/6
f 131/2/6 132/2/6 137/2/6
f 136/1/6 131/1/6 137/1/6
f 132/1/6 133/1/6 138/1/6
f 137/2/6 132/2/6 138/2/6
f 133/2/6 134/2/6 139/2/6
f 138/1/6 133/1/6 139/1/6
f 139/2/6 134/2/6 140/2/6
