# MagicaVoxel @ Ephtracy

# group
o 

# material
mtllib banner_c_yellow.mtl
usemtl palette

# normals
vn -1 0 0
vn 1 0 0
vn 0 0 1
vn 0 0 -1
vn 0 -1 0
vn 0 1 0

# texcoords
vt 0.912109 0.5
vt 0.947266 0.5

# verts
v -0.3 0 0
v -0.3 0 -0.1
v -0.3 1 0
v -0.3 1 -0.1
v 0.1 0.2 0
v 0.1 0.2 -0.1
v 0.1 0.3 0
v 0.1 0.3 -0.1
v 0.2 0.1 0
v 0.2 0.1 -0.1
v 0.2 0.2 0
v 0.2 0.2 -0.1
v 0.3 0 0
v 0.3 0 -0.1
v 0.3 0.1 0
v 0.3 0.1 -0.1
v -0.2 0 0
v -0.2 0 -0.1
v -0.2 0.1 0
v -0.2 0.1 -0.1
v -0.1 0.1 0
v -0.1 0.1 -0.1
v -0.1 0.2 0
v -0.1 0.2 -0.1
v 0 0.2 0
v 0 0.2 -0.1
v 0 0.3 0
v 0 0.3 -0.1
v 0.4 0 0
v 0.4 0 -0.1
v 0.4 1 0
v 0.4 1 -0.1
v -0.3 0 0
v -0.3 1 0
v -0.2 0 0
v -0.2 0.1 0
v -0.2 0.3 0
v -0.2 1 0
v -0.1 0.1 0
v -0.1 0.2 0
v -0.1 0.3 0
v -0.1 0.4 0
v -0.1 0.5 0
v -0.1 1 0
v 0 0.2 0
v 0 0.3 0
v 0 0.4 0
v 0 0.5 0
v 0 0.6 0
v 0.1 0.2 0
v 0.1 0.3 0
v 0.1 0.4 0
v 0.1 0.5 0
v 0.1 0.6 0
v 0.2 0.1 0
v 0.2 0.2 0
v 0.2 0.3 0
v 0.2 0.4 0
v 0.2 0.5 0
v 0.2 1 0
v 0.3 0 0
v 0.3 0.1 0
v 0.3 0.3 0
v 0.3 1 0
v 0.4 0 0
v 0.4 1 0
v -0.3 0 -0.1
v -0.3 1 -0.1
v -0.2 0 -0.1
v -0.2 0.1 -0.1
v -0.2 0.3 -0.1
v -0.2 1 -0.1
v -0.1 0.1 -0.1
v -0.1 0.2 -0.1
v -0.1 0.3 -0.1
v -0.1 0.4 -0.1
v -0.1 0.5 -0.1
v -0.1 1 -0.1
v 0 0.2 -0.1
v 0 0.3 -0.1
v 0 0.4 -0.1
v 0 0.5 -0.1
v 0 0.6 -0.1
v 0.1 0.2 -0.1
v 0.1 0.3 -0.1
v 0.1 0.4 -0.1
v 0.1 0.5 -0.1
v 0.1 0.6 -0.1
v 0.2 0.1 -0.1
v 0.2 0.2 -0.1
v 0.2 0.3 -0.1
v 0.2 0.4 -0.1
v 0.2 0.5 -0.1
v 0.2 1 -0.1
v 0.3 0 -0.1
v 0.3 0.1 -0.1
v 0.3 0.3 -0.1
v 0.3 1 -0.1
v 0.4 0 -0.1
v 0.4 1 -0.1
v -0.3 0 0
v -0.2 0 0
v 0.3 0 0
v 0.4 0 0
v -0.3 0 -0.1
v -0.2 0 -0.1
v 0.3 0 -0.1
v 0.4 0 -0.1
v -0.2 0.1 0
v -0.1 0.1 0
v 0.2 0.1 0
v 0.3 0.1 0
v -0.2 0.1 -0.1
v -0.1 0.1 -0.1
v 0.2 0.1 -0.1
v 0.3 0.1 -0.1
v -0.1 0.2 0
v 0 0.2 0
v 0.1 0.2 0
v 0.2 0.2 0
v -0.1 0.2 -0.1
v 0 0.2 -0.1
v 0.1 0.2 -0.1
v 0.2 0.2 -0.1
v 0 0.3 0
v 0.1 0.3 0
v 0 0.3 -0.1
v 0.1 0.3 -0.1
v -0.3 1 0
v -0.2 1 0
v -0.1 1 0
v 0.2 1 0
v 0.3 1 0
v 0.4 1 0
v -0.3 1 -0.1
v -0.2 1 -0.1
v -0.1 1 -0.1
v 0.2 1 -0.1
v 0.3 1 -0.1
v 0.4 1 -0.1

# faces
f 3/1/1 2/1/1 1/1/1
f 4/1/1 2/1/1 3/1/1
f 7/1/1 6/1/1 5/1/1
f 8/1/1 6/1/1 7/1/1
f 11/1/1 10/1/1 9/1/1
f 12/1/1 10/1/1 11/1/1
f 15/1/1 14/1/1 13/1/1
f 16/1/1 14/1/1 15/1/1
f 17/1/2 18/1/2 19/1/2
f 19/1/2 18/1/2 20/1/2
f 21/1/2 22/1/2 23/1/2
f 23/1/2 22/1/2 24/1/2
f 25/1/2 26/1/2 27/1/2
f 27/1/2 26/1/2 28/1/2
f 29/1/2 30/1/2 31/1/2
f 31/1/2 30/1/2 32/1/2
f 35/1/3 34/1/3 33/1/3
f 36/1/3 34/1/3 35/1/3
f 37/1/3 34/1/3 36/1/3
f 38/1/3 34/1/3 37/1/3
f 39/1/3 37/1/3 36/1/3
f 40/1/3 37/1/3 39/1/3
f 41/2/3 38/2/3 37/2/3
f 41/1/3 37/1/3 40/1/3
f 42/2/3 38/2/3 41/2/3
f 43/2/3 38/2/3 42/2/3
f 44/2/3 38/2/3 43/2/3
f 45/1/3 41/1/3 40/1/3
f 45/1/3 42/1/3 41/1/3
f 46/1/3 42/1/3 45/1/3
f 47/2/3 43/2/3 42/2/3
f 47/1/3 42/1/3 46/1/3
f 48/1/3 44/1/3 43/1/3
f 48/2/3 43/2/3 47/2/3
f 49/1/3 44/1/3 48/1/3
f 51/1/3 47/1/3 46/1/3
f 51/1/3 48/1/3 47/1/3
f 52/1/3 48/1/3 51/1/3
f 53/2/3 49/2/3 48/2/3
f 53/1/3 48/1/3 52/1/3
f 54/1/3 44/1/3 49/1/3
f 54/2/3 49/2/3 53/2/3
f 56/1/3 52/1/3 51/1/3
f 56/1/3 51/1/3 50/1/3
f 57/1/3 52/1/3 56/1/3
f 58/2/3 53/2/3 52/2/3
f 58/1/3 52/1/3 57/1/3
f 59/1/3 54/1/3 53/1/3
f 59/2/3 53/2/3 58/2/3
f 60/1/3 44/1/3 54/1/3
f 60/1/3 54/1/3 59/1/3
f 62/1/3 57/1/3 56/1/3
f 62/1/3 56/1/3 55/1/3
f 63/2/3 59/2/3 58/2/3
f 63/2/3 58/2/3 57/2/3
f 63/1/3 57/1/3 62/1/3
f 63/2/3 60/2/3 59/2/3
f 64/2/3 60/2/3 63/2/3
f 65/1/3 62/1/3 61/1/3
f 65/1/3 63/1/3 62/1/3
f 65/1/3 64/1/3 63/1/3
f 66/1/3 64/1/3 65/1/3
f 67/1/4 68/1/4 69/1/4
f 69/1/4 68/1/4 70/1/4
f 70/1/4 68/1/4 71/1/4
f 71/1/4 68/1/4 72/1/4
f 70/1/4 71/1/4 73/1/4
f 73/1/4 71/1/4 74/1/4
f 71/2/4 72/2/4 75/2/4
f 74/1/4 71/1/4 75/1/4
f 75/2/4 72/2/4 76/2/4
f 76/2/4 72/2/4 77/2/4
f 77/2/4 72/2/4 78/2/4
f 74/1/4 75/1/4 79/1/4
f 75/1/4 76/1/4 79/1/4
f 79/1/4 76/1/4 80/1/4
f 76/2/4 77/2/4 81/2/4
f 80/1/4 76/1/4 81/1/4
f 77/1/4 78/1/4 82/1/4
f 81/2/4 77/2/4 82/2/4
f 82/1/4 78/1/4 83/1/4
f 80/1/4 81/1/4 85/1/4
f 81/1/4 82/1/4 85/1/4
f 85/1/4 82/1/4 86/1/4
f 82/2/4 83/2/4 87/2/4
f 86/1/4 82/1/4 87/1/4
f 83/1/4 78/1/4 88/1/4
f 87/2/4 83/2/4 88/2/4
f 85/1/4 86/1/4 90/1/4
f 84/1/4 85/1/4 90/1/4
f 90/1/4 86/1/4 91/1/4
f 86/2/4 87/2/4 92/2/4
f 91/1/4 86/1/4 92/1/4
f 87/1/4 88/1/4 93/1/4
f 92/2/4 87/2/4 93/2/4
f 88/1/4 78/1/4 94/1/4
f 93/1/4 88/1/4 94/1/4
f 90/1/4 91/1/4 96/1/4
f 89/1/4 90/1/4 96/1/4
f 92/2/4 93/2/4 97/2/4
f 91/2/4 92/2/4 97/2/4
f 96/1/4 91/1/4 97/1/4
f 93/2/4 94/2/4 97/2/4
f 97/2/4 94/2/4 98/2/4
f 95/1/4 96/1/4 99/1/4
f 96/1/4 97/1/4 99/1/4
f 97/1/4 98/1/4 99/1/4
f 99/1/4 98/1/4 100/1/4
f 105/1/5 102/1/5 101/1/5
f 106/1/5 102/1/5 105/1/5
f 107/1/5 104/1/5 103/1/5
f 108/1/5 104/1/5 107/1/5
f 113/1/5 110/1/5 109/1/5
f 114/1/5 110/1/5 113/1/5
f 115/1/5 112/1/5 111/1/5
f 116/1/5 112/1/5 115/1/5
f 121/1/5 118/1/5 117/1/5
f 122/1/5 118/1/5 121/1/5
f 123/1/5 120/1/5 119/1/5
f 124/1/5 120/1/5 123/1/5
f 127/1/5 126/1/5 125/1/5
f 128/1/5 126/1/5 127/1/5
f 129/1/6 130/1/6 135/1/6
f 130/2/6 131/2/6 136/2/6
f 135/1/6 130/1/6 136/1/6
f 131/1/6 132/1/6 137/1/6
f 136/2/6 131/2/6 137/2/6
f 132/2/6 133/2/6 138/2/6
f 137/1/6 132/1/6 138/1/6
f 133/1/6 134/1/6 139/1/6
f 138/2/6 133/2/6 139/2/6
f 139/1/6 134/1/6 140/1/6
