# MagicaVoxel @ Ephtracy

# group
o 

# material
mtllib large_bookcase_c_yellow.mtl
usemtl palette

# normals
vn -1 0 0
vn 1 0 0
vn 0 0 1
vn 0 0 -1
vn 0 -1 0
vn 0 1 0

# texcoords
vt 0.755859 0.5
vt 0.787109 0.5
vt 0.912109 0.5

# verts
v -0.7 0 0.3
v -0.7 0 0.1
v -0.7 0 -0.2
v -0.7 0 -0.4
v -0.7 0.1 0.1
v -0.7 0.1 -0.2
v -0.7 1.4 0.3
v -0.7 1.4 -0.4
v 0.5 0 0.3
v 0.5 0 0.1
v 0.5 0 -0.2
v 0.5 0 -0.4
v 0.5 0.1 0.3
v 0.5 0.1 0.1
v 0.5 0.1 -0.2
v 0.5 0.1 -0.4
v 0.6 0.2 0.3
v 0.6 0.2 0.2
v 0.6 0.5 0.3
v 0.6 0.5 0.2
v 0.6 0.6 0.3
v 0.6 0.6 0.2
v 0.6 0.9 0.3
v 0.6 0.9 0.2
v 0.6 1 0.3
v 0.6 1 0.2
v 0.6 1.3 0.3
v 0.6 1.3 0.2
v -0.6 0.2 0.3
v -0.6 0.2 0.2
v -0.6 0.5 0.3
v -0.6 0.5 0.2
v -0.6 0.6 0.3
v -0.6 0.6 0.2
v -0.6 0.9 0.3
v -0.6 0.9 0.2
v -0.6 1 0.3
v -0.6 1 0.2
v -0.6 1.3 0.3
v -0.6 1.3 0.2
v -0.5 0 0.3
v -0.5 0 0.1
v -0.5 0 -0.2
v -0.5 0 -0.4
v -0.5 0.1 0.3
v -0.5 0.1 0.1
v -0.5 0.1 -0.2
v -0.5 0.1 -0.4
v 0.7 0 0.3
v 0.7 0 0.1
v 0.7 0 -0.2
v 0.7 0 -0.4
v 0.7 0.1 0.1
v 0.7 0.1 -0.2
v 0.7 1.4 0.3
v 0.7 1.4 -0.4
v -0.7 0 0.3
v -0.7 1.4 0.3
v -0.6 0.2 0.3
v -0.6 0.5 0.3
v -0.6 0.6 0.3
v -0.6 0.9 0.3
v -0.6 1 0.3
v -0.6 1.3 0.3
v -0.5 0 0.3
v -0.5 0.1 0.3
v 0.5 0 0.3
v 0.5 0.1 0.3
v 0.6 0.2 0.3
v 0.6 0.5 0.3
v 0.6 0.6 0.3
v 0.6 0.9 0.3
v 0.6 1 0.3
v 0.6 1.3 0.3
v 0.7 0 0.3
v 0.7 1.4 0.3
v -0.6 0.2 0.2
v -0.6 0.5 0.2
v -0.6 0.6 0.2
v -0.6 0.9 0.2
v -0.6 1 0.2
v -0.6 1.3 0.2
v -0.5 0.2 0.2
v -0.5 0.5 0.2
v -0.5 0.6 0.2
v -0.5 0.9 0.2
v -0.5 1 0.2
v -0.5 1.3 0.2
v -0.4 0.2 0.2
v -0.4 0.5 0.2
v -0.4 0.6 0.2
v -0.4 0.9 0.2
v -0.4 1 0.2
v -0.4 1.3 0.2
v -0.3 0.2 0.2
v -0.3 0.5 0.2
v -0.3 0.6 0.2
v -0.3 0.9 0.2
v -0.3 1 0.2
v -0.3 1.3 0.2
v -0.2 0.2 0.2
v -0.2 0.5 0.2
v -0.2 0.6 0.2
v -0.2 0.9 0.2
v -0.2 1 0.2
v -0.2 1.3 0.2
v -0.1 0.2 0.2
v -0.1 0.5 0.2
v -0.1 0.6 0.2
v -0.1 0.9 0.2
v -0.1 1 0.2
v -0.1 1.3 0.2
v 0 0.2 0.2
v 0 0.5 0.2
v 0 0.6 0.2
v 0 0.9 0.2
v 0 1 0.2
v 0 1.3 0.2
v 0.1 0.2 0.2
v 0.1 0.5 0.2
v 0.1 0.6 0.2
v 0.1 0.9 0.2
v 0.1 1 0.2
v 0.1 1.3 0.2
v 0.2 0.2 0.2
v 0.2 0.5 0.2
v 0.2 0.6 0.2
v 0.2 0.9 0.2
v 0.2 1 0.2
v 0.2 1.3 0.2
v 0.3 0.2 0.2
v 0.3 0.5 0.2
v 0.3 0.6 0.2
v 0.3 0.9 0.2
v 0.3 1 0.2
v 0.3 1.3 0.2
v 0.4 0.2 0.2
v 0.4 0.5 0.2
v 0.4 0.6 0.2
v 0.4 0.9 0.2
v 0.4 1 0.2
v 0.4 1.3 0.2
v 0.5 0.2 0.2
v 0.5 0.5 0.2
v 0.5 0.6 0.2
v 0.5 0.9 0.2
v 0.5 1 0.2
v 0.5 1.3 0.2
v 0.6 0.2 0.2
v 0.6 0.5 0.2
v 0.6 0.6 0.2
v 0.6 0.9 0.2
v 0.6 1 0.2
v 0.6 1.3 0.2
v -0.7 0 -0.2
v -0.7 0.1 -0.2
v -0.5 0 -0.2
v -0.5 0.1 -0.2
v 0.5 0 -0.2
v 0.5 0.1 -0.2
v 0.7 0 -0.2
v 0.7 0.1 -0.2
v -0.7 0 0.1
v -0.7 0.1 0.1
v -0.5 0 0.1
v -0.5 0.1 0.1
v 0.5 0 0.1
v 0.5 0.1 0.1
v 0.7 0 0.1
v 0.7 0.1 0.1
v -0.7 0 -0.4
v -0.7 1.4 -0.4
v -0.5 0 -0.4
v -0.5 0.1 -0.4
v 0.5 0 -0.4
v 0.5 0.1 -0.4
v 0.7 0 -0.4
v 0.7 1.4 -0.4
v -0.7 0 0.3
v -0.5 0 0.3
v 0.5 0 0.3
v 0.7 0 0.3
v -0.7 0 0.1
v -0.5 0 0.1
v 0.5 0 0.1
v 0.7 0 0.1
v -0.7 0 -0.2
v -0.5 0 -0.2
v 0.5 0 -0.2
v 0.7 0 -0.2
v -0.7 0 -0.4
v -0.5 0 -0.4
v 0.5 0 -0.4
v 0.7 0 -0.4
v -0.5 0.1 0.3
v 0.5 0.1 0.3
v -0.7 0.1 0.1
v -0.5 0.1 0.1
v 0.5 0.1 0.1
v 0.7 0.1 0.1
v -0.7 0.1 -0.2
v -0.5 0.1 -0.2
v 0.5 0.1 -0.2
v 0.7 0.1 -0.2
v -0.5 0.1 -0.4
v 0.5 0.1 -0.4
v -0.6 0.5 0.3
v 0.6 0.5 0.3
v -0.6 0.5 0.2
v -0.5 0.5 0.2
v -0.4 0.5 0.2
v -0.3 0.5 0.2
v -0.2 0.5 0.2
v -0.1 0.5 0.2
v 0 0.5 0.2
v 0.1 0.5 0.2
v 0.2 0.5 0.2
v 0.3 0.5 0.2
v 0.4 0.5 0.2
v 0.5 0.5 0.2
v 0.6 0.5 0.2
v -0.6 0.9 0.3
v 0.6 0.9 0.3
v -0.6 0.9 0.2
v -0.5 0.9 0.2
v -0.4 0.9 0.2
v -0.3 0.9 0.2
v -0.2 0.9 0.2
v -0.1 0.9 0.2
v 0 0.9 0.2
v 0.1 0.9 0.2
v 0.2 0.9 0.2
v 0.3 0.9 0.2
v 0.4 0.9 0.2
v 0.5 0.9 0.2
v 0.6 0.9 0.2
v -0.6 1.3 0.3
v 0.6 1.3 0.3
v -0.6 1.3 0.2
v -0.5 1.3 0.2
v -0.4 1.3 0.2
v -0.3 1.3 0.2
v -0.2 1.3 0.2
v -0.1 1.3 0.2
v 0 1.3 0.2
v 0.1 1.3 0.2
v 0.2 1.3 0.2
v 0.3 1.3 0.2
v 0.4 1.3 0.2
v 0.5 1.3 0.2
v 0.6 1.3 0.2
v -0.6 0.2 0.3
v 0.6 0.2 0.3
v -0.6 0.2 0.2
v -0.5 0.2 0.2
v -0.4 0.2 0.2
v -0.3 0.2 0.2
v -0.2 0.2 0.2
v -0.1 0.2 0.2
v 0 0.2 0.2
v 0.1 0.2 0.2
v 0.2 0.2 0.2
v 0.3 0.2 0.2
v 0.4 0.2 0.2
v 0.5 0.2 0.2
v 0.6 0.2 0.2
v -0.6 0.6 0.3
v 0.6 0.6 0.3
v -0.6 0.6 0.2
v -0.5 0.6 0.2
v -0.4 0.6 0.2
v -0.3 0.6 0.2
v -0.2 0.6 0.2
v -0.1 0.6 0.2
v 0 0.6 0.2
v 0.1 0.6 0.2
v 0.2 0.6 0.2
v 0.3 0.6 0.2
v 0.4 0.6 0.2
v 0.5 0.6 0.2
v 0.6 0.6 0.2
v -0.6 1 0.3
v 0.6 1 0.3
v -0.6 1 0.2
v -0.5 1 0.2
v -0.4 1 0.2
v -0.3 1 0.2
v -0.2 1 0.2
v -0.1 1 0.2
v 0 1 0.2
v 0.1 1 0.2
v 0.2 1 0.2
v 0.3 1 0.2
v 0.4 1 0.2
v 0.5 1 0.2
v 0.6 1 0.2
v -0.7 1.4 0.3
v 0.7 1.4 0.3
v -0.7 1.4 -0.4
v 0.7 1.4 -0.4

# faces
f 5/2/1 2/2/1 1/2/1
f 6/2/1 4/2/1 3/2/1
f 7/2/1 5/2/1 1/2/1
f 7/2/1 6/2/1 5/2/1
f 8/2/1 4/2/1 6/2/1
f 8/2/1 6/2/1 7/2/1
f 13/2/1 10/2/1 9/2/1
f 14/2/1 10/2/1 13/2/1
f 15/2/1 12/2/1 11/2/1
f 16/2/1 12/2/1 15/2/1
f 19/2/1 18/2/1 17/2/1
f 20/2/1 18/2/1 19/2/1
f 23/2/1 22/2/1 21/2/1
f 24/2/1 22/2/1 23/2/1
f 27/2/1 26/2/1 25/2/1
f 28/2/1 26/2/1 27/2/1
f 29/2/2 30/2/2 31/2/2
f 31/2/2 30/2/2 32/2/2
f 33/2/2 34/2/2 35/2/2
f 35/2/2 34/2/2 36/2/2
f 37/2/2 38/2/2 39/2/2
f 39/2/2 38/2/2 40/2/2
f 41/2/2 42/2/2 45/2/2
f 45/2/2 42/2/2 46/2/2
f 43/2/2 44/2/2 47/2/2
f 47/2/2 44/2/2 48/2/2
f 49/2/2 50/2/2 53/2/2
f 51/2/2 52/2/2 54/2/2
f 49/2/2 53/2/2 55/2/2
f 53/2/2 54/2/2 55/2/2
f 54/2/2 52/2/2 56/2/2
f 55/2/2 54/2/2 56/2/2
f 59/2/3 58/2/3 57/2/3
f 60/2/3 58/2/3 59/2/3
f 61/2/3 58/2/3 60/2/3
f 62/2/3 58/2/3 61/2/3
f 63/2/3 58/2/3 62/2/3
f 64/2/3 58/2/3 63/2/3
f 65/2/3 59/2/3 57/2/3
f 66/2/3 59/2/3 65/2/3
f 68/2/3 59/2/3 66/2/3
f 69/2/3 59/2/3 68/2/3
f 69/2/3 68/2/3 67/2/3
f 70/2/3 61/2/3 60/2/3
f 71/2/3 61/2/3 70/2/3
f 72/2/3 63/2/3 62/2/3
f 73/2/3 63/2/3 72/2/3
f 74/2/3 58/2/3 64/2/3
f 75/2/3 73/2/3 72/2/3
f 75/2/3 74/2/3 73/2/3
f 75/2/3 71/2/3 70/2/3
f 75/2/3 69/2/3 67/2/3
f 75/2/3 72/2/3 71/2/3
f 75/2/3 70/2/3 69/2/3
f 76/2/3 58/2/3 74/2/3
f 76/2/3 74/2/3 75/2/3
f 83/1/3 78/1/3 77/1/3
f 84/1/3 78/1/3 83/1/3
f 85/1/3 80/1/3 79/1/3
f 86/1/3 80/1/3 85/1/3
f 87/1/3 82/1/3 81/1/3
f 88/1/3 82/1/3 87/1/3
f 89/3/3 84/3/3 83/3/3
f 90/3/3 84/3/3 89/3/3
f 91/3/3 86/3/3 85/3/3
f 92/3/3 86/3/3 91/3/3
f 93/3/3 88/3/3 87/3/3
f 94/3/3 88/3/3 93/3/3
f 95/1/3 90/1/3 89/1/3
f 96/1/3 90/1/3 95/1/3
f 97/1/3 92/1/3 91/1/3
f 98/1/3 92/1/3 97/1/3
f 99/1/3 94/1/3 93/1/3
f 100/1/3 94/1/3 99/1/3
f 101/3/3 96/3/3 95/3/3
f 102/3/3 96/3/3 101/3/3
f 103/3/3 98/3/3 97/3/3
f 104/3/3 98/3/3 103/3/3
f 105/3/3 100/3/3 99/3/3
f 106/3/3 100/3/3 105/3/3
f 107/1/3 102/1/3 101/1/3
f 108/1/3 102/1/3 107/1/3
f 109/1/3 104/1/3 103/1/3
f 110/1/3 104/1/3 109/1/3
f 111/1/3 106/1/3 105/1/3
f 112/1/3 106/1/3 111/1/3
f 113/3/3 108/3/3 107/3/3
f 114/3/3 108/3/3 113/3/3
f 115/3/3 110/3/3 109/3/3
f 116/3/3 110/3/3 115/3/3
f 117/3/3 112/3/3 111/3/3
f 118/3/3 112/3/3 117/3/3
f 119/1/3 114/1/3 113/1/3
f 120/1/3 114/1/3 119/1/3
f 121/1/3 116/1/3 115/1/3
f 122/1/3 116/1/3 121/1/3
f 123/1/3 118/1/3 117/1/3
f 124/1/3 118/1/3 123/1/3
f 125/3/3 120/3/3 119/3/3
f 126/3/3 120/3/3 125/3/3
f 127/3/3 122/3/3 121/3/3
f 128/3/3 122/3/3 127/3/3
f 129/3/3 124/3/3 123/3/3
f 130/3/3 124/3/3 129/3/3
f 131/1/3 126/1/3 125/1/3
f 132/1/3 126/1/3 131/1/3
f 133/1/3 128/1/3 127/1/3
f 134/1/3 128/1/3 133/1/3
f 135/1/3 130/1/3 129/1/3
f 136/1/3 130/1/3 135/1/3
f 137/3/3 132/3/3 131/3/3
f 138/3/3 132/3/3 137/3/3
f 139/3/3 134/3/3 133/3/3
f 140/3/3 134/3/3 139/3/3
f 141/3/3 136/3/3 135/3/3
f 142/3/3 136/3/3 141/3/3
f 143/1/3 138/1/3 137/1/3
f 144/1/3 138/1/3 143/1/3
f 145/1/3 140/1/3 139/1/3
f 146/1/3 140/1/3 145/1/3
f 147/1/3 142/1/3 141/1/3
f 148/1/3 142/1/3 147/1/3
f 149/3/3 144/3/3 143/3/3
f 150/3/3 144/3/3 149/3/3
f 151/3/3 146/3/3 145/3/3
f 152/3/3 146/3/3 151/3/3
f 153/3/3 148/3/3 147/3/3
f 154/3/3 148/3/3 153/3/3
f 157/2/3 156/2/3 155/2/3
f 158/2/3 156/2/3 157/2/3
f 161/2/3 160/2/3 159/2/3
f 162/2/3 160/2/3 161/2/3
f 163/2/4 164/2/4 165/2/4
f 165/2/4 164/2/4 166/2/4
f 167/2/4 168/2/4 169/2/4
f 169/2/4 168/2/4 170/2/4
f 171/2/4 172/2/4 173/2/4
f 173/2/4 172/2/4 174/2/4
f 174/2/4 172/2/4 176/2/4
f 175/2/4 176/2/4 177/2/4
f 176/2/4 172/2/4 178/2/4
f 177/2/4 176/2/4 178/2/4
f 183/2/5 180/2/5 179/2/5
f 184/2/5 180/2/5 183/2/5
f 185/2/5 182/2/5 181/2/5
f 186/2/5 182/2/5 185/2/5
f 191/2/5 188/2/5 187/2/5
f 192/2/5 188/2/5 191/2/5
f 193/2/5 190/2/5 189/2/5
f 194/2/5 190/2/5 193/2/5
f 198/2/5 196/2/5 195/2/5
f 199/2/5 196/2/5 198/2/5
f 201/2/5 198/2/5 197/2/5
f 201/2/5 200/2/5 199/2/5
f 201/2/5 199/2/5 198/2/5
f 202/2/5 200/2/5 201/2/5
f 203/2/5 200/2/5 202/2/5
f 204/2/5 200/2/5 203/2/5
f 205/2/5 203/2/5 202/2/5
f 206/2/5 203/2/5 205/2/5
f 209/2/5 208/2/5 207/2/5
f 210/2/5 208/2/5 209/2/5
f 211/2/5 208/2/5 210/2/5
f 212/2/5 208/2/5 211/2/5
f 213/2/5 208/2/5 212/2/5
f 214/2/5 208/2/5 213/2/5
f 215/2/5 208/2/5 214/2/5
f 216/2/5 208/2/5 215/2/5
f 217/2/5 208/2/5 216/2/5
f 218/2/5 208/2/5 217/2/5
f 219/2/5 208/2/5 218/2/5
f 220/2/5 208/2/5 219/2/5
f 221/2/5 208/2/5 220/2/5
f 224/2/5 223/2/5 222/2/5
f 225/2/5 223/2/5 224/2/5
f 226/2/5 223/2/5 225/2/5
f 227/2/5 223/2/5 226/2/5
f 228/2/5 223/2/5 227/2/5
f 229/2/5 223/2/5 228/2/5
f 230/2/5 223/2/5 229/2/5
f 231/2/5 223/2/5 230/2/5
f 232/2/5 223/2/5 231/2/5
f 233/2/5 223/2/5 232/2/5
f 234/2/5 223/2/5 233/2/5
f 235/2/5 223/2/5 234/2/5
f 236/2/5 223/2/5 235/2/5
f 239/2/5 238/2/5 237/2/5
f 240/2/5 238/2/5 239/2/5
f 241/2/5 238/2/5 240/2/5
f 242/2/5 238/2/5 241/2/5
f 243/2/5 238/2/5 242/2/5
f 244/2/5 238/2/5 243/2/5
f 245/2/5 238/2/5 244/2/5
f 246/2/5 238/2/5 245/2/5
f 247/2/5 238/2/5 246/2/5
f 248/2/5 238/2/5 247/2/5
f 249/2/5 238/2/5 248/2/5
f 250/2/5 238/2/5 249/2/5
f 251/2/5 238/2/5 250/2/5
f 252/2/6 253/2/6 254/2/6
f 254/2/6 253/2/6 255/2/6
f 255/2/6 253/2/6 256/2/6
f 256/2/6 253/2/6 257/2/6
f 257/2/6 253/2/6 258/2/6
f 258/2/6 253/2/6 259/2/6
f 259/2/6 253/2/6 260/2/6
f 260/2/6 253/2/6 261/2/6
f 261/2/6 253/2/6 262/2/6
f 262/2/6 253/2/6 263/2/6
f 263/2/6 253/2/6 264/2/6
f 264/2/6 253/2/6 265/2/6
f 265/2/6 253/2/6 266/2/6
f 267/2/6 268/2/6 269/2/6
f 269/2/6 268/2/6 270/2/6
f 270/2/6 268/2/6 271/2/6
f 271/2/6 268/2/6 272/2/6
f 272/2/6 268/2/6 273/2/6
f 273/2/6 268/2/6 274/2/6
f 274/2/6 268/2/6 275/2/6
f 275/2/6 268/2/6 276/2/6
f 276/2/6 268/2/6 277/2/6
f 277/2/6 268/2/6 278/2/6
f 278/2/6 268/2/6 279/2/6
f 279/2/6 268/2/6 280/2/6
f 280/2/6 268/2/6 281/2/6
f 282/2/6 283/2/6 284/2/6
f 284/2/6 283/2/6 285/2/6
f 285/2/6 283/2/6 286/2/6
f 286/2/6 283/2/6 287/2/6
f 287/2/6 283/2/6 288/2/6
f 288/2/6 283/2/6 289/2/6
f 289/2/6 283/2/6 290/2/6
f 290/2/6 283/2/6 291/2/6
f 291/2/6 283/2/6 292/2/6
f 292/2/6 283/2/6 293/2/6
f 293/2/6 283/2/6 294/2/6
f 294/2/6 283/2/6 295/2/6
f 295/2/6 283/2/6 296/2/6
f 297/2/6 298/2/6 299/2/6
f 299/2/6 298/2/6 300/2/6
