# MagicaVoxel @ Ephtracy

# group
o 

# material
mtllib large_bookcase_c_green.mtl
usemtl palette

# normals
vn -1 0 0
vn 1 0 0
vn 0 0 1
vn 0 0 -1
vn 0 -1 0
vn 0 1 0

# texcoords
vt 0.787109 0.5
vt 0.826172 0.5
vt 0.982422 0.5

# verts
v -0.7 0 0.3
v -0.7 0 0.1
v -0.7 0 -0.2
v -0.7 0 -0.4
v -0.7 0.1 0.1
v -0.7 0.1 -0.2
v -0.7 1.4 0.3
v -0.7 1.4 -0.4
v 0.5 0 0.3
v 0.5 0 0.1
v 0.5 0 -0.2
v 0.5 0 -0.4
v 0.5 0.1 0.3
v 0.5 0.1 0.1
v 0.5 0.1 -0.2
v 0.5 0.1 -0.4
v 0.6 0.2 0.3
v 0.6 0.2 0.2
v 0.6 0.5 0.3
v 0.6 0.5 0.2
v 0.6 0.6 0.3
v 0.6 0.6 0.2
v 0.6 0.9 0.3
v 0.6 0.9 0.2
v 0.6 1 0.3
v 0.6 1 0.2
v 0.6 1.3 0.3
v 0.6 1.3 0.2
v -0.6 0.2 0.3
v -0.6 0.2 0.2
v -0.6 0.5 0.3
v -0.6 0.5 0.2
v -0.6 0.6 0.3
v -0.6 0.6 0.2
v -0.6 0.9 0.3
v -0.6 0.9 0.2
v -0.6 1 0.3
v -0.6 1 0.2
v -0.6 1.3 0.3
v -0.6 1.3 0.2
v -0.5 0 0.3
v -0.5 0 0.1
v -0.5 0 -0.2
v -0.5 0 -0.4
v -0.5 0.1 0.3
v -0.5 0.1 0.1
v -0.5 0.1 -0.2
v -0.5 0.1 -0.4
v 0.7 0 0.3
v 0.7 0 0.1
v 0.7 0 -0.2
v 0.7 0 -0.4
v 0.7 0.1 0.1
v 0.7 0.1 -0.2
v 0.7 1.4 0.3
v 0.7 1.4 -0.4
v -0.7 0 0.3
v -0.7 1.4 0.3
v -0.6 0.2 0.3
v -0.6 0.5 0.3
v -0.6 0.6 0.3
v -0.6 0.9 0.3
v -0.6 1 0.3
v -0.6 1.3 0.3
v -0.5 0 0.3
v -0.5 0.1 0.3
v 0.5 0 0.3
v 0.5 0.1 0.3
v 0.6 0.2 0.3
v 0.6 0.5 0.3
v 0.6 0.6 0.3
v 0.6 0.9 0.3
v 0.6 1 0.3
v 0.6 1.3 0.3
v 0.7 0 0.3
v 0.7 1.4 0.3
v -0.6 0.2 0.2
v -0.6 0.5 0.2
v -0.6 0.6 0.2
v -0.6 0.9 0.2
v -0.6 1 0.2
v -0.6 1.3 0.2
v -0.5 0.2 0.2
v -0.5 0.5 0.2
v -0.5 0.6 0.2
v -0.5 0.9 0.2
v -0.5 1 0.2
v -0.5 1.3 0.2
v -0.4 0.2 0.2
v -0.4 0.5 0.2
v -0.4 0.6 0.2
v -0.4 0.9 0.2
v -0.4 1 0.2
v -0.4 1.3 0.2
v -0.3 0.2 0.2
v -0.3 0.5 0.2
v -0.3 0.6 0.2
v -0.3 0.9 0.2
v -0.3 1 0.2
v -0.3 1.3 0.2
v -0.2 0.2 0.2
v -0.2 0.5 0.2
v -0.2 0.6 0.2
v -0.2 0.9 0.2
v -0.2 1 0.2
v -0.2 1.3 0.2
v -0.1 0.2 0.2
v -0.1 0.5 0.2
v -0.1 0.6 0.2
v -0.1 0.9 0.2
v -0.1 1 0.2
v -0.1 1.3 0.2
v 0 0.2 0.2
v 0 0.5 0.2
v 0 0.6 0.2
v 0 0.9 0.2
v 0 1 0.2
v 0 1.3 0.2
v 0.1 0.2 0.2
v 0.1 0.5 0.2
v 0.1 0.6 0.2
v 0.1 0.9 0.2
v 0.1 1 0.2
v 0.1 1.3 0.2
v 0.2 0.2 0.2
v 0.2 0.5 0.2
v 0.2 0.6 0.2
v 0.2 0.9 0.2
v 0.2 1 0.2
v 0.2 1.3 0.2
v 0.3 0.2 0.2
v 0.3 0.5 0.2
v 0.3 0.6 0.2
v 0.3 0.9 0.2
v 0.3 1 0.2
v 0.3 1.3 0.2
v 0.4 0.2 0.2
v 0.4 0.5 0.2
v 0.4 0.6 0.2
v 0.4 0.9 0.2
v 0.4 1 0.2
v 0.4 1.3 0.2
v 0.5 0.2 0.2
v 0.5 0.5 0.2
v 0.5 0.6 0.2
v 0.5 0.9 0.2
v 0.5 1 0.2
v 0.5 1.3 0.2
v 0.6 0.2 0.2
v 0.6 0.5 0.2
v 0.6 0.6 0.2
v 0.6 0.9 0.2
v 0.6 1 0.2
v 0.6 1.3 0.2
v -0.7 0 -0.2
v -0.7 0.1 -0.2
v -0.5 0 -0.2
v -0.5 0.1 -0.2
v 0.5 0 -0.2
v 0.5 0.1 -0.2
v 0.7 0 -0.2
v 0.7 0.1 -0.2
v -0.7 0 0.1
v -0.7 0.1 0.1
v -0.5 0 0.1
v -0.5 0.1 0.1
v 0.5 0 0.1
v 0.5 0.1 0.1
v 0.7 0 0.1
v 0.7 0.1 0.1
v -0.7 0 -0.4
v -0.7 1.4 -0.4
v -0.5 0 -0.4
v -0.5 0.1 -0.4
v 0.5 0 -0.4
v 0.5 0.1 -0.4
v 0.7 0 -0.4
v 0.7 1.4 -0.4
v -0.7 0 0.3
v -0.5 0 0.3
v 0.5 0 0.3
v 0.7 0 0.3
v -0.7 0 0.1
v -0.5 0 0.1
v 0.5 0 0.1
v 0.7 0 0.1
v -0.7 0 -0.2
v -0.5 0 -0.2
v 0.5 0 -0.2
v 0.7 0 -0.2
v -0.7 0 -0.4
v -0.5 0 -0.4
v 0.5 0 -0.4
v 0.7 0 -0.4
v -0.5 0.1 0.3
v 0.5 0.1 0.3
v -0.7 0.1 0.1
v -0.5 0.1 0.1
v 0.5 0.1 0.1
v 0.7 0.1 0.1
v -0.7 0.1 -0.2
v -0.5 0.1 -0.2
v 0.5 0.1 -0.2
v 0.7 0.1 -0.2
v -0.5 0.1 -0.4
v 0.5 0.1 -0.4
v -0.6 0.5 0.3
v 0.6 0.5 0.3
v -0.6 0.5 0.2
v -0.5 0.5 0.2
v -0.4 0.5 0.2
v -0.3 0.5 0.2
v -0.2 0.5 0.2
v -0.1 0.5 0.2
v 0 0.5 0.2
v 0.1 0.5 0.2
v 0.2 0.5 0.2
v 0.3 0.5 0.2
v 0.4 0.5 0.2
v 0.5 0.5 0.2
v 0.6 0.5 0.2
v -0.6 0.9 0.3
v 0.6 0.9 0.3
v -0.6 0.9 0.2
v -0.5 0.9 0.2
v -0.4 0.9 0.2
v -0.3 0.9 0.2
v -0.2 0.9 0.2
v -0.1 0.9 0.2
v 0 0.9 0.2
v 0.1 0.9 0.2
v 0.2 0.9 0.2
v 0.3 0.9 0.2
v 0.4 0.9 0.2
v 0.5 0.9 0.2
v 0.6 0.9 0.2
v -0.6 1.3 0.3
v 0.6 1.3 0.3
v -0.6 1.3 0.2
v -0.5 1.3 0.2
v -0.4 1.3 0.2
v -0.3 1.3 0.2
v -0.2 1.3 0.2
v -0.1 1.3 0.2
v 0 1.3 0.2
v 0.1 1.3 0.2
v 0.2 1.3 0.2
v 0.3 1.3 0.2
v 0.4 1.3 0.2
v 0.5 1.3 0.2
v 0.6 1.3 0.2
v -0.6 0.2 0.3
v 0.6 0.2 0.3
v -0.6 0.2 0.2
v -0.5 0.2 0.2
v -0.4 0.2 0.2
v -0.3 0.2 0.2
v -0.2 0.2 0.2
v -0.1 0.2 0.2
v 0 0.2 0.2
v 0.1 0.2 0.2
v 0.2 0.2 0.2
v 0.3 0.2 0.2
v 0.4 0.2 0.2
v 0.5 0.2 0.2
v 0.6 0.2 0.2
v -0.6 0.6 0.3
v 0.6 0.6 0.3
v -0.6 0.6 0.2
v -0.5 0.6 0.2
v -0.4 0.6 0.2
v -0.3 0.6 0.2
v -0.2 0.6 0.2
v -0.1 0.6 0.2
v 0 0.6 0.2
v 0.1 0.6 0.2
v 0.2 0.6 0.2
v 0.3 0.6 0.2
v 0.4 0.6 0.2
v 0.5 0.6 0.2
v 0.6 0.6 0.2
v -0.6 1 0.3
v 0.6 1 0.3
v -0.6 1 0.2
v -0.5 1 0.2
v -0.4 1 0.2
v -0.3 1 0.2
v -0.2 1 0.2
v -0.1 1 0.2
v 0 1 0.2
v 0.1 1 0.2
v 0.2 1 0.2
v 0.3 1 0.2
v 0.4 1 0.2
v 0.5 1 0.2
v 0.6 1 0.2
v -0.7 1.4 0.3
v 0.7 1.4 0.3
v -0.7 1.4 -0.4
v 0.7 1.4 -0.4

# faces
f 5/1/1 2/1/1 1/1/1
f 6/1/1 4/1/1 3/1/1
f 7/1/1 5/1/1 1/1/1
f 7/1/1 6/1/1 5/1/1
f 8/1/1 4/1/1 6/1/1
f 8/1/1 6/1/1 7/1/1
f 13/1/1 10/1/1 9/1/1
f 14/1/1 10/1/1 13/1/1
f 15/1/1 12/1/1 11/1/1
f 16/1/1 12/1/1 15/1/1
f 19/1/1 18/1/1 17/1/1
f 20/1/1 18/1/1 19/1/1
f 23/1/1 22/1/1 21/1/1
f 24/1/1 22/1/1 23/1/1
f 27/1/1 26/1/1 25/1/1
f 28/1/1 26/1/1 27/1/1
f 29/1/2 30/1/2 31/1/2
f 31/1/2 30/1/2 32/1/2
f 33/1/2 34/1/2 35/1/2
f 35/1/2 34/1/2 36/1/2
f 37/1/2 38/1/2 39/1/2
f 39/1/2 38/1/2 40/1/2
f 41/1/2 42/1/2 45/1/2
f 45/1/2 42/1/2 46/1/2
f 43/1/2 44/1/2 47/1/2
f 47/1/2 44/1/2 48/1/2
f 49/1/2 50/1/2 53/1/2
f 51/1/2 52/1/2 54/1/2
f 49/1/2 53/1/2 55/1/2
f 53/1/2 54/1/2 55/1/2
f 54/1/2 52/1/2 56/1/2
f 55/1/2 54/1/2 56/1/2
f 59/1/3 58/1/3 57/1/3
f 60/1/3 58/1/3 59/1/3
f 61/1/3 58/1/3 60/1/3
f 62/1/3 58/1/3 61/1/3
f 63/1/3 58/1/3 62/1/3
f 64/1/3 58/1/3 63/1/3
f 65/1/3 59/1/3 57/1/3
f 66/1/3 59/1/3 65/1/3
f 68/1/3 59/1/3 66/1/3
f 69/1/3 59/1/3 68/1/3
f 69/1/3 68/1/3 67/1/3
f 70/1/3 61/1/3 60/1/3
f 71/1/3 61/1/3 70/1/3
f 72/1/3 63/1/3 62/1/3
f 73/1/3 63/1/3 72/1/3
f 74/1/3 58/1/3 64/1/3
f 75/1/3 73/1/3 72/1/3
f 75/1/3 74/1/3 73/1/3
f 75/1/3 71/1/3 70/1/3
f 75/1/3 69/1/3 67/1/3
f 75/1/3 72/1/3 71/1/3
f 75/1/3 70/1/3 69/1/3
f 76/1/3 58/1/3 74/1/3
f 76/1/3 74/1/3 75/1/3
f 83/2/3 78/2/3 77/2/3
f 84/2/3 78/2/3 83/2/3
f 85/2/3 80/2/3 79/2/3
f 86/2/3 80/2/3 85/2/3
f 87/2/3 82/2/3 81/2/3
f 88/2/3 82/2/3 87/2/3
f 89/3/3 84/3/3 83/3/3
f 90/3/3 84/3/3 89/3/3
f 91/3/3 86/3/3 85/3/3
f 92/3/3 86/3/3 91/3/3
f 93/3/3 88/3/3 87/3/3
f 94/3/3 88/3/3 93/3/3
f 95/2/3 90/2/3 89/2/3
f 96/2/3 90/2/3 95/2/3
f 97/2/3 92/2/3 91/2/3
f 98/2/3 92/2/3 97/2/3
f 99/2/3 94/2/3 93/2/3
f 100/2/3 94/2/3 99/2/3
f 101/3/3 96/3/3 95/3/3
f 102/3/3 96/3/3 101/3/3
f 103/3/3 98/3/3 97/3/3
f 104/3/3 98/3/3 103/3/3
f 105/3/3 100/3/3 99/3/3
f 106/3/3 100/3/3 105/3/3
f 107/2/3 102/2/3 101/2/3
f 108/2/3 102/2/3 107/2/3
f 109/2/3 104/2/3 103/2/3
f 110/2/3 104/2/3 109/2/3
f 111/2/3 106/2/3 105/2/3
f 112/2/3 106/2/3 111/2/3
f 113/3/3 108/3/3 107/3/3
f 114/3/3 108/3/3 113/3/3
f 115/3/3 110/3/3 109/3/3
f 116/3/3 110/3/3 115/3/3
f 117/3/3 112/3/3 111/3/3
f 118/3/3 112/3/3 117/3/3
f 119/2/3 114/2/3 113/2/3
f 120/2/3 114/2/3 119/2/3
f 121/2/3 116/2/3 115/2/3
f 122/2/3 116/2/3 121/2/3
f 123/2/3 118/2/3 117/2/3
f 124/2/3 118/2/3 123/2/3
f 125/3/3 120/3/3 119/3/3
f 126/3/3 120/3/3 125/3/3
f 127/3/3 122/3/3 121/3/3
f 128/3/3 122/3/3 127/3/3
f 129/3/3 124/3/3 123/3/3
f 130/3/3 124/3/3 129/3/3
f 131/2/3 126/2/3 125/2/3
f 132/2/3 126/2/3 131/2/3
f 133/2/3 128/2/3 127/2/3
f 134/2/3 128/2/3 133/2/3
f 135/2/3 130/2/3 129/2/3
f 136/2/3 130/2/3 135/2/3
f 137/3/3 132/3/3 131/3/3
f 138/3/3 132/3/3 137/3/3
f 139/3/3 134/3/3 133/3/3
f 140/3/3 134/3/3 139/3/3
f 141/3/3 136/3/3 135/3/3
f 142/3/3 136/3/3 141/3/3
f 143/2/3 138/2/3 137/2/3
f 144/2/3 138/2/3 143/2/3
f 145/2/3 140/2/3 139/2/3
f 146/2/3 140/2/3 145/2/3
f 147/2/3 142/2/3 141/2/3
f 148/2/3 142/2/3 147/2/3
f 149/3/3 144/3/3 143/3/3
f 150/3/3 144/3/3 149/3/3
f 151/3/3 146/3/3 145/3/3
f 152/3/3 146/3/3 151/3/3
f 153/3/3 148/3/3 147/3/3
f 154/3/3 148/3/3 153/3/3
f 157/1/3 156/1/3 155/1/3
f 158/1/3 156/1/3 157/1/3
f 161/1/3 160/1/3 159/1/3
f 162/1/3 160/1/3 161/1/3
f 163/1/4 164/1/4 165/1/4
f 165/1/4 164/1/4 166/1/4
f 167/1/4 168/1/4 169/1/4
f 169/1/4 168/1/4 170/1/4
f 171/1/4 172/1/4 173/1/4
f 173/1/4 172/1/4 174/1/4
f 174/1/4 172/1/4 176/1/4
f 175/1/4 176/1/4 177/1/4
f 176/1/4 172/1/4 178/1/4
f 177/1/4 176/1/4 178/1/4
f 183/1/5 180/1/5 179/1/5
f 184/1/5 180/1/5 183/1/5
f 185/1/5 182/1/5 181/1/5
f 186/1/5 182/1/5 185/1/5
f 191/1/5 188/1/5 187/1/5
f 192/1/5 188/1/5 191/1/5
f 193/1/5 190/1/5 189/1/5
f 194/1/5 190/1/5 193/1/5
f 198/1/5 196/1/5 195/1/5
f 199/1/5 196/1/5 198/1/5
f 201/1/5 198/1/5 197/1/5
f 201/1/5 200/1/5 199/1/5
f 201/1/5 199/1/5 198/1/5
f 202/1/5 200/1/5 201/1/5
f 203/1/5 200/1/5 202/1/5
f 204/1/5 200/1/5 203/1/5
f 205/1/5 203/1/5 202/1/5
f 206/1/5 203/1/5 205/1/5
f 209/1/5 208/1/5 207/1/5
f 210/1/5 208/1/5 209/1/5
f 211/1/5 208/1/5 210/1/5
f 212/1/5 208/1/5 211/1/5
f 213/1/5 208/1/5 212/1/5
f 214/1/5 208/1/5 213/1/5
f 215/1/5 208/1/5 214/1/5
f 216/1/5 208/1/5 215/1/5
f 217/1/5 208/1/5 216/1/5
f 218/1/5 208/1/5 217/1/5
f 219/1/5 208/1/5 218/1/5
f 220/1/5 208/1/5 219/1/5
f 221/1/5 208/1/5 220/1/5
f 224/1/5 223/1/5 222/1/5
f 225/1/5 223/1/5 224/1/5
f 226/1/5 223/1/5 225/1/5
f 227/1/5 223/1/5 226/1/5
f 228/1/5 223/1/5 227/1/5
f 229/1/5 223/1/5 228/1/5
f 230/1/5 223/1/5 229/1/5
f 231/1/5 223/1/5 230/1/5
f 232/1/5 223/1/5 231/1/5
f 233/1/5 223/1/5 232/1/5
f 234/1/5 223/1/5 233/1/5
f 235/1/5 223/1/5 234/1/5
f 236/1/5 223/1/5 235/1/5
f 239/1/5 238/1/5 237/1/5
f 240/1/5 238/1/5 239/1/5
f 241/1/5 238/1/5 240/1/5
f 242/1/5 238/1/5 241/1/5
f 243/1/5 238/1/5 242/1/5
f 244/1/5 238/1/5 243/1/5
f 245/1/5 238/1/5 244/1/5
f 246/1/5 238/1/5 245/1/5
f 247/1/5 238/1/5 246/1/5
f 248/1/5 238/1/5 247/1/5
f 249/1/5 238/1/5 248/1/5
f 250/1/5 238/1/5 249/1/5
f 251/1/5 238/1/5 250/1/5
f 252/1/6 253/1/6 254/1/6
f 254/1/6 253/1/6 255/1/6
f 255/1/6 253/1/6 256/1/6
f 256/1/6 253/1/6 257/1/6
f 257/1/6 253/1/6 258/1/6
f 258/1/6 253/1/6 259/1/6
f 259/1/6 253/1/6 260/1/6
f 260/1/6 253/1/6 261/1/6
f 261/1/6 253/1/6 262/1/6
f 262/1/6 253/1/6 263/1/6
f 263/1/6 253/1/6 264/1/6
f 264/1/6 253/1/6 265/1/6
f 265/1/6 253/1/6 266/1/6
f 267/1/6 268/1/6 269/1/6
f 269/1/6 268/1/6 270/1/6
f 270/1/6 268/1/6 271/1/6
f 271/1/6 268/1/6 272/1/6
f 272/1/6 268/1/6 273/1/6
f 273/1/6 268/1/6 274/1/6
f 274/1/6 268/1/6 275/1/6
f 275/1/6 268/1/6 276/1/6
f 276/1/6 268/1/6 277/1/6
f 277/1/6 268/1/6 278/1/6
f 278/1/6 268/1/6 279/1/6
f 279/1/6 268/1/6 280/1/6
f 280/1/6 268/1/6 281/1/6
f 282/1/6 283/1/6 284/1/6
f 284/1/6 283/1/6 285/1/6
f 285/1/6 283/1/6 286/1/6
f 286/1/6 283/1/6 287/1/6
f 287/1/6 283/1/6 288/1/6
f 288/1/6 283/1/6 289/1/6
f 289/1/6 283/1/6 290/1/6
f 290/1/6 283/1/6 291/1/6
f 291/1/6 283/1/6 292/1/6
f 292/1/6 283/1/6 293/1/6
f 293/1/6 283/1/6 294/1/6
f 294/1/6 283/1/6 295/1/6
f 295/1/6 283/1/6 296/1/6
f 297/1/6 298/1/6 299/1/6
f 299/1/6 298/1/6 300/1/6
