# MagicaVoxel @ Ephtracy

# group
o 

# material
mtllib dungeon_d_a_entrance_b_flipped.mtl
usemtl palette

# normals
vn -1 0 0
vn 1 0 0
vn 0 0 1
vn 0 0 -1
vn 0 -1 0
vn 0 1 0

# texcoords
vt 0.947266 0.5
vt 0.970703 0.5

# verts
v -0.6 0 0.1
v -0.6 0 -0.2
v -0.6 1.6 0.1
v -0.6 1.6 -0.2
v 0.6 0 0.1
v 0.6 0 0
v 0.6 1.5 0.1
v 0.6 1.5 0
v -0.5 0 0.1
v -0.5 0 0
v -0.5 0.2 0
v -0.5 0.3 0
v -0.5 0.4 0
v -0.5 0.5 0
v -0.5 0.6 0
v -0.5 0.7 0
v -0.5 0.8 0
v -0.5 0.9 0
v -0.5 1 0
v -0.5 1.5 0.1
v -0.5 1.5 0
v 0.7 0 0.1
v 0.7 0 -0.2
v 0.7 1.6 0.1
v 0.7 1.6 -0.2
v -0.6 0 0.1
v -0.6 1.6 0.1
v -0.5 0 0.1
v -0.5 1.5 0.1
v 0.6 0 0.1
v 0.6 1.5 0.1
v 0.7 0 0.1
v 0.7 1.6 0.1
v -0.5 0 0
v -0.5 0.2 0
v -0.5 0.3 0
v -0.5 0.4 0
v -0.5 0.5 0
v -0.5 0.6 0
v -0.5 0.7 0
v -0.5 0.8 0
v -0.5 0.9 0
v -0.5 1 0
v -0.5 1.5 0
v -0.4 0.9 0
v -0.4 1 0
v -0.2 0.7 0
v -0.2 0.8 0
v -5.96046e-08 0.5 0
v -5.96046e-08 0.6 0
v 0.2 0.3 0
v 0.2 0.4 0
v 0.4 0 0
v 0.4 0.2 0
v 0.6 0 0
v 0.6 1.5 0
v -0.6 0 -0.2
v -0.6 1.6 -0.2
v 0.7 0 -0.2
v 0.7 1.6 -0.2
v -0.6 0 0.1
v -0.5 0 0.1
v 0.6 0 0.1
v 0.7 0 0.1
v -0.5 0 0
v 0.4 0 0
v 0.6 0 0
v 0.4 0 -0.1
v 0.6 0 -0.1
v -0.6 0 -0.2
v 0.7 0 -0.2
v -0.5 1.5 0.1
v 0.6 1.5 0.1
v -0.5 1.5 0
v 0.6 1.5 0
v -0.6 1.6 0.1
v 0.7 1.6 0.1
v -0.6 1.6 -0.2
v 0.7 1.6 -0.2

# faces
f 3/1/1 2/1/1 1/1/1
f 4/1/1 2/1/1 3/1/1
f 7/1/1 6/1/1 5/1/1
f 8/1/1 6/1/1 7/1/1
f 9/1/2 10/1/2 11/1/2
f 9/1/2 11/1/2 12/1/2
f 9/1/2 12/1/2 13/1/2
f 9/1/2 13/1/2 14/1/2
f 9/1/2 14/1/2 15/1/2
f 9/1/2 15/1/2 16/1/2
f 9/1/2 16/1/2 17/1/2
f 9/1/2 17/1/2 18/1/2
f 9/1/2 18/1/2 19/1/2
f 9/1/2 19/1/2 20/1/2
f 20/1/2 19/1/2 21/1/2
f 22/1/2 23/1/2 24/1/2
f 24/1/2 23/1/2 25/1/2
f 28/1/3 27/1/3 26/1/3
f 29/1/3 27/1/3 28/1/3
f 31/1/3 27/1/3 29/1/3
f 32/1/3 31/1/3 30/1/3
f 33/1/3 27/1/3 31/1/3
f 33/1/3 31/1/3 32/1/3
f 45/2/3 42/2/3 41/2/3
f 45/1/3 43/1/3 42/1/3
f 46/2/3 44/2/3 43/2/3
f 46/1/3 43/1/3 45/1/3
f 47/2/3 40/2/3 39/2/3
f 47/1/3 41/1/3 40/1/3
f 48/2/3 46/2/3 45/2/3
f 48/1/3 41/1/3 47/1/3
f 48/2/3 45/2/3 41/2/3
f 49/2/3 38/2/3 37/2/3
f 49/1/3 39/1/3 38/1/3
f 50/2/3 48/2/3 47/2/3
f 50/1/3 39/1/3 49/1/3
f 50/2/3 47/2/3 39/2/3
f 51/2/3 36/2/3 35/2/3
f 51/1/3 37/1/3 36/1/3
f 52/2/3 50/2/3 49/2/3
f 52/1/3 37/1/3 51/1/3
f 52/2/3 49/2/3 37/2/3
f 53/1/3 35/1/3 34/1/3
f 54/2/3 51/2/3 35/2/3
f 54/1/3 35/1/3 53/1/3
f 54/2/3 52/2/3 51/2/3
f 55/2/3 54/2/3 53/2/3
f 56/2/3 50/2/3 52/2/3
f 56/2/3 54/2/3 55/2/3
f 56/2/3 48/2/3 50/2/3
f 56/2/3 52/2/3 54/2/3
f 56/2/3 44/2/3 46/2/3
f 56/2/3 46/2/3 48/2/3
f 57/1/4 58/1/4 59/1/4
f 59/1/4 58/1/4 60/1/4
f 65/1/5 62/1/5 61/1/5
f 67/1/5 64/1/5 63/1/5
f 68/1/5 66/1/5 65/1/5
f 68/2/5 67/2/5 66/2/5
f 69/1/5 64/1/5 67/1/5
f 69/2/5 67/2/5 68/2/5
f 70/1/5 68/1/5 65/1/5
f 70/1/5 65/1/5 61/1/5
f 70/1/5 69/1/5 68/1/5
f 71/1/5 64/1/5 69/1/5
f 71/1/5 69/1/5 70/1/5
f 74/1/5 73/1/5 72/1/5
f 75/1/5 73/1/5 74/1/5
f 76/1/6 77/1/6 78/1/6
f 78/1/6 77/1/6 79/1/6
