# MagicaVoxel @ Ephtracy

# group
o 

# material
mtllib ghost.mtl
usemtl palette

# normals
vn -1 0 0
vn 1 0 0
vn 0 0 1
vn 0 0 -1
vn 0 -1 0
vn 0 1 0

# texcoords
vt 0.880859 0.5
vt 0.947266 0.5
vt 0.970703 0.5

# verts
v -0.3 0.3 -0.2
v -0.3 0.3 -0.3
v -0.3 0.4 0.2
v -0.3 0.4 -0.2
v -0.3 1 0.2
v -0.3 1 -0.3
v -0.2 0.8 0.3
v -0.2 0.8 0.2
v -0.2 0.9 0.3
v -0.2 0.9 0.2
v -0.1 0.3 0.1
v -0.1 0.3 -2.98023e-08
v -0.1 0.4 0.1
v -0.1 0.4 -2.98023e-08
v -0.1 1 0.1
v -0.1 1 -0.2
v -0.1 1.2 0.1
v -0.1 1.2 -0.2
v 0.1 0.4 0.2
v 0.1 0.4 0.1
v 0.1 0.9 -0.2
v 0.1 0.9 -0.3
v 0.1 1 0.2
v 0.1 1 0.1
v 0.1 1 -0.2
v 0.1 1 -0.3
v 0.2 0.8 0.3
v 0.2 0.8 0.2
v 0.2 0.9 0.3
v 0.2 0.9 0.2
v -0.1 0.8 0.3
v -0.1 0.8 0.2
v -0.1 0.9 0.3
v -0.1 0.9 0.2
v -0.1 0.9 -0.2
v -0.1 0.9 -0.3
v -0.1 1 -0.2
v -0.1 1 -0.3
v 2.98023e-08 0.4 0.2
v 2.98023e-08 0.4 0.1
v 2.98023e-08 1 0.2
v 2.98023e-08 1 0.1
v 0.2 0.3 0.1
v 0.2 0.3 -2.98023e-08
v 0.2 0.4 0.1
v 0.2 0.4 -2.98023e-08
v 0.2 1 0.1
v 0.2 1 -0.2
v 0.2 1.2 0.1
v 0.2 1.2 -0.2
v 0.3 0.8 0.3
v 0.3 0.8 0.2
v 0.3 0.9 0.3
v 0.3 0.9 0.2
v 0.4 0.3 -0.2
v 0.4 0.3 -0.3
v 0.4 0.4 0.2
v 0.4 0.4 -0.2
v 0.4 1 0.2
v 0.4 1 -0.3
v -0.2 0.8 0.3
v -0.2 0.9 0.3
v -0.1 0.8 0.3
v -0.1 0.9 0.3
v 0.2 0.8 0.3
v 0.2 0.9 0.3
v 0.3 0.8 0.3
v 0.3 0.9 0.3
v -0.3 0.4 0.2
v -0.3 1 0.2
v -0.2 0.4 0.2
v -0.2 0.8 0.2
v -0.2 0.9 0.2
v -0.1 0.4 0.2
v -0.1 0.8 0.2
v -0.1 0.9 0.2
v 2.98023e-08 0.4 0.2
v 2.98023e-08 1 0.2
v 0.1 0.4 0.2
v 0.1 1 0.2
v 0.2 0.4 0.2
v 0.2 0.8 0.2
v 0.2 0.9 0.2
v 0.3 0.4 0.2
v 0.3 0.8 0.2
v 0.3 0.9 0.2
v 0.4 0.4 0.2
v 0.4 1 0.2
v -0.1 0.3 0.1
v -0.1 0.4 0.1
v -0.1 1 0.1
v -0.1 1.2 0.1
v 2.98023e-08 0.4 0.1
v 2.98023e-08 1 0.1
v 0.1 0.4 0.1
v 0.1 1 0.1
v 0.2 0.3 0.1
v 0.2 0.4 0.1
v 0.2 1 0.1
v 0.2 1.2 0.1
v -0.3 0.3 -0.2
v -0.3 0.4 -0.2
v -0.2 0.4 -0.2
v 0.3 0.4 -0.2
v 0.4 0.3 -0.2
v 0.4 0.4 -0.2
v -0.1 0.3 -2.98023e-08
v -0.1 0.4 -2.98023e-08
v 0.2 0.3 -2.98023e-08
v 0.2 0.4 -2.98023e-08
v -0.1 0.9 -0.2
v -0.1 1 -0.2
v -0.1 1.2 -0.2
v 0.1 0.9 -0.2
v 0.1 1 -0.2
v 0.2 1 -0.2
v 0.2 1.2 -0.2
v -0.3 0.3 -0.3
v -0.3 1 -0.3
v -0.1 0.9 -0.3
v -0.1 1 -0.3
v 0.1 0.9 -0.3
v 0.1 1 -0.3
v 0.4 0.3 -0.3
v 0.4 1 -0.3
v -0.1 0.3 0.1
v 0.2 0.3 0.1
v -0.1 0.3 -2.98023e-08
v 0.2 0.3 -2.98023e-08
v -0.3 0.3 -0.2
v 0.4 0.3 -0.2
v -0.3 0.3 -0.3
v 0.4 0.3 -0.3
v -0.3 0.4 0.2
v -0.2 0.4 0.2
v -0.1 0.4 0.2
v 2.98023e-08 0.4 0.2
v 0.1 0.4 0.2
v 0.2 0.4 0.2
v 0.3 0.4 0.2
v 0.4 0.4 0.2
v -0.1 0.4 0.1
v 2.98023e-08 0.4 0.1
v 0.1 0.4 0.1
v 0.2 0.4 0.1
v -0.1 0.4 -2.98023e-08
v 0.2 0.4 -2.98023e-08
v -0.3 0.4 -0.2
v -0.2 0.4 -0.2
v 0.3 0.4 -0.2
v 0.4 0.4 -0.2
v -0.2 0.8 0.3
v -0.1 0.8 0.3
v 0.2 0.8 0.3
v 0.3 0.8 0.3
v -0.2 0.8 0.2
v -0.1 0.8 0.2
v 0.2 0.8 0.2
v 0.3 0.8 0.2
v -0.2 0.9 0.3
v -0.1 0.9 0.3
v 0.2 0.9 0.3
v 0.3 0.9 0.3
v -0.2 0.9 0.2
v -0.1 0.9 0.2
v 0.2 0.9 0.2
v 0.3 0.9 0.2
v -0.1 0.9 -0.2
v 0.1 0.9 -0.2
v -0.1 0.9 -0.3
v 0.1 0.9 -0.3
v -0.3 1 0.2
v 2.98023e-08 1 0.2
v 0.1 1 0.2
v 0.4 1 0.2
v -0.1 1 0.1
v 2.98023e-08 1 0.1
v 0.1 1 0.1
v 0.2 1 0.1
v -0.1 1 -0.2
v 0.1 1 -0.2
v 0.2 1 -0.2
v -0.3 1 -0.3
v -0.1 1 -0.3
v 0.1 1 -0.3
v 0.4 1 -0.3
v -0.1 1.2 0.1
v 0.2 1.2 0.1
v -0.1 1.2 -0.2
v 0.2 1.2 -0.2

# faces
f 4/2/1 2/2/1 1/2/1
f 5/2/1 4/2/1 3/2/1
f 6/2/1 2/2/1 4/2/1
f 6/2/1 4/2/1 5/2/1
f 9/1/1 8/1/1 7/1/1
f 10/1/1 8/1/1 9/1/1
f 13/2/1 12/2/1 11/2/1
f 14/2/1 12/2/1 13/2/1
f 17/2/1 16/2/1 15/2/1
f 18/2/1 16/2/1 17/2/1
f 23/2/1 20/2/1 19/2/1
f 24/2/1 20/2/1 23/2/1
f 25/2/1 22/2/1 21/2/1
f 26/2/1 22/2/1 25/2/1
f 29/1/1 28/1/1 27/1/1
f 30/1/1 28/1/1 29/1/1
f 31/1/2 32/1/2 33/1/2
f 33/1/2 32/1/2 34/1/2
f 35/2/2 36/2/2 37/2/2
f 37/2/2 36/2/2 38/2/2
f 39/2/2 40/2/2 41/2/2
f 41/2/2 40/2/2 42/2/2
f 43/2/2 44/2/2 45/2/2
f 45/2/2 44/2/2 46/2/2
f 47/2/2 48/2/2 49/2/2
f 49/2/2 48/2/2 50/2/2
f 51/1/2 52/1/2 53/1/2
f 53/1/2 52/1/2 54/1/2
f 55/2/2 56/2/2 58/2/2
f 57/2/2 58/2/2 59/2/2
f 58/2/2 56/2/2 60/2/2
f 59/2/2 58/2/2 60/2/2
f 63/1/3 62/1/3 61/1/3
f 64/1/3 62/1/3 63/1/3
f 67/1/3 66/1/3 65/1/3
f 68/1/3 66/1/3 67/1/3
f 71/2/3 70/2/3 69/2/3
f 72/2/3 70/2/3 71/2/3
f 73/2/3 70/2/3 72/2/3
f 74/3/3 72/3/3 71/3/3
f 75/3/3 72/3/3 74/3/3
f 76/2/3 70/2/3 73/2/3
f 77/2/3 75/2/3 74/2/3
f 77/2/3 76/2/3 75/2/3
f 78/2/3 70/2/3 76/2/3
f 78/2/3 76/2/3 77/2/3
f 81/2/3 80/2/3 79/2/3
f 82/2/3 80/2/3 81/2/3
f 83/2/3 80/2/3 82/2/3
f 84/3/3 82/3/3 81/3/3
f 85/3/3 82/3/3 84/3/3
f 86/2/3 80/2/3 83/2/3
f 87/2/3 85/2/3 84/2/3
f 87/2/3 86/2/3 85/2/3
f 88/2/3 80/2/3 86/2/3
f 88/2/3 86/2/3 87/2/3
f 93/2/3 90/2/3 89/2/3
f 94/2/3 92/2/3 91/2/3
f 95/2/3 93/2/3 89/2/3
f 95/2/3 94/2/3 93/2/3
f 96/2/3 92/2/3 94/2/3
f 96/2/3 94/2/3 95/2/3
f 97/2/3 95/2/3 89/2/3
f 98/2/3 95/2/3 97/2/3
f 99/2/3 92/2/3 96/2/3
f 100/2/3 92/2/3 99/2/3
f 103/2/3 102/2/3 101/2/3
f 104/2/3 103/2/3 101/2/3
f 105/2/3 104/2/3 101/2/3
f 106/2/3 104/2/3 105/2/3
f 107/2/4 108/2/4 109/2/4
f 109/2/4 108/2/4 110/2/4
f 111/2/4 112/2/4 114/2/4
f 112/2/4 113/2/4 114/2/4
f 114/2/4 113/2/4 115/2/4
f 115/2/4 113/2/4 116/2/4
f 116/2/4 113/2/4 117/2/4
f 118/2/4 119/2/4 120/2/4
f 120/2/4 119/2/4 121/2/4
f 118/2/4 120/2/4 122/2/4
f 118/2/4 122/2/4 124/2/4
f 122/2/4 123/2/4 124/2/4
f 124/2/4 123/2/4 125/2/4
f 128/2/5 127/2/5 126/2/5
f 129/2/5 127/2/5 128/2/5
f 132/2/5 131/2/5 130/2/5
f 133/2/5 131/2/5 132/2/5
f 142/3/5 136/3/5 135/3/5
f 142/2/5 137/2/5 136/2/5
f 143/2/5 137/2/5 142/2/5
f 144/2/5 139/2/5 138/2/5
f 145/3/5 140/3/5 139/3/5
f 145/2/5 139/2/5 144/2/5
f 146/3/5 142/3/5 135/3/5
f 147/3/5 140/3/5 145/3/5
f 148/2/5 135/2/5 134/2/5
f 149/3/5 147/3/5 146/3/5
f 149/2/5 135/2/5 148/2/5
f 149/3/5 146/3/5 135/3/5
f 150/2/5 141/2/5 140/2/5
f 150/3/5 147/3/5 149/3/5
f 150/3/5 140/3/5 147/3/5
f 151/2/5 141/2/5 150/2/5
f 156/1/5 153/1/5 152/1/5
f 157/1/5 153/1/5 156/1/5
f 158/1/5 155/1/5 154/1/5
f 159/1/5 155/1/5 158/1/5
f 160/1/6 161/1/6 164/1/6
f 164/1/6 161/1/6 165/1/6
f 162/1/6 163/1/6 166/1/6
f 166/1/6 163/1/6 167/1/6
f 168/2/6 169/2/6 170/2/6
f 170/2/6 169/2/6 171/2/6
f 172/2/6 173/2/6 176/2/6
f 176/2/6 173/2/6 177/2/6
f 174/2/6 175/2/6 178/2/6
f 178/2/6 175/2/6 179/2/6
f 172/2/6 176/2/6 180/2/6
f 179/2/6 175/2/6 182/2/6
f 172/2/6 180/2/6 183/2/6
f 183/2/6 180/2/6 184/2/6
f 181/2/6 182/2/6 185/2/6
f 182/2/6 175/2/6 186/2/6
f 185/2/6 182/2/6 186/2/6
f 187/2/6 188/2/6 189/2/6
f 189/2/6 188/2/6 190/2/6
