# MagicaVoxel @ Ephtracy

# group
o 

# material
mtllib beholder_idle_1.mtl
usemtl palette

# normals
vn -1 0 0
vn 1 0 0
vn 0 0 1
vn 0 0 -1
vn 0 -1 0
vn 0 1 0

# texcoords
vt 0.751953 0.5
vt 0.818359 0.5
vt 0.947266 0.5
vt 0.970703 0.5

# verts
v -0.5 0.3 -0.1
v -0.5 0.3 -0.2
v -0.5 0.4 0.1
v -0.5 0.4 -2.98023e-08
v -0.5 0.4 -0.1
v -0.5 0.4 -0.2
v -0.5 0.5 0.1
v -0.5 0.5 -2.98023e-08
v -0.5 0.5 -0.1
v -0.5 0.6 0.3
v -0.5 0.6 0.2
v -0.5 0.6 0.1
v -0.5 0.6 -2.98023e-08
v -0.5 0.7 0.3
v -0.5 0.7 0.2
v -0.5 0.7 0.1
v -0.5 0.7 -0.1
v -0.5 0.7 -0.2
v -0.5 0.8 0.1
v -0.5 0.8 -2.98023e-08
v -0.5 0.8 -0.1
v -0.5 0.8 -0.2
v -0.5 0.9 0.1
v -0.5 0.9 -2.98023e-08
v -0.5 0.9 -0.1
v -0.3 0.2 0.2
v -0.3 0.2 -0.3
v -0.3 0.3 -0.1
v -0.3 0.3 -0.2
v -0.3 0.4 -0.1
v -0.3 0.4 -0.2
v -0.3 0.5 0.1
v -0.3 0.5 -2.98023e-08
v -0.3 0.6 0.1
v -0.3 0.6 -2.98023e-08
v -0.3 0.7 -0.1
v -0.3 0.7 -0.2
v -0.3 0.8 -0.1
v -0.3 0.8 -0.2
v -0.3 0.9 0.2
v -0.3 0.9 -0.3
v -0.2 0.9 -0.1
v -0.2 0.9 -0.2
v -0.2 1.1 0.1
v -0.2 1.1 -2.98023e-08
v -0.2 1.1 -0.1
v -0.2 1.1 -0.2
v -0.2 1.2 0.1
v -0.2 1.2 -2.98023e-08
v -0.2 1.2 -0.1
v 5.96046e-08 0.9 0.1
v 5.96046e-08 0.9 -2.98023e-08
v 5.96046e-08 1.1 0.3
v 5.96046e-08 1.1 0.2
v 5.96046e-08 1.1 0.1
v 5.96046e-08 1.1 -2.98023e-08
v 5.96046e-08 1.2 0.3
v 5.96046e-08 1.2 0.2
v 5.96046e-08 1.2 0.1
v 0.2 0.9 -0.1
v 0.2 0.9 -0.2
v 0.2 1.1 0.1
v 0.2 1.1 -2.98023e-08
v 0.2 1.1 -0.1
v 0.2 1.1 -0.2
v 0.2 1.2 0.1
v 0.2 1.2 -2.98023e-08
v 0.2 1.2 -0.1
v 0.5 0.4 0.1
v 0.5 0.4 -2.98023e-08
v 0.5 0.4 -0.1
v 0.5 0.5 0.1
v 0.5 0.5 -2.98023e-08
v 0.5 0.5 -0.1
v 0.5 0.6 0.3
v 0.5 0.6 0.2
v 0.5 0.6 0.1
v 0.5 0.7 0.3
v 0.5 0.7 0.2
v 0.5 0.7 0.1
v 0.5 0.8 0.1
v 0.5 0.8 -2.98023e-08
v 0.5 0.8 -0.1
v 0.5 0.9 0.1
v 0.5 0.9 -2.98023e-08
v 0.5 0.9 -0.1
v -0.4 0.4 0.1
v -0.4 0.4 -2.98023e-08
v -0.4 0.4 -0.1
v -0.4 0.5 0.1
v -0.4 0.5 -2.98023e-08
v -0.4 0.5 -0.1
v -0.4 0.6 0.3
v -0.4 0.6 0.2
v -0.4 0.6 0.1
v -0.4 0.7 0.3
v -0.4 0.7 0.2
v -0.4 0.7 0.1
v -0.4 0.8 0.1
v -0.4 0.8 -2.98023e-08
v -0.4 0.8 -0.1
v -0.4 0.9 0.1
v -0.4 0.9 -2.98023e-08
v -0.4 0.9 -0.1
v -0.1 0.9 -0.1
v -0.1 0.9 -0.2
v -0.1 1.1 0.1
v -0.1 1.1 -2.98023e-08
v -0.1 1.1 -0.1
v -0.1 1.1 -0.2
v -0.1 1.2 0.1
v -0.1 1.2 -2.98023e-08
v -0.1 1.2 -0.1
v 0.1 0.9 0.1
v 0.1 0.9 -2.98023e-08
v 0.1 1.1 0.3
v 0.1 1.1 0.2
v 0.1 1.1 0.1
v 0.1 1.1 -2.98023e-08
v 0.1 1.2 0.3
v 0.1 1.2 0.2
v 0.1 1.2 0.1
v 0.3 0.9 -0.1
v 0.3 0.9 -0.2
v 0.3 1.1 0.1
v 0.3 1.1 -2.98023e-08
v 0.3 1.1 -0.1
v 0.3 1.1 -0.2
v 0.3 1.2 0.1
v 0.3 1.2 -2.98023e-08
v 0.3 1.2 -0.1
v 0.4 0.2 0.2
v 0.4 0.2 -0.3
v 0.4 0.3 -0.1
v 0.4 0.3 -0.2
v 0.4 0.4 -0.1
v 0.4 0.4 -0.2
v 0.4 0.5 0.1
v 0.4 0.5 -2.98023e-08
v 0.4 0.6 0.1
v 0.4 0.6 -2.98023e-08
v 0.4 0.7 -0.1
v 0.4 0.7 -0.2
v 0.4 0.8 -0.1
v 0.4 0.8 -0.2
v 0.4 0.9 0.2
v 0.4 0.9 -0.3
v 0.6 0.3 -0.1
v 0.6 0.3 -0.2
v 0.6 0.4 0.1
v 0.6 0.4 -2.98023e-08
v 0.6 0.4 -0.1
v 0.6 0.4 -0.2
v 0.6 0.5 0.1
v 0.6 0.5 -2.98023e-08
v 0.6 0.5 -0.1
v 0.6 0.6 0.3
v 0.6 0.6 0.2
v 0.6 0.6 0.1
v 0.6 0.6 -2.98023e-08
v 0.6 0.7 0.3
v 0.6 0.7 0.2
v 0.6 0.7 0.1
v 0.6 0.7 -0.1
v 0.6 0.7 -0.2
v 0.6 0.8 0.1
v 0.6 0.8 -2.98023e-08
v 0.6 0.8 -0.1
v 0.6 0.8 -0.2
v 0.6 0.9 0.1
v 0.6 0.9 -2.98023e-08
v 0.6 0.9 -0.1
v -0.5 0.6 0.3
v -0.5 0.7 0.3
v -0.4 0.6 0.3
v -0.4 0.7 0.3
v 5.96046e-08 1.1 0.3
v 5.96046e-08 1.2 0.3
v 0.1 1.1 0.3
v 0.1 1.2 0.3
v 0.5 0.6 0.3
v 0.5 0.7 0.3
v 0.6 0.6 0.3
v 0.6 0.7 0.3
v -0.3 0.2 0.2
v -0.3 0.9 0.2
v -0.2 0.3 0.2
v -0.2 0.5 0.2
v -0.1 0.4 0.2
v -0.1 0.5 0.2
v -0.1 0.6 0.2
v -0.1 0.8 0.2
v 5.96046e-08 0.4 0.2
v 5.96046e-08 0.5 0.2
v 5.96046e-08 0.6 0.2
v 5.96046e-08 0.8 0.2
v 0.1 0.4 0.2
v 0.1 0.5 0.2
v 0.1 0.6 0.2
v 0.1 0.8 0.2
v 0.2 0.4 0.2
v 0.2 0.5 0.2
v 0.2 0.6 0.2
v 0.2 0.8 0.2
v 0.3 0.3 0.2
v 0.3 0.5 0.2
v 0.4 0.2 0.2
v 0.4 0.9 0.2
v -0.5 0.4 0.1
v -0.5 0.5 0.1
v -0.5 0.6 0.1
v -0.5 0.8 0.1
v -0.5 0.9 0.1
v -0.4 0.4 0.1
v -0.4 0.5 0.1
v -0.4 0.6 0.1
v -0.4 0.8 0.1
v -0.4 0.9 0.1
v -0.3 0.5 0.1
v -0.3 0.6 0.1
v -0.2 1.1 0.1
v -0.2 1.2 0.1
v -0.1 1.1 0.1
v -0.1 1.2 0.1
v 5.96046e-08 0.9 0.1
v 5.96046e-08 1.1 0.1
v 0.1 0.9 0.1
v 0.1 1.1 0.1
v 0.2 1.1 0.1
v 0.2 1.2 0.1
v 0.3 1.1 0.1
v 0.3 1.2 0.1
v 0.4 0.5 0.1
v 0.4 0.6 0.1
v 0.5 0.4 0.1
v 0.5 0.5 0.1
v 0.5 0.6 0.1
v 0.5 0.8 0.1
v 0.5 0.9 0.1
v 0.6 0.4 0.1
v 0.6 0.5 0.1
v 0.6 0.6 0.1
v 0.6 0.8 0.1
v 0.6 0.9 0.1
v -0.5 0.3 -0.1
v -0.5 0.4 -0.1
v -0.5 0.7 -0.1
v -0.5 0.8 -0.1
v -0.4 0.4 -0.1
v -0.4 0.8 -0.1
v -0.3 0.3 -0.1
v -0.3 0.4 -0.1
v -0.3 0.7 -0.1
v -0.3 0.8 -0.1
v -0.2 0.9 -0.1
v -0.2 1.1 -0.1
v -0.1 0.9 -0.1
v -0.1 1.1 -0.1
v 0.2 0.9 -0.1
v 0.2 1.1 -0.1
v 0.3 0.9 -0.1
v 0.3 1.1 -0.1
v 0.4 0.3 -0.1
v 0.4 0.4 -0.1
v 0.4 0.7 -0.1
v 0.4 0.8 -0.1
v 0.5 0.4 -0.1
v 0.5 0.8 -0.1
v 0.6 0.3 -0.1
v 0.6 0.4 -0.1
v 0.6 0.7 -0.1
v 0.6 0.8 -0.1
v -0.5 0.6 0.1
v -0.5 0.7 0.1
v -0.4 0.6 0.1
v -0.4 0.7 0.1
v 5.96046e-08 1.1 0.1
v 5.96046e-08 1.2 0.1
v 0.1 1.1 0.1
v 0.1 1.2 0.1
v 0.5 0.6 0.1
v 0.5 0.7 0.1
v 0.6 0.6 0.1
v 0.6 0.7 0.1
v -0.5 0.5 -2.98023e-08
v -0.5 0.6 -2.98023e-08
v -0.4 0.5 -2.98023e-08
v -0.3 0.5 -2.98023e-08
v -0.3 0.6 -2.98023e-08
v 5.96046e-08 0.9 -2.98023e-08
v 5.96046e-08 1.1 -2.98023e-08
v 0.1 0.9 -2.98023e-08
v 0.1 1.1 -2.98023e-08
v 0.4 0.5 -2.98023e-08
v 0.4 0.6 -2.98023e-08
v 0.5 0.5 -2.98023e-08
v 0.6 0.5 -2.98023e-08
v 0.6 0.6 -2.98023e-08
v -0.5 0.4 -0.1
v -0.5 0.5 -0.1
v -0.5 0.8 -0.1
v -0.5 0.9 -0.1
v -0.4 0.4 -0.1
v -0.4 0.5 -0.1
v -0.4 0.8 -0.1
v -0.4 0.9 -0.1
v -0.2 1.1 -0.1
v -0.2 1.2 -0.1
v -0.1 1.1 -0.1
v -0.1 1.2 -0.1
v 0.2 1.1 -0.1
v 0.2 1.2 -0.1
v 0.3 1.1 -0.1
v 0.3 1.2 -0.1
v 0.5 0.4 -0.1
v 0.5 0.5 -0.1
v 0.5 0.8 -0.1
v 0.5 0.9 -0.1
v 0.6 0.4 -0.1
v 0.6 0.5 -0.1
v 0.6 0.8 -0.1
v 0.6 0.9 -0.1
v -0.5 0.3 -0.2
v -0.5 0.4 -0.2
v -0.5 0.7 -0.2
v -0.5 0.8 -0.2
v -0.3 0.3 -0.2
v -0.3 0.4 -0.2
v -0.3 0.7 -0.2
v -0.3 0.8 -0.2
v -0.2 0.9 -0.2
v -0.2 1.1 -0.2
v -0.1 0.9 -0.2
v -0.1 1.1 -0.2
v 0.2 0.9 -0.2
v 0.2 1.1 -0.2
v 0.3 0.9 -0.2
v 0.3 1.1 -0.2
v 0.4 0.3 -0.2
v 0.4 0.4 -0.2
v 0.4 0.7 -0.2
v 0.4 0.8 -0.2
v 0.6 0.3 -0.2
v 0.6 0.4 -0.2
v 0.6 0.7 -0.2
v 0.6 0.8 -0.2
v -0.3 0.2 -0.3
v -0.3 0.9 -0.3
v 0.4 0.2 -0.3
v 0.4 0.9 -0.3
v -0.3 0.2 0.2
v 0.4 0.2 0.2
v -0.3 0.2 -0.3
v 0.4 0.2 -0.3
v -0.5 0.3 -0.1
v -0.3 0.3 -0.1
v 0.4 0.3 -0.1
v 0.6 0.3 -0.1
v -0.5 0.3 -0.2
v -0.3 0.3 -0.2
v 0.4 0.3 -0.2
v 0.6 0.3 -0.2
v -0.5 0.4 0.1
v -0.4 0.4 0.1
v 0.5 0.4 0.1
v 0.6 0.4 0.1
v -0.5 0.4 -2.98023e-08
v -0.4 0.4 -2.98023e-08
v 0.5 0.4 -2.98023e-08
v 0.6 0.4 -2.98023e-08
v -0.5 0.4 -0.1
v -0.4 0.4 -0.1
v 0.5 0.4 -0.1
v 0.6 0.4 -0.1
v -0.4 0.5 0.1
v -0.3 0.5 0.1
v 0.4 0.5 0.1
v 0.5 0.5 0.1
v -0.4 0.5 -2.98023e-08
v -0.3 0.5 -2.98023e-08
v 0.4 0.5 -2.98023e-08
v 0.5 0.5 -2.98023e-08
v -0.5 0.6 0.3
v -0.4 0.6 0.3
v 0.5 0.6 0.3
v 0.6 0.6 0.3
v -0.5 0.6 0.2
v -0.4 0.6 0.2
v 0.5 0.6 0.2
v 0.6 0.6 0.2
v -0.5 0.6 0.1
v -0.4 0.6 0.1
v 0.5 0.6 0.1
v 0.6 0.6 0.1
v -0.5 0.7 -0.1
v -0.3 0.7 -0.1
v 0.4 0.7 -0.1
v 0.6 0.7 -0.1
v -0.5 0.7 -0.2
v -0.3 0.7 -0.2
v 0.4 0.7 -0.2
v 0.6 0.7 -0.2
v -0.5 0.8 0.1
v -0.4 0.8 0.1
v 0.5 0.8 0.1
v 0.6 0.8 0.1
v -0.5 0.8 -2.98023e-08
v -0.4 0.8 -2.98023e-08
v 0.5 0.8 -2.98023e-08
v 0.6 0.8 -2.98023e-08
v -0.5 0.8 -0.1
v -0.4 0.8 -0.1
v 0.5 0.8 -0.1
v 0.6 0.8 -0.1
v 5.96046e-08 1.1 0.3
v 0.1 1.1 0.3
v 5.96046e-08 1.1 0.2
v 0.1 1.1 0.2
v -0.2 1.1 0.1
v -0.1 1.1 0.1
v 5.96046e-08 1.1 0.1
v 0.1 1.1 0.1
v 0.2 1.1 0.1
v 0.3 1.1 0.1
v -0.2 1.1 -2.98023e-08
v -0.1 1.1 -2.98023e-08
v 0.2 1.1 -2.98023e-08
v 0.3 1.1 -2.98023e-08
v -0.2 1.1 -0.1
v -0.1 1.1 -0.1
v 0.2 1.1 -0.1
v 0.3 1.1 -0.1
v -0.5 0.4 -0.1
v -0.4 0.4 -0.1
v -0.3 0.4 -0.1
v 0.4 0.4 -0.1
v 0.5 0.4 -0.1
v 0.6 0.4 -0.1
v -0.5 0.4 -0.2
v -0.3 0.4 -0.2
v 0.4 0.4 -0.2
v 0.6 0.4 -0.2
v -0.5 0.5 -2.98023e-08
v -0.4 0.5 -2.98023e-08
v 0.5 0.5 -2.98023e-08
v 0.6 0.5 -2.98023e-08
v -0.5 0.5 -0.1
v -0.4 0.5 -0.1
v 0.5 0.5 -0.1
v 0.6 0.5 -0.1
v -0.5 0.6 0.1
v -0.4 0.6 0.1
v -0.3 0.6 0.1
v 0.4 0.6 0.1
v 0.5 0.6 0.1
v 0.6 0.6 0.1
v -0.5 0.6 -2.98023e-08
v -0.3 0.6 -2.98023e-08
v 0.4 0.6 -2.98023e-08
v 0.6 0.6 -2.98023e-08
v -0.5 0.7 0.3
v -0.4 0.7 0.3
v 0.5 0.7 0.3
v 0.6 0.7 0.3
v -0.5 0.7 0.2
v -0.4 0.7 0.2
v 0.5 0.7 0.2
v 0.6 0.7 0.2
v -0.5 0.7 0.1
v -0.4 0.7 0.1
v 0.5 0.7 0.1
v 0.6 0.7 0.1
v -0.5 0.8 -0.1
v -0.4 0.8 -0.1
v -0.3 0.8 -0.1
v 0.4 0.8 -0.1
v 0.5 0.8 -0.1
v 0.6 0.8 -0.1
v -0.5 0.8 -0.2
v -0.3 0.8 -0.2
v 0.4 0.8 -0.2
v 0.6 0.8 -0.2
v -0.3 0.9 0.2
v 0.4 0.9 0.2
v -0.5 0.9 0.1
v -0.4 0.9 0.1
v 5.96046e-08 0.9 0.1
v 0.1 0.9 0.1
v 0.5 0.9 0.1
v 0.6 0.9 0.1
v -0.5 0.9 -2.98023e-08
v -0.4 0.9 -2.98023e-08
v 5.96046e-08 0.9 -2.98023e-08
v 0.1 0.9 -2.98023e-08
v 0.5 0.9 -2.98023e-08
v 0.6 0.9 -2.98023e-08
v -0.5 0.9 -0.1
v -0.4 0.9 -0.1
v -0.2 0.9 -0.1
v -0.1 0.9 -0.1
v 0.2 0.9 -0.1
v 0.3 0.9 -0.1
v 0.5 0.9 -0.1
v 0.6 0.9 -0.1
v -0.2 0.9 -0.2
v -0.1 0.9 -0.2
v 0.2 0.9 -0.2
v 0.3 0.9 -0.2
v -0.3 0.9 -0.3
v 0.4 0.9 -0.3
v 5.96046e-08 1.1 0.1
v 0.1 1.1 0.1
v 5.96046e-08 1.1 -2.98023e-08
v 0.1 1.1 -2.98023e-08
v -0.2 1.1 -0.1
v -0.1 1.1 -0.1
v 0.2 1.1 -0.1
v 0.3 1.1 -0.1
v -0.2 1.1 -0.2
v -0.1 1.1 -0.2
v 0.2 1.1 -0.2
v 0.3 1.1 -0.2
v 5.96046e-08 1.2 0.3
v 0.1 1.2 0.3
v 5.96046e-08 1.2 0.2
v 0.1 1.2 0.2
v -0.2 1.2 0.1
v -0.1 1.2 0.1
v 5.96046e-08 1.2 0.1
v 0.1 1.2 0.1
v 0.2 1.2 0.1
v 0.3 1.2 0.1
v -0.2 1.2 -2.98023e-08
v -0.1 1.2 -2.98023e-08
v 0.2 1.2 -2.98023e-08
v 0.3 1.2 -2.98023e-08
v -0.2 1.2 -0.1
v -0.1 1.2 -0.1
v 0.2 1.2 -0.1
v 0.3 1.2 -0.1

# faces
f 5/1/1 2/1/1 1/1/1
f 6/1/1 2/1/1 5/1/1
f 7/3/1 4/3/1 3/3/1
f 8/1/1 5/1/1 4/1/1
f 8/3/1 4/3/1 7/3/1
f 9/1/1 5/1/1 8/1/1
f 12/1/1 8/1/1 7/1/1
f 13/1/1 8/1/1 12/1/1
f 14/3/1 11/3/1 10/3/1
f 15/1/1 12/1/1 11/1/1
f 15/3/1 11/3/1 14/3/1
f 16/1/1 12/1/1 15/1/1
f 21/1/1 18/1/1 17/1/1
f 22/1/1 18/1/1 21/1/1
f 23/3/1 20/3/1 19/3/1
f 24/1/1 21/1/1 20/1/1
f 24/3/1 20/3/1 23/3/1
f 25/1/1 21/1/1 24/1/1
f 28/1/1 27/1/1 26/1/1
f 29/1/1 27/1/1 28/1/1
f 30/1/1 28/1/1 26/1/1
f 31/1/1 27/1/1 29/1/1
f 32/1/1 30/1/1 26/1/1
f 32/1/1 31/1/1 30/1/1
f 33/1/1 31/1/1 32/1/1
f 34/1/1 32/1/1 26/1/1
f 35/1/1 31/1/1 33/1/1
f 36/1/1 31/1/1 35/1/1
f 36/1/1 35/1/1 34/1/1
f 37/1/1 27/1/1 31/1/1
f 37/1/1 31/1/1 36/1/1
f 38/1/1 36/1/1 34/1/1
f 39/1/1 27/1/1 37/1/1
f 40/1/1 38/1/1 34/1/1
f 40/1/1 39/1/1 38/1/1
f 40/1/1 34/1/1 26/1/1
f 41/1/1 27/1/1 39/1/1
f 41/1/1 39/1/1 40/1/1
f 46/1/1 43/1/1 42/1/1
f 47/1/1 43/1/1 46/1/1
f 48/3/1 45/3/1 44/3/1
f 49/1/1 46/1/1 45/1/1
f 49/3/1 45/3/1 48/3/1
f 50/1/1 46/1/1 49/1/1
f 55/1/1 52/1/1 51/1/1
f 56/1/1 52/1/1 55/1/1
f 57/3/1 54/3/1 53/3/1
f 58/1/1 55/1/1 54/1/1
f 58/3/1 54/3/1 57/3/1
f 59/1/1 55/1/1 58/1/1
f 64/1/1 61/1/1 60/1/1
f 65/1/1 61/1/1 64/1/1
f 66/3/1 63/3/1 62/3/1
f 67/1/1 64/1/1 63/1/1
f 67/3/1 63/3/1 66/3/1
f 68/1/1 64/1/1 67/1/1
f 72/3/1 70/3/1 69/3/1
f 73/1/1 71/1/1 70/1/1
f 73/3/1 70/3/1 72/3/1
f 74/1/1 71/1/1 73/1/1
f 78/3/1 76/3/1 75/3/1
f 79/1/1 77/1/1 76/1/1
f 79/3/1 76/3/1 78/3/1
f 80/1/1 77/1/1 79/1/1
f 84/3/1 82/3/1 81/3/1
f 85/1/1 83/1/1 82/1/1
f 85/3/1 82/3/1 84/3/1
f 86/1/1 83/1/1 85/1/1
f 87/3/2 88/3/2 90/3/2
f 88/1/2 89/1/2 91/1/2
f 90/3/2 88/3/2 91/3/2
f 91/1/2 89/1/2 92/1/2
f 93/3/2 94/3/2 96/3/2
f 94/1/2 95/1/2 97/1/2
f 96/3/2 94/3/2 97/3/2
f 97/1/2 95/1/2 98/1/2
f 99/3/2 100/3/2 102/3/2
f 100/1/2 101/1/2 103/1/2
f 102/3/2 100/3/2 103/3/2
f 103/1/2 101/1/2 104/1/2
f 105/1/2 106/1/2 109/1/2
f 109/1/2 106/1/2 110/1/2
f 107/3/2 108/3/2 111/3/2
f 108/1/2 109/1/2 112/1/2
f 111/3/2 108/3/2 112/3/2
f 112/1/2 109/1/2 113/1/2
f 114/1/2 115/1/2 118/1/2
f 118/1/2 115/1/2 119/1/2
f 116/3/2 117/3/2 120/3/2
f 117/1/2 118/1/2 121/1/2
f 120/3/2 117/3/2 121/3/2
f 121/1/2 118/1/2 122/1/2
f 123/1/2 124/1/2 127/1/2
f 127/1/2 124/1/2 128/1/2
f 125/3/2 126/3/2 129/3/2
f 126/1/2 127/1/2 130/1/2
f 129/3/2 126/3/2 130/3/2
f 130/1/2 127/1/2 131/1/2
f 132/1/2 133/1/2 134/1/2
f 134/1/2 133/1/2 135/1/2
f 132/1/2 134/1/2 136/1/2
f 135/1/2 133/1/2 137/1/2
f 132/1/2 136/1/2 138/1/2
f 136/1/2 137/1/2 138/1/2
f 138/1/2 137/1/2 139/1/2
f 132/1/2 138/1/2 140/1/2
f 139/1/2 137/1/2 141/1/2
f 141/1/2 137/1/2 142/1/2
f 140/1/2 141/1/2 142/1/2
f 137/1/2 133/1/2 143/1/2
f 142/1/2 137/1/2 143/1/2
f 140/1/2 142/1/2 144/1/2
f 143/1/2 133/1/2 145/1/2
f 140/1/2 144/1/2 146/1/2
f 144/1/2 145/1/2 146/1/2
f 132/1/2 140/1/2 146/1/2
f 145/1/2 133/1/2 147/1/2
f 146/1/2 145/1/2 147/1/2
f 148/1/2 149/1/2 152/1/2
f 152/1/2 149/1/2 153/1/2
f 150/3/2 151/3/2 154/3/2
f 151/1/2 152/1/2 155/1/2
f 154/3/2 151/3/2 155/3/2
f 155/1/2 152/1/2 156/1/2
f 154/1/2 155/1/2 159/1/2
f 159/1/2 155/1/2 160/1/2
f 157/3/2 158/3/2 161/3/2
f 158/1/2 159/1/2 162/1/2
f 161/3/2 158/3/2 162/3/2
f 162/1/2 159/1/2 163/1/2
f 164/1/2 165/1/2 168/1/2
f 168/1/2 165/1/2 169/1/2
f 166/3/2 167/3/2 170/3/2
f 167/1/2 168/1/2 171/1/2
f 170/3/2 167/3/2 171/3/2
f 171/1/2 168/1/2 172/1/2
f 175/3/3 174/3/3 173/3/3
f 176/3/3 174/3/3 175/3/3
f 179/3/3 178/3/3 177/3/3
f 180/3/3 178/3/3 179/3/3
f 183/3/3 182/3/3 181/3/3
f 184/3/3 182/3/3 183/3/3
f 187/1/3 186/1/3 185/1/3
f 188/1/3 186/1/3 187/1/3
f 189/4/3 188/4/3 187/4/3
f 190/1/3 186/1/3 188/1/3
f 190/4/3 188/4/3 189/4/3
f 191/1/3 186/1/3 190/1/3
f 192/1/3 186/1/3 191/1/3
f 193/4/3 189/4/3 187/4/3
f 193/1/3 190/1/3 189/1/3
f 193/1/3 191/1/3 190/1/3
f 194/1/3 191/1/3 193/1/3
f 195/3/3 192/3/3 191/3/3
f 195/1/3 191/1/3 194/1/3
f 196/1/3 186/1/3 192/1/3
f 196/3/3 192/3/3 195/3/3
f 197/4/3 194/4/3 193/4/3
f 197/4/3 193/4/3 187/4/3
f 198/1/3 195/1/3 194/1/3
f 198/4/3 194/4/3 197/4/3
f 199/2/3 196/2/3 195/2/3
f 199/1/3 195/1/3 198/1/3
f 200/1/3 186/1/3 196/1/3
f 200/2/3 196/2/3 199/2/3
f 201/4/3 197/4/3 187/4/3
f 201/1/3 199/1/3 198/1/3
f 201/1/3 198/1/3 197/1/3
f 202/1/3 199/1/3 201/1/3
f 203/3/3 200/3/3 199/3/3
f 203/1/3 199/1/3 202/1/3
f 204/1/3 186/1/3 200/1/3
f 204/3/3 200/3/3 203/3/3
f 205/1/3 187/1/3 185/1/3
f 205/4/3 202/4/3 201/4/3
f 205/4/3 201/4/3 187/4/3
f 206/1/3 203/1/3 202/1/3
f 206/4/3 202/4/3 205/4/3
f 206/1/3 204/1/3 203/1/3
f 207/1/3 205/1/3 185/1/3
f 207/1/3 206/1/3 205/1/3
f 208/1/3 186/1/3 204/1/3
f 208/1/3 206/1/3 207/1/3
f 208/1/3 204/1/3 206/1/3
f 214/3/3 210/3/3 209/3/3
f 215/1/3 211/1/3 210/1/3
f 215/3/3 210/3/3 214/3/3
f 216/1/3 211/1/3 215/1/3
f 217/3/3 213/3/3 212/3/3
f 218/3/3 213/3/3 217/3/3
f 219/1/3 216/1/3 215/1/3
f 220/1/3 216/1/3 219/1/3
f 223/3/3 222/3/3 221/3/3
f 224/3/3 222/3/3 223/3/3
f 227/1/3 226/1/3 225/1/3
f 228/1/3 226/1/3 227/1/3
f 231/3/3 230/3/3 229/3/3
f 232/3/3 230/3/3 231/3/3
f 236/1/3 234/1/3 233/1/3
f 237/1/3 234/1/3 236/1/3
f 240/3/3 236/3/3 235/3/3
f 241/1/3 237/1/3 236/1/3
f 241/3/3 236/3/3 240/3/3
f 242/1/3 237/1/3 241/1/3
f 243/3/3 239/3/3 238/3/3
f 244/3/3 239/3/3 243/3/3
f 249/1/3 246/1/3 245/1/3
f 250/1/3 248/1/3 247/1/3
f 251/1/3 249/1/3 245/1/3
f 252/1/3 249/1/3 251/1/3
f 253/1/3 250/1/3 247/1/3
f 254/1/3 250/1/3 253/1/3
f 257/1/3 256/1/3 255/1/3
f 258/1/3 256/1/3 257/1/3
f 261/1/3 260/1/3 259/1/3
f 262/1/3 260/1/3 261/1/3
f 267/1/3 264/1/3 263/1/3
f 268/1/3 266/1/3 265/1/3
f 269/1/3 267/1/3 263/1/3
f 270/1/3 267/1/3 269/1/3
f 271/1/3 268/1/3 265/1/3
f 272/1/3 268/1/3 271/1/3
f 273/1/4 274/1/4 275/1/4
f 275/1/4 274/1/4 276/1/4
f 277/1/4 278/1/4 279/1/4
f 279/1/4 278/1/4 280/1/4
f 281/1/4 282/1/4 283/1/4
f 283/1/4 282/1/4 284/1/4
f 285/1/4 286/1/4 287/1/4
f 287/1/4 286/1/4 288/1/4
f 288/1/4 286/1/4 289/1/4
f 290/1/4 291/1/4 292/1/4
f 292/1/4 291/1/4 293/1/4
f 294/1/4 295/1/4 296/1/4
f 296/1/4 295/1/4 297/1/4
f 297/1/4 295/1/4 298/1/4
f 299/1/4 300/1/4 303/1/4
f 303/1/4 300/1/4 304/1/4
f 301/1/4 302/1/4 305/1/4
f 305/1/4 302/1/4 306/1/4
f 307/1/4 308/1/4 309/1/4
f 309/1/4 308/1/4 310/1/4
f 311/1/4 312/1/4 313/1/4
f 313/1/4 312/1/4 314/1/4
f 315/1/4 316/1/4 319/1/4
f 319/1/4 316/1/4 320/1/4
f 317/1/4 318/1/4 321/1/4
f 321/1/4 318/1/4 322/1/4
f 323/1/4 324/1/4 327/1/4
f 327/1/4 324/1/4 328/1/4
f 325/1/4 326/1/4 329/1/4
f 329/1/4 326/1/4 330/1/4
f 331/1/4 332/1/4 333/1/4
f 333/1/4 332/1/4 334/1/4
f 335/1/4 336/1/4 337/1/4
f 337/1/4 336/1/4 338/1/4
f 339/1/4 340/1/4 343/1/4
f 343/1/4 340/1/4 344/1/4
f 341/1/4 342/1/4 345/1/4
f 345/1/4 342/1/4 346/1/4
f 347/1/4 348/1/4 349/1/4
f 349/1/4 348/1/4 350/1/4
f 353/1/5 352/1/5 351/1/5
f 354/1/5 352/1/5 353/1/5
f 359/1/5 356/1/5 355/1/5
f 360/1/5 356/1/5 359/1/5
f 361/1/5 358/1/5 357/1/5
f 362/1/5 358/1/5 361/1/5
f 367/3/5 364/3/5 363/3/5
f 368/3/5 364/3/5 367/3/5
f 369/3/5 366/3/5 365/3/5
f 370/3/5 366/3/5 369/3/5
f 371/1/5 368/1/5 367/1/5
f 372/1/5 368/1/5 371/1/5
f 373/1/5 370/1/5 369/1/5
f 374/1/5 370/1/5 373/1/5
f 379/1/5 376/1/5 375/1/5
f 380/1/5 376/1/5 379/1/5
f 381/1/5 378/1/5 377/1/5
f 382/1/5 378/1/5 381/1/5
f 387/3/5 384/3/5 383/3/5
f 388/3/5 384/3/5 387/3/5
f 389/3/5 386/3/5 385/3/5
f 390/3/5 386/3/5 389/3/5
f 391/1/5 388/1/5 387/1/5
f 392/1/5 388/1/5 391/1/5
f 393/1/5 390/1/5 389/1/5
f 394/1/5 390/1/5 393/1/5
f 399/1/5 396/1/5 395/1/5
f 400/1/5 396/1/5 399/1/5
f 401/1/5 398/1/5 397/1/5
f 402/1/5 398/1/5 401/1/5
f 407/3/5 404/3/5 403/3/5
f 408/3/5 404/3/5 407/3/5
f 409/3/5 406/3/5 405/3/5
f 410/3/5 406/3/5 409/3/5
f 411/1/5 408/1/5 407/1/5
f 412/1/5 408/1/5 411/1/5
f 413/1/5 410/1/5 409/1/5
f 414/1/5 410/1/5 413/1/5
f 417/3/5 416/3/5 415/3/5
f 418/3/5 416/3/5 417/3/5
f 421/1/5 418/1/5 417/1/5
f 422/1/5 418/1/5 421/1/5
f 425/3/5 420/3/5 419/3/5
f 426/3/5 420/3/5 425/3/5
f 427/3/5 424/3/5 423/3/5
f 428/3/5 424/3/5 427/3/5
f 429/1/5 426/1/5 425/1/5
f 430/1/5 426/1/5 429/1/5
f 431/1/5 428/1/5 427/1/5
f 432/1/5 428/1/5 431/1/5
f 433/1/6 434/1/6 439/1/6
f 434/1/6 435/1/6 439/1/6
f 439/1/6 435/1/6 440/1/6
f 437/1/6 438/1/6 441/1/6
f 436/1/6 437/1/6 441/1/6
f 441/1/6 438/1/6 442/1/6
f 443/1/6 444/1/6 447/1/6
f 447/1/6 444/1/6 448/1/6
f 445/1/6 446/1/6 449/1/6
f 449/1/6 446/1/6 450/1/6
f 451/1/6 452/1/6 457/1/6
f 452/1/6 453/1/6 457/1/6
f 457/1/6 453/1/6 458/1/6
f 455/1/6 456/1/6 459/1/6
f 454/1/6 455/1/6 459/1/6
f 459/1/6 456/1/6 460/1/6
f 461/3/6 462/3/6 465/3/6
f 465/3/6 462/3/6 466/3/6
f 463/3/6 464/3/6 467/3/6
f 467/3/6 464/3/6 468/3/6
f 465/1/6 466/1/6 469/1/6
f 469/1/6 466/1/6 470/1/6
f 467/1/6 468/1/6 471/1/6
f 471/1/6 468/1/6 472/1/6
f 473/1/6 474/1/6 479/1/6
f 474/1/6 475/1/6 479/1/6
f 479/1/6 475/1/6 480/1/6
f 477/1/6 478/1/6 481/1/6
f 476/1/6 477/1/6 481/1/6
f 481/1/6 478/1/6 482/1/6
f 483/1/6 484/1/6 487/1/6
f 487/1/6 484/1/6 488/1/6
f 485/3/6 486/3/6 491/3/6
f 491/3/6 486/3/6 492/3/6
f 483/1/6 487/1/6 493/1/6
f 488/1/6 484/1/6 494/1/6
f 489/3/6 490/3/6 495/3/6
f 495/3/6 490/3/6 496/3/6
f 491/1/6 492/1/6 497/1/6
f 497/1/6 492/1/6 498/1/6
f 493/1/6 494/1/6 499/1/6
f 483/1/6 493/1/6 499/1/6
f 499/1/6 494/1/6 500/1/6
f 494/1/6 484/1/6 501/1/6
f 500/1/6 494/1/6 501/1/6
f 501/1/6 484/1/6 502/1/6
f 495/1/6 496/1/6 503/1/6
f 503/1/6 496/1/6 504/1/6
f 483/1/6 499/1/6 505/1/6
f 500/1/6 501/1/6 506/1/6
f 506/1/6 501/1/6 507/1/6
f 502/1/6 484/1/6 508/1/6
f 506/1/6 507/1/6 509/1/6
f 507/1/6 508/1/6 509/1/6
f 483/1/6 505/1/6 509/1/6
f 505/1/6 506/1/6 509/1/6
f 508/1/6 484/1/6 510/1/6
f 509/1/6 508/1/6 510/1/6
f 511/1/6 512/1/6 513/1/6
f 513/1/6 512/1/6 514/1/6
f 515/1/6 516/1/6 519/1/6
f 519/1/6 516/1/6 520/1/6
f 517/1/6 518/1/6 521/1/6
f 521/1/6 518/1/6 522/1/6
f 523/3/6 524/3/6 525/3/6
f 525/3/6 524/3/6 526/3/6
f 525/1/6 526/1/6 529/1/6
f 529/1/6 526/1/6 530/1/6
f 527/3/6 528/3/6 533/3/6
f 533/3/6 528/3/6 534/3/6
f 531/3/6 532/3/6 535/3/6
f 535/3/6 532/3/6 536/3/6
f 533/1/6 534/1/6 537/1/6
f 537/1/6 534/1/6 538/1/6
f 535/1/6 536/1/6 539/1/6
f 539/1/6 536/1/6 540/1/6
