# MagicaVoxel @ Ephtracy

# group
o 

# material
mtllib beholder_walk_2.mtl
usemtl palette

# normals
vn -1 0 0
vn 1 0 0
vn 0 0 1
vn 0 0 -1
vn 0 -1 0
vn 0 1 0

# texcoords
vt 0.751953 0.5
vt 0.818359 0.5
vt 0.947266 0.5
vt 0.970703 0.5

# verts
v -0.5 0.4 0.1
v -0.5 0.4 -2.98023e-08
v -0.5 0.4 -0.2
v -0.5 0.5 0.1
v -0.5 0.5 -2.98023e-08
v -0.5 0.5 -0.2
v -0.5 0.6 0.3
v -0.5 0.6 0.2
v -0.5 0.6 -2.98023e-08
v -0.5 0.7 0.3
v -0.5 0.7 0.2
v -0.5 0.7 -2.98023e-08
v -0.5 0.8 0.1
v -0.5 0.8 -2.98023e-08
v -0.5 0.8 -0.2
v -0.5 0.9 0.1
v -0.5 0.9 -2.98023e-08
v -0.5 0.9 -0.2
v -0.3 0.3 0.2
v -0.3 0.3 -0.3
v -0.3 0.4 -0.1
v -0.3 0.4 -0.2
v -0.3 0.5 -0.1
v -0.3 0.5 -0.2
v -0.3 0.6 0.1
v -0.3 0.6 -2.98023e-08
v -0.3 0.7 0.1
v -0.3 0.7 -2.98023e-08
v -0.3 0.8 -0.1
v -0.3 0.8 -0.2
v -0.3 0.9 -0.1
v -0.3 0.9 -0.2
v -0.3 1 0.2
v -0.3 1 -0.3
v -0.2 1 -0.1
v -0.2 1 -0.2
v -0.2 1.1 0.1
v -0.2 1.1 -2.98023e-08
v -0.2 1.1 -0.1
v -0.2 1.2 0.1
v -0.2 1.2 -2.98023e-08
v -0.2 1.2 -0.2
v 5.96046e-08 1 0.1
v 5.96046e-08 1 -2.98023e-08
v 5.96046e-08 1.1 0.3
v 5.96046e-08 1.1 0.2
v 5.96046e-08 1.1 0.1
v 5.96046e-08 1.2 0.3
v 5.96046e-08 1.2 0.2
v 5.96046e-08 1.2 -2.98023e-08
v 0.2 1 -0.1
v 0.2 1 -0.2
v 0.2 1.1 0.1
v 0.2 1.1 -2.98023e-08
v 0.2 1.1 -0.1
v 0.2 1.2 0.1
v 0.2 1.2 -2.98023e-08
v 0.2 1.2 -0.2
v 0.5 0.4 0.1
v 0.5 0.4 -2.98023e-08
v 0.5 0.4 -0.1
v 0.5 0.5 0.1
v 0.5 0.5 -2.98023e-08
v 0.5 0.5 -0.1
v 0.5 0.6 0.3
v 0.5 0.6 0.2
v 0.5 0.6 0.1
v 0.5 0.7 0.3
v 0.5 0.7 0.2
v 0.5 0.7 0.1
v 0.5 0.8 0.1
v 0.5 0.8 -2.98023e-08
v 0.5 0.8 -0.1
v 0.5 0.9 0.1
v 0.5 0.9 -2.98023e-08
v 0.5 0.9 -0.1
v -0.4 0.4 0.1
v -0.4 0.4 -2.98023e-08
v -0.4 0.4 -0.1
v -0.4 0.5 0.1
v -0.4 0.5 -2.98023e-08
v -0.4 0.5 -0.1
v -0.4 0.6 0.3
v -0.4 0.6 0.2
v -0.4 0.6 0.1
v -0.4 0.7 0.3
v -0.4 0.7 0.2
v -0.4 0.7 0.1
v -0.4 0.8 0.1
v -0.4 0.8 -2.98023e-08
v -0.4 0.8 -0.1
v -0.4 0.9 0.1
v -0.4 0.9 -2.98023e-08
v -0.4 0.9 -0.1
v -0.1 1 -0.1
v -0.1 1 -0.2
v -0.1 1.1 0.1
v -0.1 1.1 -2.98023e-08
v -0.1 1.1 -0.1
v -0.1 1.2 0.1
v -0.1 1.2 -2.98023e-08
v -0.1 1.2 -0.2
v 0.1 1 0.1
v 0.1 1 -2.98023e-08
v 0.1 1.1 0.3
v 0.1 1.1 0.2
v 0.1 1.1 0.1
v 0.1 1.2 0.3
v 0.1 1.2 0.2
v 0.1 1.2 -2.98023e-08
v 0.3 1 -0.1
v 0.3 1 -0.2
v 0.3 1.1 0.1
v 0.3 1.1 -2.98023e-08
v 0.3 1.1 -0.1
v 0.3 1.2 0.1
v 0.3 1.2 -2.98023e-08
v 0.3 1.2 -0.2
v 0.4 0.3 0.2
v 0.4 0.3 -0.3
v 0.4 0.4 -0.1
v 0.4 0.4 -0.2
v 0.4 0.5 -0.1
v 0.4 0.5 -0.2
v 0.4 0.6 0.1
v 0.4 0.6 -2.98023e-08
v 0.4 0.7 0.1
v 0.4 0.7 -2.98023e-08
v 0.4 0.8 -0.1
v 0.4 0.8 -0.2
v 0.4 0.9 -0.1
v 0.4 0.9 -0.2
v 0.4 1 0.2
v 0.4 1 -0.3
v 0.6 0.4 0.1
v 0.6 0.4 -2.98023e-08
v 0.6 0.4 -0.2
v 0.6 0.5 0.1
v 0.6 0.5 -2.98023e-08
v 0.6 0.5 -0.2
v 0.6 0.6 0.3
v 0.6 0.6 0.2
v 0.6 0.6 -2.98023e-08
v 0.6 0.7 0.3
v 0.6 0.7 0.2
v 0.6 0.7 -2.98023e-08
v 0.6 0.8 0.1
v 0.6 0.8 -2.98023e-08
v 0.6 0.8 -0.2
v 0.6 0.9 0.1
v 0.6 0.9 -2.98023e-08
v 0.6 0.9 -0.2
v -0.5 0.6 0.3
v -0.5 0.7 0.3
v -0.4 0.6 0.3
v -0.4 0.7 0.3
v 5.96046e-08 1.1 0.3
v 5.96046e-08 1.2 0.3
v 0.1 1.1 0.3
v 0.1 1.2 0.3
v 0.5 0.6 0.3
v 0.5 0.7 0.3
v 0.6 0.6 0.3
v 0.6 0.7 0.3
v -0.3 0.3 0.2
v -0.3 1 0.2
v -0.2 0.4 0.2
v -0.2 0.6 0.2
v -0.1 0.5 0.2
v -0.1 0.6 0.2
v -0.1 0.7 0.2
v -0.1 0.9 0.2
v 5.96046e-08 0.5 0.2
v 5.96046e-08 0.6 0.2
v 5.96046e-08 0.7 0.2
v 5.96046e-08 0.9 0.2
v 0.1 0.5 0.2
v 0.1 0.6 0.2
v 0.1 0.7 0.2
v 0.1 0.9 0.2
v 0.2 0.5 0.2
v 0.2 0.6 0.2
v 0.2 0.7 0.2
v 0.2 0.9 0.2
v 0.3 0.4 0.2
v 0.3 0.6 0.2
v 0.4 0.3 0.2
v 0.4 1 0.2
v -0.5 0.4 0.1
v -0.5 0.5 0.1
v -0.5 0.8 0.1
v -0.5 0.9 0.1
v -0.4 0.4 0.1
v -0.4 0.5 0.1
v -0.4 0.6 0.1
v -0.4 0.7 0.1
v -0.4 0.8 0.1
v -0.4 0.9 0.1
v -0.3 0.6 0.1
v -0.3 0.7 0.1
v -0.2 1.1 0.1
v -0.2 1.2 0.1
v -0.1 1.1 0.1
v -0.1 1.2 0.1
v 5.96046e-08 1 0.1
v 5.96046e-08 1.1 0.1
v 0.1 1 0.1
v 0.1 1.1 0.1
v 0.2 1.1 0.1
v 0.2 1.2 0.1
v 0.3 1.1 0.1
v 0.3 1.2 0.1
v 0.4 0.6 0.1
v 0.4 0.7 0.1
v 0.5 0.4 0.1
v 0.5 0.5 0.1
v 0.5 0.6 0.1
v 0.5 0.7 0.1
v 0.5 0.8 0.1
v 0.5 0.9 0.1
v 0.6 0.4 0.1
v 0.6 0.5 0.1
v 0.6 0.8 0.1
v 0.6 0.9 0.1
v -0.4 0.4 -0.1
v -0.4 0.5 -0.1
v -0.4 0.8 -0.1
v -0.4 0.9 -0.1
v -0.3 0.4 -0.1
v -0.3 0.5 -0.1
v -0.3 0.8 -0.1
v -0.3 0.9 -0.1
v -0.2 1 -0.1
v -0.2 1.1 -0.1
v -0.1 1 -0.1
v -0.1 1.1 -0.1
v 0.2 1 -0.1
v 0.2 1.1 -0.1
v 0.3 1 -0.1
v 0.3 1.1 -0.1
v 0.4 0.4 -0.1
v 0.4 0.5 -0.1
v 0.4 0.8 -0.1
v 0.4 0.9 -0.1
v 0.5 0.4 -0.1
v 0.5 0.5 -0.1
v 0.5 0.8 -0.1
v 0.5 0.9 -0.1
v -0.5 0.6 -2.98023e-08
v -0.5 0.7 -2.98023e-08
v -0.3 0.6 -2.98023e-08
v -0.3 0.7 -2.98023e-08
v 5.96046e-08 1 -2.98023e-08
v 5.96046e-08 1.2 -2.98023e-08
v 0.1 1 -2.98023e-08
v 0.1 1.2 -2.98023e-08
v 0.4 0.6 -2.98023e-08
v 0.4 0.7 -2.98023e-08
v 0.6 0.6 -2.98023e-08
v 0.6 0.7 -2.98023e-08
v -0.5 0.4 -0.2
v -0.5 0.5 -0.2
v -0.5 0.8 -0.2
v -0.5 0.9 -0.2
v -0.3 0.4 -0.2
v -0.3 0.5 -0.2
v -0.3 0.8 -0.2
v -0.3 0.9 -0.2
v -0.2 1 -0.2
v -0.2 1.2 -0.2
v -0.1 1 -0.2
v -0.1 1.2 -0.2
v 0.2 1 -0.2
v 0.2 1.2 -0.2
v 0.3 1 -0.2
v 0.3 1.2 -0.2
v 0.4 0.4 -0.2
v 0.4 0.5 -0.2
v 0.4 0.8 -0.2
v 0.4 0.9 -0.2
v 0.6 0.4 -0.2
v 0.6 0.5 -0.2
v 0.6 0.8 -0.2
v 0.6 0.9 -0.2
v -0.3 0.3 -0.3
v -0.3 1 -0.3
v 0.4 0.3 -0.3
v 0.4 1 -0.3
v -0.3 0.3 0.2
v 0.4 0.3 0.2
v -0.3 0.3 -0.3
v 0.4 0.3 -0.3
v -0.5 0.4 0.1
v -0.4 0.4 0.1
v 0.5 0.4 0.1
v 0.6 0.4 0.1
v -0.5 0.4 -2.98023e-08
v -0.4 0.4 -2.98023e-08
v 0.5 0.4 -2.98023e-08
v 0.6 0.4 -2.98023e-08
v -0.4 0.4 -0.1
v -0.3 0.4 -0.1
v 0.4 0.4 -0.1
v 0.5 0.4 -0.1
v -0.5 0.4 -0.2
v -0.3 0.4 -0.2
v 0.4 0.4 -0.2
v 0.6 0.4 -0.2
v -0.5 0.6 0.3
v -0.4 0.6 0.3
v 0.5 0.6 0.3
v 0.6 0.6 0.3
v -0.5 0.6 0.2
v -0.4 0.6 0.2
v 0.5 0.6 0.2
v 0.6 0.6 0.2
v -0.4 0.6 0.1
v -0.3 0.6 0.1
v 0.4 0.6 0.1
v 0.5 0.6 0.1
v -0.5 0.6 -2.98023e-08
v -0.3 0.6 -2.98023e-08
v 0.4 0.6 -2.98023e-08
v 0.6 0.6 -2.98023e-08
v -0.5 0.8 0.1
v -0.4 0.8 0.1
v 0.5 0.8 0.1
v 0.6 0.8 0.1
v -0.5 0.8 -2.98023e-08
v -0.4 0.8 -2.98023e-08
v 0.5 0.8 -2.98023e-08
v 0.6 0.8 -2.98023e-08
v -0.4 0.8 -0.1
v -0.3 0.8 -0.1
v 0.4 0.8 -0.1
v 0.5 0.8 -0.1
v -0.5 0.8 -0.2
v -0.3 0.8 -0.2
v 0.4 0.8 -0.2
v 0.6 0.8 -0.2
v 5.96046e-08 1.1 0.3
v 0.1 1.1 0.3
v 5.96046e-08 1.1 0.2
v 0.1 1.1 0.2
v -0.2 1.1 0.1
v -0.1 1.1 0.1
v 5.96046e-08 1.1 0.1
v 0.1 1.1 0.1
v 0.2 1.1 0.1
v 0.3 1.1 0.1
v -0.2 1.1 -2.98023e-08
v -0.1 1.1 -2.98023e-08
v 0.2 1.1 -2.98023e-08
v 0.3 1.1 -2.98023e-08
v -0.2 1.1 -0.1
v -0.1 1.1 -0.1
v 0.2 1.1 -0.1
v 0.3 1.1 -0.1
v -0.5 0.5 0.1
v -0.4 0.5 0.1
v 0.5 0.5 0.1
v 0.6 0.5 0.1
v -0.5 0.5 -2.98023e-08
v -0.4 0.5 -2.98023e-08
v 0.5 0.5 -2.98023e-08
v 0.6 0.5 -2.98023e-08
v -0.4 0.5 -0.1
v -0.3 0.5 -0.1
v 0.4 0.5 -0.1
v 0.5 0.5 -0.1
v -0.5 0.5 -0.2
v -0.3 0.5 -0.2
v 0.4 0.5 -0.2
v 0.6 0.5 -0.2
v -0.5 0.7 0.3
v -0.4 0.7 0.3
v 0.5 0.7 0.3
v 0.6 0.7 0.3
v -0.5 0.7 0.2
v -0.4 0.7 0.2
v 0.5 0.7 0.2
v 0.6 0.7 0.2
v -0.4 0.7 0.1
v -0.3 0.7 0.1
v 0.4 0.7 0.1
v 0.5 0.7 0.1
v -0.5 0.7 -2.98023e-08
v -0.3 0.7 -2.98023e-08
v 0.4 0.7 -2.98023e-08
v 0.6 0.7 -2.98023e-08
v -0.5 0.9 0.1
v -0.4 0.9 0.1
v 0.5 0.9 0.1
v 0.6 0.9 0.1
v -0.5 0.9 -2.98023e-08
v -0.4 0.9 -2.98023e-08
v 0.5 0.9 -2.98023e-08
v 0.6 0.9 -2.98023e-08
v -0.4 0.9 -0.1
v -0.3 0.9 -0.1
v 0.4 0.9 -0.1
v 0.5 0.9 -0.1
v -0.5 0.9 -0.2
v -0.3 0.9 -0.2
v 0.4 0.9 -0.2
v 0.6 0.9 -0.2
v -0.3 1 0.2
v 0.4 1 0.2
v 5.96046e-08 1 0.1
v 0.1 1 0.1
v 5.96046e-08 1 -2.98023e-08
v 0.1 1 -2.98023e-08
v -0.2 1 -0.1
v -0.1 1 -0.1
v 0.2 1 -0.1
v 0.3 1 -0.1
v -0.2 1 -0.2
v -0.1 1 -0.2
v 0.2 1 -0.2
v 0.3 1 -0.2
v -0.3 1 -0.3
v 0.4 1 -0.3
v 5.96046e-08 1.2 0.3
v 0.1 1.2 0.3
v 5.96046e-08 1.2 0.2
v 0.1 1.2 0.2
v -0.2 1.2 0.1
v -0.1 1.2 0.1
v 0.2 1.2 0.1
v 0.3 1.2 0.1
v -0.2 1.2 -2.98023e-08
v -0.1 1.2 -2.98023e-08
v 5.96046e-08 1.2 -2.98023e-08
v 0.1 1.2 -2.98023e-08
v 0.2 1.2 -2.98023e-08
v 0.3 1.2 -2.98023e-08
v -0.2 1.2 -0.2
v -0.1 1.2 -0.2
v 0.2 1.2 -0.2
v 0.3 1.2 -0.2

# faces
f 4/3/1 2/3/1 1/3/1
f 5/1/1 3/1/1 2/1/1
f 5/3/1 2/3/1 4/3/1
f 6/1/1 3/1/1 5/1/1
f 10/3/1 8/3/1 7/3/1
f 11/1/1 9/1/1 8/1/1
f 11/3/1 8/3/1 10/3/1
f 12/1/1 9/1/1 11/1/1
f 16/3/1 14/3/1 13/3/1
f 17/1/1 15/1/1 14/1/1
f 17/3/1 14/3/1 16/3/1
f 18/1/1 15/1/1 17/1/1
f 21/1/1 20/1/1 19/1/1
f 22/1/1 20/1/1 21/1/1
f 23/1/1 21/1/1 19/1/1
f 24/1/1 20/1/1 22/1/1
f 25/1/1 23/1/1 19/1/1
f 25/1/1 24/1/1 23/1/1
f 26/1/1 24/1/1 25/1/1
f 27/1/1 25/1/1 19/1/1
f 28/1/1 24/1/1 26/1/1
f 29/1/1 24/1/1 28/1/1
f 29/1/1 28/1/1 27/1/1
f 30/1/1 20/1/1 24/1/1
f 30/1/1 24/1/1 29/1/1
f 31/1/1 29/1/1 27/1/1
f 32/1/1 20/1/1 30/1/1
f 33/1/1 31/1/1 27/1/1
f 33/1/1 32/1/1 31/1/1
f 33/1/1 27/1/1 19/1/1
f 34/1/1 20/1/1 32/1/1
f 34/1/1 32/1/1 33/1/1
f 39/1/1 36/1/1 35/1/1
f 40/3/1 38/3/1 37/3/1
f 41/1/1 39/1/1 38/1/1
f 41/3/1 38/3/1 40/3/1
f 42/1/1 36/1/1 39/1/1
f 42/1/1 39/1/1 41/1/1
f 47/1/1 44/1/1 43/1/1
f 48/3/1 46/3/1 45/3/1
f 49/1/1 47/1/1 46/1/1
f 49/3/1 46/3/1 48/3/1
f 50/1/1 44/1/1 47/1/1
f 50/1/1 47/1/1 49/1/1
f 55/1/1 52/1/1 51/1/1
f 56/3/1 54/3/1 53/3/1
f 57/1/1 55/1/1 54/1/1
f 57/3/1 54/3/1 56/3/1
f 58/1/1 52/1/1 55/1/1
f 58/1/1 55/1/1 57/1/1
f 62/3/1 60/3/1 59/3/1
f 63/1/1 61/1/1 60/1/1
f 63/3/1 60/3/1 62/3/1
f 64/1/1 61/1/1 63/1/1
f 68/3/1 66/3/1 65/3/1
f 69/1/1 67/1/1 66/1/1
f 69/3/1 66/3/1 68/3/1
f 70/1/1 67/1/1 69/1/1
f 74/3/1 72/3/1 71/3/1
f 75/1/1 73/1/1 72/1/1
f 75/3/1 72/3/1 74/3/1
f 76/1/1 73/1/1 75/1/1
f 77/3/2 78/3/2 80/3/2
f 78/1/2 79/1/2 81/1/2
f 80/3/2 78/3/2 81/3/2
f 81/1/2 79/1/2 82/1/2
f 83/3/2 84/3/2 86/3/2
f 84/1/2 85/1/2 87/1/2
f 86/3/2 84/3/2 87/3/2
f 87/1/2 85/1/2 88/1/2
f 89/3/2 90/3/2 92/3/2
f 90/1/2 91/1/2 93/1/2
f 92/3/2 90/3/2 93/3/2
f 93/1/2 91/1/2 94/1/2
f 95/1/2 96/1/2 99/1/2
f 97/3/2 98/3/2 100/3/2
f 98/1/2 99/1/2 101/1/2
f 100/3/2 98/3/2 101/3/2
f 99/1/2 96/1/2 102/1/2
f 101/1/2 99/1/2 102/1/2
f 103/1/2 104/1/2 107/1/2
f 105/3/2 106/3/2 108/3/2
f 106/1/2 107/1/2 109/1/2
f 108/3/2 106/3/2 109/3/2
f 107/1/2 104/1/2 110/1/2
f 109/1/2 107/1/2 110/1/2
f 111/1/2 112/1/2 115/1/2
f 113/3/2 114/3/2 116/3/2
f 114/1/2 115/1/2 117/1/2
f 116/3/2 114/3/2 117/3/2
f 115/1/2 112/1/2 118/1/2
f 117/1/2 115/1/2 118/1/2
f 119/1/2 120/1/2 121/1/2
f 121/1/2 120/1/2 122/1/2
f 119/1/2 121/1/2 123/1/2
f 122/1/2 120/1/2 124/1/2
f 119/1/2 123/1/2 125/1/2
f 123/1/2 124/1/2 125/1/2
f 125/1/2 124/1/2 126/1/2
f 119/1/2 125/1/2 127/1/2
f 126/1/2 124/1/2 128/1/2
f 128/1/2 124/1/2 129/1/2
f 127/1/2 128/1/2 129/1/2
f 124/1/2 120/1/2 130/1/2
f 129/1/2 124/1/2 130/1/2
f 127/1/2 129/1/2 131/1/2
f 130/1/2 120/1/2 132/1/2
f 127/1/2 131/1/2 133/1/2
f 131/1/2 132/1/2 133/1/2
f 119/1/2 127/1/2 133/1/2
f 132/1/2 120/1/2 134/1/2
f 133/1/2 132/1/2 134/1/2
f 135/3/2 136/3/2 138/3/2
f 136/1/2 137/1/2 139/1/2
f 138/3/2 136/3/2 139/3/2
f 139/1/2 137/1/2 140/1/2
f 141/3/2 142/3/2 144/3/2
f 142/1/2 143/1/2 145/1/2
f 144/3/2 142/3/2 145/3/2
f 145/1/2 143/1/2 146/1/2
f 147/3/2 148/3/2 150/3/2
f 148/1/2 149/1/2 151/1/2
f 150/3/2 148/3/2 151/3/2
f 151/1/2 149/1/2 152/1/2
f 155/3/3 154/3/3 153/3/3
f 156/3/3 154/3/3 155/3/3
f 159/3/3 158/3/3 157/3/3
f 160/3/3 158/3/3 159/3/3
f 163/3/3 162/3/3 161/3/3
f 164/3/3 162/3/3 163/3/3
f 167/1/3 166/1/3 165/1/3
f 168/1/3 166/1/3 167/1/3
f 169/4/3 168/4/3 167/4/3
f 170/1/3 166/1/3 168/1/3
f 170/4/3 168/4/3 169/4/3
f 171/1/3 166/1/3 170/1/3
f 172/1/3 166/1/3 171/1/3
f 173/4/3 169/4/3 167/4/3
f 173/1/3 170/1/3 169/1/3
f 173/1/3 171/1/3 170/1/3
f 174/1/3 171/1/3 173/1/3
f 175/3/3 172/3/3 171/3/3
f 175/1/3 171/1/3 174/1/3
f 176/1/3 166/1/3 172/1/3
f 176/3/3 172/3/3 175/3/3
f 177/4/3 174/4/3 173/4/3
f 177/4/3 173/4/3 167/4/3
f 178/1/3 175/1/3 174/1/3
f 178/4/3 174/4/3 177/4/3
f 179/2/3 176/2/3 175/2/3
f 179/1/3 175/1/3 178/1/3
f 180/1/3 166/1/3 176/1/3
f 180/2/3 176/2/3 179/2/3
f 181/4/3 177/4/3 167/4/3
f 181/1/3 179/1/3 178/1/3
f 181/1/3 178/1/3 177/1/3
f 182/1/3 179/1/3 181/1/3
f 183/3/3 180/3/3 179/3/3
f 183/1/3 179/1/3 182/1/3
f 184/1/3 166/1/3 180/1/3
f 184/3/3 180/3/3 183/3/3
f 185/1/3 167/1/3 165/1/3
f 185/4/3 182/4/3 181/4/3
f 185/4/3 181/4/3 167/4/3
f 186/1/3 183/1/3 182/1/3
f 186/4/3 182/4/3 185/4/3
f 186/1/3 184/1/3 183/1/3
f 187/1/3 185/1/3 165/1/3
f 187/1/3 186/1/3 185/1/3
f 188/1/3 166/1/3 184/1/3
f 188/1/3 186/1/3 187/1/3
f 188/1/3 184/1/3 186/1/3
f 193/3/3 190/3/3 189/3/3
f 194/3/3 190/3/3 193/3/3
f 197/3/3 192/3/3 191/3/3
f 198/3/3 192/3/3 197/3/3
f 199/1/3 196/1/3 195/1/3
f 200/1/3 196/1/3 199/1/3
f 203/3/3 202/3/3 201/3/3
f 204/3/3 202/3/3 203/3/3
f 207/1/3 206/1/3 205/1/3
f 208/1/3 206/1/3 207/1/3
f 211/3/3 210/3/3 209/3/3
f 212/3/3 210/3/3 211/3/3
f 217/1/3 214/1/3 213/1/3
f 218/1/3 214/1/3 217/1/3
f 221/3/3 216/3/3 215/3/3
f 222/3/3 216/3/3 221/3/3
f 223/3/3 220/3/3 219/3/3
f 224/3/3 220/3/3 223/3/3
f 229/1/3 226/1/3 225/1/3
f 230/1/3 226/1/3 229/1/3
f 231/1/3 228/1/3 227/1/3
f 232/1/3 228/1/3 231/1/3
f 235/1/3 234/1/3 233/1/3
f 236/1/3 234/1/3 235/1/3
f 239/1/3 238/1/3 237/1/3
f 240/1/3 238/1/3 239/1/3
f 245/1/3 242/1/3 241/1/3
f 246/1/3 242/1/3 245/1/3
f 247/1/3 244/1/3 243/1/3
f 248/1/3 244/1/3 247/1/3
f 249/1/4 250/1/4 251/1/4
f 251/1/4 250/1/4 252/1/4
f 253/1/4 254/1/4 255/1/4
f 255/1/4 254/1/4 256/1/4
f 257/1/4 258/1/4 259/1/4
f 259/1/4 258/1/4 260/1/4
f 261/1/4 262/1/4 265/1/4
f 265/1/4 262/1/4 266/1/4
f 263/1/4 264/1/4 267/1/4
f 267/1/4 264/1/4 268/1/4
f 269/1/4 270/1/4 271/1/4
f 271/1/4 270/1/4 272/1/4
f 273/1/4 274/1/4 275/1/4
f 275/1/4 274/1/4 276/1/4
f 277/1/4 278/1/4 281/1/4
f 281/1/4 278/1/4 282/1/4
f 279/1/4 280/1/4 283/1/4
f 283/1/4 280/1/4 284/1/4
f 285/1/4 286/1/4 287/1/4
f 287/1/4 286/1/4 288/1/4
f 291/1/5 290/1/5 289/1/5
f 292/1/5 290/1/5 291/1/5
f 297/3/5 294/3/5 293/3/5
f 298/3/5 294/3/5 297/3/5
f 299/3/5 296/3/5 295/3/5
f 300/3/5 296/3/5 299/3/5
f 301/1/5 298/1/5 297/1/5
f 304/1/5 300/1/5 299/1/5
f 305/1/5 302/1/5 301/1/5
f 305/1/5 301/1/5 297/1/5
f 306/1/5 302/1/5 305/1/5
f 307/1/5 304/1/5 303/1/5
f 308/1/5 300/1/5 304/1/5
f 308/1/5 304/1/5 307/1/5
f 313/3/5 310/3/5 309/3/5
f 314/3/5 310/3/5 313/3/5
f 315/3/5 312/3/5 311/3/5
f 316/3/5 312/3/5 315/3/5
f 317/1/5 314/1/5 313/1/5
f 320/1/5 316/1/5 315/1/5
f 321/1/5 318/1/5 317/1/5
f 321/1/5 317/1/5 313/1/5
f 322/1/5 318/1/5 321/1/5
f 323/1/5 320/1/5 319/1/5
f 324/1/5 316/1/5 320/1/5
f 324/1/5 320/1/5 323/1/5
f 329/3/5 326/3/5 325/3/5
f 330/3/5 326/3/5 329/3/5
f 331/3/5 328/3/5 327/3/5
f 332/3/5 328/3/5 331/3/5
f 333/1/5 330/1/5 329/1/5
f 336/1/5 332/1/5 331/1/5
f 337/1/5 334/1/5 333/1/5
f 337/1/5 333/1/5 329/1/5
f 338/1/5 334/1/5 337/1/5
f 339/1/5 336/1/5 335/1/5
f 340/1/5 332/1/5 336/1/5
f 340/1/5 336/1/5 339/1/5
f 343/3/5 342/3/5 341/3/5
f 344/3/5 342/3/5 343/3/5
f 347/1/5 344/1/5 343/1/5
f 348/1/5 344/1/5 347/1/5
f 351/3/5 346/3/5 345/3/5
f 352/3/5 346/3/5 351/3/5
f 353/3/5 350/3/5 349/3/5
f 354/3/5 350/3/5 353/3/5
f 355/1/5 352/1/5 351/1/5
f 356/1/5 352/1/5 355/1/5
f 357/1/5 354/1/5 353/1/5
f 358/1/5 354/1/5 357/1/5
f 359/3/6 360/3/6 363/3/6
f 363/3/6 360/3/6 364/3/6
f 361/3/6 362/3/6 365/3/6
f 365/3/6 362/3/6 366/3/6
f 363/1/6 364/1/6 367/1/6
f 365/1/6 366/1/6 370/1/6
f 367/1/6 368/1/6 371/1/6
f 363/1/6 367/1/6 371/1/6
f 371/1/6 368/1/6 372/1/6
f 369/1/6 370/1/6 373/1/6
f 370/1/6 366/1/6 374/1/6
f 373/1/6 370/1/6 374/1/6
f 375/3/6 376/3/6 379/3/6
f 379/3/6 376/3/6 380/3/6
f 377/3/6 378/3/6 381/3/6
f 381/3/6 378/3/6 382/3/6
f 379/1/6 380/1/6 383/1/6
f 381/1/6 382/1/6 386/1/6
f 383/1/6 384/1/6 387/1/6
f 379/1/6 383/1/6 387/1/6
f 387/1/6 384/1/6 388/1/6
f 385/1/6 386/1/6 389/1/6
f 386/1/6 382/1/6 390/1/6
f 389/1/6 386/1/6 390/1/6
f 391/3/6 392/3/6 395/3/6
f 395/3/6 392/3/6 396/3/6
f 393/3/6 394/3/6 397/3/6
f 397/3/6 394/3/6 398/3/6
f 395/1/6 396/1/6 399/1/6
f 397/1/6 398/1/6 402/1/6
f 399/1/6 400/1/6 403/1/6
f 395/1/6 399/1/6 403/1/6
f 403/1/6 400/1/6 404/1/6
f 401/1/6 402/1/6 405/1/6
f 402/1/6 398/1/6 406/1/6
f 405/1/6 402/1/6 406/1/6
f 407/1/6 408/1/6 409/1/6
f 409/1/6 408/1/6 410/1/6
f 407/1/6 409/1/6 411/1/6
f 410/1/6 408/1/6 412/1/6
f 407/1/6 411/1/6 413/1/6
f 411/1/6 412/1/6 413/1/6
f 413/1/6 412/1/6 414/1/6
f 412/1/6 408/1/6 415/1/6
f 414/1/6 412/1/6 415/1/6
f 415/1/6 408/1/6 416/1/6
f 407/1/6 413/1/6 417/1/6
f 414/1/6 415/1/6 418/1/6
f 418/1/6 415/1/6 419/1/6
f 416/1/6 408/1/6 420/1/6
f 418/1/6 419/1/6 421/1/6
f 419/1/6 420/1/6 421/1/6
f 407/1/6 417/1/6 421/1/6
f 417/1/6 418/1/6 421/1/6
f 420/1/6 408/1/6 422/1/6
f 421/1/6 420/1/6 422/1/6
f 423/3/6 424/3/6 425/3/6
f 425/3/6 424/3/6 426/3/6
f 427/3/6 428/3/6 431/3/6
f 431/3/6 428/3/6 432/3/6
f 425/1/6 426/1/6 433/1/6
f 433/1/6 426/1/6 434/1/6
f 429/3/6 430/3/6 435/3/6
f 435/3/6 430/3/6 436/3/6
f 431/1/6 432/1/6 437/1/6
f 437/1/6 432/1/6 438/1/6
f 435/1/6 436/1/6 439/1/6
f 439/1/6 436/1/6 440/1/6
